<svg width="512" height="512" version="1.1" xmlns="http://www.w3.org/2000/svg" desc="Created with imagetracer.js version 1.2.6" ><path fill="rgb(219,219,218)" stroke="rgb(219,219,218)" stroke-width="1" opacity="0.996078431372549" d="M 276.5 14 L 279.5 18 L 276.5 14 Z " /><path fill="rgb(219,219,218)" stroke="rgb(219,219,218)" stroke-width="1" opacity="0.996078431372549" d="M 445.5 16 L 442.5 20 L 445.5 16 Z " /><path fill="rgb(219,219,218)" stroke="rgb(219,219,218)" stroke-width="1" opacity="0.996078431372549" d="M 450.5 17 L 451 39.5 L 450 39.5 L 450.5 17 Z " /><path fill="rgb(219,219,218)" stroke="rgb(219,219,218)" stroke-width="1" opacity="0.996078431372549" d="M 283.5 20 L 287.5 25 L 283.5 20 Z " /><path fill="rgb(219,219,218)" stroke="rgb(219,219,218)" stroke-width="1" opacity="0.996078431372549" d="M 438.5 22 L 436.5 25 L 438.5 22 Z " /><path fill="rgb(219,219,218)" stroke="rgb(219,219,218)" stroke-width="1" opacity="0.996078431372549" d="M 273.5 27 L 274 33.5 L 273 33.5 L 273.5 27 Z " /><path fill="rgb(219,219,218)" stroke="rgb(219,219,218)" stroke-width="1" opacity="0.996078431372549" d="M 432.5 27 L 429.5 31 L 432.5 27 Z " /><path fill="rgb(219,219,218)" stroke="rgb(219,219,218)" stroke-width="1" opacity="0.996078431372549" d="M 292.5 28 L 295.5 32 L 292.5 28 Z " /><path fill="rgb(219,219,218)" stroke="rgb(219,219,218)" stroke-width="1" opacity="0.996078431372549" d="M 345.5 28 L 352 28.5 L 345.5 29 L 345.5 28 Z " /><path fill="rgb(219,219,218)" stroke="rgb(219,219,218)" stroke-width="1" opacity="0.996078431372549" d="M 370.5 28 L 376 28.5 L 370.5 29 L 370.5 28 Z " /><path fill="rgb(219,219,218)" stroke="rgb(219,219,218)" stroke-width="1" opacity="0.996078431372549" d="M 337.5 29 L 340 29.5 L 337.5 30 L 337.5 29 Z " /><path fill="rgb(219,219,218)" stroke="rgb(219,219,218)" stroke-width="1" opacity="0.996078431372549" d="M 381.5 29 L 385 29.5 L 381.5 30 L 381.5 29 Z " /><path fill="rgb(219,219,218)" stroke="rgb(219,219,218)" stroke-width="1" opacity="0.996078431372549" d="M 425.5 33 L 422.5 37 L 425.5 33 Z " /><path fill="rgb(219,219,218)" stroke="rgb(219,219,218)" stroke-width="1" opacity="0.996078431372549" d="M 300.5 35 L 302.5 38 L 300.5 35 Z " /><path fill="rgb(219,219,218)" stroke="rgb(219,219,218)" stroke-width="1" opacity="0.996078431372549" d="M 274.5 45 L 275 51.5 L 274 51.5 L 274.5 45 Z " /><path fill="rgb(219,219,218)" stroke="rgb(219,219,218)" stroke-width="1" opacity="0.996078431372549" d="M 451.5 74 L 452 76.5 L 451 76.5 L 451.5 74 Z " /><path fill="rgb(219,219,218)" stroke="rgb(219,219,218)" stroke-width="1" opacity="0.996078431372549" d="M 325.5 77 L 328 77.5 L 325.5 78 L 325.5 77 Z " /><path fill="rgb(219,219,218)" stroke="rgb(219,219,218)" stroke-width="1" opacity="0.996078431372549" d="M 323.5 78 L 322.5 80 L 323.5 78 Z " /><path fill="rgb(219,219,218)" stroke="rgb(219,219,218)" stroke-width="1" opacity="0.996078431372549" d="M 329.5 78 L 331.5 81 L 329.5 78 Z " /><path fill="rgb(219,219,218)" stroke="rgb(219,219,218)" stroke-width="1" opacity="0.996078431372549" d="M 400.5 78 L 398.5 81 L 400.5 78 Z " /><path fill="rgb(219,219,218)" stroke="rgb(219,219,218)" stroke-width="1" opacity="0.996078431372549" d="M 405.5 78 L 407.5 81 L 405.5 78 Z " /><path fill="rgb(219,219,218)" stroke="rgb(219,219,218)" stroke-width="1" opacity="0.996078431372549" d="M 321.5 81 L 322 86.5 L 321 86.5 L 321.5 81 Z " /><path fill="rgb(219,219,218)" stroke="rgb(219,219,218)" stroke-width="1" opacity="0.996078431372549" d="M 397.5 83 L 398 85.5 L 397 85.5 L 397.5 83 Z " /><path fill="rgb(219,219,218)" stroke="rgb(219,219,218)" stroke-width="1" opacity="0.996078431372549" d="M 331.5 87 L 330.5 89 L 331.5 87 Z " /><path fill="rgb(219,219,218)" stroke="rgb(219,219,218)" stroke-width="1" opacity="0.996078431372549" d="M 453.5 87 L 454 90.5 L 453 90.5 L 453.5 87 Z " /><path fill="rgb(219,219,218)" stroke="rgb(219,219,218)" stroke-width="1" opacity="0.996078431372549" d="M 454.5 95 L 455 98.5 L 454 98.5 L 454.5 95 Z " /><path fill="rgb(219,219,218)" stroke="rgb(219,219,218)" stroke-width="1" opacity="0.996078431372549" d="M 267.5 98 L 268 101.5 L 267 101.5 L 267.5 98 Z " /><path fill="rgb(219,219,218)" stroke="rgb(219,219,218)" stroke-width="1" opacity="0.996078431372549" d="M 359.5 103 L 362 103.5 L 359.5 104 L 359.5 103 Z " /><path fill="rgb(219,219,218)" stroke="rgb(219,219,218)" stroke-width="1" opacity="0.996078431372549" d="M 357.5 104 L 356.5 106 L 357.5 104 Z " /><path fill="rgb(219,219,218)" stroke="rgb(219,219,218)" stroke-width="1" opacity="0.996078431372549" d="M 369.5 104 L 371.5 107 L 369.5 104 Z " /><path fill="rgb(219,219,218)" stroke="rgb(219,219,218)" stroke-width="1" opacity="0.996078431372549" d="M 455.5 106 L 456 120.5 L 455 120.5 L 455.5 106 Z " /><path fill="rgb(219,219,218)" stroke="rgb(219,219,218)" stroke-width="1" opacity="0.996078431372549" d="M 266.5 107 L 267 117.5 L 266 117.5 L 266.5 107 Z " /><path fill="rgb(219,219,218)" stroke="rgb(219,219,218)" stroke-width="1" opacity="0.996078431372549" d="M 355.5 108 L 356 111.5 L 355 111.5 L 355.5 108 Z " /><path fill="rgb(219,219,218)" stroke="rgb(219,219,218)" stroke-width="1" opacity="0.996078431372549" d="M 358.5 119 Q 363.2 120.2 362 127.5 L 361 127.5 L 361 122.5 L 358.5 119 Z " /><path fill="rgb(219,219,218)" stroke="rgb(219,219,218)" stroke-width="1" opacity="0.996078431372549" d="M 267.5 123 L 268 125.5 L 267 125.5 L 267.5 123 Z " /><path fill="rgb(219,219,218)" stroke="rgb(219,219,218)" stroke-width="1" opacity="0.996078431372549" d="M 434.5 123 L 438 123.5 L 434.5 124 L 434.5 123 Z " /><path fill="rgb(219,219,218)" stroke="rgb(219,219,218)" stroke-width="1" opacity="0.996078431372549" d="M 426.5 124 L 429 124.5 L 426.5 125 L 426.5 124 Z " /><path fill="rgb(219,219,218)" stroke="rgb(219,219,218)" stroke-width="1" opacity="0.996078431372549" d="M 418.5 125 L 421 125.5 L 418.5 126 L 418.5 125 Z " /><path fill="rgb(219,219,218)" stroke="rgb(219,219,218)" stroke-width="1" opacity="0.996078431372549" d="M 410.5 126 L 413 126.5 L 410.5 127 L 410.5 126 Z " /><path fill="rgb(219,219,218)" stroke="rgb(219,219,218)" stroke-width="1" opacity="0.996078431372549" d="M 335.5 127 L 336.5 129 L 335.5 127 Z " /><path fill="rgb(219,219,218)" stroke="rgb(219,219,218)" stroke-width="1" opacity="0.996078431372549" d="M 402.5 127 L 405 127.5 L 402.5 128 L 402.5 127 Z " /><path fill="rgb(219,219,218)" stroke="rgb(219,219,218)" stroke-width="1" opacity="0.996078431372549" d="M 430.5 128 L 433 128.5 L 430.5 129 L 430.5 128 Z " /><path fill="rgb(219,219,218)" stroke="rgb(219,219,218)" stroke-width="1" opacity="0.996078431372549" d="M 422.5 129 L 425 129.5 L 422.5 130 L 422.5 129 Z " /><path fill="rgb(219,219,218)" stroke="rgb(219,219,218)" stroke-width="1" opacity="0.996078431372549" d="M 336.5 130 L 335.5 132 L 336.5 130 Z " /><path fill="rgb(219,219,218)" stroke="rgb(219,219,218)" stroke-width="1" opacity="0.996078431372549" d="M 414.5 130 L 417 130.5 L 414.5 131 L 414.5 130 Z " /><path fill="rgb(219,219,218)" stroke="rgb(219,219,218)" stroke-width="1" opacity="0.996078431372549" d="M 406.5 131 L 409 131.5 L 406.5 132 L 406.5 131 Z " /><path fill="rgb(219,219,218)" stroke="rgb(219,219,218)" stroke-width="1" opacity="0.996078431372549" d="M 397.5 132 L 401 132.5 L 397.5 133 L 397.5 132 Z " /><path fill="rgb(219,219,218)" stroke="rgb(219,219,218)" stroke-width="1" opacity="0.996078431372549" d="M 363.5 136 L 365.5 139 L 363.5 137 L 361 138.5 L 363.5 136 Z " /><path fill="rgb(219,219,218)" stroke="rgb(219,219,218)" stroke-width="1" opacity="0.996078431372549" d="M 397.5 138 L 399 138.5 L 396.5 140 L 397.5 138 Z " /><path fill="rgb(219,219,218)" stroke="rgb(219,219,218)" stroke-width="1" opacity="0.996078431372549" d="M 317.5 139 L 328 139.5 L 317.5 140 L 317.5 139 Z " /><path fill="rgb(219,219,218)" stroke="rgb(219,219,218)" stroke-width="1" opacity="0.996078431372549" d="M 299.5 140 L 303 140.5 L 298.5 142 L 299.5 140 Z " /><path fill="rgb(219,219,218)" stroke="rgb(219,219,218)" stroke-width="1" opacity="0.996078431372549" d="M 371.5 140 L 376 140.5 L 371.5 141 L 371.5 140 Z " /><path fill="rgb(219,219,218)" stroke="rgb(219,219,218)" stroke-width="1" opacity="0.996078431372549" d="M 335.5 142 L 334.5 144 L 329 143.5 L 335.5 142 Z " /><path fill="rgb(219,219,218)" stroke="rgb(219,219,218)" stroke-width="1" opacity="0.996078431372549" d="M 304.5 144 L 315 144.5 L 304.5 145 L 304.5 144 Z " /><path fill="rgb(219,219,218)" stroke="rgb(219,219,218)" stroke-width="1" opacity="0.996078431372549" d="M 276.5 151 L 277.5 153 L 276.5 151 Z " /><path fill="rgb(219,219,218)" stroke="rgb(219,219,218)" stroke-width="1" opacity="0.996078431372549" d="M 443.5 155 L 442.5 157 L 443.5 155 Z " /><path fill="rgb(219,219,218)" stroke="rgb(219,219,218)" stroke-width="1" opacity="0.996078431372549" d="M 440.5 159 L 439.5 161 L 440.5 159 Z " /><path fill="rgb(219,219,218)" stroke="rgb(219,219,218)" stroke-width="1" opacity="0.996078431372549" d="M 315.5 161 L 320 161.5 L 315.5 162 L 315.5 161 Z " /><path fill="rgb(219,219,218)" stroke="rgb(219,219,218)" stroke-width="1" opacity="0.996078431372549" d="M 310.5 163 L 308.5 166 L 310.5 163 Z " /><path fill="rgb(219,219,218)" stroke="rgb(219,219,218)" stroke-width="1" opacity="0.996078431372549" d="M 437.5 163 L 428.5 173 L 437.5 163 Z " /><path fill="rgb(219,219,218)" stroke="rgb(219,219,218)" stroke-width="1" opacity="0.996078431372549" d="M 311.5 169 L 310.5 171 L 311.5 169 Z " /><path fill="rgb(219,219,218)" stroke="rgb(219,219,218)" stroke-width="1" opacity="0.996078431372549" d="M 345.5 169 L 348.5 173 L 345.5 169 Z " /><path fill="rgb(219,219,218)" stroke="rgb(219,219,218)" stroke-width="1" opacity="0.996078431372549" d="M 343.5 173 L 344.5 175 L 343.5 173 Z " /><path fill="rgb(219,219,218)" stroke="rgb(219,219,218)" stroke-width="1" opacity="0.996078431372549" d="M 425.5 174 L 424.5 176 L 425.5 174 Z " /><path fill="rgb(219,219,218)" stroke="rgb(219,219,218)" stroke-width="1" opacity="0.996078431372549" d="M 431.5 175 L 429.5 178 L 431.5 175 Z " /><path fill="rgb(219,219,218)" stroke="rgb(219,219,218)" stroke-width="1" opacity="0.996078431372549" d="M 345.5 176 L 346 178.5 L 345 178.5 L 345.5 176 Z " /><path fill="rgb(219,219,218)" stroke="rgb(219,219,218)" stroke-width="1" opacity="0.996078431372549" d="M 426.5 179 L 425.5 181 L 423 180.5 L 426.5 179 Z " /><path fill="rgb(219,219,218)" stroke="rgb(219,219,218)" stroke-width="1" opacity="0.996078431372549" d="M 305.5 185 L 306 187.5 L 305 187.5 L 305.5 185 Z " /><path fill="rgb(219,219,218)" stroke="rgb(219,219,218)" stroke-width="1" opacity="0.996078431372549" d="M 352.5 185 L 355 185.5 L 352.5 186 L 352.5 185 Z " /><path fill="rgb(219,219,218)" stroke="rgb(219,219,218)" stroke-width="1" opacity="0.996078431372549" d="M 363.5 185 L 366 185.5 L 363.5 186 L 363.5 185 Z " /><path fill="rgb(219,219,218)" stroke="rgb(219,219,218)" stroke-width="1" opacity="0.996078431372549" d="M 334.5 202 L 335 209.5 L 334 209.5 L 334.5 202 Z " /><path fill="rgb(219,219,218)" stroke="rgb(219,219,218)" stroke-width="1" opacity="0.996078431372549" d="M 300.5 208 L 301 214.5 L 300 214.5 L 300.5 208 Z " /><path fill="rgb(219,219,218)" stroke="rgb(219,219,218)" stroke-width="1" opacity="0.996078431372549" d="M 276.5 217 L 275.5 219 L 276.5 217 Z " /><path fill="rgb(219,219,218)" stroke="rgb(219,219,218)" stroke-width="1" opacity="0.996078431372549" d="M 368.5 217 L 369 221.5 L 368 221.5 L 368.5 217 Z " /><path fill="rgb(219,219,218)" stroke="rgb(219,219,218)" stroke-width="1" opacity="0.996078431372549" d="M 273.5 219 L 272.5 221 L 273.5 219 Z " /><path fill="rgb(219,219,218)" stroke="rgb(219,219,218)" stroke-width="1" opacity="0.996078431372549" d="M 293.5 219 L 295.5 222 L 293.5 219 Z " /><path fill="rgb(219,219,218)" stroke="rgb(219,219,218)" stroke-width="1" opacity="0.996078431372549" d="M 269.5 222 L 267.5 225 L 269.5 222 Z " /><path fill="rgb(219,219,218)" stroke="rgb(219,219,218)" stroke-width="1" opacity="0.996078431372549" d="M 443.5 222 L 444 224.5 L 443 224.5 L 443.5 222 Z " /><path fill="rgb(219,219,218)" stroke="rgb(219,219,218)" stroke-width="1" opacity="0.996078431372549" d="M 298.5 223 L 301.5 227 L 298.5 223 Z " /><path fill="rgb(219,219,218)" stroke="rgb(219,219,218)" stroke-width="1" opacity="0.996078431372549" d="M 292.5 224 L 294.5 227 L 292.5 224 Z " /><path fill="rgb(219,219,218)" stroke="rgb(219,219,218)" stroke-width="1" opacity="0.996078431372549" d="M 262.5 228 L 255.5 236 L 262.5 228 Z " /><path fill="rgb(219,219,218)" stroke="rgb(219,219,218)" stroke-width="1" opacity="0.996078431372549" d="M 297.5 228 L 299.5 231 L 297.5 228 Z " /><path fill="rgb(219,219,218)" stroke="rgb(219,219,218)" stroke-width="1" opacity="0.996078431372549" d="M 369.5 228 L 370 230.5 L 369 230.5 L 369.5 228 Z " /><path fill="rgb(219,219,218)" stroke="rgb(219,219,218)" stroke-width="1" opacity="0.996078431372549" d="M 347.5 229 L 361.5 244 L 351.5 234 L 350 234.5 L 350.5 233 L 348 231.5 L 347.5 229 Z " /><path fill="rgb(219,219,218)" stroke="rgb(219,219,218)" stroke-width="1" opacity="0.996078431372549" d="M 303.5 233 L 304.5 235 L 303.5 233 Z " /><path fill="rgb(219,219,218)" stroke="rgb(219,219,218)" stroke-width="1" opacity="0.996078431372549" d="M 445.5 233 L 446 235.5 L 445 235.5 L 445.5 233 Z " /><path fill="rgb(219,219,218)" stroke="rgb(219,219,218)" stroke-width="1" opacity="0.996078431372549" d="M 370.5 235 L 371 241.5 L 370 241.5 L 370.5 235 Z " /><path fill="rgb(219,219,218)" stroke="rgb(219,219,218)" stroke-width="1" opacity="0.996078431372549" d="M 351.5 236 L 352.5 238 L 351.5 236 Z " /><path fill="rgb(219,219,218)" stroke="rgb(219,219,218)" stroke-width="1" opacity="0.996078431372549" d="M 353.5 239 L 354.5 241 L 353.5 239 Z " /><path fill="rgb(219,219,218)" stroke="rgb(219,219,218)" stroke-width="1" opacity="0.996078431372549" d="M 251.5 240 L 249.5 243 L 251.5 240 Z " /><path fill="rgb(219,219,218)" stroke="rgb(219,219,218)" stroke-width="1" opacity="0.996078431372549" d="M 446.5 240 L 447 242.5 L 446 242.5 L 446.5 240 Z " /><path fill="rgb(219,219,218)" stroke="rgb(219,219,218)" stroke-width="1" opacity="0.996078431372549" d="M 350.5 243 L 351.5 245 L 350.5 243 Z " /><path fill="rgb(219,219,218)" stroke="rgb(219,219,218)" stroke-width="1" opacity="0.996078431372549" d="M 247.5 245 L 246.5 247 L 247.5 245 Z " /><path fill="rgb(219,219,218)" stroke="rgb(219,219,218)" stroke-width="1" opacity="0.996078431372549" d="M 447.5 247 L 448 249.5 L 447 249.5 L 447.5 247 Z " /><path fill="rgb(219,219,218)" stroke="rgb(219,219,218)" stroke-width="1" opacity="0.996078431372549" d="M 245.5 248 L 244.5 250 L 245.5 248 Z " /><path fill="rgb(219,219,218)" stroke="rgb(219,219,218)" stroke-width="1" opacity="0.996078431372549" d="M 359.5 248 L 360.5 250 L 359.5 248 Z " /><path fill="rgb(219,219,218)" stroke="rgb(219,219,218)" stroke-width="1" opacity="0.996078431372549" d="M 243.5 251 L 242.5 253 L 243.5 251 Z " /><path fill="rgb(219,219,218)" stroke="rgb(219,219,218)" stroke-width="1" opacity="0.996078431372549" d="M 361.5 251 L 362.5 253 L 361.5 251 Z " /><path fill="rgb(219,219,218)" stroke="rgb(219,219,218)" stroke-width="1" opacity="0.996078431372549" d="M 357.5 253 L 358.5 255 L 357.5 253 Z " /><path fill="rgb(219,219,218)" stroke="rgb(219,219,218)" stroke-width="1" opacity="0.996078431372549" d="M 364.5 255 L 365.5 257 L 364.5 255 Z " /><path fill="rgb(219,219,218)" stroke="rgb(219,219,218)" stroke-width="1" opacity="0.996078431372549" d="M 448.5 255 L 449 259.5 L 448 259.5 L 448.5 255 Z " /><path fill="rgb(219,219,218)" stroke="rgb(219,219,218)" stroke-width="1" opacity="0.996078431372549" d="M 359.5 256 L 360.5 258 L 359.5 256 Z " /><path fill="rgb(219,219,218)" stroke="rgb(219,219,218)" stroke-width="1" opacity="0.996078431372549" d="M 367.5 259 L 368.5 261 L 367.5 259 Z " /><path fill="rgb(219,219,218)" stroke="rgb(219,219,218)" stroke-width="1" opacity="0.996078431372549" d="M 362.5 260 L 363.5 262 L 362.5 260 Z " /><path fill="rgb(219,219,218)" stroke="rgb(219,219,218)" stroke-width="1" opacity="0.996078431372549" d="M 370.5 263 L 371.5 265 L 370.5 263 Z " /><path fill="rgb(219,219,218)" stroke="rgb(219,219,218)" stroke-width="1" opacity="0.996078431372549" d="M 365.5 264 L 367.5 267 L 365.5 264 Z " /><path fill="rgb(219,219,218)" stroke="rgb(219,219,218)" stroke-width="1" opacity="0.996078431372549" d="M 277.5 265 L 277 266.5 L 276.5 268 L 276 266.5 L 277.5 265 Z " /><path fill="rgb(219,219,218)" stroke="rgb(219,219,218)" stroke-width="1" opacity="0.996078431372549" d="M 280.5 265 L 281.5 267 L 280.5 265 Z " /><path fill="rgb(219,219,218)" stroke="rgb(219,219,218)" stroke-width="1" opacity="0.996078431372549" d="M 449.5 268 L 450 290.5 L 449 290.5 L 449.5 268 Z " /><path fill="rgb(219,219,218)" stroke="rgb(219,219,218)" stroke-width="1" opacity="0.996078431372549" d="M 278.5 269 L 279.5 271 L 278.5 269 Z " /><path fill="rgb(219,219,218)" stroke="rgb(219,219,218)" stroke-width="1" opacity="0.996078431372549" d="M 369.5 269 L 370.5 271 L 369.5 269 Z " /><path fill="rgb(219,219,218)" stroke="rgb(219,219,218)" stroke-width="1" opacity="0.996078431372549" d="M 283.5 272 L 284.5 274 L 283.5 272 Z " /><path fill="rgb(219,219,218)" stroke="rgb(219,219,218)" stroke-width="1" opacity="0.996078431372549" d="M 297.5 275 L 298.5 277 L 297.5 275 Z " /><path fill="rgb(219,219,218)" stroke="rgb(219,219,218)" stroke-width="1" opacity="0.996078431372549" d="M 302.5 278 L 303.5 280 L 302.5 278 Z " /><path fill="rgb(219,219,218)" stroke="rgb(219,219,218)" stroke-width="1" opacity="0.996078431372549" d="M 232.5 279 L 233 281.5 L 232 281.5 L 232.5 279 Z " /><path fill="rgb(219,219,218)" stroke="rgb(219,219,218)" stroke-width="1" opacity="0.996078431372549" d="M 307.5 281 L 308.5 283 L 307.5 281 Z " /><path fill="rgb(219,219,218)" stroke="rgb(219,219,218)" stroke-width="1" opacity="0.996078431372549" d="M 300.5 282 L 301.5 284 L 300.5 282 Z " /><path fill="rgb(219,219,218)" stroke="rgb(219,219,218)" stroke-width="1" opacity="0.996078431372549" d="M 305.5 285 L 306.5 287 L 305.5 285 Z " /><path fill="rgb(219,219,218)" stroke="rgb(219,219,218)" stroke-width="1" opacity="0.996078431372549" d="M 231.5 287 L 232 290.5 L 231 290.5 L 231.5 287 Z " /><path fill="rgb(219,219,218)" stroke="rgb(219,219,218)" stroke-width="1" opacity="0.996078431372549" d="M 310.5 288 L 311.5 290 L 310.5 288 Z " /><path fill="rgb(219,219,218)" stroke="rgb(219,219,218)" stroke-width="1" opacity="0.996078431372549" d="M 315.5 291 L 316.5 293 L 315.5 291 Z " /><path fill="rgb(219,219,218)" stroke="rgb(219,219,218)" stroke-width="1" opacity="0.996078431372549" d="M 453 292 L 455 292.5 L 453.5 297 L 453 292 Z " /><path fill="rgb(219,219,218)" stroke="rgb(219,219,218)" stroke-width="1" opacity="0.996078431372549" d="M 455.5 294 L 456.5 296 L 455.5 294 Z " /><path fill="rgb(219,219,218)" stroke="rgb(219,219,218)" stroke-width="1" opacity="0.996078431372549" d="M 230.5 298 L 231 302.5 L 230 302.5 L 230.5 298 Z " /><path fill="rgb(219,219,218)" stroke="rgb(219,219,218)" stroke-width="1" opacity="0.996078431372549" d="M 448.5 298 L 449 300.5 L 448 300.5 L 448.5 298 Z " /><path fill="rgb(219,219,218)" stroke="rgb(219,219,218)" stroke-width="1" opacity="0.996078431372549" d="M 462.5 305 L 463.5 307 L 462.5 305 Z " /><path fill="rgb(219,219,218)" stroke="rgb(219,219,218)" stroke-width="1" opacity="0.996078431372549" d="M 229.5 310 L 230 312.5 L 229 312.5 L 229.5 310 Z " /><path fill="rgb(219,219,218)" stroke="rgb(219,219,218)" stroke-width="1" opacity="0.996078431372549" d="M 471.5 329 L 472 332.5 L 471 332.5 L 471.5 329 Z " /><path fill="rgb(219,219,218)" stroke="rgb(219,219,218)" stroke-width="1" opacity="0.996078431372549" d="M 346.5 331 L 346 332.5 L 345.5 334 L 345 332.5 L 346.5 331 Z " /><path fill="rgb(219,219,218)" stroke="rgb(219,219,218)" stroke-width="1" opacity="0.996078431372549" d="M 349.5 331 L 352.5 335 L 349.5 331 Z " /><path fill="rgb(219,219,218)" stroke="rgb(219,219,218)" stroke-width="1" opacity="0.996078431372549" d="M 348.5 336 L 354.5 343 L 348.5 336 Z " /><path fill="rgb(219,219,218)" stroke="rgb(219,219,218)" stroke-width="1" opacity="0.996078431372549" d="M 357.5 338 L 363.5 345 L 357.5 338 Z " /><path fill="rgb(219,219,218)" stroke="rgb(219,219,218)" stroke-width="1" opacity="0.996078431372549" d="M 471.5 339 L 472 341.5 L 471 341.5 L 471.5 339 Z " /><path fill="rgb(219,219,218)" stroke="rgb(219,219,218)" stroke-width="1" opacity="0.996078431372549" d="M 219.5 344 L 214.5 350 L 219.5 344 Z " /><path fill="rgb(219,219,218)" stroke="rgb(219,219,218)" stroke-width="1" opacity="0.996078431372549" d="M 359.5 347 L 364.5 353 L 359.5 347 Z " /><path fill="rgb(219,219,218)" stroke="rgb(219,219,218)" stroke-width="1" opacity="0.996078431372549" d="M 367.5 349 L 369.5 352 L 367.5 349 Z " /><path fill="rgb(219,219,218)" stroke="rgb(219,219,218)" stroke-width="1" opacity="0.996078431372549" d="M 468.5 350 L 463.5 356 L 468.5 350 Z " /><path fill="rgb(219,219,218)" stroke="rgb(219,219,218)" stroke-width="1" opacity="0.996078431372549" d="M 211.5 351 L 210.5 353 L 211.5 351 Z " /><path fill="rgb(219,219,218)" stroke="rgb(219,219,218)" stroke-width="1" opacity="0.996078431372549" d="M 208.5 353 L 207.5 355 L 208.5 353 Z " /><path fill="rgb(219,219,218)" stroke="rgb(219,219,218)" stroke-width="1" opacity="0.996078431372549" d="M 371.5 354 L 372.5 356 L 371.5 354 Z " /><path fill="rgb(219,219,218)" stroke="rgb(219,219,218)" stroke-width="1" opacity="0.996078431372549" d="M 366.5 355 L 367.5 357 L 366.5 355 Z " /><path fill="rgb(219,219,218)" stroke="rgb(219,219,218)" stroke-width="1" opacity="0.996078431372549" d="M 203.5 356 L 202.5 358 L 203.5 356 Z " /><path fill="rgb(219,219,218)" stroke="rgb(219,219,218)" stroke-width="1" opacity="0.996078431372549" d="M 445.5 357 L 448.5 361 L 445.5 357 Z " /><path fill="rgb(219,219,218)" stroke="rgb(219,219,218)" stroke-width="1" opacity="0.996078431372549" d="M 374.5 358 L 375.5 360 L 374.5 358 Z " /><path fill="rgb(219,219,218)" stroke="rgb(219,219,218)" stroke-width="1" opacity="0.996078431372549" d="M 69.5 359 L 70 360.5 L 65 366.5 L 58 382.5 L 56 391.5 L 56 406.5 L 57.5 406 Q 69.1 395.4 86 391 L 86.5 383 L 87 399.5 L 90 410.5 L 87.5 411 Q 73.6 414.6 66 424.5 L 61 432.5 Q 68.7 450.8 82.5 463 L 89.5 468 L 91 466.5 L 94 452.5 L 103 437.5 L 102.5 436 L 114.5 449 L 117 450.5 Q 108 460 109 479.5 Q 125.1 489.4 150.5 490 L 150 488.5 L 145 473.5 L 144 462 L 142 461.5 L 143.5 461 L 144.5 462 L 156.5 463 L 163 462 L 167 480.5 L 173.5 490 L 183.5 489 L 200 485 Q 201.3 488 197.5 487 L 184.5 492 L 166.5 496 L 152.5 497 L 151.5 498 L 132.5 498 L 131.5 497 L 116.5 496 L 94.5 489 Q 73.8 480.2 60 464.5 Q 50 453.5 44 438.5 L 40 421.5 L 40 404.5 L 43 390.5 L 49 377.5 L 61.5 363 L 69.5 359 Z " /><path fill="rgb(219,219,218)" stroke="rgb(219,219,218)" stroke-width="1" opacity="0.996078431372549" d="M 77.5 359 L 78.5 361 L 77.5 359 Z " /><path fill="rgb(219,219,218)" stroke="rgb(219,219,218)" stroke-width="1" opacity="0.996078431372549" d="M 369.5 359 L 370.5 361 L 369.5 359 Z " /><path fill="rgb(219,219,218)" stroke="rgb(219,219,218)" stroke-width="1" opacity="0.996078431372549" d="M 371.5 362 L 372.5 364 L 371.5 362 Z " /><path fill="rgb(219,219,218)" stroke="rgb(219,219,218)" stroke-width="1" opacity="0.996078431372549" d="M 83.5 363 L 84.5 365 L 83.5 363 Z " /><path fill="rgb(219,219,218)" stroke="rgb(219,219,218)" stroke-width="1" opacity="0.996078431372549" d="M 178.5 367 Q 181.3 366.4 180 372.5 L 181 373.5 L 181 384.5 L 182 385.5 L 184 403.5 L 191 425.5 Q 203.1 452.4 224.5 470 Q 232.4 477.1 244.5 480 L 409 480 L 409.5 477 L 410 484.5 L 408 493.5 L 404.5 497 L 226.5 497 Q 205.6 489.9 194 473.5 Q 177.7 455.3 170 428.5 L 166 407.5 L 166 399.5 L 165 398.5 L 165 371 L 178.5 367 Z " /><path fill="rgb(219,219,218)" stroke="rgb(219,219,218)" stroke-width="1" opacity="0.996078431372549" d="M 86.5 370 L 87 372.5 L 86 372.5 L 86.5 370 Z " /><path fill="rgb(219,219,218)" stroke="rgb(219,219,218)" stroke-width="1" opacity="0.996078431372549" d="M 417.5 381 L 416.5 383 L 417.5 381 Z " /><path fill="rgb(219,219,218)" stroke="rgb(219,219,218)" stroke-width="1" opacity="0.996078431372549" d="M 387.5 388 L 388 390.5 L 387 390.5 L 387.5 388 Z " /><path fill="rgb(219,219,218)" stroke="rgb(219,219,218)" stroke-width="1" opacity="0.996078431372549" d="M 411.5 390 L 410.5 392 L 411.5 390 Z " /><path fill="rgb(219,219,218)" stroke="rgb(219,219,218)" stroke-width="1" opacity="0.996078431372549" d="M 383.5 392 L 384 403.5 L 383 403.5 L 383.5 392 Z " /><path fill="rgb(219,219,218)" stroke="rgb(219,219,218)" stroke-width="1" opacity="0.996078431372549" d="M 409.5 393 L 408.5 395 L 409.5 393 Z " /><path fill="rgb(219,219,218)" stroke="rgb(219,219,218)" stroke-width="1" opacity="0.996078431372549" d="M 406.5 397 L 404.5 400 L 406.5 397 Z " /><path fill="rgb(219,219,218)" stroke="rgb(219,219,218)" stroke-width="1" opacity="0.996078431372549" d="M 401.5 403 L 393.5 412 L 401.5 403 Z " /><path fill="rgb(219,219,218)" stroke="rgb(219,219,218)" stroke-width="1" opacity="0.996078431372549" d="M 387.5 405 L 388 407.5 L 387 407.5 L 387.5 405 Z " /><path fill="rgb(219,219,218)" stroke="rgb(219,219,218)" stroke-width="1" opacity="0.996078431372549" d="M 390.5 413 L 388.5 416 L 390.5 413 Z " /><path fill="rgb(219,219,218)" stroke="rgb(219,219,218)" stroke-width="1" opacity="0.996078431372549" d="M 385.5 415 Q 388.5 416.5 385.5 418 L 385.5 415 Z " /><path fill="rgb(219,219,218)" stroke="rgb(219,219,218)" stroke-width="1" opacity="0.996078431372549" d="M 374.5 428 L 373.5 430 L 374.5 428 Z " /><path fill="rgb(219,219,218)" stroke="rgb(219,219,218)" stroke-width="1" opacity="0.996078431372549" d="M 372.5 431 L 371.5 433 L 372.5 431 Z " /><path fill="rgb(219,219,218)" stroke="rgb(219,219,218)" stroke-width="1" opacity="0.996078431372549" d="M 99.5 432 L 100.5 434 L 99.5 432 Z " /><path fill="rgb(219,219,218)" stroke="rgb(219,219,218)" stroke-width="1" opacity="0.996078431372549" d="M 370.5 434 L 368.5 437 L 370.5 434 Z " /><path fill="rgb(219,219,218)" stroke="rgb(219,219,218)" stroke-width="1" opacity="0.996078431372549" d="M 365.5 440 L 355.5 451 L 365.5 440 Z " /><path fill="rgb(219,219,218)" stroke="rgb(219,219,218)" stroke-width="1" opacity="0.996078431372549" d="M 390.5 449 L 391.5 451 L 390.5 449 Z " /><path fill="rgb(219,219,218)" stroke="rgb(219,219,218)" stroke-width="1" opacity="0.996078431372549" d="M 118.5 451 L 119.5 453 L 118.5 451 Z " /><path fill="rgb(219,219,218)" stroke="rgb(219,219,218)" stroke-width="1" opacity="0.996078431372549" d="M 360.5 451 L 356.5 456 L 360.5 451 Z " /><path fill="rgb(219,219,218)" stroke="rgb(219,219,218)" stroke-width="1" opacity="0.996078431372549" d="M 351.5 453 L 349.5 456 L 351.5 453 Z " /><path fill="rgb(219,219,218)" stroke="rgb(219,219,218)" stroke-width="1" opacity="0.996078431372549" d="M 378.5 454 L 393 454.5 L 378.5 455 L 378.5 454 Z " /><path fill="rgb(219,219,218)" stroke="rgb(219,219,218)" stroke-width="1" opacity="0.996078431372549" d="M 365.5 455 L 373 455.5 L 365.5 456 L 365.5 455 Z " /><path fill="rgb(219,219,218)" stroke="rgb(219,219,218)" stroke-width="1" opacity="0.996078431372549" d="M 343.5 456 L 348 456.5 L 343.5 457 L 343.5 456 Z " /><path fill="rgb(219,219,218)" stroke="rgb(219,219,218)" stroke-width="1" opacity="0.996078431372549" d="M 374.5 459 L 377 459.5 L 374.5 460 L 374.5 459 Z " /><path fill="rgb(219,219,218)" stroke="rgb(219,219,218)" stroke-width="1" opacity="0.996078431372549" d="M 393.5 459 L 396 459.5 L 393.5 460 L 393.5 459 Z " /><path fill="rgb(219,219,218)" stroke="rgb(219,219,218)" stroke-width="1" opacity="0.996078431372549" d="M 353.5 460 L 363 460.5 L 353.5 461 L 353.5 460 Z " /><path fill="rgb(219,219,218)" stroke="rgb(219,219,218)" stroke-width="1" opacity="0.996078431372549" d="M 403.5 462 L 406.5 466 L 403.5 462 Z " /><path fill="rgb(219,219,218)" stroke="rgb(219,219,218)" stroke-width="1" opacity="0.996078431372549" d="M 183.5 466 L 184.5 468 L 183.5 466 Z " /><path fill="rgb(219,219,218)" stroke="rgb(219,219,218)" stroke-width="1" opacity="0.996078431372549" d="M 185.5 469 L 186.5 471 L 185.5 469 Z " /><path fill="rgb(219,219,218)" stroke="rgb(219,219,218)" stroke-width="1" opacity="0.996078431372549" d="M 189.5 474 L 191.5 477 L 189.5 474 Z " /><path fill="rgb(233,233,233)" stroke="rgb(233,233,233)" stroke-width="1" opacity="1" d="M 280.5 18 L 281.5 20 L 280.5 18 Z " /><path fill="rgb(233,233,233)" stroke="rgb(233,233,233)" stroke-width="1" opacity="1" d="M 288.5 25 L 289.5 27 L 288.5 25 Z " /><path fill="rgb(233,233,233)" stroke="rgb(233,233,233)" stroke-width="1" opacity="1" d="M 435.5 25 L 434.5 27 L 435.5 25 Z " /><path fill="rgb(233,233,233)" stroke="rgb(233,233,233)" stroke-width="1" opacity="1" d="M 428.5 31 L 427.5 33 L 428.5 31 Z " /><path fill="rgb(233,233,233)" stroke="rgb(233,233,233)" stroke-width="1" opacity="1" d="M 296.5 32 L 298.5 35 L 296.5 32 Z " /><path fill="rgb(233,233,233)" stroke="rgb(233,233,233)" stroke-width="1" opacity="1" d="M 421.5 37 L 420.5 39 L 421.5 37 Z " /><path fill="rgb(233,233,233)" stroke="rgb(233,233,233)" stroke-width="1" opacity="1" d="M 398.5 88 L 399.5 90 L 398.5 88 Z " /><path fill="rgb(233,233,233)" stroke="rgb(233,233,233)" stroke-width="1" opacity="1" d="M 407.5 88 L 406.5 90 L 407.5 88 Z " /><path fill="rgb(233,233,233)" stroke="rgb(233,233,233)" stroke-width="1" opacity="1" d="M 368.5 120 L 367.5 122 L 368.5 120 Z " /><path fill="rgb(233,233,233)" stroke="rgb(233,233,233)" stroke-width="1" opacity="1" d="M 367.5 133 L 368.5 135 L 367.5 133 Z " /><path fill="rgb(233,233,233)" stroke="rgb(233,233,233)" stroke-width="1" opacity="1" d="M 313.5 167 L 312.5 169 L 313.5 167 Z " /><path fill="rgb(233,233,233)" stroke="rgb(233,233,233)" stroke-width="1" opacity="1" d="M 289.5 222 L 290.5 224 L 289.5 222 Z " /><path fill="rgb(233,233,233)" stroke="rgb(233,233,233)" stroke-width="1" opacity="1" d="M 266.5 225 L 265.5 227 L 266.5 225 Z " /><path fill="rgb(233,233,233)" stroke="rgb(233,233,233)" stroke-width="1" opacity="1" d="M 300.5 231 L 301.5 233 L 300.5 231 Z " /><path fill="rgb(233,233,233)" stroke="rgb(233,233,233)" stroke-width="1" opacity="1" d="M 254.5 237 L 252.5 240 L 254.5 237 Z " /><path fill="rgb(233,233,233)" stroke="rgb(233,233,233)" stroke-width="1" opacity="1" d="M 372.5 265 L 373.5 267 L 372.5 265 Z " /><path fill="rgb(233,233,233)" stroke="rgb(233,233,233)" stroke-width="1" opacity="1" d="M 276.5 268 L 277.5 270 L 276.5 268 Z " /><path fill="rgb(233,233,233)" stroke="rgb(233,233,233)" stroke-width="1" opacity="1" d="M 354.5 335 L 356.5 338 L 354.5 335 Z " /><path fill="rgb(233,233,233)" stroke="rgb(233,233,233)" stroke-width="1" opacity="1" d="M 355.5 343 L 358.5 347 L 355.5 343 Z " /><path fill="rgb(233,233,233)" stroke="rgb(233,233,233)" stroke-width="1" opacity="1" d="M 364.5 345 L 366.5 348 L 364.5 345 Z " /><path fill="rgb(233,233,233)" stroke="rgb(233,233,233)" stroke-width="1" opacity="1" d="M 69.5 361 L 67.5 364 L 69.5 361 Z " /><path fill="rgb(233,233,233)" stroke="rgb(233,233,233)" stroke-width="1" opacity="1" d="M 66.5 365 L 66 366.5 L 64.5 369 L 65 367.5 L 66.5 365 Z " /><path fill="rgb(233,233,233)" stroke="rgb(233,233,233)" stroke-width="1" opacity="1" d="M 180.5 367 L 181 372.5 L 180 372.5 L 180.5 367 Z " /><path fill="rgb(233,233,233)" stroke="rgb(233,233,233)" stroke-width="1" opacity="1" d="M 63.5 370 L 64 371.5 L 61.5 376 L 61 374.5 L 63.5 370 Z " /><path fill="rgb(233,233,233)" stroke="rgb(233,233,233)" stroke-width="1" opacity="1" d="M 181.5 378 L 182 384.5 L 181 384.5 L 181.5 378 Z " /><path fill="rgb(233,233,233)" stroke="rgb(233,233,233)" stroke-width="1" opacity="1" d="M 58.5 382 L 59 384.5 L 58 384.5 L 58.5 382 Z " /><path fill="rgb(233,233,233)" stroke="rgb(233,233,233)" stroke-width="1" opacity="1" d="M 57.5 386 L 58 389.5 L 57 389.5 L 57.5 386 Z " /><path fill="rgb(233,233,233)" stroke="rgb(233,233,233)" stroke-width="1" opacity="1" d="M 182.5 389 L 183 392.5 L 182 392.5 L 182.5 389 Z " /><path fill="rgb(233,233,233)" stroke="rgb(233,233,233)" stroke-width="1" opacity="1" d="M 56.5 391 L 57 396.5 L 56 396.5 L 56.5 391 Z " /><path fill="rgb(233,233,233)" stroke="rgb(233,233,233)" stroke-width="1" opacity="1" d="M 183.5 395 L 184 398.5 L 183 398.5 L 183.5 395 Z " /><path fill="rgb(233,233,233)" stroke="rgb(233,233,233)" stroke-width="1" opacity="1" d="M 67.5 398 L 66.5 400 L 67.5 398 Z " /><path fill="rgb(233,233,233)" stroke="rgb(233,233,233)" stroke-width="1" opacity="1" d="M 64.5 400 L 63.5 402 L 64.5 400 Z " /><path fill="rgb(233,233,233)" stroke="rgb(233,233,233)" stroke-width="1" opacity="1" d="M 403.5 400 L 402.5 402 L 403.5 400 Z " /><path fill="rgb(233,233,233)" stroke="rgb(233,233,233)" stroke-width="1" opacity="1" d="M 184.5 401 L 185 403.5 L 184 403.5 L 184.5 401 Z " /><path fill="rgb(233,233,233)" stroke="rgb(233,233,233)" stroke-width="1" opacity="1" d="M 61.5 402 L 58.5 406 L 61.5 402 Z " /><path fill="rgb(233,233,233)" stroke="rgb(233,233,233)" stroke-width="1" opacity="1" d="M 185.5 405 L 186 407.5 L 185 407.5 L 185.5 405 Z " /><path fill="rgb(233,233,233)" stroke="rgb(233,233,233)" stroke-width="1" opacity="1" d="M 186.5 409 L 187 411.5 L 186 411.5 L 186.5 409 Z " /><path fill="rgb(233,233,233)" stroke="rgb(233,233,233)" stroke-width="1" opacity="1" d="M 80.5 413 L 79.5 415 L 80.5 413 Z " /><path fill="rgb(233,233,233)" stroke="rgb(233,233,233)" stroke-width="1" opacity="1" d="M 75.5 416 L 74.5 418 L 75.5 416 Z " /><path fill="rgb(233,233,233)" stroke="rgb(233,233,233)" stroke-width="1" opacity="1" d="M 189.5 419 L 191 422.5 L 190 422.5 L 189.5 419 Z " /><path fill="rgb(233,233,233)" stroke="rgb(233,233,233)" stroke-width="1" opacity="1" d="M 70.5 420 L 66.5 425 L 70.5 420 Z " /><path fill="rgb(233,233,233)" stroke="rgb(233,233,233)" stroke-width="1" opacity="1" d="M 191.5 424 L 193 427.5 L 192 427.5 L 191.5 424 Z " /><path fill="rgb(233,233,233)" stroke="rgb(233,233,233)" stroke-width="1" opacity="1" d="M 193.5 429 L 199 438.5 L 197 437.5 L 193.5 429 Z " /><path fill="rgb(233,233,233)" stroke="rgb(233,233,233)" stroke-width="1" opacity="1" d="M 62.5 430 L 62 431.5 L 61.5 433 L 61 431.5 L 62.5 430 Z " /><path fill="rgb(233,233,233)" stroke="rgb(233,233,233)" stroke-width="1" opacity="1" d="M 63.5 436 L 65 438.5 L 63 437.5 L 63.5 436 Z " /><path fill="rgb(233,233,233)" stroke="rgb(233,233,233)" stroke-width="1" opacity="1" d="M 102.5 437 L 101.5 439 L 102.5 437 Z " /><path fill="rgb(233,233,233)" stroke="rgb(233,233,233)" stroke-width="1" opacity="1" d="M 100.5 440 L 99.5 442 L 100.5 440 Z " /><path fill="rgb(233,233,233)" stroke="rgb(233,233,233)" stroke-width="1" opacity="1" d="M 199.5 440 L 203 444.5 L 200 442.5 L 199.5 440 Z " /><path fill="rgb(233,233,233)" stroke="rgb(233,233,233)" stroke-width="1" opacity="1" d="M 66.5 442 L 72 449.5 L 69 447.5 L 66.5 442 Z " /><path fill="rgb(233,233,233)" stroke="rgb(233,233,233)" stroke-width="1" opacity="1" d="M 203.5 446 L 224.5 469 L 232 474.5 L 229.5 473 L 224.5 470 L 209 454.5 L 203.5 446 Z " /><path fill="rgb(233,233,233)" stroke="rgb(233,233,233)" stroke-width="1" opacity="1" d="M 364.5 448 L 386.5 448 L 396 454.5 L 393.5 455 L 392.5 454 L 378.5 454 L 377.5 455 L 357.5 456 L 364.5 448 Z " /><path fill="rgb(233,233,233)" stroke="rgb(233,233,233)" stroke-width="1" opacity="1" d="M 72.5 451 L 76.5 456 L 72.5 451 Z " /><path fill="rgb(233,233,233)" stroke="rgb(233,233,233)" stroke-width="1" opacity="1" d="M 353.5 451 L 352.5 453 L 353.5 451 Z " /><path fill="rgb(233,233,233)" stroke="rgb(233,233,233)" stroke-width="1" opacity="1" d="M 77.5 457 Q 79.8 456.3 79 458.5 L 89 467.5 L 83.5 463 L 77.5 457 Z " /><path fill="rgb(233,233,233)" stroke="rgb(233,233,233)" stroke-width="1" opacity="1" d="M 163.5 462 L 164 464.5 L 163 464.5 L 163.5 462 Z " /><path fill="rgb(233,233,233)" stroke="rgb(233,233,233)" stroke-width="1" opacity="1" d="M 90.5 464 L 91 466.5 L 90 466.5 L 90.5 464 Z " /><path fill="rgb(233,233,233)" stroke="rgb(233,233,233)" stroke-width="1" opacity="1" d="M 144.5 467 L 145 470.5 L 144 470.5 L 144.5 467 Z " /><path fill="rgb(233,233,233)" stroke="rgb(233,233,233)" stroke-width="1" opacity="1" d="M 109.5 469 L 110 471.5 L 109 471.5 L 109.5 469 Z " /><path fill="rgb(233,233,233)" stroke="rgb(233,233,233)" stroke-width="1" opacity="1" d="M 187.5 472 L 188.5 474 L 187.5 472 Z " /><path fill="rgb(233,233,233)" stroke="rgb(233,233,233)" stroke-width="1" opacity="1" d="M 192.5 478 L 199 484.5 L 197.5 486 L 195 485.5 L 198 484.5 L 192.5 478 Z " /><path fill="rgb(233,233,233)" stroke="rgb(233,233,233)" stroke-width="1" opacity="1" d="M 109.5 479 L 114 481.5 L 112.5 482 L 109.5 479 Z " /><path fill="rgb(233,233,233)" stroke="rgb(233,233,233)" stroke-width="1" opacity="1" d="M 244.5 479 L 250 479.5 L 244.5 480 L 244.5 479 Z " /><path fill="rgb(233,233,233)" stroke="rgb(233,233,233)" stroke-width="1" opacity="1" d="M 251.5 479 L 409 479.5 L 251.5 480 L 251.5 479 Z " /><path fill="rgb(233,233,233)" stroke="rgb(233,233,233)" stroke-width="1" opacity="1" d="M 123.5 485 L 126 485.5 L 123.5 486 L 123.5 485 Z " /><path fill="rgb(233,233,233)" stroke="rgb(233,233,233)" stroke-width="1" opacity="1" d="M 190.5 486 L 194 486.5 L 190.5 487 L 190.5 486 Z " /><path fill="rgb(233,233,233)" stroke="rgb(233,233,233)" stroke-width="1" opacity="1" d="M 131.5 487 L 134 487.5 L 131.5 488 L 131.5 487 Z " /><path fill="rgb(233,233,233)" stroke="rgb(233,233,233)" stroke-width="1" opacity="1" d="M 171.5 487 Q 172.8 489.8 177 489.5 L 173.5 490 L 171.5 487 Z " /><path fill="rgb(233,233,233)" stroke="rgb(233,233,233)" stroke-width="1" opacity="1" d="M 186.5 487 L 189 487.5 L 186.5 488 L 186.5 487 Z " /><path fill="rgb(233,233,233)" stroke="rgb(233,233,233)" stroke-width="1" opacity="1" d="M 136.5 488 L 140 488.5 L 136.5 489 L 136.5 488 Z " /><path fill="rgb(233,233,233)" stroke="rgb(233,233,233)" stroke-width="1" opacity="1" d="M 179.5 488 L 184 488.5 L 179.5 489 L 179.5 488 Z " /><path fill="rgb(233,233,233)" stroke="rgb(233,233,233)" stroke-width="1" opacity="1" d="M 142.5 489 L 148 489.5 L 142.5 490 L 142.5 489 Z " /><path fill="rgb(0,0,0)" stroke="rgb(0,0,0)" stroke-width="1" opacity="0" d="M 0 0 L 512 0 L 512 512 L 0 512 L 0 0 Z M 272 10 L 268 15 L 269 43 L 270 44 L 270 61 L 271 62 L 266 79 Q 266 88 263 95 L 263 102 L 262 103 L 262 123 L 264 134 Q 267 147 274 157 L 275 158 L 233 146 L 216 144 L 215 143 L 207 143 L 206 142 L 192 142 L 191 141 L 161 143 L 137 149 Q 110 159 92 176 Q 71 193 58 218 L 50 238 L 45 264 L 45 289 L 46 290 L 46 299 L 50 319 L 58 339 L 70 355 L 67 355 L 57 361 Q 48 369 42 381 L 37 396 L 36 411 L 35 412 L 36 426 L 40 441 Q 45 454 54 465 Q 64 477 79 486 L 106 498 L 127 502 L 158 502 Q 159 500 165 501 L 191 495 L 203 490 L 205 490 L 218 499 L 230 502 L 404 502 L 409 500 L 412 496 L 414 489 Q 416 472 410 463 Q 411 460 408 461 L 408 459 L 405 458 L 401 453 Q 396 445 387 443 L 370 443 L 378 433 L 380 428 L 393 419 L 399 413 L 402 411 Q 425 387 438 352 L 441 360 L 449 366 Q 462 365 470 357 L 475 349 L 477 339 L 476 326 L 472 312 L 454 284 L 454 262 L 453 261 L 453 251 L 451 243 L 451 237 L 445 206 L 436 174 L 448 158 L 454 147 L 460 125 L 460 101 L 459 100 L 457 77 L 455 71 L 455 16 L 452 11 Q 443 9 442 14 Q 439 13 440 16 L 418 34 L 406 29 L 389 25 L 364 24 L 363 23 L 334 25 L 320 28 L 307 33 L 305 33 L 300 29 L 279 10 L 272 10 Z " /><path fill="rgb(0,0,0)" stroke="rgb(0,0,0)" stroke-width="1" opacity="0" d="M 91 368 L 102.5 372 L 118.5 375 L 144.5 375 L 160.5 372 L 161 374.5 L 160 375.5 L 160 390.5 L 161 391.5 L 161 404.5 L 165 427.5 L 175 455 L 161.5 458 L 147.5 458 Q 122.5 453.5 109 437.5 Q 99.3 426.2 94 410.5 L 91 393.5 L 91 380.5 Q 93.5 379 92 373.5 L 91 368 Z " /><path fill="rgb(240,105,112)" stroke="rgb(240,105,112)" stroke-width="1" opacity="1" d="M 169.5 146 L 173 146.5 L 169.5 147 L 169.5 146 Z " /><path fill="rgb(240,105,112)" stroke="rgb(240,105,112)" stroke-width="1" opacity="1" d="M 196.5 146 L 202 146.5 L 196.5 147 L 196.5 146 Z " /><path fill="rgb(240,105,112)" stroke="rgb(240,105,112)" stroke-width="1" opacity="1" d="M 161.5 147 L 164 147.5 L 161.5 148 L 161.5 147 Z " /><path fill="rgb(240,105,112)" stroke="rgb(240,105,112)" stroke-width="1" opacity="1" d="M 208.5 147 L 212 147.5 L 208.5 148 L 208.5 147 Z " /><path fill="rgb(240,105,112)" stroke="rgb(240,105,112)" stroke-width="1" opacity="1" d="M 216.5 148 L 219 148.5 L 216.5 149 L 216.5 148 Z " /><path fill="rgb(240,105,112)" stroke="rgb(240,105,112)" stroke-width="1" opacity="1" d="M 222.5 149 L 225 149.5 L 222.5 150 L 222.5 149 Z " /><path fill="rgb(240,105,112)" stroke="rgb(240,105,112)" stroke-width="1" opacity="1" d="M 103.5 172 L 102.5 174 L 103.5 172 Z " /><path fill="rgb(240,105,112)" stroke="rgb(240,105,112)" stroke-width="1" opacity="1" d="M 99.5 175 L 97.5 178 L 99.5 175 Z " /><path fill="rgb(240,105,112)" stroke="rgb(240,105,112)" stroke-width="1" opacity="1" d="M 272.5 180 Q 291.4 177.9 301 184 L 301.5 182 L 302 184.5 L 301 185.5 L 301 203 Q 286.8 205 276.5 212 L 257 227 L 244 242.5 L 232 263.5 L 228 279.5 L 227 296.5 L 226 297.5 L 226 308.5 L 225 309.5 L 225 316.5 L 223 326.5 L 218 339.5 L 209.5 348 L 194.5 357 L 169.5 366 L 149.5 370 L 125.5 371 L 124.5 370 L 109.5 369 L 95.5 365 Q 81 359 71 348.5 L 66 341.5 L 67.5 342 L 86.5 347 L 112.5 348 L 113.5 347 L 122.5 347 L 129.5 345 L 134.5 345 L 155.5 339 Q 176.1 332.1 190 318.5 L 195 309.5 L 199 293.5 L 200 276.5 L 201 275.5 L 201 264.5 L 205 242.5 Q 216.3 214.3 238.5 197 Q 252.1 185.1 272.5 180 Z " /><path fill="rgb(240,105,112)" stroke="rgb(240,105,112)" stroke-width="1" opacity="1" d="M 92.5 181 L 88.5 186 L 92.5 181 Z " /><path fill="rgb(240,105,112)" stroke="rgb(240,105,112)" stroke-width="1" opacity="1" d="M 84.5 189 L 79.5 195 L 84.5 189 Z " /><path fill="rgb(240,105,112)" stroke="rgb(240,105,112)" stroke-width="1" opacity="1" d="M 76.5 198 L 75.5 200 L 76.5 198 Z " /><path fill="rgb(240,105,112)" stroke="rgb(240,105,112)" stroke-width="1" opacity="1" d="M 338.5 204 L 339 206.5 L 338 206.5 L 338.5 204 Z " /><path fill="rgb(240,105,112)" stroke="rgb(240,105,112)" stroke-width="1" opacity="1" d="M 364.5 221 L 365 224.5 L 364 224.5 L 364.5 221 Z " /><path fill="rgb(240,105,112)" stroke="rgb(240,105,112)" stroke-width="1" opacity="1" d="M 348.5 224 L 351.5 228 L 348.5 224 Z " /><path fill="rgb(240,105,112)" stroke="rgb(240,105,112)" stroke-width="1" opacity="1" d="M 358.5 234 L 361.5 238 L 358.5 234 Z " /><path fill="rgb(240,105,112)" stroke="rgb(240,105,112)" stroke-width="1" opacity="1" d="M 51.5 252 L 52 254.5 L 51 254.5 L 51.5 252 Z " /><path fill="rgb(240,105,112)" stroke="rgb(240,105,112)" stroke-width="1" opacity="1" d="M 50.5 259 L 51 261.5 L 50 261.5 L 50.5 259 Z " /><path fill="rgb(240,105,112)" stroke="rgb(240,105,112)" stroke-width="1" opacity="1" d="M 49.5 270 L 50 282.5 L 49 282.5 L 49.5 270 Z " /><path fill="rgb(240,105,112)" stroke="rgb(240,105,112)" stroke-width="1" opacity="1" d="M 50.5 292 L 51 294.5 L 50 294.5 L 50.5 292 Z " /><path fill="rgb(250,126,134)" stroke="rgb(250,126,134)" stroke-width="1" opacity="1" d="M 272.5 16 L 273 20.5 L 272 20.5 L 272.5 16 Z " /><path fill="rgb(250,126,134)" stroke="rgb(250,126,134)" stroke-width="1" opacity="1" d="M 440.5 20 L 439.5 22 L 440.5 20 Z " /><path fill="rgb(250,126,134)" stroke="rgb(250,126,134)" stroke-width="1" opacity="1" d="M 290.5 26 L 291.5 28 L 290.5 26 Z " /><path fill="rgb(250,126,134)" stroke="rgb(250,126,134)" stroke-width="1" opacity="1" d="M 298.5 33 L 299.5 35 L 298.5 33 Z " /><path fill="rgb(250,126,134)" stroke="rgb(250,126,134)" stroke-width="1" opacity="1" d="M 273.5 34 L 274 38.5 L 273 38.5 L 273.5 34 Z " /><path fill="rgb(250,126,134)" stroke="rgb(250,126,134)" stroke-width="1" opacity="1" d="M 450.5 40 L 451 68.5 L 450 68.5 L 450.5 40 Z " /><path fill="rgb(250,126,134)" stroke="rgb(250,126,134)" stroke-width="1" opacity="1" d="M 274.5 52 L 275 55.5 L 274 55.5 L 274.5 52 Z " /><path fill="rgb(250,126,134)" stroke="rgb(250,126,134)" stroke-width="1" opacity="1" d="M 322.5 87 L 323.5 89 L 322.5 87 Z " /><path fill="rgb(250,126,134)" stroke="rgb(250,126,134)" stroke-width="1" opacity="1" d="M 362.5 103 L 366 103.5 L 362.5 104 L 362.5 103 Z " /><path fill="rgb(250,126,134)" stroke="rgb(250,126,134)" stroke-width="1" opacity="1" d="M 455.5 103 L 456 105.5 L 455 105.5 L 455.5 103 Z " /><path fill="rgb(250,126,134)" stroke="rgb(250,126,134)" stroke-width="1" opacity="1" d="M 266.5 104 L 267 106.5 L 266 106.5 L 266.5 104 Z " /><path fill="rgb(250,126,134)" stroke="rgb(250,126,134)" stroke-width="1" opacity="1" d="M 365.5 123 L 366 127.5 L 365 127.5 L 365.5 123 Z " /><path fill="rgb(250,126,134)" stroke="rgb(250,126,134)" stroke-width="1" opacity="1" d="M 361.5 128 L 362 131.5 L 361 131.5 L 361.5 128 Z " /><path fill="rgb(250,126,134)" stroke="rgb(250,126,134)" stroke-width="1" opacity="1" d="M 360.5 133 L 359.5 135 L 360.5 133 Z " /><path fill="rgb(250,126,134)" stroke="rgb(250,126,134)" stroke-width="1" opacity="1" d="M 328.5 139 Q 334.5 137.5 336 140.5 L 334.5 140 L 328.5 140 L 328.5 139 Z " /><path fill="rgb(250,126,134)" stroke="rgb(250,126,134)" stroke-width="1" opacity="1" d="M 303.5 140 L 309 140.5 L 303.5 141 L 303.5 140 Z " /><path fill="rgb(250,126,134)" stroke="rgb(250,126,134)" stroke-width="1" opacity="1" d="M 396.5 141 L 397.5 143 L 396.5 141 Z " /><path fill="rgb(250,126,134)" stroke="rgb(250,126,134)" stroke-width="1" opacity="1" d="M 324.5 143 L 329 143.5 L 324.5 144 L 324.5 143 Z " /><path fill="rgb(250,126,134)" stroke="rgb(250,126,134)" stroke-width="1" opacity="1" d="M 300.5 144 L 304 144.5 L 300.5 145 L 300.5 144 Z " /><path fill="rgb(250,126,134)" stroke="rgb(250,126,134)" stroke-width="1" opacity="1" d="M 173.5 146 L 207.5 147 L 208.5 148 L 215.5 148 L 232.5 151 L 273.5 162 L 304 173 L 301 184 Q 291.4 177.9 272.5 180 L 264.5 182 L 249.5 189 Q 233.7 199.2 222 213.5 Q 211.2 225.7 205 242.5 L 202 256.5 L 200 286.5 L 199 287.5 L 198 298.5 L 195 309.5 L 186.5 322 L 173.5 331 L 146.5 342 L 122.5 347 L 95.5 348 L 94.5 347 L 86.5 347 L 76.5 345 L 65 341 Q 47.1 312.6 50 262.5 L 54 241.5 L 62 220.5 Q 72.1 200.6 87.5 186 Q 105.4 168.4 129.5 157 L 149.5 150 L 164.5 147 L 172.5 147 L 173.5 146 Z " /><path fill="rgb(250,126,134)" stroke="rgb(250,126,134)" stroke-width="1" opacity="1" d="M 312.5 167 L 311.5 169 L 312.5 167 Z " /><path fill="rgb(250,126,134)" stroke="rgb(250,126,134)" stroke-width="1" opacity="1" d="M 423.5 176 L 422.5 178 L 423.5 176 Z " /><path fill="rgb(250,126,134)" stroke="rgb(250,126,134)" stroke-width="1" opacity="1" d="M 379.5 180 L 380.5 182 L 379.5 180 Z " /><path fill="rgb(250,126,134)" stroke="rgb(250,126,134)" stroke-width="1" opacity="1" d="M 373.5 187 L 376 187.5 Q 372.6 202.1 365 212.5 L 364 224.5 L 365 225.5 L 366 240.5 L 358.5 234 L 352 228.5 L 341 216.5 Q 337.9 211.1 339 201.5 L 345.5 189 L 350.5 190 L 366.5 190 L 373.5 187 Z " /><path fill="rgb(250,126,134)" stroke="rgb(250,126,134)" stroke-width="1" opacity="1" d="M 304.5 194 L 305 212.5 L 304 212.5 L 304.5 194 Z " /><path fill="rgb(250,126,134)" stroke="rgb(250,126,134)" stroke-width="1" opacity="1" d="M 290.5 222 L 291.5 224 L 290.5 222 Z " /><path fill="rgb(250,126,134)" stroke="rgb(250,126,134)" stroke-width="1" opacity="1" d="M 368.5 222 L 369 224.5 L 368 224.5 L 368.5 222 Z " /><path fill="rgb(250,126,134)" stroke="rgb(250,126,134)" stroke-width="1" opacity="1" d="M 265.5 225 L 263.5 228 L 265.5 225 Z " /><path fill="rgb(250,126,134)" stroke="rgb(250,126,134)" stroke-width="1" opacity="1" d="M 303.5 226 L 302.5 228 L 303.5 226 Z " /><path fill="rgb(250,126,134)" stroke="rgb(250,126,134)" stroke-width="1" opacity="1" d="M 301.5 231 L 302.5 233 L 301.5 231 Z " /><path fill="rgb(250,126,134)" stroke="rgb(250,126,134)" stroke-width="1" opacity="1" d="M 254.5 236 L 253.5 238 L 254.5 236 Z " /><path fill="rgb(250,126,134)" stroke="rgb(250,126,134)" stroke-width="1" opacity="1" d="M 449.5 264 L 450 267.5 L 449 267.5 L 449.5 264 Z " /><path fill="rgb(250,126,134)" stroke="rgb(250,126,134)" stroke-width="1" opacity="1" d="M 449.5 291 L 450 293.5 L 449 293.5 L 449.5 291 Z " /><path fill="rgb(250,126,134)" stroke="rgb(250,126,134)" stroke-width="1" opacity="1" d="M 230.5 295 L 231 297.5 L 230 297.5 L 230.5 295 Z " /><path fill="rgb(250,126,134)" stroke="rgb(250,126,134)" stroke-width="1" opacity="1" d="M 229.5 307 L 230 309.5 L 229 309.5 L 229.5 307 Z " /><path fill="rgb(250,126,134)" stroke="rgb(250,126,134)" stroke-width="1" opacity="1" d="M 346.5 334 L 347.5 336 L 346.5 334 Z " /><path fill="rgb(250,126,134)" stroke="rgb(250,126,134)" stroke-width="1" opacity="1" d="M 353.5 335 L 354.5 337 L 353.5 335 Z " /><path fill="rgb(250,126,134)" stroke="rgb(250,126,134)" stroke-width="1" opacity="1" d="M 365.5 347 L 366.5 349 L 365.5 347 Z " /><path fill="rgb(250,126,134)" stroke="rgb(250,126,134)" stroke-width="1" opacity="1" d="M 213.5 349 L 212.5 351 L 213.5 349 Z " /><path fill="rgb(250,126,134)" stroke="rgb(250,126,134)" stroke-width="1" opacity="1" d="M 403.5 401 L 402.5 403 L 403.5 401 Z " /><path fill="rgb(250,126,134)" stroke="rgb(250,126,134)" stroke-width="1" opacity="1" d="M 367.5 438 L 366.5 440 L 367.5 438 Z " /><path fill="rgb(250,126,134)" stroke="rgb(250,126,134)" stroke-width="1" opacity="1" d="M 113.5 447 L 114.5 449 L 113.5 447 Z " /><path fill="rgb(250,126,134)" stroke="rgb(250,126,134)" stroke-width="1" opacity="1" d="M 365.5 447 L 386 447.5 L 365.5 448 L 365.5 447 Z " /><path fill="rgb(250,126,134)" stroke="rgb(250,126,134)" stroke-width="1" opacity="1" d="M 363.5 448 L 361.5 451 L 363.5 448 Z " /><path fill="rgb(250,126,134)" stroke="rgb(250,126,134)" stroke-width="1" opacity="1" d="M 392.5 450 L 393.5 452 L 392.5 450 Z " /><path fill="rgb(250,126,134)" stroke="rgb(250,126,134)" stroke-width="1" opacity="1" d="M 354.5 451 L 353.5 453 L 354.5 451 Z " /><path fill="rgb(250,126,134)" stroke="rgb(250,126,134)" stroke-width="1" opacity="1" d="M 395.5 453 L 397 455.5 L 396 455.5 L 395.5 453 Z " /><path fill="rgb(250,126,134)" stroke="rgb(250,126,134)" stroke-width="1" opacity="1" d="M 381.5 458 L 390 458.5 L 381.5 459 L 381.5 458 Z " /><path fill="rgb(250,126,134)" stroke="rgb(250,126,134)" stroke-width="1" opacity="1" d="M 371.5 459 L 374 459.5 L 371.5 460 L 371.5 459 Z " /><path fill="rgb(250,126,134)" stroke="rgb(250,126,134)" stroke-width="1" opacity="1" d="M 348.5 460 L 353 460.5 L 348.5 461 L 348.5 460 Z " /><path fill="rgb(250,126,134)" stroke="rgb(250,126,134)" stroke-width="1" opacity="1" d="M 57.5 461 L 59.5 464 L 57.5 461 Z " /><path fill="rgb(250,126,134)" stroke="rgb(250,126,134)" stroke-width="1" opacity="1" d="M 152.5 462 L 157 462.5 L 152.5 463 L 152.5 462 Z " /><path fill="rgb(250,126,134)" stroke="rgb(250,126,134)" stroke-width="1" opacity="1" d="M 187.5 471 L 188.5 473 L 187.5 471 Z " /><path fill="rgb(250,126,134)" stroke="rgb(250,126,134)" stroke-width="1" opacity="1" d="M 192.5 471 L 193.5 473 L 192.5 471 Z " /><path fill="rgb(250,126,134)" stroke="rgb(250,126,134)" stroke-width="1" opacity="1" d="M 68.5 472 L 69.5 474 L 68.5 472 Z " /><path fill="rgb(250,126,134)" stroke="rgb(250,126,134)" stroke-width="1" opacity="1" d="M 192.5 477 L 194.5 480 L 192.5 477 Z " /><path fill="rgb(250,126,134)" stroke="rgb(250,126,134)" stroke-width="1" opacity="1" d="M 129.5 497 L 132 497.5 L 129.5 498 L 129.5 497 Z " /><path fill="rgb(234,234,234)" stroke="rgb(234,234,234)" stroke-width="1" opacity="1" d="M 274.5 15 L 276.5 15 L 304.5 39 L 320.5 33 L 334.5 30 L 352.5 29 L 353.5 28 L 368.5 28 L 369.5 29 L 380.5 29 L 381.5 30 L 392.5 31 L 410.5 36 L 416.5 39 L 420.5 39 L 446.5 16 L 448.5 16 L 450 17.5 L 450 71.5 L 452 77.5 L 454 99.5 L 455 100.5 L 455 124.5 Q 448.8 156.3 427.5 173 L 422 176 L 422 181 L 425.5 181 L 431.5 176 L 440 206.5 L 447 243.5 L 448 260.5 L 449 261.5 L 449 296.5 Q 435.5 369 392.5 412 L 385.5 417 L 386 415.5 L 388 408.5 L 388 387.5 Q 385.1 372.9 378 362.5 Q 368.2 346.8 354.5 335 L 349.5 331 L 346.5 331 L 345 333.5 L 346 336 L 347.5 336 L 365 353.5 Q 374.3 364.2 380 378.5 L 383 389.5 L 383 406.5 Q 380.7 418.7 375 427.5 Q 366.5 441 354.5 451 L 348.5 456 L 339 457 L 339.5 461 L 363.5 461 L 364.5 460 L 377.5 460 L 378.5 459 L 392.5 459 L 400.5 461 L 406 465.5 L 409 474.5 L 409 479 L 251.5 479 L 250.5 480 Q 248.7 477.2 242.5 479 L 232.5 475 L 210 454.5 Q 196.6 439.4 189 418.5 L 182 388.5 L 181 367.5 L 204.5 357 Q 214.3 351.8 221 343.5 L 228 325.5 L 229 314.5 L 230 313.5 L 230 304.5 L 231 303.5 L 232 283.5 L 237 263.5 Q 247.3 241.8 264.5 227 L 284.5 213 L 300 208 L 300 215.5 L 303 226.5 L 297.5 222 Q 294.2 217.4 288 217 L 287 220.5 L 305 235.5 L 319 287.5 L 317.5 287 L 282.5 266 L 277.5 265 L 276 268.5 L 321.5 296 L 326 296 L 325 287.5 L 319 269.5 L 305 214.5 L 305 189.5 L 308 176.5 L 314.5 167 L 320.5 166 L 336.5 170 L 345 175.5 L 345 179.5 L 335 198.5 L 334 209.5 Q 337.6 224.4 345 235.5 Q 356.2 254.8 370.5 271 Q 374.3 271.8 375 269.5 L 350 233.5 L 362.5 245 L 367.5 246 Q 372.3 243.8 371 235.5 L 369 226.5 L 369 215.5 L 379 195.5 L 381 187.5 L 381 180 L 376.5 180 L 367.5 185 L 356.5 186 L 355.5 185 L 349 185 Q 350.8 181.2 350 173.5 L 340.5 166 L 326.5 162 L 315.5 161 Q 309.8 162.3 307 166.5 L 305.5 169 L 282 159.5 Q 273.4 148.1 269 132.5 L 267 122.5 L 267 102.5 L 271 79.5 L 276 61.5 L 275 60.5 L 273 16.5 L 274.5 15 Z M 326 77 L 324 78 L 321 82 Q 320 87 322 89 Q 324 91 330 90 Q 334 88 332 81 Q 331 76 326 77 Z M 401 78 L 397 83 L 398 89 L 402 91 L 407 90 L 409 86 L 408 81 Q 407 77 401 78 Z M 360 103 L 358 104 L 355 108 Q 354 119 361 123 Q 362 131 360 134 L 356 136 L 349 136 L 349 140 L 360 140 L 364 137 L 367 140 L 377 141 L 379 138 L 378 136 L 370 135 L 366 131 L 366 123 L 368 122 L 372 115 L 372 107 Q 369 101 360 103 Z M 300 117 L 300 121 L 302 122 L 308 123 L 333 132 Q 339 134 337 129 L 334 126 L 306 117 L 300 117 Z M 434 123 L 417 126 L 410 126 L 409 127 L 402 127 L 395 130 L 396 133 L 439 128 Q 442 121 434 123 Z M 398 138 Q 395 139 396 143 L 430 154 L 432 151 L 429 148 L 398 138 Z M 318 139 L 317 140 L 300 140 Q 297 141 298 145 L 335 144 L 336 143 L 336 139 L 318 139 Z " /><path fill="rgb(234,234,234)" stroke="rgb(234,234,234)" stroke-width="1" opacity="1" d="M 454.5 293 L 467 312.5 L 471 326.5 L 472 337.5 Q 469.5 339 471 344.5 Q 468.8 351.3 463.5 355 L 449.5 361 L 445 356.5 L 440 345.5 L 450 317.5 L 454.5 293 Z " /><path fill="rgb(234,234,234)" stroke="rgb(234,234,234)" stroke-width="1" opacity="1" d="M 71.5 359 L 76.5 359 L 85 365.5 L 87 380.5 L 86 381.5 L 86 391 Q 67.5 394.8 56.5 407 L 56 397.5 L 60 378.5 Q 64.1 367.1 71.5 359 Z " /><path fill="rgb(234,234,234)" stroke="rgb(234,234,234)" stroke-width="1" opacity="1" d="M 86.5 411 Q 91.8 409.3 90 414.5 L 102 437.5 Q 92.5 449.5 89.5 468 L 79 458.5 L 77 455.5 Q 66.5 446.5 62 431.5 Q 65.7 422.7 73.5 418 L 86.5 411 Z " /><path fill="rgb(234,234,234)" stroke="rgb(234,234,234)" stroke-width="1" opacity="1" d="M 117.5 451 Q 127.6 460.1 144 462 Q 143.8 479.1 150 490 L 147.5 489 L 129.5 487 L 116.5 483 L 109 478.5 Q 108.8 460.3 117.5 451 Z " /><path fill="rgb(234,234,234)" stroke="rgb(234,234,234)" stroke-width="1" opacity="1" d="M 176.5 459 Q 179.8 457.9 179 460.5 Q 186.8 474.2 198 484.5 L 185.5 488 L 173.5 489 Q 163.9 479.9 164 462 Q 171.7 462.4 176.5 459 Z " /><path fill="rgb(95,94,96)" stroke="rgb(95,94,96)" stroke-width="1" opacity="0.9372549019607843" d="M 271.5 10 L 278.5 10 L 299.5 29 L 304.5 33 L 306.5 33 L 319.5 28 L 333.5 25 L 362.5 23 L 363.5 24 L 388.5 25 L 405.5 29 L 417.5 34 L 440 16 Q 438.9 13.3 441.5 14 Q 443.2 9.3 451.5 11 L 455 15.5 L 455 70.5 L 457 76.5 L 459 99.5 L 460 100.5 L 460 124.5 L 454 146.5 L 448 157.5 L 436 173.5 L 445 205.5 L 451 236.5 L 451 242.5 L 453 250.5 L 453 260.5 L 454 261.5 L 454 283.5 L 472 311.5 L 476 325.5 L 477 338.5 L 475 348.5 L 469.5 357 Q 462 364.5 448.5 366 L 441 359.5 L 437.5 352 Q 424.6 386.6 401.5 411 L 398.5 413 L 392.5 419 L 380 427.5 L 378 432.5 L 370 442.5 L 386.5 443 Q 396.4 445.1 401 452.5 L 404.5 458 L 408 459 L 408 461 Q 410.7 459.9 410 462.5 Q 416 471.5 414 488.5 L 412 495.5 L 408.5 500 L 403.5 502 L 229.5 502 L 217.5 499 L 204.5 490 L 202.5 490 L 190.5 495 L 164.5 501 Q 159 499.5 157.5 502 L 126.5 502 L 105.5 498 L 78.5 486 Q 64.2 477.3 54 464.5 Q 45.2 454.3 40 440.5 L 36 425.5 L 35 411.5 L 36 410.5 L 37 395.5 L 42 380.5 Q 47.6 369.1 56.5 361 L 66.5 355 L 70 355 L 58 338.5 L 50 318.5 L 46 298.5 L 46 289.5 L 45 288.5 L 45 263.5 L 50 237.5 L 58 217.5 Q 70.9 192.9 91.5 176 Q 110.5 159 136.5 149 L 160.5 143 L 190.5 141 L 191.5 142 L 205.5 142 L 206.5 143 L 214.5 143 L 215.5 144 L 232.5 146 L 274 157 Q 267.8 147 264 133.5 L 262 122.5 L 262 102.5 L 263 101.5 L 263 94.5 Q 266 88 266 78.5 L 271 61.5 L 270 60.5 L 270 43.5 L 269 42.5 L 268 14.5 L 271.5 10 Z M 275 14 L 272 17 L 273 22 L 273 39 L 274 40 L 274 56 L 275 57 L 275 65 L 270 81 L 267 104 L 266 105 L 266 120 L 269 136 L 281 160 L 287 163 L 307 169 L 308 167 L 315 162 L 328 163 L 345 169 L 350 177 L 348 185 L 351 186 Q 369 189 378 181 Q 379 178 381 183 L 377 199 L 368 217 L 368 225 L 370 234 L 370 243 L 368 245 L 363 244 L 348 231 L 360 251 L 374 270 L 372 271 L 347 238 L 339 223 L 335 211 L 335 202 L 346 180 L 346 176 L 339 170 L 325 166 Q 316 164 313 167 L 306 180 L 305 194 L 304 195 L 304 213 Q 306 214 305 219 L 319 273 L 325 291 L 325 296 L 277 269 L 279 265 L 320 289 L 306 236 L 288 221 L 290 218 L 304 228 L 301 217 L 301 207 Q 280 212 266 225 Q 246 241 235 267 L 231 286 L 228 322 L 225 334 L 220 344 L 205 356 L 186 365 L 167 370 L 165 372 L 165 401 L 170 430 Q 177 454 192 472 L 209 488 Q 215 494 226 497 L 405 497 L 408 494 L 410 487 L 410 476 L 407 466 L 401 460 L 390 458 L 372 459 L 371 460 L 349 460 L 348 461 L 340 461 L 340 457 L 349 457 L 354 453 L 374 431 L 382 415 L 384 406 L 384 391 L 383 386 L 374 365 Q 362 347 346 334 L 348 331 L 356 337 Q 370 350 380 368 L 386 383 L 388 394 L 388 403 L 385 417 L 385 418 L 393 413 Q 437 369 450 294 L 450 265 L 449 264 L 449 254 L 448 253 L 447 239 L 442 212 L 433 177 L 432 175 L 426 180 L 422 179 L 428 174 Q 450 157 456 123 L 456 104 L 455 103 L 453 80 L 451 73 L 451 18 L 450 15 L 447 15 L 419 39 L 404 33 L 378 28 L 344 28 Q 342 31 336 29 L 315 34 L 306 38 L 304 38 L 277 14 L 275 14 Z M 170 146 L 145 151 L 127 158 Q 107 167 93 181 Q 70 200 58 229 L 52 248 L 51 259 L 50 260 L 50 270 L 49 271 L 50 295 L 54 317 Q 59 336 71 349 Q 81 359 96 365 L 110 369 L 125 370 L 126 371 L 150 370 L 170 366 L 195 357 L 210 348 L 218 340 L 223 327 L 225 317 L 225 310 L 226 309 L 226 298 L 227 297 L 228 280 L 232 264 L 244 243 L 257 227 L 277 212 Q 287 205 301 203 Q 299 184 305 174 L 269 160 L 235 151 L 212 147 L 203 147 L 202 146 L 170 146 Z M 376 186 L 365 190 L 353 190 L 345 188 L 338 205 L 341 217 L 348 225 L 363 238 L 366 241 L 365 222 L 364 221 L 365 214 L 376 190 L 376 186 Z M 454 291 L 453 300 L 449 319 L 440 344 Q 440 353 445 358 L 451 362 L 464 356 Q 470 352 472 344 L 472 329 L 468 314 L 454 291 Z M 73 358 L 63 362 L 56 367 L 45 385 L 40 403 L 40 424 L 42 433 Q 47 450 57 462 Q 69 476 86 485 L 108 494 L 130 498 L 154 498 L 155 497 L 168 496 L 189 491 L 201 486 L 200 485 Q 187 474 179 458 L 165 462 L 146 462 L 137 460 Q 122 456 113 447 Q 96 432 89 409 L 87 398 L 87 370 L 85 365 Q 81 359 73 358 Z M 91 368 L 92 374 Q 94 379 91 381 L 91 394 L 94 411 Q 99 426 109 438 Q 122 454 148 458 L 162 458 L 175 455 L 165 428 L 161 405 L 161 392 L 160 391 L 160 376 L 161 375 L 161 372 L 145 375 L 119 375 L 103 372 L 91 368 Z M 366 447 L 364 448 L 356 457 L 358 456 L 375 456 L 376 455 L 396 455 L 397 456 L 397 455 Q 393 449 386 447 L 366 447 Z " /><path fill="rgb(95,94,96)" stroke="rgb(95,94,96)" stroke-width="1" opacity="0.9372549019607843" d="M 325.5 78 Q 330.3 77.3 331 80.5 L 332 85.5 L 329.5 89 L 326.5 90 L 322 86.5 Q 321.4 81.1 323 79 L 325.5 78 Z " /><path fill="rgb(95,94,96)" stroke="rgb(95,94,96)" stroke-width="1" opacity="0.9372549019607843" d="M 402.5 78 L 407 80.5 L 408 86.5 Q 407.3 90.8 401.5 90 L 399 89 L 398 82.5 L 400.5 79 L 402.5 78 Z " /><path fill="rgb(95,94,96)" stroke="rgb(95,94,96)" stroke-width="1" opacity="0.9372549019607843" d="M 359.5 104 L 368.5 104 L 371 106.5 L 372 110.5 L 368 121 Q 365.3 119.9 366 122.5 L 365 127.5 L 367 135 Q 369.7 136.9 376.5 136 L 378 137.5 L 376.5 140 Q 366.6 141.4 363.5 136 Q 360.4 141.4 350.5 140 L 349 137.5 Q 350.8 134.3 357.5 136 L 361 133.5 Q 363.5 130 362 122.5 Q 355.3 118.7 356 107.5 L 357 105 L 359.5 104 Z " /><path fill="rgb(95,94,96)" stroke="rgb(95,94,96)" stroke-width="1" opacity="0.9372549019607843" d="M 301 117 L 336 128 Q 337.8 132.5 332.5 131 L 301.5 121 L 300 119.5 L 301 117 Z " /><path fill="rgb(95,94,96)" stroke="rgb(95,94,96)" stroke-width="1" opacity="0.9372549019607843" d="M 431.5 124 Q 437.5 122.5 439 125.5 L 435.5 128 L 396 132 Q 394.3 127.9 398.5 129 L 399.5 128 L 406.5 128 L 407.5 127 L 414.5 127 L 431.5 124 Z " /><path fill="rgb(95,94,96)" stroke="rgb(95,94,96)" stroke-width="1" opacity="0.9372549019607843" d="M 397.5 139 L 431 150 L 429.5 153 L 398.5 143 L 396 140.5 L 397.5 139 Z " /><path fill="rgb(95,94,96)" stroke="rgb(95,94,96)" stroke-width="1" opacity="0.9372549019607843" d="M 309.5 140 L 334.5 140 L 336 141.5 L 334.5 143 L 324.5 143 L 323.5 144 L 299 144 L 299.5 141 L 308.5 141 L 309.5 140 Z " /></svg>