<svg width="512" height="512" version="1.1" xmlns="http://www.w3.org/2000/svg" desc="Created with imagetracer.js version 1.2.6" ><path fill="rgb(234,234,234)" stroke="rgb(234,234,234)" stroke-width="1" opacity="1" d="M 303.5 12 L 306 13 L 306 68.5 L 309 79.5 L 311 98.5 L 312 99.5 L 313 125.5 L 311 136.5 L 305 152.5 Q 296.9 168.4 283.5 179 L 275 184 Q 274 187.8 276.5 189 L 285 185 L 294 204 L 212.5 234 L 206.5 236 L 201.5 236 L 114 204 L 124.5 185 Q 127.3 188.7 133 188 Q 134 184.2 131.5 183 Q 120.9 177.6 114 168.5 Q 105.2 158.3 100 144.5 L 96 129.5 L 95 112.5 L 96 111.5 L 98 87.5 L 102 70.5 L 102 14.5 L 103.5 13 Q 108.1 12.4 109.5 15 L 133.5 35 L 139.5 38 L 156.5 32 L 176.5 28 L 184.5 28 L 185.5 27 L 223.5 27 L 224.5 28 L 243.5 30 L 270.5 38 L 303.5 12 Z M 154 80 L 152 81 L 149 85 L 150 91 L 156 94 L 160 93 L 163 88 L 162 84 Q 161 79 154 80 Z M 251 80 L 249 81 Q 245 82 246 90 L 252 94 L 256 93 Q 261 92 259 84 Q 257 79 251 80 Z M 200 107 L 194 111 Q 193 120 197 125 L 202 129 Q 203 135 201 139 L 197 142 L 188 142 L 186 144 L 188 147 Q 199 149 204 143 L 212 147 L 221 147 Q 223 146 222 142 L 212 142 L 210 141 L 207 138 L 207 129 Q 213 125 215 117 L 214 111 Q 210 105 200 107 Z M 137 127 L 135 131 L 165 140 Q 171 142 169 137 L 165 134 L 137 127 Z M 269 127 L 241 135 L 239 137 L 241 140 L 262 135 L 273 131 Q 275 125 269 127 Z M 163 148 L 162 149 L 137 152 L 135 154 L 137 157 L 168 153 L 169 152 L 169 148 L 163 148 Z M 241 148 L 239 152 L 241 153 L 272 157 L 273 154 L 268 151 L 241 148 Z " /><path fill="rgb(234,234,234)" stroke="rgb(234,234,234)" stroke-width="1" opacity="1" d="M 104.5 205 L 190 236.5 L 182.5 237 L 166.5 233 L 161.5 233 L 140.5 228 L 135.5 228 L 114.5 223 L 104 222 L 104.5 205 Z " /><path fill="rgb(234,234,234)" stroke="rgb(234,234,234)" stroke-width="1" opacity="1" d="M 301.5 206 L 304 206.5 L 304 222 L 225.5 237 L 218.5 237 L 218.5 236 L 301.5 206 Z " /><path fill="rgb(234,234,234)" stroke="rgb(234,234,234)" stroke-width="1" opacity="1" d="M 65.5 277 Q 77.2 279.3 84 286.5 L 85 294.5 Q 80.1 311.1 68.5 321 L 63.5 322 Q 55.1 318.4 50 311.5 L 48 308.5 L 48 297.5 Q 49.8 287.8 55.5 282 L 65.5 277 Z " /><path fill="rgb(234,234,234)" stroke="rgb(234,234,234)" stroke-width="1" opacity="1" d="M 341.5 277 Q 351.5 278.5 356 285.5 L 360 295.5 L 360 308.5 L 350.5 319 L 344.5 322 L 341.5 322 L 335 316.5 L 326 302.5 L 323 293.5 L 323 288.5 L 326.5 284 L 341.5 277 Z " /><path fill="rgb(234,234,234)" stroke="rgb(234,234,234)" stroke-width="1" opacity="1" d="M 421.5 315 Q 427.6 316.4 430 321.5 Q 443.7 336.3 446 362.5 L 444.5 362 Q 431.8 352.5 412 351 L 409 334.5 L 409 326.5 L 410 322.5 L 413.5 318 L 421.5 315 Z " /><path fill="rgb(234,234,234)" stroke="rgb(234,234,234)" stroke-width="1" opacity="1" d="M 412 371 Q 433.2 374.1 444 388.5 Q 442.3 402.3 436 411.5 Q 429.8 422.8 420.5 431 L 413 414.5 L 402 400.5 Q 410.3 388.7 412 371 Z " /><path fill="rgb(234,234,234)" stroke="rgb(234,234,234)" stroke-width="1" opacity="1" d="M 89.5 400 L 182.5 418 L 226.5 418 L 247.5 413 L 252.5 413 L 319 400 Q 311.4 427.6 292.5 445 L 280.5 452 L 270.5 454 L 138.5 454 Q 137 451.5 131.5 453 L 121.5 449 L 108 436.5 Q 95.1 421.1 89.5 400 Z " /><path fill="rgb(234,234,234)" stroke="rgb(234,234,234)" stroke-width="1" opacity="1" d="M 389.5 417 Q 396.4 423.6 400 433.5 L 402 447 L 379.5 458 L 361 463 L 364 446.5 L 364 437.5 L 363 433.5 Q 378.9 427.9 389.5 417 Z " /><path fill="rgb(234,234,234)" stroke="rgb(234,234,234)" stroke-width="1" opacity="1" d="M 323.5 433 L 335.5 436 L 343 436 L 344 444.5 L 340 461.5 L 336.5 466 L 315.5 466 L 314.5 465 L 306.5 465 L 304 463.5 Q 316.7 451.2 323.5 433 Z " /><path fill="rgb(0,0,0)" stroke="rgb(0,0,0)" stroke-width="1" opacity="0" d="M 0 0 L 512 0 L 512 512 L 0 512 L 0 0 Z M 102 8 L 97 13 L 97 70 L 93 88 L 92 102 L 91 103 L 91 113 L 90 114 L 91 131 L 96 149 Q 105 168 120 182 L 109 202 L 103 199 L 101 200 L 99 201 L 99 220 L 74 215 L 68 215 L 66 217 L 66 272 L 54 277 L 47 285 L 43 298 Q 41 310 46 315 Q 52 323 64 327 L 66 328 L 66 395 L 68 396 L 74 397 L 75 399 L 75 404 L 78 416 L 83 431 Q 91 449 103 463 L 114 471 L 111 485 L 113 497 L 117 500 L 128 504 L 152 504 L 160 502 L 165 499 L 169 492 L 169 479 L 170 478 L 239 478 L 239 488 L 241 496 L 246 500 L 258 504 L 281 504 L 294 499 L 297 492 L 297 482 L 294 471 L 298 469 L 323 474 L 347 475 L 348 476 L 368 475 L 369 474 L 381 473 L 402 467 Q 422 459 438 445 Q 449 435 457 422 L 467 398 L 468 387 L 469 386 L 469 371 L 466 355 Q 461 339 452 328 L 437 314 L 423 310 L 416 311 L 412 313 Q 405 317 404 326 L 404 335 L 408 356 Q 408 390 391 409 L 376 422 L 363 428 L 349 431 L 336 431 L 326 429 L 332 410 L 334 397 L 341 396 L 342 395 L 342 327 L 349 326 L 357 321 L 365 311 L 365 296 L 360 283 Q 355 274 344 273 L 342 272 L 342 215 L 336 215 L 309 220 L 309 201 L 308 199 L 300 202 L 288 182 Q 299 172 307 160 L 315 141 L 318 126 L 317 100 L 316 99 L 314 80 L 311 69 L 311 13 L 308 8 L 299 9 L 271 32 L 267 32 L 249 26 L 232 23 L 224 23 L 223 22 L 186 22 L 185 23 L 177 23 L 149 29 L 142 32 L 137 31 L 109 8 L 102 8 Z " /><path fill="rgb(88,89,91)" stroke="rgb(88,89,91)" stroke-width="1" opacity="0.48627450980392156" d="M 101.5 8 L 103 8.5 L 98 12.5 L 97.5 69 L 97 12.5 L 101.5 8 Z " /><path fill="rgb(88,89,91)" stroke="rgb(88,89,91)" stroke-width="1" opacity="0.48627450980392156" d="M 106.5 8 L 111.5 10 L 136.5 31 L 141.5 32 L 150.5 29 L 150.5 30 L 138.5 33 L 112.5 12 L 106.5 9 L 106.5 8 Z " /><path fill="rgb(88,89,91)" stroke="rgb(88,89,91)" stroke-width="1" opacity="0.48627450980392156" d="M 305.5 8 Q 309.5 7.5 310 10.5 L 311 13.5 L 310 13.5 L 307.5 9 Q 304.5 9.5 305.5 8 Z " /><path fill="rgb(88,89,91)" stroke="rgb(88,89,91)" stroke-width="1" opacity="0.48627450980392156" d="M 298.5 9 L 295.5 13 L 270.5 33 L 267.5 33 L 267.5 32 L 270.5 32 L 298.5 9 Z " /><path fill="rgb(88,89,91)" stroke="rgb(88,89,91)" stroke-width="1" opacity="0.48627450980392156" d="M 185.5 22 L 223 22.5 L 185.5 23 L 185.5 22 Z " /><path fill="rgb(88,89,91)" stroke="rgb(88,89,91)" stroke-width="1" opacity="0.48627450980392156" d="M 176.5 23 L 183 23.5 L 176.5 24 L 176.5 23 Z " /><path fill="rgb(88,89,91)" stroke="rgb(88,89,91)" stroke-width="1" opacity="0.48627450980392156" d="M 226.5 23 L 232 23.5 L 226.5 24 L 226.5 23 Z " /><path fill="rgb(88,89,91)" stroke="rgb(88,89,91)" stroke-width="1" opacity="0.48627450980392156" d="M 170.5 24 L 175 24.5 L 170.5 25 L 170.5 24 Z " /><path fill="rgb(88,89,91)" stroke="rgb(88,89,91)" stroke-width="1" opacity="0.48627450980392156" d="M 234.5 24 L 239 24.5 L 234.5 25 L 234.5 24 Z " /><path fill="rgb(88,89,91)" stroke="rgb(88,89,91)" stroke-width="1" opacity="0.48627450980392156" d="M 165.5 25 L 169 25.5 L 165.5 26 L 165.5 25 Z " /><path fill="rgb(88,89,91)" stroke="rgb(88,89,91)" stroke-width="1" opacity="0.48627450980392156" d="M 240.5 25 L 244 25.5 L 240.5 26 L 240.5 25 Z " /><path fill="rgb(88,89,91)" stroke="rgb(88,89,91)" stroke-width="1" opacity="0.48627450980392156" d="M 160.5 26 L 163 26.5 L 160.5 27 L 160.5 26 Z " /><path fill="rgb(88,89,91)" stroke="rgb(88,89,91)" stroke-width="1" opacity="0.48627450980392156" d="M 245.5 26 L 253 27.5 L 249.5 28 L 245.5 27 L 245.5 26 Z " /><path fill="rgb(88,89,91)" stroke="rgb(88,89,91)" stroke-width="1" opacity="0.48627450980392156" d="M 156.5 27 L 159 27.5 L 156.5 28 L 156.5 27 Z " /><path fill="rgb(88,89,91)" stroke="rgb(88,89,91)" stroke-width="1" opacity="0.48627450980392156" d="M 152.5 28 L 155 28.5 L 152.5 29 L 152.5 28 Z " /><path fill="rgb(88,89,91)" stroke="rgb(88,89,91)" stroke-width="1" opacity="0.48627450980392156" d="M 254.5 28 L 260 29.5 L 257.5 30 L 254.5 29 L 254.5 28 Z " /><path fill="rgb(88,89,91)" stroke="rgb(88,89,91)" stroke-width="1" opacity="0.48627450980392156" d="M 311.5 69 L 312 72.5 L 311 72.5 L 311.5 69 Z " /><path fill="rgb(88,89,91)" stroke="rgb(88,89,91)" stroke-width="1" opacity="0.48627450980392156" d="M 96.5 70 L 97 73.5 L 96 73.5 L 96.5 70 Z " /><path fill="rgb(88,89,91)" stroke="rgb(88,89,91)" stroke-width="1" opacity="0.48627450980392156" d="M 312.5 74 L 313 77.5 L 312 77.5 L 312.5 74 Z " /><path fill="rgb(88,89,91)" stroke="rgb(88,89,91)" stroke-width="1" opacity="0.48627450980392156" d="M 95.5 75 L 96 79.5 L 95 79.5 L 95.5 75 Z " /><path fill="rgb(88,89,91)" stroke="rgb(88,89,91)" stroke-width="1" opacity="0.48627450980392156" d="M 313.5 79 L 314 83.5 L 313 83.5 L 313.5 79 Z " /><path fill="rgb(88,89,91)" stroke="rgb(88,89,91)" stroke-width="1" opacity="0.48627450980392156" d="M 94.5 81 L 95 85.5 L 94 85.5 L 94.5 81 Z " /><path fill="rgb(88,89,91)" stroke="rgb(88,89,91)" stroke-width="1" opacity="0.48627450980392156" d="M 314.5 85 L 315 89.5 L 314 89.5 L 314.5 85 Z " /><path fill="rgb(88,89,91)" stroke="rgb(88,89,91)" stroke-width="1" opacity="0.48627450980392156" d="M 93.5 87 L 94 91.5 L 93 91.5 L 93.5 87 Z " /><path fill="rgb(88,89,91)" stroke="rgb(88,89,91)" stroke-width="1" opacity="0.48627450980392156" d="M 315.5 91 L 316 96.5 L 315 96.5 L 315.5 91 Z " /><path fill="rgb(88,89,91)" stroke="rgb(88,89,91)" stroke-width="1" opacity="0.48627450980392156" d="M 92.5 94 L 93 99.5 L 92 99.5 L 92.5 94 Z " /><path fill="rgb(88,89,91)" stroke="rgb(88,89,91)" stroke-width="1" opacity="0.48627450980392156" d="M 316.5 99 L 317 105.5 L 316 105.5 L 316.5 99 Z " /><path fill="rgb(88,89,91)" stroke="rgb(88,89,91)" stroke-width="1" opacity="0.48627450980392156" d="M 91.5 102 L 92 108.5 L 91 108.5 L 91.5 102 Z " /><path fill="rgb(88,89,91)" stroke="rgb(88,89,91)" stroke-width="1" opacity="0.48627450980392156" d="M 317.5 108 L 318 125.5 L 317 125.5 L 317.5 108 Z " /><path fill="rgb(88,89,91)" stroke="rgb(88,89,91)" stroke-width="1" opacity="0.48627450980392156" d="M 90.5 113 L 91 120.5 L 90 120.5 L 90.5 113 Z " /><path fill="rgb(88,89,91)" stroke="rgb(88,89,91)" stroke-width="1" opacity="0.48627450980392156" d="M 91.5 124 L 92 130.5 L 91 130.5 L 91.5 124 Z " /><path fill="rgb(88,89,91)" stroke="rgb(88,89,91)" stroke-width="1" opacity="0.48627450980392156" d="M 316.5 127 L 317 132.5 L 315.5 137 L 315 133.5 L 316.5 127 Z " /><path fill="rgb(88,89,91)" stroke="rgb(88,89,91)" stroke-width="1" opacity="0.48627450980392156" d="M 92.5 132 L 93 135.5 L 92 135.5 L 92.5 132 Z " /><path fill="rgb(88,89,91)" stroke="rgb(88,89,91)" stroke-width="1" opacity="0.48627450980392156" d="M 314.5 138 L 315 140.5 L 311.5 149 L 311 147.5 L 314.5 138 Z " /><path fill="rgb(88,89,91)" stroke="rgb(88,89,91)" stroke-width="1" opacity="0.48627450980392156" d="M 94.5 140 Q 98 155.5 107 165.5 L 104 163.5 L 96 148.5 L 94.5 140 Z " /><path fill="rgb(88,89,91)" stroke="rgb(88,89,91)" stroke-width="1" opacity="0.48627450980392156" d="M 310.5 150 L 311 151.5 Q 302.7 169.7 288 181.5 L 299.5 202 L 304.5 200 L 304.5 201 L 299.5 203 L 287 181.5 Q 302.3 169.3 310.5 150 Z " /><path fill="rgb(88,89,91)" stroke="rgb(88,89,91)" stroke-width="1" opacity="0.48627450980392156" d="M 107.5 167 L 121 181.5 L 110 171.5 L 107.5 167 Z " /><path fill="rgb(88,89,91)" stroke="rgb(88,89,91)" stroke-width="1" opacity="0.48627450980392156" d="M 119.5 183 L 119 184.5 L 116.5 189 L 117 187.5 L 119.5 183 Z " /><path fill="rgb(88,89,91)" stroke="rgb(88,89,91)" stroke-width="1" opacity="0.48627450980392156" d="M 114.5 192 L 114 193.5 L 109.5 202 L 110 200.5 L 114.5 192 Z " /><path fill="rgb(88,89,91)" stroke="rgb(88,89,91)" stroke-width="1" opacity="0.48627450980392156" d="M 101.5 199 L 105 200.5 L 103.5 201 L 101.5 200 L 100 201.5 L 100 221 L 96 220.5 L 99 220 L 99 200.5 L 100.5 200 L 101.5 199 Z " /><path fill="rgb(88,89,91)" stroke="rgb(88,89,91)" stroke-width="1" opacity="0.48627450980392156" d="M 306.5 199 L 309 200.5 L 309 219.5 L 312.5 220 L 312.5 221 Q 308 221.5 308 220.5 L 308 200.5 L 306.5 200 L 306.5 199 Z " /><path fill="rgb(88,89,91)" stroke="rgb(88,89,91)" stroke-width="1" opacity="0.48627450980392156" d="M 67.5 215 L 67 216.5 L 67 272.5 L 65.5 273 L 66 271.5 L 66 216.5 L 67.5 215 Z " /><path fill="rgb(88,89,91)" stroke="rgb(88,89,91)" stroke-width="1" opacity="0.48627450980392156" d="M 70.5 215 L 74 215.5 L 70.5 216 L 70.5 215 Z " /><path fill="rgb(88,89,91)" stroke="rgb(88,89,91)" stroke-width="1" opacity="0.48627450980392156" d="M 335.5 215 L 339 215.5 L 335.5 216 L 335.5 215 Z " /><path fill="rgb(88,89,91)" stroke="rgb(88,89,91)" stroke-width="1" opacity="0.48627450980392156" d="M 340.5 215 L 342 215.5 L 342 271.5 L 342.5 273 L 341 271.5 L 341 216.5 L 340.5 215 Z " /><path fill="rgb(88,89,91)" stroke="rgb(88,89,91)" stroke-width="1" opacity="0.48627450980392156" d="M 75.5 216 L 79 216.5 L 75.5 217 L 75.5 216 Z " /><path fill="rgb(88,89,91)" stroke="rgb(88,89,91)" stroke-width="1" opacity="0.48627450980392156" d="M 329.5 216 L 334 216.5 L 329.5 217 L 329.5 216 Z " /><path fill="rgb(88,89,91)" stroke="rgb(88,89,91)" stroke-width="1" opacity="0.48627450980392156" d="M 80.5 217 L 84 217.5 L 80.5 218 L 80.5 217 Z " /><path fill="rgb(88,89,91)" stroke="rgb(88,89,91)" stroke-width="1" opacity="0.48627450980392156" d="M 324.5 217 L 328 217.5 L 324.5 218 L 324.5 217 Z " /><path fill="rgb(88,89,91)" stroke="rgb(88,89,91)" stroke-width="1" opacity="0.48627450980392156" d="M 85.5 218 L 89 218.5 L 85.5 219 L 85.5 218 Z " /><path fill="rgb(88,89,91)" stroke="rgb(88,89,91)" stroke-width="1" opacity="0.48627450980392156" d="M 319.5 218 L 323 218.5 L 319.5 219 L 319.5 218 Z " /><path fill="rgb(88,89,91)" stroke="rgb(88,89,91)" stroke-width="1" opacity="0.48627450980392156" d="M 90.5 219 L 94 219.5 L 90.5 220 L 90.5 219 Z " /><path fill="rgb(88,89,91)" stroke="rgb(88,89,91)" stroke-width="1" opacity="0.48627450980392156" d="M 314.5 219 L 318 219.5 L 314.5 220 L 314.5 219 Z " /><path fill="rgb(88,89,91)" stroke="rgb(88,89,91)" stroke-width="1" opacity="0.48627450980392156" d="M 61.5 273 L 64 273.5 L 59.5 275 L 59.5 274 L 61.5 273 Z " /><path fill="rgb(88,89,91)" stroke="rgb(88,89,91)" stroke-width="1" opacity="0.48627450980392156" d="M 344.5 273 L 347 273.5 L 344.5 274 L 344.5 273 Z " /><path fill="rgb(88,89,91)" stroke="rgb(88,89,91)" stroke-width="1" opacity="0.48627450980392156" d="M 348.5 274 Q 356.4 276.1 360 282.5 L 361 284.5 L 359 283.5 L 354.5 278 L 348.5 275 L 348.5 274 Z " /><path fill="rgb(88,89,91)" stroke="rgb(88,89,91)" stroke-width="1" opacity="0.48627450980392156" d="M 56.5 275 L 58 275.5 L 50 281.5 L 46.5 288 L 46 286.5 L 53.5 277 L 56.5 275 Z " /><path fill="rgb(88,89,91)" stroke="rgb(88,89,91)" stroke-width="1" opacity="0.48627450980392156" d="M 361.5 286 L 363 289.5 L 362 289.5 L 361.5 286 Z " /><path fill="rgb(88,89,91)" stroke="rgb(88,89,91)" stroke-width="1" opacity="0.48627450980392156" d="M 363.5 291 L 364 293.5 L 363 293.5 L 363.5 291 Z " /><path fill="rgb(88,89,91)" stroke="rgb(88,89,91)" stroke-width="1" opacity="0.48627450980392156" d="M 44.5 292 L 45 295.5 L 44 295.5 L 44.5 292 Z " /><path fill="rgb(88,89,91)" stroke="rgb(88,89,91)" stroke-width="1" opacity="0.48627450980392156" d="M 364.5 295 L 365 310.5 L 356.5 321 L 348.5 326 L 342 327 L 342 394.5 L 340.5 396 L 337 395.5 L 341 395 L 341 327.5 L 342.5 326 L 348.5 325 L 359 318 L 364 310.5 L 364.5 295 Z " /><path fill="rgb(88,89,91)" stroke="rgb(88,89,91)" stroke-width="1" opacity="0.48627450980392156" d="M 43.5 297 L 44 309.5 L 54 321.5 L 46 314.5 L 43 309.5 L 43.5 297 Z " /><path fill="rgb(88,89,91)" stroke="rgb(88,89,91)" stroke-width="1" opacity="0.48627450980392156" d="M 420.5 310 L 423 310.5 L 420.5 311 L 420.5 310 Z " /><path fill="rgb(88,89,91)" stroke="rgb(88,89,91)" stroke-width="1" opacity="0.48627450980392156" d="M 415.5 311 L 419 311.5 Q 411.9 311.9 409 316.5 L 405.5 324 L 405 321.5 L 411.5 313 L 415.5 311 Z " /><path fill="rgb(88,89,91)" stroke="rgb(88,89,91)" stroke-width="1" opacity="0.48627450980392156" d="M 426.5 311 L 429 311.5 L 426.5 312 L 426.5 311 Z " /><path fill="rgb(88,89,91)" stroke="rgb(88,89,91)" stroke-width="1" opacity="0.48627450980392156" d="M 433.5 313 Q 445.1 317.9 452 327.5 L 462 344.5 L 461 344.5 Q 454.6 328.9 442.5 319 L 433.5 314 L 433.5 313 Z " /><path fill="rgb(88,89,91)" stroke="rgb(88,89,91)" stroke-width="1" opacity="0.48627450980392156" d="M 55.5 322 L 62 325.5 L 60.5 326 Q 55.9 324.8 55.5 322 Z " /><path fill="rgb(88,89,91)" stroke="rgb(88,89,91)" stroke-width="1" opacity="0.48627450980392156" d="M 404.5 325 L 405 334.5 L 404 334.5 L 404.5 325 Z " /><path fill="rgb(88,89,91)" stroke="rgb(88,89,91)" stroke-width="1" opacity="0.48627450980392156" d="M 63.5 326 L 67 326.5 L 67 394.5 L 70.5 395 L 70.5 396 Q 66.8 396.8 66 394.5 L 66 327.5 L 63.5 327 L 63.5 326 Z " /><path fill="rgb(88,89,91)" stroke="rgb(88,89,91)" stroke-width="1" opacity="0.48627450980392156" d="M 405.5 337 L 406 340.5 L 405 340.5 L 405.5 337 Z " /><path fill="rgb(88,89,91)" stroke="rgb(88,89,91)" stroke-width="1" opacity="0.48627450980392156" d="M 406.5 343 L 407 346.5 L 406 346.5 L 406.5 343 Z " /><path fill="rgb(88,89,91)" stroke="rgb(88,89,91)" stroke-width="1" opacity="0.48627450980392156" d="M 462.5 346 L 466 356.5 L 465 356.5 L 462.5 346 Z " /><path fill="rgb(88,89,91)" stroke="rgb(88,89,91)" stroke-width="1" opacity="0.48627450980392156" d="M 407.5 348 L 408 354.5 L 407 354.5 L 407.5 348 Z " /><path fill="rgb(88,89,91)" stroke="rgb(88,89,91)" stroke-width="1" opacity="0.48627450980392156" d="M 466.5 358 L 467 360.5 L 466 360.5 L 466.5 358 Z " /><path fill="rgb(88,89,91)" stroke="rgb(88,89,91)" stroke-width="1" opacity="0.48627450980392156" d="M 467.5 363 L 468 367.5 L 467 367.5 L 467.5 363 Z " /><path fill="rgb(88,89,91)" stroke="rgb(88,89,91)" stroke-width="1" opacity="0.48627450980392156" d="M 407.5 366 L 408 371.5 L 407 371.5 L 407.5 366 Z " /><path fill="rgb(88,89,91)" stroke="rgb(88,89,91)" stroke-width="1" opacity="0.48627450980392156" d="M 468.5 370 L 469 385.5 L 468 385.5 L 468.5 370 Z " /><path fill="rgb(88,89,91)" stroke="rgb(88,89,91)" stroke-width="1" opacity="0.48627450980392156" d="M 406.5 374 L 407 377.5 L 402.5 390 L 402 388.5 L 406.5 374 Z " /><path fill="rgb(88,89,91)" stroke="rgb(88,89,91)" stroke-width="1" opacity="0.48627450980392156" d="M 467.5 388 L 468 392.5 L 467 392.5 L 467.5 388 Z " /><path fill="rgb(88,89,91)" stroke="rgb(88,89,91)" stroke-width="1" opacity="0.48627450980392156" d="M 401.5 391 L 402 392.5 L 398.5 398 L 399 396.5 L 401.5 391 Z " /><path fill="rgb(88,89,91)" stroke="rgb(88,89,91)" stroke-width="1" opacity="0.48627450980392156" d="M 466.5 394 L 467 397.5 L 465.5 401 L 465 398.5 L 466.5 394 Z " /><path fill="rgb(88,89,91)" stroke="rgb(88,89,91)" stroke-width="1" opacity="0.48627450980392156" d="M 72.5 396 Q 75.8 394.9 75 397.5 L 73.5 397 L 72.5 396 Z " /><path fill="rgb(88,89,91)" stroke="rgb(88,89,91)" stroke-width="1" opacity="0.48627450980392156" d="M 334.5 396 L 336 396.5 L 334 397 L 333.5 400 L 333 397.5 L 334.5 396 Z " /><path fill="rgb(88,89,91)" stroke="rgb(88,89,91)" stroke-width="1" opacity="0.48627450980392156" d="M 75.5 399 L 77 407.5 L 76 407.5 L 75.5 399 Z " /><path fill="rgb(88,89,91)" stroke="rgb(88,89,91)" stroke-width="1" opacity="0.48627450980392156" d="M 397.5 399 L 397 400.5 Q 391.6 411.1 382.5 418 L 376.5 422 L 377.5 420 L 391 408.5 L 397.5 399 Z " /><path fill="rgb(88,89,91)" stroke="rgb(88,89,91)" stroke-width="1" opacity="0.48627450980392156" d="M 332.5 401 L 333 404.5 L 332 404.5 L 332.5 401 Z " /><path fill="rgb(88,89,91)" stroke="rgb(88,89,91)" stroke-width="1" opacity="0.48627450980392156" d="M 331.5 406 L 332 409.5 L 330.5 413 L 330 410.5 L 331.5 406 Z " /><path fill="rgb(88,89,91)" stroke="rgb(88,89,91)" stroke-width="1" opacity="0.48627450980392156" d="M 462.5 408 L 463 409.5 Q 453.7 430.7 437.5 445 L 428.5 452 L 430.5 449 L 443 438.5 Q 455.5 426 462.5 408 Z " /><path fill="rgb(88,89,91)" stroke="rgb(88,89,91)" stroke-width="1" opacity="0.48627450980392156" d="M 77.5 409 L 78 411.5 L 77 411.5 L 77.5 409 Z " /><path fill="rgb(88,89,91)" stroke="rgb(88,89,91)" stroke-width="1" opacity="0.48627450980392156" d="M 78.5 413 L 80 418.5 L 79 418.5 L 78.5 413 Z " /><path fill="rgb(88,89,91)" stroke="rgb(88,89,91)" stroke-width="1" opacity="0.48627450980392156" d="M 329.5 414 L 330 416.5 L 329 416.5 L 329.5 414 Z " /><path fill="rgb(88,89,91)" stroke="rgb(88,89,91)" stroke-width="1" opacity="0.48627450980392156" d="M 374.5 422 L 373.5 424 L 363.5 428 L 363.5 427 L 374.5 422 Z " /><path fill="rgb(88,89,91)" stroke="rgb(88,89,91)" stroke-width="1" opacity="0.48627450980392156" d="M 82.5 426 Q 92 453.5 112.5 470 L 115 471.5 L 114.5 473 L 114 471 L 103 462.5 Q 88.5 447.5 82.5 426 Z " /><path fill="rgb(88,89,91)" stroke="rgb(88,89,91)" stroke-width="1" opacity="0.48627450980392156" d="M 325.5 427 L 326 429 L 329 429.5 L 326.5 430 L 325.5 427 Z " /><path fill="rgb(88,89,91)" stroke="rgb(88,89,91)" stroke-width="1" opacity="0.48627450980392156" d="M 359.5 428 L 362 428.5 L 355.5 430 L 355.5 429 L 359.5 428 Z " /><path fill="rgb(88,89,91)" stroke="rgb(88,89,91)" stroke-width="1" opacity="0.48627450980392156" d="M 330.5 430 L 335 430.5 L 330.5 431 L 330.5 430 Z " /><path fill="rgb(88,89,91)" stroke="rgb(88,89,91)" stroke-width="1" opacity="0.48627450980392156" d="M 349.5 430 L 354 430.5 L 349.5 431 L 349.5 430 Z " /><path fill="rgb(88,89,91)" stroke="rgb(88,89,91)" stroke-width="1" opacity="0.48627450980392156" d="M 337.5 431 L 346 431.5 L 337.5 432 L 337.5 431 Z " /><path fill="rgb(88,89,91)" stroke="rgb(88,89,91)" stroke-width="1" opacity="0.48627450980392156" d="M 426.5 452 L 424.5 455 L 417.5 459 L 418.5 457 L 426.5 452 Z " /><path fill="rgb(88,89,91)" stroke="rgb(88,89,91)" stroke-width="1" opacity="0.48627450980392156" d="M 415.5 459 L 414.5 461 L 407.5 464 L 407.5 463 L 415.5 459 Z " /><path fill="rgb(88,89,91)" stroke="rgb(88,89,91)" stroke-width="1" opacity="0.48627450980392156" d="M 404.5 464 L 406 464.5 L 390.5 470 L 390.5 469 L 404.5 464 Z " /><path fill="rgb(88,89,91)" stroke="rgb(88,89,91)" stroke-width="1" opacity="0.48627450980392156" d="M 297.5 468 L 301 468.5 Q 295.6 468.6 293.5 472 L 294.5 470 L 297.5 468 Z " /><path fill="rgb(88,89,91)" stroke="rgb(88,89,91)" stroke-width="1" opacity="0.48627450980392156" d="M 302.5 469 L 310 470.5 L 306.5 471 L 302.5 470 L 302.5 469 Z " /><path fill="rgb(88,89,91)" stroke="rgb(88,89,91)" stroke-width="1" opacity="0.48627450980392156" d="M 386.5 470 L 389 470.5 L 386.5 471 L 386.5 470 Z " /><path fill="rgb(88,89,91)" stroke="rgb(88,89,91)" stroke-width="1" opacity="0.48627450980392156" d="M 311.5 471 L 315 471.5 L 311.5 472 L 311.5 471 Z " /><path fill="rgb(88,89,91)" stroke="rgb(88,89,91)" stroke-width="1" opacity="0.48627450980392156" d="M 382.5 471 L 385 471.5 L 382.5 472 L 382.5 471 Z " /><path fill="rgb(88,89,91)" stroke="rgb(88,89,91)" stroke-width="1" opacity="0.48627450980392156" d="M 316.5 472 L 321 472.5 L 316.5 473 L 316.5 472 Z " /><path fill="rgb(88,89,91)" stroke="rgb(88,89,91)" stroke-width="1" opacity="0.48627450980392156" d="M 377.5 472 L 381 472.5 L 377.5 473 L 377.5 472 Z " /><path fill="rgb(88,89,91)" stroke="rgb(88,89,91)" stroke-width="1" opacity="0.48627450980392156" d="M 322.5 473 L 328 473.5 L 322.5 474 L 322.5 473 Z " /><path fill="rgb(88,89,91)" stroke="rgb(88,89,91)" stroke-width="1" opacity="0.48627450980392156" d="M 370.5 473 L 375 473.5 L 370.5 474 L 370.5 473 Z " /><path fill="rgb(88,89,91)" stroke="rgb(88,89,91)" stroke-width="1" opacity="0.48627450980392156" d="M 330.5 474 L 340 474.5 L 330.5 475 L 330.5 474 Z " /><path fill="rgb(88,89,91)" stroke="rgb(88,89,91)" stroke-width="1" opacity="0.48627450980392156" d="M 360.5 474 L 368 474.5 L 360.5 475 L 360.5 474 Z " /><path fill="rgb(88,89,91)" stroke="rgb(88,89,91)" stroke-width="1" opacity="0.48627450980392156" d="M 347.5 475 L 353 475.5 L 347.5 476 L 347.5 475 Z " /><path fill="rgb(88,89,91)" stroke="rgb(88,89,91)" stroke-width="1" opacity="0.48627450980392156" d="M 295.5 476 L 296 478.5 L 295 478.5 L 295.5 476 Z " /><path fill="rgb(88,89,91)" stroke="rgb(88,89,91)" stroke-width="1" opacity="0.48627450980392156" d="M 112.5 477 L 113 481.5 L 112 481.5 L 112.5 477 Z " /><path fill="rgb(88,89,91)" stroke="rgb(88,89,91)" stroke-width="1" opacity="0.48627450980392156" d="M 168 477 L 239.5 477 L 240 477.5 L 240 487.5 L 239 487.5 L 239 478.5 L 238.5 478 L 169 478 L 168.5 480 L 168 477 Z " /><path fill="rgb(88,89,91)" stroke="rgb(88,89,91)" stroke-width="1" opacity="0.48627450980392156" d="M 296.5 481 L 297 491.5 L 296 491.5 L 296.5 481 Z " /><path fill="rgb(88,89,91)" stroke="rgb(88,89,91)" stroke-width="1" opacity="0.48627450980392156" d="M 111.5 484 L 112 488.5 L 111 488.5 L 111.5 484 Z " /><path fill="rgb(88,89,91)" stroke="rgb(88,89,91)" stroke-width="1" opacity="0.48627450980392156" d="M 168.5 487 L 169 491.5 L 168 491.5 L 168.5 487 Z " /><path fill="rgb(88,89,91)" stroke="rgb(88,89,91)" stroke-width="1" opacity="0.48627450980392156" d="M 240.5 490 Q 241.1 496.9 246 499.5 L 241 495.5 L 240.5 490 Z " /><path fill="rgb(88,89,91)" stroke="rgb(88,89,91)" stroke-width="1" opacity="0.48627450980392156" d="M 112.5 491 L 113 494.5 L 112 494.5 L 112.5 491 Z " /><path fill="rgb(88,89,91)" stroke="rgb(88,89,91)" stroke-width="1" opacity="0.48627450980392156" d="M 167.5 493 L 168 494.5 L 164.5 499 L 157.5 502 L 157.5 501 L 165 498 L 167.5 493 Z " /><path fill="rgb(88,89,91)" stroke="rgb(88,89,91)" stroke-width="1" opacity="0.48627450980392156" d="M 295.5 493 L 296 495.5 L 293.5 499 L 289.5 501 L 289.5 500 L 295 495.5 L 295.5 493 Z " /><path fill="rgb(88,89,91)" stroke="rgb(88,89,91)" stroke-width="1" opacity="0.48627450980392156" d="M 113.5 496 L 116.5 500 L 113.5 496 Z " /><path fill="rgb(88,89,91)" stroke="rgb(88,89,91)" stroke-width="1" opacity="0.48627450980392156" d="M 118.5 500 L 122 501.5 L 120.5 502 L 118.5 500 Z " /><path fill="rgb(88,89,91)" stroke="rgb(88,89,91)" stroke-width="1" opacity="0.48627450980392156" d="M 247.5 500 L 251 501.5 L 249.5 502 L 247.5 500 Z " /><path fill="rgb(88,89,91)" stroke="rgb(88,89,91)" stroke-width="1" opacity="0.48627450980392156" d="M 286.5 501 L 288 501.5 L 282.5 503 L 282.5 502 L 286.5 501 Z " /><path fill="rgb(88,89,91)" stroke="rgb(88,89,91)" stroke-width="1" opacity="0.48627450980392156" d="M 123.5 502 L 126 502.5 L 123.5 503 L 123.5 502 Z " /><path fill="rgb(88,89,91)" stroke="rgb(88,89,91)" stroke-width="1" opacity="0.48627450980392156" d="M 153.5 502 L 156 502.5 L 153.5 503 L 153.5 502 Z " /><path fill="rgb(88,89,91)" stroke="rgb(88,89,91)" stroke-width="1" opacity="0.48627450980392156" d="M 252.5 502 L 255 502.5 L 252.5 503 L 252.5 502 Z " /><path fill="rgb(88,89,91)" stroke="rgb(88,89,91)" stroke-width="1" opacity="0.48627450980392156" d="M 127.5 503 L 134 503.5 L 127.5 504 L 127.5 503 Z " /><path fill="rgb(88,89,91)" stroke="rgb(88,89,91)" stroke-width="1" opacity="0.48627450980392156" d="M 145.5 503 L 152 503.5 L 145.5 504 L 145.5 503 Z " /><path fill="rgb(88,89,91)" stroke="rgb(88,89,91)" stroke-width="1" opacity="0.48627450980392156" d="M 257.5 503 L 263 503.5 L 257.5 504 L 257.5 503 Z " /><path fill="rgb(88,89,91)" stroke="rgb(88,89,91)" stroke-width="1" opacity="0.48627450980392156" d="M 275.5 503 L 281 503.5 L 275.5 504 L 275.5 503 Z " /><path fill="rgb(92,92,94)" stroke="rgb(92,92,94)" stroke-width="1" opacity="0.996078431372549" d="M 103.5 8 L 108.5 9 L 136.5 32 L 141.5 33 L 163.5 26 L 182.5 24 L 183.5 23 L 225.5 23 L 226.5 24 L 244.5 26 L 270.5 33 L 299.5 9 L 304.5 8 L 309 10.5 L 311 14.5 L 311 72.5 L 316 97.5 L 317 126.5 L 315 137.5 L 306 159.5 Q 298.3 172.3 287 181.5 L 299.5 203 L 308 200 L 308 220.5 Q 308 221.5 312.5 221 L 339.5 215 L 341 216.5 L 341 271.5 L 342.5 273 Q 353.5 275 359 282.5 Q 366.4 291.6 364 310.5 L 359 318 L 350.5 324 L 341 327.5 L 341 394.5 L 337.5 395 L 333 397.5 Q 331 414.9 325 428.5 L 330.5 431 L 345.5 432 L 346.5 431 L 358.5 430 L 373.5 424 Q 384.5 418 392 408.5 Q 401.3 397.3 406 381.5 L 408 371.5 L 408 348.5 L 405 336.5 L 405 324.5 L 411.5 314 L 419.5 311 L 425.5 311 Q 442.4 315.1 451 327.5 Q 461.3 339.7 466 357.5 L 468 368.5 L 468 387.5 Q 461.2 423.2 438.5 443 Q 419 461.5 389.5 470 L 369.5 474 L 340.5 475 L 339.5 474 L 321.5 473 L 297.5 468 L 293 471.5 Q 297.8 478.7 296 492.5 L 290.5 500 L 281.5 503 L 263.5 504 L 262.5 503 L 251.5 502 Q 245 500.5 242 495.5 Q 238.4 488.5 240 477 L 168.5 477 L 168 479.5 Q 170.5 481 169 486.5 Q 166.8 487.7 168 492.5 L 165 498 L 152.5 503 L 134.5 504 L 133.5 503 L 122.5 502 Q 116 500.5 113 495.5 L 112 482.5 L 115 471.5 L 99 456.5 Q 80 432.7 75 396 L 67 395 L 67 326.5 Q 67 325.5 62.5 326 Q 52.5 322.5 47 314.5 L 44 309.5 L 44 296.5 L 46 288.5 L 52.5 279 Q 57.9 273.7 67 273 L 67 216.5 L 68.5 215 L 100 221 L 100 201.5 L 101.5 200 L 109.5 202 L 121 181.5 Q 105.4 168.6 97 148.5 L 92 131.5 L 91 109.5 L 92 108.5 L 92 100.5 L 93 99.5 L 93 92.5 L 94 91.5 L 96 74.5 L 98 68.5 L 98 12.5 L 101.5 9 L 103.5 8 Z M 104 12 L 101 15 L 101 72 L 99 78 L 97 96 L 96 97 L 96 105 L 95 106 L 95 128 L 97 138 Q 103 156 114 170 Q 122 179 133 186 L 132 188 L 123 184 L 113 204 L 203 237 L 215 234 L 292 206 L 295 204 L 285 184 L 278 188 L 275 187 L 276 184 L 285 179 Q 296 170 303 158 L 311 139 L 314 122 L 312 95 L 307 71 L 307 15 L 306 12 L 302 12 L 271 37 L 247 30 L 230 27 L 221 27 L 220 26 L 190 26 L 189 27 L 179 27 L 151 33 L 141 37 Q 136 38 135 35 L 107 12 L 104 12 Z M 103 205 L 103 221 L 107 223 L 117 224 L 180 237 L 192 237 L 107 205 L 103 205 Z M 303 205 L 218 236 L 218 237 L 230 237 L 305 222 L 305 206 L 303 205 Z M 71 220 L 71 274 L 84 280 Q 89 283 90 291 Q 86 313 71 325 L 71 392 L 138 405 L 143 405 L 164 410 L 169 410 L 180 413 L 181 413 L 181 242 L 180 240 L 160 236 L 155 236 L 134 231 L 129 231 L 108 226 L 103 226 L 82 221 L 71 220 Z M 333 220 L 265 234 L 260 234 L 244 238 L 229 240 L 227 242 L 227 413 L 338 392 L 338 326 Q 325 314 319 296 Q 318 287 321 284 Q 328 277 338 274 L 338 221 Q 338 219 333 220 Z M 185 241 L 185 413 L 186 413 L 223 413 L 223 242 L 223 241 L 185 241 Z M 64 277 L 54 282 L 49 291 L 47 302 Q 46 310 50 313 Q 55 320 65 323 L 69 322 Q 81 312 86 294 L 85 287 L 75 279 L 70 277 L 64 277 Z M 340 277 L 326 284 L 322 290 Q 325 306 334 317 L 343 323 L 352 319 L 361 309 L 360 293 L 356 285 L 348 278 L 340 277 Z M 418 315 L 412 318 L 409 324 Q 410 328 408 330 L 412 352 L 412 369 L 409 384 Q 405 399 396 410 Q 381 430 352 435 L 333 435 L 324 433 Q 316 452 302 465 L 309 467 L 326 470 L 333 470 L 334 471 L 366 471 L 391 466 Q 413 459 430 446 Q 443 435 453 420 L 462 400 L 464 391 L 464 382 L 465 381 Q 464 346 447 329 L 433 317 Q 427 314 418 315 Z M 79 397 Q 84 432 103 456 L 117 468 L 119 464 Q 118 459 120 458 Q 118 451 123 453 L 122 467 L 116 480 L 116 494 L 120 497 L 131 500 L 149 500 L 160 497 L 165 490 Q 166 477 163 470 L 163 456 L 166 455 L 167 472 L 168 473 L 169 474 L 240 474 L 241 473 L 241 467 L 243 460 Q 242 455 246 457 L 245 471 L 244 472 L 244 492 L 245 494 L 249 497 L 260 500 Q 278 502 289 497 L 292 494 L 293 489 L 292 479 L 286 466 L 285 455 L 288 453 L 289 455 Q 288 464 292 468 L 298 464 Q 323 440 329 397 L 228 417 L 181 417 L 79 397 Z " /><path fill="rgb(92,92,94)" stroke="rgb(92,92,94)" stroke-width="1" opacity="0.996078431372549" d="M 152.5 81 Q 160.5 79.5 162 84.5 Q 162.8 90.3 159.5 92 L 154.5 93 L 150 89.5 Q 149 83 152.5 81 Z " /><path fill="rgb(92,92,94)" stroke="rgb(92,92,94)" stroke-width="1" opacity="0.996078431372549" d="M 249.5 81 Q 256.5 79.5 258 83.5 L 259 87.5 L 257 92 L 250.5 93 Q 246.4 91 246 85.5 L 249.5 81 Z " /><path fill="rgb(92,92,94)" stroke="rgb(92,92,94)" stroke-width="1" opacity="0.996078431372549" d="M 198.5 108 Q 210.4 105.6 214 111.5 L 214 118.5 L 207.5 127 L 206 127.5 L 206 137.5 L 208 141 Q 212.8 144.1 222 143 L 220.5 146 Q 208.2 147.8 203.5 142 Q 199 148.2 187 146 L 187 143 L 194.5 143 L 198.5 142 L 201 139.5 L 202 137.5 L 202 127 L 197 123.5 L 194 116.5 L 194 112.5 L 196.5 109 L 198.5 108 Z " /><path fill="rgb(92,92,94)" stroke="rgb(92,92,94)" stroke-width="1" opacity="0.996078431372549" d="M 137.5 127 L 165.5 135 L 169 137.5 Q 169.6 140.3 163.5 139 L 136 131 L 137.5 127 Z " /><path fill="rgb(92,92,94)" stroke="rgb(92,92,94)" stroke-width="1" opacity="0.996078431372549" d="M 267.5 128 Q 273.6 126.8 273 129.5 L 262.5 134 L 244.5 139 L 240 139 Q 238.3 134.9 242.5 136 L 267.5 128 Z " /><path fill="rgb(92,92,94)" stroke="rgb(92,92,94)" stroke-width="1" opacity="0.996078431372549" d="M 160.5 149 L 168.5 149 L 169 150.5 L 163.5 153 L 136 156 Q 134.5 152.2 137.5 153 L 160.5 149 Z " /><path fill="rgb(92,92,94)" stroke="rgb(92,92,94)" stroke-width="1" opacity="0.996078431372549" d="M 240 149 L 269.5 152 L 273 154.5 Q 271.8 157.3 266.5 156 L 265.5 155 L 240 152 L 240 149 Z " /><path fill="rgb(92,92,94)" stroke="rgb(92,92,94)" stroke-width="1" opacity="0.996078431372549" d="M 305.5 271 L 312 271 L 312 274 L 265 282 L 266.5 278 L 282.5 276 L 305.5 271 Z " /><path fill="rgb(92,92,94)" stroke="rgb(92,92,94)" stroke-width="1" opacity="0.996078431372549" d="M 309.5 284 L 312 285.5 Q 313.3 289.7 308.5 288 L 302.5 290 L 297.5 290 L 266.5 296 L 265 293.5 L 270.5 291 L 303.5 286 L 309.5 284 Z " /><path fill="rgb(92,92,94)" stroke="rgb(92,92,94)" stroke-width="1" opacity="0.996078431372549" d="M 308.5 298 Q 314.2 296.4 312 302 L 266.5 310 L 265 306 L 308.5 298 Z " /><path fill="rgb(190,154,154)" stroke="rgb(190,154,154)" stroke-width="1" opacity="1" d="M 301.5 12 L 300.5 14 L 301.5 12 Z " /><path fill="rgb(190,154,154)" stroke="rgb(190,154,154)" stroke-width="1" opacity="1" d="M 101.5 14 L 102 68.5 L 101 68.5 L 101.5 14 Z " /><path fill="rgb(190,154,154)" stroke="rgb(190,154,154)" stroke-width="1" opacity="1" d="M 110.5 15 L 111.5 17 L 110.5 15 Z " /><path fill="rgb(190,154,154)" stroke="rgb(190,154,154)" stroke-width="1" opacity="1" d="M 296.5 16 L 295.5 18 L 296.5 16 Z " /><path fill="rgb(190,154,154)" stroke="rgb(190,154,154)" stroke-width="1" opacity="1" d="M 115.5 19 L 116.5 21 L 115.5 19 Z " /><path fill="rgb(190,154,154)" stroke="rgb(190,154,154)" stroke-width="1" opacity="1" d="M 291.5 20 L 290.5 22 L 291.5 20 Z " /><path fill="rgb(190,154,154)" stroke="rgb(190,154,154)" stroke-width="1" opacity="1" d="M 120.5 23 L 121.5 25 L 120.5 23 Z " /><path fill="rgb(190,154,154)" stroke="rgb(190,154,154)" stroke-width="1" opacity="1" d="M 286.5 24 L 285.5 26 L 286.5 24 Z " /><path fill="rgb(190,154,154)" stroke="rgb(190,154,154)" stroke-width="1" opacity="1" d="M 189.5 26 L 220 26.5 L 189.5 27 L 189.5 26 Z " /><path fill="rgb(190,154,154)" stroke="rgb(190,154,154)" stroke-width="1" opacity="1" d="M 125.5 27 L 126.5 29 L 125.5 27 Z " /><path fill="rgb(190,154,154)" stroke="rgb(190,154,154)" stroke-width="1" opacity="1" d="M 178.5 27 L 182 27.5 L 178.5 28 L 178.5 27 Z " /><path fill="rgb(190,154,154)" stroke="rgb(190,154,154)" stroke-width="1" opacity="1" d="M 226.5 27 L 230 27.5 L 226.5 28 L 226.5 27 Z " /><path fill="rgb(190,154,154)" stroke="rgb(190,154,154)" stroke-width="1" opacity="1" d="M 172.5 28 L 175 28.5 L 172.5 29 L 172.5 28 Z " /><path fill="rgb(190,154,154)" stroke="rgb(190,154,154)" stroke-width="1" opacity="1" d="M 234.5 28 L 237 28.5 L 234.5 29 L 234.5 28 Z " /><path fill="rgb(190,154,154)" stroke="rgb(190,154,154)" stroke-width="1" opacity="1" d="M 281.5 28 L 280.5 30 L 281.5 28 Z " /><path fill="rgb(190,154,154)" stroke="rgb(190,154,154)" stroke-width="1" opacity="1" d="M 166.5 29 L 169 29.5 L 166.5 30 L 166.5 29 Z " /><path fill="rgb(190,154,154)" stroke="rgb(190,154,154)" stroke-width="1" opacity="1" d="M 130.5 31 L 131.5 33 L 130.5 31 Z " /><path fill="rgb(190,154,154)" stroke="rgb(190,154,154)" stroke-width="1" opacity="1" d="M 276.5 32 L 274.5 35 L 276.5 32 Z " /><path fill="rgb(190,154,154)" stroke="rgb(190,154,154)" stroke-width="1" opacity="1" d="M 135.5 35 L 136.5 37 L 135.5 35 Z " /><path fill="rgb(190,154,154)" stroke="rgb(190,154,154)" stroke-width="1" opacity="1" d="M 271.5 36 L 270.5 38 L 269 37.5 L 271.5 36 Z " /><path fill="rgb(190,154,154)" stroke="rgb(190,154,154)" stroke-width="1" opacity="1" d="M 99.5 77 L 100 79.5 L 99 79.5 L 99.5 77 Z " /><path fill="rgb(190,154,154)" stroke="rgb(190,154,154)" stroke-width="1" opacity="1" d="M 154.5 80 L 158 80.5 L 154.5 81 L 154.5 80 Z " /><path fill="rgb(190,154,154)" stroke="rgb(190,154,154)" stroke-width="1" opacity="1" d="M 250.5 80 L 255 80.5 L 250.5 81 L 250.5 80 Z " /><path fill="rgb(190,154,154)" stroke="rgb(190,154,154)" stroke-width="1" opacity="1" d="M 159.5 81 L 161.5 84 L 159.5 81 Z " /><path fill="rgb(190,154,154)" stroke="rgb(190,154,154)" stroke-width="1" opacity="1" d="M 256.5 81 L 257.5 83 L 256.5 81 Z " /><path fill="rgb(190,154,154)" stroke="rgb(190,154,154)" stroke-width="1" opacity="1" d="M 309.5 81 L 310 83.5 L 309 83.5 L 309.5 81 Z " /><path fill="rgb(190,154,154)" stroke="rgb(190,154,154)" stroke-width="1" opacity="1" d="M 98.5 83 L 99 85.5 L 98 85.5 L 98.5 83 Z " /><path fill="rgb(190,154,154)" stroke="rgb(190,154,154)" stroke-width="1" opacity="1" d="M 149.5 85 L 150 88.5 L 149 88.5 L 149.5 85 Z " /><path fill="rgb(190,154,154)" stroke="rgb(190,154,154)" stroke-width="1" opacity="1" d="M 310.5 87 L 311 89.5 L 310 89.5 L 310.5 87 Z " /><path fill="rgb(190,154,154)" stroke="rgb(190,154,154)" stroke-width="1" opacity="1" d="M 97.5 89 L 98 91.5 L 97 91.5 L 97.5 89 Z " /><path fill="rgb(190,154,154)" stroke="rgb(190,154,154)" stroke-width="1" opacity="1" d="M 150.5 90 L 151.5 92 L 150.5 90 Z " /><path fill="rgb(190,154,154)" stroke="rgb(190,154,154)" stroke-width="1" opacity="1" d="M 247.5 90 L 249.5 93 L 247.5 90 Z " /><path fill="rgb(190,154,154)" stroke="rgb(190,154,154)" stroke-width="1" opacity="1" d="M 311.5 94 L 312 96.5 L 311 96.5 L 311.5 94 Z " /><path fill="rgb(190,154,154)" stroke="rgb(190,154,154)" stroke-width="1" opacity="1" d="M 96.5 96 L 97 99.5 L 96 99.5 L 96.5 96 Z " /><path fill="rgb(190,154,154)" stroke="rgb(190,154,154)" stroke-width="1" opacity="1" d="M 312.5 102 L 313 105.5 L 312 105.5 L 312.5 102 Z " /><path fill="rgb(190,154,154)" stroke="rgb(190,154,154)" stroke-width="1" opacity="1" d="M 95.5 105 L 96 108.5 L 95 108.5 L 95.5 105 Z " /><path fill="rgb(190,154,154)" stroke="rgb(190,154,154)" stroke-width="1" opacity="1" d="M 201.5 107 L 208 107.5 L 201.5 108 L 201.5 107 Z " /><path fill="rgb(190,154,154)" stroke="rgb(190,154,154)" stroke-width="1" opacity="1" d="M 212.5 109 L 213.5 111 L 212.5 109 Z " /><path fill="rgb(190,154,154)" stroke="rgb(190,154,154)" stroke-width="1" opacity="1" d="M 214.5 112 L 215 115.5 L 214 115.5 L 214.5 112 Z " /><path fill="rgb(190,154,154)" stroke="rgb(190,154,154)" stroke-width="1" opacity="1" d="M 313.5 112 L 314 121.5 L 313 121.5 L 313.5 112 Z " /><path fill="rgb(190,154,154)" stroke="rgb(190,154,154)" stroke-width="1" opacity="1" d="M 210.5 124 L 208.5 127 L 210.5 124 Z " /><path fill="rgb(190,154,154)" stroke="rgb(190,154,154)" stroke-width="1" opacity="1" d="M 95.5 125 L 96 127.5 L 95 127.5 L 95.5 125 Z " /><path fill="rgb(190,154,154)" stroke="rgb(190,154,154)" stroke-width="1" opacity="1" d="M 136.5 127 L 136 128.5 L 135.5 130 L 135 128.5 L 136.5 127 Z " /><path fill="rgb(190,154,154)" stroke="rgb(190,154,154)" stroke-width="1" opacity="1" d="M 269.5 127 L 272 127.5 L 269.5 128 L 269.5 127 Z " /><path fill="rgb(190,154,154)" stroke="rgb(190,154,154)" stroke-width="1" opacity="1" d="M 312.5 127 L 313 129.5 L 312 129.5 L 312.5 127 Z " /><path fill="rgb(190,154,154)" stroke="rgb(190,154,154)" stroke-width="1" opacity="1" d="M 206.5 135 L 207 137.5 L 206 137.5 L 206.5 135 Z " /><path fill="rgb(190,154,154)" stroke="rgb(190,154,154)" stroke-width="1" opacity="1" d="M 239.5 136 L 240 139 L 243 139.5 L 240.5 140 Q 238 139 239.5 136 Z " /><path fill="rgb(190,154,154)" stroke="rgb(190,154,154)" stroke-width="1" opacity="1" d="M 165.5 139 L 168 139.5 L 165.5 140 L 165.5 139 Z " /><path fill="rgb(190,154,154)" stroke="rgb(190,154,154)" stroke-width="1" opacity="1" d="M 200.5 139 L 198.5 142 L 200.5 139 Z " /><path fill="rgb(190,154,154)" stroke="rgb(190,154,154)" stroke-width="1" opacity="1" d="M 187.5 142 L 195 142.5 L 187 143 L 186.5 146 L 186 143.5 L 187.5 142 Z " /><path fill="rgb(190,154,154)" stroke="rgb(190,154,154)" stroke-width="1" opacity="1" d="M 213.5 142 L 221 142.5 L 213.5 143 L 213.5 142 Z " /><path fill="rgb(190,154,154)" stroke="rgb(190,154,154)" stroke-width="1" opacity="1" d="M 188.5 146 L 195 146.5 L 188.5 147 L 188.5 146 Z " /><path fill="rgb(190,154,154)" stroke="rgb(190,154,154)" stroke-width="1" opacity="1" d="M 213.5 146 L 220 146.5 L 213.5 147 L 213.5 146 Z " /><path fill="rgb(190,154,154)" stroke="rgb(190,154,154)" stroke-width="1" opacity="1" d="M 164.5 148 L 168 148.5 L 164.5 149 L 164.5 148 Z " /><path fill="rgb(190,154,154)" stroke="rgb(190,154,154)" stroke-width="1" opacity="1" d="M 240.5 148 L 245 148.5 L 240 149 L 239.5 151 L 239 149.5 L 240.5 148 Z " /><path fill="rgb(190,154,154)" stroke="rgb(190,154,154)" stroke-width="1" opacity="1" d="M 156.5 149 L 160 149.5 L 156.5 150 L 156.5 149 Z " /><path fill="rgb(190,154,154)" stroke="rgb(190,154,154)" stroke-width="1" opacity="1" d="M 249.5 149 L 252 149.5 L 249.5 150 L 249.5 149 Z " /><path fill="rgb(190,154,154)" stroke="rgb(190,154,154)" stroke-width="1" opacity="1" d="M 149.5 150 L 152 150.5 L 149.5 151 L 149.5 150 Z " /><path fill="rgb(190,154,154)" stroke="rgb(190,154,154)" stroke-width="1" opacity="1" d="M 256.5 150 L 259 150.5 L 256.5 151 L 256.5 150 Z " /><path fill="rgb(190,154,154)" stroke="rgb(190,154,154)" stroke-width="1" opacity="1" d="M 142.5 151 L 145 151.5 L 142.5 152 L 142.5 151 Z " /><path fill="rgb(190,154,154)" stroke="rgb(190,154,154)" stroke-width="1" opacity="1" d="M 263.5 151 L 266 151.5 L 263.5 152 L 263.5 151 Z " /><path fill="rgb(190,154,154)" stroke="rgb(190,154,154)" stroke-width="1" opacity="1" d="M 136.5 152 L 138 152.5 L 136 153 L 135.5 155 L 135 153.5 L 136.5 152 Z " /><path fill="rgb(190,154,154)" stroke="rgb(190,154,154)" stroke-width="1" opacity="1" d="M 164.5 152 L 167 152.5 L 164.5 153 L 164.5 152 Z " /><path fill="rgb(190,154,154)" stroke="rgb(190,154,154)" stroke-width="1" opacity="1" d="M 241.5 152 L 245 152.5 L 241.5 153 L 241.5 152 Z " /><path fill="rgb(190,154,154)" stroke="rgb(190,154,154)" stroke-width="1" opacity="1" d="M 270.5 152 L 273 153.5 L 271.5 153 L 270.5 152 Z " /><path fill="rgb(190,154,154)" stroke="rgb(190,154,154)" stroke-width="1" opacity="1" d="M 157.5 153 L 160 153.5 L 157.5 154 L 157.5 153 Z " /><path fill="rgb(190,154,154)" stroke="rgb(190,154,154)" stroke-width="1" opacity="1" d="M 249.5 153 L 252 153.5 L 249.5 154 L 249.5 153 Z " /><path fill="rgb(190,154,154)" stroke="rgb(190,154,154)" stroke-width="1" opacity="1" d="M 150.5 154 L 153 154.5 L 150.5 155 L 150.5 154 Z " /><path fill="rgb(190,154,154)" stroke="rgb(190,154,154)" stroke-width="1" opacity="1" d="M 256.5 154 L 259 154.5 L 256.5 155 L 256.5 154 Z " /><path fill="rgb(190,154,154)" stroke="rgb(190,154,154)" stroke-width="1" opacity="1" d="M 142.5 155 L 146 155.5 L 142.5 156 L 142.5 155 Z " /><path fill="rgb(190,154,154)" stroke="rgb(190,154,154)" stroke-width="1" opacity="1" d="M 263.5 155 L 266 155.5 L 263.5 156 L 263.5 155 Z " /><path fill="rgb(190,154,154)" stroke="rgb(190,154,154)" stroke-width="1" opacity="1" d="M 302.5 157 L 301.5 159 L 302.5 157 Z " /><path fill="rgb(190,154,154)" stroke="rgb(190,154,154)" stroke-width="1" opacity="1" d="M 298.5 163 L 297.5 165 L 298.5 163 Z " /><path fill="rgb(190,154,154)" stroke="rgb(190,154,154)" stroke-width="1" opacity="1" d="M 110.5 164 L 111.5 166 L 110.5 164 Z " /><path fill="rgb(190,154,154)" stroke="rgb(190,154,154)" stroke-width="1" opacity="1" d="M 295.5 167 L 293.5 170 L 295.5 167 Z " /><path fill="rgb(190,154,154)" stroke="rgb(190,154,154)" stroke-width="1" opacity="1" d="M 114.5 169 L 122.5 178 L 114.5 169 Z " /><path fill="rgb(190,154,154)" stroke="rgb(190,154,154)" stroke-width="1" opacity="1" d="M 286.5 176 L 284.5 179 L 286.5 176 Z " /><path fill="rgb(190,154,154)" stroke="rgb(190,154,154)" stroke-width="1" opacity="1" d="M 125.5 179 L 127.5 182 L 125.5 179 Z " /><path fill="rgb(190,154,154)" stroke="rgb(190,154,154)" stroke-width="1" opacity="1" d="M 129.5 182 L 130.5 184 L 129.5 182 Z " /><path fill="rgb(190,154,154)" stroke="rgb(190,154,154)" stroke-width="1" opacity="1" d="M 281.5 185 L 280.5 187 L 281.5 185 Z " /><path fill="rgb(190,154,154)" stroke="rgb(190,154,154)" stroke-width="1" opacity="1" d="M 113.5 203 L 114.5 205 L 113.5 203 Z " /><path fill="rgb(190,154,154)" stroke="rgb(190,154,154)" stroke-width="1" opacity="1" d="M 103.5 205 L 104 220.5 L 103 220.5 L 103.5 205 Z " /><path fill="rgb(190,154,154)" stroke="rgb(190,154,154)" stroke-width="1" opacity="1" d="M 304.5 205 L 305 221.5 L 304 221.5 L 304.5 205 Z " /><path fill="rgb(190,154,154)" stroke="rgb(190,154,154)" stroke-width="1" opacity="1" d="M 332.5 220 L 335 220.5 L 332.5 221 L 332.5 220 Z " /><path fill="rgb(190,154,154)" stroke="rgb(190,154,154)" stroke-width="1" opacity="1" d="M 337.5 220 L 338 273.5 L 337 273.5 L 337.5 220 Z " /><path fill="rgb(190,154,154)" stroke="rgb(190,154,154)" stroke-width="1" opacity="1" d="M 79.5 221 L 82 221.5 L 79.5 222 L 79.5 221 Z " /><path fill="rgb(190,154,154)" stroke="rgb(190,154,154)" stroke-width="1" opacity="1" d="M 84.5 222 L 87 222.5 L 84.5 223 L 84.5 222 Z " /><path fill="rgb(190,154,154)" stroke="rgb(190,154,154)" stroke-width="1" opacity="1" d="M 111.5 223 L 114 223.5 L 111.5 224 L 111.5 223 Z " /><path fill="rgb(190,154,154)" stroke="rgb(190,154,154)" stroke-width="1" opacity="1" d="M 311.5 224 L 314 224.5 L 311.5 225 L 311.5 224 Z " /><path fill="rgb(190,154,154)" stroke="rgb(190,154,154)" stroke-width="1" opacity="1" d="M 306.5 225 L 309 225.5 L 306.5 226 L 306.5 225 Z " /><path fill="rgb(190,154,154)" stroke="rgb(190,154,154)" stroke-width="1" opacity="1" d="M 105.5 226 L 108 226.5 L 105.5 227 L 105.5 226 Z " /><path fill="rgb(190,154,154)" stroke="rgb(190,154,154)" stroke-width="1" opacity="1" d="M 110.5 227 L 113 227.5 L 110.5 228 L 110.5 227 Z " /><path fill="rgb(190,154,154)" stroke="rgb(190,154,154)" stroke-width="1" opacity="1" d="M 285.5 229 L 288 229.5 L 285.5 230 L 285.5 229 Z " /><path fill="rgb(190,154,154)" stroke="rgb(190,154,154)" stroke-width="1" opacity="1" d="M 280.5 230 L 283 230.5 L 280.5 231 L 280.5 230 Z " /><path fill="rgb(190,154,154)" stroke="rgb(190,154,154)" stroke-width="1" opacity="1" d="M 131.5 231 L 134 231.5 L 131.5 232 L 131.5 231 Z " /><path fill="rgb(190,154,154)" stroke="rgb(190,154,154)" stroke-width="1" opacity="1" d="M 275.5 231 L 278 231.5 L 275.5 232 L 275.5 231 Z " /><path fill="rgb(190,154,154)" stroke="rgb(190,154,154)" stroke-width="1" opacity="1" d="M 136.5 232 L 139 232.5 L 136.5 233 L 136.5 232 Z " /><path fill="rgb(190,154,154)" stroke="rgb(190,154,154)" stroke-width="1" opacity="1" d="M 259.5 234 L 262 234.5 L 259.5 235 L 259.5 234 Z " /><path fill="rgb(190,154,154)" stroke="rgb(190,154,154)" stroke-width="1" opacity="1" d="M 254.5 235 L 257 235.5 L 254.5 236 L 254.5 235 Z " /><path fill="rgb(190,154,154)" stroke="rgb(190,154,154)" stroke-width="1" opacity="1" d="M 157.5 236 L 160 236.5 L 157.5 237 L 157.5 236 Z " /><path fill="rgb(190,154,154)" stroke="rgb(190,154,154)" stroke-width="1" opacity="1" d="M 249.5 236 L 252 236.5 L 249.5 237 L 249.5 236 Z " /><path fill="rgb(190,154,154)" stroke="rgb(190,154,154)" stroke-width="1" opacity="1" d="M 162.5 237 L 165 237.5 L 162.5 238 L 162.5 237 Z " /><path fill="rgb(190,154,154)" stroke="rgb(190,154,154)" stroke-width="1" opacity="1" d="M 167.5 238 L 170 238.5 L 167.5 239 L 167.5 238 Z " /><path fill="rgb(190,154,154)" stroke="rgb(190,154,154)" stroke-width="1" opacity="1" d="M 238.5 238 L 241 238.5 L 238.5 239 L 238.5 238 Z " /><path fill="rgb(190,154,154)" stroke="rgb(190,154,154)" stroke-width="1" opacity="1" d="M 233.5 239 L 236 239.5 L 233.5 240 L 233.5 239 Z " /><path fill="rgb(190,154,154)" stroke="rgb(190,154,154)" stroke-width="1" opacity="1" d="M 228.5 240 L 231 240.5 L 228.5 241 L 228.5 240 Z " /><path fill="rgb(190,154,154)" stroke="rgb(190,154,154)" stroke-width="1" opacity="1" d="M 185.5 241 L 186 412.5 L 185 412.5 L 185.5 241 Z " /><path fill="rgb(190,154,154)" stroke="rgb(190,154,154)" stroke-width="1" opacity="1" d="M 307.5 270 Q 312 269 313 271.5 L 312.5 274 L 312 271 L 307.5 271 L 307.5 270 Z " /><path fill="rgb(190,154,154)" stroke="rgb(190,154,154)" stroke-width="1" opacity="1" d="M 302.5 271 L 305 271.5 L 302.5 272 L 302.5 271 Z " /><path fill="rgb(190,154,154)" stroke="rgb(190,154,154)" stroke-width="1" opacity="1" d="M 296.5 272 L 299 272.5 L 296.5 273 L 296.5 272 Z " /><path fill="rgb(190,154,154)" stroke="rgb(190,154,154)" stroke-width="1" opacity="1" d="M 291.5 273 L 294 273.5 L 291.5 274 L 291.5 273 Z " /><path fill="rgb(190,154,154)" stroke="rgb(190,154,154)" stroke-width="1" opacity="1" d="M 285.5 274 L 288 274.5 L 285.5 275 L 285.5 274 Z " /><path fill="rgb(190,154,154)" stroke="rgb(190,154,154)" stroke-width="1" opacity="1" d="M 280.5 275 L 283 275.5 L 280.5 276 L 280.5 275 Z " /><path fill="rgb(190,154,154)" stroke="rgb(190,154,154)" stroke-width="1" opacity="1" d="M 274.5 276 L 277 276.5 L 274.5 277 L 274.5 276 Z " /><path fill="rgb(190,154,154)" stroke="rgb(190,154,154)" stroke-width="1" opacity="1" d="M 298.5 276 L 301 276.5 L 298.5 277 L 298.5 276 Z " /><path fill="rgb(190,154,154)" stroke="rgb(190,154,154)" stroke-width="1" opacity="1" d="M 330.5 276 L 332 276.5 L 329.5 278 L 330.5 276 Z " /><path fill="rgb(190,154,154)" stroke="rgb(190,154,154)" stroke-width="1" opacity="1" d="M 81.5 278 L 82.5 280 L 81.5 278 Z " /><path fill="rgb(190,154,154)" stroke="rgb(190,154,154)" stroke-width="1" opacity="1" d="M 287.5 278 L 290 278.5 L 287.5 279 L 287.5 278 Z " /><path fill="rgb(190,154,154)" stroke="rgb(190,154,154)" stroke-width="1" opacity="1" d="M 58.5 279 L 57.5 281 L 58.5 279 Z " /><path fill="rgb(190,154,154)" stroke="rgb(190,154,154)" stroke-width="1" opacity="1" d="M 281.5 279 L 284 279.5 L 281.5 280 L 281.5 279 Z " /><path fill="rgb(190,154,154)" stroke="rgb(190,154,154)" stroke-width="1" opacity="1" d="M 325.5 279 L 324.5 281 L 325.5 279 Z " /><path fill="rgb(190,154,154)" stroke="rgb(190,154,154)" stroke-width="1" opacity="1" d="M 276.5 280 L 279 280.5 L 276.5 281 L 276.5 280 Z " /><path fill="rgb(190,154,154)" stroke="rgb(190,154,154)" stroke-width="1" opacity="1" d="M 85.5 281 L 87.5 284 L 85.5 281 Z " /><path fill="rgb(190,154,154)" stroke="rgb(190,154,154)" stroke-width="1" opacity="1" d="M 270.5 281 L 273 281.5 L 270.5 282 L 270.5 281 Z " /><path fill="rgb(190,154,154)" stroke="rgb(190,154,154)" stroke-width="1" opacity="1" d="M 352.5 281 L 355.5 285 L 352.5 281 Z " /><path fill="rgb(190,154,154)" stroke="rgb(190,154,154)" stroke-width="1" opacity="1" d="M 81.5 283 L 84.5 287 L 81.5 283 Z " /><path fill="rgb(190,154,154)" stroke="rgb(190,154,154)" stroke-width="1" opacity="1" d="M 306.5 284 L 309 284.5 L 306.5 285 L 306.5 284 Z " /><path fill="rgb(190,154,154)" stroke="rgb(190,154,154)" stroke-width="1" opacity="1" d="M 311.5 284 L 313 286.5 L 312 286.5 L 311.5 284 Z " /><path fill="rgb(190,154,154)" stroke="rgb(190,154,154)" stroke-width="1" opacity="1" d="M 325.5 284 L 324.5 286 L 325.5 284 Z " /><path fill="rgb(190,154,154)" stroke="rgb(190,154,154)" stroke-width="1" opacity="1" d="M 301.5 285 L 304 285.5 L 301.5 286 L 301.5 285 Z " /><path fill="rgb(190,154,154)" stroke="rgb(190,154,154)" stroke-width="1" opacity="1" d="M 295.5 286 L 298 286.5 L 295.5 287 L 295.5 286 Z " /><path fill="rgb(190,154,154)" stroke="rgb(190,154,154)" stroke-width="1" opacity="1" d="M 89.5 287 L 90 289.5 L 89 289.5 L 89.5 287 Z " /><path fill="rgb(190,154,154)" stroke="rgb(190,154,154)" stroke-width="1" opacity="1" d="M 85.5 288 L 86 293.5 L 85 293.5 L 85.5 288 Z " /><path fill="rgb(190,154,154)" stroke="rgb(190,154,154)" stroke-width="1" opacity="1" d="M 284.5 288 L 287 288.5 L 284.5 289 L 284.5 288 Z " /><path fill="rgb(190,154,154)" stroke="rgb(190,154,154)" stroke-width="1" opacity="1" d="M 308.5 288 L 311 288.5 L 308.5 289 L 308.5 288 Z " /><path fill="rgb(190,154,154)" stroke="rgb(190,154,154)" stroke-width="1" opacity="1" d="M 318.5 288 L 319 292.5 L 318 292.5 L 318.5 288 Z " /><path fill="rgb(190,154,154)" stroke="rgb(190,154,154)" stroke-width="1" opacity="1" d="M 322.5 289 L 323 291.5 L 322 291.5 L 322.5 289 Z " /><path fill="rgb(190,154,154)" stroke="rgb(190,154,154)" stroke-width="1" opacity="1" d="M 273.5 290 L 276 290.5 L 273.5 291 L 273.5 290 Z " /><path fill="rgb(190,154,154)" stroke="rgb(190,154,154)" stroke-width="1" opacity="1" d="M 297.5 290 L 300 290.5 L 297.5 291 L 297.5 290 Z " /><path fill="rgb(190,154,154)" stroke="rgb(190,154,154)" stroke-width="1" opacity="1" d="M 89.5 292 L 90 294.5 L 89 294.5 L 89.5 292 Z " /><path fill="rgb(190,154,154)" stroke="rgb(190,154,154)" stroke-width="1" opacity="1" d="M 286.5 292 L 289 292.5 L 286.5 293 L 286.5 292 Z " /><path fill="rgb(190,154,154)" stroke="rgb(190,154,154)" stroke-width="1" opacity="1" d="M 280.5 293 L 283 293.5 L 280.5 294 L 280.5 293 Z " /><path fill="rgb(190,154,154)" stroke="rgb(190,154,154)" stroke-width="1" opacity="1" d="M 264.5 294 L 265.5 296 L 264.5 294 Z " /><path fill="rgb(190,154,154)" stroke="rgb(190,154,154)" stroke-width="1" opacity="1" d="M 269.5 295 L 272 295.5 L 269.5 296 L 269.5 295 Z " /><path fill="rgb(190,154,154)" stroke="rgb(190,154,154)" stroke-width="1" opacity="1" d="M 360.5 297 L 361 303.5 L 360 303.5 L 360.5 297 Z " /><path fill="rgb(190,154,154)" stroke="rgb(190,154,154)" stroke-width="1" opacity="1" d="M 305.5 298 L 308 298.5 L 305.5 299 L 305.5 298 Z " /><path fill="rgb(190,154,154)" stroke="rgb(190,154,154)" stroke-width="1" opacity="1" d="M 294.5 300 L 297 300.5 L 294.5 301 L 294.5 300 Z " /><path fill="rgb(190,154,154)" stroke="rgb(190,154,154)" stroke-width="1" opacity="1" d="M 47.5 301 L 48 307.5 L 47 307.5 L 47.5 301 Z " /><path fill="rgb(190,154,154)" stroke="rgb(190,154,154)" stroke-width="1" opacity="1" d="M 283.5 302 L 286 302.5 L 283.5 303 L 283.5 302 Z " /><path fill="rgb(190,154,154)" stroke="rgb(190,154,154)" stroke-width="1" opacity="1" d="M 307.5 302 L 310 302.5 L 307.5 303 L 307.5 302 Z " /><path fill="rgb(190,154,154)" stroke="rgb(190,154,154)" stroke-width="1" opacity="1" d="M 272.5 304 L 275 304.5 L 272.5 305 L 272.5 304 Z " /><path fill="rgb(190,154,154)" stroke="rgb(190,154,154)" stroke-width="1" opacity="1" d="M 296.5 304 L 299 304.5 L 296.5 305 L 296.5 304 Z " /><path fill="rgb(190,154,154)" stroke="rgb(190,154,154)" stroke-width="1" opacity="1" d="M 290.5 305 L 293 305.5 L 290.5 306 L 290.5 305 Z " /><path fill="rgb(190,154,154)" stroke="rgb(190,154,154)" stroke-width="1" opacity="1" d="M 360.5 305 L 361 308.5 L 360 308.5 L 360.5 305 Z " /><path fill="rgb(190,154,154)" stroke="rgb(190,154,154)" stroke-width="1" opacity="1" d="M 279.5 307 L 282 307.5 L 279.5 308 L 279.5 307 Z " /><path fill="rgb(190,154,154)" stroke="rgb(190,154,154)" stroke-width="1" opacity="1" d="M 268.5 309 L 271 309.5 L 268.5 310 L 268.5 309 Z " /><path fill="rgb(190,154,154)" stroke="rgb(190,154,154)" stroke-width="1" opacity="1" d="M 329.5 309 L 330.5 311 L 329.5 309 Z " /><path fill="rgb(190,154,154)" stroke="rgb(190,154,154)" stroke-width="1" opacity="1" d="M 77.5 311 L 76.5 313 L 77.5 311 Z " /><path fill="rgb(190,154,154)" stroke="rgb(190,154,154)" stroke-width="1" opacity="1" d="M 50.5 312 L 51.5 314 L 50.5 312 Z " /><path fill="rgb(190,154,154)" stroke="rgb(190,154,154)" stroke-width="1" opacity="1" d="M 326.5 312 L 327.5 314 L 326.5 312 Z " /><path fill="rgb(190,154,154)" stroke="rgb(190,154,154)" stroke-width="1" opacity="1" d="M 331.5 312 L 332.5 314 L 331.5 312 Z " /><path fill="rgb(190,154,154)" stroke="rgb(190,154,154)" stroke-width="1" opacity="1" d="M 80.5 314 L 79.5 316 L 80.5 314 Z " /><path fill="rgb(190,154,154)" stroke="rgb(190,154,154)" stroke-width="1" opacity="1" d="M 74.5 315 L 72.5 318 L 74.5 315 Z " /><path fill="rgb(190,154,154)" stroke="rgb(190,154,154)" stroke-width="1" opacity="1" d="M 328.5 315 L 330.5 318 L 328.5 315 Z " /><path fill="rgb(190,154,154)" stroke="rgb(190,154,154)" stroke-width="1" opacity="1" d="M 54.5 316 L 56.5 319 L 54.5 316 Z " /><path fill="rgb(190,154,154)" stroke="rgb(190,154,154)" stroke-width="1" opacity="1" d="M 334.5 316 L 338.5 321 L 334.5 316 Z " /><path fill="rgb(190,154,154)" stroke="rgb(190,154,154)" stroke-width="1" opacity="1" d="M 77.5 318 L 72.5 324 L 77.5 318 Z " /><path fill="rgb(190,154,154)" stroke="rgb(190,154,154)" stroke-width="1" opacity="1" d="M 434.5 318 L 435.5 320 L 434.5 318 Z " /><path fill="rgb(190,154,154)" stroke="rgb(190,154,154)" stroke-width="1" opacity="1" d="M 70.5 319 L 68.5 322 L 70.5 319 Z " /><path fill="rgb(190,154,154)" stroke="rgb(190,154,154)" stroke-width="1" opacity="1" d="M 332.5 320 L 334.5 323 L 332.5 320 Z " /><path fill="rgb(190,154,154)" stroke="rgb(190,154,154)" stroke-width="1" opacity="1" d="M 437.5 320 L 438.5 322 L 437.5 320 Z " /><path fill="rgb(190,154,154)" stroke="rgb(190,154,154)" stroke-width="1" opacity="1" d="M 64.5 322 L 67 322.5 L 64.5 323 L 64.5 322 Z " /><path fill="rgb(190,154,154)" stroke="rgb(190,154,154)" stroke-width="1" opacity="1" d="M 441.5 323 L 446.5 329 L 441.5 323 Z " /><path fill="rgb(190,154,154)" stroke="rgb(190,154,154)" stroke-width="1" opacity="1" d="M 337.5 325 L 338 392 L 336 391.5 L 337 390.5 L 337.5 325 Z " /><path fill="rgb(190,154,154)" stroke="rgb(190,154,154)" stroke-width="1" opacity="1" d="M 449.5 332 L 450.5 334 L 449.5 332 Z " /><path fill="rgb(190,154,154)" stroke="rgb(190,154,154)" stroke-width="1" opacity="1" d="M 453.5 338 L 454.5 340 L 453.5 338 Z " /><path fill="rgb(190,154,154)" stroke="rgb(190,154,154)" stroke-width="1" opacity="1" d="M 411.5 348 L 412 350.5 L 411 350.5 L 411.5 348 Z " /><path fill="rgb(190,154,154)" stroke="rgb(190,154,154)" stroke-width="1" opacity="1" d="M 412.5 359 L 413 361.5 L 412 361.5 L 412.5 359 Z " /><path fill="rgb(190,154,154)" stroke="rgb(190,154,154)" stroke-width="1" opacity="1" d="M 463.5 365 L 464 367.5 L 463 367.5 L 463.5 365 Z " /><path fill="rgb(190,154,154)" stroke="rgb(190,154,154)" stroke-width="1" opacity="1" d="M 411.5 369 L 412 371.5 L 411 371.5 L 411.5 369 Z " /><path fill="rgb(190,154,154)" stroke="rgb(190,154,154)" stroke-width="1" opacity="1" d="M 464.5 375 L 465 380.5 L 464 380.5 L 464.5 375 Z " /><path fill="rgb(190,154,154)" stroke="rgb(190,154,154)" stroke-width="1" opacity="1" d="M 463.5 387 L 464 390.5 L 463 390.5 L 463.5 387 Z " /><path fill="rgb(190,154,154)" stroke="rgb(190,154,154)" stroke-width="1" opacity="1" d="M 331.5 392 L 334 392.5 L 331.5 393 L 331.5 392 Z " /><path fill="rgb(190,154,154)" stroke="rgb(190,154,154)" stroke-width="1" opacity="1" d="M 462.5 393 L 463 395.5 L 462 395.5 L 462.5 393 Z " /><path fill="rgb(190,154,154)" stroke="rgb(190,154,154)" stroke-width="1" opacity="1" d="M 85.5 394 L 88 394.5 L 85.5 395 L 85.5 394 Z " /><path fill="rgb(190,154,154)" stroke="rgb(190,154,154)" stroke-width="1" opacity="1" d="M 90.5 395 L 93 395.5 L 90.5 396 L 90.5 395 Z " /><path fill="rgb(190,154,154)" stroke="rgb(190,154,154)" stroke-width="1" opacity="1" d="M 305.5 397 L 308 397.5 L 305.5 398 L 305.5 397 Z " /><path fill="rgb(190,154,154)" stroke="rgb(190,154,154)" stroke-width="1" opacity="1" d="M 84.5 398 L 87 398.5 L 84.5 399 L 84.5 398 Z " /><path fill="rgb(190,154,154)" stroke="rgb(190,154,154)" stroke-width="1" opacity="1" d="M 106.5 398 L 109 398.5 L 106.5 399 L 106.5 398 Z " /><path fill="rgb(190,154,154)" stroke="rgb(190,154,154)" stroke-width="1" opacity="1" d="M 300.5 398 L 303 398.5 L 300.5 399 L 300.5 398 Z " /><path fill="rgb(190,154,154)" stroke="rgb(190,154,154)" stroke-width="1" opacity="1" d="M 322.5 398 L 325 398.5 L 322.5 399 L 322.5 398 Z " /><path fill="rgb(190,154,154)" stroke="rgb(190,154,154)" stroke-width="1" opacity="1" d="M 89.5 399 L 92 399.5 L 89.5 400 L 89.5 399 Z " /><path fill="rgb(190,154,154)" stroke="rgb(190,154,154)" stroke-width="1" opacity="1" d="M 111.5 399 L 114 399.5 L 111.5 400 L 111.5 399 Z " /><path fill="rgb(190,154,154)" stroke="rgb(190,154,154)" stroke-width="1" opacity="1" d="M 306.5 401 L 309 401.5 L 306.5 402 L 306.5 401 Z " /><path fill="rgb(190,154,154)" stroke="rgb(190,154,154)" stroke-width="1" opacity="1" d="M 279.5 402 L 282 402.5 L 279.5 403 L 279.5 402 Z " /><path fill="rgb(190,154,154)" stroke="rgb(190,154,154)" stroke-width="1" opacity="1" d="M 301.5 402 L 304 402.5 L 301.5 403 L 301.5 402 Z " /><path fill="rgb(190,154,154)" stroke="rgb(190,154,154)" stroke-width="1" opacity="1" d="M 110.5 403 L 113 403.5 L 110.5 404 L 110.5 403 Z " /><path fill="rgb(190,154,154)" stroke="rgb(190,154,154)" stroke-width="1" opacity="1" d="M 132.5 403 L 135 403.5 L 132.5 404 L 132.5 403 Z " /><path fill="rgb(190,154,154)" stroke="rgb(190,154,154)" stroke-width="1" opacity="1" d="M 274.5 403 L 277 403.5 L 274.5 404 L 274.5 403 Z " /><path fill="rgb(190,154,154)" stroke="rgb(190,154,154)" stroke-width="1" opacity="1" d="M 115.5 404 L 118 404.5 L 115.5 405 L 115.5 404 Z " /><path fill="rgb(190,154,154)" stroke="rgb(190,154,154)" stroke-width="1" opacity="1" d="M 137.5 404 L 140 404.5 L 137.5 405 L 137.5 404 Z " /><path fill="rgb(190,154,154)" stroke="rgb(190,154,154)" stroke-width="1" opacity="1" d="M 399.5 404 L 398.5 406 L 399.5 404 Z " /><path fill="rgb(190,154,154)" stroke="rgb(190,154,154)" stroke-width="1" opacity="1" d="M 280.5 406 L 283 406.5 L 280.5 407 L 280.5 406 Z " /><path fill="rgb(190,154,154)" stroke="rgb(190,154,154)" stroke-width="1" opacity="1" d="M 253.5 407 L 256 407.5 L 253.5 408 L 253.5 407 Z " /><path fill="rgb(190,154,154)" stroke="rgb(190,154,154)" stroke-width="1" opacity="1" d="M 275.5 407 L 278 407.5 L 275.5 408 L 275.5 407 Z " /><path fill="rgb(190,154,154)" stroke="rgb(190,154,154)" stroke-width="1" opacity="1" d="M 397.5 407 L 396.5 409 L 397.5 407 Z " /><path fill="rgb(190,154,154)" stroke="rgb(190,154,154)" stroke-width="1" opacity="1" d="M 136.5 408 L 139 408.5 L 136.5 409 L 136.5 408 Z " /><path fill="rgb(190,154,154)" stroke="rgb(190,154,154)" stroke-width="1" opacity="1" d="M 158.5 408 L 161 408.5 L 158.5 409 L 158.5 408 Z " /><path fill="rgb(190,154,154)" stroke="rgb(190,154,154)" stroke-width="1" opacity="1" d="M 248.5 408 L 251 408.5 L 248.5 409 L 248.5 408 Z " /><path fill="rgb(190,154,154)" stroke="rgb(190,154,154)" stroke-width="1" opacity="1" d="M 141.5 409 L 144 409.5 L 141.5 410 L 141.5 409 Z " /><path fill="rgb(190,154,154)" stroke="rgb(190,154,154)" stroke-width="1" opacity="1" d="M 163.5 409 L 166 409.5 L 163.5 410 L 163.5 409 Z " /><path fill="rgb(190,154,154)" stroke="rgb(190,154,154)" stroke-width="1" opacity="1" d="M 254.5 411 L 257 411.5 L 254.5 412 L 254.5 411 Z " /><path fill="rgb(190,154,154)" stroke="rgb(190,154,154)" stroke-width="1" opacity="1" d="M 227.5 412 L 230 412.5 L 227.5 413 L 227.5 412 Z " /><path fill="rgb(190,154,154)" stroke="rgb(190,154,154)" stroke-width="1" opacity="1" d="M 393.5 412 L 387.5 419 L 393.5 412 Z " /><path fill="rgb(190,154,154)" stroke="rgb(190,154,154)" stroke-width="1" opacity="1" d="M 162.5 413 L 165 413.5 L 162.5 414 L 162.5 413 Z " /><path fill="rgb(190,154,154)" stroke="rgb(190,154,154)" stroke-width="1" opacity="1" d="M 167.5 414 L 170 414.5 L 167.5 415 L 167.5 414 Z " /><path fill="rgb(190,154,154)" stroke="rgb(190,154,154)" stroke-width="1" opacity="1" d="M 233.5 415 L 236 415.5 L 233.5 416 L 233.5 415 Z " /><path fill="rgb(190,154,154)" stroke="rgb(190,154,154)" stroke-width="1" opacity="1" d="M 228.5 416 L 231 416.5 L 228.5 417 L 228.5 416 Z " /><path fill="rgb(190,154,154)" stroke="rgb(190,154,154)" stroke-width="1" opacity="1" d="M 182.5 417 L 226 417.5 L 182.5 418 L 182.5 417 Z " /><path fill="rgb(190,154,154)" stroke="rgb(190,154,154)" stroke-width="1" opacity="1" d="M 452.5 419 L 451.5 421 L 452.5 419 Z " /><path fill="rgb(190,154,154)" stroke="rgb(190,154,154)" stroke-width="1" opacity="1" d="M 383.5 421 L 382.5 423 L 383.5 421 Z " /><path fill="rgb(190,154,154)" stroke="rgb(190,154,154)" stroke-width="1" opacity="1" d="M 450.5 422 L 449.5 424 L 450.5 422 Z " /><path fill="rgb(190,154,154)" stroke="rgb(190,154,154)" stroke-width="1" opacity="1" d="M 448.5 425 L 447.5 427 L 448.5 425 Z " /><path fill="rgb(190,154,154)" stroke="rgb(190,154,154)" stroke-width="1" opacity="1" d="M 445.5 429 L 443.5 432 L 445.5 429 Z " /><path fill="rgb(190,154,154)" stroke="rgb(190,154,154)" stroke-width="1" opacity="1" d="M 352.5 434 L 355 434.5 L 352.5 435 L 352.5 434 Z " /><path fill="rgb(190,154,154)" stroke="rgb(190,154,154)" stroke-width="1" opacity="1" d="M 337.5 435 L 348 435.5 L 337.5 436 L 337.5 435 Z " /><path fill="rgb(190,154,154)" stroke="rgb(190,154,154)" stroke-width="1" opacity="1" d="M 315.5 439 L 314.5 441 L 315.5 439 Z " /><path fill="rgb(190,154,154)" stroke="rgb(190,154,154)" stroke-width="1" opacity="1" d="M 94.5 442 L 95.5 444 L 94.5 442 Z " /><path fill="rgb(190,154,154)" stroke="rgb(190,154,154)" stroke-width="1" opacity="1" d="M 431.5 443 L 429.5 446 L 431.5 443 Z " /><path fill="rgb(190,154,154)" stroke="rgb(190,154,154)" stroke-width="1" opacity="1" d="M 426.5 447 L 425.5 449 L 426.5 447 Z " /><path fill="rgb(190,154,154)" stroke="rgb(190,154,154)" stroke-width="1" opacity="1" d="M 314.5 449 L 313.5 451 L 314.5 449 Z " /><path fill="rgb(190,154,154)" stroke="rgb(190,154,154)" stroke-width="1" opacity="1" d="M 423.5 449 L 422.5 451 L 423.5 449 Z " /><path fill="rgb(190,154,154)" stroke="rgb(190,154,154)" stroke-width="1" opacity="1" d="M 100.5 451 L 101.5 453 L 100.5 451 Z " /><path fill="rgb(190,154,154)" stroke="rgb(190,154,154)" stroke-width="1" opacity="1" d="M 420.5 451 L 419.5 453 L 420.5 451 Z " /><path fill="rgb(190,154,154)" stroke="rgb(190,154,154)" stroke-width="1" opacity="1" d="M 286.5 452 L 285.5 454 L 286.5 452 Z " /><path fill="rgb(190,154,154)" stroke="rgb(190,154,154)" stroke-width="1" opacity="1" d="M 306.5 453 L 304.5 456 L 306.5 453 Z " /><path fill="rgb(190,154,154)" stroke="rgb(190,154,154)" stroke-width="1" opacity="1" d="M 119.5 454 L 120 457.5 L 119 457.5 L 119.5 454 Z " /><path fill="rgb(190,154,154)" stroke="rgb(190,154,154)" stroke-width="1" opacity="1" d="M 123.5 454 L 124 458.5 L 123 458.5 L 123.5 454 Z " /><path fill="rgb(190,154,154)" stroke="rgb(190,154,154)" stroke-width="1" opacity="1" d="M 163.5 454 L 165 454.5 L 163 455 L 162.5 464 L 162 455.5 L 163.5 454 Z " /><path fill="rgb(190,154,154)" stroke="rgb(190,154,154)" stroke-width="1" opacity="1" d="M 415.5 454 L 414.5 456 L 415.5 454 Z " /><path fill="rgb(190,154,154)" stroke="rgb(190,154,154)" stroke-width="1" opacity="1" d="M 103.5 455 L 105.5 458 L 103.5 455 Z " /><path fill="rgb(190,154,154)" stroke="rgb(190,154,154)" stroke-width="1" opacity="1" d="M 166.5 456 L 167 462.5 L 166 462.5 L 166.5 456 Z " /><path fill="rgb(190,154,154)" stroke="rgb(190,154,154)" stroke-width="1" opacity="1" d="M 243.5 456 L 247 457.5 L 246.5 461 L 246 457 Q 242.7 457.7 243.5 456 Z " /><path fill="rgb(190,154,154)" stroke="rgb(190,154,154)" stroke-width="1" opacity="1" d="M 308.5 457 L 307.5 459 L 308.5 457 Z " /><path fill="rgb(190,154,154)" stroke="rgb(190,154,154)" stroke-width="1" opacity="1" d="M 301.5 459 L 297.5 464 L 301.5 459 Z " /><path fill="rgb(190,154,154)" stroke="rgb(190,154,154)" stroke-width="1" opacity="1" d="M 289.5 460 L 290 462.5 L 289 462.5 L 289.5 460 Z " /><path fill="rgb(190,154,154)" stroke="rgb(190,154,154)" stroke-width="1" opacity="1" d="M 285.5 461 L 286 463.5 L 285 463.5 L 285.5 461 Z " /><path fill="rgb(190,154,154)" stroke="rgb(190,154,154)" stroke-width="1" opacity="1" d="M 241.5 463 L 242 465.5 L 241 465.5 L 241.5 463 Z " /><path fill="rgb(190,154,154)" stroke="rgb(190,154,154)" stroke-width="1" opacity="1" d="M 245.5 464 L 246 466.5 L 245 466.5 L 245.5 464 Z " /><path fill="rgb(190,154,154)" stroke="rgb(190,154,154)" stroke-width="1" opacity="1" d="M 113.5 465 L 114.5 467 L 113.5 465 Z " /><path fill="rgb(190,154,154)" stroke="rgb(190,154,154)" stroke-width="1" opacity="1" d="M 117.5 466 L 116.5 468 L 117.5 466 Z " /><path fill="rgb(190,154,154)" stroke="rgb(190,154,154)" stroke-width="1" opacity="1" d="M 318.5 468 L 321 468.5 L 318.5 469 L 318.5 468 Z " /><path fill="rgb(190,154,154)" stroke="rgb(190,154,154)" stroke-width="1" opacity="1" d="M 376.5 468 L 379 468.5 L 376.5 469 L 376.5 468 Z " /><path fill="rgb(190,154,154)" stroke="rgb(190,154,154)" stroke-width="1" opacity="1" d="M 167.5 469 L 168 471.5 L 167 471.5 L 167.5 469 Z " /><path fill="rgb(190,154,154)" stroke="rgb(190,154,154)" stroke-width="1" opacity="1" d="M 325.5 469 L 328 469.5 L 325.5 470 L 325.5 469 Z " /><path fill="rgb(190,154,154)" stroke="rgb(190,154,154)" stroke-width="1" opacity="1" d="M 370.5 469 L 373 469.5 L 370.5 470 L 370.5 469 Z " /><path fill="rgb(190,154,154)" stroke="rgb(190,154,154)" stroke-width="1" opacity="1" d="M 163.5 470 L 164 472.5 L 163 472.5 L 163.5 470 Z " /><path fill="rgb(190,154,154)" stroke="rgb(190,154,154)" stroke-width="1" opacity="1" d="M 240.5 470 L 241 472.5 L 239.5 474 L 168.5 474 L 168.5 473 L 239.5 473 L 240.5 470 Z " /><path fill="rgb(190,154,154)" stroke="rgb(190,154,154)" stroke-width="1" opacity="1" d="M 333.5 470 L 341 470.5 L 333.5 471 L 333.5 470 Z " /><path fill="rgb(190,154,154)" stroke="rgb(190,154,154)" stroke-width="1" opacity="1" d="M 360.5 470 L 366 470.5 L 360.5 471 L 360.5 470 Z " /><path fill="rgb(190,154,154)" stroke="rgb(190,154,154)" stroke-width="1" opacity="1" d="M 244.5 471 L 245 474.5 L 244 474.5 L 244.5 471 Z " /><path fill="rgb(190,154,154)" stroke="rgb(190,154,154)" stroke-width="1" opacity="1" d="M 164.5 476 L 165 480.5 L 164 480.5 L 164.5 476 Z " /><path fill="rgb(190,154,154)" stroke="rgb(190,154,154)" stroke-width="1" opacity="1" d="M 116.5 479 L 117 481.5 L 116 481.5 L 116.5 479 Z " /><path fill="rgb(190,154,154)" stroke="rgb(190,154,154)" stroke-width="1" opacity="1" d="M 292.5 483 L 293 488.5 L 292 488.5 L 292.5 483 Z " /><path fill="rgb(190,154,154)" stroke="rgb(190,154,154)" stroke-width="1" opacity="1" d="M 164.5 487 L 165 489.5 L 164 489.5 L 164.5 487 Z " /><path fill="rgb(190,154,154)" stroke="rgb(190,154,154)" stroke-width="1" opacity="1" d="M 116.5 491 L 117 493.5 L 116 493.5 L 116.5 491 Z " /><path fill="rgb(190,154,154)" stroke="rgb(190,154,154)" stroke-width="1" opacity="1" d="M 118.5 495 L 119.5 497 L 118.5 495 Z " /><path fill="rgb(190,154,154)" stroke="rgb(190,154,154)" stroke-width="1" opacity="1" d="M 247.5 495 L 248.5 497 L 247.5 495 Z " /><path fill="rgb(190,154,154)" stroke="rgb(190,154,154)" stroke-width="1" opacity="1" d="M 130.5 499 L 134 499.5 L 130.5 500 L 130.5 499 Z " /><path fill="rgb(190,154,154)" stroke="rgb(190,154,154)" stroke-width="1" opacity="1" d="M 145.5 499 L 149 499.5 L 145.5 500 L 145.5 499 Z " /><path fill="rgb(190,154,154)" stroke="rgb(190,154,154)" stroke-width="1" opacity="1" d="M 259.5 499 L 264 499.5 L 259.5 500 L 259.5 499 Z " /><path fill="rgb(190,154,154)" stroke="rgb(190,154,154)" stroke-width="1" opacity="1" d="M 274.5 499 L 279 499.5 L 274.5 500 L 274.5 499 Z " /><path fill="rgb(254,165,164)" stroke="rgb(254,165,164)" stroke-width="1" opacity="1" d="M 186.5 241 L 223 241.5 L 186.5 242 L 186.5 241 Z " /><path fill="rgb(254,165,164)" stroke="rgb(254,165,164)" stroke-width="1" opacity="1" d="M 227.5 241 L 228 411.5 L 227 411.5 L 227.5 241 Z " /><path fill="rgb(254,165,164)" stroke="rgb(254,165,164)" stroke-width="1" opacity="1" d="M 83.5 279 L 84.5 281 L 83.5 279 Z " /><path fill="rgb(254,165,164)" stroke="rgb(254,165,164)" stroke-width="1" opacity="1" d="M 323.5 280 L 320.5 284 L 323.5 280 Z " /><path fill="rgb(254,165,164)" stroke="rgb(254,165,164)" stroke-width="1" opacity="1" d="M 264.5 281 L 265.5 283 L 264.5 281 Z " /><path fill="rgb(254,165,164)" stroke="rgb(254,165,164)" stroke-width="1" opacity="1" d="M 312.5 287 L 311.5 289 L 312.5 287 Z " /><path fill="rgb(254,165,164)" stroke="rgb(254,165,164)" stroke-width="1" opacity="1" d="M 79.5 316 L 78.5 318 L 79.5 316 Z " /><path fill="rgb(254,165,164)" stroke="rgb(254,165,164)" stroke-width="1" opacity="1" d="M 330.5 318 L 331.5 320 L 330.5 318 Z " /><path fill="rgb(254,165,164)" stroke="rgb(254,165,164)" stroke-width="1" opacity="1" d="M 335.5 323 L 336.5 325 L 335.5 323 Z " /><path fill="rgb(219,219,218)" stroke="rgb(219,219,218)" stroke-width="1" opacity="1" d="M 107.5 13 L 108.5 15 L 107.5 13 Z " /><path fill="rgb(219,219,218)" stroke="rgb(219,219,218)" stroke-width="1" opacity="1" d="M 299.5 14 L 298.5 16 L 299.5 14 Z " /><path fill="rgb(219,219,218)" stroke="rgb(219,219,218)" stroke-width="1" opacity="1" d="M 306.5 15 L 307 68.5 L 306 68.5 L 306.5 15 Z " /><path fill="rgb(219,219,218)" stroke="rgb(219,219,218)" stroke-width="1" opacity="1" d="M 112.5 17 L 113.5 19 L 112.5 17 Z " /><path fill="rgb(219,219,218)" stroke="rgb(219,219,218)" stroke-width="1" opacity="1" d="M 294.5 18 L 293.5 20 L 294.5 18 Z " /><path fill="rgb(219,219,218)" stroke="rgb(219,219,218)" stroke-width="1" opacity="1" d="M 117.5 21 L 118.5 23 L 117.5 21 Z " /><path fill="rgb(219,219,218)" stroke="rgb(219,219,218)" stroke-width="1" opacity="1" d="M 289.5 22 L 288.5 24 L 289.5 22 Z " /><path fill="rgb(219,219,218)" stroke="rgb(219,219,218)" stroke-width="1" opacity="1" d="M 122.5 25 L 123.5 27 L 122.5 25 Z " /><path fill="rgb(219,219,218)" stroke="rgb(219,219,218)" stroke-width="1" opacity="1" d="M 284.5 26 L 283.5 28 L 284.5 26 Z " /><path fill="rgb(219,219,218)" stroke="rgb(219,219,218)" stroke-width="1" opacity="1" d="M 182.5 27 L 185 27.5 L 182.5 28 L 182.5 27 Z " /><path fill="rgb(219,219,218)" stroke="rgb(219,219,218)" stroke-width="1" opacity="1" d="M 127.5 29 L 128.5 31 L 127.5 29 Z " /><path fill="rgb(219,219,218)" stroke="rgb(219,219,218)" stroke-width="1" opacity="1" d="M 279.5 30 L 278.5 32 L 279.5 30 Z " /><path fill="rgb(219,219,218)" stroke="rgb(219,219,218)" stroke-width="1" opacity="1" d="M 132.5 33 L 133.5 35 L 132.5 33 Z " /><path fill="rgb(219,219,218)" stroke="rgb(219,219,218)" stroke-width="1" opacity="1" d="M 273.5 35 L 272.5 37 L 273.5 35 Z " /><path fill="rgb(219,219,218)" stroke="rgb(219,219,218)" stroke-width="1" opacity="1" d="M 151.5 81 L 150.5 83 L 151.5 81 Z " /><path fill="rgb(219,219,218)" stroke="rgb(219,219,218)" stroke-width="1" opacity="1" d="M 162.5 85 L 163 87.5 L 162 87.5 L 162.5 85 Z " /><path fill="rgb(219,219,218)" stroke="rgb(219,219,218)" stroke-width="1" opacity="1" d="M 161.5 90 L 159.5 93 L 161.5 90 Z " /><path fill="rgb(219,219,218)" stroke="rgb(219,219,218)" stroke-width="1" opacity="1" d="M 251.5 93 L 254 93.5 L 251.5 94 L 251.5 93 Z " /><path fill="rgb(219,219,218)" stroke="rgb(219,219,218)" stroke-width="1" opacity="1" d="M 95.5 109 L 96 111.5 L 95 111.5 L 95.5 109 Z " /><path fill="rgb(219,219,218)" stroke="rgb(219,219,218)" stroke-width="1" opacity="1" d="M 195.5 109 L 194.5 111 L 195.5 109 Z " /><path fill="rgb(219,219,218)" stroke="rgb(219,219,218)" stroke-width="1" opacity="1" d="M 95.5 122 L 96 124.5 L 95 124.5 L 95.5 122 Z " /><path fill="rgb(219,219,218)" stroke="rgb(219,219,218)" stroke-width="1" opacity="1" d="M 197.5 124 L 199.5 127 L 197.5 124 Z " /><path fill="rgb(219,219,218)" stroke="rgb(219,219,218)" stroke-width="1" opacity="1" d="M 207.5 127 L 207 128.5 L 206.5 135 L 206 128.5 L 207.5 127 Z " /><path fill="rgb(219,219,218)" stroke="rgb(219,219,218)" stroke-width="1" opacity="1" d="M 203.5 142 L 206 143.5 L 204.5 143 L 201.5 145 L 203.5 142 Z " /><path fill="rgb(219,219,218)" stroke="rgb(219,219,218)" stroke-width="1" opacity="1" d="M 239.5 151 L 240.5 153 L 239.5 151 Z " /><path fill="rgb(219,219,218)" stroke="rgb(219,219,218)" stroke-width="1" opacity="1" d="M 135.5 155 L 136.5 157 L 135.5 155 Z " /><path fill="rgb(219,219,218)" stroke="rgb(219,219,218)" stroke-width="1" opacity="1" d="M 109.5 162 L 110.5 164 L 109.5 162 Z " /><path fill="rgb(219,219,218)" stroke="rgb(219,219,218)" stroke-width="1" opacity="1" d="M 112.5 166 L 113.5 168 L 112.5 166 Z " /><path fill="rgb(219,219,218)" stroke="rgb(219,219,218)" stroke-width="1" opacity="1" d="M 292.5 170 L 287.5 176 L 292.5 170 Z " /><path fill="rgb(219,219,218)" stroke="rgb(219,219,218)" stroke-width="1" opacity="1" d="M 282.5 179 L 281.5 181 L 282.5 179 Z " /><path fill="rgb(219,219,218)" stroke="rgb(219,219,218)" stroke-width="1" opacity="1" d="M 131.5 183 L 132.5 185 L 131.5 183 Z " /><path fill="rgb(219,219,218)" stroke="rgb(219,219,218)" stroke-width="1" opacity="1" d="M 124.5 184 L 123.5 186 L 124.5 184 Z " /><path fill="rgb(219,219,218)" stroke="rgb(219,219,218)" stroke-width="1" opacity="1" d="M 283.5 184 L 282.5 186 L 283.5 184 Z " /><path fill="rgb(219,219,218)" stroke="rgb(219,219,218)" stroke-width="1" opacity="1" d="M 53.5 284 L 52.5 286 L 53.5 284 Z " /><path fill="rgb(219,219,218)" stroke="rgb(219,219,218)" stroke-width="1" opacity="1" d="M 357.5 312 L 352.5 318 L 357.5 312 Z " /><path fill="rgb(219,219,218)" stroke="rgb(219,219,218)" stroke-width="1" opacity="1" d="M 52.5 314 L 53.5 316 L 52.5 314 Z " /><path fill="rgb(219,219,218)" stroke="rgb(219,219,218)" stroke-width="1" opacity="1" d="M 333.5 314 L 334.5 316 L 333.5 314 Z " /><path fill="rgb(219,219,218)" stroke="rgb(219,219,218)" stroke-width="1" opacity="1" d="M 423.5 315 L 433.5 318 L 449 331.5 Q 456.8 341.3 461 354.5 L 464 368.5 L 464 386.5 Q 457 423.5 432.5 443 Q 415.8 457.3 392.5 465 L 369.5 470 L 341.5 471 L 340.5 470 L 321.5 469 L 303 465 L 306.5 460 L 304.5 464 L 315.5 466 L 336.5 466 L 339 463.5 L 342 455.5 L 344 439.5 L 343 436 L 359.5 434 L 363.5 432 L 363 433.5 L 364 446.5 L 361 463 L 379.5 458 L 402 447 L 400 433.5 L 390 416.5 Q 397.8 410.4 401 401 L 404 402.5 L 413 414.5 L 420.5 431 Q 429.8 422.8 436 411.5 Q 442.3 402.3 444 388.5 Q 433.2 374.1 412 371 L 413 359.5 L 412 358.5 L 412 351 Q 432.8 352.5 445.5 363 L 446 357.5 Q 441.2 330.8 424.5 316 L 423.5 315 Z " /><path fill="rgb(219,219,218)" stroke="rgb(219,219,218)" stroke-width="1" opacity="1" d="M 79.5 398 L 89 399 Q 97.2 429.1 118.5 447 L 131.5 453 L 163 454.5 L 162 455.5 L 162 463.5 L 163 464.5 L 165 486.5 L 164 491.5 L 160.5 496 L 151.5 499 L 134.5 500 L 123.5 498 L 117 495 Q 115.3 490.5 116 482.5 Q 117.8 471.8 123 464.5 L 124 454.5 Q 121.5 449.5 119 454.5 Q 120.1 463.1 116.5 467 L 106 458.5 Q 85.3 434.8 79.5 398 Z " /><path fill="rgb(219,219,218)" stroke="rgb(219,219,218)" stroke-width="1" opacity="1" d="M 325.5 398 Q 330.3 396.3 329 400.5 L 321 427.5 L 316 438.5 Q 307.7 454.7 294.5 466 L 291 467 L 289 459.5 L 289 453 L 286.5 452 L 285 453.5 L 285 463.5 L 292 480.5 L 292 492.5 L 289.5 496 L 281.5 499 L 264.5 500 L 263.5 499 L 252.5 498 L 246 495 Q 242.2 488.7 244 475.5 L 245 474.5 L 245 467.5 L 247 457.5 L 243 456 L 240 473 L 168.5 473 L 168 469.5 L 167 468.5 L 167 456.5 L 165 454.5 L 270.5 454 Q 272 451.5 277.5 453 L 288.5 448 L 297 440.5 Q 312.7 424 319 399 L 325.5 398 Z " /><path fill="rgb(219,219,218)" stroke="rgb(219,219,218)" stroke-width="1" opacity="1" d="M 386.5 419 L 385.5 421 L 386.5 419 Z " /><path fill="rgb(219,219,218)" stroke="rgb(219,219,218)" stroke-width="1" opacity="1" d="M 313.5 451 L 312.5 453 L 313.5 451 Z " /><path fill="rgb(219,219,218)" stroke="rgb(219,219,218)" stroke-width="1" opacity="1" d="M 310.5 455 L 309.5 457 L 310.5 455 Z " /><path fill="rgb(255,165,164)" stroke="rgb(255,165,164)" stroke-width="1" opacity="1" d="M 71 220 L 181 241 L 181 411.5 L 177.5 412 L 71 391 L 71 325.5 Q 80.6 318.1 86 306.5 L 90 295.5 L 90 286.5 L 83.5 279 L 71 272.5 L 71 220 Z " /><path fill="rgb(255,165,164)" stroke="rgb(255,165,164)" stroke-width="1" opacity="1" d="M 336.5 220 L 337 274 Q 326.4 276.2 320 283.5 Q 316.8 286.8 318 294.5 Q 323.4 314.1 337 325.5 L 337 391 L 228 412 L 228 241.5 L 231.5 241 L 336.5 220 Z M 307 270 L 301 272 L 269 277 L 264 280 L 266 283 L 312 275 L 313 272 Q 312 269 307 270 Z M 306 284 L 300 286 L 268 291 L 264 294 L 266 296 L 279 295 L 307 289 L 312 289 L 313 288 L 313 284 L 306 284 Z M 311 297 L 267 305 L 264 308 L 266 310 L 272 310 L 312 302 L 313 302 L 313 298 L 311 297 Z " /><path fill="rgb(255,165,164)" stroke="rgb(255,165,164)" stroke-width="1" opacity="1" d="M 186 242 L 222.5 242 L 223 242.5 L 223 413 L 186.5 413 L 186 412.5 L 186 242 Z " /></svg>