<svg width="512" height="512" version="1.1" xmlns="http://www.w3.org/2000/svg" desc="Created with imagetracer.js version 1.2.6" ><path fill="rgb(0,0,0)" stroke="rgb(0,0,0)" stroke-width="1" opacity="0" d="M 0 0 L 512 0 L 512 512 L 0 512 L 0 0 Z M 89 10 L 84 17 L 84 73 L 83 74 L 80 98 L 79 99 L 79 107 L 78 108 L 78 128 L 83 149 L 92 166 L 103 179 L 107 182 L 90 215 Q 80 237 72 263 L 64 297 L 61 324 L 60 325 L 60 335 L 59 336 L 59 376 L 60 377 L 60 387 L 64 409 L 71 431 L 76 441 Q 82 453 92 462 Q 91 464 94 463 L 95 466 L 101 469 L 99 478 Q 97 488 100 495 L 104 498 L 115 502 L 138 502 L 149 499 Q 154 496 156 489 L 156 477 L 157 476 L 226 476 L 225 481 Q 227 484 226 491 L 228 495 L 236 500 L 244 502 L 266 502 L 275 500 L 280 497 L 283 488 Q 283 476 280 469 L 284 467 L 307 472 L 325 473 L 326 474 L 355 473 L 379 468 L 404 457 L 420 445 L 423 443 Q 435 432 443 418 L 451 398 L 453 387 L 453 367 L 451 356 Q 446 338 436 327 Q 427 314 411 310 Q 399 309 394 314 L 389 325 L 389 335 L 393 358 L 392 372 L 388 387 Q 383 399 375 409 Q 367 418 355 424 L 339 429 L 330 429 L 329 430 Q 325 427 317 429 L 311 427 L 316 414 L 320 396 L 321 381 L 322 380 L 322 364 L 322 362 L 323 360 L 322 356 L 321 321 L 320 320 L 317 295 L 312 273 L 297 228 L 282 196 L 274 183 Q 289 170 297 152 L 303 131 L 303 121 L 304 118 L 303 117 L 302 96 L 297 72 L 297 16 L 295 11 L 293 10 L 286 10 L 257 34 L 253 34 L 231 27 L 220 26 L 219 25 L 211 25 L 210 24 L 171 24 L 170 25 L 151 27 L 129 34 Q 124 35 123 32 L 98 11 L 89 10 Z " /><path fill="rgb(226,201,179)" stroke="rgb(226,201,179)" stroke-width="1" opacity="1" d="M 90.5 14 L 89.5 16 L 90.5 14 Z " /><path fill="rgb(226,201,179)" stroke="rgb(226,201,179)" stroke-width="1" opacity="1" d="M 287.5 14 L 286.5 16 L 287.5 14 Z " /><path fill="rgb(226,201,179)" stroke="rgb(226,201,179)" stroke-width="1" opacity="1" d="M 96.5 16 L 98.5 19 L 96.5 16 Z " /><path fill="rgb(226,201,179)" stroke="rgb(226,201,179)" stroke-width="1" opacity="1" d="M 292.5 17 L 293 71.5 L 292 71.5 L 292.5 17 Z " /><path fill="rgb(226,201,179)" stroke="rgb(226,201,179)" stroke-width="1" opacity="1" d="M 282.5 18 L 281.5 20 L 282.5 18 Z " /><path fill="rgb(226,201,179)" stroke="rgb(226,201,179)" stroke-width="1" opacity="1" d="M 101.5 20 L 103.5 23 L 101.5 20 Z " /><path fill="rgb(226,201,179)" stroke="rgb(226,201,179)" stroke-width="1" opacity="1" d="M 277.5 22 L 276.5 24 L 277.5 22 Z " /><path fill="rgb(226,201,179)" stroke="rgb(226,201,179)" stroke-width="1" opacity="1" d="M 106.5 24 L 108.5 27 L 106.5 24 Z " /><path fill="rgb(226,201,179)" stroke="rgb(226,201,179)" stroke-width="1" opacity="1" d="M 272.5 26 L 271.5 28 L 272.5 26 Z " /><path fill="rgb(226,201,179)" stroke="rgb(226,201,179)" stroke-width="1" opacity="1" d="M 111.5 28 L 113.5 31 L 111.5 28 Z " /><path fill="rgb(226,201,179)" stroke="rgb(226,201,179)" stroke-width="1" opacity="1" d="M 176.5 28 L 206 28.5 L 176.5 29 L 176.5 28 Z " /><path fill="rgb(226,201,179)" stroke="rgb(226,201,179)" stroke-width="1" opacity="1" d="M 165.5 29 L 169 29.5 L 165.5 30 L 165.5 29 Z " /><path fill="rgb(226,201,179)" stroke="rgb(226,201,179)" stroke-width="1" opacity="1" d="M 212.5 29 L 216 29.5 L 212.5 30 L 212.5 29 Z " /><path fill="rgb(226,201,179)" stroke="rgb(226,201,179)" stroke-width="1" opacity="1" d="M 158.5 30 L 161 30.5 L 158.5 31 L 158.5 30 Z " /><path fill="rgb(226,201,179)" stroke="rgb(226,201,179)" stroke-width="1" opacity="1" d="M 220.5 30 L 223 30.5 L 220.5 31 L 220.5 30 Z " /><path fill="rgb(226,201,179)" stroke="rgb(226,201,179)" stroke-width="1" opacity="1" d="M 267.5 30 L 266.5 32 L 267.5 30 Z " /><path fill="rgb(226,201,179)" stroke="rgb(226,201,179)" stroke-width="1" opacity="1" d="M 153.5 31 L 156 31.5 L 153.5 32 L 153.5 31 Z " /><path fill="rgb(226,201,179)" stroke="rgb(226,201,179)" stroke-width="1" opacity="1" d="M 116.5 32 L 118.5 35 L 116.5 32 Z " /><path fill="rgb(226,201,179)" stroke="rgb(226,201,179)" stroke-width="1" opacity="1" d="M 262.5 34 L 261.5 36 L 262.5 34 Z " /><path fill="rgb(226,201,179)" stroke="rgb(226,201,179)" stroke-width="1" opacity="1" d="M 121.5 36 L 123.5 39 L 121.5 36 Z " /><path fill="rgb(226,201,179)" stroke="rgb(226,201,179)" stroke-width="1" opacity="1" d="M 86.5 81 L 87 83.5 L 86 83.5 L 86.5 81 Z " /><path fill="rgb(226,201,179)" stroke="rgb(226,201,179)" stroke-width="1" opacity="1" d="M 85.5 87 L 86 89.5 L 85 89.5 L 85.5 87 Z " /><path fill="rgb(226,201,179)" stroke="rgb(226,201,179)" stroke-width="1" opacity="1" d="M 140.5 90 L 138.5 93 L 140.5 90 Z " /><path fill="rgb(226,201,179)" stroke="rgb(226,201,179)" stroke-width="1" opacity="1" d="M 147.5 90 L 149.5 93 L 147.5 90 Z " /><path fill="rgb(226,201,179)" stroke="rgb(226,201,179)" stroke-width="1" opacity="1" d="M 236.5 90 L 234.5 93 L 236.5 90 Z " /><path fill="rgb(226,201,179)" stroke="rgb(226,201,179)" stroke-width="1" opacity="1" d="M 243.5 90 L 244.5 92 L 243.5 90 Z " /><path fill="rgb(226,201,179)" stroke="rgb(226,201,179)" stroke-width="1" opacity="1" d="M 296.5 92 L 297 94.5 L 296 94.5 L 296.5 92 Z " /><path fill="rgb(226,201,179)" stroke="rgb(226,201,179)" stroke-width="1" opacity="1" d="M 84.5 94 L 85 96.5 L 84 96.5 L 84.5 94 Z " /><path fill="rgb(226,201,179)" stroke="rgb(226,201,179)" stroke-width="1" opacity="1" d="M 137.5 94 L 138 97.5 L 137 97.5 L 137.5 94 Z " /><path fill="rgb(226,201,179)" stroke="rgb(226,201,179)" stroke-width="1" opacity="1" d="M 233.5 94 L 234 97.5 L 233 97.5 L 233.5 94 Z " /><path fill="rgb(226,201,179)" stroke="rgb(226,201,179)" stroke-width="1" opacity="1" d="M 149.5 99 L 147.5 102 L 149.5 99 Z " /><path fill="rgb(226,201,179)" stroke="rgb(226,201,179)" stroke-width="1" opacity="1" d="M 245.5 99 L 243.5 102 L 245.5 99 Z " /><path fill="rgb(226,201,179)" stroke="rgb(226,201,179)" stroke-width="1" opacity="1" d="M 297.5 99 L 298 102.5 L 297 102.5 L 297.5 99 Z " /><path fill="rgb(226,201,179)" stroke="rgb(226,201,179)" stroke-width="1" opacity="1" d="M 188.5 100 L 193 100.5 L 188.5 101 L 188.5 100 Z " /><path fill="rgb(226,201,179)" stroke="rgb(226,201,179)" stroke-width="1" opacity="1" d="M 83.5 102 L 84 105.5 L 83 105.5 L 83.5 102 Z " /><path fill="rgb(226,201,179)" stroke="rgb(226,201,179)" stroke-width="1" opacity="1" d="M 142.5 102 L 146 102.5 L 142.5 103 L 142.5 102 Z " /><path fill="rgb(226,201,179)" stroke="rgb(226,201,179)" stroke-width="1" opacity="1" d="M 182.5 102 L 181.5 104 L 182.5 102 Z " /><path fill="rgb(226,201,179)" stroke="rgb(226,201,179)" stroke-width="1" opacity="1" d="M 238.5 102 L 242 102.5 L 238.5 103 L 238.5 102 Z " /><path fill="rgb(226,201,179)" stroke="rgb(226,201,179)" stroke-width="1" opacity="1" d="M 180.5 105 L 181 109.5 L 180 109.5 L 180.5 105 Z " /><path fill="rgb(226,201,179)" stroke="rgb(226,201,179)" stroke-width="1" opacity="1" d="M 298.5 108 L 299 112.5 L 298 112.5 L 298.5 108 Z " /><path fill="rgb(226,201,179)" stroke="rgb(226,201,179)" stroke-width="1" opacity="1" d="M 82.5 111 L 83 124.5 L 82 124.5 L 82.5 111 Z " /><path fill="rgb(226,201,179)" stroke="rgb(226,201,179)" stroke-width="1" opacity="1" d="M 183.5 116 L 184.5 118 L 183.5 116 Z " /><path fill="rgb(226,201,179)" stroke="rgb(226,201,179)" stroke-width="1" opacity="1" d="M 123.5 120 L 123 121.5 L 122.5 123 L 122 121.5 L 123.5 120 Z " /><path fill="rgb(226,201,179)" stroke="rgb(226,201,179)" stroke-width="1" opacity="1" d="M 193.5 120 L 193 121.5 L 192.5 126 L 192 121.5 L 193.5 120 Z " /><path fill="rgb(226,201,179)" stroke="rgb(226,201,179)" stroke-width="1" opacity="1" d="M 188.5 121 L 189 126.5 L 188 126.5 L 188.5 121 Z " /><path fill="rgb(226,201,179)" stroke="rgb(226,201,179)" stroke-width="1" opacity="1" d="M 298.5 123 L 299 127.5 L 298 127.5 L 298.5 123 Z " /><path fill="rgb(226,201,179)" stroke="rgb(226,201,179)" stroke-width="1" opacity="1" d="M 153.5 128 L 156 129.5 L 154.5 129 L 153.5 128 Z " /><path fill="rgb(226,201,179)" stroke="rgb(226,201,179)" stroke-width="1" opacity="1" d="M 83.5 129 L 84 131.5 L 83 131.5 L 83.5 129 Z " /><path fill="rgb(226,201,179)" stroke="rgb(226,201,179)" stroke-width="1" opacity="1" d="M 225.5 129 L 227 132.5 L 225 131.5 L 225.5 129 Z " /><path fill="rgb(226,201,179)" stroke="rgb(226,201,179)" stroke-width="1" opacity="1" d="M 193.5 131 L 195.5 134 L 193.5 131 Z " /><path fill="rgb(226,201,179)" stroke="rgb(226,201,179)" stroke-width="1" opacity="1" d="M 185.5 133 L 184.5 135 L 183 134.5 L 185.5 133 Z " /><path fill="rgb(226,201,179)" stroke="rgb(226,201,179)" stroke-width="1" opacity="1" d="M 191.5 135 L 193.5 138 L 191.5 135 Z " /><path fill="rgb(226,201,179)" stroke="rgb(226,201,179)" stroke-width="1" opacity="1" d="M 207.5 135 L 209 137.5 L 208 137.5 L 207.5 135 Z " /><path fill="rgb(226,201,179)" stroke="rgb(226,201,179)" stroke-width="1" opacity="1" d="M 188.5 136 L 187.5 138 L 188.5 136 Z " /><path fill="rgb(226,201,179)" stroke="rgb(226,201,179)" stroke-width="1" opacity="1" d="M 174.5 139 L 182 139.5 L 174.5 140 L 174.5 139 Z " /><path fill="rgb(226,201,179)" stroke="rgb(226,201,179)" stroke-width="1" opacity="1" d="M 199.5 139 L 207 139.5 L 199.5 140 L 199.5 139 Z " /><path fill="rgb(226,201,179)" stroke="rgb(226,201,179)" stroke-width="1" opacity="1" d="M 148.5 141 L 152 141.5 L 148.5 142 L 148.5 141 Z " /><path fill="rgb(226,201,179)" stroke="rgb(226,201,179)" stroke-width="1" opacity="1" d="M 230.5 141 L 233 141.5 L 230.5 142 L 230.5 141 Z " /><path fill="rgb(226,201,179)" stroke="rgb(226,201,179)" stroke-width="1" opacity="1" d="M 141.5 142 L 144 142.5 L 141.5 143 L 141.5 142 Z " /><path fill="rgb(226,201,179)" stroke="rgb(226,201,179)" stroke-width="1" opacity="1" d="M 237.5 142 L 240 142.5 L 237.5 143 L 237.5 142 Z " /><path fill="rgb(226,201,179)" stroke="rgb(226,201,179)" stroke-width="1" opacity="1" d="M 134.5 143 L 137 143.5 L 134.5 144 L 134.5 143 Z " /><path fill="rgb(226,201,179)" stroke="rgb(226,201,179)" stroke-width="1" opacity="1" d="M 244.5 143 L 247 143.5 L 244.5 144 L 244.5 143 Z " /><path fill="rgb(226,201,179)" stroke="rgb(226,201,179)" stroke-width="1" opacity="1" d="M 127.5 144 L 130 144.5 L 127.5 145 L 127.5 144 Z " /><path fill="rgb(226,201,179)" stroke="rgb(226,201,179)" stroke-width="1" opacity="1" d="M 251.5 144 L 254 144.5 L 251.5 145 L 251.5 144 Z " /><path fill="rgb(226,201,179)" stroke="rgb(226,201,179)" stroke-width="1" opacity="1" d="M 123.5 145 L 123 146.5 L 122.5 148 L 122 146.5 L 123.5 145 Z " /><path fill="rgb(226,201,179)" stroke="rgb(226,201,179)" stroke-width="1" opacity="1" d="M 150.5 145 L 154 145.5 L 150.5 146 L 150.5 145 Z " /><path fill="rgb(226,201,179)" stroke="rgb(226,201,179)" stroke-width="1" opacity="1" d="M 228.5 145 L 231 145.5 L 228.5 146 L 228.5 145 Z " /><path fill="rgb(226,201,179)" stroke="rgb(226,201,179)" stroke-width="1" opacity="1" d="M 143.5 146 L 147 146.5 L 143.5 147 L 143.5 146 Z " /><path fill="rgb(226,201,179)" stroke="rgb(226,201,179)" stroke-width="1" opacity="1" d="M 235.5 146 L 238 146.5 L 235.5 147 L 235.5 146 Z " /><path fill="rgb(226,201,179)" stroke="rgb(226,201,179)" stroke-width="1" opacity="1" d="M 136.5 147 L 139 147.5 L 136.5 148 L 136.5 147 Z " /><path fill="rgb(226,201,179)" stroke="rgb(226,201,179)" stroke-width="1" opacity="1" d="M 242.5 147 L 245 147.5 L 242.5 148 L 242.5 147 Z " /><path fill="rgb(226,201,179)" stroke="rgb(226,201,179)" stroke-width="1" opacity="1" d="M 129.5 148 L 132 148.5 L 129.5 149 L 129.5 148 Z " /><path fill="rgb(226,201,179)" stroke="rgb(226,201,179)" stroke-width="1" opacity="1" d="M 249.5 148 L 252 148.5 L 249.5 149 L 249.5 148 Z " /><path fill="rgb(226,201,179)" stroke="rgb(226,201,179)" stroke-width="1" opacity="1" d="M 179.5 154 L 187 154.5 L 179.5 155 L 179.5 154 Z " /><path fill="rgb(226,201,179)" stroke="rgb(226,201,179)" stroke-width="1" opacity="1" d="M 194.5 154 L 202 154.5 L 194.5 155 L 194.5 154 Z " /><path fill="rgb(226,201,179)" stroke="rgb(226,201,179)" stroke-width="1" opacity="1" d="M 171.5 155 L 174 155.5 L 171.5 156 L 171.5 155 Z " /><path fill="rgb(226,201,179)" stroke="rgb(226,201,179)" stroke-width="1" opacity="1" d="M 207.5 155 L 210 155.5 L 207.5 156 L 207.5 155 Z " /><path fill="rgb(226,201,179)" stroke="rgb(226,201,179)" stroke-width="1" opacity="1" d="M 288.5 157 L 287.5 159 L 288.5 157 Z " /><path fill="rgb(226,201,179)" stroke="rgb(226,201,179)" stroke-width="1" opacity="1" d="M 176.5 159 L 204.5 159 L 215.5 161 Q 231.7 165.3 241 176.5 L 249 191.5 L 251 201.5 L 248.5 204 L 132.5 204 Q 129.3 202.3 131 195.5 Q 134.9 178.9 146.5 170 L 161.5 162 L 176.5 159 Z M 206 164 L 201 169 L 201 171 L 204 172 L 208 168 L 208 166 L 206 164 Z M 173 166 L 173 170 L 180 170 L 181 168 Q 179 164 173 166 Z M 160 170 Q 155 171 156 176 L 159 177 L 163 172 L 160 170 Z M 189 171 Q 185 173 185 178 L 188 179 Q 191 177 191 173 L 189 171 Z M 217 172 L 215 175 L 219 177 Q 224 179 222 173 L 217 172 Z " /><path fill="rgb(226,201,179)" stroke="rgb(226,201,179)" stroke-width="1" opacity="1" d="M 232.5 163 L 233.5 165 L 232.5 163 Z " /><path fill="rgb(226,201,179)" stroke="rgb(226,201,179)" stroke-width="1" opacity="1" d="M 284.5 163 L 283.5 165 L 284.5 163 Z " /><path fill="rgb(226,201,179)" stroke="rgb(226,201,179)" stroke-width="1" opacity="1" d="M 97.5 164 L 98.5 166 L 97.5 164 Z " /><path fill="rgb(226,201,179)" stroke="rgb(226,201,179)" stroke-width="1" opacity="1" d="M 146.5 164 L 145.5 166 L 146.5 164 Z " /><path fill="rgb(226,201,179)" stroke="rgb(226,201,179)" stroke-width="1" opacity="1" d="M 235.5 165 L 236.5 167 L 235.5 165 Z " /><path fill="rgb(226,201,179)" stroke="rgb(226,201,179)" stroke-width="1" opacity="1" d="M 282.5 166 L 280.5 169 L 282.5 166 Z " /><path fill="rgb(226,201,179)" stroke="rgb(226,201,179)" stroke-width="1" opacity="1" d="M 142.5 167 L 137.5 173 L 142.5 167 Z " /><path fill="rgb(226,201,179)" stroke="rgb(226,201,179)" stroke-width="1" opacity="1" d="M 100.5 168 L 104.5 173 L 100.5 168 Z " /><path fill="rgb(226,201,179)" stroke="rgb(226,201,179)" stroke-width="1" opacity="1" d="M 244.5 174 L 245.5 176 L 244.5 174 Z " /><path fill="rgb(226,201,179)" stroke="rgb(226,201,179)" stroke-width="1" opacity="1" d="M 107.5 175 L 110.5 179 L 107.5 175 Z " /><path fill="rgb(226,201,179)" stroke="rgb(226,201,179)" stroke-width="1" opacity="1" d="M 135.5 175 L 134.5 177 L 135.5 175 Z " /><path fill="rgb(226,201,179)" stroke="rgb(226,201,179)" stroke-width="1" opacity="1" d="M 270.5 178 L 268.5 181 L 270.5 178 Z " /><path fill="rgb(226,201,179)" stroke="rgb(226,201,179)" stroke-width="1" opacity="1" d="M 114.5 181 L 115.5 183 L 114.5 181 Z " /><path fill="rgb(226,201,179)" stroke="rgb(226,201,179)" stroke-width="1" opacity="1" d="M 117.5 183 L 119.5 186 L 117.5 183 Z " /><path fill="rgb(226,201,179)" stroke="rgb(226,201,179)" stroke-width="1" opacity="1" d="M 262.5 184 L 261.5 186 L 262.5 184 Z " /><path fill="rgb(226,201,179)" stroke="rgb(226,201,179)" stroke-width="1" opacity="1" d="M 268.5 185 L 267.5 187 L 268.5 185 Z " /><path fill="rgb(226,201,179)" stroke="rgb(226,201,179)" stroke-width="1" opacity="1" d="M 265.5 187 L 264.5 189 L 265.5 187 Z " /><path fill="rgb(226,201,179)" stroke="rgb(226,201,179)" stroke-width="1" opacity="1" d="M 271.5 187 L 272.5 189 L 271.5 187 Z " /><path fill="rgb(226,201,179)" stroke="rgb(226,201,179)" stroke-width="1" opacity="1" d="M 127.5 205 L 128.5 207 L 127.5 205 Z " /><path fill="rgb(226,201,179)" stroke="rgb(226,201,179)" stroke-width="1" opacity="1" d="M 253.5 205 L 251.5 208 L 253.5 205 Z " /><path fill="rgb(226,201,179)" stroke="rgb(226,201,179)" stroke-width="1" opacity="1" d="M 135 208 L 155.5 208 L 157 209.5 L 159 215 L 149.5 216 L 140.5 214 L 135 209.5 L 135 208 Z " /><path fill="rgb(226,201,179)" stroke="rgb(226,201,179)" stroke-width="1" opacity="1" d="M 161 208 L 182.5 208 L 183 210.5 L 185 215 L 175.5 216 L 166.5 214 L 161 209.5 L 161 208 Z " /><path fill="rgb(226,201,179)" stroke="rgb(226,201,179)" stroke-width="1" opacity="1" d="M 187 208 L 209.5 208 L 210 209.5 L 213 213.5 L 210.5 215 L 202.5 216 L 192.5 214 L 187 209.5 L 187 208 Z " /><path fill="rgb(226,201,179)" stroke="rgb(226,201,179)" stroke-width="1" opacity="1" d="M 215 208 L 247 208.5 L 244.5 212 L 237.5 215 L 229.5 216 L 220.5 214 L 215 210.5 L 215 208 Z " /><path fill="rgb(226,201,179)" stroke="rgb(226,201,179)" stroke-width="1" opacity="1" d="M 132.5 213 L 130.5 216 L 132.5 213 Z " /><path fill="rgb(226,201,179)" stroke="rgb(226,201,179)" stroke-width="1" opacity="1" d="M 189.5 217 L 194.5 219 L 204.5 220 L 218.5 217 L 222.5 219 L 232.5 220 L 246.5 217 L 248 218.5 L 248 225 L 134.5 225 L 133 223.5 Q 132 219 134.5 218 L 152.5 220 L 159.5 218 L 167.5 218 L 178.5 220 L 189.5 217 Z " /><path fill="rgb(226,201,179)" stroke="rgb(226,201,179)" stroke-width="1" opacity="1" d="M 120.5 229 L 119.5 231 L 120.5 229 Z " /><path fill="rgb(226,201,179)" stroke="rgb(226,201,179)" stroke-width="1" opacity="1" d="M 118.5 233 L 119 238.5 L 118 238.5 L 118.5 233 Z " /><path fill="rgb(226,201,179)" stroke="rgb(226,201,179)" stroke-width="1" opacity="1" d="M 262.5 233 L 263 237.5 L 262 237.5 L 262.5 233 Z " /><path fill="rgb(226,201,179)" stroke="rgb(226,201,179)" stroke-width="1" opacity="1" d="M 120.5 242 L 122.5 245 L 120.5 242 Z " /><path fill="rgb(226,201,179)" stroke="rgb(226,201,179)" stroke-width="1" opacity="1" d="M 259.5 243 L 258.5 245 L 259.5 243 Z " /><path fill="rgb(226,201,179)" stroke="rgb(226,201,179)" stroke-width="1" opacity="1" d="M 254.5 246 L 255 250.5 L 254 250.5 L 254.5 246 Z " /><path fill="rgb(226,201,179)" stroke="rgb(226,201,179)" stroke-width="1" opacity="1" d="M 132.5 247 L 248.5 247 L 250 248.5 L 249 256 Q 246 253.3 239.5 253 Q 226.7 257.2 220 267.5 L 218.5 270 L 162.5 270 L 162 268.5 Q 154.7 256.8 139.5 253 L 132 256 L 131 248.5 L 132.5 247 Z " /><path fill="rgb(226,201,179)" stroke="rgb(226,201,179)" stroke-width="1" opacity="1" d="M 235.5 259 L 234.5 261 L 235.5 259 Z " /><path fill="rgb(226,201,179)" stroke="rgb(226,201,179)" stroke-width="1" opacity="1" d="M 245.5 259 L 251.5 266 L 245.5 259 Z " /><path fill="rgb(226,201,179)" stroke="rgb(226,201,179)" stroke-width="1" opacity="1" d="M 134.5 260 L 132.5 263 L 134.5 260 Z " /><path fill="rgb(226,201,179)" stroke="rgb(226,201,179)" stroke-width="1" opacity="1" d="M 252.5 260 L 254.5 263 L 252.5 260 Z " /><path fill="rgb(226,201,179)" stroke="rgb(226,201,179)" stroke-width="1" opacity="1" d="M 148.5 261 L 149.5 263 L 148.5 261 Z " /><path fill="rgb(226,201,179)" stroke="rgb(226,201,179)" stroke-width="1" opacity="1" d="M 231.5 262 L 229.5 265 L 231.5 262 Z " /><path fill="rgb(226,201,179)" stroke="rgb(226,201,179)" stroke-width="1" opacity="1" d="M 125.5 264 L 124.5 266 L 125.5 264 Z " /><path fill="rgb(226,201,179)" stroke="rgb(226,201,179)" stroke-width="1" opacity="1" d="M 256.5 265 L 257.5 267 L 256.5 265 Z " /><path fill="rgb(226,201,179)" stroke="rgb(226,201,179)" stroke-width="1" opacity="1" d="M 225.5 268 L 223.5 271 L 225.5 268 Z " /><path fill="rgb(226,201,179)" stroke="rgb(226,201,179)" stroke-width="1" opacity="1" d="M 253.5 268 L 254.5 270 L 253.5 268 Z " /><path fill="rgb(226,201,179)" stroke="rgb(226,201,179)" stroke-width="1" opacity="1" d="M 157.5 270 L 158.5 272 L 157.5 270 Z " /><path fill="rgb(226,201,179)" stroke="rgb(226,201,179)" stroke-width="1" opacity="1" d="M 263.5 272 L 267.5 277 L 263.5 272 Z " /><path fill="rgb(226,201,179)" stroke="rgb(226,201,179)" stroke-width="1" opacity="1" d="M 165.5 274 L 174 274.5 L 165.5 275 L 165.5 274 Z " /><path fill="rgb(226,201,179)" stroke="rgb(226,201,179)" stroke-width="1" opacity="1" d="M 206.5 274 L 215.5 274 L 216 275.5 L 214.5 275 L 206.5 275 L 206.5 274 Z " /><path fill="rgb(226,201,179)" stroke="rgb(226,201,179)" stroke-width="1" opacity="1" d="M 114.5 275 L 111.5 279 L 114.5 275 Z " /><path fill="rgb(226,201,179)" stroke="rgb(226,201,179)" stroke-width="1" opacity="1" d="M 260.5 275 L 265.5 281 L 260.5 275 Z " /><path fill="rgb(226,201,179)" stroke="rgb(226,201,179)" stroke-width="1" opacity="1" d="M 117.5 278 L 114.5 282 L 117.5 278 Z " /><path fill="rgb(226,201,179)" stroke="rgb(226,201,179)" stroke-width="1" opacity="1" d="M 271.5 279 L 273.5 282 L 271.5 279 Z " /><path fill="rgb(226,201,179)" stroke="rgb(226,201,179)" stroke-width="1" opacity="1" d="M 107.5 281 L 105.5 284 L 107.5 281 Z " /><path fill="rgb(226,201,179)" stroke="rgb(226,201,179)" stroke-width="1" opacity="1" d="M 219.5 283 L 224.5 289 L 219.5 283 Z " /><path fill="rgb(226,201,179)" stroke="rgb(226,201,179)" stroke-width="1" opacity="1" d="M 269.5 283 L 271.5 286 L 269.5 283 Z " /><path fill="rgb(226,201,179)" stroke="rgb(226,201,179)" stroke-width="1" opacity="1" d="M 276.5 283 L 278.5 286 L 276.5 283 Z " /><path fill="rgb(226,201,179)" stroke="rgb(226,201,179)" stroke-width="1" opacity="1" d="M 110.5 284 L 108.5 287 L 110.5 284 Z " /><path fill="rgb(226,201,179)" stroke="rgb(226,201,179)" stroke-width="1" opacity="1" d="M 166.5 284 L 165.5 286 L 166.5 284 Z " /><path fill="rgb(226,201,179)" stroke="rgb(226,201,179)" stroke-width="1" opacity="1" d="M 102.5 285 L 101.5 287 L 102.5 285 Z " /><path fill="rgb(226,201,179)" stroke="rgb(226,201,179)" stroke-width="1" opacity="1" d="M 215.5 285 L 221.5 292 L 215.5 285 Z " /><path fill="rgb(226,201,179)" stroke="rgb(226,201,179)" stroke-width="1" opacity="1" d="M 274.5 287 L 275.5 289 L 274.5 287 Z " /><path fill="rgb(226,201,179)" stroke="rgb(226,201,179)" stroke-width="1" opacity="1" d="M 281.5 287 L 282.5 289 L 281.5 287 Z " /><path fill="rgb(226,201,179)" stroke="rgb(226,201,179)" stroke-width="1" opacity="1" d="M 98.5 288 L 96.5 291 L 98.5 288 Z " /><path fill="rgb(226,201,179)" stroke="rgb(226,201,179)" stroke-width="1" opacity="1" d="M 105.5 288 L 104.5 290 L 105.5 288 Z " /><path fill="rgb(226,201,179)" stroke="rgb(226,201,179)" stroke-width="1" opacity="1" d="M 278.5 290 L 280.5 293 L 278.5 290 Z " /><path fill="rgb(226,201,179)" stroke="rgb(226,201,179)" stroke-width="1" opacity="1" d="M 159.5 291 L 158.5 293 L 159.5 291 Z " /><path fill="rgb(226,201,179)" stroke="rgb(226,201,179)" stroke-width="1" opacity="1" d="M 286.5 291 L 287.5 293 L 286.5 291 Z " /><path fill="rgb(226,201,179)" stroke="rgb(226,201,179)" stroke-width="1" opacity="1" d="M 93.5 292 L 91.5 295 L 93.5 292 Z " /><path fill="rgb(226,201,179)" stroke="rgb(226,201,179)" stroke-width="1" opacity="1" d="M 100.5 292 L 99.5 294 L 100.5 292 Z " /><path fill="rgb(226,201,179)" stroke="rgb(226,201,179)" stroke-width="1" opacity="1" d="M 223.5 292 L 224.5 294 L 223.5 292 Z " /><path fill="rgb(226,201,179)" stroke="rgb(226,201,179)" stroke-width="1" opacity="1" d="M 69.5 293 L 70 295.5 L 69 295.5 L 69.5 293 Z " /><path fill="rgb(226,201,179)" stroke="rgb(226,201,179)" stroke-width="1" opacity="1" d="M 237.5 294 L 238.5 296 L 237.5 294 Z " /><path fill="rgb(226,201,179)" stroke="rgb(226,201,179)" stroke-width="1" opacity="1" d="M 283.5 294 L 285.5 297 L 283.5 294 Z " /><path fill="rgb(226,201,179)" stroke="rgb(226,201,179)" stroke-width="1" opacity="1" d="M 96.5 295 L 94.5 298 L 96.5 295 Z " /><path fill="rgb(226,201,179)" stroke="rgb(226,201,179)" stroke-width="1" opacity="1" d="M 142.5 295 L 141.5 297 L 142.5 295 Z " /><path fill="rgb(226,201,179)" stroke="rgb(226,201,179)" stroke-width="1" opacity="1" d="M 291.5 295 L 293.5 298 L 291.5 295 Z " /><path fill="rgb(226,201,179)" stroke="rgb(226,201,179)" stroke-width="1" opacity="1" d="M 87.5 297 L 84.5 301 L 87.5 297 Z " /><path fill="rgb(226,201,179)" stroke="rgb(226,201,179)" stroke-width="1" opacity="1" d="M 234.5 297 L 235.5 299 L 234.5 297 Z " /><path fill="rgb(226,201,179)" stroke="rgb(226,201,179)" stroke-width="1" opacity="1" d="M 241.5 297 L 243.5 300 L 241.5 297 Z " /><path fill="rgb(226,201,179)" stroke="rgb(226,201,179)" stroke-width="1" opacity="1" d="M 312.5 297 L 313 299.5 L 312 299.5 L 312.5 297 Z " /><path fill="rgb(226,201,179)" stroke="rgb(226,201,179)" stroke-width="1" opacity="1" d="M 138.5 298 L 135.5 302 L 138.5 298 Z " /><path fill="rgb(226,201,179)" stroke="rgb(226,201,179)" stroke-width="1" opacity="1" d="M 145.5 298 L 144.5 300 L 145.5 298 Z " /><path fill="rgb(226,201,179)" stroke="rgb(226,201,179)" stroke-width="1" opacity="1" d="M 288.5 298 L 291.5 302 L 288.5 298 Z " /><path fill="rgb(226,201,179)" stroke="rgb(226,201,179)" stroke-width="1" opacity="1" d="M 90.5 300 L 86.5 305 L 90.5 300 Z " /><path fill="rgb(226,201,179)" stroke="rgb(226,201,179)" stroke-width="1" opacity="1" d="M 238.5 300 L 240.5 303 L 238.5 300 Z " /><path fill="rgb(226,201,179)" stroke="rgb(226,201,179)" stroke-width="1" opacity="1" d="M 140.5 302 L 138.5 305 L 140.5 302 Z " /><path fill="rgb(226,201,179)" stroke="rgb(226,201,179)" stroke-width="1" opacity="1" d="M 313.5 302 L 314 304.5 L 313 304.5 L 313.5 302 Z " /><path fill="rgb(226,201,179)" stroke="rgb(226,201,179)" stroke-width="1" opacity="1" d="M 248.5 303 L 255.5 311 L 248.5 303 Z " /><path fill="rgb(226,201,179)" stroke="rgb(226,201,179)" stroke-width="1" opacity="1" d="M 67.5 304 L 68 306.5 L 67 306.5 L 67.5 304 Z " /><path fill="rgb(226,201,179)" stroke="rgb(226,201,179)" stroke-width="1" opacity="1" d="M 298.5 304 L 297.5 306 L 296 305.5 L 298.5 304 Z " /><path fill="rgb(226,201,179)" stroke="rgb(226,201,179)" stroke-width="1" opacity="1" d="M 245.5 306 L 251.5 313 L 245.5 306 Z " /><path fill="rgb(226,201,179)" stroke="rgb(226,201,179)" stroke-width="1" opacity="1" d="M 314.5 308 L 315 311.5 L 314 311.5 L 314.5 308 Z " /><path fill="rgb(226,201,179)" stroke="rgb(226,201,179)" stroke-width="1" opacity="1" d="M 66.5 310 L 67 313.5 L 66 313.5 L 66.5 310 Z " /><path fill="rgb(226,201,179)" stroke="rgb(226,201,179)" stroke-width="1" opacity="1" d="M 124.5 312 L 121.5 316 L 124.5 312 Z " /><path fill="rgb(226,201,179)" stroke="rgb(226,201,179)" stroke-width="1" opacity="1" d="M 127.5 315 L 124.5 319 L 127.5 315 Z " /><path fill="rgb(226,201,179)" stroke="rgb(226,201,179)" stroke-width="1" opacity="1" d="M 259.5 315 L 260.5 317 L 259.5 315 Z " /><path fill="rgb(226,201,179)" stroke="rgb(226,201,179)" stroke-width="1" opacity="1" d="M 315.5 315 L 316 318.5 L 315 318.5 L 315.5 315 Z " /><path fill="rgb(226,201,179)" stroke="rgb(226,201,179)" stroke-width="1" opacity="1" d="M 399.5 316 L 398.5 318 L 399.5 316 Z " /><path fill="rgb(226,201,179)" stroke="rgb(226,201,179)" stroke-width="1" opacity="1" d="M 255.5 317 L 257.5 320 L 255.5 317 Z " /><path fill="rgb(226,201,179)" stroke="rgb(226,201,179)" stroke-width="1" opacity="1" d="M 65.5 318 L 66 321.5 L 65 321.5 L 65.5 318 Z " /><path fill="rgb(226,201,179)" stroke="rgb(226,201,179)" stroke-width="1" opacity="1" d="M 119.5 318 L 118.5 320 L 119.5 318 Z " /><path fill="rgb(226,201,179)" stroke="rgb(226,201,179)" stroke-width="1" opacity="1" d="M 396.5 319 L 395.5 321 L 396.5 319 Z " /><path fill="rgb(226,201,179)" stroke="rgb(226,201,179)" stroke-width="1" opacity="1" d="M 263.5 320 L 268.5 326 L 263.5 320 Z " /><path fill="rgb(226,201,179)" stroke="rgb(226,201,179)" stroke-width="1" opacity="1" d="M 422.5 320 L 423.5 322 L 422.5 320 Z " /><path fill="rgb(226,201,179)" stroke="rgb(226,201,179)" stroke-width="1" opacity="1" d="M 122.5 321 L 121.5 323 L 122.5 321 Z " /><path fill="rgb(226,201,179)" stroke="rgb(226,201,179)" stroke-width="1" opacity="1" d="M 259.5 322 L 264.5 328 L 259.5 322 Z " /><path fill="rgb(226,201,179)" stroke="rgb(226,201,179)" stroke-width="1" opacity="1" d="M 316.5 323 L 317 327.5 L 316 327.5 L 316.5 323 Z " /><path fill="rgb(226,201,179)" stroke="rgb(226,201,179)" stroke-width="1" opacity="1" d="M 426.5 323 L 430.5 328 L 426.5 323 Z " /><path fill="rgb(226,201,179)" stroke="rgb(226,201,179)" stroke-width="1" opacity="1" d="M 64.5 326 L 65 330.5 L 64 330.5 L 64.5 326 Z " /><path fill="rgb(226,201,179)" stroke="rgb(226,201,179)" stroke-width="1" opacity="1" d="M 112.5 326 L 111.5 328 L 112.5 326 Z " /><path fill="rgb(226,201,179)" stroke="rgb(226,201,179)" stroke-width="1" opacity="1" d="M 269.5 327 L 270.5 329 L 269.5 327 Z " /><path fill="rgb(226,201,179)" stroke="rgb(226,201,179)" stroke-width="1" opacity="1" d="M 393.5 328 L 394 330.5 L 393 330.5 L 393.5 328 Z " /><path fill="rgb(226,201,179)" stroke="rgb(226,201,179)" stroke-width="1" opacity="1" d="M 266.5 330 L 267.5 332 L 266.5 330 Z " /><path fill="rgb(226,201,179)" stroke="rgb(226,201,179)" stroke-width="1" opacity="1" d="M 433.5 331 L 434.5 333 L 433.5 331 Z " /><path fill="rgb(226,201,179)" stroke="rgb(226,201,179)" stroke-width="1" opacity="1" d="M 317.5 334 L 318 340.5 L 317 340.5 L 317.5 334 Z " /><path fill="rgb(226,201,179)" stroke="rgb(226,201,179)" stroke-width="1" opacity="1" d="M 394.5 336 L 395 338.5 L 394 338.5 L 394.5 336 Z " /><path fill="rgb(226,201,179)" stroke="rgb(226,201,179)" stroke-width="1" opacity="1" d="M 63.5 338 L 64 347.5 L 63 347.5 L 63.5 338 Z " /><path fill="rgb(226,201,179)" stroke="rgb(226,201,179)" stroke-width="1" opacity="1" d="M 396.5 348 L 398.5 351 L 411.5 353 L 424.5 359 Q 436.1 365.5 444 375.5 L 447.5 381 L 448.5 370 L 449 382.5 L 448 383.5 L 447 395.5 L 440.5 412 L 439 404.5 L 433 392.5 L 426 383 L 408.5 372 L 397.5 369 L 396.5 371 L 396 368.5 L 397 367.5 L 397 351.5 L 396.5 348 Z " /><path fill="rgb(226,201,179)" stroke="rgb(226,201,179)" stroke-width="1" opacity="1" d="M 447.5 362 L 448 364.5 L 447 364.5 L 447.5 362 Z " /><path fill="rgb(226,201,179)" stroke="rgb(226,201,179)" stroke-width="1" opacity="1" d="M 63.5 364 L 64 372.5 L 63 372.5 L 63.5 364 Z " /><path fill="rgb(226,201,179)" stroke="rgb(226,201,179)" stroke-width="1" opacity="1" d="M 317.5 370 L 318 376.5 L 317 376.5 L 317.5 370 Z " /><path fill="rgb(226,201,179)" stroke="rgb(226,201,179)" stroke-width="1" opacity="1" d="M 64.5 379 L 65 383.5 L 64 383.5 L 64.5 379 Z " /><path fill="rgb(226,201,179)" stroke="rgb(226,201,179)" stroke-width="1" opacity="1" d="M 316.5 382 L 317 385.5 L 316 385.5 L 316.5 382 Z " /><path fill="rgb(226,201,179)" stroke="rgb(226,201,179)" stroke-width="1" opacity="1" d="M 65.5 388 L 66 390.5 L 65 390.5 L 65.5 388 Z " /><path fill="rgb(226,201,179)" stroke="rgb(226,201,179)" stroke-width="1" opacity="1" d="M 315.5 390 L 316 392.5 L 315 392.5 L 315.5 390 Z " /><path fill="rgb(226,201,179)" stroke="rgb(226,201,179)" stroke-width="1" opacity="1" d="M 66.5 394 L 67 396.5 L 66 396.5 L 66.5 394 Z " /><path fill="rgb(226,201,179)" stroke="rgb(226,201,179)" stroke-width="1" opacity="1" d="M 67.5 399 L 68 401.5 L 67 401.5 L 67.5 399 Z " /><path fill="rgb(226,201,179)" stroke="rgb(226,201,179)" stroke-width="1" opacity="1" d="M 386.5 399 L 401 420.5 L 406 436.5 L 406 446.5 L 407.5 448 L 409 447.5 L 406 448.5 L 404.5 451 L 386.5 460 L 387 458.5 L 388 446.5 L 387 445.5 L 387 437.5 L 384 428.5 L 375.5 416 L 373.5 417 L 380 409.5 L 386.5 399 Z " /><path fill="rgb(226,201,179)" stroke="rgb(226,201,179)" stroke-width="1" opacity="1" d="M 439.5 413 L 438.5 415 L 439.5 413 Z " /><path fill="rgb(226,201,179)" stroke="rgb(226,201,179)" stroke-width="1" opacity="1" d="M 436.5 418 L 435.5 420 L 436.5 418 Z " /><path fill="rgb(226,201,179)" stroke="rgb(226,201,179)" stroke-width="1" opacity="1" d="M 369.5 419 L 368.5 421 L 369.5 419 Z " /><path fill="rgb(226,201,179)" stroke="rgb(226,201,179)" stroke-width="1" opacity="1" d="M 434.5 421 L 433.5 423 L 434.5 421 Z " /><path fill="rgb(226,201,179)" stroke="rgb(226,201,179)" stroke-width="1" opacity="1" d="M 365.5 422 L 364.5 424 L 365.5 422 Z " /><path fill="rgb(226,201,179)" stroke="rgb(226,201,179)" stroke-width="1" opacity="1" d="M 432.5 424 L 431.5 426 L 432.5 424 Z " /><path fill="rgb(226,201,179)" stroke="rgb(226,201,179)" stroke-width="1" opacity="1" d="M 429.5 428 L 426.5 432 L 429.5 428 Z " /><path fill="rgb(226,201,179)" stroke="rgb(226,201,179)" stroke-width="1" opacity="1" d="M 309.5 431 L 308.5 433 L 309.5 431 Z " /><path fill="rgb(226,201,179)" stroke="rgb(226,201,179)" stroke-width="1" opacity="1" d="M 346.5 431 L 348 431.5 L 348 450.5 L 344 465.5 L 341.5 469 L 318 468.5 L 323 465.5 L 327 457.5 L 330 441.5 L 329 440.5 L 329 434 L 340.5 433 L 346.5 431 Z " /><path fill="rgb(226,201,179)" stroke="rgb(226,201,179)" stroke-width="1" opacity="1" d="M 317.5 433 L 320 433.5 L 317.5 434 L 317.5 433 Z " /><path fill="rgb(226,201,179)" stroke="rgb(226,201,179)" stroke-width="1" opacity="1" d="M 299.5 440 L 298.5 442 L 299.5 440 Z " /><path fill="rgb(226,201,179)" stroke="rgb(226,201,179)" stroke-width="1" opacity="1" d="M 417.5 440 L 414.5 444 L 417.5 440 Z " /><path fill="rgb(226,201,179)" stroke="rgb(226,201,179)" stroke-width="1" opacity="1" d="M 412.5 444 L 410.5 447 L 412.5 444 Z " /><path fill="rgb(226,201,179)" stroke="rgb(226,201,179)" stroke-width="1" opacity="1" d="M 296.5 445 L 295.5 447 L 296.5 445 Z " /><path fill="rgb(226,201,179)" stroke="rgb(226,201,179)" stroke-width="1" opacity="1" d="M 85.5 446 L 86.5 448 L 85.5 446 Z " /><path fill="rgb(226,201,179)" stroke="rgb(226,201,179)" stroke-width="1" opacity="1" d="M 300.5 447 L 299.5 449 L 300.5 447 Z " /><path fill="rgb(226,201,179)" stroke="rgb(226,201,179)" stroke-width="1" opacity="1" d="M 294.5 448 L 293.5 450 L 294.5 448 Z " /><path fill="rgb(226,201,179)" stroke="rgb(226,201,179)" stroke-width="1" opacity="1" d="M 87.5 449 L 89.5 452 L 87.5 449 Z " /><path fill="rgb(226,201,179)" stroke="rgb(226,201,179)" stroke-width="1" opacity="1" d="M 298.5 450 L 297.5 452 L 298.5 450 Z " /><path fill="rgb(226,201,179)" stroke="rgb(226,201,179)" stroke-width="1" opacity="1" d="M 271.5 451 L 271 452.5 L 270.5 458 L 270 452.5 L 271.5 451 Z " /><path fill="rgb(226,201,179)" stroke="rgb(226,201,179)" stroke-width="1" opacity="1" d="M 106.5 452 L 107 456.5 L 106 456.5 L 106.5 452 Z " /><path fill="rgb(226,201,179)" stroke="rgb(226,201,179)" stroke-width="1" opacity="1" d="M 110.5 452 L 111 459.5 L 110 459.5 L 110.5 452 Z " /><path fill="rgb(226,201,179)" stroke="rgb(226,201,179)" stroke-width="1" opacity="1" d="M 291.5 452 L 288.5 456 L 291.5 452 Z " /><path fill="rgb(226,201,179)" stroke="rgb(226,201,179)" stroke-width="1" opacity="1" d="M 91.5 454 L 101.5 465 L 91.5 454 Z " /><path fill="rgb(226,201,179)" stroke="rgb(226,201,179)" stroke-width="1" opacity="1" d="M 230.5 454 L 233 455.5 L 231.5 455 L 230.5 454 Z " /><path fill="rgb(226,201,179)" stroke="rgb(226,201,179)" stroke-width="1" opacity="1" d="M 295.5 454 L 293.5 457 L 295.5 454 Z " /><path fill="rgb(226,201,179)" stroke="rgb(226,201,179)" stroke-width="1" opacity="1" d="M 153.5 455 L 154 461.5 L 153 461.5 L 153.5 455 Z " /><path fill="rgb(226,201,179)" stroke="rgb(226,201,179)" stroke-width="1" opacity="1" d="M 232.5 458 L 233 460.5 L 232 460.5 L 232.5 458 Z " /><path fill="rgb(226,201,179)" stroke="rgb(226,201,179)" stroke-width="1" opacity="1" d="M 149.5 460 L 150 466.5 L 149 466.5 L 149.5 460 Z " /><path fill="rgb(226,201,179)" stroke="rgb(226,201,179)" stroke-width="1" opacity="1" d="M 227.5 461 L 228 463.5 L 227 463.5 L 227.5 461 Z " /><path fill="rgb(226,201,179)" stroke="rgb(226,201,179)" stroke-width="1" opacity="1" d="M 289.5 461 L 288.5 463 L 289.5 461 Z " /><path fill="rgb(226,201,179)" stroke="rgb(226,201,179)" stroke-width="1" opacity="1" d="M 276.5 463 L 278 465.5 L 276 464.5 L 276.5 463 Z " /><path fill="rgb(226,201,179)" stroke="rgb(226,201,179)" stroke-width="1" opacity="1" d="M 280.5 463 L 279.5 465 L 280.5 463 Z " /><path fill="rgb(226,201,179)" stroke="rgb(226,201,179)" stroke-width="1" opacity="1" d="M 104.5 464 L 103.5 466 L 104.5 464 Z " /><path fill="rgb(226,201,179)" stroke="rgb(226,201,179)" stroke-width="1" opacity="1" d="M 231.5 464 L 232 467.5 L 231 467.5 L 231.5 464 Z " /><path fill="rgb(226,201,179)" stroke="rgb(226,201,179)" stroke-width="1" opacity="1" d="M 272.5 465 L 274 467.5 L 272 466.5 L 272.5 465 Z " /><path fill="rgb(226,201,179)" stroke="rgb(226,201,179)" stroke-width="1" opacity="1" d="M 303.5 466 L 306 466.5 L 303.5 467 L 303.5 466 Z " /><path fill="rgb(226,201,179)" stroke="rgb(226,201,179)" stroke-width="1" opacity="1" d="M 310.5 467 L 313 467.5 L 310.5 468 L 310.5 467 Z " /><path fill="rgb(226,201,179)" stroke="rgb(226,201,179)" stroke-width="1" opacity="1" d="M 356.5 467 L 359 467.5 L 356.5 468 L 356.5 467 Z " /><path fill="rgb(226,201,179)" stroke="rgb(226,201,179)" stroke-width="1" opacity="1" d="M 226.5 468 L 227 470.5 L 225.5 472 L 155.5 472 L 155.5 471 L 225.5 471 L 226.5 468 Z " /><path fill="rgb(226,201,179)" stroke="rgb(226,201,179)" stroke-width="1" opacity="1" d="M 346.5 468 L 352 468.5 L 346.5 469 L 346.5 468 Z " /><path fill="rgb(226,201,179)" stroke="rgb(226,201,179)" stroke-width="1" opacity="1" d="M 150.5 470 L 151 472.5 L 150 472.5 L 150.5 470 Z " /><path fill="rgb(226,201,179)" stroke="rgb(226,201,179)" stroke-width="1" opacity="1" d="M 230.5 472 L 231 478.5 L 230 478.5 L 230.5 472 Z " /><path fill="rgb(226,201,179)" stroke="rgb(226,201,179)" stroke-width="1" opacity="1" d="M 151.5 477 L 152 486.5 L 151 486.5 L 151.5 477 Z " /><path fill="rgb(226,201,179)" stroke="rgb(226,201,179)" stroke-width="1" opacity="1" d="M 103.5 479 L 104 489.5 L 103 489.5 L 103.5 479 Z " /><path fill="rgb(226,201,179)" stroke="rgb(226,201,179)" stroke-width="1" opacity="1" d="M 230.5 485 L 231 488.5 L 230 488.5 L 230.5 485 Z " /><path fill="rgb(226,201,179)" stroke="rgb(226,201,179)" stroke-width="1" opacity="1" d="M 277.5 489 L 278 491.5 L 273.5 495 L 273.5 494 L 277 491.5 L 277.5 489 Z " /><path fill="rgb(226,201,179)" stroke="rgb(226,201,179)" stroke-width="1" opacity="1" d="M 149.5 491 L 146.5 495 L 145 494.5 L 149.5 491 Z " /><path fill="rgb(226,201,179)" stroke="rgb(226,201,179)" stroke-width="1" opacity="1" d="M 104.5 492 L 105.5 494 L 104.5 492 Z " /><path fill="rgb(226,201,179)" stroke="rgb(226,201,179)" stroke-width="1" opacity="1" d="M 232.5 492 L 233.5 494 L 232.5 492 Z " /><path fill="rgb(226,201,179)" stroke="rgb(226,201,179)" stroke-width="1" opacity="1" d="M 240.5 496 L 243 496.5 L 240.5 497 L 240.5 496 Z " /><path fill="rgb(226,201,179)" stroke="rgb(226,201,179)" stroke-width="1" opacity="1" d="M 118.5 497 L 123 497.5 L 118.5 498 L 118.5 497 Z " /><path fill="rgb(226,201,179)" stroke="rgb(226,201,179)" stroke-width="1" opacity="1" d="M 130.5 497 L 135 497.5 L 130.5 498 L 130.5 497 Z " /><path fill="rgb(226,201,179)" stroke="rgb(226,201,179)" stroke-width="1" opacity="1" d="M 246.5 497 L 252 497.5 L 246.5 498 L 246.5 497 Z " /><path fill="rgb(226,201,179)" stroke="rgb(226,201,179)" stroke-width="1" opacity="1" d="M 258.5 497 L 264 497.5 L 258.5 498 L 258.5 497 Z " /><path fill="rgb(233,233,233)" stroke="rgb(233,233,233)" stroke-width="1" opacity="1" d="M 94.5 15 L 95.5 17 L 94.5 15 Z " /><path fill="rgb(233,233,233)" stroke="rgb(233,233,233)" stroke-width="1" opacity="1" d="M 285.5 16 L 284.5 18 L 285.5 16 Z " /><path fill="rgb(233,233,233)" stroke="rgb(233,233,233)" stroke-width="1" opacity="1" d="M 99.5 19 L 100.5 21 L 99.5 19 Z " /><path fill="rgb(233,233,233)" stroke="rgb(233,233,233)" stroke-width="1" opacity="1" d="M 280.5 20 L 279.5 22 L 280.5 20 Z " /><path fill="rgb(233,233,233)" stroke="rgb(233,233,233)" stroke-width="1" opacity="1" d="M 104.5 23 L 105.5 25 L 104.5 23 Z " /><path fill="rgb(233,233,233)" stroke="rgb(233,233,233)" stroke-width="1" opacity="1" d="M 275.5 24 L 274.5 26 L 275.5 24 Z " /><path fill="rgb(233,233,233)" stroke="rgb(233,233,233)" stroke-width="1" opacity="1" d="M 109.5 27 L 110.5 29 L 109.5 27 Z " /><path fill="rgb(233,233,233)" stroke="rgb(233,233,233)" stroke-width="1" opacity="1" d="M 270.5 28 L 269.5 30 L 270.5 28 Z " /><path fill="rgb(233,233,233)" stroke="rgb(233,233,233)" stroke-width="1" opacity="1" d="M 114.5 31 L 115.5 33 L 114.5 31 Z " /><path fill="rgb(233,233,233)" stroke="rgb(233,233,233)" stroke-width="1" opacity="1" d="M 265.5 32 L 264.5 34 L 265.5 32 Z " /><path fill="rgb(233,233,233)" stroke="rgb(233,233,233)" stroke-width="1" opacity="1" d="M 119.5 35 L 120.5 37 L 119.5 35 Z " /><path fill="rgb(233,233,233)" stroke="rgb(233,233,233)" stroke-width="1" opacity="1" d="M 260.5 36 L 259.5 38 L 260.5 36 Z " /><path fill="rgb(233,233,233)" stroke="rgb(233,233,233)" stroke-width="1" opacity="1" d="M 138.5 100 L 139.5 102 L 138.5 100 Z " /><path fill="rgb(233,233,233)" stroke="rgb(233,233,233)" stroke-width="1" opacity="1" d="M 234.5 100 L 235.5 102 L 234.5 100 Z " /><path fill="rgb(233,233,233)" stroke="rgb(233,233,233)" stroke-width="1" opacity="1" d="M 298.5 113 L 299 115.5 L 298 115.5 L 298.5 113 Z " /><path fill="rgb(233,233,233)" stroke="rgb(233,233,233)" stroke-width="1" opacity="1" d="M 197.5 117 L 194.5 121 L 197.5 117 Z " /><path fill="rgb(233,233,233)" stroke="rgb(233,233,233)" stroke-width="1" opacity="1" d="M 298.5 117 L 299 122.5 L 298 122.5 L 298.5 117 Z " /><path fill="rgb(233,233,233)" stroke="rgb(233,233,233)" stroke-width="1" opacity="1" d="M 184.5 118 L 185.5 120 L 184.5 118 Z " /><path fill="rgb(233,233,233)" stroke="rgb(233,233,233)" stroke-width="1" opacity="1" d="M 122.5 123 L 123.5 125 L 122.5 123 Z " /><path fill="rgb(233,233,233)" stroke="rgb(233,233,233)" stroke-width="1" opacity="1" d="M 208.5 138 L 207.5 140 L 208.5 138 Z " /><path fill="rgb(233,233,233)" stroke="rgb(233,233,233)" stroke-width="1" opacity="1" d="M 122.5 148 L 123.5 150 L 122.5 148 Z " /><path fill="rgb(233,233,233)" stroke="rgb(233,233,233)" stroke-width="1" opacity="1" d="M 96.5 162 L 97.5 164 L 96.5 162 Z " /><path fill="rgb(233,233,233)" stroke="rgb(233,233,233)" stroke-width="1" opacity="1" d="M 144.5 165 L 143.5 167 L 144.5 165 Z " /><path fill="rgb(233,233,233)" stroke="rgb(233,233,233)" stroke-width="1" opacity="1" d="M 99.5 166 L 100.5 168 L 99.5 166 Z " /><path fill="rgb(233,233,233)" stroke="rgb(233,233,233)" stroke-width="1" opacity="1" d="M 238.5 167 L 244.5 174 L 238.5 167 Z " /><path fill="rgb(233,233,233)" stroke="rgb(233,233,233)" stroke-width="1" opacity="1" d="M 279.5 169 L 271.5 178 L 279.5 169 Z " /><path fill="rgb(233,233,233)" stroke="rgb(233,233,233)" stroke-width="1" opacity="1" d="M 105.5 173 L 106.5 175 L 105.5 173 Z " /><path fill="rgb(233,233,233)" stroke="rgb(233,233,233)" stroke-width="1" opacity="1" d="M 136.5 173 L 135.5 175 L 136.5 173 Z " /><path fill="rgb(233,233,233)" stroke="rgb(233,233,233)" stroke-width="1" opacity="1" d="M 112.5 179 L 113.5 181 L 112.5 179 Z " /><path fill="rgb(233,233,233)" stroke="rgb(233,233,233)" stroke-width="1" opacity="1" d="M 267.5 180 L 266.5 182 L 267.5 180 Z " /><path fill="rgb(233,233,233)" stroke="rgb(233,233,233)" stroke-width="1" opacity="1" d="M 250.5 214 L 251.5 216 L 250.5 214 Z " /><path fill="rgb(233,233,233)" stroke="rgb(233,233,233)" stroke-width="1" opacity="1" d="M 252.5 218 L 253 220.5 L 252 220.5 L 252.5 218 Z " /><path fill="rgb(233,233,233)" stroke="rgb(233,233,233)" stroke-width="1" opacity="1" d="M 252.5 223 L 253.5 225 Q 250.7 225.7 252.5 223 Z " /><path fill="rgb(233,233,233)" stroke="rgb(233,233,233)" stroke-width="1" opacity="1" d="M 122.5 226 L 120.5 229 L 122.5 226 Z " /><path fill="rgb(233,233,233)" stroke="rgb(233,233,233)" stroke-width="1" opacity="1" d="M 259.5 227 L 260.5 229 L 259.5 227 Z " /><path fill="rgb(233,233,233)" stroke="rgb(233,233,233)" stroke-width="1" opacity="1" d="M 126.5 248 L 127 250.5 L 126 250.5 L 126.5 248 Z " /><path fill="rgb(233,233,233)" stroke="rgb(233,233,233)" stroke-width="1" opacity="1" d="M 136.5 259 L 135.5 261 L 136.5 259 Z " /><path fill="rgb(233,233,233)" stroke="rgb(233,233,233)" stroke-width="1" opacity="1" d="M 127.5 261 L 125.5 264 L 127.5 261 Z " /><path fill="rgb(233,233,233)" stroke="rgb(233,233,233)" stroke-width="1" opacity="1" d="M 132.5 263 L 129.5 267 L 132.5 263 Z " /><path fill="rgb(233,233,233)" stroke="rgb(233,233,233)" stroke-width="1" opacity="1" d="M 150.5 263 L 156.5 270 L 150.5 263 Z " /><path fill="rgb(233,233,233)" stroke="rgb(233,233,233)" stroke-width="1" opacity="1" d="M 255.5 263 L 256.5 265 L 255.5 263 Z " /><path fill="rgb(233,233,233)" stroke="rgb(233,233,233)" stroke-width="1" opacity="1" d="M 228.5 265 L 226.5 268 L 228.5 265 Z " /><path fill="rgb(233,233,233)" stroke="rgb(233,233,233)" stroke-width="1" opacity="1" d="M 123.5 266 L 115.5 275 L 123.5 266 Z " /><path fill="rgb(233,233,233)" stroke="rgb(233,233,233)" stroke-width="1" opacity="1" d="M 251.5 266 L 252.5 268 L 251.5 266 Z " /><path fill="rgb(233,233,233)" stroke="rgb(233,233,233)" stroke-width="1" opacity="1" d="M 258.5 267 L 262.5 272 L 258.5 267 Z " /><path fill="rgb(233,233,233)" stroke="rgb(233,233,233)" stroke-width="1" opacity="1" d="M 127.5 269 L 118.5 279 L 127.5 269 Z " /><path fill="rgb(233,233,233)" stroke="rgb(233,233,233)" stroke-width="1" opacity="1" d="M 254.5 270 L 259.5 276 L 254.5 270 Z " /><path fill="rgb(233,233,233)" stroke="rgb(233,233,233)" stroke-width="1" opacity="1" d="M 223.5 271 L 222.5 273 L 223.5 271 Z " /><path fill="rgb(233,233,233)" stroke="rgb(233,233,233)" stroke-width="1" opacity="1" d="M 269.5 277 L 270.5 279 L 269.5 277 Z " /><path fill="rgb(233,233,233)" stroke="rgb(233,233,233)" stroke-width="1" opacity="1" d="M 110.5 278 L 108.5 281 L 110.5 278 Z " /><path fill="rgb(233,233,233)" stroke="rgb(233,233,233)" stroke-width="1" opacity="1" d="M 266.5 281 L 267.5 283 L 266.5 281 Z " /><path fill="rgb(233,233,233)" stroke="rgb(233,233,233)" stroke-width="1" opacity="1" d="M 113.5 282 L 111.5 285 L 113.5 282 Z " /><path fill="rgb(233,233,233)" stroke="rgb(233,233,233)" stroke-width="1" opacity="1" d="M 104.5 283 L 103.5 285 L 104.5 283 Z " /><path fill="rgb(233,233,233)" stroke="rgb(233,233,233)" stroke-width="1" opacity="1" d="M 161.5 283 L 157.5 288 L 161.5 283 Z " /><path fill="rgb(233,233,233)" stroke="rgb(233,233,233)" stroke-width="1" opacity="1" d="M 279.5 285 L 280.5 287 L 279.5 285 Z " /><path fill="rgb(233,233,233)" stroke="rgb(233,233,233)" stroke-width="1" opacity="1" d="M 309.5 285 L 310 287.5 L 309 287.5 L 309.5 285 Z " /><path fill="rgb(233,233,233)" stroke="rgb(233,233,233)" stroke-width="1" opacity="1" d="M 71.5 286 L 72 289.5 L 71 289.5 L 71.5 286 Z " /><path fill="rgb(233,233,233)" stroke="rgb(233,233,233)" stroke-width="1" opacity="1" d="M 100.5 286 L 99.5 288 L 100.5 286 Z " /><path fill="rgb(233,233,233)" stroke="rgb(233,233,233)" stroke-width="1" opacity="1" d="M 165.5 286 L 161.5 291 L 165.5 286 Z " /><path fill="rgb(233,233,233)" stroke="rgb(233,233,233)" stroke-width="1" opacity="1" d="M 107.5 287 L 106.5 289 L 107.5 287 Z " /><path fill="rgb(233,233,233)" stroke="rgb(233,233,233)" stroke-width="1" opacity="1" d="M 276.5 289 L 277.5 291 L 276.5 289 Z " /><path fill="rgb(233,233,233)" stroke="rgb(233,233,233)" stroke-width="1" opacity="1" d="M 284.5 289 L 285.5 291 L 284.5 289 Z " /><path fill="rgb(233,233,233)" stroke="rgb(233,233,233)" stroke-width="1" opacity="1" d="M 310.5 289 L 314 305.5 L 316 327.5 L 317 328.5 L 318 369.5 L 317 370.5 L 317 381.5 L 316 382.5 L 315 395.5 L 307 424.5 Q 298.2 447.7 281.5 463 L 277 465 Q 274.1 459.8 275 451 Q 271.2 450 270 452.5 L 272 466.5 L 277 475.5 L 278 488.5 L 274.5 494 L 266.5 497 L 252.5 498 L 236.5 495 L 231 490.5 L 230 479.5 L 231 478.5 L 231 468.5 L 232 467.5 L 233 455.5 L 230.5 454 L 228 456.5 L 226 471 L 155.5 471 L 155 468.5 L 154 467.5 L 154 455.5 L 153 453 L 149 453.5 L 149 466.5 Q 152.7 474.8 151 488.5 L 146.5 494 L 138.5 497 L 123.5 498 L 122.5 497 L 110.5 496 L 104 491.5 L 104 477.5 L 110 464.5 L 111 452.5 L 107.5 451 L 106 452.5 L 106 460.5 L 103.5 465 L 90 452.5 Q 76.7 435.3 70 411.5 L 65 387.5 L 64 364.5 L 63 363.5 L 63 348.5 L 64 347.5 L 64 331.5 L 65 330.5 L 66 314.5 L 70.5 291 L 71 298.5 L 69 309.5 L 69 357.5 L 70 358.5 L 70 366.5 L 74 388.5 L 83 414.5 Q 91.9 433.6 107.5 446 L 119.5 451 L 261.5 451 Q 275.9 447.9 283 437.5 Q 298.9 419.9 306 393.5 L 312 361.5 L 313 321.5 L 312 320.5 L 312 306.5 L 310 296.5 L 310.5 289 Z " /><path fill="rgb(233,233,233)" stroke="rgb(233,233,233)" stroke-width="1" opacity="1" d="M 95.5 290 L 94.5 292 L 95.5 290 Z " /><path fill="rgb(233,233,233)" stroke="rgb(233,233,233)" stroke-width="1" opacity="1" d="M 103.5 290 L 102.5 292 L 103.5 290 Z " /><path fill="rgb(233,233,233)" stroke="rgb(233,233,233)" stroke-width="1" opacity="1" d="M 144.5 293 L 143.5 295 L 144.5 293 Z " /><path fill="rgb(233,233,233)" stroke="rgb(233,233,233)" stroke-width="1" opacity="1" d="M 281.5 293 L 282.5 295 L 281.5 293 Z " /><path fill="rgb(233,233,233)" stroke="rgb(233,233,233)" stroke-width="1" opacity="1" d="M 289.5 293 L 290.5 295 L 289.5 293 Z " /><path fill="rgb(233,233,233)" stroke="rgb(233,233,233)" stroke-width="1" opacity="1" d="M 90.5 294 L 88.5 297 L 90.5 294 Z " /><path fill="rgb(233,233,233)" stroke="rgb(233,233,233)" stroke-width="1" opacity="1" d="M 98.5 294 L 97.5 296 L 98.5 294 Z " /><path fill="rgb(233,233,233)" stroke="rgb(233,233,233)" stroke-width="1" opacity="1" d="M 239.5 295 L 240.5 297 L 239.5 295 Z " /><path fill="rgb(233,233,233)" stroke="rgb(233,233,233)" stroke-width="1" opacity="1" d="M 140.5 296 L 139.5 298 L 140.5 296 Z " /><path fill="rgb(233,233,233)" stroke="rgb(233,233,233)" stroke-width="1" opacity="1" d="M 147.5 297 L 146.5 299 L 147.5 297 Z " /><path fill="rgb(233,233,233)" stroke="rgb(233,233,233)" stroke-width="1" opacity="1" d="M 286.5 297 L 287.5 299 L 286.5 297 Z " /><path fill="rgb(233,233,233)" stroke="rgb(233,233,233)" stroke-width="1" opacity="1" d="M 93.5 298 L 91.5 301 L 93.5 298 Z " /><path fill="rgb(233,233,233)" stroke="rgb(233,233,233)" stroke-width="1" opacity="1" d="M 295.5 298 L 298.5 302 L 295.5 298 Z " /><path fill="rgb(233,233,233)" stroke="rgb(233,233,233)" stroke-width="1" opacity="1" d="M 236.5 299 L 237.5 301 L 236.5 299 Z " /><path fill="rgb(233,233,233)" stroke="rgb(233,233,233)" stroke-width="1" opacity="1" d="M 244.5 299 L 247.5 303 L 244.5 299 Z " /><path fill="rgb(233,233,233)" stroke="rgb(233,233,233)" stroke-width="1" opacity="1" d="M 143.5 300 L 142.5 302 L 143.5 300 Z " /><path fill="rgb(233,233,233)" stroke="rgb(233,233,233)" stroke-width="1" opacity="1" d="M 134.5 301 L 124.5 312 L 134.5 301 Z " /><path fill="rgb(233,233,233)" stroke="rgb(233,233,233)" stroke-width="1" opacity="1" d="M 292.5 302 L 294.5 305 L 292.5 302 Z " /><path fill="rgb(233,233,233)" stroke="rgb(233,233,233)" stroke-width="1" opacity="1" d="M 241.5 303 L 244.5 307 L 241.5 303 Z " /><path fill="rgb(233,233,233)" stroke="rgb(233,233,233)" stroke-width="1" opacity="1" d="M 137.5 305 L 128.5 315 L 137.5 305 Z " /><path fill="rgb(233,233,233)" stroke="rgb(233,233,233)" stroke-width="1" opacity="1" d="M 256.5 311 L 258.5 314 L 256.5 311 Z " /><path fill="rgb(233,233,233)" stroke="rgb(233,233,233)" stroke-width="1" opacity="1" d="M 251.5 313 L 254.5 317 L 251.5 313 Z " /><path fill="rgb(233,233,233)" stroke="rgb(233,233,233)" stroke-width="1" opacity="1" d="M 408.5 315 L 420.5 319 L 433 330.5 Q 441.8 341.2 446 356.5 L 448 365.5 L 448 380.5 L 447 380.5 Q 442.1 370.9 433.5 365 Q 420.1 353.4 398 350.5 L 403.5 350 Q 419.1 353.6 430 361 L 429 351.5 L 425 339.5 L 420 329.5 L 408.5 315 Z " /><path fill="rgb(233,233,233)" stroke="rgb(233,233,233)" stroke-width="1" opacity="1" d="M 120.5 316 L 119.5 318 L 120.5 316 Z " /><path fill="rgb(233,233,233)" stroke="rgb(233,233,233)" stroke-width="1" opacity="1" d="M 261.5 317 L 262.5 319 L 261.5 317 Z " /><path fill="rgb(233,233,233)" stroke="rgb(233,233,233)" stroke-width="1" opacity="1" d="M 124.5 319 L 123.5 321 L 124.5 319 Z " /><path fill="rgb(233,233,233)" stroke="rgb(233,233,233)" stroke-width="1" opacity="1" d="M 117.5 320 L 112.5 326 L 117.5 320 Z " /><path fill="rgb(233,233,233)" stroke="rgb(233,233,233)" stroke-width="1" opacity="1" d="M 257.5 320 L 258.5 322 L 257.5 320 Z " /><path fill="rgb(233,233,233)" stroke="rgb(233,233,233)" stroke-width="1" opacity="1" d="M 120.5 324 L 116.5 329 L 120.5 324 Z " /><path fill="rgb(233,233,233)" stroke="rgb(233,233,233)" stroke-width="1" opacity="1" d="M 399.5 370 L 408.5 372 L 426 383 L 433 392.5 L 439 404.5 L 440 412.5 Q 431.4 428.4 418.5 440 L 406.5 449 L 406 446.5 L 406 436.5 L 403 426.5 L 404 426.5 L 405.5 429 Q 422 413.5 428 387.5 L 419.5 379 L 408.5 373 L 399.5 371 L 399.5 370 Z " /><path fill="rgb(233,233,233)" stroke="rgb(233,233,233)" stroke-width="1" opacity="1" d="M 387.5 400 Q 398.3 409.2 403 424.5 L 402 424.5 L 398 414.5 L 387.5 400 Z " /><path fill="rgb(233,233,233)" stroke="rgb(233,233,233)" stroke-width="1" opacity="1" d="M 375.5 416 Q 385.6 424.9 387 442.5 L 386 442.5 L 386 437.5 L 383 428.5 L 375.5 416 Z " /><path fill="rgb(233,233,233)" stroke="rgb(233,233,233)" stroke-width="1" opacity="1" d="M 372.5 417 L 370.5 420 L 372.5 417 Z " /><path fill="rgb(233,233,233)" stroke="rgb(233,233,233)" stroke-width="1" opacity="1" d="M 367.5 421 L 366.5 423 L 367.5 421 Z " /><path fill="rgb(233,233,233)" stroke="rgb(233,233,233)" stroke-width="1" opacity="1" d="M 348.5 431 L 349 449.5 L 348 449.5 L 348.5 431 Z " /><path fill="rgb(233,233,233)" stroke="rgb(233,233,233)" stroke-width="1" opacity="1" d="M 328.5 434 L 329 436.5 L 328 436.5 L 328.5 434 Z " /><path fill="rgb(233,233,233)" stroke="rgb(233,233,233)" stroke-width="1" opacity="1" d="M 328.5 444 L 329 449.5 L 328 449.5 L 328.5 444 Z " /><path fill="rgb(233,233,233)" stroke="rgb(233,233,233)" stroke-width="1" opacity="1" d="M 386.5 444 Q 389.1 446.4 388 452.5 Q 385.7 453.8 387 458.5 L 385.5 460 L 366.5 466 L 342.5 469 L 343 467.5 L 345 460 Q 370 456.9 386.5 444 Z " /><path fill="rgb(233,233,233)" stroke="rgb(233,233,233)" stroke-width="1" opacity="1" d="M 327.5 451 L 328 453.5 L 327 453.5 L 327.5 451 Z " /><path fill="rgb(233,233,233)" stroke="rgb(233,233,233)" stroke-width="1" opacity="1" d="M 347.5 451 L 348 455.5 L 346.5 459 L 346 456.5 L 347.5 451 Z " /><path fill="rgb(233,233,233)" stroke="rgb(233,233,233)" stroke-width="1" opacity="1" d="M 297.5 452 L 296.5 454 L 297.5 452 Z " /><path fill="rgb(233,233,233)" stroke="rgb(233,233,233)" stroke-width="1" opacity="1" d="M 326.5 455 L 327 457.5 L 320.5 468 L 300.5 466 L 289 462.5 L 294.5 462 L 295.5 463 L 306.5 463 L 307.5 464 L 323 464 L 326.5 455 Z " /><path fill="rgb(233,233,233)" stroke="rgb(233,233,233)" stroke-width="1" opacity="1" d="M 293.5 457 L 290.5 461 L 293.5 457 Z " /><path fill="rgb(103,98,96)" stroke="rgb(103,98,96)" stroke-width="1" opacity="0.9450980392156862" d="M 88.5 10 L 97.5 11 L 122.5 32 Q 123.9 34.6 128.5 34 L 150.5 27 L 169.5 25 L 170.5 24 L 209.5 24 L 210.5 25 L 218.5 25 L 219.5 26 L 230.5 27 L 252.5 34 L 256.5 34 L 285.5 10 L 292.5 10 L 295 11 L 297 15.5 L 297 71.5 L 302 95.5 L 303 116.5 L 304 117.5 L 303 120.5 L 303 130.5 L 297 151.5 Q 288.5 170 274 182.5 L 282 195.5 L 297 227.5 L 312 272.5 L 317 294.5 L 320 319.5 L 321 320.5 L 322 355.5 L 323 359.5 L 322 361.5 L 322 363.5 L 322 379.5 L 321 380.5 L 320 395.5 L 316 413.5 L 311 426.5 L 316.5 429 Q 324.7 427.3 328.5 430 L 329.5 429 L 338.5 429 L 354.5 424 Q 366.5 418.1 375 408.5 Q 383.2 399.2 388 386.5 L 392 371.5 L 393 357.5 L 389 334.5 L 389 324.5 L 394 314 Q 399 309.4 410.5 310 Q 427.4 314.1 436 326.5 Q 446 338.5 451 355.5 L 453 366.5 L 453 386.5 L 451 397.5 L 443 417.5 Q 434.6 432.1 422.5 443 L 419.5 445 L 403.5 457 L 378.5 468 L 354.5 473 L 325.5 474 L 324.5 473 L 306.5 472 L 283.5 467 L 280 469 Q 283.1 476 283 487.5 L 280 497 L 274.5 500 L 265.5 502 L 243.5 502 L 235.5 500 L 228 494.5 L 226 490.5 Q 227.3 483.7 225 480.5 L 226 476 L 156.5 476 L 156 476.5 L 156 488.5 Q 154.2 495.7 148.5 499 L 137.5 502 L 114.5 502 L 103.5 498 L 100 494.5 Q 97.2 488.3 99 477.5 L 101 469 L 95 466 L 93.5 463 Q 91.3 463.8 92 461.5 Q 82 453 76 440.5 L 71 430.5 L 64 408.5 L 60 386.5 L 60 376.5 L 59 375.5 L 59 335.5 L 60 334.5 L 60 324.5 L 61 323.5 L 64 296.5 L 72 262.5 Q 79.5 237 90 214.5 L 107 181.5 L 103 179 L 92 165.5 L 83 148.5 L 78 127.5 L 78 107.5 L 79 106.5 L 79 98.5 L 80 97.5 L 83 73.5 L 84 72.5 L 84 16.5 L 88.5 10 Z M 91 14 L 89 16 L 89 71 L 86 82 L 84 102 L 83 103 L 83 111 L 82 112 L 82 125 L 86 144 Q 91 158 100 169 L 117 183 L 120 188 Q 114 189 112 185 Q 90 219 77 262 L 67 305 L 65 326 L 64 327 L 64 338 L 63 339 L 63 373 L 64 374 L 64 384 L 65 385 L 67 402 L 75 428 Q 81 443 91 455 L 104 466 L 106 463 Q 105 458 107 457 Q 105 449 110 451 L 110 463 L 103 480 Q 102 488 104 493 L 110 496 L 119 498 L 135 498 L 147 495 Q 151 492 152 487 L 152 478 L 150 470 L 149 455 L 152 453 L 153 455 L 154 470 L 155 471 L 156 472 L 226 472 L 227 471 L 227 465 L 229 455 L 233 457 L 230 473 L 230 489 L 232 493 L 238 496 L 247 498 L 264 498 L 269 497 Q 275 496 278 492 L 278 479 L 272 465 L 271 453 L 274 451 L 275 453 L 276 465 L 278 466 L 280 465 Q 296 452 305 431 L 314 403 L 317 386 L 317 378 L 318 377 L 318 335 L 317 334 L 317 324 L 309 279 Q 295 226 271 185 L 269 185 L 263 189 L 261 187 L 269 181 Q 293 163 299 128 L 298 100 L 293 75 L 293 18 L 291 14 L 288 14 L 257 39 L 233 32 L 216 29 L 207 29 L 206 28 L 177 28 L 176 29 L 166 29 L 141 34 L 128 39 L 125 39 L 97 16 Q 95 13 91 14 Z M 407 314 L 400 316 L 395 321 L 393 329 L 397 352 L 397 368 L 394 383 Q 389 398 380 410 Q 371 420 359 427 L 346 432 L 335 434 L 321 434 L 310 431 Q 302 450 288 463 L 299 466 L 318 468 L 319 469 L 352 469 L 373 465 Q 397 458 415 444 Q 430 432 440 414 L 447 396 L 448 384 L 449 383 L 449 371 L 446 355 Q 441 339 431 328 Q 423 317 407 314 Z " /><path fill="rgb(103,98,96)" stroke="rgb(103,98,96)" stroke-width="1" opacity="0.9450980392156862" d="M 141.5 90 Q 148.8 88.8 150 93.5 Q 151.3 100.8 146.5 102 Q 141.1 102.6 139 101 Q 137.4 98.9 138 93.5 L 141.5 90 Z " /><path fill="rgb(103,98,96)" stroke="rgb(103,98,96)" stroke-width="1" opacity="0.9450980392156862" d="M 237.5 90 Q 244.8 88.8 246 93.5 Q 247.3 100.8 242.5 102 Q 237.1 102.6 235 101 Q 233.4 98.9 234 93.5 L 237.5 90 Z " /><path fill="rgb(103,98,96)" stroke="rgb(103,98,96)" stroke-width="1" opacity="0.9450980392156862" d="M 185.5 101 Q 195.8 99.2 200 103.5 L 201 109.5 Q 199.5 116.4 194.5 120 L 192 121.5 L 193 131.5 L 195.5 134 Q 199 136.5 206.5 135 L 208 136.5 L 207.5 139 L 196.5 139 L 190.5 135 L 184.5 139 L 173 139 L 174.5 135 L 184.5 135 L 188 131.5 L 189 121.5 L 185 119 L 181 111.5 L 181 104.5 L 185.5 101 Z " /><path fill="rgb(103,98,96)" stroke="rgb(103,98,96)" stroke-width="1" opacity="0.9450980392156862" d="M 124.5 120 L 149.5 127 L 156 130.5 Q 156.8 132.8 154.5 132 L 152.5 132 L 123 124 L 124.5 120 Z " /><path fill="rgb(103,98,96)" stroke="rgb(103,98,96)" stroke-width="1" opacity="0.9450980392156862" d="M 256.5 120 L 259 121.5 L 257.5 124 L 227.5 133 L 226 129 L 256.5 120 Z " /><path fill="rgb(103,98,96)" stroke="rgb(103,98,96)" stroke-width="1" opacity="0.9450980392156862" d="M 152.5 141 L 156 142.5 L 154.5 145 L 123 149 L 124.5 145 L 151.5 142 L 152.5 141 Z " /><path fill="rgb(103,98,96)" stroke="rgb(103,98,96)" stroke-width="1" opacity="0.9450980392156862" d="M 226 141 L 250.5 144 L 251.5 145 L 257.5 145 L 259 146.5 L 257.5 149 L 226 145 L 226 141 Z " /><path fill="rgb(103,98,96)" stroke="rgb(103,98,96)" stroke-width="1" opacity="0.9450980392156862" d="M 187.5 154 L 206.5 155 L 220.5 158 Q 235.1 162.9 244 173.5 Q 253.4 184.1 255 202.5 Q 250.3 206.3 249 213.5 Q 253.7 216.5 252 225 Q 257.3 224.4 260 228.5 Q 263.2 231.8 262 239.5 L 257.5 245 L 254 246 L 254 253.5 L 252 260.5 L 267.5 277 L 299 302.5 L 297.5 305 L 295.5 305 L 255 270.5 L 245.5 259 L 240.5 257 Q 229.5 261.5 223 270.5 L 218 278.5 L 218 281.5 L 224.5 289 L 235.5 293 L 259 314.5 L 271 330.5 L 268.5 332 L 245.5 306 L 234.5 297 L 222.5 292 L 215 284.5 L 214 278.5 L 216 274 L 206.5 274 L 205.5 275 L 174.5 275 L 173.5 274 L 165.5 274 L 166 275.5 L 167 283.5 L 160.5 291 L 145.5 298 L 124 318.5 L 113.5 332 Q 109.3 333.3 111 328.5 L 134.5 302 L 144.5 294 L 156.5 289 L 163 282.5 L 163 278.5 L 159 271.5 L 148.5 261 Q 145.6 256.9 137.5 258 L 132 262.5 L 118.5 278 L 85.5 305 L 83.5 305 Q 80.8 303.8 83 302.5 Q 82.3 300.3 84.5 301 L 111.5 279 L 126 264.5 L 129 260.5 L 129 257.5 Q 126 253.3 127 246 Q 122.3 245.6 120 241.5 Q 117.7 238.3 119 231.5 L 122.5 227 L 129 225 Q 127.4 216.3 133 213.5 Q 130.3 212.8 131 208.5 L 127 204.5 L 126 199.5 L 132 180.5 L 144.5 166 L 160.5 158 L 174.5 155 L 186.5 155 L 187.5 154 Z M 177 159 L 162 162 L 147 170 Q 135 179 131 196 Q 129 202 133 204 L 249 204 L 251 202 L 249 192 L 241 177 Q 232 165 216 161 L 205 159 L 177 159 Z M 135 208 L 135 210 L 141 214 L 150 216 L 159 215 L 157 210 L 156 208 L 135 208 Z M 161 208 L 161 210 L 167 214 L 176 216 L 185 215 L 183 211 L 183 208 L 161 208 Z M 187 208 L 187 210 L 193 214 L 203 216 L 211 215 L 213 214 L 210 210 L 210 208 L 187 208 Z M 215 208 L 215 211 L 221 214 L 230 216 L 238 215 L 245 212 L 247 209 L 215 208 Z M 190 217 L 179 220 L 168 218 L 160 218 L 153 220 L 135 218 Q 132 219 133 224 L 135 225 L 248 225 L 248 219 L 247 217 L 233 220 L 223 219 L 219 217 L 205 220 L 195 219 L 190 217 Z M 133 247 L 131 249 L 132 256 L 140 253 Q 155 257 162 269 L 163 270 L 219 270 L 220 268 Q 227 257 240 253 Q 246 253 249 256 L 250 249 L 249 247 L 133 247 Z " /><path fill="rgb(103,98,96)" stroke="rgb(103,98,96)" stroke-width="1" opacity="0.9450980392156862" d="M 205.5 164 L 208 165.5 L 208 167.5 L 203.5 172 L 201 170.5 L 201 168.5 L 205.5 164 Z " /><path fill="rgb(103,98,96)" stroke="rgb(103,98,96)" stroke-width="1" opacity="0.9450980392156862" d="M 173 166 Q 179.1 164.3 181 167.5 L 179.5 170 L 173 170 L 173 166 Z " /><path fill="rgb(103,98,96)" stroke="rgb(103,98,96)" stroke-width="1" opacity="0.9450980392156862" d="M 159.5 170 L 163 171.5 L 158.5 177 L 156 176 Q 155.3 171.3 159.5 170 Z " /><path fill="rgb(103,98,96)" stroke="rgb(103,98,96)" stroke-width="1" opacity="0.9450980392156862" d="M 188.5 171 L 191 172.5 Q 190.8 177.3 187.5 179 L 185 177.5 Q 185.3 172.8 188.5 171 Z " /><path fill="rgb(103,98,96)" stroke="rgb(103,98,96)" stroke-width="1" opacity="0.9450980392156862" d="M 216.5 172 L 222 173 Q 224.2 178.6 218.5 177 L 215 174.5 L 216.5 172 Z " /><path fill="rgb(234,234,234)" stroke="rgb(234,234,234)" stroke-width="1" opacity="1" d="M 90 15 Q 94.5 14.2 96.5 17 L 120.5 37 L 126.5 40 L 143.5 34 L 163.5 30 Q 169.8 31.8 171.5 29 L 209.5 29 L 210.5 30 L 218.5 30 L 229.5 32 L 256.5 40 L 287.5 15 L 290.5 15 L 292 16.5 L 292 72.5 L 296 89.5 L 297 103.5 L 298 104.5 L 298 115.5 L 299 116.5 L 298 117.5 L 298 129.5 L 293 147.5 Q 284.6 167.5 268.5 180 L 261 185.5 Q 259.3 190.8 264.5 189 L 268.5 186 L 271 186 L 291 226.5 L 306 269.5 L 310 288.5 L 310 296.5 L 312 306.5 L 313 347.5 L 312 348.5 L 312 361.5 L 311 362.5 L 310 375.5 L 306 393.5 L 301 408.5 Q 292.3 429.8 276.5 444 Q 270.7 449.2 261.5 451 L 119.5 451 L 107.5 446 L 94 432.5 L 83 414.5 L 74 388.5 L 70 366.5 L 70 358.5 L 69 357.5 L 69 309.5 L 70 308.5 L 70 299.5 L 71 298.5 L 71 290.5 L 72 289.5 L 73 278.5 L 84 242.5 Q 95.3 211.3 111.5 185 L 116.5 189 L 120 189 L 120 184 L 118.5 184 L 101 168.5 Q 91.3 157.2 86 141.5 L 83 127.5 L 83 107.5 L 84 106.5 L 86 85.5 L 89 73.5 L 89 17.5 L 90 15 Z M 143 89 L 137 94 L 138 101 Q 140 104 147 103 L 151 98 L 150 93 Q 149 88 143 89 Z M 239 89 L 234 91 L 233 94 L 234 101 Q 236 104 243 103 L 247 98 L 246 93 Q 245 88 239 89 Z M 187 100 L 180 105 Q 179 114 184 119 L 188 122 Q 189 128 187 132 L 183 135 L 174 135 L 172 137 L 173 140 Q 185 142 190 137 L 191 135 Q 194 142 208 140 L 209 137 L 208 135 L 197 134 L 193 130 L 193 122 L 195 121 L 201 112 Q 202 105 200 102 Q 196 99 187 100 Z M 122 120 L 122 124 L 127 126 L 152 133 Q 158 135 156 130 L 149 126 L 128 120 L 122 120 Z M 255 120 L 227 128 Q 224 129 225 133 L 231 133 L 238 130 L 258 125 L 259 124 Q 261 118 255 120 Z M 148 141 L 147 142 L 122 145 Q 121 149 124 150 L 155 146 L 156 145 L 156 141 L 148 141 Z M 225 141 L 225 145 L 228 146 L 258 150 Q 260 149 259 145 L 235 142 L 234 141 L 225 141 Z M 178 154 L 156 159 L 145 165 Q 130 176 126 197 L 126 205 L 130 209 L 132 214 L 129 217 L 128 222 L 129 224 L 123 226 L 118 233 L 119 242 L 127 247 L 126 249 L 127 256 L 129 260 L 125 265 L 112 278 L 82 301 Q 81 305 84 306 L 86 306 L 119 279 L 133 263 L 140 258 L 148 261 Q 159 268 163 282 L 156 289 L 145 293 L 135 301 L 112 326 Q 109 328 110 332 L 113 333 L 115 332 L 125 319 L 142 302 L 149 297 Q 157 296 162 291 L 168 283 L 167 275 L 215 276 L 214 277 L 214 285 L 223 293 Q 237 297 246 307 L 269 333 L 271 332 L 270 327 L 259 314 L 240 295 L 228 290 L 219 283 L 219 279 L 224 271 Q 230 262 240 258 L 245 259 L 254 271 Q 274 290 298 306 Q 300 305 299 302 L 269 277 L 252 260 L 255 252 L 255 248 L 258 246 L 263 239 Q 264 232 261 229 L 255 225 L 253 224 L 252 216 L 249 214 L 256 202 Q 254 184 245 174 Q 236 163 223 158 L 204 154 L 178 154 Z " /><path fill="rgb(234,234,234)" stroke="rgb(234,234,234)" stroke-width="1" opacity="1" d="M 403.5 315 L 407.5 315 L 414 321.5 Q 427.4 336.3 430 361 L 411.5 352 L 397 350 L 394 334.5 L 394 325.5 Q 395.3 319.8 399.5 317 L 403.5 315 Z " /><path fill="rgb(234,234,234)" stroke="rgb(234,234,234)" stroke-width="1" opacity="1" d="M 397 370 Q 417.1 373.6 428 387.5 Q 422 413.5 405.5 429 L 396 409.5 L 387 399.5 Q 395.3 387.7 397 370 Z " /><path fill="rgb(234,234,234)" stroke="rgb(234,234,234)" stroke-width="1" opacity="1" d="M 374.5 416 L 383 428.5 L 387 443.5 Q 371 456 346.5 460 L 347 458.5 L 349 449.5 L 349 431 Q 364.6 426.9 374.5 416 Z " /><path fill="rgb(234,234,234)" stroke="rgb(234,234,234)" stroke-width="1" opacity="1" d="M 309 432 Q 316.2 435.2 328 434 L 329 443.5 L 327 454.5 L 323 464 L 307.5 464 L 306.5 463 Q 296.3 464.2 290 461.5 Q 302.6 449.3 309 432 Z " /></svg>