<svg width="512" height="512" version="1.1" xmlns="http://www.w3.org/2000/svg" desc="Created with imagetracer.js version 1.2.6" ><path fill="rgb(0,0,0)" stroke="rgb(0,0,0)" stroke-width="1" opacity="0" d="M 0 0 L 512 0 L 512 512 L 0 512 L 0 0 Z M 88 8 L 83 13 L 83 71 L 79 88 L 78 101 L 77 102 L 77 112 L 76 113 L 77 130 L 83 151 Q 91 169 106 182 L 84 225 L 72 258 L 62 300 L 60 319 L 59 320 L 59 329 L 58 330 L 58 344 L 57 345 L 57 371 L 58 372 L 58 384 L 59 385 L 61 404 L 69 431 L 84 457 L 99 471 L 100 471 L 97 485 L 99 497 L 107 502 L 115 504 L 138 504 L 146 502 L 151 499 L 155 492 L 155 479 L 156 478 L 225 478 Q 224 489 227 496 L 232 500 L 243 504 L 266 504 L 280 499 L 283 491 L 283 483 L 280 471 L 284 469 L 289 469 L 309 474 L 334 475 L 335 476 Q 342 474 354 475 L 355 474 L 367 473 L 388 467 Q 408 459 424 445 Q 436 434 444 420 L 451 405 L 455 385 L 455 372 L 451 352 Q 446 337 437 327 Q 430 318 421 313 L 408 310 L 397 314 Q 391 318 390 326 L 390 335 L 394 356 Q 394 390 377 409 Q 363 426 336 431 L 321 431 L 311 429 L 316 417 L 320 400 L 321 387 L 322 386 L 322 376 L 323 375 L 323 341 L 322 340 L 322 328 L 320 318 L 320 310 L 314 279 L 301 237 L 290 211 L 274 182 L 289 166 L 297 152 L 302 137 L 303 125 L 304 124 L 304 110 L 303 109 L 302 93 L 297 69 L 297 13 L 296 11 L 293 8 L 286 8 L 256 33 L 230 25 L 219 24 L 218 23 L 210 23 L 209 22 L 172 22 L 163 24 L 156 24 L 132 30 L 126 33 L 105 16 Q 102 17 103 14 L 94 8 L 88 8 Z " /><path fill="rgb(225,216,214)" stroke="rgb(225,216,214)" stroke-width="1" opacity="1" d="M 89.5 12 Q 94.3 11.3 95 14.5 L 92.5 13 L 88.5 14 L 89.5 12 Z " /><path fill="rgb(225,216,214)" stroke="rgb(225,216,214)" stroke-width="1" opacity="1" d="M 286.5 13 L 284.5 16 L 286.5 13 Z " /><path fill="rgb(225,216,214)" stroke="rgb(225,216,214)" stroke-width="1" opacity="1" d="M 292.5 14 L 293 68.5 L 292 68.5 L 292.5 14 Z " /><path fill="rgb(225,216,214)" stroke="rgb(225,216,214)" stroke-width="1" opacity="1" d="M 87.5 15 L 88 69.5 L 87 69.5 L 87.5 15 Z " /><path fill="rgb(225,216,214)" stroke="rgb(225,216,214)" stroke-width="1" opacity="1" d="M 97.5 16 L 99.5 19 L 97.5 16 Z " /><path fill="rgb(225,216,214)" stroke="rgb(225,216,214)" stroke-width="1" opacity="1" d="M 281.5 17 L 279.5 20 L 281.5 17 Z " /><path fill="rgb(225,216,214)" stroke="rgb(225,216,214)" stroke-width="1" opacity="1" d="M 102.5 20 L 104.5 23 L 102.5 20 Z " /><path fill="rgb(225,216,214)" stroke="rgb(225,216,214)" stroke-width="1" opacity="1" d="M 276.5 21 L 274.5 24 L 276.5 21 Z " /><path fill="rgb(225,216,214)" stroke="rgb(225,216,214)" stroke-width="1" opacity="1" d="M 107.5 24 L 109.5 27 L 107.5 24 Z " /><path fill="rgb(225,216,214)" stroke="rgb(225,216,214)" stroke-width="1" opacity="1" d="M 271.5 25 L 269.5 28 L 271.5 25 Z " /><path fill="rgb(225,216,214)" stroke="rgb(225,216,214)" stroke-width="1" opacity="1" d="M 179.5 26 L 202 26.5 L 179.5 27 L 179.5 26 Z " /><path fill="rgb(225,216,214)" stroke="rgb(225,216,214)" stroke-width="1" opacity="1" d="M 166.5 27 L 171 27.5 L 166.5 28 L 166.5 27 Z " /><path fill="rgb(225,216,214)" stroke="rgb(225,216,214)" stroke-width="1" opacity="1" d="M 210.5 27 L 214 27.5 L 210.5 28 L 210.5 27 Z " /><path fill="rgb(225,216,214)" stroke="rgb(225,216,214)" stroke-width="1" opacity="1" d="M 112.5 28 L 114.5 31 L 112.5 28 Z " /><path fill="rgb(225,216,214)" stroke="rgb(225,216,214)" stroke-width="1" opacity="1" d="M 159.5 28 L 162 28.5 L 159.5 29 L 159.5 28 Z " /><path fill="rgb(225,216,214)" stroke="rgb(225,216,214)" stroke-width="1" opacity="1" d="M 218.5 28 L 221 28.5 L 218.5 29 L 218.5 28 Z " /><path fill="rgb(225,216,214)" stroke="rgb(225,216,214)" stroke-width="1" opacity="1" d="M 153.5 29 L 156 29.5 L 153.5 30 L 153.5 29 Z " /><path fill="rgb(225,216,214)" stroke="rgb(225,216,214)" stroke-width="1" opacity="1" d="M 266.5 29 L 264.5 32 L 266.5 29 Z " /><path fill="rgb(225,216,214)" stroke="rgb(225,216,214)" stroke-width="1" opacity="1" d="M 148.5 30 L 151 30.5 L 148.5 31 L 148.5 30 Z " /><path fill="rgb(225,216,214)" stroke="rgb(225,216,214)" stroke-width="1" opacity="1" d="M 117.5 32 L 119.5 35 L 117.5 32 Z " /><path fill="rgb(225,216,214)" stroke="rgb(225,216,214)" stroke-width="1" opacity="1" d="M 261.5 33 L 259.5 36 L 261.5 33 Z " /><path fill="rgb(225,216,214)" stroke="rgb(225,216,214)" stroke-width="1" opacity="1" d="M 122.5 36 L 126 37.5 L 123.5 38 L 122.5 36 Z " /><path fill="rgb(225,216,214)" stroke="rgb(225,216,214)" stroke-width="1" opacity="1" d="M 254.5 37 L 257 37.5 L 254.5 38 L 254.5 37 Z " /><path fill="rgb(225,216,214)" stroke="rgb(225,216,214)" stroke-width="1" opacity="1" d="M 85.5 78 L 86 80.5 L 85 80.5 L 85.5 78 Z " /><path fill="rgb(225,216,214)" stroke="rgb(225,216,214)" stroke-width="1" opacity="1" d="M 295.5 82 L 296 84.5 L 295 84.5 L 295.5 82 Z " /><path fill="rgb(225,216,214)" stroke="rgb(225,216,214)" stroke-width="1" opacity="1" d="M 84.5 84 L 85 86.5 L 84 86.5 L 84.5 84 Z " /><path fill="rgb(225,216,214)" stroke="rgb(225,216,214)" stroke-width="1" opacity="1" d="M 296.5 88 L 297 91.5 L 296 91.5 L 296.5 88 Z " /><path fill="rgb(225,216,214)" stroke="rgb(225,216,214)" stroke-width="1" opacity="1" d="M 83.5 90 L 84 93.5 L 83 93.5 L 83.5 90 Z " /><path fill="rgb(225,216,214)" stroke="rgb(225,216,214)" stroke-width="1" opacity="1" d="M 140.5 94 L 144 94.5 L 140.5 95 L 140.5 94 Z " /><path fill="rgb(225,216,214)" stroke="rgb(225,216,214)" stroke-width="1" opacity="1" d="M 236.5 94 L 240 94.5 L 236.5 95 L 236.5 94 Z " /><path fill="rgb(225,216,214)" stroke="rgb(225,216,214)" stroke-width="1" opacity="1" d="M 145.5 95 L 147.5 98 L 145.5 95 Z " /><path fill="rgb(225,216,214)" stroke="rgb(225,216,214)" stroke-width="1" opacity="1" d="M 234.5 95 L 233.5 97 L 234.5 95 Z " /><path fill="rgb(225,216,214)" stroke="rgb(225,216,214)" stroke-width="1" opacity="1" d="M 297.5 96 L 298 98.5 L 297 98.5 L 297.5 96 Z " /><path fill="rgb(225,216,214)" stroke="rgb(225,216,214)" stroke-width="1" opacity="1" d="M 82.5 97 L 83 100.5 L 82 100.5 L 82.5 97 Z " /><path fill="rgb(225,216,214)" stroke="rgb(225,216,214)" stroke-width="1" opacity="1" d="M 232.5 103 L 235 106.5 L 232 104.5 L 232.5 103 Z " /><path fill="rgb(225,216,214)" stroke="rgb(225,216,214)" stroke-width="1" opacity="1" d="M 147.5 104 L 145.5 107 L 147.5 104 Z " /><path fill="rgb(225,216,214)" stroke="rgb(225,216,214)" stroke-width="1" opacity="1" d="M 298.5 104 L 299 107.5 L 298 107.5 L 298.5 104 Z " /><path fill="rgb(225,216,214)" stroke="rgb(225,216,214)" stroke-width="1" opacity="1" d="M 243.5 105 L 242.5 107 L 243.5 105 Z " /><path fill="rgb(225,216,214)" stroke="rgb(225,216,214)" stroke-width="1" opacity="1" d="M 81.5 106 L 82 110.5 L 81 110.5 L 81.5 106 Z " /><path fill="rgb(225,216,214)" stroke="rgb(225,216,214)" stroke-width="1" opacity="1" d="M 139.5 107 L 144 107.5 L 139.5 108 L 139.5 107 Z " /><path fill="rgb(225,216,214)" stroke="rgb(225,216,214)" stroke-width="1" opacity="1" d="M 185.5 107 L 195 107.5 L 185.5 108 L 185.5 107 Z " /><path fill="rgb(225,216,214)" stroke="rgb(225,216,214)" stroke-width="1" opacity="1" d="M 236.5 107 L 241 107.5 L 236.5 108 L 236.5 107 Z " /><path fill="rgb(225,216,214)" stroke="rgb(225,216,214)" stroke-width="1" opacity="1" d="M 182.5 108 L 184 108.5 L 180.5 111 L 182.5 108 Z " /><path fill="rgb(225,216,214)" stroke="rgb(225,216,214)" stroke-width="1" opacity="1" d="M 197.5 108 L 199.5 111 L 197.5 108 Z " /><path fill="rgb(225,216,214)" stroke="rgb(225,216,214)" stroke-width="1" opacity="1" d="M 200.5 112 L 201 116.5 L 200 116.5 L 200.5 112 Z " /><path fill="rgb(225,216,214)" stroke="rgb(225,216,214)" stroke-width="1" opacity="1" d="M 81.5 122 L 82 126.5 L 81 126.5 L 81.5 122 Z " /><path fill="rgb(225,216,214)" stroke="rgb(225,216,214)" stroke-width="1" opacity="1" d="M 182.5 123 L 185.5 127 L 182.5 123 Z " /><path fill="rgb(225,216,214)" stroke="rgb(225,216,214)" stroke-width="1" opacity="1" d="M 197.5 123 L 193.5 128 L 197.5 123 Z " /><path fill="rgb(225,216,214)" stroke="rgb(225,216,214)" stroke-width="1" opacity="1" d="M 298.5 125 L 299 128.5 L 298 128.5 L 298.5 125 Z " /><path fill="rgb(225,216,214)" stroke="rgb(225,216,214)" stroke-width="1" opacity="1" d="M 122.5 127 L 121.5 129 L 122.5 127 Z " /><path fill="rgb(225,216,214)" stroke="rgb(225,216,214)" stroke-width="1" opacity="1" d="M 258.5 130 L 257.5 132 L 256 131.5 L 258.5 130 Z " /><path fill="rgb(225,216,214)" stroke="rgb(225,216,214)" stroke-width="1" opacity="1" d="M 192.5 134 L 194 138.5 L 192 137.5 L 192.5 134 Z " /><path fill="rgb(225,216,214)" stroke="rgb(225,216,214)" stroke-width="1" opacity="1" d="M 226.5 135 L 228 135.5 L 225.5 137 L 226.5 135 Z " /><path fill="rgb(225,216,214)" stroke="rgb(225,216,214)" stroke-width="1" opacity="1" d="M 189.5 142 L 193 144.5 L 190.5 143 L 187.5 145 L 189.5 142 Z " /><path fill="rgb(225,216,214)" stroke="rgb(225,216,214)" stroke-width="1" opacity="1" d="M 172.5 145 L 173.5 146 L 183 146.5 L 173.5 147 L 172.5 145 Z " /><path fill="rgb(225,216,214)" stroke="rgb(225,216,214)" stroke-width="1" opacity="1" d="M 207.5 145 L 206.5 147 L 197 146.5 L 206.5 146 L 207.5 145 Z " /><path fill="rgb(225,216,214)" stroke="rgb(225,216,214)" stroke-width="1" opacity="1" d="M 148.5 148 L 151 148.5 L 148.5 149 L 148.5 148 Z " /><path fill="rgb(225,216,214)" stroke="rgb(225,216,214)" stroke-width="1" opacity="1" d="M 229.5 148 L 232 148.5 L 229.5 149 L 229.5 148 Z " /><path fill="rgb(225,216,214)" stroke="rgb(225,216,214)" stroke-width="1" opacity="1" d="M 141.5 149 L 144 149.5 L 141.5 150 L 141.5 149 Z " /><path fill="rgb(225,216,214)" stroke="rgb(225,216,214)" stroke-width="1" opacity="1" d="M 236.5 149 L 240 149.5 L 236.5 150 L 236.5 149 Z " /><path fill="rgb(225,216,214)" stroke="rgb(225,216,214)" stroke-width="1" opacity="1" d="M 134.5 150 L 137 150.5 L 134.5 151 L 134.5 150 Z " /><path fill="rgb(225,216,214)" stroke="rgb(225,216,214)" stroke-width="1" opacity="1" d="M 243.5 150 L 247 150.5 L 243.5 151 L 243.5 150 Z " /><path fill="rgb(225,216,214)" stroke="rgb(225,216,214)" stroke-width="1" opacity="1" d="M 291.5 150 L 292 151.5 L 289.5 155 L 290 153.5 L 291.5 150 Z " /><path fill="rgb(225,216,214)" stroke="rgb(225,216,214)" stroke-width="1" opacity="1" d="M 126.5 151 L 130 151.5 L 126.5 152 L 126.5 151 Z " /><path fill="rgb(225,216,214)" stroke="rgb(225,216,214)" stroke-width="1" opacity="1" d="M 154.5 151 L 153.5 153 L 151 152.5 L 154.5 151 Z " /><path fill="rgb(225,216,214)" stroke="rgb(225,216,214)" stroke-width="1" opacity="1" d="M 225.5 151 L 229 152.5 L 226.5 153 L 225.5 151 Z " /><path fill="rgb(225,216,214)" stroke="rgb(225,216,214)" stroke-width="1" opacity="1" d="M 250.5 151 L 254 151.5 L 250.5 152 L 250.5 151 Z " /><path fill="rgb(225,216,214)" stroke="rgb(225,216,214)" stroke-width="1" opacity="1" d="M 122.5 152 L 121.5 154 L 122.5 152 Z " /><path fill="rgb(225,216,214)" stroke="rgb(225,216,214)" stroke-width="1" opacity="1" d="M 144.5 153 L 147 153.5 L 144.5 154 L 144.5 153 Z " /><path fill="rgb(225,216,214)" stroke="rgb(225,216,214)" stroke-width="1" opacity="1" d="M 233.5 153 L 236 153.5 L 233.5 154 L 233.5 153 Z " /><path fill="rgb(225,216,214)" stroke="rgb(225,216,214)" stroke-width="1" opacity="1" d="M 137.5 154 L 140 154.5 L 137.5 155 L 137.5 154 Z " /><path fill="rgb(225,216,214)" stroke="rgb(225,216,214)" stroke-width="1" opacity="1" d="M 240.5 154 L 243 154.5 L 240.5 155 L 240.5 154 Z " /><path fill="rgb(225,216,214)" stroke="rgb(225,216,214)" stroke-width="1" opacity="1" d="M 121.5 155 L 126 156.5 L 122.5 157 L 121.5 155 Z " /><path fill="rgb(225,216,214)" stroke="rgb(225,216,214)" stroke-width="1" opacity="1" d="M 130.5 155 L 133 155.5 L 130.5 156 L 130.5 155 Z " /><path fill="rgb(225,216,214)" stroke="rgb(225,216,214)" stroke-width="1" opacity="1" d="M 247.5 155 L 251 155.5 L 247.5 156 L 247.5 155 Z " /><path fill="rgb(225,216,214)" stroke="rgb(225,216,214)" stroke-width="1" opacity="1" d="M 258.5 155 L 257.5 157 L 254 156.5 L 258.5 155 Z " /><path fill="rgb(225,216,214)" stroke="rgb(225,216,214)" stroke-width="1" opacity="1" d="M 91.5 156 L 92.5 158 L 91.5 156 Z " /><path fill="rgb(225,216,214)" stroke="rgb(225,216,214)" stroke-width="1" opacity="1" d="M 287.5 158 L 286.5 160 L 287.5 158 Z " /><path fill="rgb(225,216,214)" stroke="rgb(225,216,214)" stroke-width="1" opacity="1" d="M 94.5 161 L 95.5 163 L 94.5 161 Z " /><path fill="rgb(225,216,214)" stroke="rgb(225,216,214)" stroke-width="1" opacity="1" d="M 285.5 161 L 284.5 163 L 285.5 161 Z " /><path fill="rgb(225,216,214)" stroke="rgb(225,216,214)" stroke-width="1" opacity="1" d="M 283.5 164 L 281.5 167 L 283.5 164 Z " /><path fill="rgb(225,216,214)" stroke="rgb(225,216,214)" stroke-width="1" opacity="1" d="M 97.5 165 L 99.5 168 L 97.5 165 Z " /><path fill="rgb(225,216,214)" stroke="rgb(225,216,214)" stroke-width="1" opacity="1" d="M 279.5 169 L 271.5 178 L 279.5 169 Z " /><path fill="rgb(225,216,214)" stroke="rgb(225,216,214)" stroke-width="1" opacity="1" d="M 102.5 171 L 105.5 175 L 102.5 171 Z " /><path fill="rgb(225,216,214)" stroke="rgb(225,216,214)" stroke-width="1" opacity="1" d="M 110.5 178 L 112.5 181 L 110.5 178 Z " /><path fill="rgb(225,216,214)" stroke="rgb(225,216,214)" stroke-width="1" opacity="1" d="M 268.5 179 L 266.5 182 L 268.5 179 Z " /><path fill="rgb(225,216,214)" stroke="rgb(225,216,214)" stroke-width="1" opacity="1" d="M 114.5 181 L 115.5 183 L 114.5 181 Z " /><path fill="rgb(225,216,214)" stroke="rgb(225,216,214)" stroke-width="1" opacity="1" d="M 264.5 182 L 263.5 184 L 264.5 182 Z " /><path fill="rgb(225,216,214)" stroke="rgb(225,216,214)" stroke-width="1" opacity="1" d="M 117.5 183 L 118.5 185 L 117.5 183 Z " /><path fill="rgb(225,216,214)" stroke="rgb(225,216,214)" stroke-width="1" opacity="1" d="M 110.5 184 L 108.5 187 L 110.5 184 Z " /><path fill="rgb(225,216,214)" stroke="rgb(225,216,214)" stroke-width="1" opacity="1" d="M 269.5 184 L 271 184.5 L 268.5 186 L 269.5 184 Z " /><path fill="rgb(225,216,214)" stroke="rgb(225,216,214)" stroke-width="1" opacity="1" d="M 112.5 185 L 113.5 187 L 112.5 185 Z " /><path fill="rgb(225,216,214)" stroke="rgb(225,216,214)" stroke-width="1" opacity="1" d="M 266.5 186 L 265.5 188 L 266.5 186 Z " /><path fill="rgb(225,216,214)" stroke="rgb(225,216,214)" stroke-width="1" opacity="1" d="M 261.5 187 L 264 188.5 L 262.5 189 L 261.5 187 Z " /><path fill="rgb(225,216,214)" stroke="rgb(225,216,214)" stroke-width="1" opacity="1" d="M 104.5 194 L 103.5 196 L 104.5 194 Z " /><path fill="rgb(225,216,214)" stroke="rgb(225,216,214)" stroke-width="1" opacity="1" d="M 281.5 205 L 283 207.5 L 282 207.5 L 281.5 205 Z " /><path fill="rgb(225,216,214)" stroke="rgb(225,216,214)" stroke-width="1" opacity="1" d="M 239.5 206 L 242 206.5 L 239.5 207 L 239.5 206 Z " /><path fill="rgb(225,216,214)" stroke="rgb(225,216,214)" stroke-width="1" opacity="1" d="M 248.5 207 L 249.5 209 L 248.5 207 Z " /><path fill="rgb(225,216,214)" stroke="rgb(225,216,214)" stroke-width="1" opacity="1" d="M 251.5 209 L 263 209.5 L 251.5 210 L 251.5 209 Z " /><path fill="rgb(225,216,214)" stroke="rgb(225,216,214)" stroke-width="1" opacity="1" d="M 212.5 210 L 230 210.5 L 212.5 211 L 212.5 210 Z " /><path fill="rgb(225,216,214)" stroke="rgb(225,216,214)" stroke-width="1" opacity="1" d="M 241.5 210 L 244 210.5 L 241.5 211 L 241.5 210 Z " /><path fill="rgb(225,216,214)" stroke="rgb(225,216,214)" stroke-width="1" opacity="1" d="M 265.5 210 L 268.5 214 L 265.5 210 Z " /><path fill="rgb(225,216,214)" stroke="rgb(225,216,214)" stroke-width="1" opacity="1" d="M 143.5 211 L 193 211.5 L 143.5 212 L 143.5 211 Z " /><path fill="rgb(225,216,214)" stroke="rgb(225,216,214)" stroke-width="1" opacity="1" d="M 246.5 211 L 247.5 213 L 246.5 211 Z " /><path fill="rgb(225,216,214)" stroke="rgb(225,216,214)" stroke-width="1" opacity="1" d="M 141.5 213 L 142 216.5 L 141 216.5 L 141.5 213 Z " /><path fill="rgb(225,216,214)" stroke="rgb(225,216,214)" stroke-width="1" opacity="1" d="M 249.5 214 L 251.5 217 L 249.5 214 Z " /><path fill="rgb(225,216,214)" stroke="rgb(225,216,214)" stroke-width="1" opacity="1" d="M 255.5 214 L 263.5 214 L 265 215.5 Q 266 220 263.5 221 Q 259 222 258 219.5 L 255.5 214 Z " /><path fill="rgb(225,216,214)" stroke="rgb(225,216,214)" stroke-width="1" opacity="1" d="M 193.5 215 L 223 215.5 L 217.5 220 L 193.5 220 L 192 216.5 L 193.5 215 Z " /><path fill="rgb(225,216,214)" stroke="rgb(225,216,214)" stroke-width="1" opacity="1" d="M 230.5 215 L 229.5 217 L 230.5 215 Z " /><path fill="rgb(225,216,214)" stroke="rgb(225,216,214)" stroke-width="1" opacity="1" d="M 146 216 L 187.5 216 L 188 218.5 L 183.5 225 Q 177.2 232.2 162.5 231 Q 152.5 229 148 221.5 L 146 216 Z " /><path fill="rgb(225,216,214)" stroke="rgb(225,216,214)" stroke-width="1" opacity="1" d="M 269.5 216 L 270 218.5 L 269 218.5 L 269.5 216 Z " /><path fill="rgb(225,216,214)" stroke="rgb(225,216,214)" stroke-width="1" opacity="1" d="M 227.5 217 L 226.5 219 L 227.5 217 Z " /><path fill="rgb(225,216,214)" stroke="rgb(225,216,214)" stroke-width="1" opacity="1" d="M 223.5 220 L 215.5 229 L 223.5 220 Z " /><path fill="rgb(225,216,214)" stroke="rgb(225,216,214)" stroke-width="1" opacity="1" d="M 143.5 221 L 145 223.5 L 143 222.5 L 143.5 221 Z " /><path fill="rgb(225,216,214)" stroke="rgb(225,216,214)" stroke-width="1" opacity="1" d="M 254.5 221 L 255.5 223 L 254.5 221 Z " /><path fill="rgb(225,216,214)" stroke="rgb(225,216,214)" stroke-width="1" opacity="1" d="M 268.5 221 L 265.5 225 L 268.5 221 Z " /><path fill="rgb(225,216,214)" stroke="rgb(225,216,214)" stroke-width="1" opacity="1" d="M 190.5 223 L 193 223.5 L 190.5 224 L 183.5 231 L 190.5 223 Z " /><path fill="rgb(225,216,214)" stroke="rgb(225,216,214)" stroke-width="1" opacity="1" d="M 213.5 224 L 211.5 227 L 213.5 224 Z " /><path fill="rgb(225,216,214)" stroke="rgb(225,216,214)" stroke-width="1" opacity="1" d="M 145.5 225 L 149.5 230 L 145.5 225 Z " /><path fill="rgb(225,216,214)" stroke="rgb(225,216,214)" stroke-width="1" opacity="1" d="M 262.5 225 L 264 227.5 L 262 226.5 L 262.5 225 Z " /><path fill="rgb(225,216,214)" stroke="rgb(225,216,214)" stroke-width="1" opacity="1" d="M 258.5 228 L 259.5 230 L 258.5 228 Z " /><path fill="rgb(225,216,214)" stroke="rgb(225,216,214)" stroke-width="1" opacity="1" d="M 264.5 229 L 266.5 232 L 264.5 229 Z " /><path fill="rgb(225,216,214)" stroke="rgb(225,216,214)" stroke-width="1" opacity="1" d="M 260.5 231 L 262.5 234 L 260.5 231 Z " /><path fill="rgb(225,216,214)" stroke="rgb(225,216,214)" stroke-width="1" opacity="1" d="M 159.5 234 L 162 234.5 L 159.5 235 L 159.5 234 Z " /><path fill="rgb(225,216,214)" stroke="rgb(225,216,214)" stroke-width="1" opacity="1" d="M 268.5 234 L 270.5 237 L 268.5 234 Z " /><path fill="rgb(225,216,214)" stroke="rgb(225,216,214)" stroke-width="1" opacity="1" d="M 263.5 235 L 266.5 239 L 263.5 235 Z " /><path fill="rgb(225,216,214)" stroke="rgb(225,216,214)" stroke-width="1" opacity="1" d="M 215.5 239 L 217.5 242 L 215.5 239 Z " /><path fill="rgb(225,216,214)" stroke="rgb(225,216,214)" stroke-width="1" opacity="1" d="M 272.5 239 L 276.5 244 L 272.5 239 Z " /><path fill="rgb(225,216,214)" stroke="rgb(225,216,214)" stroke-width="1" opacity="1" d="M 267.5 240 L 271.5 245 L 267.5 240 Z " /><path fill="rgb(225,216,214)" stroke="rgb(225,216,214)" stroke-width="1" opacity="1" d="M 211.5 241 L 213 244 L 104 243.5 L 212 242.5 L 211.5 241 Z " /><path fill="rgb(225,216,214)" stroke="rgb(225,216,214)" stroke-width="1" opacity="1" d="M 101.5 244 L 100.5 246 L 101.5 244 Z " /><path fill="rgb(225,216,214)" stroke="rgb(225,216,214)" stroke-width="1" opacity="1" d="M 221.5 245 L 222.5 247 L 221.5 245 Z " /><path fill="rgb(225,216,214)" stroke="rgb(225,216,214)" stroke-width="1" opacity="1" d="M 98.5 247 L 97.5 249 L 98.5 247 Z " /><path fill="rgb(225,216,214)" stroke="rgb(225,216,214)" stroke-width="1" opacity="1" d="M 224.5 247 L 225.5 249 L 224.5 247 Z " /><path fill="rgb(225,216,214)" stroke="rgb(225,216,214)" stroke-width="1" opacity="1" d="M 103.5 248 L 139.5 248 L 140 248.5 L 140 258 L 103.5 258 L 101 255.5 Q 99.8 249.3 103.5 248 Z " /><path fill="rgb(225,216,214)" stroke="rgb(225,216,214)" stroke-width="1" opacity="1" d="M 194 248 L 217.5 248 L 231 257.5 L 194 258 L 194 248 Z " /><path fill="rgb(225,216,214)" stroke="rgb(225,216,214)" stroke-width="1" opacity="1" d="M 274.5 248 L 282.5 257 L 274.5 248 Z " /><path fill="rgb(225,216,214)" stroke="rgb(225,216,214)" stroke-width="1" opacity="1" d="M 281.5 249 L 289.5 258 L 281.5 249 Z " /><path fill="rgb(225,216,214)" stroke="rgb(225,216,214)" stroke-width="1" opacity="1" d="M 230.5 250 L 235.5 256 L 230.5 250 Z " /><path fill="rgb(225,216,214)" stroke="rgb(225,216,214)" stroke-width="1" opacity="1" d="M 96.5 251 L 97 254.5 L 96 254.5 L 96.5 251 Z " /><path fill="rgb(225,216,214)" stroke="rgb(225,216,214)" stroke-width="1" opacity="1" d="M 161.5 252 L 159.5 255 L 161.5 252 Z " /><path fill="rgb(225,216,214)" stroke="rgb(225,216,214)" stroke-width="1" opacity="1" d="M 172.5 252 L 174.5 255 L 172.5 252 Z " /><path fill="rgb(225,216,214)" stroke="rgb(225,216,214)" stroke-width="1" opacity="1" d="M 165.5 255 Q 170.6 254.4 172 257.5 L 162.5 258 L 163.5 256 L 165.5 255 Z " /><path fill="rgb(225,216,214)" stroke="rgb(225,216,214)" stroke-width="1" opacity="1" d="M 97.5 257 L 98.5 259 L 97.5 257 Z " /><path fill="rgb(225,216,214)" stroke="rgb(225,216,214)" stroke-width="1" opacity="1" d="M 157.5 258 L 158 267.5 L 157 267.5 L 157.5 258 Z " /><path fill="rgb(225,216,214)" stroke="rgb(225,216,214)" stroke-width="1" opacity="1" d="M 176.5 258 L 177 281.5 L 176 281.5 L 176.5 258 Z " /><path fill="rgb(225,216,214)" stroke="rgb(225,216,214)" stroke-width="1" opacity="1" d="M 238.5 259 L 242.5 264 L 238.5 259 Z " /><path fill="rgb(225,216,214)" stroke="rgb(225,216,214)" stroke-width="1" opacity="1" d="M 100.5 260 L 103 261.5 L 101.5 262 L 100.5 260 Z " /><path fill="rgb(225,216,214)" stroke="rgb(225,216,214)" stroke-width="1" opacity="1" d="M 286.5 261 L 292.5 268 L 286.5 261 Z " /><path fill="rgb(225,216,214)" stroke="rgb(225,216,214)" stroke-width="1" opacity="1" d="M 292.5 261 L 297.5 267 L 292.5 261 Z " /><path fill="rgb(225,216,214)" stroke="rgb(225,216,214)" stroke-width="1" opacity="1" d="M 104.5 262 L 107 263.5 L 106.5 267 L 106 263 L 104.5 262 Z " /><path fill="rgb(225,216,214)" stroke="rgb(225,216,214)" stroke-width="1" opacity="1" d="M 111 262 L 139.5 262 L 140 262.5 L 140 270.5 L 144.5 276 L 151.5 278 Q 157.3 276.8 160 272.5 Q 162.9 268.6 162 262 L 172 262 L 172 281.5 Q 173.3 287.3 177.5 290 L 183.5 292 Q 190.1 291.1 193 286.5 L 194 284.5 L 194 262 L 235.5 262 L 238 264.5 L 243 271.5 L 243 275.5 Q 237 298.5 221.5 312 L 203.5 323 L 188.5 327 L 179 327 Q 180.8 321.8 180 312.5 Q 178.6 306.4 173.5 304 L 144.5 296 L 115 283 L 111 269.5 L 111 262 Z " /><path fill="rgb(225,216,214)" stroke="rgb(225,216,214)" stroke-width="1" opacity="1" d="M 243.5 265 L 245.5 268 L 243.5 265 Z " /><path fill="rgb(225,216,214)" stroke="rgb(225,216,214)" stroke-width="1" opacity="1" d="M 299.5 269 L 301.5 272 L 299.5 269 Z " /><path fill="rgb(225,216,214)" stroke="rgb(225,216,214)" stroke-width="1" opacity="1" d="M 107.5 270 L 108 272.5 L 107 272.5 L 107.5 270 Z " /><path fill="rgb(225,216,214)" stroke="rgb(225,216,214)" stroke-width="1" opacity="1" d="M 247.5 270 L 248.5 272 L 247.5 270 Z " /><path fill="rgb(225,216,214)" stroke="rgb(225,216,214)" stroke-width="1" opacity="1" d="M 294.5 270 L 297.5 274 L 294.5 270 Z " /><path fill="rgb(225,216,214)" stroke="rgb(225,216,214)" stroke-width="1" opacity="1" d="M 92.5 273 L 92 274.5 L 93 277.5 L 91 276.5 L 92.5 273 Z " /><path fill="rgb(225,216,214)" stroke="rgb(225,216,214)" stroke-width="1" opacity="1" d="M 149.5 273 L 152 273.5 L 149.5 274 L 149.5 273 Z " /><path fill="rgb(225,216,214)" stroke="rgb(225,216,214)" stroke-width="1" opacity="1" d="M 249.5 273 L 250.5 275 L 249.5 273 Z " /><path fill="rgb(225,216,214)" stroke="rgb(225,216,214)" stroke-width="1" opacity="1" d="M 302.5 275 L 301.5 277 L 300 276.5 L 302.5 275 Z " /><path fill="rgb(225,216,214)" stroke="rgb(225,216,214)" stroke-width="1" opacity="1" d="M 251.5 276 L 252.5 278 L 251.5 276 Z " /><path fill="rgb(225,216,214)" stroke="rgb(225,216,214)" stroke-width="1" opacity="1" d="M 246.5 277 L 248.5 280 L 246 279 L 246.5 277 Z " /><path fill="rgb(225,216,214)" stroke="rgb(225,216,214)" stroke-width="1" opacity="1" d="M 254.5 281 L 255.5 283 L 254.5 281 Z " /><path fill="rgb(225,216,214)" stroke="rgb(225,216,214)" stroke-width="1" opacity="1" d="M 189.5 283 L 186.5 287 L 189.5 283 Z " /><path fill="rgb(225,216,214)" stroke="rgb(225,216,214)" stroke-width="1" opacity="1" d="M 310.5 285 L 311 287.5 L 310 287.5 L 310.5 285 Z " /><path fill="rgb(225,216,214)" stroke="rgb(225,216,214)" stroke-width="1" opacity="1" d="M 258.5 288 L 259.5 290 L 258.5 288 Z " /><path fill="rgb(225,216,214)" stroke="rgb(225,216,214)" stroke-width="1" opacity="1" d="M 254.5 290 L 255.5 292 L 254.5 290 Z " /><path fill="rgb(225,216,214)" stroke="rgb(225,216,214)" stroke-width="1" opacity="1" d="M 311.5 290 L 315 306.5 L 317 328.5 L 318 329.5 L 319 369.5 L 318 370.5 L 318 382.5 L 317 383.5 L 315 401.5 L 306 430.5 Q 296.8 452.8 279.5 467 L 277.5 468 Q 273.8 462.5 275 453 L 271 453 L 271 462.5 L 278 479.5 L 278 493.5 L 268.5 499 L 247.5 500 L 237.5 498 L 231 493.5 L 230 491.5 L 230 472.5 L 233 458.5 Q 230.5 453.5 228 458.5 L 227 471.5 L 225.5 473 L 154.5 473 L 154 471.5 L 153 470.5 L 153 460.5 L 152 455 L 148 456.5 L 149 470.5 L 151 478.5 L 151 488.5 L 150 492.5 L 146.5 496 L 133.5 500 L 117.5 500 L 108.5 498 L 103 494.5 L 102 492.5 L 102 480.5 L 109 463.5 L 109 453 L 105 454.5 Q 106.3 463.8 102.5 468 L 90 456.5 Q 75 438.5 68 412.5 L 62 379.5 L 61 348.5 L 62 347.5 L 62 332.5 L 63 331.5 L 64 314.5 L 68.5 291 L 69 297.5 L 68 298.5 L 67 323.5 L 66 324.5 L 66 346.5 L 67 347.5 L 67 360.5 L 68 361.5 L 70 381.5 L 77 406.5 Q 85.9 431.6 104.5 447 L 111.5 451 L 124.5 454 L 256.5 454 L 266.5 452 Q 276 448.5 282 441.5 L 297 420.5 L 308 391.5 L 313 363.5 L 313 352.5 L 314 351.5 L 314 319.5 L 313 318.5 L 313 305.5 L 312 304.5 L 311.5 290 Z " /><path fill="rgb(225,216,214)" stroke="rgb(225,216,214)" stroke-width="1" opacity="1" d="M 261.5 292 L 262.5 294 L 261.5 292 Z " /><path fill="rgb(225,216,214)" stroke="rgb(225,216,214)" stroke-width="1" opacity="1" d="M 257.5 294 L 258.5 296 L 257.5 294 Z " /><path fill="rgb(225,216,214)" stroke="rgb(225,216,214)" stroke-width="1" opacity="1" d="M 237.5 299 L 236.5 301 L 237.5 299 Z " /><path fill="rgb(225,216,214)" stroke="rgb(225,216,214)" stroke-width="1" opacity="1" d="M 235.5 302 L 234.5 304 L 235.5 302 Z " /><path fill="rgb(225,216,214)" stroke="rgb(225,216,214)" stroke-width="1" opacity="1" d="M 153.5 303 L 156 303.5 L 153.5 304 L 153.5 303 Z " /><path fill="rgb(225,216,214)" stroke="rgb(225,216,214)" stroke-width="1" opacity="1" d="M 232.5 306 L 222.5 317 L 232.5 306 Z " /><path fill="rgb(225,216,214)" stroke="rgb(225,216,214)" stroke-width="1" opacity="1" d="M 172.5 308 L 174.5 311 L 172.5 308 Z " /><path fill="rgb(225,216,214)" stroke="rgb(225,216,214)" stroke-width="1" opacity="1" d="M 175.5 312 L 176 321.5 L 175 321.5 L 175.5 312 Z " /><path fill="rgb(225,216,214)" stroke="rgb(225,216,214)" stroke-width="1" opacity="1" d="M 404.5 315 L 407 315.5 L 404.5 316 L 404.5 315 Z " /><path fill="rgb(225,216,214)" stroke="rgb(225,216,214)" stroke-width="1" opacity="1" d="M 409.5 315 Q 417 315.5 421.5 319 L 436 332.5 L 447 353.5 L 450 366.5 L 450 388.5 L 448 398.5 L 441 415.5 Q 431.5 433 416.5 445 Q 399.4 458.9 375.5 466 L 348.5 471 L 322.5 471 L 321.5 470 L 305.5 469 L 288 464.5 L 292 461.5 L 290.5 464 Q 294 466.5 301.5 465 L 302.5 466 L 324 466 Q 329.9 456 330 439.5 L 329 436 L 321 435.5 L 339.5 435 L 349.5 432 L 349 433.5 L 350 446.5 L 347 463 L 365.5 458 L 388 447 L 386 433.5 Q 382.4 423.6 375.5 417 L 371 420.5 Q 382 413 387 401 Q 389.7 399.9 389 402.5 Q 401.4 412.9 405 431 L 413 424.5 L 427 401.5 L 430 392.5 L 430 388.5 Q 419.2 374.1 398 371 L 397.5 374 L 397 371.5 L 398 370.5 L 398 351 Q 418.8 352.5 431.5 363 L 432 357.5 Q 427.1 330.9 410.5 316 L 409.5 315 Z " /><path fill="rgb(225,216,214)" stroke="rgb(225,216,214)" stroke-width="1" opacity="1" d="M 401.5 316 L 403 316.5 L 400.5 318 L 401.5 316 Z " /><path fill="rgb(225,216,214)" stroke="rgb(225,216,214)" stroke-width="1" opacity="1" d="M 219.5 318 L 218.5 320 L 219.5 318 Z " /><path fill="rgb(225,216,214)" stroke="rgb(225,216,214)" stroke-width="1" opacity="1" d="M 216.5 320 L 215.5 322 L 216.5 320 Z " /><path fill="rgb(225,216,214)" stroke="rgb(225,216,214)" stroke-width="1" opacity="1" d="M 397.5 320 L 396.5 322 L 397.5 320 Z " /><path fill="rgb(225,216,214)" stroke="rgb(225,216,214)" stroke-width="1" opacity="1" d="M 87.5 321 L 92 321.5 L 87.5 322 L 87.5 321 Z " /><path fill="rgb(225,216,214)" stroke="rgb(225,216,214)" stroke-width="1" opacity="1" d="M 77.5 322 L 79 324.5 L 77 323.5 L 77.5 322 Z " /><path fill="rgb(225,216,214)" stroke="rgb(225,216,214)" stroke-width="1" opacity="1" d="M 96.5 322 L 99 322.5 L 96.5 323 L 96.5 322 Z " /><path fill="rgb(225,216,214)" stroke="rgb(225,216,214)" stroke-width="1" opacity="1" d="M 106.5 324 L 109 324.5 L 106.5 325 L 106.5 324 Z " /><path fill="rgb(225,216,214)" stroke="rgb(225,216,214)" stroke-width="1" opacity="1" d="M 82.5 325 L 88 325.5 L 82.5 326 L 82.5 325 Z " /><path fill="rgb(225,216,214)" stroke="rgb(225,216,214)" stroke-width="1" opacity="1" d="M 92.5 326 L 96 326.5 L 92.5 327 L 92.5 326 Z " /><path fill="rgb(225,216,214)" stroke="rgb(225,216,214)" stroke-width="1" opacity="1" d="M 99.5 327 L 102 327.5 L 99.5 328 L 99.5 327 Z " /><path fill="rgb(225,216,214)" stroke="rgb(225,216,214)" stroke-width="1" opacity="1" d="M 178.5 331 L 185 331.5 L 178.5 332 L 178.5 331 Z " /><path fill="rgb(225,216,214)" stroke="rgb(225,216,214)" stroke-width="1" opacity="1" d="M 395.5 335 L 396 337.5 L 395 337.5 L 395.5 335 Z " /><path fill="rgb(225,216,214)" stroke="rgb(225,216,214)" stroke-width="1" opacity="1" d="M 140.5 336 L 145.5 342 L 140.5 336 Z " /><path fill="rgb(225,216,214)" stroke="rgb(225,216,214)" stroke-width="1" opacity="1" d="M 138.5 340 L 143.5 346 L 138.5 340 Z " /><path fill="rgb(225,216,214)" stroke="rgb(225,216,214)" stroke-width="1" opacity="1" d="M 396.5 341 L 397 343.5 L 396 343.5 L 396.5 341 Z " /><path fill="rgb(225,216,214)" stroke="rgb(225,216,214)" stroke-width="1" opacity="1" d="M 166.5 344 L 163.5 348 L 166.5 344 Z " /><path fill="rgb(225,216,214)" stroke="rgb(225,216,214)" stroke-width="1" opacity="1" d="M 170.5 346 L 169.5 348 L 170.5 346 Z " /><path fill="rgb(225,216,214)" stroke="rgb(225,216,214)" stroke-width="1" opacity="1" d="M 397.5 347 L 398 349.5 L 397 349.5 L 397.5 347 Z " /><path fill="rgb(225,216,214)" stroke="rgb(225,216,214)" stroke-width="1" opacity="1" d="M 148.5 348 L 151 349.5 L 149.5 350 L 148.5 348 Z " /><path fill="rgb(225,216,214)" stroke="rgb(225,216,214)" stroke-width="1" opacity="1" d="M 166.5 350 L 165.5 352 L 166.5 350 Z " /><path fill="rgb(225,216,214)" stroke="rgb(225,216,214)" stroke-width="1" opacity="1" d="M 158.5 352 L 161 352.5 L 158.5 353 L 158.5 352 Z " /><path fill="rgb(225,216,214)" stroke="rgb(225,216,214)" stroke-width="1" opacity="1" d="M 368.5 422 L 367.5 424 L 368.5 422 Z " /><path fill="rgb(225,216,214)" stroke="rgb(225,216,214)" stroke-width="1" opacity="1" d="M 365.5 424 L 364.5 426 L 365.5 424 Z " /><path fill="rgb(225,216,214)" stroke="rgb(225,216,214)" stroke-width="1" opacity="1" d="M 314.5 434 L 317 434.5 L 314.5 435 L 314.5 434 Z " /><path fill="rgb(225,216,214)" stroke="rgb(225,216,214)" stroke-width="1" opacity="1" d="M 305.5 441 L 304.5 443 L 305.5 441 Z " /><path fill="rgb(225,216,214)" stroke="rgb(225,216,214)" stroke-width="1" opacity="1" d="M 299.5 451 L 297.5 454 L 299.5 451 Z " /><path fill="rgb(225,216,214)" stroke="rgb(225,216,214)" stroke-width="1" opacity="1" d="M 296.5 455 L 294.5 458 L 296.5 455 Z " /><path fill="rgb(234,234,234)" stroke="rgb(234,234,234)" stroke-width="1" opacity="1" d="M 289.5 12 L 292 13 L 292 68.5 L 295 79.5 L 297 98.5 L 298 99.5 L 299 124.5 L 296 139.5 L 288 157.5 Q 280.5 170 269.5 179 L 261 184 Q 260 187.8 262.5 189 L 271 185 Q 293.5 223.2 307 271.5 L 311 288.5 L 312 304.5 L 313 305.5 L 314 351.5 L 313 352.5 L 313 363.5 L 312 364.5 L 310 382.5 L 304 404.5 Q 295.5 429 278.5 445 L 266.5 452 L 256.5 454 L 124.5 454 Q 123 451.5 117.5 453 L 107.5 449 L 93 435.5 L 79 411.5 L 72 390.5 L 68 368.5 L 68 361.5 L 67 360.5 L 66 324.5 L 67 323.5 L 67 308.5 L 68 307.5 L 69 289.5 L 77 258.5 Q 89.5 217.5 110.5 185 Q 113.2 188.7 119 188 Q 120 184.2 117.5 183 Q 106.9 177.6 100 168.5 L 87 147.5 L 82 130.5 L 81 111.5 L 82 110.5 L 82 101.5 L 83 100.5 L 84 87.5 L 88 69.5 L 88 14.5 L 89.5 13 Q 94.1 12.4 95.5 15 L 119.5 35 L 125.5 38 L 142.5 32 L 162.5 28 L 170.5 28 L 171.5 27 L 209.5 27 L 210.5 28 L 229.5 30 L 256.5 38 L 289.5 12 Z M 141 94 L 135 99 Q 134 104 136 106 L 140 108 L 146 107 L 149 102 L 148 98 Q 147 93 141 94 Z M 237 94 L 235 95 Q 231 97 232 105 L 237 108 L 243 107 L 245 104 Q 246 98 244 96 L 237 94 Z M 186 107 L 183 108 L 180 111 L 179 115 L 182 124 L 188 129 L 187 139 L 183 142 L 174 142 L 172 144 L 174 147 Q 185 149 190 143 Q 195 149 207 147 Q 209 146 208 142 L 198 142 L 196 141 L 192 134 Q 191 127 194 128 Q 199 124 201 117 L 200 111 Q 196 105 186 107 Z M 123 127 L 121 131 L 151 140 Q 157 142 155 137 L 151 134 L 123 127 Z M 255 127 L 227 135 Q 224 136 225 140 L 230 140 L 258 132 L 259 131 Q 261 125 255 127 Z M 149 148 L 134 151 L 127 151 L 121 154 L 123 157 L 154 153 L 155 152 L 155 148 L 149 148 Z M 225 148 L 225 152 L 227 153 L 258 157 L 259 154 L 254 151 L 225 148 Z M 240 206 L 232 210 L 213 210 L 212 211 L 144 211 L 141 214 Q 141 221 145 226 Q 150 232 160 235 Q 183 238 191 224 L 213 225 L 208 234 L 212 243 L 105 243 L 102 244 L 96 252 L 97 258 Q 100 263 106 263 L 107 273 L 109 278 L 109 279 Q 102 275 93 273 L 91 277 L 143 300 L 154 304 L 160 304 L 170 307 L 175 312 Q 176 324 173 332 L 168 343 L 163 348 L 159 348 L 151 345 L 141 336 L 128 330 L 109 324 L 80 320 L 77 324 L 83 326 L 99 327 L 122 333 L 138 340 L 150 350 L 159 353 L 166 352 Q 175 345 177 332 L 197 330 Q 212 326 223 317 Q 239 304 246 282 Q 245 278 248 279 L 261 301 L 261 302 L 265 302 Q 266 296 263 294 L 258 288 L 249 272 L 236 256 L 231 250 L 221 245 L 213 235 L 215 230 Q 224 217 241 211 L 246 211 L 249 213 L 267 241 L 301 277 L 303 276 Q 302 269 298 267 Q 279 248 263 227 Q 262 224 266 225 L 270 219 L 269 214 L 263 209 L 251 209 Q 248 205 240 206 Z " /><path fill="rgb(234,234,234)" stroke="rgb(234,234,234)" stroke-width="1" opacity="1" d="M 144 248 L 190 248 L 190 282.5 L 185.5 287 L 181.5 287 L 178 284.5 L 177 282.5 L 177 258.5 L 172.5 252 L 163.5 251 L 159 254.5 Q 155.2 259.2 157 269.5 L 153.5 273 Q 147 274 145 270.5 L 144 268.5 L 144 248 Z " /><path fill="rgb(234,234,234)" stroke="rgb(234,234,234)" stroke-width="1" opacity="1" d="M 407.5 315 Q 413.6 316.4 416 321.5 Q 423.5 330.5 428 342.5 Q 431.7 350.8 432 362.5 L 430.5 362 Q 417.8 352.5 398 351 L 395 334.5 L 395 326.5 L 396 322.5 L 399.5 318 L 407.5 315 Z " /><path fill="rgb(234,234,234)" stroke="rgb(234,234,234)" stroke-width="1" opacity="1" d="M 398 371 Q 419.2 374.1 430 388.5 Q 428.3 402.3 422 411.5 Q 415.8 422.8 406.5 431 Q 403.5 431.9 405 427.5 Q 399.2 411.3 388 400.5 Q 396.3 388.7 398 371 Z " /><path fill="rgb(234,234,234)" stroke="rgb(234,234,234)" stroke-width="1" opacity="1" d="M 375.5 417 Q 382.4 423.6 386 433.5 L 388 447 L 365.5 458 L 347 463 L 350 446.5 L 350 438.5 L 349 433.5 Q 364.9 427.9 375.5 417 Z " /><path fill="rgb(234,234,234)" stroke="rgb(234,234,234)" stroke-width="1" opacity="1" d="M 309.5 433 L 314.5 435 L 329 436 L 330 444.5 L 328 455.5 L 324 466 L 302.5 466 L 301.5 465 L 292.5 465 L 290 463.5 Q 302.6 451.1 309.5 433 Z " /><path fill="rgb(98,99,101)" stroke="rgb(98,99,101)" stroke-width="1" opacity="0.9647058823529412" d="M 87.5 8 L 93.5 8 L 103 14 Q 101.9 16.7 104.5 16 L 125.5 33 L 131.5 30 L 155.5 24 L 162.5 24 L 171.5 22 L 208.5 22 L 209.5 23 L 217.5 23 L 218.5 24 L 229.5 25 L 255.5 33 L 285.5 8 L 292.5 8 L 296 10.5 L 297 12.5 L 297 68.5 L 302 92.5 L 303 108.5 L 304 109.5 L 304 123.5 L 303 124.5 L 302 136.5 L 297 151.5 L 289 165.5 L 274 181.5 L 290 210.5 L 301 236.5 L 314 278.5 L 320 309.5 L 320 317.5 L 322 327.5 L 322 339.5 L 323 340.5 L 323 374.5 L 322 375.5 L 322 385.5 L 321 386.5 L 320 399.5 L 316 416.5 L 311 428.5 L 320.5 431 L 335.5 431 Q 362.9 426.4 377 408.5 Q 393.8 390.3 394 355.5 L 390 334.5 L 390 325.5 Q 391.4 317.9 396.5 314 L 407.5 310 L 420.5 313 Q 430.3 318.3 437 326.5 Q 446.1 336.9 451 351.5 L 455 371.5 L 455 384.5 L 451 404.5 L 444 419.5 Q 435.6 434.1 423.5 445 Q 408.3 458.8 387.5 467 L 366.5 473 L 354.5 474 L 353.5 475 Q 342 473.5 334.5 476 L 333.5 475 L 308.5 474 L 288.5 469 L 283.5 469 L 280 471 L 283 482.5 L 283 490.5 L 280 499 L 265.5 504 L 242.5 504 L 231.5 500 L 227 495.5 Q 223.8 488.5 225 478 L 155.5 478 L 155 478.5 L 155 491.5 L 150.5 499 L 145.5 502 L 137.5 504 L 114.5 504 L 106.5 502 L 99 496.5 L 97 484.5 L 100 471 L 98.5 471 L 84 456.5 L 69 430.5 L 61 403.5 L 59 384.5 L 58 383.5 L 58 371.5 L 57 370.5 L 57 344.5 L 58 343.5 L 58 329.5 L 59 328.5 L 59 319.5 L 60 318.5 L 62 299.5 L 72 257.5 L 84 224.5 L 106 181.5 Q 91.2 169.3 83 150.5 L 77 129.5 L 76 112.5 L 77 111.5 L 77 101.5 L 78 100.5 L 79 87.5 L 83 70.5 L 83 12.5 L 87.5 8 Z M 90 12 L 87 16 L 87 73 L 85 79 L 83 97 L 82 98 L 82 106 L 81 107 L 81 127 L 84 141 Q 90 159 102 172 L 119 186 L 118 188 L 116 188 L 111 184 Q 100 198 93 216 Q 83 238 75 264 L 68 292 L 64 315 L 63 332 L 62 333 L 62 348 L 61 349 L 62 380 L 68 413 Q 75 439 90 457 L 103 468 Q 106 464 105 455 L 109 453 L 109 464 L 102 481 L 102 493 L 103 495 L 109 498 L 118 500 L 134 500 L 147 496 L 150 493 L 151 489 L 151 479 L 149 471 L 148 457 L 152 455 L 153 461 L 153 471 L 154 472 L 155 473 L 226 473 L 227 472 L 228 459 Q 231 454 233 459 L 230 473 L 230 492 L 231 494 L 238 498 L 248 500 L 269 499 L 278 494 L 278 480 L 271 463 L 271 453 L 275 453 Q 274 463 278 468 L 280 467 Q 297 453 306 431 L 315 402 L 317 384 L 318 383 L 318 371 L 319 370 L 319 344 L 318 343 L 317 321 L 316 320 L 314 301 L 307 270 L 290 222 L 271 184 L 263 188 L 261 186 L 272 178 Q 293 161 299 129 L 299 105 L 298 104 L 296 83 L 293 72 L 293 15 L 291 12 L 287 13 L 258 37 L 254 37 L 247 34 L 227 29 L 215 28 L 214 27 L 203 27 L 202 26 L 180 26 L 179 27 L 160 28 L 141 32 L 128 37 L 122 36 L 93 12 L 90 12 Z M 405 315 L 402 316 Q 396 318 395 325 L 395 338 L 398 351 L 398 371 L 395 385 L 383 409 Q 368 429 340 435 L 318 435 L 310 433 Q 302 452 288 465 L 306 469 L 322 470 L 323 471 L 349 471 L 376 466 Q 399 459 417 445 Q 431 433 441 416 L 448 399 L 450 389 L 450 367 L 447 354 L 436 333 L 422 319 L 412 315 L 405 315 Z " /><path fill="rgb(98,99,101)" stroke="rgb(98,99,101)" stroke-width="1" opacity="0.9647058823529412" d="M 139.5 95 Q 146.8 93.8 148 98.5 Q 149.3 105.8 144.5 107 Q 137.5 108.5 136 104.5 L 135 100.5 L 137.5 96 L 139.5 95 Z " /><path fill="rgb(98,99,101)" stroke="rgb(98,99,101)" stroke-width="1" opacity="0.9647058823529412" d="M 235.5 95 Q 242.5 93.5 244 97.5 L 245 102.5 L 241.5 107 Q 234.5 108.5 233 104.5 L 232 99.5 L 235.5 95 Z " /><path fill="rgb(98,99,101)" stroke="rgb(98,99,101)" stroke-width="1" opacity="0.9647058823529412" d="M 184.5 108 L 196.5 108 L 200 111.5 L 200 118.5 L 192 128.5 L 192 137.5 L 196.5 142 L 206.5 142 L 208 143.5 L 206.5 146 Q 193.8 148.2 189.5 142 Q 185.9 148.4 173.5 146 L 172 143 L 186 141 L 188 137.5 L 188 127 L 182 122.5 Q 179.1 118.9 180 111.5 L 184.5 108 Z " /><path fill="rgb(98,99,101)" stroke="rgb(98,99,101)" stroke-width="1" opacity="0.9647058823529412" d="M 123.5 127 L 155 136 L 153.5 140 L 124.5 132 L 121 129.5 L 123.5 127 Z " /><path fill="rgb(98,99,101)" stroke="rgb(98,99,101)" stroke-width="1" opacity="0.9647058823529412" d="M 256.5 127 L 259 128.5 L 257.5 131 L 226.5 140 L 225 137.5 L 228.5 135 L 256.5 127 Z " /><path fill="rgb(98,99,101)" stroke="rgb(98,99,101)" stroke-width="1" opacity="0.9647058823529412" d="M 151.5 148 L 155 149.5 L 153.5 152 L 130.5 155 L 129.5 156 L 122.5 156 Q 119 154 123.5 152 L 129.5 152 L 151.5 148 Z " /><path fill="rgb(98,99,101)" stroke="rgb(98,99,101)" stroke-width="1" opacity="0.9647058823529412" d="M 226.5 148 L 256.5 152 L 259 153 L 257.5 156 L 229.5 153 L 225 150.5 L 226.5 148 Z " /><path fill="rgb(98,99,101)" stroke="rgb(98,99,101)" stroke-width="1" opacity="0.9647058823529412" d="M 242.5 206 Q 248.7 206.3 251.5 210 L 264.5 210 L 269 214.5 Q 270.5 223.5 264.5 225 Q 261.2 223.9 262 226.5 L 303 274.5 L 299.5 276 L 267 239.5 Q 258.1 229.4 252 216.5 L 246.5 211 L 241.5 210 Q 225 216 215 228.5 L 213 235.5 Q 216 243 222.5 247 L 229.5 250 L 238 258.5 Q 254.1 276.9 265 300.5 L 262.5 302 L 246.5 277 Q 239.9 303.9 220.5 318 L 204.5 327 L 189.5 331 L 178.5 331 L 177 332.5 Q 174.4 343.4 167.5 350 L 161.5 353 Q 152 351.5 145.5 347 L 138.5 340 L 125.5 334 L 101.5 327 L 79.5 325 L 78 323.5 L 78.5 321 L 86.5 321 L 87.5 322 L 101.5 323 L 123.5 329 L 139.5 336 L 151.5 346 L 161.5 349 L 167 344.5 L 175 326.5 L 176 312.5 L 172.5 308 L 165.5 305 L 156.5 304 L 143.5 300 L 92 276.5 L 93.5 273 L 109 279 L 107 269.5 L 107 263.5 L 105.5 262 L 99 260 L 97 256.5 L 97 249.5 L 99 246 L 102.5 244 L 213 244 L 209 236.5 L 209 231.5 L 214 224.5 L 193.5 224 L 190.5 223 Q 183.4 235.9 162.5 235 Q 150.5 233 145 224.5 Q 140.8 220.3 142 212 L 229.5 211 L 242.5 206 Z M 256 214 L 258 220 Q 259 222 264 221 Q 266 220 265 216 L 264 214 L 256 214 Z M 194 215 L 192 217 L 194 220 L 218 220 L 223 216 L 194 215 Z M 146 216 L 148 222 Q 153 229 163 231 Q 177 232 184 225 L 188 219 L 188 216 L 146 216 Z M 104 248 Q 100 249 101 256 L 104 258 L 140 258 L 140 249 L 140 248 L 104 248 Z M 144 248 L 144 270 L 150 274 L 156 272 L 158 268 Q 156 259 159 256 L 165 251 L 172 252 L 176 258 L 176 282 L 181 287 Q 188 289 190 284 L 190 248 L 144 248 Z M 194 248 L 194 258 L 231 258 L 218 248 L 194 248 Z M 166 255 L 164 256 L 163 258 L 172 258 Q 171 254 166 255 Z M 111 262 L 111 270 L 115 283 L 145 296 L 174 304 Q 179 306 180 313 Q 181 322 179 327 L 189 327 L 204 323 L 222 312 Q 237 299 243 276 L 243 272 L 238 265 L 236 262 L 194 262 L 194 285 L 193 287 Q 190 291 184 292 L 178 290 Q 173 287 172 282 L 172 262 L 162 262 Q 163 269 160 273 Q 157 277 152 278 L 145 276 L 140 271 L 140 263 L 140 262 L 111 262 Z " /></svg>