<svg width="512" height="512" version="1.1" xmlns="http://www.w3.org/2000/svg" desc="Created with imagetracer.js version 1.2.6" ><path fill="rgb(0,0,0)" stroke="rgb(0,0,0)" stroke-width="1" opacity="0" d="M 0 0 L 512 0 L 512 512 L 0 512 L 0 0 Z M 94 12 L 87 15 L 86 19 L 86 74 L 80 108 L 80 131 L 82 142 L 90 161 L 100 175 L 108 181 L 109 184 L 90 219 L 74 263 L 66 296 L 63 323 L 62 324 L 62 334 L 61 335 L 61 374 L 62 375 L 62 385 L 66 408 L 73 429 L 79 441 L 93 460 L 105 468 L 100 484 L 100 492 L 103 500 L 110 503 L 119 505 L 138 505 L 151 501 Q 155 498 157 492 L 157 478 L 156 477 L 157 474 L 226 474 L 226 493 L 228 498 L 237 503 L 246 505 L 264 505 L 278 501 L 282 494 L 282 481 L 278 469 L 288 461 L 302 462 L 303 463 L 329 463 L 356 458 Q 382 450 401 434 Q 415 421 425 404 L 432 385 L 433 371 L 434 370 L 433 353 L 430 340 L 424 326 L 418 318 L 416 315 Q 407 302 391 298 L 385 298 L 378 300 Q 371 304 369 314 L 369 323 L 372 336 L 372 342 L 373 345 L 372 362 L 368 376 Q 363 388 355 398 Q 345 409 330 415 L 313 418 L 319 395 L 320 380 L 321 379 L 321 364 L 322 363 L 322 351 L 321 350 L 322 347 L 321 345 L 321 331 L 320 330 L 320 320 L 319 319 L 318 305 L 308 261 L 292 218 L 279 192 L 274 185 L 274 183 L 290 165 L 297 152 L 301 139 L 302 127 L 303 126 L 302 104 L 299 89 L 299 83 L 296 72 L 296 18 L 295 16 L 290 12 L 284 14 L 267 28 Q 264 27 265 30 L 255 37 L 233 30 L 215 28 L 214 27 L 201 27 L 200 26 L 183 26 L 182 27 L 169 27 L 161 29 L 155 29 L 129 37 L 126 36 L 107 20 Q 104 21 105 18 L 102 16 Q 99 17 100 14 L 94 12 Z " /><path fill="rgb(230,230,229)" stroke="rgb(230,230,229)" stroke-width="1" opacity="1" d="M 103.5 170 L 105.5 173 L 103.5 170 Z " /><path fill="rgb(230,230,229)" stroke="rgb(230,230,229)" stroke-width="1" opacity="1" d="M 109.5 176 L 111.5 179 L 109.5 176 Z " /><path fill="rgb(230,230,229)" stroke="rgb(230,230,229)" stroke-width="1" opacity="1" d="M 261.5 185 L 260.5 187 L 261.5 185 Z " /><path fill="rgb(230,230,229)" stroke="rgb(230,230,229)" stroke-width="1" opacity="1" d="M 266.5 261 L 267.5 263 L 266.5 261 Z " /><path fill="rgb(230,230,229)" stroke="rgb(230,230,229)" stroke-width="1" opacity="1" d="M 309.5 288 L 310 292.5 L 309 292.5 L 309.5 288 Z " /><path fill="rgb(230,230,229)" stroke="rgb(230,230,229)" stroke-width="1" opacity="1" d="M 72.5 291 L 73 295.5 L 72 295.5 L 72.5 291 Z " /><path fill="rgb(230,230,229)" stroke="rgb(230,230,229)" stroke-width="1" opacity="1" d="M 310.5 294 L 311 301.5 L 310 301.5 L 310.5 294 Z " /><path fill="rgb(230,230,229)" stroke="rgb(230,230,229)" stroke-width="1" opacity="1" d="M 71.5 298 L 72 306.5 L 71 306.5 L 71.5 298 Z " /><path fill="rgb(230,230,229)" stroke="rgb(230,230,229)" stroke-width="1" opacity="1" d="M 388.5 303 L 392 305.5 L 394 308.5 L 401 317.5 L 399 316.5 L 388.5 303 Z " /><path fill="rgb(230,230,229)" stroke="rgb(230,230,229)" stroke-width="1" opacity="1" d="M 311.5 304 L 312 313.5 L 311 313.5 L 311.5 304 Z " /><path fill="rgb(230,230,229)" stroke="rgb(230,230,229)" stroke-width="1" opacity="1" d="M 70.5 309 L 71 321.5 L 70 321.5 L 70.5 309 Z " /><path fill="rgb(230,230,229)" stroke="rgb(230,230,229)" stroke-width="1" opacity="1" d="M 312.5 319 L 313 346.5 L 312 346.5 L 312.5 319 Z " /><path fill="rgb(230,230,229)" stroke="rgb(230,230,229)" stroke-width="1" opacity="1" d="M 405.5 327 L 407 330.5 L 406 330.5 L 405.5 327 Z " /><path fill="rgb(230,230,229)" stroke="rgb(230,230,229)" stroke-width="1" opacity="1" d="M 408.5 335 L 409 337.5 L 408 337.5 L 408.5 335 Z " /><path fill="rgb(230,230,229)" stroke="rgb(230,230,229)" stroke-width="1" opacity="1" d="M 168.5 339 L 166.5 342 L 168.5 339 Z " /><path fill="rgb(230,230,229)" stroke="rgb(230,230,229)" stroke-width="1" opacity="1" d="M 409.5 339 L 410 342.5 L 409 342.5 L 409.5 339 Z " /><path fill="rgb(230,230,229)" stroke="rgb(230,230,229)" stroke-width="1" opacity="1" d="M 70.5 344 L 71 356.5 L 70 356.5 L 70.5 344 Z " /><path fill="rgb(230,230,229)" stroke="rgb(230,230,229)" stroke-width="1" opacity="1" d="M 410.5 344 L 411 348.5 L 410 348.5 L 410.5 344 Z " /><path fill="rgb(230,230,229)" stroke="rgb(230,230,229)" stroke-width="1" opacity="1" d="M 190.5 352 L 189.5 354 L 190.5 352 Z " /><path fill="rgb(230,230,229)" stroke="rgb(230,230,229)" stroke-width="1" opacity="1" d="M 311.5 352 L 312 361.5 L 311 361.5 L 311.5 352 Z " /><path fill="rgb(230,230,229)" stroke="rgb(230,230,229)" stroke-width="1" opacity="1" d="M 71.5 359 L 72 364.5 L 71 364.5 L 71.5 359 Z " /><path fill="rgb(230,230,229)" stroke="rgb(230,230,229)" stroke-width="1" opacity="1" d="M 310.5 364 L 311 369.5 L 310 369.5 L 310.5 364 Z " /><path fill="rgb(230,230,229)" stroke="rgb(230,230,229)" stroke-width="1" opacity="1" d="M 399.5 367 L 400.5 369 L 399.5 367 Z " /><path fill="rgb(230,230,229)" stroke="rgb(230,230,229)" stroke-width="1" opacity="1" d="M 72.5 368 L 73 372.5 L 72 372.5 L 72.5 368 Z " /><path fill="rgb(230,230,229)" stroke="rgb(230,230,229)" stroke-width="1" opacity="1" d="M 309.5 371 L 310 374.5 L 309 374.5 L 309.5 371 Z " /><path fill="rgb(230,230,229)" stroke="rgb(230,230,229)" stroke-width="1" opacity="1" d="M 404.5 371 L 405.5 373 L 404.5 371 Z " /><path fill="rgb(230,230,229)" stroke="rgb(230,230,229)" stroke-width="1" opacity="1" d="M 73.5 374 L 74 377.5 L 73 377.5 L 73.5 374 Z " /><path fill="rgb(230,230,229)" stroke="rgb(230,230,229)" stroke-width="1" opacity="1" d="M 308.5 377 L 309 380.5 L 308 380.5 L 308.5 377 Z " /><path fill="rgb(230,230,229)" stroke="rgb(230,230,229)" stroke-width="1" opacity="1" d="M 74.5 380 L 75 382.5 L 74 382.5 L 74.5 380 Z " /><path fill="rgb(230,230,229)" stroke="rgb(230,230,229)" stroke-width="1" opacity="1" d="M 307.5 382 L 308 385.5 L 305.5 393 L 305 390.5 L 307.5 382 Z " /><path fill="rgb(230,230,229)" stroke="rgb(230,230,229)" stroke-width="1" opacity="1" d="M 75.5 384 L 76 386.5 L 75 386.5 L 75.5 384 Z " /><path fill="rgb(230,230,229)" stroke="rgb(230,230,229)" stroke-width="1" opacity="1" d="M 76.5 388 L 77 390.5 L 76 390.5 L 76.5 388 Z " /><path fill="rgb(230,230,229)" stroke="rgb(230,230,229)" stroke-width="1" opacity="1" d="M 405.5 388 L 406 389.5 L 397.5 404 L 398 402.5 L 405.5 388 Z " /><path fill="rgb(230,230,229)" stroke="rgb(230,230,229)" stroke-width="1" opacity="1" d="M 77.5 392 L 78 394.5 L 77 394.5 L 77.5 392 Z " /><path fill="rgb(230,230,229)" stroke="rgb(230,230,229)" stroke-width="1" opacity="1" d="M 370.5 392 L 372.5 395 L 370.5 392 Z " /><path fill="rgb(230,230,229)" stroke="rgb(230,230,229)" stroke-width="1" opacity="1" d="M 374.5 397 L 375.5 399 L 374.5 397 Z " /><path fill="rgb(230,230,229)" stroke="rgb(230,230,229)" stroke-width="1" opacity="1" d="M 302.5 400 L 303 402.5 L 297.5 414 L 297 412.5 L 302.5 400 Z " /><path fill="rgb(230,230,229)" stroke="rgb(230,230,229)" stroke-width="1" opacity="1" d="M 80.5 402 L 82 405.5 L 81 405.5 L 80.5 402 Z " /><path fill="rgb(230,230,229)" stroke="rgb(230,230,229)" stroke-width="1" opacity="1" d="M 396.5 405 L 395 407.5 L 391.5 412 L 394 408.5 L 396.5 405 Z " /><path fill="rgb(230,230,229)" stroke="rgb(230,230,229)" stroke-width="1" opacity="1" d="M 352.5 406 L 351.5 408 L 352.5 406 Z " /><path fill="rgb(230,230,229)" stroke="rgb(230,230,229)" stroke-width="1" opacity="1" d="M 82.5 407 L 84 410.5 L 83 410.5 L 82.5 407 Z " /><path fill="rgb(230,230,229)" stroke="rgb(230,230,229)" stroke-width="1" opacity="1" d="M 390.5 413 L 385.5 419 Q 383.3 419.8 384 417.5 L 385.5 418 L 390.5 413 Z " /><path fill="rgb(230,230,229)" stroke="rgb(230,230,229)" stroke-width="1" opacity="1" d="M 85.5 414 Q 93.5 431.5 107.5 443 L 114 446.5 L 112.5 447 Q 101.7 441.3 95 431.5 L 86 417.5 L 85.5 414 Z " /><path fill="rgb(230,230,229)" stroke="rgb(230,230,229)" stroke-width="1" opacity="1" d="M 295.5 417 L 295 418.5 Q 288.8 432.8 277.5 442 L 283 435.5 L 295.5 417 Z " /><path fill="rgb(230,230,229)" stroke="rgb(230,230,229)" stroke-width="1" opacity="1" d="M 328.5 422 L 329 427.5 L 328 427.5 L 328.5 422 Z " /><path fill="rgb(230,230,229)" stroke="rgb(230,230,229)" stroke-width="1" opacity="1" d="M 366.5 428 L 367 430.5 L 366 430.5 L 366.5 428 Z " /><path fill="rgb(230,230,229)" stroke="rgb(230,230,229)" stroke-width="1" opacity="1" d="M 308.5 430 L 309 433.5 L 308 433.5 L 308.5 430 Z " /><path fill="rgb(230,230,229)" stroke="rgb(230,230,229)" stroke-width="1" opacity="1" d="M 328.5 430 L 329 435.5 L 328 435.5 L 328.5 430 Z " /><path fill="rgb(230,230,229)" stroke="rgb(230,230,229)" stroke-width="1" opacity="1" d="M 365.5 434 L 364.5 436 L 362.5 437 L 363.5 435 L 365.5 434 Z " /><path fill="rgb(230,230,229)" stroke="rgb(230,230,229)" stroke-width="1" opacity="1" d="M 360.5 437 L 359.5 439 L 345.5 445 L 345.5 444 L 360.5 437 Z " /><path fill="rgb(230,230,229)" stroke="rgb(230,230,229)" stroke-width="1" opacity="1" d="M 275.5 442 L 273.5 445 L 266.5 448 L 266.5 447 L 275.5 442 Z " /><path fill="rgb(230,230,229)" stroke="rgb(230,230,229)" stroke-width="1" opacity="1" d="M 342.5 445 L 344 445.5 L 339.5 447 L 339.5 446 L 342.5 445 Z " /><path fill="rgb(230,230,229)" stroke="rgb(230,230,229)" stroke-width="1" opacity="1" d="M 115.5 447 L 120 448.5 L 117.5 449 L 115.5 447 Z " /><path fill="rgb(230,230,229)" stroke="rgb(230,230,229)" stroke-width="1" opacity="1" d="M 262.5 448 L 265 448.5 L 262.5 449 L 262.5 448 Z " /><path fill="rgb(230,230,229)" stroke="rgb(230,230,229)" stroke-width="1" opacity="1" d="M 332.5 448 L 335 448.5 L 332.5 449 L 332.5 448 Z " /><path fill="rgb(230,230,229)" stroke="rgb(230,230,229)" stroke-width="1" opacity="1" d="M 122.5 449 L 261 449.5 L 122.5 450 L 122.5 449 Z " /><path fill="rgb(230,230,229)" stroke="rgb(230,230,229)" stroke-width="1" opacity="1" d="M 328.5 449 L 331 449.5 L 328.5 450 L 328.5 449 Z " /><path fill="rgb(230,230,229)" stroke="rgb(230,230,229)" stroke-width="1" opacity="1" d="M 294.5 453 L 302 453.5 L 294.5 454 L 294.5 453 Z " /><path fill="rgb(234,234,233)" stroke="rgb(234,234,233)" stroke-width="1" opacity="1" d="M 311.5 314 L 312 317.5 L 311 317.5 L 311.5 314 Z " /><path fill="rgb(234,234,233)" stroke="rgb(234,234,233)" stroke-width="1" opacity="1" d="M 70.5 322 L 71 331.5 L 70 331.5 L 70.5 322 Z " /><path fill="rgb(234,234,233)" stroke="rgb(234,234,233)" stroke-width="1" opacity="1" d="M 70.5 340 L 71 343.5 L 70 343.5 L 70.5 340 Z " /><path fill="rgb(234,234,233)" stroke="rgb(234,234,233)" stroke-width="1" opacity="1" d="M 203.5 340 L 202.5 342 L 203.5 340 Z " /><path fill="rgb(234,234,233)" stroke="rgb(234,234,233)" stroke-width="1" opacity="1" d="M 192.5 350 L 191.5 352 L 192.5 350 Z " /><path fill="rgb(234,234,233)" stroke="rgb(234,234,233)" stroke-width="1" opacity="1" d="M 367.5 388 L 368.5 390 L 367.5 388 Z " /><path fill="rgb(234,234,233)" stroke="rgb(234,234,233)" stroke-width="1" opacity="1" d="M 396.5 404 L 395.5 406 L 396.5 404 Z " /><path fill="rgb(234,234,233)" stroke="rgb(234,234,233)" stroke-width="1" opacity="1" d="M 390.5 412 L 387.5 416 L 390.5 412 Z " /><path fill="rgb(234,234,233)" stroke="rgb(234,234,233)" stroke-width="1" opacity="1" d="M 289.5 426 L 288.5 428 L 289.5 426 Z " /><path fill="rgb(234,234,233)" stroke="rgb(234,234,233)" stroke-width="1" opacity="1" d="M 287.5 429 L 286.5 431 L 287.5 429 Z " /><path fill="rgb(234,234,233)" stroke="rgb(234,234,233)" stroke-width="1" opacity="1" d="M 282.5 435 L 276.5 442 L 282.5 435 Z " /><path fill="rgb(234,234,233)" stroke="rgb(234,234,233)" stroke-width="1" opacity="1" d="M 106.5 441 L 107.5 443 L 106.5 441 Z " /><path fill="rgb(246,230,107)" stroke="rgb(246,230,107)" stroke-width="1" opacity="1" d="M 205.5 159 Q 213 159 216 163.5 L 219 169.5 L 223 190.5 L 224 227.5 L 223 228.5 L 222 246.5 L 220 250.5 Q 209.4 260.4 202 273.5 L 183.5 306 L 175 299.5 L 167 267.5 L 167 262.5 L 165 255.5 L 165 247.5 L 164 246.5 L 164 235.5 L 176 200.5 L 189 175.5 L 200.5 161 L 205.5 159 Z " /><path fill="rgb(102,121,111)" stroke="rgb(102,121,111)" stroke-width="1" opacity="0.9529411764705882" d="M 93.5 12 L 100 14 Q 98.9 16.7 101.5 16 L 105 18 Q 103.9 20.7 106.5 20 L 125.5 36 L 128.5 37 L 154.5 29 L 160.5 29 L 168.5 27 L 181.5 27 L 182.5 26 L 199.5 26 L 200.5 27 L 213.5 27 L 214.5 28 L 232.5 30 L 254.5 37 L 265 30 Q 263.9 27.3 266.5 28 L 283.5 14 L 289.5 12 L 295 15.5 L 296 17.5 L 296 71.5 L 299 82.5 L 299 88.5 L 302 103.5 L 303 125.5 L 302 126.5 L 301 138.5 L 297 151.5 L 290 164.5 L 274 182.5 L 274 184.5 L 279 191.5 L 292 217.5 L 308 260.5 L 318 304.5 L 319 318.5 L 320 319.5 L 320 329.5 L 321 330.5 L 321 344.5 L 322 346.5 L 321 349.5 L 322 350.5 L 322 362.5 L 321 363.5 L 321 378.5 L 320 379.5 L 319 394.5 L 313 418 L 329.5 415 Q 344.7 408.7 355 397.5 Q 363.3 388.3 368 375.5 L 372 361.5 L 373 344.5 L 372 341.5 L 372 335.5 L 369 322.5 L 369 313.5 Q 370.8 304.3 377.5 300 L 384.5 298 L 390.5 298 Q 407.4 302.1 416 314.5 L 418 317.5 L 424 325.5 L 430 339.5 L 433 352.5 L 434 369.5 L 433 370.5 L 432 384.5 L 425 403.5 Q 415.3 421.3 400.5 434 Q 382.3 450.3 355.5 458 L 328.5 463 L 302.5 463 L 301.5 462 L 287.5 461 L 278 468.5 L 282 480.5 L 282 493.5 L 277.5 501 L 263.5 505 L 245.5 505 L 236.5 503 L 228 497.5 L 226 492.5 L 226 474 L 156.5 474 L 156 476.5 L 157 477.5 L 157 491.5 Q 155.5 498 150.5 501 L 137.5 505 L 118.5 505 L 109.5 503 L 103 500 L 100 491.5 L 100 483.5 L 105 468 L 93 460 L 79 440.5 L 73 428.5 L 66 407.5 L 62 384.5 L 62 374.5 L 61 373.5 L 61 334.5 L 62 333.5 L 62 323.5 L 63 322.5 L 66 295.5 L 74 262.5 L 90 218.5 L 109 183.5 L 108 181 L 100 174.5 L 90 160.5 L 82 141.5 L 80 130.5 L 80 107.5 L 86 73.5 L 86 18.5 L 87 15 L 93.5 12 Z M 93 17 L 91 19 L 91 72 L 89 78 L 86 102 L 85 103 L 85 112 L 84 113 L 84 128 L 86 139 Q 90 156 100 168 L 115 182 L 119 184 Q 122 185 121 189 L 118 189 L 113 186 L 95 219 L 78 265 L 69 305 L 67 326 L 66 327 L 66 339 L 65 340 L 65 370 L 66 371 L 66 382 L 67 383 L 69 400 Q 76 430 92 452 Q 97 460 107 464 Q 110 462 108 456 L 110 454 L 112 456 L 111 468 L 105 482 L 105 494 L 106 496 L 112 499 L 123 500 L 124 501 L 141 500 L 149 497 L 152 493 L 153 488 L 150 458 L 153 456 L 154 458 Q 153 462 155 464 Q 154 469 156 469 L 227 469 L 228 468 L 229 458 L 233 460 L 231 470 L 231 478 L 230 479 Q 229 488 231 494 L 236 498 L 250 501 L 260 501 L 274 498 L 277 495 L 278 491 L 277 480 L 272 470 L 270 461 Q 269 455 273 454 L 274 456 L 276 465 L 283 460 Q 297 446 305 427 L 313 402 L 316 385 L 316 377 L 317 376 L 317 333 L 316 332 L 316 323 L 313 308 L 313 302 L 305 267 L 295 237 L 287 218 L 276 196 L 270 186 L 263 190 L 261 187 L 271 180 Q 292 163 298 131 L 298 108 L 297 107 L 297 100 L 296 99 L 294 81 L 292 75 L 292 20 L 291 17 L 286 18 L 256 42 L 235 35 L 218 32 L 211 32 L 210 31 L 174 31 L 173 32 L 165 32 L 141 37 L 128 42 L 96 17 L 93 17 Z M 383 303 L 379 305 L 374 312 L 374 326 L 377 339 L 377 359 L 375 369 Q 370 386 360 399 Q 351 409 339 416 Q 328 422 312 423 L 303 441 L 291 457 Q 299 460 313 458 L 314 459 L 340 457 L 363 451 Q 384 443 400 429 L 418 407 L 425 392 L 429 375 L 429 356 L 426 342 Q 421 327 412 317 L 398 305 Q 392 302 383 303 Z " /><path fill="rgb(102,121,111)" stroke="rgb(102,121,111)" stroke-width="1" opacity="0.9529411764705882" d="M 142.5 84 Q 149.8 82.8 151 87.5 Q 152.3 94.8 147.5 96 Q 140.3 97.3 139 92.5 Q 137.8 85.3 142.5 84 Z " /><path fill="rgb(102,121,111)" stroke="rgb(102,121,111)" stroke-width="1" opacity="0.9529411764705882" d="M 237.5 84 Q 244.8 82.8 246 87.5 Q 247.3 94.8 242.5 96 Q 237.1 96.6 235 95 Q 233.4 92.9 234 87.5 L 235 85 L 237.5 84 Z " /><path fill="rgb(102,121,111)" stroke="rgb(102,121,111)" stroke-width="1" opacity="0.9529411764705882" d="M 189.5 110 L 197.5 111 L 201 114.5 Q 201.7 126.2 194.5 130 L 193 130.5 L 193 138.5 L 195 143 Q 198.9 145.9 207.5 145 L 209 146.5 Q 207.5 150.5 200.5 149 L 194.5 147 L 191.5 144 L 186.5 148 L 175.5 149 L 174 145 L 185.5 144 L 188 141.5 Q 190.5 138 189 130.5 L 185 128 Q 181.2 124 181 115.5 L 184.5 111 L 189.5 110 Z " /><path fill="rgb(102,121,111)" stroke="rgb(102,121,111)" stroke-width="1" opacity="0.9529411764705882" d="M 124 130 L 128.5 130 L 149.5 136 L 157 139.5 L 155.5 142 L 128.5 135 L 124 132.5 L 124 130 Z " /><path fill="rgb(102,121,111)" stroke="rgb(102,121,111)" stroke-width="1" opacity="0.9529411764705882" d="M 254.5 130 Q 258.3 129.3 259 131.5 L 258 134 L 226 142 Q 223.9 136.8 228.5 138 L 254.5 130 Z " /><path fill="rgb(102,121,111)" stroke="rgb(102,121,111)" stroke-width="1" opacity="0.9529411764705882" d="M 153.5 150 L 157 151.5 L 155.5 154 L 146.5 156 L 132.5 157 L 131.5 158 L 124 158 L 125.5 154 L 131.5 154 L 153.5 150 Z " /><path fill="rgb(102,121,111)" stroke="rgb(102,121,111)" stroke-width="1" opacity="0.9529411764705882" d="M 227.5 150 L 250.5 154 L 256.5 154 L 259 155 L 257.5 158 L 250.5 158 L 226 154 L 227.5 150 Z " /><path fill="rgb(102,121,111)" stroke="rgb(102,121,111)" stroke-width="1" opacity="0.9529411764705882" d="M 205.5 155 Q 214 155.2 218 159 L 223 168.5 L 227 188.5 L 227 198.5 L 228 199.5 L 228 229.5 L 227 230.5 Q 228 239.5 226 244 Q 229.8 240.5 237.5 240 L 243 243.5 L 248 257.5 L 248 272 L 263.5 262 L 267 262 Q 267.8 265.8 264.5 267 Q 254.8 271.3 248 278.5 L 248 293.5 L 247 294.5 L 247 302.5 L 246 303.5 L 246 311.5 L 244 321.5 L 246.5 320 L 282.5 302 L 288 302 Q 289.5 305.8 286.5 305 L 257.5 318 L 243 327.5 Q 243.8 329.8 241.5 329 L 236 333.5 L 230.5 341 L 221.5 347 L 213.5 348 L 206 342.5 L 204.5 340 L 200.5 342 L 186 356.5 Q 179 364.8 178 378 L 175.5 379 L 156 375 L 155 372.5 L 156 371.5 L 157 360.5 L 156 359.5 L 155 348.5 L 153 344 L 151.5 344 L 143 335.5 L 140.5 331 Q 118 312.6 86 305 Q 84.2 299.8 91.5 302 Q 110.3 307.2 125.5 316 Q 137.6 321.9 146 331.5 L 151.5 339 L 157.5 343 L 163.5 344 L 172 336.5 L 180 322.5 L 182 316.5 L 182 310.5 L 176.5 305 Q 160.2 299.3 147.5 290 L 109 261.5 Q 107.8 257.8 111.5 259 L 133.5 274 Q 137.8 227.3 164.5 203 L 168 204.5 L 166 208.5 L 165 217.5 L 166 217.5 Q 175.7 182.7 196.5 159 L 205.5 155 Z M 206 159 L 201 161 L 189 176 L 176 201 L 164 236 L 164 247 L 165 248 L 165 256 L 167 263 L 167 268 L 175 300 L 184 306 L 202 274 Q 209 260 220 251 L 222 247 L 223 229 L 224 228 L 223 191 L 219 170 L 216 164 Q 213 159 206 159 Z M 229 291 L 219 317 L 207 336 L 207 338 L 215 344 L 219 344 L 226 340 L 233 331 L 238 327 L 232 300 L 229 291 Z " /><path fill="rgb(234,234,234)" stroke="rgb(234,234,234)" stroke-width="1" opacity="1" d="M 93.5 17 L 122.5 40 Q 124.2 42.8 129.5 42 L 142.5 37 L 161.5 33 L 179.5 32 L 180.5 31 L 201.5 31 L 202.5 32 L 221.5 33 L 239.5 37 L 253.5 42 L 257.5 42 L 288.5 17 L 291 18 L 291 72.5 L 294 83.5 L 296 102.5 L 297 103.5 L 298 126.5 L 295 141.5 L 287 159.5 Q 280.2 170.7 270.5 179 L 260 186.5 L 261.5 190 L 264.5 190 L 269.5 186 L 289 223.5 L 305 268.5 L 308 280.5 L 310 302.5 L 311 303.5 L 312 349.5 L 311 350.5 L 311 361.5 L 310 362.5 L 307 385.5 L 299 409.5 Q 290.5 430 274.5 443 L 260.5 449 L 121.5 449 L 112.5 446 L 98 433.5 L 90 422.5 L 82 406.5 L 78 394.5 L 72 365.5 L 70 336.5 L 70 334.5 L 71 331.5 L 71 308.5 L 72 307.5 L 74 282.5 L 79 263.5 Q 91.9 221.1 112 187 L 120.5 190 L 122 186.5 L 107 175 L 96 160.5 L 88 143.5 L 85 130.5 L 85 107.5 L 86 106.5 L 86 99.5 L 87 98.5 L 89 80.5 L 91 74.5 L 91 19.5 L 93.5 17 Z M 144 83 L 142 84 L 138 89 L 139 94 L 144 97 L 149 96 L 152 92 L 151 87 Q 150 82 144 83 Z M 239 83 L 234 85 Q 232 87 233 93 L 239 97 L 244 96 L 247 91 L 246 87 Q 245 82 239 83 Z M 186 110 L 181 114 L 181 122 L 189 132 L 188 141 L 184 144 L 175 144 L 173 146 L 175 149 Q 187 151 192 145 Q 196 151 208 149 L 209 146 L 208 144 Q 200 146 197 143 L 194 140 L 194 131 L 196 130 Q 200 126 202 120 L 201 114 Q 197 108 186 110 Z M 125 129 L 123 133 L 127 135 L 154 142 L 156 142 L 157 142 L 157 138 L 125 129 Z M 256 129 L 227 138 L 225 138 L 225 142 L 228 143 L 257 134 Q 261 135 259 131 L 256 129 Z M 150 150 L 135 153 L 129 153 L 123 156 L 125 159 L 156 155 L 157 154 L 157 150 L 150 150 Z M 227 150 L 225 154 L 227 155 L 258 159 Q 260 158 259 154 L 227 150 Z M 203 155 L 195 159 Q 178 180 168 210 L 167 210 L 168 204 L 165 202 L 155 212 L 142 235 L 135 259 L 134 271 L 133 273 L 114 259 L 110 258 L 108 262 L 156 296 L 179 307 L 182 313 Q 180 327 172 336 L 163 344 L 153 339 L 146 331 Q 123 309 87 301 L 85 305 L 114 315 L 141 332 L 143 337 L 152 344 L 154 348 L 156 356 L 156 369 L 155 375 L 173 379 L 178 379 Q 180 365 187 357 L 202 342 L 205 341 L 206 344 L 215 349 L 221 348 L 232 341 L 237 332 L 241 330 Q 244 331 243 329 L 254 321 L 286 306 L 288 306 L 288 301 L 281 302 L 245 320 L 247 308 L 247 300 L 248 299 L 249 277 L 268 265 L 267 261 L 263 262 L 250 271 L 248 255 L 244 244 L 240 240 Q 232 239 229 242 L 227 243 Q 226 237 228 236 L 228 194 L 227 193 L 225 174 L 221 163 L 212 155 L 203 155 Z " /><path fill="rgb(234,234,234)" stroke="rgb(234,234,234)" stroke-width="1" opacity="1" d="M 228.5 292 L 238 325.5 L 232 330.5 Q 230.4 337.4 224.5 340 L 215.5 344 L 207 336.5 Q 215.3 327.8 220 315.5 L 228.5 292 Z " /><path fill="rgb(234,234,234)" stroke="rgb(234,234,234)" stroke-width="1" opacity="1" d="M 384.5 303 L 387.5 303 L 395 310.5 L 406 329.5 Q 409.7 337.8 410 349.5 L 407.5 348 L 386.5 339 L 377 338 L 374 322.5 L 374 314.5 Q 374.9 307.9 379.5 305 L 384.5 303 Z " /><path fill="rgb(234,234,234)" stroke="rgb(234,234,234)" stroke-width="1" opacity="1" d="M 377 359 Q 397.2 362.1 408 375.5 L 409 377.5 Q 401.8 402.3 385.5 418 L 378 401.5 L 369 390.5 L 368 386.5 Q 375.5 375.1 377 359 Z " /><path fill="rgb(234,234,234)" stroke="rgb(234,234,234)" stroke-width="1" opacity="1" d="M 354.5 405 L 363 417.5 L 367 432.5 Q 350.5 445 326.5 450 L 326 448.5 L 329 437.5 L 329 422.5 L 328 420 Q 344.3 416.1 354.5 405 Z " /><path fill="rgb(234,234,234)" stroke="rgb(234,234,234)" stroke-width="1" opacity="1" d="M 307.5 432 L 308 437.5 L 304 450.5 L 301.5 453 L 295 452.5 Q 303.1 444.1 307.5 432 Z " /><path fill="rgb(218,218,217)" stroke="rgb(218,218,217)" stroke-width="1" opacity="1" d="M 95.5 17 L 96.5 19 L 95.5 17 Z " /><path fill="rgb(218,218,217)" stroke="rgb(218,218,217)" stroke-width="1" opacity="1" d="M 285.5 18 L 283.5 21 L 285.5 18 Z " /><path fill="rgb(218,218,217)" stroke="rgb(218,218,217)" stroke-width="1" opacity="1" d="M 291.5 19 L 292 71.5 L 291 71.5 L 291.5 19 Z " /><path fill="rgb(218,218,217)" stroke="rgb(218,218,217)" stroke-width="1" opacity="1" d="M 99.5 20 L 101.5 23 L 99.5 20 Z " /><path fill="rgb(218,218,217)" stroke="rgb(218,218,217)" stroke-width="1" opacity="1" d="M 280.5 22 L 278.5 25 L 280.5 22 Z " /><path fill="rgb(218,218,217)" stroke="rgb(218,218,217)" stroke-width="1" opacity="1" d="M 104.5 24 L 106.5 27 L 104.5 24 Z " /><path fill="rgb(218,218,217)" stroke="rgb(218,218,217)" stroke-width="1" opacity="1" d="M 275.5 26 L 273.5 29 L 275.5 26 Z " /><path fill="rgb(218,218,217)" stroke="rgb(218,218,217)" stroke-width="1" opacity="1" d="M 109.5 28 L 111.5 31 L 109.5 28 Z " /><path fill="rgb(218,218,217)" stroke="rgb(218,218,217)" stroke-width="1" opacity="1" d="M 270.5 30 L 268.5 33 L 270.5 30 Z " /><path fill="rgb(218,218,217)" stroke="rgb(218,218,217)" stroke-width="1" opacity="1" d="M 173.5 31 L 179 31.5 L 173.5 32 L 173.5 31 Z " /><path fill="rgb(218,218,217)" stroke="rgb(218,218,217)" stroke-width="1" opacity="1" d="M 204.5 31 L 210 31.5 L 204.5 32 L 204.5 31 Z " /><path fill="rgb(218,218,217)" stroke="rgb(218,218,217)" stroke-width="1" opacity="1" d="M 114.5 32 L 116.5 35 L 114.5 32 Z " /><path fill="rgb(218,218,217)" stroke="rgb(218,218,217)" stroke-width="1" opacity="1" d="M 164.5 32 L 167 32.5 L 164.5 33 L 164.5 32 Z " /><path fill="rgb(218,218,217)" stroke="rgb(218,218,217)" stroke-width="1" opacity="1" d="M 215.5 32 L 218 32.5 L 215.5 33 L 215.5 32 Z " /><path fill="rgb(218,218,217)" stroke="rgb(218,218,217)" stroke-width="1" opacity="1" d="M 222.5 33 L 225 33.5 L 222.5 34 L 222.5 33 Z " /><path fill="rgb(218,218,217)" stroke="rgb(218,218,217)" stroke-width="1" opacity="1" d="M 152.5 34 L 155 34.5 L 152.5 35 L 152.5 34 Z " /><path fill="rgb(218,218,217)" stroke="rgb(218,218,217)" stroke-width="1" opacity="1" d="M 265.5 34 L 263.5 37 L 265.5 34 Z " /><path fill="rgb(218,218,217)" stroke="rgb(218,218,217)" stroke-width="1" opacity="1" d="M 119.5 36 L 121.5 39 L 119.5 36 Z " /><path fill="rgb(218,218,217)" stroke="rgb(218,218,217)" stroke-width="1" opacity="1" d="M 260.5 38 L 258.5 41 L 260.5 38 Z " /><path fill="rgb(218,218,217)" stroke="rgb(218,218,217)" stroke-width="1" opacity="1" d="M 124.5 40 L 125.5 42 L 124.5 40 Z " /><path fill="rgb(218,218,217)" stroke="rgb(218,218,217)" stroke-width="1" opacity="1" d="M 90.5 72 L 91 74.5 L 90 74.5 L 90.5 72 Z " /><path fill="rgb(218,218,217)" stroke="rgb(218,218,217)" stroke-width="1" opacity="1" d="M 89.5 77 L 90 79.5 L 89 79.5 L 89.5 77 Z " /><path fill="rgb(218,218,217)" stroke="rgb(218,218,217)" stroke-width="1" opacity="1" d="M 143.5 83 L 147 83.5 L 143.5 84 L 143.5 83 Z " /><path fill="rgb(218,218,217)" stroke="rgb(218,218,217)" stroke-width="1" opacity="1" d="M 238.5 83 L 241 83.5 L 238.5 84 L 238.5 83 Z " /><path fill="rgb(218,218,217)" stroke="rgb(218,218,217)" stroke-width="1" opacity="1" d="M 141.5 84 L 139.5 87 L 141.5 84 Z " /><path fill="rgb(218,218,217)" stroke="rgb(218,218,217)" stroke-width="1" opacity="1" d="M 148.5 84 L 150.5 87 L 148.5 84 Z " /><path fill="rgb(218,218,217)" stroke="rgb(218,218,217)" stroke-width="1" opacity="1" d="M 243.5 84 L 245.5 87 L 243.5 84 Z " /><path fill="rgb(218,218,217)" stroke="rgb(218,218,217)" stroke-width="1" opacity="1" d="M 138.5 88 L 139 91.5 L 138 91.5 L 138.5 88 Z " /><path fill="rgb(218,218,217)" stroke="rgb(218,218,217)" stroke-width="1" opacity="1" d="M 151.5 88 L 152 91.5 L 151 91.5 L 151.5 88 Z " /><path fill="rgb(218,218,217)" stroke="rgb(218,218,217)" stroke-width="1" opacity="1" d="M 233.5 88 L 234 91.5 L 233 91.5 L 233.5 88 Z " /><path fill="rgb(218,218,217)" stroke="rgb(218,218,217)" stroke-width="1" opacity="1" d="M 295.5 92 L 296 94.5 L 295 94.5 L 295.5 92 Z " /><path fill="rgb(218,218,217)" stroke="rgb(218,218,217)" stroke-width="1" opacity="1" d="M 139.5 93 L 141.5 96 L 139.5 93 Z " /><path fill="rgb(218,218,217)" stroke="rgb(218,218,217)" stroke-width="1" opacity="1" d="M 150.5 93 L 148.5 96 L 150.5 93 Z " /><path fill="rgb(218,218,217)" stroke="rgb(218,218,217)" stroke-width="1" opacity="1" d="M 245.5 93 L 243.5 96 L 245.5 93 Z " /><path fill="rgb(218,218,217)" stroke="rgb(218,218,217)" stroke-width="1" opacity="1" d="M 86.5 95 L 87 97.5 L 86 97.5 L 86.5 95 Z " /><path fill="rgb(218,218,217)" stroke="rgb(218,218,217)" stroke-width="1" opacity="1" d="M 143.5 96 L 147 96.5 L 143.5 97 L 143.5 96 Z " /><path fill="rgb(218,218,217)" stroke="rgb(218,218,217)" stroke-width="1" opacity="1" d="M 238.5 96 L 242 96.5 L 238.5 97 L 238.5 96 Z " /><path fill="rgb(218,218,217)" stroke="rgb(218,218,217)" stroke-width="1" opacity="1" d="M 296.5 99 L 297 101.5 L 296 101.5 L 296.5 99 Z " /><path fill="rgb(218,218,217)" stroke="rgb(218,218,217)" stroke-width="1" opacity="1" d="M 85.5 102 L 86 105.5 L 85 105.5 L 85.5 102 Z " /><path fill="rgb(218,218,217)" stroke="rgb(218,218,217)" stroke-width="1" opacity="1" d="M 297.5 107 L 298 110.5 L 297 110.5 L 297.5 107 Z " /><path fill="rgb(218,218,217)" stroke="rgb(218,218,217)" stroke-width="1" opacity="1" d="M 186.5 110 L 189 110.5 L 186.5 111 L 186.5 110 Z " /><path fill="rgb(218,218,217)" stroke="rgb(218,218,217)" stroke-width="1" opacity="1" d="M 193.5 110 L 196 110.5 L 193.5 111 L 193.5 110 Z " /><path fill="rgb(218,218,217)" stroke="rgb(218,218,217)" stroke-width="1" opacity="1" d="M 198.5 111 L 200.5 114 L 198.5 111 Z " /><path fill="rgb(218,218,217)" stroke="rgb(218,218,217)" stroke-width="1" opacity="1" d="M 84.5 112 L 85 127.5 L 84 127.5 L 84.5 112 Z " /><path fill="rgb(218,218,217)" stroke="rgb(218,218,217)" stroke-width="1" opacity="1" d="M 201.5 115 L 202 118.5 L 201 118.5 L 201.5 115 Z " /><path fill="rgb(218,218,217)" stroke="rgb(218,218,217)" stroke-width="1" opacity="1" d="M 183.5 125 L 184.5 127 L 183.5 125 Z " /><path fill="rgb(218,218,217)" stroke="rgb(218,218,217)" stroke-width="1" opacity="1" d="M 197.5 127 L 196.5 129 L 197.5 127 Z " /><path fill="rgb(218,218,217)" stroke="rgb(218,218,217)" stroke-width="1" opacity="1" d="M 186.5 128 L 187.5 130 L 186.5 128 Z " /><path fill="rgb(218,218,217)" stroke="rgb(218,218,217)" stroke-width="1" opacity="1" d="M 297.5 128 L 298 130.5 L 297 130.5 L 297.5 128 Z " /><path fill="rgb(218,218,217)" stroke="rgb(218,218,217)" stroke-width="1" opacity="1" d="M 256.5 129 L 259 130.5 L 257.5 130 L 256.5 129 Z " /><path fill="rgb(218,218,217)" stroke="rgb(218,218,217)" stroke-width="1" opacity="1" d="M 193.5 130 L 194 138.5 L 193 138.5 L 193.5 130 Z " /><path fill="rgb(218,218,217)" stroke="rgb(218,218,217)" stroke-width="1" opacity="1" d="M 123.5 131 L 125 133.5 L 123 132.5 L 123.5 131 Z " /><path fill="rgb(218,218,217)" stroke="rgb(218,218,217)" stroke-width="1" opacity="1" d="M 187.5 141 L 185.5 144 L 187.5 141 Z " /><path fill="rgb(218,218,217)" stroke="rgb(218,218,217)" stroke-width="1" opacity="1" d="M 174.5 144 L 182 144.5 L 174 145 L 175 148.5 L 173 147.5 L 174.5 144 Z " /><path fill="rgb(218,218,217)" stroke="rgb(218,218,217)" stroke-width="1" opacity="1" d="M 191.5 144 L 193.5 147 L 191.5 144 Z " /><path fill="rgb(218,218,217)" stroke="rgb(218,218,217)" stroke-width="1" opacity="1" d="M 200.5 144 Q 207.3 142.3 209 145.5 L 207.5 145 L 200.5 145 L 200.5 144 Z " /><path fill="rgb(218,218,217)" stroke="rgb(218,218,217)" stroke-width="1" opacity="1" d="M 188.5 146 L 187.5 148 L 188.5 146 Z " /><path fill="rgb(218,218,217)" stroke="rgb(218,218,217)" stroke-width="1" opacity="1" d="M 208.5 147 L 207.5 149 L 208.5 147 Z " /><path fill="rgb(218,218,217)" stroke="rgb(218,218,217)" stroke-width="1" opacity="1" d="M 182.5 148 L 185 148.5 L 182.5 149 L 182.5 148 Z " /><path fill="rgb(218,218,217)" stroke="rgb(218,218,217)" stroke-width="1" opacity="1" d="M 197.5 148 L 200 148.5 L 197.5 149 L 197.5 148 Z " /><path fill="rgb(218,218,217)" stroke="rgb(218,218,217)" stroke-width="1" opacity="1" d="M 150.5 150 L 153 150.5 L 150.5 151 L 150.5 150 Z " /><path fill="rgb(218,218,217)" stroke="rgb(218,218,217)" stroke-width="1" opacity="1" d="M 226.5 150 L 226 151.5 L 225.5 154 L 225 151.5 L 226.5 150 Z " /><path fill="rgb(218,218,217)" stroke="rgb(218,218,217)" stroke-width="1" opacity="1" d="M 229.5 150 L 232 150.5 L 229.5 151 L 229.5 150 Z " /><path fill="rgb(218,218,217)" stroke="rgb(218,218,217)" stroke-width="1" opacity="1" d="M 143.5 151 L 146 151.5 L 143.5 152 L 143.5 151 Z " /><path fill="rgb(218,218,217)" stroke="rgb(218,218,217)" stroke-width="1" opacity="1" d="M 236.5 151 L 239 151.5 L 236.5 152 L 236.5 151 Z " /><path fill="rgb(218,218,217)" stroke="rgb(218,218,217)" stroke-width="1" opacity="1" d="M 136.5 152 L 139 152.5 L 136.5 153 L 136.5 152 Z " /><path fill="rgb(218,218,217)" stroke="rgb(218,218,217)" stroke-width="1" opacity="1" d="M 243.5 152 L 246 152.5 L 243.5 153 L 243.5 152 Z " /><path fill="rgb(218,218,217)" stroke="rgb(218,218,217)" stroke-width="1" opacity="1" d="M 129.5 153 L 132 153.5 L 129.5 154 L 129.5 153 Z " /><path fill="rgb(218,218,217)" stroke="rgb(218,218,217)" stroke-width="1" opacity="1" d="M 156.5 153 L 155.5 155 L 154 154.5 L 156.5 153 Z " /><path fill="rgb(218,218,217)" stroke="rgb(218,218,217)" stroke-width="1" opacity="1" d="M 250.5 153 L 254 153.5 L 250.5 154 L 250.5 153 Z " /><path fill="rgb(218,218,217)" stroke="rgb(218,218,217)" stroke-width="1" opacity="1" d="M 124.5 154 L 124 155.5 Q 122.7 159.7 127.5 158 L 127.5 159 Q 123.8 159.8 123 157.5 L 124.5 154 Z " /><path fill="rgb(218,218,217)" stroke="rgb(218,218,217)" stroke-width="1" opacity="1" d="M 233.5 155 L 236 155.5 L 233.5 156 L 233.5 155 Z " /><path fill="rgb(218,218,217)" stroke="rgb(218,218,217)" stroke-width="1" opacity="1" d="M 139.5 156 L 142 156.5 L 139.5 157 L 139.5 156 Z " /><path fill="rgb(218,218,217)" stroke="rgb(218,218,217)" stroke-width="1" opacity="1" d="M 240.5 156 L 243 156.5 L 240.5 157 L 240.5 156 Z " /><path fill="rgb(218,218,217)" stroke="rgb(218,218,217)" stroke-width="1" opacity="1" d="M 132.5 157 L 135 157.5 L 132.5 158 L 132.5 157 Z " /><path fill="rgb(218,218,217)" stroke="rgb(218,218,217)" stroke-width="1" opacity="1" d="M 198.5 157 L 197.5 159 L 198.5 157 Z " /><path fill="rgb(218,218,217)" stroke="rgb(218,218,217)" stroke-width="1" opacity="1" d="M 215.5 157 L 216.5 159 L 215.5 157 Z " /><path fill="rgb(218,218,217)" stroke="rgb(218,218,217)" stroke-width="1" opacity="1" d="M 247.5 157 L 250 157.5 L 247.5 158 L 247.5 157 Z " /><path fill="rgb(218,218,217)" stroke="rgb(218,218,217)" stroke-width="1" opacity="1" d="M 258.5 157 L 257.5 159 L 254 158.5 L 258.5 157 Z " /><path fill="rgb(218,218,217)" stroke="rgb(218,218,217)" stroke-width="1" opacity="1" d="M 94.5 158 L 95.5 160 L 94.5 158 Z " /><path fill="rgb(218,218,217)" stroke="rgb(218,218,217)" stroke-width="1" opacity="1" d="M 218.5 160 L 219.5 162 L 218.5 160 Z " /><path fill="rgb(218,218,217)" stroke="rgb(218,218,217)" stroke-width="1" opacity="1" d="M 193.5 162 L 191.5 165 L 193.5 162 Z " /><path fill="rgb(218,218,217)" stroke="rgb(218,218,217)" stroke-width="1" opacity="1" d="M 285.5 162 L 284.5 164 L 285.5 162 Z " /><path fill="rgb(218,218,217)" stroke="rgb(218,218,217)" stroke-width="1" opacity="1" d="M 98.5 164 L 99.5 166 L 98.5 164 Z " /><path fill="rgb(218,218,217)" stroke="rgb(218,218,217)" stroke-width="1" opacity="1" d="M 282.5 166 L 281.5 168 L 282.5 166 Z " /><path fill="rgb(218,218,217)" stroke="rgb(218,218,217)" stroke-width="1" opacity="1" d="M 100.5 167 L 102.5 170 L 100.5 167 Z " /><path fill="rgb(218,218,217)" stroke="rgb(218,218,217)" stroke-width="1" opacity="1" d="M 279.5 170 L 270.5 180 L 279.5 170 Z " /><path fill="rgb(218,218,217)" stroke="rgb(218,218,217)" stroke-width="1" opacity="1" d="M 112.5 179 L 114.5 182 L 112.5 179 Z " /><path fill="rgb(218,218,217)" stroke="rgb(218,218,217)" stroke-width="1" opacity="1" d="M 225.5 179 L 226 181.5 L 225 181.5 L 225.5 179 Z " /><path fill="rgb(218,218,217)" stroke="rgb(218,218,217)" stroke-width="1" opacity="1" d="M 267.5 181 L 266.5 183 L 267.5 181 Z " /><path fill="rgb(218,218,217)" stroke="rgb(218,218,217)" stroke-width="1" opacity="1" d="M 226.5 185 L 227 187.5 L 226 187.5 L 226.5 185 Z " /><path fill="rgb(218,218,217)" stroke="rgb(218,218,217)" stroke-width="1" opacity="1" d="M 108.5 193 L 107.5 195 L 108.5 193 Z " /><path fill="rgb(218,218,217)" stroke="rgb(218,218,217)" stroke-width="1" opacity="1" d="M 227.5 194 L 228 198.5 L 227 198.5 L 227.5 194 Z " /><path fill="rgb(218,218,217)" stroke="rgb(218,218,217)" stroke-width="1" opacity="1" d="M 274.5 194 L 275.5 196 L 274.5 194 Z " /><path fill="rgb(218,218,217)" stroke="rgb(218,218,217)" stroke-width="1" opacity="1" d="M 164.5 202 L 168 203.5 L 166.5 203 L 164.5 203 L 157.5 210 L 164.5 202 Z " /><path fill="rgb(218,218,217)" stroke="rgb(218,218,217)" stroke-width="1" opacity="1" d="M 155.5 212 L 154.5 214 L 155.5 212 Z " /><path fill="rgb(218,218,217)" stroke="rgb(218,218,217)" stroke-width="1" opacity="1" d="M 165 213 Q 168 212 167 215 Q 164 216 165 213 Z " /><path fill="rgb(218,218,217)" stroke="rgb(218,218,217)" stroke-width="1" opacity="1" d="M 149.5 221 L 148.5 223 L 149.5 221 Z " /><path fill="rgb(218,218,217)" stroke="rgb(218,218,217)" stroke-width="1" opacity="1" d="M 227.5 230 L 228 234.5 L 227 234.5 L 227.5 230 Z " /><path fill="rgb(218,218,217)" stroke="rgb(218,218,217)" stroke-width="1" opacity="1" d="M 226.5 241 L 227.5 243 L 229 242.5 L 226 244 L 226.5 241 Z " /><path fill="rgb(218,218,217)" stroke="rgb(218,218,217)" stroke-width="1" opacity="1" d="M 243.5 244 L 244.5 246 L 243.5 244 Z " /><path fill="rgb(218,218,217)" stroke="rgb(218,218,217)" stroke-width="1" opacity="1" d="M 109.5 258 L 111 258.5 L 109 259 Q 108.3 262.4 111 263.5 L 108 261.5 L 109.5 258 Z " /><path fill="rgb(218,218,217)" stroke="rgb(218,218,217)" stroke-width="1" opacity="1" d="M 248.5 262 L 249 270.5 L 250 271.5 L 248 272 L 248.5 262 Z " /><path fill="rgb(218,218,217)" stroke="rgb(218,218,217)" stroke-width="1" opacity="1" d="M 267.5 263 L 268 264.5 L 266 265.5 L 267.5 263 Z " /><path fill="rgb(218,218,217)" stroke="rgb(218,218,217)" stroke-width="1" opacity="1" d="M 259.5 264 L 258.5 266 L 259.5 264 Z " /><path fill="rgb(218,218,217)" stroke="rgb(218,218,217)" stroke-width="1" opacity="1" d="M 123.5 266 L 124.5 268 L 123.5 266 Z " /><path fill="rgb(218,218,217)" stroke="rgb(218,218,217)" stroke-width="1" opacity="1" d="M 256.5 266 L 255.5 268 L 256.5 266 Z " /><path fill="rgb(218,218,217)" stroke="rgb(218,218,217)" stroke-width="1" opacity="1" d="M 118.5 268 L 119.5 270 L 118.5 268 Z " /><path fill="rgb(218,218,217)" stroke="rgb(218,218,217)" stroke-width="1" opacity="1" d="M 253.5 268 L 252.5 270 L 253.5 268 Z " /><path fill="rgb(218,218,217)" stroke="rgb(218,218,217)" stroke-width="1" opacity="1" d="M 261.5 268 L 260.5 270 L 261.5 268 Z " /><path fill="rgb(218,218,217)" stroke="rgb(218,218,217)" stroke-width="1" opacity="1" d="M 127.5 269 L 128.5 271 L 127.5 269 Z " /><path fill="rgb(218,218,217)" stroke="rgb(218,218,217)" stroke-width="1" opacity="1" d="M 121.5 270 L 122.5 272 L 121.5 270 Z " /><path fill="rgb(218,218,217)" stroke="rgb(218,218,217)" stroke-width="1" opacity="1" d="M 258.5 270 L 257.5 272 L 258.5 270 Z " /><path fill="rgb(218,218,217)" stroke="rgb(218,218,217)" stroke-width="1" opacity="1" d="M 255.5 272 L 254.5 274 L 255.5 272 Z " /><path fill="rgb(218,218,217)" stroke="rgb(218,218,217)" stroke-width="1" opacity="1" d="M 125.5 273 L 126.5 275 L 125.5 273 Z " /><path fill="rgb(218,218,217)" stroke="rgb(218,218,217)" stroke-width="1" opacity="1" d="M 251.5 275 L 250.5 277 L 251.5 275 Z " /><path fill="rgb(218,218,217)" stroke="rgb(218,218,217)" stroke-width="1" opacity="1" d="M 129.5 276 L 130.5 278 L 129.5 276 Z " /><path fill="rgb(218,218,217)" stroke="rgb(218,218,217)" stroke-width="1" opacity="1" d="M 248.5 278 L 249 284.5 L 248 284.5 L 248.5 278 Z " /><path fill="rgb(218,218,217)" stroke="rgb(218,218,217)" stroke-width="1" opacity="1" d="M 133.5 279 L 134.5 281 L 133.5 279 Z " /><path fill="rgb(218,218,217)" stroke="rgb(218,218,217)" stroke-width="1" opacity="1" d="M 137.5 282 L 138.5 284 L 137.5 282 Z " /><path fill="rgb(218,218,217)" stroke="rgb(218,218,217)" stroke-width="1" opacity="1" d="M 141.5 285 L 142.5 287 L 141.5 285 Z " /><path fill="rgb(218,218,217)" stroke="rgb(218,218,217)" stroke-width="1" opacity="1" d="M 144.5 287 L 145.5 289 L 144.5 287 Z " /><path fill="rgb(218,218,217)" stroke="rgb(218,218,217)" stroke-width="1" opacity="1" d="M 72.5 288 L 73 290.5 L 72 290.5 L 72.5 288 Z " /><path fill="rgb(218,218,217)" stroke="rgb(218,218,217)" stroke-width="1" opacity="1" d="M 228.5 291 L 229.5 293 L 228 292.5 L 227.5 294 L 227 292.5 L 228.5 291 Z " /><path fill="rgb(218,218,217)" stroke="rgb(218,218,217)" stroke-width="1" opacity="1" d="M 310.5 291 L 311 293.5 L 310 293.5 L 310.5 291 Z " /><path fill="rgb(218,218,217)" stroke="rgb(218,218,217)" stroke-width="1" opacity="1" d="M 71.5 293 L 72 297.5 L 71 297.5 L 71.5 293 Z " /><path fill="rgb(218,218,217)" stroke="rgb(218,218,217)" stroke-width="1" opacity="1" d="M 153.5 293 L 154.5 295 L 153.5 293 Z " /><path fill="rgb(218,218,217)" stroke="rgb(218,218,217)" stroke-width="1" opacity="1" d="M 247.5 294 L 248 297.5 L 247 297.5 L 247.5 294 Z " /><path fill="rgb(218,218,217)" stroke="rgb(218,218,217)" stroke-width="1" opacity="1" d="M 311.5 296 L 315 314.5 L 316 331.5 L 317 332.5 L 317 375.5 L 316 376.5 L 316 384.5 L 313 401.5 L 305 426.5 Q 296.9 446.4 282.5 460 L 275.5 465 L 274 455.5 L 272.5 454 Q 269 455 270 460.5 L 272 469.5 L 277 479.5 L 278 490.5 L 277 494.5 L 273.5 498 L 259.5 501 L 249.5 501 L 235.5 498 L 231 493.5 Q 228.5 488 230 478.5 L 231 477.5 L 231 469.5 L 233 459.5 L 229 458 L 228 467.5 L 226.5 469 L 155.5 469 Q 154.4 468.9 155 463.5 Q 152.8 462.3 154 457.5 L 152.5 456 L 150 457.5 L 153 487.5 L 152 492.5 L 148.5 497 L 140.5 500 L 123.5 501 L 122.5 500 L 111.5 499 L 106 495.5 L 105 493.5 L 105 481.5 L 111 467.5 L 112 455.5 L 109.5 454 L 108 455.5 Q 109.7 462.3 106.5 464 Q 97 460 92 451.5 Q 75.6 430.4 69 399.5 L 67 382.5 L 66 381.5 L 66 370.5 L 65 369.5 L 65 339.5 L 66 338.5 L 66 326.5 L 67 325.5 L 68 310.5 L 70.5 299 L 71 308.5 L 70 309.5 L 70 356.5 L 71 357.5 L 71 364.5 L 72 365.5 L 72 372.5 L 74 382.5 L 82 408.5 Q 90.5 430.5 107.5 444 L 117.5 449 L 122.5 450 L 260.5 450 Q 276 446.5 284 435.5 L 293 423.5 L 301 407.5 L 307 389.5 L 312 361.5 L 313 319.5 L 312 318.5 L 311.5 296 Z " /><path fill="rgb(218,218,217)" stroke="rgb(218,218,217)" stroke-width="1" opacity="1" d="M 86.5 301 L 90 301.5 L 86.5 302 L 86.5 301 Z " /><path fill="rgb(218,218,217)" stroke="rgb(218,218,217)" stroke-width="1" opacity="1" d="M 284.5 301 L 287 301.5 L 284.5 302 L 284.5 301 Z " /><path fill="rgb(218,218,217)" stroke="rgb(218,218,217)" stroke-width="1" opacity="1" d="M 246.5 303 L 247 306.5 L 246 306.5 L 246.5 303 Z " /><path fill="rgb(218,218,217)" stroke="rgb(218,218,217)" stroke-width="1" opacity="1" d="M 389.5 303 L 399.5 306 L 412 316.5 Q 421.1 326.9 426 341.5 L 429 355.5 L 429 374.5 L 425 391.5 L 418 406.5 L 399.5 429 Q 383.9 442.9 362.5 451 L 339.5 457 L 313.5 459 L 312.5 458 Q 299.3 459.7 291 456.5 L 293.5 454 Q 302 456 304 451.5 L 308 440.5 L 309 430.5 L 308 428.5 L 311.5 423 Q 321.6 422.8 328 420 L 329 429.5 L 328 430.5 L 328 440.5 L 325 450.5 L 326.5 451 L 349.5 444 L 367 433.5 L 367 428.5 L 364 418.5 L 356 405 L 353.5 406 L 360 398.5 L 366.5 388 Q 379.7 399.6 384 419 L 391 413.5 Q 400.1 403.1 406 389.5 L 409 380.5 L 409 376.5 L 404.5 371 L 388.5 361 L 378.5 359 L 377 357.5 L 377 338.5 L 376 335.5 L 377 335.5 Q 375.9 338.8 378.5 338 L 394.5 342 L 410.5 351 L 411 344.5 L 407 329.5 Q 401.7 316.4 394 307 Q 391.3 308.1 392 305.5 L 389.5 303 Z " /><path fill="rgb(218,218,217)" stroke="rgb(218,218,217)" stroke-width="1" opacity="1" d="M 378.5 305 L 376.5 308 L 378.5 305 Z " /><path fill="rgb(218,218,217)" stroke="rgb(218,218,217)" stroke-width="1" opacity="1" d="M 245.5 312 L 246 314.5 L 245 314.5 L 245.5 312 Z " /><path fill="rgb(218,218,217)" stroke="rgb(218,218,217)" stroke-width="1" opacity="1" d="M 248.5 318 L 247.5 320 L 248.5 318 Z " /><path fill="rgb(218,218,217)" stroke="rgb(218,218,217)" stroke-width="1" opacity="1" d="M 244.5 319 Q 247.5 320.5 244.5 322 L 244.5 319 Z " /><path fill="rgb(218,218,217)" stroke="rgb(218,218,217)" stroke-width="1" opacity="1" d="M 250.5 322 L 249.5 324 L 250.5 322 Z " /><path fill="rgb(218,218,217)" stroke="rgb(218,218,217)" stroke-width="1" opacity="1" d="M 215.5 323 L 214.5 325 L 215.5 323 Z " /><path fill="rgb(218,218,217)" stroke="rgb(218,218,217)" stroke-width="1" opacity="1" d="M 138.5 324 L 139.5 326 L 138.5 324 Z " /><path fill="rgb(218,218,217)" stroke="rgb(218,218,217)" stroke-width="1" opacity="1" d="M 247.5 324 L 246.5 326 L 247.5 324 Z " /><path fill="rgb(218,218,217)" stroke="rgb(218,218,217)" stroke-width="1" opacity="1" d="M 244.5 326 L 243.5 328 L 244.5 326 Z " /><path fill="rgb(218,218,217)" stroke="rgb(218,218,217)" stroke-width="1" opacity="1" d="M 142.5 327 L 145.5 331 L 142.5 327 Z " /><path fill="rgb(218,218,217)" stroke="rgb(218,218,217)" stroke-width="1" opacity="1" d="M 136.5 328 L 137.5 330 L 136.5 328 Z " /><path fill="rgb(218,218,217)" stroke="rgb(218,218,217)" stroke-width="1" opacity="1" d="M 212.5 328 L 211.5 330 L 212.5 328 Z " /><path fill="rgb(218,218,217)" stroke="rgb(218,218,217)" stroke-width="1" opacity="1" d="M 234.5 328 L 233.5 330 L 234.5 328 Z " /><path fill="rgb(218,218,217)" stroke="rgb(218,218,217)" stroke-width="1" opacity="1" d="M 375.5 329 L 376 331.5 L 375 331.5 L 375.5 329 Z " /><path fill="rgb(218,218,217)" stroke="rgb(218,218,217)" stroke-width="1" opacity="1" d="M 140.5 331 L 141.5 333 L 140.5 331 Z " /><path fill="rgb(218,218,217)" stroke="rgb(218,218,217)" stroke-width="1" opacity="1" d="M 210.5 331 L 209.5 333 L 210.5 331 Z " /><path fill="rgb(218,218,217)" stroke="rgb(218,218,217)" stroke-width="1" opacity="1" d="M 208.5 334 L 207.5 336 L 208.5 334 Z " /><path fill="rgb(218,218,217)" stroke="rgb(218,218,217)" stroke-width="1" opacity="1" d="M 230.5 334 L 225.5 340 L 230.5 334 Z " /><path fill="rgb(218,218,217)" stroke="rgb(218,218,217)" stroke-width="1" opacity="1" d="M 148.5 335 L 151.5 339 L 148.5 335 Z " /><path fill="rgb(218,218,217)" stroke="rgb(218,218,217)" stroke-width="1" opacity="1" d="M 171.5 336 L 169.5 339 L 171.5 336 Z " /><path fill="rgb(218,218,217)" stroke="rgb(218,218,217)" stroke-width="1" opacity="1" d="M 234.5 336 L 232.5 339 L 234.5 336 Z " /><path fill="rgb(218,218,217)" stroke="rgb(218,218,217)" stroke-width="1" opacity="1" d="M 144.5 337 L 149.5 343 L 144.5 337 Z " /><path fill="rgb(218,218,217)" stroke="rgb(218,218,217)" stroke-width="1" opacity="1" d="M 207.5 337 L 212.5 343 L 207.5 337 Z " /><path fill="rgb(218,218,217)" stroke="rgb(218,218,217)" stroke-width="1" opacity="1" d="M 204.5 340 L 205.5 342 L 204.5 340 Z " /><path fill="rgb(218,218,217)" stroke="rgb(218,218,217)" stroke-width="1" opacity="1" d="M 223.5 340 L 222.5 342 L 223.5 340 Z " /><path fill="rgb(218,218,217)" stroke="rgb(218,218,217)" stroke-width="1" opacity="1" d="M 229.5 341 L 227.5 344 L 229.5 341 Z " /><path fill="rgb(218,218,217)" stroke="rgb(218,218,217)" stroke-width="1" opacity="1" d="M 200.5 342 L 194.5 349 L 200.5 342 Z " /><path fill="rgb(218,218,217)" stroke="rgb(218,218,217)" stroke-width="1" opacity="1" d="M 225.5 344 L 224.5 346 L 225.5 344 Z " /><path fill="rgb(218,218,217)" stroke="rgb(218,218,217)" stroke-width="1" opacity="1" d="M 209.5 345 L 210.5 347 L 209.5 345 Z " /><path fill="rgb(218,218,217)" stroke="rgb(218,218,217)" stroke-width="1" opacity="1" d="M 215.5 348 L 218 348.5 L 215.5 349 L 215.5 348 Z " /><path fill="rgb(218,218,217)" stroke="rgb(218,218,217)" stroke-width="1" opacity="1" d="M 155.5 352 L 156 354.5 L 155 354.5 L 155.5 352 Z " /><path fill="rgb(218,218,217)" stroke="rgb(218,218,217)" stroke-width="1" opacity="1" d="M 188.5 354 L 186.5 357 L 188.5 354 Z " /><path fill="rgb(218,218,217)" stroke="rgb(218,218,217)" stroke-width="1" opacity="1" d="M 185.5 358 L 184.5 360 L 185.5 358 Z " /><path fill="rgb(218,218,217)" stroke="rgb(218,218,217)" stroke-width="1" opacity="1" d="M 156.5 360 L 157 363.5 L 156 363.5 L 156.5 360 Z " /><path fill="rgb(218,218,217)" stroke="rgb(218,218,217)" stroke-width="1" opacity="1" d="M 349.5 408 L 347.5 411 L 349.5 408 Z " /><path fill="rgb(218,218,217)" stroke="rgb(218,218,217)" stroke-width="1" opacity="1" d="M 345.5 411 L 344.5 413 L 345.5 411 Z " /><path fill="rgb(218,218,217)" stroke="rgb(218,218,217)" stroke-width="1" opacity="1" d="M 300.5 444 L 299.5 446 L 300.5 444 Z " /><path fill="rgb(218,218,217)" stroke="rgb(218,218,217)" stroke-width="1" opacity="1" d="M 298.5 447 L 297.5 449 L 298.5 447 Z " /><path fill="rgb(218,218,217)" stroke="rgb(218,218,217)" stroke-width="1" opacity="1" d="M 296.5 450 L 294.5 453 L 296.5 450 Z " /></svg>