<svg width="512" height="512" version="1.1" xmlns="http://www.w3.org/2000/svg" desc="Created with imagetracer.js version 1.2.6" ><path fill="rgb(0,0,0)" stroke="rgb(0,0,0)" stroke-width="1" opacity="0" d="M 0 0 L 512 0 L 512 512 L 0 512 L 0 0 Z M 88 8 L 83 13 L 83 70 L 79 88 L 78 102 L 77 103 L 77 113 L 76 114 L 77 131 L 83 151 Q 91 169 106 182 L 84 225 L 70 265 L 61 306 L 60 319 L 59 320 L 59 329 L 58 330 L 58 343 L 57 344 L 57 371 L 58 372 L 58 384 L 59 385 L 61 404 L 70 433 Q 76 446 84 457 L 99 471 L 100 471 L 97 485 L 99 497 L 107 502 L 115 504 L 138 504 L 146 502 L 151 499 L 155 492 L 155 479 L 156 478 L 225 478 Q 224 489 227 496 L 232 500 L 243 504 L 267 504 L 278 500 L 282 496 L 283 491 L 283 482 L 280 471 L 284 469 L 289 469 L 309 474 L 333 475 L 334 476 L 339 475 L 354 475 L 355 474 L 367 473 L 388 467 Q 408 459 424 445 Q 436 434 444 420 L 451 405 L 455 385 L 455 371 L 451 352 Q 446 337 437 327 Q 430 318 421 313 L 408 310 L 397 314 Q 391 318 390 326 L 390 335 L 394 356 L 393 374 L 390 386 Q 385 400 376 410 L 360 423 L 346 429 L 335 431 L 321 431 L 311 429 L 316 417 L 319 405 L 321 387 L 322 386 L 322 376 L 323 375 L 323 341 L 322 340 L 322 328 L 320 318 L 320 310 L 314 279 L 305 248 L 294 220 L 274 182 Q 288 170 296 154 L 301 141 L 304 124 L 304 110 L 303 109 L 302 93 L 297 69 L 297 13 L 296 11 L 293 8 L 286 8 L 257 32 L 253 32 L 230 25 L 219 24 L 218 23 L 210 23 L 209 22 L 172 22 L 163 24 L 156 24 L 132 30 L 126 33 L 98 10 Q 95 7 88 8 Z " /><path fill="rgb(218,220,219)" stroke="rgb(218,220,219)" stroke-width="1" opacity="1" d="M 89.5 12 L 92 12.5 L 88.5 14 L 89.5 12 Z " /><path fill="rgb(218,220,219)" stroke="rgb(218,220,219)" stroke-width="1" opacity="1" d="M 93.5 13 L 94.5 15 L 93.5 13 Z " /><path fill="rgb(218,220,219)" stroke="rgb(218,220,219)" stroke-width="1" opacity="1" d="M 285.5 14 L 284.5 16 L 285.5 14 Z " /><path fill="rgb(218,220,219)" stroke="rgb(218,220,219)" stroke-width="1" opacity="1" d="M 292.5 15 L 293 68.5 L 292 68.5 L 292.5 15 Z " /><path fill="rgb(218,220,219)" stroke="rgb(218,220,219)" stroke-width="1" opacity="1" d="M 98.5 17 L 99.5 19 L 98.5 17 Z " /><path fill="rgb(218,220,219)" stroke="rgb(218,220,219)" stroke-width="1" opacity="1" d="M 280.5 18 L 279.5 20 L 280.5 18 Z " /><path fill="rgb(218,220,219)" stroke="rgb(218,220,219)" stroke-width="1" opacity="1" d="M 103.5 21 L 104.5 23 L 103.5 21 Z " /><path fill="rgb(218,220,219)" stroke="rgb(218,220,219)" stroke-width="1" opacity="1" d="M 275.5 22 L 274.5 24 L 275.5 22 Z " /><path fill="rgb(218,220,219)" stroke="rgb(218,220,219)" stroke-width="1" opacity="1" d="M 108.5 25 L 109.5 27 L 108.5 25 Z " /><path fill="rgb(218,220,219)" stroke="rgb(218,220,219)" stroke-width="1" opacity="1" d="M 270.5 26 L 269.5 28 L 270.5 26 Z " /><path fill="rgb(218,220,219)" stroke="rgb(218,220,219)" stroke-width="1" opacity="1" d="M 168.5 27 L 171 27.5 L 168.5 28 L 168.5 27 Z " /><path fill="rgb(218,220,219)" stroke="rgb(218,220,219)" stroke-width="1" opacity="1" d="M 113.5 29 L 114.5 31 L 113.5 29 Z " /><path fill="rgb(218,220,219)" stroke="rgb(218,220,219)" stroke-width="1" opacity="1" d="M 265.5 30 L 264.5 32 L 265.5 30 Z " /><path fill="rgb(218,220,219)" stroke="rgb(218,220,219)" stroke-width="1" opacity="1" d="M 118.5 33 L 119.5 35 L 118.5 33 Z " /><path fill="rgb(218,220,219)" stroke="rgb(218,220,219)" stroke-width="1" opacity="1" d="M 260.5 34 L 259.5 36 L 260.5 34 Z " /><path fill="rgb(218,220,219)" stroke="rgb(218,220,219)" stroke-width="1" opacity="1" d="M 137.5 81 L 136.5 83 L 137.5 81 Z " /><path fill="rgb(218,220,219)" stroke="rgb(218,220,219)" stroke-width="1" opacity="1" d="M 242.5 81 L 243.5 83 L 242.5 81 Z " /><path fill="rgb(218,220,219)" stroke="rgb(218,220,219)" stroke-width="1" opacity="1" d="M 81.5 108 L 82 110.5 L 81 110.5 L 81.5 108 Z " /><path fill="rgb(218,220,219)" stroke="rgb(218,220,219)" stroke-width="1" opacity="1" d="M 182.5 108 L 180.5 111 L 182.5 108 Z " /><path fill="rgb(218,220,219)" stroke="rgb(218,220,219)" stroke-width="1" opacity="1" d="M 81.5 122 L 82 125.5 L 81 125.5 L 81.5 122 Z " /><path fill="rgb(218,220,219)" stroke="rgb(218,220,219)" stroke-width="1" opacity="1" d="M 182.5 123 L 185.5 127 L 182.5 123 Z " /><path fill="rgb(218,220,219)" stroke="rgb(218,220,219)" stroke-width="1" opacity="1" d="M 194.5 126 L 193.5 128 L 194.5 126 Z " /><path fill="rgb(218,220,219)" stroke="rgb(218,220,219)" stroke-width="1" opacity="1" d="M 121.5 130 L 122.5 132 L 121.5 130 Z " /><path fill="rgb(218,220,219)" stroke="rgb(218,220,219)" stroke-width="1" opacity="1" d="M 192.5 134 L 193 136.5 L 192 136.5 L 192.5 134 Z " /><path fill="rgb(218,220,219)" stroke="rgb(218,220,219)" stroke-width="1" opacity="1" d="M 189.5 142 L 193 144.5 L 190.5 143 L 187.5 145 L 189.5 142 Z " /><path fill="rgb(218,220,219)" stroke="rgb(218,220,219)" stroke-width="1" opacity="1" d="M 225.5 151 L 228 152.5 L 226.5 153 L 225.5 151 Z " /><path fill="rgb(218,220,219)" stroke="rgb(218,220,219)" stroke-width="1" opacity="1" d="M 121.5 155 L 122.5 157 L 121.5 155 Z " /><path fill="rgb(218,220,219)" stroke="rgb(218,220,219)" stroke-width="1" opacity="1" d="M 189.5 161 L 191.5 164 L 189.5 161 Z " /><path fill="rgb(218,220,219)" stroke="rgb(218,220,219)" stroke-width="1" opacity="1" d="M 285.5 161 L 284.5 163 L 285.5 161 Z " /><path fill="rgb(218,220,219)" stroke="rgb(218,220,219)" stroke-width="1" opacity="1" d="M 282.5 165 L 281.5 167 L 282.5 165 Z " /><path fill="rgb(218,220,219)" stroke="rgb(218,220,219)" stroke-width="1" opacity="1" d="M 98.5 166 L 99.5 168 L 98.5 166 Z " /><path fill="rgb(218,220,219)" stroke="rgb(218,220,219)" stroke-width="1" opacity="1" d="M 161.5 166 L 160.5 168 L 161.5 166 Z " /><path fill="rgb(218,220,219)" stroke="rgb(218,220,219)" stroke-width="1" opacity="1" d="M 278.5 170 L 273.5 176 L 278.5 170 Z " /><path fill="rgb(218,220,219)" stroke="rgb(218,220,219)" stroke-width="1" opacity="1" d="M 110.5 178 L 111.5 180 L 110.5 178 Z " /><path fill="rgb(218,220,219)" stroke="rgb(218,220,219)" stroke-width="1" opacity="1" d="M 153.5 178 L 152.5 180 L 153.5 178 Z " /><path fill="rgb(218,220,219)" stroke="rgb(218,220,219)" stroke-width="1" opacity="1" d="M 268.5 179 L 267.5 181 L 268.5 179 Z " /><path fill="rgb(218,220,219)" stroke="rgb(218,220,219)" stroke-width="1" opacity="1" d="M 114.5 181 L 115.5 183 L 114.5 181 Z " /><path fill="rgb(218,220,219)" stroke="rgb(218,220,219)" stroke-width="1" opacity="1" d="M 117.5 183 L 118.5 185 L 117.5 183 Z " /><path fill="rgb(218,220,219)" stroke="rgb(218,220,219)" stroke-width="1" opacity="1" d="M 110.5 184 L 109.5 186 L 110.5 184 Z " /><path fill="rgb(218,220,219)" stroke="rgb(218,220,219)" stroke-width="1" opacity="1" d="M 269.5 184 L 268.5 186 L 269.5 184 Z " /><path fill="rgb(218,220,219)" stroke="rgb(218,220,219)" stroke-width="1" opacity="1" d="M 149.5 188 L 154 194.5 L 156 207.5 L 150 215.5 L 147.5 223 L 143 220 L 144.5 217 Q 151.4 215.4 154 209.5 L 152.5 206 Q 145.8 213.3 135.5 217 L 117 218 Q 115.9 215.3 118.5 216 Q 128.9 211.4 142.5 210 L 151 203.5 L 152 198.5 L 149 191.5 L 149.5 188 Z " /><path fill="rgb(218,220,219)" stroke="rgb(218,220,219)" stroke-width="1" opacity="1" d="M 131.5 191 L 140.5 192 L 146 194.5 L 147 201.5 L 139.5 206 L 118 211 L 119 205.5 L 128.5 192 L 131.5 191 Z M 131 194 L 129 198 Q 131 201 137 199 L 140 202 L 141 201 Q 143 202 142 199 Q 139 193 131 194 Z " /><path fill="rgb(218,220,219)" stroke="rgb(218,220,219)" stroke-width="1" opacity="1" d="M 238.5 203 L 239.5 205 L 238.5 203 Z " /><path fill="rgb(218,220,219)" stroke="rgb(218,220,219)" stroke-width="1" opacity="1" d="M 112.5 222 L 113.5 224 L 112.5 222 Z " /><path fill="rgb(218,220,219)" stroke="rgb(218,220,219)" stroke-width="1" opacity="1" d="M 130.5 222 Q 135.8 220.5 134 225 L 123 223.5 L 130.5 222 Z " /><path fill="rgb(218,220,219)" stroke="rgb(218,220,219)" stroke-width="1" opacity="1" d="M 114.5 266 L 115.5 268 L 117 267.5 Q 115.5 270.5 114 267.5 L 114.5 266 Z " /><path fill="rgb(218,220,219)" stroke="rgb(218,220,219)" stroke-width="1" opacity="1" d="M 118.5 270 L 119.5 272 L 118.5 270 Z " /><path fill="rgb(218,220,219)" stroke="rgb(218,220,219)" stroke-width="1" opacity="1" d="M 113.5 272 L 114.5 274 L 113.5 272 Z " /><path fill="rgb(218,220,219)" stroke="rgb(218,220,219)" stroke-width="1" opacity="1" d="M 122.5 273 L 123.5 275 L 122.5 273 Z " /><path fill="rgb(218,220,219)" stroke="rgb(218,220,219)" stroke-width="1" opacity="1" d="M 271.5 273 L 270.5 275 L 271.5 273 Z " /><path fill="rgb(218,220,219)" stroke="rgb(218,220,219)" stroke-width="1" opacity="1" d="M 117.5 275 L 118.5 277 L 117.5 275 Z " /><path fill="rgb(218,220,219)" stroke="rgb(218,220,219)" stroke-width="1" opacity="1" d="M 121.5 278 L 122.5 280 L 121.5 278 Z " /><path fill="rgb(218,220,219)" stroke="rgb(218,220,219)" stroke-width="1" opacity="1" d="M 129.5 278 L 130.5 280 L 129.5 278 Z " /><path fill="rgb(218,220,219)" stroke="rgb(218,220,219)" stroke-width="1" opacity="1" d="M 264.5 278 L 263.5 280 L 264.5 278 Z " /><path fill="rgb(218,220,219)" stroke="rgb(218,220,219)" stroke-width="1" opacity="1" d="M 125.5 281 L 126.5 283 L 125.5 281 Z " /><path fill="rgb(218,220,219)" stroke="rgb(218,220,219)" stroke-width="1" opacity="1" d="M 257.5 283 L 256.5 285 L 257.5 283 Z " /><path fill="rgb(218,220,219)" stroke="rgb(218,220,219)" stroke-width="1" opacity="1" d="M 129.5 284 L 130.5 286 L 129.5 284 Z " /><path fill="rgb(218,220,219)" stroke="rgb(218,220,219)" stroke-width="1" opacity="1" d="M 247.5 290 L 246.5 292 L 247.5 290 Z " /><path fill="rgb(218,220,219)" stroke="rgb(218,220,219)" stroke-width="1" opacity="1" d="M 311.5 291 L 312 294.5 L 311 294.5 L 311.5 291 Z " /><path fill="rgb(218,220,219)" stroke="rgb(218,220,219)" stroke-width="1" opacity="1" d="M 68.5 292 L 69 297.5 L 68 298.5 L 67 323.5 L 66 324.5 L 66 346.5 L 67 347.5 L 67 360.5 L 68 361.5 L 70 381.5 L 77 406.5 Q 85.9 431.6 104.5 447 L 117.5 453 L 150 454.5 L 148 455 L 151 486.5 L 150 491.5 L 146.5 496 L 137.5 499 L 120.5 500 Q 118.8 497.2 112.5 499 L 103 494.5 L 102 481.5 L 109 464.5 L 110 454.5 Q 108.3 450.3 106.5 453 L 105 453.5 L 105 461.5 L 102.5 467 Q 95 464 91 457.5 Q 73.1 435.9 66 403.5 L 63 386.5 L 63 378.5 L 62 377.5 L 62 334.5 L 63 333.5 L 64 316.5 L 68.5 292 Z " /><path fill="rgb(218,220,219)" stroke="rgb(218,220,219)" stroke-width="1" opacity="1" d="M 312.5 296 L 316 314.5 L 317 331.5 L 318 332.5 L 319 364.5 L 318 365.5 L 318 379.5 L 317 380.5 L 316 394.5 L 312 412.5 L 307 427.5 L 294 451.5 L 280.5 466 L 277 467 Q 274.1 461.8 275 453 L 271 453 L 271 463.5 L 278 480.5 L 278 492.5 L 275.5 496 L 267.5 499 L 249.5 500 L 238.5 498 L 232 494.5 L 230 490.5 L 230 474.5 L 233 457.5 L 229 456 L 226 473 L 154.5 473 L 154 470.5 L 153 469.5 L 153 457.5 L 151 454.5 L 256.5 454 L 266.5 452 Q 276 448.5 282 441.5 L 297 420.5 L 308 391.5 L 313 363.5 L 313 352.5 L 314 351.5 L 314 319.5 L 313 318.5 L 312.5 296 Z " /><path fill="rgb(218,220,219)" stroke="rgb(218,220,219)" stroke-width="1" opacity="1" d="M 409.5 315 L 419.5 318 L 435 331.5 Q 442.8 341.3 447 354.5 L 450 368.5 L 450 386.5 Q 443 423.5 418.5 443 Q 401.8 457.3 378.5 465 L 355.5 470 L 326.5 471 L 325.5 470 L 307.5 469 L 289 465 L 291.5 461 L 290.5 464 Q 294 466.5 301.5 465 L 302.5 466 L 324 466 Q 329.9 456 330 439.5 L 329 436 L 345.5 434 L 349.5 432 L 349 433.5 L 350 446.5 L 347 463 L 365.5 458 L 388 447 L 386 433.5 L 376 416.5 Q 383.8 410.4 387 401 Q 389.7 399.9 389 402.5 Q 401.4 412.9 405 431 L 413 424.5 L 427 401.5 L 430 392.5 L 430 388.5 Q 419.2 374.1 398 371 L 398 351.5 Q 398.1 350.4 403.5 351 Q 420.3 354.2 431.5 363 L 432 357.5 Q 427.1 330.9 410.5 316 L 409.5 315 Z " /><path fill="rgb(218,220,219)" stroke="rgb(218,220,219)" stroke-width="1" opacity="1" d="M 262.5 321 L 261.5 323 L 262.5 321 Z " /><path fill="rgb(218,220,219)" stroke="rgb(218,220,219)" stroke-width="1" opacity="1" d="M 259.5 323 L 258.5 325 L 259.5 323 Z " /><path fill="rgb(218,220,219)" stroke="rgb(218,220,219)" stroke-width="1" opacity="1" d="M 118.5 324 L 119.5 326 L 118.5 324 Z " /><path fill="rgb(218,220,219)" stroke="rgb(218,220,219)" stroke-width="1" opacity="1" d="M 129.5 326 L 130.5 328 L 129.5 326 Z " /><path fill="rgb(218,220,219)" stroke="rgb(218,220,219)" stroke-width="1" opacity="1" d="M 124.5 328 L 125.5 330 L 124.5 328 Z " /><path fill="rgb(218,220,219)" stroke="rgb(218,220,219)" stroke-width="1" opacity="1" d="M 133.5 329 L 135.5 332 L 133.5 329 Z " /><path fill="rgb(218,220,219)" stroke="rgb(218,220,219)" stroke-width="1" opacity="1" d="M 251.5 329 L 249.5 332 L 251.5 329 Z " /><path fill="rgb(218,220,219)" stroke="rgb(218,220,219)" stroke-width="1" opacity="1" d="M 128.5 331 L 129.5 333 L 128.5 331 Z " /><path fill="rgb(218,220,219)" stroke="rgb(218,220,219)" stroke-width="1" opacity="1" d="M 220.5 335 L 221.5 337 L 220.5 335 Z " /><path fill="rgb(218,220,219)" stroke="rgb(218,220,219)" stroke-width="1" opacity="1" d="M 139.5 337 L 142.5 341 L 139.5 337 Z " /><path fill="rgb(218,220,219)" stroke="rgb(218,220,219)" stroke-width="1" opacity="1" d="M 244.5 338 L 243.5 340 L 244.5 338 Z " /><path fill="rgb(218,220,219)" stroke="rgb(218,220,219)" stroke-width="1" opacity="1" d="M 223.5 339 L 228.5 345 L 223.5 339 Z " /><path fill="rgb(218,220,219)" stroke="rgb(218,220,219)" stroke-width="1" opacity="1" d="M 160.5 340 L 157.5 344 L 160.5 340 Z " /><path fill="rgb(218,220,219)" stroke="rgb(218,220,219)" stroke-width="1" opacity="1" d="M 166.5 340 L 165.5 342 L 166.5 340 Z " /><path fill="rgb(218,220,219)" stroke="rgb(218,220,219)" stroke-width="1" opacity="1" d="M 218.5 340 L 219.5 342 L 218.5 340 Z " /><path fill="rgb(218,220,219)" stroke="rgb(218,220,219)" stroke-width="1" opacity="1" d="M 276.5 341 L 307.5 373 L 276.5 341 Z " /><path fill="rgb(218,220,219)" stroke="rgb(218,220,219)" stroke-width="1" opacity="1" d="M 140.5 344 L 141.5 346 L 140.5 344 Z " /><path fill="rgb(218,220,219)" stroke="rgb(218,220,219)" stroke-width="1" opacity="1" d="M 159.5 347 L 158.5 349 L 159.5 347 Z " /><path fill="rgb(218,220,219)" stroke="rgb(218,220,219)" stroke-width="1" opacity="1" d="M 373.5 418 L 371.5 421 L 373.5 418 Z " /><path fill="rgb(218,220,219)" stroke="rgb(218,220,219)" stroke-width="1" opacity="1" d="M 320.5 435 L 324 435.5 L 320.5 436 L 320.5 435 Z " /><path fill="rgb(218,220,219)" stroke="rgb(218,220,219)" stroke-width="1" opacity="1" d="M 299.5 451 L 298.5 453 L 299.5 451 Z " /><path fill="rgb(218,220,219)" stroke="rgb(218,220,219)" stroke-width="1" opacity="1" d="M 296.5 455 L 295.5 457 L 296.5 455 Z " /><path fill="rgb(233,233,233)" stroke="rgb(233,233,233)" stroke-width="1" opacity="1" d="M 192.5 128 L 193 133.5 L 192 133.5 L 192.5 128 Z " /><path fill="rgb(233,233,233)" stroke="rgb(233,233,233)" stroke-width="1" opacity="1" d="M 194.5 139 L 195.5 141 L 194.5 139 Z " /><path fill="rgb(233,233,233)" stroke="rgb(233,233,233)" stroke-width="1" opacity="1" d="M 183.5 160 L 182.5 162 L 183.5 160 Z " /><path fill="rgb(233,233,233)" stroke="rgb(233,233,233)" stroke-width="1" opacity="1" d="M 100.5 168 L 101.5 170 L 100.5 168 Z " /><path fill="rgb(233,233,233)" stroke="rgb(233,233,233)" stroke-width="1" opacity="1" d="M 155.5 175 L 154.5 177 L 155.5 175 Z " /><path fill="rgb(233,233,233)" stroke="rgb(233,233,233)" stroke-width="1" opacity="1" d="M 108.5 176 L 109.5 178 L 108.5 176 Z " /><path fill="rgb(233,233,233)" stroke="rgb(233,233,233)" stroke-width="1" opacity="1" d="M 198.5 178 L 197.5 180 L 198.5 178 Z " /><path fill="rgb(233,233,233)" stroke="rgb(233,233,233)" stroke-width="1" opacity="1" d="M 124.5 189 L 123.5 191 L 124.5 189 Z " /><path fill="rgb(233,233,233)" stroke="rgb(233,233,233)" stroke-width="1" opacity="1" d="M 233.5 190 L 234 194.5 L 233 194.5 L 233.5 190 Z " /><path fill="rgb(233,233,233)" stroke="rgb(233,233,233)" stroke-width="1" opacity="1" d="M 236.5 200 L 237.5 202 L 236.5 200 Z " /><path fill="rgb(233,233,233)" stroke="rgb(233,233,233)" stroke-width="1" opacity="1" d="M 112.5 213 L 111.5 215 L 112.5 213 Z " /><path fill="rgb(233,233,233)" stroke="rgb(233,233,233)" stroke-width="1" opacity="1" d="M 118.5 268 L 117.5 270 L 118.5 268 Z " /><path fill="rgb(233,233,233)" stroke="rgb(233,233,233)" stroke-width="1" opacity="1" d="M 70.5 284 L 71 286.5 L 70 286.5 L 70.5 284 Z " /><path fill="rgb(233,233,233)" stroke="rgb(233,233,233)" stroke-width="1" opacity="1" d="M 310.5 288 L 311 292.5 L 310 292.5 L 310.5 288 Z " /><path fill="rgb(233,233,233)" stroke="rgb(233,233,233)" stroke-width="1" opacity="1" d="M 69.5 289 L 70 294.5 L 69 294.5 L 69.5 289 Z " /><path fill="rgb(233,233,233)" stroke="rgb(233,233,233)" stroke-width="1" opacity="1" d="M 311.5 295 L 312 300.5 L 311 300.5 L 311.5 295 Z " /><path fill="rgb(233,233,233)" stroke="rgb(233,233,233)" stroke-width="1" opacity="1" d="M 68.5 298 L 69 303.5 L 68 303.5 L 68.5 298 Z " /><path fill="rgb(233,233,233)" stroke="rgb(233,233,233)" stroke-width="1" opacity="1" d="M 312.5 305 L 313 312.5 L 312 312.5 L 312.5 305 Z " /><path fill="rgb(233,233,233)" stroke="rgb(233,233,233)" stroke-width="1" opacity="1" d="M 67.5 308 L 68 317.5 L 67 317.5 L 67.5 308 Z " /><path fill="rgb(233,233,233)" stroke="rgb(233,233,233)" stroke-width="1" opacity="1" d="M 410.5 316 L 419 325.5 L 415 322.5 L 410.5 316 Z " /><path fill="rgb(233,233,233)" stroke="rgb(233,233,233)" stroke-width="1" opacity="1" d="M 399.5 318 L 398.5 320 L 399.5 318 Z " /><path fill="rgb(233,233,233)" stroke="rgb(233,233,233)" stroke-width="1" opacity="1" d="M 313.5 319 L 314 351.5 L 313 351.5 L 313.5 319 Z " /><path fill="rgb(233,233,233)" stroke="rgb(233,233,233)" stroke-width="1" opacity="1" d="M 66.5 324 L 67 346.5 L 66 346.5 L 66.5 324 Z " /><path fill="rgb(233,233,233)" stroke="rgb(233,233,233)" stroke-width="1" opacity="1" d="M 262.5 327 L 275.5 341 L 262.5 327 Z " /><path fill="rgb(233,233,233)" stroke="rgb(233,233,233)" stroke-width="1" opacity="1" d="M 419.5 327 L 420.5 329 L 419.5 327 Z " /><path fill="rgb(233,233,233)" stroke="rgb(233,233,233)" stroke-width="1" opacity="1" d="M 422.5 332 L 426 338.5 L 425 338.5 L 422.5 332 Z " /><path fill="rgb(233,233,233)" stroke="rgb(233,233,233)" stroke-width="1" opacity="1" d="M 130.5 333 L 131.5 335 L 130.5 333 Z " /><path fill="rgb(233,233,233)" stroke="rgb(233,233,233)" stroke-width="1" opacity="1" d="M 426.5 340 L 428 343.5 L 427 343.5 L 426.5 340 Z " /><path fill="rgb(233,233,233)" stroke="rgb(233,233,233)" stroke-width="1" opacity="1" d="M 220.5 343 L 223.5 347 L 220.5 343 Z " /><path fill="rgb(233,233,233)" stroke="rgb(233,233,233)" stroke-width="1" opacity="1" d="M 429.5 348 L 430 350.5 L 429 350.5 L 429.5 348 Z " /><path fill="rgb(233,233,233)" stroke="rgb(233,233,233)" stroke-width="1" opacity="1" d="M 398.5 350 L 401 350.5 L 398.5 351 L 398.5 350 Z " /><path fill="rgb(233,233,233)" stroke="rgb(233,233,233)" stroke-width="1" opacity="1" d="M 67.5 352 L 68 360.5 L 67 360.5 L 67.5 352 Z " /><path fill="rgb(233,233,233)" stroke="rgb(233,233,233)" stroke-width="1" opacity="1" d="M 430.5 352 L 431 355.5 L 430 355.5 L 430.5 352 Z " /><path fill="rgb(233,233,233)" stroke="rgb(233,233,233)" stroke-width="1" opacity="1" d="M 312.5 356 L 313 363.5 L 312 363.5 L 312.5 356 Z " /><path fill="rgb(233,233,233)" stroke="rgb(233,233,233)" stroke-width="1" opacity="1" d="M 431.5 357 L 432 361.5 L 431 361.5 L 431.5 357 Z " /><path fill="rgb(233,233,233)" stroke="rgb(233,233,233)" stroke-width="1" opacity="1" d="M 68.5 363 L 69 368.5 L 68 368.5 L 68.5 363 Z " /><path fill="rgb(233,233,233)" stroke="rgb(233,233,233)" stroke-width="1" opacity="1" d="M 311.5 366 L 312 370.5 L 311 370.5 L 311.5 366 Z " /><path fill="rgb(233,233,233)" stroke="rgb(233,233,233)" stroke-width="1" opacity="1" d="M 69.5 372 L 70 375.5 L 69 375.5 L 69.5 372 Z " /><path fill="rgb(233,233,233)" stroke="rgb(233,233,233)" stroke-width="1" opacity="1" d="M 310.5 374 L 311 376.5 L 310 376.5 L 310.5 374 Z " /><path fill="rgb(233,233,233)" stroke="rgb(233,233,233)" stroke-width="1" opacity="1" d="M 70.5 377 L 71 381.5 L 70 381.5 L 70.5 377 Z " /><path fill="rgb(233,233,233)" stroke="rgb(233,233,233)" stroke-width="1" opacity="1" d="M 418.5 378 L 419.5 380 L 418.5 378 Z " /><path fill="rgb(233,233,233)" stroke="rgb(233,233,233)" stroke-width="1" opacity="1" d="M 309.5 379 L 310 382.5 L 309 382.5 L 309.5 379 Z " /><path fill="rgb(233,233,233)" stroke="rgb(233,233,233)" stroke-width="1" opacity="1" d="M 422.5 381 L 424.5 384 L 422.5 381 Z " /><path fill="rgb(233,233,233)" stroke="rgb(233,233,233)" stroke-width="1" opacity="1" d="M 71.5 383 L 72 385.5 L 71 385.5 L 71.5 383 Z " /><path fill="rgb(233,233,233)" stroke="rgb(233,233,233)" stroke-width="1" opacity="1" d="M 308.5 384 L 309 387.5 L 307.5 392 L 307 388.5 L 308.5 384 Z " /><path fill="rgb(233,233,233)" stroke="rgb(233,233,233)" stroke-width="1" opacity="1" d="M 426.5 385 L 429.5 389 L 426.5 385 Z " /><path fill="rgb(233,233,233)" stroke="rgb(233,233,233)" stroke-width="1" opacity="1" d="M 72.5 388 L 73 390.5 L 72 390.5 L 72.5 388 Z " /><path fill="rgb(233,233,233)" stroke="rgb(233,233,233)" stroke-width="1" opacity="1" d="M 74.5 395 L 77 403.5 L 76 403.5 L 74.5 395 Z " /><path fill="rgb(233,233,233)" stroke="rgb(233,233,233)" stroke-width="1" opacity="1" d="M 305.5 396 L 306 398.5 L 302.5 407 L 302 405.5 L 305.5 396 Z " /><path fill="rgb(233,233,233)" stroke="rgb(233,233,233)" stroke-width="1" opacity="1" d="M 426.5 400 L 427 401.5 L 424.5 406 L 424 404.5 L 426.5 400 Z " /><path fill="rgb(233,233,233)" stroke="rgb(233,233,233)" stroke-width="1" opacity="1" d="M 389.5 402 L 393.5 407 L 389.5 402 Z " /><path fill="rgb(233,233,233)" stroke="rgb(233,233,233)" stroke-width="1" opacity="1" d="M 77.5 405 L 79 408.5 L 78 408.5 L 77.5 405 Z " /><path fill="rgb(233,233,233)" stroke="rgb(233,233,233)" stroke-width="1" opacity="1" d="M 423.5 407 L 423 408.5 L 420.5 413 L 421 411.5 L 423.5 407 Z " /><path fill="rgb(233,233,233)" stroke="rgb(233,233,233)" stroke-width="1" opacity="1" d="M 301.5 408 L 302 409.5 L 300.5 412 L 300 410.5 L 301.5 408 Z " /><path fill="rgb(233,233,233)" stroke="rgb(233,233,233)" stroke-width="1" opacity="1" d="M 395.5 409 L 396.5 411 L 395.5 409 Z " /><path fill="rgb(233,233,233)" stroke="rgb(233,233,233)" stroke-width="1" opacity="1" d="M 79.5 410 L 82 415.5 L 81 415.5 L 79.5 410 Z " /><path fill="rgb(233,233,233)" stroke="rgb(233,233,233)" stroke-width="1" opacity="1" d="M 419.5 414 L 418.5 416 L 419.5 414 Z " /><path fill="rgb(233,233,233)" stroke="rgb(233,233,233)" stroke-width="1" opacity="1" d="M 298.5 415 L 299 416.5 L 295.5 422 L 296 420.5 L 298.5 415 Z " /><path fill="rgb(233,233,233)" stroke="rgb(233,233,233)" stroke-width="1" opacity="1" d="M 417.5 417 L 416 419.5 L 406.5 431 Q 404.3 431.8 405 429.5 L 406.5 430 L 412 424.5 L 417.5 417 Z " /><path fill="rgb(233,233,233)" stroke="rgb(233,233,233)" stroke-width="1" opacity="1" d="M 376.5 418 L 378.5 421 L 376.5 418 Z " /><path fill="rgb(233,233,233)" stroke="rgb(233,233,233)" stroke-width="1" opacity="1" d="M 83.5 419 L 87 424.5 L 85 423.5 L 83.5 419 Z " /><path fill="rgb(233,233,233)" stroke="rgb(233,233,233)" stroke-width="1" opacity="1" d="M 379.5 422 L 380.5 424 L 379.5 422 Z " /><path fill="rgb(233,233,233)" stroke="rgb(233,233,233)" stroke-width="1" opacity="1" d="M 293.5 425 L 293 426.5 L 282.5 440 L 287 434.5 L 293.5 425 Z " /><path fill="rgb(233,233,233)" stroke="rgb(233,233,233)" stroke-width="1" opacity="1" d="M 87.5 426 Q 94.5 438 105 446.5 L 93 435.5 L 87.5 426 Z " /><path fill="rgb(233,233,233)" stroke="rgb(233,233,233)" stroke-width="1" opacity="1" d="M 349.5 434 L 350 437.5 L 349 437.5 L 349.5 434 Z " /><path fill="rgb(233,233,233)" stroke="rgb(233,233,233)" stroke-width="1" opacity="1" d="M 329.5 439 L 330 444.5 L 329 444.5 L 329.5 439 Z " /><path fill="rgb(233,233,233)" stroke="rgb(233,233,233)" stroke-width="1" opacity="1" d="M 281.5 441 L 278.5 445 L 270.5 450 L 271.5 448 L 281.5 441 Z " /><path fill="rgb(233,233,233)" stroke="rgb(233,233,233)" stroke-width="1" opacity="1" d="M 386.5 446 L 388 446.5 L 385.5 448 L 386.5 446 Z " /><path fill="rgb(233,233,233)" stroke="rgb(233,233,233)" stroke-width="1" opacity="1" d="M 106.5 447 L 113 450.5 L 111.5 451 Q 106.9 449.8 106.5 447 Z " /><path fill="rgb(233,233,233)" stroke="rgb(233,233,233)" stroke-width="1" opacity="1" d="M 349.5 447 L 350 449.5 L 349 449.5 L 349.5 447 Z " /><path fill="rgb(233,233,233)" stroke="rgb(233,233,233)" stroke-width="1" opacity="1" d="M 383.5 448 L 382.5 450 L 378.5 452 L 379.5 450 L 383.5 448 Z " /><path fill="rgb(233,233,233)" stroke="rgb(233,233,233)" stroke-width="1" opacity="1" d="M 117.5 452 L 120 452.5 L 117.5 453 L 117.5 452 Z " /><path fill="rgb(233,233,233)" stroke="rgb(233,233,233)" stroke-width="1" opacity="1" d="M 260.5 452 L 263 452.5 L 260.5 453 L 260.5 452 Z " /><path fill="rgb(233,233,233)" stroke="rgb(233,233,233)" stroke-width="1" opacity="1" d="M 375.5 452 L 377 452.5 L 369.5 456 L 369.5 455 L 375.5 452 Z " /><path fill="rgb(233,233,233)" stroke="rgb(233,233,233)" stroke-width="1" opacity="1" d="M 124.5 453 L 257 453.5 L 124.5 454 L 124.5 453 Z " /><path fill="rgb(233,233,233)" stroke="rgb(233,233,233)" stroke-width="1" opacity="1" d="M 366.5 456 L 368 456.5 L 364.5 458 L 364.5 457 L 366.5 456 Z " /><path fill="rgb(233,233,233)" stroke="rgb(233,233,233)" stroke-width="1" opacity="1" d="M 293.5 459 L 292.5 461 L 293.5 459 Z " /><path fill="rgb(233,233,233)" stroke="rgb(233,233,233)" stroke-width="1" opacity="1" d="M 354.5 460 L 357 460.5 L 354.5 461 L 354.5 460 Z " /><path fill="rgb(233,233,233)" stroke="rgb(233,233,233)" stroke-width="1" opacity="1" d="M 350.5 461 L 353 461.5 L 350.5 462 L 350.5 461 Z " /><path fill="rgb(233,233,233)" stroke="rgb(233,233,233)" stroke-width="1" opacity="1" d="M 292.5 464 L 298 464.5 L 292.5 465 L 292.5 464 Z " /><path fill="rgb(233,233,233)" stroke="rgb(233,233,233)" stroke-width="1" opacity="1" d="M 302.5 465 L 324 465.5 L 302.5 466 L 302.5 465 Z " /><path fill="rgb(104,92,95)" stroke="rgb(104,92,95)" stroke-width="1" opacity="0.9490196078431372" d="M 87.5 8 Q 94.5 7 97.5 10 L 125.5 33 L 131.5 30 L 155.5 24 L 162.5 24 L 171.5 22 L 208.5 22 L 209.5 23 L 217.5 23 L 218.5 24 L 229.5 25 L 252.5 32 L 256.5 32 L 285.5 8 L 292.5 8 L 296 10.5 L 297 12.5 L 297 68.5 L 302 92.5 L 303 108.5 L 304 109.5 L 304 123.5 L 301 140.5 L 296 153.5 Q 287.9 170.4 274 181.5 L 294 219.5 L 305 247.5 L 314 278.5 L 320 309.5 L 320 317.5 L 322 327.5 L 322 339.5 L 323 340.5 L 323 374.5 L 322 375.5 L 322 385.5 L 321 386.5 L 319 404.5 L 316 416.5 L 311 428.5 L 320.5 431 L 334.5 431 L 345.5 429 L 359.5 423 L 376 409.5 Q 385 399.5 390 385.5 L 393 373.5 L 394 355.5 L 390 334.5 L 390 325.5 Q 391.4 317.9 396.5 314 L 407.5 310 L 420.5 313 Q 430.3 318.3 437 326.5 Q 446.1 336.9 451 351.5 L 455 370.5 L 455 384.5 L 451 404.5 L 444 419.5 Q 435.6 434.1 423.5 445 Q 408.3 458.8 387.5 467 L 366.5 473 L 354.5 474 L 353.5 475 L 338.5 475 L 333.5 476 L 332.5 475 L 308.5 474 L 288.5 469 L 283.5 469 L 280 471 L 283 481.5 L 283 490.5 L 282 495.5 L 277.5 500 L 266.5 504 L 242.5 504 L 231.5 500 L 227 495.5 Q 223.8 488.5 225 478 L 155.5 478 L 155 478.5 L 155 491.5 L 150.5 499 L 145.5 502 L 137.5 504 L 114.5 504 L 106.5 502 L 99 496.5 L 97 484.5 L 100 471 L 98.5 471 L 84 456.5 Q 75.5 446 70 432.5 L 61 403.5 L 59 384.5 L 58 383.5 L 58 371.5 L 57 370.5 L 57 343.5 L 58 342.5 L 58 329.5 L 59 328.5 L 59 319.5 L 60 318.5 L 61 305.5 L 70 264.5 L 84 224.5 L 106 181.5 Q 91.2 169.3 83 150.5 L 77 130.5 L 76 113.5 L 77 112.5 L 77 102.5 L 78 101.5 L 79 87.5 L 83 69.5 L 83 12.5 L 87.5 8 Z M 90 12 L 87 15 L 87 73 L 85 79 L 83 97 L 82 98 L 82 106 L 81 107 L 81 127 L 84 141 Q 90 158 101 171 L 119 186 L 118 188 L 111 184 L 104 194 L 92 218 L 80 248 L 74 267 L 65 308 L 63 331 L 62 332 L 62 347 L 61 348 L 62 381 L 68 413 Q 75 438 89 456 L 103 468 Q 107 464 105 455 L 109 453 L 109 464 L 102 481 L 102 493 L 103 495 L 109 498 L 118 500 L 134 500 L 146 497 L 151 490 L 151 479 L 149 471 L 148 457 L 152 455 L 153 471 L 154 472 L 155 473 L 226 473 L 227 472 L 227 466 L 229 458 Q 231 455 232 458 L 231 472 L 230 473 L 230 492 L 231 494 L 238 498 L 247 500 L 264 500 L 269 499 Q 275 498 278 494 L 278 480 L 271 462 L 271 454 L 274 453 L 275 455 Q 274 463 278 468 L 280 467 Q 297 453 306 431 L 315 402 L 317 384 L 318 383 L 318 372 L 319 371 L 319 343 L 318 342 L 317 321 L 316 320 L 314 301 L 307 270 L 293 229 L 271 184 L 263 188 L 261 186 L 272 178 Q 293 161 299 129 L 299 104 L 293 71 L 293 15 L 291 12 L 287 13 L 258 37 L 254 37 L 228 29 L 216 28 L 215 27 L 204 27 L 203 26 L 178 26 L 177 27 L 159 28 L 134 34 L 128 37 L 122 36 L 93 12 L 90 12 Z M 405 315 L 402 316 L 395 324 L 395 339 L 398 352 L 398 371 L 396 381 Q 392 398 382 410 Q 368 429 340 435 L 318 435 L 310 433 Q 302 452 288 465 L 306 469 L 322 470 L 323 471 L 350 471 L 373 467 Q 399 460 417 445 Q 431 434 440 418 Q 447 405 450 389 L 450 367 L 447 354 L 439 337 L 430 325 L 416 316 L 405 315 Z " /><path fill="rgb(104,92,95)" stroke="rgb(104,92,95)" stroke-width="1" opacity="0.9490196078431372" d="M 141.5 80 L 148 84.5 Q 148.8 90.3 145.5 92 L 139.5 93 Q 135.4 91 135 85.5 L 138.5 81 L 141.5 80 Z " /><path fill="rgb(104,92,95)" stroke="rgb(104,92,95)" stroke-width="1" opacity="0.9490196078431372" d="M 237.5 80 Q 242.3 80.3 244 83.5 L 245 87.5 L 243 92 L 236.5 93 L 233 90.5 L 232 84.5 L 237.5 80 Z " /><path fill="rgb(104,92,95)" stroke="rgb(104,92,95)" stroke-width="1" opacity="0.9490196078431372" d="M 184.5 108 L 196.5 108 L 200 111.5 L 200 118.5 L 193.5 127 L 192 127.5 L 192 137.5 L 196.5 142 Q 204.7 140.9 208 143 L 206.5 146 Q 193.8 148.2 189.5 142 Q 185.9 148.4 173.5 146 L 172 143 Q 175.3 140.9 183.5 142 L 187 139.5 L 188 137.5 L 188 127 L 183 123.5 Q 179 120 180 111.5 L 184.5 108 Z " /><path fill="rgb(104,92,95)" stroke="rgb(104,92,95)" stroke-width="1" opacity="0.9490196078431372" d="M 123.5 127 L 148.5 134 L 155 137.5 L 153.5 140 L 124.5 132 L 121 129.5 L 123.5 127 Z " /><path fill="rgb(104,92,95)" stroke="rgb(104,92,95)" stroke-width="1" opacity="0.9490196078431372" d="M 256.5 127 L 259 128.5 L 257.5 131 L 227.5 140 L 225 139 L 226.5 136 L 256.5 127 Z " /><path fill="rgb(104,92,95)" stroke="rgb(104,92,95)" stroke-width="1" opacity="0.9490196078431372" d="M 152.5 148 L 155 149.5 L 153.5 152 L 122 156 L 123.5 152 L 151.5 149 L 152.5 148 Z " /><path fill="rgb(104,92,95)" stroke="rgb(104,92,95)" stroke-width="1" opacity="0.9490196078431372" d="M 226.5 148 L 256.5 152 L 259 153 L 257.5 156 L 230.5 153 L 225 150.5 L 226.5 148 Z " /><path fill="rgb(104,92,95)" stroke="rgb(104,92,95)" stroke-width="1" opacity="0.9490196078431372" d="M 185.5 160 L 192 164.5 L 196 174.5 L 196 178.5 L 197.5 180 Q 200.6 174.6 210.5 176 L 222 180 L 223.5 177 L 226.5 176 L 230 178.5 Q 234.8 185.7 233 199.5 L 232.5 201 Q 237.9 199.1 237 202.5 Q 259.5 229.3 264 273 L 282.5 262 L 284 264.5 L 245.5 292 L 229.5 301 L 220.5 304 L 213 309.5 Q 210.7 312.7 212 319.5 Q 217 335.5 228.5 345 L 234.5 346 Q 242.3 342.8 247 336.5 L 253.5 328 Q 267.4 317.4 284.5 310 Q 292.7 308.7 297.5 304 L 305 303 Q 306.5 306.7 303.5 306 L 276.5 318 L 262 327.5 L 308 373.5 L 304.5 377 L 256.5 407 L 251 408 L 232 350 Q 224.6 349.4 221 343.5 L 217.5 339 L 195.5 333 L 175 323 Q 170.2 339.5 157.5 349 L 150.5 350 Q 139.2 345.8 133 336.5 L 132 333 L 104.5 316 L 75 306 L 76.5 303 L 83.5 304 L 100.5 310 Q 120.8 318.8 136 332.5 Q 137.6 339.4 143.5 342 L 150.5 346 L 154.5 346 L 163 338.5 L 171 324.5 Q 173.9 319.9 173 311.5 L 170.5 308 L 141.5 293 L 98 261.5 L 99.5 259 L 101.5 259 L 130 279 L 126 271.5 L 127.5 269 Q 116 270 112 263.5 Q 111.4 258.9 114 257.5 Q 110 255.5 112 247.5 L 114 243.5 L 115 234.5 L 118 229 L 121 227.5 L 111 220.5 L 112 214 Q 115 215.3 114 211.5 L 113 209.5 L 116 202.5 L 125.5 189 Q 128.8 185.8 136.5 187 L 145 189 L 146 184 L 149.5 183 L 151 183.5 L 159 169.5 L 162.5 166 Q 165.5 163 172.5 164 L 180.5 166 L 183.5 161 L 185.5 160 Z M 187 165 L 185 167 L 188 173 L 187 182 L 182 186 L 157 193 L 160 196 Q 180 195 190 183 L 191 186 L 193 185 L 193 180 L 190 170 L 187 165 Z M 168 168 L 166 169 L 154 186 L 156 188 L 180 182 L 184 179 L 183 172 L 179 169 L 168 168 Z M 150 188 L 149 192 L 152 199 L 150 205 L 145 209 L 123 214 L 119 216 Q 115 215 116 218 L 122 219 Q 143 218 153 206 L 154 210 Q 150 216 142 219 L 148 223 L 149 218 L 156 208 Q 156 194 150 188 Z M 131 191 L 129 192 L 118 209 Q 116 210 119 211 L 143 205 L 147 202 L 146 195 L 142 192 L 131 191 Z M 186 191 Q 179 198 166 200 L 179 202 L 179 200 Q 180 196 185 196 L 187 192 L 186 191 Z M 161 200 L 161 201 L 163 201 L 161 200 Z M 166 204 L 164 205 L 154 218 L 152 224 L 176 219 L 180 217 L 182 214 L 180 206 L 166 204 Z M 235 206 Q 194 251 132 272 L 132 275 L 138 284 L 151 294 L 171 303 L 177 311 L 177 319 Q 192 330 214 334 L 208 320 Q 207 312 209 309 L 215 303 Q 241 293 260 277 L 260 268 L 258 257 L 252 237 Q 246 220 236 208 Q 237 205 235 206 Z M 187 210 L 184 219 L 177 223 L 154 228 L 150 231 L 155 232 L 162 232 L 171 230 Q 180 227 186 220 L 188 220 L 189 223 Q 179 235 157 237 L 164 238 L 177 246 L 183 244 L 192 238 L 194 232 L 190 214 L 187 210 Z M 131 222 L 123 224 L 134 225 Q 136 221 131 222 Z M 258 330 L 253 333 L 252 337 Q 246 346 236 349 L 253 402 L 255 403 L 301 375 L 302 373 L 258 330 Z " /><path fill="rgb(104,92,95)" stroke="rgb(104,92,95)" stroke-width="1" opacity="0.9490196078431372" d="M 166.5 171 Q 175.8 169.7 178 175.5 L 176.5 178 L 165 173.5 L 166.5 171 Z " /><path fill="rgb(104,92,95)" stroke="rgb(104,92,95)" stroke-width="1" opacity="0.9490196078431372" d="M 131.5 194 L 135.5 194 L 142 198.5 L 140.5 201 L 136.5 199 L 130.5 199 L 129 197.5 Q 127.9 194.2 130.5 195 L 131.5 194 Z " /><path fill="rgb(104,92,95)" stroke="rgb(104,92,95)" stroke-width="1" opacity="0.9490196078431372" d="M 167.5 207 Q 174 206 176 209.5 L 174.5 212 L 168.5 211 L 163 213 Q 162.3 209.2 165.5 208 L 167.5 207 Z " /><path fill="rgb(238,211,169)" stroke="rgb(238,211,169)" stroke-width="1" opacity="1" d="M 87.5 14 L 88 68.5 L 87 68.5 L 87.5 14 Z " /><path fill="rgb(238,211,169)" stroke="rgb(238,211,169)" stroke-width="1" opacity="1" d="M 177.5 26 L 203 26.5 L 177.5 27 L 177.5 26 Z " /><path fill="rgb(238,211,169)" stroke="rgb(238,211,169)" stroke-width="1" opacity="1" d="M 165.5 27 L 168 27.5 L 165.5 28 L 165.5 27 Z " /><path fill="rgb(238,211,169)" stroke="rgb(238,211,169)" stroke-width="1" opacity="1" d="M 212.5 27 L 215 27.5 L 212.5 28 L 212.5 27 Z " /><path fill="rgb(238,211,169)" stroke="rgb(238,211,169)" stroke-width="1" opacity="1" d="M 145.5 81 L 146.5 83 L 145.5 81 Z " /><path fill="rgb(238,211,169)" stroke="rgb(238,211,169)" stroke-width="1" opacity="1" d="M 234.5 81 L 233.5 83 L 234.5 81 Z " /><path fill="rgb(238,211,169)" stroke="rgb(238,211,169)" stroke-width="1" opacity="1" d="M 136.5 90 L 137.5 92 L 136.5 90 Z " /><path fill="rgb(238,211,169)" stroke="rgb(238,211,169)" stroke-width="1" opacity="1" d="M 298.5 103 L 299 105.5 L 298 105.5 L 298.5 103 Z " /><path fill="rgb(238,211,169)" stroke="rgb(238,211,169)" stroke-width="1" opacity="1" d="M 187.5 107 L 193 107.5 L 187.5 108 L 187.5 107 Z " /><path fill="rgb(238,211,169)" stroke="rgb(238,211,169)" stroke-width="1" opacity="1" d="M 198.5 109 L 199.5 111 L 198.5 109 Z " /><path fill="rgb(238,211,169)" stroke="rgb(238,211,169)" stroke-width="1" opacity="1" d="M 196.5 124 L 195.5 126 L 196.5 124 Z " /><path fill="rgb(238,211,169)" stroke="rgb(238,211,169)" stroke-width="1" opacity="1" d="M 122.5 127 L 121.5 129 L 122.5 127 Z " /><path fill="rgb(238,211,169)" stroke="rgb(238,211,169)" stroke-width="1" opacity="1" d="M 186.5 139 L 185.5 141 L 186.5 139 Z " /><path fill="rgb(238,211,169)" stroke="rgb(238,211,169)" stroke-width="1" opacity="1" d="M 174.5 146 L 181 146.5 L 174.5 147 L 174.5 146 Z " /><path fill="rgb(238,211,169)" stroke="rgb(238,211,169)" stroke-width="1" opacity="1" d="M 199.5 146 L 206 146.5 L 199.5 147 L 199.5 146 Z " /><path fill="rgb(238,211,169)" stroke="rgb(238,211,169)" stroke-width="1" opacity="1" d="M 122.5 152 L 122 153.5 L 121.5 155 L 121 153.5 L 122.5 152 Z " /><path fill="rgb(238,211,169)" stroke="rgb(238,211,169)" stroke-width="1" opacity="1" d="M 186.5 165 L 190 169.5 L 193 179.5 L 193 184.5 L 191 185.5 L 189.5 183 Q 179.8 194.8 159.5 196 L 157 192.5 L 181.5 186 L 187 181.5 L 188 172.5 L 185 166.5 L 186.5 165 Z " /><path fill="rgb(238,211,169)" stroke="rgb(238,211,169)" stroke-width="1" opacity="1" d="M 167.5 168 L 178.5 169 L 183 171.5 L 184 178.5 L 179.5 182 L 155.5 188 L 154 185.5 L 165.5 169 L 167.5 168 Z M 167 171 L 165 174 L 177 178 L 178 176 Q 176 170 167 171 Z " /><path fill="rgb(238,211,169)" stroke="rgb(238,211,169)" stroke-width="1" opacity="1" d="M 280.5 168 L 279.5 170 L 280.5 168 Z " /><path fill="rgb(238,211,169)" stroke="rgb(238,211,169)" stroke-width="1" opacity="1" d="M 101.5 170 L 106.5 176 L 101.5 170 Z " /><path fill="rgb(238,211,169)" stroke="rgb(238,211,169)" stroke-width="1" opacity="1" d="M 205.5 175 L 208 175.5 L 205.5 176 L 205.5 175 Z " /><path fill="rgb(238,211,169)" stroke="rgb(238,211,169)" stroke-width="1" opacity="1" d="M 272.5 176 L 271.5 178 L 272.5 176 Z " /><path fill="rgb(238,211,169)" stroke="rgb(238,211,169)" stroke-width="1" opacity="1" d="M 185.5 191 L 187 191.5 L 184.5 196 Q 179.5 195.5 179 199.5 L 178.5 202 L 166 199.5 Q 178.7 198.2 185.5 191 Z " /><path fill="rgb(238,211,169)" stroke="rgb(238,211,169)" stroke-width="1" opacity="1" d="M 119.5 198 L 117.5 201 L 119.5 198 Z " /><path fill="rgb(238,211,169)" stroke="rgb(238,211,169)" stroke-width="1" opacity="1" d="M 160.5 200 L 163 200.5 L 160.5 201 L 160.5 200 Z " /><path fill="rgb(238,211,169)" stroke="rgb(238,211,169)" stroke-width="1" opacity="1" d="M 165.5 204 L 180 206 L 182 213.5 L 179.5 217 L 175.5 219 L 152 224 L 154 217.5 L 163.5 205 L 165.5 204 Z M 168 207 L 166 208 Q 162 209 163 213 L 169 211 L 175 212 L 176 210 Q 174 206 168 207 Z " /><path fill="rgb(238,211,169)" stroke="rgb(238,211,169)" stroke-width="1" opacity="1" d="M 234.5 206 Q 236.8 205.3 236 207.5 Q 246 220 252 236.5 L 258 256.5 L 260 267.5 L 260 276.5 Q 240.8 293.4 214.5 303 L 209 308.5 Q 206.5 312 208 319.5 L 214 334 Q 192.3 329.9 177 318.5 L 177 310.5 L 170.5 303 L 150.5 294 L 138 283.5 L 132 274.5 L 132 272 Q 194.5 250.8 234.5 206 Z " /><path fill="rgb(238,211,169)" stroke="rgb(238,211,169)" stroke-width="1" opacity="1" d="M 186.5 210 L 190 213.5 L 194 231.5 L 192 238 L 182.5 244 L 176.5 246 L 163.5 238 L 157 236.5 Q 178.8 235.3 189 222.5 L 187.5 220 L 185.5 220 Q 180.1 227.1 170.5 230 L 161.5 232 L 154.5 232 L 150 230.5 L 153.5 228 L 176.5 223 L 184 218.5 L 186.5 210 Z " /><path fill="rgb(238,211,169)" stroke="rgb(238,211,169)" stroke-width="1" opacity="1" d="M 121.5 218 L 126 218.5 L 121.5 219 L 121.5 218 Z " /><path fill="rgb(238,211,169)" stroke="rgb(238,211,169)" stroke-width="1" opacity="1" d="M 111.5 250 L 112 253.5 L 111 253.5 L 111.5 250 Z " /><path fill="rgb(238,211,169)" stroke="rgb(238,211,169)" stroke-width="1" opacity="1" d="M 112.5 264 Q 115.5 265.5 112.5 267 L 112.5 264 Z " /><path fill="rgb(238,211,169)" stroke="rgb(238,211,169)" stroke-width="1" opacity="1" d="M 127.5 269 L 126.5 271 L 127.5 269 Z " /><path fill="rgb(238,211,169)" stroke="rgb(238,211,169)" stroke-width="1" opacity="1" d="M 127.5 277 L 130 277.5 Q 127.9 280.8 127.5 277 Z " /><path fill="rgb(238,211,169)" stroke="rgb(238,211,169)" stroke-width="1" opacity="1" d="M 76.5 302 L 78 302.5 L 75.5 304 L 76.5 302 Z " /><path fill="rgb(238,211,169)" stroke="rgb(238,211,169)" stroke-width="1" opacity="1" d="M 215.5 307 L 213.5 310 L 215.5 307 Z " /><path fill="rgb(238,211,169)" stroke="rgb(238,211,169)" stroke-width="1" opacity="1" d="M 170.5 308 L 171.5 310 L 170.5 308 Z " /><path fill="rgb(238,211,169)" stroke="rgb(238,211,169)" stroke-width="1" opacity="1" d="M 423.5 320 L 424.5 322 L 423.5 320 Z " /><path fill="rgb(238,211,169)" stroke="rgb(238,211,169)" stroke-width="1" opacity="1" d="M 317.5 329 L 318 331.5 L 317 331.5 L 317.5 329 Z " /><path fill="rgb(238,211,169)" stroke="rgb(238,211,169)" stroke-width="1" opacity="1" d="M 257.5 330 L 302 372.5 L 300.5 375 L 254.5 403 L 253 401.5 L 236 349 Q 246.2 345.6 252 336.5 L 253 333 L 257.5 330 Z " /><path fill="rgb(238,211,169)" stroke="rgb(238,211,169)" stroke-width="1" opacity="1" d="M 62.5 331 L 63 333.5 L 62 333.5 L 62.5 331 Z " /><path fill="rgb(238,211,169)" stroke="rgb(238,211,169)" stroke-width="1" opacity="1" d="M 137.5 335 L 138.5 337 L 137.5 335 Z " /><path fill="rgb(238,211,169)" stroke="rgb(238,211,169)" stroke-width="1" opacity="1" d="M 246.5 336 L 245.5 338 L 246.5 336 Z " /><path fill="rgb(238,211,169)" stroke="rgb(238,211,169)" stroke-width="1" opacity="1" d="M 162.5 338 L 161.5 340 L 162.5 338 Z " /><path fill="rgb(238,211,169)" stroke="rgb(238,211,169)" stroke-width="1" opacity="1" d="M 135.5 339 L 139.5 344 L 135.5 339 Z " /><path fill="rgb(238,211,169)" stroke="rgb(238,211,169)" stroke-width="1" opacity="1" d="M 242.5 340 L 241.5 342 L 242.5 340 Z " /><path fill="rgb(238,211,169)" stroke="rgb(238,211,169)" stroke-width="1" opacity="1" d="M 164.5 342 L 160.5 347 L 164.5 342 Z " /><path fill="rgb(238,211,169)" stroke="rgb(238,211,169)" stroke-width="1" opacity="1" d="M 318.5 342 L 319 348.5 L 318 348.5 L 318.5 342 Z " /><path fill="rgb(238,211,169)" stroke="rgb(238,211,169)" stroke-width="1" opacity="1" d="M 61.5 347 L 62 365.5 L 61 365.5 L 61.5 347 Z " /><path fill="rgb(238,211,169)" stroke="rgb(238,211,169)" stroke-width="1" opacity="1" d="M 318.5 365 L 319 370.5 L 318 370.5 L 318.5 365 Z " /><path fill="rgb(238,211,169)" stroke="rgb(238,211,169)" stroke-width="1" opacity="1" d="M 307.5 374 L 306.5 376 L 307.5 374 Z " /><path fill="rgb(238,211,169)" stroke="rgb(238,211,169)" stroke-width="1" opacity="1" d="M 62.5 378 L 63 380.5 L 62 380.5 L 62.5 378 Z " /><path fill="rgb(238,211,169)" stroke="rgb(238,211,169)" stroke-width="1" opacity="1" d="M 317.5 380 L 318 382.5 L 317 382.5 L 317.5 380 Z " /><path fill="rgb(238,211,169)" stroke="rgb(238,211,169)" stroke-width="1" opacity="1" d="M 383.5 407 L 382.5 409 L 383.5 407 Z " /><path fill="rgb(238,211,169)" stroke="rgb(238,211,169)" stroke-width="1" opacity="1" d="M 379.5 412 L 374.5 418 L 379.5 412 Z " /><path fill="rgb(238,211,169)" stroke="rgb(238,211,169)" stroke-width="1" opacity="1" d="M 430.5 430 L 429.5 432 L 430.5 430 Z " /><path fill="rgb(238,211,169)" stroke="rgb(238,211,169)" stroke-width="1" opacity="1" d="M 324.5 435 L 334 435.5 L 324.5 436 L 324.5 435 Z " /><path fill="rgb(238,211,169)" stroke="rgb(238,211,169)" stroke-width="1" opacity="1" d="M 417.5 443 L 416.5 445 L 417.5 443 Z " /><path fill="rgb(238,211,169)" stroke="rgb(238,211,169)" stroke-width="1" opacity="1" d="M 109.5 454 L 110 458.5 L 109 458.5 L 109.5 454 Z " /><path fill="rgb(238,211,169)" stroke="rgb(238,211,169)" stroke-width="1" opacity="1" d="M 291.5 454 L 290.5 456 L 291.5 454 Z " /><path fill="rgb(238,211,169)" stroke="rgb(238,211,169)" stroke-width="1" opacity="1" d="M 89.5 455 L 90.5 457 L 89.5 455 Z " /><path fill="rgb(238,211,169)" stroke="rgb(238,211,169)" stroke-width="1" opacity="1" d="M 231.5 456 L 233 459.5 L 232 459.5 L 231.5 456 Z " /><path fill="rgb(238,211,169)" stroke="rgb(238,211,169)" stroke-width="1" opacity="1" d="M 152.5 457 L 153 460.5 L 152 460.5 L 152.5 457 Z " /><path fill="rgb(238,211,169)" stroke="rgb(238,211,169)" stroke-width="1" opacity="1" d="M 294.5 457 L 293.5 459 L 294.5 457 Z " /><path fill="rgb(238,211,169)" stroke="rgb(238,211,169)" stroke-width="1" opacity="1" d="M 148.5 460 L 149 463.5 L 148 463.5 L 148.5 460 Z " /><path fill="rgb(238,211,169)" stroke="rgb(238,211,169)" stroke-width="1" opacity="1" d="M 103.5 466 L 102.5 468 L 103.5 466 Z " /><path fill="rgb(238,211,169)" stroke="rgb(238,211,169)" stroke-width="1" opacity="1" d="M 322.5 470 L 326 470.5 L 322.5 471 L 322.5 470 Z " /><path fill="rgb(238,211,169)" stroke="rgb(238,211,169)" stroke-width="1" opacity="1" d="M 346.5 470 L 350 470.5 L 346.5 471 L 346.5 470 Z " /><path fill="rgb(238,211,169)" stroke="rgb(238,211,169)" stroke-width="1" opacity="1" d="M 150.5 478 L 151 480.5 L 150 480.5 L 150.5 478 Z " /><path fill="rgb(238,211,169)" stroke="rgb(238,211,169)" stroke-width="1" opacity="1" d="M 150.5 487 L 151 489.5 L 150 489.5 L 150.5 487 Z " /><path fill="rgb(238,211,169)" stroke="rgb(238,211,169)" stroke-width="1" opacity="1" d="M 117.5 499 L 120 499.5 L 117.5 500 L 117.5 499 Z " /><path fill="rgb(238,211,169)" stroke="rgb(238,211,169)" stroke-width="1" opacity="1" d="M 131.5 499 L 134 499.5 L 131.5 500 L 131.5 499 Z " /><path fill="rgb(238,211,169)" stroke="rgb(238,211,169)" stroke-width="1" opacity="1" d="M 246.5 499 L 249 499.5 L 246.5 500 L 246.5 499 Z " /><path fill="rgb(238,211,169)" stroke="rgb(238,211,169)" stroke-width="1" opacity="1" d="M 260.5 499 L 264 499.5 L 260.5 500 L 260.5 499 Z " /><path fill="rgb(234,234,234)" stroke="rgb(234,234,234)" stroke-width="1" opacity="1" d="M 89.5 13 L 92.5 13 L 120.5 36 Q 121.9 38.6 126.5 38 L 139.5 33 L 163.5 28 Q 169.8 29.7 171.5 27 L 208.5 27 L 209.5 28 L 217.5 28 L 233.5 31 L 256.5 38 L 287.5 13 L 290.5 13 L 292 14.5 L 292 69.5 L 297 92.5 L 298 108.5 L 299 109.5 L 299 124.5 L 295 142.5 L 288 157.5 Q 280.8 169.3 270.5 178 L 261 184.5 Q 260.3 188.3 262.5 189 L 269.5 185 L 276 194.5 L 291 225.5 L 308 275.5 L 310 285.5 L 310 292.5 L 311 293.5 L 311 300.5 L 312 301.5 L 312 312.5 L 313 313.5 L 313 355.5 L 312 356.5 L 312 365.5 L 311 366.5 L 311 373.5 L 309 383.5 L 302 407.5 Q 293.9 429.4 278.5 444 L 267.5 451 L 259.5 453 L 120.5 453 Q 102.5 449 94 435.5 L 82 416.5 L 72 387.5 Q 72 378 69 371.5 L 68 352.5 L 67 351.5 L 67 318.5 L 68 317.5 L 68 304.5 L 69 303.5 L 70 287.5 L 75 265.5 L 91 221.5 L 110.5 185 Q 112.8 189.1 119 188 Q 120 184.2 117.5 183 L 102 170.5 Q 92 159.5 86 144.5 L 82 129.5 L 81 113.5 L 82 112.5 L 82 102.5 L 83 101.5 L 84 87.5 L 88 70.5 L 88 14.5 L 89.5 13 Z M 139 80 L 135 84 Q 134 90 136 92 L 141 94 L 146 93 L 149 88 L 148 84 Q 147 79 139 80 Z M 236 80 L 231 87 L 232 91 L 238 94 L 244 92 Q 246 90 245 84 Q 244 79 236 80 Z M 186 107 L 183 108 L 179 114 L 182 124 L 188 128 Q 189 136 186 140 Q 182 143 172 142 Q 171 146 174 147 Q 186 149 190 143 Q 194 149 207 147 Q 209 146 208 142 Q 197 144 193 138 L 193 129 Q 202 125 201 112 Q 197 105 186 107 Z M 121 127 L 121 131 L 123 132 L 147 139 L 155 140 L 156 138 L 154 135 L 148 133 L 127 127 L 121 127 Z M 255 127 L 227 135 Q 224 136 225 140 L 234 139 L 258 132 L 259 131 Q 261 125 255 127 Z M 148 148 L 133 151 L 127 151 L 121 154 L 123 157 L 154 153 L 156 150 Q 154 146 148 148 Z M 225 148 L 225 152 L 227 153 L 258 157 Q 260 156 259 152 L 225 148 Z M 184 160 L 181 165 L 178 164 L 165 164 L 163 165 L 157 172 L 151 183 L 145 184 L 144 188 L 141 187 L 128 187 L 125 189 L 115 203 Q 112 206 113 213 L 110 217 L 111 222 L 120 228 L 117 229 L 114 236 L 114 242 L 111 249 Q 110 255 113 258 Q 111 259 112 265 L 114 267 Q 108 261 100 258 Q 97 259 98 263 L 147 297 L 170 308 L 173 314 Q 171 329 162 339 L 154 346 L 144 341 L 136 332 Q 113 311 79 302 L 75 302 L 75 307 Q 106 314 128 331 L 133 338 Q 139 347 152 351 L 157 350 L 163 346 Q 171 337 177 324 Q 193 335 217 339 L 220 344 Q 223 349 231 350 L 232 352 L 251 409 L 257 408 L 308 376 L 308 373 L 263 328 L 273 321 L 306 306 L 305 302 Q 274 311 253 328 L 246 337 Q 241 343 233 346 L 230 345 Q 217 335 212 317 L 213 311 L 219 306 L 232 301 L 244 294 L 282 268 L 285 264 L 282 261 L 264 272 L 264 264 L 258 240 Q 250 218 238 202 Q 237 199 233 200 L 234 195 L 233 184 L 231 179 Q 230 175 224 176 L 221 180 L 210 175 Q 201 174 198 179 L 192 164 Q 191 159 184 160 Z " /><path fill="rgb(234,234,234)" stroke="rgb(234,234,234)" stroke-width="1" opacity="1" d="M 115.5 267 L 118.5 269 L 127 269.5 L 126 273.5 L 129 277.5 L 125.5 275 L 116.5 269 L 115.5 267 Z " /><path fill="rgb(234,234,234)" stroke="rgb(234,234,234)" stroke-width="1" opacity="1" d="M 403.5 316 L 409.5 316 L 415 321.5 L 426 339.5 L 429 347.5 L 432 362.5 L 429.5 361 Q 416.8 352 398 350 L 395 334.5 L 395 326.5 Q 396.5 320 401.5 317 L 403.5 316 Z " /><path fill="rgb(234,234,234)" stroke="rgb(234,234,234)" stroke-width="1" opacity="1" d="M 398 371 L 407.5 373 L 426 384 L 430 390.5 Q 422.9 414.9 406.5 430 L 397 410.5 L 388 400.5 L 395 386.5 L 398 371 Z " /><path fill="rgb(234,234,234)" stroke="rgb(234,234,234)" stroke-width="1" opacity="1" d="M 375.5 417 L 385 432.5 L 388 446 L 363.5 458 L 347 462 L 350 449.5 L 350 434.5 Q 347.8 433.3 350.5 432 Q 366.5 428 375.5 417 Z " /><path fill="rgb(234,234,234)" stroke="rgb(234,234,234)" stroke-width="1" opacity="1" d="M 309 434 L 320.5 436 L 329 436 L 329 449.5 L 324 465 L 298.5 465 L 290 463.5 Q 303 451.5 309 434 Z " /></svg>