<svg width="512" height="512" version="1.1" xmlns="http://www.w3.org/2000/svg" desc="Created with imagetracer.js version 1.2.6" ><path fill="rgb(225,225,224)" stroke="rgb(225,225,224)" stroke-width="1" opacity="1" d="M 148.5 68 L 147.5 70 L 148.5 68 Z " /><path fill="rgb(225,225,224)" stroke="rgb(225,225,224)" stroke-width="1" opacity="1" d="M 310.5 86 L 315.5 87 L 324 94.5 Q 334 106.5 336 126.5 L 330.5 122 L 324 119 L 323 110.5 L 319 99.5 L 310.5 86 Z " /><path fill="rgb(225,225,224)" stroke="rgb(225,225,224)" stroke-width="1" opacity="1" d="M 192.5 114 L 193.5 116 L 192.5 114 Z " /><path fill="rgb(225,225,224)" stroke="rgb(225,225,224)" stroke-width="1" opacity="1" d="M 312.5 114 L 315 114.5 L 312.5 115 L 312.5 114 Z " /><path fill="rgb(225,225,224)" stroke="rgb(225,225,224)" stroke-width="1" opacity="1" d="M 310.5 129 L 313 129.5 L 310.5 130 L 310.5 129 Z " /><path fill="rgb(225,225,224)" stroke="rgb(225,225,224)" stroke-width="1" opacity="1" d="M 322.5 133 L 323.5 135 L 322.5 133 Z " /><path fill="rgb(225,225,224)" stroke="rgb(225,225,224)" stroke-width="1" opacity="1" d="M 326 137 L 331 140.5 L 336 147.5 L 336 150.5 Q 332.4 167.4 324.5 180 L 317 168.5 L 320 167.5 L 325 148.5 L 326 137 Z " /><path fill="rgb(225,225,224)" stroke="rgb(225,225,224)" stroke-width="1" opacity="1" d="M 305.5 156 L 306.5 158 L 305.5 156 Z " /><path fill="rgb(225,225,224)" stroke="rgb(225,225,224)" stroke-width="1" opacity="1" d="M 310.5 160 L 315.5 166 L 310.5 160 Z " /><path fill="rgb(225,225,224)" stroke="rgb(225,225,224)" stroke-width="1" opacity="1" d="M 301.5 171 L 303.5 174 L 301.5 171 Z " /><path fill="rgb(225,225,224)" stroke="rgb(225,225,224)" stroke-width="1" opacity="1" d="M 305.5 175 L 308.5 179 L 305.5 175 Z " /><path fill="rgb(225,225,224)" stroke="rgb(225,225,224)" stroke-width="1" opacity="1" d="M 309.5 180 L 310.5 182 L 309.5 180 Z " /><path fill="rgb(225,225,224)" stroke="rgb(225,225,224)" stroke-width="1" opacity="1" d="M 312.5 185 L 316 193.5 L 311.5 199 L 304 198.5 L 312.5 185 Z " /><path fill="rgb(225,225,224)" stroke="rgb(225,225,224)" stroke-width="1" opacity="1" d="M 252.5 186 L 250.5 189 L 252.5 186 Z " /><path fill="rgb(225,225,224)" stroke="rgb(225,225,224)" stroke-width="1" opacity="1" d="M 255.5 190 L 254.5 192 L 255.5 190 Z " /><path fill="rgb(225,225,224)" stroke="rgb(225,225,224)" stroke-width="1" opacity="1" d="M 91.5 209 L 92.5 211 L 91.5 209 Z " /><path fill="rgb(0,0,0)" stroke="rgb(0,0,0)" stroke-width="1" opacity="0" d="M 0 0 L 512 0 L 512 512 L 0 512 L 0 0 Z M 107 10 L 103 16 L 103 62 L 101 68 L 99 89 L 98 90 L 98 105 L 102 122 Q 109 138 121 149 L 106 181 L 105 182 L 94 183 L 91 185 Q 85 188 85 198 L 84 199 L 41 199 L 39 200 L 36 204 L 36 246 L 43 250 L 54 250 L 56 278 L 57 279 L 57 289 L 58 290 L 58 300 L 59 301 L 59 311 L 60 312 L 60 322 L 61 323 L 61 333 L 62 334 L 62 344 L 64 355 L 64 365 L 65 366 L 65 376 L 67 387 L 67 397 L 68 398 L 68 409 L 70 420 L 70 430 L 71 431 L 71 441 L 72 442 L 72 452 L 73 453 L 73 463 L 74 464 L 74 474 L 76 483 L 79 489 Q 85 497 97 500 L 283 500 L 295 494 Q 301 488 304 478 L 307 437 L 308 436 L 308 426 L 309 425 L 309 415 L 311 404 L 311 393 L 313 382 L 314 361 L 315 360 L 315 350 L 317 339 L 318 318 L 319 317 L 319 307 L 320 306 L 320 296 L 321 295 L 321 285 L 322 284 L 322 274 L 324 263 L 324 252 L 326 250 L 334 250 L 336 254 L 426 497 L 431 502 L 438 502 L 472 489 L 475 485 L 473 475 L 446 404 L 473 393 L 476 389 L 476 383 L 442 292 L 437 287 L 432 287 L 426 289 L 407 297 L 377 219 L 373 215 L 369 215 L 344 225 L 343 205 L 342 203 L 339 199 L 318 199 Q 329 187 335 171 L 340 156 L 341 145 L 342 144 Q 343 111 329 93 Q 324 84 314 81 Q 305 80 302 83 L 295 93 L 295 107 L 299 124 L 299 147 L 297 158 L 291 175 L 286 183 L 273 182 L 272 178 L 257 150 L 259 147 Q 261 148 260 145 L 262 145 L 274 128 L 280 109 L 280 85 L 279 84 L 277 65 L 275 59 L 275 14 L 272 10 L 264 11 L 242 29 L 229 25 L 214 22 L 206 22 L 205 21 L 174 21 L 173 22 L 155 24 L 140 29 L 137 29 L 114 10 L 107 10 Z " /><path fill="rgb(0,0,0)" stroke="rgb(0,0,0)" stroke-width="1" opacity="0" d="M 424.5 311 Q 429.3 309.3 428 313.5 L 453 378.5 L 439.5 384 L 435 375.5 L 413 315 L 424.5 311 Z " /><path fill="rgb(89,90,92)" stroke="rgb(89,90,92)" stroke-width="1" opacity="0.9254901960784314" d="M 106.5 10 L 113.5 10 L 136.5 29 L 139.5 29 L 154.5 24 L 172.5 22 L 173.5 21 L 204.5 21 L 205.5 22 L 213.5 22 L 228.5 25 L 241.5 29 L 263.5 11 L 271.5 10 L 275 13.5 L 275 58.5 L 277 64.5 L 279 83.5 L 280 84.5 L 280 108.5 L 274 127.5 L 262 145 L 260 145 Q 261.1 147.7 258.5 147 L 257 149.5 L 272 177.5 L 273 182 L 286 183 L 291 174.5 L 297 157.5 L 299 146.5 L 299 123.5 L 295 106.5 L 295 92.5 L 301.5 83 Q 305.2 79.7 313.5 81 Q 323.9 84 329 92.5 Q 342.9 110.6 342 143.5 L 341 144.5 L 340 155.5 L 335 170.5 Q 328.6 186.6 318 198.5 L 338.5 199 L 342 202.5 L 343 204.5 L 343.5 225 L 368.5 215 L 372.5 215 L 377 218.5 L 406.5 297 L 425.5 289 L 431.5 287 L 436.5 287 L 442 291.5 L 476 382.5 L 476 388.5 L 472.5 393 L 446 403.5 L 473 474.5 L 475 484.5 L 471.5 489 L 437.5 502 L 430.5 502 L 426 496.5 L 336 253.5 L 333.5 250 L 325.5 250 L 324 251.5 L 324 262.5 L 322 273.5 L 322 283.5 L 321 284.5 L 321 294.5 L 320 295.5 L 320 305.5 L 319 306.5 L 319 316.5 L 318 317.5 L 317 338.5 L 315 349.5 L 315 359.5 L 314 360.5 L 313 381.5 L 311 392.5 L 311 403.5 L 309 414.5 L 309 424.5 L 308 425.5 L 308 435.5 L 307 436.5 L 304 477.5 Q 301.5 488 294.5 494 L 282.5 500 L 96.5 500 Q 84.9 497.1 79 488.5 L 76 482.5 L 74 473.5 L 74 463.5 L 73 462.5 L 73 452.5 L 72 451.5 L 72 441.5 L 71 440.5 L 71 430.5 L 70 429.5 L 70 419.5 L 68 408.5 L 68 397.5 L 67 396.5 L 67 386.5 L 65 375.5 L 65 365.5 L 64 364.5 L 64 354.5 L 62 343.5 L 62 333.5 L 61 332.5 L 61 322.5 L 60 321.5 L 60 311.5 L 59 310.5 L 59 300.5 L 58 299.5 L 58 289.5 L 57 288.5 L 57 278.5 L 56 277.5 L 54 250 L 42.5 250 L 36 245.5 L 36 203.5 L 38.5 200 L 40.5 199 L 83.5 199 L 85 197.5 Q 84.8 188.3 90.5 185 L 93.5 183 L 104.5 182 L 106 180.5 L 121 148.5 Q 108.5 138 102 121.5 L 98 104.5 L 98 89.5 L 99 88.5 L 101 67.5 L 103 61.5 L 103 15.5 L 106.5 10 Z M 108 14 L 107 17 L 107 64 L 105 70 L 103 91 L 102 92 L 102 103 L 104 114 Q 108 128 117 139 L 130 149 Q 133 150 132 154 L 130 154 L 126 151 L 114 172 L 110 183 Q 120 182 125 186 Q 130 190 131 199 L 133 200 L 247 200 L 251 189 Q 256 181 269 183 Q 263 165 253 151 L 249 154 Q 245 155 246 152 L 252 148 Q 271 134 276 107 L 276 88 L 275 87 L 273 67 L 271 61 L 271 16 L 270 14 L 266 15 L 243 34 L 227 29 L 211 26 L 203 26 L 202 25 L 168 26 L 149 30 L 139 34 L 135 33 L 112 14 L 108 14 Z M 308 85 L 304 87 L 299 95 L 299 105 L 303 121 L 303 149 L 301 160 Q 297 175 289 186 L 293 195 L 293 199 L 295 200 L 312 200 Q 322 188 329 174 L 335 158 L 337 149 L 337 140 L 338 139 Q 337 110 324 94 Q 319 86 308 85 Z M 100 186 L 93 189 L 89 195 Q 90 199 88 201 L 90 209 L 94 212 L 105 214 L 121 213 L 126 211 L 128 205 L 128 199 L 126 193 Q 119 183 100 186 Z M 264 186 L 254 190 L 251 197 Q 250 205 252 210 L 259 213 Q 264 212 266 214 L 282 213 L 287 211 L 290 205 Q 291 196 288 192 L 283 187 L 264 186 Z M 43 203 L 42 204 L 40 205 L 40 244 L 42 245 L 333 245 L 330 238 L 331 232 L 337 228 L 338 228 L 338 205 L 337 203 L 293 203 Q 294 209 291 212 L 285 216 L 280 217 L 261 217 L 253 215 Q 248 212 247 206 L 247 203 L 131 203 L 129 213 L 119 217 Q 98 219 88 213 L 85 206 L 85 203 L 43 203 Z M 368 220 L 334 234 L 336 244 L 430 495 L 433 498 L 439 497 L 463 488 L 471 484 L 373 222 Q 374 219 368 220 Z M 58 249 L 59 254 L 59 264 L 60 265 L 64 318 L 65 319 L 69 373 L 71 384 L 75 438 L 76 439 L 76 449 L 78 460 L 78 470 Q 81 471 79 478 L 83 487 Q 88 494 99 496 L 280 496 L 290 492 Q 298 487 300 475 L 302 443 L 304 432 L 308 378 L 310 367 L 314 313 L 316 302 L 318 270 L 319 269 L 319 259 L 320 258 L 320 250 L 320 249 L 58 249 Z M 434 291 L 407 302 L 412 312 L 430 305 L 458 382 L 440 388 L 443 399 L 470 390 L 472 388 L 470 379 L 438 294 L 434 291 Z M 425 311 L 413 315 L 435 376 L 440 384 L 453 379 L 428 314 Q 429 309 425 311 Z " /><path fill="rgb(89,90,92)" stroke="rgb(89,90,92)" stroke-width="1" opacity="0.9254901960784314" d="M 150.5 68 L 156 70.5 Q 157.3 76.8 153.5 78 Q 148 79 147 75.5 L 148 69 L 150.5 68 Z " /><path fill="rgb(89,90,92)" stroke="rgb(89,90,92)" stroke-width="1" opacity="0.9254901960784314" d="M 228.5 68 L 233 70.5 L 234 73.5 L 230.5 78 Q 225 79 224 75.5 Q 223 70 226.5 69 L 228.5 68 Z " /><path fill="rgb(89,90,92)" stroke="rgb(89,90,92)" stroke-width="1" opacity="0.9254901960784314" d="M 185.5 90 Q 194.2 88.3 197 92.5 Q 198.2 102.2 192.5 105 L 191 105.5 L 191 113.5 L 192 116 Q 194.7 117.9 201.5 117 L 204 119.5 L 202.5 121 L 194.5 121 L 188.5 118 Q 184.5 122.7 175 121 L 176.5 117 Q 185 119 187 114.5 L 187 105.5 Q 181.6 102.4 181 94.5 L 183.5 91 L 185.5 90 Z " /><path fill="rgb(89,90,92)" stroke="rgb(89,90,92)" stroke-width="1" opacity="0.9254901960784314" d="M 135.5 105 L 161 112 L 159.5 116 L 138.5 110 L 134 107.5 L 135.5 105 Z " /><path fill="rgb(89,90,92)" stroke="rgb(89,90,92)" stroke-width="1" opacity="0.9254901960784314" d="M 242.5 105 L 244 109 L 218.5 116 L 217 113.5 L 218.5 112 L 242.5 105 Z " /><path fill="rgb(89,90,92)" stroke="rgb(89,90,92)" stroke-width="1" opacity="0.9254901960784314" d="M 157.5 122 Q 162.3 120.3 161 124.5 L 159.5 126 L 135.5 129 L 134 126 L 157.5 122 Z " /><path fill="rgb(89,90,92)" stroke="rgb(89,90,92)" stroke-width="1" opacity="0.9254901960784314" d="M 218.5 122 L 242.5 125 L 244 126.5 Q 245.3 131.1 239.5 129 L 238.5 128 L 218.5 126 L 217 124.5 L 218.5 122 Z " /><path fill="rgb(89,90,92)" stroke="rgb(89,90,92)" stroke-width="1" opacity="0.9254901960784314" d="M 129.5 295 Q 139.9 293.6 143 299.5 L 145 303.5 L 145 442.5 L 139.5 449 Q 136 451.5 128.5 450 L 122 444.5 L 120 438.5 L 120 306.5 Q 120.9 299.9 125.5 297 L 129.5 295 Z M 132 298 L 128 300 L 124 306 L 124 440 L 126 444 L 133 447 L 139 445 L 142 440 L 142 306 L 140 302 Q 137 298 132 298 Z " /><path fill="rgb(89,90,92)" stroke="rgb(89,90,92)" stroke-width="1" opacity="0.9254901960784314" d="M 185.5 295 Q 197.3 293.2 200 300.5 L 202 305.5 L 202 439.5 Q 200.5 446 195.5 449 Q 192.3 451.3 185.5 450 L 179 445.5 L 177 441.5 L 177 303.5 L 181.5 297 L 185.5 295 Z M 189 298 L 186 299 L 181 304 L 180 308 L 180 438 L 183 445 L 188 447 L 194 446 L 198 441 L 198 305 L 197 303 Q 195 298 189 298 Z " /><path fill="rgb(89,90,92)" stroke="rgb(89,90,92)" stroke-width="1" opacity="0.9254901960784314" d="M 241.5 295 Q 252.6 293.4 256 299.5 L 258 303.5 L 258 441.5 L 253.5 448 Q 249.8 451.3 241.5 450 L 236 447 L 233 440.5 L 233 304.5 L 236 298 L 241.5 295 Z M 245 298 L 242 299 L 237 305 L 237 441 L 238 443 L 245 447 L 250 446 L 254 442 L 254 304 Q 252 298 245 298 Z " /><path fill="rgb(234,234,233)" stroke="rgb(234,234,233)" stroke-width="1" opacity="1" d="M 268.5 14 L 270 15.5 L 270 59.5 L 273 70.5 L 276 99.5 L 273 116.5 L 267 129.5 L 251.5 147 L 245 151.5 L 246.5 155 L 252.5 152 L 257 158.5 L 268 181.5 Q 255.5 181.5 250 188.5 L 247 199 L 132.5 199 L 132 197.5 Q 130.5 189 124.5 185 Q 119.4 181.2 111 182 L 112 177.5 L 125.5 152 L 131.5 155 L 133 151.5 L 118 138.5 Q 109.4 128.6 105 114.5 L 103 104.5 L 103 89.5 L 104 88.5 L 106 67.5 L 108 61.5 L 108 15 L 111.5 15 L 134.5 34 L 137.5 35 L 147.5 31 L 165.5 27 L 173.5 27 L 174.5 26 L 204.5 26 L 205.5 27 L 223.5 29 L 242.5 35 L 268.5 14 Z M 149 68 L 146 72 L 147 77 L 151 79 L 155 78 Q 158 77 157 71 Q 156 67 149 68 Z M 227 68 L 224 69 L 223 72 L 224 77 Q 225 80 231 79 Q 235 78 234 71 Q 233 67 227 68 Z M 188 89 L 184 90 L 181 93 L 181 100 L 187 107 L 186 115 Q 183 118 176 117 L 174 121 L 177 122 Q 185 123 189 119 L 196 122 L 203 122 Q 205 121 204 117 L 196 117 L 192 114 L 192 107 Q 197 104 198 98 L 197 92 L 196 90 L 188 89 Z M 134 105 L 134 109 L 136 110 L 157 116 Q 164 118 162 112 L 143 106 L 134 105 Z M 240 105 L 219 111 L 216 114 L 218 116 L 226 115 L 244 109 Q 246 110 245 107 Q 244 104 240 105 Z M 160 121 L 152 123 L 138 124 L 133 127 L 136 130 L 152 127 L 159 127 L 160 126 Q 164 127 162 122 L 160 121 Z M 219 121 L 216 125 L 221 127 L 244 130 Q 246 129 245 125 L 219 121 Z " /><path fill="rgb(234,234,233)" stroke="rgb(234,234,233)" stroke-width="1" opacity="1" d="M 307.5 86 L 311 87.5 Q 321.4 98.6 324 117.5 L 322.5 117 Q 315.1 112.2 302 114 L 300 105.5 L 300 93.5 L 303.5 88 L 307.5 86 Z " /><path fill="rgb(234,234,233)" stroke="rgb(234,234,233)" stroke-width="1" opacity="1" d="M 305.5 129 Q 319.3 129.3 326 136.5 L 323 157.5 L 318.5 169 L 310.5 160 L 302 155 L 304 145.5 L 304 130.5 L 305.5 129 Z " /><path fill="rgb(234,234,233)" stroke="rgb(234,234,233)" stroke-width="1" opacity="1" d="M 298.5 170 L 305 174 L 312 185.5 L 303.5 199 L 294 199 L 294 195.5 L 292 189.5 L 289 186.5 L 298.5 170 Z " /><path fill="rgb(234,234,233)" stroke="rgb(234,234,233)" stroke-width="1" opacity="1" d="M 97.5 187 L 116.5 187 Q 122.3 188.3 125 192.5 Q 128.1 196.9 127 205.5 L 126 210 Q 117.5 214.7 101.5 213 Q 100.3 210.7 95.5 212 L 91 208.5 Q 88.1 204.9 89 197.5 L 93.5 189 L 97.5 187 Z " /><path fill="rgb(234,234,233)" stroke="rgb(234,234,233)" stroke-width="1" opacity="1" d="M 261.5 187 L 280.5 187 L 287 191.5 Q 290.7 195.8 289 205.5 L 285.5 211 L 277.5 213 L 262.5 213 L 253 209.5 L 251 200.5 L 253 193.5 L 257.5 189 L 261.5 187 Z " /><path fill="rgb(208,208,209)" stroke="rgb(208,208,209)" stroke-width="1" opacity="1" d="M 270.5 16 L 271 58.5 L 270 58.5 L 270.5 16 Z " /><path fill="rgb(208,208,209)" stroke="rgb(208,208,209)" stroke-width="1" opacity="1" d="M 191.5 106 L 192 110.5 L 191 110.5 L 191.5 106 Z " /><path fill="rgb(208,208,209)" stroke="rgb(208,208,209)" stroke-width="1" opacity="1" d="M 246.5 150 L 245.5 152 L 246.5 150 Z " /><path fill="rgb(208,208,209)" stroke="rgb(208,208,209)" stroke-width="1" opacity="1" d="M 87.5 212 L 88.5 214 L 87.5 212 Z " /><path fill="rgb(208,208,209)" stroke="rgb(208,208,209)" stroke-width="1" opacity="1" d="M 371.5 220 L 372.5 222 L 371.5 220 Z " /><path fill="rgb(208,208,209)" stroke="rgb(208,208,209)" stroke-width="1" opacity="1" d="M 301.5 264 L 302 269.5 L 301 269.5 L 301.5 264 Z " /><path fill="rgb(208,208,209)" stroke="rgb(208,208,209)" stroke-width="1" opacity="1" d="M 300.5 275 L 301 279.5 L 300 279.5 L 300.5 275 Z " /><path fill="rgb(208,208,209)" stroke="rgb(208,208,209)" stroke-width="1" opacity="1" d="M 299.5 286 L 300 290.5 L 299 290.5 L 299.5 286 Z " /><path fill="rgb(208,208,209)" stroke="rgb(208,208,209)" stroke-width="1" opacity="1" d="M 236.5 297 L 235.5 299 L 236.5 297 Z " /><path fill="rgb(208,208,209)" stroke="rgb(208,208,209)" stroke-width="1" opacity="1" d="M 298.5 297 L 299 301.5 L 298 301.5 L 298.5 297 Z " /><path fill="rgb(208,208,209)" stroke="rgb(208,208,209)" stroke-width="1" opacity="1" d="M 255.5 298 L 256.5 300 L 255.5 298 Z " /><path fill="rgb(208,208,209)" stroke="rgb(208,208,209)" stroke-width="1" opacity="1" d="M 297.5 308 L 298 312.5 L 297 312.5 L 297.5 308 Z " /><path fill="rgb(208,208,209)" stroke="rgb(208,208,209)" stroke-width="1" opacity="1" d="M 296.5 319 L 297 323.5 L 296 323.5 L 296.5 319 Z " /><path fill="rgb(208,208,209)" stroke="rgb(208,208,209)" stroke-width="1" opacity="1" d="M 295.5 329 L 296 334.5 L 295 334.5 L 295.5 329 Z " /><path fill="rgb(208,208,209)" stroke="rgb(208,208,209)" stroke-width="1" opacity="1" d="M 294.5 340 L 295 344.5 L 294 344.5 L 294.5 340 Z " /><path fill="rgb(208,208,209)" stroke="rgb(208,208,209)" stroke-width="1" opacity="1" d="M 293.5 351 L 294 355.5 L 293 355.5 L 293.5 351 Z " /><path fill="rgb(208,208,209)" stroke="rgb(208,208,209)" stroke-width="1" opacity="1" d="M 292.5 362 L 293 366.5 L 292 366.5 L 292.5 362 Z " /><path fill="rgb(208,208,209)" stroke="rgb(208,208,209)" stroke-width="1" opacity="1" d="M 291.5 373 L 292 377.5 L 291 377.5 L 291.5 373 Z " /><path fill="rgb(208,208,209)" stroke="rgb(208,208,209)" stroke-width="1" opacity="1" d="M 458.5 381 L 457.5 383 L 458.5 381 Z " /><path fill="rgb(208,208,209)" stroke="rgb(208,208,209)" stroke-width="1" opacity="1" d="M 290.5 384 L 291 388.5 L 290 388.5 L 290.5 384 Z " /><path fill="rgb(208,208,209)" stroke="rgb(208,208,209)" stroke-width="1" opacity="1" d="M 289.5 394 L 290 399.5 L 289 399.5 L 289.5 394 Z " /><path fill="rgb(208,208,209)" stroke="rgb(208,208,209)" stroke-width="1" opacity="1" d="M 288.5 405 L 289 409.5 L 288 409.5 L 288.5 405 Z " /><path fill="rgb(208,208,209)" stroke="rgb(208,208,209)" stroke-width="1" opacity="1" d="M 287.5 416 L 288 420.5 L 287 420.5 L 287.5 416 Z " /><path fill="rgb(208,208,209)" stroke="rgb(208,208,209)" stroke-width="1" opacity="1" d="M 286.5 427 L 287 431.5 L 286 431.5 L 286.5 427 Z " /><path fill="rgb(208,208,209)" stroke="rgb(208,208,209)" stroke-width="1" opacity="1" d="M 285.5 438 L 286 442.5 L 285 442.5 L 285.5 438 Z " /><path fill="rgb(208,208,209)" stroke="rgb(208,208,209)" stroke-width="1" opacity="1" d="M 256.5 445 L 255.5 447 L 256.5 445 Z " /><path fill="rgb(208,208,209)" stroke="rgb(208,208,209)" stroke-width="1" opacity="1" d="M 235.5 446 L 236.5 448 L 235.5 446 Z " /><path fill="rgb(208,208,209)" stroke="rgb(208,208,209)" stroke-width="1" opacity="1" d="M 284.5 449 L 285 453.5 L 284 453.5 L 284.5 449 Z " /><path fill="rgb(208,208,209)" stroke="rgb(208,208,209)" stroke-width="1" opacity="1" d="M 283.5 459 L 284 464.5 L 283 464.5 L 283.5 459 Z " /><path fill="rgb(208,208,209)" stroke="rgb(208,208,209)" stroke-width="1" opacity="1" d="M 282.5 470 L 283 475.5 L 282 475.5 L 282.5 470 Z " /><path fill="rgb(208,208,209)" stroke="rgb(208,208,209)" stroke-width="1" opacity="1" d="M 281.5 481 L 282 485.5 L 281 485.5 L 281.5 481 Z " /><path fill="rgb(208,208,209)" stroke="rgb(208,208,209)" stroke-width="1" opacity="1" d="M 280.5 492 L 281 494.5 L 280 494.5 L 280.5 492 Z " /><path fill="rgb(209,211,212)" stroke="rgb(209,211,212)" stroke-width="1" opacity="1" d="M 224.5 76 L 225.5 78 L 224.5 76 Z " /><path fill="rgb(209,211,212)" stroke="rgb(209,211,212)" stroke-width="1" opacity="1" d="M 302 114 L 311.5 114 L 319.5 116 Q 329.8 119.7 336 127.5 L 337 129.5 L 337 143.5 L 335.5 147 L 327.5 137 Q 320.3 127.9 304 129 L 304 122.5 L 302 114 Z " /><path fill="rgb(209,211,212)" stroke="rgb(209,211,212)" stroke-width="1" opacity="1" d="M 176.5 121 L 182 121.5 L 176.5 122 L 176.5 121 Z " /><path fill="rgb(209,211,212)" stroke="rgb(209,211,212)" stroke-width="1" opacity="1" d="M 196.5 121 L 202 121.5 L 196.5 122 L 196.5 121 Z " /><path fill="rgb(209,211,212)" stroke="rgb(209,211,212)" stroke-width="1" opacity="1" d="M 258.5 140 L 255.5 144 L 258.5 140 Z " /><path fill="rgb(209,211,212)" stroke="rgb(209,211,212)" stroke-width="1" opacity="1" d="M 302.5 155 L 317 167.5 Q 322.2 172.3 324 180.5 L 316.5 192 Q 314.3 192.8 315 190.5 Q 311 178 301.5 171 L 299 169.5 L 302.5 155 Z " /><path fill="rgb(209,211,212)" stroke="rgb(209,211,212)" stroke-width="1" opacity="1" d="M 41 204 L 84.5 204 Q 85.5 204 85 208.5 L 88.5 214 L 101.5 218 L 115.5 218 L 125.5 216 L 130 212.5 L 132 204 L 246.5 204 Q 247.5 204 247 208.5 L 251.5 215 L 262.5 218 L 276.5 218 L 286.5 216 L 292 211.5 L 294 204 L 336.5 204 L 338 205.5 L 338 226.5 L 336.5 227 L 330 231.5 L 329 236.5 L 332 245 L 42.5 245 L 41 243.5 L 41 204 Z " /><path fill="rgb(209,211,212)" stroke="rgb(209,211,212)" stroke-width="1" opacity="1" d="M 370.5 220 L 374 224.5 L 470 483.5 L 436.5 497 L 432 497 L 334 234.5 L 370.5 220 Z " /><path fill="rgb(209,211,212)" stroke="rgb(209,211,212)" stroke-width="1" opacity="1" d="M 60 264 L 300.5 264 L 301 264.5 L 301 274.5 L 300 275.5 L 300 285.5 L 299 286.5 L 297 318.5 L 295 329.5 L 291 383.5 L 289 394.5 L 285 448.5 L 283 459.5 L 281 491.5 L 280 495 L 97.5 495 Q 88.6 492.9 84 486.5 L 81 481.5 L 79 472.5 L 79 462.5 L 78 461.5 L 74 408.5 L 73 407.5 L 73 397.5 L 71 386.5 L 71 376.5 L 70 375.5 L 66 321.5 L 65 320.5 L 61 267.5 L 60 264 Z M 131 294 L 126 296 L 120 304 L 120 442 L 121 445 L 130 451 Q 137 452 141 449 L 146 442 L 146 304 L 144 300 Q 140 294 131 294 Z M 186 294 L 182 296 Q 177 299 176 305 L 176 441 L 178 446 L 186 451 L 196 450 L 202 443 L 202 303 L 201 301 Q 198 293 186 294 Z M 243 294 L 237 297 L 232 307 L 232 439 L 235 447 L 243 451 Q 250 452 254 449 Q 258 446 259 441 L 259 305 L 257 300 L 250 294 L 243 294 Z " /><path fill="rgb(209,211,212)" stroke="rgb(209,211,212)" stroke-width="1" opacity="1" d="M 432.5 292 Q 436.3 291.3 437 293.5 L 471 383.5 L 471 387.5 L 467.5 390 L 444.5 398 L 441 389.5 L 459 381.5 L 431 305 L 425.5 305 L 411.5 311 L 408 301 L 432.5 292 Z " /><path fill="rgb(188,190,192)" stroke="rgb(188,190,192)" stroke-width="1" opacity="1" d="M 197.5 94 L 198 96.5 L 197 96.5 L 197.5 94 Z " /><path fill="rgb(188,190,192)" stroke="rgb(188,190,192)" stroke-width="1" opacity="1" d="M 245.5 153 L 246.5 155 L 245.5 153 Z " /><path fill="rgb(188,190,192)" stroke="rgb(188,190,192)" stroke-width="1" opacity="1" d="M 110.5 182 L 116 182.5 L 110.5 183 L 110.5 182 Z " /><path fill="rgb(188,190,192)" stroke="rgb(188,190,192)" stroke-width="1" opacity="1" d="M 263.5 182 L 268 182.5 L 263.5 183 L 263.5 182 Z " /><path fill="rgb(188,190,192)" stroke="rgb(188,190,192)" stroke-width="1" opacity="1" d="M 123.5 190 L 124.5 192 L 123.5 190 Z " /><path fill="rgb(188,190,192)" stroke="rgb(188,190,192)" stroke-width="1" opacity="1" d="M 289.5 198 L 290 202.5 L 289 202.5 L 289.5 198 Z " /><path fill="rgb(188,190,192)" stroke="rgb(188,190,192)" stroke-width="1" opacity="1" d="M 40.5 206 L 41 242.5 L 40 242.5 L 40.5 206 Z " /><path fill="rgb(188,190,192)" stroke="rgb(188,190,192)" stroke-width="1" opacity="1" d="M 287.5 209 L 286.5 211 L 287.5 209 Z " /><path fill="rgb(188,190,192)" stroke="rgb(188,190,192)" stroke-width="1" opacity="1" d="M 102.5 217 L 106 217.5 L 102.5 218 L 102.5 217 Z " /><path fill="rgb(188,190,192)" stroke="rgb(188,190,192)" stroke-width="1" opacity="1" d="M 273.5 217 L 277 217.5 L 273.5 218 L 273.5 217 Z " /><path fill="rgb(188,190,192)" stroke="rgb(188,190,192)" stroke-width="1" opacity="1" d="M 329.5 234 L 330 236.5 L 329 236.5 L 329.5 234 Z " /><path fill="rgb(188,190,192)" stroke="rgb(188,190,192)" stroke-width="1" opacity="1" d="M 59 250 L 319.5 250 L 320 251.5 L 319 252.5 L 319 262.5 L 318 263.5 L 318 273.5 L 317 274.5 L 317 284.5 L 316 285.5 L 315 306.5 L 313 317.5 L 313 327.5 L 312 328.5 L 312 338.5 L 311 339.5 L 311 349.5 L 310 350.5 L 310 360.5 L 309 361.5 L 309 371.5 L 308 372.5 L 308 382.5 L 306 393.5 L 306 403.5 L 305 404.5 L 305 414.5 L 304 415.5 L 304 425.5 L 303 426.5 L 303 436.5 L 302 437.5 L 299 477.5 Q 296.8 485.3 291.5 490 L 281.5 495 L 281 486.5 L 283 475.5 L 283 465.5 L 284 464.5 L 288 410.5 L 290 399.5 L 290 389.5 L 291 388.5 L 291 378.5 L 292 377.5 L 292 367.5 L 293 366.5 L 293 356.5 L 294 355.5 L 294 345.5 L 295 344.5 L 295 335.5 L 296 334.5 L 296 324.5 L 297 323.5 L 297 313.5 L 298 312.5 L 298 302.5 L 299 301.5 L 299 291.5 L 300 290.5 L 300 280.5 L 301 279.5 L 302 264 L 60.5 264 Q 59.4 263.9 60 258.5 L 59 257.5 L 59 250 Z " /><path fill="rgb(188,190,192)" stroke="rgb(188,190,192)" stroke-width="1" opacity="1" d="M 124.5 297 L 122.5 300 L 124.5 297 Z " /><path fill="rgb(188,190,192)" stroke="rgb(188,190,192)" stroke-width="1" opacity="1" d="M 141.5 297 L 142.5 299 L 141.5 297 Z " /><path fill="rgb(188,190,192)" stroke="rgb(188,190,192)" stroke-width="1" opacity="1" d="M 180.5 297 L 179.5 299 L 180.5 297 Z " /><path fill="rgb(188,190,192)" stroke="rgb(188,190,192)" stroke-width="1" opacity="1" d="M 232.5 307 L 233 437.5 L 232 437.5 L 232.5 307 Z " /><path fill="rgb(188,190,192)" stroke="rgb(188,190,192)" stroke-width="1" opacity="1" d="M 441.5 388 L 440.5 390 L 441.5 388 Z " /><path fill="rgb(188,190,192)" stroke="rgb(188,190,192)" stroke-width="1" opacity="1" d="M 443.5 397 L 444.5 399 L 443.5 397 Z " /><path fill="rgb(188,190,192)" stroke="rgb(188,190,192)" stroke-width="1" opacity="1" d="M 143.5 445 L 142.5 447 L 143.5 445 Z " /><path fill="rgb(188,190,192)" stroke="rgb(188,190,192)" stroke-width="1" opacity="1" d="M 179.5 446 L 180.5 448 L 179.5 446 Z " /><path fill="rgb(162,164,166)" stroke="rgb(162,164,166)" stroke-width="1" opacity="1" d="M 265.5 15 L 264.5 17 L 265.5 15 Z " /><path fill="rgb(162,164,166)" stroke="rgb(162,164,166)" stroke-width="1" opacity="1" d="M 107.5 16 L 108 59.5 L 107 59.5 L 107.5 16 Z " /><path fill="rgb(162,164,166)" stroke="rgb(162,164,166)" stroke-width="1" opacity="1" d="M 115.5 17 L 116.5 19 L 115.5 17 Z " /><path fill="rgb(162,164,166)" stroke="rgb(162,164,166)" stroke-width="1" opacity="1" d="M 260.5 19 L 259.5 21 L 260.5 19 Z " /><path fill="rgb(162,164,166)" stroke="rgb(162,164,166)" stroke-width="1" opacity="1" d="M 120.5 21 L 121.5 23 L 120.5 21 Z " /><path fill="rgb(162,164,166)" stroke="rgb(162,164,166)" stroke-width="1" opacity="1" d="M 255.5 23 L 254.5 25 L 255.5 23 Z " /><path fill="rgb(162,164,166)" stroke="rgb(162,164,166)" stroke-width="1" opacity="1" d="M 125.5 25 L 126.5 27 L 125.5 25 Z " /><path fill="rgb(162,164,166)" stroke="rgb(162,164,166)" stroke-width="1" opacity="1" d="M 177.5 25 L 202 25.5 L 177.5 26 L 177.5 25 Z " /><path fill="rgb(162,164,166)" stroke="rgb(162,164,166)" stroke-width="1" opacity="1" d="M 167.5 26 L 170 26.5 L 167.5 27 L 167.5 26 Z " /><path fill="rgb(162,164,166)" stroke="rgb(162,164,166)" stroke-width="1" opacity="1" d="M 250.5 27 L 249.5 29 L 250.5 27 Z " /><path fill="rgb(162,164,166)" stroke="rgb(162,164,166)" stroke-width="1" opacity="1" d="M 130.5 29 L 131.5 31 L 130.5 29 Z " /><path fill="rgb(162,164,166)" stroke="rgb(162,164,166)" stroke-width="1" opacity="1" d="M 225.5 69 L 224.5 71 L 225.5 69 Z " /><path fill="rgb(162,164,166)" stroke="rgb(162,164,166)" stroke-width="1" opacity="1" d="M 156.5 71 L 157 74.5 L 156 74.5 L 156.5 71 Z " /><path fill="rgb(162,164,166)" stroke="rgb(162,164,166)" stroke-width="1" opacity="1" d="M 104.5 75 L 105 77.5 L 104 77.5 L 104.5 75 Z " /><path fill="rgb(162,164,166)" stroke="rgb(162,164,166)" stroke-width="1" opacity="1" d="M 155.5 76 L 154.5 78 L 155.5 76 Z " /><path fill="rgb(162,164,166)" stroke="rgb(162,164,166)" stroke-width="1" opacity="1" d="M 232.5 76 L 231.5 78 L 232.5 76 Z " /><path fill="rgb(162,164,166)" stroke="rgb(162,164,166)" stroke-width="1" opacity="1" d="M 103.5 82 L 104 84.5 L 103 84.5 L 103.5 82 Z " /><path fill="rgb(162,164,166)" stroke="rgb(162,164,166)" stroke-width="1" opacity="1" d="M 307.5 85 L 312 85.5 L 307.5 86 L 307.5 85 Z " /><path fill="rgb(162,164,166)" stroke="rgb(162,164,166)" stroke-width="1" opacity="1" d="M 275.5 87 L 276 89.5 L 275 89.5 L 275.5 87 Z " /><path fill="rgb(162,164,166)" stroke="rgb(162,164,166)" stroke-width="1" opacity="1" d="M 303.5 87 L 302.5 89 L 303.5 87 Z " /><path fill="rgb(162,164,166)" stroke="rgb(162,164,166)" stroke-width="1" opacity="1" d="M 319.5 89 L 323.5 94 L 319.5 89 Z " /><path fill="rgb(162,164,166)" stroke="rgb(162,164,166)" stroke-width="1" opacity="1" d="M 102.5 91 L 103 102.5 L 102 102.5 L 102.5 91 Z " /><path fill="rgb(162,164,166)" stroke="rgb(162,164,166)" stroke-width="1" opacity="1" d="M 327.5 99 L 328.5 101 L 327.5 99 Z " /><path fill="rgb(162,164,166)" stroke="rgb(162,164,166)" stroke-width="1" opacity="1" d="M 184.5 103 L 185.5 105 L 184.5 103 Z " /><path fill="rgb(162,164,166)" stroke="rgb(162,164,166)" stroke-width="1" opacity="1" d="M 275.5 104 L 276 106.5 L 275 106.5 L 275.5 104 Z " /><path fill="rgb(162,164,166)" stroke="rgb(162,164,166)" stroke-width="1" opacity="1" d="M 243.5 105 L 245 107.5 L 244 107.5 L 243.5 105 Z " /><path fill="rgb(162,164,166)" stroke="rgb(162,164,166)" stroke-width="1" opacity="1" d="M 161.5 113 L 162 114.5 L 160 115.5 L 161.5 113 Z " /><path fill="rgb(162,164,166)" stroke="rgb(162,164,166)" stroke-width="1" opacity="1" d="M 186.5 114 L 184.5 117 L 186.5 114 Z " /><path fill="rgb(162,164,166)" stroke="rgb(162,164,166)" stroke-width="1" opacity="1" d="M 202.5 117 L 203.5 119 L 202.5 117 Z " /><path fill="rgb(162,164,166)" stroke="rgb(162,164,166)" stroke-width="1" opacity="1" d="M 302.5 117 L 303 119.5 L 302 119.5 L 302.5 117 Z " /><path fill="rgb(162,164,166)" stroke="rgb(162,164,166)" stroke-width="1" opacity="1" d="M 154.5 122 L 157 122.5 L 154.5 123 L 154.5 122 Z " /><path fill="rgb(162,164,166)" stroke="rgb(162,164,166)" stroke-width="1" opacity="1" d="M 147.5 123 L 150 123.5 L 147.5 124 L 147.5 123 Z " /><path fill="rgb(162,164,166)" stroke="rgb(162,164,166)" stroke-width="1" opacity="1" d="M 161.5 123 L 162 124.5 L 160 125.5 L 161.5 123 Z " /><path fill="rgb(162,164,166)" stroke="rgb(162,164,166)" stroke-width="1" opacity="1" d="M 140.5 124 L 143 124.5 L 140.5 125 L 140.5 124 Z " /><path fill="rgb(162,164,166)" stroke="rgb(162,164,166)" stroke-width="1" opacity="1" d="M 243.5 125 L 245 127.5 L 244 127.5 L 243.5 125 Z " /><path fill="rgb(162,164,166)" stroke="rgb(162,164,166)" stroke-width="1" opacity="1" d="M 303.5 125 L 304 142.5 L 303 142.5 L 303.5 125 Z " /><path fill="rgb(162,164,166)" stroke="rgb(162,164,166)" stroke-width="1" opacity="1" d="M 153.5 126 L 156 126.5 L 153.5 127 L 153.5 126 Z " /><path fill="rgb(162,164,166)" stroke="rgb(162,164,166)" stroke-width="1" opacity="1" d="M 222.5 126 L 225 126.5 L 222.5 127 L 222.5 126 Z " /><path fill="rgb(162,164,166)" stroke="rgb(162,164,166)" stroke-width="1" opacity="1" d="M 146.5 127 L 149 127.5 L 146.5 128 L 146.5 127 Z " /><path fill="rgb(162,164,166)" stroke="rgb(162,164,166)" stroke-width="1" opacity="1" d="M 139.5 128 L 142 128.5 L 139.5 129 L 139.5 128 Z " /><path fill="rgb(162,164,166)" stroke="rgb(162,164,166)" stroke-width="1" opacity="1" d="M 265.5 132 L 264.5 134 L 265.5 132 Z " /><path fill="rgb(162,164,166)" stroke="rgb(162,164,166)" stroke-width="1" opacity="1" d="M 337.5 133 L 338 138.5 L 337 138.5 L 337.5 133 Z " /><path fill="rgb(162,164,166)" stroke="rgb(162,164,166)" stroke-width="1" opacity="1" d="M 262.5 136 L 261.5 138 L 262.5 136 Z " /><path fill="rgb(162,164,166)" stroke="rgb(162,164,166)" stroke-width="1" opacity="1" d="M 117.5 138 L 124.5 146 L 117.5 138 Z " /><path fill="rgb(162,164,166)" stroke="rgb(162,164,166)" stroke-width="1" opacity="1" d="M 252.5 146 L 251.5 148 L 252.5 146 Z " /><path fill="rgb(162,164,166)" stroke="rgb(162,164,166)" stroke-width="1" opacity="1" d="M 336.5 146 L 337 148.5 L 336 148.5 L 336.5 146 Z " /><path fill="rgb(162,164,166)" stroke="rgb(162,164,166)" stroke-width="1" opacity="1" d="M 131.5 150 L 133 152.5 L 132 152.5 L 131.5 150 Z " /><path fill="rgb(162,164,166)" stroke="rgb(162,164,166)" stroke-width="1" opacity="1" d="M 99.5 186 L 115 186.5 L 99.5 187 L 99.5 186 Z " /><path fill="rgb(162,164,166)" stroke="rgb(162,164,166)" stroke-width="1" opacity="1" d="M 263.5 186 L 278 186.5 L 263.5 187 L 263.5 186 Z " /><path fill="rgb(162,164,166)" stroke="rgb(162,164,166)" stroke-width="1" opacity="1" d="M 92.5 189 L 91.5 191 L 92.5 189 Z " /><path fill="rgb(162,164,166)" stroke="rgb(162,164,166)" stroke-width="1" opacity="1" d="M 314.5 196 L 313.5 198 L 314.5 196 Z " /><path fill="rgb(162,164,166)" stroke="rgb(162,164,166)" stroke-width="1" opacity="1" d="M 293.5 197 L 294 199 L 312 199.5 L 294.5 200 L 293.5 197 Z " /><path fill="rgb(162,164,166)" stroke="rgb(162,164,166)" stroke-width="1" opacity="1" d="M 127.5 198 L 128 204.5 L 127 204.5 L 127.5 198 Z " /><path fill="rgb(162,164,166)" stroke="rgb(162,164,166)" stroke-width="1" opacity="1" d="M 132.5 199 L 247 199.5 L 132.5 200 L 132.5 199 Z " /><path fill="rgb(162,164,166)" stroke="rgb(162,164,166)" stroke-width="1" opacity="1" d="M 42.5 203 L 85 203.5 L 42.5 204 L 42.5 203 Z " /><path fill="rgb(162,164,166)" stroke="rgb(162,164,166)" stroke-width="1" opacity="1" d="M 131 203 L 247 203.5 L 132.5 204 L 131.5 205 L 131 203 Z " /><path fill="rgb(162,164,166)" stroke="rgb(162,164,166)" stroke-width="1" opacity="1" d="M 293 203 L 337 203.5 L 294.5 204 L 293.5 205 L 293 203 Z " /><path fill="rgb(162,164,166)" stroke="rgb(162,164,166)" stroke-width="1" opacity="1" d="M 249.5 212 L 250.5 214 L 249.5 212 Z " /><path fill="rgb(162,164,166)" stroke="rgb(162,164,166)" stroke-width="1" opacity="1" d="M 290.5 212 L 289.5 214 L 290.5 212 Z " /><path fill="rgb(162,164,166)" stroke="rgb(162,164,166)" stroke-width="1" opacity="1" d="M 89.5 213 L 90.5 215 L 89.5 213 Z " /><path fill="rgb(162,164,166)" stroke="rgb(162,164,166)" stroke-width="1" opacity="1" d="M 104.5 213 L 114 213.5 L 104.5 214 L 104.5 213 Z " /><path fill="rgb(162,164,166)" stroke="rgb(162,164,166)" stroke-width="1" opacity="1" d="M 265.5 213 L 275 213.5 L 265.5 214 L 265.5 213 Z " /><path fill="rgb(162,164,166)" stroke="rgb(162,164,166)" stroke-width="1" opacity="1" d="M 96.5 216 L 99 216.5 L 96.5 217 L 96.5 216 Z " /><path fill="rgb(162,164,166)" stroke="rgb(162,164,166)" stroke-width="1" opacity="1" d="M 106.5 217 L 113 217.5 L 106.5 218 L 106.5 217 Z " /><path fill="rgb(162,164,166)" stroke="rgb(162,164,166)" stroke-width="1" opacity="1" d="M 265.5 217 L 273 217.5 L 265.5 218 L 265.5 217 Z " /><path fill="rgb(162,164,166)" stroke="rgb(162,164,166)" stroke-width="1" opacity="1" d="M 335.5 232 L 337 232.5 L 334.5 234 L 335.5 232 Z " /><path fill="rgb(162,164,166)" stroke="rgb(162,164,166)" stroke-width="1" opacity="1" d="M 40.5 243 L 41.5 245 L 40.5 243 Z " /><path fill="rgb(162,164,166)" stroke="rgb(162,164,166)" stroke-width="1" opacity="1" d="M 58 249 L 320 249.5 L 59 250 L 58.5 253 L 58 249 Z " /><path fill="rgb(162,164,166)" stroke="rgb(162,164,166)" stroke-width="1" opacity="1" d="M 319.5 252 L 320 257.5 L 319 257.5 L 319.5 252 Z " /><path fill="rgb(162,164,166)" stroke="rgb(162,164,166)" stroke-width="1" opacity="1" d="M 59.5 258 L 60 263.5 L 59 263.5 L 59.5 258 Z " /><path fill="rgb(162,164,166)" stroke="rgb(162,164,166)" stroke-width="1" opacity="1" d="M 318.5 263 L 319 268.5 L 318 268.5 L 318.5 263 Z " /><path fill="rgb(162,164,166)" stroke="rgb(162,164,166)" stroke-width="1" opacity="1" d="M 60.5 270 L 61 274.5 L 60 274.5 L 60.5 270 Z " /><path fill="rgb(162,164,166)" stroke="rgb(162,164,166)" stroke-width="1" opacity="1" d="M 317.5 274 L 318 279.5 L 317 279.5 L 317.5 274 Z " /><path fill="rgb(162,164,166)" stroke="rgb(162,164,166)" stroke-width="1" opacity="1" d="M 61.5 281 L 62 285.5 L 61 285.5 L 61.5 281 Z " /><path fill="rgb(162,164,166)" stroke="rgb(162,164,166)" stroke-width="1" opacity="1" d="M 316.5 285 L 317 290.5 L 316 290.5 L 316.5 285 Z " /><path fill="rgb(162,164,166)" stroke="rgb(162,164,166)" stroke-width="1" opacity="1" d="M 62.5 292 L 63 296.5 L 62 296.5 L 62.5 292 Z " /><path fill="rgb(162,164,166)" stroke="rgb(162,164,166)" stroke-width="1" opacity="1" d="M 436.5 292 L 437.5 294 L 436.5 292 Z " /><path fill="rgb(162,164,166)" stroke="rgb(162,164,166)" stroke-width="1" opacity="1" d="M 186.5 294 L 192 294.5 L 186.5 295 L 186.5 294 Z " /><path fill="rgb(162,164,166)" stroke="rgb(162,164,166)" stroke-width="1" opacity="1" d="M 243.5 294 L 248 294.5 L 243.5 295 L 243.5 294 Z " /><path fill="rgb(162,164,166)" stroke="rgb(162,164,166)" stroke-width="1" opacity="1" d="M 196.5 296 L 199.5 300 L 196.5 296 Z " /><path fill="rgb(162,164,166)" stroke="rgb(162,164,166)" stroke-width="1" opacity="1" d="M 238.5 296 L 237.5 298 L 238.5 296 Z " /><path fill="rgb(162,164,166)" stroke="rgb(162,164,166)" stroke-width="1" opacity="1" d="M 315.5 296 L 316 301.5 L 315 301.5 L 315.5 296 Z " /><path fill="rgb(162,164,166)" stroke="rgb(162,164,166)" stroke-width="1" opacity="1" d="M 131.5 298 Q 137.3 298.3 140 301.5 L 142 305.5 L 142 439.5 L 138.5 445 L 132.5 447 L 126 443.5 L 124 439.5 L 124 305.5 L 127.5 300 L 131.5 298 Z " /><path fill="rgb(162,164,166)" stroke="rgb(162,164,166)" stroke-width="1" opacity="1" d="M 188.5 298 Q 194.9 298.1 197 302.5 L 198 304.5 L 198 440.5 L 193.5 446 L 187.5 447 L 183 445 L 180 437.5 L 180 307.5 L 181 303.5 L 185.5 299 L 188.5 298 Z " /><path fill="rgb(162,164,166)" stroke="rgb(162,164,166)" stroke-width="1" opacity="1" d="M 244.5 298 Q 251.8 298.3 254 303.5 L 254 441.5 L 249.5 446 L 244.5 447 L 238 442.5 L 237 440.5 L 237 304.5 L 241.5 299 L 244.5 298 Z " /><path fill="rgb(162,164,166)" stroke="rgb(162,164,166)" stroke-width="1" opacity="1" d="M 408.5 300 L 410 300.5 L 408 301 L 407.5 303 L 407 301.5 L 408.5 300 Z " /><path fill="rgb(162,164,166)" stroke="rgb(162,164,166)" stroke-width="1" opacity="1" d="M 63.5 303 L 64 307.5 L 63 307.5 L 63.5 303 Z " /><path fill="rgb(162,164,166)" stroke="rgb(162,164,166)" stroke-width="1" opacity="1" d="M 145.5 304 L 146 440.5 L 145 440.5 L 145.5 304 Z " /><path fill="rgb(162,164,166)" stroke="rgb(162,164,166)" stroke-width="1" opacity="1" d="M 176.5 305 L 177 439.5 L 176 439.5 L 176.5 305 Z " /><path fill="rgb(162,164,166)" stroke="rgb(162,164,166)" stroke-width="1" opacity="1" d="M 258.5 306 L 259 437.5 L 258 437.5 L 258.5 306 Z " /><path fill="rgb(162,164,166)" stroke="rgb(162,164,166)" stroke-width="1" opacity="1" d="M 314.5 307 L 315 311.5 L 314 311.5 L 314.5 307 Z " /><path fill="rgb(162,164,166)" stroke="rgb(162,164,166)" stroke-width="1" opacity="1" d="M 410.5 310 L 411.5 312 L 410.5 310 Z " /><path fill="rgb(162,164,166)" stroke="rgb(162,164,166)" stroke-width="1" opacity="1" d="M 64.5 314 L 65 317.5 L 64 317.5 L 64.5 314 Z " /><path fill="rgb(162,164,166)" stroke="rgb(162,164,166)" stroke-width="1" opacity="1" d="M 313.5 317 L 314 322.5 L 313 322.5 L 313.5 317 Z " /><path fill="rgb(162,164,166)" stroke="rgb(162,164,166)" stroke-width="1" opacity="1" d="M 65.5 324 L 66 328.5 L 65 328.5 L 65.5 324 Z " /><path fill="rgb(162,164,166)" stroke="rgb(162,164,166)" stroke-width="1" opacity="1" d="M 312.5 328 L 313 333.5 L 312 333.5 L 312.5 328 Z " /><path fill="rgb(162,164,166)" stroke="rgb(162,164,166)" stroke-width="1" opacity="1" d="M 66.5 335 L 67 339.5 L 66 339.5 L 66.5 335 Z " /><path fill="rgb(162,164,166)" stroke="rgb(162,164,166)" stroke-width="1" opacity="1" d="M 311.5 339 L 312 344.5 L 311 344.5 L 311.5 339 Z " /><path fill="rgb(162,164,166)" stroke="rgb(162,164,166)" stroke-width="1" opacity="1" d="M 67.5 346 L 68 350.5 L 67 350.5 L 67.5 346 Z " /><path fill="rgb(162,164,166)" stroke="rgb(162,164,166)" stroke-width="1" opacity="1" d="M 310.5 350 L 311 355.5 L 310 355.5 L 310.5 350 Z " /><path fill="rgb(162,164,166)" stroke="rgb(162,164,166)" stroke-width="1" opacity="1" d="M 68.5 357 L 69 361.5 L 68 361.5 L 68.5 357 Z " /><path fill="rgb(162,164,166)" stroke="rgb(162,164,166)" stroke-width="1" opacity="1" d="M 309.5 361 L 310 366.5 L 309 366.5 L 309.5 361 Z " /><path fill="rgb(162,164,166)" stroke="rgb(162,164,166)" stroke-width="1" opacity="1" d="M 69.5 368 L 70 372.5 L 69 372.5 L 69.5 368 Z " /><path fill="rgb(162,164,166)" stroke="rgb(162,164,166)" stroke-width="1" opacity="1" d="M 308.5 372 L 309 376.5 L 308 376.5 L 308.5 372 Z " /><path fill="rgb(162,164,166)" stroke="rgb(162,164,166)" stroke-width="1" opacity="1" d="M 70.5 379 L 71 382.5 L 70 382.5 L 70.5 379 Z " /><path fill="rgb(162,164,166)" stroke="rgb(162,164,166)" stroke-width="1" opacity="1" d="M 307.5 383 L 308 387.5 L 307 387.5 L 307.5 383 Z " /><path fill="rgb(162,164,166)" stroke="rgb(162,164,166)" stroke-width="1" opacity="1" d="M 471.5 384 L 472 387.5 L 469 389.5 Q 471.8 388.3 471.5 384 Z " /><path fill="rgb(162,164,166)" stroke="rgb(162,164,166)" stroke-width="1" opacity="1" d="M 71.5 390 L 72 393.5 L 71 393.5 L 71.5 390 Z " /><path fill="rgb(162,164,166)" stroke="rgb(162,164,166)" stroke-width="1" opacity="1" d="M 306.5 393 L 307 398.5 L 306 398.5 L 306.5 393 Z " /><path fill="rgb(162,164,166)" stroke="rgb(162,164,166)" stroke-width="1" opacity="1" d="M 72.5 400 L 73 404.5 L 72 404.5 L 72.5 400 Z " /><path fill="rgb(162,164,166)" stroke="rgb(162,164,166)" stroke-width="1" opacity="1" d="M 305.5 404 L 306 409.5 L 305 409.5 L 305.5 404 Z " /><path fill="rgb(162,164,166)" stroke="rgb(162,164,166)" stroke-width="1" opacity="1" d="M 73.5 411 L 74 415.5 L 73 415.5 L 73.5 411 Z " /><path fill="rgb(162,164,166)" stroke="rgb(162,164,166)" stroke-width="1" opacity="1" d="M 304.5 415 L 305 420.5 L 304 420.5 L 304.5 415 Z " /><path fill="rgb(162,164,166)" stroke="rgb(162,164,166)" stroke-width="1" opacity="1" d="M 74.5 422 L 75 426.5 L 74 426.5 L 74.5 422 Z " /><path fill="rgb(162,164,166)" stroke="rgb(162,164,166)" stroke-width="1" opacity="1" d="M 303.5 426 L 304 431.5 L 303 431.5 L 303.5 426 Z " /><path fill="rgb(162,164,166)" stroke="rgb(162,164,166)" stroke-width="1" opacity="1" d="M 75.5 433 L 76 437.5 L 75 437.5 L 75.5 433 Z " /><path fill="rgb(162,164,166)" stroke="rgb(162,164,166)" stroke-width="1" opacity="1" d="M 302.5 437 L 303 441.5 L 302 441.5 L 302.5 437 Z " /><path fill="rgb(162,164,166)" stroke="rgb(162,164,166)" stroke-width="1" opacity="1" d="M 76.5 444 L 77 448.5 L 76 448.5 L 76.5 444 Z " /><path fill="rgb(162,164,166)" stroke="rgb(162,164,166)" stroke-width="1" opacity="1" d="M 199.5 445 L 196.5 449 L 199.5 445 Z " /><path fill="rgb(162,164,166)" stroke="rgb(162,164,166)" stroke-width="1" opacity="1" d="M 123.5 446 L 124.5 448 L 123.5 446 Z " /><path fill="rgb(162,164,166)" stroke="rgb(162,164,166)" stroke-width="1" opacity="1" d="M 237.5 447 L 238.5 449 L 237.5 447 Z " /><path fill="rgb(162,164,166)" stroke="rgb(162,164,166)" stroke-width="1" opacity="1" d="M 301.5 448 L 302 452.5 L 301 452.5 L 301.5 448 Z " /><path fill="rgb(162,164,166)" stroke="rgb(162,164,166)" stroke-width="1" opacity="1" d="M 130.5 450 L 136 450.5 L 130.5 451 L 130.5 450 Z " /><path fill="rgb(162,164,166)" stroke="rgb(162,164,166)" stroke-width="1" opacity="1" d="M 186.5 450 L 192 450.5 L 186.5 451 L 186.5 450 Z " /><path fill="rgb(162,164,166)" stroke="rgb(162,164,166)" stroke-width="1" opacity="1" d="M 243.5 450 L 249 450.5 L 243.5 451 L 243.5 450 Z " /><path fill="rgb(162,164,166)" stroke="rgb(162,164,166)" stroke-width="1" opacity="1" d="M 77.5 455 L 78 458.5 L 77 458.5 L 77.5 455 Z " /><path fill="rgb(162,164,166)" stroke="rgb(162,164,166)" stroke-width="1" opacity="1" d="M 300.5 458 L 301 463.5 L 300 463.5 L 300.5 458 Z " /><path fill="rgb(162,164,166)" stroke="rgb(162,164,166)" stroke-width="1" opacity="1" d="M 78.5 465 L 79 469.5 L 78 469.5 L 78.5 465 Z " /><path fill="rgb(162,164,166)" stroke="rgb(162,164,166)" stroke-width="1" opacity="1" d="M 299.5 469 L 300 474.5 L 299 474.5 L 299.5 469 Z " /><path fill="rgb(162,164,166)" stroke="rgb(162,164,166)" stroke-width="1" opacity="1" d="M 470.5 481 L 471 483.5 L 469 484.5 L 470.5 481 Z " /><path fill="rgb(162,164,166)" stroke="rgb(162,164,166)" stroke-width="1" opacity="1" d="M 295.5 485 L 294.5 487 L 295.5 485 Z " /><path fill="rgb(162,164,166)" stroke="rgb(162,164,166)" stroke-width="1" opacity="1" d="M 83.5 486 L 87.5 491 L 83.5 486 Z " /><path fill="rgb(162,164,166)" stroke="rgb(162,164,166)" stroke-width="1" opacity="1" d="M 290.5 490 L 289.5 492 L 290.5 490 Z " /><path fill="rgb(162,164,166)" stroke="rgb(162,164,166)" stroke-width="1" opacity="1" d="M 98.5 495 L 280 495.5 L 98.5 496 L 98.5 495 Z " /><path fill="rgb(162,164,166)" stroke="rgb(162,164,166)" stroke-width="1" opacity="1" d="M 431.5 496 L 432.5 498 L 431.5 496 Z " /></svg>