<svg width="512" height="512" version="1.1" xmlns="http://www.w3.org/2000/svg" desc="Created with imagetracer.js version 1.2.6" ><path fill="rgb(87,88,89)" stroke="rgb(87,88,89)" stroke-width="1" opacity="0.12941176470588237" d="M 427.5 11 L 432 11.5 L 427.5 12 L 427.5 11 Z " /><path fill="rgb(87,88,89)" stroke="rgb(87,88,89)" stroke-width="1" opacity="0.12941176470588237" d="M 444.5 11 L 449 11.5 L 444.5 12 L 444.5 11 Z " /><path fill="rgb(87,88,89)" stroke="rgb(87,88,89)" stroke-width="1" opacity="0.12941176470588237" d="M 421.5 12 L 424 12.5 L 421.5 13 L 421.5 12 Z " /><path fill="rgb(87,88,89)" stroke="rgb(87,88,89)" stroke-width="1" opacity="0.12941176470588237" d="M 452.5 12 L 455 12.5 L 452.5 13 L 452.5 12 Z " /><path fill="rgb(87,88,89)" stroke="rgb(87,88,89)" stroke-width="1" opacity="0.12941176470588237" d="M 408.5 16 L 410 16.5 L 406.5 18 L 406.5 17 L 408.5 16 Z " /><path fill="rgb(87,88,89)" stroke="rgb(87,88,89)" stroke-width="1" opacity="0.12941176470588237" d="M 404.5 18 L 403.5 20 L 399.5 22 L 400.5 20 L 404.5 18 Z " /><path fill="rgb(87,88,89)" stroke="rgb(87,88,89)" stroke-width="1" opacity="0.12941176470588237" d="M 473.5 19 L 477 21.5 L 475.5 21 L 473.5 19 Z " /><path fill="rgb(87,88,89)" stroke="rgb(87,88,89)" stroke-width="1" opacity="0.12941176470588237" d="M 397.5 22 L 396.5 24 L 397.5 22 Z " /><path fill="rgb(87,88,89)" stroke="rgb(87,88,89)" stroke-width="1" opacity="0.12941176470588237" d="M 478.5 22 L 479.5 24 L 478.5 22 Z " /><path fill="rgb(87,88,89)" stroke="rgb(87,88,89)" stroke-width="1" opacity="0.12941176470588237" d="M 394.5 24 L 391.5 28 L 394.5 24 Z " /><path fill="rgb(87,88,89)" stroke="rgb(87,88,89)" stroke-width="1" opacity="0.12941176470588237" d="M 481.5 24 L 491 32.5 L 485.5 28 L 481.5 24 Z " /><path fill="rgb(87,88,89)" stroke="rgb(87,88,89)" stroke-width="1" opacity="0.12941176470588237" d="M 389.5 28 L 386.5 32 L 389.5 28 Z " /><path fill="rgb(87,88,89)" stroke="rgb(87,88,89)" stroke-width="1" opacity="0.12941176470588237" d="M 385.5 33 L 382.5 37 L 385.5 33 Z " /><path fill="rgb(87,88,89)" stroke="rgb(87,88,89)" stroke-width="1" opacity="0.12941176470588237" d="M 491.5 34 L 496 39.5 L 494 38.5 L 491.5 34 Z " /><path fill="rgb(87,88,89)" stroke="rgb(87,88,89)" stroke-width="1" opacity="0.12941176470588237" d="M 381.5 38 L 381 39.5 L 379.5 42 L 380 40.5 L 381.5 38 Z " /><path fill="rgb(87,88,89)" stroke="rgb(87,88,89)" stroke-width="1" opacity="0.12941176470588237" d="M 496.5 41 L 498 43.5 L 497 43.5 L 496.5 41 Z " /><path fill="rgb(87,88,89)" stroke="rgb(87,88,89)" stroke-width="1" opacity="0.12941176470588237" d="M 99.5 52 L 103 52.5 L 99.5 53 L 99.5 52 Z " /><path fill="rgb(87,88,89)" stroke="rgb(87,88,89)" stroke-width="1" opacity="0.12941176470588237" d="M 279.5 52 L 282 52.5 L 279.5 53 L 279.5 52 Z " /><path fill="rgb(87,88,89)" stroke="rgb(87,88,89)" stroke-width="1" opacity="0.12941176470588237" d="M 97.5 53 L 95 56.5 L 94.5 58 L 94 56.5 L 97.5 53 Z " /><path fill="rgb(87,88,89)" stroke="rgb(87,88,89)" stroke-width="1" opacity="0.12941176470588237" d="M 104.5 53 L 115 61.5 L 111.5 59 Q 105.6 56.7 104.5 53 Z " /><path fill="rgb(87,88,89)" stroke="rgb(87,88,89)" stroke-width="1" opacity="0.12941176470588237" d="M 276.5 53 L 278 53.5 L 274.5 56 L 276.5 53 Z " /><path fill="rgb(87,88,89)" stroke="rgb(87,88,89)" stroke-width="1" opacity="0.12941176470588237" d="M 285.5 54 L 287 56.5 L 286 56.5 L 285.5 54 Z " /><path fill="rgb(87,88,89)" stroke="rgb(87,88,89)" stroke-width="1" opacity="0.12941176470588237" d="M 374.5 54 L 375 57.5 L 374 57.5 L 374.5 54 Z " /><path fill="rgb(87,88,89)" stroke="rgb(87,88,89)" stroke-width="1" opacity="0.12941176470588237" d="M 501.5 54 L 502 56.5 L 501 56.5 L 501.5 54 Z " /><path fill="rgb(87,88,89)" stroke="rgb(87,88,89)" stroke-width="1" opacity="0.12941176470588237" d="M 272.5 56 L 269.5 60 L 272.5 56 Z " /><path fill="rgb(87,88,89)" stroke="rgb(87,88,89)" stroke-width="1" opacity="0.12941176470588237" d="M 287.5 58 L 288 108.5 L 287 108.5 L 287.5 58 Z " /><path fill="rgb(87,88,89)" stroke="rgb(87,88,89)" stroke-width="1" opacity="0.12941176470588237" d="M 267.5 60 L 264.5 64 L 267.5 60 Z " /><path fill="rgb(87,88,89)" stroke="rgb(87,88,89)" stroke-width="1" opacity="0.12941176470588237" d="M 116.5 62 L 132 74.5 L 130.5 75 L 120.5 67 L 116.5 62 Z " /><path fill="rgb(87,88,89)" stroke="rgb(87,88,89)" stroke-width="1" opacity="0.12941176470588237" d="M 262.5 64 L 259.5 68 L 262.5 64 Z " /><path fill="rgb(87,88,89)" stroke="rgb(87,88,89)" stroke-width="1" opacity="0.12941176470588237" d="M 177.5 65 L 204 65.5 L 177.5 66 L 177.5 65 Z " /><path fill="rgb(87,88,89)" stroke="rgb(87,88,89)" stroke-width="1" opacity="0.12941176470588237" d="M 166.5 66 L 172 66.5 L 166.5 67 L 166.5 66 Z " /><path fill="rgb(87,88,89)" stroke="rgb(87,88,89)" stroke-width="1" opacity="0.12941176470588237" d="M 209.5 66 L 215 66.5 L 209.5 67 L 209.5 66 Z " /><path fill="rgb(87,88,89)" stroke="rgb(87,88,89)" stroke-width="1" opacity="0.12941176470588237" d="M 160.5 67 L 164 67.5 L 160.5 68 L 160.5 67 Z " /><path fill="rgb(87,88,89)" stroke="rgb(87,88,89)" stroke-width="1" opacity="0.12941176470588237" d="M 218.5 67 L 222 67.5 L 218.5 68 L 218.5 67 Z " /><path fill="rgb(87,88,89)" stroke="rgb(87,88,89)" stroke-width="1" opacity="0.12941176470588237" d="M 374.5 67 L 375 70.5 L 374 70.5 L 374.5 67 Z " /><path fill="rgb(87,88,89)" stroke="rgb(87,88,89)" stroke-width="1" opacity="0.12941176470588237" d="M 154.5 68 L 158 68.5 L 154.5 69 L 154.5 68 Z " /><path fill="rgb(87,88,89)" stroke="rgb(87,88,89)" stroke-width="1" opacity="0.12941176470588237" d="M 224.5 68 L 227 68.5 L 224.5 69 L 224.5 68 Z " /><path fill="rgb(87,88,89)" stroke="rgb(87,88,89)" stroke-width="1" opacity="0.12941176470588237" d="M 257.5 68 L 254.5 72 L 257.5 68 Z " /><path fill="rgb(87,88,89)" stroke="rgb(87,88,89)" stroke-width="1" opacity="0.12941176470588237" d="M 150.5 69 L 153 69.5 L 150.5 70 L 150.5 69 Z " /><path fill="rgb(87,88,89)" stroke="rgb(87,88,89)" stroke-width="1" opacity="0.12941176470588237" d="M 501.5 69 L 502 71.5 L 501 71.5 L 501.5 69 Z " /><path fill="rgb(87,88,89)" stroke="rgb(87,88,89)" stroke-width="1" opacity="0.12941176470588237" d="M 233.5 70 L 236 70.5 L 233.5 71 L 233.5 70 Z " /><path fill="rgb(87,88,89)" stroke="rgb(87,88,89)" stroke-width="1" opacity="0.12941176470588237" d="M 142.5 71 L 145 71.5 L 142.5 72 L 142.5 71 Z " /><path fill="rgb(87,88,89)" stroke="rgb(87,88,89)" stroke-width="1" opacity="0.12941176470588237" d="M 252.5 72 L 250.5 75 L 252.5 72 Z " /><path fill="rgb(87,88,89)" stroke="rgb(87,88,89)" stroke-width="1" opacity="0.12941176470588237" d="M 499.5 77 L 500 78.5 L 498.5 81 L 498 79.5 L 499.5 77 Z " /><path fill="rgb(87,88,89)" stroke="rgb(87,88,89)" stroke-width="1" opacity="0.12941176470588237" d="M 377.5 79 Q 380.5 88 387 93.5 L 382 89.5 L 377 80.5 L 377.5 79 Z " /><path fill="rgb(87,88,89)" stroke="rgb(87,88,89)" stroke-width="1" opacity="0.12941176470588237" d="M 496.5 84 L 496 85.5 L 493.5 89 L 495 86.5 L 496.5 84 Z " /><path fill="rgb(87,88,89)" stroke="rgb(87,88,89)" stroke-width="1" opacity="0.12941176470588237" d="M 492.5 90 L 482.5 101 L 492.5 90 Z " /><path fill="rgb(87,88,89)" stroke="rgb(87,88,89)" stroke-width="1" opacity="0.12941176470588237" d="M 42.5 94 L 47 94.5 L 42.5 95 L 42.5 94 Z " /><path fill="rgb(87,88,89)" stroke="rgb(87,88,89)" stroke-width="1" opacity="0.12941176470588237" d="M 49.5 94 Q 57.6 94.4 60 100.5 L 61 102.5 L 59 101.5 L 54.5 96 L 49.5 95 L 49.5 94 Z " /><path fill="rgb(87,88,89)" stroke="rgb(87,88,89)" stroke-width="1" opacity="0.12941176470588237" d="M 329.5 94 L 333 94.5 L 329.5 95 L 329.5 94 Z " /><path fill="rgb(87,88,89)" stroke="rgb(87,88,89)" stroke-width="1" opacity="0.12941176470588237" d="M 335.5 94 L 339 94.5 L 335.5 95 L 335.5 94 Z " /><path fill="rgb(87,88,89)" stroke="rgb(87,88,89)" stroke-width="1" opacity="0.12941176470588237" d="M 341.5 95 L 344 95.5 L 341.5 96 L 341.5 95 Z " /><path fill="rgb(87,88,89)" stroke="rgb(87,88,89)" stroke-width="1" opacity="0.12941176470588237" d="M 387.5 95 L 388.5 97 L 387.5 95 Z " /><path fill="rgb(87,88,89)" stroke="rgb(87,88,89)" stroke-width="1" opacity="0.12941176470588237" d="M 34.5 96 L 37 96.5 L 32.5 98 L 32.5 97 L 34.5 96 Z " /><path fill="rgb(87,88,89)" stroke="rgb(87,88,89)" stroke-width="1" opacity="0.12941176470588237" d="M 325.5 96 L 322.5 100 L 325.5 96 Z " /><path fill="rgb(87,88,89)" stroke="rgb(87,88,89)" stroke-width="1" opacity="0.12941176470588237" d="M 390.5 97 L 394 101.5 L 393 101.5 L 390.5 97 Z " /><path fill="rgb(87,88,89)" stroke="rgb(87,88,89)" stroke-width="1" opacity="0.12941176470588237" d="M 29.5 98 L 31 98.5 L 16.5 107 L 18.5 104 L 29.5 98 Z " /><path fill="rgb(87,88,89)" stroke="rgb(87,88,89)" stroke-width="1" opacity="0.12941176470588237" d="M 480.5 101 L 478.5 104 L 476.5 105 L 477.5 103 L 480.5 101 Z " /><path fill="rgb(87,88,89)" stroke="rgb(87,88,89)" stroke-width="1" opacity="0.12941176470588237" d="M 359.5 102 L 364 105.5 L 361.5 104 L 359.5 102 Z " /><path fill="rgb(87,88,89)" stroke="rgb(87,88,89)" stroke-width="1" opacity="0.12941176470588237" d="M 61.5 104 L 63 107.5 L 62 107.5 L 61.5 104 Z " /><path fill="rgb(87,88,89)" stroke="rgb(87,88,89)" stroke-width="1" opacity="0.12941176470588237" d="M 365.5 106 L 369.5 111 L 365.5 106 Z " /><path fill="rgb(87,88,89)" stroke="rgb(87,88,89)" stroke-width="1" opacity="0.12941176470588237" d="M 14.5 107 L 13.5 109 L 14.5 107 Z " /><path fill="rgb(87,88,89)" stroke="rgb(87,88,89)" stroke-width="1" opacity="0.12941176470588237" d="M 93.5 108 L 94 110.5 L 93 110.5 L 93.5 108 Z " /><path fill="rgb(87,88,89)" stroke="rgb(87,88,89)" stroke-width="1" opacity="0.12941176470588237" d="M 12.5 110 L 11 112.5 L 10.5 114 L 10 112.5 L 12.5 110 Z " /><path fill="rgb(87,88,89)" stroke="rgb(87,88,89)" stroke-width="1" opacity="0.12941176470588237" d="M 288.5 111 L 289 113.5 L 288 113.5 L 288.5 111 Z " /><path fill="rgb(87,88,89)" stroke="rgb(87,88,89)" stroke-width="1" opacity="0.12941176470588237" d="M 413.5 111 L 408.5 117 L 392.5 131 L 399.5 123 L 413.5 111 Z " /><path fill="rgb(87,88,89)" stroke="rgb(87,88,89)" stroke-width="1" opacity="0.12941176470588237" d="M 389.5 112 L 390 113.5 L 388.5 116 L 388 114.5 L 389.5 112 Z " /><path fill="rgb(87,88,89)" stroke="rgb(87,88,89)" stroke-width="1" opacity="0.12941176470588237" d="M 418.5 112 L 421 112.5 L 418.5 113 L 418.5 112 Z " /><path fill="rgb(87,88,89)" stroke="rgb(87,88,89)" stroke-width="1" opacity="0.12941176470588237" d="M 455.5 112 L 458 112.5 L 455.5 113 L 455.5 112 Z " /><path fill="rgb(87,88,89)" stroke="rgb(87,88,89)" stroke-width="1" opacity="0.12941176470588237" d="M 92.5 113 L 93 115.5 L 92 115.5 L 92.5 113 Z " /><path fill="rgb(87,88,89)" stroke="rgb(87,88,89)" stroke-width="1" opacity="0.12941176470588237" d="M 316.5 113 L 317 115.5 L 316 115.5 L 316.5 113 Z " /><path fill="rgb(87,88,89)" stroke="rgb(87,88,89)" stroke-width="1" opacity="0.12941176470588237" d="M 423.5 113 L 426 113.5 L 423.5 114 L 423.5 113 Z " /><path fill="rgb(87,88,89)" stroke="rgb(87,88,89)" stroke-width="1" opacity="0.12941176470588237" d="M 450.5 113 L 453 113.5 L 450.5 114 L 450.5 113 Z " /><path fill="rgb(87,88,89)" stroke="rgb(87,88,89)" stroke-width="1" opacity="0.12941176470588237" d="M 371.5 114 L 372 118.5 L 371 118.5 L 371.5 114 Z " /><path fill="rgb(87,88,89)" stroke="rgb(87,88,89)" stroke-width="1" opacity="0.12941176470588237" d="M 429.5 114 L 447 114.5 L 429.5 115 L 429.5 114 Z " /><path fill="rgb(87,88,89)" stroke="rgb(87,88,89)" stroke-width="1" opacity="0.12941176470588237" d="M 289.5 116 L 290 119.5 L 289 119.5 L 289.5 116 Z " /><path fill="rgb(87,88,89)" stroke="rgb(87,88,89)" stroke-width="1" opacity="0.12941176470588237" d="M 91.5 118 L 92 121.5 L 91 121.5 L 91.5 118 Z " /><path fill="rgb(87,88,89)" stroke="rgb(87,88,89)" stroke-width="1" opacity="0.12941176470588237" d="M 290.5 122 L 291 125.5 L 290 125.5 L 290.5 122 Z " /><path fill="rgb(87,88,89)" stroke="rgb(87,88,89)" stroke-width="1" opacity="0.12941176470588237" d="M 369.5 123 L 370 124.5 Q 366 133.5 358.5 139 L 365 131.5 L 369.5 123 Z " /><path fill="rgb(87,88,89)" stroke="rgb(87,88,89)" stroke-width="1" opacity="0.12941176470588237" d="M 90.5 124 L 91 128.5 L 90 128.5 L 90.5 124 Z " /><path fill="rgb(87,88,89)" stroke="rgb(87,88,89)" stroke-width="1" opacity="0.12941176470588237" d="M 312.5 126 L 313 127.5 L 311.5 130 L 311 128.5 L 312.5 126 Z " /><path fill="rgb(87,88,89)" stroke="rgb(87,88,89)" stroke-width="1" opacity="0.12941176470588237" d="M 13.5 127 L 17 131.5 L 14 129.5 L 13.5 127 Z " /><path fill="rgb(87,88,89)" stroke="rgb(87,88,89)" stroke-width="1" opacity="0.12941176470588237" d="M 69.5 128 L 71 131.5 L 70 131.5 L 69.5 128 Z " /><path fill="rgb(87,88,89)" stroke="rgb(87,88,89)" stroke-width="1" opacity="0.12941176470588237" d="M 291.5 129 L 292 132.5 L 291 132.5 L 291.5 129 Z " /><path fill="rgb(87,88,89)" stroke="rgb(87,88,89)" stroke-width="1" opacity="0.12941176470588237" d="M 89.5 131 L 90 135.5 L 89 135.5 L 89.5 131 Z " /><path fill="rgb(87,88,89)" stroke="rgb(87,88,89)" stroke-width="1" opacity="0.12941176470588237" d="M 390.5 131 L 385.5 137 L 382 135.5 L 383.5 136 L 385.5 136 L 390.5 131 Z " /><path fill="rgb(87,88,89)" stroke="rgb(87,88,89)" stroke-width="1" opacity="0.12941176470588237" d="M 17.5 133 L 21.5 138 L 17.5 133 Z " /><path fill="rgb(87,88,89)" stroke="rgb(87,88,89)" stroke-width="1" opacity="0.12941176470588237" d="M 72.5 136 L 74 139.5 L 73 139.5 L 72.5 136 Z " /><path fill="rgb(87,88,89)" stroke="rgb(87,88,89)" stroke-width="1" opacity="0.12941176470588237" d="M 292.5 137 L 293 141.5 L 292 141.5 L 292.5 137 Z " /><path fill="rgb(87,88,89)" stroke="rgb(87,88,89)" stroke-width="1" opacity="0.12941176470588237" d="M 23.5 138 L 27 142.5 L 25 141.5 L 23.5 138 Z " /><path fill="rgb(87,88,89)" stroke="rgb(87,88,89)" stroke-width="1" opacity="0.12941176470588237" d="M 356.5 139 L 357 140.5 L 355 141.5 L 356.5 139 Z " /><path fill="rgb(87,88,89)" stroke="rgb(87,88,89)" stroke-width="1" opacity="0.12941176470588237" d="M 88.5 140 L 89 145.5 L 88 145.5 L 88.5 140 Z " /><path fill="rgb(87,88,89)" stroke="rgb(87,88,89)" stroke-width="1" opacity="0.12941176470588237" d="M 306.5 142 L 307 143.5 L 305.5 146 L 305 144.5 L 306.5 142 Z " /><path fill="rgb(87,88,89)" stroke="rgb(87,88,89)" stroke-width="1" opacity="0.12941176470588237" d="M 354.5 143 L 354 144.5 L 352.5 147 L 353 145.5 L 354.5 143 Z " /><path fill="rgb(87,88,89)" stroke="rgb(87,88,89)" stroke-width="1" opacity="0.12941176470588237" d="M 75.5 144 L 77 147.5 L 76 147.5 L 75.5 144 Z " /><path fill="rgb(87,88,89)" stroke="rgb(87,88,89)" stroke-width="1" opacity="0.12941176470588237" d="M 28.5 146 L 33 153.5 L 31 152.5 L 28.5 146 Z " /><path fill="rgb(87,88,89)" stroke="rgb(87,88,89)" stroke-width="1" opacity="0.12941176470588237" d="M 293.5 148 L 294 154.5 L 293 154.5 L 293.5 148 Z " /><path fill="rgb(87,88,89)" stroke="rgb(87,88,89)" stroke-width="1" opacity="0.12941176470588237" d="M 77.5 149 L 79 152.5 L 78 152.5 L 77.5 149 Z " /><path fill="rgb(87,88,89)" stroke="rgb(87,88,89)" stroke-width="1" opacity="0.12941176470588237" d="M 303.5 150 L 304 151.5 L 302.5 154 L 302 152.5 L 303.5 150 Z " /><path fill="rgb(87,88,89)" stroke="rgb(87,88,89)" stroke-width="1" opacity="0.12941176470588237" d="M 33.5 155 L 36 160.5 L 35 160.5 L 33.5 155 Z " /><path fill="rgb(87,88,89)" stroke="rgb(87,88,89)" stroke-width="1" opacity="0.12941176470588237" d="M 88.5 156 L 89 161.5 L 88 161.5 L 88.5 156 Z " /><path fill="rgb(87,88,89)" stroke="rgb(87,88,89)" stroke-width="1" opacity="0.12941176470588237" d="M 80.5 157 L 82 160.5 L 81 160.5 L 80.5 157 Z " /><path fill="rgb(87,88,89)" stroke="rgb(87,88,89)" stroke-width="1" opacity="0.12941176470588237" d="M 346.5 158 L 347 159.5 L 345.5 162 L 345 160.5 L 346.5 158 Z " /><path fill="rgb(87,88,89)" stroke="rgb(87,88,89)" stroke-width="1" opacity="0.12941176470588237" d="M 292.5 160 L 293 163.5 L 292 163.5 L 292.5 160 Z " /><path fill="rgb(87,88,89)" stroke="rgb(87,88,89)" stroke-width="1" opacity="0.12941176470588237" d="M 36.5 162 L 38 165.5 L 37 165.5 L 36.5 162 Z " /><path fill="rgb(87,88,89)" stroke="rgb(87,88,89)" stroke-width="1" opacity="0.12941176470588237" d="M 298.5 163 L 299 164.5 L 297.5 167 L 297 165.5 L 298.5 163 Z " /><path fill="rgb(87,88,89)" stroke="rgb(87,88,89)" stroke-width="1" opacity="0.12941176470588237" d="M 89.5 165 L 90 167.5 L 89 167.5 L 89.5 165 Z " /><path fill="rgb(87,88,89)" stroke="rgb(87,88,89)" stroke-width="1" opacity="0.12941176470588237" d="M 291.5 166 L 292 168.5 L 291 168.5 L 291.5 166 Z " /><path fill="rgb(87,88,89)" stroke="rgb(87,88,89)" stroke-width="1" opacity="0.12941176470588237" d="M 296.5 168 L 297 169.5 L 295.5 172 L 295 170.5 L 296.5 168 Z " /><path fill="rgb(87,88,89)" stroke="rgb(87,88,89)" stroke-width="1" opacity="0.12941176470588237" d="M 90.5 169 L 91 171.5 L 90 171.5 L 90.5 169 Z " /><path fill="rgb(87,88,89)" stroke="rgb(87,88,89)" stroke-width="1" opacity="0.12941176470588237" d="M 294.5 173 L 295 174.5 L 293.5 177 L 293 175.5 L 294.5 173 Z " /><path fill="rgb(87,88,89)" stroke="rgb(87,88,89)" stroke-width="1" opacity="0.12941176470588237" d="M 292.5 178 L 293 179.5 L 291.5 182 L 291 180.5 L 292.5 178 Z " /><path fill="rgb(87,88,89)" stroke="rgb(87,88,89)" stroke-width="1" opacity="0.12941176470588237" d="M 42.5 179 L 43 181.5 L 42 181.5 L 42.5 179 Z " /><path fill="rgb(87,88,89)" stroke="rgb(87,88,89)" stroke-width="1" opacity="0.12941176470588237" d="M 93.5 179 L 99 189.5 L 97 188.5 L 93 180.5 L 93.5 179 Z " /><path fill="rgb(87,88,89)" stroke="rgb(87,88,89)" stroke-width="1" opacity="0.12941176470588237" d="M 338.5 181 L 339 183.5 L 338 183.5 L 338.5 181 Z " /><path fill="rgb(87,88,89)" stroke="rgb(87,88,89)" stroke-width="1" opacity="0.12941176470588237" d="M 90.5 182 L 92 185.5 L 91 185.5 L 90.5 182 Z " /><path fill="rgb(87,88,89)" stroke="rgb(87,88,89)" stroke-width="1" opacity="0.12941176470588237" d="M 286.5 182 L 287 183.5 L 283.5 189 L 284 187.5 L 286.5 182 Z " /><path fill="rgb(87,88,89)" stroke="rgb(87,88,89)" stroke-width="1" opacity="0.12941176470588237" d="M 43.5 184 L 44 186.5 L 43 186.5 L 43.5 184 Z " /><path fill="rgb(87,88,89)" stroke="rgb(87,88,89)" stroke-width="1" opacity="0.12941176470588237" d="M 337.5 185 L 338 187.5 L 337 187.5 L 337.5 185 Z " /><path fill="rgb(87,88,89)" stroke="rgb(87,88,89)" stroke-width="1" opacity="0.12941176470588237" d="M 92.5 187 L 95 192.5 L 94 192.5 L 92.5 187 Z " /><path fill="rgb(87,88,89)" stroke="rgb(87,88,89)" stroke-width="1" opacity="0.12941176470588237" d="M 44.5 188 L 45 191.5 L 44 191.5 L 44.5 188 Z " /><path fill="rgb(87,88,89)" stroke="rgb(87,88,89)" stroke-width="1" opacity="0.12941176470588237" d="M 282.5 190 L 282 191.5 L 277.5 198 L 279 195.5 L 282.5 190 Z " /><path fill="rgb(87,88,89)" stroke="rgb(87,88,89)" stroke-width="1" opacity="0.12941176470588237" d="M 287.5 190 L 288 191.5 L 285.5 196 L 285 194.5 L 287.5 190 Z " /><path fill="rgb(87,88,89)" stroke="rgb(87,88,89)" stroke-width="1" opacity="0.12941176470588237" d="M 336.5 190 L 337 192.5 L 336 192.5 L 336.5 190 Z " /><path fill="rgb(87,88,89)" stroke="rgb(87,88,89)" stroke-width="1" opacity="0.12941176470588237" d="M 99.5 191 L 115 210.5 L 112.5 214 L 113 212.5 L 114 209.5 L 102 196.5 L 99.5 191 Z " /><path fill="rgb(87,88,89)" stroke="rgb(87,88,89)" stroke-width="1" opacity="0.12941176470588237" d="M 45.5 193 L 46 196.5 L 45 196.5 L 45.5 193 Z " /><path fill="rgb(87,88,89)" stroke="rgb(87,88,89)" stroke-width="1" opacity="0.12941176470588237" d="M 335.5 195 L 336 198.5 L 335 198.5 L 335.5 195 Z " /><path fill="rgb(87,88,89)" stroke="rgb(87,88,89)" stroke-width="1" opacity="0.12941176470588237" d="M 96.5 196 L 101 204.5 L 99 203.5 L 96.5 196 Z " /><path fill="rgb(87,88,89)" stroke="rgb(87,88,89)" stroke-width="1" opacity="0.12941176470588237" d="M 46.5 199 L 47 201.5 L 46 201.5 L 46.5 199 Z " /><path fill="rgb(87,88,89)" stroke="rgb(87,88,89)" stroke-width="1" opacity="0.12941176470588237" d="M 276.5 199 L 266.5 210 L 276.5 199 Z " /><path fill="rgb(87,88,89)" stroke="rgb(87,88,89)" stroke-width="1" opacity="0.12941176470588237" d="M 334.5 201 L 335 203.5 L 334 203.5 L 334.5 201 Z " /><path fill="rgb(87,88,89)" stroke="rgb(87,88,89)" stroke-width="1" opacity="0.12941176470588237" d="M 281.5 203 L 281 204.5 L 279.5 207 L 280 205.5 L 281.5 203 Z " /><path fill="rgb(87,88,89)" stroke="rgb(87,88,89)" stroke-width="1" opacity="0.12941176470588237" d="M 47.5 204 L 48 207.5 L 47 207.5 L 47.5 204 Z " /><path fill="rgb(87,88,89)" stroke="rgb(87,88,89)" stroke-width="1" opacity="0.12941176470588237" d="M 101.5 206 L 104 209.5 L 102 208.5 L 101.5 206 Z " /><path fill="rgb(87,88,89)" stroke="rgb(87,88,89)" stroke-width="1" opacity="0.12941176470588237" d="M 333.5 206 L 334 209.5 L 333 209.5 L 333.5 206 Z " /><path fill="rgb(87,88,89)" stroke="rgb(87,88,89)" stroke-width="1" opacity="0.12941176470588237" d="M 278.5 208 L 278 209.5 L 276.5 212 L 277 210.5 L 278.5 208 Z " /><path fill="rgb(87,88,89)" stroke="rgb(87,88,89)" stroke-width="1" opacity="0.12941176470588237" d="M 48.5 210 L 49 212.5 L 48 212.5 L 48.5 210 Z " /><path fill="rgb(87,88,89)" stroke="rgb(87,88,89)" stroke-width="1" opacity="0.12941176470588237" d="M 104.5 211 L 105.5 213 L 104.5 211 Z " /><path fill="rgb(87,88,89)" stroke="rgb(87,88,89)" stroke-width="1" opacity="0.12941176470588237" d="M 267.5 211 L 271 216.5 L 269 215.5 L 267.5 211 Z " /><path fill="rgb(87,88,89)" stroke="rgb(87,88,89)" stroke-width="1" opacity="0.12941176470588237" d="M 332.5 212 L 333 214.5 L 332 214.5 L 332.5 212 Z " /><path fill="rgb(87,88,89)" stroke="rgb(87,88,89)" stroke-width="1" opacity="0.12941176470588237" d="M 275.5 213 L 275 214.5 L 273.5 217 L 274 215.5 L 275.5 213 Z " /><path fill="rgb(87,88,89)" stroke="rgb(87,88,89)" stroke-width="1" opacity="0.12941176470588237" d="M 106.5 214 L 109.5 218 L 111 217.5 L 109.5 220 L 106.5 214 Z " /><path fill="rgb(87,88,89)" stroke="rgb(87,88,89)" stroke-width="1" opacity="0.12941176470588237" d="M 52.5 224 L 53 226.5 L 52 226.5 L 52.5 224 Z " /><path fill="rgb(87,88,89)" stroke="rgb(87,88,89)" stroke-width="1" opacity="0.12941176470588237" d="M 328.5 225 L 329 227.5 L 328 227.5 L 328.5 225 Z " /><path fill="rgb(87,88,89)" stroke="rgb(87,88,89)" stroke-width="1" opacity="0.12941176470588237" d="M 55.5 234 L 57 237.5 L 56 237.5 L 55.5 234 Z " /><path fill="rgb(87,88,89)" stroke="rgb(87,88,89)" stroke-width="1" opacity="0.12941176470588237" d="M 325.5 235 L 326 236.5 L 324.5 239 L 324 237.5 L 325.5 235 Z " /><path fill="rgb(87,88,89)" stroke="rgb(87,88,89)" stroke-width="1" opacity="0.12941176470588237" d="M 67.5 269 L 69 272.5 L 68 272.5 L 67.5 269 Z " /><path fill="rgb(87,88,89)" stroke="rgb(87,88,89)" stroke-width="1" opacity="0.12941176470588237" d="M 313.5 270 L 314 271.5 L 312.5 274 L 312 272.5 L 313.5 270 Z " /><path fill="rgb(87,88,89)" stroke="rgb(87,88,89)" stroke-width="1" opacity="0.12941176470588237" d="M 303.5 302 L 304 304.5 L 303 304.5 L 303.5 302 Z " /><path fill="rgb(87,88,89)" stroke="rgb(87,88,89)" stroke-width="1" opacity="0.12941176470588237" d="M 77.5 304 L 78 306.5 L 77 306.5 L 77.5 304 Z " /><path fill="rgb(87,88,89)" stroke="rgb(87,88,89)" stroke-width="1" opacity="0.12941176470588237" d="M 304.5 307 L 305 309.5 L 304 309.5 L 304.5 307 Z " /><path fill="rgb(87,88,89)" stroke="rgb(87,88,89)" stroke-width="1" opacity="0.12941176470588237" d="M 76.5 309 L 77 311.5 L 76 311.5 L 76.5 309 Z " /><path fill="rgb(87,88,89)" stroke="rgb(87,88,89)" stroke-width="1" opacity="0.12941176470588237" d="M 305.5 312 L 306 315.5 L 305 315.5 L 305.5 312 Z " /><path fill="rgb(87,88,89)" stroke="rgb(87,88,89)" stroke-width="1" opacity="0.12941176470588237" d="M 75.5 314 L 76 317.5 L 75 317.5 L 75.5 314 Z " /><path fill="rgb(87,88,89)" stroke="rgb(87,88,89)" stroke-width="1" opacity="0.12941176470588237" d="M 306.5 318 L 307 320.5 L 306 320.5 L 306.5 318 Z " /><path fill="rgb(87,88,89)" stroke="rgb(87,88,89)" stroke-width="1" opacity="0.12941176470588237" d="M 74.5 320 L 75 322.5 L 74 322.5 L 74.5 320 Z " /><path fill="rgb(87,88,89)" stroke="rgb(87,88,89)" stroke-width="1" opacity="0.12941176470588237" d="M 307.5 324 L 308 327.5 L 307 327.5 L 307.5 324 Z " /><path fill="rgb(87,88,89)" stroke="rgb(87,88,89)" stroke-width="1" opacity="0.12941176470588237" d="M 73.5 326 L 74 330.5 L 73 330.5 L 73.5 326 Z " /><path fill="rgb(87,88,89)" stroke="rgb(87,88,89)" stroke-width="1" opacity="0.12941176470588237" d="M 390.5 326 L 393 326.5 L 390.5 327 L 390.5 326 Z " /><path fill="rgb(87,88,89)" stroke="rgb(87,88,89)" stroke-width="1" opacity="0.12941176470588237" d="M 379.5 327 L 381 327.5 L 378.5 329 L 379.5 327 Z " /><path fill="rgb(87,88,89)" stroke="rgb(87,88,89)" stroke-width="1" opacity="0.12941176470588237" d="M 397.5 328 L 402 330.5 L 400.5 330 Q 396.8 329.7 397.5 328 Z " /><path fill="rgb(87,88,89)" stroke="rgb(87,88,89)" stroke-width="1" opacity="0.12941176470588237" d="M 376.5 329 L 375 331.5 L 373.5 334 L 374 332.5 L 376.5 329 Z " /><path fill="rgb(87,88,89)" stroke="rgb(87,88,89)" stroke-width="1" opacity="0.12941176470588237" d="M 308.5 331 L 309 335.5 L 308 335.5 L 308.5 331 Z " /><path fill="rgb(87,88,89)" stroke="rgb(87,88,89)" stroke-width="1" opacity="0.12941176470588237" d="M 403.5 331 L 414 340.5 L 406.5 334 L 403.5 331 Z " /><path fill="rgb(87,88,89)" stroke="rgb(87,88,89)" stroke-width="1" opacity="0.12941176470588237" d="M 72.5 334 L 73 338.5 L 72 338.5 L 72.5 334 Z " /><path fill="rgb(87,88,89)" stroke="rgb(87,88,89)" stroke-width="1" opacity="0.12941176470588237" d="M 371.5 338 L 372 349.5 L 371 349.5 L 371.5 338 Z " /><path fill="rgb(87,88,89)" stroke="rgb(87,88,89)" stroke-width="1" opacity="0.12941176470588237" d="M 309.5 340 L 310 345.5 L 309 345.5 L 309.5 340 Z " /><path fill="rgb(87,88,89)" stroke="rgb(87,88,89)" stroke-width="1" opacity="0.12941176470588237" d="M 414.5 342 L 416.5 345 L 414.5 342 Z " /><path fill="rgb(87,88,89)" stroke="rgb(87,88,89)" stroke-width="1" opacity="0.12941176470588237" d="M 71.5 344 L 72 351.5 L 71 351.5 L 71.5 344 Z " /><path fill="rgb(87,88,89)" stroke="rgb(87,88,89)" stroke-width="1" opacity="0.12941176470588237" d="M 417.5 346 L 418.5 348 L 417.5 346 Z " /><path fill="rgb(87,88,89)" stroke="rgb(87,88,89)" stroke-width="1" opacity="0.12941176470588237" d="M 419.5 349 L 424 357.5 L 423 357.5 L 419.5 349 Z " /><path fill="rgb(87,88,89)" stroke="rgb(87,88,89)" stroke-width="1" opacity="0.12941176470588237" d="M 372.5 352 L 373 355.5 L 372 355.5 L 372.5 352 Z " /><path fill="rgb(87,88,89)" stroke="rgb(87,88,89)" stroke-width="1" opacity="0.12941176470588237" d="M 310.5 354 L 311 382.5 L 310 382.5 L 310.5 354 Z " /><path fill="rgb(87,88,89)" stroke="rgb(87,88,89)" stroke-width="1" opacity="0.12941176470588237" d="M 373.5 358 L 374 361.5 L 373 361.5 L 373.5 358 Z " /><path fill="rgb(87,88,89)" stroke="rgb(87,88,89)" stroke-width="1" opacity="0.12941176470588237" d="M 70.5 363 L 71 372.5 L 70 372.5 L 70.5 363 Z " /><path fill="rgb(87,88,89)" stroke="rgb(87,88,89)" stroke-width="1" opacity="0.12941176470588237" d="M 426.5 364 L 427 366.5 L 426 366.5 L 426.5 364 Z " /><path fill="rgb(87,88,89)" stroke="rgb(87,88,89)" stroke-width="1" opacity="0.12941176470588237" d="M 374.5 366 L 375 375.5 L 374 375.5 L 374.5 366 Z " /><path fill="rgb(87,88,89)" stroke="rgb(87,88,89)" stroke-width="1" opacity="0.12941176470588237" d="M 427.5 368 L 428 370.5 L 427 370.5 L 427.5 368 Z " /><path fill="rgb(87,88,89)" stroke="rgb(87,88,89)" stroke-width="1" opacity="0.12941176470588237" d="M 428.5 372 L 429 375.5 L 428 375.5 L 428.5 372 Z " /><path fill="rgb(87,88,89)" stroke="rgb(87,88,89)" stroke-width="1" opacity="0.12941176470588237" d="M 373.5 380 L 374 383.5 L 373 383.5 L 373.5 380 Z " /><path fill="rgb(87,88,89)" stroke="rgb(87,88,89)" stroke-width="1" opacity="0.12941176470588237" d="M 429.5 380 L 430 393.5 L 429 393.5 L 429.5 380 Z " /><path fill="rgb(87,88,89)" stroke="rgb(87,88,89)" stroke-width="1" opacity="0.12941176470588237" d="M 71.5 384 L 72 390.5 L 71 390.5 L 71.5 384 Z " /><path fill="rgb(87,88,89)" stroke="rgb(87,88,89)" stroke-width="1" opacity="0.12941176470588237" d="M 309.5 388 L 310 393.5 L 309 393.5 L 309.5 388 Z " /><path fill="rgb(87,88,89)" stroke="rgb(87,88,89)" stroke-width="1" opacity="0.12941176470588237" d="M 72.5 395 L 73 399.5 L 72 399.5 L 72.5 395 Z " /><path fill="rgb(87,88,89)" stroke="rgb(87,88,89)" stroke-width="1" opacity="0.12941176470588237" d="M 369.5 396 L 370 397.5 L 364.5 407 L 365 405.5 L 369.5 396 Z " /><path fill="rgb(87,88,89)" stroke="rgb(87,88,89)" stroke-width="1" opacity="0.12941176470588237" d="M 428.5 397 L 429 400.5 L 428 400.5 L 428.5 397 Z " /><path fill="rgb(87,88,89)" stroke="rgb(87,88,89)" stroke-width="1" opacity="0.12941176470588237" d="M 308.5 398 L 309 401.5 L 308 401.5 L 308.5 398 Z " /><path fill="rgb(87,88,89)" stroke="rgb(87,88,89)" stroke-width="1" opacity="0.12941176470588237" d="M 73.5 402 L 74 405.5 L 73 405.5 L 73.5 402 Z " /><path fill="rgb(87,88,89)" stroke="rgb(87,88,89)" stroke-width="1" opacity="0.12941176470588237" d="M 427.5 403 L 428 405.5 L 427 405.5 L 427.5 403 Z " /><path fill="rgb(87,88,89)" stroke="rgb(87,88,89)" stroke-width="1" opacity="0.12941176470588237" d="M 307.5 404 L 308 407.5 L 307 407.5 L 307.5 404 Z " /><path fill="rgb(87,88,89)" stroke="rgb(87,88,89)" stroke-width="1" opacity="0.12941176470588237" d="M 74.5 408 L 75 410.5 L 74 410.5 L 74.5 408 Z " /><path fill="rgb(87,88,89)" stroke="rgb(87,88,89)" stroke-width="1" opacity="0.12941176470588237" d="M 363.5 408 L 362.5 410 L 363.5 408 Z " /><path fill="rgb(87,88,89)" stroke="rgb(87,88,89)" stroke-width="1" opacity="0.12941176470588237" d="M 306.5 410 L 307 412.5 L 306 412.5 L 306.5 410 Z " /><path fill="rgb(87,88,89)" stroke="rgb(87,88,89)" stroke-width="1" opacity="0.12941176470588237" d="M 361.5 411 L 359 414.5 L 353.5 421 L 358 415.5 L 361.5 411 Z " /><path fill="rgb(87,88,89)" stroke="rgb(87,88,89)" stroke-width="1" opacity="0.12941176470588237" d="M 424.5 413 L 425 414.5 L 423.5 417 L 423 415.5 L 424.5 413 Z " /><path fill="rgb(87,88,89)" stroke="rgb(87,88,89)" stroke-width="1" opacity="0.12941176470588237" d="M 305.5 414 L 306 416.5 L 305 416.5 L 305.5 414 Z " /><path fill="rgb(87,88,89)" stroke="rgb(87,88,89)" stroke-width="1" opacity="0.12941176470588237" d="M 304.5 418 L 305 420.5 L 304 420.5 L 304.5 418 Z " /><path fill="rgb(87,88,89)" stroke="rgb(87,88,89)" stroke-width="1" opacity="0.12941176470588237" d="M 351.5 421 L 348.5 425 L 343.5 428 L 344.5 426 L 351.5 421 Z " /><path fill="rgb(87,88,89)" stroke="rgb(87,88,89)" stroke-width="1" opacity="0.12941176470588237" d="M 419.5 424 L 419 425.5 Q 410.9 440.9 397.5 451 L 411 436.5 L 419.5 424 Z " /><path fill="rgb(87,88,89)" stroke="rgb(87,88,89)" stroke-width="1" opacity="0.12941176470588237" d="M 338.5 429 L 340 429.5 L 336.5 431 L 336.5 430 L 338.5 429 Z " /><path fill="rgb(87,88,89)" stroke="rgb(87,88,89)" stroke-width="1" opacity="0.12941176470588237" d="M 302.5 433 L 305 433.5 L 302.5 434 L 302.5 433 Z " /><path fill="rgb(87,88,89)" stroke="rgb(87,88,89)" stroke-width="1" opacity="0.12941176470588237" d="M 325.5 433 L 328 433.5 L 325.5 434 L 325.5 433 Z " /><path fill="rgb(87,88,89)" stroke="rgb(87,88,89)" stroke-width="1" opacity="0.12941176470588237" d="M 307.5 434 L 323 434.5 L 307.5 435 L 307.5 434 Z " /><path fill="rgb(87,88,89)" stroke="rgb(87,88,89)" stroke-width="1" opacity="0.12941176470588237" d="M 82.5 435 L 84 438.5 L 83 438.5 L 82.5 435 Z " /><path fill="rgb(87,88,89)" stroke="rgb(87,88,89)" stroke-width="1" opacity="0.12941176470588237" d="M 86.5 444 L 90 449.5 L 88 448.5 L 86.5 444 Z " /><path fill="rgb(87,88,89)" stroke="rgb(87,88,89)" stroke-width="1" opacity="0.12941176470588237" d="M 90.5 451 L 91.5 453 L 90.5 451 Z " /><path fill="rgb(87,88,89)" stroke="rgb(87,88,89)" stroke-width="1" opacity="0.12941176470588237" d="M 395.5 451 L 393.5 454 L 395.5 451 Z " /><path fill="rgb(87,88,89)" stroke="rgb(87,88,89)" stroke-width="1" opacity="0.12941176470588237" d="M 92.5 454 L 94.5 457 L 92.5 454 Z " /><path fill="rgb(87,88,89)" stroke="rgb(87,88,89)" stroke-width="1" opacity="0.12941176470588237" d="M 391.5 454 L 390.5 456 L 391.5 454 Z " /><path fill="rgb(87,88,89)" stroke="rgb(87,88,89)" stroke-width="1" opacity="0.12941176470588237" d="M 388.5 456 L 387.5 458 L 388.5 456 Z " /><path fill="rgb(87,88,89)" stroke="rgb(87,88,89)" stroke-width="1" opacity="0.12941176470588237" d="M 95.5 458 L 110 471.5 L 109.5 473 L 109 471 L 107.5 471 L 95.5 458 Z " /><path fill="rgb(87,88,89)" stroke="rgb(87,88,89)" stroke-width="1" opacity="0.12941176470588237" d="M 385.5 458 L 384.5 460 L 380.5 462 L 381.5 460 L 385.5 458 Z " /><path fill="rgb(87,88,89)" stroke="rgb(87,88,89)" stroke-width="1" opacity="0.12941176470588237" d="M 373.5 464 L 375 464.5 L 371.5 466 L 371.5 465 L 373.5 464 Z " /><path fill="rgb(87,88,89)" stroke="rgb(87,88,89)" stroke-width="1" opacity="0.12941176470588237" d="M 274.5 469 L 273.5 471 L 274.5 469 Z " /><path fill="rgb(87,88,89)" stroke="rgb(87,88,89)" stroke-width="1" opacity="0.12941176470588237" d="M 278.5 469 L 281 469.5 L 278.5 470 L 278.5 469 Z " /><path fill="rgb(87,88,89)" stroke="rgb(87,88,89)" stroke-width="1" opacity="0.12941176470588237" d="M 359.5 469 L 362 469.5 L 359.5 470 L 359.5 469 Z " /><path fill="rgb(87,88,89)" stroke="rgb(87,88,89)" stroke-width="1" opacity="0.12941176470588237" d="M 282.5 470 L 285 470.5 L 282.5 471 L 282.5 470 Z " /><path fill="rgb(87,88,89)" stroke="rgb(87,88,89)" stroke-width="1" opacity="0.12941176470588237" d="M 287.5 471 L 290 471.5 L 287.5 472 L 287.5 471 Z " /><path fill="rgb(87,88,89)" stroke="rgb(87,88,89)" stroke-width="1" opacity="0.12941176470588237" d="M 292.5 472 L 295 472.5 L 292.5 473 L 292.5 472 Z " /><path fill="rgb(87,88,89)" stroke="rgb(87,88,89)" stroke-width="1" opacity="0.12941176470588237" d="M 347.5 472 L 350 472.5 L 347.5 473 L 347.5 472 Z " /><path fill="rgb(87,88,89)" stroke="rgb(87,88,89)" stroke-width="1" opacity="0.12941176470588237" d="M 298.5 473 L 303 473.5 L 298.5 474 L 298.5 473 Z " /><path fill="rgb(87,88,89)" stroke="rgb(87,88,89)" stroke-width="1" opacity="0.12941176470588237" d="M 340.5 473 L 344 473.5 L 340.5 474 L 340.5 473 Z " /><path fill="rgb(87,88,89)" stroke="rgb(87,88,89)" stroke-width="1" opacity="0.12941176470588237" d="M 306.5 474 L 315 474.5 L 306.5 475 L 306.5 474 Z " /><path fill="rgb(87,88,89)" stroke="rgb(87,88,89)" stroke-width="1" opacity="0.12941176470588237" d="M 329.5 474 L 337 474.5 L 329.5 475 L 329.5 474 Z " /><path fill="rgb(87,88,89)" stroke="rgb(87,88,89)" stroke-width="1" opacity="0.12941176470588237" d="M 273.5 476 L 274 478.5 L 273 478.5 L 273.5 476 Z " /><path fill="rgb(87,88,89)" stroke="rgb(87,88,89)" stroke-width="1" opacity="0.12941176470588237" d="M 107.5 477 L 108 480.5 L 107 480.5 L 107.5 477 Z " /><path fill="rgb(87,88,89)" stroke="rgb(87,88,89)" stroke-width="1" opacity="0.12941176470588237" d="M 222.5 477 L 223 487.5 L 222 487.5 L 222.5 477 Z " /><path fill="rgb(87,88,89)" stroke="rgb(87,88,89)" stroke-width="1" opacity="0.12941176470588237" d="M 274.5 481 L 275 487.5 L 274 487.5 L 274.5 481 Z " /><path fill="rgb(87,88,89)" stroke="rgb(87,88,89)" stroke-width="1" opacity="0.12941176470588237" d="M 158.5 488 L 159 490.5 L 158 490.5 L 158.5 488 Z " /><path fill="rgb(87,88,89)" stroke="rgb(87,88,89)" stroke-width="1" opacity="0.12941176470588237" d="M 107.5 489 L 108 491.5 L 107 491.5 L 107.5 489 Z " /><path fill="rgb(87,88,89)" stroke="rgb(87,88,89)" stroke-width="1" opacity="0.12941176470588237" d="M 157.5 492 L 156.5 494 L 157.5 492 Z " /><path fill="rgb(87,88,89)" stroke="rgb(87,88,89)" stroke-width="1" opacity="0.12941176470588237" d="M 108.5 493 L 110.5 496 L 116 498.5 L 114.5 499 L 108 494.5 L 108.5 493 Z " /><path fill="rgb(87,88,89)" stroke="rgb(87,88,89)" stroke-width="1" opacity="0.12941176470588237" d="M 224.5 493 L 230 497.5 L 228.5 498 L 224.5 493 Z " /><path fill="rgb(87,88,89)" stroke="rgb(87,88,89)" stroke-width="1" opacity="0.12941176470588237" d="M 272.5 494 L 270.5 497 L 272.5 494 Z " /><path fill="rgb(87,88,89)" stroke="rgb(87,88,89)" stroke-width="1" opacity="0.12941176470588237" d="M 153.5 496 L 152.5 498 L 149.5 499 L 149.5 498 L 153.5 496 Z " /><path fill="rgb(87,88,89)" stroke="rgb(87,88,89)" stroke-width="1" opacity="0.12941176470588237" d="M 117.5 499 L 120 499.5 L 117.5 500 L 117.5 499 Z " /><path fill="rgb(87,88,89)" stroke="rgb(87,88,89)" stroke-width="1" opacity="0.12941176470588237" d="M 145.5 499 L 148 499.5 L 145.5 500 L 145.5 499 Z " /><path fill="rgb(87,88,89)" stroke="rgb(87,88,89)" stroke-width="1" opacity="0.12941176470588237" d="M 122.5 500 L 127 500.5 L 122.5 501 L 122.5 500 Z " /><path fill="rgb(87,88,89)" stroke="rgb(87,88,89)" stroke-width="1" opacity="0.12941176470588237" d="M 138.5 500 L 143 500.5 L 138.5 501 L 138.5 500 Z " /><path fill="rgb(87,88,89)" stroke="rgb(87,88,89)" stroke-width="1" opacity="0.12941176470588237" d="M 238.5 500 L 244 500.5 L 238.5 501 L 238.5 500 Z " /><path fill="rgb(87,88,89)" stroke="rgb(87,88,89)" stroke-width="1" opacity="0.12941176470588237" d="M 255.5 500 L 260 500.5 L 255.5 501 L 255.5 500 Z " /><path fill="rgb(95,96,98)" stroke="rgb(95,96,98)" stroke-width="1" opacity="0.9529411764705882" d="M 432.5 11 L 451.5 12 L 468.5 17 Q 481.8 23.2 491 33.5 Q 497.8 41.2 501 52.5 L 502 68.5 Q 497.6 90.6 481.5 101 Q 470.5 109.5 454.5 113 L 449.5 114 L 426.5 114 L 413.5 111 L 391.5 131 L 385.5 136 L 383.5 136 Q 380.8 134.8 383 133.5 L 394 100.5 L 387 94.5 Q 374.3 82.7 374 58.5 Q 377.5 38.5 390.5 28 L 405.5 18 L 419.5 13 L 431.5 12 L 432.5 11 Z M 432 15 L 414 19 L 396 29 Q 382 39 378 58 L 378 67 L 380 76 L 387 89 L 398 99 L 398 103 L 389 126 L 390 127 L 413 107 L 418 107 L 427 110 L 450 110 L 459 108 Q 472 104 482 96 Q 494 87 498 69 L 497 53 L 490 39 Q 473 15 432 15 Z " /><path fill="rgb(95,96,98)" stroke="rgb(95,96,98)" stroke-width="1" opacity="0.9529411764705882" d="M 393.5 49 L 397 51.5 L 401.5 60 L 408.5 49 Q 412.7 47.7 411 52.5 L 404 63.5 L 404 76.5 L 402.5 78 L 400 77.5 L 400 65.5 L 392 50.5 L 393.5 49 Z " /><path fill="rgb(95,96,98)" stroke="rgb(95,96,98)" stroke-width="1" opacity="0.9529411764705882" d="M 417.5 49 L 432.5 49 L 433 51.5 L 431.5 53 L 420 53 L 420 62 L 428 62 L 428 64.5 L 426.5 66 L 420 66 L 420 74 L 431.5 74 L 433 78 L 417.5 78 L 416 76.5 L 416 50.5 L 417.5 49 Z " /><path fill="rgb(95,96,98)" stroke="rgb(95,96,98)" stroke-width="1" opacity="0.9529411764705882" d="M 464 49 L 468 50.5 L 468 62 L 479 62 L 479 50.5 L 480.5 49 L 483 50.5 L 483 77.5 L 480.5 78 L 479 76.5 L 479 66 L 468 66 L 468 76.5 L 464 78 L 464 49 Z " /><path fill="rgb(95,96,98)" stroke="rgb(95,96,98)" stroke-width="1" opacity="0.9529411764705882" d="M 447.5 50 Q 450.8 48.9 450 51.5 L 459 74.5 L 459 78 L 455 76.5 L 452 68 L 444 68 L 444 70.5 L 441 78 L 437 76.5 L 445 53.5 L 447.5 50 Z M 449 58 L 446 63 L 446 64 L 450 64 L 449 58 Z " /><path fill="rgb(95,96,98)" stroke="rgb(95,96,98)" stroke-width="1" opacity="0.9529411764705882" d="M 98.5 53 L 103.5 53 L 130.5 75 L 134.5 75 L 148.5 70 L 164.5 67 L 171.5 67 L 172.5 66 L 208.5 66 L 209.5 67 L 217.5 67 L 228.5 69 L 246.5 75 L 250.5 75 L 273.5 56 Q 275.8 52.2 282.5 53 L 286 55.5 L 287 57.5 L 287 108.5 L 292 133.5 L 293 159.5 Q 287.6 192.6 266 209.5 L 271 219 Q 273.7 220.1 273 217.5 L 288 191.5 L 313 127.5 L 319 106.5 Q 321.3 99.8 326.5 96 L 334.5 94 L 352.5 99 Q 363.2 103.3 370 111.5 L 371 119.5 Q 367 132 357.5 139 Q 355.3 138.3 356 140.5 Q 345 156.5 339 177.5 L 332 215.5 L 303 299.5 L 303 304.5 L 307 321.5 L 309 345.5 L 310 346.5 L 310 387.5 L 309 388.5 L 309 397.5 L 308 398.5 L 307 409.5 L 300 433 Q 308.1 436.5 322.5 435 Q 346.4 430.9 359 415.5 Q 367.6 405.6 372 391.5 L 375 375.5 L 375 366.5 L 372 351.5 L 372 337.5 L 377.5 329 L 384.5 326 L 389.5 326 Q 405.7 329.8 414 341.5 Q 421.7 350.8 426 363.5 L 429 376.5 L 429 396.5 L 427 406.5 L 420 423.5 Q 410.6 439.6 396.5 451 Q 382.1 462.6 362.5 469 L 339.5 474 L 315.5 475 L 314.5 474 L 295.5 473 L 276.5 468 L 272 471.5 L 274 479.5 L 274 490.5 L 269.5 497 L 261.5 500 L 244.5 501 L 230.5 498 L 224 492.5 L 223 489.5 L 223 477 L 159.5 477 L 159 477.5 L 159 487.5 L 158 491.5 L 154.5 496 L 144.5 500 L 127.5 501 L 116.5 499 L 109 494.5 Q 106.1 489.9 107 481.5 L 110 471.5 L 95 457.5 Q 80.8 439.2 75 412.5 L 73 395.5 L 72 394.5 L 72 384.5 L 71 383.5 L 71 352.5 L 72 351.5 L 72 339.5 L 73 338.5 L 74 323.5 L 78 306.5 L 78 298.5 L 49 214.5 L 45 188.5 L 38 164.5 Q 32.5 149.5 23.5 138 L 17 132.5 Q 10.8 126.2 10 114.5 L 15.5 107 Q 28.1 96.6 48.5 94 Q 55.9 95.1 59 100.5 L 63 108.5 L 69 129.5 L 92 188.5 Q 99 206 109.5 220 L 115 209.5 Q 100.7 197.3 93 178.5 L 89 164.5 L 88 146.5 L 89 145.5 L 89 136.5 L 90 135.5 L 91 122.5 L 94 110.5 L 94 58.5 L 98.5 53 Z M 100 57 L 98 59 L 98 111 L 96 117 L 94 135 L 93 136 L 93 145 L 92 146 L 92 158 L 95 173 Q 99 186 107 196 L 126 213 L 125 216 L 119 212 L 112 223 L 116 232 L 114 233 Q 100 215 90 194 L 66 133 L 59 109 L 56 103 L 49 98 Q 31 100 20 109 L 14 116 Q 15 124 19 129 L 28 136 Q 37 151 44 170 L 51 200 L 53 215 L 86 311 Q 88 318 83 316 L 82 310 L 78 324 L 77 339 L 76 340 L 76 350 L 75 351 L 75 385 L 76 386 L 76 396 L 79 413 Q 85 440 100 458 L 112 468 Q 115 464 114 456 L 116 454 L 118 456 L 117 467 L 113 474 L 111 482 L 112 492 L 117 495 L 127 497 L 139 497 L 151 494 L 155 488 Q 156 476 153 469 L 153 457 L 156 456 L 157 458 L 157 469 L 158 470 L 159 473 L 223 473 L 225 463 Q 223 457 227 458 Q 228 456 229 459 L 228 470 L 227 471 L 227 490 L 228 492 L 234 495 L 244 497 L 262 496 Q 267 495 270 491 L 270 480 L 268 473 L 265 469 L 263 460 L 264 456 Q 263 453 266 454 L 267 456 L 269 466 Q 268 468 272 467 Q 286 455 294 438 L 303 410 L 305 391 L 306 390 L 306 346 L 305 345 L 305 336 L 301 310 L 298 316 L 295 315 L 301 293 L 328 216 L 333 186 L 337 171 Q 343 153 352 139 L 358 134 L 365 125 L 367 120 L 367 115 L 358 106 L 350 102 L 335 98 L 328 100 L 322 110 L 319 123 L 290 197 L 271 230 L 268 233 L 266 232 L 269 225 Q 267 217 263 212 L 258 216 Q 253 217 255 213 L 266 205 Q 284 189 289 161 L 289 142 L 288 141 L 288 134 L 287 133 L 285 115 L 283 109 L 283 59 L 282 57 L 279 57 L 251 80 L 229 73 L 211 71 L 210 70 L 172 70 L 146 75 L 133 80 L 126 76 L 103 57 L 100 57 Z M 386 330 L 381 332 L 377 336 L 375 343 L 376 353 L 378 359 L 378 366 L 379 367 L 379 376 L 376 392 Q 372 406 364 416 Q 350 434 323 439 L 309 439 L 299 437 Q 292 453 280 465 L 282 466 L 296 469 L 315 470 L 316 471 L 341 470 L 356 467 Q 381 460 398 445 Q 419 428 425 397 L 425 377 L 423 368 Q 420 354 412 346 Q 404 332 386 330 Z " /><path fill="rgb(95,96,98)" stroke="rgb(95,96,98)" stroke-width="1" opacity="0.9529411764705882" d="M 147.5 118 L 153 120.5 L 154 125.5 L 151.5 129 L 146.5 130 L 142 123.5 L 145.5 119 L 147.5 118 Z " /><path fill="rgb(95,96,98)" stroke="rgb(95,96,98)" stroke-width="1" opacity="0.9529411764705882" d="M 234.5 118 Q 239.3 118.3 241 121.5 Q 242.3 127.8 238.5 129 L 234.5 130 L 230 126.5 Q 228.8 120.3 232.5 119 L 234.5 118 Z " /><path fill="rgb(95,96,98)" stroke="rgb(95,96,98)" stroke-width="1" opacity="0.9529411764705882" d="M 185.5 143 Q 195.6 140.9 199 145.5 L 200 151.5 L 194.5 160 L 193 160.5 L 193 170.5 L 196.5 174 L 205.5 174 L 207 175.5 L 205.5 178 Q 194.2 179.8 190.5 174 Q 186.8 179.8 175.5 178 L 174 175.5 L 175.5 174 L 184.5 174 L 188 170.5 L 189 161.5 L 185 158.5 Q 180.5 155 182 145.5 L 185.5 143 Z " /><path fill="rgb(95,96,98)" stroke="rgb(95,96,98)" stroke-width="1" opacity="0.9529411764705882" d="M 130.5 160 L 151.5 166 L 159 169.5 L 157.5 172 L 129 164 L 130.5 160 Z " /><path fill="rgb(95,96,98)" stroke="rgb(95,96,98)" stroke-width="1" opacity="0.9529411764705882" d="M 247.5 161 Q 253.6 159.8 253 162.5 L 250.5 165 L 223.5 172 L 222 169.5 L 223.5 168 L 247.5 161 Z " /><path fill="rgb(95,96,98)" stroke="rgb(95,96,98)" stroke-width="1" opacity="0.9529411764705882" d="M 156.5 179 L 159 180.5 Q 160.3 184.3 156.5 183 L 155.5 184 L 129.5 187 L 128 184.5 L 129.5 183 L 155.5 180 L 156.5 179 Z " /><path fill="rgb(95,96,98)" stroke="rgb(95,96,98)" stroke-width="1" opacity="0.9529411764705882" d="M 224.5 179 L 225.5 180 L 251.5 183 L 253 184.5 L 251.5 187 L 225.5 184 L 222 181.5 Q 221.3 179.3 223.5 180 L 224.5 179 Z " /><path fill="rgb(0,0,0)" stroke="rgb(0,0,0)" stroke-width="1" opacity="0" d="M 0 0 L 512 0 L 512 512 L 0 512 L 0 0 Z M 428 11 L 409 16 L 390 28 Q 378 38 374 55 Q 372 67 375 75 Q 379 87 387 96 L 393 101 L 382 133 Q 381 136 384 137 L 386 137 L 415 111 L 419 113 L 430 115 L 447 115 L 458 113 Q 472 109 483 101 Q 497 91 502 72 Q 504 59 501 51 Q 498 40 491 33 Q 481 22 468 16 L 449 11 L 428 11 Z M 100 52 L 98 53 L 94 57 L 94 108 L 91 119 L 89 140 L 88 141 L 88 162 L 93 181 Q 101 198 114 210 L 110 218 L 101 206 L 89 180 L 66 120 Q 65 108 60 101 L 53 94 L 43 94 L 35 96 Q 23 100 15 107 L 10 113 Q 9 127 17 134 L 23 138 Q 32 150 38 167 L 43 183 L 49 217 L 78 301 L 73 327 L 72 344 L 71 345 L 71 363 L 70 364 L 72 400 L 77 423 Q 83 444 95 459 L 108 471 L 109 471 L 107 478 Q 105 488 108 495 L 115 499 L 123 501 L 143 501 L 151 499 L 156 496 L 159 491 Q 158 485 160 484 L 159 482 Q 158 477 160 477 L 222 477 Q 221 487 224 494 L 229 498 L 239 501 L 260 501 L 271 497 L 274 493 L 275 488 L 275 482 L 272 471 L 276 469 L 307 475 L 337 475 L 362 470 Q 382 463 398 451 Q 424 432 430 394 L 430 381 L 427 365 Q 423 350 414 341 Q 406 330 393 326 Q 381 324 377 329 L 371 339 L 371 350 L 374 363 L 374 380 L 372 390 Q 367 405 358 416 Q 346 430 325 434 L 306 434 L 301 433 L 307 413 L 309 395 L 310 394 L 310 384 L 311 383 L 310 341 L 309 340 L 309 332 L 308 331 L 306 313 L 303 302 L 333 215 L 337 189 L 344 165 L 352 148 L 357 141 Q 356 138 359 139 Q 368 132 372 119 Q 373 113 370 111 L 362 103 L 347 96 L 339 94 Q 330 92 326 96 Q 320 100 318 108 L 313 126 L 289 188 Q 283 204 273 217 Q 274 219 271 218 L 267 211 Q 279 199 287 184 L 292 169 L 293 156 L 294 155 L 292 130 L 288 111 L 288 59 L 287 56 L 282 52 L 277 53 L 250 75 L 227 68 L 216 67 L 215 66 L 205 66 L 204 65 L 167 66 L 143 71 L 133 75 L 107 54 L 100 52 Z " /><path fill="rgb(230,230,230)" stroke="rgb(230,230,230)" stroke-width="1" opacity="1" d="M 103.5 58 L 104.5 60 L 103.5 58 Z " /><path fill="rgb(230,230,230)" stroke="rgb(230,230,230)" stroke-width="1" opacity="1" d="M 123.5 74 L 124.5 76 L 123.5 74 Z " /><path fill="rgb(230,230,230)" stroke="rgb(230,230,230)" stroke-width="1" opacity="1" d="M 21.5 130 L 23.5 133 L 21.5 130 Z " /><path fill="rgb(230,230,230)" stroke="rgb(230,230,230)" stroke-width="1" opacity="1" d="M 186.5 171 L 185.5 173 L 186.5 171 Z " /><path fill="rgb(230,230,230)" stroke="rgb(230,230,230)" stroke-width="1" opacity="1" d="M 190.5 174 L 191.5 176 L 190.5 174 Z " /><path fill="rgb(230,230,230)" stroke="rgb(230,230,230)" stroke-width="1" opacity="1" d="M 272.5 196 L 271.5 198 L 272.5 196 Z " /><path fill="rgb(230,230,230)" stroke="rgb(230,230,230)" stroke-width="1" opacity="1" d="M 111.5 199 L 115.5 204 L 111.5 199 Z " /><path fill="rgb(230,230,230)" stroke="rgb(230,230,230)" stroke-width="1" opacity="1" d="M 255.5 211 L 254.5 213 L 255.5 211 Z " /><path fill="rgb(230,230,230)" stroke="rgb(230,230,230)" stroke-width="1" opacity="1" d="M 299.5 313 Q 302.9 312.1 301 317.5 L 305 340.5 L 306 382.5 L 305 383.5 L 305 393.5 L 304 394.5 L 304 401.5 L 302 411.5 L 295 433.5 Q 287.1 453.6 271.5 466 Q 267.8 467.3 269 463.5 Q 266.3 461.7 268 455.5 L 266.5 454 L 263 454 L 263 463.5 L 269 477.5 L 270 487.5 L 267.5 493 L 258.5 496 L 239.5 496 L 232.5 494 L 228 490.5 Q 225.5 485 227 475.5 L 230 458.5 Q 228.8 456 225 457 L 223 472 L 158.5 472 L 158 471.5 L 158 463.5 L 156 455.5 L 251.5 455 L 264.5 451 L 278 438.5 L 289 420.5 L 297 397.5 L 301 374.5 L 301 363.5 L 302 362.5 L 302 334.5 L 301 333.5 L 301 319.5 L 299.5 313 Z " /><path fill="rgb(230,230,230)" stroke="rgb(230,230,230)" stroke-width="1" opacity="1" d="M 80.5 315 L 81 323.5 L 80 324.5 L 79 354.5 L 80 355.5 L 80 370.5 L 81 371.5 L 81 379.5 L 82 380.5 L 83 391.5 L 89 412.5 Q 96.9 434.1 112.5 448 L 124.5 454 L 154 455.5 Q 150.8 456.8 152 462.5 L 153 463.5 L 155 484.5 L 154 489.5 L 150.5 493 L 141.5 496 L 122.5 496 L 115.5 494 L 112 490.5 L 112 478.5 L 118 465.5 L 118 454 L 114 454 L 114 455.5 L 111.5 467 L 100 456.5 Q 87.1 440.9 81 418.5 L 76 390.5 L 75 360.5 L 76 359.5 L 77 334.5 L 80.5 315 Z " /><path fill="rgb(230,230,230)" stroke="rgb(230,230,230)" stroke-width="1" opacity="1" d="M 389.5 331 L 400.5 335 L 412 346.5 L 422 365.5 L 425 380.5 L 425 388.5 L 422 386.5 L 411.5 375 L 407 372.5 L 409 372.5 L 404 352.5 Q 398 339.2 389.5 331 Z " /><path fill="rgb(230,230,230)" stroke="rgb(230,230,230)" stroke-width="1" opacity="1" d="M 380.5 362 L 383 362.5 L 380.5 363 L 380.5 362 Z " /><path fill="rgb(230,230,230)" stroke="rgb(230,230,230)" stroke-width="1" opacity="1" d="M 398.5 388 L 399.5 390 L 398.5 388 Z " /><path fill="rgb(230,230,230)" stroke="rgb(230,230,230)" stroke-width="1" opacity="1" d="M 403.5 392 L 404.5 394 L 403.5 392 Z " /><path fill="rgb(230,230,230)" stroke="rgb(230,230,230)" stroke-width="1" opacity="1" d="M 407.5 397 Q 414.4 405.6 418 417.5 Q 409.4 434.4 395.5 446 L 388.5 451 L 386 434.5 Q 401.1 420.1 407.5 397 Z " /><path fill="rgb(230,230,230)" stroke="rgb(230,230,230)" stroke-width="1" opacity="1" d="M 373.5 412 L 374.5 414 L 373.5 412 Z " /><path fill="rgb(230,230,230)" stroke="rgb(230,230,230)" stroke-width="1" opacity="1" d="M 376.5 416 L 377.5 418 L 376.5 416 Z " /><path fill="rgb(230,230,230)" stroke="rgb(230,230,230)" stroke-width="1" opacity="1" d="M 358.5 422 L 359.5 424 L 358.5 422 Z " /><path fill="rgb(230,230,230)" stroke="rgb(230,230,230)" stroke-width="1" opacity="1" d="M 334.5 438 L 335 443.5 L 334 443.5 L 334.5 438 Z " /><path fill="rgb(230,230,230)" stroke="rgb(230,230,230)" stroke-width="1" opacity="1" d="M 316.5 441 L 317 448.5 L 316 448.5 L 316.5 441 Z " /><path fill="rgb(230,230,230)" stroke="rgb(230,230,230)" stroke-width="1" opacity="1" d="M 334.5 445 L 335 450.5 L 334 450.5 L 334.5 445 Z " /><path fill="rgb(230,230,230)" stroke="rgb(230,230,230)" stroke-width="1" opacity="1" d="M 368.5 448 L 369 462 L 348.5 468 L 330 470 L 332 463 Q 353.9 459.5 368.5 448 Z " /><path fill="rgb(230,230,230)" stroke="rgb(230,230,230)" stroke-width="1" opacity="1" d="M 282.5 462 L 283.5 465 L 310.5 466 L 312 465.5 L 309 470 L 306.5 469 L 287.5 467 L 281 465 L 282.5 462 Z " /><path fill="rgb(234,234,233)" stroke="rgb(234,234,233)" stroke-width="1" opacity="1" d="M 363.5 111 L 364.5 113 L 363.5 111 Z " /><path fill="rgb(234,234,233)" stroke="rgb(234,234,233)" stroke-width="1" opacity="1" d="M 184.5 158 L 185.5 160 L 184.5 158 Z " /><path fill="rgb(234,234,233)" stroke="rgb(234,234,233)" stroke-width="1" opacity="1" d="M 264.5 204 L 263.5 206 L 264.5 204 Z " /><path fill="rgb(234,234,233)" stroke="rgb(234,234,233)" stroke-width="1" opacity="1" d="M 301.5 334 L 302 336.5 L 301 336.5 L 301.5 334 Z " /><path fill="rgb(234,234,233)" stroke="rgb(234,234,233)" stroke-width="1" opacity="1" d="M 79.5 342 L 80 354.5 L 79 354.5 L 79.5 342 Z " /><path fill="rgb(234,234,233)" stroke="rgb(234,234,233)" stroke-width="1" opacity="1" d="M 301.5 359 L 302 362.5 L 301 362.5 L 301.5 359 Z " /><path fill="rgb(234,234,233)" stroke="rgb(234,234,233)" stroke-width="1" opacity="1" d="M 370.5 408 L 371.5 410 L 370.5 408 Z " /><path fill="rgb(234,234,233)" stroke="rgb(234,234,233)" stroke-width="1" opacity="1" d="M 375.5 414 L 376.5 416 L 375.5 414 Z " /><path fill="rgb(234,234,233)" stroke="rgb(234,234,233)" stroke-width="1" opacity="1" d="M 393.5 425 L 392.5 427 L 393.5 425 Z " /><path fill="rgb(234,234,233)" stroke="rgb(234,234,233)" stroke-width="1" opacity="1" d="M 389.5 430 L 387.5 433 L 389.5 430 Z " /><path fill="rgb(234,234,233)" stroke="rgb(234,234,233)" stroke-width="1" opacity="1" d="M 280.5 434 L 279.5 436 L 280.5 434 Z " /><path fill="rgb(234,234,233)" stroke="rgb(234,234,233)" stroke-width="1" opacity="1" d="M 277.5 438 L 276.5 440 L 277.5 438 Z " /><path fill="rgb(234,234,233)" stroke="rgb(234,234,233)" stroke-width="1" opacity="1" d="M 105.5 440 L 107.5 443 L 105.5 440 Z " /><path fill="rgb(234,234,233)" stroke="rgb(234,234,233)" stroke-width="1" opacity="1" d="M 111.5 446 L 112.5 448 L 111.5 446 Z " /><path fill="rgb(234,234,233)" stroke="rgb(234,234,233)" stroke-width="1" opacity="1" d="M 130.5 454 L 252 454.5 L 130.5 455 L 130.5 454 Z " /><path fill="rgb(234,234,234)" stroke="rgb(234,234,234)" stroke-width="1" opacity="1" d="M 100.5 57 L 129.5 80 L 134.5 80 L 140.5 77 L 161.5 72 L 177.5 71 L 178.5 70 L 202.5 70 L 203.5 71 L 213.5 71 L 214.5 72 L 225.5 73 L 247.5 80 L 251.5 80 L 280.5 57 L 283 59.5 L 283 111.5 L 285 117.5 L 287 136.5 L 288 137.5 L 289 154.5 L 288 155.5 L 287 167.5 L 283 179.5 Q 276.6 194.1 265.5 204 L 254 212.5 Q 252.2 218.2 258.5 216 L 262.5 213 L 269 223.5 L 265 229.5 L 265 233 L 270 233 L 270 231.5 L 287 204.5 L 292 193.5 L 316 132.5 L 323 108.5 L 328.5 100 L 337.5 99 Q 356.8 102.8 367 115.5 Q 364.8 126.8 357.5 133 L 352 137.5 Q 342.1 152.6 336 171.5 L 327 216.5 L 300 293.5 L 294 314.5 Q 295.2 317 299 316 L 299.5 314 L 301 321.5 L 301 336.5 L 302 337.5 L 302 358.5 L 301 359.5 L 301 372.5 L 300 373.5 L 299 386.5 L 291 415.5 Q 283 435 268.5 448 L 255.5 454 L 124.5 454 Q 114.1 450.9 108 443.5 L 94 423.5 L 84 394.5 L 81 377.5 L 81 369.5 L 80 368.5 L 80 325.5 L 81 324.5 L 81.5 314 L 82 316 L 87 316 L 87 311.5 L 54 215.5 L 48 181.5 L 44 167.5 L 30 138.5 L 19 127.5 L 15 119.5 L 15 114.5 Q 26.3 100.3 50.5 99 L 55 102.5 L 59 110.5 L 62 123.5 L 88 190.5 L 95 205.5 L 112.5 233 Q 117.8 234.8 116 229.5 L 113 222.5 L 118 213 L 125.5 216 L 127 212.5 L 108 195.5 Q 98.4 183.6 94 166.5 Q 95.3 161.8 93 160.5 L 93 141.5 L 94 140.5 L 96 119.5 L 99 108.5 L 99 58.5 L 100.5 57 Z M 146 118 L 142 122 Q 141 127 143 129 L 146 130 L 153 129 Q 156 127 154 121 Q 152 117 146 118 Z M 233 118 L 229 122 L 230 128 Q 232 132 239 130 L 242 126 L 241 121 Q 240 117 233 118 Z M 189 142 L 182 144 L 181 147 L 181 153 L 184 159 L 187 160 L 188 162 L 188 170 L 182 174 L 174 174 L 174 178 L 187 178 L 191 175 L 195 178 L 207 178 L 207 174 L 197 173 L 193 169 L 193 162 L 195 161 Q 202 158 200 146 L 198 143 L 189 142 Z M 130 160 L 128 164 L 136 167 L 158 173 L 160 170 L 158 167 L 130 160 Z M 249 160 L 222 168 Q 221 172 224 173 L 250 166 L 253 164 Q 255 158 249 160 Z M 153 179 L 128 183 Q 127 187 130 188 L 159 184 L 160 181 Q 158 177 153 179 Z M 222 179 L 222 183 L 229 185 L 250 187 L 251 188 L 254 186 L 253 183 L 222 179 Z " /><path fill="rgb(234,234,234)" stroke="rgb(234,234,234)" stroke-width="1" opacity="1" d="M 383.5 331 L 388.5 331 L 395 337.5 L 406 358.5 L 408 372 L 396.5 366 L 387.5 363 L 379.5 362 L 378 360.5 L 378 355.5 L 376 348.5 L 376 339.5 L 381.5 332 L 383.5 331 Z " /><path fill="rgb(234,234,234)" stroke="rgb(234,234,234)" stroke-width="1" opacity="1" d="M 378 381 Q 396.4 383.4 406 395.5 L 407 398.5 L 400 415.5 L 387 434 Q 384 435.3 385 431.5 L 380 420.5 L 370 406.5 L 377 390.5 L 378 381 Z " /><path fill="rgb(234,234,234)" stroke="rgb(234,234,234)" stroke-width="1" opacity="1" d="M 357.5 423 L 360 424.5 Q 367.5 433 369 447.5 Q 354.3 458.8 332.5 463 L 333 461.5 L 335 451.5 L 335 436 Q 348.8 432.5 357.5 423 Z " /><path fill="rgb(234,234,234)" stroke="rgb(234,234,234)" stroke-width="1" opacity="1" d="M 299.5 437 Q 305.4 440.7 316 439 L 316 451.5 L 311 466 L 284.5 465 L 282 463.5 Q 292.5 452 299.5 437 Z " /><path fill="rgb(210,219,228)" stroke="rgb(210,219,228)" stroke-width="1" opacity="1" d="M 431.5 15 Q 472.8 14.7 490 38.5 L 497 52.5 L 498 68.5 Q 494.1 86.6 481.5 96 Q 472 104 458.5 108 L 449.5 110 L 426.5 110 L 417.5 107 L 412.5 107 L 389.5 127 L 389 125.5 L 398 102.5 L 398 98.5 L 387 88.5 L 380 75.5 L 378 66.5 L 378 57.5 Q 382 38.5 395.5 29 L 413.5 19 L 431.5 15 Z M 394 49 L 392 51 L 400 66 L 400 78 L 403 78 L 404 77 L 404 64 L 411 53 Q 413 48 409 49 L 402 60 L 397 52 L 394 49 Z M 418 49 L 416 51 L 416 77 L 418 78 L 433 78 L 432 74 L 420 74 L 420 66 L 427 66 L 428 65 L 428 62 L 420 62 L 420 53 L 432 53 L 433 52 L 433 49 L 418 49 Z M 464 49 L 464 78 L 468 77 L 468 66 L 479 66 L 479 77 L 481 78 L 483 78 L 483 51 L 481 49 L 479 51 L 479 62 L 468 62 L 468 51 L 464 49 Z M 448 50 L 445 54 L 437 77 L 441 78 L 444 71 L 444 68 L 452 68 L 455 77 L 459 78 L 459 75 L 450 52 Q 451 49 448 50 Z " /><path fill="rgb(210,219,228)" stroke="rgb(210,219,228)" stroke-width="1" opacity="1" d="M 99.5 57 L 99 58.5 L 98.5 108 L 98 58.5 L 99.5 57 Z " /><path fill="rgb(210,219,228)" stroke="rgb(210,219,228)" stroke-width="1" opacity="1" d="M 278.5 57 L 276.5 60 L 278.5 57 Z " /><path fill="rgb(210,219,228)" stroke="rgb(210,219,228)" stroke-width="1" opacity="1" d="M 281.5 57 L 282.5 59 L 281.5 57 Z " /><path fill="rgb(210,219,228)" stroke="rgb(210,219,228)" stroke-width="1" opacity="1" d="M 448.5 58 L 450 64 L 446 64 L 446 62.5 L 448.5 58 Z " /><path fill="rgb(210,219,228)" stroke="rgb(210,219,228)" stroke-width="1" opacity="1" d="M 106.5 60 L 107.5 62 L 106.5 60 Z " /><path fill="rgb(210,219,228)" stroke="rgb(210,219,228)" stroke-width="1" opacity="1" d="M 273.5 61 L 271.5 64 L 273.5 61 Z " /><path fill="rgb(210,219,228)" stroke="rgb(210,219,228)" stroke-width="1" opacity="1" d="M 110.5 63 L 113.5 67 L 110.5 63 Z " /><path fill="rgb(210,219,228)" stroke="rgb(210,219,228)" stroke-width="1" opacity="1" d="M 268.5 65 L 266.5 68 L 268.5 65 Z " /><path fill="rgb(210,219,228)" stroke="rgb(210,219,228)" stroke-width="1" opacity="1" d="M 116.5 68 L 118.5 71 L 116.5 68 Z " /><path fill="rgb(210,219,228)" stroke="rgb(210,219,228)" stroke-width="1" opacity="1" d="M 263.5 69 L 261.5 72 L 263.5 69 Z " /><path fill="rgb(210,219,228)" stroke="rgb(210,219,228)" stroke-width="1" opacity="1" d="M 171.5 70 L 176 70.5 L 171.5 71 L 171.5 70 Z " /><path fill="rgb(210,219,228)" stroke="rgb(210,219,228)" stroke-width="1" opacity="1" d="M 205.5 70 L 210 70.5 L 205.5 71 L 205.5 70 Z " /><path fill="rgb(210,219,228)" stroke="rgb(210,219,228)" stroke-width="1" opacity="1" d="M 164.5 71 L 167 71.5 L 164.5 72 L 164.5 71 Z " /><path fill="rgb(210,219,228)" stroke="rgb(210,219,228)" stroke-width="1" opacity="1" d="M 215.5 71 L 218 71.5 L 215.5 72 L 215.5 71 Z " /><path fill="rgb(210,219,228)" stroke="rgb(210,219,228)" stroke-width="1" opacity="1" d="M 121.5 72 L 122.5 74 L 121.5 72 Z " /><path fill="rgb(210,219,228)" stroke="rgb(210,219,228)" stroke-width="1" opacity="1" d="M 221.5 72 L 224 72.5 L 221.5 73 L 221.5 72 Z " /><path fill="rgb(210,219,228)" stroke="rgb(210,219,228)" stroke-width="1" opacity="1" d="M 226.5 73 L 229 73.5 L 226.5 74 L 226.5 73 Z " /><path fill="rgb(210,219,228)" stroke="rgb(210,219,228)" stroke-width="1" opacity="1" d="M 258.5 73 L 256.5 76 L 258.5 73 Z " /><path fill="rgb(210,219,228)" stroke="rgb(210,219,228)" stroke-width="1" opacity="1" d="M 126.5 76 L 128.5 79 L 126.5 76 Z " /><path fill="rgb(210,219,228)" stroke="rgb(210,219,228)" stroke-width="1" opacity="1" d="M 253.5 77 L 251.5 80 L 253.5 77 Z " /><path fill="rgb(210,219,228)" stroke="rgb(210,219,228)" stroke-width="1" opacity="1" d="M 46.5 98 L 49 98.5 L 46.5 99 L 46.5 98 Z " /><path fill="rgb(210,219,228)" stroke="rgb(210,219,228)" stroke-width="1" opacity="1" d="M 332.5 98 L 335 98.5 L 332.5 99 L 332.5 98 Z " /><path fill="rgb(210,219,228)" stroke="rgb(210,219,228)" stroke-width="1" opacity="1" d="M 40.5 99 L 43 99.5 L 40.5 100 L 40.5 99 Z " /><path fill="rgb(210,219,228)" stroke="rgb(210,219,228)" stroke-width="1" opacity="1" d="M 53.5 100 L 55.5 103 L 53.5 100 Z " /><path fill="rgb(210,219,228)" stroke="rgb(210,219,228)" stroke-width="1" opacity="1" d="M 327.5 100 L 326.5 102 L 327.5 100 Z " /><path fill="rgb(210,219,228)" stroke="rgb(210,219,228)" stroke-width="1" opacity="1" d="M 25.5 105 L 24.5 107 L 25.5 105 Z " /><path fill="rgb(210,219,228)" stroke="rgb(210,219,228)" stroke-width="1" opacity="1" d="M 357.5 106 L 358.5 108 L 357.5 106 Z " /><path fill="rgb(210,219,228)" stroke="rgb(210,219,228)" stroke-width="1" opacity="1" d="M 360.5 108 L 361.5 110 L 360.5 108 Z " /><path fill="rgb(210,219,228)" stroke="rgb(210,219,228)" stroke-width="1" opacity="1" d="M 19.5 109 L 15.5 114 L 19.5 109 Z " /><path fill="rgb(210,219,228)" stroke="rgb(210,219,228)" stroke-width="1" opacity="1" d="M 145.5 118 L 147 118.5 L 143 121.5 L 142.5 123 L 142 121.5 L 145.5 118 Z " /><path fill="rgb(210,219,228)" stroke="rgb(210,219,228)" stroke-width="1" opacity="1" d="M 231.5 119 L 230.5 121 L 231.5 119 Z " /><path fill="rgb(210,219,228)" stroke="rgb(210,219,228)" stroke-width="1" opacity="1" d="M 239.5 119 L 240.5 121 L 239.5 119 Z " /><path fill="rgb(210,219,228)" stroke="rgb(210,219,228)" stroke-width="1" opacity="1" d="M 229.5 122 L 230 125.5 L 229 125.5 L 229.5 122 Z " /><path fill="rgb(210,219,228)" stroke="rgb(210,219,228)" stroke-width="1" opacity="1" d="M 364.5 124 L 363.5 126 L 364.5 124 Z " /><path fill="rgb(210,219,228)" stroke="rgb(210,219,228)" stroke-width="1" opacity="1" d="M 142.5 125 L 146 129.5 L 142 126.5 L 142.5 125 Z " /><path fill="rgb(210,219,228)" stroke="rgb(210,219,228)" stroke-width="1" opacity="1" d="M 286.5 126 L 287 128.5 L 286 128.5 L 286.5 126 Z " /><path fill="rgb(210,219,228)" stroke="rgb(210,219,228)" stroke-width="1" opacity="1" d="M 230.5 127 L 234 129.5 L 232.5 130 L 230.5 127 Z " /><path fill="rgb(210,219,228)" stroke="rgb(210,219,228)" stroke-width="1" opacity="1" d="M 240.5 127 L 239.5 129 L 240.5 127 Z " /><path fill="rgb(210,219,228)" stroke="rgb(210,219,228)" stroke-width="1" opacity="1" d="M 19.5 128 L 20.5 130 L 19.5 128 Z " /><path fill="rgb(210,219,228)" stroke="rgb(210,219,228)" stroke-width="1" opacity="1" d="M 94.5 128 L 95 130.5 L 94 130.5 L 94.5 128 Z " /><path fill="rgb(210,219,228)" stroke="rgb(210,219,228)" stroke-width="1" opacity="1" d="M 359.5 131 L 357.5 134 L 359.5 131 Z " /><path fill="rgb(210,219,228)" stroke="rgb(210,219,228)" stroke-width="1" opacity="1" d="M 24.5 133 L 26.5 136 L 24.5 133 Z " /><path fill="rgb(210,219,228)" stroke="rgb(210,219,228)" stroke-width="1" opacity="1" d="M 287.5 133 L 288 135.5 L 287 135.5 L 287.5 133 Z " /><path fill="rgb(210,219,228)" stroke="rgb(210,219,228)" stroke-width="1" opacity="1" d="M 93.5 135 L 94 138.5 L 93 138.5 L 93.5 135 Z " /><path fill="rgb(210,219,228)" stroke="rgb(210,219,228)" stroke-width="1" opacity="1" d="M 354.5 135 L 353.5 137 L 354.5 135 Z " /><path fill="rgb(210,219,228)" stroke="rgb(210,219,228)" stroke-width="1" opacity="1" d="M 29.5 139 L 30.5 141 L 29.5 139 Z " /><path fill="rgb(210,219,228)" stroke="rgb(210,219,228)" stroke-width="1" opacity="1" d="M 288.5 141 L 289 145.5 L 288 145.5 L 288.5 141 Z " /><path fill="rgb(210,219,228)" stroke="rgb(210,219,228)" stroke-width="1" opacity="1" d="M 189.5 142 L 193 142.5 L 189.5 143 L 189.5 142 Z " /><path fill="rgb(210,219,228)" stroke="rgb(210,219,228)" stroke-width="1" opacity="1" d="M 198.5 144 L 200 146.5 L 199 146.5 L 198.5 144 Z " /><path fill="rgb(210,219,228)" stroke="rgb(210,219,228)" stroke-width="1" opacity="1" d="M 92.5 145 L 93 157.5 L 92 157.5 L 92.5 145 Z " /><path fill="rgb(210,219,228)" stroke="rgb(210,219,228)" stroke-width="1" opacity="1" d="M 181.5 146 L 182 151.5 L 181 151.5 L 181.5 146 Z " /><path fill="rgb(210,219,228)" stroke="rgb(210,219,228)" stroke-width="1" opacity="1" d="M 198.5 155 L 197.5 157 L 198.5 155 Z " /><path fill="rgb(210,219,228)" stroke="rgb(210,219,228)" stroke-width="1" opacity="1" d="M 183.5 156 L 184.5 158 L 183.5 156 Z " /><path fill="rgb(210,219,228)" stroke="rgb(210,219,228)" stroke-width="1" opacity="1" d="M 288.5 156 L 289 160.5 L 288 160.5 L 288.5 156 Z " /><path fill="rgb(210,219,228)" stroke="rgb(210,219,228)" stroke-width="1" opacity="1" d="M 196.5 158 L 195.5 160 L 196.5 158 Z " /><path fill="rgb(210,219,228)" stroke="rgb(210,219,228)" stroke-width="1" opacity="1" d="M 129.5 160 L 129 161.5 Q 127.9 164.8 130.5 164 L 130.5 165 L 128 163.5 L 129.5 160 Z " /><path fill="rgb(210,219,228)" stroke="rgb(210,219,228)" stroke-width="1" opacity="1" d="M 187.5 160 Q 190.3 161.3 189 166.5 L 188 166.5 L 187.5 160 Z " /><path fill="rgb(210,219,228)" stroke="rgb(210,219,228)" stroke-width="1" opacity="1" d="M 249.5 160 L 252 160.5 L 249.5 161 L 249.5 160 Z " /><path fill="rgb(210,219,228)" stroke="rgb(210,219,228)" stroke-width="1" opacity="1" d="M 93.5 162 L 94 164.5 L 93 164.5 L 93.5 162 Z " /><path fill="rgb(210,219,228)" stroke="rgb(210,219,228)" stroke-width="1" opacity="1" d="M 252.5 163 L 251.5 165 L 252.5 163 Z " /><path fill="rgb(210,219,228)" stroke="rgb(210,219,228)" stroke-width="1" opacity="1" d="M 158.5 168 L 160 170.5 L 158 171.5 L 159 169.5 L 158.5 168 Z " /><path fill="rgb(210,219,228)" stroke="rgb(210,219,228)" stroke-width="1" opacity="1" d="M 193.5 170 L 198 173.5 L 196.5 174 L 193.5 170 Z " /><path fill="rgb(210,219,228)" stroke="rgb(210,219,228)" stroke-width="1" opacity="1" d="M 187.5 176 L 186.5 178 L 185 177.5 L 187.5 176 Z " /><path fill="rgb(210,219,228)" stroke="rgb(210,219,228)" stroke-width="1" opacity="1" d="M 153.5 179 L 156 179.5 L 153.5 180 L 153.5 179 Z " /><path fill="rgb(210,219,228)" stroke="rgb(210,219,228)" stroke-width="1" opacity="1" d="M 225.5 179 L 228 179.5 L 225.5 180 L 225.5 179 Z " /><path fill="rgb(210,219,228)" stroke="rgb(210,219,228)" stroke-width="1" opacity="1" d="M 146.5 180 L 149 180.5 L 146.5 181 L 146.5 180 Z " /><path fill="rgb(210,219,228)" stroke="rgb(210,219,228)" stroke-width="1" opacity="1" d="M 232.5 180 L 235 180.5 L 232.5 181 L 232.5 180 Z " /><path fill="rgb(210,219,228)" stroke="rgb(210,219,228)" stroke-width="1" opacity="1" d="M 139.5 181 L 142 181.5 L 139.5 182 L 139.5 181 Z " /><path fill="rgb(210,219,228)" stroke="rgb(210,219,228)" stroke-width="1" opacity="1" d="M 239.5 181 L 242 181.5 L 239.5 182 L 239.5 181 Z " /><path fill="rgb(210,219,228)" stroke="rgb(210,219,228)" stroke-width="1" opacity="1" d="M 132.5 182 L 135 182.5 L 132.5 183 L 132.5 182 Z " /><path fill="rgb(210,219,228)" stroke="rgb(210,219,228)" stroke-width="1" opacity="1" d="M 222.5 182 L 225 183.5 L 223.5 184 L 222.5 182 Z " /><path fill="rgb(210,219,228)" stroke="rgb(210,219,228)" stroke-width="1" opacity="1" d="M 246.5 182 L 250 182.5 L 246.5 183 L 246.5 182 Z " /><path fill="rgb(210,219,228)" stroke="rgb(210,219,228)" stroke-width="1" opacity="1" d="M 149.5 184 L 152 184.5 L 149.5 185 L 149.5 184 Z " /><path fill="rgb(210,219,228)" stroke="rgb(210,219,228)" stroke-width="1" opacity="1" d="M 229.5 184 L 232 184.5 L 229.5 185 L 229.5 184 Z " /><path fill="rgb(210,219,228)" stroke="rgb(210,219,228)" stroke-width="1" opacity="1" d="M 142.5 185 L 145 185.5 L 142.5 186 L 142.5 185 Z " /><path fill="rgb(210,219,228)" stroke="rgb(210,219,228)" stroke-width="1" opacity="1" d="M 236.5 185 L 239 185.5 L 236.5 186 L 236.5 185 Z " /><path fill="rgb(210,219,228)" stroke="rgb(210,219,228)" stroke-width="1" opacity="1" d="M 48.5 186 L 49 188.5 L 48 188.5 L 48.5 186 Z " /><path fill="rgb(210,219,228)" stroke="rgb(210,219,228)" stroke-width="1" opacity="1" d="M 101.5 186 L 102.5 188 L 101.5 186 Z " /><path fill="rgb(210,219,228)" stroke="rgb(210,219,228)" stroke-width="1" opacity="1" d="M 135.5 186 L 138 186.5 L 135.5 187 L 135.5 186 Z " /><path fill="rgb(210,219,228)" stroke="rgb(210,219,228)" stroke-width="1" opacity="1" d="M 243.5 186 L 247 186.5 L 243.5 187 L 243.5 186 Z " /><path fill="rgb(210,219,228)" stroke="rgb(210,219,228)" stroke-width="1" opacity="1" d="M 49.5 191 L 50 193.5 L 49 193.5 L 49.5 191 Z " /><path fill="rgb(210,219,228)" stroke="rgb(210,219,228)" stroke-width="1" opacity="1" d="M 105.5 192 L 106.5 194 L 105.5 192 Z " /><path fill="rgb(210,219,228)" stroke="rgb(210,219,228)" stroke-width="1" opacity="1" d="M 331.5 193 L 332 195.5 L 331 195.5 L 331.5 193 Z " /><path fill="rgb(210,219,228)" stroke="rgb(210,219,228)" stroke-width="1" opacity="1" d="M 274.5 194 L 273.5 196 L 274.5 194 Z " /><path fill="rgb(210,219,228)" stroke="rgb(210,219,228)" stroke-width="1" opacity="1" d="M 107.5 195 L 110.5 199 L 107.5 195 Z " /><path fill="rgb(210,219,228)" stroke="rgb(210,219,228)" stroke-width="1" opacity="1" d="M 270.5 199 L 265.5 205 L 270.5 199 Z " /><path fill="rgb(210,219,228)" stroke="rgb(210,219,228)" stroke-width="1" opacity="1" d="M 51.5 202 L 52 204.5 L 51 204.5 L 51.5 202 Z " /><path fill="rgb(210,219,228)" stroke="rgb(210,219,228)" stroke-width="1" opacity="1" d="M 116.5 204 L 119.5 208 L 116.5 204 Z " /><path fill="rgb(210,219,228)" stroke="rgb(210,219,228)" stroke-width="1" opacity="1" d="M 329.5 204 L 330 206.5 L 329 206.5 L 329.5 204 Z " /><path fill="rgb(210,219,228)" stroke="rgb(210,219,228)" stroke-width="1" opacity="1" d="M 261.5 207 L 260.5 209 L 261.5 207 Z " /><path fill="rgb(210,219,228)" stroke="rgb(210,219,228)" stroke-width="1" opacity="1" d="M 284.5 207 L 283.5 209 L 284.5 207 Z " /><path fill="rgb(210,219,228)" stroke="rgb(210,219,228)" stroke-width="1" opacity="1" d="M 97.5 208 L 98.5 210 L 97.5 208 Z " /><path fill="rgb(210,219,228)" stroke="rgb(210,219,228)" stroke-width="1" opacity="1" d="M 122.5 209 L 123.5 211 L 122.5 209 Z " /><path fill="rgb(210,219,228)" stroke="rgb(210,219,228)" stroke-width="1" opacity="1" d="M 125.5 211 L 127 214.5 L 125 215.5 L 126 212.5 L 125.5 211 Z " /><path fill="rgb(210,219,228)" stroke="rgb(210,219,228)" stroke-width="1" opacity="1" d="M 262.5 212 L 263.5 214 L 262.5 212 Z " /><path fill="rgb(210,219,228)" stroke="rgb(210,219,228)" stroke-width="1" opacity="1" d="M 281.5 212 L 280.5 214 L 281.5 212 Z " /><path fill="rgb(210,219,228)" stroke="rgb(210,219,228)" stroke-width="1" opacity="1" d="M 100.5 213 L 101.5 215 L 100.5 213 Z " /><path fill="rgb(210,219,228)" stroke="rgb(210,219,228)" stroke-width="1" opacity="1" d="M 120.5 213 L 121.5 215 L 120.5 213 Z " /><path fill="rgb(210,219,228)" stroke="rgb(210,219,228)" stroke-width="1" opacity="1" d="M 264.5 215 L 265.5 217 L 264.5 215 Z " /><path fill="rgb(210,219,228)" stroke="rgb(210,219,228)" stroke-width="1" opacity="1" d="M 103.5 218 L 104.5 220 L 103.5 218 Z " /><path fill="rgb(210,219,228)" stroke="rgb(210,219,228)" stroke-width="1" opacity="1" d="M 113.5 221 L 112.5 223 L 113.5 221 Z " /><path fill="rgb(210,219,228)" stroke="rgb(210,219,228)" stroke-width="1" opacity="1" d="M 273.5 225 L 272.5 227 L 273.5 225 Z " /><path fill="rgb(210,219,228)" stroke="rgb(210,219,228)" stroke-width="1" opacity="1" d="M 113.5 226 L 114.5 228 L 113.5 226 Z " /><path fill="rgb(210,219,228)" stroke="rgb(210,219,228)" stroke-width="1" opacity="1" d="M 265.5 230 L 267 232.5 L 265 231.5 L 265.5 230 Z " /><path fill="rgb(210,219,228)" stroke="rgb(210,219,228)" stroke-width="1" opacity="1" d="M 270.5 230 L 268.5 233 L 270.5 230 Z " /><path fill="rgb(210,219,228)" stroke="rgb(210,219,228)" stroke-width="1" opacity="1" d="M 111.5 231 L 112.5 233 L 111.5 231 Z " /><path fill="rgb(210,219,228)" stroke="rgb(210,219,228)" stroke-width="1" opacity="1" d="M 81.5 310 L 82 311.5 L 80.5 315 L 80 312.5 L 81.5 310 Z " /><path fill="rgb(210,219,228)" stroke="rgb(210,219,228)" stroke-width="1" opacity="1" d="M 300.5 310 L 301 313 L 299 312.5 L 300.5 310 Z " /><path fill="rgb(210,219,228)" stroke="rgb(210,219,228)" stroke-width="1" opacity="1" d="M 86.5 312 L 87 314.5 L 86 314.5 L 86.5 312 Z " /><path fill="rgb(210,219,228)" stroke="rgb(210,219,228)" stroke-width="1" opacity="1" d="M 294.5 313 L 296 315.5 L 294 314.5 L 294.5 313 Z " /><path fill="rgb(210,219,228)" stroke="rgb(210,219,228)" stroke-width="1" opacity="1" d="M 301.5 315 L 302 317.5 L 301 317.5 L 301.5 315 Z " /><path fill="rgb(210,219,228)" stroke="rgb(210,219,228)" stroke-width="1" opacity="1" d="M 79.5 317 L 80 319.5 L 79 319.5 L 79.5 317 Z " /><path fill="rgb(210,219,228)" stroke="rgb(210,219,228)" stroke-width="1" opacity="1" d="M 302.5 321 L 303 323.5 L 302 323.5 L 302.5 321 Z " /><path fill="rgb(210,219,228)" stroke="rgb(210,219,228)" stroke-width="1" opacity="1" d="M 78.5 323 L 79 326.5 L 78 326.5 L 78.5 323 Z " /><path fill="rgb(210,219,228)" stroke="rgb(210,219,228)" stroke-width="1" opacity="1" d="M 303.5 328 L 304 331.5 L 303 331.5 L 303.5 328 Z " /><path fill="rgb(210,219,228)" stroke="rgb(210,219,228)" stroke-width="1" opacity="1" d="M 77.5 330 L 78 333.5 L 77 333.5 L 77.5 330 Z " /><path fill="rgb(210,219,228)" stroke="rgb(210,219,228)" stroke-width="1" opacity="1" d="M 385.5 330 L 390 330.5 L 385.5 331 L 385.5 330 Z " /><path fill="rgb(210,219,228)" stroke="rgb(210,219,228)" stroke-width="1" opacity="1" d="M 378.5 334 L 377.5 336 L 378.5 334 Z " /><path fill="rgb(210,219,228)" stroke="rgb(210,219,228)" stroke-width="1" opacity="1" d="M 304.5 335 L 305 339.5 L 304 339.5 L 304.5 335 Z " /><path fill="rgb(210,219,228)" stroke="rgb(210,219,228)" stroke-width="1" opacity="1" d="M 401.5 335 L 411.5 346 L 401.5 335 Z " /><path fill="rgb(210,219,228)" stroke="rgb(210,219,228)" stroke-width="1" opacity="1" d="M 76.5 339 L 77 343.5 L 76 343.5 L 76.5 339 Z " /><path fill="rgb(210,219,228)" stroke="rgb(210,219,228)" stroke-width="1" opacity="1" d="M 375.5 342 L 376 345.5 L 375 345.5 L 375.5 342 Z " /><path fill="rgb(210,219,228)" stroke="rgb(210,219,228)" stroke-width="1" opacity="1" d="M 305.5 345 L 306 352.5 L 305 352.5 L 305.5 345 Z " /><path fill="rgb(210,219,228)" stroke="rgb(210,219,228)" stroke-width="1" opacity="1" d="M 412.5 347 L 414.5 350 L 412.5 347 Z " /><path fill="rgb(210,219,228)" stroke="rgb(210,219,228)" stroke-width="1" opacity="1" d="M 75.5 350 L 76 359.5 L 75 359.5 L 75.5 350 Z " /><path fill="rgb(210,219,228)" stroke="rgb(210,219,228)" stroke-width="1" opacity="1" d="M 376.5 350 L 377 352.5 L 376 352.5 L 376.5 350 Z " /><path fill="rgb(210,219,228)" stroke="rgb(210,219,228)" stroke-width="1" opacity="1" d="M 416.5 353 L 419 357.5 L 418 357.5 L 416.5 353 Z " /><path fill="rgb(210,219,228)" stroke="rgb(210,219,228)" stroke-width="1" opacity="1" d="M 378 362 Q 407 366.3 422 385.5 Q 426.5 388 425 396.5 L 422 409.5 L 419 417 Q 416 418.3 417 414.5 Q 412.3 401.2 403.5 392 Q 394.1 381.9 378 380 Q 379.8 375.1 379 366.5 L 378 362 Z " /><path fill="rgb(210,219,228)" stroke="rgb(210,219,228)" stroke-width="1" opacity="1" d="M 75.5 375 L 76 384.5 L 75 384.5 L 75.5 375 Z " /><path fill="rgb(210,219,228)" stroke="rgb(210,219,228)" stroke-width="1" opacity="1" d="M 424.5 376 L 425 379.5 L 424 379.5 L 424.5 376 Z " /><path fill="rgb(210,219,228)" stroke="rgb(210,219,228)" stroke-width="1" opacity="1" d="M 305.5 383 L 306 389.5 L 305 389.5 L 305.5 383 Z " /><path fill="rgb(210,219,228)" stroke="rgb(210,219,228)" stroke-width="1" opacity="1" d="M 76.5 391 L 77 395.5 L 76 395.5 L 76.5 391 Z " /><path fill="rgb(210,219,228)" stroke="rgb(210,219,228)" stroke-width="1" opacity="1" d="M 304.5 394 L 305 397.5 L 304 397.5 L 304.5 394 Z " /><path fill="rgb(210,219,228)" stroke="rgb(210,219,228)" stroke-width="1" opacity="1" d="M 77.5 399 L 78 402.5 L 77 402.5 L 77.5 399 Z " /><path fill="rgb(210,219,228)" stroke="rgb(210,219,228)" stroke-width="1" opacity="1" d="M 303.5 402 L 304 404.5 L 303 404.5 L 303.5 402 Z " /><path fill="rgb(210,219,228)" stroke="rgb(210,219,228)" stroke-width="1" opacity="1" d="M 78.5 405 L 79 407.5 L 78 407.5 L 78.5 405 Z " /><path fill="rgb(210,219,228)" stroke="rgb(210,219,228)" stroke-width="1" opacity="1" d="M 302.5 407 L 303 409.5 L 302 409.5 L 302.5 407 Z " /><path fill="rgb(210,219,228)" stroke="rgb(210,219,228)" stroke-width="1" opacity="1" d="M 369.5 407 L 382 425.5 L 386 435.5 L 388.5 451 L 391 449.5 Q 381.9 457.4 369.5 462 L 368 438.5 Q 364.8 428.8 358.5 422 L 354 425.5 Q 363.6 418.1 369.5 407 Z " /><path fill="rgb(210,219,228)" stroke="rgb(210,219,228)" stroke-width="1" opacity="1" d="M 79.5 410 L 80 412.5 L 79 412.5 L 79.5 410 Z " /><path fill="rgb(210,219,228)" stroke="rgb(210,219,228)" stroke-width="1" opacity="1" d="M 416.5 420 L 416 421.5 L 414.5 424 L 415 422.5 L 416.5 420 Z " /><path fill="rgb(210,219,228)" stroke="rgb(210,219,228)" stroke-width="1" opacity="1" d="M 413.5 425 L 412.5 427 L 413.5 425 Z " /><path fill="rgb(210,219,228)" stroke="rgb(210,219,228)" stroke-width="1" opacity="1" d="M 352.5 426 L 350.5 429 L 352.5 426 Z " /><path fill="rgb(210,219,228)" stroke="rgb(210,219,228)" stroke-width="1" opacity="1" d="M 411.5 428 L 410.5 430 L 411.5 428 Z " /><path fill="rgb(210,219,228)" stroke="rgb(210,219,228)" stroke-width="1" opacity="1" d="M 346.5 430 L 345.5 432 L 346.5 430 Z " /><path fill="rgb(210,219,228)" stroke="rgb(210,219,228)" stroke-width="1" opacity="1" d="M 409.5 431 L 406.5 435 L 409.5 431 Z " /><path fill="rgb(210,219,228)" stroke="rgb(210,219,228)" stroke-width="1" opacity="1" d="M 86.5 433 L 88 436.5 L 87 436.5 L 86.5 433 Z " /><path fill="rgb(210,219,228)" stroke="rgb(210,219,228)" stroke-width="1" opacity="1" d="M 293.5 436 L 294 437.5 L 290.5 443 L 291 441.5 L 293.5 436 Z " /><path fill="rgb(210,219,228)" stroke="rgb(210,219,228)" stroke-width="1" opacity="1" d="M 333.5 436 L 335 444.5 L 334 445.5 L 334 455.5 L 330 471 L 315.5 471 L 309 470 L 313 463.5 L 316 454.5 L 317 441.5 L 316 439 L 328.5 438 L 333.5 436 Z " /><path fill="rgb(210,219,228)" stroke="rgb(210,219,228)" stroke-width="1" opacity="1" d="M 405.5 436 L 397.5 445 L 405.5 436 Z " /><path fill="rgb(210,219,228)" stroke="rgb(210,219,228)" stroke-width="1" opacity="1" d="M 305.5 438 L 308 438.5 L 305.5 439 L 305.5 438 Z " /><path fill="rgb(210,219,228)" stroke="rgb(210,219,228)" stroke-width="1" opacity="1" d="M 90.5 442 L 93 445.5 L 91 444.5 L 90.5 442 Z " /><path fill="rgb(210,219,228)" stroke="rgb(210,219,228)" stroke-width="1" opacity="1" d="M 288.5 446 L 287.5 448 L 288.5 446 Z " /><path fill="rgb(210,219,228)" stroke="rgb(210,219,228)" stroke-width="1" opacity="1" d="M 394.5 446 L 392.5 449 L 394.5 446 Z " /><path fill="rgb(210,219,228)" stroke="rgb(210,219,228)" stroke-width="1" opacity="1" d="M 93.5 447 L 97 451.5 L 94 449.5 L 93.5 447 Z " /><path fill="rgb(210,219,228)" stroke="rgb(210,219,228)" stroke-width="1" opacity="1" d="M 286.5 449 L 285.5 451 L 286.5 449 Z " /><path fill="rgb(210,219,228)" stroke="rgb(210,219,228)" stroke-width="1" opacity="1" d="M 284.5 452 L 283.5 454 L 284.5 452 Z " /><path fill="rgb(210,219,228)" stroke="rgb(210,219,228)" stroke-width="1" opacity="1" d="M 97.5 453 L 99.5 456 L 97.5 453 Z " /><path fill="rgb(210,219,228)" stroke="rgb(210,219,228)" stroke-width="1" opacity="1" d="M 266.5 454 Q 269 455 268 459.5 L 267 459.5 L 266.5 454 Z " /><path fill="rgb(210,219,228)" stroke="rgb(210,219,228)" stroke-width="1" opacity="1" d="M 288.5 454 L 287.5 456 L 288.5 454 Z " /><path fill="rgb(210,219,228)" stroke="rgb(210,219,228)" stroke-width="1" opacity="1" d="M 154.5 455 L 157 456.5 L 155.5 456 L 154.5 455 Z " /><path fill="rgb(210,219,228)" stroke="rgb(210,219,228)" stroke-width="1" opacity="1" d="M 113.5 456 L 114 461.5 L 113 461.5 L 113.5 456 Z " /><path fill="rgb(210,219,228)" stroke="rgb(210,219,228)" stroke-width="1" opacity="1" d="M 281.5 456 L 271.5 467 L 269 466.5 L 271.5 466 L 281.5 456 Z " /><path fill="rgb(210,219,228)" stroke="rgb(210,219,228)" stroke-width="1" opacity="1" d="M 100.5 457 L 107.5 465 L 100.5 457 Z " /><path fill="rgb(210,219,228)" stroke="rgb(210,219,228)" stroke-width="1" opacity="1" d="M 152.5 457 L 153 462.5 L 152 462.5 L 152.5 457 Z " /><path fill="rgb(210,219,228)" stroke="rgb(210,219,228)" stroke-width="1" opacity="1" d="M 228.5 457 L 230 460.5 L 229 460.5 L 228.5 457 Z " /><path fill="rgb(210,219,228)" stroke="rgb(210,219,228)" stroke-width="1" opacity="1" d="M 286.5 457 L 283.5 461 L 286.5 457 Z " /><path fill="rgb(210,219,228)" stroke="rgb(210,219,228)" stroke-width="1" opacity="1" d="M 224.5 460 L 225 462.5 L 224 462.5 L 224.5 460 Z " /><path fill="rgb(210,219,228)" stroke="rgb(210,219,228)" stroke-width="1" opacity="1" d="M 263.5 460 L 264 463.5 L 263 463.5 L 263.5 460 Z " /><path fill="rgb(210,219,228)" stroke="rgb(210,219,228)" stroke-width="1" opacity="1" d="M 117.5 463 L 118 465.5 L 117 465.5 L 117.5 463 Z " /><path fill="rgb(210,219,228)" stroke="rgb(210,219,228)" stroke-width="1" opacity="1" d="M 157.5 463 L 158 468.5 L 157 468.5 L 157.5 463 Z " /><path fill="rgb(210,219,228)" stroke="rgb(210,219,228)" stroke-width="1" opacity="1" d="M 228.5 464 L 229 466.5 L 228 466.5 L 228.5 464 Z " /><path fill="rgb(210,219,228)" stroke="rgb(210,219,228)" stroke-width="1" opacity="1" d="M 280.5 464 L 283 465.5 L 281.5 466 L 280.5 464 Z " /><path fill="rgb(210,219,228)" stroke="rgb(210,219,228)" stroke-width="1" opacity="1" d="M 109.5 465 L 111.5 468 L 109.5 465 Z " /><path fill="rgb(210,219,228)" stroke="rgb(210,219,228)" stroke-width="1" opacity="1" d="M 223.5 466 L 224 469.5 L 223 469.5 L 223.5 466 Z " /><path fill="rgb(210,219,228)" stroke="rgb(210,219,228)" stroke-width="1" opacity="1" d="M 353.5 466 L 356 466.5 L 353.5 467 L 353.5 466 Z " /><path fill="rgb(210,219,228)" stroke="rgb(210,219,228)" stroke-width="1" opacity="1" d="M 116.5 467 L 117 468.5 L 115 469.5 L 116.5 467 Z " /><path fill="rgb(210,219,228)" stroke="rgb(210,219,228)" stroke-width="1" opacity="1" d="M 290.5 467 L 293 467.5 L 290.5 468 L 290.5 467 Z " /><path fill="rgb(210,219,228)" stroke="rgb(210,219,228)" stroke-width="1" opacity="1" d="M 349.5 467 L 352 467.5 L 349.5 468 L 349.5 467 Z " /><path fill="rgb(210,219,228)" stroke="rgb(210,219,228)" stroke-width="1" opacity="1" d="M 295.5 468 L 299 468.5 L 295.5 469 L 295.5 468 Z " /><path fill="rgb(210,219,228)" stroke="rgb(210,219,228)" stroke-width="1" opacity="1" d="M 344.5 468 L 347 468.5 L 344.5 469 L 344.5 468 Z " /><path fill="rgb(210,219,228)" stroke="rgb(210,219,228)" stroke-width="1" opacity="1" d="M 153.5 469 L 154 471.5 L 153 471.5 L 153.5 469 Z " /><path fill="rgb(210,219,228)" stroke="rgb(210,219,228)" stroke-width="1" opacity="1" d="M 265.5 469 L 268 473.5 L 267 473.5 L 265.5 469 Z " /><path fill="rgb(210,219,228)" stroke="rgb(210,219,228)" stroke-width="1" opacity="1" d="M 302.5 469 L 307 469.5 L 302.5 470 L 302.5 469 Z " /><path fill="rgb(210,219,228)" stroke="rgb(210,219,228)" stroke-width="1" opacity="1" d="M 337.5 469 L 341 469.5 L 337.5 470 L 337.5 469 Z " /><path fill="rgb(210,219,228)" stroke="rgb(210,219,228)" stroke-width="1" opacity="1" d="M 227.5 470 L 228 474.5 L 227 474.5 L 227.5 470 Z " /><path fill="rgb(210,219,228)" stroke="rgb(210,219,228)" stroke-width="1" opacity="1" d="M 158.5 472 L 223 472.5 L 158.5 473 L 158.5 472 Z " /><path fill="rgb(210,219,228)" stroke="rgb(210,219,228)" stroke-width="1" opacity="1" d="M 154.5 475 L 155 480.5 L 154 480.5 L 154.5 475 Z " /><path fill="rgb(210,219,228)" stroke="rgb(210,219,228)" stroke-width="1" opacity="1" d="M 269.5 479 L 270 481.5 L 269 481.5 L 269.5 479 Z " /><path fill="rgb(210,219,228)" stroke="rgb(210,219,228)" stroke-width="1" opacity="1" d="M 111.5 481 L 112 488.5 L 111 488.5 L 111.5 481 Z " /><path fill="rgb(210,219,228)" stroke="rgb(210,219,228)" stroke-width="1" opacity="1" d="M 154.5 485 L 155 487.5 L 154 487.5 L 154.5 485 Z " /><path fill="rgb(210,219,228)" stroke="rgb(210,219,228)" stroke-width="1" opacity="1" d="M 269.5 488 L 270 490.5 L 269 490.5 L 269.5 488 Z " /><path fill="rgb(210,219,228)" stroke="rgb(210,219,228)" stroke-width="1" opacity="1" d="M 153.5 490 L 150.5 494 L 149 493.5 L 153.5 490 Z " /><path fill="rgb(210,219,228)" stroke="rgb(210,219,228)" stroke-width="1" opacity="1" d="M 112.5 491 L 114.5 494 L 112.5 491 Z " /><path fill="rgb(210,219,228)" stroke="rgb(210,219,228)" stroke-width="1" opacity="1" d="M 228.5 491 L 229.5 493 L 228.5 491 Z " /><path fill="rgb(210,219,228)" stroke="rgb(210,219,228)" stroke-width="1" opacity="1" d="M 142.5 495 L 145 495.5 L 142.5 496 L 142.5 495 Z " /><path fill="rgb(210,219,228)" stroke="rgb(210,219,228)" stroke-width="1" opacity="1" d="M 259.5 495 L 262 495.5 L 259.5 496 L 259.5 495 Z " /><path fill="rgb(210,219,228)" stroke="rgb(210,219,228)" stroke-width="1" opacity="1" d="M 126.5 496 L 139 496.5 L 126.5 497 L 126.5 496 Z " /><path fill="rgb(210,219,228)" stroke="rgb(210,219,228)" stroke-width="1" opacity="1" d="M 243.5 496 L 256 496.5 L 243.5 497 L 243.5 496 Z " /></svg>