<svg width="512" height="512" version="1.1" xmlns="http://www.w3.org/2000/svg" desc="Created with imagetracer.js version 1.2.6" ><path fill="rgb(136,130,128)" stroke="rgb(136,130,128)" stroke-width="1" opacity="0.9921568627450981" d="M 218.5 10 L 283.5 10 L 287.5 11 L 292 14.5 L 294 18.5 L 297 59.5 L 298 62 Q 307.6 60.6 312 64 L 314.5 71 L 336.5 53 L 340.5 52 L 345 54 L 346 56.5 L 346 106.5 L 349 117.5 L 351 137.5 L 352 138.5 L 352 160.5 Q 346.4 189.9 327.5 206 Q 324.5 205.1 326 209.5 Q 334.3 220.3 339 234 L 380.5 225 L 396.5 220 L 407.5 214 L 417.5 212 Q 423.6 213.4 426 218.5 L 433 234.5 L 434 247.5 L 432 252 L 421.5 256 L 410.5 256 L 408.5 256 L 400.5 257 L 383.5 263 L 356 277.5 L 362 297.5 L 367 324.5 L 368 341.5 L 369 342.5 L 369 365.5 L 370 367.5 L 369 368.5 L 369 386.5 L 368 387.5 L 367 401.5 L 364 415.5 L 359 430 L 367.5 432 L 381.5 432 Q 407.2 427.7 420 410.5 Q 428.1 400.6 432 386.5 L 434 376.5 L 434 359.5 L 431 347.5 L 431 335.5 L 436.5 327 Q 440.7 322.7 450.5 324 Q 464.9 328.6 473 339.5 Q 480.8 349.3 485 362.5 L 487 371.5 L 488 387.5 L 485 404.5 L 477 422.5 Q 468.3 436.8 455.5 447 Q 439.1 460.6 415.5 467 L 400.5 470 L 391.5 470 L 390.5 471 L 372.5 471 L 371.5 470 L 361.5 470 L 339.5 465 L 334.5 465 L 324 471.5 L 328 481.5 L 328 491.5 L 322.5 499 L 315.5 501 L 301.5 502 L 287.5 499 L 283 495.5 L 281 491.5 L 281 474.5 L 281.5 473 L 220.5 473 L 220 474.5 L 221 475.5 L 221 491.5 L 217.5 497 L 207.5 501 L 193.5 502 L 179.5 499 L 175 495.5 Q 172.6 490.4 174 481.5 L 178 471.5 Q 167.7 467.3 161 459.5 Q 146 443.5 139 419.5 L 133 388.5 L 132 356.5 L 133 355.5 L 133 340.5 L 134 339.5 L 134 331.5 L 135 330.5 L 137 311.5 L 146 277.5 L 118.5 263 L 105 259 L 106 261.5 L 106 267.5 L 107 268.5 L 107 274.5 L 108 275.5 L 108 281.5 L 109 282.5 L 109 288.5 L 110 289.5 L 110 295.5 L 111 296.5 L 111 302.5 L 116 331.5 L 116 338.5 L 117 339.5 L 117 345.5 L 118 346.5 L 118 352.5 L 119 353.5 L 119 359.5 L 120 360.5 L 120 366.5 L 121 367.5 L 129 429.5 L 130 430.5 L 131 447.5 Q 129 451.5 123.5 452 L 117 447.5 L 90 256 Q 75.8 257.4 69 250.5 L 68 248.5 L 68 237.5 L 74 221.5 L 81.5 213 L 84 211.5 L 80 185.5 Q 77.4 178.1 71.5 174 Q 66 169.5 54.5 171 L 44 177.5 L 39 187.5 L 39 196.5 L 40 197.5 L 42 214.5 L 37.5 220 Q 28.5 221.5 27 215.5 L 24 188.5 Q 27 170.5 39.5 162 L 53.5 156 L 65.5 156 Q 80.3 159.3 88 169.5 L 94 180.5 L 98 210.5 L 99 215.5 L 101.5 218 L 121.5 225 L 163 234 L 176 207.5 Q 161.7 195.3 154 176.5 L 150 161.5 L 150 137.5 L 151 136.5 L 153 116.5 L 155 110.5 L 155 58.5 L 158.5 53 L 162.5 52 L 187.5 71 L 190 64 Q 194.4 60.6 204 62 Q 205.7 57.5 205 49.5 L 206 48.5 L 208 18.5 L 212.5 12 L 218.5 10 Z M 209 53 L 208 59 L 209 61 L 294 61 L 293 60 Q 294 53 293 53 L 209 53 Z M 162 56 L 159 59 L 159 110 L 155 128 L 154 145 L 153 146 L 154 163 L 158 177 Q 164 190 173 200 L 187 211 L 186 214 L 180 210 L 166 235 L 175 239 L 174 241 L 170 241 L 159 237 L 134 231 L 130 231 L 103 223 L 101 223 L 105 255 L 124 261 L 153 276 L 162 283 L 161 285 L 150 280 L 146 289 L 141 311 L 139 329 L 138 330 L 138 338 L 137 339 L 137 351 L 136 352 L 136 380 L 137 381 L 137 391 L 138 392 L 140 409 Q 146 434 159 452 Q 166 463 179 467 Q 178 461 182 458 L 184 460 L 183 471 L 178 481 L 178 493 L 183 496 L 192 498 L 203 498 L 214 495 L 217 492 L 218 487 L 217 476 L 216 475 L 216 464 L 215 463 L 216 460 L 220 462 L 220 469 L 221 469 L 282 469 Q 281 463 285 461 L 287 462 L 285 474 L 285 492 L 286 494 L 300 498 L 317 497 L 324 493 L 324 482 L 319 471 L 318 460 L 321 458 L 322 460 L 323 467 L 332 463 Q 349 449 357 426 L 363 403 L 364 391 L 365 390 L 365 378 L 366 377 L 366 355 L 365 354 L 364 331 L 359 302 L 353 280 L 342 285 L 340 283 L 350 276 L 386 258 L 406 252 L 423 252 L 430 248 L 429 234 L 423 221 L 418 216 L 408 218 L 397 224 L 384 228 L 340 238 L 332 241 Q 326 243 327 239 L 335 235 L 323 210 L 318 214 L 316 214 L 314 212 L 321 207 Q 332 198 340 185 L 347 167 L 348 154 L 349 153 L 347 129 L 343 111 L 343 59 L 341 56 L 338 57 L 309 80 L 194 80 L 165 57 L 162 56 Z M 54 160 L 40 167 Q 31 174 28 188 L 28 197 L 29 198 L 31 215 Q 32 217 37 216 L 38 214 L 36 197 L 35 196 L 35 188 L 39 178 Q 44 170 55 167 L 65 167 L 74 171 L 81 179 L 85 191 L 92 246 L 93 247 L 93 254 L 94 255 L 106 345 L 107 346 L 107 353 L 108 354 L 108 360 L 109 361 L 109 367 L 110 368 L 110 374 L 111 375 L 111 381 L 112 382 L 112 388 L 113 389 L 113 395 L 114 396 L 114 402 L 115 403 L 115 409 L 116 410 L 116 416 L 117 417 L 117 423 L 121 447 L 124 448 L 127 447 L 124 416 L 119 387 L 119 381 L 118 380 L 118 374 L 117 373 L 117 367 L 116 366 L 116 360 L 115 359 L 115 353 L 114 352 L 114 346 L 113 345 L 113 339 L 112 338 L 112 332 L 111 331 L 111 325 L 110 324 L 110 317 L 109 316 L 97 226 L 96 225 L 96 219 L 95 218 L 92 190 L 90 181 L 84 171 L 73 162 Q 66 158 54 160 Z M 84 216 Q 72 226 72 248 Q 77 254 89 252 L 88 250 L 87 236 L 84 216 Z M 443 328 L 438 330 L 435 336 L 435 349 L 438 361 L 438 376 L 433 396 Q 428 408 419 418 Q 411 426 400 431 L 392 434 L 381 436 L 370 436 L 357 434 L 357 437 L 352 446 L 340 462 L 354 465 L 370 466 L 371 467 L 394 467 L 416 463 Q 438 456 455 443 Q 467 433 475 419 L 482 402 L 483 391 L 484 390 L 484 376 L 480 360 Q 475 347 466 338 L 454 329 L 443 328 Z " /><path fill="rgb(136,130,128)" stroke="rgb(136,130,128)" stroke-width="1" opacity="0.9921568627450981" d="M 206.5 117 Q 212.3 116.2 214 119.5 L 215 122.5 L 211.5 128 L 207.5 129 L 203 125.5 Q 201.8 118.3 206.5 117 Z " /><path fill="rgb(136,130,128)" stroke="rgb(136,130,128)" stroke-width="1" opacity="0.9921568627450981" d="M 293.5 117 Q 300 116 301 120.5 Q 302.3 126.8 298.5 128 L 294.5 129 L 290 125.5 L 289 122.5 L 291 118 L 293.5 117 Z " /><path fill="rgb(136,130,128)" stroke="rgb(136,130,128)" stroke-width="1" opacity="0.9921568627450981" d="M 248.5 141 L 257.5 142 L 260 144.5 L 260 151.5 L 254.5 159 L 253 159.5 L 253 167.5 L 256.5 172 L 265.5 172 L 267 173.5 Q 268.1 176.8 265.5 176 Q 264.3 178.3 259.5 177 L 250.5 173 L 246.5 176 L 236.5 177 L 235 173.5 L 236.5 172 L 244.5 172 L 248 169.5 L 249 159 L 244 155.5 Q 240.8 152.2 242 144.5 L 244.5 142 L 248.5 141 Z " /><path fill="rgb(136,130,128)" stroke="rgb(136,130,128)" stroke-width="1" opacity="0.9921568627450981" d="M 190.5 159 L 214.5 165 L 220 168.5 Q 220.8 170.8 218.5 170 L 216.5 170 L 192.5 164 L 189 161.5 L 190.5 159 Z " /><path fill="rgb(136,130,128)" stroke="rgb(136,130,128)" stroke-width="1" opacity="0.9921568627450981" d="M 308.5 159 Q 312.3 158.3 313 160.5 L 311.5 163 L 284.5 171 L 282 170 Q 280.5 166.2 283.5 167 L 308.5 159 Z " /><path fill="rgb(136,130,128)" stroke="rgb(136,130,128)" stroke-width="1" opacity="0.9921568627450981" d="M 211.5 178 Q 218.3 176.3 220 179.5 L 218.5 182 L 190.5 186 L 189 182.5 L 190.5 181 L 196.5 181 L 211.5 178 Z " /><path fill="rgb(136,130,128)" stroke="rgb(136,130,128)" stroke-width="1" opacity="0.9921568627450981" d="M 283.5 178 L 311.5 181 L 313 182.5 Q 314.1 185.8 311.5 185 L 309.5 185 L 289.5 183 Q 288.3 180.7 283.5 182 L 282 180.5 L 283.5 178 Z " /><path fill="rgb(136,130,128)" stroke="rgb(136,130,128)" stroke-width="1" opacity="0.9921568627450981" d="M 219.5 212 L 227.5 212 L 243.5 220 L 244.5 219 L 254.5 219 L 258.5 221 L 268.5 214 Q 273.5 211 282.5 212 L 289 216.5 L 293 226.5 L 293 236.5 L 291 243.5 L 287.5 248 Q 283.8 251.3 275.5 250 L 259.5 246 L 254.5 249 Q 249.7 247.8 248.5 250 L 241.5 247 L 236.5 247 L 226.5 250 L 218.5 250 L 212 245.5 Q 207.4 238.6 209 225.5 Q 210.5 217.9 215.5 214 L 219.5 212 Z " /><path fill="rgb(88,89,91)" stroke="rgb(88,89,91)" stroke-width="1" opacity="0.30980392156862746" d="M 214.5 10 L 218 10.5 Q 212.1 10.6 210 14.5 Q 207 18 207.5 25 L 207 18.5 L 212.5 11 L 214.5 10 Z " /><path fill="rgb(88,89,91)" stroke="rgb(88,89,91)" stroke-width="1" opacity="0.30980392156862746" d="M 284.5 10 Q 290.9 10.1 293 14.5 Q 296.3 18.2 295 26.5 L 294 26.5 Q 295.6 16.4 290.5 13 Q 289.1 10.4 284.5 11 L 284.5 10 Z " /><path fill="rgb(88,89,91)" stroke="rgb(88,89,91)" stroke-width="1" opacity="0.30980392156862746" d="M 206.5 26 L 207 36.5 L 206 36.5 L 206.5 26 Z " /><path fill="rgb(88,89,91)" stroke="rgb(88,89,91)" stroke-width="1" opacity="0.30980392156862746" d="M 295.5 28 L 296 38.5 L 295 38.5 L 295.5 28 Z " /><path fill="rgb(88,89,91)" stroke="rgb(88,89,91)" stroke-width="1" opacity="0.30980392156862746" d="M 205.5 38 L 206 48.5 L 205 48.5 L 205.5 38 Z " /><path fill="rgb(88,89,91)" stroke="rgb(88,89,91)" stroke-width="1" opacity="0.30980392156862746" d="M 296.5 40 L 297 48.5 L 296 48.5 L 296.5 40 Z " /><path fill="rgb(88,89,91)" stroke="rgb(88,89,91)" stroke-width="1" opacity="0.30980392156862746" d="M 204.5 50 L 205 57.5 L 204 57.5 L 204.5 50 Z " /><path fill="rgb(88,89,91)" stroke="rgb(88,89,91)" stroke-width="1" opacity="0.30980392156862746" d="M 297.5 51 L 298 59.5 L 297 59.5 L 297.5 51 Z " /><path fill="rgb(88,89,91)" stroke="rgb(88,89,91)" stroke-width="1" opacity="0.30980392156862746" d="M 158.5 52 L 161 52.5 L 156 55.5 L 155.5 58 L 155 55.5 L 158.5 52 Z " /><path fill="rgb(88,89,91)" stroke="rgb(88,89,91)" stroke-width="1" opacity="0.30980392156862746" d="M 163.5 52 L 165.5 52 L 186.5 69 L 191.5 62 L 203.5 61 L 203.5 62 Q 193.9 60.7 190 64 L 187.5 71 L 170.5 57 L 163.5 53 L 163.5 52 Z " /><path fill="rgb(88,89,91)" stroke="rgb(88,89,91)" stroke-width="1" opacity="0.30980392156862746" d="M 336.5 52 L 339 52.5 L 336.5 53 L 314.5 71 L 312 64 Q 307.6 60.7 298 61.5 L 307.5 61 L 314 65.5 L 315.5 69 L 336.5 52 Z " /><path fill="rgb(88,89,91)" stroke="rgb(88,89,91)" stroke-width="1" opacity="0.30980392156862746" d="M 341.5 52 Q 346.5 51.5 347 55.5 L 347 106.5 Q 350.9 116.1 351 129.5 L 350 129.5 Q 349.9 116.1 346 106.5 L 346 56.5 L 345 54 Q 340.8 54 341.5 52 Z " /><path fill="rgb(88,89,91)" stroke="rgb(88,89,91)" stroke-width="1" opacity="0.30980392156862746" d="M 154.5 106 L 155 110.5 L 153 116.5 L 150.5 137 L 150 129.5 L 154.5 106 Z " /><path fill="rgb(88,89,91)" stroke="rgb(88,89,91)" stroke-width="1" opacity="0.30980392156862746" d="M 351.5 131 L 352 137.5 L 351 137.5 L 351.5 131 Z " /><path fill="rgb(88,89,91)" stroke="rgb(88,89,91)" stroke-width="1" opacity="0.30980392156862746" d="M 149.5 138 L 150 160.5 L 149 160.5 L 149.5 138 Z " /><path fill="rgb(88,89,91)" stroke="rgb(88,89,91)" stroke-width="1" opacity="0.30980392156862746" d="M 352.5 139 L 353 159.5 L 352 159.5 L 352.5 139 Z " /><path fill="rgb(88,89,91)" stroke="rgb(88,89,91)" stroke-width="1" opacity="0.30980392156862746" d="M 54.5 155 L 65.5 155 L 75.5 158 L 87 166 L 95 180.5 L 96 189.5 L 95 189.5 L 95 184.5 L 92 175.5 L 81.5 163 L 69.5 157 L 54.5 156 L 54.5 155 Z " /><path fill="rgb(88,89,91)" stroke="rgb(88,89,91)" stroke-width="1" opacity="0.30980392156862746" d="M 49.5 156 L 53 156.5 Q 38.2 159.7 31 170.5 Q 25.7 177.2 24.5 188 L 24 183.5 Q 27.4 170.4 36.5 163 L 49.5 156 Z " /><path fill="rgb(88,89,91)" stroke="rgb(88,89,91)" stroke-width="1" opacity="0.30980392156862746" d="M 351.5 161 L 352 165.5 Q 345 192.5 327 208.5 L 340.5 233 L 380.5 224 L 396.5 219 L 407.5 213 L 412.5 212 L 412.5 213 L 407.5 214 L 396.5 220 L 380.5 225 L 339 234 Q 334.3 220.3 326 209.5 L 326 206 L 334 199.5 Q 347.7 185.2 351.5 161 Z " /><path fill="rgb(88,89,91)" stroke="rgb(88,89,91)" stroke-width="1" opacity="0.30980392156862746" d="M 150.5 162 L 151 165.5 L 150 165.5 L 150.5 162 Z " /><path fill="rgb(88,89,91)" stroke="rgb(88,89,91)" stroke-width="1" opacity="0.30980392156862746" d="M 151.5 167 L 152 169.5 L 151 169.5 L 151.5 167 Z " /><path fill="rgb(88,89,91)" stroke="rgb(88,89,91)" stroke-width="1" opacity="0.30980392156862746" d="M 54.5 171 Q 71.5 169.5 77 179.5 L 81 189.5 L 81 195.5 L 84 211.5 L 76 218.5 Q 70.6 226.1 68.5 237 L 68 233.5 Q 71.2 220.7 79.5 213 L 83 212 L 82 209.5 L 79 185.5 L 72.5 176 Q 67.2 170.3 54.5 172 Q 47.1 174.6 43 180.5 Q 38.6 185.7 40 196.5 L 43 213.5 L 42 213.5 L 39 196.5 L 39 187.5 Q 41.3 179.8 46.5 175 L 54.5 171 Z " /><path fill="rgb(88,89,91)" stroke="rgb(88,89,91)" stroke-width="1" opacity="0.30980392156862746" d="M 152.5 171 L 160 188.5 L 176 208.5 L 163 234 L 158.5 234 L 114.5 223 L 105.5 220 L 99 215.5 L 99.5 212 L 101.5 217 L 121.5 224 L 161.5 233 L 175 207.5 L 160 190.5 L 153 176.5 L 152.5 171 Z " /><path fill="rgb(88,89,91)" stroke="rgb(88,89,91)" stroke-width="1" opacity="0.30980392156862746" d="M 23.5 189 L 24 194.5 L 23 194.5 L 23.5 189 Z " /><path fill="rgb(88,89,91)" stroke="rgb(88,89,91)" stroke-width="1" opacity="0.30980392156862746" d="M 96.5 191 L 97 196.5 L 96 196.5 L 96.5 191 Z " /><path fill="rgb(88,89,91)" stroke="rgb(88,89,91)" stroke-width="1" opacity="0.30980392156862746" d="M 24.5 196 L 27 215.5 L 31.5 220 Q 39.5 221.5 41 216.5 L 41.5 215 L 42 216.5 L 41 219 L 37.5 221 L 31.5 221 L 27 217.5 L 24 202.5 L 24.5 196 Z " /><path fill="rgb(88,89,91)" stroke="rgb(88,89,91)" stroke-width="1" opacity="0.30980392156862746" d="M 97.5 198 L 98 203.5 L 97 203.5 L 97.5 198 Z " /><path fill="rgb(88,89,91)" stroke="rgb(88,89,91)" stroke-width="1" opacity="0.30980392156862746" d="M 98.5 205 L 99 210.5 L 98 210.5 L 98.5 205 Z " /><path fill="rgb(88,89,91)" stroke="rgb(88,89,91)" stroke-width="1" opacity="0.30980392156862746" d="M 414.5 211 Q 422 211 425 215.5 Q 432.2 223.8 434 237.5 L 433 237.5 Q 431 221 420.5 213 L 414.5 212 L 414.5 211 Z " /><path fill="rgb(88,89,91)" stroke="rgb(88,89,91)" stroke-width="1" opacity="0.30980392156862746" d="M 67.5 238 L 68 248.5 L 70.5 252 Q 77.4 257.4 90 256 L 89.5 259 L 89 257 Q 74.5 258.3 68 250.5 L 67 248.5 L 67.5 238 Z " /><path fill="rgb(88,89,91)" stroke="rgb(88,89,91)" stroke-width="1" opacity="0.30980392156862746" d="M 434.5 239 L 435 247.5 L 431.5 253 Q 424.6 258.6 410.5 257 L 408.5 257 L 400.5 258 L 383.5 264 L 357 278.5 L 359 284.5 L 358 284.5 L 356 277.5 L 383.5 263 L 409.5 255 L 410.5 256 L 421.5 256 L 432 252 Q 435.1 247.9 434.5 239 Z " /><path fill="rgb(88,89,91)" stroke="rgb(88,89,91)" stroke-width="1" opacity="0.30980392156862746" d="M 105 259 L 118.5 263 L 146 277.5 Q 138.3 297.8 135.5 323 L 135 317.5 L 138 301.5 L 144 281.5 L 144 277 L 118.5 264 L 106.5 260 L 107 261.5 L 110 288.5 L 109 288.5 L 106 261.5 L 105 259 Z " /><path fill="rgb(88,89,91)" stroke="rgb(88,89,91)" stroke-width="1" opacity="0.30980392156862746" d="M 90.5 260 L 91 265.5 L 90 265.5 L 90.5 260 Z " /><path fill="rgb(88,89,91)" stroke="rgb(88,89,91)" stroke-width="1" opacity="0.30980392156862746" d="M 91.5 267 L 97 308.5 L 98 309.5 L 98 315.5 L 97 315.5 L 97 309.5 L 96 308.5 L 96 302.5 L 91 273.5 L 91.5 267 Z " /><path fill="rgb(88,89,91)" stroke="rgb(88,89,91)" stroke-width="1" opacity="0.30980392156862746" d="M 359.5 286 L 363 297.5 L 367 323.5 L 366 323.5 L 365 312.5 L 359 288.5 L 359.5 286 Z " /><path fill="rgb(88,89,91)" stroke="rgb(88,89,91)" stroke-width="1" opacity="0.30980392156862746" d="M 110.5 290 L 111 295.5 L 110 295.5 L 110.5 290 Z " /><path fill="rgb(88,89,91)" stroke="rgb(88,89,91)" stroke-width="1" opacity="0.30980392156862746" d="M 111.5 297 L 112 302.5 L 111 302.5 L 111.5 297 Z " /><path fill="rgb(88,89,91)" stroke="rgb(88,89,91)" stroke-width="1" opacity="0.30980392156862746" d="M 112.5 304 L 113 309.5 L 112 309.5 L 112.5 304 Z " /><path fill="rgb(88,89,91)" stroke="rgb(88,89,91)" stroke-width="1" opacity="0.30980392156862746" d="M 113.5 311 L 114 316.5 L 113 316.5 L 113.5 311 Z " /><path fill="rgb(88,89,91)" stroke="rgb(88,89,91)" stroke-width="1" opacity="0.30980392156862746" d="M 98.5 317 L 99 322.5 L 98 322.5 L 98.5 317 Z " /><path fill="rgb(88,89,91)" stroke="rgb(88,89,91)" stroke-width="1" opacity="0.30980392156862746" d="M 114.5 318 L 115 323.5 L 114 323.5 L 114.5 318 Z " /><path fill="rgb(88,89,91)" stroke="rgb(88,89,91)" stroke-width="1" opacity="0.30980392156862746" d="M 442.5 323 L 450 323.5 Q 438.4 322.9 434 329.5 L 431.5 335 L 431 332.5 L 437.5 325 L 442.5 323 Z " /><path fill="rgb(88,89,91)" stroke="rgb(88,89,91)" stroke-width="1" opacity="0.30980392156862746" d="M 99.5 324 L 100 329.5 L 99 329.5 L 99.5 324 Z " /><path fill="rgb(88,89,91)" stroke="rgb(88,89,91)" stroke-width="1" opacity="0.30980392156862746" d="M 134.5 324 L 135 330.5 L 134 331.5 L 133.5 340 L 133 331.5 L 134.5 324 Z " /><path fill="rgb(88,89,91)" stroke="rgb(88,89,91)" stroke-width="1" opacity="0.30980392156862746" d="M 451.5 324 Q 467.4 328.1 475 340.5 L 485 359.5 L 488 371.5 L 488 379.5 L 487 379.5 L 487 371.5 L 482 354.5 Q 475.8 340.2 464.5 331 L 456.5 326 L 451.5 325 L 451.5 324 Z " /><path fill="rgb(88,89,91)" stroke="rgb(88,89,91)" stroke-width="1" opacity="0.30980392156862746" d="M 115.5 325 L 116 330.5 L 115 330.5 L 115.5 325 Z " /><path fill="rgb(88,89,91)" stroke="rgb(88,89,91)" stroke-width="1" opacity="0.30980392156862746" d="M 367.5 325 L 369 332.5 L 369 341.5 L 368 341.5 L 367.5 325 Z " /><path fill="rgb(88,89,91)" stroke="rgb(88,89,91)" stroke-width="1" opacity="0.30980392156862746" d="M 100.5 331 L 101 336.5 L 100 336.5 L 100.5 331 Z " /><path fill="rgb(88,89,91)" stroke="rgb(88,89,91)" stroke-width="1" opacity="0.30980392156862746" d="M 116.5 332 L 122 373.5 L 123 374.5 L 123 380.5 L 124 381.5 L 124 387.5 L 123 387.5 L 123 381.5 L 122 380.5 L 122 374.5 L 121 373.5 L 121 367.5 L 116 338.5 L 116.5 332 Z " /><path fill="rgb(88,89,91)" stroke="rgb(88,89,91)" stroke-width="1" opacity="0.30980392156862746" d="M 430.5 336 L 431 346.5 L 430 346.5 L 430.5 336 Z " /><path fill="rgb(88,89,91)" stroke="rgb(88,89,91)" stroke-width="1" opacity="0.30980392156862746" d="M 101.5 338 L 102 343.5 L 101 343.5 L 101.5 338 Z " /><path fill="rgb(88,89,91)" stroke="rgb(88,89,91)" stroke-width="1" opacity="0.30980392156862746" d="M 132.5 341 L 133 355.5 L 132 355.5 L 132.5 341 Z " /><path fill="rgb(88,89,91)" stroke="rgb(88,89,91)" stroke-width="1" opacity="0.30980392156862746" d="M 369.5 343 L 370 365.5 L 369 365.5 L 369.5 343 Z " /><path fill="rgb(88,89,91)" stroke="rgb(88,89,91)" stroke-width="1" opacity="0.30980392156862746" d="M 102.5 345 L 103 350.5 L 102 350.5 L 102.5 345 Z " /><path fill="rgb(88,89,91)" stroke="rgb(88,89,91)" stroke-width="1" opacity="0.30980392156862746" d="M 431.5 348 L 434 359.5 L 434 376.5 L 432 386.5 L 426 401.5 Q 419.9 412.5 410.5 420 L 394.5 429 L 383.5 431 L 383.5 430 Q 405.5 426.5 417 412.5 Q 426.4 401.9 431 386.5 L 433 376.5 L 433 359.5 L 431 352.5 L 431.5 348 Z " /><path fill="rgb(88,89,91)" stroke="rgb(88,89,91)" stroke-width="1" opacity="0.30980392156862746" d="M 103.5 352 L 104 357.5 L 103 357.5 L 103.5 352 Z " /><path fill="rgb(88,89,91)" stroke="rgb(88,89,91)" stroke-width="1" opacity="0.30980392156862746" d="M 104.5 359 L 105 364.5 L 104 364.5 L 104.5 359 Z " /><path fill="rgb(88,89,91)" stroke="rgb(88,89,91)" stroke-width="1" opacity="0.30980392156862746" d="M 131.5 363 L 132 368.5 L 131 368.5 L 131.5 363 Z " /><path fill="rgb(88,89,91)" stroke="rgb(88,89,91)" stroke-width="1" opacity="0.30980392156862746" d="M 105.5 366 L 111 407.5 L 112 408.5 L 112 414.5 L 111 414.5 L 111 408.5 L 110 407.5 L 110 401.5 L 105 372.5 L 105.5 366 Z " /><path fill="rgb(88,89,91)" stroke="rgb(88,89,91)" stroke-width="1" opacity="0.30980392156862746" d="M 369.5 368 L 370 385.5 L 369 385.5 L 369.5 368 Z " /><path fill="rgb(88,89,91)" stroke="rgb(88,89,91)" stroke-width="1" opacity="0.30980392156862746" d="M 132.5 373 L 133 387.5 L 132 387.5 L 132.5 373 Z " /><path fill="rgb(88,89,91)" stroke="rgb(88,89,91)" stroke-width="1" opacity="0.30980392156862746" d="M 368.5 387 L 369 394.5 L 368 394.5 L 368.5 387 Z " /><path fill="rgb(88,89,91)" stroke="rgb(88,89,91)" stroke-width="1" opacity="0.30980392156862746" d="M 487.5 388 L 488 395.5 L 487 395.5 L 487.5 388 Z " /><path fill="rgb(88,89,91)" stroke="rgb(88,89,91)" stroke-width="1" opacity="0.30980392156862746" d="M 124.5 389 L 125 394.5 L 124 394.5 L 124.5 389 Z " /><path fill="rgb(88,89,91)" stroke="rgb(88,89,91)" stroke-width="1" opacity="0.30980392156862746" d="M 133.5 389 L 134 395.5 L 133 395.5 L 133.5 389 Z " /><path fill="rgb(88,89,91)" stroke="rgb(88,89,91)" stroke-width="1" opacity="0.30980392156862746" d="M 125.5 396 L 126 401.5 L 125 401.5 L 125.5 396 Z " /><path fill="rgb(88,89,91)" stroke="rgb(88,89,91)" stroke-width="1" opacity="0.30980392156862746" d="M 367.5 396 L 368 401.5 L 365 415.5 L 360 428.5 L 360.5 430 Q 358.3 430.8 359 428.5 L 364 415.5 L 367.5 396 Z " /><path fill="rgb(88,89,91)" stroke="rgb(88,89,91)" stroke-width="1" opacity="0.30980392156862746" d="M 134.5 397 Q 139.9 439.6 164.5 463 L 178 471.5 Q 172.4 478.4 174 492.5 L 176.5 497 L 185 500.5 L 182.5 501 Q 176.8 499.8 174 495.5 Q 171.6 490.4 173 481.5 L 177 471.5 Q 164.3 466.7 157 456.5 Q 147 444.5 141 428.5 L 135 407.5 L 134.5 397 Z " /><path fill="rgb(88,89,91)" stroke="rgb(88,89,91)" stroke-width="1" opacity="0.30980392156862746" d="M 486.5 397 L 487 400.5 Q 479.2 428.7 459.5 445 Q 447.1 456.1 430.5 463 L 412.5 468 L 412.5 467 Q 450.1 458.6 470 432.5 L 483 410.5 L 486.5 397 Z " /><path fill="rgb(88,89,91)" stroke="rgb(88,89,91)" stroke-width="1" opacity="0.30980392156862746" d="M 126.5 403 L 127 408.5 L 126 408.5 L 126.5 403 Z " /><path fill="rgb(88,89,91)" stroke="rgb(88,89,91)" stroke-width="1" opacity="0.30980392156862746" d="M 127.5 410 L 128 415.5 L 127 415.5 L 127.5 410 Z " /><path fill="rgb(88,89,91)" stroke="rgb(88,89,91)" stroke-width="1" opacity="0.30980392156862746" d="M 112.5 416 L 113 421.5 L 112 421.5 L 112.5 416 Z " /><path fill="rgb(88,89,91)" stroke="rgb(88,89,91)" stroke-width="1" opacity="0.30980392156862746" d="M 128.5 417 L 129 422.5 L 128 422.5 L 128.5 417 Z " /><path fill="rgb(88,89,91)" stroke="rgb(88,89,91)" stroke-width="1" opacity="0.30980392156862746" d="M 113.5 423 L 114 428.5 L 113 428.5 L 113.5 423 Z " /><path fill="rgb(88,89,91)" stroke="rgb(88,89,91)" stroke-width="1" opacity="0.30980392156862746" d="M 129.5 424 L 130 429.5 L 129 429.5 L 129.5 424 Z " /><path fill="rgb(88,89,91)" stroke="rgb(88,89,91)" stroke-width="1" opacity="0.30980392156862746" d="M 114.5 430 L 115 435.5 L 114 435.5 L 114.5 430 Z " /><path fill="rgb(88,89,91)" stroke="rgb(88,89,91)" stroke-width="1" opacity="0.30980392156862746" d="M 362.5 430 L 366 430.5 L 362.5 431 L 362.5 430 Z " /><path fill="rgb(88,89,91)" stroke="rgb(88,89,91)" stroke-width="1" opacity="0.30980392156862746" d="M 130.5 431 L 132 438.5 L 132 447.5 L 127.5 452 L 125.5 452 L 125.5 451 Q 130.5 451.5 131 447.5 L 130.5 431 Z " /><path fill="rgb(88,89,91)" stroke="rgb(88,89,91)" stroke-width="1" opacity="0.30980392156862746" d="M 367.5 431 L 382 431.5 L 367.5 432 L 367.5 431 Z " /><path fill="rgb(88,89,91)" stroke="rgb(88,89,91)" stroke-width="1" opacity="0.30980392156862746" d="M 115.5 437 L 116 442.5 L 115 442.5 L 115.5 437 Z " /><path fill="rgb(88,89,91)" stroke="rgb(88,89,91)" stroke-width="1" opacity="0.30980392156862746" d="M 116.5 444 Q 116.4 449.6 120.5 451 L 123 451.5 L 120.5 452 L 117 449.5 L 116.5 444 Z " /><path fill="rgb(88,89,91)" stroke="rgb(88,89,91)" stroke-width="1" opacity="0.30980392156862746" d="M 334.5 465 L 339.5 465 L 344.5 467 L 361 469.5 L 354.5 470 L 339.5 466 L 334.5 466 L 325 471.5 L 328 477.5 L 328 480.5 L 327 480.5 L 327 477.5 L 324 471.5 L 334.5 465 Z " /><path fill="rgb(88,89,91)" stroke="rgb(88,89,91)" stroke-width="1" opacity="0.30980392156862746" d="M 407.5 468 L 411 468.5 L 401.5 470 L 401.5 469 Q 406.3 470.3 407.5 468 Z " /><path fill="rgb(88,89,91)" stroke="rgb(88,89,91)" stroke-width="1" opacity="0.30980392156862746" d="M 362.5 470 L 372 470.5 L 362.5 471 L 362.5 470 Z " /><path fill="rgb(88,89,91)" stroke="rgb(88,89,91)" stroke-width="1" opacity="0.30980392156862746" d="M 391.5 470 L 400 470.5 L 391.5 471 L 391.5 470 Z " /><path fill="rgb(88,89,91)" stroke="rgb(88,89,91)" stroke-width="1" opacity="0.30980392156862746" d="M 374.5 471 L 389 471.5 L 374.5 472 L 374.5 471 Z " /><path fill="rgb(88,89,91)" stroke="rgb(88,89,91)" stroke-width="1" opacity="0.30980392156862746" d="M 220 473 L 282 473.5 L 221.5 474 L 220.5 475 L 220 473 Z " /><path fill="rgb(88,89,91)" stroke="rgb(88,89,91)" stroke-width="1" opacity="0.30980392156862746" d="M 280.5 475 L 281 491.5 L 285.5 498 L 293 500.5 L 290.5 501 Q 284 499.5 281 494.5 L 280 491.5 L 280.5 475 Z " /><path fill="rgb(88,89,91)" stroke="rgb(88,89,91)" stroke-width="1" opacity="0.30980392156862746" d="M 221.5 476 L 222 491.5 L 216.5 499 L 207.5 502 L 200.5 502 L 200.5 501 Q 213.3 501.8 219 495.5 L 221 491.5 L 221.5 476 Z " /><path fill="rgb(88,89,91)" stroke="rgb(88,89,91)" stroke-width="1" opacity="0.30980392156862746" d="M 328.5 482 L 329 491.5 L 328 495.5 L 324.5 499 L 315.5 502 L 308.5 502 L 308.5 501 L 315.5 501 L 322.5 499 L 327 494.5 L 328.5 482 Z " /><path fill="rgb(88,89,91)" stroke="rgb(88,89,91)" stroke-width="1" opacity="0.30980392156862746" d="M 186.5 501 L 193 501.5 L 186.5 502 L 186.5 501 Z " /><path fill="rgb(88,89,91)" stroke="rgb(88,89,91)" stroke-width="1" opacity="0.30980392156862746" d="M 294.5 501 L 301 501.5 L 294.5 502 L 294.5 501 Z " /><path fill="rgb(0,0,0)" stroke="rgb(0,0,0)" stroke-width="1" opacity="0" d="M 0 0 L 512 0 L 512 512 L 0 512 L 0 0 Z M 215 10 L 213 11 L 207 19 L 204 61 L 192 62 L 187 69 L 166 52 L 159 52 L 155 56 L 155 106 L 152 117 L 150 138 L 149 139 L 149 161 L 153 177 Q 160 196 175 208 L 162 233 L 122 224 L 102 217 L 99 212 L 95 181 L 87 166 L 78 159 L 66 155 L 50 156 L 37 163 L 29 172 L 25 180 L 23 190 L 25 210 L 27 218 L 32 221 L 38 221 L 41 219 L 43 214 L 40 197 Q 39 186 43 181 Q 47 175 55 172 Q 67 170 73 176 L 79 186 L 82 210 L 83 212 L 80 213 Q 70 222 67 239 Q 65 247 68 251 Q 75 258 89 257 L 91 267 L 91 274 L 96 303 L 96 309 L 97 310 L 97 316 L 98 317 L 98 323 L 99 324 L 99 330 L 100 331 L 100 337 L 101 338 L 101 344 L 102 345 L 102 351 L 103 352 L 103 358 L 104 359 L 104 365 L 105 366 L 105 373 L 110 402 L 110 408 L 111 409 L 111 415 L 112 416 L 112 422 L 113 423 L 113 429 L 114 430 L 114 436 L 115 437 L 115 443 L 117 450 L 121 452 Q 130 454 132 448 L 132 439 L 131 438 L 127 404 L 126 403 L 126 397 L 125 396 L 125 390 L 124 389 L 124 382 L 119 353 L 119 347 L 118 346 L 118 340 L 117 339 L 117 333 L 116 332 L 116 326 L 115 325 L 115 319 L 114 318 L 114 312 L 113 311 L 113 305 L 112 304 L 112 298 L 111 297 L 111 291 L 110 290 L 107 262 L 107 260 L 119 264 L 144 277 L 144 282 L 138 302 L 135 318 L 134 331 L 133 332 L 133 341 L 132 342 L 132 363 L 131 364 L 133 396 L 138 420 Q 144 441 157 457 Q 164 467 177 472 L 173 482 Q 172 490 174 496 L 178 499 L 187 502 L 208 502 L 217 499 L 222 492 L 222 477 L 221 476 L 222 474 L 281 474 L 280 476 L 280 492 L 281 495 L 286 499 L 295 502 L 316 502 L 325 499 L 328 496 L 329 492 L 328 478 L 325 472 L 335 466 L 340 466 L 355 470 L 374 471 L 375 472 L 400 471 L 416 468 Q 442 461 460 445 Q 472 434 480 420 Q 486 409 488 396 L 488 372 L 487 367 Q 483 351 475 341 Q 467 327 450 323 Q 442 322 438 325 Q 431 328 430 337 L 430 347 L 433 360 L 433 377 L 431 387 Q 426 402 417 413 Q 405 427 383 431 L 367 431 L 360 429 L 366 412 L 369 395 L 369 387 L 370 386 L 370 344 L 369 343 L 369 333 L 368 332 L 367 319 L 363 298 L 357 279 L 384 264 L 401 258 L 409 257 L 411 257 Q 425 259 432 253 L 435 248 L 434 235 Q 431 223 425 216 L 418 211 L 408 213 L 397 219 L 381 224 L 341 233 L 327 209 Q 347 191 353 160 L 353 140 L 352 139 L 350 118 L 347 107 L 347 56 L 344 52 L 337 52 L 316 69 L 314 66 Q 310 59 298 61 L 295 19 L 293 15 L 288 10 L 215 10 Z " /><path fill="rgb(232,232,232)" stroke="rgb(232,232,232)" stroke-width="1" opacity="1" d="M 209 53 L 292.5 53 Q 293.8 53.3 293 59.5 L 293.5 61 L 208.5 61 L 208 58.5 L 209 53 Z " /><path fill="rgb(232,232,232)" stroke="rgb(232,232,232)" stroke-width="1" opacity="1" d="M 164.5 57 L 167.5 61 L 164.5 57 Z " /><path fill="rgb(232,232,232)" stroke="rgb(232,232,232)" stroke-width="1" opacity="1" d="M 337.5 57 L 335.5 60 L 337.5 57 Z " /><path fill="rgb(232,232,232)" stroke="rgb(232,232,232)" stroke-width="1" opacity="1" d="M 159.5 58 L 160 106.5 L 159 106.5 L 159.5 58 Z " /><path fill="rgb(232,232,232)" stroke="rgb(232,232,232)" stroke-width="1" opacity="1" d="M 342.5 58 L 343 107.5 L 342 107.5 L 342.5 58 Z " /><path fill="rgb(232,232,232)" stroke="rgb(232,232,232)" stroke-width="1" opacity="1" d="M 169.5 61 L 172.5 65 L 169.5 61 Z " /><path fill="rgb(232,232,232)" stroke="rgb(232,232,232)" stroke-width="1" opacity="1" d="M 332.5 61 L 330.5 64 L 332.5 61 Z " /><path fill="rgb(232,232,232)" stroke="rgb(232,232,232)" stroke-width="1" opacity="1" d="M 174.5 65 L 177.5 69 L 174.5 65 Z " /><path fill="rgb(232,232,232)" stroke="rgb(232,232,232)" stroke-width="1" opacity="1" d="M 327.5 65 L 325.5 68 L 327.5 65 Z " /><path fill="rgb(232,232,232)" stroke="rgb(232,232,232)" stroke-width="1" opacity="1" d="M 179.5 69 L 182.5 73 L 179.5 69 Z " /><path fill="rgb(232,232,232)" stroke="rgb(232,232,232)" stroke-width="1" opacity="1" d="M 322.5 69 L 320.5 72 L 322.5 69 Z " /><path fill="rgb(232,232,232)" stroke="rgb(232,232,232)" stroke-width="1" opacity="1" d="M 184.5 73 L 187.5 77 L 184.5 73 Z " /><path fill="rgb(232,232,232)" stroke="rgb(232,232,232)" stroke-width="1" opacity="1" d="M 317.5 73 L 315.5 76 L 317.5 73 Z " /><path fill="rgb(232,232,232)" stroke="rgb(232,232,232)" stroke-width="1" opacity="1" d="M 189.5 77 L 190.5 79 L 189.5 77 Z " /><path fill="rgb(232,232,232)" stroke="rgb(232,232,232)" stroke-width="1" opacity="1" d="M 312.5 77 L 311.5 79 L 312.5 77 Z " /><path fill="rgb(232,232,232)" stroke="rgb(232,232,232)" stroke-width="1" opacity="1" d="M 194.5 80 L 308 80.5 L 194.5 81 L 194.5 80 Z " /><path fill="rgb(232,232,232)" stroke="rgb(232,232,232)" stroke-width="1" opacity="1" d="M 205.5 117 L 203.5 120 L 205.5 117 Z " /><path fill="rgb(232,232,232)" stroke="rgb(232,232,232)" stroke-width="1" opacity="1" d="M 298.5 117 L 300.5 120 L 298.5 117 Z " /><path fill="rgb(232,232,232)" stroke="rgb(232,232,232)" stroke-width="1" opacity="1" d="M 290.5 119 L 290 120.5 L 289.5 122 L 289 120.5 L 290.5 119 Z " /><path fill="rgb(232,232,232)" stroke="rgb(232,232,232)" stroke-width="1" opacity="1" d="M 202.5 121 L 203 123.5 L 202 123.5 L 202.5 121 Z " /><path fill="rgb(232,232,232)" stroke="rgb(232,232,232)" stroke-width="1" opacity="1" d="M 301.5 121 L 302 123.5 L 301 123.5 L 301.5 121 Z " /><path fill="rgb(232,232,232)" stroke="rgb(232,232,232)" stroke-width="1" opacity="1" d="M 203.5 126 L 204.5 128 L 203.5 126 Z " /><path fill="rgb(232,232,232)" stroke="rgb(232,232,232)" stroke-width="1" opacity="1" d="M 213.5 126 L 212.5 128 L 213.5 126 Z " /><path fill="rgb(232,232,232)" stroke="rgb(232,232,232)" stroke-width="1" opacity="1" d="M 290.5 126 L 291.5 128 L 290.5 126 Z " /><path fill="rgb(232,232,232)" stroke="rgb(232,232,232)" stroke-width="1" opacity="1" d="M 300.5 126 L 299.5 128 L 300.5 126 Z " /><path fill="rgb(232,232,232)" stroke="rgb(232,232,232)" stroke-width="1" opacity="1" d="M 155.5 127 L 156 129.5 L 155 129.5 L 155.5 127 Z " /><path fill="rgb(232,232,232)" stroke="rgb(232,232,232)" stroke-width="1" opacity="1" d="M 346.5 128 L 347 130.5 L 346 130.5 L 346.5 128 Z " /><path fill="rgb(232,232,232)" stroke="rgb(232,232,232)" stroke-width="1" opacity="1" d="M 154.5 135 L 155 137.5 L 154 137.5 L 154.5 135 Z " /><path fill="rgb(232,232,232)" stroke="rgb(232,232,232)" stroke-width="1" opacity="1" d="M 347.5 136 L 348 139.5 L 347 139.5 L 347.5 136 Z " /><path fill="rgb(232,232,232)" stroke="rgb(232,232,232)" stroke-width="1" opacity="1" d="M 245.5 141 L 248 141.5 L 245.5 142 L 245.5 141 Z " /><path fill="rgb(232,232,232)" stroke="rgb(232,232,232)" stroke-width="1" opacity="1" d="M 243.5 142 L 242.5 144 L 243.5 142 Z " /><path fill="rgb(232,232,232)" stroke="rgb(232,232,232)" stroke-width="1" opacity="1" d="M 258.5 142 L 259.5 144 L 258.5 142 Z " /><path fill="rgb(232,232,232)" stroke="rgb(232,232,232)" stroke-width="1" opacity="1" d="M 153.5 145 L 154 154.5 L 153 154.5 L 153.5 145 Z " /><path fill="rgb(232,232,232)" stroke="rgb(232,232,232)" stroke-width="1" opacity="1" d="M 241.5 145 L 242 149.5 L 241 149.5 L 241.5 145 Z " /><path fill="rgb(232,232,232)" stroke="rgb(232,232,232)" stroke-width="1" opacity="1" d="M 260.5 146 L 261 148.5 L 260 148.5 L 260.5 146 Z " /><path fill="rgb(232,232,232)" stroke="rgb(232,232,232)" stroke-width="1" opacity="1" d="M 348.5 147 L 349 152.5 L 348 152.5 L 348.5 147 Z " /><path fill="rgb(232,232,232)" stroke="rgb(232,232,232)" stroke-width="1" opacity="1" d="M 244.5 156 L 246.5 159 L 244.5 156 Z " /><path fill="rgb(232,232,232)" stroke="rgb(232,232,232)" stroke-width="1" opacity="1" d="M 256.5 157 L 255.5 159 L 256.5 157 Z " /><path fill="rgb(232,232,232)" stroke="rgb(232,232,232)" stroke-width="1" opacity="1" d="M 190.5 158 L 192 158.5 L 189.5 160 L 190.5 158 Z " /><path fill="rgb(232,232,232)" stroke="rgb(232,232,232)" stroke-width="1" opacity="1" d="M 310.5 158 L 313 159.5 L 311.5 159 L 310.5 158 Z " /><path fill="rgb(232,232,232)" stroke="rgb(232,232,232)" stroke-width="1" opacity="1" d="M 248.5 159 L 249 167.5 L 248 167.5 L 248.5 159 Z " /><path fill="rgb(232,232,232)" stroke="rgb(232,232,232)" stroke-width="1" opacity="1" d="M 347.5 159 L 348 161.5 L 347 161.5 L 347.5 159 Z " /><path fill="rgb(232,232,232)" stroke="rgb(232,232,232)" stroke-width="1" opacity="1" d="M 53.5 160 Q 65.6 158.4 72.5 162 L 84 170.5 L 90 180.5 L 92 189.5 L 95 217.5 L 96 218.5 L 96 224.5 L 97 225.5 L 109 315.5 L 110 316.5 L 110 323.5 L 111 324.5 L 111 330.5 L 112 331.5 L 112 337.5 L 113 338.5 L 113 344.5 L 114 345.5 L 114 351.5 L 115 352.5 L 115 358.5 L 116 359.5 L 116 365.5 L 117 366.5 L 117 372.5 L 118 373.5 L 118 379.5 L 119 380.5 L 119 386.5 L 124 415.5 L 127 447 L 123.5 448 L 121 447 L 117 422.5 L 117 416.5 L 116 415.5 L 116 409.5 L 115 408.5 L 115 402.5 L 114 401.5 L 114 395.5 L 113 394.5 L 113 388.5 L 112 387.5 L 112 381.5 L 111 380.5 L 111 374.5 L 110 373.5 L 110 367.5 L 109 366.5 L 109 360.5 L 108 359.5 L 108 353.5 L 107 352.5 L 107 345.5 L 106 344.5 L 94 254.5 L 93 253.5 L 93 246.5 L 92 245.5 L 85 190.5 L 81 178.5 L 73.5 171 L 64.5 167 L 54.5 167 Q 44.3 169.8 39 177.5 L 35 187.5 L 35 195.5 L 36 196.5 L 38 213.5 L 37 216 Q 32.4 217.3 31 214.5 L 29 197.5 L 28 196.5 L 28 187.5 Q 30.8 174.3 39.5 167 L 53.5 160 Z " /><path fill="rgb(232,232,232)" stroke="rgb(232,232,232)" stroke-width="1" opacity="1" d="M 154.5 160 L 155 162.5 L 154 162.5 L 154.5 160 Z " /><path fill="rgb(232,232,232)" stroke="rgb(232,232,232)" stroke-width="1" opacity="1" d="M 218.5 166 L 219.5 168 L 218.5 166 Z " /><path fill="rgb(232,232,232)" stroke="rgb(232,232,232)" stroke-width="1" opacity="1" d="M 247.5 169 L 246.5 171 L 247.5 169 Z " /><path fill="rgb(232,232,232)" stroke="rgb(232,232,232)" stroke-width="1" opacity="1" d="M 254.5 169 L 256.5 172 L 254.5 169 Z " /><path fill="rgb(232,232,232)" stroke="rgb(232,232,232)" stroke-width="1" opacity="1" d="M 235.5 172 L 235 173.5 L 236 176.5 L 234 175.5 L 235.5 172 Z " /><path fill="rgb(232,232,232)" stroke="rgb(232,232,232)" stroke-width="1" opacity="1" d="M 250.5 173 L 253 174.5 L 251.5 174 L 250.5 173 Z " /><path fill="rgb(232,232,232)" stroke="rgb(232,232,232)" stroke-width="1" opacity="1" d="M 243.5 176 L 246 176.5 L 243.5 177 L 243.5 176 Z " /><path fill="rgb(232,232,232)" stroke="rgb(232,232,232)" stroke-width="1" opacity="1" d="M 256.5 176 L 259 176.5 L 256.5 177 L 256.5 176 Z " /><path fill="rgb(232,232,232)" stroke="rgb(232,232,232)" stroke-width="1" opacity="1" d="M 215.5 177 Q 219.3 176.3 220 178.5 L 218.5 178 Q 214.5 178.8 215.5 177 Z " /><path fill="rgb(232,232,232)" stroke="rgb(232,232,232)" stroke-width="1" opacity="1" d="M 283.5 177 L 287 177.5 L 282.5 179 L 283.5 177 Z " /><path fill="rgb(232,232,232)" stroke="rgb(232,232,232)" stroke-width="1" opacity="1" d="M 208.5 178 L 211 178.5 L 208.5 179 L 208.5 178 Z " /><path fill="rgb(232,232,232)" stroke="rgb(232,232,232)" stroke-width="1" opacity="1" d="M 291.5 178 L 294 178.5 L 291.5 179 L 291.5 178 Z " /><path fill="rgb(232,232,232)" stroke="rgb(232,232,232)" stroke-width="1" opacity="1" d="M 201.5 179 L 204 179.5 L 201.5 180 L 201.5 179 Z " /><path fill="rgb(232,232,232)" stroke="rgb(232,232,232)" stroke-width="1" opacity="1" d="M 298.5 179 L 301 179.5 L 298.5 180 L 298.5 179 Z " /><path fill="rgb(232,232,232)" stroke="rgb(232,232,232)" stroke-width="1" opacity="1" d="M 194.5 180 L 197 180.5 L 194.5 181 L 194.5 180 Z " /><path fill="rgb(232,232,232)" stroke="rgb(232,232,232)" stroke-width="1" opacity="1" d="M 305.5 180 L 308 180.5 L 305.5 181 L 305.5 180 Z " /><path fill="rgb(232,232,232)" stroke="rgb(232,232,232)" stroke-width="1" opacity="1" d="M 213.5 182 L 216 182.5 L 213.5 183 L 213.5 182 Z " /><path fill="rgb(232,232,232)" stroke="rgb(232,232,232)" stroke-width="1" opacity="1" d="M 286.5 182 L 289 182.5 L 286.5 183 L 286.5 182 Z " /><path fill="rgb(232,232,232)" stroke="rgb(232,232,232)" stroke-width="1" opacity="1" d="M 340.5 182 L 340 183.5 L 338.5 186 L 339 184.5 L 340.5 182 Z " /><path fill="rgb(232,232,232)" stroke="rgb(232,232,232)" stroke-width="1" opacity="1" d="M 206.5 183 L 209 183.5 L 206.5 184 L 206.5 183 Z " /><path fill="rgb(232,232,232)" stroke="rgb(232,232,232)" stroke-width="1" opacity="1" d="M 293.5 183 L 296 183.5 L 293.5 184 L 293.5 183 Z " /><path fill="rgb(232,232,232)" stroke="rgb(232,232,232)" stroke-width="1" opacity="1" d="M 199.5 184 L 202 184.5 L 199.5 185 L 199.5 184 Z " /><path fill="rgb(232,232,232)" stroke="rgb(232,232,232)" stroke-width="1" opacity="1" d="M 300.5 184 L 303 184.5 L 300.5 185 L 300.5 184 Z " /><path fill="rgb(232,232,232)" stroke="rgb(232,232,232)" stroke-width="1" opacity="1" d="M 192.5 185 L 195 185.5 L 192.5 186 L 192.5 185 Z " /><path fill="rgb(232,232,232)" stroke="rgb(232,232,232)" stroke-width="1" opacity="1" d="M 307.5 185 L 310 185.5 L 307.5 186 L 307.5 185 Z " /><path fill="rgb(232,232,232)" stroke="rgb(232,232,232)" stroke-width="1" opacity="1" d="M 163.5 186 L 164.5 188 L 163.5 186 Z " /><path fill="rgb(232,232,232)" stroke="rgb(232,232,232)" stroke-width="1" opacity="1" d="M 165.5 189 L 166.5 191 L 165.5 189 Z " /><path fill="rgb(232,232,232)" stroke="rgb(232,232,232)" stroke-width="1" opacity="1" d="M 335.5 190 L 334.5 192 L 335.5 190 Z " /><path fill="rgb(232,232,232)" stroke="rgb(232,232,232)" stroke-width="1" opacity="1" d="M 167.5 192 L 170.5 196 L 167.5 192 Z " /><path fill="rgb(232,232,232)" stroke="rgb(232,232,232)" stroke-width="1" opacity="1" d="M 333.5 193 L 330.5 197 L 333.5 193 Z " /><path fill="rgb(232,232,232)" stroke="rgb(232,232,232)" stroke-width="1" opacity="1" d="M 173.5 199 L 175.5 202 L 173.5 199 Z " /><path fill="rgb(232,232,232)" stroke="rgb(232,232,232)" stroke-width="1" opacity="1" d="M 324.5 202 L 320.5 207 L 324.5 202 Z " /><path fill="rgb(232,232,232)" stroke="rgb(232,232,232)" stroke-width="1" opacity="1" d="M 179.5 204 L 181.5 207 L 179.5 204 Z " /><path fill="rgb(232,232,232)" stroke="rgb(232,232,232)" stroke-width="1" opacity="1" d="M 183.5 207 L 184.5 209 L 183.5 207 Z " /><path fill="rgb(232,232,232)" stroke="rgb(232,232,232)" stroke-width="1" opacity="1" d="M 318.5 207 L 317.5 209 L 318.5 207 Z " /><path fill="rgb(232,232,232)" stroke="rgb(232,232,232)" stroke-width="1" opacity="1" d="M 315.5 209 L 314.5 211 L 315.5 209 Z " /><path fill="rgb(232,232,232)" stroke="rgb(232,232,232)" stroke-width="1" opacity="1" d="M 179.5 210 L 180.5 212 L 179.5 210 Z " /><path fill="rgb(232,232,232)" stroke="rgb(232,232,232)" stroke-width="1" opacity="1" d="M 322.5 210 L 321.5 212 L 322.5 210 Z " /><path fill="rgb(232,232,232)" stroke="rgb(232,232,232)" stroke-width="1" opacity="1" d="M 187.5 211 L 188 212.5 L 186 213.5 L 187.5 211 Z " /><path fill="rgb(232,232,232)" stroke="rgb(232,232,232)" stroke-width="1" opacity="1" d="M 221.5 211 L 225 211.5 L 221.5 212 L 221.5 211 Z " /><path fill="rgb(232,232,232)" stroke="rgb(232,232,232)" stroke-width="1" opacity="1" d="M 277.5 211 L 281 211.5 L 277.5 212 L 277.5 211 Z " /><path fill="rgb(232,232,232)" stroke="rgb(232,232,232)" stroke-width="1" opacity="1" d="M 178.5 212 L 177.5 214 L 178.5 212 Z " /><path fill="rgb(232,232,232)" stroke="rgb(232,232,232)" stroke-width="1" opacity="1" d="M 319.5 212 L 318.5 214 L 319.5 212 Z " /><path fill="rgb(232,232,232)" stroke="rgb(232,232,232)" stroke-width="1" opacity="1" d="M 234.5 214 L 238 216.5 L 236.5 216 L 234.5 214 Z " /><path fill="rgb(232,232,232)" stroke="rgb(232,232,232)" stroke-width="1" opacity="1" d="M 324.5 214 L 325.5 216 L 324.5 214 Z " /><path fill="rgb(232,232,232)" stroke="rgb(232,232,232)" stroke-width="1" opacity="1" d="M 265.5 215 L 264.5 217 L 265.5 215 Z " /><path fill="rgb(232,232,232)" stroke="rgb(232,232,232)" stroke-width="1" opacity="1" d="M 83.5 216 L 79.5 221 L 83.5 216 Z " /><path fill="rgb(232,232,232)" stroke="rgb(232,232,232)" stroke-width="1" opacity="1" d="M 212.5 217 L 211.5 219 L 212.5 217 Z " /><path fill="rgb(232,232,232)" stroke="rgb(232,232,232)" stroke-width="1" opacity="1" d="M 239.5 217 L 240.5 219 L 239.5 217 Z " /><path fill="rgb(232,232,232)" stroke="rgb(232,232,232)" stroke-width="1" opacity="1" d="M 262.5 217 L 261.5 219 L 262.5 217 Z " /><path fill="rgb(232,232,232)" stroke="rgb(232,232,232)" stroke-width="1" opacity="1" d="M 289.5 217 L 291 219.5 L 290 219.5 L 289.5 217 Z " /><path fill="rgb(232,232,232)" stroke="rgb(232,232,232)" stroke-width="1" opacity="1" d="M 419.5 217 L 422.5 221 L 419.5 217 Z " /><path fill="rgb(232,232,232)" stroke="rgb(232,232,232)" stroke-width="1" opacity="1" d="M 246.5 218 L 253 218.5 L 246.5 219 L 246.5 218 Z " /><path fill="rgb(232,232,232)" stroke="rgb(232,232,232)" stroke-width="1" opacity="1" d="M 259.5 219 L 258.5 221 L 257 220.5 L 259.5 219 Z " /><path fill="rgb(232,232,232)" stroke="rgb(232,232,232)" stroke-width="1" opacity="1" d="M 403.5 220 L 402.5 222 L 399.5 223 L 399.5 222 L 403.5 220 Z " /><path fill="rgb(232,232,232)" stroke="rgb(232,232,232)" stroke-width="1" opacity="1" d="M 84.5 221 L 85 223.5 L 84 223.5 L 84.5 221 Z " /><path fill="rgb(232,232,232)" stroke="rgb(232,232,232)" stroke-width="1" opacity="1" d="M 173.5 221 L 172.5 223 L 173.5 221 Z " /><path fill="rgb(232,232,232)" stroke="rgb(232,232,232)" stroke-width="1" opacity="1" d="M 78.5 222 L 78 223.5 L 76.5 226 L 77 224.5 L 78.5 222 Z " /><path fill="rgb(232,232,232)" stroke="rgb(232,232,232)" stroke-width="1" opacity="1" d="M 101.5 226 L 102 228.5 L 101 228.5 L 101.5 226 Z " /><path fill="rgb(232,232,232)" stroke="rgb(232,232,232)" stroke-width="1" opacity="1" d="M 331.5 227 L 334 231.5 L 333 231.5 L 331.5 227 Z " /><path fill="rgb(232,232,232)" stroke="rgb(232,232,232)" stroke-width="1" opacity="1" d="M 85.5 228 L 86 230.5 L 85 230.5 L 85.5 228 Z " /><path fill="rgb(232,232,232)" stroke="rgb(232,232,232)" stroke-width="1" opacity="1" d="M 208.5 229 L 209 233.5 L 208 233.5 L 208.5 229 Z " /><path fill="rgb(232,232,232)" stroke="rgb(232,232,232)" stroke-width="1" opacity="1" d="M 102.5 233 L 103 235.5 L 102 235.5 L 102.5 233 Z " /><path fill="rgb(232,232,232)" stroke="rgb(232,232,232)" stroke-width="1" opacity="1" d="M 86.5 235 L 87 237.5 L 86 237.5 L 86.5 235 Z " /><path fill="rgb(232,232,232)" stroke="rgb(232,232,232)" stroke-width="1" opacity="1" d="M 292.5 237 L 293 239.5 L 292 239.5 L 292.5 237 Z " /><path fill="rgb(232,232,232)" stroke="rgb(232,232,232)" stroke-width="1" opacity="1" d="M 429.5 237 L 430 239.5 L 429 239.5 L 429.5 237 Z " /><path fill="rgb(232,232,232)" stroke="rgb(232,232,232)" stroke-width="1" opacity="1" d="M 103.5 240 L 104 242.5 L 103 242.5 L 103.5 240 Z " /><path fill="rgb(232,232,232)" stroke="rgb(232,232,232)" stroke-width="1" opacity="1" d="M 174.5 240 L 173.5 242 L 171 241.5 L 174.5 240 Z " /><path fill="rgb(232,232,232)" stroke="rgb(232,232,232)" stroke-width="1" opacity="1" d="M 328.5 241 L 331 241.5 L 328.5 242 L 328.5 241 Z " /><path fill="rgb(232,232,232)" stroke="rgb(232,232,232)" stroke-width="1" opacity="1" d="M 290.5 244 L 289.5 246 L 290.5 244 Z " /><path fill="rgb(232,232,232)" stroke="rgb(232,232,232)" stroke-width="1" opacity="1" d="M 212.5 246 L 213.5 248 L 212.5 246 Z " /><path fill="rgb(232,232,232)" stroke="rgb(232,232,232)" stroke-width="1" opacity="1" d="M 104.5 247 L 105 249.5 L 104 249.5 L 104.5 247 Z " /><path fill="rgb(232,232,232)" stroke="rgb(232,232,232)" stroke-width="1" opacity="1" d="M 241.5 247 L 244 248.5 L 242.5 249 L 241.5 247 Z " /><path fill="rgb(232,232,232)" stroke="rgb(232,232,232)" stroke-width="1" opacity="1" d="M 429.5 247 L 427.5 250 L 429.5 247 Z " /><path fill="rgb(232,232,232)" stroke="rgb(232,232,232)" stroke-width="1" opacity="1" d="M 215.5 248 L 218 249.5 L 216.5 250 L 215.5 248 Z " /><path fill="rgb(232,232,232)" stroke="rgb(232,232,232)" stroke-width="1" opacity="1" d="M 286.5 248 L 285.5 250 L 284 249.5 L 286.5 248 Z " /><path fill="rgb(232,232,232)" stroke="rgb(232,232,232)" stroke-width="1" opacity="1" d="M 227.5 249 L 230 249.5 L 227.5 250 L 227.5 249 Z " /><path fill="rgb(232,232,232)" stroke="rgb(232,232,232)" stroke-width="1" opacity="1" d="M 245.5 249 L 248 249.5 L 245.5 250 L 245.5 249 Z " /><path fill="rgb(232,232,232)" stroke="rgb(232,232,232)" stroke-width="1" opacity="1" d="M 249.5 249 L 253 249.5 L 249.5 250 L 249.5 249 Z " /><path fill="rgb(232,232,232)" stroke="rgb(232,232,232)" stroke-width="1" opacity="1" d="M 272.5 249 L 275 249.5 L 272.5 250 L 272.5 249 Z " /><path fill="rgb(232,232,232)" stroke="rgb(232,232,232)" stroke-width="1" opacity="1" d="M 408.5 251 L 411 251.5 L 408.5 252 L 408.5 251 Z " /><path fill="rgb(232,232,232)" stroke="rgb(232,232,232)" stroke-width="1" opacity="1" d="M 128.5 263 L 134 266.5 L 132.5 266 Q 128.5 265.5 128.5 263 Z " /><path fill="rgb(232,232,232)" stroke="rgb(232,232,232)" stroke-width="1" opacity="1" d="M 371.5 264 L 370.5 266 L 366.5 268 L 367.5 266 L 371.5 264 Z " /><path fill="rgb(232,232,232)" stroke="rgb(232,232,232)" stroke-width="1" opacity="1" d="M 153.5 276 L 154.5 278 L 153.5 276 Z " /><path fill="rgb(232,232,232)" stroke="rgb(232,232,232)" stroke-width="1" opacity="1" d="M 348.5 276 L 347.5 278 L 345.5 279 L 346.5 277 L 348.5 276 Z " /><path fill="rgb(232,232,232)" stroke="rgb(232,232,232)" stroke-width="1" opacity="1" d="M 341.5 280 L 340.5 282 L 341.5 280 Z " /><path fill="rgb(232,232,232)" stroke="rgb(232,232,232)" stroke-width="1" opacity="1" d="M 154.5 282 L 155.5 284 L 154.5 282 Z " /><path fill="rgb(232,232,232)" stroke="rgb(232,232,232)" stroke-width="1" opacity="1" d="M 347.5 282 L 346.5 284 L 347.5 282 Z " /><path fill="rgb(232,232,232)" stroke="rgb(232,232,232)" stroke-width="1" opacity="1" d="M 143.5 300 L 144 303.5 L 143 303.5 L 143.5 300 Z " /><path fill="rgb(232,232,232)" stroke="rgb(232,232,232)" stroke-width="1" opacity="1" d="M 358.5 301 L 363 323.5 L 364 339.5 L 365 340.5 L 366 376.5 L 365 377.5 L 365 389.5 L 364 390.5 L 363 402.5 L 357 425.5 Q 348.6 448.6 331.5 463 L 323 467 L 322 459.5 L 320.5 458 L 318 459.5 L 319 470.5 L 324 481.5 L 324 492.5 L 316.5 497 L 299.5 498 L 286 494 L 285 491.5 L 285 473.5 L 287 462 L 284.5 461 Q 281 463.3 282 469 L 220.5 469 L 220 468.5 L 220 461.5 L 216 460 L 215 462.5 L 216 463.5 L 216 474.5 L 217 475.5 L 218 486.5 L 217 491.5 L 213.5 495 L 202.5 498 L 191.5 498 L 182.5 496 L 178 492.5 L 178 480.5 L 183 470.5 L 184 459.5 L 181.5 458 Q 178.1 461 179 467 Q 166.2 462.7 159 451.5 Q 145.7 433.8 140 408.5 L 138 391.5 L 137 390.5 L 137 380.5 L 136 379.5 L 136 351.5 L 137 350.5 L 138 329.5 L 142.5 305 L 143 311.5 L 142 312.5 L 142 322.5 L 141 323.5 L 141 366.5 L 142 367.5 L 142 375.5 L 145 392.5 L 151 411.5 Q 158.1 430.4 171.5 443 L 178.5 448 L 187.5 451 L 313.5 451 L 326.5 446 L 338 434.5 Q 351.3 416.8 357 391.5 L 360 374.5 L 360 365.5 L 361 364.5 L 361 324.5 L 360 323.5 L 360 313.5 L 358 305.5 L 358.5 301 Z " /><path fill="rgb(232,232,232)" stroke="rgb(232,232,232)" stroke-width="1" opacity="1" d="M 448 328 Q 459.5 329.8 466 337.5 Q 474.7 346.8 480 359.5 L 484 375.5 L 484 389.5 L 483 390.5 L 482 401.5 L 475 418.5 Q 466.8 432.8 454.5 443 Q 438.3 456.3 415.5 463 L 393.5 467 L 370.5 467 L 369.5 466 L 353.5 465 L 340 462 L 343.5 457 L 341.5 461 L 371 462 Q 376 453.2 376 438.5 L 375 436 L 387.5 435 L 395.5 432 L 395.5 433 L 394 433.5 L 394 450.5 L 392 459 Q 413.1 455.4 428 444.5 Q 426.8 428.2 417.5 420 L 413.5 423 L 416.5 419 L 419 417.5 L 428.5 404 Q 439.9 414.1 444.5 431 Q 459.8 417.3 466 394.5 L 462.5 390 Q 453.9 380.6 438.5 378 L 437 378.5 L 438 375.5 L 438 360.5 L 437 358.5 L 438.5 359 L 452.5 362 L 467 369 L 466 359.5 L 463 350.5 Q 458.2 338.3 449.5 330 Q 446.9 330.7 448 328 Z " /><path fill="rgb(232,232,232)" stroke="rgb(232,232,232)" stroke-width="1" opacity="1" d="M 435.5 346 L 436 348.5 L 435 348.5 L 435.5 346 Z " /><path fill="rgb(232,232,232)" stroke="rgb(232,232,232)" stroke-width="1" opacity="1" d="M 410.5 424 L 409.5 426 L 410.5 424 Z " /><path fill="rgb(232,232,232)" stroke="rgb(232,232,232)" stroke-width="1" opacity="1" d="M 407.5 426 L 406.5 428 L 407.5 426 Z " /><path fill="rgb(232,232,232)" stroke="rgb(232,232,232)" stroke-width="1" opacity="1" d="M 366.5 435 L 369 435.5 L 366.5 436 L 366.5 435 Z " /><path fill="rgb(232,232,232)" stroke="rgb(232,232,232)" stroke-width="1" opacity="1" d="M 354.5 441 L 353.5 443 L 354.5 441 Z " /><path fill="rgb(232,232,232)" stroke="rgb(232,232,232)" stroke-width="1" opacity="1" d="M 351.5 446 L 350.5 448 L 351.5 446 Z " /><path fill="rgb(232,232,232)" stroke="rgb(232,232,232)" stroke-width="1" opacity="1" d="M 349.5 449 L 348.5 451 L 349.5 449 Z " /><path fill="rgb(232,232,232)" stroke="rgb(232,232,232)" stroke-width="1" opacity="1" d="M 347.5 452 L 345.5 455 L 347.5 452 Z " /><path fill="rgb(234,234,234)" stroke="rgb(234,234,234)" stroke-width="1" opacity="1" d="M 160 57 L 163.5 57 L 187.5 77 L 194.5 81 L 307.5 81 L 338.5 57 L 342 57 L 342 107.5 L 347 131.5 L 348 158.5 Q 343.3 186.8 325.5 202 L 314 210.5 Q 312.2 216.2 318.5 214 L 322.5 211 L 335 234.5 L 327 237 Q 326 240.8 328.5 242 L 388.5 227 L 416.5 216 L 423 221.5 L 429 235.5 L 430 246.5 Q 425.1 253.7 411.5 252 L 408.5 251 L 395.5 254 L 379.5 260 L 340 281.5 Q 338.5 285.9 341.5 285 L 343.5 285 L 352.5 280 L 358 298.5 L 358 305.5 L 360 313.5 L 360 323.5 L 361 324.5 L 361 364.5 L 360 365.5 L 360 374.5 L 357 391.5 L 350 413.5 Q 342.1 433.6 326.5 446 L 313.5 451 L 187.5 451 L 178.5 448 L 168 439.5 L 154 418.5 L 145 392.5 L 142 375.5 L 142 367.5 L 141 366.5 L 141 323.5 L 142 322.5 L 142 312.5 L 143 311.5 L 144 298.5 L 149.5 280 L 159.5 286 L 162 285 L 162 281 L 160.5 281 L 153.5 276 L 124.5 261 L 105 253.5 L 105 247.5 L 101 223 L 120.5 229 L 144.5 234 L 173.5 242 Q 176 240.8 175 237 L 167 235 L 179.5 211 L 183.5 214 L 186.5 214 L 188 211.5 L 187 209 Q 177.4 204.8 171 196.5 Q 160.7 185.3 156 168.5 L 154 159.5 L 154 138.5 L 155 137.5 L 157 117.5 L 160 106.5 L 160 57 Z M 206 117 L 202 122 L 203 127 L 207 129 L 213 128 Q 216 126 215 121 Q 214 116 206 117 Z M 293 117 L 289 121 L 290 127 L 294 129 L 300 128 L 302 124 L 301 120 Q 300 116 293 117 Z M 246 141 L 244 142 L 241 146 Q 241 155 247 159 L 248 160 L 248 169 L 244 172 L 236 172 L 234 174 L 236 177 Q 246 179 250 174 L 257 177 L 267 177 L 267 176 L 267 174 L 267 172 L 258 172 Q 252 170 253 161 L 256 159 Q 260 155 261 149 L 260 144 Q 256 139 246 141 Z M 191 158 Q 188 159 189 163 L 219 171 L 220 168 L 217 165 L 191 158 Z M 311 158 L 285 166 L 282 166 L 282 171 L 287 171 L 312 163 Q 314 164 313 160 L 311 158 Z M 216 177 L 215 178 L 189 181 L 188 184 L 189 186 L 216 183 L 217 182 Q 222 184 220 179 Q 219 176 216 177 Z M 284 177 Q 281 178 282 182 L 307 185 L 308 186 Q 316 189 313 181 L 284 177 Z M 222 211 L 214 214 L 210 221 L 208 230 L 209 240 L 212 247 L 217 250 Q 231 252 239 247 L 246 250 Q 256 251 261 246 L 273 250 L 286 250 Q 291 247 293 240 Q 295 226 291 219 Q 288 213 281 211 L 270 213 L 259 220 L 253 218 Q 247 217 246 219 L 242 219 L 230 212 L 222 211 Z " /><path fill="rgb(234,234,234)" stroke="rgb(234,234,234)" stroke-width="1" opacity="1" d="M 83.5 217 L 88 252 L 81.5 252 L 73 249 Q 71.1 246.3 72 239.5 L 76 226.5 L 83.5 217 Z " /><path fill="rgb(234,234,234)" stroke="rgb(234,234,234)" stroke-width="1" opacity="1" d="M 443.5 328 L 448 328 Q 446.9 330.7 449.5 330 Q 458.2 338.3 463 350.5 L 466 359.5 L 467 369 L 452.5 362 L 441.5 360 L 437 357.5 L 437 352.5 L 435 345.5 L 435 337.5 L 439.5 330 L 443.5 328 Z " /><path fill="rgb(234,234,234)" stroke="rgb(234,234,234)" stroke-width="1" opacity="1" d="M 438.5 378 Q 455.1 380.9 464 391.5 L 466 394.5 Q 459.8 417.3 444.5 431 Q 439.6 414.4 429 403.5 L 435 391.5 L 437 379.5 L 438.5 378 Z " /><path fill="rgb(234,234,234)" stroke="rgb(234,234,234)" stroke-width="1" opacity="1" d="M 416.5 420 L 420 422.5 Q 427 430.5 428 444.5 Q 413.1 455.4 392 459 L 394 450.5 L 394 433 Q 407.8 429.5 416.5 420 Z " /><path fill="rgb(234,234,234)" stroke="rgb(234,234,234)" stroke-width="1" opacity="1" d="M 358 434 L 366.5 436 L 375 436 Q 376.7 438.4 376 444.5 L 374 454.5 L 371 462 L 348.5 462 L 341 460.5 Q 352.2 449.4 358 434 Z " /></svg>