<svg width="512" height="512" version="1.1" xmlns="http://www.w3.org/2000/svg" desc="Created with imagetracer.js version 1.2.6" ><path fill="rgb(0,0,0)" stroke="rgb(0,0,0)" stroke-width="1" opacity="0" d="M 0 0 L 512 0 L 512 512 L 0 512 L 0 0 Z M 85 10 L 81 12 L 80 15 L 80 73 L 78 78 L 76 96 L 75 97 L 75 104 L 74 105 L 74 113 L 73 114 L 74 136 L 80 156 Q 88 174 103 187 L 83 226 L 69 264 L 59 304 L 56 331 L 55 332 L 55 342 L 54 343 L 54 389 L 55 390 L 55 397 L 59 420 L 68 446 L 83 470 Q 94 485 115 488 L 116 495 L 124 500 L 132 502 L 155 502 L 167 498 Q 171 496 172 490 L 174 488 L 205 488 L 208 496 L 213 499 L 223 502 L 247 502 L 260 497 Q 264 495 263 488 Q 277 487 285 479 L 301 483 L 313 484 L 314 485 L 324 485 L 325 486 L 351 486 L 379 481 Q 407 473 427 455 Q 441 442 450 425 L 456 409 L 458 399 L 458 375 L 456 365 Q 452 349 443 338 Q 433 323 415 318 L 404 319 L 396 324 L 393 332 L 393 346 L 396 359 L 396 380 L 393 393 Q 387 410 376 422 Q 373 421 374 424 L 355 436 L 335 441 L 325 441 L 313 439 L 313 436 L 319 419 L 323 397 L 323 387 L 324 386 L 324 346 L 323 345 L 323 334 L 322 333 L 320 311 L 315 286 L 307 258 L 299 236 L 282 200 L 274 187 L 278 184 Q 290 172 298 156 L 304 136 L 304 127 L 305 126 L 303 98 L 302 97 L 300 79 L 298 74 L 298 16 L 296 11 L 294 10 L 287 10 L 256 35 L 233 28 Q 226 29 223 26 L 216 26 L 215 25 L 205 25 L 204 24 L 175 24 L 174 25 L 164 25 L 138 30 L 124 35 L 92 10 L 85 10 Z M 348 40 L 343 42 L 335 52 L 335 122 L 339 129 L 347 133 L 370 134 L 348 170 L 346 176 L 349 177 L 403 133 L 461 133 L 466 130 L 472 120 L 472 54 L 468 46 L 460 40 L 348 40 Z " /><path fill="rgb(99,97,99)" stroke="rgb(99,97,99)" stroke-width="1" opacity="0.9568627450980393" d="M 84.5 10 L 91.5 10 L 123.5 35 L 137.5 30 L 163.5 25 L 173.5 25 L 174.5 24 L 203.5 24 L 204.5 25 L 214.5 25 L 215.5 26 L 222.5 26 Q 225.8 28.7 232.5 28 L 255.5 35 L 286.5 10 L 293.5 10 L 296 11 L 298 15.5 L 298 73.5 L 300 78.5 L 302 96.5 L 303 97.5 L 305 125.5 L 304 126.5 L 304 135.5 L 298 155.5 Q 290.2 172.2 277.5 184 L 274 186.5 L 282 199.5 L 299 235.5 L 307 257.5 L 315 285.5 L 320 310.5 L 322 332.5 L 323 333.5 L 323 344.5 L 324 345.5 L 324 385.5 L 323 386.5 L 323 396.5 L 319 418.5 L 313 435.5 L 313 439 L 324.5 441 L 334.5 441 L 354.5 436 L 374 424 Q 372.9 421.3 375.5 422 Q 387.4 410.4 393 392.5 L 396 379.5 L 396 358.5 L 393 345.5 L 393 331.5 L 396 324 L 403.5 319 L 414.5 318 Q 433.4 323.1 443 337.5 Q 451.8 348.7 456 364.5 L 458 374.5 L 458 398.5 L 456 408.5 L 450 424.5 Q 440.6 442.1 426.5 455 Q 407.1 472.6 378.5 481 L 350.5 486 L 324.5 486 L 323.5 485 L 313.5 485 L 312.5 484 L 300.5 483 L 284.5 479 Q 276.8 487.1 263 488 Q 264.1 494.7 259.5 497 L 246.5 502 L 222.5 502 L 212.5 499 L 208 495.5 L 205 488 L 173.5 488 L 172 489.5 Q 171.4 495.9 166.5 498 L 154.5 502 L 131.5 502 L 123.5 500 L 116 494.5 L 115 488 Q 93.5 484.8 83 469.5 L 68 445.5 L 59 419.5 L 55 396.5 L 55 389.5 L 54 388.5 L 54 342.5 L 55 341.5 L 55 331.5 L 56 330.5 L 59 303.5 L 69 263.5 L 83 225.5 L 103 186.5 Q 88.2 174.3 80 155.5 L 74 135.5 L 73 113.5 L 74 112.5 L 74 104.5 L 75 103.5 L 75 96.5 L 76 95.5 L 78 77.5 L 80 72.5 L 80 14.5 L 81 12 L 84.5 10 Z M 87 14 L 84 17 L 84 75 L 82 81 L 80 99 L 79 100 L 79 107 L 78 108 L 78 133 L 80 143 Q 87 164 101 179 L 114 188 Q 117 189 116 193 L 114 193 L 108 189 Q 86 223 73 266 L 63 307 L 61 325 L 60 326 L 60 333 L 59 334 L 59 344 L 58 345 L 58 385 L 59 386 L 59 395 L 63 417 Q 70 445 85 465 L 101 479 L 115 484 L 116 474 L 121 464 L 122 448 L 123 447 L 123 432 L 122 431 L 121 413 L 105 348 Q 104 342 107 341 L 109 345 L 123 404 L 126 421 L 126 435 L 127 436 L 125 465 L 119 478 L 119 491 L 120 493 L 126 496 L 135 498 L 152 498 L 165 494 L 169 487 L 169 476 L 167 469 L 167 457 L 166 456 L 165 420 L 164 419 L 164 393 L 163 392 L 163 369 L 164 368 L 166 344 Q 168 339 170 343 L 168 366 L 167 367 L 167 398 L 168 399 L 169 442 L 170 443 L 171 469 L 173 477 L 173 484 L 174 484 L 205 484 Q 204 474 207 468 L 207 457 L 208 456 L 209 419 L 210 418 L 210 391 L 211 390 L 211 370 L 210 369 L 208 345 L 208 343 Q 207 340 210 341 L 212 346 Q 211 351 213 353 L 214 380 L 215 381 L 214 383 L 214 415 L 213 416 L 212 453 L 211 454 L 211 467 L 209 474 Q 207 484 210 491 L 215 495 L 227 498 L 244 498 L 257 494 L 259 490 L 259 479 L 253 465 L 252 449 L 251 448 L 251 431 L 252 430 L 253 413 L 270 341 L 273 343 L 268 369 L 259 403 L 256 419 L 256 428 L 255 429 L 256 460 L 257 465 L 262 475 L 264 484 Q 274 482 281 477 Q 297 463 306 443 L 316 412 L 318 394 L 319 393 L 319 384 L 320 383 L 320 348 L 319 347 L 318 327 L 308 277 Q 294 228 271 189 L 265 193 L 261 192 L 270 185 Q 294 167 300 132 L 300 110 L 299 109 L 299 101 L 298 100 L 296 82 L 294 76 L 294 18 L 292 14 L 289 14 L 257 40 L 230 32 L 212 30 L 211 29 L 168 29 Q 166 32 160 30 L 140 34 L 124 40 L 119 38 L 90 14 L 87 14 Z M 411 322 L 404 324 Q 399 327 397 334 L 397 344 L 401 364 L 401 375 L 398 392 Q 393 409 383 421 Q 368 440 339 445 Q 321 447 311 442 Q 303 461 289 475 L 291 476 L 304 479 L 317 480 L 318 481 L 332 481 L 333 482 L 356 481 L 380 476 Q 403 469 420 455 Q 434 444 443 428 L 451 410 L 454 395 L 454 379 L 451 364 Q 447 349 438 339 Q 429 325 411 322 Z " /><path fill="rgb(99,97,99)" stroke="rgb(99,97,99)" stroke-width="1" opacity="0.9568627450980393" d="M 347.5 40 L 459.5 40 L 468 45.5 L 472 53.5 L 472 119.5 L 465.5 130 L 460.5 133 L 402.5 133 L 348.5 177 L 346 176 L 348 169.5 L 370 133.5 L 346.5 133 L 339 129 L 335 121.5 L 335 51.5 L 342.5 42 L 347.5 40 Z M 351 44 L 344 47 L 339 55 L 339 119 L 341 124 Q 344 128 350 129 L 376 129 L 375 135 L 358 163 L 401 129 L 458 129 L 462 127 L 467 121 L 467 54 L 466 51 Q 463 45 456 44 L 351 44 Z " /><path fill="rgb(99,97,99)" stroke="rgb(99,97,99)" stroke-width="1" opacity="0.9568627450980393" d="M 352.5 71 L 355 72.5 L 355 84 L 367 84 L 367 72.5 L 368.5 71 L 371 72.5 L 371 84.5 L 372 86.5 L 371 87.5 L 371 101 L 367 99.5 L 367 88 L 355 88 L 355 99.5 L 353.5 101 L 351 99.5 L 351 72.5 L 352.5 71 Z " /><path fill="rgb(99,97,99)" stroke="rgb(99,97,99)" stroke-width="1" opacity="0.9568627450980393" d="M 376.5 71 L 391.5 71 L 392 75 L 379 75 L 379 84 L 388 84 L 388 88 L 379 88 L 379 97 L 390.5 97 L 392 98.5 L 390.5 101 L 376.5 101 L 375 99.5 L 375 72.5 L 376.5 71 Z " /><path fill="rgb(99,97,99)" stroke="rgb(99,97,99)" stroke-width="1" opacity="0.9568627450980393" d="M 397.5 71 L 400 72.5 L 400 97 L 411.5 97 L 413 99.5 L 411.5 101 L 397.5 101 L 396 99.5 L 396 72.5 L 397.5 71 Z " /><path fill="rgb(99,97,99)" stroke="rgb(99,97,99)" stroke-width="1" opacity="0.9568627450980393" d="M 417 71 L 421 72.5 L 421 97 L 433 97 L 433 101 L 417 101 L 417 71 Z " /><path fill="rgb(99,97,99)" stroke="rgb(99,97,99)" stroke-width="1" opacity="0.9568627450980393" d="M 441.5 71 Q 450.4 70.6 453 76.5 Q 456.8 81.2 455 91.5 L 448.5 100 L 441.5 101 L 437 99 L 433 92.5 L 432 84.5 L 434 77.5 L 439.5 72 L 441.5 71 Z M 444 75 L 439 77 L 437 82 Q 436 91 439 95 Q 440 98 446 97 L 451 91 Q 453 83 450 80 L 444 75 Z " /><path fill="rgb(99,97,99)" stroke="rgb(99,97,99)" stroke-width="1" opacity="0.9568627450980393" d="M 138.5 84 Q 145.8 82.8 147 87.5 Q 147.6 92.9 146 95 L 140.5 97 L 135 93.5 L 134 89.5 L 136 85 L 138.5 84 Z " /><path fill="rgb(99,97,99)" stroke="rgb(99,97,99)" stroke-width="1" opacity="0.9568627450980393" d="M 236.5 84 Q 243.5 82.5 245 86.5 L 246 91.5 L 242.5 96 L 238.5 97 L 233 92.5 Q 231.8 85.3 236.5 84 Z " /><path fill="rgb(99,97,99)" stroke="rgb(99,97,99)" stroke-width="1" opacity="0.9568627450980393" d="M 186.5 111 L 195.5 112 L 199 115.5 L 199 122.5 L 191 132.5 L 191 141.5 L 194.5 146 Q 198 148.5 205.5 147 L 207 148.5 L 205.5 151 Q 194.4 152.3 190 148 Q 191.1 145.3 188.5 146 Q 184.5 152.5 172.5 151 L 171 147 L 181.5 147 L 186 143.5 Q 188.5 140 187 132.5 L 183 130 L 179 122.5 L 179 115.5 L 180 113 L 186.5 111 Z " /><path fill="rgb(99,97,99)" stroke="rgb(99,97,99)" stroke-width="1" opacity="0.9568627450980393" d="M 119 132 L 124.5 132 L 145.5 138 L 153 141.5 L 151.5 144 L 119 135 L 119 132 Z " /><path fill="rgb(99,97,99)" stroke="rgb(99,97,99)" stroke-width="1" opacity="0.9568627450980393" d="M 253.5 132 Q 258 131 259 133.5 L 256.5 136 L 225 144 L 226.5 140 L 253.5 132 Z " /><path fill="rgb(99,97,99)" stroke="rgb(99,97,99)" stroke-width="1" opacity="0.9568627450980393" d="M 147.5 153 L 153 153 L 153 155.5 L 151.5 157 L 120.5 161 L 119 158.5 L 125.5 156 L 139.5 155 L 147.5 153 Z " /><path fill="rgb(99,97,99)" stroke="rgb(99,97,99)" stroke-width="1" opacity="0.9568627450980393" d="M 225 153 L 257.5 157 L 259 158.5 L 257.5 161 L 226.5 157 L 225 155.5 L 225 153 Z " /><path fill="rgb(235,194,193)" stroke="rgb(235,194,193)" stroke-width="1" opacity="1" d="M 89.5 14 L 90.5 16 L 89.5 14 Z " /><path fill="rgb(235,194,193)" stroke="rgb(235,194,193)" stroke-width="1" opacity="1" d="M 288.5 14 L 287.5 16 L 288.5 14 Z " /><path fill="rgb(235,194,193)" stroke="rgb(235,194,193)" stroke-width="1" opacity="1" d="M 291.5 14 L 292.5 16 L 291.5 14 Z " /><path fill="rgb(235,194,193)" stroke="rgb(235,194,193)" stroke-width="1" opacity="1" d="M 84.5 16 L 85 71.5 L 84 71.5 L 84.5 16 Z " /><path fill="rgb(235,194,193)" stroke="rgb(235,194,193)" stroke-width="1" opacity="1" d="M 284.5 17 L 282.5 20 L 284.5 17 Z " /><path fill="rgb(235,194,193)" stroke="rgb(235,194,193)" stroke-width="1" opacity="1" d="M 293.5 17 L 294 72.5 L 293 72.5 L 293.5 17 Z " /><path fill="rgb(235,194,193)" stroke="rgb(235,194,193)" stroke-width="1" opacity="1" d="M 94.5 18 L 95.5 20 L 94.5 18 Z " /><path fill="rgb(235,194,193)" stroke="rgb(235,194,193)" stroke-width="1" opacity="1" d="M 279.5 21 L 277.5 24 L 279.5 21 Z " /><path fill="rgb(235,194,193)" stroke="rgb(235,194,193)" stroke-width="1" opacity="1" d="M 99.5 22 L 100.5 24 L 99.5 22 Z " /><path fill="rgb(235,194,193)" stroke="rgb(235,194,193)" stroke-width="1" opacity="1" d="M 274.5 25 L 272.5 28 L 274.5 25 Z " /><path fill="rgb(235,194,193)" stroke="rgb(235,194,193)" stroke-width="1" opacity="1" d="M 104.5 26 L 105.5 28 L 104.5 26 Z " /><path fill="rgb(235,194,193)" stroke="rgb(235,194,193)" stroke-width="1" opacity="1" d="M 167.5 29 L 171 29.5 L 167.5 30 L 167.5 29 Z " /><path fill="rgb(235,194,193)" stroke="rgb(235,194,193)" stroke-width="1" opacity="1" d="M 207.5 29 L 211 29.5 L 207.5 30 L 207.5 29 Z " /><path fill="rgb(235,194,193)" stroke="rgb(235,194,193)" stroke-width="1" opacity="1" d="M 269.5 29 L 267.5 32 L 269.5 29 Z " /><path fill="rgb(235,194,193)" stroke="rgb(235,194,193)" stroke-width="1" opacity="1" d="M 109.5 30 L 110.5 32 L 109.5 30 Z " /><path fill="rgb(235,194,193)" stroke="rgb(235,194,193)" stroke-width="1" opacity="1" d="M 159.5 30 L 162 30.5 L 159.5 31 L 159.5 30 Z " /><path fill="rgb(235,194,193)" stroke="rgb(235,194,193)" stroke-width="1" opacity="1" d="M 216.5 30 L 219 30.5 L 216.5 31 L 216.5 30 Z " /><path fill="rgb(235,194,193)" stroke="rgb(235,194,193)" stroke-width="1" opacity="1" d="M 264.5 33 L 262.5 36 L 264.5 33 Z " /><path fill="rgb(235,194,193)" stroke="rgb(235,194,193)" stroke-width="1" opacity="1" d="M 114.5 34 L 115.5 36 L 114.5 34 Z " /><path fill="rgb(235,194,193)" stroke="rgb(235,194,193)" stroke-width="1" opacity="1" d="M 259.5 37 L 257.5 40 L 259.5 37 Z " /><path fill="rgb(235,194,193)" stroke="rgb(235,194,193)" stroke-width="1" opacity="1" d="M 119.5 38 L 120.5 40 L 119.5 38 Z " /><path fill="rgb(235,194,193)" stroke="rgb(235,194,193)" stroke-width="1" opacity="1" d="M 350.5 44 L 455.5 44 Q 462.9 45.1 466 50.5 L 467 53.5 L 467 120.5 L 461.5 127 L 457.5 129 L 400.5 129 L 357.5 164 L 358 162.5 L 375 134.5 L 376 129 L 349.5 129 Q 343.8 127.8 341 123.5 L 339 118.5 L 339 54.5 L 343.5 47 L 350.5 44 Z M 353 71 L 351 73 L 351 100 L 354 101 L 355 100 L 355 88 L 367 88 L 367 100 L 371 101 L 371 88 L 372 87 L 371 85 L 371 73 L 369 71 L 367 73 L 367 84 L 355 84 L 355 73 L 353 71 Z M 377 71 L 375 73 L 375 100 L 377 101 L 391 101 L 392 99 L 391 97 L 379 97 L 379 88 L 388 88 L 388 84 L 379 84 L 379 75 L 392 75 L 392 71 L 377 71 Z M 398 71 L 396 73 L 396 100 L 398 101 L 412 101 L 413 100 L 412 97 L 400 97 L 400 73 L 398 71 Z M 417 71 L 417 101 L 433 101 L 433 97 L 421 97 L 421 73 L 417 71 Z M 442 71 L 440 72 L 434 78 L 432 85 L 433 93 L 437 99 L 442 101 L 449 100 L 455 92 Q 457 81 453 77 Q 450 71 442 71 Z " /><path fill="rgb(235,194,193)" stroke="rgb(235,194,193)" stroke-width="1" opacity="1" d="M 443.5 75 L 450 79.5 Q 452.5 83 451 90.5 L 445.5 97 Q 440.4 97.6 439 94.5 Q 435.5 90.5 437 81.5 L 439 77 L 443.5 75 Z " /><path fill="rgb(235,194,193)" stroke="rgb(235,194,193)" stroke-width="1" opacity="1" d="M 295.5 81 L 296 83.5 L 295 83.5 L 295.5 81 Z " /><path fill="rgb(235,194,193)" stroke="rgb(235,194,193)" stroke-width="1" opacity="1" d="M 139.5 83 L 143 83.5 L 139.5 84 L 139.5 83 Z " /><path fill="rgb(235,194,193)" stroke="rgb(235,194,193)" stroke-width="1" opacity="1" d="M 238.5 83 L 241 83.5 L 238.5 84 L 238.5 83 Z " /><path fill="rgb(235,194,193)" stroke="rgb(235,194,193)" stroke-width="1" opacity="1" d="M 144.5 84 L 146.5 87 L 144.5 84 Z " /><path fill="rgb(235,194,193)" stroke="rgb(235,194,193)" stroke-width="1" opacity="1" d="M 235.5 84 L 234.5 86 L 235.5 84 Z " /><path fill="rgb(235,194,193)" stroke="rgb(235,194,193)" stroke-width="1" opacity="1" d="M 296.5 87 L 297 89.5 L 296 89.5 L 296.5 87 Z " /><path fill="rgb(235,194,193)" stroke="rgb(235,194,193)" stroke-width="1" opacity="1" d="M 147.5 88 L 148 91.5 L 147 91.5 L 147.5 88 Z " /><path fill="rgb(235,194,193)" stroke="rgb(235,194,193)" stroke-width="1" opacity="1" d="M 80.5 92 L 81 94.5 L 80 94.5 L 80.5 92 Z " /><path fill="rgb(235,194,193)" stroke="rgb(235,194,193)" stroke-width="1" opacity="1" d="M 233.5 93 L 235.5 96 L 233.5 93 Z " /><path fill="rgb(235,194,193)" stroke="rgb(235,194,193)" stroke-width="1" opacity="1" d="M 297.5 93 L 298 95.5 L 297 95.5 L 297.5 93 Z " /><path fill="rgb(235,194,193)" stroke="rgb(235,194,193)" stroke-width="1" opacity="1" d="M 244.5 94 L 243.5 96 L 244.5 94 Z " /><path fill="rgb(235,194,193)" stroke="rgb(235,194,193)" stroke-width="1" opacity="1" d="M 79.5 99 L 80 101.5 L 79 101.5 L 79.5 99 Z " /><path fill="rgb(235,194,193)" stroke="rgb(235,194,193)" stroke-width="1" opacity="1" d="M 298.5 100 L 299 103.5 L 298 103.5 L 298.5 100 Z " /><path fill="rgb(235,194,193)" stroke="rgb(235,194,193)" stroke-width="1" opacity="1" d="M 78.5 107 L 79 110.5 L 78 110.5 L 78.5 107 Z " /><path fill="rgb(235,194,193)" stroke="rgb(235,194,193)" stroke-width="1" opacity="1" d="M 299.5 109 L 300 112.5 L 299 112.5 L 299.5 109 Z " /><path fill="rgb(235,194,193)" stroke="rgb(235,194,193)" stroke-width="1" opacity="1" d="M 196.5 112 L 198.5 115 L 196.5 112 Z " /><path fill="rgb(235,194,193)" stroke="rgb(235,194,193)" stroke-width="1" opacity="1" d="M 178.5 116 L 179 120.5 L 178 120.5 L 178.5 116 Z " /><path fill="rgb(235,194,193)" stroke="rgb(235,194,193)" stroke-width="1" opacity="1" d="M 199.5 116 L 200 119.5 L 199 119.5 L 199.5 116 Z " /><path fill="rgb(235,194,193)" stroke="rgb(235,194,193)" stroke-width="1" opacity="1" d="M 181.5 127 L 182.5 129 L 181.5 127 Z " /><path fill="rgb(235,194,193)" stroke="rgb(235,194,193)" stroke-width="1" opacity="1" d="M 196.5 127 L 193.5 131 L 196.5 127 Z " /><path fill="rgb(235,194,193)" stroke="rgb(235,194,193)" stroke-width="1" opacity="1" d="M 299.5 128 L 300 131.5 L 299 131.5 L 299.5 128 Z " /><path fill="rgb(235,194,193)" stroke="rgb(235,194,193)" stroke-width="1" opacity="1" d="M 78.5 130 L 79 132.5 L 78 132.5 L 78.5 130 Z " /><path fill="rgb(235,194,193)" stroke="rgb(235,194,193)" stroke-width="1" opacity="1" d="M 184.5 130 L 187 132.5 L 187 141.5 L 186 141.5 Q 187.3 132.3 184.5 130 Z " /><path fill="rgb(235,194,193)" stroke="rgb(235,194,193)" stroke-width="1" opacity="1" d="M 120.5 131 L 123 131.5 L 120.5 132 L 120.5 131 Z " /><path fill="rgb(235,194,193)" stroke="rgb(235,194,193)" stroke-width="1" opacity="1" d="M 255.5 131 L 259 132.5 L 257.5 132 Q 254.5 132.5 255.5 131 Z " /><path fill="rgb(235,194,193)" stroke="rgb(235,194,193)" stroke-width="1" opacity="1" d="M 258.5 134 L 257.5 136 L 258.5 134 Z " /><path fill="rgb(235,194,193)" stroke="rgb(235,194,193)" stroke-width="1" opacity="1" d="M 225.5 140 L 225 141.5 L 224.5 143 L 224 141.5 L 225.5 140 Z " /><path fill="rgb(235,194,193)" stroke="rgb(235,194,193)" stroke-width="1" opacity="1" d="M 185.5 143 L 183.5 146 L 185.5 143 Z " /><path fill="rgb(235,194,193)" stroke="rgb(235,194,193)" stroke-width="1" opacity="1" d="M 172.5 146 L 182 146.5 L 172.5 147 L 172.5 146 Z " /><path fill="rgb(235,194,193)" stroke="rgb(235,194,193)" stroke-width="1" opacity="1" d="M 188.5 146 L 190 146.5 L 186.5 149 L 188.5 146 Z " /><path fill="rgb(235,194,193)" stroke="rgb(235,194,193)" stroke-width="1" opacity="1" d="M 196.5 146 L 205 146.5 L 196.5 147 L 196.5 146 Z " /><path fill="rgb(235,194,193)" stroke="rgb(235,194,193)" stroke-width="1" opacity="1" d="M 170.5 148 L 172 150.5 L 170 149.5 L 170.5 148 Z " /><path fill="rgb(235,194,193)" stroke="rgb(235,194,193)" stroke-width="1" opacity="1" d="M 191.5 148 L 192.5 150 L 191.5 148 Z " /><path fill="rgb(235,194,193)" stroke="rgb(235,194,193)" stroke-width="1" opacity="1" d="M 144.5 153 L 147 153.5 L 144.5 154 L 144.5 153 Z " /><path fill="rgb(235,194,193)" stroke="rgb(235,194,193)" stroke-width="1" opacity="1" d="M 231.5 153 L 234 153.5 L 231.5 154 L 231.5 153 Z " /><path fill="rgb(235,194,193)" stroke="rgb(235,194,193)" stroke-width="1" opacity="1" d="M 136.5 154 L 140 154.5 L 136.5 155 L 136.5 154 Z " /><path fill="rgb(235,194,193)" stroke="rgb(235,194,193)" stroke-width="1" opacity="1" d="M 224.5 154 L 226 156.5 L 224 155.5 L 224.5 154 Z " /><path fill="rgb(235,194,193)" stroke="rgb(235,194,193)" stroke-width="1" opacity="1" d="M 238.5 154 L 241 154.5 L 238.5 155 L 238.5 154 Z " /><path fill="rgb(235,194,193)" stroke="rgb(235,194,193)" stroke-width="1" opacity="1" d="M 129.5 155 L 132 155.5 L 129.5 156 L 129.5 155 Z " /><path fill="rgb(235,194,193)" stroke="rgb(235,194,193)" stroke-width="1" opacity="1" d="M 245.5 155 L 248 155.5 L 245.5 156 L 245.5 155 Z " /><path fill="rgb(235,194,193)" stroke="rgb(235,194,193)" stroke-width="1" opacity="1" d="M 122.5 156 L 125 156.5 L 122.5 157 L 122.5 156 Z " /><path fill="rgb(235,194,193)" stroke="rgb(235,194,193)" stroke-width="1" opacity="1" d="M 252.5 156 L 256 156.5 L 252.5 157 L 252.5 156 Z " /><path fill="rgb(235,194,193)" stroke="rgb(235,194,193)" stroke-width="1" opacity="1" d="M 146.5 157 L 149 157.5 L 146.5 158 L 146.5 157 Z " /><path fill="rgb(235,194,193)" stroke="rgb(235,194,193)" stroke-width="1" opacity="1" d="M 229.5 157 L 232 157.5 L 229.5 158 L 229.5 157 Z " /><path fill="rgb(235,194,193)" stroke="rgb(235,194,193)" stroke-width="1" opacity="1" d="M 139.5 158 L 142 158.5 L 139.5 159 L 139.5 158 Z " /><path fill="rgb(235,194,193)" stroke="rgb(235,194,193)" stroke-width="1" opacity="1" d="M 236.5 158 L 239 158.5 L 236.5 159 L 236.5 158 Z " /><path fill="rgb(235,194,193)" stroke="rgb(235,194,193)" stroke-width="1" opacity="1" d="M 132.5 159 L 135 159.5 L 132.5 160 L 132.5 159 Z " /><path fill="rgb(235,194,193)" stroke="rgb(235,194,193)" stroke-width="1" opacity="1" d="M 243.5 159 L 246 159.5 L 243.5 160 L 243.5 159 Z " /><path fill="rgb(235,194,193)" stroke="rgb(235,194,193)" stroke-width="1" opacity="1" d="M 125.5 160 L 128 160.5 L 125.5 161 L 125.5 160 Z " /><path fill="rgb(235,194,193)" stroke="rgb(235,194,193)" stroke-width="1" opacity="1" d="M 250.5 160 L 253 160.5 L 250.5 161 L 250.5 160 Z " /><path fill="rgb(235,194,193)" stroke="rgb(235,194,193)" stroke-width="1" opacity="1" d="M 88.5 161 L 89.5 163 L 88.5 161 Z " /><path fill="rgb(235,194,193)" stroke="rgb(235,194,193)" stroke-width="1" opacity="1" d="M 287.5 164 L 286.5 166 L 287.5 164 Z " /><path fill="rgb(235,194,193)" stroke="rgb(235,194,193)" stroke-width="1" opacity="1" d="M 285.5 167 L 284.5 169 L 285.5 167 Z " /><path fill="rgb(235,194,193)" stroke="rgb(235,194,193)" stroke-width="1" opacity="1" d="M 94.5 170 L 96.5 173 L 94.5 170 Z " /><path fill="rgb(235,194,193)" stroke="rgb(235,194,193)" stroke-width="1" opacity="1" d="M 282.5 171 L 280.5 174 L 282.5 171 Z " /><path fill="rgb(235,194,193)" stroke="rgb(235,194,193)" stroke-width="1" opacity="1" d="M 101.5 178 L 102.5 180 L 101.5 178 Z " /><path fill="rgb(235,194,193)" stroke="rgb(235,194,193)" stroke-width="1" opacity="1" d="M 271.5 182 L 269.5 185 L 271.5 182 Z " /><path fill="rgb(235,194,193)" stroke="rgb(235,194,193)" stroke-width="1" opacity="1" d="M 107.5 183 L 109.5 186 L 107.5 183 Z " /><path fill="rgb(235,194,193)" stroke="rgb(235,194,193)" stroke-width="1" opacity="1" d="M 266.5 186 L 265.5 188 L 266.5 186 Z " /><path fill="rgb(235,194,193)" stroke="rgb(235,194,193)" stroke-width="1" opacity="1" d="M 263.5 188 L 261.5 191 L 263.5 188 Z " /><path fill="rgb(235,194,193)" stroke="rgb(235,194,193)" stroke-width="1" opacity="1" d="M 107.5 189 L 106.5 191 L 107.5 189 Z " /><path fill="rgb(235,194,193)" stroke="rgb(235,194,193)" stroke-width="1" opacity="1" d="M 109.5 190 L 110.5 192 L 109.5 190 Z " /><path fill="rgb(235,194,193)" stroke="rgb(235,194,193)" stroke-width="1" opacity="1" d="M 261.5 192 L 264 193.5 L 262.5 194 L 261.5 192 Z " /><path fill="rgb(235,194,193)" stroke="rgb(235,194,193)" stroke-width="1" opacity="1" d="M 63.5 306 L 64 308.5 L 63 308.5 L 63.5 306 Z " /><path fill="rgb(235,194,193)" stroke="rgb(235,194,193)" stroke-width="1" opacity="1" d="M 314.5 307 L 315 309.5 L 314 309.5 L 314.5 307 Z " /><path fill="rgb(235,194,193)" stroke="rgb(235,194,193)" stroke-width="1" opacity="1" d="M 62.5 312 L 63 314.5 L 62 314.5 L 62.5 312 Z " /><path fill="rgb(235,194,193)" stroke="rgb(235,194,193)" stroke-width="1" opacity="1" d="M 315.5 313 L 316 315.5 L 315 315.5 L 315.5 313 Z " /><path fill="rgb(235,194,193)" stroke="rgb(235,194,193)" stroke-width="1" opacity="1" d="M 61.5 318 L 62 320.5 L 61 320.5 L 61.5 318 Z " /><path fill="rgb(235,194,193)" stroke="rgb(235,194,193)" stroke-width="1" opacity="1" d="M 316.5 319 L 317 321.5 L 316 321.5 L 316.5 319 Z " /><path fill="rgb(235,194,193)" stroke="rgb(235,194,193)" stroke-width="1" opacity="1" d="M 60.5 325 L 61 328.5 L 60 328.5 L 60.5 325 Z " /><path fill="rgb(235,194,193)" stroke="rgb(235,194,193)" stroke-width="1" opacity="1" d="M 317.5 326 L 318 329.5 L 317 329.5 L 317.5 326 Z " /><path fill="rgb(235,194,193)" stroke="rgb(235,194,193)" stroke-width="1" opacity="1" d="M 425.5 327 L 426.5 329 L 425.5 327 Z " /><path fill="rgb(235,194,193)" stroke="rgb(235,194,193)" stroke-width="1" opacity="1" d="M 429.5 330 L 437.5 339 L 429.5 330 Z " /><path fill="rgb(235,194,193)" stroke="rgb(235,194,193)" stroke-width="1" opacity="1" d="M 59.5 333 L 60 337.5 L 59 337.5 L 59.5 333 Z " /><path fill="rgb(235,194,193)" stroke="rgb(235,194,193)" stroke-width="1" opacity="1" d="M 397.5 333 L 398 336.5 L 397 336.5 L 397.5 333 Z " /><path fill="rgb(235,194,193)" stroke="rgb(235,194,193)" stroke-width="1" opacity="1" d="M 318.5 335 L 319 339.5 L 318 339.5 L 318.5 335 Z " /><path fill="rgb(235,194,193)" stroke="rgb(235,194,193)" stroke-width="1" opacity="1" d="M 397.5 338 L 398 343.5 L 397 343.5 L 397.5 338 Z " /><path fill="rgb(235,194,193)" stroke="rgb(235,194,193)" stroke-width="1" opacity="1" d="M 438.5 340 L 440.5 343 L 438.5 340 Z " /><path fill="rgb(235,194,193)" stroke="rgb(235,194,193)" stroke-width="1" opacity="1" d="M 105.5 341 L 105 342.5 L 104.5 345 L 104 342.5 L 105.5 341 Z " /><path fill="rgb(235,194,193)" stroke="rgb(235,194,193)" stroke-width="1" opacity="1" d="M 107.5 341 L 109 343.5 L 108 343.5 L 107.5 341 Z " /><path fill="rgb(235,194,193)" stroke="rgb(235,194,193)" stroke-width="1" opacity="1" d="M 167.5 341 L 166.5 343 L 167.5 341 Z " /><path fill="rgb(235,194,193)" stroke="rgb(235,194,193)" stroke-width="1" opacity="1" d="M 169.5 341 Q 171.8 341.8 171 345.5 L 170 345.5 L 169.5 341 Z " /><path fill="rgb(235,194,193)" stroke="rgb(235,194,193)" stroke-width="1" opacity="1" d="M 210.5 341 L 212 344.5 L 211 344.5 L 210.5 341 Z " /><path fill="rgb(235,194,193)" stroke="rgb(235,194,193)" stroke-width="1" opacity="1" d="M 272.5 341 L 274 343.5 L 273 343.5 L 272.5 341 Z " /><path fill="rgb(235,194,193)" stroke="rgb(235,194,193)" stroke-width="1" opacity="1" d="M 58.5 344 L 59 351.5 L 58 351.5 L 58.5 344 Z " /><path fill="rgb(235,194,193)" stroke="rgb(235,194,193)" stroke-width="1" opacity="1" d="M 207.5 344 L 208 346.5 L 207 346.5 L 207.5 344 Z " /><path fill="rgb(235,194,193)" stroke="rgb(235,194,193)" stroke-width="1" opacity="1" d="M 441.5 344 L 442.5 346 L 441.5 344 Z " /><path fill="rgb(235,194,193)" stroke="rgb(235,194,193)" stroke-width="1" opacity="1" d="M 319.5 347 L 320 356.5 L 319 356.5 L 319.5 347 Z " /><path fill="rgb(235,194,193)" stroke="rgb(235,194,193)" stroke-width="1" opacity="1" d="M 398.5 347 L 399 349.5 L 398 349.5 L 398.5 347 Z " /><path fill="rgb(235,194,193)" stroke="rgb(235,194,193)" stroke-width="1" opacity="1" d="M 165.5 348 L 166 350.5 L 165 350.5 L 165.5 348 Z " /><path fill="rgb(235,194,193)" stroke="rgb(235,194,193)" stroke-width="1" opacity="1" d="M 212.5 349 L 213 351.5 L 212 351.5 L 212.5 349 Z " /><path fill="rgb(235,194,193)" stroke="rgb(235,194,193)" stroke-width="1" opacity="1" d="M 169.5 350 L 170 352.5 L 169 352.5 L 169.5 350 Z " /><path fill="rgb(235,194,193)" stroke="rgb(235,194,193)" stroke-width="1" opacity="1" d="M 208.5 352 L 209 354.5 L 208 354.5 L 208.5 352 Z " /><path fill="rgb(235,194,193)" stroke="rgb(235,194,193)" stroke-width="1" opacity="1" d="M 164.5 355 L 165 357.5 L 164 357.5 L 164.5 355 Z " /><path fill="rgb(235,194,193)" stroke="rgb(235,194,193)" stroke-width="1" opacity="1" d="M 213.5 357 L 214 359.5 L 213 359.5 L 213.5 357 Z " /><path fill="rgb(235,194,193)" stroke="rgb(235,194,193)" stroke-width="1" opacity="1" d="M 168.5 358 L 169 360.5 L 168 360.5 L 168.5 358 Z " /><path fill="rgb(235,194,193)" stroke="rgb(235,194,193)" stroke-width="1" opacity="1" d="M 209.5 359 L 210 361.5 L 209 361.5 L 209.5 359 Z " /><path fill="rgb(235,194,193)" stroke="rgb(235,194,193)" stroke-width="1" opacity="1" d="M 400 359 L 420.5 364 L 430.5 369 L 445 380 L 452.5 390 L 453.5 378 L 454 394.5 L 451 409.5 L 445.5 422 Q 440.4 400.6 425.5 389 Q 415.7 380.5 400 379 Q 401.9 373.4 401 363.5 L 400 359 Z " /><path fill="rgb(235,194,193)" stroke="rgb(235,194,193)" stroke-width="1" opacity="1" d="M 163.5 363 L 164 367.5 L 163 367.5 L 163.5 363 Z " /><path fill="rgb(235,194,193)" stroke="rgb(235,194,193)" stroke-width="1" opacity="1" d="M 214.5 364 L 215 379.5 L 214 379.5 L 214.5 364 Z " /><path fill="rgb(235,194,193)" stroke="rgb(235,194,193)" stroke-width="1" opacity="1" d="M 167.5 366 L 168 397.5 L 167 397.5 L 167.5 366 Z " /><path fill="rgb(235,194,193)" stroke="rgb(235,194,193)" stroke-width="1" opacity="1" d="M 210.5 369 L 211 389.5 L 210 389.5 L 210.5 369 Z " /><path fill="rgb(235,194,193)" stroke="rgb(235,194,193)" stroke-width="1" opacity="1" d="M 452.5 371 L 453 373.5 L 452 373.5 L 452.5 371 Z " /><path fill="rgb(235,194,193)" stroke="rgb(235,194,193)" stroke-width="1" opacity="1" d="M 319.5 373 L 320 382.5 L 319 382.5 L 319.5 373 Z " /><path fill="rgb(235,194,193)" stroke="rgb(235,194,193)" stroke-width="1" opacity="1" d="M 58.5 378 L 59 384.5 L 58 384.5 L 58.5 378 Z " /><path fill="rgb(235,194,193)" stroke="rgb(235,194,193)" stroke-width="1" opacity="1" d="M 214.5 382 L 215 399.5 L 214 399.5 L 214.5 382 Z " /><path fill="rgb(235,194,193)" stroke="rgb(235,194,193)" stroke-width="1" opacity="1" d="M 318.5 389 L 319 392.5 L 318 392.5 L 318.5 389 Z " /><path fill="rgb(235,194,193)" stroke="rgb(235,194,193)" stroke-width="1" opacity="1" d="M 59.5 391 L 60 394.5 L 59 394.5 L 59.5 391 Z " /><path fill="rgb(235,194,193)" stroke="rgb(235,194,193)" stroke-width="1" opacity="1" d="M 163.5 392 L 164 404.5 L 163 404.5 L 163.5 392 Z " /><path fill="rgb(235,194,193)" stroke="rgb(235,194,193)" stroke-width="1" opacity="1" d="M 317.5 397 L 318 400.5 L 317 400.5 L 317.5 397 Z " /><path fill="rgb(235,194,193)" stroke="rgb(235,194,193)" stroke-width="1" opacity="1" d="M 60.5 399 L 61 401.5 L 60 401.5 L 60.5 399 Z " /><path fill="rgb(235,194,193)" stroke="rgb(235,194,193)" stroke-width="1" opacity="1" d="M 316.5 404 L 317 406.5 L 316 406.5 L 316.5 404 Z " /><path fill="rgb(235,194,193)" stroke="rgb(235,194,193)" stroke-width="1" opacity="1" d="M 119.5 407 L 120 409.5 L 119 409.5 L 119.5 407 Z " /><path fill="rgb(235,194,193)" stroke="rgb(235,194,193)" stroke-width="1" opacity="1" d="M 209.5 409 L 210 417.5 L 209 417.5 L 209.5 409 Z " /><path fill="rgb(235,194,193)" stroke="rgb(235,194,193)" stroke-width="1" opacity="1" d="M 315.5 409 L 316 411.5 L 315 411.5 L 315.5 409 Z " /><path fill="rgb(235,194,193)" stroke="rgb(235,194,193)" stroke-width="1" opacity="1" d="M 389.5 411 L 395 415.5 Q 409.3 431.7 411 460.5 L 390.5 472 L 390 470.5 L 391 469.5 L 391 452.5 Q 388.2 435.3 378 425.5 L 389.5 411 Z " /><path fill="rgb(235,194,193)" stroke="rgb(235,194,193)" stroke-width="1" opacity="1" d="M 120.5 412 L 121 414.5 L 120 414.5 L 120.5 412 Z " /><path fill="rgb(235,194,193)" stroke="rgb(235,194,193)" stroke-width="1" opacity="1" d="M 168.5 413 L 169 421.5 L 168 421.5 L 168.5 413 Z " /><path fill="rgb(235,194,193)" stroke="rgb(235,194,193)" stroke-width="1" opacity="1" d="M 213.5 415 L 214 423.5 L 213 423.5 L 213.5 415 Z " /><path fill="rgb(235,194,193)" stroke="rgb(235,194,193)" stroke-width="1" opacity="1" d="M 252.5 415 L 253 418.5 L 252 418.5 L 252.5 415 Z " /><path fill="rgb(235,194,193)" stroke="rgb(235,194,193)" stroke-width="1" opacity="1" d="M 125.5 417 L 126 419.5 L 125 419.5 L 125.5 417 Z " /><path fill="rgb(235,194,193)" stroke="rgb(235,194,193)" stroke-width="1" opacity="1" d="M 256.5 418 L 257 420.5 L 256 420.5 L 256.5 418 Z " /><path fill="rgb(235,194,193)" stroke="rgb(235,194,193)" stroke-width="1" opacity="1" d="M 121.5 419 L 122 422.5 L 121 422.5 L 121.5 419 Z " /><path fill="rgb(235,194,193)" stroke="rgb(235,194,193)" stroke-width="1" opacity="1" d="M 164.5 419 L 165 426.5 L 164 426.5 L 164.5 419 Z " /><path fill="rgb(235,194,193)" stroke="rgb(235,194,193)" stroke-width="1" opacity="1" d="M 251.5 424 L 252 429.5 L 251 429.5 L 251.5 424 Z " /><path fill="rgb(235,194,193)" stroke="rgb(235,194,193)" stroke-width="1" opacity="1" d="M 126.5 426 L 127 434.5 L 126 434.5 L 126.5 426 Z " /><path fill="rgb(235,194,193)" stroke="rgb(235,194,193)" stroke-width="1" opacity="1" d="M 255.5 428 L 256 449.5 L 255 449.5 L 255.5 428 Z " /><path fill="rgb(235,194,193)" stroke="rgb(235,194,193)" stroke-width="1" opacity="1" d="M 208.5 430 L 209 438.5 L 208 438.5 L 208.5 430 Z " /><path fill="rgb(235,194,193)" stroke="rgb(235,194,193)" stroke-width="1" opacity="1" d="M 372.5 430 L 371.5 432 L 372.5 430 Z " /><path fill="rgb(235,194,193)" stroke="rgb(235,194,193)" stroke-width="1" opacity="1" d="M 122.5 431 L 123 446.5 L 122 446.5 L 122.5 431 Z " /><path fill="rgb(235,194,193)" stroke="rgb(235,194,193)" stroke-width="1" opacity="1" d="M 169.5 434 L 170 441.5 L 169 441.5 L 169.5 434 Z " /><path fill="rgb(235,194,193)" stroke="rgb(235,194,193)" stroke-width="1" opacity="1" d="M 212.5 435 L 213 443.5 L 212 443.5 L 212.5 435 Z " /><path fill="rgb(235,194,193)" stroke="rgb(235,194,193)" stroke-width="1" opacity="1" d="M 436.5 436 L 435.5 438 L 436.5 436 Z " /><path fill="rgb(235,194,193)" stroke="rgb(235,194,193)" stroke-width="1" opacity="1" d="M 165.5 439 L 166 446.5 L 165 446.5 L 165.5 439 Z " /><path fill="rgb(235,194,193)" stroke="rgb(235,194,193)" stroke-width="1" opacity="1" d="M 433.5 440 L 429.5 445 L 433.5 440 Z " /><path fill="rgb(235,194,193)" stroke="rgb(235,194,193)" stroke-width="1" opacity="1" d="M 349.5 442 Q 352.4 447.6 351 457.5 L 348 472.5 L 345 481 Q 341.4 483.3 332.5 482 L 331.5 481 L 317 480.5 Q 322.4 481.4 324 478.5 Q 329.1 471.6 331 461.5 L 331 446 L 329 445.5 L 344.5 444 L 349.5 442 Z " /><path fill="rgb(235,194,193)" stroke="rgb(235,194,193)" stroke-width="1" opacity="1" d="M 126.5 443 L 127 451.5 L 126 451.5 L 126.5 443 Z " /><path fill="rgb(235,194,193)" stroke="rgb(235,194,193)" stroke-width="1" opacity="1" d="M 317.5 444 L 320 444.5 L 317.5 445 L 317.5 444 Z " /><path fill="rgb(235,194,193)" stroke="rgb(235,194,193)" stroke-width="1" opacity="1" d="M 251.5 448 L 252 453.5 L 251 453.5 L 251.5 448 Z " /><path fill="rgb(235,194,193)" stroke="rgb(235,194,193)" stroke-width="1" opacity="1" d="M 207.5 449 L 208 455.5 L 207 455.5 L 207.5 449 Z " /><path fill="rgb(235,194,193)" stroke="rgb(235,194,193)" stroke-width="1" opacity="1" d="M 301.5 450 L 300.5 452 L 301.5 450 Z " /><path fill="rgb(235,194,193)" stroke="rgb(235,194,193)" stroke-width="1" opacity="1" d="M 423.5 450 L 419.5 455 L 423.5 450 Z " /><path fill="rgb(235,194,193)" stroke="rgb(235,194,193)" stroke-width="1" opacity="1" d="M 170.5 452 L 171 458.5 L 170 458.5 L 170.5 452 Z " /><path fill="rgb(235,194,193)" stroke="rgb(235,194,193)" stroke-width="1" opacity="1" d="M 211.5 453 L 212 459.5 L 211 459.5 L 211.5 453 Z " /><path fill="rgb(235,194,193)" stroke="rgb(235,194,193)" stroke-width="1" opacity="1" d="M 304.5 454 L 303.5 456 L 304.5 454 Z " /><path fill="rgb(235,194,193)" stroke="rgb(235,194,193)" stroke-width="1" opacity="1" d="M 121.5 455 L 122 458.5 L 121 458.5 L 121.5 455 Z " /><path fill="rgb(235,194,193)" stroke="rgb(235,194,193)" stroke-width="1" opacity="1" d="M 298.5 455 L 297.5 457 L 298.5 455 Z " /><path fill="rgb(235,194,193)" stroke="rgb(235,194,193)" stroke-width="1" opacity="1" d="M 417.5 455 L 415.5 458 L 417.5 455 Z " /><path fill="rgb(235,194,193)" stroke="rgb(235,194,193)" stroke-width="1" opacity="1" d="M 166.5 456 L 167 462.5 L 166 462.5 L 166.5 456 Z " /><path fill="rgb(235,194,193)" stroke="rgb(235,194,193)" stroke-width="1" opacity="1" d="M 80.5 457 L 81.5 459 L 80.5 457 Z " /><path fill="rgb(235,194,193)" stroke="rgb(235,194,193)" stroke-width="1" opacity="1" d="M 256.5 457 L 257 459.5 L 256 459.5 L 256.5 457 Z " /><path fill="rgb(235,194,193)" stroke="rgb(235,194,193)" stroke-width="1" opacity="1" d="M 125.5 458 L 126 460.5 L 125 460.5 L 125.5 458 Z " /><path fill="rgb(235,194,193)" stroke="rgb(235,194,193)" stroke-width="1" opacity="1" d="M 252.5 459 L 253 461.5 L 252 461.5 L 252.5 459 Z " /><path fill="rgb(235,194,193)" stroke="rgb(235,194,193)" stroke-width="1" opacity="1" d="M 82.5 460 L 83.5 462 L 82.5 460 Z " /><path fill="rgb(235,194,193)" stroke="rgb(235,194,193)" stroke-width="1" opacity="1" d="M 294.5 461 L 293.5 463 L 294.5 461 Z " /><path fill="rgb(235,194,193)" stroke="rgb(235,194,193)" stroke-width="1" opacity="1" d="M 85.5 464 L 87.5 467 L 85.5 464 Z " /><path fill="rgb(235,194,193)" stroke="rgb(235,194,193)" stroke-width="1" opacity="1" d="M 206.5 464 L 207 467.5 L 206 467.5 L 206.5 464 Z " /><path fill="rgb(235,194,193)" stroke="rgb(235,194,193)" stroke-width="1" opacity="1" d="M 257.5 464 L 258.5 466 L 257.5 464 Z " /><path fill="rgb(235,194,193)" stroke="rgb(235,194,193)" stroke-width="1" opacity="1" d="M 291.5 465 L 288.5 469 L 291.5 465 Z " /><path fill="rgb(235,194,193)" stroke="rgb(235,194,193)" stroke-width="1" opacity="1" d="M 171.5 466 L 172 468.5 L 171 468.5 L 171.5 466 Z " /><path fill="rgb(235,194,193)" stroke="rgb(235,194,193)" stroke-width="1" opacity="1" d="M 210.5 467 L 211 469.5 L 210 469.5 L 210.5 467 Z " /><path fill="rgb(235,194,193)" stroke="rgb(235,194,193)" stroke-width="1" opacity="1" d="M 295.5 467 L 294.5 469 L 295.5 467 Z " /><path fill="rgb(235,194,193)" stroke="rgb(235,194,193)" stroke-width="1" opacity="1" d="M 205.5 471 L 206 473.5 L 205 473.5 L 205.5 471 Z " /><path fill="rgb(235,194,193)" stroke="rgb(235,194,193)" stroke-width="1" opacity="1" d="M 172.5 472 L 173 475.5 L 172 475.5 L 172.5 472 Z " /><path fill="rgb(235,194,193)" stroke="rgb(235,194,193)" stroke-width="1" opacity="1" d="M 209.5 473 L 210 476.5 L 209 476.5 L 209.5 473 Z " /><path fill="rgb(235,194,193)" stroke="rgb(235,194,193)" stroke-width="1" opacity="1" d="M 282.5 474 L 280.5 477 L 282.5 474 Z " /><path fill="rgb(235,194,193)" stroke="rgb(235,194,193)" stroke-width="1" opacity="1" d="M 289.5 474 L 292 475.5 L 290.5 476 L 289.5 474 Z " /><path fill="rgb(235,194,193)" stroke="rgb(235,194,193)" stroke-width="1" opacity="1" d="M 96.5 475 L 97.5 477 L 96.5 475 Z " /><path fill="rgb(235,194,193)" stroke="rgb(235,194,193)" stroke-width="1" opacity="1" d="M 115.5 475 L 116 477.5 L 115 477.5 L 115.5 475 Z " /><path fill="rgb(235,194,193)" stroke="rgb(235,194,193)" stroke-width="1" opacity="1" d="M 168.5 475 L 169 486.5 L 168 486.5 L 168.5 475 Z " /><path fill="rgb(235,194,193)" stroke="rgb(235,194,193)" stroke-width="1" opacity="1" d="M 262.5 476 L 263 478.5 L 262 478.5 L 262.5 476 Z " /><path fill="rgb(235,194,193)" stroke="rgb(235,194,193)" stroke-width="1" opacity="1" d="M 119.5 477 L 120 479.5 L 119 479.5 L 119.5 477 Z " /><path fill="rgb(235,194,193)" stroke="rgb(235,194,193)" stroke-width="1" opacity="1" d="M 278.5 477 L 277.5 479 L 278.5 477 Z " /><path fill="rgb(235,194,193)" stroke="rgb(235,194,193)" stroke-width="1" opacity="1" d="M 298.5 477 L 301 477.5 L 298.5 478 L 298.5 477 Z " /><path fill="rgb(235,194,193)" stroke="rgb(235,194,193)" stroke-width="1" opacity="1" d="M 258.5 478 L 259 481.5 L 258 481.5 L 258.5 478 Z " /><path fill="rgb(235,194,193)" stroke="rgb(235,194,193)" stroke-width="1" opacity="1" d="M 303.5 478 L 306 478.5 L 303.5 479 L 303.5 478 Z " /><path fill="rgb(235,194,193)" stroke="rgb(235,194,193)" stroke-width="1" opacity="1" d="M 309.5 479 L 313 479.5 L 309.5 480 L 309.5 479 Z " /><path fill="rgb(235,194,193)" stroke="rgb(235,194,193)" stroke-width="1" opacity="1" d="M 360.5 479 L 363 479.5 L 360.5 480 L 360.5 479 Z " /><path fill="rgb(235,194,193)" stroke="rgb(235,194,193)" stroke-width="1" opacity="1" d="M 352.5 480 L 356 480.5 L 352.5 481 L 352.5 480 Z " /><path fill="rgb(235,194,193)" stroke="rgb(235,194,193)" stroke-width="1" opacity="1" d="M 173.5 483 L 205 483.5 L 173.5 484 L 173.5 483 Z " /><path fill="rgb(235,194,193)" stroke="rgb(235,194,193)" stroke-width="1" opacity="1" d="M 258.5 486 L 259 489.5 L 258 489.5 L 258.5 486 Z " /><path fill="rgb(235,194,193)" stroke="rgb(235,194,193)" stroke-width="1" opacity="1" d="M 119.5 488 L 120 490.5 L 119 490.5 L 119.5 488 Z " /><path fill="rgb(235,194,193)" stroke="rgb(235,194,193)" stroke-width="1" opacity="1" d="M 120.5 492 L 121.5 494 L 120.5 492 Z " /><path fill="rgb(235,194,193)" stroke="rgb(235,194,193)" stroke-width="1" opacity="1" d="M 257.5 492 L 256.5 494 L 257.5 492 Z " /><path fill="rgb(235,194,193)" stroke="rgb(235,194,193)" stroke-width="1" opacity="1" d="M 134.5 497 L 139 497.5 L 134.5 498 L 134.5 497 Z " /><path fill="rgb(235,194,193)" stroke="rgb(235,194,193)" stroke-width="1" opacity="1" d="M 147.5 497 L 152 497.5 L 147.5 498 L 147.5 497 Z " /><path fill="rgb(235,194,193)" stroke="rgb(235,194,193)" stroke-width="1" opacity="1" d="M 226.5 497 L 231 497.5 L 226.5 498 L 226.5 497 Z " /><path fill="rgb(235,194,193)" stroke="rgb(235,194,193)" stroke-width="1" opacity="1" d="M 239.5 497 L 244 497.5 L 239.5 498 L 239.5 497 Z " /><path fill="rgb(234,234,233)" stroke="rgb(234,234,233)" stroke-width="1" opacity="1" d="M 91.5 16 L 92.5 18 L 91.5 16 Z " /><path fill="rgb(234,234,233)" stroke="rgb(234,234,233)" stroke-width="1" opacity="1" d="M 286.5 16 L 285.5 18 L 286.5 16 Z " /><path fill="rgb(234,234,233)" stroke="rgb(234,234,233)" stroke-width="1" opacity="1" d="M 96.5 20 L 97.5 22 L 96.5 20 Z " /><path fill="rgb(234,234,233)" stroke="rgb(234,234,233)" stroke-width="1" opacity="1" d="M 281.5 20 L 280.5 22 L 281.5 20 Z " /><path fill="rgb(234,234,233)" stroke="rgb(234,234,233)" stroke-width="1" opacity="1" d="M 101.5 24 L 102.5 26 L 101.5 24 Z " /><path fill="rgb(234,234,233)" stroke="rgb(234,234,233)" stroke-width="1" opacity="1" d="M 276.5 24 L 275.5 26 L 276.5 24 Z " /><path fill="rgb(234,234,233)" stroke="rgb(234,234,233)" stroke-width="1" opacity="1" d="M 106.5 28 L 107.5 30 L 106.5 28 Z " /><path fill="rgb(234,234,233)" stroke="rgb(234,234,233)" stroke-width="1" opacity="1" d="M 271.5 28 L 270.5 30 L 271.5 28 Z " /><path fill="rgb(234,234,233)" stroke="rgb(234,234,233)" stroke-width="1" opacity="1" d="M 111.5 32 L 112.5 34 L 111.5 32 Z " /><path fill="rgb(234,234,233)" stroke="rgb(234,234,233)" stroke-width="1" opacity="1" d="M 266.5 32 L 265.5 34 L 266.5 32 Z " /><path fill="rgb(234,234,233)" stroke="rgb(234,234,233)" stroke-width="1" opacity="1" d="M 116.5 36 L 117.5 38 L 116.5 36 Z " /><path fill="rgb(234,234,233)" stroke="rgb(234,234,233)" stroke-width="1" opacity="1" d="M 261.5 36 L 260.5 38 L 261.5 36 Z " /><path fill="rgb(234,234,233)" stroke="rgb(234,234,233)" stroke-width="1" opacity="1" d="M 136.5 84 L 135.5 86 L 136.5 84 Z " /><path fill="rgb(234,234,233)" stroke="rgb(234,234,233)" stroke-width="1" opacity="1" d="M 243.5 84 L 245.5 87 L 243.5 84 Z " /><path fill="rgb(234,234,233)" stroke="rgb(234,234,233)" stroke-width="1" opacity="1" d="M 232.5 88 L 233 91.5 L 232 91.5 L 232.5 88 Z " /><path fill="rgb(234,234,233)" stroke="rgb(234,234,233)" stroke-width="1" opacity="1" d="M 135.5 94 L 136.5 96 L 135.5 94 Z " /><path fill="rgb(234,234,233)" stroke="rgb(234,234,233)" stroke-width="1" opacity="1" d="M 146.5 94 L 145.5 96 L 146.5 94 Z " /><path fill="rgb(234,234,233)" stroke="rgb(234,234,233)" stroke-width="1" opacity="1" d="M 180.5 112 L 179.5 114 L 180.5 112 Z " /><path fill="rgb(234,234,233)" stroke="rgb(234,234,233)" stroke-width="1" opacity="1" d="M 182.5 129 L 183.5 131 L 182.5 129 Z " /><path fill="rgb(234,234,233)" stroke="rgb(234,234,233)" stroke-width="1" opacity="1" d="M 171.5 146 L 170.5 148 L 171.5 146 Z " /><path fill="rgb(234,234,233)" stroke="rgb(234,234,233)" stroke-width="1" opacity="1" d="M 189.5 147 L 190.5 149 L 189.5 147 Z " /><path fill="rgb(234,234,233)" stroke="rgb(234,234,233)" stroke-width="1" opacity="1" d="M 149.5 152 L 152 152.5 L 149.5 153 L 149.5 152 Z " /><path fill="rgb(234,234,233)" stroke="rgb(234,234,233)" stroke-width="1" opacity="1" d="M 225.5 152 L 228 152.5 L 224.5 154 L 225.5 152 Z " /><path fill="rgb(234,234,233)" stroke="rgb(234,234,233)" stroke-width="1" opacity="1" d="M 93.5 168 L 94.5 170 L 93.5 168 Z " /><path fill="rgb(234,234,233)" stroke="rgb(234,234,233)" stroke-width="1" opacity="1" d="M 283.5 169 L 282.5 171 L 283.5 169 Z " /><path fill="rgb(234,234,233)" stroke="rgb(234,234,233)" stroke-width="1" opacity="1" d="M 97.5 173 L 101.5 178 L 97.5 173 Z " /><path fill="rgb(234,234,233)" stroke="rgb(234,234,233)" stroke-width="1" opacity="1" d="M 279.5 174 L 272.5 182 L 279.5 174 Z " /><path fill="rgb(234,234,233)" stroke="rgb(234,234,233)" stroke-width="1" opacity="1" d="M 103.5 179 L 106.5 183 L 103.5 179 Z " /><path fill="rgb(234,234,233)" stroke="rgb(234,234,233)" stroke-width="1" opacity="1" d="M 268.5 184 L 267.5 186 L 268.5 184 Z " /><path fill="rgb(234,234,233)" stroke="rgb(234,234,233)" stroke-width="1" opacity="1" d="M 110.5 185 L 111.5 187 L 110.5 185 Z " /><path fill="rgb(234,234,233)" stroke="rgb(234,234,233)" stroke-width="1" opacity="1" d="M 66.5 293 L 67 298.5 L 66 299.5 L 65 317.5 L 64 318.5 L 64 366.5 L 65 367.5 L 65 375.5 L 69 397.5 L 78 424.5 Q 86.8 443.2 101.5 456 Q 108.3 461.7 119.5 463 L 121 462.5 L 115 475.5 L 115 483 Q 96.9 480.4 88 467.5 Q 71.5 447.5 64 418.5 L 59 390.5 L 58 352.5 L 59 351.5 L 59 338.5 L 60 337.5 L 61 321.5 L 66.5 293 Z " /><path fill="rgb(234,234,233)" stroke="rgb(234,234,233)" stroke-width="1" opacity="1" d="M 311.5 294 L 318 330.5 L 320 372.5 L 319 373.5 L 319 388.5 L 318 389.5 L 317 403.5 L 313 421.5 L 308 436.5 Q 299.5 459 283.5 474 Q 276 481.8 263 483 Q 263.6 470.2 257 463.5 Q 275.2 460.7 284 448.5 Q 293.6 437.6 300 423.5 L 310 392.5 L 312 374.5 L 313 373.5 L 313 365.5 L 314 364.5 L 314 321.5 L 313 320.5 L 313 309.5 L 311 300.5 L 311.5 294 Z " /><path fill="rgb(234,234,233)" stroke="rgb(234,234,233)" stroke-width="1" opacity="1" d="M 412.5 323 Q 430.1 326.4 438 339.5 Q 445.7 348.8 450 361.5 L 453 374.5 L 453 389.5 L 451 388.5 L 445 380 L 430.5 369 L 416 362.5 L 417.5 362 L 434.5 371 L 435 369.5 L 430 349.5 Q 423.1 333.3 412.5 323 Z " /><path fill="rgb(234,234,233)" stroke="rgb(234,234,233)" stroke-width="1" opacity="1" d="M 402.5 325 L 400.5 328 L 402.5 325 Z " /><path fill="rgb(234,234,233)" stroke="rgb(234,234,233)" stroke-width="1" opacity="1" d="M 402.5 359 L 407.5 359 L 415 361.5 L 412.5 362 Q 409.2 359.3 402.5 360 L 402.5 359 Z " /><path fill="rgb(234,234,233)" stroke="rgb(234,234,233)" stroke-width="1" opacity="1" d="M 400.5 379 L 404 379.5 L 400.5 380 L 400.5 379 Z " /><path fill="rgb(234,234,233)" stroke="rgb(234,234,233)" stroke-width="1" opacity="1" d="M 405.5 380 Q 424.3 384.2 434 397.5 L 443 412.5 L 445 422.5 Q 437.1 438.6 424.5 450 L 411.5 460 L 410 456.5 L 409 443.5 L 404 429.5 L 390 409.5 L 391 409.5 L 404 427.5 L 408 440 L 410 440 Q 408.9 437.3 411.5 438 Q 426.7 422.7 433 398.5 L 427.5 392 L 419.5 386 L 405.5 381 L 405.5 380 Z " /><path fill="rgb(234,234,233)" stroke="rgb(234,234,233)" stroke-width="1" opacity="1" d="M 214.5 400 L 215 403.5 L 214 403.5 L 214.5 400 Z " /><path fill="rgb(234,234,233)" stroke="rgb(234,234,233)" stroke-width="1" opacity="1" d="M 209.5 404 L 210 408.5 L 209 408.5 L 209.5 404 Z " /><path fill="rgb(234,234,233)" stroke="rgb(234,234,233)" stroke-width="1" opacity="1" d="M 163.5 405 L 164 409.5 L 163 409.5 L 163.5 405 Z " /><path fill="rgb(234,234,233)" stroke="rgb(234,234,233)" stroke-width="1" opacity="1" d="M 168.5 410 L 169 412.5 L 168 412.5 L 168.5 410 Z " /><path fill="rgb(234,234,233)" stroke="rgb(234,234,233)" stroke-width="1" opacity="1" d="M 213.5 424 L 214 426.5 L 213 426.5 L 213.5 424 Z " /><path fill="rgb(234,234,233)" stroke="rgb(234,234,233)" stroke-width="1" opacity="1" d="M 377.5 426 Q 379.8 425.3 379 427.5 Q 388.3 435.2 390 450.5 L 389 450.5 Q 387.1 434.9 377.5 427 L 374 429.5 L 377.5 426 Z " /><path fill="rgb(234,234,233)" stroke="rgb(234,234,233)" stroke-width="1" opacity="1" d="M 164.5 427 L 165 430.5 L 164 430.5 L 164.5 427 Z " /><path fill="rgb(234,234,233)" stroke="rgb(234,234,233)" stroke-width="1" opacity="1" d="M 208.5 427 L 209 429.5 L 208 429.5 L 208.5 427 Z " /><path fill="rgb(234,234,233)" stroke="rgb(234,234,233)" stroke-width="1" opacity="1" d="M 169.5 430 L 170 433.5 L 169 433.5 L 169.5 430 Z " /><path fill="rgb(234,234,233)" stroke="rgb(234,234,233)" stroke-width="1" opacity="1" d="M 350.5 442 L 351 445.5 L 350 445.5 L 350.5 442 Z " /><path fill="rgb(234,234,233)" stroke="rgb(234,234,233)" stroke-width="1" opacity="1" d="M 324.5 445 L 329 445.5 L 324.5 446 L 324.5 445 Z " /><path fill="rgb(234,234,233)" stroke="rgb(234,234,233)" stroke-width="1" opacity="1" d="M 207.5 446 L 208 448.5 L 207 448.5 L 207.5 446 Z " /><path fill="rgb(234,234,233)" stroke="rgb(234,234,233)" stroke-width="1" opacity="1" d="M 351.5 448 L 352 455.5 L 351 455.5 L 351.5 448 Z " /><path fill="rgb(234,234,233)" stroke="rgb(234,234,233)" stroke-width="1" opacity="1" d="M 170.5 449 L 171 451.5 L 170 451.5 L 170.5 449 Z " /><path fill="rgb(234,234,233)" stroke="rgb(234,234,233)" stroke-width="1" opacity="1" d="M 390.5 452 L 391 469.5 L 390 472 L 370.5 478 L 345 481 L 350 464.5 L 350.5 458 L 351 464.5 L 349 472 Q 373.3 468 390 455.5 L 390.5 452 Z " /><path fill="rgb(234,234,233)" stroke="rgb(234,234,233)" stroke-width="1" opacity="1" d="M 330.5 455 L 331 461.5 Q 328.9 472.9 322.5 480 L 306.5 479 L 290 475 L 293.5 470 L 291.5 474 L 306.5 475 L 307.5 476 L 325 476 Q 329.7 467.9 330.5 455 Z " /><path fill="rgb(234,234,233)" stroke="rgb(234,234,233)" stroke-width="1" opacity="1" d="M 211.5 460 L 212 462.5 L 211 462.5 L 211.5 460 Z " /><path fill="rgb(234,234,233)" stroke="rgb(234,234,233)" stroke-width="1" opacity="1" d="M 300.5 461 L 299.5 463 L 300.5 461 Z " /><path fill="rgb(234,234,233)" stroke="rgb(234,234,233)" stroke-width="1" opacity="1" d="M 166.5 463 L 167 465.5 L 166 465.5 L 166.5 463 Z " /><path fill="rgb(234,234,233)" stroke="rgb(234,234,233)" stroke-width="1" opacity="1" d="M 171 463 L 207 463.5 L 205 471.5 L 205 483 L 173 483 L 173 472.5 L 171 463 Z " /><path fill="rgb(234,234,233)" stroke="rgb(234,234,233)" stroke-width="1" opacity="1" d="M 297.5 465 L 296.5 467 L 297.5 465 Z " /><path fill="rgb(234,234,233)" stroke="rgb(234,234,233)" stroke-width="1" opacity="1" d="M 209.5 477 L 210 479.5 L 209 479.5 L 209.5 477 Z " /><path fill="rgb(234,234,233)" stroke="rgb(234,234,233)" stroke-width="1" opacity="1" d="M 258.5 482 L 259 485.5 L 258 485.5 L 258.5 482 Z " /><path fill="rgb(234,234,233)" stroke="rgb(234,234,233)" stroke-width="1" opacity="1" d="M 211.5 491 L 213.5 494 L 211.5 491 Z " /><path fill="rgb(234,234,233)" stroke="rgb(234,234,233)" stroke-width="1" opacity="1" d="M 139.5 497 L 143 497.5 L 139.5 498 L 139.5 497 Z " /><path fill="rgb(234,234,233)" stroke="rgb(234,234,233)" stroke-width="1" opacity="1" d="M 235.5 497 L 239 497.5 L 235.5 498 L 235.5 497 Z " /><path fill="rgb(234,234,234)" stroke="rgb(234,234,234)" stroke-width="1" opacity="1" d="M 86.5 15 L 89.5 15 L 120.5 40 L 125.5 40 L 138.5 35 L 163.5 30 L 172.5 30 L 173.5 29 L 204.5 29 L 205.5 30 L 214.5 30 L 231.5 33 L 252.5 40 L 257.5 40 L 288.5 15 L 291.5 15 L 293 16.5 L 293 73.5 L 295 79.5 L 298 104.5 L 299 105.5 L 300 125.5 L 297 142.5 L 289 161.5 Q 281.1 174.6 269.5 184 L 261 189 L 261 194 L 264.5 194 L 271 190 L 293 234.5 L 310 286.5 L 312 308.5 L 313 309.5 L 313 320.5 L 314 321.5 L 314 364.5 L 313 365.5 L 313 373.5 L 312 374.5 L 310 392.5 L 303 416.5 L 289 442.5 L 276.5 456 Q 269 462.2 257 463 L 257 455.5 L 256 454.5 L 256 423.5 L 257 422.5 L 257 415.5 L 259 405.5 L 274 342.5 Q 272.8 340 269 341 L 252 414.5 Q 253.8 420.8 251 422.5 L 251 455.5 Q 253.8 457.3 252 463.5 L 258 477.5 L 258 490.5 L 257 493 L 250.5 496 L 233.5 498 L 232.5 497 L 219.5 496 Q 213.8 494.8 211 490.5 L 209 480.5 L 210 479.5 L 210 471.5 L 212 462.5 L 213 427.5 L 214 426.5 L 215 363.5 L 214 362.5 L 212 342.5 L 210.5 341 L 207 341 L 207 348.5 L 210 364.5 L 210 403.5 L 209 404.5 L 209 426.5 L 208 427.5 L 207 463 L 171 463 L 171 449.5 L 170 448.5 L 170 430.5 L 169 429.5 L 169 410.5 L 168 409.5 L 168 362.5 L 169 361.5 L 171 341 L 166 341 L 166 345.5 L 163 361.5 L 163 409.5 L 164 410.5 L 166 465.5 L 168 472.5 L 168 488.5 L 163.5 494 L 154.5 497 Q 147 495.5 143.5 498 L 142.5 497 L 127.5 496 L 120 491.5 L 119 481.5 L 126 461.5 Q 124.2 455.3 127 453.5 L 127 424.5 L 120 387.5 L 114 366.5 L 110 345.5 L 107.5 341 Q 101.8 339.2 104 345.5 L 121 416.5 L 121 424.5 L 122 425.5 L 122 452.5 L 121 453.5 L 121 461.5 L 119.5 463 Q 100.7 459.8 92 446.5 L 78 424.5 L 71 405.5 L 67 388.5 L 65 367.5 L 64 366.5 L 64 318.5 L 65 317.5 L 65 306.5 L 66 305.5 L 68 286.5 L 78 252.5 Q 89.9 218.4 107.5 190 L 113.5 194 L 116 194 L 117 190.5 L 102 179 L 90 163.5 L 82 146.5 L 78 128.5 L 78 113.5 L 79 112.5 L 79 104.5 L 80 103.5 L 80 96.5 L 81 95.5 L 83 78.5 L 85 72.5 L 85 16.5 L 86.5 15 Z M 139 83 L 137 84 L 134 88 L 135 95 L 139 97 L 146 96 Q 149 94 148 88 L 144 83 L 139 83 Z M 238 83 L 236 84 L 232 89 L 233 94 Q 235 99 243 97 Q 248 95 246 87 Q 244 82 238 83 Z M 184 111 L 181 112 L 178 116 Q 177 126 182 130 L 186 133 Q 188 140 185 144 L 182 146 L 172 146 L 170 148 L 172 151 L 184 151 L 189 147 L 195 151 L 207 151 L 207 148 L 206 146 L 196 146 L 191 140 L 191 133 L 193 132 Q 200 128 200 116 Q 196 109 184 111 Z M 119 131 L 118 134 L 119 136 L 152 145 L 154 142 L 152 139 L 124 131 L 119 131 Z M 255 131 L 227 139 Q 223 140 224 144 L 227 145 L 256 137 L 259 135 Q 261 129 255 131 Z M 150 152 L 128 156 L 122 156 L 118 159 L 121 162 L 153 157 L 154 155 Q 153 151 150 152 Z M 226 152 L 224 156 L 229 158 L 235 158 L 258 162 Q 260 161 259 157 L 257 156 L 226 152 Z " /><path fill="rgb(234,234,234)" stroke="rgb(234,234,234)" stroke-width="1" opacity="1" d="M 407.5 323 L 411.5 323 L 418 329.5 Q 431.8 344.7 435 370.5 L 433.5 370 L 420.5 363 L 407.5 359 L 401.5 359 L 400 357.5 L 400 352.5 L 398 345.5 L 398 332.5 L 403.5 325 L 407.5 323 Z " /><path fill="rgb(234,234,234)" stroke="rgb(234,234,234)" stroke-width="1" opacity="1" d="M 400 380 Q 421.1 382.7 432 396.5 L 433 399.5 Q 426.3 422.8 411.5 438 Q 408.9 437.3 410 440 L 408 440 L 404 427.5 Q 399.2 417.3 391 410.5 L 391 408.5 Q 399.2 397.3 400 380 Z " /><path fill="rgb(234,234,234)" stroke="rgb(234,234,234)" stroke-width="1" opacity="1" d="M 377.5 427 Q 388.5 436.5 390 455.5 Q 373.3 468 349 472 L 351 464.5 L 352 448.5 L 351 442 Q 367.3 438.1 377.5 427 Z " /><path fill="rgb(234,234,234)" stroke="rgb(234,234,234)" stroke-width="1" opacity="1" d="M 310 443 L 316.5 445 L 330 446 Q 331.8 448.4 331 454.5 L 329 465.5 L 325 476 L 307.5 476 L 306.5 475 Q 296.6 476.4 291 473.5 Q 303.8 461.1 310 443 Z " /></svg>