<svg width="512" height="512" version="1.1" xmlns="http://www.w3.org/2000/svg" desc="Created with imagetracer.js version 1.2.6" ><path fill="rgb(222,222,220)" stroke="rgb(222,222,220)" stroke-width="1" opacity="1" d="M 165.5 14 L 168 14.5 L 164.5 16 L 165.5 14 Z " /><path fill="rgb(222,222,220)" stroke="rgb(222,222,220)" stroke-width="1" opacity="1" d="M 342.5 15 L 341.5 17 L 342.5 15 Z " /><path fill="rgb(222,222,220)" stroke="rgb(222,222,220)" stroke-width="1" opacity="1" d="M 347.5 16 L 348 65.5 L 347 65.5 L 347.5 16 Z " /><path fill="rgb(222,222,220)" stroke="rgb(222,222,220)" stroke-width="1" opacity="1" d="M 171.5 17 L 173.5 20 L 171.5 17 Z " /><path fill="rgb(222,222,220)" stroke="rgb(222,222,220)" stroke-width="1" opacity="1" d="M 337.5 19 L 336.5 21 L 337.5 19 Z " /><path fill="rgb(222,222,220)" stroke="rgb(222,222,220)" stroke-width="1" opacity="1" d="M 176.5 21 L 178.5 24 L 176.5 21 Z " /><path fill="rgb(222,222,220)" stroke="rgb(222,222,220)" stroke-width="1" opacity="1" d="M 333.5 22 L 331.5 25 L 333.5 22 Z " /><path fill="rgb(222,222,220)" stroke="rgb(222,222,220)" stroke-width="1" opacity="1" d="M 181.5 25 L 183.5 28 L 181.5 25 Z " /><path fill="rgb(222,222,220)" stroke="rgb(222,222,220)" stroke-width="1" opacity="1" d="M 328.5 26 L 326.5 29 L 328.5 26 Z " /><path fill="rgb(222,222,220)" stroke="rgb(222,222,220)" stroke-width="1" opacity="1" d="M 240.5 27 L 247 27.5 L 240.5 28 L 240.5 27 Z " /><path fill="rgb(222,222,220)" stroke="rgb(222,222,220)" stroke-width="1" opacity="1" d="M 264.5 27 L 272 27.5 L 264.5 28 L 264.5 27 Z " /><path fill="rgb(222,222,220)" stroke="rgb(222,222,220)" stroke-width="1" opacity="1" d="M 231.5 28 L 234 28.5 L 231.5 29 L 231.5 28 Z " /><path fill="rgb(222,222,220)" stroke="rgb(222,222,220)" stroke-width="1" opacity="1" d="M 278.5 28 L 281 28.5 L 278.5 29 L 278.5 28 Z " /><path fill="rgb(222,222,220)" stroke="rgb(222,222,220)" stroke-width="1" opacity="1" d="M 186.5 29 L 188.5 32 L 186.5 29 Z " /><path fill="rgb(222,222,220)" stroke="rgb(222,222,220)" stroke-width="1" opacity="1" d="M 224.5 29 L 227 29.5 L 224.5 30 L 224.5 29 Z " /><path fill="rgb(222,222,220)" stroke="rgb(222,222,220)" stroke-width="1" opacity="1" d="M 219.5 30 L 222 30.5 L 219.5 31 L 219.5 30 Z " /><path fill="rgb(222,222,220)" stroke="rgb(222,222,220)" stroke-width="1" opacity="1" d="M 323.5 30 L 321.5 33 L 323.5 30 Z " /><path fill="rgb(222,222,220)" stroke="rgb(222,222,220)" stroke-width="1" opacity="1" d="M 191.5 33 L 193.5 36 L 191.5 33 Z " /><path fill="rgb(222,222,220)" stroke="rgb(222,222,220)" stroke-width="1" opacity="1" d="M 317.5 35 L 316.5 37 L 317.5 35 Z " /><path fill="rgb(222,222,220)" stroke="rgb(222,222,220)" stroke-width="1" opacity="1" d="M 348.5 68 L 349 70.5 L 348 70.5 L 348.5 68 Z " /><path fill="rgb(222,222,220)" stroke="rgb(222,222,220)" stroke-width="1" opacity="1" d="M 210.5 75 L 212 75.5 L 208.5 78 L 210.5 75 Z " /><path fill="rgb(222,222,220)" stroke="rgb(222,222,220)" stroke-width="1" opacity="1" d="M 297.5 75 L 295.5 78 L 297.5 75 Z " /><path fill="rgb(222,222,220)" stroke="rgb(222,222,220)" stroke-width="1" opacity="1" d="M 161.5 76 L 162 78.5 L 161 78.5 L 161.5 76 Z " /><path fill="rgb(222,222,220)" stroke="rgb(222,222,220)" stroke-width="1" opacity="1" d="M 217.5 76 L 218.5 78 L 217.5 76 Z " /><path fill="rgb(222,222,220)" stroke="rgb(222,222,220)" stroke-width="1" opacity="1" d="M 207.5 79 L 208 82.5 L 207 82.5 L 207.5 79 Z " /><path fill="rgb(222,222,220)" stroke="rgb(222,222,220)" stroke-width="1" opacity="1" d="M 350.5 79 L 351 81.5 L 350 81.5 L 350.5 79 Z " /><path fill="rgb(222,222,220)" stroke="rgb(222,222,220)" stroke-width="1" opacity="1" d="M 160.5 82 L 161 84.5 L 160 84.5 L 160.5 82 Z " /><path fill="rgb(222,222,220)" stroke="rgb(222,222,220)" stroke-width="1" opacity="1" d="M 208.5 84 L 212 86.5 L 210.5 87 L 208.5 84 Z " /><path fill="rgb(222,222,220)" stroke="rgb(222,222,220)" stroke-width="1" opacity="1" d="M 218.5 84 L 217.5 86 L 218.5 84 Z " /><path fill="rgb(222,222,220)" stroke="rgb(222,222,220)" stroke-width="1" opacity="1" d="M 295.5 84 L 297.5 87 L 295.5 84 Z " /><path fill="rgb(222,222,220)" stroke="rgb(222,222,220)" stroke-width="1" opacity="1" d="M 351.5 86 L 352 88.5 L 351 88.5 L 351.5 86 Z " /><path fill="rgb(222,222,220)" stroke="rgb(222,222,220)" stroke-width="1" opacity="1" d="M 159.5 89 L 160 91.5 L 159 91.5 L 159.5 89 Z " /><path fill="rgb(222,222,220)" stroke="rgb(222,222,220)" stroke-width="1" opacity="1" d="M 352.5 94 L 353 96.5 L 352 96.5 L 352.5 94 Z " /><path fill="rgb(222,222,220)" stroke="rgb(222,222,220)" stroke-width="1" opacity="1" d="M 158.5 98 L 159 101.5 L 158 101.5 L 158.5 98 Z " /><path fill="rgb(222,222,220)" stroke="rgb(222,222,220)" stroke-width="1" opacity="1" d="M 252.5 99 L 260 99.5 L 252.5 100 L 252.5 99 Z " /><path fill="rgb(222,222,220)" stroke="rgb(222,222,220)" stroke-width="1" opacity="1" d="M 262.5 100 L 264.5 103 L 262.5 100 Z " /><path fill="rgb(222,222,220)" stroke="rgb(222,222,220)" stroke-width="1" opacity="1" d="M 246.5 103 L 247 108.5 L 246 108.5 L 246.5 103 Z " /><path fill="rgb(222,222,220)" stroke="rgb(222,222,220)" stroke-width="1" opacity="1" d="M 353.5 104 L 354 111.5 L 353 111.5 L 353.5 104 Z " /><path fill="rgb(222,222,220)" stroke="rgb(222,222,220)" stroke-width="1" opacity="1" d="M 263.5 112 L 262.5 114 L 263.5 112 Z " /><path fill="rgb(222,222,220)" stroke="rgb(222,222,220)" stroke-width="1" opacity="1" d="M 248.5 113 L 254 118.5 L 254 123.5 L 253 123.5 L 253 118.5 L 248.5 113 Z " /><path fill="rgb(222,222,220)" stroke="rgb(222,222,220)" stroke-width="1" opacity="1" d="M 158.5 114 L 159 117.5 L 158 117.5 L 158.5 114 Z " /><path fill="rgb(222,222,220)" stroke="rgb(222,222,220)" stroke-width="1" opacity="1" d="M 194.5 117 L 194 118.5 L 193.5 120 L 193 118.5 L 194.5 117 Z " /><path fill="rgb(222,222,220)" stroke="rgb(222,222,220)" stroke-width="1" opacity="1" d="M 352.5 118 L 353 120.5 L 352 120.5 L 352.5 118 Z " /><path fill="rgb(222,222,220)" stroke="rgb(222,222,220)" stroke-width="1" opacity="1" d="M 288.5 124 L 290 124.5 L 287.5 126 L 288.5 124 Z " /><path fill="rgb(222,222,220)" stroke="rgb(222,222,220)" stroke-width="1" opacity="1" d="M 224.5 125 L 225 127.5 L 223 128.5 L 224.5 125 Z " /><path fill="rgb(222,222,220)" stroke="rgb(222,222,220)" stroke-width="1" opacity="1" d="M 252.5 127 L 250.5 130 L 252.5 127 Z " /><path fill="rgb(222,222,220)" stroke="rgb(222,222,220)" stroke-width="1" opacity="1" d="M 259.5 128 L 260.5 130 L 259.5 128 Z " /><path fill="rgb(222,222,220)" stroke="rgb(222,222,220)" stroke-width="1" opacity="1" d="M 240.5 130 L 249 130.5 L 240.5 131 L 239.5 132 L 240.5 130 Z " /><path fill="rgb(222,222,220)" stroke="rgb(222,222,220)" stroke-width="1" opacity="1" d="M 263.5 130 Q 270.3 128.3 272 131.5 L 270.5 131 L 263.5 131 L 263.5 130 Z " /><path fill="rgb(222,222,220)" stroke="rgb(222,222,220)" stroke-width="1" opacity="1" d="M 256.5 131 L 258.5 134 L 256.5 131 Z " /><path fill="rgb(222,222,220)" stroke="rgb(222,222,220)" stroke-width="1" opacity="1" d="M 216.5 136 L 219 136.5 L 216.5 137 L 216.5 136 Z " /><path fill="rgb(222,222,220)" stroke="rgb(222,222,220)" stroke-width="1" opacity="1" d="M 293.5 136 L 296 136.5 L 293.5 137 L 293.5 136 Z " /><path fill="rgb(222,222,220)" stroke="rgb(222,222,220)" stroke-width="1" opacity="1" d="M 209.5 137 L 212 137.5 L 209.5 138 L 209.5 137 Z " /><path fill="rgb(222,222,220)" stroke="rgb(222,222,220)" stroke-width="1" opacity="1" d="M 300.5 137 L 303 137.5 L 300.5 138 L 300.5 137 Z " /><path fill="rgb(222,222,220)" stroke="rgb(222,222,220)" stroke-width="1" opacity="1" d="M 202.5 138 L 205 138.5 L 202.5 139 L 202.5 138 Z " /><path fill="rgb(222,222,220)" stroke="rgb(222,222,220)" stroke-width="1" opacity="1" d="M 307.5 138 L 310 138.5 L 307.5 139 L 307.5 138 Z " /><path fill="rgb(222,222,220)" stroke="rgb(222,222,220)" stroke-width="1" opacity="1" d="M 220.5 140 L 223 140.5 L 220.5 141 L 220.5 140 Z " /><path fill="rgb(222,222,220)" stroke="rgb(222,222,220)" stroke-width="1" opacity="1" d="M 289.5 140 L 292 140.5 L 289.5 141 L 289.5 140 Z " /><path fill="rgb(222,222,220)" stroke="rgb(222,222,220)" stroke-width="1" opacity="1" d="M 193.5 141 L 195 143.5 L 193 142.5 L 193.5 141 Z " /><path fill="rgb(222,222,220)" stroke="rgb(222,222,220)" stroke-width="1" opacity="1" d="M 212.5 141 L 215 141.5 L 212.5 142 L 212.5 141 Z " /><path fill="rgb(222,222,220)" stroke="rgb(222,222,220)" stroke-width="1" opacity="1" d="M 296.5 141 L 299 141.5 L 296.5 142 L 296.5 141 Z " /><path fill="rgb(222,222,220)" stroke="rgb(222,222,220)" stroke-width="1" opacity="1" d="M 205.5 142 L 208 142.5 L 205.5 143 L 205.5 142 Z " /><path fill="rgb(222,222,220)" stroke="rgb(222,222,220)" stroke-width="1" opacity="1" d="M 303.5 142 L 306 142.5 L 303.5 143 L 303.5 142 Z " /><path fill="rgb(222,222,220)" stroke="rgb(222,222,220)" stroke-width="1" opacity="1" d="M 198.5 143 L 201 143.5 L 198.5 144 L 198.5 143 Z " /><path fill="rgb(222,222,220)" stroke="rgb(222,222,220)" stroke-width="1" opacity="1" d="M 310.5 143 L 313 143.5 L 310.5 144 L 310.5 143 Z " /><path fill="rgb(222,222,220)" stroke="rgb(222,222,220)" stroke-width="1" opacity="1" d="M 343.5 144 L 342.5 146 L 343.5 144 Z " /><path fill="rgb(222,222,220)" stroke="rgb(222,222,220)" stroke-width="1" opacity="1" d="M 168.5 145 L 169.5 147 L 168.5 145 Z " /><path fill="rgb(222,222,220)" stroke="rgb(222,222,220)" stroke-width="1" opacity="1" d="M 170.5 148 L 171.5 150 L 170.5 148 Z " /><path fill="rgb(222,222,220)" stroke="rgb(222,222,220)" stroke-width="1" opacity="1" d="M 339.5 150 L 338.5 152 L 339.5 150 Z " /><path fill="rgb(222,222,220)" stroke="rgb(222,222,220)" stroke-width="1" opacity="1" d="M 172.5 151 L 175.5 155 L 172.5 151 Z " /><path fill="rgb(222,222,220)" stroke="rgb(222,222,220)" stroke-width="1" opacity="1" d="M 336.5 154 L 328.5 163 L 336.5 154 Z " /><path fill="rgb(222,222,220)" stroke="rgb(222,222,220)" stroke-width="1" opacity="1" d="M 182.5 161 L 185.5 165 L 182.5 161 Z " /><path fill="rgb(222,222,220)" stroke="rgb(222,222,220)" stroke-width="1" opacity="1" d="M 325.5 164 L 324.5 166 L 325.5 164 Z " /><path fill="rgb(222,222,220)" stroke="rgb(222,222,220)" stroke-width="1" opacity="1" d="M 192.5 171 Q 195.3 172.3 193 173.5 L 174.5 212 L 172 211 Q 179.9 189 192.5 171 Z " /><path fill="rgb(222,222,220)" stroke="rgb(222,222,220)" stroke-width="1" opacity="1" d="M 318 172 Q 320.7 170.9 320 173.5 Q 332.2 189.8 340 210.5 L 336.5 213 L 331 197.5 L 318 172 Z " /><path fill="rgb(222,222,220)" stroke="rgb(222,222,220)" stroke-width="1" opacity="1" d="M 63.5 209 L 70 209.5 L 63.5 210 L 63.5 209 Z " /><path fill="rgb(222,222,220)" stroke="rgb(222,222,220)" stroke-width="1" opacity="1" d="M 442.5 209 L 448 209.5 L 442.5 210 L 442.5 209 Z " /><path fill="rgb(222,222,220)" stroke="rgb(222,222,220)" stroke-width="1" opacity="1" d="M 61.5 210 L 59.5 213 L 61.5 210 Z " /><path fill="rgb(222,222,220)" stroke="rgb(222,222,220)" stroke-width="1" opacity="1" d="M 428.5 212 L 431 212.5 L 428.5 213 L 428.5 212 Z " /><path fill="rgb(222,222,220)" stroke="rgb(222,222,220)" stroke-width="1" opacity="1" d="M 88.5 213 L 96 213.5 L 88.5 214 L 88.5 213 Z " /><path fill="rgb(222,222,220)" stroke="rgb(222,222,220)" stroke-width="1" opacity="1" d="M 415.5 213 L 423 213.5 L 415.5 214 L 415.5 213 Z " /><path fill="rgb(222,222,220)" stroke="rgb(222,222,220)" stroke-width="1" opacity="1" d="M 116.5 214 L 149 214.5 L 116.5 215 L 116.5 214 Z " /><path fill="rgb(222,222,220)" stroke="rgb(222,222,220)" stroke-width="1" opacity="1" d="M 336.5 214 L 343 215.5 L 339 216 L 338.5 219 L 336.5 214 Z " /><path fill="rgb(222,222,220)" stroke="rgb(222,222,220)" stroke-width="1" opacity="1" d="M 362.5 214 L 395 214.5 L 362.5 215 L 362.5 214 Z " /><path fill="rgb(222,222,220)" stroke="rgb(222,222,220)" stroke-width="1" opacity="1" d="M 169.5 215 Q 174.9 213.1 174 216.5 L 172.5 216 Q 168.5 216.8 169.5 215 Z " /><path fill="rgb(222,222,220)" stroke="rgb(222,222,220)" stroke-width="1" opacity="1" d="M 55.5 224 L 56 226.5 L 55 226.5 L 55.5 224 Z " /><path fill="rgb(222,222,220)" stroke="rgb(222,222,220)" stroke-width="1" opacity="1" d="M 456.5 227 L 457 230.5 L 456 230.5 L 456.5 227 Z " /><path fill="rgb(222,222,220)" stroke="rgb(222,222,220)" stroke-width="1" opacity="1" d="M 456.5 237 L 457 239.5 L 456 239.5 L 456.5 237 Z " /><path fill="rgb(222,222,220)" stroke="rgb(222,222,220)" stroke-width="1" opacity="1" d="M 56.5 244 L 57.5 246 L 56.5 244 Z " /><path fill="rgb(222,222,220)" stroke="rgb(222,222,220)" stroke-width="1" opacity="1" d="M 114.5 244 L 123 244.5 L 114.5 245 L 114.5 244 Z " /><path fill="rgb(222,222,220)" stroke="rgb(222,222,220)" stroke-width="1" opacity="1" d="M 388.5 244 L 397 244.5 L 388.5 245 L 388.5 244 Z " /><path fill="rgb(222,222,220)" stroke="rgb(222,222,220)" stroke-width="1" opacity="1" d="M 132.5 245 L 137 245.5 L 132.5 246 L 132.5 245 Z " /><path fill="rgb(222,222,220)" stroke="rgb(222,222,220)" stroke-width="1" opacity="1" d="M 375.5 245 L 380 245.5 L 375.5 246 L 375.5 245 Z " /><path fill="rgb(222,222,220)" stroke="rgb(222,222,220)" stroke-width="1" opacity="1" d="M 60.5 246 L 63 246.5 L 60.5 247 L 60.5 246 Z " /><path fill="rgb(222,222,220)" stroke="rgb(222,222,220)" stroke-width="1" opacity="1" d="M 142.5 246 L 145 246.5 L 142.5 247 L 142.5 246 Z " /><path fill="rgb(222,222,220)" stroke="rgb(222,222,220)" stroke-width="1" opacity="1" d="M 366.5 246 L 370 246.5 L 366.5 247 L 366.5 246 Z " /><path fill="rgb(222,222,220)" stroke="rgb(222,222,220)" stroke-width="1" opacity="1" d="M 148.5 247 L 151 247.5 L 148.5 248 L 148.5 247 Z " /><path fill="rgb(222,222,220)" stroke="rgb(222,222,220)" stroke-width="1" opacity="1" d="M 157.5 249 L 160 249.5 L 157.5 250 L 157.5 249 Z " /><path fill="rgb(222,222,220)" stroke="rgb(222,222,220)" stroke-width="1" opacity="1" d="M 351.5 249 L 355 249.5 L 351.5 250 L 351.5 249 Z " /><path fill="rgb(222,222,220)" stroke="rgb(222,222,220)" stroke-width="1" opacity="1" d="M 344.5 251 L 343.5 253 L 344.5 251 Z " /><path fill="rgb(222,222,220)" stroke="rgb(222,222,220)" stroke-width="1" opacity="1" d="M 168.5 252 L 169 254.5 L 168 254.5 L 168.5 252 Z " /><path fill="rgb(222,222,220)" stroke="rgb(222,222,220)" stroke-width="1" opacity="1" d="M 157 254 L 165 255.5 L 163 256 L 162 268.5 L 161 269.5 L 161 277.5 L 160 278.5 L 160 317.5 L 161 318.5 L 162 331.5 L 165 341.5 L 150 342 L 149 339.5 L 149 303.5 L 150 302.5 L 151 284.5 L 157 254 Z " /><path fill="rgb(222,222,220)" stroke="rgb(222,222,220)" stroke-width="1" opacity="1" d="M 349.5 254 Q 354.9 252.1 354 255.5 L 360 281.5 L 361 297.5 L 362 298.5 L 362 310.5 L 351.5 316 L 351 311.5 L 352 310.5 L 352 286.5 L 351 285.5 L 350 265.5 L 348 256 L 346 255.5 L 349.5 254 Z " /><path fill="rgb(222,222,220)" stroke="rgb(222,222,220)" stroke-width="1" opacity="1" d="M 483 263 L 491 268.5 L 497 283.5 L 498 304.5 L 495 320.5 L 488 338.5 Q 477.5 357.5 461.5 371 Q 442.4 387.4 417.5 398 L 388.5 408 L 370.5 412 L 357.5 413 L 357.5 412 L 375.5 408 L 388 402.5 L 391 386.5 L 391 375.5 L 389.5 373 Q 400 372 406.5 367 L 407 386.5 L 405 394.5 L 406.5 395 Q 424.1 386.6 438 374.5 Q 437.2 359.3 429.5 351 L 426 353.5 L 441.5 335 L 448 346.5 L 452 361 L 458 356.5 Q 469.9 344.4 477 327.5 L 470 317 L 455 308.5 L 458 302.5 L 460 292 L 470.5 295 L 485 306 L 487 293.5 L 487 278.5 L 483 263 Z " /><path fill="rgb(222,222,220)" stroke="rgb(222,222,220)" stroke-width="1" opacity="1" d="M 470.5 265 L 468.5 268 L 470.5 265 Z " /><path fill="rgb(222,222,220)" stroke="rgb(222,222,220)" stroke-width="1" opacity="1" d="M 467.5 269 L 466.5 271 L 467.5 269 Z " /><path fill="rgb(222,222,220)" stroke="rgb(222,222,220)" stroke-width="1" opacity="1" d="M 449.5 322 L 448.5 324 L 449.5 322 Z " /><path fill="rgb(222,222,220)" stroke="rgb(222,222,220)" stroke-width="1" opacity="1" d="M 305.5 327 L 308 327.5 L 305.5 328 L 305.5 327 Z " /><path fill="rgb(222,222,220)" stroke="rgb(222,222,220)" stroke-width="1" opacity="1" d="M 300.5 328 L 303 328.5 L 300.5 329 L 300.5 328 Z " /><path fill="rgb(222,222,220)" stroke="rgb(222,222,220)" stroke-width="1" opacity="1" d="M 445.5 329 L 444.5 331 L 445.5 329 Z " /><path fill="rgb(222,222,220)" stroke="rgb(222,222,220)" stroke-width="1" opacity="1" d="M 276.5 332 L 279 332.5 L 276.5 333 L 276.5 332 Z " /><path fill="rgb(222,222,220)" stroke="rgb(222,222,220)" stroke-width="1" opacity="1" d="M 443.5 332 L 442.5 334 L 443.5 332 Z " /><path fill="rgb(222,222,220)" stroke="rgb(222,222,220)" stroke-width="1" opacity="1" d="M 269.5 333 L 272 333.5 L 269.5 334 L 269.5 333 Z " /><path fill="rgb(222,222,220)" stroke="rgb(222,222,220)" stroke-width="1" opacity="1" d="M 262.5 334 L 265 334.5 L 262.5 335 L 262.5 334 Z " /><path fill="rgb(222,222,220)" stroke="rgb(222,222,220)" stroke-width="1" opacity="1" d="M 361.5 334 L 362 343.5 L 356 374.5 L 349 392.5 Q 340.7 409.7 327.5 422 L 324 421 L 324 437.5 L 326 444.5 L 326 454.5 Q 322.5 468.5 316 479.5 L 313 491.5 L 307.5 497 L 300.5 498 Q 293.3 496.2 290 490.5 L 287 478.5 L 287 459.5 L 288 458.5 L 288 443.5 L 289 442.5 L 290 428.5 L 286 427 L 284 445 L 266.5 448 L 244.5 448 L 227 445 Q 228.4 433.9 224.5 427 L 222 427.5 L 222 436.5 L 223 437.5 L 223 449.5 L 224 450.5 L 224 483.5 Q 222.5 492 216.5 496 Q 213.6 498.6 207.5 498 Q 201.8 496.8 199 492.5 Q 194.9 474.6 187 460.5 L 185 446.5 L 187 441.5 L 188 422.5 Q 187.3 420.3 183.5 421 L 175 412.5 Q 158.5 392.3 153 362 L 172.5 363 L 173.5 362 L 182.5 362 L 182.5 363 L 173 363.5 Q 181.7 381.3 196.5 393 Q 207.6 401.9 222.5 407 L 240.5 411 L 260.5 412 L 261.5 411 L 277.5 410 L 296.5 404 Q 314.3 396.3 326 382.5 Q 341.4 365.4 347 340 L 345 339.5 L 361.5 334 Z " /><path fill="rgb(222,222,220)" stroke="rgb(222,222,220)" stroke-width="1" opacity="1" d="M 254.5 335 L 257 335.5 L 254.5 336 L 254.5 335 Z " /><path fill="rgb(222,222,220)" stroke="rgb(222,222,220)" stroke-width="1" opacity="1" d="M 246.5 336 L 249 336.5 L 246.5 337 L 246.5 336 Z " /><path fill="rgb(222,222,220)" stroke="rgb(222,222,220)" stroke-width="1" opacity="1" d="M 236.5 337 L 240 337.5 L 236.5 338 L 236.5 337 Z " /><path fill="rgb(222,222,220)" stroke="rgb(222,222,220)" stroke-width="1" opacity="1" d="M 226.5 338 L 230 338.5 L 226.5 339 L 226.5 338 Z " /><path fill="rgb(222,222,220)" stroke="rgb(222,222,220)" stroke-width="1" opacity="1" d="M 214.5 339 L 219 339.5 L 214.5 340 L 214.5 339 Z " /><path fill="rgb(222,222,220)" stroke="rgb(222,222,220)" stroke-width="1" opacity="1" d="M 201.5 340 L 207 340.5 L 201.5 341 L 201.5 340 Z " /><path fill="rgb(222,222,220)" stroke="rgb(222,222,220)" stroke-width="1" opacity="1" d="M 183.5 341 L 191 341.5 L 183.5 342 L 183.5 341 Z " /><path fill="rgb(222,222,220)" stroke="rgb(222,222,220)" stroke-width="1" opacity="1" d="M 301.5 349 L 304 349.5 L 301.5 350 L 301.5 349 Z " /><path fill="rgb(222,222,220)" stroke="rgb(222,222,220)" stroke-width="1" opacity="1" d="M 289.5 351 L 292 351.5 L 289.5 352 L 289.5 351 Z " /><path fill="rgb(222,222,220)" stroke="rgb(222,222,220)" stroke-width="1" opacity="1" d="M 283.5 352 L 286 352.5 L 283.5 353 L 283.5 352 Z " /><path fill="rgb(222,222,220)" stroke="rgb(222,222,220)" stroke-width="1" opacity="1" d="M 276.5 353 L 279 353.5 L 276.5 354 L 276.5 353 Z " /><path fill="rgb(222,222,220)" stroke="rgb(222,222,220)" stroke-width="1" opacity="1" d="M 268.5 354 L 272 354.5 L 268.5 355 L 268.5 354 Z " /><path fill="rgb(222,222,220)" stroke="rgb(222,222,220)" stroke-width="1" opacity="1" d="M 260.5 355 L 264 355.5 L 260.5 356 L 260.5 355 Z " /><path fill="rgb(222,222,220)" stroke="rgb(222,222,220)" stroke-width="1" opacity="1" d="M 252.5 356 L 255 356.5 L 252.5 357 L 252.5 356 Z " /><path fill="rgb(222,222,220)" stroke="rgb(222,222,220)" stroke-width="1" opacity="1" d="M 422.5 356 L 420.5 359 L 422.5 356 Z " /><path fill="rgb(222,222,220)" stroke="rgb(222,222,220)" stroke-width="1" opacity="1" d="M 243.5 357 L 246 357.5 L 243.5 358 L 243.5 357 Z " /><path fill="rgb(222,222,220)" stroke="rgb(222,222,220)" stroke-width="1" opacity="1" d="M 233.5 358 L 237 358.5 L 233.5 359 L 233.5 358 Z " /><path fill="rgb(222,222,220)" stroke="rgb(222,222,220)" stroke-width="1" opacity="1" d="M 221.5 359 L 226 359.5 L 221.5 360 L 221.5 359 Z " /><path fill="rgb(222,222,220)" stroke="rgb(222,222,220)" stroke-width="1" opacity="1" d="M 209.5 360 L 214 360.5 L 209.5 361 L 209.5 360 Z " /><path fill="rgb(222,222,220)" stroke="rgb(222,222,220)" stroke-width="1" opacity="1" d="M 417.5 360 L 416.5 362 L 417.5 360 Z " /><path fill="rgb(222,222,220)" stroke="rgb(222,222,220)" stroke-width="1" opacity="1" d="M 193.5 361 L 200 361.5 L 193.5 362 L 193.5 361 Z " /><path fill="rgb(222,222,220)" stroke="rgb(222,222,220)" stroke-width="1" opacity="1" d="M 414.5 362 L 413.5 364 L 414.5 362 Z " /><path fill="rgb(222,222,220)" stroke="rgb(222,222,220)" stroke-width="1" opacity="1" d="M 409.5 365 L 408.5 367 L 409.5 365 Z " /><path fill="rgb(222,222,220)" stroke="rgb(222,222,220)" stroke-width="1" opacity="1" d="M 372.5 374 L 375 374.5 L 372.5 375 L 372.5 374 Z " /><path fill="rgb(222,222,220)" stroke="rgb(222,222,220)" stroke-width="1" opacity="1" d="M 383.5 374 L 386 374.5 L 383.5 375 L 383.5 374 Z " /><path fill="rgb(222,222,220)" stroke="rgb(222,222,220)" stroke-width="1" opacity="1" d="M 342.5 411 L 341.5 413 L 342.5 411 Z " /><path fill="rgb(222,222,220)" stroke="rgb(222,222,220)" stroke-width="1" opacity="1" d="M 350.5 413 L 355 413.5 L 350.5 414 L 350.5 413 Z " /><path fill="rgb(87,88,90)" stroke="rgb(87,88,90)" stroke-width="1" opacity="0.1803921568627451" d="M 163.5 10 L 165 10.5 L 160.5 14 L 161 12.5 Q 160.3 10.3 162.5 11 L 163.5 10 Z " /><path fill="rgb(87,88,90)" stroke="rgb(87,88,90)" stroke-width="1" opacity="0.1803921568627451" d="M 168.5 10 L 171.5 11 L 198 32.5 L 196.5 32 L 171.5 12 L 168.5 11 L 168.5 10 Z " /><path fill="rgb(87,88,90)" stroke="rgb(87,88,90)" stroke-width="1" opacity="0.1803921568627451" d="M 341.5 10 L 344 10.5 L 341.5 11 L 313.5 33 L 304 29.5 L 306.5 29 L 314.5 32 L 341.5 10 Z " /><path fill="rgb(87,88,90)" stroke="rgb(87,88,90)" stroke-width="1" opacity="0.1803921568627451" d="M 346.5 10 Q 350.5 9.5 351 12.5 L 348.5 11 Q 345.5 11.5 346.5 10 Z " /><path fill="rgb(87,88,90)" stroke="rgb(87,88,90)" stroke-width="1" opacity="0.1803921568627451" d="M 351.5 14 L 352 16.5 L 351 16.5 L 351.5 14 Z " /><path fill="rgb(87,88,90)" stroke="rgb(87,88,90)" stroke-width="1" opacity="0.1803921568627451" d="M 159.5 15 L 160 65.5 L 159 65.5 L 159.5 15 Z " /><path fill="rgb(87,88,90)" stroke="rgb(87,88,90)" stroke-width="1" opacity="0.1803921568627451" d="M 233.5 23 L 241 23.5 L 233.5 24 L 233.5 23 Z " /><path fill="rgb(87,88,90)" stroke="rgb(87,88,90)" stroke-width="1" opacity="0.1803921568627451" d="M 270.5 23 L 278 23.5 L 270.5 24 L 270.5 23 Z " /><path fill="rgb(87,88,90)" stroke="rgb(87,88,90)" stroke-width="1" opacity="0.1803921568627451" d="M 226.5 24 L 232 24.5 L 226.5 25 L 226.5 24 Z " /><path fill="rgb(87,88,90)" stroke="rgb(87,88,90)" stroke-width="1" opacity="0.1803921568627451" d="M 280.5 24 L 285 24.5 L 280.5 25 L 280.5 24 Z " /><path fill="rgb(87,88,90)" stroke="rgb(87,88,90)" stroke-width="1" opacity="0.1803921568627451" d="M 221.5 25 L 225 25.5 L 221.5 26 L 221.5 25 Z " /><path fill="rgb(87,88,90)" stroke="rgb(87,88,90)" stroke-width="1" opacity="0.1803921568627451" d="M 287.5 25 L 291 25.5 L 287.5 26 L 287.5 25 Z " /><path fill="rgb(87,88,90)" stroke="rgb(87,88,90)" stroke-width="1" opacity="0.1803921568627451" d="M 216.5 26 L 220 26.5 L 216.5 27 L 216.5 26 Z " /><path fill="rgb(87,88,90)" stroke="rgb(87,88,90)" stroke-width="1" opacity="0.1803921568627451" d="M 292.5 26 L 295 26.5 L 292.5 27 L 292.5 26 Z " /><path fill="rgb(87,88,90)" stroke="rgb(87,88,90)" stroke-width="1" opacity="0.1803921568627451" d="M 212.5 27 L 215 27.5 L 212.5 28 L 212.5 27 Z " /><path fill="rgb(87,88,90)" stroke="rgb(87,88,90)" stroke-width="1" opacity="0.1803921568627451" d="M 296.5 27 L 303 28.5 L 300.5 29 L 296.5 28 L 296.5 27 Z " /><path fill="rgb(87,88,90)" stroke="rgb(87,88,90)" stroke-width="1" opacity="0.1803921568627451" d="M 208.5 28 L 211 28.5 L 205.5 30 L 205.5 29 L 208.5 28 Z " /><path fill="rgb(87,88,90)" stroke="rgb(87,88,90)" stroke-width="1" opacity="0.1803921568627451" d="M 352.5 65 L 353 68.5 L 352 68.5 L 352.5 65 Z " /><path fill="rgb(87,88,90)" stroke="rgb(87,88,90)" stroke-width="1" opacity="0.1803921568627451" d="M 158.5 67 L 159 70.5 L 158 70.5 L 158.5 67 Z " /><path fill="rgb(87,88,90)" stroke="rgb(87,88,90)" stroke-width="1" opacity="0.1803921568627451" d="M 353.5 70 L 354 73.5 L 353 73.5 L 353.5 70 Z " /><path fill="rgb(87,88,90)" stroke="rgb(87,88,90)" stroke-width="1" opacity="0.1803921568627451" d="M 157.5 73 L 158 76.5 L 157 76.5 L 157.5 73 Z " /><path fill="rgb(87,88,90)" stroke="rgb(87,88,90)" stroke-width="1" opacity="0.1803921568627451" d="M 354.5 76 L 355 79.5 L 354 79.5 L 354.5 76 Z " /><path fill="rgb(87,88,90)" stroke="rgb(87,88,90)" stroke-width="1" opacity="0.1803921568627451" d="M 156.5 78 L 157 82.5 L 156 82.5 L 156.5 78 Z " /><path fill="rgb(87,88,90)" stroke="rgb(87,88,90)" stroke-width="1" opacity="0.1803921568627451" d="M 355.5 82 L 356 86.5 L 355 86.5 L 355.5 82 Z " /><path fill="rgb(87,88,90)" stroke="rgb(87,88,90)" stroke-width="1" opacity="0.1803921568627451" d="M 155.5 85 L 156 89.5 L 155 89.5 L 155.5 85 Z " /><path fill="rgb(87,88,90)" stroke="rgb(87,88,90)" stroke-width="1" opacity="0.1803921568627451" d="M 356.5 89 L 357 94.5 L 356 94.5 L 356.5 89 Z " /><path fill="rgb(87,88,90)" stroke="rgb(87,88,90)" stroke-width="1" opacity="0.1803921568627451" d="M 154.5 92 L 155 98.5 L 154 98.5 L 154.5 92 Z " /><path fill="rgb(87,88,90)" stroke="rgb(87,88,90)" stroke-width="1" opacity="0.1803921568627451" d="M 357.5 97 L 358 117.5 L 357 117.5 L 357.5 97 Z " /><path fill="rgb(87,88,90)" stroke="rgb(87,88,90)" stroke-width="1" opacity="0.1803921568627451" d="M 153.5 102 L 154 113.5 L 153 113.5 L 153.5 102 Z " /><path fill="rgb(87,88,90)" stroke="rgb(87,88,90)" stroke-width="1" opacity="0.1803921568627451" d="M 154.5 117 L 155 121.5 L 154 121.5 L 154.5 117 Z " /><path fill="rgb(87,88,90)" stroke="rgb(87,88,90)" stroke-width="1" opacity="0.1803921568627451" d="M 356.5 120 L 357 123.5 L 356 123.5 L 356.5 120 Z " /><path fill="rgb(87,88,90)" stroke="rgb(87,88,90)" stroke-width="1" opacity="0.1803921568627451" d="M 155.5 123 L 157 129.5 L 156 129.5 L 155.5 123 Z " /><path fill="rgb(87,88,90)" stroke="rgb(87,88,90)" stroke-width="1" opacity="0.1803921568627451" d="M 355.5 125 L 356 127.5 L 355 127.5 L 355.5 125 Z " /><path fill="rgb(87,88,90)" stroke="rgb(87,88,90)" stroke-width="1" opacity="0.1803921568627451" d="M 354.5 129 L 355 131.5 L 353.5 134 L 353 132.5 L 354.5 129 Z " /><path fill="rgb(87,88,90)" stroke="rgb(87,88,90)" stroke-width="1" opacity="0.1803921568627451" d="M 158.5 134 L 160 137.5 L 159 137.5 L 158.5 134 Z " /><path fill="rgb(87,88,90)" stroke="rgb(87,88,90)" stroke-width="1" opacity="0.1803921568627451" d="M 352.5 135 L 353 136.5 L 351.5 139 L 351 137.5 L 352.5 135 Z " /><path fill="rgb(87,88,90)" stroke="rgb(87,88,90)" stroke-width="1" opacity="0.1803921568627451" d="M 160.5 139 Q 167.6 155.4 180.5 166 L 188 171.5 Q 177.2 187.2 169.5 206 L 169 204.5 L 187 171.5 L 171 157.5 L 162 144.5 L 160.5 139 Z " /><path fill="rgb(87,88,90)" stroke="rgb(87,88,90)" stroke-width="1" opacity="0.1803921568627451" d="M 350.5 140 L 351 141.5 L 348.5 145 L 349 143.5 L 350.5 140 Z " /><path fill="rgb(87,88,90)" stroke="rgb(87,88,90)" stroke-width="1" opacity="0.1803921568627451" d="M 347.5 146 L 347 147.5 Q 340.8 160.3 329.5 168 L 324 171.5 L 331 182.5 L 329 181.5 L 323 171.5 L 342 154.5 L 347.5 146 Z " /><path fill="rgb(87,88,90)" stroke="rgb(87,88,90)" stroke-width="1" opacity="0.1803921568627451" d="M 331.5 184 L 342 204.5 L 341 204.5 L 331.5 184 Z " /><path fill="rgb(87,88,90)" stroke="rgb(87,88,90)" stroke-width="1" opacity="0.1803921568627451" d="M 61.5 205 L 64 205.5 Q 58.4 206.4 56 210.5 L 53.5 216 L 53 214.5 L 59.5 206 L 61.5 205 Z " /><path fill="rgb(87,88,90)" stroke="rgb(87,88,90)" stroke-width="1" opacity="0.1803921568627451" d="M 69.5 205 L 74 205.5 L 69.5 206 L 69.5 205 Z " /><path fill="rgb(87,88,90)" stroke="rgb(87,88,90)" stroke-width="1" opacity="0.1803921568627451" d="M 438.5 205 L 443 205.5 L 438.5 206 L 438.5 205 Z " /><path fill="rgb(87,88,90)" stroke="rgb(87,88,90)" stroke-width="1" opacity="0.1803921568627451" d="M 448.5 205 Q 454.1 205.5 456 209.5 L 457 211.5 L 455 210.5 L 452.5 207 L 448.5 206 L 448.5 205 Z " /><path fill="rgb(87,88,90)" stroke="rgb(87,88,90)" stroke-width="1" opacity="0.1803921568627451" d="M 75.5 206 L 78 206.5 L 75.5 207 L 75.5 206 Z " /><path fill="rgb(87,88,90)" stroke="rgb(87,88,90)" stroke-width="1" opacity="0.1803921568627451" d="M 342.5 206 L 344 210 L 372 210.5 L 344.5 211 Q 340.8 209.2 342.5 206 Z " /><path fill="rgb(87,88,90)" stroke="rgb(87,88,90)" stroke-width="1" opacity="0.1803921568627451" d="M 433.5 206 L 437 206.5 L 430.5 208 L 430.5 207 L 433.5 206 Z " /><path fill="rgb(87,88,90)" stroke="rgb(87,88,90)" stroke-width="1" opacity="0.1803921568627451" d="M 168.5 207 L 169 208.5 L 168 211 L 139 210.5 L 166.5 210 L 168 208.5 L 168.5 207 Z " /><path fill="rgb(87,88,90)" stroke="rgb(87,88,90)" stroke-width="1" opacity="0.1803921568627451" d="M 82.5 208 L 88 208.5 L 82.5 209 L 82.5 208 Z " /><path fill="rgb(87,88,90)" stroke="rgb(87,88,90)" stroke-width="1" opacity="0.1803921568627451" d="M 423.5 208 L 429 208.5 L 423.5 209 L 423.5 208 Z " /><path fill="rgb(87,88,90)" stroke="rgb(87,88,90)" stroke-width="1" opacity="0.1803921568627451" d="M 92.5 209 L 114 209.5 L 92.5 210 L 92.5 209 Z " /><path fill="rgb(87,88,90)" stroke="rgb(87,88,90)" stroke-width="1" opacity="0.1803921568627451" d="M 397.5 209 L 419 209.5 L 397.5 210 L 397.5 209 Z " /><path fill="rgb(87,88,90)" stroke="rgb(87,88,90)" stroke-width="1" opacity="0.1803921568627451" d="M 457.5 213 L 460 221.5 L 459 221.5 L 457.5 213 Z " /><path fill="rgb(87,88,90)" stroke="rgb(87,88,90)" stroke-width="1" opacity="0.1803921568627451" d="M 52.5 217 L 53 219.5 L 52 219.5 L 52.5 217 Z " /><path fill="rgb(87,88,90)" stroke="rgb(87,88,90)" stroke-width="1" opacity="0.1803921568627451" d="M 51.5 221 L 52 224.5 L 51 224.5 L 51.5 221 Z " /><path fill="rgb(87,88,90)" stroke="rgb(87,88,90)" stroke-width="1" opacity="0.1803921568627451" d="M 460.5 223 L 461 227.5 L 460 227.5 L 460.5 223 Z " /><path fill="rgb(87,88,90)" stroke="rgb(87,88,90)" stroke-width="1" opacity="0.1803921568627451" d="M 50.5 227 L 51 240.5 L 50 240.5 L 50.5 227 Z " /><path fill="rgb(87,88,90)" stroke="rgb(87,88,90)" stroke-width="1" opacity="0.1803921568627451" d="M 461.5 232 L 462 234.5 L 461 234.5 L 461.5 232 Z " /><path fill="rgb(87,88,90)" stroke="rgb(87,88,90)" stroke-width="1" opacity="0.1803921568627451" d="M 460.5 239 L 461 242.5 L 460 242.5 L 460.5 239 Z " /><path fill="rgb(87,88,90)" stroke="rgb(87,88,90)" stroke-width="1" opacity="0.1803921568627451" d="M 51.5 242 L 55.5 249 L 57 249.5 L 55.5 250 Q 50.8 247.6 51.5 242 Z " /><path fill="rgb(87,88,90)" stroke="rgb(87,88,90)" stroke-width="1" opacity="0.1803921568627451" d="M 459.5 244 L 460 245.5 L 456.5 250 L 455 249.5 L 458 247.5 L 459.5 244 Z " /><path fill="rgb(87,88,90)" stroke="rgb(87,88,90)" stroke-width="1" opacity="0.1803921568627451" d="M 78.5 248 L 118 248.5 L 78.5 249 L 71.5 251 L 71.5 250 L 78.5 248 Z " /><path fill="rgb(87,88,90)" stroke="rgb(87,88,90)" stroke-width="1" opacity="0.1803921568627451" d="M 394.5 248 L 433.5 248 L 436 249.5 L 434.5 250 L 433.5 249 L 394.5 249 L 394.5 248 Z " /><path fill="rgb(87,88,90)" stroke="rgb(87,88,90)" stroke-width="1" opacity="0.1803921568627451" d="M 124.5 249 L 134 249.5 L 124.5 250 L 124.5 249 Z " /><path fill="rgb(87,88,90)" stroke="rgb(87,88,90)" stroke-width="1" opacity="0.1803921568627451" d="M 377.5 249 L 387 249.5 L 377.5 250 L 377.5 249 Z " /><path fill="rgb(87,88,90)" stroke="rgb(87,88,90)" stroke-width="1" opacity="0.1803921568627451" d="M 58.5 250 L 61 250.5 L 58.5 251 L 58.5 250 Z " /><path fill="rgb(87,88,90)" stroke="rgb(87,88,90)" stroke-width="1" opacity="0.1803921568627451" d="M 137.5 250 L 143 250.5 L 137.5 251 L 137.5 250 Z " /><path fill="rgb(87,88,90)" stroke="rgb(87,88,90)" stroke-width="1" opacity="0.1803921568627451" d="M 368.5 250 L 374 250.5 L 368.5 251 L 368.5 250 Z " /><path fill="rgb(87,88,90)" stroke="rgb(87,88,90)" stroke-width="1" opacity="0.1803921568627451" d="M 437.5 250 L 441 250.5 L 437.5 251 L 437.5 250 Z " /><path fill="rgb(87,88,90)" stroke="rgb(87,88,90)" stroke-width="1" opacity="0.1803921568627451" d="M 450.5 250 L 454 250.5 L 450.5 251 L 450.5 250 Z " /><path fill="rgb(87,88,90)" stroke="rgb(87,88,90)" stroke-width="1" opacity="0.1803921568627451" d="M 63.5 251 L 69 251.5 L 63.5 252 L 63.5 251 Z " /><path fill="rgb(87,88,90)" stroke="rgb(87,88,90)" stroke-width="1" opacity="0.1803921568627451" d="M 145.5 251 L 149 251.5 L 145.5 252 L 145.5 251 Z " /><path fill="rgb(87,88,90)" stroke="rgb(87,88,90)" stroke-width="1" opacity="0.1803921568627451" d="M 362.5 251 L 367 251.5 L 359 253 L 358.5 256 L 358 252 L 362.5 251 Z " /><path fill="rgb(87,88,90)" stroke="rgb(87,88,90)" stroke-width="1" opacity="0.1803921568627451" d="M 443.5 251 L 448 251.5 L 443.5 252 L 443.5 251 Z " /><path fill="rgb(87,88,90)" stroke="rgb(87,88,90)" stroke-width="1" opacity="0.1803921568627451" d="M 150.5 252 L 154 253.5 L 152.5 253 Q 149.5 253.5 150.5 252 Z " /><path fill="rgb(87,88,90)" stroke="rgb(87,88,90)" stroke-width="1" opacity="0.1803921568627451" d="M 112.5 254 L 127 254.5 L 112.5 255 L 112.5 254 Z " /><path fill="rgb(87,88,90)" stroke="rgb(87,88,90)" stroke-width="1" opacity="0.1803921568627451" d="M 99.5 255 L 107 255.5 L 99.5 256 L 99.5 255 Z " /><path fill="rgb(87,88,90)" stroke="rgb(87,88,90)" stroke-width="1" opacity="0.1803921568627451" d="M 132.5 255 L 140 255.5 L 132.5 256 L 132.5 255 Z " /><path fill="rgb(87,88,90)" stroke="rgb(87,88,90)" stroke-width="1" opacity="0.1803921568627451" d="M 91.5 256 L 96 256.5 L 91.5 257 L 91.5 256 Z " /><path fill="rgb(87,88,90)" stroke="rgb(87,88,90)" stroke-width="1" opacity="0.1803921568627451" d="M 85.5 257 L 89 257.5 L 85.5 258 L 85.5 257 Z " /><path fill="rgb(87,88,90)" stroke="rgb(87,88,90)" stroke-width="1" opacity="0.1803921568627451" d="M 359.5 257 L 360 260.5 L 359 260.5 L 359.5 257 Z " /><path fill="rgb(87,88,90)" stroke="rgb(87,88,90)" stroke-width="1" opacity="0.1803921568627451" d="M 80.5 258 L 84 258.5 L 80.5 259 L 80.5 258 Z " /><path fill="rgb(87,88,90)" stroke="rgb(87,88,90)" stroke-width="1" opacity="0.1803921568627451" d="M 473.5 258 L 476 258.5 Q 467.8 260.3 464 266.5 L 460.5 274 L 460 272.5 Q 462.9 264.4 469.5 260 L 473.5 258 Z " /><path fill="rgb(87,88,90)" stroke="rgb(87,88,90)" stroke-width="1" opacity="0.1803921568627451" d="M 482.5 258 Q 492.1 259.9 496 267.5 L 498 272.5 L 497 272.5 Q 494.9 264.6 488.5 261 L 482.5 259 L 482.5 258 Z " /><path fill="rgb(87,88,90)" stroke="rgb(87,88,90)" stroke-width="1" opacity="0.1803921568627451" d="M 76.5 259 L 79 259.5 L 76.5 260 L 76.5 259 Z " /><path fill="rgb(87,88,90)" stroke="rgb(87,88,90)" stroke-width="1" opacity="0.1803921568627451" d="M 72.5 260 L 75 260.5 L 59.5 266 L 59.5 265 L 72.5 260 Z " /><path fill="rgb(87,88,90)" stroke="rgb(87,88,90)" stroke-width="1" opacity="0.1803921568627451" d="M 360.5 262 L 365 263.5 L 361.5 264 L 360.5 262 Z " /><path fill="rgb(87,88,90)" stroke="rgb(87,88,90)" stroke-width="1" opacity="0.1803921568627451" d="M 367.5 264 L 370 264.5 L 367.5 265 L 367.5 264 Z " /><path fill="rgb(87,88,90)" stroke="rgb(87,88,90)" stroke-width="1" opacity="0.1803921568627451" d="M 371.5 265 L 375 265.5 L 371.5 266 L 371.5 265 Z " /><path fill="rgb(87,88,90)" stroke="rgb(87,88,90)" stroke-width="1" opacity="0.1803921568627451" d="M 56.5 266 L 58 266.5 Q 46.5 271.5 38.5 280 L 42.5 275 L 56.5 266 Z " /><path fill="rgb(87,88,90)" stroke="rgb(87,88,90)" stroke-width="1" opacity="0.1803921568627451" d="M 379.5 267 L 387 269.5 L 385.5 270 L 379.5 268 L 379.5 267 Z " /><path fill="rgb(87,88,90)" stroke="rgb(87,88,90)" stroke-width="1" opacity="0.1803921568627451" d="M 388.5 270 Q 396 273 400 279.5 L 402 284.5 L 401 284.5 Q 398.9 276.6 392.5 273 Q 387.8 272.2 388.5 270 Z " /><path fill="rgb(87,88,90)" stroke="rgb(87,88,90)" stroke-width="1" opacity="0.1803921568627451" d="M 99.5 275 L 116 275.5 L 99.5 276 L 99.5 275 Z " /><path fill="rgb(87,88,90)" stroke="rgb(87,88,90)" stroke-width="1" opacity="0.1803921568627451" d="M 459.5 275 L 460 277.5 L 459 277.5 L 459.5 275 Z " /><path fill="rgb(87,88,90)" stroke="rgb(87,88,90)" stroke-width="1" opacity="0.1803921568627451" d="M 89.5 276 L 95 276.5 L 89.5 277 L 89.5 276 Z " /><path fill="rgb(87,88,90)" stroke="rgb(87,88,90)" stroke-width="1" opacity="0.1803921568627451" d="M 134.5 276 L 148.5 276 L 149 278.5 L 148 278.5 L 147.5 277 L 134.5 277 L 134.5 276 Z " /><path fill="rgb(87,88,90)" stroke="rgb(87,88,90)" stroke-width="1" opacity="0.1803921568627451" d="M 84.5 277 L 88 277.5 L 84.5 278 L 84.5 277 Z " /><path fill="rgb(87,88,90)" stroke="rgb(87,88,90)" stroke-width="1" opacity="0.1803921568627451" d="M 79.5 278 L 82 278.5 L 76.5 280 L 76.5 279 L 79.5 278 Z " /><path fill="rgb(87,88,90)" stroke="rgb(87,88,90)" stroke-width="1" opacity="0.1803921568627451" d="M 422.5 278 L 426 279.5 L 425.5 281 L 425 279 Q 420.5 277.3 422 282.5 L 423 284.5 L 422 284.5 L 421 279.5 L 422.5 278 Z " /><path fill="rgb(87,88,90)" stroke="rgb(87,88,90)" stroke-width="1" opacity="0.1803921568627451" d="M 458.5 279 L 459 281.5 L 458 281.5 L 458.5 279 Z " /><path fill="rgb(87,88,90)" stroke="rgb(87,88,90)" stroke-width="1" opacity="0.1803921568627451" d="M 73.5 280 L 75 280.5 Q 61.4 284.4 54 294.5 L 52.5 297 L 53 295.5 L 61.5 286 L 73.5 280 Z " /><path fill="rgb(87,88,90)" stroke="rgb(87,88,90)" stroke-width="1" opacity="0.1803921568627451" d="M 147.5 280 L 148 284.5 L 147 284.5 L 147.5 280 Z " /><path fill="rgb(87,88,90)" stroke="rgb(87,88,90)" stroke-width="1" opacity="0.1803921568627451" d="M 500.5 280 L 501 283.5 L 500 283.5 L 500.5 280 Z " /><path fill="rgb(87,88,90)" stroke="rgb(87,88,90)" stroke-width="1" opacity="0.1803921568627451" d="M 37.5 281 L 35.5 284 L 37.5 281 Z " /><path fill="rgb(87,88,90)" stroke="rgb(87,88,90)" stroke-width="1" opacity="0.1803921568627451" d="M 457.5 283 L 458 286.5 L 457 286.5 L 457.5 283 Z " /><path fill="rgb(87,88,90)" stroke="rgb(87,88,90)" stroke-width="1" opacity="0.1803921568627451" d="M 411.5 284 L 414 285.5 L 412.5 285 L 411.5 284 Z " /><path fill="rgb(87,88,90)" stroke="rgb(87,88,90)" stroke-width="1" opacity="0.1803921568627451" d="M 34.5 285 L 34 286.5 L 32.5 290 L 32 288.5 L 34.5 285 Z " /><path fill="rgb(87,88,90)" stroke="rgb(87,88,90)" stroke-width="1" opacity="0.1803921568627451" d="M 364 285 L 368 285.5 L 365 286 L 364.5 290 L 364 285 Z " /><path fill="rgb(87,88,90)" stroke="rgb(87,88,90)" stroke-width="1" opacity="0.1803921568627451" d="M 409.5 285 L 411 289.5 L 410 289.5 L 409.5 285 Z " /><path fill="rgb(87,88,90)" stroke="rgb(87,88,90)" stroke-width="1" opacity="0.1803921568627451" d="M 501.5 285 L 502 291.5 L 501 291.5 L 501.5 285 Z " /><path fill="rgb(87,88,90)" stroke="rgb(87,88,90)" stroke-width="1" opacity="0.1803921568627451" d="M 369.5 286 L 374 287.5 L 372.5 288 L 369.5 287 L 369.5 286 Z " /><path fill="rgb(87,88,90)" stroke="rgb(87,88,90)" stroke-width="1" opacity="0.1803921568627451" d="M 146.5 287 L 147 293.5 L 146 293.5 L 146.5 287 Z " /><path fill="rgb(87,88,90)" stroke="rgb(87,88,90)" stroke-width="1" opacity="0.1803921568627451" d="M 414.5 287 L 416 291.5 L 415 291.5 L 414.5 287 Z " /><path fill="rgb(87,88,90)" stroke="rgb(87,88,90)" stroke-width="1" opacity="0.1803921568627451" d="M 428.5 287 L 429 289.5 L 428 289.5 L 428.5 287 Z " /><path fill="rgb(87,88,90)" stroke="rgb(87,88,90)" stroke-width="1" opacity="0.1803921568627451" d="M 375.5 288 L 377.5 291 L 375.5 288 Z " /><path fill="rgb(87,88,90)" stroke="rgb(87,88,90)" stroke-width="1" opacity="0.1803921568627451" d="M 456.5 288 L 457 291.5 L 456 291.5 L 456.5 288 Z " /><path fill="rgb(87,88,90)" stroke="rgb(87,88,90)" stroke-width="1" opacity="0.1803921568627451" d="M 403.5 289 L 404 291.5 L 403 291.5 L 403.5 289 Z " /><path fill="rgb(87,88,90)" stroke="rgb(87,88,90)" stroke-width="1" opacity="0.1803921568627451" d="M 424.5 289 L 425 291.5 L 424 291.5 L 424.5 289 Z " /><path fill="rgb(87,88,90)" stroke="rgb(87,88,90)" stroke-width="1" opacity="0.1803921568627451" d="M 411.5 291 L 412 293.5 L 411 293.5 L 411.5 291 Z " /><path fill="rgb(87,88,90)" stroke="rgb(87,88,90)" stroke-width="1" opacity="0.1803921568627451" d="M 429.5 291 L 430 305.5 L 429 305.5 L 429.5 291 Z " /><path fill="rgb(87,88,90)" stroke="rgb(87,88,90)" stroke-width="1" opacity="0.1803921568627451" d="M 365.5 292 L 366 298.5 L 365 298.5 L 365.5 292 Z " /><path fill="rgb(87,88,90)" stroke="rgb(87,88,90)" stroke-width="1" opacity="0.1803921568627451" d="M 378.5 292 L 379 295.5 L 378 295.5 L 378.5 292 Z " /><path fill="rgb(87,88,90)" stroke="rgb(87,88,90)" stroke-width="1" opacity="0.1803921568627451" d="M 416.5 293 L 417 304.5 L 416 304.5 L 416.5 293 Z " /><path fill="rgb(87,88,90)" stroke="rgb(87,88,90)" stroke-width="1" opacity="0.1803921568627451" d="M 455.5 293 L 456 295.5 L 454.5 299 L 454 296.5 L 455.5 293 Z " /><path fill="rgb(87,88,90)" stroke="rgb(87,88,90)" stroke-width="1" opacity="0.1803921568627451" d="M 425.5 294 L 426 303.5 L 425 303.5 L 425.5 294 Z " /><path fill="rgb(87,88,90)" stroke="rgb(87,88,90)" stroke-width="1" opacity="0.1803921568627451" d="M 412.5 295 L 413 302.5 L 412 302.5 L 412.5 295 Z " /><path fill="rgb(87,88,90)" stroke="rgb(87,88,90)" stroke-width="1" opacity="0.1803921568627451" d="M 145.5 296 L 146 304.5 L 145 304.5 L 145.5 296 Z " /><path fill="rgb(87,88,90)" stroke="rgb(87,88,90)" stroke-width="1" opacity="0.1803921568627451" d="M 377.5 297 L 378 298.5 L 376 299.5 L 377.5 297 Z " /><path fill="rgb(87,88,90)" stroke="rgb(87,88,90)" stroke-width="1" opacity="0.1803921568627451" d="M 29.5 298 L 30 311.5 L 29 311.5 L 29.5 298 Z " /><path fill="rgb(87,88,90)" stroke="rgb(87,88,90)" stroke-width="1" opacity="0.1803921568627451" d="M 375.5 301 L 372.5 305 L 375.5 301 Z " /><path fill="rgb(87,88,90)" stroke="rgb(87,88,90)" stroke-width="1" opacity="0.1803921568627451" d="M 50.5 302 L 51 304.5 L 50 304.5 L 50.5 302 Z " /><path fill="rgb(87,88,90)" stroke="rgb(87,88,90)" stroke-width="1" opacity="0.1803921568627451" d="M 501.5 302 L 502 309.5 L 501 309.5 L 501.5 302 Z " /><path fill="rgb(87,88,90)" stroke="rgb(87,88,90)" stroke-width="1" opacity="0.1803921568627451" d="M 366.5 303 L 367 307 L 370.5 305 L 368.5 308 L 366.5 309 L 366.5 303 Z " /><path fill="rgb(87,88,90)" stroke="rgb(87,88,90)" stroke-width="1" opacity="0.1803921568627451" d="M 402.5 303 L 403 304.5 L 399.5 310 L 400 308.5 L 402.5 303 Z " /><path fill="rgb(87,88,90)" stroke="rgb(87,88,90)" stroke-width="1" opacity="0.1803921568627451" d="M 411.5 304 L 412 306.5 Q 409.1 314.6 402.5 319 L 400.5 320 L 401.5 318 L 408 312.5 L 411.5 304 Z " /><path fill="rgb(87,88,90)" stroke="rgb(87,88,90)" stroke-width="1" opacity="0.1803921568627451" d="M 424.5 305 L 425 308.5 Q 421.8 319.3 414.5 326 L 407.5 331 L 408.5 329 L 419 319.5 L 424.5 305 Z " /><path fill="rgb(87,88,90)" stroke="rgb(87,88,90)" stroke-width="1" opacity="0.1803921568627451" d="M 451.5 306 L 452 307.5 L 450.5 310 L 450 308.5 L 451.5 306 Z " /><path fill="rgb(87,88,90)" stroke="rgb(87,88,90)" stroke-width="1" opacity="0.1803921568627451" d="M 428.5 307 L 429 310.5 Q 425 323.5 415.5 331 L 405.5 336 L 404 332.5 L 406 331.5 L 405 335 L 411.5 333 L 420 325.5 Q 426.7 318.7 428.5 307 Z " /><path fill="rgb(87,88,90)" stroke="rgb(87,88,90)" stroke-width="1" opacity="0.1803921568627451" d="M 50.5 308 L 51 311.5 L 50 311.5 L 50.5 308 Z " /><path fill="rgb(87,88,90)" stroke="rgb(87,88,90)" stroke-width="1" opacity="0.1803921568627451" d="M 414.5 309 L 415 310.5 Q 411.7 318.7 404.5 323 L 401.5 324 L 401.5 323 L 404.5 322 L 412 314.5 L 414.5 309 Z " /><path fill="rgb(87,88,90)" stroke="rgb(87,88,90)" stroke-width="1" opacity="0.1803921568627451" d="M 144.5 310 L 145 332.5 L 144 332.5 L 144.5 310 Z " /><path fill="rgb(87,88,90)" stroke="rgb(87,88,90)" stroke-width="1" opacity="0.1803921568627451" d="M 398.5 311 L 390.5 320 L 398.5 311 Z " /><path fill="rgb(87,88,90)" stroke="rgb(87,88,90)" stroke-width="1" opacity="0.1803921568627451" d="M 449.5 311 L 450 312.5 L 443.5 324 L 444 322.5 L 449.5 311 Z " /><path fill="rgb(87,88,90)" stroke="rgb(87,88,90)" stroke-width="1" opacity="0.1803921568627451" d="M 500.5 311 L 501 314.5 L 500 314.5 L 500.5 311 Z " /><path fill="rgb(87,88,90)" stroke="rgb(87,88,90)" stroke-width="1" opacity="0.1803921568627451" d="M 499.5 316 L 500 319.5 L 499 319.5 L 499.5 316 Z " /><path fill="rgb(87,88,90)" stroke="rgb(87,88,90)" stroke-width="1" opacity="0.1803921568627451" d="M 388.5 320 L 387.5 322 L 388.5 320 Z " /><path fill="rgb(87,88,90)" stroke="rgb(87,88,90)" stroke-width="1" opacity="0.1803921568627451" d="M 398.5 320 L 400 323.5 L 398 324 L 398.5 320 Z " /><path fill="rgb(87,88,90)" stroke="rgb(87,88,90)" stroke-width="1" opacity="0.1803921568627451" d="M 55.5 321 L 57.5 324 L 55.5 321 Z " /><path fill="rgb(87,88,90)" stroke="rgb(87,88,90)" stroke-width="1" opacity="0.1803921568627451" d="M 11.5 322 L 14 323.5 L 12.5 323 L 10.5 324 L 11.5 322 Z " /><path fill="rgb(87,88,90)" stroke="rgb(87,88,90)" stroke-width="1" opacity="0.1803921568627451" d="M 24.5 322 L 28 324.5 L 27.5 330 Q 28.4 324.6 25.5 323 L 23.5 324 L 24.5 322 Z " /><path fill="rgb(87,88,90)" stroke="rgb(87,88,90)" stroke-width="1" opacity="0.1803921568627451" d="M 385.5 322 L 384.5 324 L 385.5 322 Z " /><path fill="rgb(87,88,90)" stroke="rgb(87,88,90)" stroke-width="1" opacity="0.1803921568627451" d="M 59.5 324 L 60.5 326 L 59.5 324 Z " /><path fill="rgb(87,88,90)" stroke="rgb(87,88,90)" stroke-width="1" opacity="0.1803921568627451" d="M 382.5 324 L 381.5 326 L 379.5 327 L 380.5 325 L 382.5 324 Z " /><path fill="rgb(87,88,90)" stroke="rgb(87,88,90)" stroke-width="1" opacity="0.1803921568627451" d="M 497.5 324 L 498 326.5 L 495.5 332 L 495 330.5 L 497.5 324 Z " /><path fill="rgb(87,88,90)" stroke="rgb(87,88,90)" stroke-width="1" opacity="0.1803921568627451" d="M 14.5 325 L 15 331.5 L 14 331.5 L 14.5 325 Z " /><path fill="rgb(87,88,90)" stroke="rgb(87,88,90)" stroke-width="1" opacity="0.1803921568627451" d="M 442.5 325 L 442 326.5 L 440.5 329 L 441 327.5 L 442.5 325 Z " /><path fill="rgb(87,88,90)" stroke="rgb(87,88,90)" stroke-width="1" opacity="0.1803921568627451" d="M 23.5 328 L 24 331.5 L 23 331.5 L 23.5 328 Z " /><path fill="rgb(87,88,90)" stroke="rgb(87,88,90)" stroke-width="1" opacity="0.1803921568627451" d="M 35.5 328 L 36.5 330 L 35.5 328 Z " /><path fill="rgb(87,88,90)" stroke="rgb(87,88,90)" stroke-width="1" opacity="0.1803921568627451" d="M 10.5 329 L 11 333.5 L 10 333.5 L 10.5 329 Z " /><path fill="rgb(87,88,90)" stroke="rgb(87,88,90)" stroke-width="1" opacity="0.1803921568627451" d="M 439.5 330 L 439 331.5 Q 430.9 345.4 418.5 355 Q 408.6 363.6 394.5 368 L 394.5 367 Q 418.1 358.6 432 340.5 L 439.5 330 Z " /><path fill="rgb(87,88,90)" stroke="rgb(87,88,90)" stroke-width="1" opacity="0.1803921568627451" d="M 28.5 331 Q 30.8 340.7 38.5 345 L 45 347.5 L 42.5 348 Q 34.3 344.7 30 337.5 Q 27 335 28.5 331 Z " /><path fill="rgb(87,88,90)" stroke="rgb(87,88,90)" stroke-width="1" opacity="0.1803921568627451" d="M 37.5 331 L 39.5 334 L 37.5 331 Z " /><path fill="rgb(87,88,90)" stroke="rgb(87,88,90)" stroke-width="1" opacity="0.1803921568627451" d="M 366.5 332 L 367 339.5 L 366 339.5 L 366.5 332 Z " /><path fill="rgb(87,88,90)" stroke="rgb(87,88,90)" stroke-width="1" opacity="0.1803921568627451" d="M 15.5 333 Q 18.5 346 27.5 353 Q 33.4 358.6 43 360.5 L 40.5 361 Q 28.7 357.3 22 348.5 Q 15.3 342.6 15.5 333 Z " /><path fill="rgb(87,88,90)" stroke="rgb(87,88,90)" stroke-width="1" opacity="0.1803921568627451" d="M 494.5 333 L 495 334.5 Q 484.7 356.7 467.5 372 Q 448.7 389.2 423.5 400 L 423.5 399 L 446.5 387 L 471 368 L 483 353.5 L 494.5 333 Z " /><path fill="rgb(87,88,90)" stroke="rgb(87,88,90)" stroke-width="1" opacity="0.1803921568627451" d="M 84.5 334 L 87 334.5 L 84.5 335 L 84.5 334 Z " /><path fill="rgb(87,88,90)" stroke="rgb(87,88,90)" stroke-width="1" opacity="0.1803921568627451" d="M 11.5 335 L 16 345.5 L 14 344.5 L 11 337.5 L 11.5 335 Z " /><path fill="rgb(87,88,90)" stroke="rgb(87,88,90)" stroke-width="1" opacity="0.1803921568627451" d="M 40.5 335 L 43.5 339 L 40.5 335 Z " /><path fill="rgb(87,88,90)" stroke="rgb(87,88,90)" stroke-width="1" opacity="0.1803921568627451" d="M 89.5 335 L 92 335.5 L 89.5 336 L 89.5 335 Z " /><path fill="rgb(87,88,90)" stroke="rgb(87,88,90)" stroke-width="1" opacity="0.1803921568627451" d="M 25.5 336 L 27 338.5 L 25 337.5 L 25.5 336 Z " /><path fill="rgb(87,88,90)" stroke="rgb(87,88,90)" stroke-width="1" opacity="0.1803921568627451" d="M 94.5 336 L 97 336.5 L 94.5 337 L 94.5 336 Z " /><path fill="rgb(87,88,90)" stroke="rgb(87,88,90)" stroke-width="1" opacity="0.1803921568627451" d="M 100.5 337 L 104 337.5 L 100.5 338 L 100.5 337 Z " /><path fill="rgb(87,88,90)" stroke="rgb(87,88,90)" stroke-width="1" opacity="0.1803921568627451" d="M 108.5 338 L 112 338.5 L 108.5 339 L 108.5 338 Z " /><path fill="rgb(87,88,90)" stroke="rgb(87,88,90)" stroke-width="1" opacity="0.1803921568627451" d="M 145.5 338 L 146 340.5 L 144 341.5 L 145.5 338 Z " /><path fill="rgb(87,88,90)" stroke="rgb(87,88,90)" stroke-width="1" opacity="0.1803921568627451" d="M 45.5 339 L 47.5 342 L 45.5 339 Z " /><path fill="rgb(87,88,90)" stroke="rgb(87,88,90)" stroke-width="1" opacity="0.1803921568627451" d="M 117.5 339 L 122 339.5 L 117.5 340 L 117.5 339 Z " /><path fill="rgb(87,88,90)" stroke="rgb(87,88,90)" stroke-width="1" opacity="0.1803921568627451" d="M 27.5 340 L 32.5 346 L 36 348.5 L 33.5 347 L 29 343.5 L 27.5 340 Z " /><path fill="rgb(87,88,90)" stroke="rgb(87,88,90)" stroke-width="1" opacity="0.1803921568627451" d="M 128.5 340 L 136 340.5 L 128.5 341 L 128.5 340 Z " /><path fill="rgb(87,88,90)" stroke="rgb(87,88,90)" stroke-width="1" opacity="0.1803921568627451" d="M 49.5 342 L 53 344.5 L 51.5 344 L 49.5 342 Z " /><path fill="rgb(87,88,90)" stroke="rgb(87,88,90)" stroke-width="1" opacity="0.1803921568627451" d="M 365.5 343 L 366 349.5 L 365 349.5 L 365.5 343 Z " /><path fill="rgb(87,88,90)" stroke="rgb(87,88,90)" stroke-width="1" opacity="0.1803921568627451" d="M 16.5 347 L 25.5 357 L 29 359.5 L 26.5 358 L 18 350.5 L 16.5 347 Z " /><path fill="rgb(87,88,90)" stroke="rgb(87,88,90)" stroke-width="1" opacity="0.1803921568627451" d="M 46.5 348 Q 52.8 346.8 54 350.5 L 52.5 353 L 53 351.5 L 51.5 349 Q 45.5 350.2 46.5 348 Z " /><path fill="rgb(87,88,90)" stroke="rgb(87,88,90)" stroke-width="1" opacity="0.1803921568627451" d="M 37.5 349 L 40 350.5 L 38.5 351 L 37.5 349 Z " /><path fill="rgb(87,88,90)" stroke="rgb(87,88,90)" stroke-width="1" opacity="0.1803921568627451" d="M 44.5 352 L 48 352.5 L 44.5 353 L 44.5 352 Z " /><path fill="rgb(87,88,90)" stroke="rgb(87,88,90)" stroke-width="1" opacity="0.1803921568627451" d="M 364.5 352 L 365 355.5 L 364 355.5 L 364.5 352 Z " /><path fill="rgb(87,88,90)" stroke="rgb(87,88,90)" stroke-width="1" opacity="0.1803921568627451" d="M 79.5 354 L 82 354.5 L 79.5 355 L 79.5 354 Z " /><path fill="rgb(87,88,90)" stroke="rgb(87,88,90)" stroke-width="1" opacity="0.1803921568627451" d="M 89.5 356 L 92 356.5 L 89.5 357 L 89.5 356 Z " /><path fill="rgb(87,88,90)" stroke="rgb(87,88,90)" stroke-width="1" opacity="0.1803921568627451" d="M 95.5 357 L 98 357.5 L 95.5 358 L 95.5 357 Z " /><path fill="rgb(87,88,90)" stroke="rgb(87,88,90)" stroke-width="1" opacity="0.1803921568627451" d="M 101.5 358 L 105 358.5 L 101.5 359 L 101.5 358 Z " /><path fill="rgb(87,88,90)" stroke="rgb(87,88,90)" stroke-width="1" opacity="0.1803921568627451" d="M 363.5 358 L 364 361.5 L 363 361.5 L 363.5 358 Z " /><path fill="rgb(87,88,90)" stroke="rgb(87,88,90)" stroke-width="1" opacity="0.1803921568627451" d="M 109.5 359 L 114 359.5 L 109.5 360 L 109.5 359 Z " /><path fill="rgb(87,88,90)" stroke="rgb(87,88,90)" stroke-width="1" opacity="0.1803921568627451" d="M 30.5 360 L 35 362.5 L 33.5 363 L 30.5 360 Z " /><path fill="rgb(87,88,90)" stroke="rgb(87,88,90)" stroke-width="1" opacity="0.1803921568627451" d="M 120.5 360 L 126 360.5 L 120.5 361 L 120.5 360 Z " /><path fill="rgb(87,88,90)" stroke="rgb(87,88,90)" stroke-width="1" opacity="0.1803921568627451" d="M 44.5 361 L 51 361.5 L 44.5 362 L 44.5 361 Z " /><path fill="rgb(87,88,90)" stroke="rgb(87,88,90)" stroke-width="1" opacity="0.1803921568627451" d="M 134.5 361 L 143 361.5 L 134.5 362 L 134.5 361 Z " /><path fill="rgb(87,88,90)" stroke="rgb(87,88,90)" stroke-width="1" opacity="0.1803921568627451" d="M 52.5 362 L 54 364.5 L 52 365.5 L 53 363.5 L 52.5 362 Z " /><path fill="rgb(87,88,90)" stroke="rgb(87,88,90)" stroke-width="1" opacity="0.1803921568627451" d="M 148.5 362 L 150 368.5 L 149 368.5 L 148.5 362 Z " /><path fill="rgb(87,88,90)" stroke="rgb(87,88,90)" stroke-width="1" opacity="0.1803921568627451" d="M 36.5 363 L 41 364.5 L 38.5 365 L 36.5 363 Z " /><path fill="rgb(87,88,90)" stroke="rgb(87,88,90)" stroke-width="1" opacity="0.1803921568627451" d="M 362.5 363 L 363 366.5 L 362 366.5 L 362.5 363 Z " /><path fill="rgb(87,88,90)" stroke="rgb(87,88,90)" stroke-width="1" opacity="0.1803921568627451" d="M 42.5 365 L 47 365.5 L 42.5 366 L 42.5 365 Z " /><path fill="rgb(87,88,90)" stroke="rgb(87,88,90)" stroke-width="1" opacity="0.1803921568627451" d="M 364.5 367 L 373 369.5 L 369.5 370 L 364.5 368 L 364.5 367 Z " /><path fill="rgb(87,88,90)" stroke="rgb(87,88,90)" stroke-width="1" opacity="0.1803921568627451" d="M 390.5 368 L 393 368.5 L 390.5 369 L 390.5 368 Z " /><path fill="rgb(87,88,90)" stroke="rgb(87,88,90)" stroke-width="1" opacity="0.1803921568627451" d="M 386.5 369 L 389 369.5 L 386.5 370 L 386.5 369 Z " /><path fill="rgb(87,88,90)" stroke="rgb(87,88,90)" stroke-width="1" opacity="0.1803921568627451" d="M 150.5 370 L 152 375.5 L 151 375.5 L 150.5 370 Z " /><path fill="rgb(87,88,90)" stroke="rgb(87,88,90)" stroke-width="1" opacity="0.1803921568627451" d="M 374.5 370 L 385 370.5 L 374.5 371 L 374.5 370 Z " /><path fill="rgb(87,88,90)" stroke="rgb(87,88,90)" stroke-width="1" opacity="0.1803921568627451" d="M 154.5 383 L 156 386.5 L 155 386.5 L 154.5 383 Z " /><path fill="rgb(87,88,90)" stroke="rgb(87,88,90)" stroke-width="1" opacity="0.1803921568627451" d="M 156.5 388 L 159 393.5 L 158 393.5 L 156.5 388 Z " /><path fill="rgb(87,88,90)" stroke="rgb(87,88,90)" stroke-width="1" opacity="0.1803921568627451" d="M 161.5 399 L 167 407.5 L 165 406.5 L 161.5 399 Z " /><path fill="rgb(87,88,90)" stroke="rgb(87,88,90)" stroke-width="1" opacity="0.1803921568627451" d="M 418.5 401 L 420 401.5 L 416.5 403 L 416.5 402 L 418.5 401 Z " /><path fill="rgb(87,88,90)" stroke="rgb(87,88,90)" stroke-width="1" opacity="0.1803921568627451" d="M 413.5 403 L 415 403.5 L 411.5 405 L 411.5 404 L 413.5 403 Z " /><path fill="rgb(87,88,90)" stroke="rgb(87,88,90)" stroke-width="1" opacity="0.1803921568627451" d="M 408.5 405 L 410 405.5 L 396.5 410 L 396.5 409 L 408.5 405 Z " /><path fill="rgb(87,88,90)" stroke="rgb(87,88,90)" stroke-width="1" opacity="0.1803921568627451" d="M 167.5 409 L 184 427.5 L 184 434.5 L 183 434.5 L 183 427.5 Q 172.6 419.6 167.5 409 Z " /><path fill="rgb(87,88,90)" stroke="rgb(87,88,90)" stroke-width="1" opacity="0.1803921568627451" d="M 389.5 411 L 392 411.5 L 389.5 412 L 389.5 411 Z " /><path fill="rgb(87,88,90)" stroke="rgb(87,88,90)" stroke-width="1" opacity="0.1803921568627451" d="M 385.5 412 L 388 412.5 L 385.5 413 L 385.5 412 Z " /><path fill="rgb(87,88,90)" stroke="rgb(87,88,90)" stroke-width="1" opacity="0.1803921568627451" d="M 380.5 413 L 384 413.5 L 380.5 414 L 380.5 413 Z " /><path fill="rgb(87,88,90)" stroke="rgb(87,88,90)" stroke-width="1" opacity="0.1803921568627451" d="M 376.5 414 L 379 414.5 L 376.5 415 L 376.5 414 Z " /><path fill="rgb(87,88,90)" stroke="rgb(87,88,90)" stroke-width="1" opacity="0.1803921568627451" d="M 370.5 415 L 375 415.5 L 370.5 416 L 370.5 415 Z " /><path fill="rgb(87,88,90)" stroke="rgb(87,88,90)" stroke-width="1" opacity="0.1803921568627451" d="M 363.5 416 L 368 416.5 L 363.5 417 L 363.5 416 Z " /><path fill="rgb(87,88,90)" stroke="rgb(87,88,90)" stroke-width="1" opacity="0.1803921568627451" d="M 354.5 417 L 361 417.5 L 354.5 418 L 354.5 417 Z " /><path fill="rgb(87,88,90)" stroke="rgb(87,88,90)" stroke-width="1" opacity="0.1803921568627451" d="M 337.5 418 L 351 418.5 L 337.5 419 L 337.5 418 Z " /><path fill="rgb(87,88,90)" stroke="rgb(87,88,90)" stroke-width="1" opacity="0.1803921568627451" d="M 335.5 419 L 336 420.5 L 328.5 427 L 331.5 423 L 334 421.5 L 335.5 419 Z " /><path fill="rgb(87,88,90)" stroke="rgb(87,88,90)" stroke-width="1" opacity="0.1803921568627451" d="M 328.5 432 L 329 438.5 L 328 438.5 L 328.5 432 Z " /><path fill="rgb(87,88,90)" stroke="rgb(87,88,90)" stroke-width="1" opacity="0.1803921568627451" d="M 182.5 437 L 183 441.5 L 182 441.5 L 182.5 437 Z " /><path fill="rgb(87,88,90)" stroke="rgb(87,88,90)" stroke-width="1" opacity="0.1803921568627451" d="M 329.5 440 L 330 443.5 L 329 443.5 L 329.5 440 Z " /><path fill="rgb(87,88,90)" stroke="rgb(87,88,90)" stroke-width="1" opacity="0.1803921568627451" d="M 181.5 443 L 182 446.5 L 181 446.5 L 181.5 443 Z " /><path fill="rgb(87,88,90)" stroke="rgb(87,88,90)" stroke-width="1" opacity="0.1803921568627451" d="M 330.5 445 L 331 453.5 L 330 453.5 L 330.5 445 Z " /><path fill="rgb(87,88,90)" stroke="rgb(87,88,90)" stroke-width="1" opacity="0.1803921568627451" d="M 227 449 L 230 449.5 L 227.5 451 L 227 449 Z " /><path fill="rgb(87,88,90)" stroke="rgb(87,88,90)" stroke-width="1" opacity="0.1803921568627451" d="M 281.5 449 L 284 449.5 L 284 461.5 L 283 461.5 L 283 450.5 L 281.5 450 L 281.5 449 Z " /><path fill="rgb(87,88,90)" stroke="rgb(87,88,90)" stroke-width="1" opacity="0.1803921568627451" d="M 232.5 450 L 236 450.5 L 232.5 451 L 232.5 450 Z " /><path fill="rgb(87,88,90)" stroke="rgb(87,88,90)" stroke-width="1" opacity="0.1803921568627451" d="M 275.5 450 L 280 450.5 L 275.5 451 L 275.5 450 Z " /><path fill="rgb(87,88,90)" stroke="rgb(87,88,90)" stroke-width="1" opacity="0.1803921568627451" d="M 181.5 451 L 182 455.5 L 181 455.5 L 181.5 451 Z " /><path fill="rgb(87,88,90)" stroke="rgb(87,88,90)" stroke-width="1" opacity="0.1803921568627451" d="M 238.5 451 L 246 451.5 L 238.5 452 L 238.5 451 Z " /><path fill="rgb(87,88,90)" stroke="rgb(87,88,90)" stroke-width="1" opacity="0.1803921568627451" d="M 265.5 451 L 273 451.5 L 265.5 452 L 265.5 451 Z " /><path fill="rgb(87,88,90)" stroke="rgb(87,88,90)" stroke-width="1" opacity="0.1803921568627451" d="M 253.5 452 L 258 452.5 L 253.5 453 L 253.5 452 Z " /><path fill="rgb(87,88,90)" stroke="rgb(87,88,90)" stroke-width="1" opacity="0.1803921568627451" d="M 329.5 455 L 330 457.5 L 329 457.5 L 329.5 455 Z " /><path fill="rgb(87,88,90)" stroke="rgb(87,88,90)" stroke-width="1" opacity="0.1803921568627451" d="M 228.5 456 L 229 480.5 L 228 480.5 L 228.5 456 Z " /><path fill="rgb(87,88,90)" stroke="rgb(87,88,90)" stroke-width="1" opacity="0.1803921568627451" d="M 182.5 457 L 183 459.5 L 182 459.5 L 182.5 457 Z " /><path fill="rgb(87,88,90)" stroke="rgb(87,88,90)" stroke-width="1" opacity="0.1803921568627451" d="M 328.5 459 L 329 461.5 L 326.5 467 L 326 465.5 L 328.5 459 Z " /><path fill="rgb(87,88,90)" stroke="rgb(87,88,90)" stroke-width="1" opacity="0.1803921568627451" d="M 184.5 464 L 186 467.5 L 185 467.5 L 184.5 464 Z " /><path fill="rgb(87,88,90)" stroke="rgb(87,88,90)" stroke-width="1" opacity="0.1803921568627451" d="M 325.5 468 L 326 469.5 L 321.5 479 L 321 477.5 L 325.5 468 Z " /><path fill="rgb(87,88,90)" stroke="rgb(87,88,90)" stroke-width="1" opacity="0.1803921568627451" d="M 186.5 469 L 188 472.5 L 187 472.5 L 186.5 469 Z " /><path fill="rgb(87,88,90)" stroke="rgb(87,88,90)" stroke-width="1" opacity="0.1803921568627451" d="M 188.5 474 L 191 479.5 L 190 479.5 L 188.5 474 Z " /><path fill="rgb(87,88,90)" stroke="rgb(87,88,90)" stroke-width="1" opacity="0.1803921568627451" d="M 283.5 477 L 284 484.5 L 283 484.5 L 283.5 477 Z " /><path fill="rgb(87,88,90)" stroke="rgb(87,88,90)" stroke-width="1" opacity="0.1803921568627451" d="M 320.5 480 L 321 481.5 L 318.5 488 L 318 485.5 L 320.5 480 Z " /><path fill="rgb(87,88,90)" stroke="rgb(87,88,90)" stroke-width="1" opacity="0.1803921568627451" d="M 227.5 483 L 228 486.5 L 227 486.5 L 227.5 483 Z " /><path fill="rgb(87,88,90)" stroke="rgb(87,88,90)" stroke-width="1" opacity="0.1803921568627451" d="M 193.5 487 Q 194.9 496.1 201.5 500 L 203 500.5 L 201.5 501 L 197 497.5 L 193 490.5 L 193.5 487 Z " /><path fill="rgb(87,88,90)" stroke="rgb(87,88,90)" stroke-width="1" opacity="0.1803921568627451" d="M 226.5 488 L 227 489.5 L 225.5 492 L 225 490.5 L 226.5 488 Z " /><path fill="rgb(87,88,90)" stroke="rgb(87,88,90)" stroke-width="1" opacity="0.1803921568627451" d="M 317.5 489 L 318 491.5 L 311.5 500 L 304.5 502 L 304.5 501 Q 312 500.5 315 495.5 L 317.5 489 Z " /><path fill="rgb(87,88,90)" stroke="rgb(87,88,90)" stroke-width="1" opacity="0.1803921568627451" d="M 286.5 492 L 292.5 499 L 296 500.5 L 294.5 501 L 287 494.5 L 286.5 492 Z " /><path fill="rgb(87,88,90)" stroke="rgb(87,88,90)" stroke-width="1" opacity="0.1803921568627451" d="M 224.5 493 L 224 494.5 L 220.5 499 L 218.5 500 L 220.5 497 Q 222.8 497.8 222 495.5 L 224.5 493 Z " /><path fill="rgb(87,88,90)" stroke="rgb(87,88,90)" stroke-width="1" opacity="0.1803921568627451" d="M 215.5 500 L 217 500.5 L 211.5 502 L 211.5 501 L 215.5 500 Z " /><path fill="rgb(87,88,90)" stroke="rgb(87,88,90)" stroke-width="1" opacity="0.1803921568627451" d="M 204.5 501 L 207 501.5 L 204.5 502 L 204.5 501 Z " /><path fill="rgb(87,88,90)" stroke="rgb(87,88,90)" stroke-width="1" opacity="0.1803921568627451" d="M 297.5 501 L 300 501.5 L 297.5 502 L 297.5 501 Z " /><path fill="rgb(0,0,0)" stroke="rgb(0,0,0)" stroke-width="1" opacity="0" d="M 0 0 L 512 0 L 512 512 L 0 512 L 0 0 Z M 164 10 L 161 11 L 159 16 L 159 67 L 156 79 L 155 92 L 154 93 L 154 102 L 153 103 L 153 114 L 154 115 L 155 127 Q 160 145 171 158 L 187 172 L 180 183 L 167 210 L 89 209 L 74 205 L 62 205 L 60 206 L 53 215 L 50 228 Q 48 240 52 247 L 56 250 L 64 252 L 75 251 L 79 249 L 124 249 L 125 250 L 145 251 L 153 253 L 152 256 L 128 255 L 127 254 L 100 255 L 73 260 L 53 268 L 43 275 Q 32 283 29 299 Q 28 324 40 336 Q 48 343 59 348 L 80 355 L 102 359 L 109 359 L 110 360 L 148 362 Q 156 404 183 428 L 183 437 L 181 444 L 182 460 L 191 481 L 193 491 L 197 498 L 205 502 Q 216 504 221 499 L 227 490 L 229 481 L 229 457 L 228 450 L 239 452 L 253 452 L 254 453 L 273 452 L 283 450 L 283 485 L 287 495 Q 290 500 298 502 Q 307 504 312 500 L 318 492 L 321 480 Q 328 468 331 454 L 331 446 L 328 432 Q 326 426 330 427 L 336 419 L 351 419 L 352 418 L 361 418 L 369 416 L 375 416 L 408 407 Q 443 395 468 372 Q 481 360 490 345 L 497 330 L 502 310 L 502 286 L 496 268 Q 491 259 480 257 L 470 260 Q 463 264 460 273 L 456 293 L 450 311 Q 443 327 432 341 Q 416 362 386 370 L 374 370 L 363 367 L 366 350 L 367 332 Q 380 328 391 320 Q 400 313 404 301 L 404 290 L 400 280 L 390 270 L 375 265 L 362 263 L 360 262 L 359 253 L 368 251 L 387 250 L 388 249 L 434 249 L 444 252 L 457 250 L 460 246 L 462 235 L 460 219 L 456 210 L 451 205 L 439 205 L 423 209 L 344 210 Q 337 189 324 172 L 330 168 Q 342 158 350 144 L 355 132 L 358 118 L 358 98 L 357 97 L 357 90 L 356 89 L 354 71 L 352 65 L 352 15 L 349 10 L 342 10 L 315 32 L 291 25 L 279 24 L 278 23 L 265 23 L 264 22 L 262 23 L 251 23 L 250 22 L 248 23 L 227 24 L 209 28 L 199 32 L 196 31 L 172 11 L 164 10 Z M 423 278 L 421 280 L 425 293 L 425 305 L 419 320 L 404 333 L 406 336 L 416 331 Q 427 322 430 306 L 430 292 L 426 280 L 423 278 Z M 412 284 L 409 285 L 412 295 L 412 304 L 408 313 L 400 320 L 398 320 L 398 324 L 405 323 Q 414 317 417 305 Q 419 292 414 286 L 412 284 Z M 12 322 L 10 324 L 11 338 L 18 351 Q 24 358 34 363 L 43 366 L 53 366 L 54 364 L 51 361 Q 42 362 38 359 L 28 353 Q 21 347 17 339 L 14 324 L 12 322 Z M 25 322 L 23 324 L 23 332 L 29 344 L 39 351 Q 44 354 53 353 L 54 351 L 52 348 Q 43 349 39 345 Q 28 340 28 325 L 25 322 Z " /><path fill="rgb(0,0,0)" stroke="rgb(0,0,0)" stroke-width="1" opacity="0" d="M 95.5 276 L 133.5 276 L 134.5 277 L 148 277 L 146 287.5 L 146 295.5 L 145 296.5 L 144 332.5 L 145 333.5 L 145 341 L 112.5 339 L 111.5 338 L 104.5 338 L 82.5 334 L 61.5 326 L 54 319.5 Q 50.4 314.1 50 305.5 L 52 297.5 L 61.5 287 L 75.5 280 L 95.5 276 Z " /><path fill="rgb(0,0,0)" stroke="rgb(0,0,0)" stroke-width="1" opacity="0" d="M 365 286 L 374.5 288 L 378 291.5 L 378 296.5 L 371.5 305 L 367 307 L 365 286 Z " /><path fill="rgb(234,234,233)" stroke="rgb(234,234,233)" stroke-width="1" opacity="1" d="M 168.5 15 L 169.5 17 L 168.5 15 Z " /><path fill="rgb(234,234,233)" stroke="rgb(234,234,233)" stroke-width="1" opacity="1" d="M 325.5 29 L 324.5 31 L 325.5 29 Z " /><path fill="rgb(234,234,233)" stroke="rgb(234,234,233)" stroke-width="1" opacity="1" d="M 320.5 33 L 319.5 35 L 320.5 33 Z " /><path fill="rgb(234,234,233)" stroke="rgb(234,234,233)" stroke-width="1" opacity="1" d="M 248.5 100 L 247.5 102 L 248.5 100 Z " /><path fill="rgb(234,234,233)" stroke="rgb(234,234,233)" stroke-width="1" opacity="1" d="M 255.5 131 L 254.5 133 L 255.5 131 Z " /><path fill="rgb(234,234,233)" stroke="rgb(234,234,233)" stroke-width="1" opacity="1" d="M 176.5 155 L 178.5 158 L 176.5 155 Z " /><path fill="rgb(234,234,233)" stroke="rgb(234,234,233)" stroke-width="1" opacity="1" d="M 180.5 159 L 181.5 161 L 180.5 159 Z " /><path fill="rgb(234,234,233)" stroke="rgb(234,234,233)" stroke-width="1" opacity="1" d="M 318.5 171 L 318 172.5 L 319 174.5 L 317 173.5 L 318.5 171 Z " /><path fill="rgb(234,234,233)" stroke="rgb(234,234,233)" stroke-width="1" opacity="1" d="M 192.5 175 L 192 176.5 L 189.5 181 L 190 179.5 L 192.5 175 Z " /><path fill="rgb(234,234,233)" stroke="rgb(234,234,233)" stroke-width="1" opacity="1" d="M 319.5 176 L 323 181.5 L 321 180.5 L 319.5 176 Z " /><path fill="rgb(234,234,233)" stroke="rgb(234,234,233)" stroke-width="1" opacity="1" d="M 328.5 193 L 331 198.5 L 330 198.5 L 328.5 193 Z " /><path fill="rgb(234,234,233)" stroke="rgb(234,234,233)" stroke-width="1" opacity="1" d="M 182.5 194 L 183 195.5 L 180.5 200 L 180 198.5 L 182.5 194 Z " /><path fill="rgb(234,234,233)" stroke="rgb(234,234,233)" stroke-width="1" opacity="1" d="M 179.5 201 L 180 202.5 L 178.5 205 L 178 203.5 L 179.5 201 Z " /><path fill="rgb(234,234,233)" stroke="rgb(234,234,233)" stroke-width="1" opacity="1" d="M 172.5 216 L 174 218.5 L 171.5 224 L 171 220.5 Q 174.5 219 172 217.5 L 172.5 216 Z " /><path fill="rgb(234,234,233)" stroke="rgb(234,234,233)" stroke-width="1" opacity="1" d="M 339.5 217 L 340 219.5 L 340 221.5 L 341 226.5 L 340 226.5 L 338 219.5 L 339.5 217 Z " /><path fill="rgb(234,234,233)" stroke="rgb(234,234,233)" stroke-width="1" opacity="1" d="M 163.5 256 L 164 259.5 L 163 259.5 L 163.5 256 Z " /><path fill="rgb(234,234,233)" stroke="rgb(234,234,233)" stroke-width="1" opacity="1" d="M 348.5 259 L 349 262.5 L 348 262.5 L 348.5 259 Z " /><path fill="rgb(234,234,233)" stroke="rgb(234,234,233)" stroke-width="1" opacity="1" d="M 162.5 262 L 163 265.5 L 162 265.5 L 162.5 262 Z " /><path fill="rgb(234,234,233)" stroke="rgb(234,234,233)" stroke-width="1" opacity="1" d="M 349.5 265 L 350 269.5 L 349 269.5 L 349.5 265 Z " /><path fill="rgb(234,234,233)" stroke="rgb(234,234,233)" stroke-width="1" opacity="1" d="M 161.5 269 L 162 273.5 L 161 273.5 L 161.5 269 Z " /><path fill="rgb(234,234,233)" stroke="rgb(234,234,233)" stroke-width="1" opacity="1" d="M 485.5 272 L 486 274.5 L 485 274.5 L 485.5 272 Z " /><path fill="rgb(234,234,233)" stroke="rgb(234,234,233)" stroke-width="1" opacity="1" d="M 350.5 274 L 351 279.5 L 350 279.5 L 350.5 274 Z " /><path fill="rgb(234,234,233)" stroke="rgb(234,234,233)" stroke-width="1" opacity="1" d="M 160.5 278 L 161 286.5 L 160 286.5 L 160.5 278 Z " /><path fill="rgb(234,234,233)" stroke="rgb(234,234,233)" stroke-width="1" opacity="1" d="M 486.5 278 L 487 293.5 L 486 293.5 L 486.5 278 Z " /><path fill="rgb(234,234,233)" stroke="rgb(234,234,233)" stroke-width="1" opacity="1" d="M 351.5 286 L 352 310.5 L 351 310.5 L 351.5 286 Z " /><path fill="rgb(234,234,233)" stroke="rgb(234,234,233)" stroke-width="1" opacity="1" d="M 471.5 295 L 472.5 297 L 471.5 295 Z " /><path fill="rgb(234,234,233)" stroke="rgb(234,234,233)" stroke-width="1" opacity="1" d="M 474.5 297 L 475.5 299 L 474.5 297 Z " /><path fill="rgb(234,234,233)" stroke="rgb(234,234,233)" stroke-width="1" opacity="1" d="M 485.5 298 L 486 300.5 L 485 300.5 L 485.5 298 Z " /><path fill="rgb(234,234,233)" stroke="rgb(234,234,233)" stroke-width="1" opacity="1" d="M 484.5 303 L 485 305.5 L 484 305.5 L 484.5 303 Z " /><path fill="rgb(234,234,233)" stroke="rgb(234,234,233)" stroke-width="1" opacity="1" d="M 160.5 310 L 161 317.5 L 160 317.5 L 160.5 310 Z " /><path fill="rgb(234,234,233)" stroke="rgb(234,234,233)" stroke-width="1" opacity="1" d="M 464.5 313 L 465.5 315 L 464.5 313 Z " /><path fill="rgb(234,234,233)" stroke="rgb(234,234,233)" stroke-width="1" opacity="1" d="M 161.5 321 L 162 325.5 L 161 325.5 L 161.5 321 Z " /><path fill="rgb(234,234,233)" stroke="rgb(234,234,233)" stroke-width="1" opacity="1" d="M 472.5 321 L 473.5 323 L 472.5 321 Z " /><path fill="rgb(234,234,233)" stroke="rgb(234,234,233)" stroke-width="1" opacity="1" d="M 476.5 327 L 477 328.5 L 472.5 336 L 473 334.5 L 476.5 327 Z " /><path fill="rgb(234,234,233)" stroke="rgb(234,234,233)" stroke-width="1" opacity="1" d="M 162.5 328 L 163 331.5 L 162 331.5 L 162.5 328 Z " /><path fill="rgb(234,234,233)" stroke="rgb(234,234,233)" stroke-width="1" opacity="1" d="M 163.5 333 L 164 335.5 L 163 335.5 L 163.5 333 Z " /><path fill="rgb(234,234,233)" stroke="rgb(234,234,233)" stroke-width="1" opacity="1" d="M 442.5 337 L 443.5 339 L 442.5 337 Z " /><path fill="rgb(234,234,233)" stroke="rgb(234,234,233)" stroke-width="1" opacity="1" d="M 471.5 337 L 471 338.5 L 469.5 341 L 470 339.5 L 471.5 337 Z " /><path fill="rgb(234,234,233)" stroke="rgb(234,234,233)" stroke-width="1" opacity="1" d="M 164.5 338 L 165 340.5 L 164 340.5 L 164.5 338 Z " /><path fill="rgb(234,234,233)" stroke="rgb(234,234,233)" stroke-width="1" opacity="1" d="M 468.5 342 L 466.5 345 L 468.5 342 Z " /><path fill="rgb(234,234,233)" stroke="rgb(234,234,233)" stroke-width="1" opacity="1" d="M 345.5 343 L 346 345.5 L 345 345.5 L 345.5 343 Z " /><path fill="rgb(234,234,233)" stroke="rgb(234,234,233)" stroke-width="1" opacity="1" d="M 465.5 346 L 463.5 349 L 465.5 346 Z " /><path fill="rgb(234,234,233)" stroke="rgb(234,234,233)" stroke-width="1" opacity="1" d="M 343.5 350 L 344 351.5 L 342.5 354 L 342 352.5 L 343.5 350 Z " /><path fill="rgb(234,234,233)" stroke="rgb(234,234,233)" stroke-width="1" opacity="1" d="M 462.5 350 L 459.5 354 L 462.5 350 Z " /><path fill="rgb(234,234,233)" stroke="rgb(234,234,233)" stroke-width="1" opacity="1" d="M 425.5 354 L 424.5 356 L 425.5 354 Z " /><path fill="rgb(234,234,233)" stroke="rgb(234,234,233)" stroke-width="1" opacity="1" d="M 341.5 355 L 342 356.5 L 340.5 359 L 340 357.5 L 341.5 355 Z " /><path fill="rgb(234,234,233)" stroke="rgb(234,234,233)" stroke-width="1" opacity="1" d="M 457.5 356 L 453.5 361 L 452 360.5 L 457.5 356 Z " /><path fill="rgb(234,234,233)" stroke="rgb(234,234,233)" stroke-width="1" opacity="1" d="M 336.5 366 L 336 367.5 L 334.5 370 L 335 368.5 L 336.5 366 Z " /><path fill="rgb(234,234,233)" stroke="rgb(234,234,233)" stroke-width="1" opacity="1" d="M 175.5 367 L 178 370.5 L 176 369.5 L 175.5 367 Z " /><path fill="rgb(234,234,233)" stroke="rgb(234,234,233)" stroke-width="1" opacity="1" d="M 178.5 372 L 179.5 374 L 178.5 372 Z " /><path fill="rgb(234,234,233)" stroke="rgb(234,234,233)" stroke-width="1" opacity="1" d="M 437.5 372 L 438 374.5 L 435 376.5 L 437.5 372 Z " /><path fill="rgb(234,234,233)" stroke="rgb(234,234,233)" stroke-width="1" opacity="1" d="M 332.5 373 L 330.5 376 L 332.5 373 Z " /><path fill="rgb(234,234,233)" stroke="rgb(234,234,233)" stroke-width="1" opacity="1" d="M 180.5 375 L 182.5 378 L 180.5 375 Z " /><path fill="rgb(234,234,233)" stroke="rgb(234,234,233)" stroke-width="1" opacity="1" d="M 390.5 375 L 391 386.5 L 390 386.5 L 390.5 375 Z " /><path fill="rgb(234,234,233)" stroke="rgb(234,234,233)" stroke-width="1" opacity="1" d="M 329.5 377 L 327.5 380 L 329.5 377 Z " /><path fill="rgb(234,234,233)" stroke="rgb(234,234,233)" stroke-width="1" opacity="1" d="M 433.5 377 L 431.5 380 L 428.5 382 L 430.5 379 L 433.5 377 Z " /><path fill="rgb(234,234,233)" stroke="rgb(234,234,233)" stroke-width="1" opacity="1" d="M 183.5 379 L 187.5 384 L 183.5 379 Z " /><path fill="rgb(234,234,233)" stroke="rgb(234,234,233)" stroke-width="1" opacity="1" d="M 325.5 382 L 317.5 391 L 309.5 397 L 311.5 394 L 325.5 382 Z " /><path fill="rgb(234,234,233)" stroke="rgb(234,234,233)" stroke-width="1" opacity="1" d="M 426.5 382 L 425.5 384 L 426.5 382 Z " /><path fill="rgb(234,234,233)" stroke="rgb(234,234,233)" stroke-width="1" opacity="1" d="M 423.5 384 L 422.5 386 L 423.5 384 Z " /><path fill="rgb(234,234,233)" stroke="rgb(234,234,233)" stroke-width="1" opacity="1" d="M 189.5 385 L 190.5 387 L 189.5 385 Z " /><path fill="rgb(234,234,233)" stroke="rgb(234,234,233)" stroke-width="1" opacity="1" d="M 420.5 386 L 419.5 388 L 420.5 386 Z " /><path fill="rgb(234,234,233)" stroke="rgb(234,234,233)" stroke-width="1" opacity="1" d="M 406.5 387 L 407 389.5 L 406 389.5 L 406.5 387 Z " /><path fill="rgb(234,234,233)" stroke="rgb(234,234,233)" stroke-width="1" opacity="1" d="M 192.5 388 L 201 395.5 L 197.5 393 L 192.5 388 Z " /><path fill="rgb(234,234,233)" stroke="rgb(234,234,233)" stroke-width="1" opacity="1" d="M 415.5 389 L 414.5 391 L 415.5 389 Z " /><path fill="rgb(234,234,233)" stroke="rgb(234,234,233)" stroke-width="1" opacity="1" d="M 411.5 391 L 413 391.5 L 410.5 393 L 411.5 391 Z " /><path fill="rgb(234,234,233)" stroke="rgb(234,234,233)" stroke-width="1" opacity="1" d="M 202.5 396 L 206 398.5 L 204.5 398 L 202.5 396 Z " /><path fill="rgb(234,234,233)" stroke="rgb(234,234,233)" stroke-width="1" opacity="1" d="M 305.5 398 L 304.5 400 L 305.5 398 Z " /><path fill="rgb(234,234,233)" stroke="rgb(234,234,233)" stroke-width="1" opacity="1" d="M 209.5 400 L 212 401.5 L 210.5 402 L 209.5 400 Z " /><path fill="rgb(234,234,233)" stroke="rgb(234,234,233)" stroke-width="1" opacity="1" d="M 301.5 400 L 303 400.5 L 295.5 404 L 295.5 403 L 301.5 400 Z " /><path fill="rgb(234,234,233)" stroke="rgb(234,234,233)" stroke-width="1" opacity="1" d="M 387.5 401 L 388 402.5 L 386 403.5 L 387.5 401 Z " /><path fill="rgb(234,234,233)" stroke="rgb(234,234,233)" stroke-width="1" opacity="1" d="M 382.5 404 L 384 404.5 L 380.5 406 L 380.5 405 L 382.5 404 Z " /><path fill="rgb(234,234,233)" stroke="rgb(234,234,233)" stroke-width="1" opacity="1" d="M 373.5 407 L 376 407.5 L 373.5 408 L 373.5 407 Z " /><path fill="rgb(234,234,233)" stroke="rgb(234,234,233)" stroke-width="1" opacity="1" d="M 229.5 408 L 232 408.5 L 229.5 409 L 229.5 408 Z " /><path fill="rgb(234,234,233)" stroke="rgb(234,234,233)" stroke-width="1" opacity="1" d="M 234.5 409 L 237 409.5 L 234.5 410 L 234.5 409 Z " /><path fill="rgb(234,234,233)" stroke="rgb(234,234,233)" stroke-width="1" opacity="1" d="M 274.5 409 L 278 409.5 L 274.5 410 L 274.5 409 Z " /><path fill="rgb(234,234,233)" stroke="rgb(234,234,233)" stroke-width="1" opacity="1" d="M 240.5 410 L 245 410.5 L 240.5 411 L 240.5 410 Z " /><path fill="rgb(234,234,233)" stroke="rgb(234,234,233)" stroke-width="1" opacity="1" d="M 266.5 410 L 272 410.5 L 266.5 411 L 266.5 410 Z " /><path fill="rgb(234,234,233)" stroke="rgb(234,234,233)" stroke-width="1" opacity="1" d="M 251.5 411 L 261 411.5 L 251.5 412 L 251.5 411 Z " /><path fill="rgb(234,234,233)" stroke="rgb(234,234,233)" stroke-width="1" opacity="1" d="M 354.5 412 L 357 412.5 L 354.5 413 L 354.5 412 Z " /><path fill="rgb(234,234,234)" stroke="rgb(234,234,234)" stroke-width="1" opacity="1" d="M 165.5 15 L 170.5 17 L 194.5 37 L 199.5 37 L 206.5 34 L 227.5 29 L 247.5 28 L 248.5 27 L 263.5 27 L 264.5 28 L 283.5 29 L 301.5 33 L 311.5 37 L 316.5 37 L 343.5 15 L 347 15 L 347 65.5 L 349 71.5 L 351 89.5 L 352 90.5 L 352 97.5 L 353 98.5 L 353 116.5 Q 347.8 147.3 327.5 163 L 319 168 L 317 173.5 Q 331.6 194.9 339.5 223 L 340 217.5 L 339.5 216 L 343.5 215 L 422.5 214 Q 424.3 211.3 430.5 213 L 439.5 210 L 448.5 210 L 451 211 L 455 219.5 L 457 235.5 Q 454.8 236.8 456 241.5 L 452.5 246 L 443.5 247 L 434.5 244 L 387.5 244 L 386.5 245 L 374.5 245 L 373.5 246 L 360.5 247 L 356.5 249 L 346.5 250 L 343 252.5 Q 341.3 257.8 346.5 256 L 348 257.5 L 349 269.5 L 350 270.5 L 350 279.5 L 351 280.5 L 351 314.5 L 347.5 317 L 327.5 323 L 268.5 334 L 261.5 334 L 244.5 337 L 235.5 337 L 234.5 338 L 225.5 338 L 224.5 339 L 214.5 339 L 213.5 340 L 165 342 L 161 320.5 L 160 287.5 L 161 286.5 L 161 274.5 L 164 256 L 169 256 L 169 252.5 L 160.5 249 L 155.5 249 L 150.5 247 L 137.5 246 L 136.5 245 L 124.5 245 L 123.5 244 L 76.5 244 L 68.5 247 L 63.5 247 L 57 245 Q 53.5 239.4 55 227.5 L 58 215.5 L 62.5 210 L 71.5 210 L 80.5 213 Q 86.8 211.3 88.5 214 L 167.5 215 L 172 216 L 171 223.5 L 172 223.5 Q 180.2 195.2 194 172.5 L 190.5 167 L 179 159 L 170 147.5 L 163 134.5 L 159 120.5 L 158 103.5 L 159 102.5 L 159 93.5 L 160 92.5 L 161 79.5 L 164 67.5 L 164 16.5 L 165.5 15 Z M 211 75 L 207 79 L 208 85 Q 210 89 217 87 L 220 82 L 219 78 Q 218 73 211 75 Z M 298 75 L 294 79 Q 293 86 298 87 L 305 86 L 307 82 L 306 78 Q 305 73 298 75 Z M 252 99 L 249 100 L 246 104 Q 246 115 253 119 L 253 127 Q 251 132 241 130 Q 238 131 239 135 L 251 135 L 256 132 L 261 135 L 272 135 L 272 132 L 271 130 Q 264 131 261 129 Q 257 126 258 119 L 261 117 Q 267 114 265 103 Q 262 97 252 99 Z M 195 117 L 193 121 L 220 129 L 224 129 L 225 126 L 224 124 L 203 118 L 195 117 Z M 313 117 L 289 124 Q 286 125 287 129 L 293 129 L 300 126 L 317 122 L 318 121 Q 320 114 313 117 Z M 216 136 L 193 140 L 195 144 L 202 144 L 225 140 L 225 136 L 216 136 Z M 287 136 L 287 140 L 289 141 L 303 142 L 311 144 L 318 144 L 318 141 L 317 139 L 287 136 Z M 341 223 L 340 227 L 341 227 L 341 223 Z " /><path fill="rgb(234,234,234)" stroke="rgb(234,234,234)" stroke-width="1" opacity="1" d="M 478.5 262 L 483 264.5 L 486 275.5 L 486 297.5 L 483.5 306 L 482 303 L 480 303 Q 481.1 300.3 478.5 301 Q 472 293.3 461 291 L 466 271.5 L 471.5 265 L 478.5 262 Z " /><path fill="rgb(234,234,234)" stroke="rgb(234,234,234)" stroke-width="1" opacity="1" d="M 455 310 Q 466 312.2 472 320.5 L 476 328.5 Q 467.6 347.1 453.5 360 Q 450.5 360.9 452 356.5 Q 448.7 344.3 442 335.5 Q 450.5 324.3 455 310 Z " /><path fill="rgb(234,234,234)" stroke="rgb(234,234,234)" stroke-width="1" opacity="1" d="M 344.5 340 Q 347.1 339.2 346 342.5 Q 338.1 372.6 317.5 390 L 303.5 400 L 283.5 408 L 273.5 410 L 266.5 410 L 265.5 411 L 245.5 411 L 244.5 410 L 232.5 409 L 216.5 404 L 201.5 396 L 191 388 L 189.5 385 Q 187.3 385.8 188 383.5 Q 178.6 375.2 174 363 L 226.5 360 L 227.5 359 L 236.5 359 L 237.5 358 L 246.5 358 L 247.5 357 L 271.5 355 L 272.5 354 L 278.5 354 L 279.5 353 L 285.5 353 L 314.5 348 L 344.5 340 Z " /><path fill="rgb(234,234,234)" stroke="rgb(234,234,234)" stroke-width="1" opacity="1" d="M 429.5 351 Q 434.8 357.8 437 367.5 L 437 374.5 Q 423.5 387 406 394 L 407 389.5 L 407 367 Q 420.2 361.4 429.5 351 Z " /><path fill="rgb(234,234,234)" stroke="rgb(234,234,234)" stroke-width="1" opacity="1" d="M 361 372 L 372.5 375 L 386.5 375 L 390 374 L 390 391.5 L 388 400.5 L 385.5 404 L 358.5 412 L 348.5 414 L 341.5 414 L 344 410.5 Q 356 394.1 361 372 Z " /><path fill="rgb(105,126,115)" stroke="rgb(105,126,115)" stroke-width="1" opacity="0.9725490196078431" d="M 165.5 10 L 171.5 12 L 197.5 33 L 211.5 28 L 232.5 24 L 240.5 24 L 241.5 23 L 269.5 23 L 270.5 24 L 279.5 24 L 280.5 25 L 291.5 26 L 314.5 33 L 341.5 11 L 345.5 10 L 351 13.5 L 352 17.5 L 352 68.5 L 354 74.5 L 356 94.5 L 357 95.5 L 357 119.5 Q 351 151 329.5 167 L 323 171.5 L 331 183.5 L 344.5 211 L 418.5 210 L 447.5 205 L 455 209.5 Q 461.8 220.2 461 238.5 L 460 243.5 L 456.5 249 L 449.5 251 L 441.5 251 L 433.5 248 L 394.5 248 L 393.5 249 L 368.5 250 L 358 252 L 359 260.5 L 361.5 264 L 375.5 266 L 387.5 270 L 399 279.5 Q 404.5 286 404 298.5 Q 400.5 313 389.5 320 Q 379.3 328 366 332 L 365 351.5 L 362 367 L 374.5 371 L 384.5 371 Q 416.4 363.4 433 340.5 Q 443.2 328.2 450 312.5 L 456 295.5 L 460 274.5 Q 462.8 265.8 469.5 261 L 476.5 258 L 481.5 258 Q 490.5 260.4 495 267.5 L 500 279.5 L 501 291.5 L 502 292.5 L 502 301.5 L 501 302.5 L 501 310.5 L 499 320.5 L 495 332.5 L 483 353.5 L 471 368 L 446.5 387 L 410.5 405 L 375.5 415 L 354.5 417 L 353.5 418 L 337.5 418 L 334 420.5 L 332.5 423 L 328 426.5 L 328 438.5 Q 331.3 444.3 330 454.5 Q 326.1 470.1 319 482.5 L 317 491.5 L 311.5 499 Q 307.5 502 300.5 502 Q 292 500.5 288 494.5 L 284 485.5 L 283 462.5 L 284 461.5 L 284 449 L 274.5 451 L 265.5 451 L 264.5 452 L 246.5 452 L 245.5 451 L 236.5 451 L 227 449 L 228 451.5 L 228 482.5 L 225 492.5 L 222 497 L 217.5 500 L 207.5 502 Q 199.4 500.6 196 494.5 L 191 478.5 L 183 460.5 L 181 447.5 L 183 441.5 L 184 427.5 Q 156.5 404.2 149 362 L 142.5 361 L 126.5 361 L 125.5 360 L 105.5 359 L 74.5 353 L 53.5 345 L 40 334.5 Q 27.8 322.7 30 296.5 Q 33.4 283.4 42.5 276 L 58.5 266 L 79.5 259 L 96.5 256 L 106.5 256 L 107.5 255 L 131.5 255 L 132.5 256 L 153 256 L 154 253.5 L 148.5 251 L 134.5 250 L 133.5 249 L 78.5 248 Q 72.7 252.2 61.5 251 L 55.5 249 L 53 246.5 L 51 241.5 L 51 225.5 L 53 216.5 L 59.5 207 Q 62.4 204.4 68.5 205 L 82.5 209 L 91.5 209 L 92.5 210 L 138.5 210 L 139.5 211 L 168 211 Q 175.6 189.2 188 171.5 L 172 157.5 Q 162.2 146.3 157 130.5 L 154 116.5 L 154 99.5 L 155 98.5 L 155 90.5 L 156 89.5 L 158 71.5 L 160 65.5 L 160 14.5 L 163.5 11 L 165.5 10 Z M 166 14 L 164 16 L 164 66 L 161 77 L 159 98 L 158 99 L 158 118 L 161 131 L 172 152 Q 180 162 192 170 L 191 175 L 184 185 L 172 210 Q 171 212 174 211 L 175 215 L 150 215 L 149 214 L 97 214 L 96 213 L 84 213 L 70 209 L 62 210 L 57 217 L 55 225 L 55 242 L 56 245 L 61 247 Q 73 249 79 244 L 132 245 L 133 246 L 142 246 L 158 250 L 163 250 L 167 252 L 168 252 L 168 256 L 157 254 L 151 285 L 150 303 L 149 304 L 149 340 L 150 342 L 207 341 L 208 340 L 230 339 L 231 338 L 240 338 L 241 337 L 249 337 L 250 336 L 279 333 L 330 323 L 347 318 L 362 311 L 362 299 L 361 298 L 360 282 L 354 254 L 345 256 L 343 254 L 349 250 L 355 250 L 364 247 L 380 246 L 381 245 L 397 245 L 398 244 L 434 244 L 441 247 Q 449 248 454 246 L 456 244 L 457 240 L 457 228 L 453 214 L 448 209 Q 436 209 428 213 L 416 213 L 415 214 L 363 214 L 362 215 L 338 215 L 336 214 L 340 211 L 328 186 L 321 176 L 319 170 L 329 163 Q 342 152 349 135 L 353 121 L 353 113 L 354 112 L 352 87 L 348 68 L 348 17 L 346 14 L 343 15 L 316 37 L 292 30 L 281 28 L 273 28 L 272 27 L 241 27 L 240 28 L 232 28 L 212 32 L 199 37 L 196 37 L 172 17 L 166 14 Z M 477 262 L 471 265 L 465 273 L 460 296 L 455 311 Q 447 330 434 346 Q 423 358 408 367 L 393 373 L 383 375 L 370 374 L 363 371 L 360 374 L 358 382 L 349 402 L 341 414 L 355 414 L 356 413 L 371 412 L 408 402 Q 439 391 462 371 Q 478 358 488 339 L 495 321 L 498 305 L 497 284 L 491 269 Q 487 262 477 262 Z M 100 275 L 99 276 L 90 276 L 80 278 L 62 286 Q 53 291 50 303 L 50 312 L 55 322 L 69 330 L 85 335 L 101 338 L 108 338 L 109 339 L 117 339 L 118 340 L 144 341 Q 145 343 146 341 L 145 338 L 145 306 L 146 305 L 147 286 L 149 276 L 100 275 Z M 364 285 L 367 309 L 373 305 L 379 296 L 378 291 Q 373 285 364 285 Z M 362 334 L 349 339 L 322 346 L 283 353 L 253 356 L 252 357 L 244 357 L 243 358 L 234 358 L 233 359 L 210 360 L 209 361 L 194 361 L 193 362 L 174 362 L 173 363 L 153 362 Q 158 392 175 413 L 184 421 Q 187 420 188 423 L 187 442 L 185 447 L 187 461 Q 195 475 199 493 Q 202 497 208 498 Q 214 499 217 496 Q 223 492 224 484 L 224 451 L 223 450 L 223 438 L 222 437 L 222 428 L 225 427 Q 228 434 227 445 L 245 448 L 267 448 L 284 445 L 286 427 L 290 429 L 289 443 L 288 444 L 288 459 L 287 460 L 287 479 L 290 491 Q 293 496 301 498 L 308 497 L 313 492 L 316 480 Q 323 469 326 455 L 326 445 L 324 438 L 324 421 L 328 422 Q 341 410 349 393 L 356 375 L 362 344 L 362 334 Z " /><path fill="rgb(105,126,115)" stroke="rgb(105,126,115)" stroke-width="1" opacity="0.9725490196078431" d="M 212.5 75 Q 217.3 75.3 219 78.5 Q 220.3 84.8 216.5 86 L 212.5 87 L 208 83.5 Q 206.8 77.3 210.5 76 L 212.5 75 Z " /><path fill="rgb(105,126,115)" stroke="rgb(105,126,115)" stroke-width="1" opacity="0.9725490196078431" d="M 298.5 75 Q 303.6 74.4 305 77.5 L 306 82.5 L 303.5 86 L 298.5 87 L 294 80.5 L 298.5 75 Z " /><path fill="rgb(105,126,115)" stroke="rgb(105,126,115)" stroke-width="1" opacity="0.9725490196078431" d="M 250.5 100 L 261.5 100 L 265 103.5 Q 265.5 113.5 259.5 117 L 258 117.5 L 258 126.5 L 260.5 130 L 270.5 131 L 272 132.5 L 270.5 135 Q 259.5 136.5 255.5 131 Q 250.8 136.6 240 135 L 239 132.5 L 240.5 131 L 248.5 131 L 253 127.5 L 254 118.5 L 247 110.5 L 247 102.5 L 250.5 100 Z " /><path fill="rgb(105,126,115)" stroke="rgb(105,126,115)" stroke-width="1" opacity="0.9725490196078431" d="M 195.5 117 L 224 125 L 222.5 129 L 194 121 L 195.5 117 Z " /><path fill="rgb(105,126,115)" stroke="rgb(105,126,115)" stroke-width="1" opacity="0.9725490196078431" d="M 314.5 117 Q 317.8 115.9 317 118.5 Q 319.3 119.8 316.5 121 L 288.5 129 L 287 126.5 L 290.5 124 L 314.5 117 Z " /><path fill="rgb(105,126,115)" stroke="rgb(105,126,115)" stroke-width="1" opacity="0.9725490196078431" d="M 219.5 136 Q 226.3 134 224 140 L 195.5 144 L 194 140 L 218.5 137 L 219.5 136 Z " /><path fill="rgb(105,126,115)" stroke="rgb(105,126,115)" stroke-width="1" opacity="0.9725490196078431" d="M 288.5 136 L 313.5 139 L 318 141.5 L 316.5 144 L 292.5 141 L 287 138.5 L 288.5 136 Z " /><path fill="rgb(105,126,115)" stroke="rgb(105,126,115)" stroke-width="1" opacity="0.9725490196078431" d="M 422 279 Q 425.8 277.5 425 280.5 Q 431.3 289.2 429 306.5 Q 425.6 321.6 415.5 330 L 407.5 335 L 405 335 L 406.5 331 L 416 324.5 Q 426.5 315 426 294.5 L 422 279 Z " /><path fill="rgb(105,126,115)" stroke="rgb(105,126,115)" stroke-width="1" opacity="0.9725490196078431" d="M 410 285 L 414 286.5 Q 417.6 293.4 416 305.5 Q 412.9 316.4 404.5 322 L 400.5 324 L 399 320 Q 405.8 319 409 312.5 L 413 302.5 L 413 295.5 L 410 285 Z " /><path fill="rgb(105,126,115)" stroke="rgb(105,126,115)" stroke-width="1" opacity="0.9725490196078431" d="M 11.5 323 L 14 324.5 L 14 331.5 L 16 338.5 Q 19.9 348.1 27.5 354 L 37.5 360 L 44.5 362 L 51.5 362 L 53 363.5 L 51.5 366 Q 42 366 35.5 363 Q 25.4 358.6 19 350.5 Q 10.7 341.3 10 324.5 L 11.5 323 Z " /><path fill="rgb(105,126,115)" stroke="rgb(105,126,115)" stroke-width="1" opacity="0.9725490196078431" d="M 24.5 323 L 27 324.5 Q 27.6 340.4 38.5 346 L 46.5 349 L 51.5 349 L 53 350.5 L 51.5 353 Q 36.7 352.3 30 343.5 Q 23.5 337 23 324.5 L 24.5 323 Z " /></svg>