<svg width="512" height="512" version="1.1" xmlns="http://www.w3.org/2000/svg" desc="Created with imagetracer.js version 1.2.6" ><path fill="rgb(0,0,0)" stroke="rgb(0,0,0)" stroke-width="1" opacity="0" d="M 0 0 L 512 0 L 512 512 L 0 512 L 0 0 Z M 79 10 L 77 11 L 74 15 L 74 72 L 72 78 L 70 95 L 69 96 L 69 103 L 68 104 L 68 111 L 67 112 L 67 130 L 70 145 Q 76 163 87 177 L 98 187 L 88 203 L 77 226 L 70 243 L 59 277 L 59 281 L 56 289 L 53 304 L 51 322 L 50 323 L 50 330 L 49 331 L 48 365 L 47 368 L 48 371 L 49 399 L 56 431 Q 63 453 77 470 Q 87 483 106 488 Q 112 486 109 494 L 114 498 L 126 502 L 149 502 L 161 498 L 167 490 L 168 488 L 199 488 L 201 495 L 209 500 L 217 502 L 240 502 L 253 498 Q 258 495 257 488 Q 271 487 279 479 L 301 484 L 317 485 L 318 486 L 345 486 L 373 481 Q 401 473 421 455 Q 432 445 440 432 Q 449 418 452 399 L 452 375 L 451 370 Q 447 350 437 338 L 422 323 L 409 318 Q 398 317 394 321 L 387 331 L 387 347 L 390 359 L 390 379 L 388 389 Q 384 405 375 416 Q 368 426 357 432 L 340 439 L 329 441 L 319 441 L 307 439 L 313 419 L 317 396 L 317 387 L 318 386 L 318 346 L 317 345 L 317 334 L 316 333 L 316 325 L 315 324 L 313 305 L 311 300 L 308 282 L 300 255 L 290 229 L 275 198 L 268 187 L 271 185 Q 285 172 293 153 L 298 135 L 298 126 L 299 125 L 297 98 L 292 73 L 292 16 L 288 10 L 281 10 L 250 35 L 227 28 L 217 26 L 210 26 L 209 25 L 200 25 L 199 24 L 168 24 L 167 25 L 157 25 L 128 31 L 118 35 L 86 10 L 79 10 Z M 338 53 L 329 56 Q 323 60 320 68 L 320 132 L 323 138 Q 327 143 334 145 L 339 146 L 330 168 L 328 178 L 332 178 L 364 146 L 445 146 Q 446 144 451 145 L 457 142 L 461 138 L 465 127 L 465 73 L 462 63 Q 457 55 448 53 L 338 53 Z " /><path fill="rgb(123,125,128)" stroke="rgb(123,125,128)" stroke-width="1" opacity="0.9607843137254902" d="M 79.5 14 L 78.5 16 L 79.5 14 Z " /><path fill="rgb(123,125,128)" stroke="rgb(123,125,128)" stroke-width="1" opacity="0.9607843137254902" d="M 280.5 15 L 279.5 17 L 280.5 15 Z " /><path fill="rgb(123,125,128)" stroke="rgb(123,125,128)" stroke-width="1" opacity="0.9607843137254902" d="M 86.5 16 L 87.5 18 L 86.5 16 Z " /><path fill="rgb(123,125,128)" stroke="rgb(123,125,128)" stroke-width="1" opacity="0.9607843137254902" d="M 287.5 16 L 288 71.5 L 287 71.5 L 287.5 16 Z " /><path fill="rgb(123,125,128)" stroke="rgb(123,125,128)" stroke-width="1" opacity="0.9607843137254902" d="M 275.5 19 L 273.5 22 L 275.5 19 Z " /><path fill="rgb(123,125,128)" stroke="rgb(123,125,128)" stroke-width="1" opacity="0.9607843137254902" d="M 91.5 20 L 92.5 22 L 91.5 20 Z " /><path fill="rgb(123,125,128)" stroke="rgb(123,125,128)" stroke-width="1" opacity="0.9607843137254902" d="M 270.5 23 L 269.5 25 L 270.5 23 Z " /><path fill="rgb(123,125,128)" stroke="rgb(123,125,128)" stroke-width="1" opacity="0.9607843137254902" d="M 96.5 24 L 98.5 27 L 96.5 24 Z " /><path fill="rgb(123,125,128)" stroke="rgb(123,125,128)" stroke-width="1" opacity="0.9607843137254902" d="M 265.5 27 L 264.5 29 L 265.5 27 Z " /><path fill="rgb(123,125,128)" stroke="rgb(123,125,128)" stroke-width="1" opacity="0.9607843137254902" d="M 101.5 28 L 103.5 31 L 101.5 28 Z " /><path fill="rgb(123,125,128)" stroke="rgb(123,125,128)" stroke-width="1" opacity="0.9607843137254902" d="M 169.5 28 L 197 28.5 L 169.5 29 L 169.5 28 Z " /><path fill="rgb(123,125,128)" stroke="rgb(123,125,128)" stroke-width="1" opacity="0.9607843137254902" d="M 157.5 29 L 162 29.5 L 157.5 30 L 157.5 29 Z " /><path fill="rgb(123,125,128)" stroke="rgb(123,125,128)" stroke-width="1" opacity="0.9607843137254902" d="M 204.5 29 L 208 29.5 L 204.5 30 L 204.5 29 Z " /><path fill="rgb(123,125,128)" stroke="rgb(123,125,128)" stroke-width="1" opacity="0.9607843137254902" d="M 151.5 30 L 154 30.5 L 151.5 31 L 151.5 30 Z " /><path fill="rgb(123,125,128)" stroke="rgb(123,125,128)" stroke-width="1" opacity="0.9607843137254902" d="M 212.5 30 L 215 30.5 L 212.5 31 L 212.5 30 Z " /><path fill="rgb(123,125,128)" stroke="rgb(123,125,128)" stroke-width="1" opacity="0.9607843137254902" d="M 218.5 31 L 221 31.5 L 218.5 32 L 218.5 31 Z " /><path fill="rgb(123,125,128)" stroke="rgb(123,125,128)" stroke-width="1" opacity="0.9607843137254902" d="M 260.5 31 L 258.5 34 L 260.5 31 Z " /><path fill="rgb(123,125,128)" stroke="rgb(123,125,128)" stroke-width="1" opacity="0.9607843137254902" d="M 106.5 32 L 108.5 35 L 106.5 32 Z " /><path fill="rgb(123,125,128)" stroke="rgb(123,125,128)" stroke-width="1" opacity="0.9607843137254902" d="M 255.5 35 L 254.5 37 L 255.5 35 Z " /><path fill="rgb(123,125,128)" stroke="rgb(123,125,128)" stroke-width="1" opacity="0.9607843137254902" d="M 111.5 36 L 113.5 39 L 111.5 36 Z " /><path fill="rgb(123,125,128)" stroke="rgb(123,125,128)" stroke-width="1" opacity="0.9607843137254902" d="M 115.5 39 L 118 39.5 L 115.5 40 L 115.5 39 Z " /><path fill="rgb(123,125,128)" stroke="rgb(123,125,128)" stroke-width="1" opacity="0.9607843137254902" d="M 338.5 57 L 446 57.5 L 338.5 58 L 338.5 57 Z " /><path fill="rgb(123,125,128)" stroke="rgb(123,125,128)" stroke-width="1" opacity="0.9607843137254902" d="M 330.5 60 L 329.5 62 L 330.5 60 Z " /><path fill="rgb(123,125,128)" stroke="rgb(123,125,128)" stroke-width="1" opacity="0.9607843137254902" d="M 453.5 60 L 454.5 62 L 453.5 60 Z " /><path fill="rgb(123,125,128)" stroke="rgb(123,125,128)" stroke-width="1" opacity="0.9607843137254902" d="M 327.5 63 L 326.5 65 L 327.5 63 Z " /><path fill="rgb(123,125,128)" stroke="rgb(123,125,128)" stroke-width="1" opacity="0.9607843137254902" d="M 456.5 63 L 457.5 65 L 456.5 63 Z " /><path fill="rgb(123,125,128)" stroke="rgb(123,125,128)" stroke-width="1" opacity="0.9607843137254902" d="M 351.5 86 L 354.5 90 L 351.5 86 Z " /><path fill="rgb(123,125,128)" stroke="rgb(123,125,128)" stroke-width="1" opacity="0.9607843137254902" d="M 365.5 86 L 364.5 88 L 365.5 86 Z " /><path fill="rgb(123,125,128)" stroke="rgb(123,125,128)" stroke-width="1" opacity="0.9607843137254902" d="M 384.5 86 L 385 100.5 L 384 100.5 L 384.5 86 Z " /><path fill="rgb(123,125,128)" stroke="rgb(123,125,128)" stroke-width="1" opacity="0.9607843137254902" d="M 342.5 87 L 341.5 89 L 342.5 87 Z " /><path fill="rgb(123,125,128)" stroke="rgb(123,125,128)" stroke-width="1" opacity="0.9607843137254902" d="M 373.5 87 L 375.5 90 L 373.5 87 Z " /><path fill="rgb(123,125,128)" stroke="rgb(123,125,128)" stroke-width="1" opacity="0.9607843137254902" d="M 398.5 87 L 400.5 90 L 398.5 87 Z " /><path fill="rgb(123,125,128)" stroke="rgb(123,125,128)" stroke-width="1" opacity="0.9607843137254902" d="M 346.5 89 L 349 89.5 L 346.5 90 L 346.5 89 Z " /><path fill="rgb(123,125,128)" stroke="rgb(123,125,128)" stroke-width="1" opacity="0.9607843137254902" d="M 362.5 89 L 361.5 91 L 362.5 89 Z " /><path fill="rgb(123,125,128)" stroke="rgb(123,125,128)" stroke-width="1" opacity="0.9607843137254902" d="M 388.5 89 L 395 89.5 L 388.5 90 L 388.5 89 Z " /><path fill="rgb(123,125,128)" stroke="rgb(123,125,128)" stroke-width="1" opacity="0.9607843137254902" d="M 411.5 89 L 418 89.5 L 411 90 L 410.5 100 L 410 90.5 L 411.5 89 Z " /><path fill="rgb(123,125,128)" stroke="rgb(123,125,128)" stroke-width="1" opacity="0.9607843137254902" d="M 350.5 90 L 351.5 92 L 350.5 90 Z " /><path fill="rgb(123,125,128)" stroke="rgb(123,125,128)" stroke-width="1" opacity="0.9607843137254902" d="M 366.5 90 L 365.5 92 L 366.5 90 Z " /><path fill="rgb(123,125,128)" stroke="rgb(123,125,128)" stroke-width="1" opacity="0.9607843137254902" d="M 371.5 90 L 372.5 92 L 371.5 90 Z " /><path fill="rgb(123,125,128)" stroke="rgb(123,125,128)" stroke-width="1" opacity="0.9607843137254902" d="M 396.5 90 L 397.5 92 L 396.5 90 Z " /><path fill="rgb(123,125,128)" stroke="rgb(123,125,128)" stroke-width="1" opacity="0.9607843137254902" d="M 291.5 91 L 292 93.5 L 291 93.5 L 291.5 91 Z " /><path fill="rgb(123,125,128)" stroke="rgb(123,125,128)" stroke-width="1" opacity="0.9607843137254902" d="M 339.5 92 L 340 95.5 L 339 95.5 L 339.5 92 Z " /><path fill="rgb(123,125,128)" stroke="rgb(123,125,128)" stroke-width="1" opacity="0.9607843137254902" d="M 398.5 93 L 399 95.5 L 398 95.5 L 398.5 93 Z " /><path fill="rgb(123,125,128)" stroke="rgb(123,125,128)" stroke-width="1" opacity="0.9607843137254902" d="M 352.5 94 L 355 95.5 L 353.5 96 L 352.5 94 Z " /><path fill="rgb(123,125,128)" stroke="rgb(123,125,128)" stroke-width="1" opacity="0.9607843137254902" d="M 359.5 95 L 360 97.5 L 359 97.5 L 359.5 95 Z " /><path fill="rgb(123,125,128)" stroke="rgb(123,125,128)" stroke-width="1" opacity="0.9607843137254902" d="M 424.5 95 L 425 97.5 L 424 97.5 L 424.5 95 Z " /><path fill="rgb(123,125,128)" stroke="rgb(123,125,128)" stroke-width="1" opacity="0.9607843137254902" d="M 73.5 96 L 74 98.5 L 73 98.5 L 73.5 96 Z " /><path fill="rgb(123,125,128)" stroke="rgb(123,125,128)" stroke-width="1" opacity="0.9607843137254902" d="M 378.5 96 L 379 104.5 L 378 104.5 L 378.5 96 Z " /><path fill="rgb(123,125,128)" stroke="rgb(123,125,128)" stroke-width="1" opacity="0.9607843137254902" d="M 420.5 96 L 421 97.5 L 419 98.5 L 420.5 96 Z " /><path fill="rgb(123,125,128)" stroke="rgb(123,125,128)" stroke-width="1" opacity="0.9607843137254902" d="M 401.5 97 L 402 98.5 L 400 99.5 L 401.5 97 Z " /><path fill="rgb(123,125,128)" stroke="rgb(123,125,128)" stroke-width="1" opacity="0.9607843137254902" d="M 346.5 98 L 349 98.5 L 346.5 99 L 346.5 98 Z " /><path fill="rgb(123,125,128)" stroke="rgb(123,125,128)" stroke-width="1" opacity="0.9607843137254902" d="M 292.5 99 L 293 101.5 L 292 101.5 L 292.5 99 Z " /><path fill="rgb(123,125,128)" stroke="rgb(123,125,128)" stroke-width="1" opacity="0.9607843137254902" d="M 341.5 99 L 342.5 101 L 341.5 99 Z " /><path fill="rgb(123,125,128)" stroke="rgb(123,125,128)" stroke-width="1" opacity="0.9607843137254902" d="M 351.5 99 L 352.5 101 L 351.5 99 Z " /><path fill="rgb(123,125,128)" stroke="rgb(123,125,128)" stroke-width="1" opacity="0.9607843137254902" d="M 423.5 99 L 420.5 103 L 423.5 99 Z " /><path fill="rgb(123,125,128)" stroke="rgb(123,125,128)" stroke-width="1" opacity="0.9607843137254902" d="M 348.5 102 L 352 104.5 L 349.5 103 L 348.5 102 Z " /><path fill="rgb(123,125,128)" stroke="rgb(123,125,128)" stroke-width="1" opacity="0.9607843137254902" d="M 359.5 102 L 360 104.5 L 359 104.5 L 359.5 102 Z " /><path fill="rgb(123,125,128)" stroke="rgb(123,125,128)" stroke-width="1" opacity="0.9607843137254902" d="M 437.5 102 L 438 113.5 L 436 114.5 L 437 113.5 L 437.5 102 Z " /><path fill="rgb(123,125,128)" stroke="rgb(123,125,128)" stroke-width="1" opacity="0.9607843137254902" d="M 384.5 103 L 385 113.5 L 384 113.5 L 384.5 103 Z " /><path fill="rgb(123,125,128)" stroke="rgb(123,125,128)" stroke-width="1" opacity="0.9607843137254902" d="M 411.5 103 L 413 103.5 L 411 104 L 411 113.5 L 409.5 115 L 410 113.5 L 410 104.5 L 411.5 103 Z " /><path fill="rgb(123,125,128)" stroke="rgb(123,125,128)" stroke-width="1" opacity="0.9607843137254902" d="M 72.5 104 L 73 107.5 L 72 107.5 L 72.5 104 Z " /><path fill="rgb(123,125,128)" stroke="rgb(123,125,128)" stroke-width="1" opacity="0.9607843137254902" d="M 355.5 104 L 356 108.5 L 355 108.5 L 355.5 104 Z " /><path fill="rgb(123,125,128)" stroke="rgb(123,125,128)" stroke-width="1" opacity="0.9607843137254902" d="M 414.5 105 L 415.5 107 L 414.5 105 Z " /><path fill="rgb(123,125,128)" stroke="rgb(123,125,128)" stroke-width="1" opacity="0.9607843137254902" d="M 339.5 106 L 340 108.5 L 339 108.5 L 339.5 106 Z " /><path fill="rgb(123,125,128)" stroke="rgb(123,125,128)" stroke-width="1" opacity="0.9607843137254902" d="M 392.5 106 L 393.5 108 L 392.5 106 Z " /><path fill="rgb(123,125,128)" stroke="rgb(123,125,128)" stroke-width="1" opacity="0.9607843137254902" d="M 293.5 107 L 294 110.5 L 293 110.5 L 293.5 107 Z " /><path fill="rgb(123,125,128)" stroke="rgb(123,125,128)" stroke-width="1" opacity="0.9607843137254902" d="M 398.5 108 L 399.5 110 L 398.5 108 Z " /><path fill="rgb(123,125,128)" stroke="rgb(123,125,128)" stroke-width="1" opacity="0.9607843137254902" d="M 416.5 108 L 417.5 110 L 416.5 108 Z " /><path fill="rgb(123,125,128)" stroke="rgb(123,125,128)" stroke-width="1" opacity="0.9607843137254902" d="M 394.5 109 L 395.5 111 L 394.5 109 Z " /><path fill="rgb(123,125,128)" stroke="rgb(123,125,128)" stroke-width="1" opacity="0.9607843137254902" d="M 422.5 110 L 423.5 112 L 422.5 110 Z " /><path fill="rgb(123,125,128)" stroke="rgb(123,125,128)" stroke-width="1" opacity="0.9607843137254902" d="M 362.5 111 L 364.5 114 L 362.5 111 Z " /><path fill="rgb(123,125,128)" stroke="rgb(123,125,128)" stroke-width="1" opacity="0.9607843137254902" d="M 400.5 111 L 402 113.5 L 400 114.5 L 401 112.5 L 400.5 111 Z " /><path fill="rgb(123,125,128)" stroke="rgb(123,125,128)" stroke-width="1" opacity="0.9607843137254902" d="M 418.5 111 L 419.5 113 L 418.5 111 Z " /><path fill="rgb(123,125,128)" stroke="rgb(123,125,128)" stroke-width="1" opacity="0.9607843137254902" d="M 71.5 113 L 72 127.5 L 71 127.5 L 71.5 113 Z " /><path fill="rgb(123,125,128)" stroke="rgb(123,125,128)" stroke-width="1" opacity="0.9607843137254902" d="M 343.5 113 L 346 114.5 L 344.5 115 L 343.5 113 Z " /><path fill="rgb(123,125,128)" stroke="rgb(123,125,128)" stroke-width="1" opacity="0.9607843137254902" d="M 397.5 113 L 398.5 115 L 397.5 113 Z " /><path fill="rgb(123,125,128)" stroke="rgb(123,125,128)" stroke-width="1" opacity="0.9607843137254902" d="M 131.5 129 L 129.5 132 L 131.5 129 Z " /><path fill="rgb(123,125,128)" stroke="rgb(123,125,128)" stroke-width="1" opacity="0.9607843137254902" d="M 293.5 130 L 294 132.5 L 293 132.5 L 293.5 130 Z " /><path fill="rgb(123,125,128)" stroke="rgb(123,125,128)" stroke-width="1" opacity="0.9607843137254902" d="M 72.5 132 L 73 134.5 L 72 134.5 L 72.5 132 Z " /><path fill="rgb(123,125,128)" stroke="rgb(123,125,128)" stroke-width="1" opacity="0.9607843137254902" d="M 128.5 133 L 129 136.5 L 128 136.5 L 128.5 133 Z " /><path fill="rgb(123,125,128)" stroke="rgb(123,125,128)" stroke-width="1" opacity="0.9607843137254902" d="M 239.5 133 L 240 136.5 L 239 136.5 L 239.5 133 Z " /><path fill="rgb(123,125,128)" stroke="rgb(123,125,128)" stroke-width="1" opacity="0.9607843137254902" d="M 326.5 134 L 330.5 139 L 326.5 134 Z " /><path fill="rgb(123,125,128)" stroke="rgb(123,125,128)" stroke-width="1" opacity="0.9607843137254902" d="M 457.5 134 L 453.5 139 L 457.5 134 Z " /><path fill="rgb(123,125,128)" stroke="rgb(123,125,128)" stroke-width="1" opacity="0.9607843137254902" d="M 129.5 138 L 131.5 141 L 129.5 138 Z " /><path fill="rgb(123,125,128)" stroke="rgb(123,125,128)" stroke-width="1" opacity="0.9607843137254902" d="M 343.5 141 L 345 143.5 L 344 143.5 L 343.5 141 Z " /><path fill="rgb(123,125,128)" stroke="rgb(123,125,128)" stroke-width="1" opacity="0.9607843137254902" d="M 361.5 141 L 335.5 168 L 335 166 L 337 165.5 L 336.5 164 L 337.5 165 L 361.5 141 Z " /><path fill="rgb(123,125,128)" stroke="rgb(123,125,128)" stroke-width="1" opacity="0.9607843137254902" d="M 178.5 143 L 181 143.5 L 178.5 144 L 178.5 143 Z " /><path fill="rgb(123,125,128)" stroke="rgb(123,125,128)" stroke-width="1" opacity="0.9607843137254902" d="M 185.5 143 L 188 143.5 L 185.5 144 L 185.5 143 Z " /><path fill="rgb(123,125,128)" stroke="rgb(123,125,128)" stroke-width="1" opacity="0.9607843137254902" d="M 190.5 144 L 193 147.5 L 192 147.5 L 190.5 144 Z " /><path fill="rgb(123,125,128)" stroke="rgb(123,125,128)" stroke-width="1" opacity="0.9607843137254902" d="M 190.5 158 L 189.5 160 L 190.5 158 Z " /><path fill="rgb(123,125,128)" stroke="rgb(123,125,128)" stroke-width="1" opacity="0.9607843137254902" d="M 283.5 161 L 282.5 163 L 283.5 161 Z " /><path fill="rgb(123,125,128)" stroke="rgb(123,125,128)" stroke-width="1" opacity="0.9607843137254902" d="M 242.5 163 L 245 163.5 L 242.5 164 L 242.5 163 Z " /><path fill="rgb(123,125,128)" stroke="rgb(123,125,128)" stroke-width="1" opacity="0.9607843137254902" d="M 184.5 164 L 185 169.5 L 184 169.5 L 184.5 164 Z " /><path fill="rgb(123,125,128)" stroke="rgb(123,125,128)" stroke-width="1" opacity="0.9607843137254902" d="M 87.5 169 L 88.5 171 L 87.5 169 Z " /><path fill="rgb(123,125,128)" stroke="rgb(123,125,128)" stroke-width="1" opacity="0.9607843137254902" d="M 277.5 170 L 276.5 172 L 277.5 170 Z " /><path fill="rgb(123,125,128)" stroke="rgb(123,125,128)" stroke-width="1" opacity="0.9607843137254902" d="M 150.5 173 L 151 174.5 L 147.5 176 L 147.5 175 Q 151 176 150.5 173 Z " /><path fill="rgb(123,125,128)" stroke="rgb(123,125,128)" stroke-width="1" opacity="0.9607843137254902" d="M 91.5 174 L 100.5 184 L 91.5 174 Z " /><path fill="rgb(123,125,128)" stroke="rgb(123,125,128)" stroke-width="1" opacity="0.9607843137254902" d="M 179.5 175 L 177.5 178 L 179.5 175 Z " /><path fill="rgb(123,125,128)" stroke="rgb(123,125,128)" stroke-width="1" opacity="0.9607843137254902" d="M 272.5 176 L 267.5 182 L 272.5 176 Z " /><path fill="rgb(123,125,128)" stroke="rgb(123,125,128)" stroke-width="1" opacity="0.9607843137254902" d="M 182.5 177 L 179.5 181 L 182.5 177 Z " /><path fill="rgb(123,125,128)" stroke="rgb(123,125,128)" stroke-width="1" opacity="0.9607843137254902" d="M 167.5 178 L 176 178.5 L 167.5 179 L 167.5 178 Z " /><path fill="rgb(123,125,128)" stroke="rgb(123,125,128)" stroke-width="1" opacity="0.9607843137254902" d="M 190.5 178 L 199 178.5 L 190.5 179 L 190.5 178 Z " /><path fill="rgb(123,125,128)" stroke="rgb(123,125,128)" stroke-width="1" opacity="0.9607843137254902" d="M 200.5 179 L 201 181.5 L 200 181.5 L 200.5 179 Z " /><path fill="rgb(123,125,128)" stroke="rgb(123,125,128)" stroke-width="1" opacity="0.9607843137254902" d="M 166.5 182 L 174 182.5 L 166.5 183 L 166.5 182 Z " /><path fill="rgb(123,125,128)" stroke="rgb(123,125,128)" stroke-width="1" opacity="0.9607843137254902" d="M 192.5 182 L 199 182.5 L 192.5 183 L 192.5 182 Z " /><path fill="rgb(123,125,128)" stroke="rgb(123,125,128)" stroke-width="1" opacity="0.9607843137254902" d="M 263.5 184 L 262.5 186 L 263.5 184 Z " /><path fill="rgb(123,125,128)" stroke="rgb(123,125,128)" stroke-width="1" opacity="0.9607843137254902" d="M 103.5 185 L 105.5 188 L 103.5 185 Z " /><path fill="rgb(123,125,128)" stroke="rgb(123,125,128)" stroke-width="1" opacity="0.9607843137254902" d="M 142.5 185 L 145 185.5 L 142.5 186 L 142.5 185 Z " /><path fill="rgb(123,125,128)" stroke="rgb(123,125,128)" stroke-width="1" opacity="0.9607843137254902" d="M 150.5 185 L 151 187.5 L 150 187.5 L 150.5 185 Z " /><path fill="rgb(123,125,128)" stroke="rgb(123,125,128)" stroke-width="1" opacity="0.9607843137254902" d="M 136.5 186 L 139 186.5 L 136.5 187 L 136.5 186 Z " /><path fill="rgb(123,125,128)" stroke="rgb(123,125,128)" stroke-width="1" opacity="0.9607843137254902" d="M 227.5 186 L 230 186.5 L 227.5 187 L 227.5 186 Z " /><path fill="rgb(123,125,128)" stroke="rgb(123,125,128)" stroke-width="1" opacity="0.9607843137254902" d="M 215.5 187 L 219 188.5 L 216.5 189 L 215.5 187 Z " /><path fill="rgb(123,125,128)" stroke="rgb(123,125,128)" stroke-width="1" opacity="0.9607843137254902" d="M 233.5 187 L 236 187.5 L 233.5 188 L 233.5 187 Z " /><path fill="rgb(123,125,128)" stroke="rgb(123,125,128)" stroke-width="1" opacity="0.9607843137254902" d="M 123.5 188 L 126 188.5 L 123.5 189 L 123.5 188 Z " /><path fill="rgb(123,125,128)" stroke="rgb(123,125,128)" stroke-width="1" opacity="0.9607843137254902" d="M 240.5 188 L 243 188.5 L 240.5 189 L 240.5 188 Z " /><path fill="rgb(123,125,128)" stroke="rgb(123,125,128)" stroke-width="1" opacity="0.9607843137254902" d="M 140.5 189 L 143 189.5 L 140.5 190 L 140.5 189 Z " /><path fill="rgb(123,125,128)" stroke="rgb(123,125,128)" stroke-width="1" opacity="0.9607843137254902" d="M 222.5 189 L 225 189.5 L 222.5 190 L 222.5 189 Z " /><path fill="rgb(123,125,128)" stroke="rgb(123,125,128)" stroke-width="1" opacity="0.9607843137254902" d="M 134.5 190 L 137 190.5 L 134.5 191 L 134.5 190 Z " /><path fill="rgb(123,125,128)" stroke="rgb(123,125,128)" stroke-width="1" opacity="0.9607843137254902" d="M 229.5 190 L 232 190.5 L 229.5 191 L 229.5 190 Z " /><path fill="rgb(123,125,128)" stroke="rgb(123,125,128)" stroke-width="1" opacity="0.9607843137254902" d="M 235.5 191 L 238 191.5 L 235.5 192 L 235.5 191 Z " /><path fill="rgb(123,125,128)" stroke="rgb(123,125,128)" stroke-width="1" opacity="0.9607843137254902" d="M 121.5 192 L 124 192.5 L 121.5 193 L 121.5 192 Z " /><path fill="rgb(123,125,128)" stroke="rgb(123,125,128)" stroke-width="1" opacity="0.9607843137254902" d="M 242.5 192 L 245 192.5 L 242.5 193 L 242.5 192 Z " /><path fill="rgb(123,125,128)" stroke="rgb(123,125,128)" stroke-width="1" opacity="0.9607843137254902" d="M 307.5 300 L 308 302.5 L 307 302.5 L 307.5 300 Z " /><path fill="rgb(123,125,128)" stroke="rgb(123,125,128)" stroke-width="1" opacity="0.9607843137254902" d="M 56.5 309 L 57 311.5 L 56 311.5 L 56.5 309 Z " /><path fill="rgb(123,125,128)" stroke="rgb(123,125,128)" stroke-width="1" opacity="0.9607843137254902" d="M 309.5 311 L 310 313.5 L 309 313.5 L 309.5 311 Z " /><path fill="rgb(123,125,128)" stroke="rgb(123,125,128)" stroke-width="1" opacity="0.9607843137254902" d="M 55.5 315 L 56 317.5 L 55 317.5 L 55.5 315 Z " /><path fill="rgb(123,125,128)" stroke="rgb(123,125,128)" stroke-width="1" opacity="0.9607843137254902" d="M 310.5 317 L 311 319.5 L 310 319.5 L 310.5 317 Z " /><path fill="rgb(123,125,128)" stroke="rgb(123,125,128)" stroke-width="1" opacity="0.9607843137254902" d="M 54.5 322 L 55 324.5 L 54 324.5 L 54.5 322 Z " /><path fill="rgb(123,125,128)" stroke="rgb(123,125,128)" stroke-width="1" opacity="0.9607843137254902" d="M 401.5 322 L 408 322.5 L 401.5 323 L 401.5 322 Z " /><path fill="rgb(123,125,128)" stroke="rgb(123,125,128)" stroke-width="1" opacity="0.9607843137254902" d="M 311.5 324 L 312 327.5 L 311 327.5 L 311.5 324 Z " /><path fill="rgb(123,125,128)" stroke="rgb(123,125,128)" stroke-width="1" opacity="0.9607843137254902" d="M 395.5 325 L 393.5 328 L 395.5 325 Z " /><path fill="rgb(123,125,128)" stroke="rgb(123,125,128)" stroke-width="1" opacity="0.9607843137254902" d="M 421.5 328 L 423.5 331 L 421.5 328 Z " /><path fill="rgb(123,125,128)" stroke="rgb(123,125,128)" stroke-width="1" opacity="0.9607843137254902" d="M 53.5 329 L 54 332.5 L 53 332.5 L 53.5 329 Z " /><path fill="rgb(123,125,128)" stroke="rgb(123,125,128)" stroke-width="1" opacity="0.9607843137254902" d="M 312.5 332 L 313 336.5 L 312 336.5 L 312.5 332 Z " /><path fill="rgb(123,125,128)" stroke="rgb(123,125,128)" stroke-width="1" opacity="0.9607843137254902" d="M 430.5 337 L 432.5 340 L 430.5 337 Z " /><path fill="rgb(123,125,128)" stroke="rgb(123,125,128)" stroke-width="1" opacity="0.9607843137254902" d="M 52.5 339 L 53 344.5 L 52 344.5 L 52.5 339 Z " /><path fill="rgb(123,125,128)" stroke="rgb(123,125,128)" stroke-width="1" opacity="0.9607843137254902" d="M 99.5 341 L 101 341.5 L 99 342 L 98.5 344 L 98 342.5 L 99.5 341 Z " /><path fill="rgb(123,125,128)" stroke="rgb(123,125,128)" stroke-width="1" opacity="0.9607843137254902" d="M 202.5 341 L 204 341.5 L 202 342 L 201.5 345 L 201 342.5 L 202.5 341 Z " /><path fill="rgb(123,125,128)" stroke="rgb(123,125,128)" stroke-width="1" opacity="0.9607843137254902" d="M 264.5 341 L 266 341.5 L 264 342 L 263.5 344 L 263 342.5 L 264.5 341 Z " /><path fill="rgb(123,125,128)" stroke="rgb(123,125,128)" stroke-width="1" opacity="0.9607843137254902" d="M 434.5 342 L 435.5 344 L 434.5 342 Z " /><path fill="rgb(123,125,128)" stroke="rgb(123,125,128)" stroke-width="1" opacity="0.9607843137254902" d="M 313.5 343 L 314 349.5 L 313 349.5 L 313.5 343 Z " /><path fill="rgb(123,125,128)" stroke="rgb(123,125,128)" stroke-width="1" opacity="0.9607843137254902" d="M 391.5 343 L 392 345.5 L 391 345.5 L 391.5 343 Z " /><path fill="rgb(123,125,128)" stroke="rgb(123,125,128)" stroke-width="1" opacity="0.9607843137254902" d="M 205.5 345 L 206 347.5 L 205 347.5 L 205.5 345 Z " /><path fill="rgb(123,125,128)" stroke="rgb(123,125,128)" stroke-width="1" opacity="0.9607843137254902" d="M 163.5 347 L 164 349.5 L 163 349.5 L 163.5 347 Z " /><path fill="rgb(123,125,128)" stroke="rgb(123,125,128)" stroke-width="1" opacity="0.9607843137254902" d="M 159.5 349 L 160 352.5 L 159 352.5 L 159.5 349 Z " /><path fill="rgb(123,125,128)" stroke="rgb(123,125,128)" stroke-width="1" opacity="0.9607843137254902" d="M 392.5 349 L 393 351.5 L 392 351.5 L 392.5 349 Z " /><path fill="rgb(123,125,128)" stroke="rgb(123,125,128)" stroke-width="1" opacity="0.9607843137254902" d="M 202.5 350 L 203 352.5 L 202 352.5 L 202.5 350 Z " /><path fill="rgb(123,125,128)" stroke="rgb(123,125,128)" stroke-width="1" opacity="0.9607843137254902" d="M 206.5 352 L 207 354.5 L 206 354.5 L 206.5 352 Z " /><path fill="rgb(123,125,128)" stroke="rgb(123,125,128)" stroke-width="1" opacity="0.9607843137254902" d="M 51.5 355 L 52 374.5 L 51 374.5 L 51.5 355 Z " /><path fill="rgb(123,125,128)" stroke="rgb(123,125,128)" stroke-width="1" opacity="0.9607843137254902" d="M 162.5 355 L 163 357.5 L 162 357.5 L 162.5 355 Z " /><path fill="rgb(123,125,128)" stroke="rgb(123,125,128)" stroke-width="1" opacity="0.9607843137254902" d="M 393.5 355 L 394 357.5 L 393 357.5 L 393.5 355 Z " /><path fill="rgb(123,125,128)" stroke="rgb(123,125,128)" stroke-width="1" opacity="0.9607843137254902" d="M 158.5 357 L 159 359.5 L 158 359.5 L 158.5 357 Z " /><path fill="rgb(123,125,128)" stroke="rgb(123,125,128)" stroke-width="1" opacity="0.9607843137254902" d="M 203.5 357 L 204 359.5 L 203 359.5 L 203.5 357 Z " /><path fill="rgb(123,125,128)" stroke="rgb(123,125,128)" stroke-width="1" opacity="0.9607843137254902" d="M 207.5 360 L 208 362.5 L 207 362.5 L 207.5 360 Z " /><path fill="rgb(123,125,128)" stroke="rgb(123,125,128)" stroke-width="1" opacity="0.9607843137254902" d="M 161.5 362 L 162 365.5 L 161 365.5 L 161.5 362 Z " /><path fill="rgb(123,125,128)" stroke="rgb(123,125,128)" stroke-width="1" opacity="0.9607843137254902" d="M 394.5 362 L 395 375.5 L 394 375.5 L 394.5 362 Z " /><path fill="rgb(123,125,128)" stroke="rgb(123,125,128)" stroke-width="1" opacity="0.9607843137254902" d="M 157.5 365 L 158 398.5 L 157 398.5 L 157.5 365 Z " /><path fill="rgb(123,125,128)" stroke="rgb(123,125,128)" stroke-width="1" opacity="0.9607843137254902" d="M 204.5 365 L 205 398.5 L 204 398.5 L 204.5 365 Z " /><path fill="rgb(123,125,128)" stroke="rgb(123,125,128)" stroke-width="1" opacity="0.9607843137254902" d="M 208.5 375 L 209 383.5 L 208 383.5 L 208.5 375 Z " /><path fill="rgb(123,125,128)" stroke="rgb(123,125,128)" stroke-width="1" opacity="0.9607843137254902" d="M 447.5 375 L 448 379.5 L 447 379.5 L 447.5 375 Z " /><path fill="rgb(123,125,128)" stroke="rgb(123,125,128)" stroke-width="1" opacity="0.9607843137254902" d="M 313.5 380 L 314 385.5 L 313 385.5 L 313.5 380 Z " /><path fill="rgb(123,125,128)" stroke="rgb(123,125,128)" stroke-width="1" opacity="0.9607843137254902" d="M 393.5 380 L 394 382.5 L 393 382.5 L 393.5 380 Z " /><path fill="rgb(123,125,128)" stroke="rgb(123,125,128)" stroke-width="1" opacity="0.9607843137254902" d="M 52.5 385 L 53 389.5 L 52 389.5 L 52.5 385 Z " /><path fill="rgb(123,125,128)" stroke="rgb(123,125,128)" stroke-width="1" opacity="0.9607843137254902" d="M 312.5 392 L 313 394.5 L 312 394.5 L 312.5 392 Z " /><path fill="rgb(123,125,128)" stroke="rgb(123,125,128)" stroke-width="1" opacity="0.9607843137254902" d="M 447.5 392 L 448 396.5 L 447 396.5 L 447.5 392 Z " /><path fill="rgb(123,125,128)" stroke="rgb(123,125,128)" stroke-width="1" opacity="0.9607843137254902" d="M 53.5 394 L 54 397.5 L 53 397.5 L 53.5 394 Z " /><path fill="rgb(123,125,128)" stroke="rgb(123,125,128)" stroke-width="1" opacity="0.9607843137254902" d="M 161.5 397 L 162 408.5 L 161 408.5 L 161.5 397 Z " /><path fill="rgb(123,125,128)" stroke="rgb(123,125,128)" stroke-width="1" opacity="0.9607843137254902" d="M 311.5 399 L 312 401.5 L 311 401.5 L 311.5 399 Z " /><path fill="rgb(123,125,128)" stroke="rgb(123,125,128)" stroke-width="1" opacity="0.9607843137254902" d="M 446.5 400 L 447 402.5 L 446 402.5 L 446.5 400 Z " /><path fill="rgb(123,125,128)" stroke="rgb(123,125,128)" stroke-width="1" opacity="0.9607843137254902" d="M 207.5 405 L 208 415.5 L 207 415.5 L 207.5 405 Z " /><path fill="rgb(123,125,128)" stroke="rgb(123,125,128)" stroke-width="1" opacity="0.9607843137254902" d="M 55.5 407 L 56 409.5 L 55 409.5 L 55.5 407 Z " /><path fill="rgb(123,125,128)" stroke="rgb(123,125,128)" stroke-width="1" opacity="0.9607843137254902" d="M 383.5 410 L 382.5 412 L 383.5 410 Z " /><path fill="rgb(123,125,128)" stroke="rgb(123,125,128)" stroke-width="1" opacity="0.9607843137254902" d="M 118.5 413 L 119 415.5 L 118 415.5 L 118.5 413 Z " /><path fill="rgb(123,125,128)" stroke="rgb(123,125,128)" stroke-width="1" opacity="0.9607843137254902" d="M 158.5 414 L 159 422.5 L 158 422.5 L 158.5 414 Z " /><path fill="rgb(123,125,128)" stroke="rgb(123,125,128)" stroke-width="1" opacity="0.9607843137254902" d="M 203.5 414 L 204 422.5 L 203 422.5 L 203.5 414 Z " /><path fill="rgb(123,125,128)" stroke="rgb(123,125,128)" stroke-width="1" opacity="0.9607843137254902" d="M 250.5 415 L 251 417.5 L 250 417.5 L 250.5 415 Z " /><path fill="rgb(123,125,128)" stroke="rgb(123,125,128)" stroke-width="1" opacity="0.9607843137254902" d="M 379.5 416 L 378.5 418 L 379.5 416 Z " /><path fill="rgb(123,125,128)" stroke="rgb(123,125,128)" stroke-width="1" opacity="0.9607843137254902" d="M 115.5 417 L 116 420.5 L 115 420.5 L 115.5 417 Z " /><path fill="rgb(123,125,128)" stroke="rgb(123,125,128)" stroke-width="1" opacity="0.9607843137254902" d="M 246.5 417 L 247 420.5 L 246 420.5 L 246.5 417 Z " /><path fill="rgb(123,125,128)" stroke="rgb(123,125,128)" stroke-width="1" opacity="0.9607843137254902" d="M 119.5 420 L 120 423.5 L 119 423.5 L 119.5 420 Z " /><path fill="rgb(123,125,128)" stroke="rgb(123,125,128)" stroke-width="1" opacity="0.9607843137254902" d="M 376.5 420 L 367.5 430 L 376.5 420 Z " /><path fill="rgb(123,125,128)" stroke="rgb(123,125,128)" stroke-width="1" opacity="0.9607843137254902" d="M 162.5 421 L 163 429.5 L 162 429.5 L 162.5 421 Z " /><path fill="rgb(123,125,128)" stroke="rgb(123,125,128)" stroke-width="1" opacity="0.9607843137254902" d="M 249.5 423 L 250 427.5 L 249 427.5 L 249.5 423 Z " /><path fill="rgb(123,125,128)" stroke="rgb(123,125,128)" stroke-width="1" opacity="0.9607843137254902" d="M 437.5 426 L 436.5 428 L 437.5 426 Z " /><path fill="rgb(123,125,128)" stroke="rgb(123,125,128)" stroke-width="1" opacity="0.9607843137254902" d="M 116.5 427 L 117 436.5 L 116 436.5 L 116.5 427 Z " /><path fill="rgb(123,125,128)" stroke="rgb(123,125,128)" stroke-width="1" opacity="0.9607843137254902" d="M 206.5 427 L 207 435.5 L 206 435.5 L 206.5 427 Z " /><path fill="rgb(123,125,128)" stroke="rgb(123,125,128)" stroke-width="1" opacity="0.9607843137254902" d="M 245.5 427 L 246 450.5 L 245 450.5 L 245.5 427 Z " /><path fill="rgb(123,125,128)" stroke="rgb(123,125,128)" stroke-width="1" opacity="0.9607843137254902" d="M 364.5 431 L 363.5 433 L 364.5 431 Z " /><path fill="rgb(123,125,128)" stroke="rgb(123,125,128)" stroke-width="1" opacity="0.9607843137254902" d="M 120.5 434 L 121 443.5 L 120 443.5 L 120.5 434 Z " /><path fill="rgb(123,125,128)" stroke="rgb(123,125,128)" stroke-width="1" opacity="0.9607843137254902" d="M 159.5 434 L 160 442.5 L 159 442.5 L 159.5 434 Z " /><path fill="rgb(123,125,128)" stroke="rgb(123,125,128)" stroke-width="1" opacity="0.9607843137254902" d="M 202.5 435 L 203 442.5 L 202 442.5 L 202.5 435 Z " /><path fill="rgb(123,125,128)" stroke="rgb(123,125,128)" stroke-width="1" opacity="0.9607843137254902" d="M 431.5 435 L 430.5 437 L 431.5 435 Z " /><path fill="rgb(123,125,128)" stroke="rgb(123,125,128)" stroke-width="1" opacity="0.9607843137254902" d="M 428.5 439 L 427.5 441 L 428.5 439 Z " /><path fill="rgb(123,125,128)" stroke="rgb(123,125,128)" stroke-width="1" opacity="0.9607843137254902" d="M 116.5 441 L 117 450.5 L 116 450.5 L 116.5 441 Z " /><path fill="rgb(123,125,128)" stroke="rgb(123,125,128)" stroke-width="1" opacity="0.9607843137254902" d="M 163.5 442 L 164 448.5 L 163 448.5 L 163.5 442 Z " /><path fill="rgb(123,125,128)" stroke="rgb(123,125,128)" stroke-width="1" opacity="0.9607843137254902" d="M 304.5 442 L 306 442.5 L 303.5 444 L 304.5 442 Z " /><path fill="rgb(123,125,128)" stroke="rgb(123,125,128)" stroke-width="1" opacity="0.9607843137254902" d="M 313.5 444 L 317 444.5 L 313.5 445 L 313.5 444 Z " /><path fill="rgb(123,125,128)" stroke="rgb(123,125,128)" stroke-width="1" opacity="0.9607843137254902" d="M 330.5 444 L 334 444.5 L 330.5 445 L 330.5 444 Z " /><path fill="rgb(123,125,128)" stroke="rgb(123,125,128)" stroke-width="1" opacity="0.9607843137254902" d="M 423.5 445 L 418.5 451 L 423.5 445 Z " /><path fill="rgb(123,125,128)" stroke="rgb(123,125,128)" stroke-width="1" opacity="0.9607843137254902" d="M 205.5 447 L 206 453.5 L 205 453.5 L 205.5 447 Z " /><path fill="rgb(123,125,128)" stroke="rgb(123,125,128)" stroke-width="1" opacity="0.9607843137254902" d="M 249.5 450 L 250 454.5 L 249 454.5 L 249.5 450 Z " /><path fill="rgb(123,125,128)" stroke="rgb(123,125,128)" stroke-width="1" opacity="0.9607843137254902" d="M 160.5 452 L 161 458.5 L 160 458.5 L 160.5 452 Z " /><path fill="rgb(123,125,128)" stroke="rgb(123,125,128)" stroke-width="1" opacity="0.9607843137254902" d="M 71.5 453 L 72.5 455 L 71.5 453 Z " /><path fill="rgb(123,125,128)" stroke="rgb(123,125,128)" stroke-width="1" opacity="0.9607843137254902" d="M 201.5 453 L 202 459.5 L 201 459.5 L 201.5 453 Z " /><path fill="rgb(123,125,128)" stroke="rgb(123,125,128)" stroke-width="1" opacity="0.9607843137254902" d="M 119.5 454 L 120 457.5 L 119 457.5 L 119.5 454 Z " /><path fill="rgb(123,125,128)" stroke="rgb(123,125,128)" stroke-width="1" opacity="0.9607843137254902" d="M 293.5 454 L 292.5 456 L 293.5 454 Z " /><path fill="rgb(123,125,128)" stroke="rgb(123,125,128)" stroke-width="1" opacity="0.9607843137254902" d="M 413.5 454 L 412.5 456 L 413.5 454 Z " /><path fill="rgb(123,125,128)" stroke="rgb(123,125,128)" stroke-width="1" opacity="0.9607843137254902" d="M 297.5 455 L 296.5 457 L 297.5 455 Z " /><path fill="rgb(123,125,128)" stroke="rgb(123,125,128)" stroke-width="1" opacity="0.9607843137254902" d="M 115.5 457 L 116 460.5 L 115 460.5 L 115.5 457 Z " /><path fill="rgb(123,125,128)" stroke="rgb(123,125,128)" stroke-width="1" opacity="0.9607843137254902" d="M 246.5 457 L 247 460.5 L 246 460.5 L 246.5 457 Z " /><path fill="rgb(123,125,128)" stroke="rgb(123,125,128)" stroke-width="1" opacity="0.9607843137254902" d="M 409.5 457 L 408.5 459 L 409.5 457 Z " /><path fill="rgb(123,125,128)" stroke="rgb(123,125,128)" stroke-width="1" opacity="0.9607843137254902" d="M 164.5 458 L 165 464.5 L 164 464.5 L 164.5 458 Z " /><path fill="rgb(123,125,128)" stroke="rgb(123,125,128)" stroke-width="1" opacity="0.9607843137254902" d="M 250.5 460 L 251 462.5 L 250 462.5 L 250.5 460 Z " /><path fill="rgb(123,125,128)" stroke="rgb(123,125,128)" stroke-width="1" opacity="0.9607843137254902" d="M 289.5 460 L 288.5 462 L 289.5 460 Z " /><path fill="rgb(123,125,128)" stroke="rgb(123,125,128)" stroke-width="1" opacity="0.9607843137254902" d="M 77.5 462 L 78.5 464 L 77.5 462 Z " /><path fill="rgb(123,125,128)" stroke="rgb(123,125,128)" stroke-width="1" opacity="0.9607843137254902" d="M 118.5 462 L 119 464.5 L 118 464.5 L 118.5 462 Z " /><path fill="rgb(123,125,128)" stroke="rgb(123,125,128)" stroke-width="1" opacity="0.9607843137254902" d="M 204.5 463 L 205 467.5 L 204 467.5 L 204.5 463 Z " /><path fill="rgb(123,125,128)" stroke="rgb(123,125,128)" stroke-width="1" opacity="0.9607843137254902" d="M 287.5 463 L 285.5 466 L 287.5 463 Z " /><path fill="rgb(123,125,128)" stroke="rgb(123,125,128)" stroke-width="1" opacity="0.9607843137254902" d="M 400.5 463 L 399.5 465 L 400.5 463 Z " /><path fill="rgb(123,125,128)" stroke="rgb(123,125,128)" stroke-width="1" opacity="0.9607843137254902" d="M 291.5 464 L 289.5 467 L 291.5 464 Z " /><path fill="rgb(123,125,128)" stroke="rgb(123,125,128)" stroke-width="1" opacity="0.9607843137254902" d="M 81.5 467 L 89.5 476 L 81.5 467 Z " /><path fill="rgb(123,125,128)" stroke="rgb(123,125,128)" stroke-width="1" opacity="0.9607843137254902" d="M 161.5 467 L 162 469.5 L 161 469.5 L 161.5 467 Z " /><path fill="rgb(123,125,128)" stroke="rgb(123,125,128)" stroke-width="1" opacity="0.9607843137254902" d="M 165.5 468 L 166 470.5 L 165 470.5 L 165.5 468 Z " /><path fill="rgb(123,125,128)" stroke="rgb(123,125,128)" stroke-width="1" opacity="0.9607843137254902" d="M 282.5 469 L 277.5 475 L 282.5 469 Z " /><path fill="rgb(123,125,128)" stroke="rgb(123,125,128)" stroke-width="1" opacity="0.9607843137254902" d="M 287.5 469 L 283 474.5 L 283.5 476 L 282 474.5 L 287.5 469 Z " /><path fill="rgb(123,125,128)" stroke="rgb(123,125,128)" stroke-width="1" opacity="0.9607843137254902" d="M 203.5 471 L 204 473.5 L 203 473.5 L 203.5 471 Z " /><path fill="rgb(123,125,128)" stroke="rgb(123,125,128)" stroke-width="1" opacity="0.9607843137254902" d="M 199.5 472 L 200 476.5 L 199 476.5 L 199.5 472 Z " /><path fill="rgb(123,125,128)" stroke="rgb(123,125,128)" stroke-width="1" opacity="0.9607843137254902" d="M 162.5 473 L 163 476.5 L 162 476.5 L 162.5 473 Z " /><path fill="rgb(123,125,128)" stroke="rgb(123,125,128)" stroke-width="1" opacity="0.9607843137254902" d="M 166.5 475 L 167 483.5 L 166 483.5 L 166.5 475 Z " /><path fill="rgb(123,125,128)" stroke="rgb(123,125,128)" stroke-width="1" opacity="0.9607843137254902" d="M 274.5 476 L 273.5 478 L 274.5 476 Z " /><path fill="rgb(123,125,128)" stroke="rgb(123,125,128)" stroke-width="1" opacity="0.9607843137254902" d="M 92.5 477 L 93.5 479 L 92.5 477 Z " /><path fill="rgb(123,125,128)" stroke="rgb(123,125,128)" stroke-width="1" opacity="0.9607843137254902" d="M 252.5 477 L 253 479.5 L 252 479.5 L 252.5 477 Z " /><path fill="rgb(123,125,128)" stroke="rgb(123,125,128)" stroke-width="1" opacity="0.9607843137254902" d="M 256.5 478 L 257 483 L 260 483.5 L 257.5 484 Q 254.6 482.6 256.5 478 Z " /><path fill="rgb(123,125,128)" stroke="rgb(123,125,128)" stroke-width="1" opacity="0.9607843137254902" d="M 271.5 478 L 270.5 480 L 271.5 478 Z " /><path fill="rgb(123,125,128)" stroke="rgb(123,125,128)" stroke-width="1" opacity="0.9607843137254902" d="M 295.5 478 L 298 478.5 L 295.5 479 L 295.5 478 Z " /><path fill="rgb(123,125,128)" stroke="rgb(123,125,128)" stroke-width="1" opacity="0.9607843137254902" d="M 361.5 478 L 364 478.5 L 361.5 479 L 361.5 478 Z " /><path fill="rgb(123,125,128)" stroke="rgb(123,125,128)" stroke-width="1" opacity="0.9607843137254902" d="M 301.5 479 L 304 479.5 L 301.5 480 L 301.5 479 Z " /><path fill="rgb(123,125,128)" stroke="rgb(123,125,128)" stroke-width="1" opacity="0.9607843137254902" d="M 356.5 479 L 359 479.5 L 356.5 480 L 356.5 479 Z " /><path fill="rgb(123,125,128)" stroke="rgb(123,125,128)" stroke-width="1" opacity="0.9607843137254902" d="M 308.5 480 L 312 480.5 L 308.5 481 L 308.5 480 Z " /><path fill="rgb(123,125,128)" stroke="rgb(123,125,128)" stroke-width="1" opacity="0.9607843137254902" d="M 349.5 480 L 353 480.5 L 349.5 481 L 349.5 480 Z " /><path fill="rgb(123,125,128)" stroke="rgb(123,125,128)" stroke-width="1" opacity="0.9607843137254902" d="M 318.5 481 L 344 481.5 L 318.5 482 L 318.5 481 Z " /><path fill="rgb(123,125,128)" stroke="rgb(123,125,128)" stroke-width="1" opacity="0.9607843137254902" d="M 112.5 482 L 113 485.5 L 112 485.5 L 112.5 482 Z " /><path fill="rgb(123,125,128)" stroke="rgb(123,125,128)" stroke-width="1" opacity="0.9607843137254902" d="M 106.5 483 L 109 483.5 L 106.5 484 L 106.5 483 Z " /><path fill="rgb(123,125,128)" stroke="rgb(123,125,128)" stroke-width="1" opacity="0.9607843137254902" d="M 205.5 492 L 206.5 494 L 205.5 492 Z " /><path fill="rgb(123,125,128)" stroke="rgb(123,125,128)" stroke-width="1" opacity="0.9607843137254902" d="M 251.5 492 L 249.5 495 L 251.5 492 Z " /><path fill="rgb(123,125,128)" stroke="rgb(123,125,128)" stroke-width="1" opacity="0.9607843137254902" d="M 126.5 497 L 129 497.5 L 126.5 498 L 126.5 497 Z " /><path fill="rgb(123,125,128)" stroke="rgb(123,125,128)" stroke-width="1" opacity="0.9607843137254902" d="M 145.5 497 L 148 497.5 L 145.5 498 L 145.5 497 Z " /><path fill="rgb(123,125,128)" stroke="rgb(123,125,128)" stroke-width="1" opacity="0.9607843137254902" d="M 217.5 497 L 221 497.5 L 217.5 498 L 217.5 497 Z " /><path fill="rgb(123,125,128)" stroke="rgb(123,125,128)" stroke-width="1" opacity="0.9607843137254902" d="M 237.5 497 L 240 497.5 L 237.5 498 L 237.5 497 Z " /><path fill="rgb(224,224,222)" stroke="rgb(224,224,222)" stroke-width="1" opacity="1" d="M 85.5 16 L 86.5 18 L 85.5 16 Z " /><path fill="rgb(224,224,222)" stroke="rgb(224,224,222)" stroke-width="1" opacity="1" d="M 95.5 24 L 96.5 26 L 95.5 24 Z " /><path fill="rgb(224,224,222)" stroke="rgb(224,224,222)" stroke-width="1" opacity="1" d="M 256.5 35 L 255.5 37 L 256.5 35 Z " /><path fill="rgb(224,224,222)" stroke="rgb(224,224,222)" stroke-width="1" opacity="1" d="M 130.5 129 L 129.5 131 L 130.5 129 Z " /><path fill="rgb(224,224,222)" stroke="rgb(224,224,222)" stroke-width="1" opacity="1" d="M 129.5 139 L 130.5 141 L 129.5 139 Z " /><path fill="rgb(224,224,222)" stroke="rgb(224,224,222)" stroke-width="1" opacity="1" d="M 238.5 139 L 237.5 141 L 238.5 139 Z " /><path fill="rgb(224,224,222)" stroke="rgb(224,224,222)" stroke-width="1" opacity="1" d="M 174.5 144 L 173.5 146 L 174.5 144 Z " /><path fill="rgb(224,224,222)" stroke="rgb(224,224,222)" stroke-width="1" opacity="1" d="M 190.5 159 L 189.5 161 L 190.5 159 Z " /><path fill="rgb(224,224,222)" stroke="rgb(224,224,222)" stroke-width="1" opacity="1" d="M 91.5 173 L 92.5 175 L 91.5 173 Z " /><path fill="rgb(224,224,222)" stroke="rgb(224,224,222)" stroke-width="1" opacity="1" d="M 272.5 175 L 267.5 181 L 272.5 175 Z " /><path fill="rgb(224,224,222)" stroke="rgb(224,224,222)" stroke-width="1" opacity="1" d="M 182.5 178 L 180.5 181 L 182.5 178 Z " /><path fill="rgb(224,224,222)" stroke="rgb(224,224,222)" stroke-width="1" opacity="1" d="M 99.5 181 L 100.5 183 L 99.5 181 Z " /><path fill="rgb(224,224,222)" stroke="rgb(224,224,222)" stroke-width="1" opacity="1" d="M 105.5 186 L 106.5 188 L 105.5 186 Z " /><path fill="rgb(224,224,222)" stroke="rgb(224,224,222)" stroke-width="1" opacity="1" d="M 59.5 298 L 60 301.5 L 59 301.5 L 59.5 298 Z " /><path fill="rgb(224,224,222)" stroke="rgb(224,224,222)" stroke-width="1" opacity="1" d="M 306.5 299 L 310 316.5 L 311 330.5 L 312 331.5 L 314 370.5 L 313 371.5 L 313 387.5 L 312 388.5 L 311 403.5 L 307 421.5 L 302 436.5 Q 293.4 457.9 278.5 473 Q 270.8 481.7 257 483 L 257 476.5 L 254 467.5 L 251 463.5 L 260.5 462 Q 270.6 458.1 277 450.5 Q 293.1 432.6 301 406.5 L 306 384.5 L 307 369.5 L 308 368.5 L 309 332.5 L 308 331.5 L 308 315.5 L 307 314.5 L 306.5 299 Z " /><path fill="rgb(224,224,222)" stroke="rgb(224,224,222)" stroke-width="1" opacity="1" d="M 58.5 303 L 59 310.5 L 58 311.5 L 58 324.5 L 57 325.5 L 57 360.5 L 58 361.5 L 58 372.5 L 59 373.5 L 61 391.5 L 67 413.5 Q 76 439.5 94.5 456 L 105.5 462 L 114 463 L 109 475.5 Q 109.6 480.9 108 483 Q 90.8 480 82 467.5 Q 66.4 449.1 59 422.5 L 53 391.5 L 52 350.5 L 53 349.5 L 53 337.5 L 54 336.5 L 55 320.5 L 58.5 303 Z " /><path fill="rgb(224,224,222)" stroke="rgb(224,224,222)" stroke-width="1" opacity="1" d="M 407.5 323 Q 423.8 327.1 432 339.5 Q 440.8 350.2 445 365.5 L 447 374.5 L 447 389.5 L 444 387.5 L 431.5 374 L 428 371.5 Q 430.3 370.3 429 365.5 Q 422.8 338.5 407.5 323 Z " /><path fill="rgb(224,224,222)" stroke="rgb(224,224,222)" stroke-width="1" opacity="1" d="M 396.5 325 L 394.5 328 L 396.5 325 Z " /><path fill="rgb(224,224,222)" stroke="rgb(224,224,222)" stroke-width="1" opacity="1" d="M 391.5 336 L 392 339.5 L 391 339.5 L 391.5 336 Z " /><path fill="rgb(224,224,222)" stroke="rgb(224,224,222)" stroke-width="1" opacity="1" d="M 396.5 359 L 400 359.5 L 396.5 360 L 396.5 359 Z " /><path fill="rgb(224,224,222)" stroke="rgb(224,224,222)" stroke-width="1" opacity="1" d="M 402.5 360 L 405 360.5 L 402.5 361 L 402.5 360 Z " /><path fill="rgb(224,224,222)" stroke="rgb(224,224,222)" stroke-width="1" opacity="1" d="M 423.5 368 L 427 370.5 L 425.5 370 L 423.5 368 Z " /><path fill="rgb(224,224,222)" stroke="rgb(224,224,222)" stroke-width="1" opacity="1" d="M 161.5 378 L 162 382.5 L 161 382.5 L 161.5 378 Z " /><path fill="rgb(224,224,222)" stroke="rgb(224,224,222)" stroke-width="1" opacity="1" d="M 394.5 379 L 398 379.5 L 394.5 380 L 394.5 379 Z " /><path fill="rgb(224,224,222)" stroke="rgb(224,224,222)" stroke-width="1" opacity="1" d="M 406.5 382 L 410 383.5 L 408.5 384 L 406.5 382 Z " /><path fill="rgb(224,224,222)" stroke="rgb(224,224,222)" stroke-width="1" opacity="1" d="M 411.5 384 L 415 386.5 L 413.5 386 L 411.5 384 Z " /><path fill="rgb(224,224,222)" stroke="rgb(224,224,222)" stroke-width="1" opacity="1" d="M 416.5 387 L 417.5 389 L 416.5 387 Z " /><path fill="rgb(224,224,222)" stroke="rgb(224,224,222)" stroke-width="1" opacity="1" d="M 419.5 389 Q 428.4 396.1 434 406.5 L 439 418.5 L 439 422.5 Q 428.9 441.9 412.5 455 L 404 460 Q 405.3 448.9 402 441.5 Q 413 432 420 418.5 L 425 407.5 L 427 397.5 L 419.5 389 Z " /><path fill="rgb(224,224,222)" stroke="rgb(224,224,222)" stroke-width="1" opacity="1" d="M 208.5 398 L 209 400.5 L 208 400.5 L 208.5 398 Z " /><path fill="rgb(224,224,222)" stroke="rgb(224,224,222)" stroke-width="1" opacity="1" d="M 203.5 404 L 204 406.5 L 203 406.5 L 203.5 404 Z " /><path fill="rgb(224,224,222)" stroke="rgb(224,224,222)" stroke-width="1" opacity="1" d="M 157.5 408 L 158 410.5 L 157 410.5 L 157.5 408 Z " /><path fill="rgb(224,224,222)" stroke="rgb(224,224,222)" stroke-width="1" opacity="1" d="M 384.5 409 L 388 413.5 L 384 410.5 L 384.5 409 Z " /><path fill="rgb(224,224,222)" stroke="rgb(224,224,222)" stroke-width="1" opacity="1" d="M 389.5 416 L 391.5 419 L 389.5 416 Z " /><path fill="rgb(224,224,222)" stroke="rgb(224,224,222)" stroke-width="1" opacity="1" d="M 392.5 420 L 393.5 422 L 392.5 420 Z " /><path fill="rgb(224,224,222)" stroke="rgb(224,224,222)" stroke-width="1" opacity="1" d="M 395.5 425 L 396.5 427 L 395.5 425 Z " /><path fill="rgb(224,224,222)" stroke="rgb(224,224,222)" stroke-width="1" opacity="1" d="M 371.5 426 L 370.5 428 L 371.5 426 Z " /><path fill="rgb(224,224,222)" stroke="rgb(224,224,222)" stroke-width="1" opacity="1" d="M 373.5 428 L 375.5 431 L 373.5 428 Z " /><path fill="rgb(224,224,222)" stroke="rgb(224,224,222)" stroke-width="1" opacity="1" d="M 397.5 428 L 400 433.5 L 399 433.5 L 397.5 428 Z " /><path fill="rgb(224,224,222)" stroke="rgb(224,224,222)" stroke-width="1" opacity="1" d="M 376.5 432 L 377.5 434 L 376.5 432 Z " /><path fill="rgb(224,224,222)" stroke="rgb(224,224,222)" stroke-width="1" opacity="1" d="M 249.5 436 L 250 441.5 L 249 441.5 L 249.5 436 Z " /><path fill="rgb(224,224,222)" stroke="rgb(224,224,222)" stroke-width="1" opacity="1" d="M 344.5 442 L 345 446.5 L 344 446.5 L 344.5 442 Z " /><path fill="rgb(224,224,222)" stroke="rgb(224,224,222)" stroke-width="1" opacity="1" d="M 319.5 445 L 322 445.5 L 319.5 446 L 319.5 445 Z " /><path fill="rgb(224,224,222)" stroke="rgb(224,224,222)" stroke-width="1" opacity="1" d="M 383.5 447 L 384 449.5 L 383 449.5 L 383.5 447 Z " /><path fill="rgb(224,224,222)" stroke="rgb(224,224,222)" stroke-width="1" opacity="1" d="M 384.5 452 L 385 468.5 L 384 472 L 364.5 478 L 339 481 L 341 473 L 361.5 468 L 384 457 L 384.5 452 Z " /><path fill="rgb(224,224,222)" stroke="rgb(224,224,222)" stroke-width="1" opacity="1" d="M 324.5 457 L 325 460.5 L 324 460.5 L 324.5 457 Z " /><path fill="rgb(224,224,222)" stroke="rgb(224,224,222)" stroke-width="1" opacity="1" d="M 344.5 457 L 345 462.5 L 344 462.5 L 344.5 457 Z " /><path fill="rgb(224,224,222)" stroke="rgb(224,224,222)" stroke-width="1" opacity="1" d="M 200.5 463 L 200 464.5 L 199 480.5 L 198 483 L 167.5 483 L 167 482.5 L 167 473.5 L 165 464 L 199.5 464 L 200.5 463 Z " /><path fill="rgb(224,224,222)" stroke="rgb(224,224,222)" stroke-width="1" opacity="1" d="M 323.5 463 L 324 465.5 L 323 465.5 L 323.5 463 Z " /><path fill="rgb(224,224,222)" stroke="rgb(224,224,222)" stroke-width="1" opacity="1" d="M 343.5 465 L 344 467.5 L 343 467.5 L 343.5 465 Z " /><path fill="rgb(224,224,222)" stroke="rgb(224,224,222)" stroke-width="1" opacity="1" d="M 342.5 469 L 343 471.5 L 342 471.5 L 342.5 469 Z " /><path fill="rgb(224,224,222)" stroke="rgb(224,224,222)" stroke-width="1" opacity="1" d="M 320.5 472 L 321 473.5 L 316.5 480 L 300.5 479 L 283 474.5 Q 284.8 471.3 286.5 475 L 319 476 L 320.5 472 Z " /><path fill="rgb(224,224,222)" stroke="rgb(224,224,222)" stroke-width="1" opacity="1" d="M 133.5 497 L 136 497.5 L 133.5 498 L 133.5 497 Z " /><path fill="rgb(224,224,222)" stroke="rgb(224,224,222)" stroke-width="1" opacity="1" d="M 230.5 497 L 233 497.5 L 230.5 498 L 230.5 497 Z " /><path fill="rgb(234,234,233)" stroke="rgb(234,234,233)" stroke-width="1" opacity="1" d="M 191.5 144 L 192.5 146 L 191.5 144 Z " /><path fill="rgb(234,234,233)" stroke="rgb(234,234,233)" stroke-width="1" opacity="1" d="M 93.5 175 L 98.5 181 L 93.5 175 Z " /><path fill="rgb(234,234,233)" stroke="rgb(234,234,233)" stroke-width="1" opacity="1" d="M 178.5 175 L 177.5 177 L 178.5 175 Z " /><path fill="rgb(234,234,233)" stroke="rgb(234,234,233)" stroke-width="1" opacity="1" d="M 60.5 294 L 61 298.5 L 60 298.5 L 60.5 294 Z " /><path fill="rgb(234,234,233)" stroke="rgb(234,234,233)" stroke-width="1" opacity="1" d="M 305.5 297 L 306 300.5 L 305 300.5 L 305.5 297 Z " /><path fill="rgb(234,234,233)" stroke="rgb(234,234,233)" stroke-width="1" opacity="1" d="M 59.5 302 L 60 306.5 L 59 306.5 L 59.5 302 Z " /><path fill="rgb(234,234,233)" stroke="rgb(234,234,233)" stroke-width="1" opacity="1" d="M 306.5 305 L 307 308.5 L 306 308.5 L 306.5 305 Z " /><path fill="rgb(234,234,233)" stroke="rgb(234,234,233)" stroke-width="1" opacity="1" d="M 58.5 311 L 59 317.5 L 58 317.5 L 58.5 311 Z " /><path fill="rgb(234,234,233)" stroke="rgb(234,234,233)" stroke-width="1" opacity="1" d="M 307.5 315 L 308 321.5 L 307 321.5 L 307.5 315 Z " /><path fill="rgb(234,234,233)" stroke="rgb(234,234,233)" stroke-width="1" opacity="1" d="M 406.5 323 L 411.5 329 L 406.5 323 Z " /><path fill="rgb(234,234,233)" stroke="rgb(234,234,233)" stroke-width="1" opacity="1" d="M 57.5 325 L 58 338.5 L 57 338.5 L 57.5 325 Z " /><path fill="rgb(234,234,233)" stroke="rgb(234,234,233)" stroke-width="1" opacity="1" d="M 413.5 331 L 417 335.5 L 415 334.5 L 413.5 331 Z " /><path fill="rgb(234,234,233)" stroke="rgb(234,234,233)" stroke-width="1" opacity="1" d="M 308.5 332 L 309 352.5 L 308 352.5 L 308.5 332 Z " /><path fill="rgb(234,234,233)" stroke="rgb(234,234,233)" stroke-width="1" opacity="1" d="M 57.5 349 L 58 360.5 L 57 360.5 L 57.5 349 Z " /><path fill="rgb(234,234,233)" stroke="rgb(234,234,233)" stroke-width="1" opacity="1" d="M 427.5 360 L 428 362.5 L 427 362.5 L 427.5 360 Z " /><path fill="rgb(234,234,233)" stroke="rgb(234,234,233)" stroke-width="1" opacity="1" d="M 307.5 364 L 308 368.5 L 307 368.5 L 307.5 364 Z " /><path fill="rgb(234,234,233)" stroke="rgb(234,234,233)" stroke-width="1" opacity="1" d="M 428.5 365 L 429 369.5 L 427 370.5 L 428.5 365 Z " /><path fill="rgb(234,234,233)" stroke="rgb(234,234,233)" stroke-width="1" opacity="1" d="M 58.5 368 L 59 372.5 L 58 372.5 L 58.5 368 Z " /><path fill="rgb(234,234,233)" stroke="rgb(234,234,233)" stroke-width="1" opacity="1" d="M 306.5 374 L 307 377.5 L 306 377.5 L 306.5 374 Z " /><path fill="rgb(234,234,233)" stroke="rgb(234,234,233)" stroke-width="1" opacity="1" d="M 59.5 377 L 60 379.5 L 59 379.5 L 59.5 377 Z " /><path fill="rgb(234,234,233)" stroke="rgb(234,234,233)" stroke-width="1" opacity="1" d="M 305.5 382 L 306 384.5 L 305 384.5 L 305.5 382 Z " /><path fill="rgb(234,234,233)" stroke="rgb(234,234,233)" stroke-width="1" opacity="1" d="M 61.5 389 L 62 391.5 L 61 391.5 L 61.5 389 Z " /><path fill="rgb(234,234,233)" stroke="rgb(234,234,233)" stroke-width="1" opacity="1" d="M 418.5 389 L 420.5 392 L 418.5 389 Z " /><path fill="rgb(234,234,233)" stroke="rgb(234,234,233)" stroke-width="1" opacity="1" d="M 425.5 396 L 426.5 398 L 425.5 396 Z " /><path fill="rgb(234,234,233)" stroke="rgb(234,234,233)" stroke-width="1" opacity="1" d="M 300.5 404 L 301 406.5 L 300 406.5 L 300.5 404 Z " /><path fill="rgb(234,234,233)" stroke="rgb(234,234,233)" stroke-width="1" opacity="1" d="M 65.5 405 L 66 407.5 L 65 407.5 L 65.5 405 Z " /><path fill="rgb(234,234,233)" stroke="rgb(234,234,233)" stroke-width="1" opacity="1" d="M 388.5 414 L 389.5 416 L 388.5 414 Z " /><path fill="rgb(234,234,233)" stroke="rgb(234,234,233)" stroke-width="1" opacity="1" d="M 420.5 416 L 420 417.5 L 418.5 420 L 419 418.5 L 420.5 416 Z " /><path fill="rgb(234,234,233)" stroke="rgb(234,234,233)" stroke-width="1" opacity="1" d="M 416.5 423 L 415.5 425 L 416.5 423 Z " /><path fill="rgb(234,234,233)" stroke="rgb(234,234,233)" stroke-width="1" opacity="1" d="M 414.5 426 L 413.5 428 L 414.5 426 Z " /><path fill="rgb(234,234,233)" stroke="rgb(234,234,233)" stroke-width="1" opacity="1" d="M 73.5 427 L 77 432.5 L 75 431.5 L 73.5 427 Z " /><path fill="rgb(234,234,233)" stroke="rgb(234,234,233)" stroke-width="1" opacity="1" d="M 369.5 428 L 368.5 430 L 369.5 428 Z " /><path fill="rgb(234,234,233)" stroke="rgb(234,234,233)" stroke-width="1" opacity="1" d="M 412.5 429 L 411.5 431 L 412.5 429 Z " /><path fill="rgb(234,234,233)" stroke="rgb(234,234,233)" stroke-width="1" opacity="1" d="M 409.5 433 L 405.5 438 L 409.5 433 Z " /><path fill="rgb(234,234,233)" stroke="rgb(234,234,233)" stroke-width="1" opacity="1" d="M 77.5 434 L 80 437.5 L 78 436.5 L 77.5 434 Z " /><path fill="rgb(234,234,233)" stroke="rgb(234,234,233)" stroke-width="1" opacity="1" d="M 286.5 437 L 285.5 439 L 286.5 437 Z " /><path fill="rgb(234,234,233)" stroke="rgb(234,234,233)" stroke-width="1" opacity="1" d="M 80.5 439 L 81.5 441 L 80.5 439 Z " /><path fill="rgb(234,234,233)" stroke="rgb(234,234,233)" stroke-width="1" opacity="1" d="M 403.5 439 L 402.5 441 L 403.5 439 Z " /><path fill="rgb(234,234,233)" stroke="rgb(234,234,233)" stroke-width="1" opacity="1" d="M 284.5 440 L 282.5 443 L 284.5 440 Z " /><path fill="rgb(234,234,233)" stroke="rgb(234,234,233)" stroke-width="1" opacity="1" d="M 82.5 442 L 84.5 445 L 82.5 442 Z " /><path fill="rgb(234,234,233)" stroke="rgb(234,234,233)" stroke-width="1" opacity="1" d="M 281.5 444 L 280.5 446 L 281.5 444 Z " /><path fill="rgb(234,234,233)" stroke="rgb(234,234,233)" stroke-width="1" opacity="1" d="M 86.5 447 L 94.5 456 L 86.5 447 Z " /><path fill="rgb(234,234,233)" stroke="rgb(234,234,233)" stroke-width="1" opacity="1" d="M 324.5 447 L 325 451.5 L 324 451.5 L 324.5 447 Z " /><path fill="rgb(234,234,233)" stroke="rgb(234,234,233)" stroke-width="1" opacity="1" d="M 345.5 449 L 346 454.5 L 345 454.5 L 345.5 449 Z " /><path fill="rgb(234,234,233)" stroke="rgb(234,234,233)" stroke-width="1" opacity="1" d="M 276.5 450 L 273.5 454 L 276.5 450 Z " /><path fill="rgb(234,234,233)" stroke="rgb(234,234,233)" stroke-width="1" opacity="1" d="M 324.5 454 L 325 456.5 L 324 456.5 L 324.5 454 Z " /><path fill="rgb(234,234,233)" stroke="rgb(234,234,233)" stroke-width="1" opacity="1" d="M 270.5 455 L 268.5 458 L 270.5 455 Z " /><path fill="rgb(234,234,233)" stroke="rgb(234,234,233)" stroke-width="1" opacity="1" d="M 96.5 456 L 97.5 458 L 96.5 456 Z " /><path fill="rgb(234,234,233)" stroke="rgb(234,234,233)" stroke-width="1" opacity="1" d="M 382.5 456 L 384 456.5 L 381.5 458 L 382.5 456 Z " /><path fill="rgb(234,234,233)" stroke="rgb(234,234,233)" stroke-width="1" opacity="1" d="M 99.5 458 L 102 459.5 L 100.5 460 L 99.5 458 Z " /><path fill="rgb(234,234,233)" stroke="rgb(234,234,233)" stroke-width="1" opacity="1" d="M 379.5 458 L 378.5 460 L 376.5 461 L 377.5 459 L 379.5 458 Z " /><path fill="rgb(234,234,233)" stroke="rgb(234,234,233)" stroke-width="1" opacity="1" d="M 200.5 462 L 199.5 464 L 165 463.5 L 199.5 463 L 200.5 462 Z " /><path fill="rgb(234,234,233)" stroke="rgb(234,234,233)" stroke-width="1" opacity="1" d="M 367.5 464 L 369 464.5 L 365.5 466 L 365.5 465 L 367.5 464 Z " /><path fill="rgb(234,234,233)" stroke="rgb(234,234,233)" stroke-width="1" opacity="1" d="M 287.5 470 L 285.5 473 L 287.5 470 Z " /><path fill="rgb(234,234,233)" stroke="rgb(234,234,233)" stroke-width="1" opacity="1" d="M 342.5 472 L 345 472.5 L 342.5 473 L 342.5 472 Z " /><path fill="rgb(234,234,233)" stroke="rgb(234,234,233)" stroke-width="1" opacity="1" d="M 286.5 474 L 289 474.5 L 286.5 475 L 286.5 474 Z " /><path fill="rgb(234,234,233)" stroke="rgb(234,234,233)" stroke-width="1" opacity="1" d="M 294.5 475 L 301 475.5 L 294.5 476 L 294.5 475 Z " /><path fill="rgb(234,234,234)" stroke="rgb(234,234,234)" stroke-width="1" opacity="1" d="M 80.5 15 L 83.5 15 L 112.5 39 L 119.5 40 L 132.5 35 L 157.5 30 L 166.5 30 L 167.5 29 L 198.5 29 L 199.5 30 L 208.5 30 L 225.5 33 L 246.5 40 L 251.5 40 L 279.5 17 Q 280.9 14.4 285.5 15 L 287 16.5 L 287 74.5 L 291 91.5 L 294 123.5 L 293 124.5 L 292 138.5 L 284 159.5 Q 276 174 263.5 184 L 259 187.5 Q 257.3 192.8 262.5 191 L 265 190 L 286 232.5 Q 297.1 257.9 304 287.5 L 306 308.5 L 307 309.5 L 307 321.5 L 308 322.5 L 308 363.5 L 307 364.5 L 307 373.5 L 306 374.5 L 304 392.5 L 295 421.5 Q 286.3 441.3 271.5 455 Q 263.9 462.2 251 463 L 251 456.5 L 250 455.5 L 250 422.5 L 254 400.5 L 268 342.5 Q 266.8 340 263 341 L 246 414.5 Q 247.8 420.8 245 422.5 L 245 455.5 Q 247.8 457.3 246 463.5 L 252 477.5 L 252 490.5 L 251 493 L 244.5 496 L 227.5 498 L 226.5 497 L 213.5 496 Q 207.8 494.8 205 490.5 L 203 484.5 L 203 479.5 L 205 470.5 L 206 445.5 L 207 444.5 L 208 402.5 L 209 401.5 L 209 364.5 L 208 363.5 L 206 342.5 L 204.5 341 L 201 341 L 201 348.5 L 204 364.5 L 204 401.5 L 203 402.5 L 203 424.5 L 202 425.5 L 201 461.5 L 199.5 463 L 165 463 L 165 450.5 L 164 449.5 L 163 412.5 L 162 411.5 L 162 362.5 L 163 361.5 L 165 342.5 Q 163.8 340 160 341 L 158 353.5 L 158 360.5 L 157 361.5 L 157 411.5 L 158 412.5 L 159 450.5 L 160 451.5 L 160 466.5 L 162 473.5 L 162 487.5 L 157.5 494 L 148.5 497 L 136.5 498 L 135.5 497 L 121.5 496 L 114 491.5 L 113 481.5 L 115 472.5 L 120 461.5 L 120 453.5 L 121 452.5 L 121 425.5 L 120 424.5 L 120 416.5 L 117 400.5 L 106 358.5 L 104 345.5 L 101.5 341 Q 95.4 339.2 98 346.5 L 114 411.5 L 115 425.5 L 116 426.5 L 116 451.5 L 114 463 Q 94.4 460 85 445.5 L 72 424.5 L 63 398.5 L 59 376.5 L 57 344.5 L 58 342.5 L 57 339.5 L 58 338.5 L 58 318.5 L 59 317.5 L 59 307.5 L 60 306.5 L 61 291.5 L 67 267.5 Q 80.1 224.6 101.5 190 L 105.5 191 L 107 187.5 L 89 170.5 Q 79.8 159.2 75 143.5 L 72 128.5 L 72 112.5 L 73 111.5 L 73 103.5 L 74 102.5 L 76 83.5 L 79 72.5 L 79 16.5 L 80.5 15 Z M 133 128 L 131 129 L 128 133 L 129 140 L 133 142 Q 138 143 140 141 L 142 138 L 142 133 L 138 128 L 133 128 Z M 231 128 L 226 134 Q 226 140 231 142 L 238 141 Q 242 139 240 132 Q 238 127 231 128 Z M 177 143 L 175 144 L 172 148 Q 171 161 180 165 L 180 174 L 176 178 L 166 178 L 164 180 L 166 183 Q 178 185 183 179 L 190 183 L 201 183 L 201 178 L 191 178 L 189 177 L 185 172 L 185 165 L 187 164 Q 192 160 194 153 L 193 146 L 190 143 L 177 143 Z M 121 163 L 119 167 L 147 176 Q 153 178 151 173 Q 138 166 121 163 Z M 242 163 L 217 171 L 214 174 L 216 176 L 220 176 L 245 168 Q 249 166 246 165 Q 247 161 242 163 Z M 147 184 L 119 189 L 121 193 L 127 193 L 151 189 L 151 184 L 147 184 Z M 216 184 L 214 188 L 220 190 L 226 190 L 239 193 L 246 193 L 247 191 L 245 188 L 216 184 Z " /><path fill="rgb(234,234,234)" stroke="rgb(234,234,234)" stroke-width="1" opacity="1" d="M 401.5 323 L 405.5 323 L 413 330.5 L 424 349.5 L 429 370.5 L 427.5 370 L 414.5 363 L 401.5 359 L 395.5 359 L 394 357.5 L 394 352.5 L 392 345.5 L 392 332.5 L 397.5 325 L 401.5 323 Z " /><path fill="rgb(234,234,234)" stroke="rgb(234,234,234)" stroke-width="1" opacity="1" d="M 394 380 Q 414.3 382.5 425 395.5 L 427 399.5 L 421 415.5 L 405 439 L 402.5 440 L 398 427.5 L 385 410.5 L 385 408.5 Q 393.2 397.3 394 380 Z " /><path fill="rgb(234,234,234)" stroke="rgb(234,234,234)" stroke-width="1" opacity="1" d="M 371.5 427 Q 382.6 437.3 384 456 L 362.5 467 L 343 472 L 345 463.5 L 346 449.5 L 345 448.5 L 345 442 Q 361.3 438.1 371.5 427 Z " /><path fill="rgb(234,234,234)" stroke="rgb(234,234,234)" stroke-width="1" opacity="1" d="M 304 443 L 310.5 445 L 324 446 L 325 453.5 L 324 454.5 L 323 465.5 L 319 476 L 301.5 476 L 300.5 475 Q 290.6 476.4 285 473.5 Q 297.8 461.1 304 443 Z " /><path fill="rgb(199,213,228)" stroke="rgb(199,213,228)" stroke-width="1" opacity="1" d="M 285.5 14 L 286.5 16 L 285.5 14 Z " /><path fill="rgb(199,213,228)" stroke="rgb(199,213,228)" stroke-width="1" opacity="1" d="M 78.5 16 L 79 71.5 L 78 71.5 L 78.5 16 Z " /><path fill="rgb(199,213,228)" stroke="rgb(199,213,228)" stroke-width="1" opacity="1" d="M 278.5 17 L 277.5 19 L 278.5 17 Z " /><path fill="rgb(199,213,228)" stroke="rgb(199,213,228)" stroke-width="1" opacity="1" d="M 88.5 18 L 89.5 20 L 88.5 18 Z " /><path fill="rgb(199,213,228)" stroke="rgb(199,213,228)" stroke-width="1" opacity="1" d="M 93.5 22 L 94.5 24 L 93.5 22 Z " /><path fill="rgb(199,213,228)" stroke="rgb(199,213,228)" stroke-width="1" opacity="1" d="M 268.5 25 L 267.5 27 L 268.5 25 Z " /><path fill="rgb(199,213,228)" stroke="rgb(199,213,228)" stroke-width="1" opacity="1" d="M 99.5 27 L 100.5 29 L 99.5 27 Z " /><path fill="rgb(199,213,228)" stroke="rgb(199,213,228)" stroke-width="1" opacity="1" d="M 162.5 29 L 165 29.5 L 162.5 30 L 162.5 29 Z " /><path fill="rgb(199,213,228)" stroke="rgb(199,213,228)" stroke-width="1" opacity="1" d="M 201.5 29 L 204 29.5 L 201.5 30 L 201.5 29 Z " /><path fill="rgb(199,213,228)" stroke="rgb(199,213,228)" stroke-width="1" opacity="1" d="M 263.5 29 L 262.5 31 L 263.5 29 Z " /><path fill="rgb(199,213,228)" stroke="rgb(199,213,228)" stroke-width="1" opacity="1" d="M 104.5 31 L 105.5 33 L 104.5 31 Z " /><path fill="rgb(199,213,228)" stroke="rgb(199,213,228)" stroke-width="1" opacity="1" d="M 109.5 35 L 110.5 37 L 109.5 35 Z " /><path fill="rgb(199,213,228)" stroke="rgb(199,213,228)" stroke-width="1" opacity="1" d="M 253.5 37 L 252.5 39 L 253.5 37 Z " /><path fill="rgb(199,213,228)" stroke="rgb(199,213,228)" stroke-width="1" opacity="1" d="M 335.5 58 L 448.5 58 L 456 62 L 460 69.5 L 460 128.5 Q 458.2 135.7 452.5 139 L 447.5 141 L 361.5 141 L 336.5 166 L 337 164.5 L 345 142.5 L 343.5 141 L 333.5 140 L 326 133.5 L 324 128.5 L 324 70.5 L 328 62 L 335.5 58 Z M 345 86 L 343 87 L 339 93 L 341 100 Q 344 103 350 103 L 352 106 Q 353 110 350 111 L 344 110 L 343 105 L 339 107 Q 340 113 345 115 L 351 115 L 354 113 L 356 109 L 355 103 Q 353 98 346 98 L 343 95 L 344 92 Q 345 89 350 90 L 354 96 L 356 95 L 355 90 Q 353 84 345 86 Z M 366 86 Q 361 89 359 96 Q 358 106 362 112 L 367 115 L 372 115 L 375 113 L 379 105 Q 380 94 376 90 Q 374 85 366 86 Z M 384 86 L 384 114 L 386 115 L 388 115 L 388 104 L 391 104 L 399 115 L 402 114 L 396 103 L 402 99 L 401 90 L 397 86 L 384 86 Z M 407 86 L 407 115 L 411 114 L 411 105 L 414 104 L 418 112 Q 419 116 424 115 L 424 112 L 418 104 L 421 103 L 425 98 Q 426 91 423 88 L 420 86 L 407 86 Z M 427 86 L 427 90 L 434 103 L 434 115 L 437 115 L 438 114 L 438 102 L 445 88 L 441 86 L 436 97 L 431 88 L 427 86 Z " /><path fill="rgb(199,213,228)" stroke="rgb(199,213,228)" stroke-width="1" opacity="1" d="M 367.5 90 Q 372.3 89.3 373 92.5 Q 375.7 95.8 375 102.5 L 371.5 110 L 367.5 111 Q 362.2 107.3 363 97.5 L 367.5 90 Z " /><path fill="rgb(199,213,228)" stroke="rgb(199,213,228)" stroke-width="1" opacity="1" d="M 388 90 L 395.5 90 L 398 92.5 L 397 99 L 392.5 100 L 390.5 100 L 388 98.5 L 388 90 Z " /><path fill="rgb(199,213,228)" stroke="rgb(199,213,228)" stroke-width="1" opacity="1" d="M 411 90 L 418.5 90 L 420 91.5 L 421 95.5 L 418.5 99 L 415.5 100 L 413.5 100 L 411 99.5 L 411 90 Z " /><path fill="rgb(199,213,228)" stroke="rgb(199,213,228)" stroke-width="1" opacity="1" d="M 291.5 94 L 292 96.5 L 291 96.5 L 291.5 94 Z " /><path fill="rgb(199,213,228)" stroke="rgb(199,213,228)" stroke-width="1" opacity="1" d="M 73.5 99 L 74 101.5 L 73 101.5 L 73.5 99 Z " /><path fill="rgb(199,213,228)" stroke="rgb(199,213,228)" stroke-width="1" opacity="1" d="M 72.5 108 L 73 110.5 L 72 110.5 L 72.5 108 Z " /><path fill="rgb(199,213,228)" stroke="rgb(199,213,228)" stroke-width="1" opacity="1" d="M 293.5 111 L 294 113.5 L 293 113.5 L 293.5 111 Z " /><path fill="rgb(199,213,228)" stroke="rgb(199,213,228)" stroke-width="1" opacity="1" d="M 293.5 127 L 294 129.5 L 293 129.5 L 293.5 127 Z " /><path fill="rgb(199,213,228)" stroke="rgb(199,213,228)" stroke-width="1" opacity="1" d="M 229.5 129 L 227.5 132 L 229.5 129 Z " /><path fill="rgb(199,213,228)" stroke="rgb(199,213,228)" stroke-width="1" opacity="1" d="M 141.5 133 L 142 136.5 L 141 136.5 L 141.5 133 Z " /><path fill="rgb(199,213,228)" stroke="rgb(199,213,228)" stroke-width="1" opacity="1" d="M 227.5 138 L 229.5 141 L 227.5 138 Z " /><path fill="rgb(199,213,228)" stroke="rgb(199,213,228)" stroke-width="1" opacity="1" d="M 175.5 159 L 178.5 163 L 175.5 159 Z " /><path fill="rgb(199,213,228)" stroke="rgb(199,213,228)" stroke-width="1" opacity="1" d="M 180.5 164 L 181 171.5 L 180 171.5 L 180.5 164 Z " /><path fill="rgb(199,213,228)" stroke="rgb(199,213,228)" stroke-width="1" opacity="1" d="M 278.5 168 L 277.5 170 L 278.5 168 Z " /><path fill="rgb(199,213,228)" stroke="rgb(199,213,228)" stroke-width="1" opacity="1" d="M 89.5 171 L 90.5 173 L 89.5 171 Z " /><path fill="rgb(199,213,228)" stroke="rgb(199,213,228)" stroke-width="1" opacity="1" d="M 275.5 172 L 273.5 175 L 275.5 172 Z " /><path fill="rgb(199,213,228)" stroke="rgb(199,213,228)" stroke-width="1" opacity="1" d="M 186.5 175 L 187.5 177 L 186.5 175 Z " /><path fill="rgb(199,213,228)" stroke="rgb(199,213,228)" stroke-width="1" opacity="1" d="M 183.5 178 L 185.5 181 L 183.5 178 Z " /><path fill="rgb(199,213,228)" stroke="rgb(199,213,228)" stroke-width="1" opacity="1" d="M 266.5 181 L 264.5 184 L 266.5 181 Z " /><path fill="rgb(199,213,228)" stroke="rgb(199,213,228)" stroke-width="1" opacity="1" d="M 101.5 183 L 102.5 185 L 101.5 183 Z " /><path fill="rgb(199,213,228)" stroke="rgb(199,213,228)" stroke-width="1" opacity="1" d="M 147.5 184 L 150 184.5 L 147.5 185 L 147.5 184 Z " /><path fill="rgb(199,213,228)" stroke="rgb(199,213,228)" stroke-width="1" opacity="1" d="M 216.5 184 L 219 184.5 L 216.5 185 L 216.5 184 Z " /><path fill="rgb(199,213,228)" stroke="rgb(199,213,228)" stroke-width="1" opacity="1" d="M 260.5 186 L 259.5 188 L 260.5 186 Z " /><path fill="rgb(199,213,228)" stroke="rgb(199,213,228)" stroke-width="1" opacity="1" d="M 106.5 188 L 107 189.5 L 105 190.5 L 106.5 188 Z " /><path fill="rgb(199,213,228)" stroke="rgb(199,213,228)" stroke-width="1" opacity="1" d="M 101.5 189 L 100.5 191 L 101.5 189 Z " /><path fill="rgb(199,213,228)" stroke="rgb(199,213,228)" stroke-width="1" opacity="1" d="M 259.5 189 L 260.5 191 L 259.5 189 Z " /><path fill="rgb(199,213,228)" stroke="rgb(199,213,228)" stroke-width="1" opacity="1" d="M 310.5 320 L 311 322.5 L 310 322.5 L 310.5 320 Z " /><path fill="rgb(199,213,228)" stroke="rgb(199,213,228)" stroke-width="1" opacity="1" d="M 54.5 325 L 55 327.5 L 54 327.5 L 54.5 325 Z " /><path fill="rgb(199,213,228)" stroke="rgb(199,213,228)" stroke-width="1" opacity="1" d="M 311.5 328 L 312 330.5 L 311 330.5 L 311.5 328 Z " /><path fill="rgb(199,213,228)" stroke="rgb(199,213,228)" stroke-width="1" opacity="1" d="M 424.5 331 L 429.5 337 L 424.5 331 Z " /><path fill="rgb(199,213,228)" stroke="rgb(199,213,228)" stroke-width="1" opacity="1" d="M 53.5 333 L 54 336.5 L 53 336.5 L 53.5 333 Z " /><path fill="rgb(199,213,228)" stroke="rgb(199,213,228)" stroke-width="1" opacity="1" d="M 312.5 337 L 313 340.5 L 312 340.5 L 312.5 337 Z " /><path fill="rgb(199,213,228)" stroke="rgb(199,213,228)" stroke-width="1" opacity="1" d="M 391.5 340 L 392 342.5 L 391 342.5 L 391.5 340 Z " /><path fill="rgb(199,213,228)" stroke="rgb(199,213,228)" stroke-width="1" opacity="1" d="M 432.5 340 L 433.5 342 L 432.5 340 Z " /><path fill="rgb(199,213,228)" stroke="rgb(199,213,228)" stroke-width="1" opacity="1" d="M 101.5 341 L 102.5 343 L 101.5 341 Z " /><path fill="rgb(199,213,228)" stroke="rgb(199,213,228)" stroke-width="1" opacity="1" d="M 163.5 341 L 165 344.5 L 164 344.5 L 163.5 341 Z " /><path fill="rgb(199,213,228)" stroke="rgb(199,213,228)" stroke-width="1" opacity="1" d="M 266.5 341 L 268 343.5 L 267 343.5 L 266.5 341 Z " /><path fill="rgb(199,213,228)" stroke="rgb(199,213,228)" stroke-width="1" opacity="1" d="M 52.5 345 L 53 349.5 L 52 349.5 L 52.5 345 Z " /><path fill="rgb(199,213,228)" stroke="rgb(199,213,228)" stroke-width="1" opacity="1" d="M 201.5 345 L 202 347.5 L 201 347.5 L 201.5 345 Z " /><path fill="rgb(199,213,228)" stroke="rgb(199,213,228)" stroke-width="1" opacity="1" d="M 163.5 350 L 164 352.5 L 163 352.5 L 163.5 350 Z " /><path fill="rgb(199,213,228)" stroke="rgb(199,213,228)" stroke-width="1" opacity="1" d="M 313.5 350 L 314 358.5 L 313 358.5 L 313.5 350 Z " /><path fill="rgb(199,213,228)" stroke="rgb(199,213,228)" stroke-width="1" opacity="1" d="M 207.5 357 L 208 359.5 L 207 359.5 L 207.5 357 Z " /><path fill="rgb(199,213,228)" stroke="rgb(199,213,228)" stroke-width="1" opacity="1" d="M 394 359 Q 427.3 363.9 444 386.5 L 446.5 390 L 447.5 380 L 448 391.5 L 445 408.5 L 439.5 422 Q 434.6 400.4 419.5 389 Q 409.7 380.5 394 379 Q 396.3 373.4 395 362.5 L 394 359 Z " /><path fill="rgb(199,213,228)" stroke="rgb(199,213,228)" stroke-width="1" opacity="1" d="M 203.5 360 L 204 362.5 L 203 362.5 L 203.5 360 Z " /><path fill="rgb(199,213,228)" stroke="rgb(199,213,228)" stroke-width="1" opacity="1" d="M 157.5 362 L 158 364.5 L 157 364.5 L 157.5 362 Z " /><path fill="rgb(199,213,228)" stroke="rgb(199,213,228)" stroke-width="1" opacity="1" d="M 208.5 365 L 209 374.5 L 208 374.5 L 208.5 365 Z " /><path fill="rgb(199,213,228)" stroke="rgb(199,213,228)" stroke-width="1" opacity="1" d="M 161.5 366 L 162 377.5 L 161 377.5 L 161.5 366 Z " /><path fill="rgb(199,213,228)" stroke="rgb(199,213,228)" stroke-width="1" opacity="1" d="M 313.5 371 L 314 379.5 L 313 379.5 L 313.5 371 Z " /><path fill="rgb(199,213,228)" stroke="rgb(199,213,228)" stroke-width="1" opacity="1" d="M 52.5 380 L 53 384.5 L 52 384.5 L 52.5 380 Z " /><path fill="rgb(199,213,228)" stroke="rgb(199,213,228)" stroke-width="1" opacity="1" d="M 161.5 383 L 162 396.5 L 161 396.5 L 161.5 383 Z " /><path fill="rgb(199,213,228)" stroke="rgb(199,213,228)" stroke-width="1" opacity="1" d="M 208.5 384 L 209 397.5 L 208 397.5 L 208.5 384 Z " /><path fill="rgb(199,213,228)" stroke="rgb(199,213,228)" stroke-width="1" opacity="1" d="M 312.5 388 L 313 391.5 L 312 391.5 L 312.5 388 Z " /><path fill="rgb(199,213,228)" stroke="rgb(199,213,228)" stroke-width="1" opacity="1" d="M 54.5 399 L 55 401.5 L 54 401.5 L 54.5 399 Z " /><path fill="rgb(199,213,228)" stroke="rgb(199,213,228)" stroke-width="1" opacity="1" d="M 157.5 399 L 158 407.5 L 157 407.5 L 157.5 399 Z " /><path fill="rgb(199,213,228)" stroke="rgb(199,213,228)" stroke-width="1" opacity="1" d="M 203.5 407 L 204 413.5 L 203 413.5 L 203.5 407 Z " /><path fill="rgb(199,213,228)" stroke="rgb(199,213,228)" stroke-width="1" opacity="1" d="M 383.5 411 L 389 415.5 L 400 434.5 L 404 448.5 L 404 459.5 L 405 460.5 L 384.5 472 L 384 469.5 L 385 468.5 L 385 452.5 Q 381.9 435.6 372 425.5 L 383.5 411 Z " /><path fill="rgb(199,213,228)" stroke="rgb(199,213,228)" stroke-width="1" opacity="1" d="M 114.5 413 L 115 415.5 L 114 415.5 L 114.5 413 Z " /><path fill="rgb(199,213,228)" stroke="rgb(199,213,228)" stroke-width="1" opacity="1" d="M 162.5 415 L 163 420.5 L 162 420.5 L 162.5 415 Z " /><path fill="rgb(199,213,228)" stroke="rgb(199,213,228)" stroke-width="1" opacity="1" d="M 207.5 416 L 208 421.5 L 207 421.5 L 207.5 416 Z " /><path fill="rgb(199,213,228)" stroke="rgb(199,213,228)" stroke-width="1" opacity="1" d="M 119.5 417 L 120 419.5 L 119 419.5 L 119.5 417 Z " /><path fill="rgb(199,213,228)" stroke="rgb(199,213,228)" stroke-width="1" opacity="1" d="M 115.5 421 L 116 423.5 L 115 423.5 L 115.5 421 Z " /><path fill="rgb(199,213,228)" stroke="rgb(199,213,228)" stroke-width="1" opacity="1" d="M 158.5 423 L 159 428.5 L 158 428.5 L 158.5 423 Z " /><path fill="rgb(199,213,228)" stroke="rgb(199,213,228)" stroke-width="1" opacity="1" d="M 245.5 423 L 246 426.5 L 245 426.5 L 245.5 423 Z " /><path fill="rgb(199,213,228)" stroke="rgb(199,213,228)" stroke-width="1" opacity="1" d="M 120.5 427 L 121 433.5 L 120 433.5 L 120.5 427 Z " /><path fill="rgb(199,213,228)" stroke="rgb(199,213,228)" stroke-width="1" opacity="1" d="M 202.5 428 L 203 434.5 L 202 434.5 L 202.5 428 Z " /><path fill="rgb(199,213,228)" stroke="rgb(199,213,228)" stroke-width="1" opacity="1" d="M 249.5 428 L 250 435.5 L 249 435.5 L 249.5 428 Z " /><path fill="rgb(199,213,228)" stroke="rgb(199,213,228)" stroke-width="1" opacity="1" d="M 366.5 430 L 365.5 432 L 366.5 430 Z " /><path fill="rgb(199,213,228)" stroke="rgb(199,213,228)" stroke-width="1" opacity="1" d="M 163.5 435 L 164 441.5 L 163 441.5 L 163.5 435 Z " /><path fill="rgb(199,213,228)" stroke="rgb(199,213,228)" stroke-width="1" opacity="1" d="M 206.5 436 L 207 441.5 L 206 441.5 L 206.5 436 Z " /><path fill="rgb(199,213,228)" stroke="rgb(199,213,228)" stroke-width="1" opacity="1" d="M 116.5 437 L 117 440.5 L 116 440.5 L 116.5 437 Z " /><path fill="rgb(199,213,228)" stroke="rgb(199,213,228)" stroke-width="1" opacity="1" d="M 429.5 437 L 428.5 439 L 429.5 437 Z " /><path fill="rgb(199,213,228)" stroke="rgb(199,213,228)" stroke-width="1" opacity="1" d="M 426.5 441 L 414.5 454 L 426.5 441 Z " /><path fill="rgb(199,213,228)" stroke="rgb(199,213,228)" stroke-width="1" opacity="1" d="M 249.5 442 L 250 449.5 L 249 449.5 L 249.5 442 Z " /><path fill="rgb(199,213,228)" stroke="rgb(199,213,228)" stroke-width="1" opacity="1" d="M 343.5 442 Q 346 447.5 345 456.5 L 342 472.5 L 339 481 L 312 480.5 Q 316.6 481.1 318 478.5 L 324 465.5 L 325 446 L 322 445.5 Q 335.1 446.1 343.5 442 Z " /><path fill="rgb(199,213,228)" stroke="rgb(199,213,228)" stroke-width="1" opacity="1" d="M 159.5 443 L 160 447.5 L 159 447.5 L 159.5 443 Z " /><path fill="rgb(199,213,228)" stroke="rgb(199,213,228)" stroke-width="1" opacity="1" d="M 120.5 444 L 121 449.5 L 120 449.5 L 120.5 444 Z " /><path fill="rgb(199,213,228)" stroke="rgb(199,213,228)" stroke-width="1" opacity="1" d="M 201.5 447 L 202 452.5 L 201 452.5 L 201.5 447 Z " /><path fill="rgb(199,213,228)" stroke="rgb(199,213,228)" stroke-width="1" opacity="1" d="M 245.5 451 L 246 453.5 L 245 453.5 L 245.5 451 Z " /><path fill="rgb(199,213,228)" stroke="rgb(199,213,228)" stroke-width="1" opacity="1" d="M 164.5 453 L 165 457.5 L 164 457.5 L 164.5 453 Z " /><path fill="rgb(199,213,228)" stroke="rgb(199,213,228)" stroke-width="1" opacity="1" d="M 115.5 454 L 116 456.5 L 115 456.5 L 115.5 454 Z " /><path fill="rgb(199,213,228)" stroke="rgb(199,213,228)" stroke-width="1" opacity="1" d="M 205.5 454 L 206 458.5 L 205 458.5 L 205.5 454 Z " /><path fill="rgb(199,213,228)" stroke="rgb(199,213,228)" stroke-width="1" opacity="1" d="M 411.5 455 L 410.5 457 L 411.5 455 Z " /><path fill="rgb(199,213,228)" stroke="rgb(199,213,228)" stroke-width="1" opacity="1" d="M 74.5 457 L 75.5 459 L 74.5 457 Z " /><path fill="rgb(199,213,228)" stroke="rgb(199,213,228)" stroke-width="1" opacity="1" d="M 250.5 457 L 251 459.5 L 250 459.5 L 250.5 457 Z " /><path fill="rgb(199,213,228)" stroke="rgb(199,213,228)" stroke-width="1" opacity="1" d="M 290.5 458 L 289.5 460 L 290.5 458 Z " /><path fill="rgb(199,213,228)" stroke="rgb(199,213,228)" stroke-width="1" opacity="1" d="M 407.5 458 L 406.5 460 L 407.5 458 Z " /><path fill="rgb(199,213,228)" stroke="rgb(199,213,228)" stroke-width="1" opacity="1" d="M 160.5 459 L 161 463.5 L 160 463.5 L 160.5 459 Z " /><path fill="rgb(199,213,228)" stroke="rgb(199,213,228)" stroke-width="1" opacity="1" d="M 76.5 460 L 77.5 462 L 76.5 460 Z " /><path fill="rgb(199,213,228)" stroke="rgb(199,213,228)" stroke-width="1" opacity="1" d="M 79.5 464 L 81.5 467 L 79.5 464 Z " /><path fill="rgb(199,213,228)" stroke="rgb(199,213,228)" stroke-width="1" opacity="1" d="M 200.5 464 L 201 466.5 L 200 466.5 L 200.5 464 Z " /><path fill="rgb(199,213,228)" stroke="rgb(199,213,228)" stroke-width="1" opacity="1" d="M 284.5 466 L 282.5 469 L 284.5 466 Z " /><path fill="rgb(199,213,228)" stroke="rgb(199,213,228)" stroke-width="1" opacity="1" d="M 289.5 467 L 288.5 469 L 289.5 467 Z " /><path fill="rgb(199,213,228)" stroke="rgb(199,213,228)" stroke-width="1" opacity="1" d="M 277.5 473 L 275.5 476 L 277.5 473 Z " /><path fill="rgb(199,213,228)" stroke="rgb(199,213,228)" stroke-width="1" opacity="1" d="M 203.5 474 L 204 476.5 L 203 476.5 L 203.5 474 Z " /><path fill="rgb(199,213,228)" stroke="rgb(199,213,228)" stroke-width="1" opacity="1" d="M 90.5 475 L 91.5 477 L 90.5 475 Z " /><path fill="rgb(199,213,228)" stroke="rgb(199,213,228)" stroke-width="1" opacity="1" d="M 162.5 477 L 163 485.5 L 162 485.5 L 162.5 477 Z " /><path fill="rgb(199,213,228)" stroke="rgb(199,213,228)" stroke-width="1" opacity="1" d="M 304.5 479 L 307 479.5 L 304.5 480 L 304.5 479 Z " /><path fill="rgb(199,213,228)" stroke="rgb(199,213,228)" stroke-width="1" opacity="1" d="M 252.5 480 L 253 483.5 L 252 483.5 L 252.5 480 Z " /><path fill="rgb(199,213,228)" stroke="rgb(199,213,228)" stroke-width="1" opacity="1" d="M 346.5 480 L 349 480.5 L 346.5 481 L 346.5 480 Z " /><path fill="rgb(199,213,228)" stroke="rgb(199,213,228)" stroke-width="1" opacity="1" d="M 198.5 481 L 199 484 L 167 483.5 L 198 483 L 198.5 481 Z " /><path fill="rgb(199,213,228)" stroke="rgb(199,213,228)" stroke-width="1" opacity="1" d="M 252.5 485 L 253 488.5 L 252 488.5 L 252.5 485 Z " /><path fill="rgb(199,213,228)" stroke="rgb(199,213,228)" stroke-width="1" opacity="1" d="M 160.5 491 L 158.5 494 L 160.5 491 Z " /><path fill="rgb(199,213,228)" stroke="rgb(199,213,228)" stroke-width="1" opacity="1" d="M 114.5 492 L 115.5 494 L 114.5 492 Z " /><path fill="rgb(199,213,228)" stroke="rgb(199,213,228)" stroke-width="1" opacity="1" d="M 129.5 497 L 133 497.5 L 129.5 498 L 129.5 497 Z " /><path fill="rgb(199,213,228)" stroke="rgb(199,213,228)" stroke-width="1" opacity="1" d="M 141.5 497 L 145 497.5 L 141.5 498 L 141.5 497 Z " /><path fill="rgb(199,213,228)" stroke="rgb(199,213,228)" stroke-width="1" opacity="1" d="M 221.5 497 L 225 497.5 L 221.5 498 L 221.5 497 Z " /><path fill="rgb(199,213,228)" stroke="rgb(199,213,228)" stroke-width="1" opacity="1" d="M 233.5 497 L 237 497.5 L 233.5 498 L 233.5 497 Z " /><path fill="rgb(88,89,91)" stroke="rgb(88,89,91)" stroke-width="1" opacity="0.9098039215686274" d="M 78.5 10 L 85.5 10 L 117.5 35 L 127.5 31 L 156.5 25 L 166.5 25 L 167.5 24 L 198.5 24 L 199.5 25 L 208.5 25 L 209.5 26 L 226.5 28 L 249.5 35 L 280.5 10 L 287.5 10 L 292 15.5 L 292 73.5 L 297 97.5 L 299 124.5 L 298 125.5 L 298 134.5 L 293 152.5 Q 285.3 171.3 271.5 184 L 268 186.5 L 276 199.5 L 290 228.5 L 301 257.5 L 308 281.5 L 314 310.5 L 316 332.5 L 317 333.5 L 317 344.5 L 318 345.5 L 318 385.5 L 317 386.5 L 317 395.5 L 313 418.5 L 307 439 L 318.5 441 L 328.5 441 L 343.5 438 L 356.5 432 Q 367.5 425.5 375 415.5 Q 382.7 405.7 387 392.5 L 390 378.5 L 390 358.5 L 387 346.5 L 387 330.5 L 392.5 322 Q 397.2 316.7 408.5 318 Q 427 322.5 436 336.5 Q 444.6 346.9 449 361.5 L 452 374.5 L 452 398.5 Q 444.7 434.2 421.5 454 Q 402 472.5 372.5 481 L 344.5 486 L 317.5 486 L 316.5 485 L 300.5 484 L 278.5 479 Q 270.8 487.1 257 488 Q 257.7 494.5 253.5 497 L 248.5 500 L 239.5 502 L 216.5 502 Q 207.6 500.4 202 495.5 L 199 488 L 167.5 488 L 167 489.5 L 160.5 498 L 148.5 502 L 125.5 502 L 117.5 500 L 110 494.5 L 109 488 Q 87.4 484.9 77 469.5 L 66 453.5 L 56 430.5 L 50 404.5 L 47 367.5 L 48 364.5 L 48 340.5 L 49 339.5 L 50 322.5 L 56 288.5 L 58 284.5 L 61 269.5 L 77 225.5 L 88 202.5 L 98 186.5 L 87 176.5 Q 75.8 163.2 70 144.5 L 67 128.5 L 67 112.5 L 68 111.5 L 68 103.5 L 69 102.5 L 69 95.5 L 70 94.5 L 72 77.5 L 74 71.5 L 74 14.5 L 76.5 11 L 78.5 10 Z M 80 14 L 78 16 L 78 73 L 76 79 L 74 96 L 73 97 L 73 104 L 72 105 L 72 113 L 71 114 L 71 128 L 74 144 Q 80 162 91 175 L 102 184 L 106 190 L 102 189 L 95 199 L 83 223 L 66 268 L 56 310 L 54 329 L 53 330 L 53 339 L 52 340 L 52 355 L 51 356 L 52 390 L 58 422 Q 65 449 81 468 Q 90 481 109 484 L 110 475 L 116 461 L 116 452 L 117 451 L 117 428 L 116 427 L 115 412 L 99 347 Q 97 340 102 342 L 116 401 L 119 417 L 119 424 L 120 425 L 120 454 Q 117 455 119 462 L 114 473 L 112 483 L 113 492 L 119 496 L 127 498 L 148 498 L 158 495 L 163 488 L 163 474 L 161 467 L 159 415 L 158 414 L 158 361 L 161 345 Q 160 340 164 342 L 162 362 L 161 363 L 161 409 L 162 410 L 164 465 L 166 472 L 166 484 L 199 484 L 201 461 L 202 460 L 203 424 L 204 423 L 204 400 L 205 399 L 205 366 L 202 350 L 202 342 L 205 342 L 207 363 L 208 364 L 207 427 L 206 428 L 205 463 L 203 472 L 203 490 L 205 493 Q 210 497 218 498 L 240 498 L 250 495 L 253 491 L 253 478 Q 252 469 247 465 Q 249 458 246 457 L 246 422 Q 249 420 247 414 L 264 344 Q 263 341 267 342 L 253 401 L 249 424 L 249 455 Q 252 456 250 463 L 254 470 L 256 477 L 256 483 L 258 484 Q 270 482 278 475 Q 293 460 302 439 L 310 413 L 312 396 L 313 395 L 313 387 L 314 386 L 314 344 L 313 343 L 313 333 L 312 332 L 312 325 L 308 306 L 308 301 L 302 276 Q 289 227 265 189 L 263 190 Q 259 191 260 188 L 268 182 Q 288 164 294 133 L 294 108 L 293 107 L 293 100 L 292 99 L 290 81 L 288 75 L 288 17 L 286 14 L 281 15 L 250 40 L 226 32 L 209 30 L 208 29 L 198 29 L 197 28 L 158 29 L 133 34 L 120 39 L 115 39 L 87 16 Q 85 13 80 14 Z M 402 322 L 396 325 L 391 333 L 391 346 L 394 359 L 394 380 L 391 394 Q 386 408 378 419 Q 369 430 357 437 L 345 442 L 330 445 L 318 445 L 305 442 L 293 463 L 282 475 L 284 476 L 296 479 L 308 480 L 309 481 L 318 481 L 319 482 L 344 482 L 372 477 Q 400 469 419 451 Q 430 440 438 427 L 445 411 L 448 397 L 448 376 L 445 363 Q 441 349 433 340 Q 427 330 417 325 L 408 322 L 402 322 Z " /><path fill="rgb(88,89,91)" stroke="rgb(88,89,91)" stroke-width="1" opacity="0.9098039215686274" d="M 337.5 53 L 447.5 53 Q 457.5 55 462 62.5 L 465 72.5 L 465 125.5 Q 462.8 126.7 464 131.5 L 461 137.5 L 456.5 142 L 450.5 145 Q 445.8 143.8 444.5 146 L 363.5 146 L 331.5 178 L 328 178 L 329 170.5 L 339 145 L 333.5 145 Q 326.8 142.8 323 137.5 L 320 131.5 L 320 67.5 Q 322.6 60.1 328.5 56 L 337.5 53 Z M 339 57 L 331 60 L 324 69 L 324 130 L 326 135 L 335 141 L 343 141 L 344 143 L 335 167 L 336 168 L 363 141 L 450 141 L 454 139 L 460 131 L 460 69 L 458 65 Q 454 58 446 57 L 339 57 Z " /><path fill="rgb(88,89,91)" stroke="rgb(88,89,91)" stroke-width="1" opacity="0.9098039215686274" d="M 345.5 86 L 350.5 86 L 355 90.5 L 356 95 L 352 93.5 L 350.5 90 L 346.5 89 L 344 90 L 343 95.5 L 346.5 99 L 350.5 99 L 354 101 Q 355.8 103.4 355 109.5 L 351.5 114 L 346.5 115 L 341 111.5 L 340 105 L 343 106.5 Q 342.5 110.5 345.5 111 Q 351 112 352 108.5 Q 353 103 349.5 102 Q 342.6 102.9 341 98.5 L 340 90.5 L 345.5 86 Z " /><path fill="rgb(88,89,91)" stroke="rgb(88,89,91)" stroke-width="1" opacity="0.9098039215686274" d="M 366.5 86 Q 374.4 85.1 376 90.5 Q 380 95.5 378 106.5 L 372.5 114 L 367.5 115 L 362 110.5 L 360 106.5 L 359 98.5 L 363 88 L 366.5 86 Z M 369 89 L 367 90 L 363 96 Q 362 106 365 110 L 371 111 L 375 105 Q 376 96 373 92 L 369 89 Z " /><path fill="rgb(88,89,91)" stroke="rgb(88,89,91)" stroke-width="1" opacity="0.9098039215686274" d="M 385 86 L 395.5 86 L 401 90.5 L 402 96.5 L 398.5 102 L 395 103.5 L 401 113.5 L 399.5 115 L 396 111.5 L 392 104 L 388 103 L 388 113.5 L 386.5 115 L 385 114.5 L 385 103.5 L 384 101.5 L 385 100.5 L 385 86 Z M 388 89 L 388 100 L 396 100 L 399 96 L 398 92 Q 395 88 388 89 Z " /><path fill="rgb(88,89,91)" stroke="rgb(88,89,91)" stroke-width="1" opacity="0.9098039215686274" d="M 408.5 86 Q 419.7 83.8 423 89.5 L 425 94.5 L 424 98.5 L 419.5 103 Q 417.3 102.3 418 104.5 L 424 113.5 L 421.5 115 L 412.5 103 L 410 104.5 L 410 113.5 L 408.5 115 L 407 113.5 L 407 87.5 L 408.5 86 Z M 412 89 L 410 91 L 410 100 L 420 99 Q 422 98 421 93 Q 420 88 412 89 Z " /><path fill="rgb(88,89,91)" stroke="rgb(88,89,91)" stroke-width="1" opacity="0.9098039215686274" d="M 428.5 86 Q 430.8 85.3 430 87.5 L 435.5 97 Q 437.8 97.8 437 95.5 L 442.5 86 Q 445.5 85.1 444 89.5 L 437 102.5 L 437 113.5 L 435.5 115 L 434 113.5 L 434 101.5 L 427 87.5 L 428.5 86 Z " /><path fill="rgb(88,89,91)" stroke="rgb(88,89,91)" stroke-width="1" opacity="0.9098039215686274" d="M 132.5 129 Q 138.8 127.8 140 131.5 L 141 136.5 L 137.5 141 Q 130.3 142.3 129 137.5 Q 127.8 130.3 132.5 129 Z " /><path fill="rgb(88,89,91)" stroke="rgb(88,89,91)" stroke-width="1" opacity="0.9098039215686274" d="M 231.5 129 L 238 130 Q 239.6 132.1 239 137.5 L 238 140 L 231.5 141 L 228 138.5 L 227 133.5 L 229.5 130 L 231.5 129 Z " /><path fill="rgb(88,89,91)" stroke="rgb(88,89,91)" stroke-width="1" opacity="0.9098039215686274" d="M 181.5 143 L 189.5 144 L 192 146.5 L 193 152.5 L 187.5 162 L 184 164.5 L 185 174.5 L 188.5 178 L 190.5 179 L 200 179 L 199.5 182 L 189.5 182 L 182.5 177 L 176.5 182 L 165 182 L 165.5 179 L 175.5 179 L 180 175.5 L 181 173.5 L 181 163 L 176 159.5 Q 172 156 173 147.5 L 174 145 L 181.5 143 Z " /><path fill="rgb(88,89,91)" stroke="rgb(88,89,91)" stroke-width="1" opacity="0.9098039215686274" d="M 120 164 L 124.5 164 L 150 172 Q 151.8 176.5 146.5 175 L 121.5 167 L 120 165.5 L 120 164 Z " /><path fill="rgb(88,89,91)" stroke="rgb(88,89,91)" stroke-width="1" opacity="0.9098039215686274" d="M 241.5 164 Q 246.9 162.1 246 165.5 L 232.5 171 L 219.5 175 L 215 175 L 216.5 172 L 241.5 164 Z " /><path fill="rgb(88,89,91)" stroke="rgb(88,89,91)" stroke-width="1" opacity="0.9098039215686274" d="M 145.5 185 Q 151.8 183.1 150 188 L 127.5 192 L 120 192 L 121.5 189 L 138.5 187 L 145.5 185 Z " /><path fill="rgb(88,89,91)" stroke="rgb(88,89,91)" stroke-width="1" opacity="0.9098039215686274" d="M 216.5 185 L 239.5 188 L 246 190.5 L 245.5 192 L 238.5 192 L 231.5 190 L 219.5 189 L 215 186.5 L 216.5 185 Z " /></svg>