<svg width="512" height="512" version="1.1" xmlns="http://www.w3.org/2000/svg" desc="Created with imagetracer.js version 1.2.6" ><path fill="rgb(0,0,0)" stroke="rgb(0,0,0)" stroke-width="1" opacity="0" d="M 0 0 L 512 0 L 512 512 L 0 512 L 0 0 Z M 232 10 L 230 11 L 210 36 L 208 40 L 195 39 L 194 38 L 167 38 L 166 39 L 158 39 L 137 43 L 111 52 L 90 64 L 57 45 L 51 47 L 48 52 L 59 107 L 59 132 L 60 133 L 61 152 L 64 165 L 66 168 L 60 171 L 61 173 L 64 174 L 68 173 Q 71 184 79 192 L 74 196 L 76 199 L 82 196 L 88 202 L 43 235 L 38 243 Q 39 256 48 262 L 46 266 L 46 272 L 50 280 L 60 287 L 80 324 Q 91 338 109 345 L 119 371 L 128 387 L 128 459 L 113 460 L 107 463 L 102 468 L 99 477 L 99 486 L 102 498 L 108 502 L 318 502 L 319 501 L 324 502 L 356 502 L 357 501 L 373 500 L 391 496 L 415 487 L 432 477 L 441 469 Q 443 470 442 467 L 444 467 L 444 466 L 448 463 Q 460 451 467 434 L 471 423 L 474 407 L 474 395 L 473 394 L 472 383 Q 467 365 457 353 Q 446 338 427 332 L 413 332 L 405 336 L 401 345 L 402 356 L 412 377 L 415 390 L 415 410 L 413 419 L 405 436 L 400 441 L 398 444 L 380 456 L 365 460 L 363 460 L 370 446 L 375 430 L 377 413 L 378 412 L 378 402 L 379 401 L 378 368 L 374 345 L 369 328 Q 358 298 339 278 L 316 257 L 290 242 L 278 232 Q 258 214 252 183 L 263 162 L 268 144 L 268 137 L 269 134 L 269 125 L 268 124 L 268 116 L 266 106 L 255 77 L 248 64 L 244 30 L 243 29 L 243 22 L 241 14 Q 239 9 232 10 Z " /><path fill="rgb(0,0,0)" stroke="rgb(0,0,0)" stroke-width="1" opacity="0" d="M 182.5 450 L 192 458.5 L 189.5 459 L 188.5 458 L 180 458 L 182.5 450 Z " /><path fill="rgb(223,203,189)" stroke="rgb(223,203,189)" stroke-width="1" opacity="1" d="M 235.5 14 L 236.5 16 L 235.5 14 Z " /><path fill="rgb(223,203,189)" stroke="rgb(223,203,189)" stroke-width="1" opacity="1" d="M 231.5 16 L 229.5 19 L 231.5 16 Z " /><path fill="rgb(223,203,189)" stroke="rgb(223,203,189)" stroke-width="1" opacity="1" d="M 237.5 17 L 238 20.5 L 237 20.5 L 237.5 17 Z " /><path fill="rgb(223,203,189)" stroke="rgb(223,203,189)" stroke-width="1" opacity="1" d="M 227.5 21 L 226.5 23 L 227.5 21 Z " /><path fill="rgb(223,203,189)" stroke="rgb(223,203,189)" stroke-width="1" opacity="1" d="M 224.5 25 L 222.5 28 L 224.5 25 Z " /><path fill="rgb(223,203,189)" stroke="rgb(223,203,189)" stroke-width="1" opacity="1" d="M 238.5 25 L 239 27.5 L 238 27.5 L 238.5 25 Z " /><path fill="rgb(223,203,189)" stroke="rgb(223,203,189)" stroke-width="1" opacity="1" d="M 220.5 30 L 219.5 32 L 220.5 30 Z " /><path fill="rgb(223,203,189)" stroke="rgb(223,203,189)" stroke-width="1" opacity="1" d="M 239.5 32 L 240 35.5 L 239 35.5 L 239.5 32 Z " /><path fill="rgb(223,203,189)" stroke="rgb(223,203,189)" stroke-width="1" opacity="1" d="M 217.5 34 L 215.5 37 L 217.5 34 Z " /><path fill="rgb(223,203,189)" stroke="rgb(223,203,189)" stroke-width="1" opacity="1" d="M 213.5 39 L 212.5 41 L 213.5 39 Z " /><path fill="rgb(223,203,189)" stroke="rgb(223,203,189)" stroke-width="1" opacity="1" d="M 240.5 39 L 241 42.5 L 240 42.5 L 240.5 39 Z " /><path fill="rgb(223,203,189)" stroke="rgb(223,203,189)" stroke-width="1" opacity="1" d="M 171.5 42 L 188 42.5 L 171.5 43 L 171.5 42 Z " /><path fill="rgb(223,203,189)" stroke="rgb(223,203,189)" stroke-width="1" opacity="1" d="M 160.5 43 L 164 43.5 L 160.5 44 L 160.5 43 Z " /><path fill="rgb(223,203,189)" stroke="rgb(223,203,189)" stroke-width="1" opacity="1" d="M 195.5 43 L 199 43.5 L 195.5 44 L 195.5 43 Z " /><path fill="rgb(223,203,189)" stroke="rgb(223,203,189)" stroke-width="1" opacity="1" d="M 210.5 43 L 209.5 45 L 210.5 43 Z " /><path fill="rgb(223,203,189)" stroke="rgb(223,203,189)" stroke-width="1" opacity="1" d="M 154.5 44 L 157 44.5 L 154.5 45 L 154.5 44 Z " /><path fill="rgb(223,203,189)" stroke="rgb(223,203,189)" stroke-width="1" opacity="1" d="M 241.5 47 L 242 49.5 L 241 49.5 L 241.5 47 Z " /><path fill="rgb(223,203,189)" stroke="rgb(223,203,189)" stroke-width="1" opacity="1" d="M 57.5 50 L 58.5 52 L 57.5 50 Z " /><path fill="rgb(223,203,189)" stroke="rgb(223,203,189)" stroke-width="1" opacity="1" d="M 64.5 54 L 65.5 56 L 64.5 54 Z " /><path fill="rgb(223,203,189)" stroke="rgb(223,203,189)" stroke-width="1" opacity="1" d="M 242.5 54 L 243 56.5 L 242 56.5 L 242.5 54 Z " /><path fill="rgb(223,203,189)" stroke="rgb(223,203,189)" stroke-width="1" opacity="1" d="M 243.5 61 L 244 64.5 L 243 64.5 L 243.5 61 Z " /><path fill="rgb(223,203,189)" stroke="rgb(223,203,189)" stroke-width="1" opacity="1" d="M 95.5 65 L 94.5 67 L 95.5 65 Z " /><path fill="rgb(223,203,189)" stroke="rgb(223,203,189)" stroke-width="1" opacity="1" d="M 88.5 68 L 91 68.5 L 88.5 69 L 88.5 68 Z " /><path fill="rgb(223,203,189)" stroke="rgb(223,203,189)" stroke-width="1" opacity="1" d="M 63.5 111 L 64 124.5 L 63 124.5 L 63.5 111 Z " /><path fill="rgb(223,203,189)" stroke="rgb(223,203,189)" stroke-width="1" opacity="1" d="M 263.5 117 L 264 121.5 L 263 121.5 L 263.5 117 Z " /><path fill="rgb(223,203,189)" stroke="rgb(223,203,189)" stroke-width="1" opacity="1" d="M 168.5 119 L 167.5 121 L 168.5 119 Z " /><path fill="rgb(223,203,189)" stroke="rgb(223,203,189)" stroke-width="1" opacity="1" d="M 179.5 123 L 180 126.5 L 179 126.5 L 179.5 123 Z " /><path fill="rgb(223,203,189)" stroke="rgb(223,203,189)" stroke-width="1" opacity="1" d="M 167.5 128 L 168.5 130 L 167.5 128 Z " /><path fill="rgb(223,203,189)" stroke="rgb(223,203,189)" stroke-width="1" opacity="1" d="M 178.5 128 L 177.5 130 L 178.5 128 Z " /><path fill="rgb(223,203,189)" stroke="rgb(223,203,189)" stroke-width="1" opacity="1" d="M 64.5 133 L 65 137.5 L 64 137.5 L 64.5 133 Z " /><path fill="rgb(223,203,189)" stroke="rgb(223,203,189)" stroke-width="1" opacity="1" d="M 90.5 134 L 92 134.5 L 88.5 137 L 90.5 134 Z " /><path fill="rgb(223,203,189)" stroke="rgb(223,203,189)" stroke-width="1" opacity="1" d="M 202.5 135 L 204 137.5 L 203 137.5 L 202.5 135 Z " /><path fill="rgb(223,203,189)" stroke="rgb(223,203,189)" stroke-width="1" opacity="1" d="M 263.5 136 L 264 140.5 L 263 140.5 L 263.5 136 Z " /><path fill="rgb(223,203,189)" stroke="rgb(223,203,189)" stroke-width="1" opacity="1" d="M 87.5 138 L 88 142.5 L 87 142.5 L 87.5 138 Z " /><path fill="rgb(223,203,189)" stroke="rgb(223,203,189)" stroke-width="1" opacity="1" d="M 98.5 139 L 99 141.5 L 98 141.5 L 98.5 139 Z " /><path fill="rgb(223,203,189)" stroke="rgb(223,203,189)" stroke-width="1" opacity="1" d="M 144.5 140 L 145 142.5 L 144 142.5 L 144.5 140 Z " /><path fill="rgb(223,203,189)" stroke="rgb(223,203,189)" stroke-width="1" opacity="1" d="M 199.5 140 L 198.5 142 L 199.5 140 Z " /><path fill="rgb(223,203,189)" stroke="rgb(223,203,189)" stroke-width="1" opacity="1" d="M 65.5 144 L 66 147.5 L 65 147.5 L 65.5 144 Z " /><path fill="rgb(223,203,189)" stroke="rgb(223,203,189)" stroke-width="1" opacity="1" d="M 88.5 144 L 89.5 146 L 88.5 144 Z " /><path fill="rgb(223,203,189)" stroke="rgb(223,203,189)" stroke-width="1" opacity="1" d="M 97.5 144 L 95.5 147 L 97.5 144 Z " /><path fill="rgb(223,203,189)" stroke="rgb(223,203,189)" stroke-width="1" opacity="1" d="M 181.5 145 L 180.5 147 L 181.5 145 Z " /><path fill="rgb(223,203,189)" stroke="rgb(223,203,189)" stroke-width="1" opacity="1" d="M 131.5 150 L 132.5 152 L 131.5 150 Z " /><path fill="rgb(223,203,189)" stroke="rgb(223,203,189)" stroke-width="1" opacity="1" d="M 172.5 150 L 171.5 152 L 172.5 150 Z " /><path fill="rgb(223,203,189)" stroke="rgb(223,203,189)" stroke-width="1" opacity="1" d="M 141.5 151 L 141 152.5 L 140.5 154 L 140 152.5 L 141.5 151 Z " /><path fill="rgb(223,203,189)" stroke="rgb(223,203,189)" stroke-width="1" opacity="1" d="M 137.5 159 L 138 161.5 L 137 161.5 L 137.5 159 Z " /><path fill="rgb(223,203,189)" stroke="rgb(223,203,189)" stroke-width="1" opacity="1" d="M 204.5 159 L 207 159.5 L 204.5 160 L 204.5 159 Z " /><path fill="rgb(223,203,189)" stroke="rgb(223,203,189)" stroke-width="1" opacity="1" d="M 197.5 160 L 201 160.5 L 197.5 161 L 197.5 160 Z " /><path fill="rgb(223,203,189)" stroke="rgb(223,203,189)" stroke-width="1" opacity="1" d="M 191.5 161 L 194 161.5 L 191.5 162 L 191.5 161 Z " /><path fill="rgb(223,203,189)" stroke="rgb(223,203,189)" stroke-width="1" opacity="1" d="M 184.5 162 L 187 162.5 L 184.5 163 L 184.5 162 Z " /><path fill="rgb(223,203,189)" stroke="rgb(223,203,189)" stroke-width="1" opacity="1" d="M 209.5 162 L 208.5 164 L 206 163.5 L 209.5 162 Z " /><path fill="rgb(223,203,189)" stroke="rgb(223,203,189)" stroke-width="1" opacity="1" d="M 143.5 163 L 144.5 165 L 143.5 163 Z " /><path fill="rgb(223,203,189)" stroke="rgb(223,203,189)" stroke-width="1" opacity="1" d="M 178.5 163 L 181 163.5 L 178.5 164 L 178.5 163 Z " /><path fill="rgb(223,203,189)" stroke="rgb(223,203,189)" stroke-width="1" opacity="1" d="M 200.5 164 L 203 164.5 L 200.5 165 L 200.5 164 Z " /><path fill="rgb(223,203,189)" stroke="rgb(223,203,189)" stroke-width="1" opacity="1" d="M 146.5 165 L 150 165.5 L 146.5 166 L 146.5 165 Z " /><path fill="rgb(223,203,189)" stroke="rgb(223,203,189)" stroke-width="1" opacity="1" d="M 156.5 165 L 157 167.5 L 155 168.5 L 156.5 165 Z " /><path fill="rgb(223,203,189)" stroke="rgb(223,203,189)" stroke-width="1" opacity="1" d="M 193.5 165 L 196 165.5 L 193.5 166 L 193.5 165 Z " /><path fill="rgb(223,203,189)" stroke="rgb(223,203,189)" stroke-width="1" opacity="1" d="M 96.5 166 L 103 166.5 L 96.5 167 L 96.5 166 Z " /><path fill="rgb(223,203,189)" stroke="rgb(223,203,189)" stroke-width="1" opacity="1" d="M 136.5 166 L 135.5 168 L 136.5 166 Z " /><path fill="rgb(223,203,189)" stroke="rgb(223,203,189)" stroke-width="1" opacity="1" d="M 187.5 166 L 190 166.5 L 187.5 167 L 187.5 166 Z " /><path fill="rgb(223,203,189)" stroke="rgb(223,203,189)" stroke-width="1" opacity="1" d="M 70.5 167 L 73 168.5 L 71.5 169 L 70.5 167 Z " /><path fill="rgb(223,203,189)" stroke="rgb(223,203,189)" stroke-width="1" opacity="1" d="M 81.5 167 L 88 167.5 L 81.5 168 L 81.5 167 Z " /><path fill="rgb(223,203,189)" stroke="rgb(223,203,189)" stroke-width="1" opacity="1" d="M 141.5 167 L 142.5 169 L 141.5 168 L 137 171.5 L 141.5 167 Z " /><path fill="rgb(223,203,189)" stroke="rgb(223,203,189)" stroke-width="1" opacity="1" d="M 180.5 167 L 183 167.5 L 180.5 168 L 180.5 167 Z " /><path fill="rgb(223,203,189)" stroke="rgb(223,203,189)" stroke-width="1" opacity="1" d="M 174.5 168 L 177 168.5 L 174.5 169 L 174.5 168 Z " /><path fill="rgb(223,203,189)" stroke="rgb(223,203,189)" stroke-width="1" opacity="1" d="M 254.5 168 L 253.5 170 L 254.5 168 Z " /><path fill="rgb(223,203,189)" stroke="rgb(223,203,189)" stroke-width="1" opacity="1" d="M 128.5 169 L 131 169.5 L 128.5 170 L 128.5 169 Z " /><path fill="rgb(223,203,189)" stroke="rgb(223,203,189)" stroke-width="1" opacity="1" d="M 101.5 170 L 105 170.5 L 101.5 171 L 101.5 170 Z " /><path fill="rgb(223,203,189)" stroke="rgb(223,203,189)" stroke-width="1" opacity="1" d="M 86.5 171 L 93 171.5 L 86.5 172 L 86.5 171 Z " /><path fill="rgb(223,203,189)" stroke="rgb(223,203,189)" stroke-width="1" opacity="1" d="M 126.5 171 L 128 173.5 L 126 172.5 L 126.5 171 Z " /><path fill="rgb(223,203,189)" stroke="rgb(223,203,189)" stroke-width="1" opacity="1" d="M 73.5 172 L 78 172.5 L 73.5 173 L 73.5 172 Z " /><path fill="rgb(223,203,189)" stroke="rgb(223,203,189)" stroke-width="1" opacity="1" d="M 251.5 173 L 250.5 175 L 251.5 173 Z " /><path fill="rgb(223,203,189)" stroke="rgb(223,203,189)" stroke-width="1" opacity="1" d="M 249.5 176 L 248.5 178 L 249.5 176 Z " /><path fill="rgb(223,203,189)" stroke="rgb(223,203,189)" stroke-width="1" opacity="1" d="M 107.5 177 L 109 179.5 L 106 181.5 L 108 178.5 L 107.5 177 Z " /><path fill="rgb(223,203,189)" stroke="rgb(223,203,189)" stroke-width="1" opacity="1" d="M 247.5 179 L 245.5 182 L 247.5 179 Z " /><path fill="rgb(223,203,189)" stroke="rgb(223,203,189)" stroke-width="1" opacity="1" d="M 77.5 181 L 78.5 183 L 77.5 181 Z " /><path fill="rgb(223,203,189)" stroke="rgb(223,203,189)" stroke-width="1" opacity="1" d="M 136.5 181 Q 142.7 180.3 144 184.5 Q 148 192.8 148 204 Q 140.9 203.2 138 208.5 Q 134 212 135 220.5 L 141.5 229 L 148 231.5 L 147 248.5 L 145.5 250 L 137.5 246 L 125.5 244 L 118 249.5 L 113 259.5 L 109.5 271 L 91 260.5 Q 94.8 257.3 94 249.5 Q 92.6 243.4 87.5 241 Q 84.3 238.7 77.5 240 L 71 245.5 Q 71.8 247.8 69.5 247 L 59 237.5 L 55 231 L 100.5 199 Q 116.5 188 136.5 181 Z M 125 199 L 122 202 L 125 206 L 127 205 Q 128 200 125 199 Z M 102 203 L 97 205 Q 91 209 90 217 L 92 224 L 101 230 Q 108 231 112 228 L 116 224 L 118 217 L 115 209 Q 111 203 102 203 Z M 79 225 L 77 227 Q 75 232 80 231 L 81 229 L 81 227 Q 82 224 79 225 Z M 125 232 L 122 235 L 124 238 L 127 237 L 128 234 L 125 232 Z M 105 257 L 103 259 L 104 262 L 108 263 L 109 260 Q 109 257 105 257 Z " /><path fill="rgb(223,203,189)" stroke="rgb(223,203,189)" stroke-width="1" opacity="1" d="M 146.5 181 L 147.5 183 L 146.5 181 Z " /><path fill="rgb(223,203,189)" stroke="rgb(223,203,189)" stroke-width="1" opacity="1" d="M 95.5 182 L 94.5 184 L 95.5 182 Z " /><path fill="rgb(223,203,189)" stroke="rgb(223,203,189)" stroke-width="1" opacity="1" d="M 243.5 184 L 239.5 189 L 243.5 184 Z " /><path fill="rgb(223,203,189)" stroke="rgb(223,203,189)" stroke-width="1" opacity="1" d="M 88.5 186 L 87.5 188 L 88.5 186 Z " /><path fill="rgb(223,203,189)" stroke="rgb(223,203,189)" stroke-width="1" opacity="1" d="M 247.5 186 Q 249.8 185.3 249 187.5 L 247.5 187 L 242 191.5 L 247.5 186 Z " /><path fill="rgb(223,203,189)" stroke="rgb(223,203,189)" stroke-width="1" opacity="1" d="M 81.5 187 L 83.5 190 L 81.5 187 Z " /><path fill="rgb(223,203,189)" stroke="rgb(223,203,189)" stroke-width="1" opacity="1" d="M 111.5 187 L 110.5 189 L 111.5 187 Z " /><path fill="rgb(223,203,189)" stroke="rgb(223,203,189)" stroke-width="1" opacity="1" d="M 106.5 190 L 105.5 192 L 106.5 190 Z " /><path fill="rgb(223,203,189)" stroke="rgb(223,203,189)" stroke-width="1" opacity="1" d="M 88.5 191 L 87 193.5 L 91.5 199 L 86 193.5 L 88.5 191 Z " /><path fill="rgb(223,203,189)" stroke="rgb(223,203,189)" stroke-width="1" opacity="1" d="M 101.5 193 L 100.5 195 L 101.5 193 Z " /><path fill="rgb(223,203,189)" stroke="rgb(223,203,189)" stroke-width="1" opacity="1" d="M 151.5 194 L 152 196.5 L 151 196.5 L 151.5 194 Z " /><path fill="rgb(223,203,189)" stroke="rgb(223,203,189)" stroke-width="1" opacity="1" d="M 152.5 201 L 153 204.5 L 152 204.5 L 152.5 201 Z " /><path fill="rgb(223,203,189)" stroke="rgb(223,203,189)" stroke-width="1" opacity="1" d="M 100.5 208 L 107.5 208 L 111 210 Q 113.6 212.3 113 218.5 L 109.5 224 L 103.5 226 L 96 221.5 L 95 214.5 L 98.5 209 L 100.5 208 Z " /><path fill="rgb(223,203,189)" stroke="rgb(223,203,189)" stroke-width="1" opacity="1" d="M 146.5 208 L 148 208.5 L 148 219.5 L 149 222.5 L 148 226 Q 142.4 225.9 140 221.5 L 139 216.5 L 142.5 210 L 146.5 208 Z " /><path fill="rgb(223,203,189)" stroke="rgb(223,203,189)" stroke-width="1" opacity="1" d="M 259.5 216 L 260.5 218 L 259.5 216 Z " /><path fill="rgb(223,203,189)" stroke="rgb(223,203,189)" stroke-width="1" opacity="1" d="M 261.5 219 L 262.5 221 L 261.5 219 Z " /><path fill="rgb(223,203,189)" stroke="rgb(223,203,189)" stroke-width="1" opacity="1" d="M 263.5 222 L 264.5 224 L 263.5 222 Z " /><path fill="rgb(223,203,189)" stroke="rgb(223,203,189)" stroke-width="1" opacity="1" d="M 266.5 226 L 268.5 229 L 266.5 226 Z " /><path fill="rgb(223,203,189)" stroke="rgb(223,203,189)" stroke-width="1" opacity="1" d="M 152.5 229 L 153 233.5 L 152 233.5 L 152.5 229 Z " /><path fill="rgb(223,203,189)" stroke="rgb(223,203,189)" stroke-width="1" opacity="1" d="M 51.5 235 L 64.5 249 Q 84.1 265.1 109 275 L 108.5 285 Q 69.5 270.5 43 243.5 L 49.5 236 L 51.5 235 Z " /><path fill="rgb(223,203,189)" stroke="rgb(223,203,189)" stroke-width="1" opacity="1" d="M 279.5 239 L 281.5 242 L 279.5 239 Z " /><path fill="rgb(223,203,189)" stroke="rgb(223,203,189)" stroke-width="1" opacity="1" d="M 151.5 241 L 152 244.5 L 151 244.5 L 151.5 241 Z " /><path fill="rgb(223,203,189)" stroke="rgb(223,203,189)" stroke-width="1" opacity="1" d="M 284.5 243 L 285.5 245 L 284.5 243 Z " /><path fill="rgb(223,203,189)" stroke="rgb(223,203,189)" stroke-width="1" opacity="1" d="M 79.5 244 Q 87.4 243.1 89 248.5 Q 90.7 256.3 86.5 258 L 74 249.5 L 77.5 245 L 79.5 244 Z " /><path fill="rgb(223,203,189)" stroke="rgb(223,203,189)" stroke-width="1" opacity="1" d="M 225.5 247 L 222.5 251 L 225.5 247 Z " /><path fill="rgb(223,203,189)" stroke="rgb(223,203,189)" stroke-width="1" opacity="1" d="M 124.5 249 L 121.5 253 L 124.5 249 Z " /><path fill="rgb(223,203,189)" stroke="rgb(223,203,189)" stroke-width="1" opacity="1" d="M 150.5 250 L 151 253.5 L 150 253.5 L 150.5 250 Z " /><path fill="rgb(223,203,189)" stroke="rgb(223,203,189)" stroke-width="1" opacity="1" d="M 302.5 254 L 303.5 256 L 302.5 254 Z " /><path fill="rgb(223,203,189)" stroke="rgb(223,203,189)" stroke-width="1" opacity="1" d="M 145.5 255 L 147.5 258 L 145.5 255 Z " /><path fill="rgb(223,203,189)" stroke="rgb(223,203,189)" stroke-width="1" opacity="1" d="M 209.5 256 L 195.5 271 L 190 270.5 L 195.5 270 L 209.5 256 Z " /><path fill="rgb(223,203,189)" stroke="rgb(223,203,189)" stroke-width="1" opacity="1" d="M 307.5 257 L 308.5 259 L 307.5 257 Z " /><path fill="rgb(223,203,189)" stroke="rgb(223,203,189)" stroke-width="1" opacity="1" d="M 157.5 258 L 158.5 260 L 157.5 258 Z " /><path fill="rgb(223,203,189)" stroke="rgb(223,203,189)" stroke-width="1" opacity="1" d="M 310.5 259 L 311.5 261 L 310.5 259 Z " /><path fill="rgb(223,203,189)" stroke="rgb(223,203,189)" stroke-width="1" opacity="1" d="M 313.5 261 L 314.5 263 L 313.5 261 Z " /><path fill="rgb(223,203,189)" stroke="rgb(223,203,189)" stroke-width="1" opacity="1" d="M 208.5 263 L 197.5 275 L 208.5 263 Z " /><path fill="rgb(223,203,189)" stroke="rgb(223,203,189)" stroke-width="1" opacity="1" d="M 317.5 264 L 318.5 266 L 317.5 264 Z " /><path fill="rgb(223,203,189)" stroke="rgb(223,203,189)" stroke-width="1" opacity="1" d="M 55.5 267 L 56.5 269 L 55.5 267 Z " /><path fill="rgb(223,203,189)" stroke="rgb(223,203,189)" stroke-width="1" opacity="1" d="M 321.5 267 L 324.5 271 L 321.5 267 Z " /><path fill="rgb(223,203,189)" stroke="rgb(223,203,189)" stroke-width="1" opacity="1" d="M 59.5 270 L 60.5 272 L 59.5 270 Z " /><path fill="rgb(223,203,189)" stroke="rgb(223,203,189)" stroke-width="1" opacity="1" d="M 63.5 273 L 64.5 275 L 63.5 273 Z " /><path fill="rgb(223,203,189)" stroke="rgb(223,203,189)" stroke-width="1" opacity="1" d="M 52.5 274 L 53.5 276 L 52.5 274 Z " /><path fill="rgb(223,203,189)" stroke="rgb(223,203,189)" stroke-width="1" opacity="1" d="M 187.5 274 L 192 274.5 L 187.5 275 L 187.5 274 Z " /><path fill="rgb(223,203,189)" stroke="rgb(223,203,189)" stroke-width="1" opacity="1" d="M 66.5 275 L 67.5 277 L 66.5 275 Z " /><path fill="rgb(223,203,189)" stroke="rgb(223,203,189)" stroke-width="1" opacity="1" d="M 69.5 277 L 70.5 279 L 69.5 277 Z " /><path fill="rgb(223,203,189)" stroke="rgb(223,203,189)" stroke-width="1" opacity="1" d="M 113.5 277 L 114 286.5 L 113 286.5 L 113.5 277 Z " /><path fill="rgb(223,203,189)" stroke="rgb(223,203,189)" stroke-width="1" opacity="1" d="M 336.5 282 L 340.5 287 L 336.5 282 Z " /><path fill="rgb(223,203,189)" stroke="rgb(223,203,189)" stroke-width="1" opacity="1" d="M 62.5 283 L 63.5 285 L 62.5 283 Z " /><path fill="rgb(223,203,189)" stroke="rgb(223,203,189)" stroke-width="1" opacity="1" d="M 341.5 288 L 343.5 291 L 341.5 288 Z " /><path fill="rgb(223,203,189)" stroke="rgb(223,203,189)" stroke-width="1" opacity="1" d="M 345.5 293 L 346.5 295 L 345.5 293 Z " /><path fill="rgb(223,203,189)" stroke="rgb(223,203,189)" stroke-width="1" opacity="1" d="M 103 296 L 105 296.5 L 103.5 300 L 103 296 Z " /><path fill="rgb(223,203,189)" stroke="rgb(223,203,189)" stroke-width="1" opacity="1" d="M 347.5 296 L 348.5 298 L 347.5 296 Z " /><path fill="rgb(223,203,189)" stroke="rgb(223,203,189)" stroke-width="1" opacity="1" d="M 99.5 297 L 100 304.5 L 99 304.5 L 99.5 297 Z " /><path fill="rgb(223,203,189)" stroke="rgb(223,203,189)" stroke-width="1" opacity="1" d="M 128.5 297 L 132 297.5 L 128.5 298 L 128.5 297 Z " /><path fill="rgb(223,203,189)" stroke="rgb(223,203,189)" stroke-width="1" opacity="1" d="M 144.5 299 L 147 299.5 L 144.5 300 L 144.5 299 Z " /><path fill="rgb(223,203,189)" stroke="rgb(223,203,189)" stroke-width="1" opacity="1" d="M 349.5 299 L 350.5 301 L 349.5 299 Z " /><path fill="rgb(223,203,189)" stroke="rgb(223,203,189)" stroke-width="1" opacity="1" d="M 352.5 304 L 353.5 306 L 352.5 304 Z " /><path fill="rgb(223,203,189)" stroke="rgb(223,203,189)" stroke-width="1" opacity="1" d="M 104.5 307 L 105 310.5 L 104 310.5 L 104.5 307 Z " /><path fill="rgb(223,203,189)" stroke="rgb(223,203,189)" stroke-width="1" opacity="1" d="M 100.5 310 L 101 312.5 L 100 312.5 L 100.5 310 Z " /><path fill="rgb(223,203,189)" stroke="rgb(223,203,189)" stroke-width="1" opacity="1" d="M 79.5 314 L 80.5 316 L 79.5 314 Z " /><path fill="rgb(223,203,189)" stroke="rgb(223,203,189)" stroke-width="1" opacity="1" d="M 105.5 314 L 106 316.5 L 105 316.5 L 105.5 314 Z " /><path fill="rgb(223,203,189)" stroke="rgb(223,203,189)" stroke-width="1" opacity="1" d="M 197.5 315 L 200 315.5 L 197.5 316 L 197.5 315 Z " /><path fill="rgb(223,203,189)" stroke="rgb(223,203,189)" stroke-width="1" opacity="1" d="M 101.5 316 L 102 318.5 L 101 318.5 L 101.5 316 Z " /><path fill="rgb(223,203,189)" stroke="rgb(223,203,189)" stroke-width="1" opacity="1" d="M 81.5 317 L 82.5 319 L 81.5 317 Z " /><path fill="rgb(223,203,189)" stroke="rgb(223,203,189)" stroke-width="1" opacity="1" d="M 84.5 321 L 87.5 325 L 84.5 321 Z " /><path fill="rgb(223,203,189)" stroke="rgb(223,203,189)" stroke-width="1" opacity="1" d="M 91.5 328 L 94.5 332 L 91.5 328 Z " /><path fill="rgb(223,203,189)" stroke="rgb(223,203,189)" stroke-width="1" opacity="1" d="M 213.5 329 L 212.5 331 L 213.5 329 Z " /><path fill="rgb(223,203,189)" stroke="rgb(223,203,189)" stroke-width="1" opacity="1" d="M 210.5 331 L 209.5 333 L 210.5 331 Z " /><path fill="rgb(223,203,189)" stroke="rgb(223,203,189)" stroke-width="1" opacity="1" d="M 97.5 333 L 98.5 335 L 97.5 333 Z " /><path fill="rgb(223,203,189)" stroke="rgb(223,203,189)" stroke-width="1" opacity="1" d="M 212.5 335 L 211.5 337 L 212.5 335 Z " /><path fill="rgb(223,203,189)" stroke="rgb(223,203,189)" stroke-width="1" opacity="1" d="M 203.5 336 L 201.5 339 L 203.5 336 Z " /><path fill="rgb(223,203,189)" stroke="rgb(223,203,189)" stroke-width="1" opacity="1" d="M 415.5 336 L 424 336.5 L 415.5 337 L 415.5 336 Z " /><path fill="rgb(223,203,189)" stroke="rgb(223,203,189)" stroke-width="1" opacity="1" d="M 209.5 337 L 208.5 339 L 209.5 337 Z " /><path fill="rgb(223,203,189)" stroke="rgb(223,203,189)" stroke-width="1" opacity="1" d="M 410.5 338 L 407.5 342 L 410.5 338 Z " /><path fill="rgb(223,203,189)" stroke="rgb(223,203,189)" stroke-width="1" opacity="1" d="M 198.5 340 L 195.5 344 L 198.5 340 Z " /><path fill="rgb(223,203,189)" stroke="rgb(223,203,189)" stroke-width="1" opacity="1" d="M 205.5 340 L 203.5 343 L 205.5 340 Z " /><path fill="rgb(223,203,189)" stroke="rgb(223,203,189)" stroke-width="1" opacity="1" d="M 438.5 342 L 439.5 344 L 438.5 342 Z " /><path fill="rgb(223,203,189)" stroke="rgb(223,203,189)" stroke-width="1" opacity="1" d="M 200.5 344 L 195.5 350 L 200.5 344 Z " /><path fill="rgb(223,203,189)" stroke="rgb(223,203,189)" stroke-width="1" opacity="1" d="M 441.5 344 L 443.5 347 L 441.5 344 Z " /><path fill="rgb(223,203,189)" stroke="rgb(223,203,189)" stroke-width="1" opacity="1" d="M 405.5 346 L 406 349.5 L 405 349.5 L 405.5 346 Z " /><path fill="rgb(223,203,189)" stroke="rgb(223,203,189)" stroke-width="1" opacity="1" d="M 446.5 348 L 452.5 355 L 446.5 348 Z " /><path fill="rgb(223,203,189)" stroke="rgb(223,203,189)" stroke-width="1" opacity="1" d="M 182.5 356 L 180.5 359 L 182.5 356 Z " /><path fill="rgb(223,203,189)" stroke="rgb(223,203,189)" stroke-width="1" opacity="1" d="M 188.5 356 L 184.5 361 L 188.5 356 Z " /><path fill="rgb(223,203,189)" stroke="rgb(223,203,189)" stroke-width="1" opacity="1" d="M 453.5 356 L 455.5 359 L 453.5 356 Z " /><path fill="rgb(223,203,189)" stroke="rgb(223,203,189)" stroke-width="1" opacity="1" d="M 371.5 357 L 372 359.5 L 371 359.5 L 371.5 357 Z " /><path fill="rgb(223,203,189)" stroke="rgb(223,203,189)" stroke-width="1" opacity="1" d="M 456.5 360 L 457.5 362 L 456.5 360 Z " /><path fill="rgb(223,203,189)" stroke="rgb(223,203,189)" stroke-width="1" opacity="1" d="M 177.5 362 L 176.5 364 L 177.5 362 Z " /><path fill="rgb(223,203,189)" stroke="rgb(223,203,189)" stroke-width="1" opacity="1" d="M 182.5 363 L 180.5 366 L 182.5 363 Z " /><path fill="rgb(223,203,189)" stroke="rgb(223,203,189)" stroke-width="1" opacity="1" d="M 372.5 363 L 373 366.5 L 372 366.5 L 372.5 363 Z " /><path fill="rgb(223,203,189)" stroke="rgb(223,203,189)" stroke-width="1" opacity="1" d="M 458.5 363 L 459.5 365 L 458.5 363 Z " /><path fill="rgb(223,203,189)" stroke="rgb(223,203,189)" stroke-width="1" opacity="1" d="M 175.5 365 L 174.5 367 L 175.5 365 Z " /><path fill="rgb(223,203,189)" stroke="rgb(223,203,189)" stroke-width="1" opacity="1" d="M 179.5 367 L 178.5 369 L 179.5 367 Z " /><path fill="rgb(223,203,189)" stroke="rgb(223,203,189)" stroke-width="1" opacity="1" d="M 173.5 368 L 172.5 370 L 173.5 368 Z " /><path fill="rgb(223,203,189)" stroke="rgb(223,203,189)" stroke-width="1" opacity="1" d="M 177.5 370 L 176.5 372 L 177.5 370 Z " /><path fill="rgb(223,203,189)" stroke="rgb(223,203,189)" stroke-width="1" opacity="1" d="M 414 370 L 435.5 370 L 440.5 371 L 454.5 376 L 465.5 384 L 468 384 L 469 390.5 L 469 410.5 Q 467.5 413.5 466 410.5 L 456.5 399 Q 445 386.5 420.5 387 L 419 387.5 L 414 370 Z " /><path fill="rgb(223,203,189)" stroke="rgb(223,203,189)" stroke-width="1" opacity="1" d="M 373.5 371 L 374 376.5 L 373 376.5 L 373.5 371 Z " /><path fill="rgb(223,203,189)" stroke="rgb(223,203,189)" stroke-width="1" opacity="1" d="M 419.5 390 L 420 393.5 L 419 393.5 L 419.5 390 Z " /><path fill="rgb(223,203,189)" stroke="rgb(223,203,189)" stroke-width="1" opacity="1" d="M 132.5 394 L 133 462.5 Q 131.3 465.8 124.5 464 L 124.5 463 L 131.5 463 L 132 462.5 L 132.5 394 Z " /><path fill="rgb(223,203,189)" stroke="rgb(223,203,189)" stroke-width="1" opacity="1" d="M 162.5 395 L 163 397.5 L 162 397.5 L 162.5 395 Z " /><path fill="rgb(223,203,189)" stroke="rgb(223,203,189)" stroke-width="1" opacity="1" d="M 140.5 397 L 141.5 399 L 140.5 397 Z " /><path fill="rgb(223,203,189)" stroke="rgb(223,203,189)" stroke-width="1" opacity="1" d="M 166.5 397 L 167 403.5 L 166 403.5 L 166.5 397 Z " /><path fill="rgb(223,203,189)" stroke="rgb(223,203,189)" stroke-width="1" opacity="1" d="M 142.5 400 L 143.5 402 L 142.5 400 Z " /><path fill="rgb(223,203,189)" stroke="rgb(223,203,189)" stroke-width="1" opacity="1" d="M 138.5 402 L 139.5 404 L 138.5 402 Z " /><path fill="rgb(223,203,189)" stroke="rgb(223,203,189)" stroke-width="1" opacity="1" d="M 373.5 402 L 374 407.5 L 373 407.5 L 373.5 402 Z " /><path fill="rgb(223,203,189)" stroke="rgb(223,203,189)" stroke-width="1" opacity="1" d="M 145.5 404 L 148.5 408 L 145.5 404 Z " /><path fill="rgb(223,203,189)" stroke="rgb(223,203,189)" stroke-width="1" opacity="1" d="M 419.5 404 L 420 408.5 L 419 408.5 L 419.5 404 Z " /><path fill="rgb(223,203,189)" stroke="rgb(223,203,189)" stroke-width="1" opacity="1" d="M 166.5 405 L 167 409.5 L 166 409.5 L 166.5 405 Z " /><path fill="rgb(223,203,189)" stroke="rgb(223,203,189)" stroke-width="1" opacity="1" d="M 141.5 406 L 143.5 409 L 141.5 406 Z " /><path fill="rgb(223,203,189)" stroke="rgb(223,203,189)" stroke-width="1" opacity="1" d="M 162.5 409 L 163 412.5 L 162 412.5 L 162.5 409 Z " /><path fill="rgb(223,203,189)" stroke="rgb(223,203,189)" stroke-width="1" opacity="1" d="M 372.5 412 L 373 415.5 L 372 415.5 L 372.5 412 Z " /><path fill="rgb(223,203,189)" stroke="rgb(223,203,189)" stroke-width="1" opacity="1" d="M 418.5 412 L 419 414.5 L 418 414.5 L 418.5 412 Z " /><path fill="rgb(223,203,189)" stroke="rgb(223,203,189)" stroke-width="1" opacity="1" d="M 147.5 413 L 152.5 419 L 147.5 413 Z " /><path fill="rgb(223,203,189)" stroke="rgb(223,203,189)" stroke-width="1" opacity="1" d="M 467.5 414 L 468 416.5 L 467 416.5 L 467.5 414 Z " /><path fill="rgb(223,203,189)" stroke="rgb(223,203,189)" stroke-width="1" opacity="1" d="M 158.5 417 L 160.5 420 L 158.5 417 Z " /><path fill="rgb(223,203,189)" stroke="rgb(223,203,189)" stroke-width="1" opacity="1" d="M 417.5 417 Q 429.3 423.2 437 433.5 Q 444.8 441.7 447 454 L 449 454.5 L 430.5 472 L 432 469.5 Q 430.4 448.1 417.5 438 L 411.5 434 L 410 434.5 Q 415.8 427.8 417.5 417 Z " /><path fill="rgb(223,203,189)" stroke="rgb(223,203,189)" stroke-width="1" opacity="1" d="M 164.5 419 L 165 420.5 Q 163.5 423.5 162 420.5 L 164 420.5 L 164.5 419 Z " /><path fill="rgb(223,203,189)" stroke="rgb(223,203,189)" stroke-width="1" opacity="1" d="M 371.5 419 L 372 421.5 L 371 421.5 L 371.5 419 Z " /><path fill="rgb(223,203,189)" stroke="rgb(223,203,189)" stroke-width="1" opacity="1" d="M 156.5 421 L 158.5 424 L 156.5 421 Z " /><path fill="rgb(223,203,189)" stroke="rgb(223,203,189)" stroke-width="1" opacity="1" d="M 160.5 424 L 161.5 426 L 160.5 424 Z " /><path fill="rgb(223,203,189)" stroke="rgb(223,203,189)" stroke-width="1" opacity="1" d="M 172.5 428 L 173.5 430 L 172.5 428 Z " /><path fill="rgb(223,203,189)" stroke="rgb(223,203,189)" stroke-width="1" opacity="1" d="M 175.5 433 L 176.5 435 L 175.5 433 Z " /><path fill="rgb(223,203,189)" stroke="rgb(223,203,189)" stroke-width="1" opacity="1" d="M 177.5 436 L 178.5 438 L 177.5 436 Z " /><path fill="rgb(223,203,189)" stroke="rgb(223,203,189)" stroke-width="1" opacity="1" d="M 409.5 436 L 408.5 438 L 409.5 436 Z " /><path fill="rgb(223,203,189)" stroke="rgb(223,203,189)" stroke-width="1" opacity="1" d="M 173.5 438 L 175.5 441 L 173.5 438 Z " /><path fill="rgb(223,203,189)" stroke="rgb(223,203,189)" stroke-width="1" opacity="1" d="M 407.5 439 L 405.5 442 L 407.5 439 Z " /><path fill="rgb(223,203,189)" stroke="rgb(223,203,189)" stroke-width="1" opacity="1" d="M 180.5 440 L 183.5 444 L 180.5 440 Z " /><path fill="rgb(223,203,189)" stroke="rgb(223,203,189)" stroke-width="1" opacity="1" d="M 176.5 442 L 177.5 444 L 176.5 442 Z " /><path fill="rgb(223,203,189)" stroke="rgb(223,203,189)" stroke-width="1" opacity="1" d="M 456.5 443 L 455.5 445 L 456.5 443 Z " /><path fill="rgb(223,203,189)" stroke="rgb(223,203,189)" stroke-width="1" opacity="1" d="M 402.5 445 L 400.5 448 L 402.5 445 Z " /><path fill="rgb(223,203,189)" stroke="rgb(223,203,189)" stroke-width="1" opacity="1" d="M 454.5 446 L 453.5 448 L 454.5 446 Z " /><path fill="rgb(223,203,189)" stroke="rgb(223,203,189)" stroke-width="1" opacity="1" d="M 362.5 449 L 363 450.5 L 359.5 456 L 360 454.5 L 362.5 449 Z " /><path fill="rgb(223,203,189)" stroke="rgb(223,203,189)" stroke-width="1" opacity="1" d="M 396.5 450 L 394.5 453 L 396.5 450 Z " /><path fill="rgb(223,203,189)" stroke="rgb(223,203,189)" stroke-width="1" opacity="1" d="M 451.5 450 L 450.5 452 L 451.5 450 Z " /><path fill="rgb(223,203,189)" stroke="rgb(223,203,189)" stroke-width="1" opacity="1" d="M 193.5 453 L 196.5 457 L 193.5 453 Z " /><path fill="rgb(223,203,189)" stroke="rgb(223,203,189)" stroke-width="1" opacity="1" d="M 392.5 453 L 392 454.5 L 396 469.5 L 396 481.5 L 397 483.5 L 394.5 490 L 377 494 L 379 485.5 L 379 473.5 L 376 461 Q 386.4 460.1 392.5 453 Z " /><path fill="rgb(223,203,189)" stroke="rgb(223,203,189)" stroke-width="1" opacity="1" d="M 156.5 457 L 162 457.5 L 156.5 458 L 156.5 457 Z " /><path fill="rgb(223,203,189)" stroke="rgb(223,203,189)" stroke-width="1" opacity="1" d="M 167.5 457 L 173 457.5 L 167.5 458 L 167.5 457 Z " /><path fill="rgb(223,203,189)" stroke="rgb(223,203,189)" stroke-width="1" opacity="1" d="M 199.5 458 L 207 459.5 L 200.5 460 L 199.5 458 Z " /><path fill="rgb(223,203,189)" stroke="rgb(223,203,189)" stroke-width="1" opacity="1" d="M 159.5 461 L 169 461.5 L 159.5 462 L 159.5 461 Z " /><path fill="rgb(223,203,189)" stroke="rgb(223,203,189)" stroke-width="1" opacity="1" d="M 356.5 461 L 355.5 463 L 356.5 461 Z " /><path fill="rgb(223,203,189)" stroke="rgb(223,203,189)" stroke-width="1" opacity="1" d="M 143.5 462 L 142.5 464 L 143.5 462 Z " /><path fill="rgb(223,203,189)" stroke="rgb(223,203,189)" stroke-width="1" opacity="1" d="M 175.5 462 L 180 462.5 L 175.5 463 L 175.5 462 Z " /><path fill="rgb(223,203,189)" stroke="rgb(223,203,189)" stroke-width="1" opacity="1" d="M 208.5 462 L 207.5 464 L 208.5 462 Z " /><path fill="rgb(223,203,189)" stroke="rgb(223,203,189)" stroke-width="1" opacity="1" d="M 192.5 463 L 203 463.5 L 192.5 464 L 192.5 463 Z " /><path fill="rgb(223,203,189)" stroke="rgb(223,203,189)" stroke-width="1" opacity="1" d="M 116.5 464 L 119 464.5 L 116.5 465 L 116.5 464 Z " /><path fill="rgb(223,203,189)" stroke="rgb(223,203,189)" stroke-width="1" opacity="1" d="M 354.5 464 L 353.5 466 L 354.5 464 Z " /><path fill="rgb(223,203,189)" stroke="rgb(223,203,189)" stroke-width="1" opacity="1" d="M 360.5 464 L 364 464.5 L 360.5 465 L 360.5 464 Z " /><path fill="rgb(223,203,189)" stroke="rgb(223,203,189)" stroke-width="1" opacity="1" d="M 146.5 465 L 145.5 467 L 146.5 465 Z " /><path fill="rgb(223,203,189)" stroke="rgb(223,203,189)" stroke-width="1" opacity="1" d="M 109.5 466 L 106.5 470 L 109.5 466 Z " /><path fill="rgb(223,203,189)" stroke="rgb(223,203,189)" stroke-width="1" opacity="1" d="M 358.5 466 L 357.5 468 L 358.5 466 Z " /><path fill="rgb(223,203,189)" stroke="rgb(223,203,189)" stroke-width="1" opacity="1" d="M 352.5 467 L 350.5 470 L 352.5 467 Z " /><path fill="rgb(223,203,189)" stroke="rgb(223,203,189)" stroke-width="1" opacity="1" d="M 356.5 469 L 355.5 471 L 356.5 469 Z " /><path fill="rgb(223,203,189)" stroke="rgb(223,203,189)" stroke-width="1" opacity="1" d="M 349.5 471 L 346.5 475 L 349.5 471 Z " /><path fill="rgb(223,203,189)" stroke="rgb(223,203,189)" stroke-width="1" opacity="1" d="M 428.5 472 L 427.5 474 L 428.5 472 Z " /><path fill="rgb(223,203,189)" stroke="rgb(223,203,189)" stroke-width="1" opacity="1" d="M 353.5 473 L 351.5 476 L 353.5 473 Z " /><path fill="rgb(223,203,189)" stroke="rgb(223,203,189)" stroke-width="1" opacity="1" d="M 425.5 474 L 424.5 476 L 425.5 474 Z " /><path fill="rgb(223,203,189)" stroke="rgb(223,203,189)" stroke-width="1" opacity="1" d="M 422.5 476 L 421.5 478 L 422.5 476 Z " /><path fill="rgb(223,203,189)" stroke="rgb(223,203,189)" stroke-width="1" opacity="1" d="M 137.5 477 L 138 487.5 L 137 487.5 L 137.5 477 Z " /><path fill="rgb(223,203,189)" stroke="rgb(223,203,189)" stroke-width="1" opacity="1" d="M 344.5 477 L 336.5 486 L 344.5 477 Z " /><path fill="rgb(223,203,189)" stroke="rgb(223,203,189)" stroke-width="1" opacity="1" d="M 348.5 479 L 338.5 490 L 348.5 479 Z " /><path fill="rgb(223,203,189)" stroke="rgb(223,203,189)" stroke-width="1" opacity="1" d="M 415.5 480 L 414.5 482 L 413 481.5 L 415.5 480 Z " /><path fill="rgb(223,203,189)" stroke="rgb(223,203,189)" stroke-width="1" opacity="1" d="M 333.5 487 L 330.5 491 L 333.5 487 Z " /><path fill="rgb(223,203,189)" stroke="rgb(223,203,189)" stroke-width="1" opacity="1" d="M 142.5 488 L 143 490.5 L 142 490.5 L 142.5 488 Z " /><path fill="rgb(223,203,189)" stroke="rgb(223,203,189)" stroke-width="1" opacity="1" d="M 328.5 491 L 327.5 493 L 328.5 491 Z " /><path fill="rgb(223,203,189)" stroke="rgb(223,203,189)" stroke-width="1" opacity="1" d="M 334.5 492 L 332.5 495 L 334.5 492 Z " /><path fill="rgb(223,203,189)" stroke="rgb(223,203,189)" stroke-width="1" opacity="1" d="M 143.5 493 L 146.5 497 L 148 497.5 L 146.5 498 L 143 494.5 L 143.5 493 Z " /><path fill="rgb(223,203,189)" stroke="rgb(223,203,189)" stroke-width="1" opacity="1" d="M 373.5 494 L 376 494.5 L 373.5 495 L 373.5 494 Z " /><path fill="rgb(223,203,189)" stroke="rgb(223,203,189)" stroke-width="1" opacity="1" d="M 106.5 495 L 107.5 497 L 106.5 495 Z " /><path fill="rgb(223,203,189)" stroke="rgb(223,203,189)" stroke-width="1" opacity="1" d="M 330.5 495 L 329.5 497 L 330.5 495 Z " /><path fill="rgb(223,203,189)" stroke="rgb(223,203,189)" stroke-width="1" opacity="1" d="M 367.5 495 L 370 495.5 L 367.5 496 L 367.5 495 Z " /><path fill="rgb(223,203,189)" stroke="rgb(223,203,189)" stroke-width="1" opacity="1" d="M 357.5 496 L 363 496.5 L 357.5 497 L 357.5 496 Z " /><path fill="rgb(223,203,189)" stroke="rgb(223,203,189)" stroke-width="1" opacity="1" d="M 126.5 497 L 141 497.5 L 126.5 498 L 126.5 497 Z " /><path fill="rgb(223,203,189)" stroke="rgb(223,203,189)" stroke-width="1" opacity="1" d="M 311.5 497 L 316 497.5 L 311.5 498 L 311.5 497 Z " /><path fill="rgb(223,203,189)" stroke="rgb(223,203,189)" stroke-width="1" opacity="1" d="M 332.5 497 L 347 497.5 L 332.5 498 L 332.5 497 Z " /><path fill="rgb(105,97,93)" stroke="rgb(105,97,93)" stroke-width="1" opacity="0.9411764705882353" d="M 231.5 10 Q 239.5 8.5 241 13.5 L 243 21.5 L 243 28.5 L 244 29.5 L 248 63.5 L 255 76.5 L 266 105.5 L 268 115.5 L 268 123.5 L 269 124.5 L 269 133.5 L 268 136.5 L 268 143.5 L 263 161.5 L 252 182.5 Q 258.1 213.9 277.5 232 L 289.5 242 L 315.5 257 L 339 277.5 Q 358.3 298.2 369 327.5 L 374 344.5 L 378 367.5 L 379 400.5 L 378 401.5 L 378 411.5 L 377 412.5 L 375 429.5 L 370 445.5 L 363 459.5 L 364.5 460 L 379.5 456 L 398 443.5 L 400 440.5 L 405 435.5 L 413 418.5 L 415 409.5 L 415 389.5 L 412 376.5 L 402 355.5 L 401 344.5 L 405 336 L 412.5 332 L 426.5 332 Q 445.8 338.2 457 352.5 Q 467.3 364.7 472 382.5 L 473 393.5 L 474 394.5 L 474 406.5 L 471 422.5 L 467 433.5 Q 459.6 450.6 447.5 463 L 444 465.5 L 444 467 L 442 467 Q 443.1 469.7 440.5 469 L 431.5 477 L 414.5 487 L 390.5 496 L 372.5 500 L 356.5 501 L 355.5 502 L 323.5 502 L 318.5 501 L 317.5 502 L 107.5 502 L 102 497.5 L 99 485.5 L 99 476.5 L 102 467.5 L 106.5 463 L 112.5 460 L 128 459 L 128 386.5 L 119 370.5 L 108.5 345 Q 90.8 337.8 80 323.5 L 59.5 287 L 50 279.5 L 46 271.5 L 46 265.5 L 48 261.5 Q 39.3 255.7 38 242.5 L 42.5 235 L 88 201.5 L 81.5 196 L 75.5 199 L 74 195.5 L 79 191.5 Q 71.1 183.7 68 173 L 63.5 174 L 61 173 L 60 170.5 L 66 167.5 L 64 164.5 L 61 151.5 L 60 132.5 L 59 131.5 L 59 106.5 L 48 51.5 L 50.5 47 L 56.5 45 L 89.5 64 L 110.5 52 L 136.5 43 L 157.5 39 L 165.5 39 L 166.5 38 L 193.5 38 L 194.5 39 L 208 40 L 210 35.5 L 229.5 11 L 231.5 10 Z M 234 14 L 209 45 L 199 43 L 189 43 L 188 42 L 161 43 L 132 49 Q 109 56 92 68 L 88 68 L 58 50 Q 54 49 53 52 L 53 58 L 63 104 L 63 125 L 64 126 L 65 148 L 67 159 L 72 169 L 74 168 L 88 168 L 89 167 L 103 167 L 105 166 L 106 170 L 101 171 L 73 172 L 74 177 L 84 190 L 107 177 L 108 180 L 89 191 L 86 194 L 92 199 L 96 198 Q 110 188 127 180 L 136 177 L 144 178 L 149 186 L 153 206 L 153 229 L 152 230 L 152 241 L 151 242 L 150 254 L 154 257 L 167 264 L 181 269 L 191 271 L 196 271 L 223 244 Q 227 242 226 247 L 197 275 L 185 274 L 169 269 L 153 261 L 137 250 L 125 249 Q 119 253 117 261 L 113 278 L 114 291 Q 117 295 124 297 L 140 298 L 157 302 L 198 316 L 250 304 L 251 307 L 247 309 L 200 320 L 157 306 L 140 302 L 137 304 L 123 303 L 103 296 L 105 317 L 116 353 Q 128 381 145 405 L 161 420 L 165 422 L 162 409 L 162 399 L 166 383 Q 173 367 183 356 Q 197 340 216 329 L 217 333 L 201 344 Q 186 356 176 372 Q 169 382 166 398 L 167 416 Q 171 430 180 441 L 201 460 L 208 460 Q 211 462 207 464 L 203 463 L 181 463 L 180 462 L 170 462 L 169 461 L 154 462 L 147 465 L 142 475 L 142 491 L 143 495 L 147 498 L 316 498 Q 328 494 337 486 Q 353 471 363 451 L 369 435 L 374 408 L 374 372 L 368 340 Q 359 308 341 287 L 322 267 Q 308 256 291 248 L 279 239 Q 255 220 249 186 L 242 192 L 239 191 Q 249 180 256 167 L 262 151 L 264 141 L 264 118 L 263 113 Q 256 86 244 66 L 237 16 L 234 14 Z M 137 181 Q 116 188 101 199 L 55 231 L 59 238 L 70 247 Q 72 248 71 246 L 78 240 Q 84 239 88 241 Q 93 243 94 250 Q 95 257 91 261 L 110 271 L 113 260 L 118 250 L 126 244 L 138 246 L 146 250 L 147 249 L 148 232 L 142 229 L 135 221 Q 134 212 138 209 Q 141 203 148 204 Q 148 193 144 185 Q 143 180 137 181 Z M 147 208 L 143 210 L 139 217 L 140 222 Q 142 226 148 226 L 149 223 L 148 220 L 148 209 L 147 208 Z M 52 235 L 50 236 L 43 244 Q 69 271 109 285 L 109 275 Q 84 265 65 249 L 52 235 Z M 80 244 L 78 245 L 74 250 L 87 258 Q 91 256 89 249 Q 87 243 80 244 Z M 51 265 L 50 268 L 52 275 Q 57 282 65 285 L 75 308 L 84 322 Q 93 333 107 339 L 101 316 L 99 295 L 75 281 L 51 265 Z M 416 336 L 411 338 Q 406 341 405 347 L 407 357 L 416 375 L 420 395 L 420 404 L 417 421 Q 413 434 405 443 Q 395 453 382 460 L 368 464 L 361 464 L 351 477 Q 342 488 329 497 L 333 498 L 363 497 L 392 491 Q 417 483 436 468 Q 448 458 457 444 Q 466 430 469 411 L 469 391 L 466 378 Q 461 364 453 355 Q 444 344 431 338 L 424 336 L 416 336 Z M 133 394 L 132 463 L 117 464 L 110 466 L 104 474 Q 102 487 106 496 L 110 498 L 141 498 L 138 491 Q 136 475 141 466 L 150 459 L 162 458 L 163 457 L 176 458 L 178 449 L 178 444 Q 171 438 169 429 L 156 421 Q 142 409 133 394 Z M 183 450 L 180 458 L 189 458 L 190 459 L 192 459 L 183 450 Z " /><path fill="rgb(105,97,93)" stroke="rgb(105,97,93)" stroke-width="1" opacity="0.9411764705882353" d="M 171.5 118 Q 177.7 117.3 179 121.5 Q 180.5 128.5 176.5 130 L 171.5 131 L 167 127.5 L 166 123.5 L 169.5 119 L 171.5 118 Z " /><path fill="rgb(105,97,93)" stroke="rgb(105,97,93)" stroke-width="1" opacity="0.9411764705882353" d="M 135.5 133 Q 141.3 132.2 143 135.5 Q 145.3 138.7 144 145.5 L 140 153.5 L 142 161.5 L 144.5 165 L 149.5 166 L 156 165 L 154.5 169 L 146.5 170 L 141.5 167 L 136.5 172 L 128.5 174 L 127 170 Q 133.6 170.3 137 166.5 L 138 159.5 L 137 154.5 L 134.5 152 L 130 148.5 L 127 138.5 L 129.5 135 L 135.5 133 Z " /><path fill="rgb(105,97,93)" stroke="rgb(105,97,93)" stroke-width="1" opacity="0.9411764705882353" d="M 92.5 134 L 97 136 Q 98.6 138.1 98 143.5 Q 97.5 147.5 92.5 147 L 88 143.5 Q 86.5 136.5 90.5 135 L 92.5 134 Z " /><path fill="rgb(105,97,93)" stroke="rgb(105,97,93)" stroke-width="1" opacity="0.9411764705882353" d="M 201.5 135 L 203 139 L 169.5 157 L 168 153 L 201.5 135 Z " /><path fill="rgb(105,97,93)" stroke="rgb(105,97,93)" stroke-width="1" opacity="0.9411764705882353" d="M 207.5 159 L 210 160.5 L 208.5 163 L 174.5 168 L 173.5 169 L 171 168 Q 169.3 163.9 173.5 165 L 207.5 159 Z " /><path fill="rgb(105,97,93)" stroke="rgb(105,97,93)" stroke-width="1" opacity="0.9411764705882353" d="M 124.5 199 Q 127.8 199.8 127 204.5 L 124.5 206 L 122 201.5 L 124.5 199 Z " /><path fill="rgb(105,97,93)" stroke="rgb(105,97,93)" stroke-width="1" opacity="0.9411764705882353" d="M 101.5 203 Q 111.5 202.5 115 208.5 L 118 216.5 L 116 223.5 L 111.5 228 Q 108.2 231.2 100.5 230 L 92 223.5 L 90 216.5 Q 91.2 208.7 96.5 205 L 101.5 203 Z M 101 208 L 99 209 L 95 215 L 96 222 L 104 226 L 110 224 L 113 219 Q 114 212 111 210 L 108 208 L 101 208 Z " /><path fill="rgb(105,97,93)" stroke="rgb(105,97,93)" stroke-width="1" opacity="0.9411764705882353" d="M 78.5 225 Q 81.8 223.9 81 226.5 L 81 228.5 L 79.5 231 Q 74.9 232.3 77 226.5 L 78.5 225 Z " /><path fill="rgb(105,97,93)" stroke="rgb(105,97,93)" stroke-width="1" opacity="0.9411764705882353" d="M 124.5 232 L 128 233.5 L 126.5 237 L 123.5 238 L 122 234.5 L 124.5 232 Z " /><path fill="rgb(105,97,93)" stroke="rgb(105,97,93)" stroke-width="1" opacity="0.9411764705882353" d="M 104.5 257 Q 108.5 256.5 109 259.5 L 107.5 263 L 104 261.5 L 103 258.5 L 104.5 257 Z " /><path fill="rgb(233,233,233)" stroke="rgb(233,233,233)" stroke-width="1" opacity="1" d="M 229.5 19 L 228.5 21 L 229.5 19 Z " /><path fill="rgb(233,233,233)" stroke="rgb(233,233,233)" stroke-width="1" opacity="1" d="M 222.5 28 L 221.5 30 L 222.5 28 Z " /><path fill="rgb(233,233,233)" stroke="rgb(233,233,233)" stroke-width="1" opacity="1" d="M 215.5 37 L 214.5 39 L 215.5 37 Z " /><path fill="rgb(233,233,233)" stroke="rgb(233,233,233)" stroke-width="1" opacity="1" d="M 54.5 50 L 53.5 52 L 54.5 50 Z " /><path fill="rgb(233,233,233)" stroke="rgb(233,233,233)" stroke-width="1" opacity="1" d="M 63.5 105 L 64 110.5 L 63 110.5 L 63.5 105 Z " /><path fill="rgb(233,233,233)" stroke="rgb(233,233,233)" stroke-width="1" opacity="1" d="M 203.5 138 L 202.5 140 L 203.5 138 Z " /><path fill="rgb(233,233,233)" stroke="rgb(233,233,233)" stroke-width="1" opacity="1" d="M 168.5 152 L 167.5 154 L 168.5 152 Z " /><path fill="rgb(233,233,233)" stroke="rgb(233,233,233)" stroke-width="1" opacity="1" d="M 106.5 169 L 105.5 171 L 106.5 169 Z " /><path fill="rgb(233,233,233)" stroke="rgb(233,233,233)" stroke-width="1" opacity="1" d="M 137.5 176 L 140 176.5 L 137.5 177 L 137.5 176 Z " /><path fill="rgb(233,233,233)" stroke="rgb(233,233,233)" stroke-width="1" opacity="1" d="M 144.5 178 L 146.5 181 L 144.5 178 Z " /><path fill="rgb(233,233,233)" stroke="rgb(233,233,233)" stroke-width="1" opacity="1" d="M 244.5 182 L 243.5 184 L 244.5 182 Z " /><path fill="rgb(233,233,233)" stroke="rgb(233,233,233)" stroke-width="1" opacity="1" d="M 80.5 185 L 81.5 187 L 80.5 185 Z " /><path fill="rgb(233,233,233)" stroke="rgb(233,233,233)" stroke-width="1" opacity="1" d="M 264.5 224 L 265.5 226 L 264.5 224 Z " /><path fill="rgb(233,233,233)" stroke="rgb(233,233,233)" stroke-width="1" opacity="1" d="M 268.5 229 L 278.5 240 L 268.5 229 Z " /><path fill="rgb(233,233,233)" stroke="rgb(233,233,233)" stroke-width="1" opacity="1" d="M 282.5 242 L 283.5 244 L 282.5 242 Z " /><path fill="rgb(233,233,233)" stroke="rgb(233,233,233)" stroke-width="1" opacity="1" d="M 221.5 244 L 210.5 256 L 221.5 244 Z " /><path fill="rgb(233,233,233)" stroke="rgb(233,233,233)" stroke-width="1" opacity="1" d="M 221.5 251 L 209.5 264 L 221.5 251 Z " /><path fill="rgb(233,233,233)" stroke="rgb(233,233,233)" stroke-width="1" opacity="1" d="M 151.5 254 L 152.5 256 L 151.5 254 Z " /><path fill="rgb(233,233,233)" stroke="rgb(233,233,233)" stroke-width="1" opacity="1" d="M 148.5 258 L 149.5 260 L 148.5 258 Z " /><path fill="rgb(233,233,233)" stroke="rgb(233,233,233)" stroke-width="1" opacity="1" d="M 319.5 266 L 320.5 268 L 319.5 266 Z " /><path fill="rgb(233,233,233)" stroke="rgb(233,233,233)" stroke-width="1" opacity="1" d="M 325.5 271 Q 351 293.5 364 328.5 L 370 349.5 L 372 366.5 L 373 367.5 L 374 401.5 L 373 402.5 L 373 411.5 L 372 412.5 L 371 424.5 L 365 444.5 Q 354.2 470.2 334.5 487 L 320.5 496 L 310.5 498 L 148.5 498 L 144 494.5 L 142 487.5 L 142 481 L 298.5 481 L 311.5 476 L 327 462.5 Q 326.3 460.3 328.5 461 Q 344.7 443.7 353 418.5 L 357 401.5 L 358 386.5 L 359 385.5 L 359 357.5 L 358 356.5 L 358 347.5 L 355 330.5 L 345 299.5 L 335 281.5 L 325.5 271 Z " /><path fill="rgb(233,233,233)" stroke="rgb(233,233,233)" stroke-width="1" opacity="1" d="M 54.5 276 L 59.5 282 L 54.5 276 Z " /><path fill="rgb(233,233,233)" stroke="rgb(233,233,233)" stroke-width="1" opacity="1" d="M 115.5 291 L 117.5 294 L 115.5 291 Z " /><path fill="rgb(233,233,233)" stroke="rgb(233,233,233)" stroke-width="1" opacity="1" d="M 88.5 325 L 90.5 328 L 88.5 325 Z " /><path fill="rgb(233,233,233)" stroke="rgb(233,233,233)" stroke-width="1" opacity="1" d="M 95.5 331 L 96.5 333 L 95.5 331 Z " /><path fill="rgb(233,233,233)" stroke="rgb(233,233,233)" stroke-width="1" opacity="1" d="M 208.5 332 L 207.5 334 L 208.5 332 Z " /><path fill="rgb(233,233,233)" stroke="rgb(233,233,233)" stroke-width="1" opacity="1" d="M 416.5 337 L 425.5 337 L 437.5 342 L 453 355.5 Q 462.8 366.7 467 383.5 L 465.5 384 Q 457.6 375.4 444 372.5 L 446 372 Q 440.5 355.3 427.5 345 L 416.5 338 L 416.5 337 Z " /><path fill="rgb(233,233,233)" stroke="rgb(233,233,233)" stroke-width="1" opacity="1" d="M 200.5 338 L 199.5 340 L 200.5 338 Z " /><path fill="rgb(233,233,233)" stroke="rgb(233,233,233)" stroke-width="1" opacity="1" d="M 207.5 339 L 206.5 341 L 207.5 339 Z " /><path fill="rgb(233,233,233)" stroke="rgb(233,233,233)" stroke-width="1" opacity="1" d="M 194.5 343 L 182.5 356 L 194.5 343 Z " /><path fill="rgb(233,233,233)" stroke="rgb(233,233,233)" stroke-width="1" opacity="1" d="M 202.5 343 L 201.5 345 L 202.5 343 Z " /><path fill="rgb(233,233,233)" stroke="rgb(233,233,233)" stroke-width="1" opacity="1" d="M 194.5 350 L 189.5 356 L 194.5 350 Z " /><path fill="rgb(233,233,233)" stroke="rgb(233,233,233)" stroke-width="1" opacity="1" d="M 179.5 359 L 178.5 361 L 179.5 359 Z " /><path fill="rgb(233,233,233)" stroke="rgb(233,233,233)" stroke-width="1" opacity="1" d="M 184.5 361 L 183.5 363 L 184.5 361 Z " /><path fill="rgb(233,233,233)" stroke="rgb(233,233,233)" stroke-width="1" opacity="1" d="M 417.5 369 L 434 369.5 L 417.5 370 L 417.5 369 Z " /><path fill="rgb(233,233,233)" stroke="rgb(233,233,233)" stroke-width="1" opacity="1" d="M 436.5 370 L 440 370.5 L 436.5 371 L 436.5 370 Z " /><path fill="rgb(233,233,233)" stroke="rgb(233,233,233)" stroke-width="1" opacity="1" d="M 420.5 387 L 431 387.5 L 420 388 L 419.5 390 L 419 388.5 L 420.5 387 Z " /><path fill="rgb(233,233,233)" stroke="rgb(233,233,233)" stroke-width="1" opacity="1" d="M 433.5 388 L 436 388.5 L 433.5 389 L 433.5 388 Z " /><path fill="rgb(233,233,233)" stroke="rgb(233,233,233)" stroke-width="1" opacity="1" d="M 437.5 389 L 440 389.5 L 437.5 390 L 437.5 389 Z " /><path fill="rgb(233,233,233)" stroke="rgb(233,233,233)" stroke-width="1" opacity="1" d="M 441.5 390 L 450 394.5 L 448.5 394 L 441.5 391 L 441.5 390 Z " /><path fill="rgb(233,233,233)" stroke="rgb(233,233,233)" stroke-width="1" opacity="1" d="M 451.5 395 L 462 404.5 L 468 413.5 Q 462.9 438.4 448.5 454 Q 445.9 454.8 447 451.5 L 440 438.5 L 442 438 L 450 416.5 L 452 396.5 L 451.5 395 Z " /><path fill="rgb(233,233,233)" stroke="rgb(233,233,233)" stroke-width="1" opacity="1" d="M 144.5 402 L 145.5 404 L 144.5 402 Z " /><path fill="rgb(233,233,233)" stroke="rgb(233,233,233)" stroke-width="1" opacity="1" d="M 149.5 408 L 157.5 417 L 149.5 408 Z " /><path fill="rgb(233,233,233)" stroke="rgb(233,233,233)" stroke-width="1" opacity="1" d="M 143.5 409 L 146.5 413 L 143.5 409 Z " /><path fill="rgb(233,233,233)" stroke="rgb(233,233,233)" stroke-width="1" opacity="1" d="M 418.5 417 L 421 418.5 L 419.5 418 L 418.5 417 Z " /><path fill="rgb(233,233,233)" stroke="rgb(233,233,233)" stroke-width="1" opacity="1" d="M 153.5 419 L 155.5 422 L 153.5 419 Z " /><path fill="rgb(233,233,233)" stroke="rgb(233,233,233)" stroke-width="1" opacity="1" d="M 422.5 419 L 433 427.5 L 440 436.5 L 437 434.5 L 425.5 422 L 422.5 419 Z " /><path fill="rgb(233,233,233)" stroke="rgb(233,233,233)" stroke-width="1" opacity="1" d="M 411.5 434 L 416 437.5 L 413.5 436 L 411.5 435 L 410 435.5 L 411.5 434 Z " /><path fill="rgb(233,233,233)" stroke="rgb(233,233,233)" stroke-width="1" opacity="1" d="M 179.5 438 L 180.5 440 L 179.5 438 Z " /><path fill="rgb(233,233,233)" stroke="rgb(233,233,233)" stroke-width="1" opacity="1" d="M 417.5 438 L 424 445.5 L 420 442.5 L 418.5 440 Q 415.7 440.7 417.5 438 Z " /><path fill="rgb(233,233,233)" stroke="rgb(233,233,233)" stroke-width="1" opacity="1" d="M 405.5 442 L 403.5 445 L 405.5 442 Z " /><path fill="rgb(233,233,233)" stroke="rgb(233,233,233)" stroke-width="1" opacity="1" d="M 184.5 444 L 192.5 453 L 184.5 444 Z " /><path fill="rgb(233,233,233)" stroke="rgb(233,233,233)" stroke-width="1" opacity="1" d="M 424.5 447 L 427 450.5 L 425 449.5 L 424.5 447 Z " /><path fill="rgb(233,233,233)" stroke="rgb(233,233,233)" stroke-width="1" opacity="1" d="M 399.5 448 L 397.5 451 L 399.5 448 Z " /><path fill="rgb(233,233,233)" stroke="rgb(233,233,233)" stroke-width="1" opacity="1" d="M 428.5 454 L 432 464.5 L 432 469.5 L 420.5 478 L 396.5 489 L 396 484.5 L 397 482.5 L 396 481.5 L 396 470.5 L 397 470.5 L 397.5 481 Q 413.6 472.1 426 459.5 L 428.5 454 Z " /><path fill="rgb(233,233,233)" stroke="rgb(233,233,233)" stroke-width="1" opacity="1" d="M 197.5 456 L 198.5 458 L 197.5 456 Z " /><path fill="rgb(233,233,233)" stroke="rgb(233,233,233)" stroke-width="1" opacity="1" d="M 394.5 461 L 395 463.5 L 394 463.5 L 394.5 461 Z " /><path fill="rgb(233,233,233)" stroke="rgb(233,233,233)" stroke-width="1" opacity="1" d="M 374.5 462 Q 376.8 461.3 376 463.5 L 374.5 462 Z " /><path fill="rgb(233,233,233)" stroke="rgb(233,233,233)" stroke-width="1" opacity="1" d="M 395.5 465 L 396 468.5 L 395 468.5 L 395.5 465 Z " /><path fill="rgb(233,233,233)" stroke="rgb(233,233,233)" stroke-width="1" opacity="1" d="M 377.5 468 L 378 471.5 L 377 471.5 L 377.5 468 Z " /><path fill="rgb(233,233,233)" stroke="rgb(233,233,233)" stroke-width="1" opacity="1" d="M 378.5 473 L 379 485.5 L 378 485.5 L 378.5 473 Z " /><path fill="rgb(233,233,233)" stroke="rgb(233,233,233)" stroke-width="1" opacity="1" d="M 351.5 476 L 349.5 479 L 351.5 476 Z " /><path fill="rgb(233,233,233)" stroke="rgb(233,233,233)" stroke-width="1" opacity="1" d="M 377.5 488 L 378 489.5 L 377 494 L 366.5 496 L 344.5 497 L 344.5 496 L 351.5 496 L 377 490 L 377.5 488 Z " /><path fill="rgb(233,233,233)" stroke="rgb(233,233,233)" stroke-width="1" opacity="1" d="M 337.5 490 L 335.5 493 L 337.5 490 Z " /><path fill="rgb(233,233,233)" stroke="rgb(233,233,233)" stroke-width="1" opacity="1" d="M 113.5 497 L 126 497.5 L 113.5 498 L 113.5 497 Z " /><path fill="rgb(234,234,234)" stroke="rgb(234,234,234)" stroke-width="1" opacity="1" d="M 233.5 15 L 237 16.5 L 243 65.5 Q 254.9 85.6 262 110.5 L 263 122.5 L 264 123.5 L 264 134.5 L 263 135.5 L 262 147.5 L 257 162.5 Q 250.2 177.7 239 188.5 L 239 191.5 L 241.5 193 L 248 187.5 Q 255.3 221.7 278.5 240 L 292.5 250 L 316.5 264 L 335 281.5 L 345 299.5 L 355 330.5 L 358 347.5 L 358 356.5 L 359 357.5 L 359 385.5 L 358 386.5 L 358 394.5 L 355 411.5 L 349 429.5 Q 340.9 447.4 328.5 461 Q 326.3 460.3 327 462.5 L 311.5 476 L 298.5 481 L 142 481 Q 142.4 472 146 466 Q 154.9 459.7 173.5 462 L 174.5 463 L 189.5 463 L 190.5 464 L 209 464 Q 210 460.2 207.5 459 L 200.5 459 L 181 440.5 Q 172.4 430.6 168 416.5 Q 165.3 408.2 167 395.5 Q 169.3 383.3 175 374.5 Q 185.5 357.5 200.5 345 L 213.5 335 L 217 334 L 218 330.5 Q 217.3 328.3 213.5 329 Q 195.6 340.1 182 355.5 Q 172.2 366.2 166 380.5 L 162 394.5 L 162 413.5 L 165 421.5 L 161.5 419 L 146 404.5 Q 127.6 380.9 116 350.5 L 107 322.5 L 104 305.5 L 104 297 L 125.5 304 L 137.5 304 L 141.5 303 L 157.5 307 L 191.5 319 L 202.5 320 L 245.5 309 L 249.5 309 L 251 307.5 L 251 304 L 244.5 304 L 201.5 315 L 196.5 315 L 147.5 299 L 122.5 296 L 115 290.5 L 114 288.5 L 114 274.5 L 119 257.5 L 125.5 249 L 139.5 252 L 149.5 260 L 171.5 271 L 187.5 275 L 197.5 275 L 227 246.5 L 226 243 L 221.5 244 L 195.5 270 L 187.5 270 Q 165.4 265.6 151 253.5 L 152 236.5 L 153 235.5 L 153 200.5 L 150 186.5 L 144.5 178 L 137.5 176 L 122.5 181 L 102.5 192 L 94.5 198 L 91.5 198 L 87 193.5 L 88.5 192 L 103.5 184 L 109 179.5 L 106.5 176 L 83.5 189 Q 76.6 182.4 74 173 L 80.5 172 L 105.5 171 L 107 169.5 L 105.5 166 L 71 168 L 66 150.5 L 65 131.5 L 64 130.5 L 64 105.5 L 53 52.5 Q 54.8 48.3 56.5 51 L 82.5 66 L 88.5 69 L 91.5 69 Q 108.4 56.9 130.5 50 L 166.5 43 L 193.5 43 L 194.5 44 L 209.5 45 L 233.5 15 Z M 170 118 Q 164 120 166 128 L 173 132 L 177 131 L 180 127 L 179 121 Q 177 116 170 118 Z M 133 133 L 127 137 Q 126 146 130 150 L 135 153 Q 138 157 137 166 L 135 168 L 128 170 L 126 170 L 126 174 L 137 173 L 142 168 L 145 170 Q 153 171 157 168 L 156 164 L 152 165 Q 146 166 144 164 L 141 156 L 141 153 L 145 145 L 144 136 L 142 133 L 133 133 Z M 91 134 L 87 138 L 88 145 Q 89 148 96 147 L 99 143 L 97 135 L 91 134 Z M 200 135 L 167 154 L 169 157 L 176 155 L 203 140 L 204 137 Q 203 134 200 135 Z M 204 159 L 177 164 Q 168 162 171 169 L 204 165 L 210 163 L 210 159 L 204 159 Z " /><path fill="rgb(234,234,234)" stroke="rgb(234,234,234)" stroke-width="1" opacity="1" d="M 51 266 L 53.5 266 Q 64.4 276.6 78.5 284 L 99 294 L 100 313.5 L 106 337.5 L 104.5 337 Q 91.9 331.1 84 320.5 L 78 311.5 L 65 284 L 61.5 283 L 53 274.5 Q 50.2 271.5 51 266 Z " /><path fill="rgb(234,234,234)" stroke="rgb(234,234,234)" stroke-width="1" opacity="1" d="M 414.5 337 Q 427.4 342.1 435 352.5 Q 442.5 360.8 446 372 L 433.5 369 L 417.5 369 L 414 370 L 407 354.5 L 406 345.5 L 410.5 339 L 414.5 337 Z " /><path fill="rgb(234,234,234)" stroke="rgb(234,234,234)" stroke-width="1" opacity="1" d="M 420 388 Q 441.2 386.6 452 396.5 L 450 416.5 L 442 438 Q 439.3 439.1 440 436.5 L 431.5 426 L 418 416.5 L 420 409.5 L 420 388 Z " /><path fill="rgb(234,234,234)" stroke="rgb(234,234,234)" stroke-width="1" opacity="1" d="M 133.5 396 Q 142.4 411.1 155.5 422 L 168 429 L 178 445.5 L 174.5 458 L 173.5 457 L 155.5 457 L 144.5 461 L 141 464.5 L 137 476.5 L 137 488.5 L 139 497 L 113.5 497 L 112.5 498 L 107 495.5 L 104 485.5 L 104 476.5 Q 104.9 469.9 109.5 467 L 113.5 465 L 131.5 464 L 133 462.5 L 133.5 396 Z " /><path fill="rgb(234,234,234)" stroke="rgb(234,234,234)" stroke-width="1" opacity="1" d="M 411.5 435 L 417 438 Q 415.9 440.7 418.5 440 L 427 451.5 L 428 456.5 L 420.5 465 L 397.5 481 Q 397.6 464.9 392 454.5 L 406 442.5 L 411.5 435 Z " /><path fill="rgb(234,234,234)" stroke="rgb(234,234,234)" stroke-width="1" opacity="1" d="M 371.5 463 Q 375.3 462.3 376 464.5 L 378 472.5 L 378 487.5 L 377 490 L 351.5 496 L 330.5 497 L 330.5 496 L 335.5 493 L 352 476.5 L 360.5 465 L 371.5 463 Z " /></svg>