<svg width="512" height="512" version="1.1" xmlns="http://www.w3.org/2000/svg" desc="Created with imagetracer.js version 1.2.6" ><path fill="rgb(224,224,222)" stroke="rgb(224,224,222)" stroke-width="1" opacity="1" d="M 151.5 18 L 152.5 20 L 151.5 18 Z " /><path fill="rgb(224,224,222)" stroke="rgb(224,224,222)" stroke-width="1" opacity="1" d="M 162.5 30 L 163.5 32 L 162.5 30 Z " /><path fill="rgb(224,224,222)" stroke="rgb(224,224,222)" stroke-width="1" opacity="1" d="M 173.5 42 L 176.5 46 L 173.5 42 Z " /><path fill="rgb(224,224,222)" stroke="rgb(224,224,222)" stroke-width="1" opacity="1" d="M 176.5 86 L 177.5 88 L 176.5 86 Z " /><path fill="rgb(224,224,222)" stroke="rgb(224,224,222)" stroke-width="1" opacity="1" d="M 256.5 104 L 257 106.5 L 256 106.5 L 256.5 104 Z " /><path fill="rgb(224,224,222)" stroke="rgb(224,224,222)" stroke-width="1" opacity="1" d="M 82.5 130 L 85 130.5 L 82.5 131 L 82.5 130 Z " /><path fill="rgb(224,224,222)" stroke="rgb(224,224,222)" stroke-width="1" opacity="1" d="M 208.5 150 L 209.5 152 L 208.5 150 Z " /><path fill="rgb(224,224,222)" stroke="rgb(224,224,222)" stroke-width="1" opacity="1" d="M 224.5 152 L 225.5 154 L 224.5 152 Z " /><path fill="rgb(224,224,222)" stroke="rgb(224,224,222)" stroke-width="1" opacity="1" d="M 72.5 155 L 74.5 158 L 72.5 155 Z " /><path fill="rgb(224,224,222)" stroke="rgb(224,224,222)" stroke-width="1" opacity="1" d="M 310.5 183 L 305.5 189 L 310.5 183 Z " /><path fill="rgb(224,224,222)" stroke="rgb(224,224,222)" stroke-width="1" opacity="1" d="M 104.5 299 L 105 303.5 L 104 304.5 L 104 314.5 L 103 315.5 L 103 358.5 L 104 359.5 L 104 367.5 L 105 368.5 L 107 385.5 L 115 410.5 Q 123.3 430.3 138.5 443 L 152.5 449 L 286.5 449 Q 302.1 445.1 310 433.5 L 322 414.5 L 327 402.5 L 332 384.5 L 334 367.5 L 335 366.5 L 335 357.5 L 336 356.5 L 336 317.5 L 335 316.5 L 334 300.5 L 335 300.5 L 337 317.5 L 338 318.5 L 338 325.5 L 339 326.5 L 339 335.5 L 340 336.5 L 340 378.5 L 339 379.5 L 339 387.5 L 338 388.5 L 337 399.5 L 329 425.5 Q 320.9 446.4 305.5 460 L 299.5 464 L 298 454 L 294 454 L 294 463.5 L 300 477.5 L 301 488.5 L 298.5 494 L 290.5 497 Q 282.2 495.7 277.5 498 L 261.5 495 L 257 490.5 L 257 472.5 L 258 471.5 L 259 458.5 L 255 457 L 253 467 L 185.5 467 L 185 466.5 L 185 457.5 Q 183.2 453.3 181.5 456 L 180 456.5 L 180 465.5 L 182 474.5 L 182 489.5 L 178.5 494 L 170.5 497 L 159.5 498 L 158.5 497 L 144.5 496 L 139 492.5 L 138 481.5 L 144 467.5 L 145 455.5 L 141.5 454 L 140 455.5 L 139.5 464 L 125 451.5 Q 110.7 433.8 104 408.5 L 99 380.5 L 98 349.5 L 99 348.5 L 100 324.5 L 104.5 299 Z " /><path fill="rgb(224,224,222)" stroke="rgb(224,224,222)" stroke-width="1" opacity="1" d="M 427.5 319 Q 441.9 322.1 449 332.5 Q 457.6 342.4 462 356.5 L 464 365.5 L 465 381 Q 462.3 382.1 463 379.5 L 451.5 367 L 446 363.5 L 448 363.5 L 447 355.5 L 442 339.5 Q 435.7 327.1 427.5 319 Z " /><path fill="rgb(224,224,222)" stroke="rgb(224,224,222)" stroke-width="1" opacity="1" d="M 417.5 321 L 415.5 324 L 417.5 321 Z " /><path fill="rgb(224,224,222)" stroke="rgb(224,224,222)" stroke-width="1" opacity="1" d="M 416.5 352 L 420 352.5 L 416.5 353 L 416.5 352 Z " /><path fill="rgb(224,224,222)" stroke="rgb(224,224,222)" stroke-width="1" opacity="1" d="M 422.5 353 L 425 353.5 L 422.5 354 L 422.5 353 Z " /><path fill="rgb(224,224,222)" stroke="rgb(224,224,222)" stroke-width="1" opacity="1" d="M 417.5 371 L 420 371.5 L 417.5 372 L 417.5 371 Z " /><path fill="rgb(224,224,222)" stroke="rgb(224,224,222)" stroke-width="1" opacity="1" d="M 438.5 380 L 441.5 384 L 438.5 380 Z " /><path fill="rgb(224,224,222)" stroke="rgb(224,224,222)" stroke-width="1" opacity="1" d="M 443.5 385 Q 453.5 394.5 457 410.5 Q 447.9 428.9 432.5 441 L 425.5 446 L 425 437.5 L 422 426.5 L 423 426.5 L 423.5 428 Q 434.2 418.2 441 404.5 L 446 388.5 L 443.5 385 Z " /><path fill="rgb(224,224,222)" stroke="rgb(224,224,222)" stroke-width="1" opacity="1" d="M 407.5 401 L 411.5 406 L 407.5 401 Z " /><path fill="rgb(224,224,222)" stroke="rgb(224,224,222)" stroke-width="1" opacity="1" d="M 412.5 407 L 413.5 409 L 412.5 407 Z " /><path fill="rgb(224,224,222)" stroke="rgb(224,224,222)" stroke-width="1" opacity="1" d="M 416.5 413 L 420 419.5 L 419 419.5 L 416.5 413 Z " /><path fill="rgb(224,224,222)" stroke="rgb(224,224,222)" stroke-width="1" opacity="1" d="M 395.5 415 L 396.5 417 L 395.5 415 Z " /><path fill="rgb(224,224,222)" stroke="rgb(224,224,222)" stroke-width="1" opacity="1" d="M 397.5 418 L 399.5 421 L 397.5 418 Z " /><path fill="rgb(224,224,222)" stroke="rgb(224,224,222)" stroke-width="1" opacity="1" d="M 369.5 430 L 370 435.5 L 369 435.5 L 369.5 430 Z " /><path fill="rgb(224,224,222)" stroke="rgb(224,224,222)" stroke-width="1" opacity="1" d="M 405.5 434 L 406 436.5 L 405 436.5 L 405.5 434 Z " /><path fill="rgb(224,224,222)" stroke="rgb(224,224,222)" stroke-width="1" opacity="1" d="M 351.5 438 L 352 440.5 L 351 440.5 L 351.5 438 Z " /><path fill="rgb(224,224,222)" stroke="rgb(224,224,222)" stroke-width="1" opacity="1" d="M 406.5 439 L 407 452.5 L 404.5 457 L 389.5 462 L 372.5 465 L 364.5 465 L 365 463.5 L 366 458 L 383.5 454 L 406 443 L 406.5 439 Z " /><path fill="rgb(224,224,222)" stroke="rgb(224,224,222)" stroke-width="1" opacity="1" d="M 369.5 441 L 370 447.5 L 369 447.5 L 369.5 441 Z " /><path fill="rgb(224,224,222)" stroke="rgb(224,224,222)" stroke-width="1" opacity="1" d="M 350.5 445 L 351 447.5 L 350 447.5 L 350.5 445 Z " /><path fill="rgb(224,224,222)" stroke="rgb(224,224,222)" stroke-width="1" opacity="1" d="M 368.5 450 L 369 452.5 L 368 452.5 L 368.5 450 Z " /><path fill="rgb(224,224,222)" stroke="rgb(224,224,222)" stroke-width="1" opacity="1" d="M 346.5 459 L 345 461.5 L 342.5 465 L 317 460.5 L 324.5 460 L 325.5 461 L 344.5 461 L 346.5 459 Z " /><path fill="rgb(0,0,0)" stroke="rgb(0,0,0)" stroke-width="1" opacity="0" d="M 0 0 L 512 0 L 512 512 L 0 512 L 0 0 Z M 52 10 L 48 12 L 43 18 L 42 23 L 42 141 L 44 148 L 51 153 L 64 154 L 72 161 L 79 169 L 106 258 L 108 261 L 108 266 L 99 300 L 97 318 L 96 319 L 96 326 L 95 327 L 95 336 L 94 337 L 94 379 L 95 380 L 95 388 L 96 389 L 98 406 L 107 433 L 120 454 Q 127 463 137 469 L 133 482 L 134 495 L 139 499 L 149 502 L 171 502 L 181 499 Q 186 497 187 491 L 187 474 L 186 473 L 252 472 L 252 491 L 255 497 L 268 502 L 291 502 L 302 498 L 305 494 Q 304 489 306 488 L 305 477 L 301 469 L 309 464 L 341 470 L 372 470 L 398 465 Q 426 456 444 438 Q 443 435 446 436 L 458 420 L 465 406 L 469 391 L 469 381 L 470 380 L 469 366 L 467 357 Q 463 341 454 331 Q 446 318 430 314 Q 419 313 415 317 Q 409 321 408 329 L 408 338 L 411 351 L 411 361 L 412 362 L 411 363 L 411 374 L 407 388 Q 403 399 395 408 L 379 421 L 366 426 L 356 428 L 344 428 L 334 426 L 339 413 L 342 400 L 343 388 L 344 387 L 344 377 L 345 376 L 345 341 L 344 340 L 344 329 L 343 328 L 343 320 L 342 319 L 340 301 L 335 282 L 335 277 L 371 230 L 383 211 L 388 199 Q 390 188 385 184 Q 380 175 368 173 Q 359 172 355 176 L 351 182 L 347 201 L 315 221 L 302 197 L 309 193 Q 328 177 334 148 Q 333 142 335 141 L 335 95 L 342 55 Q 344 47 341 44 L 338 41 L 330 42 L 302 59 L 271 46 L 251 41 L 231 39 L 230 38 L 195 38 L 178 41 L 178 40 L 157 17 L 150 12 L 145 14 L 142 17 L 141 22 L 135 67 L 126 95 L 125 19 L 123 15 L 117 10 L 52 10 Z " /><path fill="rgb(0,0,0)" stroke="rgb(0,0,0)" stroke-width="1" opacity="0" d="M 123.5 147 L 130 163.5 Q 135.8 174.7 145 182.5 L 145 184.5 L 137.5 197 L 113 153 Q 119.2 153.8 122 149.5 L 123.5 147 Z " /><path fill="rgb(132,196,209)" stroke="rgb(132,196,209)" stroke-width="1" opacity="1" d="M 53.5 14 L 114.5 14 L 120 18.5 L 121 20.5 L 121 142.5 L 116.5 148 L 109.5 149 Q 103.1 137.4 93.5 129 Q 89.4 125.1 80.5 126 Q 69.4 128.4 64 136.5 Q 59.8 140.7 61 149 Q 51 150.8 48 144.5 L 47 142.5 L 47 20.5 L 51.5 15 L 53.5 14 Z M 60 24 L 56 26 L 54 30 L 54 62 L 55 64 L 60 67 L 68 66 L 71 63 L 72 59 L 72 33 L 70 28 Q 68 23 60 24 Z " /><path fill="rgb(132,196,209)" stroke="rgb(132,196,209)" stroke-width="1" opacity="1" d="M 147.5 17 L 146.5 19 L 147.5 17 Z " /><path fill="rgb(132,196,209)" stroke="rgb(132,196,209)" stroke-width="1" opacity="1" d="M 158.5 25 L 161.5 29 L 158.5 25 Z " /><path fill="rgb(132,196,209)" stroke="rgb(132,196,209)" stroke-width="1" opacity="1" d="M 60.5 28 Q 65.8 26.8 67 29.5 L 68 43 L 58 43 L 58 30.5 L 60.5 28 Z " /><path fill="rgb(132,196,209)" stroke="rgb(132,196,209)" stroke-width="1" opacity="1" d="M 169.5 37 L 172.5 41 L 169.5 37 Z " /><path fill="rgb(132,196,209)" stroke="rgb(132,196,209)" stroke-width="1" opacity="1" d="M 198.5 42 L 202 42.5 L 198.5 43 L 198.5 42 Z " /><path fill="rgb(132,196,209)" stroke="rgb(132,196,209)" stroke-width="1" opacity="1" d="M 222.5 42 L 226 42.5 L 222.5 43 L 222.5 42 Z " /><path fill="rgb(132,196,209)" stroke="rgb(132,196,209)" stroke-width="1" opacity="1" d="M 189.5 43 L 192 43.5 L 189.5 44 L 189.5 43 Z " /><path fill="rgb(132,196,209)" stroke="rgb(132,196,209)" stroke-width="1" opacity="1" d="M 58 47 L 66.5 47 L 68 48.5 Q 69.8 58.8 65.5 63 Q 59.3 64.3 58 60.5 L 58 47 Z " /><path fill="rgb(132,196,209)" stroke="rgb(132,196,209)" stroke-width="1" opacity="1" d="M 169.5 86 L 167.5 89 L 169.5 86 Z " /><path fill="rgb(132,196,209)" stroke="rgb(132,196,209)" stroke-width="1" opacity="1" d="M 177.5 95 L 176.5 97 L 177.5 95 Z " /><path fill="rgb(132,196,209)" stroke="rgb(132,196,209)" stroke-width="1" opacity="1" d="M 330.5 96 L 331 105.5 L 330 105.5 L 330.5 96 Z " /><path fill="rgb(132,196,209)" stroke="rgb(132,196,209)" stroke-width="1" opacity="1" d="M 261.5 99 L 264 99.5 L 261.5 100 L 261.5 99 Z " /><path fill="rgb(132,196,209)" stroke="rgb(132,196,209)" stroke-width="1" opacity="1" d="M 259.5 100 L 258.5 102 L 259.5 100 Z " /><path fill="rgb(132,196,209)" stroke="rgb(132,196,209)" stroke-width="1" opacity="1" d="M 266.5 100 L 267.5 102 L 266.5 100 Z " /><path fill="rgb(132,196,209)" stroke="rgb(132,196,209)" stroke-width="1" opacity="1" d="M 258.5 109 L 259.5 111 L 258.5 109 Z " /><path fill="rgb(132,196,209)" stroke="rgb(132,196,209)" stroke-width="1" opacity="1" d="M 146.5 129 L 147.5 131 L 146.5 129 Z " /><path fill="rgb(132,196,209)" stroke="rgb(132,196,209)" stroke-width="1" opacity="1" d="M 330.5 130 L 331 136.5 L 330 136.5 L 330.5 130 Z " /><path fill="rgb(132,196,209)" stroke="rgb(132,196,209)" stroke-width="1" opacity="1" d="M 95.5 136 L 96.5 138 L 95.5 136 Z " /><path fill="rgb(132,196,209)" stroke="rgb(132,196,209)" stroke-width="1" opacity="1" d="M 213.5 136 L 213 137.5 L 212.5 139 L 212 137.5 L 213.5 136 Z " /><path fill="rgb(132,196,209)" stroke="rgb(132,196,209)" stroke-width="1" opacity="1" d="M 98.5 140 L 99.5 142 L 98.5 140 Z " /><path fill="rgb(132,196,209)" stroke="rgb(132,196,209)" stroke-width="1" opacity="1" d="M 176.5 141 L 175.5 143 L 176.5 141 Z " /><path fill="rgb(132,196,209)" stroke="rgb(132,196,209)" stroke-width="1" opacity="1" d="M 265.5 146 L 268 146.5 L 265.5 147 L 265.5 146 Z " /><path fill="rgb(132,196,209)" stroke="rgb(132,196,209)" stroke-width="1" opacity="1" d="M 257.5 147 L 260 147.5 L 257.5 148 L 257.5 147 Z " /><path fill="rgb(132,196,209)" stroke="rgb(132,196,209)" stroke-width="1" opacity="1" d="M 274.5 148 L 273.5 150 L 272 149.5 L 274.5 148 Z " /><path fill="rgb(132,196,209)" stroke="rgb(132,196,209)" stroke-width="1" opacity="1" d="M 213.5 149 L 214.5 151 L 213.5 149 Z " /><path fill="rgb(132,196,209)" stroke="rgb(132,196,209)" stroke-width="1" opacity="1" d="M 66.5 150 L 70.5 155 L 66.5 150 Z " /><path fill="rgb(132,196,209)" stroke="rgb(132,196,209)" stroke-width="1" opacity="1" d="M 157.5 150 L 174 150.5 L 157.5 151 L 157.5 150 Z " /><path fill="rgb(132,196,209)" stroke="rgb(132,196,209)" stroke-width="1" opacity="1" d="M 264.5 150 L 267 150.5 L 264.5 151 L 264.5 150 Z " /><path fill="rgb(132,196,209)" stroke="rgb(132,196,209)" stroke-width="1" opacity="1" d="M 169.5 154 L 173 154.5 L 169.5 155 L 169.5 154 Z " /><path fill="rgb(132,196,209)" stroke="rgb(132,196,209)" stroke-width="1" opacity="1" d="M 80.5 163 L 81.5 165 L 80.5 163 Z " /><path fill="rgb(132,196,209)" stroke="rgb(132,196,209)" stroke-width="1" opacity="1" d="M 143.5 174 L 145.5 177 L 143.5 174 Z " /><path fill="rgb(132,196,209)" stroke="rgb(132,196,209)" stroke-width="1" opacity="1" d="M 147.5 178 L 150.5 182 L 147.5 178 Z " /><path fill="rgb(132,196,209)" stroke="rgb(132,196,209)" stroke-width="1" opacity="1" d="M 314.5 179 L 313.5 181 L 314.5 179 Z " /><path fill="rgb(132,196,209)" stroke="rgb(132,196,209)" stroke-width="1" opacity="1" d="M 376.5 181 L 377.5 183 L 376.5 181 Z " /><path fill="rgb(132,196,209)" stroke="rgb(132,196,209)" stroke-width="1" opacity="1" d="M 302.5 191 L 301.5 193 L 302.5 191 Z " /><path fill="rgb(132,196,209)" stroke="rgb(132,196,209)" stroke-width="1" opacity="1" d="M 383.5 191 L 384 196.5 L 383 196.5 L 383.5 191 Z " /><path fill="rgb(132,196,209)" stroke="rgb(132,196,209)" stroke-width="1" opacity="1" d="M 350.5 203 L 349.5 205 L 350.5 203 Z " /><path fill="rgb(132,196,209)" stroke="rgb(132,196,209)" stroke-width="1" opacity="1" d="M 153.5 230 L 154 231.5 L 151.5 233 L 151.5 232 Q 154 232.7 153.5 230 Z " /><path fill="rgb(132,196,209)" stroke="rgb(132,196,209)" stroke-width="1" opacity="1" d="M 356.5 241 L 355.5 243 L 356.5 241 Z " /><path fill="rgb(132,196,209)" stroke="rgb(132,196,209)" stroke-width="1" opacity="1" d="M 347.5 253 L 346.5 255 L 347.5 253 Z " /><path fill="rgb(132,196,209)" stroke="rgb(132,196,209)" stroke-width="1" opacity="1" d="M 344.5 257 L 343.5 259 L 344.5 257 Z " /><path fill="rgb(132,196,209)" stroke="rgb(132,196,209)" stroke-width="1" opacity="1" d="M 337.5 266 L 336.5 268 L 337.5 266 Z " /><path fill="rgb(132,196,209)" stroke="rgb(132,196,209)" stroke-width="1" opacity="1" d="M 111.5 271 L 110.5 273 L 111.5 271 Z " /><path fill="rgb(132,196,209)" stroke="rgb(132,196,209)" stroke-width="1" opacity="1" d="M 326.5 286 L 325.5 288 L 326.5 286 Z " /><path fill="rgb(132,196,209)" stroke="rgb(132,196,209)" stroke-width="1" opacity="1" d="M 423.5 318 L 427 318.5 L 423.5 319 L 423.5 318 Z " /><path fill="rgb(132,196,209)" stroke="rgb(132,196,209)" stroke-width="1" opacity="1" d="M 99.5 327 L 100 329.5 L 99 329.5 L 99.5 327 Z " /><path fill="rgb(132,196,209)" stroke="rgb(132,196,209)" stroke-width="1" opacity="1" d="M 444.5 327 L 447.5 331 L 444.5 327 Z " /><path fill="rgb(132,196,209)" stroke="rgb(132,196,209)" stroke-width="1" opacity="1" d="M 339.5 329 L 340 331.5 L 339 331.5 L 339.5 329 Z " /><path fill="rgb(132,196,209)" stroke="rgb(132,196,209)" stroke-width="1" opacity="1" d="M 98.5 338 L 99 342.5 L 98 342.5 L 98.5 338 Z " /><path fill="rgb(132,196,209)" stroke="rgb(132,196,209)" stroke-width="1" opacity="1" d="M 340.5 341 L 341 346.5 L 340 346.5 L 340.5 341 Z " /><path fill="rgb(132,196,209)" stroke="rgb(132,196,209)" stroke-width="1" opacity="1" d="M 464.5 367 L 465 369.5 L 464 369.5 L 464.5 367 Z " /><path fill="rgb(132,196,209)" stroke="rgb(132,196,209)" stroke-width="1" opacity="1" d="M 415.5 368 L 416 370.5 L 415 370.5 L 415.5 368 Z " /><path fill="rgb(132,196,209)" stroke="rgb(132,196,209)" stroke-width="1" opacity="1" d="M 340.5 369 L 341 373.5 L 340 373.5 L 340.5 369 Z " /><path fill="rgb(132,196,209)" stroke="rgb(132,196,209)" stroke-width="1" opacity="1" d="M 98.5 373 L 99 376.5 L 98 376.5 L 98.5 373 Z " /><path fill="rgb(132,196,209)" stroke="rgb(132,196,209)" stroke-width="1" opacity="1" d="M 339.5 382 L 340 384.5 L 339 384.5 L 339.5 382 Z " /><path fill="rgb(132,196,209)" stroke="rgb(132,196,209)" stroke-width="1" opacity="1" d="M 464.5 385 L 465 387.5 L 464 387.5 L 464.5 385 Z " /><path fill="rgb(132,196,209)" stroke="rgb(132,196,209)" stroke-width="1" opacity="1" d="M 401.5 406 L 400.5 408 L 401.5 406 Z " /><path fill="rgb(132,196,209)" stroke="rgb(132,196,209)" stroke-width="1" opacity="1" d="M 397.5 411 L 394.5 415 L 397.5 411 Z " /><path fill="rgb(132,196,209)" stroke="rgb(132,196,209)" stroke-width="1" opacity="1" d="M 446.5 427 L 444.5 430 L 446.5 427 Z " /><path fill="rgb(132,196,209)" stroke="rgb(132,196,209)" stroke-width="1" opacity="1" d="M 434.5 439 L 433.5 441 L 434.5 439 Z " /><path fill="rgb(132,196,209)" stroke="rgb(132,196,209)" stroke-width="1" opacity="1" d="M 125.5 452 L 127.5 455 L 125.5 452 Z " /><path fill="rgb(132,196,209)" stroke="rgb(132,196,209)" stroke-width="1" opacity="1" d="M 318.5 452 L 317.5 454 L 318.5 452 Z " /><path fill="rgb(132,196,209)" stroke="rgb(132,196,209)" stroke-width="1" opacity="1" d="M 312.5 453 L 306.5 460 L 312.5 453 Z " /><path fill="rgb(132,196,209)" stroke="rgb(132,196,209)" stroke-width="1" opacity="1" d="M 143.5 454 Q 146.5 455.5 145 461.5 L 144 461.5 Q 144.5 455.5 143.5 454 Z " /><path fill="rgb(132,196,209)" stroke="rgb(132,196,209)" stroke-width="1" opacity="1" d="M 140.5 457 L 141 461.5 L 140 461.5 L 140.5 457 Z " /><path fill="rgb(132,196,209)" stroke="rgb(132,196,209)" stroke-width="1" opacity="1" d="M 180.5 457 L 181 460.5 L 180 460.5 L 180.5 457 Z " /><path fill="rgb(132,196,209)" stroke="rgb(132,196,209)" stroke-width="1" opacity="1" d="M 184.5 457 L 185 461.5 L 184 461.5 L 184.5 457 Z " /><path fill="rgb(132,196,209)" stroke="rgb(132,196,209)" stroke-width="1" opacity="1" d="M 256.5 457 L 259 458.5 L 257.5 458 L 256.5 457 Z " /><path fill="rgb(132,196,209)" stroke="rgb(132,196,209)" stroke-width="1" opacity="1" d="M 131.5 458 L 133.5 461 L 131.5 458 Z " /><path fill="rgb(132,196,209)" stroke="rgb(132,196,209)" stroke-width="1" opacity="1" d="M 294.5 460 L 295 462.5 L 294 462.5 L 294.5 460 Z " /><path fill="rgb(132,196,209)" stroke="rgb(132,196,209)" stroke-width="1" opacity="1" d="M 298.5 460 L 299 462.5 L 298 462.5 L 298.5 460 Z " /><path fill="rgb(132,196,209)" stroke="rgb(132,196,209)" stroke-width="1" opacity="1" d="M 375.5 464 L 378 464.5 L 375.5 465 L 375.5 464 Z " /><path fill="rgb(132,196,209)" stroke="rgb(132,196,209)" stroke-width="1" opacity="1" d="M 345.5 465 L 352 465.5 L 345.5 466 L 345.5 465 Z " /><path fill="rgb(132,196,209)" stroke="rgb(132,196,209)" stroke-width="1" opacity="1" d="M 362.5 465 L 369 465.5 L 362.5 466 L 362.5 465 Z " /><path fill="rgb(132,196,209)" stroke="rgb(132,196,209)" stroke-width="1" opacity="1" d="M 256.5 475 L 257 480.5 L 256 480.5 L 256.5 475 Z " /><path fill="rgb(132,196,209)" stroke="rgb(132,196,209)" stroke-width="1" opacity="1" d="M 182.5 476 L 183 478.5 L 182 478.5 L 182.5 476 Z " /><path fill="rgb(132,196,209)" stroke="rgb(132,196,209)" stroke-width="1" opacity="1" d="M 256.5 486 L 257 488.5 L 256 488.5 L 256.5 486 Z " /><path fill="rgb(132,196,209)" stroke="rgb(132,196,209)" stroke-width="1" opacity="1" d="M 150.5 497 L 153 497.5 L 150.5 498 L 150.5 497 Z " /><path fill="rgb(132,196,209)" stroke="rgb(132,196,209)" stroke-width="1" opacity="1" d="M 166.5 497 L 169 497.5 L 166.5 498 L 166.5 497 Z " /><path fill="rgb(132,196,209)" stroke="rgb(132,196,209)" stroke-width="1" opacity="1" d="M 270.5 497 L 273 497.5 L 270.5 498 L 270.5 497 Z " /><path fill="rgb(132,196,209)" stroke="rgb(132,196,209)" stroke-width="1" opacity="1" d="M 286.5 497 L 289 497.5 L 286.5 498 L 286.5 497 Z " /><path fill="rgb(234,234,233)" stroke="rgb(234,234,233)" stroke-width="1" opacity="1" d="M 159.5 27 L 161.5 30 L 159.5 27 Z " /><path fill="rgb(234,234,233)" stroke="rgb(234,234,233)" stroke-width="1" opacity="1" d="M 170.5 39 L 172.5 42 L 170.5 39 Z " /><path fill="rgb(234,234,233)" stroke="rgb(234,234,233)" stroke-width="1" opacity="1" d="M 168.5 86 L 167.5 88 L 168.5 86 Z " /><path fill="rgb(234,234,233)" stroke="rgb(234,234,233)" stroke-width="1" opacity="1" d="M 258.5 100 L 257.5 102 L 258.5 100 Z " /><path fill="rgb(234,234,233)" stroke="rgb(234,234,233)" stroke-width="1" opacity="1" d="M 69.5 152 L 71.5 155 L 69.5 152 Z " /><path fill="rgb(234,234,233)" stroke="rgb(234,234,233)" stroke-width="1" opacity="1" d="M 143.5 173 L 144.5 175 L 143.5 173 Z " /><path fill="rgb(234,234,233)" stroke="rgb(234,234,233)" stroke-width="1" opacity="1" d="M 150.5 180 L 151.5 182 L 150.5 180 Z " /><path fill="rgb(234,234,233)" stroke="rgb(234,234,233)" stroke-width="1" opacity="1" d="M 296.5 232 L 295.5 234 L 296.5 232 Z " /><path fill="rgb(234,234,233)" stroke="rgb(234,234,233)" stroke-width="1" opacity="1" d="M 332.5 291 L 333 293.5 L 332 293.5 L 332.5 291 Z " /><path fill="rgb(234,234,233)" stroke="rgb(234,234,233)" stroke-width="1" opacity="1" d="M 105.5 296 L 106 299.5 L 105 299.5 L 105.5 296 Z " /><path fill="rgb(234,234,233)" stroke="rgb(234,234,233)" stroke-width="1" opacity="1" d="M 333.5 297 L 334 301.5 L 333 301.5 L 333.5 297 Z " /><path fill="rgb(234,234,233)" stroke="rgb(234,234,233)" stroke-width="1" opacity="1" d="M 104.5 304 L 105 309.5 L 104 309.5 L 104.5 304 Z " /><path fill="rgb(234,234,233)" stroke="rgb(234,234,233)" stroke-width="1" opacity="1" d="M 334.5 305 L 335 310.5 L 334 310.5 L 334.5 305 Z " /><path fill="rgb(234,234,233)" stroke="rgb(234,234,233)" stroke-width="1" opacity="1" d="M 103.5 315 L 104 323.5 L 103 323.5 L 103.5 315 Z " /><path fill="rgb(234,234,233)" stroke="rgb(234,234,233)" stroke-width="1" opacity="1" d="M 335.5 317 L 336 327.5 L 335 327.5 L 335.5 317 Z " /><path fill="rgb(234,234,233)" stroke="rgb(234,234,233)" stroke-width="1" opacity="1" d="M 429.5 322 L 433.5 327 L 429.5 322 Z " /><path fill="rgb(234,234,233)" stroke="rgb(234,234,233)" stroke-width="1" opacity="1" d="M 434.5 328 L 435.5 330 L 434.5 328 Z " /><path fill="rgb(234,234,233)" stroke="rgb(234,234,233)" stroke-width="1" opacity="1" d="M 439.5 336 L 442 340.5 L 441 340.5 L 439.5 336 Z " /><path fill="rgb(234,234,233)" stroke="rgb(234,234,233)" stroke-width="1" opacity="1" d="M 335.5 346 L 336 356.5 L 335 356.5 L 335.5 346 Z " /><path fill="rgb(234,234,233)" stroke="rgb(234,234,233)" stroke-width="1" opacity="1" d="M 103.5 351 L 104 358.5 L 103 358.5 L 103.5 351 Z " /><path fill="rgb(234,234,233)" stroke="rgb(234,234,233)" stroke-width="1" opacity="1" d="M 447.5 360 L 448 363.5 L 447 363.5 L 447.5 360 Z " /><path fill="rgb(234,234,233)" stroke="rgb(234,234,233)" stroke-width="1" opacity="1" d="M 444.5 361 L 445.5 363 L 444.5 361 Z " /><path fill="rgb(234,234,233)" stroke="rgb(234,234,233)" stroke-width="1" opacity="1" d="M 334.5 363 L 335 366.5 L 334 366.5 L 334.5 363 Z " /><path fill="rgb(234,234,233)" stroke="rgb(234,234,233)" stroke-width="1" opacity="1" d="M 104.5 364 L 105 367.5 L 104 367.5 L 104.5 364 Z " /><path fill="rgb(234,234,233)" stroke="rgb(234,234,233)" stroke-width="1" opacity="1" d="M 333.5 370 L 334 373.5 L 333 373.5 L 333.5 370 Z " /><path fill="rgb(234,234,233)" stroke="rgb(234,234,233)" stroke-width="1" opacity="1" d="M 105.5 372 L 106 374.5 L 105 374.5 L 105.5 372 Z " /><path fill="rgb(234,234,233)" stroke="rgb(234,234,233)" stroke-width="1" opacity="1" d="M 332.5 377 L 333 379.5 L 332 379.5 L 332.5 377 Z " /><path fill="rgb(234,234,233)" stroke="rgb(234,234,233)" stroke-width="1" opacity="1" d="M 433.5 377 L 434.5 379 L 433.5 377 Z " /><path fill="rgb(234,234,233)" stroke="rgb(234,234,233)" stroke-width="1" opacity="1" d="M 106.5 378 L 107 380.5 L 106 380.5 L 106.5 378 Z " /><path fill="rgb(234,234,233)" stroke="rgb(234,234,233)" stroke-width="1" opacity="1" d="M 436.5 379 L 437.5 381 L 436.5 379 Z " /><path fill="rgb(234,234,233)" stroke="rgb(234,234,233)" stroke-width="1" opacity="1" d="M 331.5 382 L 332 384.5 L 331 384.5 L 331.5 382 Z " /><path fill="rgb(234,234,233)" stroke="rgb(234,234,233)" stroke-width="1" opacity="1" d="M 107.5 383 L 108 385.5 L 107 385.5 L 107.5 383 Z " /><path fill="rgb(234,234,233)" stroke="rgb(234,234,233)" stroke-width="1" opacity="1" d="M 108.5 387 L 109 389.5 L 108 389.5 L 108.5 387 Z " /><path fill="rgb(234,234,233)" stroke="rgb(234,234,233)" stroke-width="1" opacity="1" d="M 109.5 391 L 110 393.5 L 109 393.5 L 109.5 391 Z " /><path fill="rgb(234,234,233)" stroke="rgb(234,234,233)" stroke-width="1" opacity="1" d="M 443.5 396 L 444 397.5 L 442.5 400 L 442 398.5 L 443.5 396 Z " /><path fill="rgb(234,234,233)" stroke="rgb(234,234,233)" stroke-width="1" opacity="1" d="M 407.5 400 L 409.5 403 L 407.5 400 Z " /><path fill="rgb(234,234,233)" stroke="rgb(234,234,233)" stroke-width="1" opacity="1" d="M 440.5 403 L 441 404.5 L 439 405.5 L 440.5 403 Z " /><path fill="rgb(234,234,233)" stroke="rgb(234,234,233)" stroke-width="1" opacity="1" d="M 412.5 406 L 413.5 408 L 412.5 406 Z " /><path fill="rgb(234,234,233)" stroke="rgb(234,234,233)" stroke-width="1" opacity="1" d="M 115.5 409 L 117 412.5 L 116 412.5 L 115.5 409 Z " /><path fill="rgb(234,234,233)" stroke="rgb(234,234,233)" stroke-width="1" opacity="1" d="M 436.5 411 L 435.5 413 L 436.5 411 Z " /><path fill="rgb(234,234,233)" stroke="rgb(234,234,233)" stroke-width="1" opacity="1" d="M 434.5 414 L 433.5 416 L 434.5 414 Z " /><path fill="rgb(234,234,233)" stroke="rgb(234,234,233)" stroke-width="1" opacity="1" d="M 320.5 416 L 320 417.5 L 318.5 420 L 319 418.5 L 320.5 416 Z " /><path fill="rgb(234,234,233)" stroke="rgb(234,234,233)" stroke-width="1" opacity="1" d="M 395.5 416 L 396.5 418 L 395.5 416 Z " /><path fill="rgb(234,234,233)" stroke="rgb(234,234,233)" stroke-width="1" opacity="1" d="M 432.5 417 L 430.5 420 L 432.5 417 Z " /><path fill="rgb(234,234,233)" stroke="rgb(234,234,233)" stroke-width="1" opacity="1" d="M 119.5 418 L 122 421.5 L 120 420.5 L 119.5 418 Z " /><path fill="rgb(234,234,233)" stroke="rgb(234,234,233)" stroke-width="1" opacity="1" d="M 429.5 421 L 424.5 427 L 429.5 421 Z " /><path fill="rgb(234,234,233)" stroke="rgb(234,234,233)" stroke-width="1" opacity="1" d="M 122.5 423 L 128 430.5 L 125 428.5 L 122.5 423 Z " /><path fill="rgb(234,234,233)" stroke="rgb(234,234,233)" stroke-width="1" opacity="1" d="M 316.5 423 L 315.5 425 L 316.5 423 Z " /><path fill="rgb(234,234,233)" stroke="rgb(234,234,233)" stroke-width="1" opacity="1" d="M 314.5 426 L 313.5 428 L 314.5 426 Z " /><path fill="rgb(234,234,233)" stroke="rgb(234,234,233)" stroke-width="1" opacity="1" d="M 312.5 429 L 310.5 432 L 312.5 429 Z " /><path fill="rgb(234,234,233)" stroke="rgb(234,234,233)" stroke-width="1" opacity="1" d="M 128.5 432 L 138.5 443 L 128.5 432 Z " /><path fill="rgb(234,234,233)" stroke="rgb(234,234,233)" stroke-width="1" opacity="1" d="M 309.5 433 L 300.5 443 L 309.5 433 Z " /><path fill="rgb(234,234,233)" stroke="rgb(234,234,233)" stroke-width="1" opacity="1" d="M 140.5 443 L 144 445.5 L 142.5 445 L 140.5 443 Z " /><path fill="rgb(234,234,233)" stroke="rgb(234,234,233)" stroke-width="1" opacity="1" d="M 403.5 443 L 402.5 445 L 400.5 446 L 401.5 444 L 403.5 443 Z " /><path fill="rgb(234,234,233)" stroke="rgb(234,234,233)" stroke-width="1" opacity="1" d="M 296.5 444 L 295.5 446 L 296.5 444 Z " /><path fill="rgb(234,234,233)" stroke="rgb(234,234,233)" stroke-width="1" opacity="1" d="M 284.5 448 L 287 448.5 L 284.5 449 L 284.5 448 Z " /><path fill="rgb(234,234,233)" stroke="rgb(234,234,233)" stroke-width="1" opacity="1" d="M 318.5 453 L 317.5 455 L 318.5 453 Z " /><path fill="rgb(234,234,233)" stroke="rgb(234,234,233)" stroke-width="1" opacity="1" d="M 315.5 459 L 320 459.5 L 315.5 460 L 315.5 459 Z " /><path fill="rgb(234,234,233)" stroke="rgb(234,234,233)" stroke-width="1" opacity="1" d="M 325.5 460 L 345 460.5 L 325.5 461 L 325.5 460 Z " /><path fill="rgb(234,234,234)" stroke="rgb(234,234,234)" stroke-width="1" opacity="1" d="M 147 18 L 150.5 18 L 159 26.5 L 176.5 46 L 194.5 44 L 195.5 43 L 228.5 43 L 265.5 50 L 301.5 65 L 329.5 48 L 335.5 46 Q 338.5 47.5 337 53.5 L 330 93.5 L 330 140.5 L 328 151.5 Q 320.4 177.4 301.5 192 L 295 196.5 L 295 200 Q 298.7 198.5 298 201.5 L 308 219.5 L 309 225 L 295 233.5 L 296.5 237 L 299.5 237 L 351 205 L 356 182.5 L 359.5 179 L 367.5 178 Q 375.3 180.3 380 185.5 Q 384 189 383 197.5 L 378 208.5 L 366 227.5 L 322 284.5 L 322 288 L 327 288 L 327 286.5 L 331 283.5 L 333 301.5 L 334 302.5 L 334 310.5 L 335 311.5 L 336 345.5 L 335 346.5 L 335 362.5 L 334 363.5 L 333 376.5 L 326 403.5 Q 317.4 427.9 299.5 443 L 294.5 446 L 283.5 449 L 154.5 449 Q 136.5 445 128 431.5 L 117 413.5 L 112 401.5 L 107 382.5 L 105 364.5 L 104 363.5 L 104 351.5 L 103 350.5 L 103 324.5 L 104 323.5 L 104 310.5 L 105 309.5 L 106 292.5 L 110 274 Q 113 272.8 112 276.5 L 114 282 L 118 282 L 118 280.5 L 118 278.5 L 84 167.5 L 69.5 152 L 67 150.5 L 65 144.5 L 71.5 135 Q 76.2 129.7 87.5 131 L 95 136.5 L 117 170.5 L 150.5 233 Q 155.8 234.8 154 229.5 L 140 202.5 L 149.5 187 L 159.5 194 L 161.5 194 Q 164 192.8 163 189 Q 152.7 184.1 145 175.5 Q 135.6 165.4 130 151.5 L 126 136.5 L 125 120.5 L 128 103.5 L 140 67.5 L 141 54.5 L 142 53.5 L 147 18 Z M 171 85 L 169 86 L 166 90 L 167 96 Q 169 100 176 98 Q 180 97 179 89 Q 177 84 171 85 Z M 261 99 L 259 100 L 256 105 L 258 111 Q 260 113 266 112 L 270 106 L 269 103 Q 268 98 261 99 Z M 207 117 L 203 121 Q 201 133 208 137 L 207 145 L 204 148 L 192 148 L 191 152 L 194 153 L 206 153 L 209 151 L 215 156 L 225 157 L 226 154 L 225 152 L 214 150 L 212 146 L 213 142 Q 211 136 216 137 Q 221 134 223 127 L 222 121 Q 217 116 207 117 Z M 148 126 Q 145 127 146 131 L 173 143 Q 179 145 177 140 L 170 135 L 148 126 Z M 271 145 L 254 148 L 247 148 L 241 151 L 242 154 L 275 150 L 275 145 L 271 145 Z M 144 150 L 142 154 L 145 155 L 175 155 L 175 154 L 175 152 L 175 150 L 144 150 Z M 240 161 L 240 165 L 269 174 L 271 173 Q 273 174 272 171 L 270 168 L 246 161 L 240 161 Z " /><path fill="rgb(234,234,234)" stroke="rgb(234,234,234)" stroke-width="1" opacity="1" d="M 422.5 319 Q 428 318 429 321.5 Q 438 330.5 443 343.5 L 447 357.5 L 447 362.5 L 444.5 361 L 425.5 353 L 416 352 L 413 336.5 L 413 329.5 Q 414.5 323 419.5 320 L 422.5 319 Z " /><path fill="rgb(234,234,234)" stroke="rgb(234,234,234)" stroke-width="1" opacity="1" d="M 416 372 Q 435.9 374.8 446 388.5 Q 439.3 412.8 423.5 428 Q 418 410.5 407 398.5 L 411 391.5 L 416 372 Z " /><path fill="rgb(234,234,234)" stroke="rgb(234,234,234)" stroke-width="1" opacity="1" d="M 394.5 415 Q 404.4 424.1 406 441.5 Q 390.2 453.2 367.5 458 L 368 456.5 L 370 448.5 L 370 430.5 L 371.5 429 Q 385.9 424.9 394.5 415 Z " /><path fill="rgb(234,234,234)" stroke="rgb(234,234,234)" stroke-width="1" opacity="1" d="M 332.5 431 L 349.5 433 L 351 434.5 Q 351.3 450.6 346 460 L 320.5 460 L 314 458.5 Q 325.7 447.2 332.5 431 Z " /><path fill="rgb(207,207,207)" stroke="rgb(207,207,207)" stroke-width="1" opacity="1" d="M 153.5 20 L 157.5 25 L 153.5 20 Z " /><path fill="rgb(207,207,207)" stroke="rgb(207,207,207)" stroke-width="1" opacity="1" d="M 164.5 32 L 168.5 37 L 164.5 32 Z " /><path fill="rgb(207,207,207)" stroke="rgb(207,207,207)" stroke-width="1" opacity="1" d="M 202.5 42 L 222 42.5 L 202.5 43 L 202.5 42 Z " /><path fill="rgb(207,207,207)" stroke="rgb(207,207,207)" stroke-width="1" opacity="1" d="M 337.5 47 L 338 49.5 L 337 49.5 L 337.5 47 Z " /><path fill="rgb(207,207,207)" stroke="rgb(207,207,207)" stroke-width="1" opacity="1" d="M 171.5 85 L 174 85.5 L 171.5 86 L 171.5 85 Z " /><path fill="rgb(207,207,207)" stroke="rgb(207,207,207)" stroke-width="1" opacity="1" d="M 167.5 95 L 168.5 97 L 167.5 95 Z " /><path fill="rgb(207,207,207)" stroke="rgb(207,207,207)" stroke-width="1" opacity="1" d="M 330.5 106 L 331 129.5 L 330 129.5 L 330.5 106 Z " /><path fill="rgb(207,207,207)" stroke="rgb(207,207,207)" stroke-width="1" opacity="1" d="M 125.5 115 L 126 117.5 L 125 117.5 L 125.5 115 Z " /><path fill="rgb(207,207,207)" stroke="rgb(207,207,207)" stroke-width="1" opacity="1" d="M 211.5 117 L 214 117.5 L 211.5 118 L 211.5 117 Z " /><path fill="rgb(207,207,207)" stroke="rgb(207,207,207)" stroke-width="1" opacity="1" d="M 222.5 123 L 223 125.5 L 222 125.5 L 222.5 123 Z " /><path fill="rgb(207,207,207)" stroke="rgb(207,207,207)" stroke-width="1" opacity="1" d="M 147.5 126 L 149 126.5 L 146.5 128 L 147.5 126 Z " /><path fill="rgb(207,207,207)" stroke="rgb(207,207,207)" stroke-width="1" opacity="1" d="M 125.5 131 L 126 133.5 L 125 133.5 L 125.5 131 Z " /><path fill="rgb(207,207,207)" stroke="rgb(207,207,207)" stroke-width="1" opacity="1" d="M 219.5 132 L 216.5 136 L 219.5 132 Z " /><path fill="rgb(207,207,207)" stroke="rgb(207,207,207)" stroke-width="1" opacity="1" d="M 92.5 133 L 94.5 136 L 92.5 133 Z " /><path fill="rgb(207,207,207)" stroke="rgb(207,207,207)" stroke-width="1" opacity="1" d="M 205.5 133 L 209 137.5 L 208 137.5 L 205.5 133 Z " /><path fill="rgb(207,207,207)" stroke="rgb(207,207,207)" stroke-width="1" opacity="1" d="M 70.5 135 L 69.5 137 L 70.5 135 Z " /><path fill="rgb(207,207,207)" stroke="rgb(207,207,207)" stroke-width="1" opacity="1" d="M 271.5 145 L 274 145.5 L 271.5 146 L 271.5 145 Z " /><path fill="rgb(207,207,207)" stroke="rgb(207,207,207)" stroke-width="1" opacity="1" d="M 247.5 148 L 250 148.5 L 247.5 149 L 247.5 148 Z " /><path fill="rgb(207,207,207)" stroke="rgb(207,207,207)" stroke-width="1" opacity="1" d="M 243.5 153 L 246 153.5 L 243.5 154 L 243.5 153 Z " /><path fill="rgb(207,207,207)" stroke="rgb(207,207,207)" stroke-width="1" opacity="1" d="M 145.5 154 L 169 154.5 L 145.5 155 L 145.5 154 Z " /><path fill="rgb(207,207,207)" stroke="rgb(207,207,207)" stroke-width="1" opacity="1" d="M 75.5 158 L 79.5 163 L 75.5 158 Z " /><path fill="rgb(207,207,207)" stroke="rgb(207,207,207)" stroke-width="1" opacity="1" d="M 140.5 170 L 141.5 172 L 140.5 170 Z " /><path fill="rgb(207,207,207)" stroke="rgb(207,207,207)" stroke-width="1" opacity="1" d="M 316.5 176 L 315.5 178 L 316.5 176 Z " /><path fill="rgb(207,207,207)" stroke="rgb(207,207,207)" stroke-width="1" opacity="1" d="M 312.5 181 L 311.5 183 L 312.5 181 Z " /><path fill="rgb(207,207,207)" stroke="rgb(207,207,207)" stroke-width="1" opacity="1" d="M 152.5 182 L 153.5 184 L 152.5 182 Z " /><path fill="rgb(207,207,207)" stroke="rgb(207,207,207)" stroke-width="1" opacity="1" d="M 378.5 183 L 379.5 185 L 378.5 183 Z " /><path fill="rgb(207,207,207)" stroke="rgb(207,207,207)" stroke-width="1" opacity="1" d="M 150.5 186 L 151.5 188 L 150.5 186 Z " /><path fill="rgb(207,207,207)" stroke="rgb(207,207,207)" stroke-width="1" opacity="1" d="M 304.5 189 L 303.5 191 L 304.5 189 Z " /><path fill="rgb(207,207,207)" stroke="rgb(207,207,207)" stroke-width="1" opacity="1" d="M 299.5 193 L 298.5 195 L 299.5 193 Z " /><path fill="rgb(207,207,207)" stroke="rgb(207,207,207)" stroke-width="1" opacity="1" d="M 365.5 228 L 364.5 230 L 365.5 228 Z " /><path fill="rgb(207,207,207)" stroke="rgb(207,207,207)" stroke-width="1" opacity="1" d="M 149.5 231 L 150.5 233 L 149.5 231 Z " /><path fill="rgb(207,207,207)" stroke="rgb(207,207,207)" stroke-width="1" opacity="1" d="M 295.5 234 L 297 236.5 L 295 235.5 L 295.5 234 Z " /><path fill="rgb(207,207,207)" stroke="rgb(207,207,207)" stroke-width="1" opacity="1" d="M 360.5 235 L 359.5 237 L 360.5 235 Z " /><path fill="rgb(207,207,207)" stroke="rgb(207,207,207)" stroke-width="1" opacity="1" d="M 352.5 246 L 351.5 248 L 352.5 246 Z " /><path fill="rgb(207,207,207)" stroke="rgb(207,207,207)" stroke-width="1" opacity="1" d="M 349.5 250 L 348.5 252 L 349.5 250 Z " /><path fill="rgb(207,207,207)" stroke="rgb(207,207,207)" stroke-width="1" opacity="1" d="M 339.5 263 L 338.5 265 L 339.5 263 Z " /><path fill="rgb(207,207,207)" stroke="rgb(207,207,207)" stroke-width="1" opacity="1" d="M 111.5 272 L 110.5 274 L 111.5 272 Z " /><path fill="rgb(207,207,207)" stroke="rgb(207,207,207)" stroke-width="1" opacity="1" d="M 332.5 272 L 331.5 274 L 332.5 272 Z " /><path fill="rgb(207,207,207)" stroke="rgb(207,207,207)" stroke-width="1" opacity="1" d="M 328.5 277 L 327.5 279 L 328.5 277 Z " /><path fill="rgb(207,207,207)" stroke="rgb(207,207,207)" stroke-width="1" opacity="1" d="M 324.5 282 L 323.5 284 L 324.5 282 Z " /><path fill="rgb(207,207,207)" stroke="rgb(207,207,207)" stroke-width="1" opacity="1" d="M 328.5 284 L 327.5 286 L 328.5 284 Z " /><path fill="rgb(207,207,207)" stroke="rgb(207,207,207)" stroke-width="1" opacity="1" d="M 101.5 314 L 102 316.5 L 101 316.5 L 101.5 314 Z " /><path fill="rgb(207,207,207)" stroke="rgb(207,207,207)" stroke-width="1" opacity="1" d="M 100.5 321 L 101 323.5 L 100 323.5 L 100.5 321 Z " /><path fill="rgb(207,207,207)" stroke="rgb(207,207,207)" stroke-width="1" opacity="1" d="M 338.5 323 L 339 325.5 L 338 325.5 L 338.5 323 Z " /><path fill="rgb(207,207,207)" stroke="rgb(207,207,207)" stroke-width="1" opacity="1" d="M 440.5 324 L 441.5 326 L 440.5 324 Z " /><path fill="rgb(207,207,207)" stroke="rgb(207,207,207)" stroke-width="1" opacity="1" d="M 99.5 330 L 100 332.5 L 99 332.5 L 99.5 330 Z " /><path fill="rgb(207,207,207)" stroke="rgb(207,207,207)" stroke-width="1" opacity="1" d="M 339.5 332 L 340 335.5 L 339 335.5 L 339.5 332 Z " /><path fill="rgb(207,207,207)" stroke="rgb(207,207,207)" stroke-width="1" opacity="1" d="M 449.5 333 L 450.5 335 L 449.5 333 Z " /><path fill="rgb(207,207,207)" stroke="rgb(207,207,207)" stroke-width="1" opacity="1" d="M 452.5 337 L 453.5 339 L 452.5 337 Z " /><path fill="rgb(207,207,207)" stroke="rgb(207,207,207)" stroke-width="1" opacity="1" d="M 98.5 343 L 99 348.5 L 98 348.5 L 98.5 343 Z " /><path fill="rgb(207,207,207)" stroke="rgb(207,207,207)" stroke-width="1" opacity="1" d="M 340.5 347 L 341 368.5 L 340 368.5 L 340.5 347 Z " /><path fill="rgb(207,207,207)" stroke="rgb(207,207,207)" stroke-width="1" opacity="1" d="M 416 353 Q 446 356.8 461 376.5 L 463 381 Q 466.3 379.7 465 384.5 L 462 399.5 L 457.5 410 Q 452.1 390.9 438.5 380 Q 430.1 372.1 416 371 L 415.5 373 L 415 371.5 L 416 370.5 L 416 353 Z " /><path fill="rgb(207,207,207)" stroke="rgb(207,207,207)" stroke-width="1" opacity="1" d="M 98.5 367 L 99 372.5 L 98 372.5 L 98.5 367 Z " /><path fill="rgb(207,207,207)" stroke="rgb(207,207,207)" stroke-width="1" opacity="1" d="M 464.5 370 L 465 373.5 L 464 373.5 L 464.5 370 Z " /><path fill="rgb(207,207,207)" stroke="rgb(207,207,207)" stroke-width="1" opacity="1" d="M 339.5 379 L 340 381.5 L 339 381.5 L 339.5 379 Z " /><path fill="rgb(207,207,207)" stroke="rgb(207,207,207)" stroke-width="1" opacity="1" d="M 99.5 381 L 100 383.5 L 99 383.5 L 99.5 381 Z " /><path fill="rgb(207,207,207)" stroke="rgb(207,207,207)" stroke-width="1" opacity="1" d="M 406.5 400 Q 415.9 409.1 421 422.5 L 425 437.5 L 425 447 L 405.5 457 L 406 455.5 Q 408.6 449.6 407 439.5 Q 404.3 423.7 395 414.5 L 406.5 400 Z " /><path fill="rgb(207,207,207)" stroke="rgb(207,207,207)" stroke-width="1" opacity="1" d="M 393.5 415 L 391.5 418 L 393.5 415 Z " /><path fill="rgb(207,207,207)" stroke="rgb(207,207,207)" stroke-width="1" opacity="1" d="M 448.5 424 L 447.5 426 L 448.5 424 Z " /><path fill="rgb(207,207,207)" stroke="rgb(207,207,207)" stroke-width="1" opacity="1" d="M 369.5 429 L 369 430.5 L 370 440.5 L 369 441.5 L 368 454.5 L 363.5 465 Q 360 467.5 352.5 466 L 351.5 465 L 343 464.5 L 348 457.5 L 351 447.5 L 352 438.5 L 351 433 L 345 432.5 L 360.5 432 L 369.5 429 Z " /><path fill="rgb(207,207,207)" stroke="rgb(207,207,207)" stroke-width="1" opacity="1" d="M 443.5 430 L 435.5 439 L 443.5 430 Z " /><path fill="rgb(207,207,207)" stroke="rgb(207,207,207)" stroke-width="1" opacity="1" d="M 431.5 441 L 430.5 443 L 431.5 441 Z " /><path fill="rgb(207,207,207)" stroke="rgb(207,207,207)" stroke-width="1" opacity="1" d="M 427.5 444 L 426.5 446 L 427.5 444 Z " /><path fill="rgb(207,207,207)" stroke="rgb(207,207,207)" stroke-width="1" opacity="1" d="M 120.5 445 L 121.5 447 L 120.5 445 Z " /><path fill="rgb(207,207,207)" stroke="rgb(207,207,207)" stroke-width="1" opacity="1" d="M 123.5 449 L 124.5 451 L 123.5 449 Z " /><path fill="rgb(207,207,207)" stroke="rgb(207,207,207)" stroke-width="1" opacity="1" d="M 315.5 449 L 313.5 452 L 315.5 449 Z " /><path fill="rgb(207,207,207)" stroke="rgb(207,207,207)" stroke-width="1" opacity="1" d="M 128.5 455 L 130.5 458 L 128.5 455 Z " /><path fill="rgb(207,207,207)" stroke="rgb(207,207,207)" stroke-width="1" opacity="1" d="M 298.5 456 L 299 459.5 L 298 459.5 L 298.5 456 Z " /><path fill="rgb(207,207,207)" stroke="rgb(207,207,207)" stroke-width="1" opacity="1" d="M 315.5 456 L 312.5 460 L 315.5 456 Z " /><path fill="rgb(207,207,207)" stroke="rgb(207,207,207)" stroke-width="1" opacity="1" d="M 304.5 460 L 303.5 462 L 304.5 460 Z " /><path fill="rgb(207,207,207)" stroke="rgb(207,207,207)" stroke-width="1" opacity="1" d="M 180.5 461 L 181 465.5 L 180 465.5 L 180.5 461 Z " /><path fill="rgb(207,207,207)" stroke="rgb(207,207,207)" stroke-width="1" opacity="1" d="M 337.5 464 L 340 464.5 L 337.5 465 L 337.5 464 Z " /><path fill="rgb(207,207,207)" stroke="rgb(207,207,207)" stroke-width="1" opacity="1" d="M 253.5 465 L 254 466.5 L 252.5 468 L 185.5 468 L 185.5 467 L 252.5 467 L 253.5 465 Z " /><path fill="rgb(207,207,207)" stroke="rgb(207,207,207)" stroke-width="1" opacity="1" d="M 257.5 469 L 258 471.5 L 257 471.5 L 257.5 469 Z " /><path fill="rgb(207,207,207)" stroke="rgb(207,207,207)" stroke-width="1" opacity="1" d="M 182.5 479 L 183 486.5 L 182 486.5 L 182.5 479 Z " /><path fill="rgb(207,207,207)" stroke="rgb(207,207,207)" stroke-width="1" opacity="1" d="M 256.5 481 L 257 485.5 L 256 485.5 L 256.5 481 Z " /><path fill="rgb(207,207,207)" stroke="rgb(207,207,207)" stroke-width="1" opacity="1" d="M 180.5 492 L 179.5 494 L 180.5 492 Z " /><path fill="rgb(207,207,207)" stroke="rgb(207,207,207)" stroke-width="1" opacity="1" d="M 258.5 492 L 259.5 494 L 258.5 492 Z " /><path fill="rgb(207,207,207)" stroke="rgb(207,207,207)" stroke-width="1" opacity="1" d="M 153.5 497 L 159 497.5 L 153.5 498 L 153.5 497 Z " /><path fill="rgb(207,207,207)" stroke="rgb(207,207,207)" stroke-width="1" opacity="1" d="M 162.5 497 L 166 497.5 L 162.5 498 L 162.5 497 Z " /><path fill="rgb(207,207,207)" stroke="rgb(207,207,207)" stroke-width="1" opacity="1" d="M 273.5 497 L 277 497.5 L 273.5 498 L 273.5 497 Z " /><path fill="rgb(207,207,207)" stroke="rgb(207,207,207)" stroke-width="1" opacity="1" d="M 280.5 497 L 286 497.5 L 280.5 498 L 280.5 497 Z " /><path fill="rgb(89,91,93)" stroke="rgb(89,91,93)" stroke-width="1" opacity="0.9019607843137255" d="M 51.5 10 L 116.5 10 L 123 14.5 L 125 18.5 L 125.5 95 L 135 66.5 L 141 21.5 L 142 16.5 L 144.5 14 L 149.5 12 L 157 16.5 L 178 39.5 L 178 41 L 194.5 38 L 229.5 38 L 230.5 39 L 250.5 41 L 270.5 46 L 301.5 59 L 329.5 42 L 337.5 41 L 341 43.5 Q 343.5 47 342 54.5 L 335 94.5 L 335 140.5 Q 332.5 142 334 147.5 Q 327.7 176.7 308.5 193 L 302 197 L 314.5 221 L 347 200.5 L 351 181.5 L 354.5 176 Q 358.6 172.1 367.5 173 Q 379.5 175 385 183.5 Q 389.5 188 388 198.5 L 383 210.5 L 371 229.5 L 335 276.5 L 335 281.5 L 340 300.5 L 342 318.5 L 343 319.5 L 343 327.5 L 344 328.5 L 344 339.5 L 345 340.5 L 345 375.5 L 344 376.5 L 344 386.5 L 343 387.5 L 342 399.5 L 339 412.5 L 334 425.5 L 343.5 428 L 355.5 428 L 365.5 426 L 378.5 421 L 395 407.5 Q 402.5 399 407 387.5 L 411 373.5 L 411 362.5 L 412 361.5 L 411 360.5 L 411 350.5 L 408 337.5 L 408 328.5 Q 409.2 320.7 414.5 317 Q 419.3 312.8 429.5 314 Q 445.5 318.5 454 330.5 Q 462.6 341.4 467 356.5 L 469 365.5 L 470 379.5 L 469 380.5 L 469 390.5 L 465 405.5 L 458 419.5 L 446 436 Q 443.3 434.9 444 437.5 Q 425.5 456 397.5 465 L 371.5 470 L 340.5 470 L 308.5 464 L 301 468.5 L 305 476.5 L 306 487.5 Q 303.8 488.8 305 493.5 L 301.5 498 L 290.5 502 L 267.5 502 L 255 497 L 252 490.5 L 252 472 L 186 472.5 L 187 473.5 L 187 490.5 Q 185.6 496.6 180.5 499 L 170.5 502 L 148.5 502 L 138.5 499 L 134 494.5 L 133 481.5 L 137 468.5 Q 126.7 462.8 120 453.5 L 107 432.5 L 98 405.5 L 96 388.5 L 95 387.5 L 95 379.5 L 94 378.5 L 94 336.5 L 95 335.5 L 95 326.5 L 96 325.5 L 96 318.5 L 97 317.5 L 99 299.5 L 108 265.5 L 108 260.5 L 106 257.5 L 79 168.5 L 71.5 161 L 63.5 154 L 50.5 153 L 44 147.5 L 42 140.5 L 42 22.5 L 43 17.5 L 47.5 12 L 51.5 10 Z M 54 14 L 52 15 L 47 21 L 47 143 L 48 145 Q 51 151 61 149 Q 60 141 64 137 Q 69 128 81 126 Q 89 125 94 129 Q 103 137 110 149 L 117 148 L 121 143 L 121 21 L 120 19 L 115 14 L 54 14 Z M 148 17 L 145 24 L 139 69 L 132 87 L 125 114 L 125 136 L 127 145 Q 132 162 143 175 Q 149 182 159 187 Q 163 188 162 193 L 160 193 L 150 186 L 139 203 L 153 229 Q 155 233 151 232 L 119 173 L 97 138 L 88 130 Q 76 129 72 134 L 65 143 L 66 151 L 72 155 L 83 168 L 118 280 L 116 281 L 112 271 L 109 276 L 102 307 L 100 327 L 99 328 L 99 338 L 98 339 L 98 377 L 99 378 L 101 399 L 109 426 Q 115 441 125 453 Q 130 461 140 464 Q 142 462 141 456 Q 143 453 144 456 L 143 469 L 138 479 L 138 493 L 143 496 L 151 498 Q 168 500 179 495 L 183 489 Q 184 477 181 470 L 181 457 L 184 456 L 185 463 Q 184 468 186 468 L 254 468 L 255 458 L 259 460 L 256 476 Q 254 486 257 492 L 263 496 L 271 498 Q 290 500 300 494 L 301 492 L 301 480 L 296 469 L 294 460 L 295 456 Q 294 453 297 454 Q 300 456 298 463 L 300 464 L 307 460 Q 323 445 331 423 L 338 398 L 339 386 L 340 385 L 340 375 L 341 374 L 341 342 L 340 341 L 340 330 L 339 329 L 337 308 L 332 284 L 331 281 L 330 283 L 325 288 L 323 287 L 323 285 L 367 228 L 379 209 L 384 197 Q 385 189 381 186 Q 377 180 371 178 L 360 178 L 355 184 L 351 203 L 348 206 L 298 237 L 296 233 L 310 225 L 299 202 Q 300 199 298 200 L 296 196 L 302 193 Q 320 179 328 155 L 330 146 L 330 138 L 331 137 L 331 93 L 332 92 L 333 79 L 338 52 Q 339 46 336 45 L 332 46 L 302 64 L 269 50 L 248 45 L 227 43 L 226 42 L 199 42 L 198 43 L 177 45 L 162 29 L 151 17 L 148 17 Z M 124 147 L 122 150 Q 119 154 113 153 L 138 197 L 145 185 L 145 183 Q 136 175 130 164 L 124 147 Z M 424 318 L 419 320 L 414 325 L 412 333 L 416 355 L 416 368 L 413 384 Q 409 398 400 409 Q 386 427 359 432 L 342 432 L 331 430 Q 325 448 312 460 L 329 464 L 345 465 L 346 466 L 369 466 L 396 461 Q 418 454 434 441 Q 448 429 457 413 L 463 398 L 465 388 L 465 368 L 462 355 Q 457 341 448 331 Q 440 320 424 318 Z " /><path fill="rgb(89,91,93)" stroke="rgb(89,91,93)" stroke-width="1" opacity="0.9019607843137255" d="M 59.5 24 Q 67.8 22.7 70 27.5 L 72 32.5 L 72 58.5 L 71 62.5 L 67.5 66 L 59.5 67 L 55 63.5 L 54 61.5 L 54 29.5 L 56 26 L 59.5 24 Z M 61 28 L 58 31 L 58 43 L 68 43 L 67 30 Q 66 27 61 28 Z M 58 47 L 58 61 Q 59 64 66 63 Q 70 59 68 49 L 67 47 L 58 47 Z " /><path fill="rgb(89,91,93)" stroke="rgb(89,91,93)" stroke-width="1" opacity="0.9019607843137255" d="M 170.5 86 Q 176.3 85.2 178 88.5 L 179 91.5 L 175.5 97 L 172.5 98 L 167 94.5 Q 165.8 87.3 170.5 86 Z " /><path fill="rgb(89,91,93)" stroke="rgb(89,91,93)" stroke-width="1" opacity="0.9019607843137255" d="M 260.5 100 Q 266.8 98.8 268 102.5 L 269 106.5 L 265.5 111 Q 258.3 112.3 257 107.5 Q 256 101 260.5 100 Z " /><path fill="rgb(89,91,93)" stroke="rgb(89,91,93)" stroke-width="1" opacity="0.9019607843137255" d="M 206.5 118 Q 216.4 116.9 221 120 Q 222.6 122.1 222 127.5 L 215.5 136 L 212 137.5 Q 209.9 147.6 214.5 151 L 225 153 L 225 156 L 218.5 156 L 212.5 154 L 210 151.5 Q 210.8 149.3 208.5 150 Q 205.7 153.7 198.5 153 L 192 150.5 L 193.5 148 L 203.5 149 Q 209.2 145.7 209 136.5 Q 203.1 132.4 203 122.5 L 206.5 118 Z " /><path fill="rgb(89,91,93)" stroke="rgb(89,91,93)" stroke-width="1" opacity="0.9019607843137255" d="M 147.5 127 Q 164 132 177 140.5 Q 175.3 144.8 173.5 142 L 152.5 133 L 146 128.5 L 147.5 127 Z " /><path fill="rgb(89,91,93)" stroke="rgb(89,91,93)" stroke-width="1" opacity="0.9019607843137255" d="M 268.5 146 Q 273.8 144.8 275 147.5 L 271.5 150 L 243.5 153 L 242 150 L 244.5 149 L 251.5 149 L 268.5 146 Z " /><path fill="rgb(89,91,93)" stroke="rgb(89,91,93)" stroke-width="1" opacity="0.9019607843137255" d="M 144.5 150 L 175 151 L 174.5 154 L 144.5 154 L 143 151.5 L 144.5 150 Z " /><path fill="rgb(89,91,93)" stroke="rgb(89,91,93)" stroke-width="1" opacity="0.9019607843137255" d="M 241 161 L 263.5 167 L 271 170.5 Q 272.3 174.3 268.5 173 L 241 165 L 241 161 Z " /></svg>