<svg width="512" height="512" version="1.1" xmlns="http://www.w3.org/2000/svg" desc="Created with imagetracer.js version 1.2.6" ><path fill="rgb(220,220,219)" stroke="rgb(220,220,219)" stroke-width="1" opacity="1" d="M 329.5 58 L 330.5 60 L 329.5 58 Z " /><path fill="rgb(220,220,219)" stroke="rgb(220,220,219)" stroke-width="1" opacity="1" d="M 151.5 59 L 152.5 61 L 151.5 59 Z " /><path fill="rgb(220,220,219)" stroke="rgb(220,220,219)" stroke-width="1" opacity="1" d="M 325.5 59 L 323.5 62 L 325.5 59 Z " /><path fill="rgb(220,220,219)" stroke="rgb(220,220,219)" stroke-width="1" opacity="1" d="M 146.5 60 L 147 108.5 L 146 108.5 L 146.5 60 Z " /><path fill="rgb(220,220,219)" stroke="rgb(220,220,219)" stroke-width="1" opacity="1" d="M 156.5 63 L 157.5 65 L 156.5 63 Z " /><path fill="rgb(220,220,219)" stroke="rgb(220,220,219)" stroke-width="1" opacity="1" d="M 320.5 63 L 318.5 66 L 320.5 63 Z " /><path fill="rgb(220,220,219)" stroke="rgb(220,220,219)" stroke-width="1" opacity="1" d="M 161.5 67 L 162.5 69 L 161.5 67 Z " /><path fill="rgb(220,220,219)" stroke="rgb(220,220,219)" stroke-width="1" opacity="1" d="M 315.5 67 L 313.5 70 L 315.5 67 Z " /><path fill="rgb(220,220,219)" stroke="rgb(220,220,219)" stroke-width="1" opacity="1" d="M 166.5 71 L 167.5 73 L 166.5 71 Z " /><path fill="rgb(220,220,219)" stroke="rgb(220,220,219)" stroke-width="1" opacity="1" d="M 223.5 71 L 229 71.5 L 223.5 72 L 223.5 71 Z " /><path fill="rgb(220,220,219)" stroke="rgb(220,220,219)" stroke-width="1" opacity="1" d="M 248.5 71 L 254 71.5 L 248.5 72 L 248.5 71 Z " /><path fill="rgb(220,220,219)" stroke="rgb(220,220,219)" stroke-width="1" opacity="1" d="M 309.5 72 L 308.5 74 L 309.5 72 Z " /><path fill="rgb(220,220,219)" stroke="rgb(220,220,219)" stroke-width="1" opacity="1" d="M 171.5 75 L 172.5 77 L 171.5 75 Z " /><path fill="rgb(220,220,219)" stroke="rgb(220,220,219)" stroke-width="1" opacity="1" d="M 304.5 76 L 303.5 78 L 304.5 76 Z " /><path fill="rgb(220,220,219)" stroke="rgb(220,220,219)" stroke-width="1" opacity="1" d="M 176.5 79 L 177.5 81 L 176.5 79 Z " /><path fill="rgb(220,220,219)" stroke="rgb(220,220,219)" stroke-width="1" opacity="1" d="M 199.5 129 L 198.5 131 L 199.5 129 Z " /><path fill="rgb(220,220,219)" stroke="rgb(220,220,219)" stroke-width="1" opacity="1" d="M 277.5 129 L 278.5 131 L 277.5 129 Z " /><path fill="rgb(220,220,219)" stroke="rgb(220,220,219)" stroke-width="1" opacity="1" d="M 335.5 136 L 336 138.5 L 335 138.5 L 335.5 136 Z " /><path fill="rgb(220,220,219)" stroke="rgb(220,220,219)" stroke-width="1" opacity="1" d="M 141.5 137 L 142 139.5 L 141 139.5 L 141.5 137 Z " /><path fill="rgb(220,220,219)" stroke="rgb(220,220,219)" stroke-width="1" opacity="1" d="M 336.5 146 L 337 149.5 L 336 149.5 L 336.5 146 Z " /><path fill="rgb(220,220,219)" stroke="rgb(220,220,219)" stroke-width="1" opacity="1" d="M 140.5 147 L 141 157.5 L 140 157.5 L 140.5 147 Z " /><path fill="rgb(220,220,219)" stroke="rgb(220,220,219)" stroke-width="1" opacity="1" d="M 336.5 154 L 337 158.5 L 336 158.5 L 336.5 154 Z " /><path fill="rgb(220,220,219)" stroke="rgb(220,220,219)" stroke-width="1" opacity="1" d="M 245.5 158 L 242.5 162 L 245.5 158 Z " /><path fill="rgb(220,220,219)" stroke="rgb(220,220,219)" stroke-width="1" opacity="1" d="M 177.5 161 L 176.5 163 L 177.5 161 Z " /><path fill="rgb(220,220,219)" stroke="rgb(220,220,219)" stroke-width="1" opacity="1" d="M 238.5 175 L 239.5 177 L 238.5 176 L 236 177.5 L 238.5 175 Z " /><path fill="rgb(220,220,219)" stroke="rgb(220,220,219)" stroke-width="1" opacity="1" d="M 222.5 178 L 231 179.5 L 223.5 180 L 222.5 178 Z " /><path fill="rgb(220,220,219)" stroke="rgb(220,220,219)" stroke-width="1" opacity="1" d="M 246.5 179 L 254 179.5 L 246.5 180 L 246.5 179 Z " /><path fill="rgb(220,220,219)" stroke="rgb(220,220,219)" stroke-width="1" opacity="1" d="M 199.5 185 L 202 185.5 L 199.5 186 L 199.5 185 Z " /><path fill="rgb(220,220,219)" stroke="rgb(220,220,219)" stroke-width="1" opacity="1" d="M 275.5 185 L 278 185.5 L 275.5 186 L 275.5 185 Z " /><path fill="rgb(220,220,219)" stroke="rgb(220,220,219)" stroke-width="1" opacity="1" d="M 176.5 187 L 180 188.5 L 177.5 189 L 176.5 187 Z " /><path fill="rgb(220,220,219)" stroke="rgb(220,220,219)" stroke-width="1" opacity="1" d="M 297.5 188 L 300 188.5 L 297.5 189 L 297.5 188 Z " /><path fill="rgb(220,220,219)" stroke="rgb(220,220,219)" stroke-width="1" opacity="1" d="M 152.5 192 L 153.5 194 L 152.5 192 Z " /><path fill="rgb(220,220,219)" stroke="rgb(220,220,219)" stroke-width="1" opacity="1" d="M 324.5 192 L 323.5 194 L 324.5 192 Z " /><path fill="rgb(220,220,219)" stroke="rgb(220,220,219)" stroke-width="1" opacity="1" d="M 155.5 196 L 156.5 198 L 155.5 196 Z " /><path fill="rgb(220,220,219)" stroke="rgb(220,220,219)" stroke-width="1" opacity="1" d="M 321.5 196 L 320.5 198 L 321.5 196 Z " /><path fill="rgb(220,220,219)" stroke="rgb(220,220,219)" stroke-width="1" opacity="1" d="M 166.5 207 L 167.5 209 L 166.5 207 Z " /><path fill="rgb(220,220,219)" stroke="rgb(220,220,219)" stroke-width="1" opacity="1" d="M 309.5 208 L 308.5 210 L 309.5 208 Z " /><path fill="rgb(220,220,219)" stroke="rgb(220,220,219)" stroke-width="1" opacity="1" d="M 310.5 213 L 309.5 215 L 310.5 213 Z " /><path fill="rgb(220,220,219)" stroke="rgb(220,220,219)" stroke-width="1" opacity="1" d="M 169.5 215 L 170.5 217 L 169.5 215 Z " /><path fill="rgb(220,220,219)" stroke="rgb(220,220,219)" stroke-width="1" opacity="1" d="M 173.5 267 L 174.5 269 L 173.5 267 Z " /><path fill="rgb(220,220,219)" stroke="rgb(220,220,219)" stroke-width="1" opacity="1" d="M 166.5 268 L 167.5 270 L 166.5 268 Z " /><path fill="rgb(220,220,219)" stroke="rgb(220,220,219)" stroke-width="1" opacity="1" d="M 176.5 269 L 177.5 271 L 176.5 269 Z " /><path fill="rgb(220,220,219)" stroke="rgb(220,220,219)" stroke-width="1" opacity="1" d="M 175.5 274 L 176.5 276 L 175.5 274 Z " /><path fill="rgb(220,220,219)" stroke="rgb(220,220,219)" stroke-width="1" opacity="1" d="M 183.5 274 L 184.5 276 L 183.5 274 Z " /><path fill="rgb(220,220,219)" stroke="rgb(220,220,219)" stroke-width="1" opacity="1" d="M 178.5 276 L 179.5 278 L 178.5 276 Z " /><path fill="rgb(220,220,219)" stroke="rgb(220,220,219)" stroke-width="1" opacity="1" d="M 296.5 276 L 295.5 278 L 296.5 276 Z " /><path fill="rgb(220,220,219)" stroke="rgb(220,220,219)" stroke-width="1" opacity="1" d="M 304.5 276 L 303.5 278 L 304.5 276 Z " /><path fill="rgb(220,220,219)" stroke="rgb(220,220,219)" stroke-width="1" opacity="1" d="M 187.5 277 L 188.5 279 L 187.5 277 Z " /><path fill="rgb(220,220,219)" stroke="rgb(220,220,219)" stroke-width="1" opacity="1" d="M 293.5 278 L 292.5 280 L 293.5 278 Z " /><path fill="rgb(220,220,219)" stroke="rgb(220,220,219)" stroke-width="1" opacity="1" d="M 301.5 278 L 300.5 280 L 301.5 278 Z " /><path fill="rgb(220,220,219)" stroke="rgb(220,220,219)" stroke-width="1" opacity="1" d="M 182.5 279 L 183.5 281 L 182.5 279 Z " /><path fill="rgb(220,220,219)" stroke="rgb(220,220,219)" stroke-width="1" opacity="1" d="M 191.5 280 L 192.5 282 L 191.5 280 Z " /><path fill="rgb(220,220,219)" stroke="rgb(220,220,219)" stroke-width="1" opacity="1" d="M 186.5 282 L 187.5 284 L 186.5 282 Z " /><path fill="rgb(220,220,219)" stroke="rgb(220,220,219)" stroke-width="1" opacity="1" d="M 195.5 283 L 196.5 285 L 195.5 283 Z " /><path fill="rgb(220,220,219)" stroke="rgb(220,220,219)" stroke-width="1" opacity="1" d="M 286.5 283 L 285.5 285 L 286.5 283 Z " /><path fill="rgb(220,220,219)" stroke="rgb(220,220,219)" stroke-width="1" opacity="1" d="M 294.5 283 L 293.5 285 L 294.5 283 Z " /><path fill="rgb(220,220,219)" stroke="rgb(220,220,219)" stroke-width="1" opacity="1" d="M 190.5 285 L 191.5 287 L 190.5 285 Z " /><path fill="rgb(220,220,219)" stroke="rgb(220,220,219)" stroke-width="1" opacity="1" d="M 199.5 286 L 200.5 288 L 199.5 286 Z " /><path fill="rgb(220,220,219)" stroke="rgb(220,220,219)" stroke-width="1" opacity="1" d="M 282.5 286 L 281.5 288 L 282.5 286 Z " /><path fill="rgb(220,220,219)" stroke="rgb(220,220,219)" stroke-width="1" opacity="1" d="M 194.5 288 L 195.5 290 L 194.5 288 Z " /><path fill="rgb(220,220,219)" stroke="rgb(220,220,219)" stroke-width="1" opacity="1" d="M 279.5 288 L 278.5 290 L 279.5 288 Z " /><path fill="rgb(220,220,219)" stroke="rgb(220,220,219)" stroke-width="1" opacity="1" d="M 287.5 288 L 286.5 290 L 287.5 288 Z " /><path fill="rgb(220,220,219)" stroke="rgb(220,220,219)" stroke-width="1" opacity="1" d="M 276.5 290 L 275.5 292 L 276.5 290 Z " /><path fill="rgb(220,220,219)" stroke="rgb(220,220,219)" stroke-width="1" opacity="1" d="M 198.5 291 L 199.5 293 L 198.5 291 Z " /><path fill="rgb(220,220,219)" stroke="rgb(220,220,219)" stroke-width="1" opacity="1" d="M 201.5 293 L 202.5 295 L 201.5 293 Z " /><path fill="rgb(220,220,219)" stroke="rgb(220,220,219)" stroke-width="1" opacity="1" d="M 146.5 304 L 145.5 306 L 146.5 304 Z " /><path fill="rgb(220,220,219)" stroke="rgb(220,220,219)" stroke-width="1" opacity="1" d="M 248.5 305 L 244.5 310 L 248.5 305 Z " /><path fill="rgb(220,220,219)" stroke="rgb(220,220,219)" stroke-width="1" opacity="1" d="M 145.5 307 L 146.5 309 L 145.5 307 Z " /><path fill="rgb(220,220,219)" stroke="rgb(220,220,219)" stroke-width="1" opacity="1" d="M 230.5 309 L 232.5 312 L 230.5 309 Z " /><path fill="rgb(220,220,219)" stroke="rgb(220,220,219)" stroke-width="1" opacity="1" d="M 128.5 313 L 129 316.5 L 128 316.5 L 128.5 313 Z " /><path fill="rgb(220,220,219)" stroke="rgb(220,220,219)" stroke-width="1" opacity="1" d="M 233.5 313 L 234 317.5 L 233 317.5 L 233.5 313 Z " /><path fill="rgb(220,220,219)" stroke="rgb(220,220,219)" stroke-width="1" opacity="1" d="M 348.5 313 L 349 316.5 L 348 316.5 L 348.5 313 Z " /><path fill="rgb(220,220,219)" stroke="rgb(220,220,219)" stroke-width="1" opacity="1" d="M 349.5 318 L 352 332.5 L 352 339.5 L 353 340.5 L 353 350.5 L 354 351.5 L 354 386.5 L 353 387.5 L 353 396.5 L 350 413.5 L 343 435.5 Q 335.1 454.6 320.5 467 L 317 468 L 315 456.5 L 313.5 455 L 311 456.5 L 312 467.5 L 317 477.5 L 318 489.5 L 314.5 495 L 302.5 498 L 291.5 498 L 281.5 496 L 276 492.5 L 275 490.5 L 275 472.5 L 276 471.5 L 277 459.5 L 274.5 458 L 272 462.5 L 271 474 L 206.5 474 L 206 470.5 L 205 469.5 L 205 458.5 L 203.5 457 L 200 458.5 Q 202.2 463.2 201 471.5 L 203 479.5 L 203 487.5 L 199.5 494 L 192.5 497 L 174.5 498 L 164.5 496 L 160 492.5 L 159 483.5 Q 161.3 482.2 160 477.5 L 165 467.5 L 166 456.5 L 163.5 455 L 162 456.5 L 161 466.5 L 159.5 469 L 148 458.5 Q 134.2 441.8 128 417.5 L 124 395.5 L 124 385.5 L 123 384.5 L 123 353.5 L 124 352.5 L 124 341.5 L 125 340.5 L 125 332.5 L 127.5 319 L 128 329.5 L 127 330.5 L 127 367.5 L 128 368.5 L 128 377.5 L 129 378.5 L 130 390.5 L 136 412.5 Q 143.8 434.7 159.5 449 L 173.5 456 L 303.5 456 Q 317.6 452.1 325 441.5 Q 340.1 423.1 346 395.5 L 349 378.5 L 349 369.5 L 350 368.5 L 350 328.5 L 349 327.5 L 349.5 318 Z " /><path fill="rgb(220,220,219)" stroke="rgb(220,220,219)" stroke-width="1" opacity="1" d="M 196.5 327 L 197.5 329 L 196.5 327 Z " /><path fill="rgb(220,220,219)" stroke="rgb(220,220,219)" stroke-width="1" opacity="1" d="M 292.5 327 L 291.5 329 L 292.5 327 Z " /><path fill="rgb(220,220,219)" stroke="rgb(220,220,219)" stroke-width="1" opacity="1" d="M 283.5 328 L 282.5 330 L 283.5 328 Z " /><path fill="rgb(220,220,219)" stroke="rgb(220,220,219)" stroke-width="1" opacity="1" d="M 195.5 332 L 196.5 334 L 195.5 332 Z " /><path fill="rgb(220,220,219)" stroke="rgb(220,220,219)" stroke-width="1" opacity="1" d="M 438.5 332 L 445.5 334 L 458 344.5 Q 466.9 354.6 471 369.5 L 473 380.5 L 473 395.5 L 470 409.5 L 465 421.5 Q 457.8 434.3 447.5 444 Q 434 456.5 415.5 464 L 394.5 470 L 364.5 472 L 363.5 471 L 343.5 470 L 329.5 467 L 328 465.5 L 329.5 466 L 355.5 468 L 360 465.5 Q 365.9 456.6 364 441 L 360 440.5 Q 374 441.5 382.5 437 L 382 438.5 Q 380.5 444 383 445.5 L 382 446.5 L 382 456.5 L 380 464.5 L 381.5 464 Q 403.2 460.7 417 449.5 Q 416.1 431.9 406 423.5 L 417.5 408 L 428 422.5 L 433.5 436 Q 443.7 427.2 450 414.5 L 455 401.5 L 455 397.5 Q 445.3 384.5 426 382 Q 427.9 376.4 427 366.5 L 426 363 L 440.5 366 L 456.5 375 L 457 370.5 L 451 350.5 L 438.5 332 Z " /><path fill="rgb(220,220,219)" stroke="rgb(220,220,219)" stroke-width="1" opacity="1" d="M 279.5 333 L 278.5 335 L 279.5 333 Z " /><path fill="rgb(220,220,219)" stroke="rgb(220,220,219)" stroke-width="1" opacity="1" d="M 428.5 333 L 425.5 337 L 428.5 333 Z " /><path fill="rgb(220,220,219)" stroke="rgb(220,220,219)" stroke-width="1" opacity="1" d="M 202.5 334 L 207.5 340 L 202.5 334 Z " /><path fill="rgb(220,220,219)" stroke="rgb(220,220,219)" stroke-width="1" opacity="1" d="M 197.5 335 L 198.5 337 L 197.5 335 Z " /><path fill="rgb(220,220,219)" stroke="rgb(220,220,219)" stroke-width="1" opacity="1" d="M 250.5 335 L 251.5 337 L 250.5 335 Z " /><path fill="rgb(220,220,219)" stroke="rgb(220,220,219)" stroke-width="1" opacity="1" d="M 224.5 336 L 222.5 339 L 224.5 336 Z " /><path fill="rgb(220,220,219)" stroke="rgb(220,220,219)" stroke-width="1" opacity="1" d="M 258.5 338 L 261.5 342 L 258.5 338 Z " /><path fill="rgb(220,220,219)" stroke="rgb(220,220,219)" stroke-width="1" opacity="1" d="M 281.5 338 L 277.5 343 L 281.5 338 Z " /><path fill="rgb(220,220,219)" stroke="rgb(220,220,219)" stroke-width="1" opacity="1" d="M 253.5 339 L 254.5 341 L 253.5 339 Z " /><path fill="rgb(220,220,219)" stroke="rgb(220,220,219)" stroke-width="1" opacity="1" d="M 273.5 339 L 272.5 341 L 273.5 339 Z " /><path fill="rgb(220,220,219)" stroke="rgb(220,220,219)" stroke-width="1" opacity="1" d="M 219.5 341 L 218.5 343 L 219.5 341 Z " /><path fill="rgb(220,220,219)" stroke="rgb(220,220,219)" stroke-width="1" opacity="1" d="M 225.5 342 L 223.5 345 L 225.5 342 Z " /><path fill="rgb(220,220,219)" stroke="rgb(220,220,219)" stroke-width="1" opacity="1" d="M 205.5 343 L 206.5 345 L 205.5 343 Z " /><path fill="rgb(220,220,219)" stroke="rgb(220,220,219)" stroke-width="1" opacity="1" d="M 259.5 345 L 260.5 347 L 259.5 345 Z " /><path fill="rgb(220,220,219)" stroke="rgb(220,220,219)" stroke-width="1" opacity="1" d="M 404.5 424 L 402.5 427 L 404.5 424 Z " /><path fill="rgb(220,220,219)" stroke="rgb(220,220,219)" stroke-width="1" opacity="1" d="M 337.5 454 L 336.5 456 L 337.5 454 Z " /><path fill="rgb(220,220,219)" stroke="rgb(220,220,219)" stroke-width="1" opacity="1" d="M 334.5 458 L 333.5 460 L 334.5 458 Z " /><path fill="rgb(87,88,90)" stroke="rgb(87,88,90)" stroke-width="1" opacity="0.1803921568627451" d="M 73.5 10 L 76 10.5 L 71 13.5 L 69.5 19 L 69 15.5 L 73.5 10 Z " /><path fill="rgb(87,88,90)" stroke="rgb(87,88,90)" stroke-width="1" opacity="0.1803921568627451" d="M 80.5 10 L 88 11.5 L 85.5 12 L 80.5 11 L 80.5 10 Z " /><path fill="rgb(87,88,90)" stroke="rgb(87,88,90)" stroke-width="1" opacity="0.1803921568627451" d="M 392.5 10 L 397 10.5 L 383.5 14 L 351.5 29 L 338.5 33 L 338.5 32 L 351.5 28 L 378.5 15 L 392.5 10 Z " /><path fill="rgb(87,88,90)" stroke="rgb(87,88,90)" stroke-width="1" opacity="0.1803921568627451" d="M 401.5 10 Q 406.5 9.5 407 13.5 L 408 17.5 L 407 17.5 Q 406.8 12.8 403.5 11 Q 400.5 11.5 401.5 10 Z " /><path fill="rgb(87,88,90)" stroke="rgb(87,88,90)" stroke-width="1" opacity="0.1803921568627451" d="M 89.5 12 L 116 23.5 L 114.5 24 L 89.5 13 L 89.5 12 Z " /><path fill="rgb(87,88,90)" stroke="rgb(87,88,90)" stroke-width="1" opacity="0.1803921568627451" d="M 408.5 19 L 409 29.5 L 408 29.5 L 408.5 19 Z " /><path fill="rgb(87,88,90)" stroke="rgb(87,88,90)" stroke-width="1" opacity="0.1803921568627451" d="M 68.5 20 L 69 27.5 L 68 27.5 L 68.5 20 Z " /><path fill="rgb(87,88,90)" stroke="rgb(87,88,90)" stroke-width="1" opacity="0.1803921568627451" d="M 117.5 24 L 125 27.5 L 123.5 28 L 117.5 25 L 117.5 24 Z " /><path fill="rgb(87,88,90)" stroke="rgb(87,88,90)" stroke-width="1" opacity="0.1803921568627451" d="M 204.5 27 L 226 27.5 L 204.5 28 L 204.5 27 Z " /><path fill="rgb(87,88,90)" stroke="rgb(87,88,90)" stroke-width="1" opacity="0.1803921568627451" d="M 251.5 27 L 273 27.5 L 251.5 28 L 251.5 27 Z " /><path fill="rgb(87,88,90)" stroke="rgb(87,88,90)" stroke-width="1" opacity="0.1803921568627451" d="M 126.5 28 L 130 29.5 L 128.5 30 L 126.5 28 Z " /><path fill="rgb(87,88,90)" stroke="rgb(87,88,90)" stroke-width="1" opacity="0.1803921568627451" d="M 190.5 28 L 201 28.5 L 190.5 29 L 190.5 28 Z " /><path fill="rgb(87,88,90)" stroke="rgb(87,88,90)" stroke-width="1" opacity="0.1803921568627451" d="M 276.5 28 L 287 28.5 L 276.5 29 L 276.5 28 Z " /><path fill="rgb(87,88,90)" stroke="rgb(87,88,90)" stroke-width="1" opacity="0.1803921568627451" d="M 178.5 29 L 187 29.5 L 178.5 30 L 178.5 29 Z " /><path fill="rgb(87,88,90)" stroke="rgb(87,88,90)" stroke-width="1" opacity="0.1803921568627451" d="M 290.5 29 L 299 29.5 L 290.5 30 L 290.5 29 Z " /><path fill="rgb(87,88,90)" stroke="rgb(87,88,90)" stroke-width="1" opacity="0.1803921568627451" d="M 69.5 30 L 70 37.5 L 69 37.5 L 69.5 30 Z " /><path fill="rgb(87,88,90)" stroke="rgb(87,88,90)" stroke-width="1" opacity="0.1803921568627451" d="M 131.5 30 L 139 32.5 L 136.5 33 L 131.5 31 L 131.5 30 Z " /><path fill="rgb(87,88,90)" stroke="rgb(87,88,90)" stroke-width="1" opacity="0.1803921568627451" d="M 169.5 30 L 177 30.5 L 169.5 31 L 169.5 30 Z " /><path fill="rgb(87,88,90)" stroke="rgb(87,88,90)" stroke-width="1" opacity="0.1803921568627451" d="M 300.5 30 L 308 30.5 L 300.5 31 L 300.5 30 Z " /><path fill="rgb(87,88,90)" stroke="rgb(87,88,90)" stroke-width="1" opacity="0.1803921568627451" d="M 161.5 31 L 167 31.5 L 161.5 32 L 161.5 31 Z " /><path fill="rgb(87,88,90)" stroke="rgb(87,88,90)" stroke-width="1" opacity="0.1803921568627451" d="M 310.5 31 L 316 31.5 L 310.5 32 L 310.5 31 Z " /><path fill="rgb(87,88,90)" stroke="rgb(87,88,90)" stroke-width="1" opacity="0.1803921568627451" d="M 407.5 31 L 408 37.5 L 407 37.5 L 407.5 31 Z " /><path fill="rgb(87,88,90)" stroke="rgb(87,88,90)" stroke-width="1" opacity="0.1803921568627451" d="M 153.5 32 L 159 32.5 L 153.5 33 L 153.5 32 Z " /><path fill="rgb(87,88,90)" stroke="rgb(87,88,90)" stroke-width="1" opacity="0.1803921568627451" d="M 318.5 32 L 324 32.5 L 318.5 33 L 318.5 32 Z " /><path fill="rgb(87,88,90)" stroke="rgb(87,88,90)" stroke-width="1" opacity="0.1803921568627451" d="M 140.5 33 L 145 33.5 L 140.5 34 L 140.5 33 Z " /><path fill="rgb(87,88,90)" stroke="rgb(87,88,90)" stroke-width="1" opacity="0.1803921568627451" d="M 146.5 33 L 152 33.5 L 146.5 34 L 146.5 33 Z " /><path fill="rgb(87,88,90)" stroke="rgb(87,88,90)" stroke-width="1" opacity="0.1803921568627451" d="M 325.5 33 L 331 33.5 L 325.5 34 L 325.5 33 Z " /><path fill="rgb(87,88,90)" stroke="rgb(87,88,90)" stroke-width="1" opacity="0.1803921568627451" d="M 332.5 33 L 337 33.5 L 332.5 34 L 332.5 33 Z " /><path fill="rgb(87,88,90)" stroke="rgb(87,88,90)" stroke-width="1" opacity="0.1803921568627451" d="M 35.5 37 L 35 38.5 L 36.5 41 L 45 41.5 L 35 51.5 L 35 54 L 50.5 54 L 51.5 53 L 52 55 L 35.5 55 L 34 53.5 L 34 51.5 L 43 42.5 L 36.5 42 L 34 39.5 L 35.5 37 Z " /><path fill="rgb(87,88,90)" stroke="rgb(87,88,90)" stroke-width="1" opacity="0.1803921568627451" d="M 70.5 39 L 71 43.5 L 70 43.5 L 70.5 39 Z " /><path fill="rgb(87,88,90)" stroke="rgb(87,88,90)" stroke-width="1" opacity="0.1803921568627451" d="M 51.5 40 L 43.5 50 L 51.5 50 L 52 51.5 L 50.5 51 L 42.5 51 L 42 49.5 L 51.5 40 Z " /><path fill="rgb(87,88,90)" stroke="rgb(87,88,90)" stroke-width="1" opacity="0.1803921568627451" d="M 406.5 40 L 407 44.5 L 406 44.5 L 406.5 40 Z " /><path fill="rgb(87,88,90)" stroke="rgb(87,88,90)" stroke-width="1" opacity="0.1803921568627451" d="M 71.5 45 L 72 49.5 L 71 49.5 L 71.5 45 Z " /><path fill="rgb(87,88,90)" stroke="rgb(87,88,90)" stroke-width="1" opacity="0.1803921568627451" d="M 405.5 46 L 406 49.5 L 405 49.5 L 405.5 46 Z " /><path fill="rgb(87,88,90)" stroke="rgb(87,88,90)" stroke-width="1" opacity="0.1803921568627451" d="M 72.5 51 L 73 55.5 L 72 55.5 L 72.5 51 Z " /><path fill="rgb(87,88,90)" stroke="rgb(87,88,90)" stroke-width="1" opacity="0.1803921568627451" d="M 404.5 51 L 405 55.5 L 404 55.5 L 404.5 51 Z " /><path fill="rgb(87,88,90)" stroke="rgb(87,88,90)" stroke-width="1" opacity="0.1803921568627451" d="M 73.5 57 L 74 60.5 L 73 60.5 L 73.5 57 Z " /><path fill="rgb(87,88,90)" stroke="rgb(87,88,90)" stroke-width="1" opacity="0.1803921568627451" d="M 403.5 57 L 404 61.5 L 403 61.5 L 403.5 57 Z " /><path fill="rgb(87,88,90)" stroke="rgb(87,88,90)" stroke-width="1" opacity="0.1803921568627451" d="M 74.5 62 L 75 67.5 L 74 67.5 L 74.5 62 Z " /><path fill="rgb(87,88,90)" stroke="rgb(87,88,90)" stroke-width="1" opacity="0.1803921568627451" d="M 402.5 63 L 403 68.5 L 402 68.5 L 402.5 63 Z " /><path fill="rgb(87,88,90)" stroke="rgb(87,88,90)" stroke-width="1" opacity="0.1803921568627451" d="M 69.5 67 L 71 70.5 L 57.5 85 L 69.5 85 L 71 86.5 L 69.5 90 L 48.5 90 L 48 88.5 L 49.5 89 L 69.5 89 L 70 86 L 55 85.5 L 70 68.5 L 69.5 67 Z " /><path fill="rgb(87,88,90)" stroke="rgb(87,88,90)" stroke-width="1" opacity="0.1803921568627451" d="M 75.5 69 L 76 74.5 L 75 74.5 L 75.5 69 Z " /><path fill="rgb(87,88,90)" stroke="rgb(87,88,90)" stroke-width="1" opacity="0.1803921568627451" d="M 48.5 70 L 49.5 71 L 63 71 L 63 72.5 L 48.5 87 L 48 85.5 L 60.5 72 L 49.5 72 L 48.5 70 Z " /><path fill="rgb(87,88,90)" stroke="rgb(87,88,90)" stroke-width="1" opacity="0.1803921568627451" d="M 401.5 70 L 402 75.5 L 401 75.5 L 401.5 70 Z " /><path fill="rgb(87,88,90)" stroke="rgb(87,88,90)" stroke-width="1" opacity="0.1803921568627451" d="M 76.5 78 L 77 82.5 L 76 82.5 L 76.5 78 Z " /><path fill="rgb(87,88,90)" stroke="rgb(87,88,90)" stroke-width="1" opacity="0.1803921568627451" d="M 401.5 83 L 402 86.5 L 401 86.5 L 401.5 83 Z " /><path fill="rgb(87,88,90)" stroke="rgb(87,88,90)" stroke-width="1" opacity="0.1803921568627451" d="M 75.5 84 L 76 87.5 L 70.5 107 L 70 103.5 L 75.5 84 Z " /><path fill="rgb(87,88,90)" stroke="rgb(87,88,90)" stroke-width="1" opacity="0.1803921568627451" d="M 402.5 88 L 404 93.5 L 403 93.5 L 402.5 88 Z " /><path fill="rgb(87,88,90)" stroke="rgb(87,88,90)" stroke-width="1" opacity="0.1803921568627451" d="M 404.5 95 L 405 97.5 L 404 97.5 L 404.5 95 Z " /><path fill="rgb(87,88,90)" stroke="rgb(87,88,90)" stroke-width="1" opacity="0.1803921568627451" d="M 405.5 99 L 406 101.5 L 405 101.5 L 405.5 99 Z " /><path fill="rgb(87,88,90)" stroke="rgb(87,88,90)" stroke-width="1" opacity="0.1803921568627451" d="M 406.5 103 L 407 106.5 L 406 106.5 L 406.5 103 Z " /><path fill="rgb(87,88,90)" stroke="rgb(87,88,90)" stroke-width="1" opacity="0.1803921568627451" d="M 69.5 108 L 70 112.5 L 68.5 119 L 68 113.5 L 69.5 108 Z " /><path fill="rgb(87,88,90)" stroke="rgb(87,88,90)" stroke-width="1" opacity="0.1803921568627451" d="M 407.5 108 L 408 111.5 L 407 111.5 L 407.5 108 Z " /><path fill="rgb(87,88,90)" stroke="rgb(87,88,90)" stroke-width="1" opacity="0.1803921568627451" d="M 408.5 113 L 409 117.5 L 408 117.5 L 408.5 113 Z " /><path fill="rgb(87,88,90)" stroke="rgb(87,88,90)" stroke-width="1" opacity="0.1803921568627451" d="M 409.5 119 L 410 125.5 L 409 125.5 L 409.5 119 Z " /><path fill="rgb(87,88,90)" stroke="rgb(87,88,90)" stroke-width="1" opacity="0.1803921568627451" d="M 67.5 120 L 68 125.5 L 67 125.5 L 67.5 120 Z " /><path fill="rgb(87,88,90)" stroke="rgb(87,88,90)" stroke-width="1" opacity="0.1803921568627451" d="M 410.5 127 L 411 141.5 L 410 141.5 L 410.5 127 Z " /><path fill="rgb(87,88,90)" stroke="rgb(87,88,90)" stroke-width="1" opacity="0.1803921568627451" d="M 66.5 128 L 67 159.5 L 66 159.5 L 66.5 128 Z " /><path fill="rgb(87,88,90)" stroke="rgb(87,88,90)" stroke-width="1" opacity="0.1803921568627451" d="M 410.5 146 L 411 160.5 L 410 160.5 L 410.5 146 Z " /><path fill="rgb(87,88,90)" stroke="rgb(87,88,90)" stroke-width="1" opacity="0.1803921568627451" d="M 67.5 161 L 68 167.5 L 67 167.5 L 67.5 161 Z " /><path fill="rgb(87,88,90)" stroke="rgb(87,88,90)" stroke-width="1" opacity="0.1803921568627451" d="M 409.5 162 L 410 168.5 L 409 168.5 L 409.5 162 Z " /><path fill="rgb(87,88,90)" stroke="rgb(87,88,90)" stroke-width="1" opacity="0.1803921568627451" d="M 68.5 169 L 69 173.5 L 68 173.5 L 68.5 169 Z " /><path fill="rgb(87,88,90)" stroke="rgb(87,88,90)" stroke-width="1" opacity="0.1803921568627451" d="M 408.5 170 L 409 174.5 L 408 174.5 L 408.5 170 Z " /><path fill="rgb(87,88,90)" stroke="rgb(87,88,90)" stroke-width="1" opacity="0.1803921568627451" d="M 69.5 175 L 70 179.5 L 69 179.5 L 69.5 175 Z " /><path fill="rgb(87,88,90)" stroke="rgb(87,88,90)" stroke-width="1" opacity="0.1803921568627451" d="M 407.5 176 L 408 179.5 L 407 179.5 L 407.5 176 Z " /><path fill="rgb(87,88,90)" stroke="rgb(87,88,90)" stroke-width="1" opacity="0.1803921568627451" d="M 70.5 181 L 71 183.5 L 70 183.5 L 70.5 181 Z " /><path fill="rgb(87,88,90)" stroke="rgb(87,88,90)" stroke-width="1" opacity="0.1803921568627451" d="M 406.5 181 L 407 184.5 L 405.5 189 L 405 185.5 L 406.5 181 Z " /><path fill="rgb(87,88,90)" stroke="rgb(87,88,90)" stroke-width="1" opacity="0.1803921568627451" d="M 71.5 185 L 76 203.5 L 75 203.5 L 71 188.5 L 71.5 185 Z " /><path fill="rgb(87,88,90)" stroke="rgb(87,88,90)" stroke-width="1" opacity="0.1803921568627451" d="M 404.5 190 L 405 192.5 L 404 192.5 L 404.5 190 Z " /><path fill="rgb(87,88,90)" stroke="rgb(87,88,90)" stroke-width="1" opacity="0.1803921568627451" d="M 403.5 194 L 404 196.5 L 402.5 200 L 402 197.5 L 403.5 194 Z " /><path fill="rgb(87,88,90)" stroke="rgb(87,88,90)" stroke-width="1" opacity="0.1803921568627451" d="M 401.5 201 L 402 204.5 L 401 204.5 L 401.5 201 Z " /><path fill="rgb(87,88,90)" stroke="rgb(87,88,90)" stroke-width="1" opacity="0.1803921568627451" d="M 76.5 205 L 77 209.5 L 76 209.5 L 76.5 205 Z " /><path fill="rgb(87,88,90)" stroke="rgb(87,88,90)" stroke-width="1" opacity="0.1803921568627451" d="M 75.5 212 L 76 218.5 L 75 218.5 L 75.5 212 Z " /><path fill="rgb(87,88,90)" stroke="rgb(87,88,90)" stroke-width="1" opacity="0.1803921568627451" d="M 401.5 212 L 402 217.5 L 401 217.5 L 401.5 212 Z " /><path fill="rgb(87,88,90)" stroke="rgb(87,88,90)" stroke-width="1" opacity="0.1803921568627451" d="M 402.5 219 L 403 224.5 L 402 224.5 L 402.5 219 Z " /><path fill="rgb(87,88,90)" stroke="rgb(87,88,90)" stroke-width="1" opacity="0.1803921568627451" d="M 74.5 220 L 75 225.5 L 74 225.5 L 74.5 220 Z " /><path fill="rgb(87,88,90)" stroke="rgb(87,88,90)" stroke-width="1" opacity="0.1803921568627451" d="M 403.5 226 L 404 230.5 L 403 230.5 L 403.5 226 Z " /><path fill="rgb(87,88,90)" stroke="rgb(87,88,90)" stroke-width="1" opacity="0.1803921568627451" d="M 73.5 227 L 74 230.5 L 73 230.5 L 73.5 227 Z " /><path fill="rgb(87,88,90)" stroke="rgb(87,88,90)" stroke-width="1" opacity="0.1803921568627451" d="M 72.5 232 L 73 236.5 L 72 236.5 L 72.5 232 Z " /><path fill="rgb(87,88,90)" stroke="rgb(87,88,90)" stroke-width="1" opacity="0.1803921568627451" d="M 404.5 232 L 407 247.5 L 406 247.5 L 404.5 232 Z " /><path fill="rgb(87,88,90)" stroke="rgb(87,88,90)" stroke-width="1" opacity="0.1803921568627451" d="M 71.5 238 L 72 242.5 L 71 242.5 L 71.5 238 Z " /><path fill="rgb(87,88,90)" stroke="rgb(87,88,90)" stroke-width="1" opacity="0.1803921568627451" d="M 70.5 244 L 71 248.5 L 70 248.5 L 70.5 244 Z " /><path fill="rgb(87,88,90)" stroke="rgb(87,88,90)" stroke-width="1" opacity="0.1803921568627451" d="M 69.5 250 L 70 257.5 L 69 257.5 L 69.5 250 Z " /><path fill="rgb(87,88,90)" stroke="rgb(87,88,90)" stroke-width="1" opacity="0.1803921568627451" d="M 407.5 250 L 408 256.5 L 407 256.5 L 407.5 250 Z " /><path fill="rgb(87,88,90)" stroke="rgb(87,88,90)" stroke-width="1" opacity="0.1803921568627451" d="M 335.5 254 Q 338.5 253.1 337 257.5 L 341 267.5 L 340 267.5 L 335.5 254 Z " /><path fill="rgb(87,88,90)" stroke="rgb(87,88,90)" stroke-width="1" opacity="0.1803921568627451" d="M 136.5 255 L 139 255.5 L 117.5 264 L 117.5 263 L 136.5 255 Z " /><path fill="rgb(87,88,90)" stroke="rgb(87,88,90)" stroke-width="1" opacity="0.1803921568627451" d="M 338.5 255 L 351.5 259 L 378 271.5 L 376.5 272 L 351.5 260 L 338.5 256 L 338.5 255 Z " /><path fill="rgb(87,88,90)" stroke="rgb(87,88,90)" stroke-width="1" opacity="0.1803921568627451" d="M 140.5 256 L 141 257.5 L 139.5 260 L 139 258.5 L 140.5 256 Z " /><path fill="rgb(87,88,90)" stroke="rgb(87,88,90)" stroke-width="1" opacity="0.1803921568627451" d="M 408.5 259 L 409 268.5 L 408 268.5 L 408.5 259 Z " /><path fill="rgb(87,88,90)" stroke="rgb(87,88,90)" stroke-width="1" opacity="0.1803921568627451" d="M 68.5 260 L 69 267.5 L 68 267.5 L 68.5 260 Z " /><path fill="rgb(87,88,90)" stroke="rgb(87,88,90)" stroke-width="1" opacity="0.1803921568627451" d="M 138.5 261 L 139 262.5 L 131.5 284 L 131 281.5 L 138.5 261 Z " /><path fill="rgb(87,88,90)" stroke="rgb(87,88,90)" stroke-width="1" opacity="0.1803921568627451" d="M 114.5 264 L 116 264.5 L 93.5 275 L 84.5 278 L 80.5 278 L 80.5 277 L 84.5 277 L 93.5 274 L 114.5 264 Z " /><path fill="rgb(87,88,90)" stroke="rgb(87,88,90)" stroke-width="1" opacity="0.1803921568627451" d="M 69.5 269 Q 69.6 274.9 73.5 277 L 76 277.5 L 73.5 278 Q 67.5 275.8 69.5 269 Z " /><path fill="rgb(87,88,90)" stroke="rgb(87,88,90)" stroke-width="1" opacity="0.1803921568627451" d="M 407.5 270 L 408 272.5 L 403.5 278 L 401 277.5 L 406 274.5 L 407.5 270 Z " /><path fill="rgb(87,88,90)" stroke="rgb(87,88,90)" stroke-width="1" opacity="0.1803921568627451" d="M 379.5 272 L 397 277.5 L 392.5 278 L 379.5 273 L 379.5 272 Z " /><path fill="rgb(87,88,90)" stroke="rgb(87,88,90)" stroke-width="1" opacity="0.1803921568627451" d="M 344.5 278 L 347 286.5 L 346 286.5 L 344.5 278 Z " /><path fill="rgb(87,88,90)" stroke="rgb(87,88,90)" stroke-width="1" opacity="0.1803921568627451" d="M 130.5 285 L 131 287.5 L 128.5 295 L 128 292.5 L 130.5 285 Z " /><path fill="rgb(87,88,90)" stroke="rgb(87,88,90)" stroke-width="1" opacity="0.1803921568627451" d="M 347.5 288 L 348 290.5 L 347 290.5 L 347.5 288 Z " /><path fill="rgb(87,88,90)" stroke="rgb(87,88,90)" stroke-width="1" opacity="0.1803921568627451" d="M 348.5 292 L 350 298.5 L 349 298.5 L 348.5 292 Z " /><path fill="rgb(87,88,90)" stroke="rgb(87,88,90)" stroke-width="1" opacity="0.1803921568627451" d="M 127.5 296 L 128 298.5 L 127 298.5 L 127.5 296 Z " /><path fill="rgb(87,88,90)" stroke="rgb(87,88,90)" stroke-width="1" opacity="0.1803921568627451" d="M 126.5 300 L 127 303.5 L 124.5 313 L 124 309.5 L 126.5 300 Z " /><path fill="rgb(87,88,90)" stroke="rgb(87,88,90)" stroke-width="1" opacity="0.1803921568627451" d="M 350.5 300 L 351 302.5 L 350 302.5 L 350.5 300 Z " /><path fill="rgb(87,88,90)" stroke="rgb(87,88,90)" stroke-width="1" opacity="0.1803921568627451" d="M 351.5 304 L 352 307.5 L 351 307.5 L 351.5 304 Z " /><path fill="rgb(87,88,90)" stroke="rgb(87,88,90)" stroke-width="1" opacity="0.1803921568627451" d="M 352.5 309 L 353 312.5 L 352 312.5 L 352.5 309 Z " /><path fill="rgb(87,88,90)" stroke="rgb(87,88,90)" stroke-width="1" opacity="0.1803921568627451" d="M 123.5 314 L 124 318.5 L 123 318.5 L 123.5 314 Z " /><path fill="rgb(87,88,90)" stroke="rgb(87,88,90)" stroke-width="1" opacity="0.1803921568627451" d="M 353.5 314 L 354 318.5 L 353 318.5 L 353.5 314 Z " /><path fill="rgb(87,88,90)" stroke="rgb(87,88,90)" stroke-width="1" opacity="0.1803921568627451" d="M 122.5 320 L 123 324.5 L 122 324.5 L 122.5 320 Z " /><path fill="rgb(87,88,90)" stroke="rgb(87,88,90)" stroke-width="1" opacity="0.1803921568627451" d="M 354.5 320 L 355 324.5 L 354 324.5 L 354.5 320 Z " /><path fill="rgb(87,88,90)" stroke="rgb(87,88,90)" stroke-width="1" opacity="0.1803921568627451" d="M 121.5 326 L 122 332.5 L 121 332.5 L 121.5 326 Z " /><path fill="rgb(87,88,90)" stroke="rgb(87,88,90)" stroke-width="1" opacity="0.1803921568627451" d="M 355.5 326 L 356 331.5 L 355 331.5 L 355.5 326 Z " /><path fill="rgb(87,88,90)" stroke="rgb(87,88,90)" stroke-width="1" opacity="0.1803921568627451" d="M 430.5 327 L 440 327.5 Q 426.1 326.1 422 334.5 L 420.5 338 L 420 336.5 L 424.5 330 L 430.5 327 Z " /><path fill="rgb(87,88,90)" stroke="rgb(87,88,90)" stroke-width="1" opacity="0.1803921568627451" d="M 441.5 328 Q 453.5 331 460 339.5 Q 470.8 350.7 475 368.5 L 474 368.5 Q 468.8 345.8 452.5 334 L 441.5 329 L 441.5 328 Z " /><path fill="rgb(87,88,90)" stroke="rgb(87,88,90)" stroke-width="1" opacity="0.1803921568627451" d="M 356.5 333 L 357 340.5 L 356 340.5 L 356.5 333 Z " /><path fill="rgb(87,88,90)" stroke="rgb(87,88,90)" stroke-width="1" opacity="0.1803921568627451" d="M 120.5 334 L 121 341.5 L 120 341.5 L 120.5 334 Z " /><path fill="rgb(87,88,90)" stroke="rgb(87,88,90)" stroke-width="1" opacity="0.1803921568627451" d="M 419.5 339 L 420 351.5 L 419 351.5 L 419.5 339 Z " /><path fill="rgb(87,88,90)" stroke="rgb(87,88,90)" stroke-width="1" opacity="0.1803921568627451" d="M 357.5 343 L 358 353.5 L 357 353.5 L 357.5 343 Z " /><path fill="rgb(87,88,90)" stroke="rgb(87,88,90)" stroke-width="1" opacity="0.1803921568627451" d="M 119.5 344 L 120 354.5 L 119 354.5 L 119.5 344 Z " /><path fill="rgb(87,88,90)" stroke="rgb(87,88,90)" stroke-width="1" opacity="0.1803921568627451" d="M 420.5 353 L 421 357.5 L 420 357.5 L 420.5 353 Z " /><path fill="rgb(87,88,90)" stroke="rgb(87,88,90)" stroke-width="1" opacity="0.1803921568627451" d="M 358.5 357 L 359 380.5 L 358 380.5 L 358.5 357 Z " /><path fill="rgb(87,88,90)" stroke="rgb(87,88,90)" stroke-width="1" opacity="0.1803921568627451" d="M 118.5 358 L 119 378.5 L 118 378.5 L 118.5 358 Z " /><path fill="rgb(87,88,90)" stroke="rgb(87,88,90)" stroke-width="1" opacity="0.1803921568627451" d="M 421.5 359 L 422 363.5 L 421 363.5 L 421.5 359 Z " /><path fill="rgb(87,88,90)" stroke="rgb(87,88,90)" stroke-width="1" opacity="0.1803921568627451" d="M 422.5 366 L 423 377.5 L 422 377.5 L 422.5 366 Z " /><path fill="rgb(87,88,90)" stroke="rgb(87,88,90)" stroke-width="1" opacity="0.1803921568627451" d="M 475.5 370 L 476 372.5 L 475 372.5 L 475.5 370 Z " /><path fill="rgb(87,88,90)" stroke="rgb(87,88,90)" stroke-width="1" opacity="0.1803921568627451" d="M 476.5 374 L 477 380.5 L 476 380.5 L 476.5 374 Z " /><path fill="rgb(87,88,90)" stroke="rgb(87,88,90)" stroke-width="1" opacity="0.1803921568627451" d="M 421.5 380 L 422 385.5 L 420.5 390 L 420 386.5 L 421.5 380 Z " /><path fill="rgb(87,88,90)" stroke="rgb(87,88,90)" stroke-width="1" opacity="0.1803921568627451" d="M 477.5 383 L 478 392.5 L 477 392.5 L 477.5 383 Z " /><path fill="rgb(87,88,90)" stroke="rgb(87,88,90)" stroke-width="1" opacity="0.1803921568627451" d="M 119.5 384 L 120 393.5 L 119 393.5 L 119.5 384 Z " /><path fill="rgb(87,88,90)" stroke="rgb(87,88,90)" stroke-width="1" opacity="0.1803921568627451" d="M 357.5 385 L 358 394.5 L 357 394.5 L 357.5 385 Z " /><path fill="rgb(87,88,90)" stroke="rgb(87,88,90)" stroke-width="1" opacity="0.1803921568627451" d="M 419.5 391 L 420 393.5 L 418.5 396 L 418 394.5 L 419.5 391 Z " /><path fill="rgb(87,88,90)" stroke="rgb(87,88,90)" stroke-width="1" opacity="0.1803921568627451" d="M 120.5 395 L 121 401.5 L 120 401.5 L 120.5 395 Z " /><path fill="rgb(87,88,90)" stroke="rgb(87,88,90)" stroke-width="1" opacity="0.1803921568627451" d="M 356.5 396 L 357 401.5 L 356 401.5 L 356.5 396 Z " /><path fill="rgb(87,88,90)" stroke="rgb(87,88,90)" stroke-width="1" opacity="0.1803921568627451" d="M 476.5 396 L 477 400.5 L 476 400.5 L 476.5 396 Z " /><path fill="rgb(87,88,90)" stroke="rgb(87,88,90)" stroke-width="1" opacity="0.1803921568627451" d="M 417.5 397 L 418 398.5 Q 411.8 414.3 399.5 424 Q 392.7 430.2 382.5 433 L 382.5 432 Q 398.1 427.1 407 415.5 L 417.5 397 Z " /><path fill="rgb(87,88,90)" stroke="rgb(87,88,90)" stroke-width="1" opacity="0.1803921568627451" d="M 475.5 402 L 476 405.5 L 475 405.5 L 475.5 402 Z " /><path fill="rgb(87,88,90)" stroke="rgb(87,88,90)" stroke-width="1" opacity="0.1803921568627451" d="M 121.5 403 L 124 416.5 L 123 416.5 L 121 407.5 L 121.5 403 Z " /><path fill="rgb(87,88,90)" stroke="rgb(87,88,90)" stroke-width="1" opacity="0.1803921568627451" d="M 355.5 403 L 356 407.5 L 355 407.5 L 355.5 403 Z " /><path fill="rgb(87,88,90)" stroke="rgb(87,88,90)" stroke-width="1" opacity="0.1803921568627451" d="M 474.5 407 L 475 409.5 L 472.5 415 L 472 413.5 L 474.5 407 Z " /><path fill="rgb(87,88,90)" stroke="rgb(87,88,90)" stroke-width="1" opacity="0.1803921568627451" d="M 354.5 409 L 355 412.5 L 354 412.5 L 354.5 409 Z " /><path fill="rgb(87,88,90)" stroke="rgb(87,88,90)" stroke-width="1" opacity="0.1803921568627451" d="M 353.5 414 L 354 417.5 L 352.5 421 L 352 418.5 L 353.5 414 Z " /><path fill="rgb(87,88,90)" stroke="rgb(87,88,90)" stroke-width="1" opacity="0.1803921568627451" d="M 471.5 416 L 472 417.5 Q 462.6 438.6 445.5 452 Q 433.6 461.6 418.5 468 L 406.5 472 L 394.5 474 L 394.5 473 Q 436.2 465.7 458 438.5 Q 466.5 429 471.5 416 Z " /><path fill="rgb(87,88,90)" stroke="rgb(87,88,90)" stroke-width="1" opacity="0.1803921568627451" d="M 124.5 418 L 126 423.5 L 125 423.5 L 124.5 418 Z " /><path fill="rgb(87,88,90)" stroke="rgb(87,88,90)" stroke-width="1" opacity="0.1803921568627451" d="M 351.5 422 L 352 424.5 L 349 434 L 352 434.5 L 348 435 L 351.5 422 Z " /><path fill="rgb(87,88,90)" stroke="rgb(87,88,90)" stroke-width="1" opacity="0.1803921568627451" d="M 126.5 425 Q 134.6 454.4 155.5 471 L 158 472.5 L 156.5 477 L 156 474.5 L 157 472 L 147 464.5 L 133 444.5 L 126 427.5 L 126.5 425 Z " /><path fill="rgb(87,88,90)" stroke="rgb(87,88,90)" stroke-width="1" opacity="0.1803921568627451" d="M 378.5 433 L 381 433.5 L 374.5 435 L 374.5 434 L 378.5 433 Z " /><path fill="rgb(87,88,90)" stroke="rgb(87,88,90)" stroke-width="1" opacity="0.1803921568627451" d="M 353.5 435 L 359 435.5 L 353.5 436 L 353.5 435 Z " /><path fill="rgb(87,88,90)" stroke="rgb(87,88,90)" stroke-width="1" opacity="0.1803921568627451" d="M 366.5 435 L 373 435.5 L 366.5 436 L 366.5 435 Z " /><path fill="rgb(87,88,90)" stroke="rgb(87,88,90)" stroke-width="1" opacity="0.1803921568627451" d="M 323.5 469 L 333 471.5 L 329.5 472 L 323.5 470 L 320 472 L 322 477.5 L 322 481.5 L 321 481.5 Q 321.6 475.4 319 472.5 L 323.5 469 Z " /><path fill="rgb(87,88,90)" stroke="rgb(87,88,90)" stroke-width="1" opacity="0.1803921568627451" d="M 334.5 472 L 338 472.5 L 334.5 473 L 334.5 472 Z " /><path fill="rgb(87,88,90)" stroke="rgb(87,88,90)" stroke-width="1" opacity="0.1803921568627451" d="M 339.5 473 L 344 473.5 L 339.5 474 L 339.5 473 Z " /><path fill="rgb(87,88,90)" stroke="rgb(87,88,90)" stroke-width="1" opacity="0.1803921568627451" d="M 345.5 474 L 351 474.5 L 345.5 475 L 345.5 474 Z " /><path fill="rgb(87,88,90)" stroke="rgb(87,88,90)" stroke-width="1" opacity="0.1803921568627451" d="M 388.5 474 L 393 474.5 L 388.5 475 L 388.5 474 Z " /><path fill="rgb(87,88,90)" stroke="rgb(87,88,90)" stroke-width="1" opacity="0.1803921568627451" d="M 353.5 475 L 367 475.5 L 353.5 476 L 353.5 475 Z " /><path fill="rgb(87,88,90)" stroke="rgb(87,88,90)" stroke-width="1" opacity="0.1803921568627451" d="M 374.5 475 L 386 475.5 L 374.5 476 L 374.5 475 Z " /><path fill="rgb(87,88,90)" stroke="rgb(87,88,90)" stroke-width="1" opacity="0.1803921568627451" d="M 155.5 478 L 156 482.5 L 155 482.5 L 155.5 478 Z " /><path fill="rgb(87,88,90)" stroke="rgb(87,88,90)" stroke-width="1" opacity="0.1803921568627451" d="M 206.5 478 L 207 480.5 L 206 480.5 L 206.5 478 Z " /><path fill="rgb(87,88,90)" stroke="rgb(87,88,90)" stroke-width="1" opacity="0.1803921568627451" d="M 270.5 478 L 271 489.5 L 270 489.5 L 270.5 478 Z " /><path fill="rgb(87,88,90)" stroke="rgb(87,88,90)" stroke-width="1" opacity="0.1803921568627451" d="M 206.5 486 L 207 491.5 L 202.5 498 L 193.5 501 L 193.5 500 Q 201.8 499.3 205 493.5 L 206.5 486 Z " /><path fill="rgb(87,88,90)" stroke="rgb(87,88,90)" stroke-width="1" opacity="0.1803921568627451" d="M 155.5 489 Q 155.3 494.7 158.5 497 L 161 498.5 L 159.5 498 L 156 495.5 L 155.5 489 Z " /><path fill="rgb(87,88,90)" stroke="rgb(87,88,90)" stroke-width="1" opacity="0.1803921568627451" d="M 321.5 490 L 322 493.5 L 317.5 499 L 309.5 501 L 309.5 500 Q 317 500 320 495.5 L 321.5 490 Z " /><path fill="rgb(87,88,90)" stroke="rgb(87,88,90)" stroke-width="1" opacity="0.1803921568627451" d="M 271.5 491 Q 272 496.5 276.5 498 Q 282.6 501.4 292 501.5 L 285.5 502 L 273 497 L 271 493.5 L 271.5 491 Z " /><path fill="rgb(87,88,90)" stroke="rgb(87,88,90)" stroke-width="1" opacity="0.1803921568627451" d="M 162.5 499 L 168 500.5 L 164.5 501 L 162.5 499 Z " /><path fill="rgb(87,88,90)" stroke="rgb(87,88,90)" stroke-width="1" opacity="0.1803921568627451" d="M 169.5 501 L 175 501.5 L 169.5 502 L 169.5 501 Z " /><path fill="rgb(87,88,90)" stroke="rgb(87,88,90)" stroke-width="1" opacity="0.1803921568627451" d="M 185.5 501 L 192 501.5 L 185.5 502 L 185.5 501 Z " /><path fill="rgb(87,88,90)" stroke="rgb(87,88,90)" stroke-width="1" opacity="0.1803921568627451" d="M 302.5 501 L 308 501.5 L 302.5 502 L 302.5 501 Z " /><path fill="rgb(0,0,0)" stroke="rgb(0,0,0)" stroke-width="1" opacity="0" d="M 0 0 L 512 0 L 512 512 L 0 512 L 0 0 Z M 74 10 L 70 14 L 68 21 L 69 38 L 76 76 L 76 84 L 70 104 L 67 121 L 67 128 L 66 129 L 66 160 Q 69 161 67 168 L 71 189 L 76 205 L 74 227 L 72 233 L 70 250 L 69 251 L 69 260 L 68 261 L 69 273 L 74 278 L 85 278 L 94 275 L 126 260 L 140 255 L 141 256 L 131 282 L 125 305 L 121 327 L 120 344 L 119 345 L 119 358 L 118 359 L 119 394 L 124 421 Q 131 447 147 465 L 157 472 L 155 479 L 155 494 L 156 496 L 165 501 L 170 502 L 192 502 L 203 498 L 207 492 L 207 479 L 208 478 L 270 478 Q 268 491 273 497 L 286 502 L 308 502 L 318 499 L 322 494 Q 321 488 323 487 L 322 486 L 322 478 L 320 472 L 324 470 L 354 476 L 386 476 L 407 472 Q 429 465 446 452 Q 458 442 467 428 L 475 410 L 478 393 Q 478 357 460 340 Q 453 330 440 327 Q 429 326 425 330 L 419 340 L 419 352 L 422 365 L 422 380 L 420 391 Q 416 405 407 416 Q 399 425 387 431 L 374 435 Q 367 433 366 436 L 360 436 L 349 434 L 356 408 L 357 396 L 358 395 L 358 382 L 359 381 L 358 344 L 357 343 L 357 334 L 356 333 L 354 315 L 347 285 L 337 258 L 338 255 L 352 260 L 384 275 L 393 278 L 404 278 Q 408 275 409 269 L 408 251 L 401 212 L 401 206 L 407 185 L 410 169 L 410 162 L 411 161 L 411 128 Q 408 126 410 120 L 407 104 L 401 83 L 403 63 L 409 30 L 408 16 L 404 10 L 393 10 L 384 13 L 352 28 L 332 34 L 324 32 L 309 31 L 308 30 L 288 29 L 287 28 L 274 28 L 273 27 L 205 27 L 204 28 L 191 28 L 190 29 L 170 30 L 169 31 L 147 33 L 146 34 L 131 30 L 99 15 L 85 10 L 74 10 Z M 36 37 L 34 40 L 37 42 L 43 43 L 34 52 L 34 54 L 36 55 L 52 55 L 52 50 L 44 50 L 52 41 L 52 37 L 36 37 Z M 48 67 L 48 71 L 50 72 L 61 72 L 48 86 Q 47 90 49 90 L 70 90 L 71 87 L 70 85 L 57 85 L 71 71 L 71 69 L 70 67 L 48 67 Z " /><path fill="rgb(162,112,114)" stroke="rgb(162,112,114)" stroke-width="1" opacity="0.9803921568627451" d="M 76.5 10 L 88.5 12 L 136.5 33 L 151.5 34 L 167.5 31 L 186.5 30 L 187.5 29 L 200.5 29 L 201.5 28 L 250.5 27 L 251.5 28 L 289.5 29 L 290.5 30 L 317.5 32 L 325.5 34 L 336.5 34 L 351.5 29 L 383.5 14 L 392.5 11 L 400.5 10 L 406 13.5 Q 409.7 19.3 408 30.5 L 401 70.5 L 401 86.5 L 408 112.5 L 411 145.5 L 410 146.5 L 410 161.5 L 409 162.5 L 408 175.5 L 401 201.5 L 401 217.5 L 407 248.5 L 408 269.5 L 403.5 277 L 397.5 278 L 383.5 274 L 351.5 259 L 335.5 254 L 336 255.5 L 347 287.5 L 353 313.5 L 355 331.5 L 356 332.5 L 356 340.5 L 357 341.5 L 357 353.5 L 358 354.5 L 358 384.5 L 357 385.5 L 357 395.5 L 356 396.5 L 354 413.5 L 348 435 L 353.5 436 L 372.5 436 Q 396.7 431.2 409 414.5 L 420 393.5 L 423 377.5 L 423 366.5 L 420 352.5 L 420 338.5 L 427.5 329 Q 432.3 326.8 440.5 328 Q 455 333 463 344.5 Q 471 355 475 369.5 L 476 380.5 L 477 381.5 L 477 395.5 L 472 415.5 L 466 427.5 Q 457.5 441 445.5 451 Q 429.3 464.3 406.5 471 L 387.5 475 L 367.5 476 L 366.5 475 L 344.5 474 L 323.5 469 L 319 472.5 L 322 482.5 L 322 489.5 L 318.5 497 L 308.5 501 L 292.5 502 L 278.5 499 L 272 493.5 L 271 490.5 L 271 478 L 206.5 478 L 206 480.5 L 207 485.5 L 205 493.5 L 200.5 498 L 192.5 501 L 175.5 502 L 161.5 499 L 157 495.5 L 155 488.5 L 155 483.5 L 158 472.5 L 143 458.5 L 133 442.5 L 124 417.5 L 120 394.5 L 120 384.5 L 119 383.5 L 119 355.5 L 120 354.5 L 120 342.5 L 121 341.5 L 122 325.5 L 127 299.5 L 131 284.5 L 142 254.5 L 140.5 254 L 125.5 259 L 93.5 274 L 84.5 277 L 76.5 278 L 71 274.5 Q 67.7 268.8 69 258.5 L 70 257.5 L 70 249.5 L 71 248.5 L 73 231.5 L 75 225.5 L 77 205.5 L 70 180.5 L 70 175.5 L 68 168.5 Q 69.7 162.3 67 160.5 L 67 126.5 L 68 125.5 L 70 107.5 L 76 87.5 L 77 78.5 L 70 38.5 L 69 19.5 L 71 13.5 L 73.5 11 L 76.5 10 Z M 77 14 L 73 19 L 74 39 L 80 70 L 80 88 L 73 113 L 72 126 L 71 127 L 71 142 L 70 143 L 72 170 L 78 197 L 80 201 L 80 219 L 73 259 Q 71 270 77 274 L 91 271 L 123 256 L 136 251 L 143 250 L 151 232 L 163 211 L 147 193 L 141 181 L 136 161 L 137 135 L 142 110 L 142 59 L 144 55 L 147 54 Q 153 53 155 56 L 179 76 L 183 76 L 201 70 L 219 68 L 220 67 L 258 67 L 259 68 L 267 68 L 285 72 L 296 76 L 299 76 L 326 54 L 333 55 L 335 59 L 335 110 L 338 121 L 340 142 L 341 143 L 341 162 L 339 173 Q 334 190 323 203 L 314 211 L 329 238 L 333 249 L 335 250 L 348 253 L 390 272 L 401 274 L 404 270 L 403 250 L 398 226 L 397 209 L 396 208 L 402 185 L 406 162 L 406 127 L 401 99 L 397 87 L 397 71 L 404 32 Q 405 21 403 15 L 401 14 L 387 17 L 350 34 L 337 38 L 327 38 L 319 36 L 292 34 L 291 33 L 257 32 L 256 31 L 201 32 L 200 33 L 187 33 L 186 34 L 168 35 L 151 38 L 137 37 L 121 31 L 94 18 L 81 14 L 77 14 Z M 148 58 L 146 60 L 146 112 L 143 123 L 141 145 L 140 146 L 140 160 L 145 180 Q 151 193 160 203 L 174 214 L 173 217 L 167 213 L 151 242 L 137 278 L 127 319 L 125 339 L 124 340 L 124 350 L 123 351 L 123 387 L 124 388 L 124 397 L 125 398 L 126 410 L 134 436 L 147 458 L 160 469 Q 163 465 162 457 L 164 455 L 166 457 L 165 468 L 159 482 Q 158 489 160 493 L 165 496 L 173 498 L 188 498 L 199 495 L 203 489 L 203 479 L 201 471 L 201 458 L 204 457 L 205 459 L 205 471 L 206 472 L 207 474 L 271 474 L 273 463 Q 271 457 277 459 L 275 472 L 275 491 L 276 493 L 281 496 L 290 498 L 305 498 L 315 495 L 318 491 L 318 481 L 312 467 L 311 457 L 314 455 L 315 457 L 316 467 L 318 469 L 320 468 Q 336 455 344 434 L 350 415 L 353 398 L 353 390 L 354 389 L 354 349 L 353 348 L 352 331 L 347 303 Q 335 252 311 213 L 306 217 L 302 216 L 303 213 L 314 206 Q 332 190 337 161 L 336 136 L 331 111 L 331 60 L 330 58 L 326 59 L 299 81 L 280 75 L 264 72 L 257 72 L 256 71 L 222 71 Q 220 74 214 72 L 191 77 L 181 81 L 175 78 L 151 58 L 148 58 Z M 435 331 L 429 333 Q 424 336 423 343 L 424 355 L 426 361 L 426 369 L 427 370 L 426 384 L 424 393 Q 420 406 413 416 Q 399 435 372 440 L 355 440 L 347 438 L 340 451 L 328 467 L 343 470 L 360 471 L 361 472 L 390 471 L 408 467 Q 430 460 446 446 Q 456 436 464 424 L 471 407 L 473 397 L 473 379 L 470 366 Q 466 354 459 346 Q 451 334 435 331 Z " /><path fill="rgb(162,112,114)" stroke="rgb(162,112,114)" stroke-width="1" opacity="0.9803921568627451" d="M 36.5 37 L 49.5 37 L 52 38 L 42 51 L 50.5 51 L 52 52.5 L 50.5 54 L 35 54 L 35 51.5 L 45 41.5 L 36.5 41 L 35 39.5 L 36.5 37 Z " /><path fill="rgb(162,112,114)" stroke="rgb(162,112,114)" stroke-width="1" opacity="0.9803921568627451" d="M 50.5 67 L 68.5 67 L 70 68.5 L 55 85.5 L 70 86 L 69.5 89 L 49.5 89 L 48 87.5 L 63 72.5 L 62.5 71 L 49.5 71 L 48 68 L 50.5 67 Z " /><path fill="rgb(162,112,114)" stroke="rgb(162,112,114)" stroke-width="1" opacity="0.9803921568627451" d="M 81 99 L 111.5 99 L 112 102.5 L 89 125.5 L 89 127 L 111.5 127 L 113 128.5 L 112 131 L 82.5 131 L 81 129.5 L 81 127.5 L 105 103.5 L 82.5 103 L 81 101.5 L 81 99 Z " /><path fill="rgb(162,112,114)" stroke="rgb(162,112,114)" stroke-width="1" opacity="0.9803921568627451" d="M 189.5 129 Q 190.8 133.3 197.5 132 L 201 130 L 197.5 136 L 193.5 137 L 190 134.5 L 189.5 129 Z " /><path fill="rgb(162,112,114)" stroke="rgb(162,112,114)" stroke-width="1" opacity="0.9803921568627451" d="M 287.5 129 L 288 132.5 L 285.5 136 L 280.5 137 Q 276.4 134.7 276 130 L 279.5 132 L 284.5 132 L 287.5 129 Z " /><path fill="rgb(162,112,114)" stroke="rgb(162,112,114)" stroke-width="1" opacity="0.9803921568627451" d="M 234.5 144 Q 243.4 142.6 247 146.5 L 248 152.5 Q 246.3 159.3 241 162.5 L 241 171.5 L 244.5 175 L 253.5 175 L 255 176.5 L 253.5 179 Q 241.8 181.2 238.5 175 Q 235.2 181.2 223.5 179 L 222 176.5 L 223.5 175 L 232.5 175 L 236 171.5 L 237 162.5 L 232 158.5 L 229 149.5 L 230 146 L 234.5 144 Z " /><path fill="rgb(162,112,114)" stroke="rgb(162,112,114)" stroke-width="1" opacity="0.9803921568627451" d="M 177.5 162 L 181.5 162 L 202.5 168 L 207 170.5 Q 208.3 175.1 202.5 173 L 178.5 166 L 176 163.5 L 177.5 162 Z " /><path fill="rgb(162,112,114)" stroke="rgb(162,112,114)" stroke-width="1" opacity="0.9803921568627451" d="M 295.5 162 Q 300 161 301 163.5 Q 301.8 165.8 299.5 165 L 271.5 173 L 270 170.5 L 271.5 169 L 295.5 162 Z " /><path fill="rgb(162,112,114)" stroke="rgb(162,112,114)" stroke-width="1" opacity="0.9803921568627451" d="M 198.5 181 L 207 181 L 207 184 L 204.5 185 L 177.5 188 Q 174 186 178.5 184 L 197.5 182 L 198.5 181 Z " /><path fill="rgb(162,112,114)" stroke="rgb(162,112,114)" stroke-width="1" opacity="0.9803921568627451" d="M 270 181 L 299.5 184 L 301 185.5 L 299.5 188 L 272.5 185 L 270 184 L 270 181 Z " /><path fill="rgb(162,112,114)" stroke="rgb(162,112,114)" stroke-width="1" opacity="0.9803921568627451" d="M 167 265 L 178.5 271 L 207.5 293 L 235 307 L 238 312.5 L 238 318.5 Q 233.4 335.9 221.5 346 L 214.5 348 Q 205.3 345.2 200 338.5 L 194.5 331 L 167.5 315 L 147.5 309 L 146 307.5 Q 144.7 302.9 150.5 305 Q 179.9 313.1 200 330.5 L 208.5 341 L 216.5 344 L 225 336.5 L 232 324.5 L 234 318.5 L 234 313.5 L 230.5 309 L 209.5 299 L 166 267.5 L 167 265 Z " /><path fill="rgb(162,112,114)" stroke="rgb(162,112,114)" stroke-width="1" opacity="0.9803921568627451" d="M 309.5 268 L 313 269.5 L 311.5 272 L 278.5 295 L 249 310 L 247 316.5 Q 251 333.5 262.5 343 L 266.5 344 Q 275.3 340.8 280 333.5 L 285.5 327 L 308.5 313 L 326.5 305 L 330.5 305 Q 334 307 329.5 309 L 303.5 320 L 284 333.5 Q 282.4 340.4 276.5 343 L 267.5 348 L 264.5 348 L 256 342.5 L 245 324.5 L 243 313.5 L 249.5 305 L 272.5 294 L 309.5 268 Z " /><path fill="rgb(253,165,164)" stroke="rgb(253,165,164)" stroke-width="1" opacity="1" d="M 76.5 14 L 80.5 14 L 93.5 18 L 120.5 31 L 136.5 37 L 150.5 38 L 167.5 35 L 185.5 34 L 186.5 33 L 199.5 33 L 200.5 32 L 255.5 31 L 256.5 32 L 290.5 33 L 291.5 34 L 318.5 36 L 326.5 38 L 336.5 38 L 349.5 34 L 386.5 17 L 400.5 14 L 403 15 Q 405.3 20.6 404 31.5 L 397 70.5 L 397 86.5 L 401 98.5 L 406 126.5 L 406 161.5 L 402 184.5 L 396 207.5 L 397 208.5 L 398 225.5 L 403 249.5 L 404 269.5 L 400.5 274 L 389.5 272 L 347.5 253 L 334.5 250 L 333 248.5 L 329 237.5 L 314 210.5 L 323 202.5 Q 333.7 190.2 339 172.5 L 341 161.5 L 341 142.5 L 340 141.5 L 338 120.5 L 335 109.5 L 335 58.5 L 332.5 55 L 325.5 54 L 298.5 76 L 295.5 76 L 284.5 72 L 266.5 68 L 258.5 68 L 257.5 67 L 219.5 67 L 218.5 68 L 200.5 70 L 182.5 76 L 178.5 76 L 154.5 56 Q 152.5 53 146.5 54 L 144 55 L 142 58.5 L 142 109.5 L 137 134.5 L 136 160.5 L 141 180.5 L 147 192.5 L 163 210.5 L 151 231.5 L 142.5 250 L 135.5 251 L 122.5 256 L 90.5 271 L 76.5 274 Q 71.1 269.9 73 258.5 L 80 218.5 L 80 200.5 L 78 196.5 L 72 169.5 L 70 142.5 L 71 141.5 L 71 126.5 L 72 125.5 L 73 112.5 L 80 87.5 L 80 69.5 L 74 38.5 L 73 18.5 L 76.5 14 Z M 81 99 L 81 102 L 83 103 L 105 104 L 81 128 L 81 130 L 83 131 L 112 131 L 113 129 L 112 127 L 89 127 L 89 126 L 112 103 L 112 99 L 81 99 Z " /><path fill="rgb(253,165,164)" stroke="rgb(253,165,164)" stroke-width="1" opacity="1" d="M 147.5 58 L 146.5 60 L 147.5 58 Z " /><path fill="rgb(253,165,164)" stroke="rgb(253,165,164)" stroke-width="1" opacity="1" d="M 199.5 134 L 198.5 136 L 199.5 134 Z " /><path fill="rgb(253,165,164)" stroke="rgb(253,165,164)" stroke-width="1" opacity="1" d="M 277.5 134 L 278.5 136 L 277.5 134 Z " /><path fill="rgb(253,165,164)" stroke="rgb(253,165,164)" stroke-width="1" opacity="1" d="M 235.5 161 Q 238.3 162.3 237 167.5 L 236 167.5 L 235.5 161 Z " /><path fill="rgb(253,165,164)" stroke="rgb(253,165,164)" stroke-width="1" opacity="1" d="M 176.5 164 L 177.5 166 L 176.5 164 Z " /><path fill="rgb(253,165,164)" stroke="rgb(253,165,164)" stroke-width="1" opacity="1" d="M 177.5 184 L 176.5 186 L 177.5 184 Z " /><path fill="rgb(253,165,164)" stroke="rgb(253,165,164)" stroke-width="1" opacity="1" d="M 318.5 200 L 316.5 203 L 318.5 200 Z " /><path fill="rgb(253,165,164)" stroke="rgb(253,165,164)" stroke-width="1" opacity="1" d="M 160.5 202 L 161.5 204 L 160.5 202 Z " /><path fill="rgb(253,165,164)" stroke="rgb(253,165,164)" stroke-width="1" opacity="1" d="M 314.5 204 L 313.5 206 L 314.5 204 Z " /><path fill="rgb(253,165,164)" stroke="rgb(253,165,164)" stroke-width="1" opacity="1" d="M 285.5 332 L 284.5 334 L 285.5 332 Z " /><path fill="rgb(253,165,164)" stroke="rgb(253,165,164)" stroke-width="1" opacity="1" d="M 353.5 348 L 354 350.5 L 353 350.5 L 353.5 348 Z " /><path fill="rgb(253,165,164)" stroke="rgb(253,165,164)" stroke-width="1" opacity="1" d="M 123.5 350 L 124 352.5 L 123 352.5 L 123.5 350 Z " /><path fill="rgb(253,165,164)" stroke="rgb(253,165,164)" stroke-width="1" opacity="1" d="M 426.5 366 L 427 368.5 L 426 368.5 L 426.5 366 Z " /><path fill="rgb(253,165,164)" stroke="rgb(253,165,164)" stroke-width="1" opacity="1" d="M 426.5 375 L 427 377.5 L 426 377.5 L 426.5 375 Z " /><path fill="rgb(253,165,164)" stroke="rgb(253,165,164)" stroke-width="1" opacity="1" d="M 409.5 419 L 405.5 424 L 409.5 419 Z " /><path fill="rgb(253,165,164)" stroke="rgb(253,165,164)" stroke-width="1" opacity="1" d="M 446.5 444 L 445.5 446 L 446.5 444 Z " /><path fill="rgb(253,165,164)" stroke="rgb(253,165,164)" stroke-width="1" opacity="1" d="M 200.5 458 L 201 460.5 L 200 460.5 L 200.5 458 Z " /><path fill="rgb(253,165,164)" stroke="rgb(253,165,164)" stroke-width="1" opacity="1" d="M 360.5 471 L 364 471.5 L 360.5 472 L 360.5 471 Z " /><path fill="rgb(253,165,164)" stroke="rgb(253,165,164)" stroke-width="1" opacity="1" d="M 376.5 471 L 380 471.5 L 376.5 472 L 376.5 471 Z " /><path fill="rgb(233,233,233)" stroke="rgb(233,233,233)" stroke-width="1" opacity="1" d="M 173.5 77 L 174.5 79 L 173.5 77 Z " /><path fill="rgb(233,233,233)" stroke="rgb(233,233,233)" stroke-width="1" opacity="1" d="M 287.5 128 L 285.5 131 L 287.5 128 Z " /><path fill="rgb(233,233,233)" stroke="rgb(233,233,233)" stroke-width="1" opacity="1" d="M 336.5 150 L 337 153.5 L 336 153.5 L 336.5 150 Z " /><path fill="rgb(233,233,233)" stroke="rgb(233,233,233)" stroke-width="1" opacity="1" d="M 234.5 172 L 233.5 174 L 234.5 172 Z " /><path fill="rgb(233,233,233)" stroke="rgb(233,233,233)" stroke-width="1" opacity="1" d="M 242.5 172 L 243.5 174 L 242.5 172 Z " /><path fill="rgb(233,233,233)" stroke="rgb(233,233,233)" stroke-width="1" opacity="1" d="M 157.5 198 L 158.5 200 L 157.5 198 Z " /><path fill="rgb(233,233,233)" stroke="rgb(233,233,233)" stroke-width="1" opacity="1" d="M 164.5 205 L 165.5 207 L 164.5 205 Z " /><path fill="rgb(233,233,233)" stroke="rgb(233,233,233)" stroke-width="1" opacity="1" d="M 311.5 206 L 310.5 208 L 311.5 206 Z " /><path fill="rgb(233,233,233)" stroke="rgb(233,233,233)" stroke-width="1" opacity="1" d="M 173.5 212 L 174.5 214 L 173.5 212 Z " /><path fill="rgb(233,233,233)" stroke="rgb(233,233,233)" stroke-width="1" opacity="1" d="M 129.5 310 L 130 314.5 L 129 314.5 L 129.5 310 Z " /><path fill="rgb(233,233,233)" stroke="rgb(233,233,233)" stroke-width="1" opacity="1" d="M 347.5 310 L 348 314.5 L 347 314.5 L 347.5 310 Z " /><path fill="rgb(233,233,233)" stroke="rgb(233,233,233)" stroke-width="1" opacity="1" d="M 128.5 317 L 129 324.5 L 128 324.5 L 128.5 317 Z " /><path fill="rgb(233,233,233)" stroke="rgb(233,233,233)" stroke-width="1" opacity="1" d="M 348.5 317 L 349 323.5 L 348 323.5 L 348.5 317 Z " /><path fill="rgb(233,233,233)" stroke="rgb(233,233,233)" stroke-width="1" opacity="1" d="M 285.5 326 L 284.5 328 L 285.5 326 Z " /><path fill="rgb(233,233,233)" stroke="rgb(233,233,233)" stroke-width="1" opacity="1" d="M 349.5 328 L 350 339.5 L 349 339.5 L 349.5 328 Z " /><path fill="rgb(233,233,233)" stroke="rgb(233,233,233)" stroke-width="1" opacity="1" d="M 127.5 330 L 128 343.5 L 127 343.5 L 127.5 330 Z " /><path fill="rgb(233,233,233)" stroke="rgb(233,233,233)" stroke-width="1" opacity="1" d="M 437.5 332 L 440.5 336 L 437.5 332 Z " /><path fill="rgb(233,233,233)" stroke="rgb(233,233,233)" stroke-width="1" opacity="1" d="M 275.5 337 L 274.5 339 L 275.5 337 Z " /><path fill="rgb(233,233,233)" stroke="rgb(233,233,233)" stroke-width="1" opacity="1" d="M 441.5 337 L 447 343.5 L 444 341.5 L 441.5 337 Z " /><path fill="rgb(233,233,233)" stroke="rgb(233,233,233)" stroke-width="1" opacity="1" d="M 199.5 338 L 203.5 343 L 199.5 338 Z " /><path fill="rgb(233,233,233)" stroke="rgb(233,233,233)" stroke-width="1" opacity="1" d="M 221.5 339 L 220.5 341 L 221.5 339 Z " /><path fill="rgb(233,233,233)" stroke="rgb(233,233,233)" stroke-width="1" opacity="1" d="M 255.5 342 L 257.5 345 L 255.5 342 Z " /><path fill="rgb(233,233,233)" stroke="rgb(233,233,233)" stroke-width="1" opacity="1" d="M 127.5 345 L 128 348.5 L 127 348.5 L 127.5 345 Z " /><path fill="rgb(233,233,233)" stroke="rgb(233,233,233)" stroke-width="1" opacity="1" d="M 448.5 347 L 451 351.5 L 450 351.5 L 448.5 347 Z " /><path fill="rgb(233,233,233)" stroke="rgb(233,233,233)" stroke-width="1" opacity="1" d="M 127.5 354 L 128 367.5 L 127 367.5 L 127.5 354 Z " /><path fill="rgb(233,233,233)" stroke="rgb(233,233,233)" stroke-width="1" opacity="1" d="M 349.5 357 L 350 368.5 L 349 368.5 L 349.5 357 Z " /><path fill="rgb(233,233,233)" stroke="rgb(233,233,233)" stroke-width="1" opacity="1" d="M 454.5 361 L 455 363.5 L 454 363.5 L 454.5 361 Z " /><path fill="rgb(233,233,233)" stroke="rgb(233,233,233)" stroke-width="1" opacity="1" d="M 455.5 365 L 456 367.5 L 455 367.5 L 455.5 365 Z " /><path fill="rgb(233,233,233)" stroke="rgb(233,233,233)" stroke-width="1" opacity="1" d="M 450.5 370 L 451.5 372 L 450.5 370 Z " /><path fill="rgb(233,233,233)" stroke="rgb(233,233,233)" stroke-width="1" opacity="1" d="M 456.5 370 L 457 374.5 L 455 373.5 L 456.5 370 Z " /><path fill="rgb(233,233,233)" stroke="rgb(233,233,233)" stroke-width="1" opacity="1" d="M 128.5 372 L 129 377.5 L 128 377.5 L 128.5 372 Z " /><path fill="rgb(233,233,233)" stroke="rgb(233,233,233)" stroke-width="1" opacity="1" d="M 348.5 373 L 349 378.5 L 348 378.5 L 348.5 373 Z " /><path fill="rgb(233,233,233)" stroke="rgb(233,233,233)" stroke-width="1" opacity="1" d="M 129.5 380 L 130 384.5 L 129 384.5 L 129.5 380 Z " /><path fill="rgb(233,233,233)" stroke="rgb(233,233,233)" stroke-width="1" opacity="1" d="M 347.5 382 L 348 385.5 L 347 385.5 L 347.5 382 Z " /><path fill="rgb(233,233,233)" stroke="rgb(233,233,233)" stroke-width="1" opacity="1" d="M 130.5 387 L 131 390.5 L 130 390.5 L 130.5 387 Z " /><path fill="rgb(233,233,233)" stroke="rgb(233,233,233)" stroke-width="1" opacity="1" d="M 346.5 388 L 347 390.5 L 346 390.5 L 346.5 388 Z " /><path fill="rgb(233,233,233)" stroke="rgb(233,233,233)" stroke-width="1" opacity="1" d="M 444.5 388 L 445.5 390 L 444.5 388 Z " /><path fill="rgb(233,233,233)" stroke="rgb(233,233,233)" stroke-width="1" opacity="1" d="M 447.5 390 L 450.5 394 L 447.5 390 Z " /><path fill="rgb(233,233,233)" stroke="rgb(233,233,233)" stroke-width="1" opacity="1" d="M 131.5 392 L 132 395.5 L 131 395.5 L 131.5 392 Z " /><path fill="rgb(233,233,233)" stroke="rgb(233,233,233)" stroke-width="1" opacity="1" d="M 345.5 393 L 346 395.5 L 345 395.5 L 345.5 393 Z " /><path fill="rgb(233,233,233)" stroke="rgb(233,233,233)" stroke-width="1" opacity="1" d="M 452.5 395 L 454.5 398 L 452.5 395 Z " /><path fill="rgb(233,233,233)" stroke="rgb(233,233,233)" stroke-width="1" opacity="1" d="M 132.5 397 L 133 399.5 L 132 399.5 L 132.5 397 Z " /><path fill="rgb(233,233,233)" stroke="rgb(233,233,233)" stroke-width="1" opacity="1" d="M 454.5 399 L 455 401.5 L 454 401.5 L 454.5 399 Z " /><path fill="rgb(233,233,233)" stroke="rgb(233,233,233)" stroke-width="1" opacity="1" d="M 343.5 401 L 344 403.5 L 343 403.5 L 343.5 401 Z " /><path fill="rgb(233,233,233)" stroke="rgb(233,233,233)" stroke-width="1" opacity="1" d="M 452.5 406 L 453 407.5 L 451.5 410 L 451 408.5 L 452.5 406 Z " /><path fill="rgb(233,233,233)" stroke="rgb(233,233,233)" stroke-width="1" opacity="1" d="M 421.5 413 L 423.5 416 L 421.5 413 Z " /><path fill="rgb(233,233,233)" stroke="rgb(233,233,233)" stroke-width="1" opacity="1" d="M 449.5 413 L 450 414.5 L 448 415.5 L 449.5 413 Z " /><path fill="rgb(233,233,233)" stroke="rgb(233,233,233)" stroke-width="1" opacity="1" d="M 339.5 414 L 340 415.5 L 338.5 418 L 338 416.5 L 339.5 414 Z " /><path fill="rgb(233,233,233)" stroke="rgb(233,233,233)" stroke-width="1" opacity="1" d="M 424.5 417 L 425.5 419 L 424.5 417 Z " /><path fill="rgb(233,233,233)" stroke="rgb(233,233,233)" stroke-width="1" opacity="1" d="M 446.5 419 L 446 420.5 L 440.5 428 L 443 424.5 L 446.5 419 Z " /><path fill="rgb(233,233,233)" stroke="rgb(233,233,233)" stroke-width="1" opacity="1" d="M 336.5 421 L 337 422.5 L 333.5 428 L 334 426.5 L 336.5 421 Z " /><path fill="rgb(233,233,233)" stroke="rgb(233,233,233)" stroke-width="1" opacity="1" d="M 407.5 425 L 408.5 427 L 407.5 425 Z " /><path fill="rgb(233,233,233)" stroke="rgb(233,233,233)" stroke-width="1" opacity="1" d="M 144.5 429 L 147 432.5 L 145 431.5 L 144.5 429 Z " /><path fill="rgb(233,233,233)" stroke="rgb(233,233,233)" stroke-width="1" opacity="1" d="M 439.5 429 L 433.5 436 L 439.5 429 Z " /><path fill="rgb(233,233,233)" stroke="rgb(233,233,233)" stroke-width="1" opacity="1" d="M 331.5 431 L 331 432.5 L 325.5 440 L 327 437.5 L 331.5 431 Z " /><path fill="rgb(233,233,233)" stroke="rgb(233,233,233)" stroke-width="1" opacity="1" d="M 147.5 434 L 153 440.5 L 149 437.5 L 147.5 434 Z " /><path fill="rgb(233,233,233)" stroke="rgb(233,233,233)" stroke-width="1" opacity="1" d="M 382.5 439 L 383 444.5 L 382 444.5 L 382.5 439 Z " /><path fill="rgb(233,233,233)" stroke="rgb(233,233,233)" stroke-width="1" opacity="1" d="M 324.5 441 L 316.5 450 L 313.5 452 L 315.5 449 L 324.5 441 Z " /><path fill="rgb(233,233,233)" stroke="rgb(233,233,233)" stroke-width="1" opacity="1" d="M 153.5 442 Q 159.1 449.9 169 453.5 L 167.5 454 Q 158 449.6 153.5 442 Z " /><path fill="rgb(233,233,233)" stroke="rgb(233,233,233)" stroke-width="1" opacity="1" d="M 382.5 446 L 383 451.5 L 382 451.5 L 382.5 446 Z " /><path fill="rgb(233,233,233)" stroke="rgb(233,233,233)" stroke-width="1" opacity="1" d="M 416.5 449 L 415.5 451 L 416.5 449 Z " /><path fill="rgb(233,233,233)" stroke="rgb(233,233,233)" stroke-width="1" opacity="1" d="M 413.5 451 L 412.5 453 L 410.5 454 L 411.5 452 L 413.5 451 Z " /><path fill="rgb(233,233,233)" stroke="rgb(233,233,233)" stroke-width="1" opacity="1" d="M 407.5 454 L 409 454.5 L 406.5 456 L 407.5 454 Z " /><path fill="rgb(233,233,233)" stroke="rgb(233,233,233)" stroke-width="1" opacity="1" d="M 173.5 455 L 178 455.5 L 173.5 456 L 173.5 455 Z " /><path fill="rgb(233,233,233)" stroke="rgb(233,233,233)" stroke-width="1" opacity="1" d="M 300.5 455 L 304 455.5 L 300.5 456 L 300.5 455 Z " /><path fill="rgb(233,233,233)" stroke="rgb(233,233,233)" stroke-width="1" opacity="1" d="M 403.5 456 L 405 456.5 L 399.5 459 L 399.5 458 L 403.5 456 Z " /><path fill="rgb(233,233,233)" stroke="rgb(233,233,233)" stroke-width="1" opacity="1" d="M 331.5 462 L 330.5 466 Q 328.3 466.8 329 464.5 L 331.5 462 Z " /><path fill="rgb(233,233,233)" stroke="rgb(233,233,233)" stroke-width="1" opacity="1" d="M 383.5 463 L 386 463.5 L 383.5 464 L 383.5 463 Z " /><path fill="rgb(233,233,233)" stroke="rgb(233,233,233)" stroke-width="1" opacity="1" d="M 333.5 466 L 340 466.5 L 333.5 467 L 333.5 466 Z " /><path fill="rgb(233,233,233)" stroke="rgb(233,233,233)" stroke-width="1" opacity="1" d="M 348.5 467 L 356 467.5 L 348.5 468 L 348.5 467 Z " /><path fill="rgb(234,234,234)" stroke="rgb(234,234,234)" stroke-width="1" opacity="1" d="M 147 59 L 150.5 59 L 177.5 81 L 182.5 81 L 192.5 77 L 210.5 73 L 229.5 72 L 230.5 71 L 247.5 71 L 248.5 72 L 259.5 72 L 260.5 73 L 272.5 74 L 294.5 81 L 299.5 81 L 326.5 59 L 330 59 L 331 61.5 L 331 113.5 L 333 119.5 L 335 139.5 L 336 140.5 L 336 163.5 Q 330.5 191 312.5 206 L 302 213.5 Q 300.5 217.9 303.5 217 L 305.5 217 L 310.5 214 Q 331.1 247.4 343 289.5 L 347 306.5 L 347 314.5 L 349 324.5 L 350 356.5 L 349 357.5 L 349 372.5 L 348 373.5 L 347 387.5 L 340 413.5 Q 332.3 435.3 316.5 449 L 310.5 453 L 299.5 456 L 178.5 456 Q 161.3 453.3 153 441.5 Q 140.3 426.2 134 404.5 L 129 379.5 L 128 354.5 L 127 353.5 L 127 351.5 L 128 345.5 L 128 343.5 L 129 315.5 L 130 314.5 L 131 301.5 L 135 286.5 Q 146.6 246.1 166.5 214 L 170.5 217 L 173.5 217 L 175 213.5 L 159 200.5 Q 148.1 188.9 143 171.5 L 141 162.5 L 141 141.5 L 142 140.5 L 144 120.5 L 147 109.5 L 147 59 Z M 190 128 Q 188 133 190 136 L 193 137 Q 198 138 200 136 L 201 134 L 201 128 L 196 132 L 190 128 Z M 277 128 Q 275 133 277 136 Q 279 138 286 137 Q 290 136 288 129 L 284 132 Q 278 132 277 128 Z M 233 144 L 230 145 L 229 148 Q 228 158 235 162 L 236 163 L 236 171 Q 233 177 222 175 Q 221 179 224 180 Q 234 181 239 176 Q 243 181 254 180 Q 256 179 255 175 Q 244 177 241 171 L 241 163 L 243 162 Q 250 159 248 147 L 245 144 L 233 144 Z M 178 161 L 176 165 L 180 167 L 206 174 L 208 171 L 205 168 L 178 161 Z M 298 161 L 270 169 Q 269 173 272 174 L 299 166 Q 303 167 301 163 L 298 161 Z M 202 180 L 201 181 L 176 184 Q 175 188 178 189 L 207 185 L 208 182 Q 207 179 202 180 Z M 270 180 L 270 185 L 300 189 Q 302 188 301 184 L 270 180 Z M 166 265 L 166 269 L 209 299 L 230 309 L 233 313 L 233 320 L 227 333 L 218 343 Q 211 344 209 340 Q 202 336 200 329 Q 186 318 168 310 L 147 304 L 145 308 L 149 310 L 152 310 L 171 317 L 194 331 L 199 339 Q 204 345 213 348 Q 220 349 223 346 Q 233 336 238 321 Q 240 313 237 310 L 232 304 Q 213 297 199 286 L 171 265 L 166 265 Z M 311 267 L 275 292 L 249 305 L 243 312 L 244 324 Q 248 335 255 343 L 263 348 Q 273 349 277 344 L 285 334 L 302 322 L 329 309 L 332 309 L 332 304 L 325 305 Q 320 310 312 311 L 286 326 L 277 337 L 268 343 L 263 342 Q 252 333 248 319 L 249 312 L 254 308 L 277 297 L 312 273 Q 314 272 313 269 L 311 267 Z " /><path fill="rgb(234,234,234)" stroke="rgb(234,234,234)" stroke-width="1" opacity="1" d="M 432.5 332 L 436.5 332 L 441 336.5 Q 453.8 350 456 373 L 441.5 366 L 426 363 L 424 350.5 L 424 340.5 L 429.5 333 L 432.5 332 Z " /><path fill="rgb(234,234,234)" stroke="rgb(234,234,234)" stroke-width="1" opacity="1" d="M 426 382 L 435.5 384 L 452 394 L 455 398.5 Q 449 421.5 433.5 435 L 429 423.5 Q 424.9 415.1 418 409.5 L 418 407.5 L 425 391.5 L 426 382 Z " /><path fill="rgb(234,234,234)" stroke="rgb(234,234,234)" stroke-width="1" opacity="1" d="M 405.5 424 Q 407.8 423.3 407 425.5 Q 415.5 433.5 417 448.5 Q 402.5 460 380.5 464 L 381 462.5 L 383 451.5 L 383 439.5 Q 380.8 438.3 383.5 437 Q 397.7 433.7 405.5 424 Z " /><path fill="rgb(234,234,234)" stroke="rgb(234,234,234)" stroke-width="1" opacity="1" d="M 346.5 438 L 351.5 440 L 364 441 L 364 452.5 L 359 467 L 340.5 467 L 339.5 466 L 331.5 466 L 330 464.5 Q 340.6 453.6 346.5 438 Z " /></svg>