<svg width="512" height="512" version="1.1" xmlns="http://www.w3.org/2000/svg" desc="Created with imagetracer.js version 1.2.6" ><path fill="rgb(224,214,203)" stroke="rgb(224,214,203)" stroke-width="1" opacity="1" d="M 147.5 12 L 148.5 14 L 147.5 12 Z " /><path fill="rgb(224,214,203)" stroke="rgb(224,214,203)" stroke-width="1" opacity="1" d="M 338.5 12 L 336.5 15 L 338.5 12 Z " /><path fill="rgb(224,214,203)" stroke="rgb(224,214,203)" stroke-width="1" opacity="1" d="M 142.5 14 L 143 68.5 L 142 68.5 L 142.5 14 Z " /><path fill="rgb(224,214,203)" stroke="rgb(224,214,203)" stroke-width="1" opacity="1" d="M 343.5 14 L 344 67.5 L 343 67.5 L 343.5 14 Z " /><path fill="rgb(224,214,203)" stroke="rgb(224,214,203)" stroke-width="1" opacity="1" d="M 152.5 16 L 153.5 18 L 152.5 16 Z " /><path fill="rgb(224,214,203)" stroke="rgb(224,214,203)" stroke-width="1" opacity="1" d="M 333.5 16 L 331.5 19 L 333.5 16 Z " /><path fill="rgb(224,214,203)" stroke="rgb(224,214,203)" stroke-width="1" opacity="1" d="M 156.5 19 L 158.5 22 L 156.5 19 Z " /><path fill="rgb(224,214,203)" stroke="rgb(224,214,203)" stroke-width="1" opacity="1" d="M 328.5 20 L 326.5 23 L 328.5 20 Z " /><path fill="rgb(224,214,203)" stroke="rgb(224,214,203)" stroke-width="1" opacity="1" d="M 162.5 24 L 163.5 26 L 162.5 24 Z " /><path fill="rgb(224,214,203)" stroke="rgb(224,214,203)" stroke-width="1" opacity="1" d="M 323.5 24 L 321.5 27 L 323.5 24 Z " /><path fill="rgb(224,214,203)" stroke="rgb(224,214,203)" stroke-width="1" opacity="1" d="M 224.5 26 L 231 26.5 L 224.5 27 L 224.5 26 Z " /><path fill="rgb(224,214,203)" stroke="rgb(224,214,203)" stroke-width="1" opacity="1" d="M 256.5 26 L 262 26.5 L 256.5 27 L 256.5 26 Z " /><path fill="rgb(224,214,203)" stroke="rgb(224,214,203)" stroke-width="1" opacity="1" d="M 216.5 27 L 219 27.5 L 216.5 28 L 216.5 27 Z " /><path fill="rgb(224,214,203)" stroke="rgb(224,214,203)" stroke-width="1" opacity="1" d="M 267.5 27 L 270 27.5 L 267.5 28 L 267.5 27 Z " /><path fill="rgb(224,214,203)" stroke="rgb(224,214,203)" stroke-width="1" opacity="1" d="M 167.5 28 L 168.5 30 L 167.5 28 Z " /><path fill="rgb(224,214,203)" stroke="rgb(224,214,203)" stroke-width="1" opacity="1" d="M 209.5 28 L 212 28.5 L 209.5 29 L 209.5 28 Z " /><path fill="rgb(224,214,203)" stroke="rgb(224,214,203)" stroke-width="1" opacity="1" d="M 274.5 28 L 277 28.5 L 274.5 29 L 274.5 28 Z " /><path fill="rgb(224,214,203)" stroke="rgb(224,214,203)" stroke-width="1" opacity="1" d="M 318.5 28 L 316.5 31 L 318.5 28 Z " /><path fill="rgb(224,214,203)" stroke="rgb(224,214,203)" stroke-width="1" opacity="1" d="M 172.5 32 L 174.5 35 L 172.5 32 Z " /><path fill="rgb(224,214,203)" stroke="rgb(224,214,203)" stroke-width="1" opacity="1" d="M 313.5 32 L 311.5 35 L 313.5 32 Z " /><path fill="rgb(224,214,203)" stroke="rgb(224,214,203)" stroke-width="1" opacity="1" d="M 294.5 74 L 296 74.5 L 293.5 76 L 294.5 74 Z " /><path fill="rgb(224,214,203)" stroke="rgb(224,214,203)" stroke-width="1" opacity="1" d="M 186.5 75 L 185.5 77 L 186.5 75 Z " /><path fill="rgb(224,214,203)" stroke="rgb(224,214,203)" stroke-width="1" opacity="1" d="M 195.5 75 L 197.5 78 L 195.5 75 Z " /><path fill="rgb(224,214,203)" stroke="rgb(224,214,203)" stroke-width="1" opacity="1" d="M 345.5 76 L 346 78.5 L 345 78.5 L 345.5 76 Z " /><path fill="rgb(224,214,203)" stroke="rgb(224,214,203)" stroke-width="1" opacity="1" d="M 290.5 79 L 291 83.5 L 290 83.5 L 290.5 79 Z " /><path fill="rgb(224,214,203)" stroke="rgb(224,214,203)" stroke-width="1" opacity="1" d="M 198.5 80 L 199 82.5 L 198 82.5 L 198.5 80 Z " /><path fill="rgb(224,214,203)" stroke="rgb(224,214,203)" stroke-width="1" opacity="1" d="M 346.5 82 L 347 84.5 L 346 84.5 L 346.5 82 Z " /><path fill="rgb(224,214,203)" stroke="rgb(224,214,203)" stroke-width="1" opacity="1" d="M 291.5 85 L 293.5 88 L 291.5 85 Z " /><path fill="rgb(224,214,203)" stroke="rgb(224,214,203)" stroke-width="1" opacity="1" d="M 303.5 85 L 301.5 88 L 303.5 85 Z " /><path fill="rgb(224,214,203)" stroke="rgb(224,214,203)" stroke-width="1" opacity="1" d="M 189.5 88 L 193 88.5 L 189.5 89 L 189.5 88 Z " /><path fill="rgb(224,214,203)" stroke="rgb(224,214,203)" stroke-width="1" opacity="1" d="M 295.5 88 L 300 88.5 L 295.5 89 L 295.5 88 Z " /><path fill="rgb(224,214,203)" stroke="rgb(224,214,203)" stroke-width="1" opacity="1" d="M 347.5 88 L 348 90.5 L 347 90.5 L 347.5 88 Z " /><path fill="rgb(224,214,203)" stroke="rgb(224,214,203)" stroke-width="1" opacity="1" d="M 138.5 89 L 139 91.5 L 138 91.5 L 138.5 89 Z " /><path fill="rgb(224,214,203)" stroke="rgb(224,214,203)" stroke-width="1" opacity="1" d="M 348.5 95 L 349 98.5 L 348 98.5 L 348.5 95 Z " /><path fill="rgb(224,214,203)" stroke="rgb(224,214,203)" stroke-width="1" opacity="1" d="M 137.5 96 L 138 99.5 L 137 99.5 L 137.5 96 Z " /><path fill="rgb(224,214,203)" stroke="rgb(224,214,203)" stroke-width="1" opacity="1" d="M 247.5 104 L 250 104.5 L 247.5 105 L 247.5 104 Z " /><path fill="rgb(224,214,203)" stroke="rgb(224,214,203)" stroke-width="1" opacity="1" d="M 349.5 104 L 350 108.5 L 349 108.5 L 349.5 104 Z " /><path fill="rgb(224,214,203)" stroke="rgb(224,214,203)" stroke-width="1" opacity="1" d="M 136.5 105 L 137 110.5 L 136 110.5 L 136.5 105 Z " /><path fill="rgb(224,214,203)" stroke="rgb(224,214,203)" stroke-width="1" opacity="1" d="M 234.5 105 L 232.5 108 L 234.5 105 Z " /><path fill="rgb(224,214,203)" stroke="rgb(224,214,203)" stroke-width="1" opacity="1" d="M 251.5 105 L 253.5 108 L 251.5 105 Z " /><path fill="rgb(224,214,203)" stroke="rgb(224,214,203)" stroke-width="1" opacity="1" d="M 254.5 109 L 255 113.5 L 254 113.5 L 254.5 109 Z " /><path fill="rgb(224,214,203)" stroke="rgb(224,214,203)" stroke-width="1" opacity="1" d="M 231.5 110 L 232 112.5 L 231 112.5 L 231.5 110 Z " /><path fill="rgb(224,214,203)" stroke="rgb(224,214,203)" stroke-width="1" opacity="1" d="M 136.5 118 L 137 123.5 L 136 123.5 L 136.5 118 Z " /><path fill="rgb(224,214,203)" stroke="rgb(224,214,203)" stroke-width="1" opacity="1" d="M 233.5 119 L 234.5 121 L 233.5 119 Z " /><path fill="rgb(224,214,203)" stroke="rgb(224,214,203)" stroke-width="1" opacity="1" d="M 349.5 120 L 350 123.5 L 349 123.5 L 349.5 120 Z " /><path fill="rgb(224,214,203)" stroke="rgb(224,214,203)" stroke-width="1" opacity="1" d="M 251.5 121 L 247.5 126 L 251.5 121 Z " /><path fill="rgb(224,214,203)" stroke="rgb(224,214,203)" stroke-width="1" opacity="1" d="M 235.5 122 L 238.5 126 L 235.5 122 Z " /><path fill="rgb(224,214,203)" stroke="rgb(224,214,203)" stroke-width="1" opacity="1" d="M 201.5 139 L 204 139.5 L 201.5 140 L 201.5 139 Z " /><path fill="rgb(224,214,203)" stroke="rgb(224,214,203)" stroke-width="1" opacity="1" d="M 225.5 142 L 234 142.5 L 225.5 143 L 225.5 142 Z " /><path fill="rgb(224,214,203)" stroke="rgb(224,214,203)" stroke-width="1" opacity="1" d="M 252.5 142 L 261 142.5 L 252.5 143 L 252.5 142 Z " /><path fill="rgb(224,214,203)" stroke="rgb(224,214,203)" stroke-width="1" opacity="1" d="M 223.5 143 L 225 146.5 L 223 145.5 L 223.5 143 Z " /><path fill="rgb(224,214,203)" stroke="rgb(224,214,203)" stroke-width="1" opacity="1" d="M 262.5 143 L 263 145.5 L 261 146.5 L 262.5 143 Z " /><path fill="rgb(224,214,203)" stroke="rgb(224,214,203)" stroke-width="1" opacity="1" d="M 197.5 149 L 200 149.5 L 197.5 150 L 197.5 149 Z " /><path fill="rgb(224,214,203)" stroke="rgb(224,214,203)" stroke-width="1" opacity="1" d="M 203.5 149 L 205 151.5 L 204 151.5 L 203.5 149 Z " /><path fill="rgb(224,214,203)" stroke="rgb(224,214,203)" stroke-width="1" opacity="1" d="M 286.5 149 L 289 149.5 L 286.5 150 L 286.5 149 Z " /><path fill="rgb(224,214,203)" stroke="rgb(224,214,203)" stroke-width="1" opacity="1" d="M 190.5 150 L 193 150.5 L 190.5 151 L 190.5 150 Z " /><path fill="rgb(224,214,203)" stroke="rgb(224,214,203)" stroke-width="1" opacity="1" d="M 293.5 150 L 296 150.5 L 293.5 151 L 293.5 150 Z " /><path fill="rgb(224,214,203)" stroke="rgb(224,214,203)" stroke-width="1" opacity="1" d="M 183.5 151 L 186 151.5 L 183.5 152 L 183.5 151 Z " /><path fill="rgb(224,214,203)" stroke="rgb(224,214,203)" stroke-width="1" opacity="1" d="M 300.5 151 L 303 151.5 L 300.5 152 L 300.5 151 Z " /><path fill="rgb(224,214,203)" stroke="rgb(224,214,203)" stroke-width="1" opacity="1" d="M 176.5 152 L 179 152.5 L 176.5 153 L 176.5 152 Z " /><path fill="rgb(224,214,203)" stroke="rgb(224,214,203)" stroke-width="1" opacity="1" d="M 307.5 152 L 310 152.5 L 307.5 153 L 307.5 152 Z " /><path fill="rgb(224,214,203)" stroke="rgb(224,214,203)" stroke-width="1" opacity="1" d="M 169.5 153 L 172 153.5 L 169.5 154 L 169.5 153 Z " /><path fill="rgb(224,214,203)" stroke="rgb(224,214,203)" stroke-width="1" opacity="1" d="M 200.5 153 L 203 153.5 L 200.5 154 L 200.5 153 Z " /><path fill="rgb(224,214,203)" stroke="rgb(224,214,203)" stroke-width="1" opacity="1" d="M 283.5 153 L 286 153.5 L 283.5 154 L 283.5 153 Z " /><path fill="rgb(224,214,203)" stroke="rgb(224,214,203)" stroke-width="1" opacity="1" d="M 314.5 153 L 317 153.5 L 314.5 154 L 314.5 153 Z " /><path fill="rgb(224,214,203)" stroke="rgb(224,214,203)" stroke-width="1" opacity="1" d="M 193.5 154 L 196 154.5 L 193.5 155 L 193.5 154 Z " /><path fill="rgb(224,214,203)" stroke="rgb(224,214,203)" stroke-width="1" opacity="1" d="M 290.5 154 L 293 154.5 L 290.5 155 L 290.5 154 Z " /><path fill="rgb(224,214,203)" stroke="rgb(224,214,203)" stroke-width="1" opacity="1" d="M 318.5 154 L 319 156.5 L 317 157.5 L 318.5 154 Z " /><path fill="rgb(224,214,203)" stroke="rgb(224,214,203)" stroke-width="1" opacity="1" d="M 167.5 155 L 169 157.5 L 167 156.5 L 167.5 155 Z " /><path fill="rgb(224,214,203)" stroke="rgb(224,214,203)" stroke-width="1" opacity="1" d="M 186.5 155 L 189 155.5 L 186.5 156 L 186.5 155 Z " /><path fill="rgb(224,214,203)" stroke="rgb(224,214,203)" stroke-width="1" opacity="1" d="M 297.5 155 L 300 155.5 L 297.5 156 L 297.5 155 Z " /><path fill="rgb(224,214,203)" stroke="rgb(224,214,203)" stroke-width="1" opacity="1" d="M 338.5 155 L 337.5 157 L 338.5 155 Z " /><path fill="rgb(224,214,203)" stroke="rgb(224,214,203)" stroke-width="1" opacity="1" d="M 179.5 156 L 182 156.5 L 179.5 157 L 179.5 156 Z " /><path fill="rgb(224,214,203)" stroke="rgb(224,214,203)" stroke-width="1" opacity="1" d="M 304.5 156 L 307 156.5 L 304.5 157 L 304.5 156 Z " /><path fill="rgb(224,214,203)" stroke="rgb(224,214,203)" stroke-width="1" opacity="1" d="M 172.5 157 L 175 157.5 L 172.5 158 L 172.5 157 Z " /><path fill="rgb(224,214,203)" stroke="rgb(224,214,203)" stroke-width="1" opacity="1" d="M 311.5 157 L 314 157.5 L 311.5 158 L 311.5 157 Z " /><path fill="rgb(224,214,203)" stroke="rgb(224,214,203)" stroke-width="1" opacity="1" d="M 149.5 158 L 150.5 160 L 149.5 158 Z " /><path fill="rgb(224,214,203)" stroke="rgb(224,214,203)" stroke-width="1" opacity="1" d="M 336.5 158 L 335.5 160 L 336.5 158 Z " /><path fill="rgb(224,214,203)" stroke="rgb(224,214,203)" stroke-width="1" opacity="1" d="M 152.5 162 L 154.5 165 L 152.5 162 Z " /><path fill="rgb(224,214,203)" stroke="rgb(224,214,203)" stroke-width="1" opacity="1" d="M 333.5 162 L 332.5 164 L 333.5 162 Z " /><path fill="rgb(224,214,203)" stroke="rgb(224,214,203)" stroke-width="1" opacity="1" d="M 329.5 167 L 324.5 173 L 329.5 167 Z " /><path fill="rgb(224,214,203)" stroke="rgb(224,214,203)" stroke-width="1" opacity="1" d="M 164.5 174 L 166.5 177 L 164.5 174 Z " /><path fill="rgb(224,214,203)" stroke="rgb(224,214,203)" stroke-width="1" opacity="1" d="M 320.5 175 L 319.5 177 L 320.5 175 Z " /><path fill="rgb(224,214,203)" stroke="rgb(224,214,203)" stroke-width="1" opacity="1" d="M 316.5 178 L 315.5 180 L 316.5 178 Z " /><path fill="rgb(224,214,203)" stroke="rgb(224,214,203)" stroke-width="1" opacity="1" d="M 313.5 180 L 313 181.5 L 314 184.5 L 312 183.5 L 313.5 180 Z " /><path fill="rgb(224,214,203)" stroke="rgb(224,214,203)" stroke-width="1" opacity="1" d="M 317.5 188 L 318.5 190 L 317.5 188 Z " /><path fill="rgb(224,214,203)" stroke="rgb(224,214,203)" stroke-width="1" opacity="1" d="M 441.5 194 Q 447.1 193.9 449 197.5 L 450 204.5 L 447.5 208 L 306.5 299 L 306 297.5 Q 310.7 291.7 309 279.5 L 311.5 277 L 441.5 194 Z " /><path fill="rgb(224,214,203)" stroke="rgb(224,214,203)" stroke-width="1" opacity="1" d="M 190.5 207 L 190 208.5 L 191 211.5 L 189 210.5 L 190.5 207 Z " /><path fill="rgb(224,214,203)" stroke="rgb(224,214,203)" stroke-width="1" opacity="1" d="M 196.5 209 L 197.5 211 L 196.5 209 Z " /><path fill="rgb(224,214,203)" stroke="rgb(224,214,203)" stroke-width="1" opacity="1" d="M 201.5 212 L 202.5 214 L 201.5 212 Z " /><path fill="rgb(224,214,203)" stroke="rgb(224,214,203)" stroke-width="1" opacity="1" d="M 196.5 214 L 197.5 216 L 196.5 214 Z " /><path fill="rgb(224,214,203)" stroke="rgb(224,214,203)" stroke-width="1" opacity="1" d="M 209.5 217 L 210.5 219 L 209.5 217 Z " /><path fill="rgb(224,214,203)" stroke="rgb(224,214,203)" stroke-width="1" opacity="1" d="M 204.5 219 L 205.5 221 L 204.5 219 Z " /><path fill="rgb(224,214,203)" stroke="rgb(224,214,203)" stroke-width="1" opacity="1" d="M 212.5 219 L 213.5 221 L 212.5 219 Z " /><path fill="rgb(224,214,203)" stroke="rgb(224,214,203)" stroke-width="1" opacity="1" d="M 207.5 221 L 208.5 223 L 207.5 221 Z " /><path fill="rgb(224,214,203)" stroke="rgb(224,214,203)" stroke-width="1" opacity="1" d="M 210.5 223 L 211.5 225 L 210.5 223 Z " /><path fill="rgb(224,214,203)" stroke="rgb(224,214,203)" stroke-width="1" opacity="1" d="M 229.5 230 L 230.5 232 L 229.5 230 Z " /><path fill="rgb(224,214,203)" stroke="rgb(224,214,203)" stroke-width="1" opacity="1" d="M 344.5 231 L 352.5 240 L 346.5 234 L 345 234.5 L 345.5 233 Q 342.7 233.7 344.5 231 Z " /><path fill="rgb(224,214,203)" stroke="rgb(224,214,203)" stroke-width="1" opacity="1" d="M 232.5 232 L 233.5 234 L 232.5 232 Z " /><path fill="rgb(224,214,203)" stroke="rgb(224,214,203)" stroke-width="1" opacity="1" d="M 227.5 234 L 228.5 236 L 227.5 234 Z " /><path fill="rgb(224,214,203)" stroke="rgb(224,214,203)" stroke-width="1" opacity="1" d="M 235.5 234 L 236.5 236 L 235.5 234 Z " /><path fill="rgb(224,214,203)" stroke="rgb(224,214,203)" stroke-width="1" opacity="1" d="M 230.5 236 L 231.5 238 L 230.5 236 Z " /><path fill="rgb(224,214,203)" stroke="rgb(224,214,203)" stroke-width="1" opacity="1" d="M 238.5 236 L 239.5 238 L 238.5 236 Z " /><path fill="rgb(224,214,203)" stroke="rgb(224,214,203)" stroke-width="1" opacity="1" d="M 233.5 238 L 234.5 240 L 233.5 238 Z " /><path fill="rgb(224,214,203)" stroke="rgb(224,214,203)" stroke-width="1" opacity="1" d="M 241.5 238 L 242.5 240 L 241.5 238 Z " /><path fill="rgb(224,214,203)" stroke="rgb(224,214,203)" stroke-width="1" opacity="1" d="M 236.5 240 L 237.5 242 L 236.5 240 Z " /><path fill="rgb(224,214,203)" stroke="rgb(224,214,203)" stroke-width="1" opacity="1" d="M 244.5 240 L 245.5 242 L 244.5 240 Z " /><path fill="rgb(224,214,203)" stroke="rgb(224,214,203)" stroke-width="1" opacity="1" d="M 239.5 242 L 240.5 244 L 239.5 242 Z " /><path fill="rgb(224,214,203)" stroke="rgb(224,214,203)" stroke-width="1" opacity="1" d="M 247.5 242 L 248.5 244 L 247.5 242 Z " /><path fill="rgb(224,214,203)" stroke="rgb(224,214,203)" stroke-width="1" opacity="1" d="M 242.5 244 L 243.5 246 L 242.5 244 Z " /><path fill="rgb(224,214,203)" stroke="rgb(224,214,203)" stroke-width="1" opacity="1" d="M 245.5 246 L 246.5 248 L 245.5 246 Z " /><path fill="rgb(224,214,203)" stroke="rgb(224,214,203)" stroke-width="1" opacity="1" d="M 258.5 249 L 259.5 251 L 258.5 249 Z " /><path fill="rgb(224,214,203)" stroke="rgb(224,214,203)" stroke-width="1" opacity="1" d="M 253.5 251 L 254.5 253 L 253.5 251 Z " /><path fill="rgb(224,214,203)" stroke="rgb(224,214,203)" stroke-width="1" opacity="1" d="M 261.5 251 L 262.5 253 L 261.5 251 Z " /><path fill="rgb(224,214,203)" stroke="rgb(224,214,203)" stroke-width="1" opacity="1" d="M 343.5 251 L 342.5 253 L 343.5 251 Z " /><path fill="rgb(224,214,203)" stroke="rgb(224,214,203)" stroke-width="1" opacity="1" d="M 256.5 253 L 257.5 255 L 256.5 253 Z " /><path fill="rgb(224,214,203)" stroke="rgb(224,214,203)" stroke-width="1" opacity="1" d="M 340.5 253 L 339.5 255 L 340.5 253 Z " /><path fill="rgb(224,214,203)" stroke="rgb(224,214,203)" stroke-width="1" opacity="1" d="M 259.5 255 L 260.5 257 L 259.5 255 Z " /><path fill="rgb(224,214,203)" stroke="rgb(224,214,203)" stroke-width="1" opacity="1" d="M 264.5 258 L 265.5 260 L 264.5 258 Z " /><path fill="rgb(224,214,203)" stroke="rgb(224,214,203)" stroke-width="1" opacity="1" d="M 332.5 258 L 331.5 260 L 332.5 258 Z " /><path fill="rgb(224,214,203)" stroke="rgb(224,214,203)" stroke-width="1" opacity="1" d="M 376.5 258 L 375.5 260 L 376.5 258 Z " /><path fill="rgb(224,214,203)" stroke="rgb(224,214,203)" stroke-width="1" opacity="1" d="M 274.5 259 L 275.5 261 L 274.5 259 Z " /><path fill="rgb(224,214,203)" stroke="rgb(224,214,203)" stroke-width="1" opacity="1" d="M 267.5 260 L 268.5 262 L 267.5 260 Z " /><path fill="rgb(224,214,203)" stroke="rgb(224,214,203)" stroke-width="1" opacity="1" d="M 329.5 260 L 328.5 262 L 329.5 260 Z " /><path fill="rgb(224,214,203)" stroke="rgb(224,214,203)" stroke-width="1" opacity="1" d="M 387.5 260 L 388.5 262 L 387.5 260 Z " /><path fill="rgb(224,214,203)" stroke="rgb(224,214,203)" stroke-width="1" opacity="1" d="M 326.5 262 L 325.5 264 L 326.5 262 Z " /><path fill="rgb(224,214,203)" stroke="rgb(224,214,203)" stroke-width="1" opacity="1" d="M 368.5 263 L 367.5 265 L 368.5 263 Z " /><path fill="rgb(224,214,203)" stroke="rgb(224,214,203)" stroke-width="1" opacity="1" d="M 365.5 265 L 364.5 267 L 365.5 265 Z " /><path fill="rgb(224,214,203)" stroke="rgb(224,214,203)" stroke-width="1" opacity="1" d="M 318.5 267 L 317.5 269 L 318.5 267 Z " /><path fill="rgb(224,214,203)" stroke="rgb(224,214,203)" stroke-width="1" opacity="1" d="M 315.5 269 L 314.5 271 L 315.5 269 Z " /><path fill="rgb(224,214,203)" stroke="rgb(224,214,203)" stroke-width="1" opacity="1" d="M 312.5 271 L 311.5 273 L 312.5 271 Z " /><path fill="rgb(224,214,203)" stroke="rgb(224,214,203)" stroke-width="1" opacity="1" d="M 302.5 272 L 303.5 274 L 302.5 272 Z " /><path fill="rgb(224,214,203)" stroke="rgb(224,214,203)" stroke-width="1" opacity="1" d="M 351.5 274 L 350.5 276 L 351.5 274 Z " /><path fill="rgb(224,214,203)" stroke="rgb(224,214,203)" stroke-width="1" opacity="1" d="M 300.5 276 L 303.5 280 L 300.5 276 Z " /><path fill="rgb(224,214,203)" stroke="rgb(224,214,203)" stroke-width="1" opacity="1" d="M 348.5 276 L 347.5 278 L 348.5 276 Z " /><path fill="rgb(224,214,203)" stroke="rgb(224,214,203)" stroke-width="1" opacity="1" d="M 389.5 278 L 388.5 280 L 389.5 278 Z " /><path fill="rgb(224,214,203)" stroke="rgb(224,214,203)" stroke-width="1" opacity="1" d="M 386.5 282 L 382.5 287 L 386.5 282 Z " /><path fill="rgb(224,214,203)" stroke="rgb(224,214,203)" stroke-width="1" opacity="1" d="M 337.5 283 L 336.5 285 L 337.5 283 Z " /><path fill="rgb(224,214,203)" stroke="rgb(224,214,203)" stroke-width="1" opacity="1" d="M 334.5 285 L 333.5 287 L 334.5 285 Z " /><path fill="rgb(224,214,203)" stroke="rgb(224,214,203)" stroke-width="1" opacity="1" d="M 304.5 287 L 305 289.5 L 304 289.5 L 304.5 287 Z " /><path fill="rgb(224,214,203)" stroke="rgb(224,214,203)" stroke-width="1" opacity="1" d="M 380.5 288 L 377.5 292 L 380.5 288 Z " /><path fill="rgb(224,214,203)" stroke="rgb(224,214,203)" stroke-width="1" opacity="1" d="M 362.5 291 L 363.5 293 L 362.5 291 Z " /><path fill="rgb(224,214,203)" stroke="rgb(224,214,203)" stroke-width="1" opacity="1" d="M 323.5 292 L 322.5 294 L 323.5 292 Z " /><path fill="rgb(224,214,203)" stroke="rgb(224,214,203)" stroke-width="1" opacity="1" d="M 127.5 293 L 128 297.5 L 127 297.5 L 127.5 293 Z " /><path fill="rgb(224,214,203)" stroke="rgb(224,214,203)" stroke-width="1" opacity="1" d="M 358.5 293 L 359 296.5 L 358 296.5 L 358.5 293 Z " /><path fill="rgb(224,214,203)" stroke="rgb(224,214,203)" stroke-width="1" opacity="1" d="M 365.5 293 L 368 294.5 L 366.5 295 L 365.5 293 Z " /><path fill="rgb(224,214,203)" stroke="rgb(224,214,203)" stroke-width="1" opacity="1" d="M 320.5 294 L 319.5 296 L 320.5 294 Z " /><path fill="rgb(224,214,203)" stroke="rgb(224,214,203)" stroke-width="1" opacity="1" d="M 248.5 298 L 249.5 300 L 248.5 298 Z " /><path fill="rgb(224,214,203)" stroke="rgb(224,214,203)" stroke-width="1" opacity="1" d="M 359.5 298 L 363 317.5 L 363 324.5 L 364 325.5 L 364 336.5 L 365 337.5 L 365 369.5 L 364 370.5 L 364 380.5 L 363 381.5 L 361 398.5 L 353 423.5 Q 344.5 444.5 328.5 458 L 326.5 459 L 324 454.5 L 324 446.5 L 322.5 445 L 320 445.5 L 320 455.5 L 326 469.5 L 327 479.5 L 324.5 486 L 310.5 490 L 297.5 490 L 285.5 487 L 282 483.5 L 281 481.5 L 281 464.5 L 283 456.5 L 283 449.5 Q 281 446 279 450.5 L 278 462.5 L 276.5 464 L 209.5 464 L 208 462.5 L 208 452.5 L 207 447 L 203 448.5 L 206 477.5 L 205 482.5 L 200.5 487 L 187.5 490 L 175.5 490 L 161 486 L 159 476.5 L 161 466.5 L 166 456.5 L 167 447.5 L 166 445 Q 161.9 443.3 163 447.5 L 161 459 Q 152.8 456.3 148 448.5 L 143 441.5 L 143 439.5 L 150.5 427 Q 153.3 435.2 160.5 439 Q 166.2 444.3 175.5 446 L 310.5 446 Q 326.4 442.4 334 430.5 Q 347.6 414.6 354 391.5 L 360 359.5 L 361 322.5 L 360 321.5 L 359.5 298 Z " /><path fill="rgb(224,214,203)" stroke="rgb(224,214,203)" stroke-width="1" opacity="1" d="M 126.5 299 L 127 306.5 L 126 307.5 L 125 340.5 L 126 341.5 L 126 357.5 L 127 358.5 L 128 373 L 122 373 L 122 369.5 L 121 368.5 L 121 339.5 L 122 338.5 L 122 326.5 L 123 325.5 L 123 318.5 L 126.5 299 Z " /><path fill="rgb(224,214,203)" stroke="rgb(224,214,203)" stroke-width="1" opacity="1" d="M 259.5 300 L 260.5 302 L 259.5 300 Z " /><path fill="rgb(224,214,203)" stroke="rgb(224,214,203)" stroke-width="1" opacity="1" d="M 309.5 301 L 308.5 303 L 309.5 301 Z " /><path fill="rgb(224,214,203)" stroke="rgb(224,214,203)" stroke-width="1" opacity="1" d="M 262.5 302 L 264.5 305 L 262.5 302 Z " /><path fill="rgb(224,214,203)" stroke="rgb(224,214,203)" stroke-width="1" opacity="1" d="M 306.5 303 L 305.5 305 L 306.5 303 Z " /><path fill="rgb(224,214,203)" stroke="rgb(224,214,203)" stroke-width="1" opacity="1" d="M 257.5 304 L 259 306.5 L 258 306.5 L 257.5 304 Z " /><path fill="rgb(224,214,203)" stroke="rgb(224,214,203)" stroke-width="1" opacity="1" d="M 303.5 305 L 301.5 308 L 303.5 305 Z " /><path fill="rgb(224,214,203)" stroke="rgb(224,214,203)" stroke-width="1" opacity="1" d="M 256.5 307 L 255.5 309 L 256.5 307 Z " /><path fill="rgb(224,214,203)" stroke="rgb(224,214,203)" stroke-width="1" opacity="1" d="M 266.5 307 L 267.5 309 L 266.5 307 Z " /><path fill="rgb(224,214,203)" stroke="rgb(224,214,203)" stroke-width="1" opacity="1" d="M 253.5 309 L 252.5 311 L 253.5 309 Z " /><path fill="rgb(224,214,203)" stroke="rgb(224,214,203)" stroke-width="1" opacity="1" d="M 262.5 309 L 270.5 318 L 273 319.5 L 196.5 369 L 190 360.5 L 189 356.5 L 262.5 309 Z " /><path fill="rgb(224,214,203)" stroke="rgb(224,214,203)" stroke-width="1" opacity="1" d="M 298.5 312 L 297.5 314 L 298.5 312 Z " /><path fill="rgb(224,214,203)" stroke="rgb(224,214,203)" stroke-width="1" opacity="1" d="M 272.5 313 L 273.5 315 L 272.5 313 Z " /><path fill="rgb(224,214,203)" stroke="rgb(224,214,203)" stroke-width="1" opacity="1" d="M 291.5 314 L 288.5 318 L 291.5 314 Z " /><path fill="rgb(224,214,203)" stroke="rgb(224,214,203)" stroke-width="1" opacity="1" d="M 275.5 315 L 276.5 317 L 275.5 315 Z " /><path fill="rgb(224,214,203)" stroke="rgb(224,214,203)" stroke-width="1" opacity="1" d="M 296.5 315 L 290.5 322 L 296.5 315 Z " /><path fill="rgb(224,214,203)" stroke="rgb(224,214,203)" stroke-width="1" opacity="1" d="M 452.5 315 Q 467.6 318.4 475 329.5 Q 490.4 346.6 490 379.5 L 487 395.5 L 480 411.5 Q 471.4 426.4 458.5 437 Q 443.1 450.1 421.5 457 L 397.5 462 L 364.5 462 L 340 457.5 L 348.5 457 L 349.5 458 L 370 458 L 375 443.5 L 375 429 L 386.5 428 L 394 426 L 394 444.5 L 391 455 L 398.5 454 L 413.5 449 L 431 440 Q 430.2 421.6 419.5 412 L 416.5 414 L 425 404.5 L 430.5 396 Q 443.2 406.7 447 425 L 453 420.5 Q 466.2 406.7 471 384.5 L 459.5 374 L 440 366.5 L 441 354.5 L 440 348 L 457.5 352 L 473 360 Q 472.2 346 467 335.5 L 454 316 L 452.5 315 Z " /><path fill="rgb(224,214,203)" stroke="rgb(224,214,203)" stroke-width="1" opacity="1" d="M 242.5 316 L 241.5 318 L 242.5 316 Z " /><path fill="rgb(224,214,203)" stroke="rgb(224,214,203)" stroke-width="1" opacity="1" d="M 441.5 317 L 440.5 319 L 441.5 317 Z " /><path fill="rgb(224,214,203)" stroke="rgb(224,214,203)" stroke-width="1" opacity="1" d="M 239.5 318 L 238.5 320 L 239.5 318 Z " /><path fill="rgb(224,214,203)" stroke="rgb(224,214,203)" stroke-width="1" opacity="1" d="M 236.5 320 L 235.5 322 L 236.5 320 Z " /><path fill="rgb(224,214,203)" stroke="rgb(224,214,203)" stroke-width="1" opacity="1" d="M 275.5 323 L 274.5 325 L 275.5 323 Z " /><path fill="rgb(224,214,203)" stroke="rgb(224,214,203)" stroke-width="1" opacity="1" d="M 228.5 325 L 227.5 327 L 228.5 325 Z " /><path fill="rgb(224,214,203)" stroke="rgb(224,214,203)" stroke-width="1" opacity="1" d="M 272.5 325 L 271.5 327 L 272.5 325 Z " /><path fill="rgb(224,214,203)" stroke="rgb(224,214,203)" stroke-width="1" opacity="1" d="M 437.5 325 L 438 332.5 L 437 332.5 L 437.5 325 Z " /><path fill="rgb(224,214,203)" stroke="rgb(224,214,203)" stroke-width="1" opacity="1" d="M 225.5 327 L 224.5 329 L 225.5 327 Z " /><path fill="rgb(224,214,203)" stroke="rgb(224,214,203)" stroke-width="1" opacity="1" d="M 222.5 329 L 221.5 331 L 222.5 329 Z " /><path fill="rgb(224,214,203)" stroke="rgb(224,214,203)" stroke-width="1" opacity="1" d="M 264.5 330 L 263.5 332 L 264.5 330 Z " /><path fill="rgb(224,214,203)" stroke="rgb(224,214,203)" stroke-width="1" opacity="1" d="M 261.5 332 L 260.5 334 L 261.5 332 Z " /><path fill="rgb(224,214,203)" stroke="rgb(224,214,203)" stroke-width="1" opacity="1" d="M 214.5 334 L 213.5 336 L 214.5 334 Z " /><path fill="rgb(224,214,203)" stroke="rgb(224,214,203)" stroke-width="1" opacity="1" d="M 211.5 336 L 210.5 338 L 211.5 336 Z " /><path fill="rgb(224,214,203)" stroke="rgb(224,214,203)" stroke-width="1" opacity="1" d="M 208.5 338 L 207.5 340 L 208.5 338 Z " /><path fill="rgb(224,214,203)" stroke="rgb(224,214,203)" stroke-width="1" opacity="1" d="M 250.5 339 L 249.5 341 L 250.5 339 Z " /><path fill="rgb(224,214,203)" stroke="rgb(224,214,203)" stroke-width="1" opacity="1" d="M 247.5 341 L 246.5 343 L 247.5 341 Z " /><path fill="rgb(224,214,203)" stroke="rgb(224,214,203)" stroke-width="1" opacity="1" d="M 177.5 342 L 181 344.5 L 178.5 343 L 177.5 342 Z " /><path fill="rgb(224,214,203)" stroke="rgb(224,214,203)" stroke-width="1" opacity="1" d="M 244.5 343 L 243.5 345 L 244.5 343 Z " /><path fill="rgb(224,214,203)" stroke="rgb(224,214,203)" stroke-width="1" opacity="1" d="M 197.5 345 L 196.5 347 L 197.5 345 Z " /><path fill="rgb(224,214,203)" stroke="rgb(224,214,203)" stroke-width="1" opacity="1" d="M 194.5 347 L 193.5 349 L 194.5 347 Z " /><path fill="rgb(224,214,203)" stroke="rgb(224,214,203)" stroke-width="1" opacity="1" d="M 233.5 350 L 232.5 352 L 233.5 350 Z " /><path fill="rgb(224,214,203)" stroke="rgb(224,214,203)" stroke-width="1" opacity="1" d="M 230.5 352 L 229.5 354 L 230.5 352 Z " /><path fill="rgb(224,214,203)" stroke="rgb(224,214,203)" stroke-width="1" opacity="1" d="M 219.5 359 L 218.5 361 L 219.5 359 Z " /><path fill="rgb(224,214,203)" stroke="rgb(224,214,203)" stroke-width="1" opacity="1" d="M 216.5 361 L 215.5 363 L 216.5 361 Z " /><path fill="rgb(224,214,203)" stroke="rgb(224,214,203)" stroke-width="1" opacity="1" d="M 213.5 363 L 212.5 365 L 213.5 363 Z " /><path fill="rgb(224,214,203)" stroke="rgb(224,214,203)" stroke-width="1" opacity="1" d="M 205.5 368 L 204.5 370 L 205.5 368 Z " /><path fill="rgb(224,214,203)" stroke="rgb(224,214,203)" stroke-width="1" opacity="1" d="M 202.5 370 L 201.5 372 L 202.5 370 Z " /><path fill="rgb(224,214,203)" stroke="rgb(224,214,203)" stroke-width="1" opacity="1" d="M 199.5 374 L 200.5 376 L 199.5 374 Z " /><path fill="rgb(224,214,203)" stroke="rgb(224,214,203)" stroke-width="1" opacity="1" d="M 413.5 415 L 412.5 417 L 413.5 415 Z " /><path fill="rgb(224,214,203)" stroke="rgb(224,214,203)" stroke-width="1" opacity="1" d="M 155.5 418 L 154.5 420 L 155.5 418 Z " /><path fill="rgb(224,214,203)" stroke="rgb(224,214,203)" stroke-width="1" opacity="1" d="M 364.5 428 L 368 428.5 L 364.5 429 L 364.5 428 Z " /><path fill="rgb(224,214,203)" stroke="rgb(224,214,203)" stroke-width="1" opacity="1" d="M 351.5 436 L 350.5 438 L 351.5 436 Z " /><path fill="rgb(224,214,203)" stroke="rgb(224,214,203)" stroke-width="1" opacity="1" d="M 348.5 441 L 347.5 443 L 348.5 441 Z " /><path fill="rgb(224,214,203)" stroke="rgb(224,214,203)" stroke-width="1" opacity="1" d="M 346.5 444 L 345.5 446 L 346.5 444 Z " /><path fill="rgb(224,214,203)" stroke="rgb(224,214,203)" stroke-width="1" opacity="1" d="M 343.5 448 L 341.5 451 L 343.5 448 Z " /><path fill="rgb(224,214,203)" stroke="rgb(224,214,203)" stroke-width="1" opacity="1" d="M 337.5 455 L 338.5 457 Q 335.7 457.7 337.5 455 Z " /><path fill="rgb(0,0,0)" stroke="rgb(0,0,0)" stroke-width="1" opacity="0" d="M 0 0 L 512 0 L 512 512 L 0 512 L 0 0 Z M 145 7 L 140 9 L 138 13 L 138 69 L 134 86 L 133 101 L 132 102 L 132 112 L 131 113 L 132 114 L 132 128 L 136 143 Q 142 158 152 170 L 167 183 L 151 210 L 132 257 L 122 296 L 119 323 L 118 324 L 118 334 L 118 336 L 117 337 L 117 373 L 92 376 L 67 382 L 43 391 L 18 405 L 18 408 L 28 424 L 82 505 L 84 505 L 95 496 Q 97 497 96 494 L 109 484 L 113 479 Q 115 480 114 478 L 117 476 L 140 446 Q 142 445 141 448 L 143 448 L 146 454 L 158 464 L 155 472 Q 153 482 157 488 L 164 492 L 172 494 L 193 494 L 206 489 L 209 485 L 210 481 L 210 470 L 211 469 L 276 469 L 277 484 L 280 489 L 294 494 L 316 494 L 327 490 L 331 484 Q 333 470 328 464 L 333 460 L 347 464 L 353 464 L 360 466 L 371 466 L 372 467 L 402 466 L 433 458 L 455 446 L 470 432 L 471 432 L 475 427 Q 474 424 477 425 L 489 404 L 494 385 L 494 363 Q 491 360 492 354 Q 488 338 479 328 Q 471 314 454 310 Q 444 309 440 313 L 433 323 L 433 336 L 436 349 L 436 366 L 432 383 Q 426 399 415 409 Q 412 408 413 411 Q 402 420 385 424 L 365 424 L 358 422 L 365 402 L 365 397 L 368 385 L 368 375 L 369 374 L 369 334 L 368 333 L 368 323 L 366 314 L 366 307 L 364 299 L 368 300 Q 380 299 385 291 Q 387 292 386 289 L 388 289 L 398 272 L 397 263 L 385 254 L 450 212 Q 454 209 455 204 L 453 196 L 447 190 L 439 190 L 362 240 L 359 238 L 354 234 L 345 225 L 341 221 L 327 195 L 319 183 L 326 178 Q 338 167 346 153 L 352 137 L 354 128 L 354 119 L 355 118 L 352 85 L 348 69 L 348 13 L 347 11 L 342 7 Q 334 9 330 14 Q 327 13 328 16 L 308 32 L 293 27 L 274 23 L 253 22 L 252 21 L 235 21 L 233 21 L 232 22 L 221 22 L 220 23 L 202 25 L 180 32 L 150 8 L 145 7 Z " /><path fill="rgb(233,233,233)" stroke="rgb(233,233,233)" stroke-width="1" opacity="1" d="M 341.5 12 L 342.5 14 L 341.5 12 Z " /><path fill="rgb(233,233,233)" stroke="rgb(233,233,233)" stroke-width="1" opacity="1" d="M 149.5 14 L 150.5 16 L 149.5 14 Z " /><path fill="rgb(233,233,233)" stroke="rgb(233,233,233)" stroke-width="1" opacity="1" d="M 154.5 18 L 155.5 20 L 154.5 18 Z " /><path fill="rgb(233,233,233)" stroke="rgb(233,233,233)" stroke-width="1" opacity="1" d="M 159.5 22 L 160.5 24 L 159.5 22 Z " /><path fill="rgb(233,233,233)" stroke="rgb(233,233,233)" stroke-width="1" opacity="1" d="M 164.5 26 L 165.5 28 L 164.5 26 Z " /><path fill="rgb(233,233,233)" stroke="rgb(233,233,233)" stroke-width="1" opacity="1" d="M 169.5 30 L 170.5 32 L 169.5 30 Z " /><path fill="rgb(233,233,233)" stroke="rgb(233,233,233)" stroke-width="1" opacity="1" d="M 302.5 75 L 303.5 77 L 302.5 75 Z " /><path fill="rgb(233,233,233)" stroke="rgb(233,233,233)" stroke-width="1" opacity="1" d="M 185.5 86 L 186.5 88 L 185.5 86 Z " /><path fill="rgb(233,233,233)" stroke="rgb(233,233,233)" stroke-width="1" opacity="1" d="M 136.5 115 L 137 117.5 L 136 117.5 L 136.5 115 Z " /><path fill="rgb(233,233,233)" stroke="rgb(233,233,233)" stroke-width="1" opacity="1" d="M 240.5 127 L 241 134.5 L 240 134.5 L 240.5 127 Z " /><path fill="rgb(233,233,233)" stroke="rgb(233,233,233)" stroke-width="1" opacity="1" d="M 318.5 129 L 317.5 131 L 318.5 129 Z " /><path fill="rgb(233,233,233)" stroke="rgb(233,233,233)" stroke-width="1" opacity="1" d="M 238.5 139 L 237.5 141 L 238.5 139 Z " /><path fill="rgb(233,233,233)" stroke="rgb(233,233,233)" stroke-width="1" opacity="1" d="M 247.5 139 L 248.5 141 L 247.5 139 Z " /><path fill="rgb(233,233,233)" stroke="rgb(233,233,233)" stroke-width="1" opacity="1" d="M 168.5 153 L 167.5 155 L 168.5 153 Z " /><path fill="rgb(233,233,233)" stroke="rgb(233,233,233)" stroke-width="1" opacity="1" d="M 331.5 164 L 330.5 166 L 331.5 164 Z " /><path fill="rgb(233,233,233)" stroke="rgb(233,233,233)" stroke-width="1" opacity="1" d="M 155.5 165 L 157.5 168 L 155.5 165 Z " /><path fill="rgb(233,233,233)" stroke="rgb(233,233,233)" stroke-width="1" opacity="1" d="M 161.5 171 L 163.5 174 L 161.5 171 Z " /><path fill="rgb(233,233,233)" stroke="rgb(233,233,233)" stroke-width="1" opacity="1" d="M 323.5 172 L 321.5 175 L 323.5 172 Z " /><path fill="rgb(233,233,233)" stroke="rgb(233,233,233)" stroke-width="1" opacity="1" d="M 353.5 240 L 356 243.5 L 355 243.5 L 353.5 240 Z " /><path fill="rgb(233,233,233)" stroke="rgb(233,233,233)" stroke-width="1" opacity="1" d="M 389.5 262 L 392.5 266 L 389.5 262 Z " /><path fill="rgb(233,233,233)" stroke="rgb(233,233,233)" stroke-width="1" opacity="1" d="M 129.5 286 L 130 288.5 L 129 288.5 L 129.5 286 Z " /><path fill="rgb(233,233,233)" stroke="rgb(233,233,233)" stroke-width="1" opacity="1" d="M 357.5 290 L 358 295.5 L 357 295.5 L 357.5 290 Z " /><path fill="rgb(233,233,233)" stroke="rgb(233,233,233)" stroke-width="1" opacity="1" d="M 128.5 291 L 129 296.5 L 128 296.5 L 128.5 291 Z " /><path fill="rgb(233,233,233)" stroke="rgb(233,233,233)" stroke-width="1" opacity="1" d="M 358.5 297 L 359 304.5 L 358 304.5 L 358.5 297 Z " /><path fill="rgb(233,233,233)" stroke="rgb(233,233,233)" stroke-width="1" opacity="1" d="M 127.5 298 L 128 305.5 L 127 305.5 L 127.5 298 Z " /><path fill="rgb(233,233,233)" stroke="rgb(233,233,233)" stroke-width="1" opacity="1" d="M 359.5 306 L 360 320.5 L 359 320.5 L 359.5 306 Z " /><path fill="rgb(233,233,233)" stroke="rgb(233,233,233)" stroke-width="1" opacity="1" d="M 126.5 307 L 127 322.5 L 126 322.5 L 126.5 307 Z " /><path fill="rgb(233,233,233)" stroke="rgb(233,233,233)" stroke-width="1" opacity="1" d="M 268.5 309 L 271.5 313 L 268.5 309 Z " /><path fill="rgb(233,233,233)" stroke="rgb(233,233,233)" stroke-width="1" opacity="1" d="M 293.5 311 L 292.5 313 L 293.5 311 Z " /><path fill="rgb(233,233,233)" stroke="rgb(233,233,233)" stroke-width="1" opacity="1" d="M 451.5 315 L 454 316 L 467 335.5 Q 472.2 346 473 360 L 471 359.5 L 472 355.5 L 466 335.5 Q 460.1 323.1 451.5 315 Z " /><path fill="rgb(233,233,233)" stroke="rgb(233,233,233)" stroke-width="1" opacity="1" d="M 360.5 322 L 361 343.5 L 360 343.5 L 360.5 322 Z " /><path fill="rgb(233,233,233)" stroke="rgb(233,233,233)" stroke-width="1" opacity="1" d="M 125.5 325 L 126 340.5 L 125 340.5 L 125.5 325 Z " /><path fill="rgb(233,233,233)" stroke="rgb(233,233,233)" stroke-width="1" opacity="1" d="M 126.5 343 L 127 357.5 L 126 357.5 L 126.5 343 Z " /><path fill="rgb(233,233,233)" stroke="rgb(233,233,233)" stroke-width="1" opacity="1" d="M 175.5 343 L 148.5 371 L 175.5 343 Z " /><path fill="rgb(233,233,233)" stroke="rgb(233,233,233)" stroke-width="1" opacity="1" d="M 359.5 348 L 360 359.5 L 359 360.5 L 359 367.5 L 356 383.5 L 349 405.5 Q 340.5 426.5 324.5 440 L 310.5 446 L 175.5 446 L 175.5 445 L 310.5 445 Q 324.1 442.1 331 432.5 Q 343.1 419.1 350 400.5 L 357 373.5 L 359.5 348 Z " /><path fill="rgb(233,233,233)" stroke="rgb(233,233,233)" stroke-width="1" opacity="1" d="M 442.5 348 L 445 348.5 L 442.5 349 L 442.5 348 Z " /><path fill="rgb(233,233,233)" stroke="rgb(233,233,233)" stroke-width="1" opacity="1" d="M 468.5 357 L 469.5 359 L 468.5 357 Z " /><path fill="rgb(233,233,233)" stroke="rgb(233,233,233)" stroke-width="1" opacity="1" d="M 127.5 359 L 128 365.5 L 127 365.5 L 127.5 359 Z " /><path fill="rgb(233,233,233)" stroke="rgb(233,233,233)" stroke-width="1" opacity="1" d="M 128.5 367 L 129 372.5 L 128 372.5 L 128.5 367 Z " /><path fill="rgb(233,233,233)" stroke="rgb(233,233,233)" stroke-width="1" opacity="1" d="M 459.5 374 L 460.5 376 L 459.5 374 Z " /><path fill="rgb(233,233,233)" stroke="rgb(233,233,233)" stroke-width="1" opacity="1" d="M 462.5 376 L 471 384.5 L 471 387.5 Q 464.3 410.8 448.5 425 Q 446.3 425.8 447 423.5 L 449 423.5 Q 464.5 409 470 384.5 L 462.5 376 Z " /><path fill="rgb(233,233,233)" stroke="rgb(233,233,233)" stroke-width="1" opacity="1" d="M 431.5 396 L 434.5 400 L 431.5 396 Z " /><path fill="rgb(233,233,233)" stroke="rgb(233,233,233)" stroke-width="1" opacity="1" d="M 435.5 401 L 437.5 404 L 435.5 401 Z " /><path fill="rgb(233,233,233)" stroke="rgb(233,233,233)" stroke-width="1" opacity="1" d="M 440.5 408 L 441.5 410 L 440.5 408 Z " /><path fill="rgb(233,233,233)" stroke="rgb(233,233,233)" stroke-width="1" opacity="1" d="M 419.5 412 L 422.5 416 L 419.5 412 Z " /><path fill="rgb(233,233,233)" stroke="rgb(233,233,233)" stroke-width="1" opacity="1" d="M 415.5 414 L 414.5 416 L 415.5 414 Z " /><path fill="rgb(233,233,233)" stroke="rgb(233,233,233)" stroke-width="1" opacity="1" d="M 411.5 417 L 410.5 419 L 411.5 417 Z " /><path fill="rgb(233,233,233)" stroke="rgb(233,233,233)" stroke-width="1" opacity="1" d="M 423.5 417 L 424.5 419 L 423.5 417 Z " /><path fill="rgb(233,233,233)" stroke="rgb(233,233,233)" stroke-width="1" opacity="1" d="M 151.5 428 L 156.5 434 Q 163 441.5 174 444.5 L 171.5 445 Q 159.3 440.3 152 430.5 L 151.5 428 Z " /><path fill="rgb(233,233,233)" stroke="rgb(233,233,233)" stroke-width="1" opacity="1" d="M 394.5 431 L 395 439.5 L 394 439.5 L 394.5 431 Z " /><path fill="rgb(233,233,233)" stroke="rgb(233,233,233)" stroke-width="1" opacity="1" d="M 430.5 435 L 431 440 L 413.5 449 L 398.5 454 L 391 455 L 391.5 453 L 393.5 454 Q 415.1 449.6 430 438.5 L 430.5 435 Z " /><path fill="rgb(233,233,233)" stroke="rgb(233,233,233)" stroke-width="1" opacity="1" d="M 340.5 452 L 339 454.5 L 339.5 456 L 347.5 456 L 347.5 457 L 339.5 457 L 338 455.5 L 340.5 452 Z " /><path fill="rgb(233,233,233)" stroke="rgb(233,233,233)" stroke-width="1" opacity="1" d="M 349.5 457 L 370 457.5 L 349.5 458 L 349.5 457 Z " /><path fill="rgb(234,234,234)" stroke="rgb(234,234,234)" stroke-width="1" opacity="1" d="M 145.5 12 L 175.5 36 L 181.5 37 L 194.5 32 L 219.5 27 L 253.5 26 L 254.5 27 L 273.5 28 L 298.5 34 L 304.5 37 L 308.5 37 L 340.5 12 L 343 14.5 L 343 68.5 L 348 92.5 L 350 118.5 L 349 119.5 L 349 127.5 L 344 144.5 Q 336.9 160.9 324.5 172 L 312 181.5 L 313.5 185 L 317 187.5 Q 335 215.9 346 250 L 306.5 275 L 297.5 269 L 284.5 265 L 273.5 259 L 211.5 218 L 193.5 207 L 190.5 207 L 189 210.5 L 266.5 261 L 283.5 270 L 297.5 275 L 304 280.5 L 305 286.5 Q 300.5 305.5 288.5 317 Q 287.1 319.6 282.5 319 Q 271.8 315.2 266 306.5 L 261.5 301 L 235.5 286 L 171.5 262 L 159 260 L 159 264 L 160.5 264 L 231.5 290 Q 246.3 296.3 258 305.5 Q 258.8 307.8 256.5 307 L 187.5 352 L 185 352 L 178.5 342 L 175.5 343 L 147.5 371 L 144.5 370 L 143 373 L 129 373 L 129 367.5 L 127 358.5 L 126 323.5 L 127 322.5 L 127 306.5 L 128 305.5 L 130 282.5 L 142 243.5 L 160 203.5 L 174 181.5 L 158 168.5 Q 147.3 157.2 141 141.5 L 137 126.5 Q 138.4 117.6 136 112.5 L 137 111.5 L 137 101.5 L 138 100.5 L 139 86.5 L 143 69.5 L 143 14.5 L 145.5 12 Z M 188 74 L 184 78 L 185 87 L 189 89 L 196 88 L 199 84 L 198 78 Q 196 72 188 74 Z M 295 74 L 290 79 L 291 86 L 296 89 Q 303 90 305 85 L 304 77 Q 302 73 295 74 Z M 237 104 L 235 105 L 231 110 Q 231 122 239 126 L 240 127 L 240 138 L 236 142 L 225 142 L 223 144 L 225 147 Q 238 149 243 143 Q 248 149 262 147 L 263 144 L 262 142 L 251 142 L 246 138 L 245 134 Q 243 126 247 127 Q 253 123 255 115 L 254 108 L 250 104 L 237 104 Z M 167 126 L 167 130 L 204 140 L 205 137 L 198 133 L 177 127 L 167 126 Z M 314 126 L 289 133 L 281 137 L 282 140 L 318 131 L 319 130 Q 321 123 314 126 Z M 197 149 L 175 153 L 169 153 L 167 155 L 169 158 L 197 155 L 204 153 Q 206 154 205 151 Q 203 147 197 149 Z M 283 149 L 281 152 L 284 154 L 310 157 L 311 158 L 319 158 L 319 155 L 318 153 L 291 150 L 290 149 L 283 149 Z " /><path fill="rgb(234,234,234)" stroke="rgb(234,234,234)" stroke-width="1" opacity="1" d="M 345.5 233 L 355 243.5 L 350.5 247 L 345.5 233 Z " /><path fill="rgb(234,234,234)" stroke="rgb(234,234,234)" stroke-width="1" opacity="1" d="M 379.5 257 Q 388.5 259.4 393 266.5 Q 393.8 272.8 391 275.5 L 376.5 292 L 368.5 295 L 363 291.5 L 358 271.5 L 379.5 257 Z " /><path fill="rgb(234,234,234)" stroke="rgb(234,234,234)" stroke-width="1" opacity="1" d="M 353.5 274 L 356 282.5 L 358 304.5 L 359 305.5 L 360 347.5 L 359 348.5 L 359 359.5 L 358 360.5 L 357 373.5 L 350 400.5 Q 341.8 423.3 325.5 438 Q 319.8 443.3 310.5 445 L 174.5 445 Q 162.3 441.3 155 432.5 L 151 426.5 L 162 406.5 L 162 404 L 164.5 405 L 167 401.5 L 166.5 400 L 205 385.5 L 206 383.5 L 199 373.5 L 273.5 325 L 280.5 323 Q 281.8 325.3 286.5 324 Q 294 321 298 314.5 L 304.5 305 L 353.5 274 Z " /><path fill="rgb(234,234,234)" stroke="rgb(234,234,234)" stroke-width="1" opacity="1" d="M 447.5 315 L 450.5 315 L 458 322.5 Q 469.7 336.6 472 359 Q 459.6 350 440 348 L 438 335.5 L 438 323.5 L 442.5 317 L 447.5 315 Z " /><path fill="rgb(234,234,234)" stroke="rgb(234,234,234)" stroke-width="1" opacity="1" d="M 440 368 Q 460.1 370.7 470 384.5 Q 464.4 409.4 448.5 424 L 442 409.5 L 431 395.5 L 439 377.5 L 440 368 Z " /><path fill="rgb(234,234,234)" stroke="rgb(234,234,234)" stroke-width="1" opacity="1" d="M 418.5 412 Q 429.2 420.3 430 438.5 Q 414.4 450.1 392 454 L 394 446.5 L 395 431.5 L 394 426 Q 409.2 422.6 418.5 412 Z " /><path fill="rgb(234,234,234)" stroke="rgb(234,234,234)" stroke-width="1" opacity="1" d="M 356 427 L 364.5 429 L 375 429 L 375 441.5 L 370 457 L 348.5 457 L 347.5 456 L 339 456 L 351 438.5 L 356 427 Z " /><path fill="rgb(125,108,99)" stroke="rgb(125,108,99)" stroke-width="1" opacity="0.9607843137254902" d="M 144.5 7 L 149.5 8 L 179.5 32 L 201.5 25 L 219.5 23 L 220.5 22 L 231.5 22 L 232.5 21 L 234.5 21 L 251.5 21 L 252.5 22 L 273.5 23 L 292.5 27 L 307.5 32 L 328 16 Q 326.9 13.3 329.5 14 Q 333.6 8.6 341.5 7 L 347 10.5 L 348 12.5 L 348 68.5 L 352 84.5 L 355 117.5 L 354 118.5 L 354 127.5 L 352 136.5 L 346 152.5 Q 337.9 167.4 325.5 178 L 319 182.5 L 327 194.5 L 340.5 221 L 345 224.5 L 353.5 234 L 358.5 238 L 361.5 240 L 438.5 190 L 446.5 190 L 453 195.5 L 455 203.5 Q 453.8 209.3 449.5 212 L 385 253.5 L 397 262.5 L 398 271.5 L 388 289 L 386 289 Q 387.1 291.7 384.5 291 Q 379.7 299.2 367.5 300 L 364 299 L 366 306.5 L 366 313.5 L 368 322.5 L 368 332.5 L 369 333.5 L 369 373.5 L 368 374.5 L 368 384.5 L 365 396.5 L 365 401.5 L 358 421.5 L 364.5 424 L 384.5 424 Q 401.8 420.1 413 411 Q 411.9 408.3 414.5 409 Q 426.2 398.7 432 382.5 L 436 365.5 L 436 348.5 L 433 335.5 L 433 322.5 L 439.5 313 Q 443.9 308.9 453.5 310 Q 470.5 314.4 479 327.5 Q 487.8 338.2 492 353.5 Q 491.4 359.6 494 362.5 L 494 384.5 L 489 403.5 L 477 425 Q 474.3 423.9 475 426.5 L 471 432 L 469.5 432 L 454.5 446 L 432.5 458 L 401.5 466 L 371.5 467 L 370.5 466 L 359.5 466 L 352.5 464 L 346.5 464 L 332.5 460 L 328 463.5 Q 332.9 470 331 483.5 L 326.5 490 L 315.5 494 L 293.5 494 L 280 488.5 L 277 483.5 L 276 469 L 210.5 469 L 210 469.5 L 210 480.5 L 209 484.5 L 205.5 489 L 192.5 494 L 171.5 494 L 163.5 492 L 157 487.5 Q 153.4 482.1 155 471.5 L 158 463.5 L 146 454 L 143 448 L 141 448 Q 142.1 445.3 139.5 446 L 117 476 L 114 477.5 Q 114.8 479.8 112.5 479 L 108.5 484 L 96 494 Q 97.1 496.7 94.5 496 L 83.5 505 L 81.5 505 L 28 423.5 L 18 407.5 L 18 404.5 L 42.5 391 L 66.5 382 L 91.5 376 L 117 373 L 117 336.5 L 118 335.5 L 118 333.5 L 118 323.5 L 119 322.5 L 122 295.5 L 132 256.5 L 151 209.5 L 167 182.5 L 152 169.5 Q 141.8 158.2 136 142.5 L 132 127.5 L 132 113.5 L 131 112.5 L 132 111.5 L 132 101.5 L 133 100.5 L 134 85.5 L 138 68.5 L 138 12.5 L 140 9 L 144.5 7 Z M 145 12 L 142 15 L 142 72 L 140 78 L 138 96 L 137 97 L 137 105 L 136 106 L 136 124 L 140 141 L 149 159 L 159 171 L 173 182 Q 174 185 172 184 Q 147 219 134 266 L 125 305 L 123 326 L 122 327 L 122 339 L 121 340 L 121 369 L 122 373 L 141 373 L 143 374 L 145 371 L 148 372 L 177 343 L 179 343 L 185 353 L 194 349 L 258 307 Q 260 308 259 306 Q 247 295 231 289 L 159 263 L 161 260 L 173 263 L 232 285 Q 248 292 262 302 L 266 308 Q 272 317 285 320 L 289 318 Q 300 307 305 290 Q 306 283 304 280 L 301 276 L 288 270 L 285 270 L 270 262 L 190 211 L 192 207 L 276 261 Q 283 266 294 268 L 307 276 L 346 251 L 346 248 L 338 227 L 317 187 L 315 185 L 313 182 L 325 173 Q 345 156 350 124 L 349 96 L 344 71 L 344 15 L 342 12 L 339 12 L 308 37 L 282 29 L 263 27 L 262 26 L 225 26 Q 223 29 217 27 L 193 32 L 180 37 L 177 36 L 148 12 L 145 12 Z M 442 194 L 312 277 L 309 280 Q 311 292 306 298 L 307 299 L 448 208 L 450 205 L 449 198 Q 447 194 442 194 Z M 345 231 L 344 233 L 351 247 L 356 244 Q 358 245 357 242 L 356 242 L 345 231 Z M 379 257 L 358 271 L 362 292 L 367 295 Q 375 296 378 292 L 390 279 L 394 271 L 394 267 L 385 258 L 379 257 Z M 354 273 L 304 305 L 297 315 Q 293 322 285 324 L 280 322 L 276 323 L 199 372 L 199 375 L 205 385 L 197 389 L 168 399 Q 165 400 166 404 L 163 403 Q 154 423 143 440 L 143 442 L 148 449 Q 153 456 161 459 L 163 448 Q 162 443 166 445 L 167 448 L 166 457 L 161 467 L 159 477 L 161 486 L 176 490 L 188 490 L 201 487 L 205 483 L 206 478 L 203 449 L 207 447 L 208 453 L 208 463 L 210 464 L 277 464 L 278 463 L 279 451 Q 281 446 283 450 L 283 457 L 281 465 L 281 482 L 282 484 L 286 487 L 298 490 L 311 490 L 325 486 L 327 480 L 326 470 L 320 456 L 320 446 L 323 445 L 324 447 L 324 455 L 327 459 L 329 458 Q 345 445 353 424 L 361 399 L 363 382 L 364 381 L 364 371 L 365 370 L 365 338 L 364 337 L 364 326 L 363 325 L 363 318 L 358 289 L 354 273 Z M 263 309 L 189 357 L 190 361 L 197 369 L 273 320 L 271 318 L 263 309 Z M 446 315 L 442 317 L 438 322 L 437 326 L 437 333 L 441 355 Q 440 387 425 405 L 408 420 L 395 426 L 381 429 L 369 429 L 357 426 L 349 441 L 337 457 L 365 462 L 398 462 L 422 457 Q 443 450 459 437 Q 471 426 480 412 L 487 396 L 490 380 Q 490 347 475 330 Q 468 321 458 316 L 446 315 Z " /><path fill="rgb(125,108,99)" stroke="rgb(125,108,99)" stroke-width="1" opacity="0.9607843137254902" d="M 189.5 74 Q 195.9 74.1 198 78.5 Q 199.1 86.1 194.5 88 Q 187.3 89.3 185 85.5 L 184 79.5 L 187.5 75 L 189.5 74 Z " /><path fill="rgb(125,108,99)" stroke="rgb(125,108,99)" stroke-width="1" opacity="0.9607843137254902" d="M 296.5 74 Q 302.7 73.3 304 77.5 L 305 82.5 L 300.5 88 Q 292.5 89.5 291 84.5 Q 290.3 78.4 292 76 L 296.5 74 Z " /><path fill="rgb(125,108,99)" stroke="rgb(125,108,99)" stroke-width="1" opacity="0.9607843137254902" d="M 239.5 104 L 250.5 105 L 254 108.5 Q 254.9 121.9 246.5 126 L 245 126.5 L 245 136.5 L 249.5 142 L 262 143 L 260.5 147 Q 247.4 148.6 242.5 142 Q 238.2 148.7 225.5 147 L 224 143 Q 235.8 145 240 138.5 L 241 136.5 L 241 126 L 235 121.5 Q 230.8 117.7 232 108.5 L 235.5 105 L 239.5 104 Z " /><path fill="rgb(125,108,99)" stroke="rgb(125,108,99)" stroke-width="1" opacity="0.9607843137254902" d="M 168 126 L 202.5 135 L 204 136.5 Q 205.3 141.1 199.5 139 L 168 130 L 168 126 Z " /><path fill="rgb(125,108,99)" stroke="rgb(125,108,99)" stroke-width="1" opacity="0.9607843137254902" d="M 315.5 126 Q 320.1 124.8 318 130 L 290.5 138 L 282 139 L 283.5 135 L 290.5 134 L 315.5 126 Z " /><path fill="rgb(125,108,99)" stroke="rgb(125,108,99)" stroke-width="1" opacity="0.9607843137254902" d="M 200.5 149 L 204 150.5 Q 205.3 154.7 200.5 153 L 199.5 154 L 169.5 158 L 168 154 L 192.5 151 L 193.5 150 L 199.5 150 L 200.5 149 Z " /><path fill="rgb(125,108,99)" stroke="rgb(125,108,99)" stroke-width="1" opacity="0.9607843137254902" d="M 283.5 149 L 318 154 L 316.5 158 L 282 153 L 283.5 149 Z " /></svg>