<svg width="512" height="512" version="1.1" xmlns="http://www.w3.org/2000/svg" desc="Created with imagetracer.js version 1.2.6" ><path fill="rgb(233,211,206)" stroke="rgb(233,211,206)" stroke-width="1" opacity="1" d="M 130.5 14 L 146.5 14 L 165.5 18 Q 186.7 25.8 200 41.5 Q 207.7 50.8 212 63.5 L 214 73.5 L 214 87.5 L 211 100.5 L 203 114.5 L 203 117.5 L 218 142.5 L 216.5 143 L 186.5 132 L 162.5 144 L 146.5 147 L 130.5 147 L 129.5 146 L 118.5 145 L 106.5 141 Q 90 134 79 121.5 Q 70.6 112.4 66 99.5 L 63 85.5 L 63 75.5 L 65 64.5 L 71 50.5 L 85.5 33 Q 94.5 25 106.5 20 L 130.5 14 Z M 135 49 L 126 53 L 118 63 Q 116 69 121 67 L 123 62 Q 127 55 135 53 Q 144 52 149 56 Q 154 60 156 68 Q 157 76 153 81 Q 149 86 142 88 L 133 87 L 131 89 L 131 108 L 135 108 L 135 92 L 143 92 L 153 87 Q 158 82 160 73 Q 160 62 155 57 Q 149 48 135 49 Z M 133 114 Q 130 115 131 120 L 134 121 Q 136 120 135 116 L 133 114 Z " /><path fill="rgb(233,211,206)" stroke="rgb(233,211,206)" stroke-width="1" opacity="1" d="M 368.5 14 L 370.5 17 L 368.5 14 Z " /><path fill="rgb(233,211,206)" stroke="rgb(233,211,206)" stroke-width="1" opacity="1" d="M 364.5 18 L 365 20.5 L 364 20.5 L 364.5 18 Z " /><path fill="rgb(233,211,206)" stroke="rgb(233,211,206)" stroke-width="1" opacity="1" d="M 373.5 20 L 376.5 24 L 373.5 20 Z " /><path fill="rgb(233,211,206)" stroke="rgb(233,211,206)" stroke-width="1" opacity="1" d="M 363.5 25 L 364 27.5 L 363 27.5 L 363.5 25 Z " /><path fill="rgb(233,211,206)" stroke="rgb(233,211,206)" stroke-width="1" opacity="1" d="M 379.5 27 L 382.5 31 L 379.5 27 Z " /><path fill="rgb(233,211,206)" stroke="rgb(233,211,206)" stroke-width="1" opacity="1" d="M 362.5 32 L 363 34.5 L 362 34.5 L 362.5 32 Z " /><path fill="rgb(233,211,206)" stroke="rgb(233,211,206)" stroke-width="1" opacity="1" d="M 385.5 34 L 388.5 38 L 385.5 34 Z " /><path fill="rgb(233,211,206)" stroke="rgb(233,211,206)" stroke-width="1" opacity="1" d="M 361.5 39 L 362 41.5 L 361 41.5 L 361.5 39 Z " /><path fill="rgb(233,211,206)" stroke="rgb(233,211,206)" stroke-width="1" opacity="1" d="M 391.5 41 L 394.5 45 L 391.5 41 Z " /><path fill="rgb(233,211,206)" stroke="rgb(233,211,206)" stroke-width="1" opacity="1" d="M 397.5 48 L 402.5 54 L 397.5 48 Z " /><path fill="rgb(233,211,206)" stroke="rgb(233,211,206)" stroke-width="1" opacity="1" d="M 405.5 55 L 408.5 59 L 405.5 55 Z " /><path fill="rgb(233,211,206)" stroke="rgb(233,211,206)" stroke-width="1" opacity="1" d="M 412.5 61 L 415.5 65 L 412.5 61 Z " /><path fill="rgb(233,211,206)" stroke="rgb(233,211,206)" stroke-width="1" opacity="1" d="M 327.5 65 L 326.5 67 L 327.5 65 Z " /><path fill="rgb(233,211,206)" stroke="rgb(233,211,206)" stroke-width="1" opacity="1" d="M 421.5 69 L 432.5 81 L 421.5 69 Z " /><path fill="rgb(233,211,206)" stroke="rgb(233,211,206)" stroke-width="1" opacity="1" d="M 320.5 70 L 319.5 72 L 320.5 70 Z " /><path fill="rgb(233,211,206)" stroke="rgb(233,211,206)" stroke-width="1" opacity="1" d="M 391.5 71 L 390.5 73 L 391.5 71 Z " /><path fill="rgb(233,211,206)" stroke="rgb(233,211,206)" stroke-width="1" opacity="1" d="M 395.5 71 L 400 74.5 L 396.5 72 L 395.5 71 Z " /><path fill="rgb(233,211,206)" stroke="rgb(233,211,206)" stroke-width="1" opacity="1" d="M 315.5 74 L 313.5 77 L 315.5 74 Z " /><path fill="rgb(233,211,206)" stroke="rgb(233,211,206)" stroke-width="1" opacity="1" d="M 389.5 74 L 390 77.5 L 389 77.5 L 389.5 74 Z " /><path fill="rgb(233,211,206)" stroke="rgb(233,211,206)" stroke-width="1" opacity="1" d="M 390.5 79 L 391.5 81 L 390.5 79 Z " /><path fill="rgb(233,211,206)" stroke="rgb(233,211,206)" stroke-width="1" opacity="1" d="M 308.5 80 L 303.5 86 L 308.5 80 Z " /><path fill="rgb(233,211,206)" stroke="rgb(233,211,206)" stroke-width="1" opacity="1" d="M 435.5 84 L 436.5 86 L 435.5 84 Z " /><path fill="rgb(233,211,206)" stroke="rgb(233,211,206)" stroke-width="1" opacity="1" d="M 301.5 87 L 295.5 94 L 301.5 87 Z " /><path fill="rgb(233,211,206)" stroke="rgb(233,211,206)" stroke-width="1" opacity="1" d="M 438.5 88 L 439 89.5 L 433 94.5 L 438.5 88 Z " /><path fill="rgb(233,211,206)" stroke="rgb(233,211,206)" stroke-width="1" opacity="1" d="M 440.5 93 L 442 93.5 L 438.5 96 L 440.5 93 Z " /><path fill="rgb(233,211,206)" stroke="rgb(233,211,206)" stroke-width="1" opacity="1" d="M 292.5 97 L 291.5 99 L 292.5 97 Z " /><path fill="rgb(233,211,206)" stroke="rgb(233,211,206)" stroke-width="1" opacity="1" d="M 429.5 99 L 424.5 105 L 429.5 99 Z " /><path fill="rgb(233,211,206)" stroke="rgb(233,211,206)" stroke-width="1" opacity="1" d="M 434.5 100 L 429.5 106 L 434.5 100 Z " /><path fill="rgb(233,211,206)" stroke="rgb(233,211,206)" stroke-width="1" opacity="1" d="M 289.5 101 L 288.5 103 L 289.5 101 Z " /><path fill="rgb(233,211,206)" stroke="rgb(233,211,206)" stroke-width="1" opacity="1" d="M 286.5 105 L 285.5 107 L 286.5 105 Z " /><path fill="rgb(233,211,206)" stroke="rgb(233,211,206)" stroke-width="1" opacity="1" d="M 447.5 107 L 448 109.5 L 447 109.5 L 447.5 107 Z " /><path fill="rgb(233,211,206)" stroke="rgb(233,211,206)" stroke-width="1" opacity="1" d="M 420.5 109 L 418.5 112 L 420.5 109 Z " /><path fill="rgb(233,211,206)" stroke="rgb(233,211,206)" stroke-width="1" opacity="1" d="M 425.5 110 L 421.5 115 L 425.5 110 Z " /><path fill="rgb(233,211,206)" stroke="rgb(233,211,206)" stroke-width="1" opacity="1" d="M 386.5 112 L 389.5 116 L 386.5 112 Z " /><path fill="rgb(233,211,206)" stroke="rgb(233,211,206)" stroke-width="1" opacity="1" d="M 378.5 114 L 376.5 117 L 378.5 114 Z " /><path fill="rgb(233,211,206)" stroke="rgb(233,211,206)" stroke-width="1" opacity="1" d="M 337.5 118 L 340 118.5 L 337.5 119 L 337.5 118 Z " /><path fill="rgb(233,211,206)" stroke="rgb(233,211,206)" stroke-width="1" opacity="1" d="M 425.5 118 L 425 119.5 L 424.5 122 L 424 119.5 L 425.5 118 Z " /><path fill="rgb(233,211,206)" stroke="rgb(233,211,206)" stroke-width="1" opacity="1" d="M 450.5 122 L 451 135.5 L 450 135.5 L 450.5 122 Z " /><path fill="rgb(233,211,206)" stroke="rgb(233,211,206)" stroke-width="1" opacity="1" d="M 375.5 123 L 379.5 128 L 375.5 123 Z " /><path fill="rgb(233,211,206)" stroke="rgb(233,211,206)" stroke-width="1" opacity="1" d="M 394.5 130 L 397.5 134 L 394.5 130 Z " /><path fill="rgb(233,211,206)" stroke="rgb(233,211,206)" stroke-width="1" opacity="1" d="M 407.5 130 L 404.5 134 L 407.5 130 Z " /><path fill="rgb(233,211,206)" stroke="rgb(233,211,206)" stroke-width="1" opacity="1" d="M 389.5 131 L 391.5 134 L 389.5 131 Z " /><path fill="rgb(233,211,206)" stroke="rgb(233,211,206)" stroke-width="1" opacity="1" d="M 410.5 133 L 406.5 138 L 410.5 133 Z " /><path fill="rgb(233,211,206)" stroke="rgb(233,211,206)" stroke-width="1" opacity="1" d="M 399.5 134 L 403 134.5 L 399.5 135 L 399.5 134 Z " /><path fill="rgb(233,211,206)" stroke="rgb(233,211,206)" stroke-width="1" opacity="1" d="M 253.5 137 L 271.5 156 L 253.5 137 Z " /><path fill="rgb(233,211,206)" stroke="rgb(233,211,206)" stroke-width="1" opacity="1" d="M 394.5 137 L 395 140.5 L 394 140.5 L 394.5 137 Z " /><path fill="rgb(233,211,206)" stroke="rgb(233,211,206)" stroke-width="1" opacity="1" d="M 393.5 142 L 390.5 146 L 393.5 142 Z " /><path fill="rgb(233,211,206)" stroke="rgb(233,211,206)" stroke-width="1" opacity="1" d="M 397.5 144 L 392.5 150 L 397.5 144 Z " /><path fill="rgb(233,211,206)" stroke="rgb(233,211,206)" stroke-width="1" opacity="1" d="M 377.5 160 L 368.5 170 L 377.5 160 Z " /><path fill="rgb(233,211,206)" stroke="rgb(233,211,206)" stroke-width="1" opacity="1" d="M 441.5 163 L 440.5 165 L 441.5 163 Z " /><path fill="rgb(233,211,206)" stroke="rgb(233,211,206)" stroke-width="1" opacity="1" d="M 439.5 166 L 438.5 168 L 439.5 166 Z " /><path fill="rgb(233,211,206)" stroke="rgb(233,211,206)" stroke-width="1" opacity="1" d="M 375.5 168 L 367.5 177 L 375.5 168 Z " /><path fill="rgb(233,211,206)" stroke="rgb(233,211,206)" stroke-width="1" opacity="1" d="M 437.5 169 L 431.5 176 L 437.5 169 Z " /><path fill="rgb(233,211,206)" stroke="rgb(233,211,206)" stroke-width="1" opacity="1" d="M 360.5 176 L 355.5 182 L 360.5 176 Z " /><path fill="rgb(233,211,206)" stroke="rgb(233,211,206)" stroke-width="1" opacity="1" d="M 426.5 179 L 422.5 184 L 426.5 179 Z " /><path fill="rgb(233,211,206)" stroke="rgb(233,211,206)" stroke-width="1" opacity="1" d="M 360.5 182 L 358.5 185 L 360.5 182 Z " /><path fill="rgb(233,211,206)" stroke="rgb(233,211,206)" stroke-width="1" opacity="1" d="M 286.5 183 L 287.5 185 L 286.5 183 Z " /><path fill="rgb(233,211,206)" stroke="rgb(233,211,206)" stroke-width="1" opacity="1" d="M 426.5 185 L 428 185.5 L 424.5 188 L 426.5 185 Z " /><path fill="rgb(233,211,206)" stroke="rgb(233,211,206)" stroke-width="1" opacity="1" d="M 420.5 187 L 423 188.5 L 421.5 189 L 420.5 187 Z " /><path fill="rgb(233,211,206)" stroke="rgb(233,211,206)" stroke-width="1" opacity="1" d="M 292.5 192 L 293.5 194 L 292.5 192 Z " /><path fill="rgb(233,211,206)" stroke="rgb(233,211,206)" stroke-width="1" opacity="1" d="M 295.5 196 L 303.5 205 L 295.5 196 Z " /><path fill="rgb(233,211,206)" stroke="rgb(233,211,206)" stroke-width="1" opacity="1" d="M 290.5 197 L 294.5 202 L 290.5 197 Z " /><path fill="rgb(233,211,206)" stroke="rgb(233,211,206)" stroke-width="1" opacity="1" d="M 288.5 200 L 287.5 202 L 288.5 200 Z " /><path fill="rgb(233,211,206)" stroke="rgb(233,211,206)" stroke-width="1" opacity="1" d="M 286.5 203 L 284.5 206 L 286.5 203 Z " /><path fill="rgb(233,211,206)" stroke="rgb(233,211,206)" stroke-width="1" opacity="1" d="M 281.5 209 L 270.5 221 L 281.5 209 Z " /><path fill="rgb(233,211,206)" stroke="rgb(233,211,206)" stroke-width="1" opacity="1" d="M 265.5 224 L 264.5 226 L 265.5 224 Z " /><path fill="rgb(233,211,206)" stroke="rgb(233,211,206)" stroke-width="1" opacity="1" d="M 261.5 227 L 260.5 229 L 261.5 227 Z " /><path fill="rgb(233,211,206)" stroke="rgb(233,211,206)" stroke-width="1" opacity="1" d="M 438.5 232 L 439 234.5 L 438 234.5 L 438.5 232 Z " /><path fill="rgb(233,211,206)" stroke="rgb(233,211,206)" stroke-width="1" opacity="1" d="M 439.5 238 L 440 240.5 L 439 240.5 L 439.5 238 Z " /><path fill="rgb(233,211,206)" stroke="rgb(233,211,206)" stroke-width="1" opacity="1" d="M 440.5 245 L 441 247.5 L 440 247.5 L 440.5 245 Z " /><path fill="rgb(233,211,206)" stroke="rgb(233,211,206)" stroke-width="1" opacity="1" d="M 227.5 248 L 226.5 250 L 227.5 248 Z " /><path fill="rgb(233,211,206)" stroke="rgb(233,211,206)" stroke-width="1" opacity="1" d="M 224.5 250 L 223.5 252 L 224.5 250 Z " /><path fill="rgb(233,211,206)" stroke="rgb(233,211,206)" stroke-width="1" opacity="1" d="M 441.5 252 L 442 255.5 L 441 255.5 L 441.5 252 Z " /><path fill="rgb(233,211,206)" stroke="rgb(233,211,206)" stroke-width="1" opacity="1" d="M 220.5 253 L 219.5 255 L 220.5 253 Z " /><path fill="rgb(233,211,206)" stroke="rgb(233,211,206)" stroke-width="1" opacity="1" d="M 216.5 256 L 214.5 259 L 216.5 256 Z " /><path fill="rgb(233,211,206)" stroke="rgb(233,211,206)" stroke-width="1" opacity="1" d="M 442.5 261 L 443 266.5 L 442 266.5 L 442.5 261 Z " /><path fill="rgb(233,211,206)" stroke="rgb(233,211,206)" stroke-width="1" opacity="1" d="M 209.5 262 L 200.5 272 L 209.5 262 Z " /><path fill="rgb(233,211,206)" stroke="rgb(233,211,206)" stroke-width="1" opacity="1" d="M 198.5 274 L 195.5 278 L 198.5 274 Z " /><path fill="rgb(233,211,206)" stroke="rgb(233,211,206)" stroke-width="1" opacity="1" d="M 194.5 279 L 191.5 283 L 194.5 279 Z " /><path fill="rgb(233,211,206)" stroke="rgb(233,211,206)" stroke-width="1" opacity="1" d="M 443.5 281 L 444 283.5 L 443 283.5 L 443.5 281 Z " /><path fill="rgb(233,211,206)" stroke="rgb(233,211,206)" stroke-width="1" opacity="1" d="M 190.5 284 L 189.5 286 L 190.5 284 Z " /><path fill="rgb(233,211,206)" stroke="rgb(233,211,206)" stroke-width="1" opacity="1" d="M 188.5 287 L 187.5 289 L 188.5 287 Z " /><path fill="rgb(233,211,206)" stroke="rgb(233,211,206)" stroke-width="1" opacity="1" d="M 186.5 290 L 185.5 292 L 186.5 290 Z " /><path fill="rgb(233,211,206)" stroke="rgb(233,211,206)" stroke-width="1" opacity="1" d="M 184.5 293 L 183.5 295 L 184.5 293 Z " /><path fill="rgb(233,211,206)" stroke="rgb(233,211,206)" stroke-width="1" opacity="1" d="M 442.5 296 L 443 299.5 L 442 299.5 L 442.5 296 Z " /><path fill="rgb(233,211,206)" stroke="rgb(233,211,206)" stroke-width="1" opacity="1" d="M 388.5 299 L 391 300.5 L 389.5 300 L 388.5 299 Z " /><path fill="rgb(233,211,206)" stroke="rgb(233,211,206)" stroke-width="1" opacity="1" d="M 180.5 300 L 180 301.5 L 177.5 307 L 177 305.5 L 180.5 300 Z " /><path fill="rgb(233,211,206)" stroke="rgb(233,211,206)" stroke-width="1" opacity="1" d="M 386.5 301 L 387 305.5 L 386 305.5 L 386.5 301 Z " /><path fill="rgb(233,211,206)" stroke="rgb(233,211,206)" stroke-width="1" opacity="1" d="M 441.5 304 L 442 306.5 L 441 306.5 L 441.5 304 Z " /><path fill="rgb(233,211,206)" stroke="rgb(233,211,206)" stroke-width="1" opacity="1" d="M 390.5 306 L 391 311.5 L 390 311.5 L 390.5 306 Z " /><path fill="rgb(233,211,206)" stroke="rgb(233,211,206)" stroke-width="1" opacity="1" d="M 316.5 313 Q 318.8 313.8 318 317.5 L 317 317.5 L 316.5 313 Z " /><path fill="rgb(233,211,206)" stroke="rgb(233,211,206)" stroke-width="1" opacity="1" d="M 385.5 314 L 386 320.5 L 385 320.5 L 385.5 314 Z " /><path fill="rgb(233,211,206)" stroke="rgb(233,211,206)" stroke-width="1" opacity="1" d="M 313.5 318 L 314 321.5 L 313 321.5 L 313.5 318 Z " /><path fill="rgb(233,211,206)" stroke="rgb(233,211,206)" stroke-width="1" opacity="1" d="M 389.5 320 L 390 326.5 L 389 326.5 L 389.5 320 Z " /><path fill="rgb(233,211,206)" stroke="rgb(233,211,206)" stroke-width="1" opacity="1" d="M 294.5 322 L 295.5 324 L 294.5 322 Z " /><path fill="rgb(233,211,206)" stroke="rgb(233,211,206)" stroke-width="1" opacity="1" d="M 318.5 324 L 319 327.5 L 318 327.5 L 318.5 324 Z " /><path fill="rgb(233,211,206)" stroke="rgb(233,211,206)" stroke-width="1" opacity="1" d="M 298.5 325 L 299.5 327 L 298.5 325 Z " /><path fill="rgb(233,211,206)" stroke="rgb(233,211,206)" stroke-width="1" opacity="1" d="M 292.5 326 L 293.5 328 L 292.5 326 Z " /><path fill="rgb(233,211,206)" stroke="rgb(233,211,206)" stroke-width="1" opacity="1" d="M 302.5 328 L 306.5 333 L 302.5 328 Z " /><path fill="rgb(233,211,206)" stroke="rgb(233,211,206)" stroke-width="1" opacity="1" d="M 314.5 328 L 315 331.5 L 314 331.5 L 314.5 328 Z " /><path fill="rgb(233,211,206)" stroke="rgb(233,211,206)" stroke-width="1" opacity="1" d="M 107.5 329 L 110 329.5 L 107.5 330 L 107.5 329 Z " /><path fill="rgb(233,211,206)" stroke="rgb(233,211,206)" stroke-width="1" opacity="1" d="M 116.5 329 L 119 329.5 L 116.5 330 L 116.5 329 Z " /><path fill="rgb(233,211,206)" stroke="rgb(233,211,206)" stroke-width="1" opacity="1" d="M 296.5 329 L 297.5 331 L 296.5 329 Z " /><path fill="rgb(233,211,206)" stroke="rgb(233,211,206)" stroke-width="1" opacity="1" d="M 384.5 329 L 385 334.5 L 384 334.5 L 384.5 329 Z " /><path fill="rgb(233,211,206)" stroke="rgb(233,211,206)" stroke-width="1" opacity="1" d="M 121.5 330 L 122.5 332 L 121.5 330 Z " /><path fill="rgb(233,211,206)" stroke="rgb(233,211,206)" stroke-width="1" opacity="1" d="M 301.5 333 L 313.5 346 L 301.5 333 Z " /><path fill="rgb(233,211,206)" stroke="rgb(233,211,206)" stroke-width="1" opacity="1" d="M 319.5 334 L 320 337.5 L 319 337.5 L 319.5 334 Z " /><path fill="rgb(233,211,206)" stroke="rgb(233,211,206)" stroke-width="1" opacity="1" d="M 93.5 335 L 92.5 337 L 93.5 335 Z " /><path fill="rgb(233,211,206)" stroke="rgb(233,211,206)" stroke-width="1" opacity="1" d="M 388.5 335 L 389 340.5 L 388 340.5 L 388.5 335 Z " /><path fill="rgb(233,211,206)" stroke="rgb(233,211,206)" stroke-width="1" opacity="1" d="M 90.5 337 L 88.5 340 L 90.5 337 Z " /><path fill="rgb(233,211,206)" stroke="rgb(233,211,206)" stroke-width="1" opacity="1" d="M 315.5 338 L 316 340.5 L 315 340.5 L 315.5 338 Z " /><path fill="rgb(233,211,206)" stroke="rgb(233,211,206)" stroke-width="1" opacity="1" d="M 86.5 340 L 78.5 349 L 86.5 340 Z " /><path fill="rgb(233,211,206)" stroke="rgb(233,211,206)" stroke-width="1" opacity="1" d="M 127.5 342 L 128 344.5 L 127 344.5 L 127.5 342 Z " /><path fill="rgb(233,211,206)" stroke="rgb(233,211,206)" stroke-width="1" opacity="1" d="M 164.5 344 L 165 346.5 L 164 346.5 L 164.5 344 Z " /><path fill="rgb(233,211,206)" stroke="rgb(233,211,206)" stroke-width="1" opacity="1" d="M 320.5 344 L 321 346.5 L 320 346.5 L 320.5 344 Z " /><path fill="rgb(233,211,206)" stroke="rgb(233,211,206)" stroke-width="1" opacity="1" d="M 383.5 344 L 384 349.5 L 383 349.5 L 383.5 344 Z " /><path fill="rgb(233,211,206)" stroke="rgb(233,211,206)" stroke-width="1" opacity="1" d="M 163.5 349 L 164 351.5 L 163 351.5 L 163.5 349 Z " /><path fill="rgb(233,211,206)" stroke="rgb(233,211,206)" stroke-width="1" opacity="1" d="M 77.5 350 L 75.5 353 L 77.5 350 Z " /><path fill="rgb(233,211,206)" stroke="rgb(233,211,206)" stroke-width="1" opacity="1" d="M 387.5 350 L 388 355.5 L 387 355.5 L 387.5 350 Z " /><path fill="rgb(233,211,206)" stroke="rgb(233,211,206)" stroke-width="1" opacity="1" d="M 321.5 352 L 322 355.5 L 321 355.5 L 321.5 352 Z " /><path fill="rgb(233,211,206)" stroke="rgb(233,211,206)" stroke-width="1" opacity="1" d="M 74.5 354 L 73.5 356 L 74.5 354 Z " /><path fill="rgb(233,211,206)" stroke="rgb(233,211,206)" stroke-width="1" opacity="1" d="M 162.5 355 L 163 358.5 L 162 358.5 L 162.5 355 Z " /><path fill="rgb(233,211,206)" stroke="rgb(233,211,206)" stroke-width="1" opacity="1" d="M 317.5 356 L 318 359.5 L 317 359.5 L 317.5 356 Z " /><path fill="rgb(233,211,206)" stroke="rgb(233,211,206)" stroke-width="1" opacity="1" d="M 72.5 357 L 71.5 359 L 72.5 357 Z " /><path fill="rgb(233,211,206)" stroke="rgb(233,211,206)" stroke-width="1" opacity="1" d="M 382.5 358 L 383 364.5 L 382 364.5 L 382.5 358 Z " /><path fill="rgb(233,211,206)" stroke="rgb(233,211,206)" stroke-width="1" opacity="1" d="M 322.5 361 L 323 363.5 L 322 363.5 L 322.5 361 Z " /><path fill="rgb(233,211,206)" stroke="rgb(233,211,206)" stroke-width="1" opacity="1" d="M 161.5 363 L 162 367.5 L 161 367.5 L 161.5 363 Z " /><path fill="rgb(233,211,206)" stroke="rgb(233,211,206)" stroke-width="1" opacity="1" d="M 97.5 364 L 116.5 364 L 119 365.5 Q 114.2 373.7 113.5 386 L 113 383 Q 110.6 381.3 104.5 382 L 87.5 386 Q 77.7 390.7 71 398.5 L 62.5 410 L 61 402.5 L 61 389.5 L 63.5 378 L 64.5 379 L 67.5 376 L 81.5 368 L 97.5 364 Z " /><path fill="rgb(233,211,206)" stroke="rgb(233,211,206)" stroke-width="1" opacity="1" d="M 318.5 364 L 319 367.5 L 318 367.5 L 318.5 364 Z " /><path fill="rgb(233,211,206)" stroke="rgb(233,211,206)" stroke-width="1" opacity="1" d="M 386.5 364 L 387 370.5 L 386 370.5 L 386.5 364 Z " /><path fill="rgb(233,211,206)" stroke="rgb(233,211,206)" stroke-width="1" opacity="1" d="M 323.5 369 L 324 372.5 L 323 372.5 L 323.5 369 Z " /><path fill="rgb(233,211,206)" stroke="rgb(233,211,206)" stroke-width="1" opacity="1" d="M 319.5 373 L 320 375.5 L 319 375.5 L 319.5 373 Z " /><path fill="rgb(233,211,206)" stroke="rgb(233,211,206)" stroke-width="1" opacity="1" d="M 381.5 373 L 382 378.5 L 381 378.5 L 381.5 373 Z " /><path fill="rgb(233,211,206)" stroke="rgb(233,211,206)" stroke-width="1" opacity="1" d="M 160.5 375 L 161 393.5 L 160 393.5 L 160.5 375 Z " /><path fill="rgb(233,211,206)" stroke="rgb(233,211,206)" stroke-width="1" opacity="1" d="M 324.5 377 L 325 379.5 L 324 379.5 L 324.5 377 Z " /><path fill="rgb(233,211,206)" stroke="rgb(233,211,206)" stroke-width="1" opacity="1" d="M 385.5 379 L 386 384.5 L 385 384.5 L 385.5 379 Z " /><path fill="rgb(233,211,206)" stroke="rgb(233,211,206)" stroke-width="1" opacity="1" d="M 320.5 381 L 321 383.5 L 320 383.5 L 320.5 381 Z " /><path fill="rgb(233,211,206)" stroke="rgb(233,211,206)" stroke-width="1" opacity="1" d="M 325.5 385 L 326 387.5 L 325 387.5 L 325.5 385 Z " /><path fill="rgb(233,211,206)" stroke="rgb(233,211,206)" stroke-width="1" opacity="1" d="M 408.5 387 L 407.5 389 L 408.5 387 Z " /><path fill="rgb(233,211,206)" stroke="rgb(233,211,206)" stroke-width="1" opacity="1" d="M 321.5 388 L 322 390.5 L 321 390.5 L 321.5 388 Z " /><path fill="rgb(233,211,206)" stroke="rgb(233,211,206)" stroke-width="1" opacity="1" d="M 380.5 388 L 381 393.5 L 380 393.5 L 380.5 388 Z " /><path fill="rgb(233,211,206)" stroke="rgb(233,211,206)" stroke-width="1" opacity="1" d="M 406.5 390 L 405.5 392 L 406.5 390 Z " /><path fill="rgb(233,211,206)" stroke="rgb(233,211,206)" stroke-width="1" opacity="1" d="M 326.5 392 L 327 394.5 L 326 394.5 L 326.5 392 Z " /><path fill="rgb(233,211,206)" stroke="rgb(233,211,206)" stroke-width="1" opacity="1" d="M 404.5 393 L 403.5 395 L 404.5 393 Z " /><path fill="rgb(233,211,206)" stroke="rgb(233,211,206)" stroke-width="1" opacity="1" d="M 384.5 394 L 385 399.5 L 384 399.5 L 384.5 394 Z " /><path fill="rgb(233,211,206)" stroke="rgb(233,211,206)" stroke-width="1" opacity="1" d="M 322.5 395 L 323 397.5 L 322 397.5 L 322.5 395 Z " /><path fill="rgb(233,211,206)" stroke="rgb(233,211,206)" stroke-width="1" opacity="1" d="M 408.5 395 L 407.5 397 L 408.5 395 Z " /><path fill="rgb(233,211,206)" stroke="rgb(233,211,206)" stroke-width="1" opacity="1" d="M 401.5 397 L 399.5 400 L 401.5 397 Z " /><path fill="rgb(233,211,206)" stroke="rgb(233,211,206)" stroke-width="1" opacity="1" d="M 327.5 399 L 328 401.5 L 327 401.5 L 327.5 399 Z " /><path fill="rgb(233,211,206)" stroke="rgb(233,211,206)" stroke-width="1" opacity="1" d="M 405.5 399 L 404.5 401 L 405.5 399 Z " /><path fill="rgb(233,211,206)" stroke="rgb(233,211,206)" stroke-width="1" opacity="1" d="M 161.5 401 L 162 405.5 L 161 405.5 L 161.5 401 Z " /><path fill="rgb(233,211,206)" stroke="rgb(233,211,206)" stroke-width="1" opacity="1" d="M 323.5 402 L 324 404.5 L 323 404.5 L 323.5 402 Z " /><path fill="rgb(233,211,206)" stroke="rgb(233,211,206)" stroke-width="1" opacity="1" d="M 379.5 402 L 380 408.5 L 379 408.5 L 379.5 402 Z " /><path fill="rgb(233,211,206)" stroke="rgb(233,211,206)" stroke-width="1" opacity="1" d="M 397.5 402 L 392.5 408 L 397.5 402 Z " /><path fill="rgb(233,211,206)" stroke="rgb(233,211,206)" stroke-width="1" opacity="1" d="M 113.5 403 L 114 405.5 L 113 405.5 L 113.5 403 Z " /><path fill="rgb(233,211,206)" stroke="rgb(233,211,206)" stroke-width="1" opacity="1" d="M 402.5 403 L 400.5 406 L 402.5 403 Z " /><path fill="rgb(233,211,206)" stroke="rgb(233,211,206)" stroke-width="1" opacity="1" d="M 328.5 405 L 329 407.5 L 328 407.5 L 328.5 405 Z " /><path fill="rgb(233,211,206)" stroke="rgb(233,211,206)" stroke-width="1" opacity="1" d="M 383.5 408 L 384 414.5 L 383 414.5 L 383.5 408 Z " /><path fill="rgb(233,211,206)" stroke="rgb(233,211,206)" stroke-width="1" opacity="1" d="M 390.5 409 L 385.5 415 L 390.5 409 Z " /><path fill="rgb(233,211,206)" stroke="rgb(233,211,206)" stroke-width="1" opacity="1" d="M 162.5 410 L 163 412.5 L 162 412.5 L 162.5 410 Z " /><path fill="rgb(233,211,206)" stroke="rgb(233,211,206)" stroke-width="1" opacity="1" d="M 329.5 412 L 330 414.5 L 329 414.5 L 329.5 412 Z " /><path fill="rgb(233,211,206)" stroke="rgb(233,211,206)" stroke-width="1" opacity="1" d="M 113.5 414 Q 117.7 412.7 116 417.5 L 123 431.5 Q 121.3 429.9 119.5 433 L 109 442.5 L 103 453.5 L 99.5 469 L 86 456.5 L 80 449.5 L 84 451.5 L 89 438.5 L 102.5 422 L 113.5 414 Z " /><path fill="rgb(233,211,206)" stroke="rgb(233,211,206)" stroke-width="1" opacity="1" d="M 325.5 415 L 326 417.5 L 325 417.5 L 325.5 415 Z " /><path fill="rgb(233,211,206)" stroke="rgb(233,211,206)" stroke-width="1" opacity="1" d="M 378.5 417 L 379 422.5 L 378 422.5 L 378.5 417 Z " /><path fill="rgb(233,211,206)" stroke="rgb(233,211,206)" stroke-width="1" opacity="1" d="M 388.5 417 L 386.5 420 L 388.5 417 Z " /><path fill="rgb(233,211,206)" stroke="rgb(233,211,206)" stroke-width="1" opacity="1" d="M 330.5 418 L 331 420.5 L 330 420.5 L 330.5 418 Z " /><path fill="rgb(233,211,206)" stroke="rgb(233,211,206)" stroke-width="1" opacity="1" d="M 384.5 420 L 383.5 422 L 384.5 420 Z " /><path fill="rgb(233,211,206)" stroke="rgb(233,211,206)" stroke-width="1" opacity="1" d="M 326.5 421 L 327 423.5 L 326 423.5 L 326.5 421 Z " /><path fill="rgb(233,211,206)" stroke="rgb(233,211,206)" stroke-width="1" opacity="1" d="M 382.5 423 L 383 428.5 L 382 428.5 L 382.5 423 Z " /><path fill="rgb(233,211,206)" stroke="rgb(233,211,206)" stroke-width="1" opacity="1" d="M 165.5 426 L 166 428.5 L 165 428.5 L 165.5 426 Z " /><path fill="rgb(233,211,206)" stroke="rgb(233,211,206)" stroke-width="1" opacity="1" d="M 69.5 430 L 73 436.5 L 71 435.5 L 69.5 430 Z " /><path fill="rgb(233,211,206)" stroke="rgb(233,211,206)" stroke-width="1" opacity="1" d="M 322.5 430 L 321.5 432 L 322.5 430 Z " /><path fill="rgb(233,211,206)" stroke="rgb(233,211,206)" stroke-width="1" opacity="1" d="M 326.5 432 L 325.5 434 L 326.5 432 Z " /><path fill="rgb(233,211,206)" stroke="rgb(233,211,206)" stroke-width="1" opacity="1" d="M 328.5 432 L 329 434.5 L 328 434.5 L 328.5 432 Z " /><path fill="rgb(233,211,206)" stroke="rgb(233,211,206)" stroke-width="1" opacity="1" d="M 377.5 432 L 378 437.5 L 377 437.5 L 377.5 432 Z " /><path fill="rgb(233,211,206)" stroke="rgb(233,211,206)" stroke-width="1" opacity="1" d="M 319.5 434 L 318.5 436 L 319.5 434 Z " /><path fill="rgb(233,211,206)" stroke="rgb(233,211,206)" stroke-width="1" opacity="1" d="M 323.5 436 L 322.5 438 L 323.5 436 Z " /><path fill="rgb(233,211,206)" stroke="rgb(233,211,206)" stroke-width="1" opacity="1" d="M 126.5 437 L 127.5 439 L 126.5 437 Z " /><path fill="rgb(233,211,206)" stroke="rgb(233,211,206)" stroke-width="1" opacity="1" d="M 381.5 438 L 382 443.5 L 381 443.5 L 381.5 438 Z " /><path fill="rgb(233,211,206)" stroke="rgb(233,211,206)" stroke-width="1" opacity="1" d="M 74.5 440 L 77 443.5 L 75 442.5 L 74.5 440 Z " /><path fill="rgb(233,211,206)" stroke="rgb(233,211,206)" stroke-width="1" opacity="1" d="M 314.5 440 L 306.5 449 L 314.5 440 Z " /><path fill="rgb(233,211,206)" stroke="rgb(233,211,206)" stroke-width="1" opacity="1" d="M 319.5 441 L 307.5 454 L 319.5 441 Z " /><path fill="rgb(233,211,206)" stroke="rgb(233,211,206)" stroke-width="1" opacity="1" d="M 131.5 443 L 133.5 446 L 131.5 443 Z " /><path fill="rgb(233,211,206)" stroke="rgb(233,211,206)" stroke-width="1" opacity="1" d="M 77.5 445 L 79.5 448 L 77.5 445 Z " /><path fill="rgb(233,211,206)" stroke="rgb(233,211,206)" stroke-width="1" opacity="1" d="M 376.5 446 L 377 452.5 L 376 452.5 L 376.5 446 Z " /><path fill="rgb(233,211,206)" stroke="rgb(233,211,206)" stroke-width="1" opacity="1" d="M 137.5 448 L 138.5 450 L 137.5 448 Z " /><path fill="rgb(233,211,206)" stroke="rgb(233,211,206)" stroke-width="1" opacity="1" d="M 141.5 451 Q 148.9 458.1 161 460.5 L 159 461 Q 154 470.2 156 487.5 L 159 493.5 L 155.5 494 L 137 489 L 137 471.5 L 142 452.5 L 141.5 451 Z " /><path fill="rgb(233,211,206)" stroke="rgb(233,211,206)" stroke-width="1" opacity="1" d="M 301.5 452 L 299.5 455 L 301.5 452 Z " /><path fill="rgb(233,211,206)" stroke="rgb(233,211,206)" stroke-width="1" opacity="1" d="M 380.5 452 L 381 458.5 L 380 458.5 L 380.5 452 Z " /><path fill="rgb(233,211,206)" stroke="rgb(233,211,206)" stroke-width="1" opacity="1" d="M 176.5 455 L 177.5 457 L 176.5 455 Z " /><path fill="rgb(233,211,206)" stroke="rgb(233,211,206)" stroke-width="1" opacity="1" d="M 296.5 456 L 296 457.5 L 297 460.5 L 295 459.5 L 296.5 456 Z " /><path fill="rgb(233,211,206)" stroke="rgb(233,211,206)" stroke-width="1" opacity="1" d="M 304.5 456 L 333 456.5 L 304.5 457 L 304.5 456 Z " /><path fill="rgb(233,211,206)" stroke="rgb(233,211,206)" stroke-width="1" opacity="1" d="M 179.5 460 L 180.5 462 L 179.5 460 Z " /><path fill="rgb(233,211,206)" stroke="rgb(233,211,206)" stroke-width="1" opacity="1" d="M 375.5 461 L 377 469.5 L 375 468.5 L 375.5 461 Z " /><path fill="rgb(233,211,206)" stroke="rgb(233,211,206)" stroke-width="1" opacity="1" d="M 168.5 462 L 171 462.5 L 168.5 463 L 168.5 462 Z " /><path fill="rgb(233,211,206)" stroke="rgb(233,211,206)" stroke-width="1" opacity="1" d="M 181.5 463 L 182.5 465 L 181.5 463 Z " /><path fill="rgb(233,211,206)" stroke="rgb(233,211,206)" stroke-width="1" opacity="1" d="M 183.5 466 L 185.5 469 L 183.5 466 Z " /><path fill="rgb(233,211,206)" stroke="rgb(233,211,206)" stroke-width="1" opacity="1" d="M 389.5 466 L 395 466.5 L 389.5 467 L 389.5 466 Z " /><path fill="rgb(233,211,206)" stroke="rgb(233,211,206)" stroke-width="1" opacity="1" d="M 179.5 468 L 180.5 470 L 179.5 468 Z " /><path fill="rgb(233,211,206)" stroke="rgb(233,211,206)" stroke-width="1" opacity="1" d="M 101.5 469 L 103.5 472 L 101.5 469 Z " /><path fill="rgb(233,211,206)" stroke="rgb(233,211,206)" stroke-width="1" opacity="1" d="M 186.5 470 L 189.5 474 L 186.5 470 Z " /><path fill="rgb(233,211,206)" stroke="rgb(233,211,206)" stroke-width="1" opacity="1" d="M 383.5 470 L 389 470.5 L 383.5 471 L 383.5 470 Z " /><path fill="rgb(233,211,206)" stroke="rgb(233,211,206)" stroke-width="1" opacity="1" d="M 420.5 470 L 427 470.5 L 420.5 471 L 420.5 470 Z " /><path fill="rgb(233,211,206)" stroke="rgb(233,211,206)" stroke-width="1" opacity="1" d="M 395.5 471 L 398 472.5 L 396.5 472 L 395.5 471 Z " /><path fill="rgb(233,211,206)" stroke="rgb(233,211,206)" stroke-width="1" opacity="1" d="M 105.5 472 L 106.5 474 L 105.5 472 Z " /><path fill="rgb(233,211,206)" stroke="rgb(233,211,206)" stroke-width="1" opacity="1" d="M 182.5 472 L 183.5 474 L 182.5 472 Z " /><path fill="rgb(233,211,206)" stroke="rgb(233,211,206)" stroke-width="1" opacity="1" d="M 435.5 472 L 436.5 474 L 435.5 472 Z " /><path fill="rgb(233,211,206)" stroke="rgb(233,211,206)" stroke-width="1" opacity="1" d="M 108.5 474 L 109.5 476 L 108.5 474 Z " /><path fill="rgb(233,211,206)" stroke="rgb(233,211,206)" stroke-width="1" opacity="1" d="M 191.5 476 L 199.5 485 L 191.5 476 Z " /><path fill="rgb(233,211,206)" stroke="rgb(233,211,206)" stroke-width="1" opacity="1" d="M 186.5 477 L 199.5 491 L 186.5 477 Z " /><path fill="rgb(233,211,206)" stroke="rgb(233,211,206)" stroke-width="1" opacity="1" d="M 438.5 477 L 439 479.5 L 438 479.5 L 438.5 477 Z " /><path fill="rgb(233,211,206)" stroke="rgb(233,211,206)" stroke-width="1" opacity="1" d="M 115.5 478 L 116.5 480 L 115.5 478 Z " /><path fill="rgb(233,211,206)" stroke="rgb(233,211,206)" stroke-width="1" opacity="1" d="M 405.5 478 L 406 481.5 L 405 481.5 L 405.5 478 Z " /><path fill="rgb(233,211,206)" stroke="rgb(233,211,206)" stroke-width="1" opacity="1" d="M 401.5 481 L 402 484.5 L 401 484.5 L 401.5 481 Z " /><path fill="rgb(233,211,206)" stroke="rgb(233,211,206)" stroke-width="1" opacity="1" d="M 405.5 484 L 406 488.5 L 405 488.5 L 405.5 484 Z " /><path fill="rgb(233,211,206)" stroke="rgb(233,211,206)" stroke-width="1" opacity="1" d="M 202.5 486 L 206.5 491 L 202.5 486 Z " /><path fill="rgb(233,211,206)" stroke="rgb(233,211,206)" stroke-width="1" opacity="1" d="M 438.5 486 L 439 489.5 L 438 489.5 L 438.5 486 Z " /><path fill="rgb(233,211,206)" stroke="rgb(233,211,206)" stroke-width="1" opacity="1" d="M 208.5 491 L 209.5 493 L 208.5 491 Z " /><path fill="rgb(233,211,206)" stroke="rgb(233,211,206)" stroke-width="1" opacity="1" d="M 202.5 492 L 204.5 495 L 202.5 492 Z " /><path fill="rgb(233,211,206)" stroke="rgb(233,211,206)" stroke-width="1" opacity="1" d="M 345.5 492 L 346.5 494 L 345.5 492 Z " /><path fill="rgb(233,211,206)" stroke="rgb(233,211,206)" stroke-width="1" opacity="1" d="M 437.5 492 L 438 493.5 L 435.5 495 L 435.5 494 Q 438 494.7 437.5 492 Z " /><path fill="rgb(233,211,206)" stroke="rgb(233,211,206)" stroke-width="1" opacity="1" d="M 160.5 494 L 163 494.5 L 160.5 495 L 160.5 494 Z " /><path fill="rgb(233,211,206)" stroke="rgb(233,211,206)" stroke-width="1" opacity="1" d="M 166.5 495 L 170 495.5 L 166.5 496 L 166.5 495 Z " /><path fill="rgb(233,211,206)" stroke="rgb(233,211,206)" stroke-width="1" opacity="1" d="M 206.5 495 L 207.5 497 L 206.5 495 Z " /><path fill="rgb(233,211,206)" stroke="rgb(233,211,206)" stroke-width="1" opacity="1" d="M 174.5 496 L 180 496.5 L 174.5 497 L 174.5 496 Z " /><path fill="rgb(233,211,206)" stroke="rgb(233,211,206)" stroke-width="1" opacity="1" d="M 403.5 496 L 408 497.5 L 404.5 498 L 403.5 496 Z " /><path fill="rgb(233,211,206)" stroke="rgb(233,211,206)" stroke-width="1" opacity="1" d="M 425.5 496 L 428 496.5 L 425.5 497 L 425.5 496 Z " /><path fill="rgb(233,211,206)" stroke="rgb(233,211,206)" stroke-width="1" opacity="1" d="M 222.5 497 L 228 497.5 L 222.5 498 L 222.5 497 Z " /><path fill="rgb(233,211,206)" stroke="rgb(233,211,206)" stroke-width="1" opacity="1" d="M 366.5 497 L 371 497.5 L 366.5 498 L 366.5 497 Z " /><path fill="rgb(233,211,206)" stroke="rgb(233,211,206)" stroke-width="1" opacity="1" d="M 378.5 497 L 383 497.5 L 378.5 498 L 378.5 497 Z " /><path fill="rgb(233,211,206)" stroke="rgb(233,211,206)" stroke-width="1" opacity="1" d="M 416.5 497 L 421 497.5 L 416.5 498 L 416.5 497 Z " /><path fill="rgb(234,234,233)" stroke="rgb(234,234,233)" stroke-width="1" opacity="1" d="M 371.5 18 L 372.5 20 L 371.5 18 Z " /><path fill="rgb(234,234,233)" stroke="rgb(234,234,233)" stroke-width="1" opacity="1" d="M 377.5 25 L 378.5 27 L 377.5 25 Z " /><path fill="rgb(234,234,233)" stroke="rgb(234,234,233)" stroke-width="1" opacity="1" d="M 383.5 32 L 384.5 34 L 383.5 32 Z " /><path fill="rgb(234,234,233)" stroke="rgb(234,234,233)" stroke-width="1" opacity="1" d="M 389.5 39 L 390.5 41 L 389.5 39 Z " /><path fill="rgb(234,234,233)" stroke="rgb(234,234,233)" stroke-width="1" opacity="1" d="M 394.5 45 L 396.5 48 L 394.5 45 Z " /><path fill="rgb(234,234,233)" stroke="rgb(234,234,233)" stroke-width="1" opacity="1" d="M 403.5 54 L 404.5 56 L 403.5 54 Z " /><path fill="rgb(234,234,233)" stroke="rgb(234,234,233)" stroke-width="1" opacity="1" d="M 409.5 59 L 410.5 61 L 409.5 59 Z " /><path fill="rgb(234,234,233)" stroke="rgb(234,234,233)" stroke-width="1" opacity="1" d="M 416.5 65 L 419.5 69 L 416.5 65 Z " /><path fill="rgb(234,234,233)" stroke="rgb(234,234,233)" stroke-width="1" opacity="1" d="M 318.5 72 L 317.5 74 L 318.5 72 Z " /><path fill="rgb(234,234,233)" stroke="rgb(234,234,233)" stroke-width="1" opacity="1" d="M 312.5 77 L 310.5 80 L 312.5 77 Z " /><path fill="rgb(234,234,233)" stroke="rgb(234,234,233)" stroke-width="1" opacity="1" d="M 399.5 80 L 398.5 82 L 399.5 80 Z " /><path fill="rgb(234,234,233)" stroke="rgb(234,234,233)" stroke-width="1" opacity="1" d="M 433.5 82 L 434.5 84 L 433.5 82 Z " /><path fill="rgb(234,234,233)" stroke="rgb(234,234,233)" stroke-width="1" opacity="1" d="M 294.5 95 L 293.5 97 L 294.5 95 Z " /><path fill="rgb(234,234,233)" stroke="rgb(234,234,233)" stroke-width="1" opacity="1" d="M 432.5 95 L 430.5 98 L 432.5 95 Z " /><path fill="rgb(234,234,233)" stroke="rgb(234,234,233)" stroke-width="1" opacity="1" d="M 437.5 97 L 435.5 100 L 437.5 97 Z " /><path fill="rgb(234,234,233)" stroke="rgb(234,234,233)" stroke-width="1" opacity="1" d="M 423.5 105 L 421.5 108 L 423.5 105 Z " /><path fill="rgb(234,234,233)" stroke="rgb(234,234,233)" stroke-width="1" opacity="1" d="M 428.5 107 L 426.5 110 L 428.5 107 Z " /><path fill="rgb(234,234,233)" stroke="rgb(234,234,233)" stroke-width="1" opacity="1" d="M 374.5 119 L 375 121.5 L 374 121.5 L 374.5 119 Z " /><path fill="rgb(234,234,233)" stroke="rgb(234,234,233)" stroke-width="1" opacity="1" d="M 392.5 123 L 393 125.5 L 392 125.5 L 392.5 123 Z " /><path fill="rgb(234,234,233)" stroke="rgb(234,234,233)" stroke-width="1" opacity="1" d="M 241.5 124 L 251.5 135 L 241.5 124 Z " /><path fill="rgb(234,234,233)" stroke="rgb(234,234,233)" stroke-width="1" opacity="1" d="M 335.5 127 L 336.5 129 L 335.5 127 Z " /><path fill="rgb(234,234,233)" stroke="rgb(234,234,233)" stroke-width="1" opacity="1" d="M 392.5 127 L 393.5 129 L 392.5 127 Z " /><path fill="rgb(234,234,233)" stroke="rgb(234,234,233)" stroke-width="1" opacity="1" d="M 342.5 162 L 341.5 164 L 342.5 162 Z " /><path fill="rgb(234,234,233)" stroke="rgb(234,234,233)" stroke-width="1" opacity="1" d="M 382.5 162 L 378.5 167 L 382.5 162 Z " /><path fill="rgb(234,234,233)" stroke="rgb(234,234,233)" stroke-width="1" opacity="1" d="M 366.5 170 L 361.5 176 L 366.5 170 Z " /><path fill="rgb(234,234,233)" stroke="rgb(234,234,233)" stroke-width="1" opacity="1" d="M 429.5 176 L 427.5 179 L 429.5 176 Z " /><path fill="rgb(234,234,233)" stroke="rgb(234,234,233)" stroke-width="1" opacity="1" d="M 366.5 177 L 362.5 182 L 366.5 177 Z " /><path fill="rgb(234,234,233)" stroke="rgb(234,234,233)" stroke-width="1" opacity="1" d="M 294.5 194 L 295.5 196 L 294.5 194 Z " /><path fill="rgb(234,234,233)" stroke="rgb(234,234,233)" stroke-width="1" opacity="1" d="M 296.5 204 L 298.5 207 L 296.5 204 Z " /><path fill="rgb(234,234,233)" stroke="rgb(234,234,233)" stroke-width="1" opacity="1" d="M 283.5 207 L 282.5 209 L 283.5 207 Z " /><path fill="rgb(234,234,233)" stroke="rgb(234,234,233)" stroke-width="1" opacity="1" d="M 269.5 221 L 267.5 224 L 269.5 221 Z " /><path fill="rgb(234,234,233)" stroke="rgb(234,234,233)" stroke-width="1" opacity="1" d="M 213.5 259 L 211.5 262 L 213.5 259 Z " /><path fill="rgb(234,234,233)" stroke="rgb(234,234,233)" stroke-width="1" opacity="1" d="M 201.5 271 L 201 272.5 L 189 295.5 L 189 298.5 L 182 317.5 L 177 344.5 L 176 372.5 L 177 373.5 L 177 385.5 L 178 386.5 L 180 404.5 L 187 426.5 Q 198.2 452.3 218.5 469 Q 225.8 477.2 238.5 480 L 338.5 480 L 340 479.5 L 340 482.5 L 348 497 L 350 497.5 L 228.5 498 Q 226.8 495.3 220.5 497 L 210.5 493 L 190 474.5 Q 174.9 457.6 167 433.5 L 163 416.5 L 162 401.5 L 161 400.5 L 161 368.5 L 162 367.5 L 162 359.5 L 165 342.5 L 174 313.5 Q 184.4 288.9 201.5 271 Z " /><path fill="rgb(234,234,233)" stroke="rgb(234,234,233)" stroke-width="1" opacity="1" d="M 387.5 299 L 386.5 301 L 387.5 299 Z " /><path fill="rgb(234,234,233)" stroke="rgb(234,234,233)" stroke-width="1" opacity="1" d="M 296.5 323 L 297.5 325 L 296.5 323 Z " /><path fill="rgb(234,234,233)" stroke="rgb(234,234,233)" stroke-width="1" opacity="1" d="M 110.5 329 Q 116.6 327.8 116 330.5 L 100 342 L 92 352.5 L 86 366 L 88 366.5 L 86.5 367 L 85 366.5 Q 85.9 369.5 81.5 368 Q 71.5 372 64.5 379 L 64 376.5 Q 70.7 353.3 87.5 340 Q 96 331.5 110.5 329 Z " /><path fill="rgb(234,234,233)" stroke="rgb(234,234,233)" stroke-width="1" opacity="1" d="M 298.5 331 L 300.5 334 L 298.5 331 Z " /><path fill="rgb(234,234,233)" stroke="rgb(234,234,233)" stroke-width="1" opacity="1" d="M 123.5 332 L 125.5 335 L 123.5 332 Z " /><path fill="rgb(234,234,233)" stroke="rgb(234,234,233)" stroke-width="1" opacity="1" d="M 308.5 333 L 314.5 340 L 308.5 333 Z " /><path fill="rgb(234,234,233)" stroke="rgb(234,234,233)" stroke-width="1" opacity="1" d="M 314.5 347 L 315.5 349 L 314.5 347 Z " /><path fill="rgb(234,234,233)" stroke="rgb(234,234,233)" stroke-width="1" opacity="1" d="M 101.5 363 L 114 363.5 L 101.5 364 L 101.5 363 Z " /><path fill="rgb(234,234,233)" stroke="rgb(234,234,233)" stroke-width="1" opacity="1" d="M 94.5 364 L 97 364.5 L 94.5 365 L 94.5 364 Z " /><path fill="rgb(234,234,233)" stroke="rgb(234,234,233)" stroke-width="1" opacity="1" d="M 104.5 382 L 111 382.5 L 104.5 383 L 104.5 382 Z " /><path fill="rgb(234,234,233)" stroke="rgb(234,234,233)" stroke-width="1" opacity="1" d="M 87.5 386 L 89 386.5 L 86.5 388 L 87.5 386 Z " /><path fill="rgb(234,234,233)" stroke="rgb(234,234,233)" stroke-width="1" opacity="1" d="M 82.5 389 L 81.5 391 L 80 391.5 L 80 405.5 L 85 424.5 L 90.5 435 L 94 432.5 Q 86.3 439.8 83.5 452 Q 67.5 436 63 408.5 L 74.5 395 L 82.5 389 Z " /><path fill="rgb(234,234,233)" stroke="rgb(234,234,233)" stroke-width="1" opacity="1" d="M 402.5 395 L 401.5 397 L 402.5 395 Z " /><path fill="rgb(234,234,233)" stroke="rgb(234,234,233)" stroke-width="1" opacity="1" d="M 407.5 397 L 406.5 399 L 407.5 397 Z " /><path fill="rgb(234,234,233)" stroke="rgb(234,234,233)" stroke-width="1" opacity="1" d="M 398.5 400 L 397.5 402 L 398.5 400 Z " /><path fill="rgb(234,234,233)" stroke="rgb(234,234,233)" stroke-width="1" opacity="1" d="M 404.5 401 L 403.5 403 L 404.5 401 Z " /><path fill="rgb(234,234,233)" stroke="rgb(234,234,233)" stroke-width="1" opacity="1" d="M 399.5 407 L 390.5 417 L 399.5 407 Z " /><path fill="rgb(234,234,233)" stroke="rgb(234,234,233)" stroke-width="1" opacity="1" d="M 112.5 414 L 111.5 416 L 103.5 422 L 107.5 417 L 112.5 414 Z " /><path fill="rgb(234,234,233)" stroke="rgb(234,234,233)" stroke-width="1" opacity="1" d="M 101.5 422 L 99.5 425 L 101.5 422 Z " /><path fill="rgb(234,234,233)" stroke="rgb(234,234,233)" stroke-width="1" opacity="1" d="M 97.5 427 L 94.5 431 L 97.5 427 Z " /><path fill="rgb(234,234,233)" stroke="rgb(234,234,233)" stroke-width="1" opacity="1" d="M 121.5 431 L 120.5 433 L 121.5 431 Z " /><path fill="rgb(234,234,233)" stroke="rgb(234,234,233)" stroke-width="1" opacity="1" d="M 118.5 433 L 115.5 437 L 118.5 433 Z " /><path fill="rgb(234,234,233)" stroke="rgb(234,234,233)" stroke-width="1" opacity="1" d="M 325.5 434 L 324.5 436 L 325.5 434 Z " /><path fill="rgb(234,234,233)" stroke="rgb(234,234,233)" stroke-width="1" opacity="1" d="M 124.5 435 L 125.5 437 L 124.5 435 Z " /><path fill="rgb(234,234,233)" stroke="rgb(234,234,233)" stroke-width="1" opacity="1" d="M 317.5 436 L 315.5 439 L 317.5 436 Z " /><path fill="rgb(234,234,233)" stroke="rgb(234,234,233)" stroke-width="1" opacity="1" d="M 113.5 438 L 109.5 443 L 113.5 438 Z " /><path fill="rgb(234,234,233)" stroke="rgb(234,234,233)" stroke-width="1" opacity="1" d="M 321.5 439 L 320.5 441 L 321.5 439 Z " /><path fill="rgb(234,234,233)" stroke="rgb(234,234,233)" stroke-width="1" opacity="1" d="M 128.5 440 L 130.5 443 L 128.5 440 Z " /><path fill="rgb(234,234,233)" stroke="rgb(234,234,233)" stroke-width="1" opacity="1" d="M 108.5 444 L 107.5 446 L 108.5 444 Z " /><path fill="rgb(234,234,233)" stroke="rgb(234,234,233)" stroke-width="1" opacity="1" d="M 134.5 446 L 136.5 449 L 134.5 446 Z " /><path fill="rgb(234,234,233)" stroke="rgb(234,234,233)" stroke-width="1" opacity="1" d="M 304.5 449 L 302.5 452 L 304.5 449 Z " /><path fill="rgb(234,234,233)" stroke="rgb(234,234,233)" stroke-width="1" opacity="1" d="M 103.5 453 L 116.5 467 L 137 480.5 L 136.5 488 Q 115.4 480.8 100 469 L 103.5 453 Z " /><path fill="rgb(234,234,233)" stroke="rgb(234,234,233)" stroke-width="1" opacity="1" d="M 306.5 454 L 305.5 456 L 306.5 454 Z " /><path fill="rgb(234,234,233)" stroke="rgb(234,234,233)" stroke-width="1" opacity="1" d="M 137.5 467 L 138 470.5 L 137 470.5 L 137.5 467 Z " /><path fill="rgb(234,234,233)" stroke="rgb(234,234,233)" stroke-width="1" opacity="1" d="M 400.5 468 L 402.5 471 L 400.5 468 Z " /><path fill="rgb(234,234,233)" stroke="rgb(234,234,233)" stroke-width="1" opacity="1" d="M 156.5 470 L 157 473.5 L 156 473.5 L 156.5 470 Z " /><path fill="rgb(234,234,233)" stroke="rgb(234,234,233)" stroke-width="1" opacity="1" d="M 180.5 470 L 181.5 472 L 180.5 470 Z " /><path fill="rgb(234,234,233)" stroke="rgb(234,234,233)" stroke-width="1" opacity="1" d="M 184.5 475 L 185.5 477 L 184.5 475 Z " /><path fill="rgb(234,234,233)" stroke="rgb(234,234,233)" stroke-width="1" opacity="1" d="M 156.5 484 L 157 487.5 L 156 487.5 L 156.5 484 Z " /><path fill="rgb(234,234,233)" stroke="rgb(234,234,233)" stroke-width="1" opacity="1" d="M 157.5 489 Q 172.9 495.1 193 496.5 L 180.5 497 L 179.5 496 L 163.5 495 L 158 492.5 L 157.5 489 Z " /><path fill="rgb(234,234,233)" stroke="rgb(234,234,233)" stroke-width="1" opacity="1" d="M 350.5 491 L 351.5 493 L 350.5 491 Z " /><path fill="rgb(234,234,233)" stroke="rgb(234,234,233)" stroke-width="1" opacity="1" d="M 375.5 497 L 378 497.5 L 375.5 498 L 375.5 497 Z " /><path fill="rgb(234,234,233)" stroke="rgb(234,234,233)" stroke-width="1" opacity="1" d="M 408.5 497 L 411 497.5 L 408.5 498 L 408.5 497 Z " /><path fill="rgb(234,234,233)" stroke="rgb(234,234,233)" stroke-width="1" opacity="1" d="M 413.5 497 L 416 497.5 L 413.5 498 L 413.5 497 Z " /><path fill="rgb(89,90,92)" stroke="rgb(89,90,92)" stroke-width="1" opacity="0.16470588235294117" d="M 126.5 10 L 130 10.5 L 126.5 11 L 126.5 10 Z " /><path fill="rgb(89,90,92)" stroke="rgb(89,90,92)" stroke-width="1" opacity="0.16470588235294117" d="M 147.5 10 L 151 10.5 L 147.5 11 L 147.5 10 Z " /><path fill="rgb(89,90,92)" stroke="rgb(89,90,92)" stroke-width="1" opacity="0.16470588235294117" d="M 363.5 10 L 365 10.5 L 362 12.5 L 361.5 14 L 361 12.5 L 363.5 10 Z " /><path fill="rgb(89,90,92)" stroke="rgb(89,90,92)" stroke-width="1" opacity="0.16470588235294117" d="M 369.5 10 L 378 17.5 L 401 44.5 L 395 39.5 L 370.5 11 L 369.5 10 Z " /><path fill="rgb(89,90,92)" stroke="rgb(89,90,92)" stroke-width="1" opacity="0.16470588235294117" d="M 120.5 11 L 123 11.5 L 120.5 12 L 120.5 11 Z " /><path fill="rgb(89,90,92)" stroke="rgb(89,90,92)" stroke-width="1" opacity="0.16470588235294117" d="M 154.5 11 L 157 11.5 L 154.5 12 L 154.5 11 Z " /><path fill="rgb(89,90,92)" stroke="rgb(89,90,92)" stroke-width="1" opacity="0.16470588235294117" d="M 360.5 15 L 361 18.5 L 360 18.5 L 360.5 15 Z " /><path fill="rgb(89,90,92)" stroke="rgb(89,90,92)" stroke-width="1" opacity="0.16470588235294117" d="M 176.5 18 L 179 19.5 L 177.5 19 L 176.5 18 Z " /><path fill="rgb(89,90,92)" stroke="rgb(89,90,92)" stroke-width="1" opacity="0.16470588235294117" d="M 94.5 21 L 93.5 23 L 94.5 21 Z " /><path fill="rgb(89,90,92)" stroke="rgb(89,90,92)" stroke-width="1" opacity="0.16470588235294117" d="M 359.5 21 L 360 25.5 L 359 25.5 L 359.5 21 Z " /><path fill="rgb(89,90,92)" stroke="rgb(89,90,92)" stroke-width="1" opacity="0.16470588235294117" d="M 184.5 22 L 185.5 24 L 184.5 22 Z " /><path fill="rgb(89,90,92)" stroke="rgb(89,90,92)" stroke-width="1" opacity="0.16470588235294117" d="M 91.5 23 L 90.5 25 L 91.5 23 Z " /><path fill="rgb(89,90,92)" stroke="rgb(89,90,92)" stroke-width="1" opacity="0.16470588235294117" d="M 187.5 24 L 189.5 27 L 187.5 24 Z " /><path fill="rgb(89,90,92)" stroke="rgb(89,90,92)" stroke-width="1" opacity="0.16470588235294117" d="M 88.5 25 L 87.5 27 L 88.5 25 Z " /><path fill="rgb(89,90,92)" stroke="rgb(89,90,92)" stroke-width="1" opacity="0.16470588235294117" d="M 85.5 27 L 73.5 40 L 85.5 27 Z " /><path fill="rgb(89,90,92)" stroke="rgb(89,90,92)" stroke-width="1" opacity="0.16470588235294117" d="M 191.5 27 L 194.5 31 L 191.5 27 Z " /><path fill="rgb(89,90,92)" stroke="rgb(89,90,92)" stroke-width="1" opacity="0.16470588235294117" d="M 358.5 28 L 359 32.5 L 358 32.5 L 358.5 28 Z " /><path fill="rgb(89,90,92)" stroke="rgb(89,90,92)" stroke-width="1" opacity="0.16470588235294117" d="M 197.5 32 L 199.5 35 L 197.5 32 Z " /><path fill="rgb(89,90,92)" stroke="rgb(89,90,92)" stroke-width="1" opacity="0.16470588235294117" d="M 357.5 35 L 358 39.5 L 357 39.5 L 357.5 35 Z " /><path fill="rgb(89,90,92)" stroke="rgb(89,90,92)" stroke-width="1" opacity="0.16470588235294117" d="M 201.5 37 L 204.5 41 L 201.5 37 Z " /><path fill="rgb(89,90,92)" stroke="rgb(89,90,92)" stroke-width="1" opacity="0.16470588235294117" d="M 72.5 41 L 70.5 44 L 72.5 41 Z " /><path fill="rgb(89,90,92)" stroke="rgb(89,90,92)" stroke-width="1" opacity="0.16470588235294117" d="M 205.5 42 L 209 46.5 L 207 45.5 L 205.5 42 Z " /><path fill="rgb(89,90,92)" stroke="rgb(89,90,92)" stroke-width="1" opacity="0.16470588235294117" d="M 356.5 42 L 357 45.5 L 356 45.5 L 356.5 42 Z " /><path fill="rgb(89,90,92)" stroke="rgb(89,90,92)" stroke-width="1" opacity="0.16470588235294117" d="M 69.5 45 L 69 46.5 L 67.5 49 L 68 47.5 L 69.5 45 Z " /><path fill="rgb(89,90,92)" stroke="rgb(89,90,92)" stroke-width="1" opacity="0.16470588235294117" d="M 401.5 46 L 404.5 50 L 401.5 46 Z " /><path fill="rgb(89,90,92)" stroke="rgb(89,90,92)" stroke-width="1" opacity="0.16470588235294117" d="M 209.5 48 L 213 54.5 L 212 54.5 L 209.5 48 Z " /><path fill="rgb(89,90,92)" stroke="rgb(89,90,92)" stroke-width="1" opacity="0.16470588235294117" d="M 350.5 48 L 352 48.5 L 348.5 50 L 348.5 49 L 350.5 48 Z " /><path fill="rgb(89,90,92)" stroke="rgb(89,90,92)" stroke-width="1" opacity="0.16470588235294117" d="M 345.5 50 L 347 50.5 L 332.5 58 L 333.5 56 L 345.5 50 Z " /><path fill="rgb(89,90,92)" stroke="rgb(89,90,92)" stroke-width="1" opacity="0.16470588235294117" d="M 406.5 50 L 439 80.5 L 441.5 84 L 443 84.5 L 441 85.5 L 438 80.5 L 418.5 61 Q 410.4 56.4 406.5 50 Z " /><path fill="rgb(89,90,92)" stroke="rgb(89,90,92)" stroke-width="1" opacity="0.16470588235294117" d="M 330.5 58 L 329.5 60 L 327.5 61 L 328.5 59 L 330.5 58 Z " /><path fill="rgb(89,90,92)" stroke="rgb(89,90,92)" stroke-width="1" opacity="0.16470588235294117" d="M 325.5 61 L 324.5 63 L 325.5 61 Z " /><path fill="rgb(89,90,92)" stroke="rgb(89,90,92)" stroke-width="1" opacity="0.16470588235294117" d="M 322.5 63 L 320.5 66 L 296 86.5 L 289.5 94 L 295 87.5 L 301.5 80 L 322.5 63 Z " /><path fill="rgb(89,90,92)" stroke="rgb(89,90,92)" stroke-width="1" opacity="0.16470588235294117" d="M 217.5 69 L 218 72.5 L 217 72.5 L 217.5 69 Z " /><path fill="rgb(89,90,92)" stroke="rgb(89,90,92)" stroke-width="1" opacity="0.16470588235294117" d="M 59.5 71 L 60 74.5 L 59 74.5 L 59.5 71 Z " /><path fill="rgb(89,90,92)" stroke="rgb(89,90,92)" stroke-width="1" opacity="0.16470588235294117" d="M 445.5 84 L 447 86.5 L 446 86.5 L 445.5 84 Z " /><path fill="rgb(89,90,92)" stroke="rgb(89,90,92)" stroke-width="1" opacity="0.16470588235294117" d="M 59.5 86 L 60 89.5 L 59 89.5 L 59.5 86 Z " /><path fill="rgb(89,90,92)" stroke="rgb(89,90,92)" stroke-width="1" opacity="0.16470588235294117" d="M 217.5 88 L 218 91.5 L 217 91.5 L 217.5 88 Z " /><path fill="rgb(89,90,92)" stroke="rgb(89,90,92)" stroke-width="1" opacity="0.16470588235294117" d="M 445.5 88 L 445 89.5 L 446 91.5 L 444 90.5 L 445.5 88 Z " /><path fill="rgb(89,90,92)" stroke="rgb(89,90,92)" stroke-width="1" opacity="0.16470588235294117" d="M 288.5 95 L 286 98.5 L 283.5 102 L 285 99.5 L 288.5 95 Z " /><path fill="rgb(89,90,92)" stroke="rgb(89,90,92)" stroke-width="1" opacity="0.16470588235294117" d="M 448.5 97 L 450 100.5 L 449 100.5 L 448.5 97 Z " /><path fill="rgb(89,90,92)" stroke="rgb(89,90,92)" stroke-width="1" opacity="0.16470588235294117" d="M 282.5 103 L 281.5 105 L 282.5 103 Z " /><path fill="rgb(89,90,92)" stroke="rgb(89,90,92)" stroke-width="1" opacity="0.16470588235294117" d="M 451.5 105 L 452 107 L 455 108.5 L 453.5 116 L 453 111.5 L 454 108 L 451 106.5 L 451.5 105 Z " /><path fill="rgb(89,90,92)" stroke="rgb(89,90,92)" stroke-width="1" opacity="0.16470588235294117" d="M 212.5 106 L 213 107.5 L 209.5 113 L 210 111.5 L 212.5 106 Z " /><path fill="rgb(89,90,92)" stroke="rgb(89,90,92)" stroke-width="1" opacity="0.16470588235294117" d="M 280.5 106 L 280 107.5 L 274.5 117 L 240.5 117 L 238 118 Q 236.4 120.1 237 125.5 L 266 155.5 L 272 165.5 L 271 165.5 L 265 155.5 L 237 127.5 L 236 120.5 L 238.5 117 L 240.5 116 L 275 116 L 280.5 106 Z " /><path fill="rgb(89,90,92)" stroke="rgb(89,90,92)" stroke-width="1" opacity="0.16470588235294117" d="M 67.5 112 L 70 115.5 L 68 114.5 L 67.5 112 Z " /><path fill="rgb(89,90,92)" stroke="rgb(89,90,92)" stroke-width="1" opacity="0.16470588235294117" d="M 207.5 116 L 208.5 118 L 207.5 116 Z " /><path fill="rgb(89,90,92)" stroke="rgb(89,90,92)" stroke-width="1" opacity="0.16470588235294117" d="M 70.5 117 L 72.5 120 L 70.5 117 Z " /><path fill="rgb(89,90,92)" stroke="rgb(89,90,92)" stroke-width="1" opacity="0.16470588235294117" d="M 454.5 118 L 455 123.5 L 454 123.5 L 454.5 118 Z " /><path fill="rgb(89,90,92)" stroke="rgb(89,90,92)" stroke-width="1" opacity="0.16470588235294117" d="M 73.5 121 L 84.5 133 L 73.5 121 Z " /><path fill="rgb(89,90,92)" stroke="rgb(89,90,92)" stroke-width="1" opacity="0.16470588235294117" d="M 210.5 121 L 213 124.5 L 211 123.5 L 210.5 121 Z " /><path fill="rgb(89,90,92)" stroke="rgb(89,90,92)" stroke-width="1" opacity="0.16470588235294117" d="M 214.5 128 L 217 131.5 L 215 130.5 L 214.5 128 Z " /><path fill="rgb(89,90,92)" stroke="rgb(89,90,92)" stroke-width="1" opacity="0.16470588235294117" d="M 86.5 133 L 88.5 136 L 86.5 133 Z " /><path fill="rgb(89,90,92)" stroke="rgb(89,90,92)" stroke-width="1" opacity="0.16470588235294117" d="M 454.5 134 L 455 139.5 L 454 139.5 L 454.5 134 Z " /><path fill="rgb(89,90,92)" stroke="rgb(89,90,92)" stroke-width="1" opacity="0.16470588235294117" d="M 218.5 135 L 221 138.5 L 219 137.5 L 218.5 135 Z " /><path fill="rgb(89,90,92)" stroke="rgb(89,90,92)" stroke-width="1" opacity="0.16470588235294117" d="M 90.5 136 L 91.5 138 L 90.5 136 Z " /><path fill="rgb(89,90,92)" stroke="rgb(89,90,92)" stroke-width="1" opacity="0.16470588235294117" d="M 185.5 137 L 184.5 139 L 182.5 140 L 183.5 138 L 185.5 137 Z " /><path fill="rgb(89,90,92)" stroke="rgb(89,90,92)" stroke-width="1" opacity="0.16470588235294117" d="M 93.5 138 L 94.5 140 L 93.5 138 Z " /><path fill="rgb(89,90,92)" stroke="rgb(89,90,92)" stroke-width="1" opacity="0.16470588235294117" d="M 222.5 142 Q 225.6 143.4 225 148.5 L 224 148.5 L 222.5 142 Z " /><path fill="rgb(89,90,92)" stroke="rgb(89,90,92)" stroke-width="1" opacity="0.16470588235294117" d="M 453.5 143 L 454 145.5 L 453 145.5 L 453.5 143 Z " /><path fill="rgb(89,90,92)" stroke="rgb(89,90,92)" stroke-width="1" opacity="0.16470588235294117" d="M 452.5 147 L 453 149.5 L 452 149.5 L 452.5 147 Z " /><path fill="rgb(89,90,92)" stroke="rgb(89,90,92)" stroke-width="1" opacity="0.16470588235294117" d="M 120.5 149 L 123 149.5 L 120.5 150 L 120.5 149 Z " /><path fill="rgb(89,90,92)" stroke="rgb(89,90,92)" stroke-width="1" opacity="0.16470588235294117" d="M 154.5 149 L 157 149.5 L 154.5 150 L 154.5 149 Z " /><path fill="rgb(89,90,92)" stroke="rgb(89,90,92)" stroke-width="1" opacity="0.16470588235294117" d="M 126.5 150 L 130 150.5 L 126.5 151 L 126.5 150 Z " /><path fill="rgb(89,90,92)" stroke="rgb(89,90,92)" stroke-width="1" opacity="0.16470588235294117" d="M 147.5 150 L 152 150.5 L 147.5 151 L 147.5 150 Z " /><path fill="rgb(89,90,92)" stroke="rgb(89,90,92)" stroke-width="1" opacity="0.16470588235294117" d="M 451.5 151 L 452 152.5 L 450.5 155 L 450 153.5 L 451.5 151 Z " /><path fill="rgb(89,90,92)" stroke="rgb(89,90,92)" stroke-width="1" opacity="0.16470588235294117" d="M 449.5 156 L 450 157.5 L 444.5 167 L 445 165.5 L 449.5 156 Z " /><path fill="rgb(89,90,92)" stroke="rgb(89,90,92)" stroke-width="1" opacity="0.16470588235294117" d="M 443.5 168 L 443 169.5 L 432 181.5 L 431.5 184 L 431 181.5 L 443.5 168 Z " /><path fill="rgb(89,90,92)" stroke="rgb(89,90,92)" stroke-width="1" opacity="0.16470588235294117" d="M 273.5 169 L 279 178.5 L 277 177.5 L 273.5 169 Z " /><path fill="rgb(89,90,92)" stroke="rgb(89,90,92)" stroke-width="1" opacity="0.16470588235294117" d="M 279.5 180 L 282 183.5 L 280 182.5 L 279.5 180 Z " /><path fill="rgb(89,90,92)" stroke="rgb(89,90,92)" stroke-width="1" opacity="0.16470588235294117" d="M 282.5 185 L 288 192.5 L 288 194.5 Q 279.3 207.8 267.5 218 L 262.5 222 L 266.5 217 L 278 206.5 L 287 194.5 L 287 192.5 L 282.5 185 Z " /><path fill="rgb(89,90,92)" stroke="rgb(89,90,92)" stroke-width="1" opacity="0.16470588235294117" d="M 432.5 185 L 433 187.5 L 432 187.5 L 432.5 185 Z " /><path fill="rgb(89,90,92)" stroke="rgb(89,90,92)" stroke-width="1" opacity="0.16470588235294117" d="M 433.5 189 L 434 191.5 L 433 191.5 L 433.5 189 Z " /><path fill="rgb(89,90,92)" stroke="rgb(89,90,92)" stroke-width="1" opacity="0.16470588235294117" d="M 434.5 193 L 435 195.5 L 434 195.5 L 434.5 193 Z " /><path fill="rgb(89,90,92)" stroke="rgb(89,90,92)" stroke-width="1" opacity="0.16470588235294117" d="M 435.5 197 L 436 199.5 L 435 199.5 L 435.5 197 Z " /><path fill="rgb(89,90,92)" stroke="rgb(89,90,92)" stroke-width="1" opacity="0.16470588235294117" d="M 436.5 201 L 437 203.5 L 436 203.5 L 436.5 201 Z " /><path fill="rgb(89,90,92)" stroke="rgb(89,90,92)" stroke-width="1" opacity="0.16470588235294117" d="M 437.5 205 L 438 207.5 L 437 207.5 L 437.5 205 Z " /><path fill="rgb(89,90,92)" stroke="rgb(89,90,92)" stroke-width="1" opacity="0.16470588235294117" d="M 438.5 209 L 439 212.5 L 438 212.5 L 438.5 209 Z " /><path fill="rgb(89,90,92)" stroke="rgb(89,90,92)" stroke-width="1" opacity="0.16470588235294117" d="M 439.5 214 L 440 216.5 L 439 216.5 L 439.5 214 Z " /><path fill="rgb(89,90,92)" stroke="rgb(89,90,92)" stroke-width="1" opacity="0.16470588235294117" d="M 440.5 219 L 441 221.5 L 440 221.5 L 440.5 219 Z " /><path fill="rgb(89,90,92)" stroke="rgb(89,90,92)" stroke-width="1" opacity="0.16470588235294117" d="M 260.5 222 L 257.5 226 L 246.5 233 L 247.5 231 L 260.5 222 Z " /><path fill="rgb(89,90,92)" stroke="rgb(89,90,92)" stroke-width="1" opacity="0.16470588235294117" d="M 441.5 224 L 442 226.5 L 441 226.5 L 441.5 224 Z " /><path fill="rgb(89,90,92)" stroke="rgb(89,90,92)" stroke-width="1" opacity="0.16470588235294117" d="M 442.5 229 L 443 232.5 L 442 232.5 L 442.5 229 Z " /><path fill="rgb(89,90,92)" stroke="rgb(89,90,92)" stroke-width="1" opacity="0.16470588235294117" d="M 244.5 233 L 243.5 235 L 239.5 237 L 240.5 235 L 244.5 233 Z " /><path fill="rgb(89,90,92)" stroke="rgb(89,90,92)" stroke-width="1" opacity="0.16470588235294117" d="M 443.5 235 L 444 238.5 L 443 238.5 L 443.5 235 Z " /><path fill="rgb(89,90,92)" stroke="rgb(89,90,92)" stroke-width="1" opacity="0.16470588235294117" d="M 235.5 238 L 234.5 240 L 227.5 244 L 228.5 242 L 235.5 238 Z " /><path fill="rgb(89,90,92)" stroke="rgb(89,90,92)" stroke-width="1" opacity="0.16470588235294117" d="M 444.5 241 L 445 245.5 L 444 245.5 L 444.5 241 Z " /><path fill="rgb(89,90,92)" stroke="rgb(89,90,92)" stroke-width="1" opacity="0.16470588235294117" d="M 225.5 244 L 224.5 246 L 217.5 251 L 219.5 248 L 225.5 244 Z " /><path fill="rgb(89,90,92)" stroke="rgb(89,90,92)" stroke-width="1" opacity="0.16470588235294117" d="M 445.5 248 L 446 252.5 L 445 252.5 L 445.5 248 Z " /><path fill="rgb(89,90,92)" stroke="rgb(89,90,92)" stroke-width="1" opacity="0.16470588235294117" d="M 215.5 251 L 211.5 256 L 194 272.5 L 184.5 285 L 186 282.5 Q 196 266.5 210.5 255 L 215.5 251 Z " /><path fill="rgb(89,90,92)" stroke="rgb(89,90,92)" stroke-width="1" opacity="0.16470588235294117" d="M 446.5 256 L 447 263.5 L 446 263.5 L 446.5 256 Z " /><path fill="rgb(89,90,92)" stroke="rgb(89,90,92)" stroke-width="1" opacity="0.16470588235294117" d="M 447.5 268 L 448 294.5 L 447 294.5 L 447.5 268 Z " /><path fill="rgb(89,90,92)" stroke="rgb(89,90,92)" stroke-width="1" opacity="0.16470588235294117" d="M 183.5 286 L 183 287.5 L 179.5 293 L 180 291.5 L 183.5 286 Z " /><path fill="rgb(89,90,92)" stroke="rgb(89,90,92)" stroke-width="1" opacity="0.16470588235294117" d="M 178.5 294 L 178 295.5 L 171.5 309 L 171 307.5 L 178.5 294 Z " /><path fill="rgb(89,90,92)" stroke="rgb(89,90,92)" stroke-width="1" opacity="0.16470588235294117" d="M 446.5 299 L 447 303.5 L 446 303.5 L 446.5 299 Z " /><path fill="rgb(89,90,92)" stroke="rgb(89,90,92)" stroke-width="1" opacity="0.16470588235294117" d="M 445.5 306 L 446 309.5 L 445 309.5 L 445.5 306 Z " /><path fill="rgb(89,90,92)" stroke="rgb(89,90,92)" stroke-width="1" opacity="0.16470588235294117" d="M 444.5 311 L 445 313.5 L 444 313.5 L 444.5 311 Z " /><path fill="rgb(89,90,92)" stroke="rgb(89,90,92)" stroke-width="1" opacity="0.16470588235294117" d="M 168.5 315 L 169 316.5 L 167.5 319 L 167 317.5 L 168.5 315 Z " /><path fill="rgb(89,90,92)" stroke="rgb(89,90,92)" stroke-width="1" opacity="0.16470588235294117" d="M 443.5 315 L 444 317.5 L 443 317.5 L 443.5 315 Z " /><path fill="rgb(89,90,92)" stroke="rgb(89,90,92)" stroke-width="1" opacity="0.16470588235294117" d="M 442.5 319 L 443 321.5 L 442 321.5 L 442.5 319 Z " /><path fill="rgb(89,90,92)" stroke="rgb(89,90,92)" stroke-width="1" opacity="0.16470588235294117" d="M 165.5 323 L 166 325.5 L 164.5 329 L 164 326.5 L 165.5 323 Z " /><path fill="rgb(89,90,92)" stroke="rgb(89,90,92)" stroke-width="1" opacity="0.16470588235294117" d="M 109.5 324 L 117 324.5 L 109.5 325 L 109.5 324 Z " /><path fill="rgb(89,90,92)" stroke="rgb(89,90,92)" stroke-width="1" opacity="0.16470588235294117" d="M 104.5 325 L 107 325.5 L 104.5 326 L 104.5 325 Z " /><path fill="rgb(89,90,92)" stroke="rgb(89,90,92)" stroke-width="1" opacity="0.16470588235294117" d="M 122.5 326 L 130 331.5 L 132 337.5 L 131 337.5 Q 130.1 330.9 125.5 328 Q 121.8 327.7 122.5 326 Z " /><path fill="rgb(89,90,92)" stroke="rgb(89,90,92)" stroke-width="1" opacity="0.16470588235294117" d="M 440.5 326 L 441 328.5 L 440 328.5 L 440.5 326 Z " /><path fill="rgb(89,90,92)" stroke="rgb(89,90,92)" stroke-width="1" opacity="0.16470588235294117" d="M 98.5 327 L 100 327.5 L 93.5 331 L 94.5 329 L 98.5 327 Z " /><path fill="rgb(89,90,92)" stroke="rgb(89,90,92)" stroke-width="1" opacity="0.16470588235294117" d="M 91.5 331 L 90.5 333 L 78 342 L 70.5 352 L 72 349.5 L 80.5 339 L 91.5 331 Z " /><path fill="rgb(89,90,92)" stroke="rgb(89,90,92)" stroke-width="1" opacity="0.16470588235294117" d="M 162.5 333 L 163 335.5 L 162 335.5 L 162.5 333 Z " /><path fill="rgb(89,90,92)" stroke="rgb(89,90,92)" stroke-width="1" opacity="0.16470588235294117" d="M 437.5 336 L 438 337.5 L 435.5 343 L 435 341.5 L 437.5 336 Z " /><path fill="rgb(89,90,92)" stroke="rgb(89,90,92)" stroke-width="1" opacity="0.16470588235294117" d="M 161.5 337 L 162 339.5 L 161 339.5 L 161.5 337 Z " /><path fill="rgb(89,90,92)" stroke="rgb(89,90,92)" stroke-width="1" opacity="0.16470588235294117" d="M 160.5 341 L 161 344.5 L 160 344.5 L 160.5 341 Z " /><path fill="rgb(89,90,92)" stroke="rgb(89,90,92)" stroke-width="1" opacity="0.16470588235294117" d="M 131.5 344 L 132 347.5 L 131 347.5 L 131.5 344 Z " /><path fill="rgb(89,90,92)" stroke="rgb(89,90,92)" stroke-width="1" opacity="0.16470588235294117" d="M 159.5 346 L 160 349.5 L 159 349.5 L 159.5 346 Z " /><path fill="rgb(89,90,92)" stroke="rgb(89,90,92)" stroke-width="1" opacity="0.16470588235294117" d="M 130.5 349 L 131 350.5 L 129.5 353 L 129 351.5 L 130.5 349 Z " /><path fill="rgb(89,90,92)" stroke="rgb(89,90,92)" stroke-width="1" opacity="0.16470588235294117" d="M 432.5 349 L 433 350.5 L 431.5 353 L 431 351.5 L 432.5 349 Z " /><path fill="rgb(89,90,92)" stroke="rgb(89,90,92)" stroke-width="1" opacity="0.16470588235294117" d="M 158.5 352 L 159 355.5 L 158 355.5 L 158.5 352 Z " /><path fill="rgb(89,90,92)" stroke="rgb(89,90,92)" stroke-width="1" opacity="0.16470588235294117" d="M 69.5 353 L 69 354.5 L 67.5 357 L 68 355.5 L 69.5 353 Z " /><path fill="rgb(89,90,92)" stroke="rgb(89,90,92)" stroke-width="1" opacity="0.16470588235294117" d="M 430.5 354 L 431 355.5 L 428.5 360 L 428 358.5 L 430.5 354 Z " /><path fill="rgb(89,90,92)" stroke="rgb(89,90,92)" stroke-width="1" opacity="0.16470588235294117" d="M 127.5 356 L 128 357.5 L 122.5 368 L 122 366.5 L 127.5 356 Z " /><path fill="rgb(89,90,92)" stroke="rgb(89,90,92)" stroke-width="1" opacity="0.16470588235294117" d="M 66.5 358 L 66 359.5 L 65.5 361 L 65 359.5 L 66.5 358 Z " /><path fill="rgb(89,90,92)" stroke="rgb(89,90,92)" stroke-width="1" opacity="0.16470588235294117" d="M 157.5 358 L 158 363.5 L 157 363.5 L 157.5 358 Z " /><path fill="rgb(89,90,92)" stroke="rgb(89,90,92)" stroke-width="1" opacity="0.16470588235294117" d="M 426.5 363 L 427 364.5 L 419.5 378 L 420 376.5 L 426.5 363 Z " /><path fill="rgb(89,90,92)" stroke="rgb(89,90,92)" stroke-width="1" opacity="0.16470588235294117" d="M 156.5 367 L 157 377.5 L 156 377.5 L 156.5 367 Z " /><path fill="rgb(89,90,92)" stroke="rgb(89,90,92)" stroke-width="1" opacity="0.16470588235294117" d="M 61.5 369 L 62 370.5 L 60.5 374 L 60 371.5 L 61.5 369 Z " /><path fill="rgb(89,90,92)" stroke="rgb(89,90,92)" stroke-width="1" opacity="0.16470588235294117" d="M 119.5 375 L 120 377.5 L 119 377.5 L 119.5 375 Z " /><path fill="rgb(89,90,92)" stroke="rgb(89,90,92)" stroke-width="1" opacity="0.16470588235294117" d="M 58.5 379 L 59 381.5 L 58 381.5 L 58.5 379 Z " /><path fill="rgb(89,90,92)" stroke="rgb(89,90,92)" stroke-width="1" opacity="0.16470588235294117" d="M 118.5 379 L 119 382.5 L 118 382.5 L 118.5 379 Z " /><path fill="rgb(89,90,92)" stroke="rgb(89,90,92)" stroke-width="1" opacity="0.16470588235294117" d="M 418.5 379 L 418 380.5 L 418 464.5 L 419 465.5 L 417 466 L 417 380.5 L 418.5 379 Z " /><path fill="rgb(89,90,92)" stroke="rgb(89,90,92)" stroke-width="1" opacity="0.16470588235294117" d="M 57.5 384 L 58 389.5 L 57 389.5 L 57.5 384 Z " /><path fill="rgb(89,90,92)" stroke="rgb(89,90,92)" stroke-width="1" opacity="0.16470588235294117" d="M 117.5 385 L 118 392.5 L 117 392.5 L 117.5 385 Z " /><path fill="rgb(89,90,92)" stroke="rgb(89,90,92)" stroke-width="1" opacity="0.16470588235294117" d="M 156.5 391 L 157 401.5 L 156 401.5 L 156.5 391 Z " /><path fill="rgb(89,90,92)" stroke="rgb(89,90,92)" stroke-width="1" opacity="0.16470588235294117" d="M 117.5 396 L 118 404.5 L 117 404.5 L 117.5 396 Z " /><path fill="rgb(89,90,92)" stroke="rgb(89,90,92)" stroke-width="1" opacity="0.16470588235294117" d="M 57.5 402 L 58 407.5 L 57 407.5 L 57.5 402 Z " /><path fill="rgb(89,90,92)" stroke="rgb(89,90,92)" stroke-width="1" opacity="0.16470588235294117" d="M 157.5 405 L 158 410.5 L 157 410.5 L 157.5 405 Z " /><path fill="rgb(89,90,92)" stroke="rgb(89,90,92)" stroke-width="1" opacity="0.16470588235294117" d="M 118.5 407 L 119 409.5 L 118 409.5 L 118.5 407 Z " /><path fill="rgb(89,90,92)" stroke="rgb(89,90,92)" stroke-width="1" opacity="0.16470588235294117" d="M 58.5 410 L 59 413.5 L 58 413.5 L 58.5 410 Z " /><path fill="rgb(89,90,92)" stroke="rgb(89,90,92)" stroke-width="1" opacity="0.16470588235294117" d="M 158.5 413 L 159 416.5 L 158 416.5 L 158.5 413 Z " /><path fill="rgb(89,90,92)" stroke="rgb(89,90,92)" stroke-width="1" opacity="0.16470588235294117" d="M 59.5 415 L 60 417.5 L 59 417.5 L 59.5 415 Z " /><path fill="rgb(89,90,92)" stroke="rgb(89,90,92)" stroke-width="1" opacity="0.16470588235294117" d="M 159.5 419 L 160 422.5 L 159 422.5 L 159.5 419 Z " /><path fill="rgb(89,90,92)" stroke="rgb(89,90,92)" stroke-width="1" opacity="0.16470588235294117" d="M 122.5 421 Q 128.9 436.6 141.5 446 L 145 448.5 L 142.5 447 L 135 442 L 125 428.5 L 122.5 421 Z " /><path fill="rgb(89,90,92)" stroke="rgb(89,90,92)" stroke-width="1" opacity="0.16470588235294117" d="M 160.5 424 L 161 426.5 L 160 426.5 L 160.5 424 Z " /><path fill="rgb(89,90,92)" stroke="rgb(89,90,92)" stroke-width="1" opacity="0.16470588235294117" d="M 62.5 425 L 64 428.5 L 63 428.5 L 62.5 425 Z " /><path fill="rgb(89,90,92)" stroke="rgb(89,90,92)" stroke-width="1" opacity="0.16470588235294117" d="M 64.5 430 L 73 445.5 L 71 444.5 L 64 431.5 L 64.5 430 Z " /><path fill="rgb(89,90,92)" stroke="rgb(89,90,92)" stroke-width="1" opacity="0.16470588235294117" d="M 162.5 432 L 163 434.5 L 162 434.5 L 162.5 432 Z " /><path fill="rgb(89,90,92)" stroke="rgb(89,90,92)" stroke-width="1" opacity="0.16470588235294117" d="M 164.5 439 L 166 442.5 L 165 442.5 L 164.5 439 Z " /><path fill="rgb(89,90,92)" stroke="rgb(89,90,92)" stroke-width="1" opacity="0.16470588235294117" d="M 166.5 444 L 168 447.5 L 167 447.5 L 166.5 444 Z " /><path fill="rgb(89,90,92)" stroke="rgb(89,90,92)" stroke-width="1" opacity="0.16470588235294117" d="M 73.5 447 L 94.5 470 L 108 479.5 L 106.5 479 Q 89.6 469.4 78 454.5 L 73.5 447 Z " /><path fill="rgb(89,90,92)" stroke="rgb(89,90,92)" stroke-width="1" opacity="0.16470588235294117" d="M 146.5 449 L 157 454.5 L 155.5 455 L 147.5 451 L 146.5 449 Z " /><path fill="rgb(89,90,92)" stroke="rgb(89,90,92)" stroke-width="1" opacity="0.16470588235294117" d="M 161.5 456 L 164 456.5 L 161.5 457 L 161.5 456 Z " /><path fill="rgb(89,90,92)" stroke="rgb(89,90,92)" stroke-width="1" opacity="0.16470588235294117" d="M 165.5 457 L 168 457.5 L 165.5 458 L 165.5 457 Z " /><path fill="rgb(89,90,92)" stroke="rgb(89,90,92)" stroke-width="1" opacity="0.16470588235294117" d="M 172.5 457 L 173 459 L 170 458.5 L 172.5 457 Z " /><path fill="rgb(89,90,92)" stroke="rgb(89,90,92)" stroke-width="1" opacity="0.16470588235294117" d="M 425.5 466 L 433 466.5 L 425.5 467 L 425.5 466 Z " /><path fill="rgb(89,90,92)" stroke="rgb(89,90,92)" stroke-width="1" opacity="0.16470588235294117" d="M 437.5 468 L 442 473.5 L 441 473.5 L 437.5 468 Z " /><path fill="rgb(89,90,92)" stroke="rgb(89,90,92)" stroke-width="1" opacity="0.16470588235294117" d="M 442.5 475 L 443 477.5 L 442 477.5 L 442.5 475 Z " /><path fill="rgb(89,90,92)" stroke="rgb(89,90,92)" stroke-width="1" opacity="0.16470588235294117" d="M 109.5 480 L 115 483.5 L 113.5 483 Q 109.5 482.5 109.5 480 Z " /><path fill="rgb(89,90,92)" stroke="rgb(89,90,92)" stroke-width="1" opacity="0.16470588235294117" d="M 443.5 481 L 444 484.5 L 443 484.5 L 443.5 481 Z " /><path fill="rgb(89,90,92)" stroke="rgb(89,90,92)" stroke-width="1" opacity="0.16470588235294117" d="M 120.5 486 L 128 489.5 L 126.5 490 L 120.5 487 L 120.5 486 Z " /><path fill="rgb(89,90,92)" stroke="rgb(89,90,92)" stroke-width="1" opacity="0.16470588235294117" d="M 442.5 489 L 443 492.5 L 442 492.5 L 442.5 489 Z " /><path fill="rgb(89,90,92)" stroke="rgb(89,90,92)" stroke-width="1" opacity="0.16470588235294117" d="M 132.5 491 L 140 493.5 L 137.5 494 L 132.5 492 L 132.5 491 Z " /><path fill="rgb(89,90,92)" stroke="rgb(89,90,92)" stroke-width="1" opacity="0.16470588235294117" d="M 441.5 494 L 442 496.5 L 440 497.5 L 441.5 494 Z " /><path fill="rgb(89,90,92)" stroke="rgb(89,90,92)" stroke-width="1" opacity="0.16470588235294117" d="M 144.5 495 L 147 495.5 L 144.5 496 L 144.5 495 Z " /><path fill="rgb(89,90,92)" stroke="rgb(89,90,92)" stroke-width="1" opacity="0.16470588235294117" d="M 148.5 496 L 151 496.5 L 148.5 497 L 148.5 496 Z " /><path fill="rgb(89,90,92)" stroke="rgb(89,90,92)" stroke-width="1" opacity="0.16470588235294117" d="M 152.5 497 L 155 497.5 L 152.5 498 L 152.5 497 Z " /><path fill="rgb(89,90,92)" stroke="rgb(89,90,92)" stroke-width="1" opacity="0.16470588235294117" d="M 157.5 498 L 160 498.5 L 157.5 499 L 157.5 498 Z " /><path fill="rgb(89,90,92)" stroke="rgb(89,90,92)" stroke-width="1" opacity="0.16470588235294117" d="M 436.5 498 L 439 498.5 L 436.5 499 L 436.5 498 Z " /><path fill="rgb(89,90,92)" stroke="rgb(89,90,92)" stroke-width="1" opacity="0.16470588235294117" d="M 162.5 499 L 167 499.5 L 162.5 500 L 162.5 499 Z " /><path fill="rgb(89,90,92)" stroke="rgb(89,90,92)" stroke-width="1" opacity="0.16470588235294117" d="M 169.5 500 L 175 500.5 L 169.5 501 L 169.5 500 Z " /><path fill="rgb(89,90,92)" stroke="rgb(89,90,92)" stroke-width="1" opacity="0.16470588235294117" d="M 390.5 500 L 393 500.5 L 390.5 501 L 390.5 500 Z " /><path fill="rgb(89,90,92)" stroke="rgb(89,90,92)" stroke-width="1" opacity="0.16470588235294117" d="M 395.5 500 L 398 500.5 L 395.5 501 L 395.5 500 Z " /><path fill="rgb(89,90,92)" stroke="rgb(89,90,92)" stroke-width="1" opacity="0.16470588235294117" d="M 427.5 500 L 431 500.5 L 427.5 501 L 427.5 500 Z " /><path fill="rgb(89,90,92)" stroke="rgb(89,90,92)" stroke-width="1" opacity="0.16470588235294117" d="M 179.5 501 L 193 501.5 L 179.5 502 L 179.5 501 Z " /><path fill="rgb(89,90,92)" stroke="rgb(89,90,92)" stroke-width="1" opacity="0.16470588235294117" d="M 199.5 501 L 214 501.5 L 199.5 502 L 199.5 501 Z " /><path fill="rgb(89,90,92)" stroke="rgb(89,90,92)" stroke-width="1" opacity="0.16470588235294117" d="M 219.5 501 L 223 501.5 L 219.5 502 L 219.5 501 Z " /><path fill="rgb(89,90,92)" stroke="rgb(89,90,92)" stroke-width="1" opacity="0.16470588235294117" d="M 382.5 501 L 388 501.5 L 382.5 502 L 382.5 501 Z " /><path fill="rgb(89,90,92)" stroke="rgb(89,90,92)" stroke-width="1" opacity="0.16470588235294117" d="M 400.5 501 L 404 501.5 L 400.5 502 L 400.5 501 Z " /><path fill="rgb(89,90,92)" stroke="rgb(89,90,92)" stroke-width="1" opacity="0.16470588235294117" d="M 420.5 501 L 425 501.5 L 420.5 502 L 420.5 501 Z " /><path fill="rgb(103,103,105)" stroke="rgb(103,103,105)" stroke-width="1" opacity="0.9686274509803922" d="M 130.5 10 L 153.5 11 L 171.5 16 Q 189.1 23.4 201 36.5 Q 209 45.5 214 57.5 L 218 73.5 L 218 87.5 L 214 103.5 L 207 116.5 L 221 139.5 L 224 145.5 L 224 149 L 187.5 136 Q 167.6 152.1 130.5 151 L 114.5 148 L 95.5 140 Q 82.4 132.1 73 120.5 Q 64.9 110.6 61 96.5 L 59 85.5 L 59 75.5 L 61 64.5 L 67 49.5 Q 74.7 36.2 86.5 27 L 108.5 15 L 130.5 10 Z M 131 14 L 107 20 Q 95 25 86 33 L 71 51 L 65 65 L 63 76 L 63 86 L 66 100 Q 71 112 79 122 Q 90 134 107 141 L 119 145 L 130 146 L 131 147 L 147 147 L 163 144 L 187 132 L 217 143 L 218 143 L 203 118 L 203 115 L 211 101 L 214 88 L 214 74 L 212 64 Q 208 51 200 42 Q 187 26 166 18 L 147 14 L 131 14 Z " /><path fill="rgb(103,103,105)" stroke="rgb(103,103,105)" stroke-width="1" opacity="0.9686274509803922" d="M 365.5 10 L 370.5 11 L 377 17.5 L 404.5 50 Q 423.2 63.3 438 80.5 L 441.5 86 L 444.5 84 L 446 87.5 L 444 90.5 L 448 96.5 L 452.5 108 Q 455.1 107.2 454 110.5 L 453 115.5 L 455 124.5 L 455 133.5 L 454 134.5 L 454 142.5 L 450 155.5 L 442 170.5 L 431 181.5 L 431 183.5 L 440 217.5 L 444 239.5 L 445 252.5 L 446 253.5 L 446 263.5 L 447 264.5 L 447 298.5 Q 438.7 346.2 417 380.5 L 417 466 L 433.5 467 L 441 472.5 Q 444.3 478.3 443 488.5 L 439.5 498 L 419.5 502 L 404.5 502 L 397.5 500 L 390.5 500 L 381.5 502 L 223.5 502 L 222.5 501 L 199.5 501 Q 198.2 503.3 193.5 502 L 192.5 501 L 175.5 501 L 174.5 500 L 160.5 499 L 128.5 490 Q 98.1 477.9 79 454.5 Q 68.4 441.6 62 424.5 L 58 409.5 L 57 390.5 L 58 389.5 L 59 377.5 L 63 365.5 L 70 352.5 L 78 342 L 86.5 335 L 100.5 327 L 107.5 325 L 118.5 325 Q 125.5 326.5 129 331.5 L 132 338.5 L 132 343.5 Q 129 357 122 366.5 L 118 379.5 Q 119.3 384.2 117 385.5 L 117 404.5 L 122 422.5 L 135 442 L 155.5 455 L 173 459 Q 165.9 445.6 161 428.5 L 158 412.5 L 158 405.5 L 157 404.5 L 156 378.5 L 157 377.5 L 158 356.5 L 161 340.5 L 170 311.5 Q 184.3 277.8 210.5 256 L 226.5 244 L 257.5 226 L 279 206.5 L 288 194.5 L 288 192.5 Q 276.8 178.7 270 160.5 L 238 127.5 L 237 120.5 L 238 118 L 240.5 117 L 274.5 117 L 276 115.5 Q 285.4 94.9 301.5 81 L 326.5 61 L 347.5 50 L 354.5 48 L 357 45.5 L 360 19.5 L 361 14.5 L 363.5 11 L 365.5 10 Z M 367 14 L 364 19 L 364 25 L 363 26 L 360 50 Q 329 60 309 80 Q 290 96 278 120 L 277 121 L 242 121 L 240 123 L 272 157 Q 284 185 304 206 L 303 208 L 300 207 L 291 197 L 284 207 Q 273 220 259 230 L 228 248 L 210 262 Q 186 283 173 315 L 164 345 L 162 363 L 161 364 L 161 375 L 160 376 L 161 406 L 165 429 Q 173 457 191 477 L 207 491 Q 213 496 223 498 L 351 498 L 350 497 L 341 484 L 335 465 L 335 461 L 298 461 L 296 458 L 307 449 Q 319 438 327 424 L 322 395 L 322 389 L 321 388 L 321 382 L 320 381 L 317 350 L 314 346 L 293 326 Q 290 327 291 325 Q 289 323 292 322 L 297 324 L 308 333 L 316 341 L 313 315 L 316 313 L 318 319 L 318 328 L 319 329 L 319 338 L 320 339 L 322 364 L 323 365 L 323 373 L 324 374 L 325 388 L 326 389 L 326 395 L 327 396 L 327 402 L 332 427 L 332 432 L 341 472 L 349 491 L 355 495 L 367 498 L 383 498 L 399 495 L 401 492 Q 400 486 402 485 L 400 475 L 397 471 L 378 470 L 376 469 L 378 424 L 379 423 L 381 380 L 382 379 L 384 336 L 385 335 L 385 322 L 386 321 L 386 307 L 387 300 L 391 302 L 390 320 L 389 321 L 389 335 L 388 336 L 388 350 L 387 351 L 387 364 L 386 365 L 386 379 L 385 380 L 385 394 L 384 395 L 384 408 L 383 409 L 384 416 L 386 415 L 405 394 Q 418 375 427 354 Q 436 334 441 312 L 442 301 L 443 300 L 443 285 L 444 284 L 443 281 L 443 262 L 442 261 L 440 239 L 433 204 L 428 185 L 424 188 L 420 187 L 421 184 L 432 176 Q 440 169 445 158 L 449 147 L 451 136 L 451 123 Q 449 121 450 116 L 449 114 L 429 122 Q 424 124 425 120 L 429 117 L 448 110 Q 447 101 442 95 Q 443 92 441 93 L 421 115 L 418 114 L 421 109 L 439 90 L 433 81 L 405 55 L 371 17 Q 371 13 367 14 Z M 108 329 Q 95 333 87 340 Q 77 348 71 359 L 64 375 L 61 390 L 61 403 L 65 422 Q 72 442 86 457 Q 102 474 125 484 L 144 491 L 175 497 L 208 497 L 202 492 Q 187 481 178 466 L 176 463 L 166 462 L 153 458 L 137 448 Q 126 440 120 428 L 116 418 L 113 403 L 113 387 L 115 376 L 128 345 L 127 336 Q 123 327 108 329 Z M 413 389 L 400 407 Q 394 415 385 420 L 382 424 L 380 466 L 397 467 L 401 469 L 405 476 Q 404 481 406 483 L 404 496 Q 402 497 405 498 L 421 498 L 437 495 L 439 490 Q 441 478 437 474 L 434 471 L 415 470 L 413 469 L 413 389 Z M 328 430 Q 318 446 304 457 L 333 457 Q 333 446 329 438 L 329 433 L 328 430 Z " /><path fill="rgb(103,103,105)" stroke="rgb(103,103,105)" stroke-width="1" opacity="0.9686274509803922" d="M 134.5 49 Q 149.3 48.2 155 56.5 Q 160.3 61.7 160 72.5 Q 158.5 82 152.5 87 L 142.5 92 L 135 92 L 135 107.5 L 131 108 L 131 88.5 L 132.5 87 L 141.5 88 Q 149.1 86.2 153 80.5 Q 156.9 76.4 156 67.5 Q 154.2 59.9 148.5 56 Q 144.1 52 134.5 53 Q 126.6 55.1 123 61.5 L 121 67 Q 116.1 68.8 118 62.5 L 125.5 53 L 134.5 49 Z " /><path fill="rgb(103,103,105)" stroke="rgb(103,103,105)" stroke-width="1" opacity="0.9686274509803922" d="M 392.5 71 Q 398.1 71.5 400 75.5 L 399 81 L 394.5 82 L 390 78.5 Q 388.8 72.3 392.5 71 Z " /><path fill="rgb(103,103,105)" stroke="rgb(103,103,105)" stroke-width="1" opacity="0.9686274509803922" d="M 382.5 112 L 385.5 112 L 390 116.5 Q 392.9 120.1 392 127.5 L 397.5 134 L 402.5 135 L 409.5 130 L 411 132.5 Q 408 139.3 399 139 Q 398.4 146.9 391.5 150 L 389 148.5 Q 387.9 145.2 390.5 146 Q 394.9 143.9 395 137.5 L 388.5 130 Q 378.6 129.4 375 122.5 L 375 118.5 L 380.5 113 L 382.5 112 Z " /><path fill="rgb(103,103,105)" stroke="rgb(103,103,105)" stroke-width="1" opacity="0.9686274509803922" d="M 132.5 114 L 135 115.5 Q 136 120 133.5 121 L 131 119.5 Q 130 115 132.5 114 Z " /><path fill="rgb(103,103,105)" stroke="rgb(103,103,105)" stroke-width="1" opacity="0.9686274509803922" d="M 336.5 119 Q 342.8 117.8 344 121.5 L 345 124.5 L 342.5 129 Q 336.7 129.8 335 126.5 L 334 122.5 L 336.5 119 Z " /><path fill="rgb(103,103,105)" stroke="rgb(103,103,105)" stroke-width="1" opacity="0.9686274509803922" d="M 372.5 150 L 376 151.5 L 374.5 154 L 343.5 167 L 342 163 L 372.5 150 Z " /><path fill="rgb(103,103,105)" stroke="rgb(103,103,105)" stroke-width="1" opacity="0.9686274509803922" d="M 379.5 159 Q 383.7 157.7 382 162.5 L 361.5 182 L 356.5 185 L 355 182.5 L 379.5 159 Z " /><path fill="rgb(0,0,0)" stroke="rgb(0,0,0)" stroke-width="1" opacity="0" d="M 0 0 L 512 0 L 512 512 L 0 512 L 0 0 Z M 127 10 L 105 16 L 86 27 Q 65 42 59 72 L 59 90 L 61 99 Q 65 112 73 122 Q 91 145 127 151 L 152 151 L 157 150 Q 174 146 187 137 L 221 149 L 225 149 L 224 144 L 208 117 Q 215 106 218 92 L 218 70 L 216 62 Q 211 45 200 35 Q 186 20 165 13 L 151 10 L 127 10 Z M 364 10 L 360 16 L 356 47 Q 340 50 329 59 L 302 80 Q 285 95 275 116 L 241 116 L 239 117 L 236 121 L 237 128 L 269 161 Q 276 179 287 193 L 287 195 L 278 207 L 258 225 L 224 245 L 211 255 Q 186 276 171 308 L 160 342 L 157 359 L 157 367 L 156 368 L 156 402 L 157 403 L 157 411 L 159 418 L 159 423 Q 163 443 172 458 Q 153 456 142 446 Q 129 436 122 421 L 118 407 L 118 397 L 117 396 L 120 375 L 132 348 Q 134 336 130 332 L 126 327 L 117 324 L 110 324 L 99 327 L 81 339 Q 62 355 57 385 L 57 408 L 59 418 Q 65 439 78 455 Q 97 478 127 490 L 153 498 L 170 501 L 179 501 L 180 502 L 214 502 L 215 501 L 220 502 L 388 502 L 394 500 L 401 502 L 425 502 L 441 498 L 442 497 L 443 486 L 444 485 L 442 473 Q 439 468 433 466 L 420 466 L 418 465 L 418 381 L 427 365 L 437 341 L 446 310 L 447 296 L 448 295 L 448 269 L 447 268 L 447 257 L 446 256 L 445 242 L 439 210 L 432 185 L 432 182 Q 441 175 446 166 L 452 153 L 455 140 L 455 119 L 454 118 L 455 109 L 452 107 Q 450 97 445 91 L 447 86 Q 446 83 442 84 L 439 81 Q 424 63 406 50 L 378 18 L 371 10 L 364 10 Z " /><path fill="rgb(234,234,234)" stroke="rgb(234,234,234)" stroke-width="1" opacity="1" d="M 366.5 15 Q 370.5 14.5 371 17.5 L 394 45.5 L 404.5 56 L 433 81.5 L 438 89.5 L 421 107.5 Q 417.1 109.6 418 115 L 421.5 115 L 429 107.5 L 440.5 94 Q 442.8 93.3 442 95.5 L 447 108.5 L 424 119.5 L 425.5 123 L 448.5 114 L 450 118.5 L 450 139.5 Q 445.8 163.3 430.5 176 L 420 184 Q 419 187.8 421.5 189 Q 426 189.5 426.5 186 L 429 190.5 L 434 210.5 L 441 248.5 L 442 268.5 L 443 269.5 L 443 294.5 L 437 324.5 L 425 356.5 Q 416.1 376.6 404 393.5 L 384.5 415 L 384 402.5 L 385 401.5 L 385 387.5 L 386 386.5 L 386 372.5 L 387 371.5 L 387 358.5 L 388 357.5 L 391 300.5 L 387.5 299 L 386 300.5 L 386 312.5 L 385 313.5 L 385 327.5 L 384 328.5 L 384 341.5 L 383 342.5 L 383 356.5 L 382 357.5 L 382 371.5 L 381 372.5 L 381 385.5 L 380 386.5 L 380 400.5 L 379 401.5 L 379 415.5 L 378 416.5 L 378 429.5 L 377 430.5 L 377 444.5 L 376 445.5 L 375 470 L 381.5 470 L 382.5 471 L 394.5 471 L 400 475.5 Q 402.2 480.3 401 488.5 L 400 494 L 386.5 497 L 375.5 497 L 373.5 498 L 372.5 497 L 363.5 497 L 353.5 494 L 349 489.5 L 341 469.5 L 334 439.5 L 334 434.5 L 332 428.5 L 329 404.5 L 327 397.5 L 326 384.5 L 325 383.5 L 318 314.5 L 316.5 313 L 313 313.5 L 313 323.5 L 314 324.5 L 315 338.5 L 308.5 333 L 296.5 323 L 291.5 321 Q 289 322.2 290 326 Q 303.7 334 314 346.5 L 317 352.5 L 317 360.5 L 318 361.5 L 320 384.5 L 326 418.5 L 326 424.5 Q 317.5 438.5 305.5 449 L 295 457.5 L 296.5 461 L 333.5 461 L 334 462.5 L 339 480 L 238.5 480 L 224.5 474 L 205 455.5 Q 189.8 437.7 182 412.5 L 177 385.5 L 176 359.5 L 177 358.5 L 177 344.5 L 178 343.5 L 180 325.5 L 189 295.5 L 202 270.5 L 210.5 262 L 233.5 245 L 259.5 230 L 284 207.5 L 290.5 198 L 298.5 207 L 302.5 209 Q 304.8 208.3 304 204.5 Q 283.9 185.1 273 156.5 L 241 122.5 L 242.5 121 L 277.5 121 L 279 119.5 Q 290.3 95.8 309.5 80 Q 329.9 60 360 51 L 362 42.5 L 365 16.5 L 366.5 15 Z M 392 71 L 389 74 L 390 80 Q 392 84 399 82 Q 401 81 400 75 Q 399 70 392 71 Z M 382 112 L 380 113 L 374 120 L 375 124 Q 378 130 388 130 Q 394 133 394 142 L 389 145 L 388 149 Q 389 151 393 150 Q 399 147 399 139 L 407 138 Q 412 136 411 130 L 408 130 L 403 134 L 399 134 L 394 129 Q 390 127 393 126 L 390 116 Q 389 111 382 112 Z M 337 118 L 334 121 L 335 128 L 340 130 L 344 129 L 345 127 L 344 121 Q 342 117 337 118 Z M 374 149 L 341 164 L 343 167 L 349 166 L 375 155 Q 377 154 376 151 L 374 149 Z M 381 158 L 367 170 L 355 182 L 355 185 Q 360 186 363 182 L 379 167 Q 384 165 383 159 L 381 158 Z " /><path fill="rgb(234,234,234)" stroke="rgb(234,234,234)" stroke-width="1" opacity="1" d="M 116.5 330 Q 123.8 330.3 126 335.5 Q 128.5 339 127 346.5 L 119 364 L 113.5 363 L 101.5 363 L 85.5 367 L 86 365.5 L 92 352.5 L 100 342 L 116.5 330 Z " /><path fill="rgb(234,234,234)" stroke="rgb(234,234,234)" stroke-width="1" opacity="1" d="M 99.5 383 L 113 383 L 113 406.5 L 115 412.5 L 99 424.5 L 90.5 435 L 82 415.5 L 80 405.5 L 80 391 L 91.5 385 L 99.5 383 Z " /><path fill="rgb(234,234,234)" stroke="rgb(234,234,234)" stroke-width="1" opacity="1" d="M 412.5 390 L 413 470 L 419.5 471 L 431.5 471 L 437 474.5 L 439 484.5 L 437 494 L 424.5 497 L 413.5 497 L 411.5 498 L 410.5 497 L 404 497 L 406 489.5 L 406 477.5 L 400.5 468 L 395.5 466 L 382.5 466 L 380 465 L 381 459.5 L 381 446.5 L 382 445.5 L 382 431.5 L 383 430.5 L 383 422.5 L 384.5 421 L 400 407.5 L 412.5 390 Z " /><path fill="rgb(234,234,234)" stroke="rgb(234,234,234)" stroke-width="1" opacity="1" d="M 121.5 432 Q 123.8 431.3 123 433.5 L 136.5 449 L 142 452.5 L 137 467.5 L 136.5 480 Q 117.2 470.3 104 454.5 L 107 446.5 L 114 437 L 121.5 432 Z " /><path fill="rgb(234,234,234)" stroke="rgb(234,234,234)" stroke-width="1" opacity="1" d="M 327.5 432 L 333 455.5 L 306.5 456 L 322 439.5 L 327.5 432 Z " /><path fill="rgb(234,234,234)" stroke="rgb(234,234,234)" stroke-width="1" opacity="1" d="M 160.5 461 L 167.5 463 L 176 463 Q 185 480.1 200.5 492 L 207 496.5 L 193.5 497 L 192.5 496 L 174.5 494 L 157 489 L 156 483.5 L 156 474.5 Q 158.2 473.3 157 468.5 L 160.5 461 Z " /></svg>