<svg width="512" height="512" version="1.1" xmlns="http://www.w3.org/2000/svg" desc="Created with imagetracer.js version 1.2.6" ><path fill="rgb(249,231,119)" stroke="rgb(249,231,119)" stroke-width="1" opacity="1" d="M 335.5 15 Q 340.3 14.3 341 17.5 L 341 20.5 L 336.5 29 L 330 26 Q 330.6 18.7 335.5 15 Z " /><path fill="rgb(249,231,119)" stroke="rgb(249,231,119)" stroke-width="1" opacity="1" d="M 320.5 29 Q 334.4 28.6 339 37.5 L 344 47.5 L 347 60.5 L 348 88.5 L 347 89.5 L 346 109.5 L 341 137.5 L 328.5 180 Q 318.6 160.4 302.5 147 Q 289.4 135.6 271.5 129 L 251.5 124 L 232.5 123 L 231.5 124 L 222.5 124 L 216.5 126 L 216 124.5 Q 237.3 91.3 264.5 64 L 293.5 40 Q 304.2 31.7 320.5 29 Z " /><path fill="rgb(249,231,119)" stroke="rgb(249,231,119)" stroke-width="1" opacity="1" d="M 275 136 L 283 139.5 L 222.5 263 L 216 261 L 222 245.5 L 272 144.5 L 275 136 Z " /><path fill="rgb(249,231,119)" stroke="rgb(249,231,119)" stroke-width="1" opacity="1" d="M 167.5 266 L 172 267 L 173 271.5 L 168 283 L 160 285 Q 159.9 272.4 167.5 266 Z " /><path fill="rgb(249,231,119)" stroke="rgb(249,231,119)" stroke-width="1" opacity="1" d="M 197.5 296 L 204 301.5 Q 197.3 309.5 185 311 L 185 304.5 L 184 303.5 L 193.5 300 L 197.5 296 Z " /><path fill="rgb(112,181,118)" stroke="rgb(112,181,118)" stroke-width="1" opacity="1" d="M 245.5 14 L 269.5 14 L 270.5 15 L 286.5 16 L 310.5 22 L 318 25.5 L 308.5 28 L 292.5 36 Q 272.8 48.8 257 65.5 Q 231.6 92.1 211.5 124 Q 200.6 102.4 182.5 88 Q 164.1 72.4 135 67.5 L 139.5 62 Q 160.5 41 189.5 28 L 215.5 19 L 236.5 15 L 244.5 15 L 245.5 14 Z " /><path fill="rgb(112,181,118)" stroke="rgb(112,181,118)" stroke-width="1" opacity="1" d="M 335.5 14 L 338 14.5 L 333.5 17 L 335.5 14 Z " /><path fill="rgb(112,181,118)" stroke="rgb(112,181,118)" stroke-width="1" opacity="1" d="M 339.5 15 L 340.5 17 L 339.5 15 Z " /><path fill="rgb(112,181,118)" stroke="rgb(112,181,118)" stroke-width="1" opacity="1" d="M 317.5 29 L 320 29.5 L 317.5 30 L 317.5 29 Z " /><path fill="rgb(112,181,118)" stroke="rgb(112,181,118)" stroke-width="1" opacity="1" d="M 325.5 29 L 328 29.5 L 325.5 30 L 325.5 29 Z " /><path fill="rgb(112,181,118)" stroke="rgb(112,181,118)" stroke-width="1" opacity="1" d="M 344.5 38 Q 367.2 51.3 384 70.5 Q 404.9 94.1 417 126.5 L 422 143.5 L 425 159.5 L 425 167.5 L 426 168.5 L 426 196.5 L 425 197.5 L 425 205.5 L 423.5 208 Q 410.2 194.3 390.5 187 L 377.5 183 L 366.5 182 L 365.5 181 L 343.5 181 L 332 183 L 340 158.5 L 348 124.5 L 350 104.5 L 351 103.5 L 351 93.5 L 352 92.5 L 352 71.5 L 351 70.5 L 350 55.5 L 344.5 38 Z " /><path fill="rgb(112,181,118)" stroke="rgb(112,181,118)" stroke-width="1" opacity="1" d="M 288.5 43 L 287.5 45 L 288.5 43 Z " /><path fill="rgb(112,181,118)" stroke="rgb(112,181,118)" stroke-width="1" opacity="1" d="M 279.5 50 L 277.5 53 L 279.5 50 Z " /><path fill="rgb(112,181,118)" stroke="rgb(112,181,118)" stroke-width="1" opacity="1" d="M 272.5 56 L 265.5 64 L 272.5 56 Z " /><path fill="rgb(112,181,118)" stroke="rgb(112,181,118)" stroke-width="1" opacity="1" d="M 347.5 65 L 348 69.5 L 347 69.5 L 347.5 65 Z " /><path fill="rgb(112,181,118)" stroke="rgb(112,181,118)" stroke-width="1" opacity="1" d="M 262.5 66 L 254.5 75 L 262.5 66 Z " /><path fill="rgb(112,181,118)" stroke="rgb(112,181,118)" stroke-width="1" opacity="1" d="M 248.5 81 L 246.5 84 L 248.5 81 Z " /><path fill="rgb(112,181,118)" stroke="rgb(112,181,118)" stroke-width="1" opacity="1" d="M 243.5 87 L 241.5 90 L 243.5 87 Z " /><path fill="rgb(112,181,118)" stroke="rgb(112,181,118)" stroke-width="1" opacity="1" d="M 347.5 89 L 348 95.5 L 347 95.5 L 347.5 89 Z " /><path fill="rgb(112,181,118)" stroke="rgb(112,181,118)" stroke-width="1" opacity="1" d="M 238.5 93 L 237.5 95 L 238.5 93 Z " /><path fill="rgb(112,181,118)" stroke="rgb(112,181,118)" stroke-width="1" opacity="1" d="M 235.5 97 L 234.5 99 L 235.5 97 Z " /><path fill="rgb(112,181,118)" stroke="rgb(112,181,118)" stroke-width="1" opacity="1" d="M 111.5 98 L 112.5 100 L 111.5 98 Z " /><path fill="rgb(112,181,118)" stroke="rgb(112,181,118)" stroke-width="1" opacity="1" d="M 106.5 99 L 107 144.5 L 106 144.5 L 106.5 99 Z " /><path fill="rgb(112,181,118)" stroke="rgb(112,181,118)" stroke-width="1" opacity="1" d="M 116.5 102 L 117.5 104 L 116.5 102 Z " /><path fill="rgb(112,181,118)" stroke="rgb(112,181,118)" stroke-width="1" opacity="1" d="M 346.5 102 L 347 105.5 L 346 105.5 L 346.5 102 Z " /><path fill="rgb(112,181,118)" stroke="rgb(112,181,118)" stroke-width="1" opacity="1" d="M 229.5 105 L 228.5 107 L 229.5 105 Z " /><path fill="rgb(112,181,118)" stroke="rgb(112,181,118)" stroke-width="1" opacity="1" d="M 121.5 106 L 123.5 109 L 121.5 106 Z " /><path fill="rgb(112,181,118)" stroke="rgb(112,181,118)" stroke-width="1" opacity="1" d="M 172.5 109 L 178 109.5 L 172.5 110 L 172.5 109 Z " /><path fill="rgb(112,181,118)" stroke="rgb(112,181,118)" stroke-width="1" opacity="1" d="M 126.5 110 L 128.5 113 L 126.5 110 Z " /><path fill="rgb(112,181,118)" stroke="rgb(112,181,118)" stroke-width="1" opacity="1" d="M 164.5 110 L 167 110.5 L 164.5 111 L 164.5 110 Z " /><path fill="rgb(112,181,118)" stroke="rgb(112,181,118)" stroke-width="1" opacity="1" d="M 345.5 110 L 346 112.5 L 345 112.5 L 345.5 110 Z " /><path fill="rgb(112,181,118)" stroke="rgb(112,181,118)" stroke-width="1" opacity="1" d="M 199.5 112 L 200.5 114 L 199.5 112 Z " /><path fill="rgb(112,181,118)" stroke="rgb(112,181,118)" stroke-width="1" opacity="1" d="M 131.5 114 L 133.5 117 L 131.5 114 Z " /><path fill="rgb(112,181,118)" stroke="rgb(112,181,118)" stroke-width="1" opacity="1" d="M 201.5 115 L 202.5 117 L 201.5 115 Z " /><path fill="rgb(112,181,118)" stroke="rgb(112,181,118)" stroke-width="1" opacity="1" d="M 232.5 123 L 241 123.5 L 232.5 124 L 232.5 123 Z " /><path fill="rgb(112,181,118)" stroke="rgb(112,181,118)" stroke-width="1" opacity="1" d="M 222.5 124 L 225 124.5 L 222.5 125 L 222.5 124 Z " /><path fill="rgb(112,181,118)" stroke="rgb(112,181,118)" stroke-width="1" opacity="1" d="M 248.5 124 L 252 124.5 L 248.5 125 L 248.5 124 Z " /><path fill="rgb(112,181,118)" stroke="rgb(112,181,118)" stroke-width="1" opacity="1" d="M 255.5 125 L 258 125.5 L 255.5 126 L 255.5 125 Z " /><path fill="rgb(112,181,118)" stroke="rgb(112,181,118)" stroke-width="1" opacity="1" d="M 233.5 127 L 241 127.5 L 233.5 128 L 233.5 127 Z " /><path fill="rgb(112,181,118)" stroke="rgb(112,181,118)" stroke-width="1" opacity="1" d="M 223.5 128 L 226 128.5 L 223.5 129 L 223.5 128 Z " /><path fill="rgb(112,181,118)" stroke="rgb(112,181,118)" stroke-width="1" opacity="1" d="M 248.5 128 L 251 128.5 L 248.5 129 L 248.5 128 Z " /><path fill="rgb(112,181,118)" stroke="rgb(112,181,118)" stroke-width="1" opacity="1" d="M 297.5 143 L 298.5 145 L 297.5 143 Z " /><path fill="rgb(112,181,118)" stroke="rgb(112,181,118)" stroke-width="1" opacity="1" d="M 105.5 147 L 106 149.5 L 105 149.5 L 105.5 147 Z " /><path fill="rgb(112,181,118)" stroke="rgb(112,181,118)" stroke-width="1" opacity="1" d="M 302.5 147 L 304.5 150 L 302.5 147 Z " /><path fill="rgb(112,181,118)" stroke="rgb(112,181,118)" stroke-width="1" opacity="1" d="M 150.5 152 L 153 152.5 L 150.5 153 L 150.5 152 Z " /><path fill="rgb(112,181,118)" stroke="rgb(112,181,118)" stroke-width="1" opacity="1" d="M 228.5 152 L 231 152.5 L 228.5 153 L 228.5 152 Z " /><path fill="rgb(112,181,118)" stroke="rgb(112,181,118)" stroke-width="1" opacity="1" d="M 154.5 153 L 155.5 155 L 154.5 153 Z " /><path fill="rgb(112,181,118)" stroke="rgb(112,181,118)" stroke-width="1" opacity="1" d="M 226.5 153 L 225.5 155 L 226.5 153 Z " /><path fill="rgb(112,181,118)" stroke="rgb(112,181,118)" stroke-width="1" opacity="1" d="M 232.5 153 L 233.5 155 L 232.5 153 Z " /><path fill="rgb(112,181,118)" stroke="rgb(112,181,118)" stroke-width="1" opacity="1" d="M 224.5 156 L 225 158.5 L 224 158.5 L 224.5 156 Z " /><path fill="rgb(112,181,118)" stroke="rgb(112,181,118)" stroke-width="1" opacity="1" d="M 234.5 156 L 235 158.5 L 234 158.5 L 234.5 156 Z " /><path fill="rgb(112,181,118)" stroke="rgb(112,181,118)" stroke-width="1" opacity="1" d="M 312.5 157 L 314.5 160 L 312.5 157 Z " /><path fill="rgb(112,181,118)" stroke="rgb(112,181,118)" stroke-width="1" opacity="1" d="M 103.5 159 L 104 161.5 L 103 161.5 L 103.5 159 Z " /><path fill="rgb(112,181,118)" stroke="rgb(112,181,118)" stroke-width="1" opacity="1" d="M 155.5 160 L 154.5 162 L 155.5 160 Z " /><path fill="rgb(112,181,118)" stroke="rgb(112,181,118)" stroke-width="1" opacity="1" d="M 225.5 160 L 226.5 162 L 225.5 160 Z " /><path fill="rgb(112,181,118)" stroke="rgb(112,181,118)" stroke-width="1" opacity="1" d="M 233.5 160 L 232.5 162 L 233.5 160 Z " /><path fill="rgb(112,181,118)" stroke="rgb(112,181,118)" stroke-width="1" opacity="1" d="M 150.5 162 L 153 162.5 L 150.5 163 L 150.5 162 Z " /><path fill="rgb(112,181,118)" stroke="rgb(112,181,118)" stroke-width="1" opacity="1" d="M 228.5 162 L 231 162.5 L 228.5 163 L 228.5 162 Z " /><path fill="rgb(112,181,118)" stroke="rgb(112,181,118)" stroke-width="1" opacity="1" d="M 317.5 163 L 318.5 165 L 317.5 163 Z " /><path fill="rgb(112,181,118)" stroke="rgb(112,181,118)" stroke-width="1" opacity="1" d="M 102.5 166 L 103 168.5 L 102 168.5 L 102.5 166 Z " /><path fill="rgb(112,181,118)" stroke="rgb(112,181,118)" stroke-width="1" opacity="1" d="M 276.5 167 L 277 171.5 L 276 171.5 L 276.5 167 Z " /><path fill="rgb(112,181,118)" stroke="rgb(112,181,118)" stroke-width="1" opacity="1" d="M 101.5 174 L 102 188.5 L 101 188.5 L 101.5 174 Z " /><path fill="rgb(112,181,118)" stroke="rgb(112,181,118)" stroke-width="1" opacity="1" d="M 186.5 174 L 193 174.5 L 186.5 175 L 186.5 174 Z " /><path fill="rgb(112,181,118)" stroke="rgb(112,181,118)" stroke-width="1" opacity="1" d="M 183.5 175 L 182 177.5 L 181.5 179 L 181 177.5 L 183.5 175 Z " /><path fill="rgb(112,181,118)" stroke="rgb(112,181,118)" stroke-width="1" opacity="1" d="M 195.5 175 L 196.5 177 L 195.5 175 Z " /><path fill="rgb(112,181,118)" stroke="rgb(112,181,118)" stroke-width="1" opacity="1" d="M 277.5 177 L 278 185.5 L 277 185.5 L 277.5 177 Z " /><path fill="rgb(112,181,118)" stroke="rgb(112,181,118)" stroke-width="1" opacity="1" d="M 197.5 178 L 198 181.5 L 197 181.5 L 197.5 178 Z " /><path fill="rgb(112,181,118)" stroke="rgb(112,181,118)" stroke-width="1" opacity="1" d="M 327.5 179 L 328.5 181 L 327.5 179 Z " /><path fill="rgb(112,181,118)" stroke="rgb(112,181,118)" stroke-width="1" opacity="1" d="M 181.5 180 L 182 182.5 L 181 182.5 L 181.5 180 Z " /><path fill="rgb(112,181,118)" stroke="rgb(112,181,118)" stroke-width="1" opacity="1" d="M 192.5 189 L 191.5 191 L 192.5 189 Z " /><path fill="rgb(112,181,118)" stroke="rgb(112,181,118)" stroke-width="1" opacity="1" d="M 134.5 190 L 134 191.5 L 135 193.5 L 133 192.5 L 134.5 190 Z " /><path fill="rgb(112,181,118)" stroke="rgb(112,181,118)" stroke-width="1" opacity="1" d="M 187.5 190 L 188 195.5 L 187 195.5 L 187.5 190 Z " /><path fill="rgb(112,181,118)" stroke="rgb(112,181,118)" stroke-width="1" opacity="1" d="M 276.5 191 L 277 193.5 L 276 193.5 L 276.5 191 Z " /><path fill="rgb(112,181,118)" stroke="rgb(112,181,118)" stroke-width="1" opacity="1" d="M 191.5 196 L 192 198.5 L 191 198.5 L 191.5 196 Z " /><path fill="rgb(112,181,118)" stroke="rgb(112,181,118)" stroke-width="1" opacity="1" d="M 217.5 198 L 218 200 L 221 200.5 L 218.5 201 L 217.5 198 Z " /><path fill="rgb(112,181,118)" stroke="rgb(112,181,118)" stroke-width="1" opacity="1" d="M 158.5 200 L 161 200.5 L 158.5 201 L 158.5 200 Z " /><path fill="rgb(112,181,118)" stroke="rgb(112,181,118)" stroke-width="1" opacity="1" d="M 189.5 202 L 191.5 205 L 189.5 202 Z " /><path fill="rgb(112,181,118)" stroke="rgb(112,181,118)" stroke-width="1" opacity="1" d="M 174.5 204 L 175.5 206 L 174.5 204 Z " /><path fill="rgb(112,181,118)" stroke="rgb(112,181,118)" stroke-width="1" opacity="1" d="M 154.5 207 L 157 207.5 L 154.5 208 L 154.5 207 Z " /><path fill="rgb(112,181,118)" stroke="rgb(112,181,118)" stroke-width="1" opacity="1" d="M 221.5 207 L 224 207.5 L 221.5 208 L 221.5 207 Z " /><path fill="rgb(112,181,118)" stroke="rgb(112,181,118)" stroke-width="1" opacity="1" d="M 147.5 208 L 150 208.5 L 147.5 209 L 147.5 208 Z " /><path fill="rgb(112,181,118)" stroke="rgb(112,181,118)" stroke-width="1" opacity="1" d="M 217.5 208 L 219 210.5 L 217 209.5 L 217.5 208 Z " /><path fill="rgb(112,181,118)" stroke="rgb(112,181,118)" stroke-width="1" opacity="1" d="M 228.5 208 L 232 208.5 L 228.5 209 L 228.5 208 Z " /><path fill="rgb(112,181,118)" stroke="rgb(112,181,118)" stroke-width="1" opacity="1" d="M 140.5 209 L 143 209.5 L 140.5 210 L 140.5 209 Z " /><path fill="rgb(112,181,118)" stroke="rgb(112,181,118)" stroke-width="1" opacity="1" d="M 153.5 211 L 156 211.5 L 153.5 212 L 153.5 211 Z " /><path fill="rgb(112,181,118)" stroke="rgb(112,181,118)" stroke-width="1" opacity="1" d="M 223.5 211 L 226 211.5 L 223.5 212 L 223.5 211 Z " /><path fill="rgb(112,181,118)" stroke="rgb(112,181,118)" stroke-width="1" opacity="1" d="M 146.5 212 L 149 212.5 L 146.5 213 L 146.5 212 Z " /><path fill="rgb(112,181,118)" stroke="rgb(112,181,118)" stroke-width="1" opacity="1" d="M 230.5 212 L 234 213.5 L 232.5 213 Q 229.5 213.5 230.5 212 Z " /><path fill="rgb(112,181,118)" stroke="rgb(112,181,118)" stroke-width="1" opacity="1" d="M 139.5 213 L 142 213.5 L 139.5 214 L 139.5 213 Z " /><path fill="rgb(112,181,118)" stroke="rgb(112,181,118)" stroke-width="1" opacity="1" d="M 267.5 216 L 266.5 218 L 267.5 216 Z " /><path fill="rgb(112,181,118)" stroke="rgb(112,181,118)" stroke-width="1" opacity="1" d="M 265.5 219 L 264.5 221 L 265.5 219 Z " /><path fill="rgb(112,181,118)" stroke="rgb(112,181,118)" stroke-width="1" opacity="1" d="M 116.5 223 L 124.5 232 L 116.5 223 Z " /><path fill="rgb(112,181,118)" stroke="rgb(112,181,118)" stroke-width="1" opacity="1" d="M 261.5 224 L 255.5 231 L 261.5 224 Z " /><path fill="rgb(112,181,118)" stroke="rgb(112,181,118)" stroke-width="1" opacity="1" d="M 127.5 233 L 128.5 235 L 127.5 233 Z " /><path fill="rgb(112,181,118)" stroke="rgb(112,181,118)" stroke-width="1" opacity="1" d="M 248.5 235 L 247 237.5 L 248 239.5 L 246 238.5 L 248.5 235 Z " /><path fill="rgb(112,181,118)" stroke="rgb(112,181,118)" stroke-width="1" opacity="1" d="M 126.5 237 L 127.5 239 L 126.5 237 Z " /><path fill="rgb(112,181,118)" stroke="rgb(112,181,118)" stroke-width="1" opacity="1" d="M 167.5 262 L 170 262.5 L 167.5 263 L 167.5 262 Z " /><path fill="rgb(112,181,118)" stroke="rgb(112,181,118)" stroke-width="1" opacity="1" d="M 223.5 262 L 222.5 264 L 223.5 262 Z " /><path fill="rgb(112,181,118)" stroke="rgb(112,181,118)" stroke-width="1" opacity="1" d="M 164.5 263 L 161.5 267 L 164.5 263 Z " /><path fill="rgb(112,181,118)" stroke="rgb(112,181,118)" stroke-width="1" opacity="1" d="M 213.5 264 L 216 264.5 L 213.5 265 L 213.5 264 Z " /><path fill="rgb(112,181,118)" stroke="rgb(112,181,118)" stroke-width="1" opacity="1" d="M 211.5 265 L 207.5 270 L 211.5 265 Z " /><path fill="rgb(112,181,118)" stroke="rgb(112,181,118)" stroke-width="1" opacity="1" d="M 166.5 266 L 165.5 268 L 166.5 266 Z " /><path fill="rgb(112,181,118)" stroke="rgb(112,181,118)" stroke-width="1" opacity="1" d="M 205.5 266 L 203.5 269 L 205.5 266 Z " /><path fill="rgb(112,181,118)" stroke="rgb(112,181,118)" stroke-width="1" opacity="1" d="M 176.5 268 L 177 272.5 L 176 272.5 L 176.5 268 Z " /><path fill="rgb(112,181,118)" stroke="rgb(112,181,118)" stroke-width="1" opacity="1" d="M 222.5 268 L 226.5 273 L 222.5 268 Z " /><path fill="rgb(112,181,118)" stroke="rgb(112,181,118)" stroke-width="1" opacity="1" d="M 228.5 269 L 229.5 271 L 228.5 269 Z " /><path fill="rgb(112,181,118)" stroke="rgb(112,181,118)" stroke-width="1" opacity="1" d="M 205.5 272 L 204.5 274 L 205.5 272 Z " /><path fill="rgb(112,181,118)" stroke="rgb(112,181,118)" stroke-width="1" opacity="1" d="M 231.5 273 L 232.5 275 L 231.5 273 Z " /><path fill="rgb(112,181,118)" stroke="rgb(112,181,118)" stroke-width="1" opacity="1" d="M 234.5 275 L 235.5 277 L 234.5 275 Z " /><path fill="rgb(112,181,118)" stroke="rgb(112,181,118)" stroke-width="1" opacity="1" d="M 242.5 280 L 243.5 282 L 242.5 280 Z " /><path fill="rgb(112,181,118)" stroke="rgb(112,181,118)" stroke-width="1" opacity="1" d="M 159.5 282 L 160 284.5 L 159 284.5 L 159.5 282 Z " /><path fill="rgb(112,181,118)" stroke="rgb(112,181,118)" stroke-width="1" opacity="1" d="M 238.5 282 L 239.5 284 L 238.5 282 Z " /><path fill="rgb(112,181,118)" stroke="rgb(112,181,118)" stroke-width="1" opacity="1" d="M 247.5 283 L 248.5 285 L 247.5 283 Z " /><path fill="rgb(112,181,118)" stroke="rgb(112,181,118)" stroke-width="1" opacity="1" d="M 155.5 284 L 156 286.5 L 154 287.5 L 155.5 284 Z " /><path fill="rgb(112,181,118)" stroke="rgb(112,181,118)" stroke-width="1" opacity="1" d="M 176.5 285 L 177.5 287 L 176.5 285 Z " /><path fill="rgb(112,181,118)" stroke="rgb(112,181,118)" stroke-width="1" opacity="1" d="M 198.5 287 L 199 290.5 L 198 290.5 L 198.5 287 Z " /><path fill="rgb(112,181,118)" stroke="rgb(112,181,118)" stroke-width="1" opacity="1" d="M 178.5 288 L 179.5 290 L 178.5 288 Z " /><path fill="rgb(112,181,118)" stroke="rgb(112,181,118)" stroke-width="1" opacity="1" d="M 143.5 289 L 146 289.5 L 143.5 290 L 143.5 289 Z " /><path fill="rgb(112,181,118)" stroke="rgb(112,181,118)" stroke-width="1" opacity="1" d="M 137.5 290 L 140 290.5 L 137.5 291 L 137.5 290 Z " /><path fill="rgb(112,181,118)" stroke="rgb(112,181,118)" stroke-width="1" opacity="1" d="M 127.5 291 L 132 291.5 L 127.5 292 L 127.5 291 Z " /><path fill="rgb(112,181,118)" stroke="rgb(112,181,118)" stroke-width="1" opacity="1" d="M 119.5 292 L 122 292.5 L 119.5 293 L 119.5 292 Z " /><path fill="rgb(112,181,118)" stroke="rgb(112,181,118)" stroke-width="1" opacity="1" d="M 199.5 292 L 202.5 296 L 199.5 292 Z " /><path fill="rgb(112,181,118)" stroke="rgb(112,181,118)" stroke-width="1" opacity="1" d="M 111.5 293 L 114 293.5 L 111.5 294 L 111.5 293 Z " /><path fill="rgb(112,181,118)" stroke="rgb(112,181,118)" stroke-width="1" opacity="1" d="M 142.5 293 L 145 293.5 L 142.5 294 L 142.5 293 Z " /><path fill="rgb(112,181,118)" stroke="rgb(112,181,118)" stroke-width="1" opacity="1" d="M 194.5 293 L 192.5 296 L 194.5 293 Z " /><path fill="rgb(112,181,118)" stroke="rgb(112,181,118)" stroke-width="1" opacity="1" d="M 135.5 294 L 138 294.5 L 135.5 295 L 135.5 294 Z " /><path fill="rgb(112,181,118)" stroke="rgb(112,181,118)" stroke-width="1" opacity="1" d="M 104.5 295 L 105 297.5 L 104 297.5 L 104.5 295 Z " /><path fill="rgb(112,181,118)" stroke="rgb(112,181,118)" stroke-width="1" opacity="1" d="M 125.5 295 L 129 295.5 L 125.5 296 L 125.5 295 Z " /><path fill="rgb(112,181,118)" stroke="rgb(112,181,118)" stroke-width="1" opacity="1" d="M 117.5 296 L 121 296.5 L 117.5 297 L 117.5 296 Z " /><path fill="rgb(112,181,118)" stroke="rgb(112,181,118)" stroke-width="1" opacity="1" d="M 182.5 296 L 183 298 L 187 298.5 L 183.5 299 L 182.5 296 Z " /><path fill="rgb(112,181,118)" stroke="rgb(112,181,118)" stroke-width="1" opacity="1" d="M 110.5 297 L 113 297.5 L 110.5 298 L 110.5 297 Z " /><path fill="rgb(112,181,118)" stroke="rgb(112,181,118)" stroke-width="1" opacity="1" d="M 180.5 304 L 181 306.5 L 180 306.5 L 180.5 304 Z " /><path fill="rgb(112,181,118)" stroke="rgb(112,181,118)" stroke-width="1" opacity="1" d="M 184.5 304 L 185 307.5 L 184 307.5 L 184.5 304 Z " /><path fill="rgb(112,181,118)" stroke="rgb(112,181,118)" stroke-width="1" opacity="1" d="M 206.5 304 L 202.5 309 L 206.5 304 Z " /><path fill="rgb(112,181,118)" stroke="rgb(112,181,118)" stroke-width="1" opacity="1" d="M 199.5 305 L 198.5 307 L 199.5 305 Z " /><path fill="rgb(112,181,118)" stroke="rgb(112,181,118)" stroke-width="1" opacity="1" d="M 200.5 309 L 199.5 311 L 200.5 309 Z " /><path fill="rgb(112,181,118)" stroke="rgb(112,181,118)" stroke-width="1" opacity="1" d="M 187.5 310 L 190 310.5 L 187.5 311 L 187.5 310 Z " /><path fill="rgb(112,181,118)" stroke="rgb(112,181,118)" stroke-width="1" opacity="1" d="M 230.5 310 L 231.5 312 L 230.5 310 Z " /><path fill="rgb(112,181,118)" stroke="rgb(112,181,118)" stroke-width="1" opacity="1" d="M 233.5 312 L 234.5 314 L 233.5 312 Z " /><path fill="rgb(112,181,118)" stroke="rgb(112,181,118)" stroke-width="1" opacity="1" d="M 185.5 314 L 189 314.5 L 185 315 L 184.5 317 L 184 315.5 L 185.5 314 Z " /><path fill="rgb(112,181,118)" stroke="rgb(112,181,118)" stroke-width="1" opacity="1" d="M 237.5 315 L 238.5 317 L 237.5 315 Z " /><path fill="rgb(112,181,118)" stroke="rgb(112,181,118)" stroke-width="1" opacity="1" d="M 232.5 316 L 233.5 318 L 232.5 316 Z " /><path fill="rgb(112,181,118)" stroke="rgb(112,181,118)" stroke-width="1" opacity="1" d="M 240.5 317 L 241.5 319 L 240.5 317 Z " /><path fill="rgb(112,181,118)" stroke="rgb(112,181,118)" stroke-width="1" opacity="1" d="M 156.5 319 L 159 319.5 L 156.5 320 L 156.5 319 Z " /><path fill="rgb(112,181,118)" stroke="rgb(112,181,118)" stroke-width="1" opacity="1" d="M 166.5 320 L 174 320.5 L 166.5 321 L 166.5 320 Z " /><path fill="rgb(112,181,118)" stroke="rgb(112,181,118)" stroke-width="1" opacity="1" d="M 182.5 320 L 181.5 322 L 182.5 320 Z " /><path fill="rgb(112,181,118)" stroke="rgb(112,181,118)" stroke-width="1" opacity="1" d="M 244.5 320 L 245.5 322 L 244.5 320 Z " /><path fill="rgb(112,181,118)" stroke="rgb(112,181,118)" stroke-width="1" opacity="1" d="M 91.5 321 L 92 323.5 L 91 323.5 L 91.5 321 Z " /><path fill="rgb(112,181,118)" stroke="rgb(112,181,118)" stroke-width="1" opacity="1" d="M 239.5 321 L 240.5 323 L 239.5 321 Z " /><path fill="rgb(112,181,118)" stroke="rgb(112,181,118)" stroke-width="1" opacity="1" d="M 247.5 322 L 248.5 324 L 247.5 322 Z " /><path fill="rgb(112,181,118)" stroke="rgb(112,181,118)" stroke-width="1" opacity="1" d="M 287.5 322 L 288 324.5 L 287 324.5 L 287.5 322 Z " /><path fill="rgb(112,181,118)" stroke="rgb(112,181,118)" stroke-width="1" opacity="1" d="M 168.5 324 L 172 324.5 L 168.5 325 L 168.5 324 Z " /><path fill="rgb(112,181,118)" stroke="rgb(112,181,118)" stroke-width="1" opacity="1" d="M 250.5 324 L 251.5 326 L 250.5 324 Z " /><path fill="rgb(112,181,118)" stroke="rgb(112,181,118)" stroke-width="1" opacity="1" d="M 90.5 326 L 91 328.5 L 90 328.5 L 90.5 326 Z " /><path fill="rgb(112,181,118)" stroke="rgb(112,181,118)" stroke-width="1" opacity="1" d="M 288.5 327 L 289 329.5 L 288 329.5 L 288.5 327 Z " /><path fill="rgb(112,181,118)" stroke="rgb(112,181,118)" stroke-width="1" opacity="1" d="M 251.5 329 L 252.5 331 L 251.5 329 Z " /><path fill="rgb(112,181,118)" stroke="rgb(112,181,118)" stroke-width="1" opacity="1" d="M 113.5 331 L 114 333 L 116 333.5 L 114.5 334 L 113.5 331 Z " /><path fill="rgb(112,181,118)" stroke="rgb(112,181,118)" stroke-width="1" opacity="1" d="M 89.5 332 L 90 334.5 L 89 334.5 L 89.5 332 Z " /><path fill="rgb(112,181,118)" stroke="rgb(112,181,118)" stroke-width="1" opacity="1" d="M 289.5 333 L 290 335.5 L 289 335.5 L 289.5 333 Z " /><path fill="rgb(112,181,118)" stroke="rgb(112,181,118)" stroke-width="1" opacity="1" d="M 88.5 338 L 89 340.5 L 88 340.5 L 88.5 338 Z " /><path fill="rgb(112,181,118)" stroke="rgb(112,181,118)" stroke-width="1" opacity="1" d="M 290.5 340 L 291 342.5 L 290 342.5 L 290.5 340 Z " /><path fill="rgb(112,181,118)" stroke="rgb(112,181,118)" stroke-width="1" opacity="1" d="M 362.5 342 L 369 342.5 L 362.5 343 L 362.5 342 Z " /><path fill="rgb(112,181,118)" stroke="rgb(112,181,118)" stroke-width="1" opacity="1" d="M 87.5 345 L 88 349.5 L 87 349.5 L 87.5 345 Z " /><path fill="rgb(112,181,118)" stroke="rgb(112,181,118)" stroke-width="1" opacity="1" d="M 291.5 347 L 292 351.5 L 291 351.5 L 291.5 347 Z " /><path fill="rgb(112,181,118)" stroke="rgb(112,181,118)" stroke-width="1" opacity="1" d="M 86.5 355 L 87 361.5 L 86 361.5 L 86.5 355 Z " /><path fill="rgb(112,181,118)" stroke="rgb(112,181,118)" stroke-width="1" opacity="1" d="M 386.5 355 L 388.5 358 L 386.5 355 Z " /><path fill="rgb(112,181,118)" stroke="rgb(112,181,118)" stroke-width="1" opacity="1" d="M 292.5 358 L 293 365.5 L 292 365.5 L 292.5 358 Z " /><path fill="rgb(112,181,118)" stroke="rgb(112,181,118)" stroke-width="1" opacity="1" d="M 355.5 358 L 356 360.5 L 355 360.5 L 355.5 358 Z " /><path fill="rgb(112,181,118)" stroke="rgb(112,181,118)" stroke-width="1" opacity="1" d="M 389.5 359 L 390.5 361 L 389.5 359 Z " /><path fill="rgb(112,181,118)" stroke="rgb(112,181,118)" stroke-width="1" opacity="1" d="M 356.5 364 L 357 366.5 L 356 366.5 L 356.5 364 Z " /><path fill="rgb(112,181,118)" stroke="rgb(112,181,118)" stroke-width="1" opacity="1" d="M 357.5 370 L 358 374.5 L 357 374.5 L 357.5 370 Z " /><path fill="rgb(112,181,118)" stroke="rgb(112,181,118)" stroke-width="1" opacity="1" d="M 357.5 382 L 358 386.5 L 357 386.5 L 357.5 382 Z " /><path fill="rgb(112,181,118)" stroke="rgb(112,181,118)" stroke-width="1" opacity="1" d="M 292.5 386 L 293 392.5 L 292 392.5 L 292.5 386 Z " /><path fill="rgb(112,181,118)" stroke="rgb(112,181,118)" stroke-width="1" opacity="1" d="M 399.5 387 L 400 397.5 L 399 397.5 L 399.5 387 Z " /><path fill="rgb(112,181,118)" stroke="rgb(112,181,118)" stroke-width="1" opacity="1" d="M 86.5 390 L 87 395.5 L 86 395.5 L 86.5 390 Z " /><path fill="rgb(112,181,118)" stroke="rgb(112,181,118)" stroke-width="1" opacity="1" d="M 291.5 399 L 292 401.5 L 291 401.5 L 291.5 399 Z " /><path fill="rgb(112,181,118)" stroke="rgb(112,181,118)" stroke-width="1" opacity="1" d="M 87.5 401 L 88 403.5 L 87 403.5 L 87.5 401 Z " /><path fill="rgb(112,181,118)" stroke="rgb(112,181,118)" stroke-width="1" opacity="1" d="M 398.5 402 L 399 404.5 L 398 404.5 L 398.5 402 Z " /><path fill="rgb(112,181,118)" stroke="rgb(112,181,118)" stroke-width="1" opacity="1" d="M 290.5 406 L 291 408.5 L 290 408.5 L 290.5 406 Z " /><path fill="rgb(112,181,118)" stroke="rgb(112,181,118)" stroke-width="1" opacity="1" d="M 345.5 417 L 344.5 419 L 345.5 417 Z " /><path fill="rgb(112,181,118)" stroke="rgb(112,181,118)" stroke-width="1" opacity="1" d="M 390.5 425 L 389.5 427 L 390.5 425 Z " /><path fill="rgb(112,181,118)" stroke="rgb(112,181,118)" stroke-width="1" opacity="1" d="M 335.5 427 L 334.5 429 L 335.5 427 Z " /><path fill="rgb(112,181,118)" stroke="rgb(112,181,118)" stroke-width="1" opacity="1" d="M 386.5 431 L 385.5 433 L 386.5 431 Z " /><path fill="rgb(112,181,118)" stroke="rgb(112,181,118)" stroke-width="1" opacity="1" d="M 383.5 435 L 379.5 440 L 383.5 435 Z " /><path fill="rgb(112,181,118)" stroke="rgb(112,181,118)" stroke-width="1" opacity="1" d="M 286.5 437 L 285.5 439 L 286.5 437 Z " /><path fill="rgb(112,181,118)" stroke="rgb(112,181,118)" stroke-width="1" opacity="1" d="M 294.5 439 L 309 439.5 L 294.5 440 L 294.5 439 Z " /><path fill="rgb(112,181,118)" stroke="rgb(112,181,118)" stroke-width="1" opacity="1" d="M 279.5 442 L 278.5 444 L 279.5 442 Z " /><path fill="rgb(112,181,118)" stroke="rgb(112,181,118)" stroke-width="1" opacity="1" d="M 375.5 443 L 372.5 447 L 375.5 443 Z " /><path fill="rgb(112,181,118)" stroke="rgb(112,181,118)" stroke-width="1" opacity="1" d="M 276.5 447 L 275.5 449 L 276.5 447 Z " /><path fill="rgb(112,181,118)" stroke="rgb(112,181,118)" stroke-width="1" opacity="1" d="M 369.5 448 L 368.5 450 L 369.5 448 Z " /><path fill="rgb(112,181,118)" stroke="rgb(112,181,118)" stroke-width="1" opacity="1" d="M 103.5 449 L 104.5 451 L 103.5 449 Z " /><path fill="rgb(112,181,118)" stroke="rgb(112,181,118)" stroke-width="1" opacity="1" d="M 274.5 450 L 273.5 452 L 274.5 450 Z " /><path fill="rgb(112,181,118)" stroke="rgb(112,181,118)" stroke-width="1" opacity="1" d="M 278.5 451 L 277.5 453 L 278.5 451 Z " /><path fill="rgb(112,181,118)" stroke="rgb(112,181,118)" stroke-width="1" opacity="1" d="M 363.5 452 L 362.5 454 L 363.5 452 Z " /><path fill="rgb(112,181,118)" stroke="rgb(112,181,118)" stroke-width="1" opacity="1" d="M 106.5 453 L 107.5 455 L 106.5 453 Z " /><path fill="rgb(112,181,118)" stroke="rgb(112,181,118)" stroke-width="1" opacity="1" d="M 271.5 454 L 269.5 457 L 271.5 454 Z " /><path fill="rgb(112,181,118)" stroke="rgb(112,181,118)" stroke-width="1" opacity="1" d="M 275.5 455 L 274.5 457 L 275.5 455 Z " /><path fill="rgb(112,181,118)" stroke="rgb(112,181,118)" stroke-width="1" opacity="1" d="M 252.5 459 L 255 460.5 L 253.5 460 L 251.5 461 L 252.5 459 Z " /><path fill="rgb(112,181,118)" stroke="rgb(112,181,118)" stroke-width="1" opacity="1" d="M 127.5 460 L 128 466.5 L 127 466.5 L 127.5 460 Z " /><path fill="rgb(112,181,118)" stroke="rgb(112,181,118)" stroke-width="1" opacity="1" d="M 270.5 461 L 270.5 463 L 272 463.5 L 270.5 464 Q 267.5 462.5 270.5 461 Z " /><path fill="rgb(112,181,118)" stroke="rgb(112,181,118)" stroke-width="1" opacity="1" d="M 162.5 462 L 163 464.5 L 162 464.5 L 162.5 462 Z " /><path fill="rgb(112,181,118)" stroke="rgb(112,181,118)" stroke-width="1" opacity="1" d="M 116.5 463 L 117.5 465 L 116.5 463 Z " /><path fill="rgb(112,181,118)" stroke="rgb(112,181,118)" stroke-width="1" opacity="1" d="M 123.5 463 L 124 466.5 L 122 467.5 L 123.5 463 Z " /><path fill="rgb(112,181,118)" stroke="rgb(112,181,118)" stroke-width="1" opacity="1" d="M 262.5 463 L 261.5 465 L 262.5 463 Z " /><path fill="rgb(112,181,118)" stroke="rgb(112,181,118)" stroke-width="1" opacity="1" d="M 251.5 465 L 252 467.5 L 251 467.5 L 251.5 465 Z " /><path fill="rgb(112,181,118)" stroke="rgb(112,181,118)" stroke-width="1" opacity="1" d="M 279.5 465 L 282 465.5 L 279.5 466 L 279.5 465 Z " /><path fill="rgb(112,181,118)" stroke="rgb(112,181,118)" stroke-width="1" opacity="1" d="M 330.5 465 L 333 465.5 L 330.5 466 L 330.5 465 Z " /><path fill="rgb(112,181,118)" stroke="rgb(112,181,118)" stroke-width="1" opacity="1" d="M 285.5 466 L 288 466.5 L 285.5 467 L 285.5 466 Z " /><path fill="rgb(112,181,118)" stroke="rgb(112,181,118)" stroke-width="1" opacity="1" d="M 325.5 466 L 328 466.5 L 325.5 467 L 325.5 466 Z " /><path fill="rgb(112,181,118)" stroke="rgb(112,181,118)" stroke-width="1" opacity="1" d="M 293.5 467 L 301 467.5 L 293.5 468 L 293.5 467 Z " /><path fill="rgb(112,181,118)" stroke="rgb(112,181,118)" stroke-width="1" opacity="1" d="M 315.5 467 L 321 467.5 L 315.5 468 L 315.5 467 Z " /><path fill="rgb(112,181,118)" stroke="rgb(112,181,118)" stroke-width="1" opacity="1" d="M 219.5 469 L 220 471.5 L 219 471.5 L 219.5 469 Z " /><path fill="rgb(112,181,118)" stroke="rgb(112,181,118)" stroke-width="1" opacity="1" d="M 159.5 471 L 160 474.5 L 159 474.5 L 159.5 471 Z " /><path fill="rgb(112,181,118)" stroke="rgb(112,181,118)" stroke-width="1" opacity="1" d="M 125.5 473 L 124.5 475 L 125.5 473 Z " /><path fill="rgb(112,181,118)" stroke="rgb(112,181,118)" stroke-width="1" opacity="1" d="M 218.5 476 L 219 481.5 L 218 481.5 L 218.5 476 Z " /><path fill="rgb(112,181,118)" stroke="rgb(112,181,118)" stroke-width="1" opacity="1" d="M 160.5 478 L 161 481.5 L 160 481.5 L 160.5 478 Z " /><path fill="rgb(112,181,118)" stroke="rgb(112,181,118)" stroke-width="1" opacity="1" d="M 121.5 484 L 122 490.5 L 121 490.5 L 121.5 484 Z " /><path fill="rgb(112,181,118)" stroke="rgb(112,181,118)" stroke-width="1" opacity="1" d="M 160.5 488 L 161 490.5 L 160 490.5 L 160.5 488 Z " /><path fill="rgb(112,181,118)" stroke="rgb(112,181,118)" stroke-width="1" opacity="1" d="M 218.5 488 L 219 490.5 L 218 490.5 L 218.5 488 Z " /><path fill="rgb(112,181,118)" stroke="rgb(112,181,118)" stroke-width="1" opacity="1" d="M 122.5 493 L 123.5 495 L 122.5 493 Z " /><path fill="rgb(112,181,118)" stroke="rgb(112,181,118)" stroke-width="1" opacity="1" d="M 256.5 493 L 255.5 495 L 256.5 493 Z " /><path fill="rgb(112,181,118)" stroke="rgb(112,181,118)" stroke-width="1" opacity="1" d="M 131.5 497 L 134 497.5 L 131.5 498 L 131.5 497 Z " /><path fill="rgb(112,181,118)" stroke="rgb(112,181,118)" stroke-width="1" opacity="1" d="M 147.5 497 L 150 497.5 L 147.5 498 L 147.5 497 Z " /><path fill="rgb(112,181,118)" stroke="rgb(112,181,118)" stroke-width="1" opacity="1" d="M 229.5 497 L 232 497.5 L 229.5 498 L 229.5 497 Z " /><path fill="rgb(112,181,118)" stroke="rgb(112,181,118)" stroke-width="1" opacity="1" d="M 245.5 497 L 248 497.5 L 245.5 498 L 245.5 497 Z " /><path fill="rgb(0,0,0)" stroke="rgb(0,0,0)" stroke-width="1" opacity="0" d="M 0 0 L 512 0 L 512 512 L 0 512 L 0 0 Z M 241 10 L 240 11 L 233 11 L 217 14 L 190 23 Q 163 34 144 52 L 128 68 L 128 70 L 132 72 L 142 73 L 152 76 L 169 84 Q 183 92 193 105 L 163 106 L 146 110 L 139 113 L 134 111 L 112 93 L 106 94 L 102 99 L 102 146 L 100 152 L 98 173 L 97 174 L 97 191 L 101 207 Q 108 224 121 235 L 113 248 L 104 267 L 93 297 L 84 337 L 83 353 L 82 354 L 82 370 L 81 371 L 82 398 L 88 428 Q 94 448 107 462 Q 112 469 121 471 L 117 483 L 118 496 Q 122 501 130 502 L 152 502 L 160 499 L 165 492 L 165 477 L 164 476 L 165 474 L 214 474 L 214 493 L 216 497 L 228 502 L 249 502 L 258 499 L 260 497 L 262 491 Q 262 478 258 471 L 266 467 L 292 472 L 322 472 L 342 468 Q 361 462 376 450 Q 388 440 396 426 L 402 411 L 404 400 L 404 385 L 401 372 Q 396 359 388 350 Q 381 341 370 338 Q 360 337 356 341 L 351 349 Q 349 361 353 369 L 353 389 L 352 394 Q 348 408 340 418 Q 329 431 310 435 L 293 435 L 288 434 L 293 420 L 296 404 L 296 396 L 297 395 L 297 357 L 296 356 L 295 339 L 291 317 Q 280 270 258 235 Q 267 227 273 217 L 280 200 L 282 189 L 282 176 L 279 159 L 288 142 L 298 149 Q 317 165 328 189 L 349 185 L 370 186 L 386 190 L 407 200 L 425 215 L 427 215 L 429 209 L 430 188 L 431 187 L 429 156 L 420 122 Q 409 92 390 71 Q 370 46 341 31 L 346 21 L 345 15 L 340 10 L 333 11 L 325 23 L 310 17 L 284 11 Q 277 13 276 10 L 241 10 Z " /><path fill="rgb(88,89,91)" stroke="rgb(88,89,91)" stroke-width="1" opacity="0.27058823529411763" d="M 240.5 10 L 248 10.5 L 240.5 11 L 240.5 10 Z " /><path fill="rgb(88,89,91)" stroke="rgb(88,89,91)" stroke-width="1" opacity="0.27058823529411763" d="M 268.5 10 L 276 10.5 L 268.5 11 L 268.5 10 Z " /><path fill="rgb(88,89,91)" stroke="rgb(88,89,91)" stroke-width="1" opacity="0.27058823529411763" d="M 334.5 10 L 340 10.5 L 334.5 11 L 334.5 10 Z " /><path fill="rgb(88,89,91)" stroke="rgb(88,89,91)" stroke-width="1" opacity="0.27058823529411763" d="M 232.5 11 L 237 11.5 L 232.5 12 L 232.5 11 Z " /><path fill="rgb(88,89,91)" stroke="rgb(88,89,91)" stroke-width="1" opacity="0.27058823529411763" d="M 279.5 11 L 284 11.5 L 279.5 12 L 279.5 11 Z " /><path fill="rgb(88,89,91)" stroke="rgb(88,89,91)" stroke-width="1" opacity="0.27058823529411763" d="M 332.5 11 L 330 14.5 L 326 24 L 322 22.5 L 323.5 22 Q 324.8 24.3 326 21.5 Q 327.6 14.6 332.5 11 Z " /><path fill="rgb(88,89,91)" stroke="rgb(88,89,91)" stroke-width="1" opacity="0.27058823529411763" d="M 341.5 11 L 345 15.5 L 344 15.5 L 341.5 11 Z " /><path fill="rgb(88,89,91)" stroke="rgb(88,89,91)" stroke-width="1" opacity="0.27058823529411763" d="M 226.5 12 L 230 12.5 L 226.5 13 L 226.5 12 Z " /><path fill="rgb(88,89,91)" stroke="rgb(88,89,91)" stroke-width="1" opacity="0.27058823529411763" d="M 286.5 12 L 290 12.5 L 286.5 13 L 286.5 12 Z " /><path fill="rgb(88,89,91)" stroke="rgb(88,89,91)" stroke-width="1" opacity="0.27058823529411763" d="M 221.5 13 L 224 13.5 L 221.5 14 L 221.5 13 Z " /><path fill="rgb(88,89,91)" stroke="rgb(88,89,91)" stroke-width="1" opacity="0.27058823529411763" d="M 291.5 13 L 295 13.5 L 291.5 14 L 291.5 13 Z " /><path fill="rgb(88,89,91)" stroke="rgb(88,89,91)" stroke-width="1" opacity="0.27058823529411763" d="M 216.5 14 L 219 14.5 L 216.5 15 L 216.5 14 Z " /><path fill="rgb(88,89,91)" stroke="rgb(88,89,91)" stroke-width="1" opacity="0.27058823529411763" d="M 296.5 14 L 299 14.5 L 296.5 15 L 296.5 14 Z " /><path fill="rgb(88,89,91)" stroke="rgb(88,89,91)" stroke-width="1" opacity="0.27058823529411763" d="M 300.5 15 L 303 15.5 L 300.5 16 L 300.5 15 Z " /><path fill="rgb(88,89,91)" stroke="rgb(88,89,91)" stroke-width="1" opacity="0.27058823529411763" d="M 307.5 17 L 310 17.5 L 307.5 18 L 307.5 17 Z " /><path fill="rgb(88,89,91)" stroke="rgb(88,89,91)" stroke-width="1" opacity="0.27058823529411763" d="M 345.5 17 L 346 20.5 L 345 20.5 L 345.5 17 Z " /><path fill="rgb(88,89,91)" stroke="rgb(88,89,91)" stroke-width="1" opacity="0.27058823529411763" d="M 314.5 19 L 318 20.5 L 316.5 21 L 314.5 19 Z " /><path fill="rgb(88,89,91)" stroke="rgb(88,89,91)" stroke-width="1" opacity="0.27058823529411763" d="M 194.5 21 L 196 21.5 L 192.5 23 L 192.5 22 L 194.5 21 Z " /><path fill="rgb(88,89,91)" stroke="rgb(88,89,91)" stroke-width="1" opacity="0.27058823529411763" d="M 344.5 22 L 345 23.5 L 341 30.5 L 347 34.5 L 345.5 34 L 340 30.5 L 344.5 22 Z " /><path fill="rgb(88,89,91)" stroke="rgb(88,89,91)" stroke-width="1" opacity="0.27058823529411763" d="M 189.5 23 L 191 23.5 L 185.5 26 L 185.5 25 L 189.5 23 Z " /><path fill="rgb(88,89,91)" stroke="rgb(88,89,91)" stroke-width="1" opacity="0.27058823529411763" d="M 177.5 29 L 176.5 31 L 170.5 34 L 171.5 32 L 177.5 29 Z " /><path fill="rgb(88,89,91)" stroke="rgb(88,89,91)" stroke-width="1" opacity="0.27058823529411763" d="M 168.5 34 L 167.5 36 L 162.5 39 L 163.5 37 L 168.5 34 Z " /><path fill="rgb(88,89,91)" stroke="rgb(88,89,91)" stroke-width="1" opacity="0.27058823529411763" d="M 348.5 35 L 359 42.5 L 356.5 41 L 349.5 37 L 348.5 35 Z " /><path fill="rgb(88,89,91)" stroke="rgb(88,89,91)" stroke-width="1" opacity="0.27058823529411763" d="M 160.5 39 L 158.5 42 L 155.5 44 L 157.5 41 L 160.5 39 Z " /><path fill="rgb(88,89,91)" stroke="rgb(88,89,91)" stroke-width="1" opacity="0.27058823529411763" d="M 360.5 43 L 362.5 46 L 360.5 43 Z " /><path fill="rgb(88,89,91)" stroke="rgb(88,89,91)" stroke-width="1" opacity="0.27058823529411763" d="M 153.5 44 L 150.5 48 Q 138 56 129 67.5 L 130 70.5 L 128 69.5 L 128 67.5 L 143.5 52 L 153.5 44 Z " /><path fill="rgb(88,89,91)" stroke="rgb(88,89,91)" stroke-width="1" opacity="0.27058823529411763" d="M 364.5 46 L 367.5 50 L 364.5 46 Z " /><path fill="rgb(88,89,91)" stroke="rgb(88,89,91)" stroke-width="1" opacity="0.27058823529411763" d="M 369.5 50 L 394 75.5 L 389 71.5 L 369.5 50 Z " /><path fill="rgb(88,89,91)" stroke="rgb(88,89,91)" stroke-width="1" opacity="0.27058823529411763" d="M 131.5 71 L 135 71.5 L 131.5 72 L 131.5 71 Z " /><path fill="rgb(88,89,91)" stroke="rgb(88,89,91)" stroke-width="1" opacity="0.27058823529411763" d="M 137.5 72 L 140 72.5 L 137.5 73 L 137.5 72 Z " /><path fill="rgb(88,89,91)" stroke="rgb(88,89,91)" stroke-width="1" opacity="0.27058823529411763" d="M 145.5 74 L 148 74.5 L 145.5 75 L 145.5 74 Z " /><path fill="rgb(88,89,91)" stroke="rgb(88,89,91)" stroke-width="1" opacity="0.27058823529411763" d="M 152.5 76 L 156 77.5 L 154.5 78 L 152.5 76 Z " /><path fill="rgb(88,89,91)" stroke="rgb(88,89,91)" stroke-width="1" opacity="0.27058823529411763" d="M 394.5 77 L 396.5 80 L 394.5 77 Z " /><path fill="rgb(88,89,91)" stroke="rgb(88,89,91)" stroke-width="1" opacity="0.27058823529411763" d="M 157.5 78 L 168 83.5 L 166.5 83 L 157.5 79 L 157.5 78 Z " /><path fill="rgb(88,89,91)" stroke="rgb(88,89,91)" stroke-width="1" opacity="0.27058823529411763" d="M 397.5 81 L 405 91.5 L 403 90.5 L 397.5 81 Z " /><path fill="rgb(88,89,91)" stroke="rgb(88,89,91)" stroke-width="1" opacity="0.27058823529411763" d="M 169.5 84 Q 183.8 92.2 194 104.5 L 182.5 94 L 170.5 86 L 169.5 84 Z " /><path fill="rgb(88,89,91)" stroke="rgb(88,89,91)" stroke-width="1" opacity="0.27058823529411763" d="M 107.5 93 L 113.5 94 L 133 110.5 L 128.5 107 L 113.5 95 L 107.5 94 L 107.5 93 Z " /><path fill="rgb(88,89,91)" stroke="rgb(88,89,91)" stroke-width="1" opacity="0.27058823529411763" d="M 405.5 93 L 408 96.5 L 406 95.5 L 405.5 93 Z " /><path fill="rgb(88,89,91)" stroke="rgb(88,89,91)" stroke-width="1" opacity="0.27058823529411763" d="M 105.5 94 L 103.5 97 L 105.5 94 Z " /><path fill="rgb(88,89,91)" stroke="rgb(88,89,91)" stroke-width="1" opacity="0.27058823529411763" d="M 102.5 98 L 103 143.5 L 102 143.5 L 102.5 98 Z " /><path fill="rgb(88,89,91)" stroke="rgb(88,89,91)" stroke-width="1" opacity="0.27058823529411763" d="M 409.5 100 L 415 110.5 L 414 110.5 L 409.5 100 Z " /><path fill="rgb(88,89,91)" stroke="rgb(88,89,91)" stroke-width="1" opacity="0.27058823529411763" d="M 170.5 105 L 177 105.5 L 170.5 106 L 170.5 105 Z " /><path fill="rgb(88,89,91)" stroke="rgb(88,89,91)" stroke-width="1" opacity="0.27058823529411763" d="M 162.5 106 L 167 106.5 L 162.5 107 L 162.5 106 Z " /><path fill="rgb(88,89,91)" stroke="rgb(88,89,91)" stroke-width="1" opacity="0.27058823529411763" d="M 157.5 107 L 161 107.5 L 157.5 108 L 157.5 107 Z " /><path fill="rgb(88,89,91)" stroke="rgb(88,89,91)" stroke-width="1" opacity="0.27058823529411763" d="M 145.5 110 L 148 110.5 L 145.5 111 L 145.5 110 Z " /><path fill="rgb(88,89,91)" stroke="rgb(88,89,91)" stroke-width="1" opacity="0.27058823529411763" d="M 134.5 111 L 138 113.5 L 136.5 114 L 134.5 111 Z " /><path fill="rgb(88,89,91)" stroke="rgb(88,89,91)" stroke-width="1" opacity="0.27058823529411763" d="M 416.5 114 L 418 117.5 L 417 117.5 L 416.5 114 Z " /><path fill="rgb(88,89,91)" stroke="rgb(88,89,91)" stroke-width="1" opacity="0.27058823529411763" d="M 418.5 119 L 420 122.5 L 419 122.5 L 418.5 119 Z " /><path fill="rgb(88,89,91)" stroke="rgb(88,89,91)" stroke-width="1" opacity="0.27058823529411763" d="M 423.5 133 L 424 135.5 L 423 135.5 L 423.5 133 Z " /><path fill="rgb(88,89,91)" stroke="rgb(88,89,91)" stroke-width="1" opacity="0.27058823529411763" d="M 424.5 137 L 425 139.5 L 424 139.5 L 424.5 137 Z " /><path fill="rgb(88,89,91)" stroke="rgb(88,89,91)" stroke-width="1" opacity="0.27058823529411763" d="M 288.5 142 L 289.5 144 L 288.5 142 Z " /><path fill="rgb(88,89,91)" stroke="rgb(88,89,91)" stroke-width="1" opacity="0.27058823529411763" d="M 291.5 144 L 292.5 146 L 291.5 144 Z " /><path fill="rgb(88,89,91)" stroke="rgb(88,89,91)" stroke-width="1" opacity="0.27058823529411763" d="M 426.5 145 L 427 147.5 L 426 147.5 L 426.5 145 Z " /><path fill="rgb(88,89,91)" stroke="rgb(88,89,91)" stroke-width="1" opacity="0.27058823529411763" d="M 101.5 146 L 102 148.5 L 101 148.5 L 101.5 146 Z " /><path fill="rgb(88,89,91)" stroke="rgb(88,89,91)" stroke-width="1" opacity="0.27058823529411763" d="M 294.5 146 L 296.5 149 L 294.5 146 Z " /><path fill="rgb(88,89,91)" stroke="rgb(88,89,91)" stroke-width="1" opacity="0.27058823529411763" d="M 299.5 150 L 311.5 163 L 299.5 150 Z " /><path fill="rgb(88,89,91)" stroke="rgb(88,89,91)" stroke-width="1" opacity="0.27058823529411763" d="M 427.5 150 L 428 153.5 L 427 153.5 L 427.5 150 Z " /><path fill="rgb(88,89,91)" stroke="rgb(88,89,91)" stroke-width="1" opacity="0.27058823529411763" d="M 100.5 151 L 101 154.5 L 100 154.5 L 100.5 151 Z " /><path fill="rgb(88,89,91)" stroke="rgb(88,89,91)" stroke-width="1" opacity="0.27058823529411763" d="M 428.5 155 L 429 159.5 L 428 159.5 L 428.5 155 Z " /><path fill="rgb(88,89,91)" stroke="rgb(88,89,91)" stroke-width="1" opacity="0.27058823529411763" d="M 99.5 157 L 100 161.5 L 99 161.5 L 99.5 157 Z " /><path fill="rgb(88,89,91)" stroke="rgb(88,89,91)" stroke-width="1" opacity="0.27058823529411763" d="M 279.5 159 L 280 162.5 L 279 162.5 L 279.5 159 Z " /><path fill="rgb(88,89,91)" stroke="rgb(88,89,91)" stroke-width="1" opacity="0.27058823529411763" d="M 429.5 163 L 430 169.5 L 429 169.5 L 429.5 163 Z " /><path fill="rgb(88,89,91)" stroke="rgb(88,89,91)" stroke-width="1" opacity="0.27058823529411763" d="M 98.5 164 L 99 168.5 L 98 168.5 L 98.5 164 Z " /><path fill="rgb(88,89,91)" stroke="rgb(88,89,91)" stroke-width="1" opacity="0.27058823529411763" d="M 313.5 165 L 315.5 168 L 313.5 165 Z " /><path fill="rgb(88,89,91)" stroke="rgb(88,89,91)" stroke-width="1" opacity="0.27058823529411763" d="M 280.5 166 L 281 171.5 L 280 171.5 L 280.5 166 Z " /><path fill="rgb(88,89,91)" stroke="rgb(88,89,91)" stroke-width="1" opacity="0.27058823529411763" d="M 316.5 169 L 317.5 171 L 316.5 169 Z " /><path fill="rgb(88,89,91)" stroke="rgb(88,89,91)" stroke-width="1" opacity="0.27058823529411763" d="M 318.5 172 L 319.5 174 L 318.5 172 Z " /><path fill="rgb(88,89,91)" stroke="rgb(88,89,91)" stroke-width="1" opacity="0.27058823529411763" d="M 97.5 173 L 98 190.5 L 97 190.5 L 97.5 173 Z " /><path fill="rgb(88,89,91)" stroke="rgb(88,89,91)" stroke-width="1" opacity="0.27058823529411763" d="M 281.5 175 L 282 188.5 L 281 188.5 L 281.5 175 Z " /><path fill="rgb(88,89,91)" stroke="rgb(88,89,91)" stroke-width="1" opacity="0.27058823529411763" d="M 321.5 177 L 325 183.5 L 324 183.5 L 321.5 177 Z " /><path fill="rgb(88,89,91)" stroke="rgb(88,89,91)" stroke-width="1" opacity="0.27058823529411763" d="M 430.5 177 L 431 186.5 L 430 186.5 L 430.5 177 Z " /><path fill="rgb(88,89,91)" stroke="rgb(88,89,91)" stroke-width="1" opacity="0.27058823529411763" d="M 342.5 185 L 348 185.5 L 342.5 186 L 342.5 185 Z " /><path fill="rgb(88,89,91)" stroke="rgb(88,89,91)" stroke-width="1" opacity="0.27058823529411763" d="M 361.5 185 L 367 185.5 L 361.5 186 L 361.5 185 Z " /><path fill="rgb(88,89,91)" stroke="rgb(88,89,91)" stroke-width="1" opacity="0.27058823529411763" d="M 336.5 186 L 340 186.5 L 336.5 187 L 336.5 186 Z " /><path fill="rgb(88,89,91)" stroke="rgb(88,89,91)" stroke-width="1" opacity="0.27058823529411763" d="M 370.5 186 L 374 186.5 L 370.5 187 L 370.5 186 Z " /><path fill="rgb(88,89,91)" stroke="rgb(88,89,91)" stroke-width="1" opacity="0.27058823529411763" d="M 326.5 187 L 330 188.5 L 327.5 189 L 326.5 187 Z " /><path fill="rgb(88,89,91)" stroke="rgb(88,89,91)" stroke-width="1" opacity="0.27058823529411763" d="M 332.5 187 L 335 187.5 L 332.5 188 L 332.5 187 Z " /><path fill="rgb(88,89,91)" stroke="rgb(88,89,91)" stroke-width="1" opacity="0.27058823529411763" d="M 375.5 187 L 378 187.5 L 375.5 188 L 375.5 187 Z " /><path fill="rgb(88,89,91)" stroke="rgb(88,89,91)" stroke-width="1" opacity="0.27058823529411763" d="M 379.5 188 L 382 188.5 L 379.5 189 L 379.5 188 Z " /><path fill="rgb(88,89,91)" stroke="rgb(88,89,91)" stroke-width="1" opacity="0.27058823529411763" d="M 386.5 190 L 390 191.5 L 388.5 192 L 386.5 190 Z " /><path fill="rgb(88,89,91)" stroke="rgb(88,89,91)" stroke-width="1" opacity="0.27058823529411763" d="M 280.5 191 L 281 194.5 L 280 194.5 L 280.5 191 Z " /><path fill="rgb(88,89,91)" stroke="rgb(88,89,91)" stroke-width="1" opacity="0.27058823529411763" d="M 391.5 192 L 395 193.5 L 393.5 194 L 391.5 192 Z " /><path fill="rgb(88,89,91)" stroke="rgb(88,89,91)" stroke-width="1" opacity="0.27058823529411763" d="M 98.5 193 L 99 196.5 L 98 196.5 L 98.5 193 Z " /><path fill="rgb(88,89,91)" stroke="rgb(88,89,91)" stroke-width="1" opacity="0.27058823529411763" d="M 429.5 195 L 430 201.5 L 429 201.5 L 429.5 195 Z " /><path fill="rgb(88,89,91)" stroke="rgb(88,89,91)" stroke-width="1" opacity="0.27058823529411763" d="M 400.5 196 L 406 199.5 L 404.5 199 Q 400.5 198.5 400.5 196 Z " /><path fill="rgb(88,89,91)" stroke="rgb(88,89,91)" stroke-width="1" opacity="0.27058823529411763" d="M 279.5 197 L 280 199.5 L 279 199.5 L 279.5 197 Z " /><path fill="rgb(88,89,91)" stroke="rgb(88,89,91)" stroke-width="1" opacity="0.27058823529411763" d="M 99.5 198 L 100 200.5 L 99 200.5 L 99.5 198 Z " /><path fill="rgb(88,89,91)" stroke="rgb(88,89,91)" stroke-width="1" opacity="0.27058823529411763" d="M 407.5 200 L 408.5 202 L 407.5 200 Z " /><path fill="rgb(88,89,91)" stroke="rgb(88,89,91)" stroke-width="1" opacity="0.27058823529411763" d="M 410.5 202 L 424.5 214 L 427 214 L 427.5 211 L 428 213.5 L 424.5 215 L 412.5 205 L 410.5 202 Z " /><path fill="rgb(88,89,91)" stroke="rgb(88,89,91)" stroke-width="1" opacity="0.27058823529411763" d="M 101.5 205 L 103 208.5 L 102 208.5 L 101.5 205 Z " /><path fill="rgb(88,89,91)" stroke="rgb(88,89,91)" stroke-width="1" opacity="0.27058823529411763" d="M 428.5 205 L 429 208.5 L 428 208.5 L 428.5 205 Z " /><path fill="rgb(88,89,91)" stroke="rgb(88,89,91)" stroke-width="1" opacity="0.27058823529411763" d="M 276.5 207 L 277 208.5 L 271.5 218 L 272 216.5 L 276.5 207 Z " /><path fill="rgb(88,89,91)" stroke="rgb(88,89,91)" stroke-width="1" opacity="0.27058823529411763" d="M 106.5 216 Q 112.3 226.3 121 233.5 L 112 225.5 L 106.5 216 Z " /><path fill="rgb(88,89,91)" stroke="rgb(88,89,91)" stroke-width="1" opacity="0.27058823529411763" d="M 270.5 219 L 269.5 221 L 270.5 219 Z " /><path fill="rgb(88,89,91)" stroke="rgb(88,89,91)" stroke-width="1" opacity="0.27058823529411763" d="M 268.5 222 L 266 225.5 L 258 234.5 L 260 237.5 L 258 236.5 L 257 234.5 L 268.5 222 Z " /><path fill="rgb(88,89,91)" stroke="rgb(88,89,91)" stroke-width="1" opacity="0.27058823529411763" d="M 119.5 237 L 119 238.5 L 116.5 243 L 117 241.5 L 119.5 237 Z " /><path fill="rgb(88,89,91)" stroke="rgb(88,89,91)" stroke-width="1" opacity="0.27058823529411763" d="M 260.5 239 L 267 250.5 L 265 249.5 L 260.5 239 Z " /><path fill="rgb(88,89,91)" stroke="rgb(88,89,91)" stroke-width="1" opacity="0.27058823529411763" d="M 114.5 246 L 114 247.5 L 109.5 257 L 109 255.5 L 114.5 246 Z " /><path fill="rgb(88,89,91)" stroke="rgb(88,89,91)" stroke-width="1" opacity="0.27058823529411763" d="M 268.5 254 L 273 263.5 L 272 263.5 L 268 255.5 L 268.5 254 Z " /><path fill="rgb(88,89,91)" stroke="rgb(88,89,91)" stroke-width="1" opacity="0.27058823529411763" d="M 106.5 262 L 107 263.5 L 104.5 268 L 104 266.5 L 106.5 262 Z " /><path fill="rgb(88,89,91)" stroke="rgb(88,89,91)" stroke-width="1" opacity="0.27058823529411763" d="M 274.5 267 L 276 270.5 L 275 270.5 L 274.5 267 Z " /><path fill="rgb(88,89,91)" stroke="rgb(88,89,91)" stroke-width="1" opacity="0.27058823529411763" d="M 103.5 269 L 104 270.5 L 102.5 273 L 102 271.5 L 103.5 269 Z " /><path fill="rgb(88,89,91)" stroke="rgb(88,89,91)" stroke-width="1" opacity="0.27058823529411763" d="M 276.5 272 L 278 275.5 L 277 275.5 L 276.5 272 Z " /><path fill="rgb(88,89,91)" stroke="rgb(88,89,91)" stroke-width="1" opacity="0.27058823529411763" d="M 101.5 274 L 102 275.5 L 100.5 278 L 100 276.5 L 101.5 274 Z " /><path fill="rgb(88,89,91)" stroke="rgb(88,89,91)" stroke-width="1" opacity="0.27058823529411763" d="M 279.5 280 L 281 283.5 L 280 283.5 L 279.5 280 Z " /><path fill="rgb(88,89,91)" stroke="rgb(88,89,91)" stroke-width="1" opacity="0.27058823529411763" d="M 98.5 282 L 99 283.5 L 97.5 286 L 97 284.5 L 98.5 282 Z " /><path fill="rgb(88,89,91)" stroke="rgb(88,89,91)" stroke-width="1" opacity="0.27058823529411763" d="M 94.5 293 L 95 295.5 L 93.5 299 L 93 296.5 L 94.5 293 Z " /><path fill="rgb(88,89,91)" stroke="rgb(88,89,91)" stroke-width="1" opacity="0.27058823529411763" d="M 285.5 297 L 286 299.5 L 285 299.5 L 285.5 297 Z " /><path fill="rgb(88,89,91)" stroke="rgb(88,89,91)" stroke-width="1" opacity="0.27058823529411763" d="M 91.5 303 L 92 305.5 L 91 305.5 L 91.5 303 Z " /><path fill="rgb(88,89,91)" stroke="rgb(88,89,91)" stroke-width="1" opacity="0.27058823529411763" d="M 287.5 304 L 288 306.5 L 287 306.5 L 287.5 304 Z " /><path fill="rgb(88,89,91)" stroke="rgb(88,89,91)" stroke-width="1" opacity="0.27058823529411763" d="M 90.5 307 L 91 309.5 L 90 309.5 L 90.5 307 Z " /><path fill="rgb(88,89,91)" stroke="rgb(88,89,91)" stroke-width="1" opacity="0.27058823529411763" d="M 288.5 308 L 289 310.5 L 288 310.5 L 288.5 308 Z " /><path fill="rgb(88,89,91)" stroke="rgb(88,89,91)" stroke-width="1" opacity="0.27058823529411763" d="M 89.5 311 L 90 313.5 L 89 313.5 L 89.5 311 Z " /><path fill="rgb(88,89,91)" stroke="rgb(88,89,91)" stroke-width="1" opacity="0.27058823529411763" d="M 289.5 312 L 290 314.5 L 289 314.5 L 289.5 312 Z " /><path fill="rgb(88,89,91)" stroke="rgb(88,89,91)" stroke-width="1" opacity="0.27058823529411763" d="M 88.5 315 L 89 317.5 L 88 317.5 L 88.5 315 Z " /><path fill="rgb(88,89,91)" stroke="rgb(88,89,91)" stroke-width="1" opacity="0.27058823529411763" d="M 290.5 316 L 291 318.5 L 290 318.5 L 290.5 316 Z " /><path fill="rgb(88,89,91)" stroke="rgb(88,89,91)" stroke-width="1" opacity="0.27058823529411763" d="M 87.5 320 L 88 322.5 L 87 322.5 L 87.5 320 Z " /><path fill="rgb(88,89,91)" stroke="rgb(88,89,91)" stroke-width="1" opacity="0.27058823529411763" d="M 291.5 321 L 292 323.5 L 291 323.5 L 291.5 321 Z " /><path fill="rgb(88,89,91)" stroke="rgb(88,89,91)" stroke-width="1" opacity="0.27058823529411763" d="M 86.5 325 L 87 327.5 L 86 327.5 L 86.5 325 Z " /><path fill="rgb(88,89,91)" stroke="rgb(88,89,91)" stroke-width="1" opacity="0.27058823529411763" d="M 292.5 326 L 293 329.5 L 292 329.5 L 292.5 326 Z " /><path fill="rgb(88,89,91)" stroke="rgb(88,89,91)" stroke-width="1" opacity="0.27058823529411763" d="M 85.5 330 L 86 333.5 L 85 333.5 L 85.5 330 Z " /><path fill="rgb(88,89,91)" stroke="rgb(88,89,91)" stroke-width="1" opacity="0.27058823529411763" d="M 293.5 332 L 294 335.5 L 293 335.5 L 293.5 332 Z " /><path fill="rgb(88,89,91)" stroke="rgb(88,89,91)" stroke-width="1" opacity="0.27058823529411763" d="M 84.5 336 L 85 340.5 L 84 340.5 L 84.5 336 Z " /><path fill="rgb(88,89,91)" stroke="rgb(88,89,91)" stroke-width="1" opacity="0.27058823529411763" d="M 294.5 338 L 295 342.5 L 294 342.5 L 294.5 338 Z " /><path fill="rgb(88,89,91)" stroke="rgb(88,89,91)" stroke-width="1" opacity="0.27058823529411763" d="M 361.5 338 L 370 338.5 L 361.5 339 L 361.5 338 Z " /><path fill="rgb(88,89,91)" stroke="rgb(88,89,91)" stroke-width="1" opacity="0.27058823529411763" d="M 358.5 339 L 360 339.5 L 357.5 341 L 358.5 339 Z " /><path fill="rgb(88,89,91)" stroke="rgb(88,89,91)" stroke-width="1" opacity="0.27058823529411763" d="M 372.5 339 Q 382.4 342.1 388 349.5 L 394 357.5 L 391 355.5 L 383.5 346 L 372.5 340 L 372.5 339 Z " /><path fill="rgb(88,89,91)" stroke="rgb(88,89,91)" stroke-width="1" opacity="0.27058823529411763" d="M 355.5 341 L 354.5 343 L 355.5 341 Z " /><path fill="rgb(88,89,91)" stroke="rgb(88,89,91)" stroke-width="1" opacity="0.27058823529411763" d="M 83.5 344 L 84 348.5 L 83 348.5 L 83.5 344 Z " /><path fill="rgb(88,89,91)" stroke="rgb(88,89,91)" stroke-width="1" opacity="0.27058823529411763" d="M 353.5 344 L 353 345.5 L 352.5 347 L 352 345.5 L 353.5 344 Z " /><path fill="rgb(88,89,91)" stroke="rgb(88,89,91)" stroke-width="1" opacity="0.27058823529411763" d="M 295.5 346 L 296 351.5 L 295 351.5 L 295.5 346 Z " /><path fill="rgb(88,89,91)" stroke="rgb(88,89,91)" stroke-width="1" opacity="0.27058823529411763" d="M 351.5 348 L 352 350.5 L 351 350.5 L 351.5 348 Z " /><path fill="rgb(88,89,91)" stroke="rgb(88,89,91)" stroke-width="1" opacity="0.27058823529411763" d="M 82.5 353 L 83 361.5 L 82 361.5 L 82.5 353 Z " /><path fill="rgb(88,89,91)" stroke="rgb(88,89,91)" stroke-width="1" opacity="0.27058823529411763" d="M 296.5 356 L 297 365.5 L 296 365.5 L 296.5 356 Z " /><path fill="rgb(88,89,91)" stroke="rgb(88,89,91)" stroke-width="1" opacity="0.27058823529411763" d="M 351.5 358 L 352 362.5 L 351 362.5 L 351.5 358 Z " /><path fill="rgb(88,89,91)" stroke="rgb(88,89,91)" stroke-width="1" opacity="0.27058823529411763" d="M 394.5 359 L 399 367.5 L 398 367.5 L 394.5 359 Z " /><path fill="rgb(88,89,91)" stroke="rgb(88,89,91)" stroke-width="1" opacity="0.27058823529411763" d="M 352.5 364 L 353 367.5 L 352 367.5 L 352.5 364 Z " /><path fill="rgb(88,89,91)" stroke="rgb(88,89,91)" stroke-width="1" opacity="0.27058823529411763" d="M 399.5 369 L 401 373.5 L 400 373.5 L 399.5 369 Z " /><path fill="rgb(88,89,91)" stroke="rgb(88,89,91)" stroke-width="1" opacity="0.27058823529411763" d="M 81.5 370 L 82 380.5 L 81 380.5 L 81.5 370 Z " /><path fill="rgb(88,89,91)" stroke="rgb(88,89,91)" stroke-width="1" opacity="0.27058823529411763" d="M 353.5 370 L 354 386.5 L 353 386.5 L 353.5 370 Z " /><path fill="rgb(88,89,91)" stroke="rgb(88,89,91)" stroke-width="1" opacity="0.27058823529411763" d="M 402.5 379 L 403 381.5 L 402 381.5 L 402.5 379 Z " /><path fill="rgb(88,89,91)" stroke="rgb(88,89,91)" stroke-width="1" opacity="0.27058823529411763" d="M 403.5 384 L 404 399.5 L 403 399.5 L 403.5 384 Z " /><path fill="rgb(88,89,91)" stroke="rgb(88,89,91)" stroke-width="1" opacity="0.27058823529411763" d="M 296.5 385 L 297 394.5 L 296 394.5 L 296.5 385 Z " /><path fill="rgb(88,89,91)" stroke="rgb(88,89,91)" stroke-width="1" opacity="0.27058823529411763" d="M 352.5 389 L 353 392.5 L 352 392.5 L 352.5 389 Z " /><path fill="rgb(88,89,91)" stroke="rgb(88,89,91)" stroke-width="1" opacity="0.27058823529411763" d="M 82.5 390 L 83 397.5 L 82 397.5 L 82.5 390 Z " /><path fill="rgb(88,89,91)" stroke="rgb(88,89,91)" stroke-width="1" opacity="0.27058823529411763" d="M 351.5 394 L 352 396.5 L 349.5 402 L 349 400.5 L 351.5 394 Z " /><path fill="rgb(88,89,91)" stroke="rgb(88,89,91)" stroke-width="1" opacity="0.27058823529411763" d="M 295.5 399 L 296 403.5 L 295 403.5 L 295.5 399 Z " /><path fill="rgb(88,89,91)" stroke="rgb(88,89,91)" stroke-width="1" opacity="0.27058823529411763" d="M 83.5 401 L 84 405.5 L 83 405.5 L 83.5 401 Z " /><path fill="rgb(88,89,91)" stroke="rgb(88,89,91)" stroke-width="1" opacity="0.27058823529411763" d="M 348.5 403 L 349 404.5 L 345.5 410 L 346 408.5 L 348.5 403 Z " /><path fill="rgb(88,89,91)" stroke="rgb(88,89,91)" stroke-width="1" opacity="0.27058823529411763" d="M 402.5 403 L 403 406.5 L 402 406.5 L 402.5 403 Z " /><path fill="rgb(88,89,91)" stroke="rgb(88,89,91)" stroke-width="1" opacity="0.27058823529411763" d="M 294.5 406 L 295 409.5 L 294 409.5 L 294.5 406 Z " /><path fill="rgb(88,89,91)" stroke="rgb(88,89,91)" stroke-width="1" opacity="0.27058823529411763" d="M 84.5 408 L 85 411.5 L 84 411.5 L 84.5 408 Z " /><path fill="rgb(88,89,91)" stroke="rgb(88,89,91)" stroke-width="1" opacity="0.27058823529411763" d="M 401.5 408 L 402 410.5 L 401 410.5 L 401.5 408 Z " /><path fill="rgb(88,89,91)" stroke="rgb(88,89,91)" stroke-width="1" opacity="0.27058823529411763" d="M 344.5 411 L 343.5 413 L 344.5 411 Z " /><path fill="rgb(88,89,91)" stroke="rgb(88,89,91)" stroke-width="1" opacity="0.27058823529411763" d="M 293.5 412 L 294 414.5 L 293 414.5 L 293.5 412 Z " /><path fill="rgb(88,89,91)" stroke="rgb(88,89,91)" stroke-width="1" opacity="0.27058823529411763" d="M 85.5 413 L 86 416.5 L 85 416.5 L 85.5 413 Z " /><path fill="rgb(88,89,91)" stroke="rgb(88,89,91)" stroke-width="1" opacity="0.27058823529411763" d="M 342.5 414 L 340.5 417 L 342.5 414 Z " /><path fill="rgb(88,89,91)" stroke="rgb(88,89,91)" stroke-width="1" opacity="0.27058823529411763" d="M 399.5 415 L 400 416.5 L 398.5 419 L 398 417.5 L 399.5 415 Z " /><path fill="rgb(88,89,91)" stroke="rgb(88,89,91)" stroke-width="1" opacity="0.27058823529411763" d="M 292.5 417 L 293 419.5 L 292 419.5 L 292.5 417 Z " /><path fill="rgb(88,89,91)" stroke="rgb(88,89,91)" stroke-width="1" opacity="0.27058823529411763" d="M 86.5 418 L 87 420.5 L 86 420.5 L 86.5 418 Z " /><path fill="rgb(88,89,91)" stroke="rgb(88,89,91)" stroke-width="1" opacity="0.27058823529411763" d="M 339.5 418 L 334.5 424 L 339.5 418 Z " /><path fill="rgb(88,89,91)" stroke="rgb(88,89,91)" stroke-width="1" opacity="0.27058823529411763" d="M 397.5 420 L 398 421.5 L 394.5 427 L 395 425.5 L 397.5 420 Z " /><path fill="rgb(88,89,91)" stroke="rgb(88,89,91)" stroke-width="1" opacity="0.27058823529411763" d="M 291.5 421 L 292 423.5 L 291 423.5 L 291.5 421 Z " /><path fill="rgb(88,89,91)" stroke="rgb(88,89,91)" stroke-width="1" opacity="0.27058823529411763" d="M 332.5 424 L 330.5 427 L 332.5 424 Z " /><path fill="rgb(88,89,91)" stroke="rgb(88,89,91)" stroke-width="1" opacity="0.27058823529411763" d="M 88.5 425 L 89 427.5 L 88 427.5 L 88.5 425 Z " /><path fill="rgb(88,89,91)" stroke="rgb(88,89,91)" stroke-width="1" opacity="0.27058823529411763" d="M 328.5 427 L 327.5 429 L 325.5 430 L 326.5 428 L 328.5 427 Z " /><path fill="rgb(88,89,91)" stroke="rgb(88,89,91)" stroke-width="1" opacity="0.27058823529411763" d="M 393.5 428 L 393 429.5 Q 386.4 441.9 375.5 450 L 387 437.5 L 393.5 428 Z " /><path fill="rgb(88,89,91)" stroke="rgb(88,89,91)" stroke-width="1" opacity="0.27058823529411763" d="M 89.5 429 L 91 432.5 L 90 432.5 L 89.5 429 Z " /><path fill="rgb(88,89,91)" stroke="rgb(88,89,91)" stroke-width="1" opacity="0.27058823529411763" d="M 322.5 430 L 324 430.5 L 314.5 434 L 314.5 433 L 322.5 430 Z " /><path fill="rgb(88,89,91)" stroke="rgb(88,89,91)" stroke-width="1" opacity="0.27058823529411763" d="M 288.5 431 L 289 432.5 L 287 433.5 L 288.5 431 Z " /><path fill="rgb(88,89,91)" stroke="rgb(88,89,91)" stroke-width="1" opacity="0.27058823529411763" d="M 289.5 434 L 292 434.5 L 289.5 435 L 289.5 434 Z " /><path fill="rgb(88,89,91)" stroke="rgb(88,89,91)" stroke-width="1" opacity="0.27058823529411763" d="M 310.5 434 L 313 434.5 L 310.5 435 L 310.5 434 Z " /><path fill="rgb(88,89,91)" stroke="rgb(88,89,91)" stroke-width="1" opacity="0.27058823529411763" d="M 294.5 435 L 308 435.5 L 294.5 436 L 294.5 435 Z " /><path fill="rgb(88,89,91)" stroke="rgb(88,89,91)" stroke-width="1" opacity="0.27058823529411763" d="M 93.5 439 L 97 445.5 L 95 444.5 L 93.5 439 Z " /><path fill="rgb(88,89,91)" stroke="rgb(88,89,91)" stroke-width="1" opacity="0.27058823529411763" d="M 97.5 447 L 100 450.5 L 98 449.5 L 97.5 447 Z " /><path fill="rgb(88,89,91)" stroke="rgb(88,89,91)" stroke-width="1" opacity="0.27058823529411763" d="M 373.5 450 L 370.5 454 L 365.5 457 L 366.5 455 L 373.5 450 Z " /><path fill="rgb(88,89,91)" stroke="rgb(88,89,91)" stroke-width="1" opacity="0.27058823529411763" d="M 100.5 452 L 111.5 465 L 118 469.5 L 116.5 469 L 107 461.5 L 100.5 452 Z " /><path fill="rgb(88,89,91)" stroke="rgb(88,89,91)" stroke-width="1" opacity="0.27058823529411763" d="M 363.5 457 L 362.5 459 L 358.5 461 L 359.5 459 L 363.5 457 Z " /><path fill="rgb(88,89,91)" stroke="rgb(88,89,91)" stroke-width="1" opacity="0.27058823529411763" d="M 353.5 462 L 355 462.5 L 351.5 464 L 351.5 463 L 353.5 462 Z " /><path fill="rgb(88,89,91)" stroke="rgb(88,89,91)" stroke-width="1" opacity="0.27058823529411763" d="M 265.5 466 L 268 466.5 L 264.5 468 L 265.5 466 Z " /><path fill="rgb(88,89,91)" stroke="rgb(88,89,91)" stroke-width="1" opacity="0.27058823529411763" d="M 269.5 467 L 272 467.5 L 269.5 468 L 269.5 467 Z " /><path fill="rgb(88,89,91)" stroke="rgb(88,89,91)" stroke-width="1" opacity="0.27058823529411763" d="M 339.5 467 L 342 467.5 L 339.5 468 L 339.5 467 Z " /><path fill="rgb(88,89,91)" stroke="rgb(88,89,91)" stroke-width="1" opacity="0.27058823529411763" d="M 262.5 468 L 261.5 470 L 258 471 L 259 474.5 L 258 474.5 L 257 471.5 L 262.5 468 Z " /><path fill="rgb(88,89,91)" stroke="rgb(88,89,91)" stroke-width="1" opacity="0.27058823529411763" d="M 273.5 468 L 276 468.5 L 273.5 469 L 273.5 468 Z " /><path fill="rgb(88,89,91)" stroke="rgb(88,89,91)" stroke-width="1" opacity="0.27058823529411763" d="M 335.5 468 L 338 468.5 L 335.5 469 L 335.5 468 Z " /><path fill="rgb(88,89,91)" stroke="rgb(88,89,91)" stroke-width="1" opacity="0.27058823529411763" d="M 278.5 469 L 281 469.5 L 278.5 470 L 278.5 469 Z " /><path fill="rgb(88,89,91)" stroke="rgb(88,89,91)" stroke-width="1" opacity="0.27058823529411763" d="M 331.5 469 L 334 469.5 L 331.5 470 L 331.5 469 Z " /><path fill="rgb(88,89,91)" stroke="rgb(88,89,91)" stroke-width="1" opacity="0.27058823529411763" d="M 283.5 470 L 288 470.5 L 283.5 471 L 283.5 470 Z " /><path fill="rgb(88,89,91)" stroke="rgb(88,89,91)" stroke-width="1" opacity="0.27058823529411763" d="M 325.5 470 L 329 470.5 L 325.5 471 L 325.5 470 Z " /><path fill="rgb(88,89,91)" stroke="rgb(88,89,91)" stroke-width="1" opacity="0.27058823529411763" d="M 291.5 471 L 299 471.5 L 291.5 472 L 291.5 471 Z " /><path fill="rgb(88,89,91)" stroke="rgb(88,89,91)" stroke-width="1" opacity="0.27058823529411763" d="M 315.5 471 L 322 471.5 L 315.5 472 L 315.5 471 Z " /><path fill="rgb(88,89,91)" stroke="rgb(88,89,91)" stroke-width="1" opacity="0.27058823529411763" d="M 214.5 474 L 215 480.5 L 214 480.5 L 214.5 474 Z " /><path fill="rgb(88,89,91)" stroke="rgb(88,89,91)" stroke-width="1" opacity="0.27058823529411763" d="M 164.5 476 L 165 480.5 L 164 480.5 L 164.5 476 Z " /><path fill="rgb(88,89,91)" stroke="rgb(88,89,91)" stroke-width="1" opacity="0.27058823529411763" d="M 260.5 479 L 261 481.5 L 260 481.5 L 260.5 479 Z " /><path fill="rgb(88,89,91)" stroke="rgb(88,89,91)" stroke-width="1" opacity="0.27058823529411763" d="M 117.5 482 L 118 491.5 L 117 491.5 L 117.5 482 Z " /><path fill="rgb(88,89,91)" stroke="rgb(88,89,91)" stroke-width="1" opacity="0.27058823529411763" d="M 261.5 484 L 262 490.5 L 261 490.5 L 261.5 484 Z " /><path fill="rgb(88,89,91)" stroke="rgb(88,89,91)" stroke-width="1" opacity="0.27058823529411763" d="M 164.5 488 L 165 491.5 L 164 491.5 L 164.5 488 Z " /><path fill="rgb(88,89,91)" stroke="rgb(88,89,91)" stroke-width="1" opacity="0.27058823529411763" d="M 214.5 488 L 217 497 L 220 498.5 L 218.5 498 L 216 496.5 Q 212.9 493.5 214.5 488 Z " /><path fill="rgb(88,89,91)" stroke="rgb(88,89,91)" stroke-width="1" opacity="0.27058823529411763" d="M 163.5 493 L 164 494.5 L 159 498.5 L 163.5 493 Z " /><path fill="rgb(88,89,91)" stroke="rgb(88,89,91)" stroke-width="1" opacity="0.27058823529411763" d="M 118.5 494 L 122 498.5 L 118 495.5 L 118.5 494 Z " /><path fill="rgb(88,89,91)" stroke="rgb(88,89,91)" stroke-width="1" opacity="0.27058823529411763" d="M 259.5 496 L 257.5 499 L 254.5 500 L 254.5 499 L 259.5 496 Z " /><path fill="rgb(88,89,91)" stroke="rgb(88,89,91)" stroke-width="1" opacity="0.27058823529411763" d="M 123.5 499 L 128 500.5 L 125.5 501 L 123.5 499 Z " /><path fill="rgb(88,89,91)" stroke="rgb(88,89,91)" stroke-width="1" opacity="0.27058823529411763" d="M 223.5 500 L 226 500.5 L 223.5 501 L 223.5 500 Z " /><path fill="rgb(88,89,91)" stroke="rgb(88,89,91)" stroke-width="1" opacity="0.27058823529411763" d="M 129.5 501 L 133 501.5 L 129.5 502 L 129.5 501 Z " /><path fill="rgb(88,89,91)" stroke="rgb(88,89,91)" stroke-width="1" opacity="0.27058823529411763" d="M 147.5 501 L 152 501.5 L 147.5 502 L 147.5 501 Z " /><path fill="rgb(88,89,91)" stroke="rgb(88,89,91)" stroke-width="1" opacity="0.27058823529411763" d="M 227.5 501 L 232 501.5 L 227.5 502 L 227.5 501 Z " /><path fill="rgb(88,89,91)" stroke="rgb(88,89,91)" stroke-width="1" opacity="0.27058823529411763" d="M 245.5 501 L 249 501.5 L 245.5 502 L 245.5 501 Z " /><path fill="rgb(89,89,91)" stroke="rgb(89,89,91)" stroke-width="1" opacity="0.984313725490196" d="M 248.5 10 L 267.5 10 L 268.5 11 L 285.5 12 L 310.5 18 L 326 24 Q 327.5 15.6 333.5 11 Q 342.3 9.3 344 14.5 L 345 21.5 L 340 30.5 Q 368.7 46.3 389 70.5 Q 411.4 96.1 423 132.5 L 429 160.5 L 430 194.5 L 429 195.5 L 429 204.5 L 427 214 L 424.5 214 L 404.5 198 L 387.5 190 L 366.5 185 L 342.5 185 L 327.5 188 Q 317.7 164.8 299.5 150 L 288.5 142 L 286 142 L 279 156.5 L 279 162.5 L 281 172.5 L 281 190.5 Q 275.9 219.4 257 234.5 L 274 266.5 L 287 303.5 L 295 343.5 L 296 365.5 L 297 366.5 L 297 384.5 L 296 385.5 L 296 398.5 L 295 399.5 L 293 416.5 L 287 433.5 Q 294.4 437.6 307.5 436 Q 328.7 432.2 340 418.5 Q 348 409.5 352 396.5 L 354 386.5 L 354 370.5 L 351 357.5 L 351 351.5 L 354 343.5 L 356.5 341 Q 361.2 337.2 371.5 339 Q 381 342.5 387 349.5 Q 397.5 360.5 402 377.5 L 403 382.5 L 403 402.5 Q 396.3 433.8 374.5 450 Q 361.1 461.1 342.5 467 L 324.5 471 L 299.5 472 L 298.5 471 L 281.5 470 L 265.5 466 L 257 471.5 L 261 482.5 L 261 492.5 L 257.5 498 L 244.5 502 L 232.5 502 L 222.5 500 L 217 497 L 215 492.5 L 214 481.5 L 215 480.5 L 215 474 L 164.5 474 Q 163.3 474.3 164 480.5 Q 166.5 482 165 487.5 L 163 494.5 L 158.5 499 L 146.5 502 L 133.5 502 L 122.5 499 L 119 495.5 L 118 493.5 L 118 480.5 L 122 471.5 L 108 461.5 Q 93.3 445.7 87 421.5 L 83 400.5 L 83 390.5 L 82 389.5 L 82 362.5 L 83 361.5 L 83 349.5 L 84 348.5 L 86 328.5 L 95 292.5 L 107 261.5 L 121 233.5 Q 107.8 222.2 101 204.5 L 98 192.5 L 98 169.5 L 99 168.5 L 101 149.5 L 103 143.5 L 103 97.5 L 106.5 94 L 113.5 95 L 137.5 114 L 155.5 108 L 160.5 108 L 167.5 106 L 176.5 106 L 177.5 105 L 194 104.5 Q 182.6 90.9 166.5 82 L 153.5 76 L 139.5 72 L 130.5 71 L 129 69.5 L 129 67.5 L 143.5 53 Q 164 34.5 191.5 23 L 219.5 14 L 236.5 12 L 237.5 11 L 247.5 11 L 248.5 10 Z M 246 14 L 245 15 L 237 15 L 216 19 L 190 28 Q 160 41 140 62 L 135 68 Q 164 72 183 88 Q 201 102 212 124 Q 232 92 257 66 Q 273 49 293 36 L 309 28 L 318 26 L 311 22 L 287 16 L 271 15 L 270 14 L 246 14 Z M 336 14 Q 330 18 329 26 L 337 29 L 342 19 L 341 17 L 336 14 Z M 318 29 Q 304 32 295 39 L 273 56 Q 240 85 217 124 L 216 126 L 226 124 L 248 124 L 264 127 Q 289 134 306 150 Q 320 163 329 181 L 340 144 L 346 113 L 347 97 L 348 96 L 348 66 L 345 50 L 340 39 L 331 30 Q 326 28 318 29 Z M 345 38 L 350 56 L 351 71 L 352 72 L 352 93 L 351 94 L 351 104 L 350 105 L 348 125 L 340 159 L 332 183 L 344 181 L 366 181 L 367 182 L 378 183 L 391 187 Q 410 194 424 208 L 425 206 L 425 198 L 426 197 L 426 169 L 425 168 L 425 160 L 422 144 L 417 127 Q 405 94 384 71 Q 367 51 345 38 Z M 109 97 L 106 100 L 106 147 L 101 175 L 101 189 L 104 203 Q 108 215 116 224 L 130 235 L 132 239 L 125 237 Q 106 265 96 302 L 90 327 L 88 345 L 87 346 L 87 355 L 86 356 L 86 396 L 87 397 L 89 415 L 95 435 L 106 454 L 118 465 L 122 467 Q 123 469 124 467 L 124 460 L 127 460 L 127 470 L 123 477 L 121 485 L 122 494 L 132 498 Q 147 500 157 496 L 161 491 L 161 479 L 159 471 L 159 463 L 162 461 L 163 466 Q 162 470 164 470 L 216 470 L 217 466 Q 216 461 220 463 L 219 476 L 218 477 L 218 491 L 219 493 L 223 496 L 230 498 L 248 498 L 256 495 L 257 494 Q 256 489 258 488 L 256 478 L 252 470 L 251 462 L 254 460 L 255 462 L 256 468 L 262 465 Q 274 454 282 439 L 289 419 L 292 402 L 292 394 L 293 393 L 293 359 L 292 358 L 292 348 L 290 340 L 290 334 L 286 314 Q 275 270 255 237 L 253 237 L 249 240 L 247 238 L 256 231 Q 268 221 274 205 L 278 186 L 277 168 L 276 164 L 226 266 L 231 274 Q 249 288 273 297 L 272 299 L 251 290 L 230 277 L 227 273 L 216 264 L 212 265 Q 202 273 198 288 L 199 293 L 203 296 L 214 300 L 226 307 L 246 322 L 255 327 L 256 331 L 249 328 L 221 308 L 209 302 Q 202 313 186 314 L 183 320 L 176 324 L 165 324 L 164 323 L 157 323 L 142 326 L 125 330 L 118 333 Q 112 335 114 330 L 131 325 L 160 319 L 167 321 L 174 321 L 180 319 L 181 317 L 181 305 L 179 297 L 173 287 L 167 287 L 148 293 L 118 296 L 110 298 Q 103 300 105 295 L 115 293 L 140 291 L 155 288 L 156 287 L 156 281 L 158 274 Q 160 267 166 263 L 174 264 L 176 268 L 176 275 L 172 284 L 176 285 L 180 291 L 184 299 Q 190 299 193 296 L 195 294 L 195 287 L 199 276 L 211 261 L 234 214 L 233 212 L 220 211 L 218 207 L 229 209 L 236 209 L 242 196 L 243 194 L 223 200 Q 216 202 218 197 L 243 190 L 245 191 L 272 135 L 271 133 L 257 129 L 242 128 L 241 127 L 224 128 L 211 131 L 198 109 L 165 110 L 144 115 L 138 118 L 136 118 L 112 98 L 109 97 Z M 276 136 L 215 261 L 223 264 L 283 140 L 276 136 Z M 167 266 Q 160 273 159 285 L 168 284 L 173 273 L 173 269 Q 172 265 167 266 Z M 198 296 L 189 302 L 184 302 L 185 311 L 190 311 L 199 307 L 204 300 L 198 296 Z M 363 342 L 361 343 L 355 350 L 355 361 L 358 376 L 357 391 L 355 399 Q 351 411 344 420 Q 333 434 312 439 L 292 439 L 287 437 Q 280 452 269 463 L 275 465 L 293 467 L 294 468 L 321 468 L 337 465 Q 358 459 373 447 Q 384 438 391 426 L 397 413 L 400 398 L 399 381 L 396 371 L 391 361 L 383 350 L 372 343 L 363 342 Z " /><path fill="rgb(89,89,91)" stroke="rgb(89,89,91)" stroke-width="1" opacity="0.984313725490196" d="M 149.5 153 Q 155 152 156 155.5 Q 157 161 153.5 162 L 147 161 L 146 157.5 L 147 154 L 149.5 153 Z " /><path fill="rgb(89,89,91)" stroke="rgb(89,89,91)" stroke-width="1" opacity="0.984313725490196" d="M 227.5 153 Q 233 152 234 155.5 Q 235 161 231.5 162 Q 226 163 225 159.5 Q 224 154 227.5 153 Z " /><path fill="rgb(89,89,91)" stroke="rgb(89,89,91)" stroke-width="1" opacity="0.984313725490196" d="M 184.5 175 L 194.5 175 L 197 177.5 Q 198.2 186.2 193.5 189 L 191 190.5 Q 189 200 194.5 202 Q 201.3 201.1 204 203 L 202.5 206 Q 192.6 207.4 189.5 202 Q 186.4 207.4 176.5 206 L 175 203.5 L 176.5 202 L 184.5 202 L 187 199.5 L 188 190 L 184 187.5 L 181 179.5 L 184.5 175 Z " /><path fill="rgb(89,89,91)" stroke="rgb(89,89,91)" stroke-width="1" opacity="0.984313725490196" d="M 135.5 190 L 157.5 196 L 161 198.5 Q 161.9 201.9 156.5 200 L 138.5 195 L 134 192.5 L 135.5 190 Z " /><path fill="rgb(89,89,91)" stroke="rgb(89,89,91)" stroke-width="1" opacity="0.984313725490196" d="M 157.5 207 L 161 208.5 L 159.5 211 L 134 214 Q 132.5 210.2 135.5 211 L 157.5 207 Z " /><path fill="rgb(230,230,230)" stroke="rgb(230,230,230)" stroke-width="1" opacity="1" d="M 182.5 175 L 181.5 177 L 182.5 175 Z " /><path fill="rgb(230,230,230)" stroke="rgb(230,230,230)" stroke-width="1" opacity="1" d="M 116.5 222 L 117.5 224 L 116.5 222 Z " /><path fill="rgb(230,230,230)" stroke="rgb(230,230,230)" stroke-width="1" opacity="1" d="M 260.5 224 L 255.5 230 L 260.5 224 Z " /><path fill="rgb(230,230,230)" stroke="rgb(230,230,230)" stroke-width="1" opacity="1" d="M 253.5 237 L 254.5 239 L 253.5 237 Z " /><path fill="rgb(230,230,230)" stroke="rgb(230,230,230)" stroke-width="1" opacity="1" d="M 163.5 263 L 161.5 266 L 163.5 263 Z " /><path fill="rgb(230,230,230)" stroke="rgb(230,230,230)" stroke-width="1" opacity="1" d="M 204.5 266 L 203.5 268 L 204.5 266 Z " /><path fill="rgb(230,230,230)" stroke="rgb(230,230,230)" stroke-width="1" opacity="1" d="M 231.5 272 L 232.5 274 L 231.5 272 Z " /><path fill="rgb(230,230,230)" stroke="rgb(230,230,230)" stroke-width="1" opacity="1" d="M 193.5 293 L 191.5 296 L 193.5 293 Z " /><path fill="rgb(230,230,230)" stroke="rgb(230,230,230)" stroke-width="1" opacity="1" d="M 91.5 325 L 92 328.5 L 91 328.5 L 91.5 325 Z " /><path fill="rgb(230,230,230)" stroke="rgb(230,230,230)" stroke-width="1" opacity="1" d="M 287.5 327 L 288 330.5 L 287 330.5 L 287.5 327 Z " /><path fill="rgb(230,230,230)" stroke="rgb(230,230,230)" stroke-width="1" opacity="1" d="M 90.5 331 L 91 338.5 L 90 338.5 L 90.5 331 Z " /><path fill="rgb(230,230,230)" stroke="rgb(230,230,230)" stroke-width="1" opacity="1" d="M 288.5 333 L 289 342.5 L 288 342.5 L 288.5 333 Z " /><path fill="rgb(230,230,230)" stroke="rgb(230,230,230)" stroke-width="1" opacity="1" d="M 89.5 343 L 90 371.5 L 89 371.5 L 89.5 343 Z " /><path fill="rgb(230,230,230)" stroke="rgb(230,230,230)" stroke-width="1" opacity="1" d="M 367.5 343 L 373.5 350 L 367.5 343 Z " /><path fill="rgb(230,230,230)" stroke="rgb(230,230,230)" stroke-width="1" opacity="1" d="M 289.5 347 L 290 368.5 L 289 368.5 L 289.5 347 Z " /><path fill="rgb(230,230,230)" stroke="rgb(230,230,230)" stroke-width="1" opacity="1" d="M 374.5 351 L 381 362.5 L 380 362.5 L 374.5 351 Z " /><path fill="rgb(230,230,230)" stroke="rgb(230,230,230)" stroke-width="1" opacity="1" d="M 383.5 370 Q 385.8 373.8 385 380.5 L 384 380.5 L 383.5 370 Z " /><path fill="rgb(230,230,230)" stroke="rgb(230,230,230)" stroke-width="1" opacity="1" d="M 288.5 372 L 289 382.5 L 288 382.5 L 288.5 372 Z " /><path fill="rgb(230,230,230)" stroke="rgb(230,230,230)" stroke-width="1" opacity="1" d="M 90.5 375 L 91 382.5 L 90 382.5 L 90.5 375 Z " /><path fill="rgb(230,230,230)" stroke="rgb(230,230,230)" stroke-width="1" opacity="1" d="M 379.5 377 L 380.5 379 L 379.5 377 Z " /><path fill="rgb(230,230,230)" stroke="rgb(230,230,230)" stroke-width="1" opacity="1" d="M 287.5 384 L 288 388.5 L 287 388.5 L 287.5 384 Z " /><path fill="rgb(230,230,230)" stroke="rgb(230,230,230)" stroke-width="1" opacity="1" d="M 91.5 385 L 92 390.5 L 91 390.5 L 91.5 385 Z " /><path fill="rgb(230,230,230)" stroke="rgb(230,230,230)" stroke-width="1" opacity="1" d="M 286.5 390 L 287 395.5 L 285.5 400 L 285 396.5 L 286.5 390 Z " /><path fill="rgb(230,230,230)" stroke="rgb(230,230,230)" stroke-width="1" opacity="1" d="M 92.5 392 L 93 395.5 L 92 395.5 L 92.5 392 Z " /><path fill="rgb(230,230,230)" stroke="rgb(230,230,230)" stroke-width="1" opacity="1" d="M 93.5 397 L 94 400.5 L 93 400.5 L 93.5 397 Z " /><path fill="rgb(230,230,230)" stroke="rgb(230,230,230)" stroke-width="1" opacity="1" d="M 284.5 401 L 285 403.5 L 284 403.5 L 284.5 401 Z " /><path fill="rgb(230,230,230)" stroke="rgb(230,230,230)" stroke-width="1" opacity="1" d="M 94.5 402 L 96 407.5 L 95 407.5 L 94.5 402 Z " /><path fill="rgb(230,230,230)" stroke="rgb(230,230,230)" stroke-width="1" opacity="1" d="M 283.5 405 L 284 407.5 L 283 407.5 L 283.5 405 Z " /><path fill="rgb(230,230,230)" stroke="rgb(230,230,230)" stroke-width="1" opacity="1" d="M 382.5 405 L 383 407.5 Q 377.1 425.1 364.5 436 L 363 435.5 L 369 430.5 Q 378 420 382.5 405 Z " /><path fill="rgb(230,230,230)" stroke="rgb(230,230,230)" stroke-width="1" opacity="1" d="M 96.5 409 L 99 416.5 L 98 416.5 L 96.5 409 Z " /><path fill="rgb(230,230,230)" stroke="rgb(230,230,230)" stroke-width="1" opacity="1" d="M 282.5 409 L 283 410.5 L 281.5 414 L 281 411.5 L 282.5 409 Z " /><path fill="rgb(230,230,230)" stroke="rgb(230,230,230)" stroke-width="1" opacity="1" d="M 350.5 412 L 352.5 415 L 350.5 412 Z " /><path fill="rgb(230,230,230)" stroke="rgb(230,230,230)" stroke-width="1" opacity="1" d="M 280.5 415 L 281 416.5 L 279.5 419 L 279 417.5 L 280.5 415 Z " /><path fill="rgb(230,230,230)" stroke="rgb(230,230,230)" stroke-width="1" opacity="1" d="M 354.5 417 L 355.5 419 L 354.5 417 Z " /><path fill="rgb(230,230,230)" stroke="rgb(230,230,230)" stroke-width="1" opacity="1" d="M 99.5 418 L 101 421.5 L 100 421.5 L 99.5 418 Z " /><path fill="rgb(230,230,230)" stroke="rgb(230,230,230)" stroke-width="1" opacity="1" d="M 278.5 420 L 279 421.5 L 273.5 431 L 274 429.5 L 278.5 420 Z " /><path fill="rgb(230,230,230)" stroke="rgb(230,230,230)" stroke-width="1" opacity="1" d="M 101.5 423 Q 107.9 437.1 118.5 447 L 129 452.5 L 127.5 453 Q 117.9 450.1 113 442.5 Q 104.8 434.3 101.5 423 Z " /><path fill="rgb(230,230,230)" stroke="rgb(230,230,230)" stroke-width="1" opacity="1" d="M 341.5 427 L 342.5 429 L 341.5 427 Z " /><path fill="rgb(230,230,230)" stroke="rgb(230,230,230)" stroke-width="1" opacity="1" d="M 272.5 432 L 272 433.5 L 265 444 L 254.5 452 L 244.5 454 L 244.5 453 L 254.5 451 L 268 438.5 L 272.5 432 Z " /><path fill="rgb(230,230,230)" stroke="rgb(230,230,230)" stroke-width="1" opacity="1" d="M 318.5 441 L 319 448.5 L 318 448.5 L 318.5 441 Z " /><path fill="rgb(230,230,230)" stroke="rgb(230,230,230)" stroke-width="1" opacity="1" d="M 348.5 448 L 347.5 450 L 345.5 451 L 346.5 449 L 348.5 448 Z " /><path fill="rgb(230,230,230)" stroke="rgb(230,230,230)" stroke-width="1" opacity="1" d="M 343.5 451 L 342.5 453 L 337.5 455 L 337.5 454 L 343.5 451 Z " /><path fill="rgb(230,230,230)" stroke="rgb(230,230,230)" stroke-width="1" opacity="1" d="M 130.5 453 L 134 453.5 L 130.5 454 L 130.5 453 Z " /><path fill="rgb(230,230,230)" stroke="rgb(230,230,230)" stroke-width="1" opacity="1" d="M 334.5 455 L 336 455.5 L 323.5 460 L 323.5 459 L 334.5 455 Z " /><path fill="rgb(230,230,230)" stroke="rgb(230,230,230)" stroke-width="1" opacity="1" d="M 319.5 460 L 322 460.5 L 319.5 461 L 319.5 460 Z " /><path fill="rgb(230,230,230)" stroke="rgb(230,230,230)" stroke-width="1" opacity="1" d="M 270.5 462 L 273 462.5 L 270.5 463 L 270.5 462 Z " /><path fill="rgb(230,230,230)" stroke="rgb(230,230,230)" stroke-width="1" opacity="1" d="M 274.5 463 L 284 463.5 L 274.5 464 L 274.5 463 Z " /><path fill="rgb(218,218,217)" stroke="rgb(218,218,217)" stroke-width="1" opacity="1" d="M 113.5 100 L 115.5 103 L 113.5 100 Z " /><path fill="rgb(218,218,217)" stroke="rgb(218,218,217)" stroke-width="1" opacity="1" d="M 118.5 104 L 120.5 107 L 118.5 104 Z " /><path fill="rgb(218,218,217)" stroke="rgb(218,218,217)" stroke-width="1" opacity="1" d="M 124.5 109 L 125.5 111 L 124.5 109 Z " /><path fill="rgb(218,218,217)" stroke="rgb(218,218,217)" stroke-width="1" opacity="1" d="M 178.5 109 L 197 109.5 L 178.5 110 L 178.5 109 Z " /><path fill="rgb(218,218,217)" stroke="rgb(218,218,217)" stroke-width="1" opacity="1" d="M 167.5 110 L 170 110.5 L 167.5 111 L 167.5 110 Z " /><path fill="rgb(218,218,217)" stroke="rgb(218,218,217)" stroke-width="1" opacity="1" d="M 129.5 113 L 130.5 115 L 129.5 113 Z " /><path fill="rgb(218,218,217)" stroke="rgb(218,218,217)" stroke-width="1" opacity="1" d="M 102.5 169 L 103 171.5 L 102 171.5 L 102.5 169 Z " /><path fill="rgb(218,218,217)" stroke="rgb(218,218,217)" stroke-width="1" opacity="1" d="M 183.5 187 L 185.5 190 L 183.5 187 Z " /><path fill="rgb(218,218,217)" stroke="rgb(218,218,217)" stroke-width="1" opacity="1" d="M 194.5 188 L 193.5 190 L 194.5 188 Z " /><path fill="rgb(218,218,217)" stroke="rgb(218,218,217)" stroke-width="1" opacity="1" d="M 191.5 191 L 192 195.5 L 191 195.5 L 191.5 191 Z " /><path fill="rgb(218,218,217)" stroke="rgb(218,218,217)" stroke-width="1" opacity="1" d="M 161.5 197 L 162 199.5 L 161 199.5 L 161.5 197 Z " /><path fill="rgb(218,218,217)" stroke="rgb(218,218,217)" stroke-width="1" opacity="1" d="M 192.5 199 L 193.5 201 L 192.5 199 Z " /><path fill="rgb(218,218,217)" stroke="rgb(218,218,217)" stroke-width="1" opacity="1" d="M 188.5 203 L 187.5 205 L 188.5 203 Z " /><path fill="rgb(218,218,217)" stroke="rgb(218,218,217)" stroke-width="1" opacity="1" d="M 176.5 206 L 182 206.5 L 176.5 207 L 176.5 206 Z " /><path fill="rgb(218,218,217)" stroke="rgb(218,218,217)" stroke-width="1" opacity="1" d="M 197.5 206 L 202 206.5 L 197.5 207 L 197.5 206 Z " /><path fill="rgb(218,218,217)" stroke="rgb(218,218,217)" stroke-width="1" opacity="1" d="M 224.5 207 L 227 207.5 L 224.5 208 L 224.5 207 Z " /><path fill="rgb(218,218,217)" stroke="rgb(218,218,217)" stroke-width="1" opacity="1" d="M 220.5 211 L 223 211.5 L 220.5 212 L 220.5 211 Z " /><path fill="rgb(218,218,217)" stroke="rgb(218,218,217)" stroke-width="1" opacity="1" d="M 227.5 212 L 230 212.5 L 227.5 213 L 227.5 212 Z " /><path fill="rgb(218,218,217)" stroke="rgb(218,218,217)" stroke-width="1" opacity="1" d="M 114.5 220 L 115.5 222 L 114.5 220 Z " /><path fill="rgb(218,218,217)" stroke="rgb(218,218,217)" stroke-width="1" opacity="1" d="M 263.5 221 L 261.5 224 L 263.5 221 Z " /><path fill="rgb(218,218,217)" stroke="rgb(218,218,217)" stroke-width="1" opacity="1" d="M 254.5 230 L 252.5 233 L 254.5 230 Z " /><path fill="rgb(218,218,217)" stroke="rgb(218,218,217)" stroke-width="1" opacity="1" d="M 125.5 231 L 126.5 233 L 125.5 231 Z " /><path fill="rgb(218,218,217)" stroke="rgb(218,218,217)" stroke-width="1" opacity="1" d="M 129.5 234 L 130.5 236 L 129.5 234 Z " /><path fill="rgb(218,218,217)" stroke="rgb(218,218,217)" stroke-width="1" opacity="1" d="M 251.5 238 L 250.5 240 L 251.5 238 Z " /><path fill="rgb(218,218,217)" stroke="rgb(218,218,217)" stroke-width="1" opacity="1" d="M 208.5 262 L 205.5 266 L 208.5 262 Z " /><path fill="rgb(218,218,217)" stroke="rgb(218,218,217)" stroke-width="1" opacity="1" d="M 173.5 263 L 175.5 266 L 173.5 263 Z " /><path fill="rgb(218,218,217)" stroke="rgb(218,218,217)" stroke-width="1" opacity="1" d="M 226.5 266 L 228.5 269 L 226.5 266 Z " /><path fill="rgb(218,218,217)" stroke="rgb(218,218,217)" stroke-width="1" opacity="1" d="M 207.5 270 L 206.5 272 L 207.5 270 Z " /><path fill="rgb(218,218,217)" stroke="rgb(218,218,217)" stroke-width="1" opacity="1" d="M 231.5 278 L 232.5 280 L 231.5 278 Z " /><path fill="rgb(218,218,217)" stroke="rgb(218,218,217)" stroke-width="1" opacity="1" d="M 155.5 281 L 156 283.5 L 155 283.5 L 155.5 281 Z " /><path fill="rgb(218,218,217)" stroke="rgb(218,218,217)" stroke-width="1" opacity="1" d="M 172.5 282 L 173.5 284 L 172.5 282 Z " /><path fill="rgb(218,218,217)" stroke="rgb(218,218,217)" stroke-width="1" opacity="1" d="M 168.5 287 L 171 287.5 L 168.5 288 L 168.5 287 Z " /><path fill="rgb(218,218,217)" stroke="rgb(218,218,217)" stroke-width="1" opacity="1" d="M 194.5 287 L 195 292.5 L 194 292.5 L 194.5 287 Z " /><path fill="rgb(218,218,217)" stroke="rgb(218,218,217)" stroke-width="1" opacity="1" d="M 173.5 288 L 174.5 290 L 173.5 288 Z " /><path fill="rgb(218,218,217)" stroke="rgb(218,218,217)" stroke-width="1" opacity="1" d="M 134.5 290 L 137 290.5 L 134.5 291 L 134.5 290 Z " /><path fill="rgb(218,218,217)" stroke="rgb(218,218,217)" stroke-width="1" opacity="1" d="M 124.5 291 L 127 291.5 L 124.5 292 L 124.5 291 Z " /><path fill="rgb(218,218,217)" stroke="rgb(218,218,217)" stroke-width="1" opacity="1" d="M 116.5 292 L 119 292.5 L 116.5 293 L 116.5 292 Z " /><path fill="rgb(218,218,217)" stroke="rgb(218,218,217)" stroke-width="1" opacity="1" d="M 138.5 294 L 141 294.5 L 138.5 295 L 138.5 294 Z " /><path fill="rgb(218,218,217)" stroke="rgb(218,218,217)" stroke-width="1" opacity="1" d="M 129.5 295 L 133 295.5 L 129.5 296 L 129.5 295 Z " /><path fill="rgb(218,218,217)" stroke="rgb(218,218,217)" stroke-width="1" opacity="1" d="M 180.5 307 L 181 314.5 L 180 314.5 L 180.5 307 Z " /><path fill="rgb(218,218,217)" stroke="rgb(218,218,217)" stroke-width="1" opacity="1" d="M 230.5 315 L 231.5 317 L 230.5 315 Z " /><path fill="rgb(218,218,217)" stroke="rgb(218,218,217)" stroke-width="1" opacity="1" d="M 179.5 317 L 178.5 319 L 179.5 317 Z " /><path fill="rgb(218,218,217)" stroke="rgb(218,218,217)" stroke-width="1" opacity="1" d="M 242.5 318 L 243.5 320 L 242.5 318 Z " /><path fill="rgb(218,218,217)" stroke="rgb(218,218,217)" stroke-width="1" opacity="1" d="M 237.5 320 L 238.5 322 L 237.5 320 Z " /><path fill="rgb(218,218,217)" stroke="rgb(218,218,217)" stroke-width="1" opacity="1" d="M 165.5 324 L 168 324.5 L 165.5 325 L 165.5 324 Z " /><path fill="rgb(218,218,217)" stroke="rgb(218,218,217)" stroke-width="1" opacity="1" d="M 254.5 326 L 256.5 329 L 254.5 326 Z " /><path fill="rgb(218,218,217)" stroke="rgb(218,218,217)" stroke-width="1" opacity="1" d="M 114.5 329 L 113.5 331 L 114.5 329 Z " /><path fill="rgb(218,218,217)" stroke="rgb(218,218,217)" stroke-width="1" opacity="1" d="M 256.5 330 L 255.5 332 L 253 331.5 L 256.5 330 Z " /><path fill="rgb(218,218,217)" stroke="rgb(218,218,217)" stroke-width="1" opacity="1" d="M 288.5 330 L 289 332.5 L 288 332.5 L 288.5 330 Z " /><path fill="rgb(218,218,217)" stroke="rgb(218,218,217)" stroke-width="1" opacity="1" d="M 89.5 335 L 90 342.5 L 89 343.5 L 89 371.5 L 90 372.5 L 91 390.5 L 97 414.5 Q 103.9 435.1 118.5 448 L 130.5 454 L 248.5 454 L 254.5 452 L 265 444 Q 277.6 429.4 284 407.5 L 289 382.5 L 290 347.5 L 289 346.5 L 289 336.5 L 290 336.5 L 291 351.5 L 292 352.5 L 292 365.5 L 293 366.5 L 293 385.5 L 292 386.5 L 292 398.5 L 291 399.5 L 290 411.5 L 284 432.5 Q 276.8 450.8 263.5 463 L 256.5 467 L 253.5 459 L 251 460.5 L 252 471.5 L 257 482.5 L 257 492.5 L 249.5 497 L 232.5 498 L 223.5 496 L 219 492.5 L 218 482.5 L 219 481.5 L 219 472.5 L 221 464.5 Q 218.5 459.5 216 464.5 Q 217 469 214.5 470 L 164.5 470 L 163 468.5 Q 164.5 462.5 161.5 461 L 159 461.5 L 159 474.5 L 160 475.5 L 161 487.5 L 157.5 495 L 146.5 498 L 134.5 498 Q 133.3 495.7 128.5 497 L 122 492.5 L 122 481.5 L 127 470.5 L 128 460 L 125.5 459 Q 122.3 461.7 123 467 Q 113.8 463.5 108 455.5 Q 95.5 440 90 417.5 L 87 400.5 L 87 390.5 L 86 389.5 L 86 362.5 L 87 361.5 L 87 350.5 L 88 349.5 L 88 341.5 L 89.5 335 Z " /><path fill="rgb(218,218,217)" stroke="rgb(218,218,217)" stroke-width="1" opacity="1" d="M 368.5 343 Q 380.4 345.6 386 354.5 Q 393.1 362.9 397 374.5 L 399 382.5 L 399 401.5 Q 393.6 428.1 376.5 443 Q 364.3 454.3 347.5 461 L 324.5 467 L 301.5 468 L 300.5 467 L 288.5 467 L 276 464.5 L 296.5 464 L 299 461.5 L 302 451.5 L 302 440 L 318 438 L 318 453.5 L 316 462 Q 335.5 458.8 349 448.5 Q 348.6 432.3 339.5 425 L 336 427.5 L 341 424 L 349.5 411 Q 359.5 420.7 363 436 L 370 430.5 Q 379.8 419.3 384 402.5 Q 375.2 390 358 387 L 357.5 389 L 357 387.5 L 358 386.5 L 358 371 L 369.5 373 L 384.5 381 L 385 374.5 Q 380.3 354.2 368.5 343 Z " /><path fill="rgb(218,218,217)" stroke="rgb(218,218,217)" stroke-width="1" opacity="1" d="M 359.5 344 L 357.5 347 L 359.5 344 Z " /><path fill="rgb(218,218,217)" stroke="rgb(218,218,217)" stroke-width="1" opacity="1" d="M 355.5 351 L 356 357.5 L 355 357.5 L 355.5 351 Z " /><path fill="rgb(218,218,217)" stroke="rgb(218,218,217)" stroke-width="1" opacity="1" d="M 333.5 429 L 332.5 431 L 333.5 429 Z " /><path fill="rgb(218,218,217)" stroke="rgb(218,218,217)" stroke-width="1" opacity="1" d="M 277.5 453 L 276.5 455 L 277.5 453 Z " /><path fill="rgb(218,218,217)" stroke="rgb(218,218,217)" stroke-width="1" opacity="1" d="M 274.5 457 L 271.5 461 L 274.5 457 Z " /><path fill="rgb(234,234,234)" stroke="rgb(234,234,234)" stroke-width="1" opacity="1" d="M 108.5 98 L 136.5 119 L 146.5 115 L 163.5 111 Q 169.8 112.7 171.5 110 L 196.5 110 L 200 113.5 L 209.5 131 L 215.5 131 L 228.5 128 L 245.5 128 Q 247.3 130.8 253.5 129 L 271 134 L 245 189 L 218.5 196 L 217 197.5 Q 215.2 203.6 222.5 201 L 240.5 195 L 241 196.5 L 236 208 L 227.5 208 L 218.5 206 Q 216 207.2 217 211 L 233 213.5 L 210 260.5 Q 202.4 266.4 198 275.5 L 194 286.5 L 194 292.5 L 189.5 297 L 183 298 Q 182.2 288.5 175.5 284 L 173 282.5 L 177 274.5 L 177 267.5 L 173.5 263 L 165.5 262 L 161 265.5 L 156 276.5 L 155 287 L 140.5 290 L 115.5 292 L 104 294 L 104 299 L 108.5 299 L 116.5 297 L 146.5 294 L 156.5 292 L 165.5 288 L 172.5 288 Q 181.8 296.8 180 316.5 Q 175.9 321.4 165.5 320 L 160.5 318 L 119.5 327 L 113 330.5 Q 111.2 336.2 117.5 334 L 120.5 332 L 160.5 323 Q 164.8 326.7 174.5 325 L 183 322 L 185 315 Q 201.7 314.4 208.5 303 L 220.5 309 L 251.5 331 L 255.5 332 L 257 328.5 L 225.5 306 L 204.5 296 L 200 292.5 L 199 287.5 Q 202.5 275 210.5 267 L 215.5 265 L 225 271.5 L 229.5 278 L 262.5 297 L 267.5 299 L 272.5 299 L 274 296.5 L 271.5 294 L 266.5 293 L 250.5 285 L 234.5 275 L 230 270.5 L 227 265.5 L 275.5 166 L 276 174.5 L 277 175.5 L 277 187.5 L 273 204.5 L 267 216.5 L 251.5 233 L 246 236.5 Q 244.2 242.2 250.5 240 L 253.5 238 Q 272.7 267.3 283 305.5 L 288 331.5 L 289 371.5 L 288 372.5 L 288 383.5 L 285 400.5 L 279 419.5 Q 271.7 437.7 257.5 449 L 243.5 454 L 134.5 454 Q 120.8 451.8 114 442.5 L 101 422.5 L 94 401.5 L 91 384.5 L 91 375.5 L 90 374.5 L 90 339.5 L 91 338.5 L 91 329.5 L 92 328.5 L 93 316.5 L 100 291.5 L 111 263.5 L 124 238 L 131.5 240 L 133 237.5 L 118 224.5 Q 108.6 214.4 104 199.5 L 102 189.5 L 102 173.5 L 103 172.5 L 105 152.5 L 107 146.5 L 107 99.5 L 108.5 98 Z M 149 152 Q 145 153 146 161 Q 147 164 154 163 Q 158 162 157 156 Q 156 151 149 152 Z M 228 152 L 225 153 L 224 156 L 225 162 L 228 163 L 234 162 L 235 160 L 234 153 L 228 152 Z M 185 174 L 181 177 L 181 184 L 187 192 L 186 200 L 183 202 L 174 202 L 174 206 L 177 207 Q 186 208 190 203 L 193 206 L 203 207 L 205 204 Q 203 200 197 202 L 192 199 L 192 192 L 198 184 Q 199 177 197 175 Q 193 173 185 174 Z M 136 189 L 135 190 L 133 190 L 133 194 L 157 201 L 161 201 L 162 198 L 161 196 L 136 189 Z M 159 206 L 144 209 L 138 209 L 133 212 L 135 215 L 159 212 L 160 211 Q 164 212 162 207 L 159 206 Z " /><path fill="rgb(234,234,234)" stroke="rgb(234,234,234)" stroke-width="1" opacity="1" d="M 362.5 343 L 366.5 343 L 374 350.5 L 381 363.5 L 384 374.5 L 384 379.5 L 382.5 379 Q 373 371.7 358 371 L 356 361.5 L 356 349.5 L 360.5 344 L 362.5 343 Z " /><path fill="rgb(234,234,234)" stroke="rgb(234,234,234)" stroke-width="1" opacity="1" d="M 358 388 Q 374.6 390.2 383 401.5 Q 378.3 422.8 364.5 435 Q 361.5 435.9 363 431.5 Q 358.3 419.7 350 411.5 L 355 401.5 L 358 388 Z " /><path fill="rgb(234,234,234)" stroke="rgb(234,234,234)" stroke-width="1" opacity="1" d="M 339.5 425 L 347 436.5 L 349 447.5 Q 336.1 457.6 316.5 461 L 317 459.5 L 319 441.5 L 318 438.5 Q 330.9 433.9 339.5 425 Z " /><path fill="rgb(234,234,234)" stroke="rgb(234,234,234)" stroke-width="1" opacity="1" d="M 286.5 438 Q 292.1 441.6 302 440 Q 303.1 455.4 296.5 464 L 273.5 463 L 271 461.5 Q 281.1 452.1 286.5 438 Z " /></svg>