<svg width="512" height="512" version="1.1" xmlns="http://www.w3.org/2000/svg" desc="Created with imagetracer.js version 1.2.6" ><path fill="rgb(220,219,212)" stroke="rgb(220,219,212)" stroke-width="1" opacity="1" d="M 265.5 15 L 267.5 18 L 265.5 15 Z " /><path fill="rgb(220,219,212)" stroke="rgb(220,219,212)" stroke-width="1" opacity="1" d="M 434.5 16 L 432.5 19 L 434.5 16 Z " /><path fill="rgb(220,219,212)" stroke="rgb(220,219,212)" stroke-width="1" opacity="1" d="M 261.5 19 L 262 22.5 L 261 22.5 L 261.5 19 Z " /><path fill="rgb(220,219,212)" stroke="rgb(220,219,212)" stroke-width="1" opacity="1" d="M 273.5 22 L 275.5 25 L 273.5 22 Z " /><path fill="rgb(220,219,212)" stroke="rgb(220,219,212)" stroke-width="1" opacity="1" d="M 427.5 22 L 425.5 25 L 427.5 22 Z " /><path fill="rgb(220,219,212)" stroke="rgb(220,219,212)" stroke-width="1" opacity="1" d="M 420.5 28 L 418.5 31 L 420.5 28 Z " /><path fill="rgb(220,219,212)" stroke="rgb(220,219,212)" stroke-width="1" opacity="1" d="M 281.5 29 L 283.5 32 L 281.5 29 Z " /><path fill="rgb(220,219,212)" stroke="rgb(220,219,212)" stroke-width="1" opacity="1" d="M 329.5 29 L 332 29.5 L 329.5 30 L 329.5 29 Z " /><path fill="rgb(220,219,212)" stroke="rgb(220,219,212)" stroke-width="1" opacity="1" d="M 366.5 29 L 369 29.5 L 366.5 30 L 366.5 29 Z " /><path fill="rgb(220,219,212)" stroke="rgb(220,219,212)" stroke-width="1" opacity="1" d="M 413.5 34 L 411.5 37 L 413.5 34 Z " /><path fill="rgb(220,219,212)" stroke="rgb(220,219,212)" stroke-width="1" opacity="1" d="M 289.5 36 L 291.5 39 L 289.5 36 Z " /><path fill="rgb(220,219,212)" stroke="rgb(220,219,212)" stroke-width="1" opacity="1" d="M 262.5 37 L 263 40.5 L 262 40.5 L 262.5 37 Z " /><path fill="rgb(220,219,212)" stroke="rgb(220,219,212)" stroke-width="1" opacity="1" d="M 438.5 47 L 439 68.5 L 438 68.5 L 438.5 47 Z " /><path fill="rgb(220,219,212)" stroke="rgb(220,219,212)" stroke-width="1" opacity="1" d="M 263.5 55 L 264 58.5 L 263 58.5 L 263.5 55 Z " /><path fill="rgb(220,219,212)" stroke="rgb(220,219,212)" stroke-width="1" opacity="1" d="M 312.5 78 L 310.5 81 L 312.5 78 Z " /><path fill="rgb(220,219,212)" stroke="rgb(220,219,212)" stroke-width="1" opacity="1" d="M 394.5 79 L 395.5 81 L 394.5 79 Z " /><path fill="rgb(220,219,212)" stroke="rgb(220,219,212)" stroke-width="1" opacity="1" d="M 320.5 82 L 321 86.5 L 320 86.5 L 320.5 82 Z " /><path fill="rgb(220,219,212)" stroke="rgb(220,219,212)" stroke-width="1" opacity="1" d="M 350.5 103 L 354 103.5 L 350.5 104 L 350.5 103 Z " /><path fill="rgb(220,219,212)" stroke="rgb(220,219,212)" stroke-width="1" opacity="1" d="M 443.5 103 L 444 105.5 L 443 105.5 L 443.5 103 Z " /><path fill="rgb(220,219,212)" stroke="rgb(220,219,212)" stroke-width="1" opacity="1" d="M 346.5 104 L 344.5 107 L 346.5 104 Z " /><path fill="rgb(220,219,212)" stroke="rgb(220,219,212)" stroke-width="1" opacity="1" d="M 360.5 108 L 361 112.5 L 360 112.5 L 360.5 108 Z " /><path fill="rgb(220,219,212)" stroke="rgb(220,219,212)" stroke-width="1" opacity="1" d="M 289.5 117 L 289 118.5 L 290 121.5 L 288 120.5 L 289.5 117 Z " /><path fill="rgb(220,219,212)" stroke="rgb(220,219,212)" stroke-width="1" opacity="1" d="M 354.5 129 L 355 131.5 L 354 131.5 L 354.5 129 Z " /><path fill="rgb(220,219,212)" stroke="rgb(220,219,212)" stroke-width="1" opacity="1" d="M 365.5 136 L 366.5 138 L 365.5 136 Z " /><path fill="rgb(220,219,212)" stroke="rgb(220,219,212)" stroke-width="1" opacity="1" d="M 351.5 137 L 354 138.5 L 352.5 138 L 350.5 139 L 351.5 137 Z " /><path fill="rgb(220,219,212)" stroke="rgb(220,219,212)" stroke-width="1" opacity="1" d="M 315.5 139 L 321 139.5 L 315.5 140 L 315.5 139 Z " /><path fill="rgb(220,219,212)" stroke="rgb(220,219,212)" stroke-width="1" opacity="1" d="M 337.5 139 L 338.5 141 L 337.5 139 Z " /><path fill="rgb(220,219,212)" stroke="rgb(220,219,212)" stroke-width="1" opacity="1" d="M 366.5 139 L 365.5 141 L 366.5 139 Z " /><path fill="rgb(220,219,212)" stroke="rgb(220,219,212)" stroke-width="1" opacity="1" d="M 291.5 140 L 297 140.5 L 291.5 141 L 291.5 140 Z " /><path fill="rgb(220,219,212)" stroke="rgb(220,219,212)" stroke-width="1" opacity="1" d="M 324.5 141 L 325 142.5 L 323 143.5 L 324.5 141 Z " /><path fill="rgb(220,219,212)" stroke="rgb(220,219,212)" stroke-width="1" opacity="1" d="M 307.5 144 L 313 144.5 L 307.5 145 L 307.5 144 Z " /><path fill="rgb(220,219,212)" stroke="rgb(220,219,212)" stroke-width="1" opacity="1" d="M 418.5 149 L 419.5 151 L 418.5 149 Z " /><path fill="rgb(220,219,212)" stroke="rgb(220,219,212)" stroke-width="1" opacity="1" d="M 428.5 160 L 427.5 162 L 428.5 160 Z " /><path fill="rgb(220,219,212)" stroke="rgb(220,219,212)" stroke-width="1" opacity="1" d="M 271.5 161 L 272.5 163 L 271.5 161 Z " /><path fill="rgb(220,219,212)" stroke="rgb(220,219,212)" stroke-width="1" opacity="1" d="M 423.5 166 L 419.5 171 L 423.5 166 Z " /><path fill="rgb(220,219,212)" stroke="rgb(220,219,212)" stroke-width="1" opacity="1" d="M 282.5 172 L 284.5 175 L 282.5 172 Z " /><path fill="rgb(220,219,212)" stroke="rgb(220,219,212)" stroke-width="1" opacity="1" d="M 414.5 174 L 413.5 176 L 414.5 174 Z " /><path fill="rgb(220,219,212)" stroke="rgb(220,219,212)" stroke-width="1" opacity="1" d="M 419.5 176 L 421 176.5 L 418.5 178 L 419.5 176 Z " /><path fill="rgb(220,219,212)" stroke="rgb(220,219,212)" stroke-width="1" opacity="1" d="M 415.5 179 L 414.5 181 L 415.5 179 Z " /><path fill="rgb(220,219,212)" stroke="rgb(220,219,212)" stroke-width="1" opacity="1" d="M 286.5 191 L 289 191.5 L 286.5 192 L 286.5 191 Z " /><path fill="rgb(220,219,212)" stroke="rgb(220,219,212)" stroke-width="1" opacity="1" d="M 285.5 207 L 299 207.5 L 285.5 208 L 285.5 207 Z " /><path fill="rgb(220,219,212)" stroke="rgb(220,219,212)" stroke-width="1" opacity="1" d="M 349.5 207 L 350.5 209 L 349.5 207 Z " /><path fill="rgb(220,219,212)" stroke="rgb(220,219,212)" stroke-width="1" opacity="1" d="M 332.5 218 L 333.5 220 L 332.5 218 Z " /><path fill="rgb(220,219,212)" stroke="rgb(220,219,212)" stroke-width="1" opacity="1" d="M 364.5 222 L 365.5 224 L 364.5 222 Z " /><path fill="rgb(220,219,212)" stroke="rgb(220,219,212)" stroke-width="1" opacity="1" d="M 367.5 226 L 368.5 228 L 367.5 226 Z " /><path fill="rgb(220,219,212)" stroke="rgb(220,219,212)" stroke-width="1" opacity="1" d="M 271.5 227 L 270.5 229 L 271.5 227 Z " /><path fill="rgb(220,219,212)" stroke="rgb(220,219,212)" stroke-width="1" opacity="1" d="M 342.5 228 L 343.5 230 L 342.5 228 Z " /><path fill="rgb(220,219,212)" stroke="rgb(220,219,212)" stroke-width="1" opacity="1" d="M 265.5 235 L 264.5 237 L 265.5 235 Z " /><path fill="rgb(220,219,212)" stroke="rgb(220,219,212)" stroke-width="1" opacity="1" d="M 260.5 241 L 256.5 246 L 260.5 241 Z " /><path fill="rgb(220,219,212)" stroke="rgb(220,219,212)" stroke-width="1" opacity="1" d="M 437.5 264 L 438 266.5 L 437 266.5 L 437.5 264 Z " /><path fill="rgb(220,219,212)" stroke="rgb(220,219,212)" stroke-width="1" opacity="1" d="M 381.5 265 L 383 272.5 L 381 271.5 L 381.5 265 Z " /><path fill="rgb(220,219,212)" stroke="rgb(220,219,212)" stroke-width="1" opacity="1" d="M 227.5 274 L 215.5 287 L 227.5 274 Z " /><path fill="rgb(220,219,212)" stroke="rgb(220,219,212)" stroke-width="1" opacity="1" d="M 444.5 281 L 445.5 283 L 444.5 281 Z " /><path fill="rgb(220,219,212)" stroke="rgb(220,219,212)" stroke-width="1" opacity="1" d="M 134.5 286 Q 148.8 302.5 174 307 L 164 337.5 L 155 354.5 L 146.5 363 L 134.5 365 L 120.5 360 L 113 352.5 L 109 343.5 L 109 333.5 Q 116.6 304.6 134.5 286 Z " /><path fill="rgb(220,219,212)" stroke="rgb(220,219,212)" stroke-width="1" opacity="1" d="M 442.5 286 L 443 290.5 L 442 290.5 L 442.5 286 Z " /><path fill="rgb(220,219,212)" stroke="rgb(220,219,212)" stroke-width="1" opacity="1" d="M 437.5 292 L 438 294.5 L 437 294.5 L 437.5 292 Z " /><path fill="rgb(220,219,212)" stroke="rgb(220,219,212)" stroke-width="1" opacity="1" d="M 207.5 295 L 205.5 298 L 207.5 295 Z " /><path fill="rgb(220,219,212)" stroke="rgb(220,219,212)" stroke-width="1" opacity="1" d="M 426.5 298 L 433.5 306 L 426.5 298 Z " /><path fill="rgb(220,219,212)" stroke="rgb(220,219,212)" stroke-width="1" opacity="1" d="M 420.5 299 L 422.5 302 L 420.5 299 Z " /><path fill="rgb(220,219,212)" stroke="rgb(220,219,212)" stroke-width="1" opacity="1" d="M 202.5 301 L 200.5 304 L 202.5 301 Z " /><path fill="rgb(220,219,212)" stroke="rgb(220,219,212)" stroke-width="1" opacity="1" d="M 198.5 306 L 197.5 308 L 198.5 306 Z " /><path fill="rgb(220,219,212)" stroke="rgb(220,219,212)" stroke-width="1" opacity="1" d="M 331.5 308 L 332.5 310 L 331.5 308 Z " /><path fill="rgb(220,219,212)" stroke="rgb(220,219,212)" stroke-width="1" opacity="1" d="M 430.5 309 L 431.5 311 L 430.5 309 Z " /><path fill="rgb(220,219,212)" stroke="rgb(220,219,212)" stroke-width="1" opacity="1" d="M 434.5 314 L 435.5 316 L 434.5 314 Z " /><path fill="rgb(220,219,212)" stroke="rgb(220,219,212)" stroke-width="1" opacity="1" d="M 356.5 321 L 354.5 324 L 356.5 321 Z " /><path fill="rgb(220,219,212)" stroke="rgb(220,219,212)" stroke-width="1" opacity="1" d="M 195.5 322 L 198 322.5 L 195.5 323 L 195.5 322 Z " /><path fill="rgb(220,219,212)" stroke="rgb(220,219,212)" stroke-width="1" opacity="1" d="M 220.5 324 L 223 324.5 L 220.5 325 L 220.5 324 Z " /><path fill="rgb(220,219,212)" stroke="rgb(220,219,212)" stroke-width="1" opacity="1" d="M 238.5 325 L 250 325.5 L 238.5 326 L 238.5 325 Z " /><path fill="rgb(220,219,212)" stroke="rgb(220,219,212)" stroke-width="1" opacity="1" d="M 252.5 325 L 266 325.5 L 252.5 326 L 252.5 325 Z " /><path fill="rgb(220,219,212)" stroke="rgb(220,219,212)" stroke-width="1" opacity="1" d="M 349.5 327 L 348.5 329 L 349.5 327 Z " /><path fill="rgb(220,219,212)" stroke="rgb(220,219,212)" stroke-width="1" opacity="1" d="M 453.5 327 L 452.5 329 L 453.5 327 Z " /><path fill="rgb(220,219,212)" stroke="rgb(220,219,212)" stroke-width="1" opacity="1" d="M 345.5 330 L 344.5 332 L 345.5 330 Z " /><path fill="rgb(220,219,212)" stroke="rgb(220,219,212)" stroke-width="1" opacity="1" d="M 337.5 337 L 339.5 340 L 337.5 337 Z " /><path fill="rgb(220,219,212)" stroke="rgb(220,219,212)" stroke-width="1" opacity="1" d="M 344.5 337 L 353.5 347 L 344.5 337 Z " /><path fill="rgb(220,219,212)" stroke="rgb(220,219,212)" stroke-width="1" opacity="1" d="M 399.5 343 L 400.5 345 L 399.5 343 Z " /><path fill="rgb(220,219,212)" stroke="rgb(220,219,212)" stroke-width="1" opacity="1" d="M 405.5 343 L 411.5 350 L 405.5 343 Z " /><path fill="rgb(220,219,212)" stroke="rgb(220,219,212)" stroke-width="1" opacity="1" d="M 349.5 349 L 352.5 353 L 349.5 349 Z " /><path fill="rgb(220,219,212)" stroke="rgb(220,219,212)" stroke-width="1" opacity="1" d="M 357.5 351 L 358.5 353 L 357.5 351 Z " /><path fill="rgb(220,219,212)" stroke="rgb(220,219,212)" stroke-width="1" opacity="1" d="M 436.5 352 L 435.5 354 L 436.5 352 Z " /><path fill="rgb(220,219,212)" stroke="rgb(220,219,212)" stroke-width="1" opacity="1" d="M 410.5 354 L 412.5 357 L 410.5 354 Z " /><path fill="rgb(220,219,212)" stroke="rgb(220,219,212)" stroke-width="1" opacity="1" d="M 355.5 356 L 356.5 358 L 355.5 356 Z " /><path fill="rgb(220,219,212)" stroke="rgb(220,219,212)" stroke-width="1" opacity="1" d="M 415.5 358 L 416.5 360 L 415.5 358 Z " /><path fill="rgb(220,219,212)" stroke="rgb(220,219,212)" stroke-width="1" opacity="1" d="M 56.5 360 L 58 360.5 Q 49.7 370.2 46 384.5 L 44 394.5 L 44 407.5 L 47.5 405 Q 58.5 395.5 74.5 391 L 76 404.5 L 78 409.5 L 64.5 416 L 54 425.5 L 50 431.5 L 50 434.5 Q 57.7 452.3 71.5 464 L 78.5 469 Q 81.3 449.8 91 437.5 L 90.5 436 L 103.5 450 Q 105.8 449.3 105 451.5 L 98 466.5 L 97 479.5 L 99.5 482 L 113.5 487 L 139 491 L 134 476.5 L 133 462.5 L 134.5 463 L 151.5 463 L 152.5 462 L 152 463.5 Q 152.7 480.8 161.5 490 L 168.5 490 L 188.5 486 L 188.5 487 L 173.5 492 L 149.5 497 Q 143.2 495.3 141.5 498 L 118.5 498 L 117.5 497 L 104.5 496 L 82.5 489 L 64.5 479 L 51 468 L 40 453.5 L 33 439.5 L 29 424.5 L 29 402.5 L 36 380.5 Q 41.3 370.8 49.5 364 L 56.5 360 Z " /><path fill="rgb(220,219,212)" stroke="rgb(220,219,212)" stroke-width="1" opacity="1" d="M 191.5 367 L 195 367.5 L 191.5 368 L 191.5 367 Z " /><path fill="rgb(220,219,212)" stroke="rgb(220,219,212)" stroke-width="1" opacity="1" d="M 231.5 367 L 234 367.5 L 231.5 368 L 231.5 367 Z " /><path fill="rgb(220,219,212)" stroke="rgb(220,219,212)" stroke-width="1" opacity="1" d="M 168.5 374 L 172 402.5 L 181 429.5 Q 193.1 454.4 213.5 471 L 224.5 478 L 236.5 481 L 282.5 481 L 283.5 480 L 398 480 L 397 491.5 L 394.5 496 L 392.5 497 L 214.5 497 L 199.5 490 L 184 475.5 Q 169.2 459.3 161 436.5 L 155 410.5 L 154 386.5 L 165 379.5 L 168.5 374 Z " /><path fill="rgb(220,219,212)" stroke="rgb(220,219,212)" stroke-width="1" opacity="1" d="M 399.5 391 L 398.5 393 L 399.5 391 Z " /><path fill="rgb(220,219,212)" stroke="rgb(220,219,212)" stroke-width="1" opacity="1" d="M 376.5 393 L 377 395.5 L 376 395.5 L 376.5 393 Z " /><path fill="rgb(220,219,212)" stroke="rgb(220,219,212)" stroke-width="1" opacity="1" d="M 393.5 399 L 391.5 402 L 393.5 399 Z " /><path fill="rgb(220,219,212)" stroke="rgb(220,219,212)" stroke-width="1" opacity="1" d="M 379.5 413 L 378.5 415 L 379.5 413 Z " /><path fill="rgb(220,219,212)" stroke="rgb(220,219,212)" stroke-width="1" opacity="1" d="M 375.5 416 L 374.5 418 L 373 417.5 L 375.5 416 Z " /><path fill="rgb(220,219,212)" stroke="rgb(220,219,212)" stroke-width="1" opacity="1" d="M 360.5 432 L 359.5 434 L 360.5 432 Z " /><path fill="rgb(220,219,212)" stroke="rgb(220,219,212)" stroke-width="1" opacity="1" d="M 357.5 436 L 356.5 438 L 357.5 436 Z " /><path fill="rgb(220,219,212)" stroke="rgb(220,219,212)" stroke-width="1" opacity="1" d="M 341.5 452 L 340.5 454 L 341.5 452 Z " /><path fill="rgb(220,219,212)" stroke="rgb(220,219,212)" stroke-width="1" opacity="1" d="M 348.5 452 L 345.5 456 L 348.5 452 Z " /><path fill="rgb(220,219,212)" stroke="rgb(220,219,212)" stroke-width="1" opacity="1" d="M 371.5 454 L 374 454.5 L 371.5 455 L 371.5 454 Z " /><path fill="rgb(220,219,212)" stroke="rgb(220,219,212)" stroke-width="1" opacity="1" d="M 328.5 457 L 328 458.5 L 329 461.5 L 327 460.5 L 328.5 457 Z " /><path fill="rgb(220,219,212)" stroke="rgb(220,219,212)" stroke-width="1" opacity="1" d="M 367.5 459 L 370 459.5 L 367.5 460 L 367.5 459 Z " /><path fill="rgb(220,219,212)" stroke="rgb(220,219,212)" stroke-width="1" opacity="1" d="M 378.5 459 L 381 459.5 L 378.5 460 L 378.5 459 Z " /><path fill="rgb(220,219,212)" stroke="rgb(220,219,212)" stroke-width="1" opacity="1" d="M 354.5 460 L 360 460.5 L 354.5 461 L 354.5 460 Z " /><path fill="rgb(220,219,212)" stroke="rgb(220,219,212)" stroke-width="1" opacity="1" d="M 332.5 461 L 337 461.5 L 332.5 462 L 332.5 461 Z " /><path fill="rgb(220,219,212)" stroke="rgb(220,219,212)" stroke-width="1" opacity="1" d="M 171.5 466 L 172.5 468 L 171.5 466 Z " /><path fill="rgb(220,219,212)" stroke="rgb(220,219,212)" stroke-width="1" opacity="1" d="M 177.5 474 L 179.5 477 L 177.5 474 Z " /><path fill="rgb(233,233,233)" stroke="rgb(233,233,233)" stroke-width="1" opacity="0.996078431372549" d="M 268.5 18 L 269.5 20 L 268.5 18 Z " /><path fill="rgb(233,233,233)" stroke="rgb(233,233,233)" stroke-width="1" opacity="0.996078431372549" d="M 431.5 19 L 430.5 21 L 431.5 19 Z " /><path fill="rgb(233,233,233)" stroke="rgb(233,233,233)" stroke-width="1" opacity="0.996078431372549" d="M 276.5 25 L 277.5 27 L 276.5 25 Z " /><path fill="rgb(233,233,233)" stroke="rgb(233,233,233)" stroke-width="1" opacity="0.996078431372549" d="M 424.5 25 L 423.5 27 L 424.5 25 Z " /><path fill="rgb(233,233,233)" stroke="rgb(233,233,233)" stroke-width="1" opacity="0.996078431372549" d="M 417.5 31 L 416.5 33 L 417.5 31 Z " /><path fill="rgb(233,233,233)" stroke="rgb(233,233,233)" stroke-width="1" opacity="0.996078431372549" d="M 284.5 32 L 285.5 34 L 284.5 32 Z " /><path fill="rgb(233,233,233)" stroke="rgb(233,233,233)" stroke-width="1" opacity="0.996078431372549" d="M 438.5 37 L 439 46.5 L 438 46.5 L 438.5 37 Z " /><path fill="rgb(233,233,233)" stroke="rgb(233,233,233)" stroke-width="1" opacity="0.996078431372549" d="M 354.5 124 L 355 128.5 L 354 128.5 L 354.5 124 Z " /><path fill="rgb(233,233,233)" stroke="rgb(233,233,233)" stroke-width="1" opacity="0.996078431372549" d="M 323.5 139 L 324.5 141 L 323.5 139 Z " /><path fill="rgb(233,233,233)" stroke="rgb(233,233,233)" stroke-width="1" opacity="0.996078431372549" d="M 273.5 163 L 274.5 165 L 273.5 163 Z " /><path fill="rgb(233,233,233)" stroke="rgb(233,233,233)" stroke-width="1" opacity="0.996078431372549" d="M 416.5 172 L 415.5 174 L 416.5 172 Z " /><path fill="rgb(233,233,233)" stroke="rgb(233,233,233)" stroke-width="1" opacity="0.996078431372549" d="M 411.5 176 L 410.5 178 L 411.5 176 Z " /><path fill="rgb(233,233,233)" stroke="rgb(233,233,233)" stroke-width="1" opacity="0.996078431372549" d="M 355.5 212 L 356.5 214 L 355.5 212 Z " /><path fill="rgb(233,233,233)" stroke="rgb(233,233,233)" stroke-width="1" opacity="0.996078431372549" d="M 358.5 215 L 362.5 220 L 358.5 215 Z " /><path fill="rgb(233,233,233)" stroke="rgb(233,233,233)" stroke-width="1" opacity="0.996078431372549" d="M 334.5 220 L 335.5 222 L 334.5 220 Z " /><path fill="rgb(233,233,233)" stroke="rgb(233,233,233)" stroke-width="1" opacity="0.996078431372549" d="M 262.5 239 L 261.5 241 L 262.5 239 Z " /><path fill="rgb(233,233,233)" stroke="rgb(233,233,233)" stroke-width="1" opacity="0.996078431372549" d="M 210.5 292 L 208.5 295 L 210.5 292 Z " /><path fill="rgb(233,233,233)" stroke="rgb(233,233,233)" stroke-width="1" opacity="0.996078431372549" d="M 301.5 293 L 300.5 295 L 301.5 293 Z " /><path fill="rgb(233,233,233)" stroke="rgb(233,233,233)" stroke-width="1" opacity="0.996078431372549" d="M 424.5 296 L 425.5 298 L 424.5 296 Z " /><path fill="rgb(233,233,233)" stroke="rgb(233,233,233)" stroke-width="1" opacity="0.996078431372549" d="M 423.5 302 L 429.5 309 L 423.5 302 Z " /><path fill="rgb(233,233,233)" stroke="rgb(233,233,233)" stroke-width="1" opacity="0.996078431372549" d="M 353.5 324 L 352.5 326 L 353.5 324 Z " /><path fill="rgb(233,233,233)" stroke="rgb(233,233,233)" stroke-width="1" opacity="0.996078431372549" d="M 451.5 329 L 448.5 333 L 451.5 329 Z " /><path fill="rgb(233,233,233)" stroke="rgb(233,233,233)" stroke-width="1" opacity="0.996078431372549" d="M 342.5 335 L 343.5 337 L 342.5 335 Z " /><path fill="rgb(233,233,233)" stroke="rgb(233,233,233)" stroke-width="1" opacity="0.996078431372549" d="M 340.5 340 L 348.5 349 L 340.5 340 Z " /><path fill="rgb(233,233,233)" stroke="rgb(233,233,233)" stroke-width="1" opacity="0.996078431372549" d="M 354.5 347 L 355.5 349 L 354.5 347 Z " /><path fill="rgb(233,233,233)" stroke="rgb(233,233,233)" stroke-width="1" opacity="0.996078431372549" d="M 403.5 348 L 406.5 352 L 403.5 348 Z " /><path fill="rgb(233,233,233)" stroke="rgb(233,233,233)" stroke-width="1" opacity="0.996078431372549" d="M 58.5 360 L 58 361.5 L 49.5 377 L 49 375.5 L 58.5 360 Z " /><path fill="rgb(233,233,233)" stroke="rgb(233,233,233)" stroke-width="1" opacity="0.996078431372549" d="M 169.5 373 L 170 381.5 L 169 381.5 L 169.5 373 Z " /><path fill="rgb(233,233,233)" stroke="rgb(233,233,233)" stroke-width="1" opacity="0.996078431372549" d="M 46.5 384 L 47 386.5 L 46 386.5 L 46.5 384 Z " /><path fill="rgb(233,233,233)" stroke="rgb(233,233,233)" stroke-width="1" opacity="0.996078431372549" d="M 170.5 384 L 171 390.5 L 170 390.5 L 170.5 384 Z " /><path fill="rgb(233,233,233)" stroke="rgb(233,233,233)" stroke-width="1" opacity="0.996078431372549" d="M 45.5 388 L 46 392.5 L 45 392.5 L 45.5 388 Z " /><path fill="rgb(233,233,233)" stroke="rgb(233,233,233)" stroke-width="1" opacity="0.996078431372549" d="M 171.5 392 L 172 396.5 L 171 396.5 L 171.5 392 Z " /><path fill="rgb(233,233,233)" stroke="rgb(233,233,233)" stroke-width="1" opacity="0.996078431372549" d="M 44.5 394 L 45 407.5 L 44 407.5 L 44.5 394 Z " /><path fill="rgb(233,233,233)" stroke="rgb(233,233,233)" stroke-width="1" opacity="0.996078431372549" d="M 395.5 396 L 394.5 398 L 395.5 396 Z " /><path fill="rgb(233,233,233)" stroke="rgb(233,233,233)" stroke-width="1" opacity="0.996078431372549" d="M 56.5 398 L 55.5 400 L 56.5 398 Z " /><path fill="rgb(233,233,233)" stroke="rgb(233,233,233)" stroke-width="1" opacity="0.996078431372549" d="M 172.5 398 L 173 402.5 L 172 402.5 L 172.5 398 Z " /><path fill="rgb(233,233,233)" stroke="rgb(233,233,233)" stroke-width="1" opacity="0.996078431372549" d="M 53.5 400 L 52.5 402 L 53.5 400 Z " /><path fill="rgb(233,233,233)" stroke="rgb(233,233,233)" stroke-width="1" opacity="0.996078431372549" d="M 390.5 402 L 389.5 404 L 390.5 402 Z " /><path fill="rgb(233,233,233)" stroke="rgb(233,233,233)" stroke-width="1" opacity="0.996078431372549" d="M 49.5 403 L 48.5 405 L 49.5 403 Z " /><path fill="rgb(233,233,233)" stroke="rgb(233,233,233)" stroke-width="1" opacity="0.996078431372549" d="M 173.5 404 L 174 406.5 L 173 406.5 L 173.5 404 Z " /><path fill="rgb(233,233,233)" stroke="rgb(233,233,233)" stroke-width="1" opacity="0.996078431372549" d="M 174.5 408 L 176 413.5 L 175 413.5 L 174.5 408 Z " /><path fill="rgb(233,233,233)" stroke="rgb(233,233,233)" stroke-width="1" opacity="0.996078431372549" d="M 381.5 411 L 380.5 413 L 381.5 411 Z " /><path fill="rgb(233,233,233)" stroke="rgb(233,233,233)" stroke-width="1" opacity="0.996078431372549" d="M 64.5 416 L 63.5 418 L 64.5 416 Z " /><path fill="rgb(233,233,233)" stroke="rgb(233,233,233)" stroke-width="1" opacity="0.996078431372549" d="M 60.5 419 L 54.5 426 L 60.5 419 Z " /><path fill="rgb(233,233,233)" stroke="rgb(233,233,233)" stroke-width="1" opacity="0.996078431372549" d="M 178.5 421 L 181 426.5 L 180 426.5 L 178.5 421 Z " /><path fill="rgb(233,233,233)" stroke="rgb(233,233,233)" stroke-width="1" opacity="0.996078431372549" d="M 52.5 428 L 51.5 430 L 52.5 428 Z " /><path fill="rgb(233,233,233)" stroke="rgb(233,233,233)" stroke-width="1" opacity="0.996078431372549" d="M 181.5 428 L 186 436.5 L 184 435.5 L 181.5 428 Z " /><path fill="rgb(233,233,233)" stroke="rgb(233,233,233)" stroke-width="1" opacity="0.996078431372549" d="M 50.5 433 L 56 443.5 L 54 442.5 L 50 434.5 L 50.5 433 Z " /><path fill="rgb(233,233,233)" stroke="rgb(233,233,233)" stroke-width="1" opacity="0.996078431372549" d="M 90.5 438 L 89.5 440 L 90.5 438 Z " /><path fill="rgb(233,233,233)" stroke="rgb(233,233,233)" stroke-width="1" opacity="0.996078431372549" d="M 186.5 438 Q 197.4 456.6 213.5 470 L 226 477.5 L 224.5 478 Q 207.9 469.1 197 454.5 L 187 440.5 L 186.5 438 Z " /><path fill="rgb(233,233,233)" stroke="rgb(233,233,233)" stroke-width="1" opacity="0.996078431372549" d="M 355.5 438 L 354.5 440 L 355.5 438 Z " /><path fill="rgb(233,233,233)" stroke="rgb(233,233,233)" stroke-width="1" opacity="0.996078431372549" d="M 88.5 441 L 87.5 443 L 88.5 441 Z " /><path fill="rgb(233,233,233)" stroke="rgb(233,233,233)" stroke-width="1" opacity="0.996078431372549" d="M 56.5 445 L 68.5 460 L 77 467.5 L 72.5 464 L 64 456.5 L 57 447.5 L 56.5 445 Z " /><path fill="rgb(233,233,233)" stroke="rgb(233,233,233)" stroke-width="1" opacity="0.996078431372549" d="M 353.5 448 L 373.5 448 Q 380.4 449.6 384 454.5 L 374.5 455 L 371.5 454 L 360.5 456 L 346.5 456 L 353.5 448 Z " /><path fill="rgb(233,233,233)" stroke="rgb(233,233,233)" stroke-width="1" opacity="0.996078431372549" d="M 343.5 450 L 342.5 452 L 343.5 450 Z " /><path fill="rgb(233,233,233)" stroke="rgb(233,233,233)" stroke-width="1" opacity="0.996078431372549" d="M 105.5 451 L 104.5 453 L 105.5 451 Z " /><path fill="rgb(233,233,233)" stroke="rgb(233,233,233)" stroke-width="1" opacity="0.996078431372549" d="M 337.5 455 L 336.5 457 L 337.5 455 Z " /><path fill="rgb(233,233,233)" stroke="rgb(233,233,233)" stroke-width="1" opacity="0.996078431372549" d="M 132.5 462 L 133 465.5 L 132 465.5 L 132.5 462 Z " /><path fill="rgb(233,233,233)" stroke="rgb(233,233,233)" stroke-width="1" opacity="0.996078431372549" d="M 392.5 463 L 393.5 465 L 392.5 463 Z " /><path fill="rgb(233,233,233)" stroke="rgb(233,233,233)" stroke-width="1" opacity="0.996078431372549" d="M 152.5 467 L 153 469.5 L 152 469.5 L 152.5 467 Z " /><path fill="rgb(233,233,233)" stroke="rgb(233,233,233)" stroke-width="1" opacity="0.996078431372549" d="M 97.5 473 L 98 479.5 L 99.5 481 L 106 483.5 L 104.5 484 L 97 479.5 L 97.5 473 Z " /><path fill="rgb(233,233,233)" stroke="rgb(233,233,233)" stroke-width="1" opacity="0.996078431372549" d="M 181.5 479 L 187.5 486 L 185 485.5 L 186 484.5 L 181.5 479 Z " /><path fill="rgb(233,233,233)" stroke="rgb(233,233,233)" stroke-width="1" opacity="0.996078431372549" d="M 230.5 479 L 235 479.5 L 230.5 480 L 230.5 479 Z " /><path fill="rgb(233,233,233)" stroke="rgb(233,233,233)" stroke-width="1" opacity="0.996078431372549" d="M 375.5 479 L 393 479.5 L 375.5 480 L 375.5 479 Z " /><path fill="rgb(233,233,233)" stroke="rgb(233,233,233)" stroke-width="1" opacity="0.996078431372549" d="M 236.5 480 L 283 480.5 L 236.5 481 L 236.5 480 Z " /><path fill="rgb(233,233,233)" stroke="rgb(233,233,233)" stroke-width="1" opacity="0.996078431372549" d="M 107.5 484 L 120 487.5 L 117.5 488 L 107.5 485 L 107.5 484 Z " /><path fill="rgb(233,233,233)" stroke="rgb(233,233,233)" stroke-width="1" opacity="0.996078431372549" d="M 181.5 486 L 184 486.5 L 181.5 487 L 181.5 486 Z " /><path fill="rgb(233,233,233)" stroke="rgb(233,233,233)" stroke-width="1" opacity="0.996078431372549" d="M 159.5 487 L 160.5 489 L 159.5 487 Z " /><path fill="rgb(233,233,233)" stroke="rgb(233,233,233)" stroke-width="1" opacity="0.996078431372549" d="M 176.5 487 L 180 487.5 L 176.5 488 L 176.5 487 Z " /><path fill="rgb(233,233,233)" stroke="rgb(233,233,233)" stroke-width="1" opacity="0.996078431372549" d="M 121.5 488 L 125 488.5 L 121.5 489 L 121.5 488 Z " /><path fill="rgb(233,233,233)" stroke="rgb(233,233,233)" stroke-width="1" opacity="0.996078431372549" d="M 170.5 488 L 175 488.5 L 170.5 489 L 170.5 488 Z " /><path fill="rgb(233,233,233)" stroke="rgb(233,233,233)" stroke-width="1" opacity="0.996078431372549" d="M 127.5 489 L 132 489.5 L 127.5 490 L 127.5 489 Z " /><path fill="rgb(233,233,233)" stroke="rgb(233,233,233)" stroke-width="1" opacity="0.996078431372549" d="M 138.5 489 L 139 491 L 134 490.5 L 138.5 489 Z " /><path fill="rgb(233,233,233)" stroke="rgb(233,233,233)" stroke-width="1" opacity="0.996078431372549" d="M 162.5 489 L 169 489.5 L 162.5 490 L 162.5 489 Z " /><path fill="rgb(0,0,0)" stroke="rgb(0,0,0)" stroke-width="1" opacity="0" d="M 0 0 L 512 0 L 512 512 L 0 512 L 0 0 Z M 262 10 L 257 14 L 257 36 L 258 37 L 258 54 L 259 55 L 259 65 L 255 77 L 251 99 L 251 106 L 250 107 Q 250 150 273 171 L 273 178 L 264 170 L 256 166 L 244 163 L 233 163 L 232 164 L 220 165 L 197 172 Q 164 186 140 209 L 128 221 L 125 228 L 127 241 L 134 254 Q 116 275 101 300 L 94 315 L 89 335 L 89 351 L 90 356 L 94 366 L 101 375 L 114 383 L 122 386 L 133 387 L 134 388 Q 144 389 149 387 L 150 410 L 153 426 L 157 440 L 164 455 L 153 458 L 135 458 Q 133 456 129 457 Q 112 452 102 442 Q 89 430 83 413 L 80 400 L 80 370 L 77 362 Q 74 355 66 354 Q 53 354 47 360 L 34 375 L 27 390 L 24 404 L 24 423 L 26 434 Q 31 452 42 465 Q 57 483 80 493 L 101 500 L 112 502 L 120 502 L 121 503 L 139 503 L 140 502 L 149 502 L 156 500 L 161 500 Q 178 497 192 490 L 202 497 L 215 502 L 394 502 L 399 499 L 403 486 L 402 472 L 398 462 L 393 458 L 389 453 Q 385 447 378 444 L 359 443 L 368 431 L 370 425 L 383 418 Q 408 396 421 363 L 427 364 L 434 363 Q 443 355 447 342 L 457 332 L 463 320 L 463 309 L 460 298 L 455 288 L 442 269 L 442 256 L 441 255 L 438 228 L 428 184 L 424 173 Q 437 162 443 146 L 449 122 L 448 96 L 445 81 L 445 75 L 443 69 L 443 38 L 444 34 L 444 32 L 444 18 L 440 11 L 434 11 L 407 34 L 385 27 L 368 25 L 367 24 L 332 24 Q 330 27 324 25 L 303 30 L 296 33 L 293 33 L 267 10 L 262 10 Z " /><path fill="rgb(145,191,162)" stroke="rgb(145,191,162)" stroke-width="1" opacity="1" d="M 262.5 14 L 265 14.5 L 261.5 16 L 262.5 14 Z " /><path fill="rgb(145,191,162)" stroke="rgb(145,191,162)" stroke-width="1" opacity="1" d="M 435.5 15 L 439 16.5 L 437.5 16 Q 434.5 16.5 435.5 15 Z " /><path fill="rgb(145,191,162)" stroke="rgb(145,191,162)" stroke-width="1" opacity="1" d="M 269.5 18 L 272.5 22 L 269.5 18 Z " /><path fill="rgb(145,191,162)" stroke="rgb(145,191,162)" stroke-width="1" opacity="1" d="M 430.5 19 L 428.5 22 L 430.5 19 Z " /><path fill="rgb(145,191,162)" stroke="rgb(145,191,162)" stroke-width="1" opacity="1" d="M 261.5 23 L 262 31.5 L 261 31.5 L 261.5 23 Z " /><path fill="rgb(145,191,162)" stroke="rgb(145,191,162)" stroke-width="1" opacity="1" d="M 277.5 25 L 280.5 29 L 277.5 25 Z " /><path fill="rgb(145,191,162)" stroke="rgb(145,191,162)" stroke-width="1" opacity="1" d="M 423.5 25 L 421.5 28 L 423.5 25 Z " /><path fill="rgb(145,191,162)" stroke="rgb(145,191,162)" stroke-width="1" opacity="1" d="M 335.5 28 L 363 28.5 L 335.5 29 L 335.5 28 Z " /><path fill="rgb(145,191,162)" stroke="rgb(145,191,162)" stroke-width="1" opacity="1" d="M 326.5 29 L 329 29.5 L 326.5 30 L 326.5 29 Z " /><path fill="rgb(145,191,162)" stroke="rgb(145,191,162)" stroke-width="1" opacity="1" d="M 369.5 29 L 372 29.5 L 369.5 30 L 369.5 29 Z " /><path fill="rgb(145,191,162)" stroke="rgb(145,191,162)" stroke-width="1" opacity="1" d="M 417.5 30 L 414.5 34 L 417.5 30 Z " /><path fill="rgb(145,191,162)" stroke="rgb(145,191,162)" stroke-width="1" opacity="1" d="M 285.5 32 L 288.5 36 L 285.5 32 Z " /><path fill="rgb(145,191,162)" stroke="rgb(145,191,162)" stroke-width="1" opacity="1" d="M 410.5 36 L 408.5 39 L 410.5 36 Z " /><path fill="rgb(145,191,162)" stroke="rgb(145,191,162)" stroke-width="1" opacity="1" d="M 262.5 41 L 263 48.5 L 262 48.5 L 262.5 41 Z " /><path fill="rgb(145,191,162)" stroke="rgb(145,191,162)" stroke-width="1" opacity="1" d="M 263.5 59 L 264 64.5 L 263 64.5 L 263.5 59 Z " /><path fill="rgb(145,191,162)" stroke="rgb(145,191,162)" stroke-width="1" opacity="1" d="M 440.5 76 L 441 78.5 L 440 78.5 L 440.5 76 Z " /><path fill="rgb(145,191,162)" stroke="rgb(145,191,162)" stroke-width="1" opacity="1" d="M 390.5 78 L 393 78.5 L 390.5 79 L 390.5 78 Z " /><path fill="rgb(145,191,162)" stroke="rgb(145,191,162)" stroke-width="1" opacity="1" d="M 318.5 79 L 319.5 81 L 318.5 79 Z " /><path fill="rgb(145,191,162)" stroke="rgb(145,191,162)" stroke-width="1" opacity="1" d="M 388.5 79 L 387.5 81 L 388.5 79 Z " /><path fill="rgb(145,191,162)" stroke="rgb(145,191,162)" stroke-width="1" opacity="1" d="M 386.5 82 L 387 86.5 L 386 86.5 L 386.5 82 Z " /><path fill="rgb(145,191,162)" stroke="rgb(145,191,162)" stroke-width="1" opacity="1" d="M 396.5 82 L 397 86.5 L 396 86.5 L 396.5 82 Z " /><path fill="rgb(145,191,162)" stroke="rgb(145,191,162)" stroke-width="1" opacity="1" d="M 441.5 83 L 442 85.5 L 441 85.5 L 441.5 83 Z " /><path fill="rgb(145,191,162)" stroke="rgb(145,191,162)" stroke-width="1" opacity="1" d="M 310.5 86 L 313 89.5 L 310 87.5 L 310.5 86 Z " /><path fill="rgb(145,191,162)" stroke="rgb(145,191,162)" stroke-width="1" opacity="1" d="M 387.5 88 L 388.5 90 L 387.5 88 Z " /><path fill="rgb(145,191,162)" stroke="rgb(145,191,162)" stroke-width="1" opacity="1" d="M 395.5 88 L 394.5 90 L 395.5 88 Z " /><path fill="rgb(145,191,162)" stroke="rgb(145,191,162)" stroke-width="1" opacity="1" d="M 390.5 90 L 393 90.5 L 390.5 91 L 390.5 90 Z " /><path fill="rgb(145,191,162)" stroke="rgb(145,191,162)" stroke-width="1" opacity="1" d="M 442.5 90 L 443 93.5 L 442 93.5 L 442.5 90 Z " /><path fill="rgb(145,191,162)" stroke="rgb(145,191,162)" stroke-width="1" opacity="1" d="M 256.5 93 L 257 95.5 L 256 95.5 L 256.5 93 Z " /><path fill="rgb(145,191,162)" stroke="rgb(145,191,162)" stroke-width="1" opacity="1" d="M 443.5 98 L 444 102.5 L 443 102.5 L 443.5 98 Z " /><path fill="rgb(145,191,162)" stroke="rgb(145,191,162)" stroke-width="1" opacity="1" d="M 255.5 100 L 256 103.5 L 255 103.5 L 255.5 100 Z " /><path fill="rgb(145,191,162)" stroke="rgb(145,191,162)" stroke-width="1" opacity="1" d="M 358.5 105 L 359.5 107 L 358.5 105 Z " /><path fill="rgb(145,191,162)" stroke="rgb(145,191,162)" stroke-width="1" opacity="1" d="M 444.5 110 L 445 117.5 L 444 117.5 L 444.5 110 Z " /><path fill="rgb(145,191,162)" stroke="rgb(145,191,162)" stroke-width="1" opacity="1" d="M 356.5 120 L 354.5 123 L 356.5 120 Z " /><path fill="rgb(145,191,162)" stroke="rgb(145,191,162)" stroke-width="1" opacity="1" d="M 255.5 122 L 256 124.5 L 255 124.5 L 255.5 122 Z " /><path fill="rgb(145,191,162)" stroke="rgb(145,191,162)" stroke-width="1" opacity="1" d="M 419.5 124 L 423 124.5 L 419.5 125 L 419.5 124 Z " /><path fill="rgb(145,191,162)" stroke="rgb(145,191,162)" stroke-width="1" opacity="1" d="M 426.5 124 L 427.5 126 L 426.5 124 Z " /><path fill="rgb(145,191,162)" stroke="rgb(145,191,162)" stroke-width="1" opacity="1" d="M 443.5 124 L 444 126.5 L 443 126.5 L 443.5 124 Z " /><path fill="rgb(145,191,162)" stroke="rgb(145,191,162)" stroke-width="1" opacity="1" d="M 411.5 125 L 415 125.5 L 411.5 126 L 411.5 125 Z " /><path fill="rgb(145,191,162)" stroke="rgb(145,191,162)" stroke-width="1" opacity="1" d="M 403.5 126 L 407 126.5 L 403.5 127 L 403.5 126 Z " /><path fill="rgb(145,191,162)" stroke="rgb(145,191,162)" stroke-width="1" opacity="1" d="M 395.5 127 L 399 127.5 L 395.5 128 L 395.5 127 Z " /><path fill="rgb(145,191,162)" stroke="rgb(145,191,162)" stroke-width="1" opacity="1" d="M 256.5 128 L 257 130.5 L 256 130.5 L 256.5 128 Z " /><path fill="rgb(145,191,162)" stroke="rgb(145,191,162)" stroke-width="1" opacity="1" d="M 387.5 128 L 391 128.5 L 387.5 129 L 387.5 128 Z " /><path fill="rgb(145,191,162)" stroke="rgb(145,191,162)" stroke-width="1" opacity="1" d="M 419.5 128 L 423 128.5 L 419.5 129 L 419.5 128 Z " /><path fill="rgb(145,191,162)" stroke="rgb(145,191,162)" stroke-width="1" opacity="1" d="M 411.5 129 L 415 129.5 L 411.5 130 L 411.5 129 Z " /><path fill="rgb(145,191,162)" stroke="rgb(145,191,162)" stroke-width="1" opacity="1" d="M 384.5 130 L 386 132.5 L 384 131.5 L 384.5 130 Z " /><path fill="rgb(145,191,162)" stroke="rgb(145,191,162)" stroke-width="1" opacity="1" d="M 403.5 130 L 407 130.5 L 403.5 131 L 403.5 130 Z " /><path fill="rgb(145,191,162)" stroke="rgb(145,191,162)" stroke-width="1" opacity="1" d="M 395.5 131 L 399 131.5 L 395.5 132 L 395.5 131 Z " /><path fill="rgb(145,191,162)" stroke="rgb(145,191,162)" stroke-width="1" opacity="1" d="M 387.5 132 L 391 132.5 L 387.5 133 L 387.5 132 Z " /><path fill="rgb(145,191,162)" stroke="rgb(145,191,162)" stroke-width="1" opacity="1" d="M 348.5 134 L 347.5 136 L 348.5 134 Z " /><path fill="rgb(145,191,162)" stroke="rgb(145,191,162)" stroke-width="1" opacity="1" d="M 338.5 136 L 346 136.5 L 338 137 L 337.5 139 L 337 137.5 L 338.5 136 Z " /><path fill="rgb(145,191,162)" stroke="rgb(145,191,162)" stroke-width="1" opacity="1" d="M 359.5 136 L 365 136.5 L 359.5 137 L 359.5 136 Z " /><path fill="rgb(145,191,162)" stroke="rgb(145,191,162)" stroke-width="1" opacity="1" d="M 354.5 138 L 357 139.5 L 355.5 140 L 354.5 138 Z " /><path fill="rgb(145,191,162)" stroke="rgb(145,191,162)" stroke-width="1" opacity="1" d="M 385.5 139 L 385 140.5 L 386 142.5 L 384 141.5 L 385.5 139 Z " /><path fill="rgb(145,191,162)" stroke="rgb(145,191,162)" stroke-width="1" opacity="1" d="M 297.5 140 L 308 140.5 L 297.5 141 L 297.5 140 Z " /><path fill="rgb(145,191,162)" stroke="rgb(145,191,162)" stroke-width="1" opacity="1" d="M 339.5 140 L 346 140.5 L 339.5 141 L 339.5 140 Z " /><path fill="rgb(145,191,162)" stroke="rgb(145,191,162)" stroke-width="1" opacity="1" d="M 358.5 140 L 365 140.5 L 358.5 141 L 358.5 140 Z " /><path fill="rgb(145,191,162)" stroke="rgb(145,191,162)" stroke-width="1" opacity="1" d="M 320.5 143 L 323 143.5 L 320.5 144 L 320.5 143 Z " /><path fill="rgb(145,191,162)" stroke="rgb(145,191,162)" stroke-width="1" opacity="1" d="M 296.5 144 L 307 144.5 L 296.5 145 L 296.5 144 Z " /><path fill="rgb(145,191,162)" stroke="rgb(145,191,162)" stroke-width="1" opacity="1" d="M 416.5 153 L 419 153.5 L 416.5 154 L 416.5 153 Z " /><path fill="rgb(145,191,162)" stroke="rgb(145,191,162)" stroke-width="1" opacity="1" d="M 432.5 155 L 431.5 157 L 432.5 155 Z " /><path fill="rgb(145,191,162)" stroke="rgb(145,191,162)" stroke-width="1" opacity="1" d="M 267.5 156 L 268.5 158 L 267.5 156 Z " /><path fill="rgb(145,191,162)" stroke="rgb(145,191,162)" stroke-width="1" opacity="1" d="M 269.5 159 L 270.5 161 L 269.5 159 Z " /><path fill="rgb(145,191,162)" stroke="rgb(145,191,162)" stroke-width="1" opacity="1" d="M 426.5 163 L 424.5 166 L 426.5 163 Z " /><path fill="rgb(145,191,162)" stroke="rgb(145,191,162)" stroke-width="1" opacity="1" d="M 273.5 164 L 281.5 173 L 273.5 164 Z " /><path fill="rgb(145,191,162)" stroke="rgb(145,191,162)" stroke-width="1" opacity="1" d="M 230.5 168 Q 242.6 166.4 250.5 169 Q 262 172.5 269 180.5 Q 276.6 188.9 277 204.5 Q 272.5 222 262 233.5 L 219.5 277 L 215 280.5 Q 199.8 295.3 188 313.5 Q 176.4 336.9 169 364.5 L 162 377 L 149.5 383 L 129.5 383 L 113.5 378 L 101 367.5 L 94 352.5 L 93 339.5 L 96 323.5 L 102 307.5 L 121 277.5 Q 158.1 229.6 201.5 188 L 218.5 173 L 230.5 168 Z M 134 280 Q 121 293 113 310 L 105 332 Q 103 347 109 355 Q 116 366 132 369 Q 146 371 153 364 Q 162 355 167 342 L 176 318 L 179 305 L 178 303 L 166 301 L 155 296 Q 143 290 136 280 L 134 280 Z " /><path fill="rgb(145,191,162)" stroke="rgb(145,191,162)" stroke-width="1" opacity="1" d="M 418.5 171 L 416.5 174 L 418.5 171 Z " /><path fill="rgb(145,191,162)" stroke="rgb(145,191,162)" stroke-width="1" opacity="1" d="M 208.5 173 L 211 173.5 L 174 209.5 L 137.5 250 L 131 237.5 L 130 226.5 L 144.5 211 Q 170.7 186.2 208.5 173 Z " /><path fill="rgb(145,191,162)" stroke="rgb(145,191,162)" stroke-width="1" opacity="1" d="M 277.5 174 L 278 177.5 L 277 177.5 L 277.5 174 Z " /><path fill="rgb(145,191,162)" stroke="rgb(145,191,162)" stroke-width="1" opacity="1" d="M 280.5 176 L 282.5 179 L 280.5 176 Z " /><path fill="rgb(145,191,162)" stroke="rgb(145,191,162)" stroke-width="1" opacity="1" d="M 412.5 176 L 410.5 179 L 412.5 176 Z " /><path fill="rgb(145,191,162)" stroke="rgb(145,191,162)" stroke-width="1" opacity="1" d="M 417.5 177 L 416.5 179 L 417.5 177 Z " /><path fill="rgb(145,191,162)" stroke="rgb(145,191,162)" stroke-width="1" opacity="1" d="M 276.5 182 L 277 185.5 L 276 185.5 L 276.5 182 Z " /><path fill="rgb(145,191,162)" stroke="rgb(145,191,162)" stroke-width="1" opacity="1" d="M 289.5 191 L 294 191.5 L 289.5 192 L 289.5 191 Z " /><path fill="rgb(145,191,162)" stroke="rgb(145,191,162)" stroke-width="1" opacity="1" d="M 306.5 191 L 311 191.5 L 306.5 192 L 306.5 191 Z " /><path fill="rgb(145,191,162)" stroke="rgb(145,191,162)" stroke-width="1" opacity="1" d="M 281.5 192 L 284 192.5 L 281.5 193 L 281.5 192 Z " /><path fill="rgb(145,191,162)" stroke="rgb(145,191,162)" stroke-width="1" opacity="1" d="M 289.5 195 L 310.5 195 L 321.5 197 L 332.5 201 Q 350.5 210.9 363 226.5 Q 371.1 236.4 375 250.5 L 377 259.5 L 377 269.5 L 375.5 269 L 360 260.5 Q 355.9 230.6 336.5 216 L 316.5 206 L 299.5 203 L 284.5 203 L 281 204 L 280 197 L 289.5 195 Z " /><path fill="rgb(145,191,162)" stroke="rgb(145,191,162)" stroke-width="1" opacity="1" d="M 342.5 202 L 343.5 204 L 342.5 202 Z " /><path fill="rgb(145,191,162)" stroke="rgb(145,191,162)" stroke-width="1" opacity="1" d="M 346.5 205 L 348.5 208 L 346.5 205 Z " /><path fill="rgb(145,191,162)" stroke="rgb(145,191,162)" stroke-width="1" opacity="1" d="M 280.5 207 L 285 207.5 L 280.5 208 L 280.5 207 Z " /><path fill="rgb(145,191,162)" stroke="rgb(145,191,162)" stroke-width="1" opacity="1" d="M 299.5 207 L 304 207.5 L 299.5 208 L 299.5 207 Z " /><path fill="rgb(145,191,162)" stroke="rgb(145,191,162)" stroke-width="1" opacity="1" d="M 351.5 209 L 355.5 214 L 351.5 209 Z " /><path fill="rgb(145,191,162)" stroke="rgb(145,191,162)" stroke-width="1" opacity="1" d="M 360.5 218 L 363.5 222 L 360.5 218 Z " /><path fill="rgb(145,191,162)" stroke="rgb(145,191,162)" stroke-width="1" opacity="1" d="M 335.5 220 L 342.5 228 L 335.5 220 Z " /><path fill="rgb(145,191,162)" stroke="rgb(145,191,162)" stroke-width="1" opacity="1" d="M 432.5 224 L 433 226.5 L 432 226.5 L 432.5 224 Z " /><path fill="rgb(145,191,162)" stroke="rgb(145,191,162)" stroke-width="1" opacity="1" d="M 368.5 228 L 369.5 230 L 368.5 228 Z " /><path fill="rgb(145,191,162)" stroke="rgb(145,191,162)" stroke-width="1" opacity="1" d="M 344.5 230 L 345.5 232 L 344.5 230 Z " /><path fill="rgb(145,191,162)" stroke="rgb(145,191,162)" stroke-width="1" opacity="1" d="M 267.5 232 L 266.5 234 L 267.5 232 Z " /><path fill="rgb(145,191,162)" stroke="rgb(145,191,162)" stroke-width="1" opacity="1" d="M 346.5 233 L 347.5 235 L 346.5 233 Z " /><path fill="rgb(145,191,162)" stroke="rgb(145,191,162)" stroke-width="1" opacity="1" d="M 434.5 235 L 435 237.5 L 434 237.5 L 434.5 235 Z " /><path fill="rgb(145,191,162)" stroke="rgb(145,191,162)" stroke-width="1" opacity="1" d="M 263.5 237 L 260.5 241 L 263.5 237 Z " /><path fill="rgb(145,191,162)" stroke="rgb(145,191,162)" stroke-width="1" opacity="1" d="M 435.5 242 L 436 244.5 L 435 244.5 L 435.5 242 Z " /><path fill="rgb(145,191,162)" stroke="rgb(145,191,162)" stroke-width="1" opacity="1" d="M 255.5 246 L 228.5 274 L 255.5 246 Z " /><path fill="rgb(145,191,162)" stroke="rgb(145,191,162)" stroke-width="1" opacity="1" d="M 436.5 249 L 437 252.5 L 436 252.5 L 436.5 249 Z " /><path fill="rgb(145,191,162)" stroke="rgb(145,191,162)" stroke-width="1" opacity="1" d="M 379.5 253 L 380 255.5 L 379 255.5 L 379.5 253 Z " /><path fill="rgb(145,191,162)" stroke="rgb(145,191,162)" stroke-width="1" opacity="1" d="M 355.5 254 L 356 256.5 L 354 257.5 L 355.5 254 Z " /><path fill="rgb(145,191,162)" stroke="rgb(145,191,162)" stroke-width="1" opacity="1" d="M 380.5 258 L 381 261.5 L 380 261.5 L 380.5 258 Z " /><path fill="rgb(145,191,162)" stroke="rgb(145,191,162)" stroke-width="1" opacity="1" d="M 437.5 258 L 438 263.5 L 437 263.5 L 437.5 258 Z " /><path fill="rgb(145,191,162)" stroke="rgb(145,191,162)" stroke-width="1" opacity="1" d="M 438.5 273 L 439 286.5 L 438 286.5 L 438.5 273 Z " /><path fill="rgb(145,191,162)" stroke="rgb(145,191,162)" stroke-width="1" opacity="1" d="M 442.5 278 L 444.5 281 L 443 280.5 L 442.5 286 L 442.5 278 Z " /><path fill="rgb(145,191,162)" stroke="rgb(145,191,162)" stroke-width="1" opacity="1" d="M 134.5 285 L 144 293.5 L 135.5 286 L 132.5 288 L 134.5 285 Z " /><path fill="rgb(145,191,162)" stroke="rgb(145,191,162)" stroke-width="1" opacity="1" d="M 214.5 287 L 208.5 294 L 214.5 287 Z " /><path fill="rgb(145,191,162)" stroke="rgb(145,191,162)" stroke-width="1" opacity="1" d="M 130.5 290 L 129.5 292 L 130.5 290 Z " /><path fill="rgb(145,191,162)" stroke="rgb(145,191,162)" stroke-width="1" opacity="1" d="M 128.5 293 L 127.5 295 L 128.5 293 Z " /><path fill="rgb(145,191,162)" stroke="rgb(145,191,162)" stroke-width="1" opacity="1" d="M 145.5 294 L 147.5 297 L 145.5 294 Z " /><path fill="rgb(145,191,162)" stroke="rgb(145,191,162)" stroke-width="1" opacity="1" d="M 422.5 295 L 424.5 298 L 422.5 295 Z " /><path fill="rgb(145,191,162)" stroke="rgb(145,191,162)" stroke-width="1" opacity="1" d="M 437.5 295 L 438 298.5 L 437 298.5 L 437.5 295 Z " /><path fill="rgb(145,191,162)" stroke="rgb(145,191,162)" stroke-width="1" opacity="1" d="M 441.5 295 L 442 298.5 L 441 298.5 L 441.5 295 Z " /><path fill="rgb(145,191,162)" stroke="rgb(145,191,162)" stroke-width="1" opacity="1" d="M 125.5 297 L 124.5 299 L 125.5 297 Z " /><path fill="rgb(145,191,162)" stroke="rgb(145,191,162)" stroke-width="1" opacity="1" d="M 418.5 297 L 419.5 299 L 418.5 297 Z " /><path fill="rgb(145,191,162)" stroke="rgb(145,191,162)" stroke-width="1" opacity="1" d="M 151.5 298 L 152.5 300 L 151.5 298 Z " /><path fill="rgb(145,191,162)" stroke="rgb(145,191,162)" stroke-width="1" opacity="1" d="M 204.5 298 L 202.5 301 L 204.5 298 Z " /><path fill="rgb(145,191,162)" stroke="rgb(145,191,162)" stroke-width="1" opacity="1" d="M 423.5 301 L 429.5 308 L 423.5 301 Z " /><path fill="rgb(145,191,162)" stroke="rgb(145,191,162)" stroke-width="1" opacity="1" d="M 122.5 302 L 121.5 304 L 122.5 302 Z " /><path fill="rgb(145,191,162)" stroke="rgb(145,191,162)" stroke-width="1" opacity="1" d="M 436.5 303 L 437 305.5 L 436 305.5 L 436.5 303 Z " /><path fill="rgb(145,191,162)" stroke="rgb(145,191,162)" stroke-width="1" opacity="1" d="M 440.5 303 L 441 305.5 L 440 305.5 L 440.5 303 Z " /><path fill="rgb(145,191,162)" stroke="rgb(145,191,162)" stroke-width="1" opacity="1" d="M 199.5 304 L 198.5 306 L 199.5 304 Z " /><path fill="rgb(145,191,162)" stroke="rgb(145,191,162)" stroke-width="1" opacity="1" d="M 119.5 307 L 118.5 309 L 119.5 307 Z " /><path fill="rgb(145,191,162)" stroke="rgb(145,191,162)" stroke-width="1" opacity="1" d="M 434.5 307 L 435.5 309 L 434.5 307 Z " /><path fill="rgb(145,191,162)" stroke="rgb(145,191,162)" stroke-width="1" opacity="1" d="M 439.5 308 L 440 310.5 L 439 310.5 L 439.5 308 Z " /><path fill="rgb(145,191,162)" stroke="rgb(145,191,162)" stroke-width="1" opacity="1" d="M 458.5 310 L 459 317.5 L 458 317.5 L 458.5 310 Z " /><path fill="rgb(145,191,162)" stroke="rgb(145,191,162)" stroke-width="1" opacity="1" d="M 337.5 311 L 341.5 311 L 355 316 L 352.5 320 Q 324.4 344.9 282.5 356 L 264.5 360 L 243.5 362 L 242.5 363 L 196.5 364 L 195.5 363 L 181.5 363 L 180.5 362 L 174 362 L 186 326 L 205.5 327 L 206.5 328 L 218.5 328 L 219.5 329 L 266.5 330 L 267.5 329 L 290.5 328 L 310.5 324 Q 326.4 319.9 337.5 311 Z " /><path fill="rgb(145,191,162)" stroke="rgb(145,191,162)" stroke-width="1" opacity="1" d="M 432.5 311 L 434.5 314 L 432.5 311 Z " /><path fill="rgb(145,191,162)" stroke="rgb(145,191,162)" stroke-width="1" opacity="1" d="M 191.5 316 L 190.5 318 L 191.5 316 Z " /><path fill="rgb(145,191,162)" stroke="rgb(145,191,162)" stroke-width="1" opacity="1" d="M 359.5 318 L 361 318.5 L 357.5 321 L 359.5 318 Z " /><path fill="rgb(145,191,162)" stroke="rgb(145,191,162)" stroke-width="1" opacity="1" d="M 191.5 322 L 195 322.5 L 191.5 323 L 191.5 322 Z " /><path fill="rgb(145,191,162)" stroke="rgb(145,191,162)" stroke-width="1" opacity="1" d="M 201.5 323 L 207 323.5 L 201.5 324 L 201.5 323 Z " /><path fill="rgb(145,191,162)" stroke="rgb(145,191,162)" stroke-width="1" opacity="1" d="M 290.5 323 L 293 323.5 L 290.5 324 L 290.5 323 Z " /><path fill="rgb(145,191,162)" stroke="rgb(145,191,162)" stroke-width="1" opacity="1" d="M 213.5 324 L 220 324.5 L 213.5 325 L 213.5 324 Z " /><path fill="rgb(145,191,162)" stroke="rgb(145,191,162)" stroke-width="1" opacity="1" d="M 281.5 324 L 286 324.5 L 281.5 325 L 281.5 324 Z " /><path fill="rgb(145,191,162)" stroke="rgb(145,191,162)" stroke-width="1" opacity="1" d="M 352.5 324 L 350.5 327 L 352.5 324 Z " /><path fill="rgb(145,191,162)" stroke="rgb(145,191,162)" stroke-width="1" opacity="1" d="M 229.5 325 L 238 325.5 L 229.5 326 L 229.5 325 Z " /><path fill="rgb(145,191,162)" stroke="rgb(145,191,162)" stroke-width="1" opacity="1" d="M 266.5 325 L 276 325.5 L 266.5 326 L 266.5 325 Z " /><path fill="rgb(145,191,162)" stroke="rgb(145,191,162)" stroke-width="1" opacity="1" d="M 455.5 325 L 454.5 327 L 455.5 325 Z " /><path fill="rgb(145,191,162)" stroke="rgb(145,191,162)" stroke-width="1" opacity="1" d="M 347.5 328 L 346.5 330 L 347.5 328 Z " /><path fill="rgb(145,191,162)" stroke="rgb(145,191,162)" stroke-width="1" opacity="1" d="M 109.5 330 L 110 332.5 L 109 332.5 L 109.5 330 Z " /><path fill="rgb(145,191,162)" stroke="rgb(145,191,162)" stroke-width="1" opacity="1" d="M 451.5 330 L 448.5 334 Q 446.3 334.8 447 332.5 Q 449.2 334.2 451.5 330 Z " /><path fill="rgb(145,191,162)" stroke="rgb(145,191,162)" stroke-width="1" opacity="1" d="M 343.5 331 L 342.5 333 L 343.5 331 Z " /><path fill="rgb(145,191,162)" stroke="rgb(145,191,162)" stroke-width="1" opacity="1" d="M 443.5 332 L 444 338.5 L 443 338.5 L 443.5 332 Z " /><path fill="rgb(145,191,162)" stroke="rgb(145,191,162)" stroke-width="1" opacity="1" d="M 340.5 334 L 342.5 337 L 340.5 334 Z " /><path fill="rgb(145,191,162)" stroke="rgb(145,191,162)" stroke-width="1" opacity="1" d="M 108.5 335 L 109 340.5 L 108 340.5 L 108.5 335 Z " /><path fill="rgb(145,191,162)" stroke="rgb(145,191,162)" stroke-width="1" opacity="1" d="M 329.5 340 L 328.5 342 L 329.5 340 Z " /><path fill="rgb(145,191,162)" stroke="rgb(145,191,162)" stroke-width="1" opacity="1" d="M 341.5 340 L 348.5 348 L 341.5 340 Z " /><path fill="rgb(145,191,162)" stroke="rgb(145,191,162)" stroke-width="1" opacity="1" d="M 398.5 341 L 399.5 343 L 398.5 341 Z " /><path fill="rgb(145,191,162)" stroke="rgb(145,191,162)" stroke-width="1" opacity="1" d="M 403.5 341 L 404.5 343 L 403.5 341 Z " /><path fill="rgb(145,191,162)" stroke="rgb(145,191,162)" stroke-width="1" opacity="1" d="M 401.5 345 L 409.5 354 L 401.5 345 Z " /><path fill="rgb(145,191,162)" stroke="rgb(145,191,162)" stroke-width="1" opacity="1" d="M 354.5 348 L 356.5 351 L 354.5 348 Z " /><path fill="rgb(145,191,162)" stroke="rgb(145,191,162)" stroke-width="1" opacity="1" d="M 111.5 350 L 112.5 352 L 111.5 350 Z " /><path fill="rgb(145,191,162)" stroke="rgb(145,191,162)" stroke-width="1" opacity="1" d="M 412.5 350 L 414.5 353 L 412.5 350 Z " /><path fill="rgb(145,191,162)" stroke="rgb(145,191,162)" stroke-width="1" opacity="1" d="M 156.5 352 L 155.5 354 L 156.5 352 Z " /><path fill="rgb(145,191,162)" stroke="rgb(145,191,162)" stroke-width="1" opacity="1" d="M 113.5 353 L 118.5 359 L 113.5 353 Z " /><path fill="rgb(145,191,162)" stroke="rgb(145,191,162)" stroke-width="1" opacity="1" d="M 353.5 353 L 354.5 355 L 353.5 353 Z " /><path fill="rgb(145,191,162)" stroke="rgb(145,191,162)" stroke-width="1" opacity="1" d="M 359.5 354 L 360.5 356 L 359.5 354 Z " /><path fill="rgb(145,191,162)" stroke="rgb(145,191,162)" stroke-width="1" opacity="1" d="M 417.5 354 L 418.5 356 L 417.5 354 Z " /><path fill="rgb(145,191,162)" stroke="rgb(145,191,162)" stroke-width="1" opacity="1" d="M 435.5 354 L 430.5 360 L 427 359.5 Q 433.9 359.4 435.5 354 Z " /><path fill="rgb(145,191,162)" stroke="rgb(145,191,162)" stroke-width="1" opacity="1" d="M 154.5 355 L 147.5 363 L 154.5 355 Z " /><path fill="rgb(145,191,162)" stroke="rgb(145,191,162)" stroke-width="1" opacity="1" d="M 413.5 356 L 414.5 358 L 413.5 356 Z " /><path fill="rgb(145,191,162)" stroke="rgb(145,191,162)" stroke-width="1" opacity="1" d="M 69.5 360 L 72.5 364 L 69.5 360 Z " /><path fill="rgb(145,191,162)" stroke="rgb(145,191,162)" stroke-width="1" opacity="1" d="M 359.5 361 L 360.5 363 L 359.5 361 Z " /><path fill="rgb(145,191,162)" stroke="rgb(145,191,162)" stroke-width="1" opacity="1" d="M 51.5 362 L 50.5 364 L 51.5 362 Z " /><path fill="rgb(145,191,162)" stroke="rgb(145,191,162)" stroke-width="1" opacity="1" d="M 268.5 362 L 271 362.5 L 268.5 363 L 268.5 362 Z " /><path fill="rgb(145,191,162)" stroke="rgb(145,191,162)" stroke-width="1" opacity="1" d="M 131.5 364 L 134 364.5 L 131.5 365 L 131.5 364 Z " /><path fill="rgb(145,191,162)" stroke="rgb(145,191,162)" stroke-width="1" opacity="1" d="M 139.5 364 L 143 364.5 L 139.5 365 L 139.5 364 Z " /><path fill="rgb(145,191,162)" stroke="rgb(145,191,162)" stroke-width="1" opacity="1" d="M 256.5 364 L 260 364.5 L 256.5 365 L 256.5 364 Z " /><path fill="rgb(145,191,162)" stroke="rgb(145,191,162)" stroke-width="1" opacity="1" d="M 47.5 365 L 43.5 370 L 47.5 365 Z " /><path fill="rgb(145,191,162)" stroke="rgb(145,191,162)" stroke-width="1" opacity="1" d="M 249.5 365 L 252 365.5 L 249.5 366 L 249.5 365 Z " /><path fill="rgb(145,191,162)" stroke="rgb(145,191,162)" stroke-width="1" opacity="1" d="M 180.5 366 L 186 366.5 L 180.5 367 L 180.5 366 Z " /><path fill="rgb(145,191,162)" stroke="rgb(145,191,162)" stroke-width="1" opacity="1" d="M 239.5 366 L 244 366.5 L 239.5 367 L 239.5 366 Z " /><path fill="rgb(145,191,162)" stroke="rgb(145,191,162)" stroke-width="1" opacity="1" d="M 195.5 367 L 211 367.5 L 195.5 368 L 195.5 367 Z " /><path fill="rgb(145,191,162)" stroke="rgb(145,191,162)" stroke-width="1" opacity="1" d="M 216.5 367 L 231 367.5 L 216.5 368 L 216.5 367 Z " /><path fill="rgb(145,191,162)" stroke="rgb(145,191,162)" stroke-width="1" opacity="1" d="M 41.5 372 L 40.5 374 L 41.5 372 Z " /><path fill="rgb(145,191,162)" stroke="rgb(145,191,162)" stroke-width="1" opacity="1" d="M 75.5 372 L 76 390.5 L 75 390.5 L 75.5 372 Z " /><path fill="rgb(145,191,162)" stroke="rgb(145,191,162)" stroke-width="1" opacity="1" d="M 164.5 379 L 163.5 381 L 164.5 379 Z " /><path fill="rgb(145,191,162)" stroke="rgb(145,191,162)" stroke-width="1" opacity="1" d="M 406.5 381 L 405.5 383 L 406.5 381 Z " /><path fill="rgb(145,191,162)" stroke="rgb(145,191,162)" stroke-width="1" opacity="1" d="M 154.5 385 L 154 386.5 L 153.5 397 L 153 386.5 L 154.5 385 Z " /><path fill="rgb(145,191,162)" stroke="rgb(145,191,162)" stroke-width="1" opacity="1" d="M 375.5 387 L 376 389.5 L 375 389.5 L 375.5 387 Z " /><path fill="rgb(145,191,162)" stroke="rgb(145,191,162)" stroke-width="1" opacity="1" d="M 75.5 392 L 76 398.5 L 75 398.5 L 75.5 392 Z " /><path fill="rgb(145,191,162)" stroke="rgb(145,191,162)" stroke-width="1" opacity="1" d="M 398.5 393 L 397.5 395 L 398.5 393 Z " /><path fill="rgb(145,191,162)" stroke="rgb(145,191,162)" stroke-width="1" opacity="1" d="M 372.5 395 L 373 401.5 L 372 401.5 L 372.5 395 Z " /><path fill="rgb(145,191,162)" stroke="rgb(145,191,162)" stroke-width="1" opacity="1" d="M 376.5 396 L 377 401.5 L 376 401.5 L 376.5 396 Z " /><path fill="rgb(145,191,162)" stroke="rgb(145,191,162)" stroke-width="1" opacity="1" d="M 395.5 397 L 394.5 399 L 395.5 397 Z " /><path fill="rgb(145,191,162)" stroke="rgb(145,191,162)" stroke-width="1" opacity="1" d="M 29.5 399 L 30 401.5 L 29 401.5 L 29.5 399 Z " /><path fill="rgb(145,191,162)" stroke="rgb(145,191,162)" stroke-width="1" opacity="1" d="M 76.5 402 L 77 404.5 L 76 404.5 L 76.5 402 Z " /><path fill="rgb(145,191,162)" stroke="rgb(145,191,162)" stroke-width="1" opacity="1" d="M 391.5 402 L 381.5 413 L 391.5 402 Z " /><path fill="rgb(145,191,162)" stroke="rgb(145,191,162)" stroke-width="1" opacity="1" d="M 154.5 403 L 155 406.5 L 154 406.5 L 154.5 403 Z " /><path fill="rgb(145,191,162)" stroke="rgb(145,191,162)" stroke-width="1" opacity="1" d="M 28.5 406 L 29 419.5 L 28 419.5 L 28.5 406 Z " /><path fill="rgb(145,191,162)" stroke="rgb(145,191,162)" stroke-width="1" opacity="1" d="M 155.5 411 L 156 413.5 L 155 413.5 L 155.5 411 Z " /><path fill="rgb(145,191,162)" stroke="rgb(145,191,162)" stroke-width="1" opacity="1" d="M 377.5 415 L 376.5 417 L 377.5 415 Z " /><path fill="rgb(145,191,162)" stroke="rgb(145,191,162)" stroke-width="1" opacity="1" d="M 156.5 417 L 157 419.5 L 156 419.5 L 156.5 417 Z " /><path fill="rgb(145,191,162)" stroke="rgb(145,191,162)" stroke-width="1" opacity="1" d="M 29.5 425 L 30 427.5 L 29 427.5 L 29.5 425 Z " /><path fill="rgb(145,191,162)" stroke="rgb(145,191,162)" stroke-width="1" opacity="1" d="M 89.5 434 L 90.5 436 L 89.5 434 Z " /><path fill="rgb(145,191,162)" stroke="rgb(145,191,162)" stroke-width="1" opacity="1" d="M 359.5 434 L 358.5 436 L 359.5 434 Z " /><path fill="rgb(145,191,162)" stroke="rgb(145,191,162)" stroke-width="1" opacity="1" d="M 92.5 438 L 93.5 440 L 92.5 438 Z " /><path fill="rgb(145,191,162)" stroke="rgb(145,191,162)" stroke-width="1" opacity="1" d="M 355.5 439 L 343.5 452 L 355.5 439 Z " /><path fill="rgb(145,191,162)" stroke="rgb(145,191,162)" stroke-width="1" opacity="1" d="M 101.5 447 L 103.5 450 L 101.5 447 Z " /><path fill="rgb(145,191,162)" stroke="rgb(145,191,162)" stroke-width="1" opacity="1" d="M 352.5 448 L 349.5 452 L 352.5 448 Z " /><path fill="rgb(145,191,162)" stroke="rgb(145,191,162)" stroke-width="1" opacity="1" d="M 37.5 449 L 38.5 451 L 37.5 449 Z " /><path fill="rgb(145,191,162)" stroke="rgb(145,191,162)" stroke-width="1" opacity="1" d="M 380.5 450 L 381.5 452 L 380.5 450 Z " /><path fill="rgb(145,191,162)" stroke="rgb(145,191,162)" stroke-width="1" opacity="1" d="M 383.5 453 L 385.5 456 L 381 455.5 L 384 454.5 L 383.5 453 Z " /><path fill="rgb(145,191,162)" stroke="rgb(145,191,162)" stroke-width="1" opacity="1" d="M 40.5 454 L 41.5 456 L 40.5 454 Z " /><path fill="rgb(145,191,162)" stroke="rgb(145,191,162)" stroke-width="1" opacity="1" d="M 339.5 454 L 337.5 457 L 339.5 454 Z " /><path fill="rgb(145,191,162)" stroke="rgb(145,191,162)" stroke-width="1" opacity="1" d="M 344.5 455 L 345.5 456 L 355 456.5 L 344 457 L 344.5 455 Z " /><path fill="rgb(145,191,162)" stroke="rgb(145,191,162)" stroke-width="1" opacity="1" d="M 363.5 455 L 367 455.5 L 363.5 456 L 363.5 455 Z " /><path fill="rgb(145,191,162)" stroke="rgb(145,191,162)" stroke-width="1" opacity="1" d="M 42.5 457 L 44.5 460 L 42.5 457 Z " /><path fill="rgb(145,191,162)" stroke="rgb(145,191,162)" stroke-width="1" opacity="1" d="M 329.5 457 L 333 457.5 L 329.5 458 L 329.5 457 Z " /><path fill="rgb(145,191,162)" stroke="rgb(145,191,162)" stroke-width="1" opacity="1" d="M 166.5 458 L 167.5 460 L 166.5 458 Z " /><path fill="rgb(145,191,162)" stroke="rgb(145,191,162)" stroke-width="1" opacity="1" d="M 363.5 459 L 367 459.5 L 363.5 460 L 363.5 459 Z " /><path fill="rgb(145,191,162)" stroke="rgb(145,191,162)" stroke-width="1" opacity="1" d="M 381.5 459 L 384 459.5 L 381.5 460 L 381.5 459 Z " /><path fill="rgb(145,191,162)" stroke="rgb(145,191,162)" stroke-width="1" opacity="1" d="M 344.5 460 L 354 460.5 L 344.5 461 L 344.5 460 Z " /><path fill="rgb(145,191,162)" stroke="rgb(145,191,162)" stroke-width="1" opacity="1" d="M 129.5 461 L 132 461.5 L 129.5 462 L 129.5 461 Z " /><path fill="rgb(145,191,162)" stroke="rgb(145,191,162)" stroke-width="1" opacity="1" d="M 155.5 461 L 158 461.5 L 155.5 462 L 155.5 461 Z " /><path fill="rgb(145,191,162)" stroke="rgb(145,191,162)" stroke-width="1" opacity="1" d="M 329.5 461 L 332 461.5 L 329.5 462 L 329.5 461 Z " /><path fill="rgb(145,191,162)" stroke="rgb(145,191,162)" stroke-width="1" opacity="1" d="M 46.5 462 L 50.5 467 L 46.5 462 Z " /><path fill="rgb(145,191,162)" stroke="rgb(145,191,162)" stroke-width="1" opacity="1" d="M 134.5 462 L 140 462.5 L 134.5 463 L 134.5 462 Z " /><path fill="rgb(145,191,162)" stroke="rgb(145,191,162)" stroke-width="1" opacity="1" d="M 147.5 462 L 152 462.5 L 147.5 463 L 147.5 462 Z " /><path fill="rgb(145,191,162)" stroke="rgb(145,191,162)" stroke-width="1" opacity="1" d="M 170.5 464 L 171.5 466 L 170.5 464 Z " /><path fill="rgb(145,191,162)" stroke="rgb(145,191,162)" stroke-width="1" opacity="1" d="M 177.5 467 L 178.5 469 L 177.5 467 Z " /><path fill="rgb(145,191,162)" stroke="rgb(145,191,162)" stroke-width="1" opacity="1" d="M 52.5 468 L 58.5 475 L 52.5 468 Z " /><path fill="rgb(145,191,162)" stroke="rgb(145,191,162)" stroke-width="1" opacity="1" d="M 175.5 471 L 177.5 474 L 175.5 471 Z " /><path fill="rgb(145,191,162)" stroke="rgb(145,191,162)" stroke-width="1" opacity="1" d="M 181.5 472 L 183.5 475 L 181.5 472 Z " /><path fill="rgb(145,191,162)" stroke="rgb(145,191,162)" stroke-width="1" opacity="1" d="M 61.5 476 L 62.5 478 L 61.5 476 Z " /><path fill="rgb(145,191,162)" stroke="rgb(145,191,162)" stroke-width="1" opacity="1" d="M 180.5 477 L 188.5 486 L 180.5 477 Z " /><path fill="rgb(145,191,162)" stroke="rgb(145,191,162)" stroke-width="1" opacity="1" d="M 194.5 485 L 196.5 488 L 194.5 485 Z " /><path fill="rgb(145,191,162)" stroke="rgb(145,191,162)" stroke-width="1" opacity="1" d="M 397.5 487 L 398 489.5 L 397 489.5 L 397.5 487 Z " /><path fill="rgb(145,191,162)" stroke="rgb(145,191,162)" stroke-width="1" opacity="1" d="M 200.5 490 L 201.5 492 L 200.5 490 Z " /><path fill="rgb(145,191,162)" stroke="rgb(145,191,162)" stroke-width="1" opacity="1" d="M 161.5 494 L 164 494.5 L 161.5 495 L 161.5 494 Z " /><path fill="rgb(145,191,162)" stroke="rgb(145,191,162)" stroke-width="1" opacity="1" d="M 156.5 495 L 159 495.5 L 156.5 496 L 156.5 495 Z " /><path fill="rgb(145,191,162)" stroke="rgb(145,191,162)" stroke-width="1" opacity="1" d="M 107.5 496 L 110 496.5 L 107.5 497 L 107.5 496 Z " /><path fill="rgb(145,191,162)" stroke="rgb(145,191,162)" stroke-width="1" opacity="1" d="M 150.5 496 L 154 496.5 L 150.5 497 L 150.5 496 Z " /><path fill="rgb(145,191,162)" stroke="rgb(145,191,162)" stroke-width="1" opacity="1" d="M 113.5 497 L 118 497.5 L 113.5 498 L 113.5 497 Z " /><path fill="rgb(145,191,162)" stroke="rgb(145,191,162)" stroke-width="1" opacity="1" d="M 142.5 497 L 147 497.5 L 142.5 498 L 142.5 497 Z " /><path fill="rgb(145,191,162)" stroke="rgb(145,191,162)" stroke-width="1" opacity="1" d="M 217.5 497 L 392 497.5 L 217.5 498 L 217.5 497 Z " /><path fill="rgb(145,191,162)" stroke="rgb(145,191,162)" stroke-width="1" opacity="1" d="M 127.5 498 L 133 498.5 L 127.5 499 L 127.5 498 Z " /><path fill="rgb(89,91,93)" stroke="rgb(89,91,93)" stroke-width="1" opacity="0.9333333333333333" d="M 261.5 10 L 266.5 10 L 292.5 33 L 295.5 33 L 302.5 30 L 323.5 25 Q 329.8 26.8 331.5 24 L 366.5 24 L 367.5 25 L 384.5 27 L 406.5 34 L 433.5 11 L 439.5 11 L 444 17.5 L 444 31.5 L 444 33.5 L 443 37.5 L 443 68.5 L 445 74.5 L 445 80.5 L 448 95.5 L 449 121.5 L 443 145.5 Q 436.6 162.1 424 172.5 L 428 183.5 L 438 227.5 L 441 254.5 L 442 255.5 L 442 268.5 L 455 287.5 L 460 297.5 L 463 308.5 L 463 319.5 L 457 331.5 L 447 341.5 Q 443.4 355.4 433.5 363 L 426.5 364 L 421 363 Q 407.8 396.2 382.5 418 L 370 425 L 368 430.5 L 359 442.5 L 377.5 444 Q 384.9 446.6 389 452.5 L 392.5 458 L 398 461.5 L 402 471.5 L 403 485.5 L 399 499 L 393.5 502 L 214.5 502 L 201.5 497 L 191.5 490 Q 177.8 496.8 160.5 500 L 155.5 500 L 148.5 502 L 139.5 502 L 138.5 503 L 120.5 503 L 119.5 502 L 111.5 502 L 100.5 500 L 79.5 493 Q 56.7 482.8 42 464.5 Q 31 452 26 433.5 L 24 422.5 L 24 403.5 L 27 389.5 L 34 374.5 L 46.5 360 Q 53.1 354.1 65.5 354 Q 73.6 355.4 77 361.5 L 80 369.5 L 80 399.5 L 83 412.5 Q 89.3 430.2 101.5 442 Q 112 452.5 128.5 457 Q 133.3 455.8 134.5 458 L 152.5 458 L 164 455 L 157 439.5 L 153 425.5 L 150 409.5 L 149 387 Q 143.8 389.2 133.5 388 L 132.5 387 L 121.5 386 L 113.5 383 L 101 375 L 94 365.5 L 90 355.5 L 89 350.5 L 89 334.5 L 94 314.5 L 101 299.5 Q 115.8 274.8 134 253.5 L 127 240.5 L 125 227.5 L 128 220.5 L 139.5 209 Q 163.7 186.2 196.5 172 L 219.5 165 L 231.5 164 L 232.5 163 L 243.5 163 L 255.5 166 L 263.5 170 L 272.5 178 L 273 170.5 Q 250.2 149.8 250 106.5 L 251 105.5 L 251 98.5 L 255 76.5 L 259 64.5 L 259 54.5 L 258 53.5 L 258 36.5 L 257 35.5 L 257 13.5 L 261.5 10 Z M 263 14 L 261 16 L 261 32 L 262 33 L 262 49 L 263 50 L 263 67 L 261 71 L 256 94 L 255 113 L 254 114 L 255 115 L 256 131 L 259 141 Q 264 154 273 165 L 286 177 L 285 179 L 278 174 L 276 183 L 279 193 L 285 192 L 294 192 L 295 191 L 316 192 L 333 197 Q 346 204 357 214 Q 367 224 374 238 L 379 252 L 381 263 L 381 273 L 414 290 L 426 298 L 436 309 L 437 306 L 438 288 L 439 287 L 438 259 L 437 258 L 435 236 L 429 206 L 421 175 L 413 181 L 411 179 L 417 174 L 433 156 L 442 136 L 444 127 L 444 119 L 445 118 L 443 91 L 439 71 L 439 17 L 438 15 L 436 15 L 431 19 L 408 39 L 383 31 L 372 29 L 364 29 L 363 28 L 336 28 L 335 29 L 327 29 L 308 33 L 295 38 L 292 38 L 270 18 L 265 14 L 263 14 Z M 231 168 L 219 173 L 202 188 Q 158 230 121 278 L 102 308 L 96 324 L 93 340 L 94 353 L 101 368 L 114 378 L 130 383 L 150 383 L 162 377 L 169 365 Q 176 337 188 314 Q 200 295 215 281 L 220 277 L 262 234 Q 273 222 277 205 Q 277 189 269 181 Q 262 172 251 169 Q 243 166 231 168 Z M 209 173 Q 171 186 145 211 L 130 227 L 131 238 L 138 250 L 174 210 L 211 174 L 209 173 Z M 290 195 L 280 197 L 281 204 L 285 203 L 300 203 L 317 206 L 337 216 Q 356 231 360 261 L 376 269 L 377 270 L 377 260 L 375 251 Q 371 236 363 227 Q 351 211 333 201 L 322 197 L 311 195 L 290 195 Z M 280 207 L 277 218 L 266 235 L 208 294 Q 196 306 188 322 L 192 323 L 213 324 L 214 325 L 229 325 L 230 326 L 276 326 L 277 325 L 293 324 L 315 319 L 332 311 L 333 308 L 303 297 Q 300 298 301 294 L 308 295 L 378 321 L 392 325 L 400 330 L 399 332 L 399 335 L 403 342 L 419 356 L 428 360 L 431 360 Q 440 352 444 339 L 444 333 L 442 326 L 430 308 L 419 297 L 333 250 L 335 247 L 356 258 Q 353 239 343 228 Q 333 216 318 210 L 304 207 L 280 207 Z M 443 278 L 442 295 L 439 309 L 439 314 L 447 330 Q 445 335 449 334 L 456 326 L 459 318 L 459 311 L 456 300 Q 451 287 443 278 Z M 338 311 Q 326 320 311 324 L 291 328 L 268 329 L 267 330 L 220 329 L 219 328 L 207 328 L 206 327 L 186 326 L 174 362 L 181 362 L 182 363 L 196 363 L 197 364 L 243 363 L 244 362 L 265 360 L 283 356 Q 324 345 353 320 L 355 316 L 342 311 L 338 311 Z M 360 318 L 340 335 L 344 337 Q 356 349 366 364 Q 373 375 376 391 L 376 407 L 373 418 L 373 419 L 382 413 Q 405 391 418 359 L 413 356 L 400 344 Q 395 338 395 330 L 360 318 Z M 337 336 L 314 349 L 282 360 L 249 366 L 217 367 L 216 368 L 211 367 L 187 367 L 186 366 Q 177 368 174 365 L 167 377 Q 162 383 153 387 L 154 407 L 159 432 Q 166 456 181 473 L 202 492 Q 208 496 218 498 L 392 498 L 394 497 L 397 494 L 398 490 Q 400 475 396 467 L 391 461 L 384 459 L 364 459 L 363 460 L 345 460 L 344 461 L 329 461 L 328 458 L 338 457 L 344 452 Q 355 442 364 429 L 371 413 L 373 402 L 372 389 L 368 376 Q 361 359 349 348 L 337 336 Z M 58 359 L 48 365 Q 39 373 34 384 L 31 392 L 28 407 L 28 420 L 31 436 Q 36 451 46 463 Q 61 480 84 490 L 103 496 L 114 498 L 127 498 L 128 499 L 154 497 L 179 491 L 189 487 L 189 486 L 174 470 L 167 458 L 160 461 L 148 462 L 147 463 L 133 462 L 121 459 Q 109 455 101 447 Q 89 437 82 422 L 77 407 L 76 393 L 76 391 Q 78 373 73 364 Q 70 357 58 359 Z M 353 448 L 346 455 Q 343 454 344 457 L 367 456 L 368 455 L 381 455 L 382 456 L 386 456 L 377 448 L 353 448 Z " /><path fill="rgb(89,91,93)" stroke="rgb(89,91,93)" stroke-width="1" opacity="0.9333333333333333" d="M 314.5 78 L 320 81.5 Q 320.6 86.9 319 89 L 313.5 90 Q 309.3 88.7 310 82.5 L 312.5 79 L 314.5 78 Z " /><path fill="rgb(89,91,93)" stroke="rgb(89,91,93)" stroke-width="1" opacity="0.9333333333333333" d="M 389.5 79 Q 395 78 396 81.5 Q 397.5 88.5 393.5 90 Q 388 91 387 87.5 Q 385.5 80.5 389.5 79 Z " /><path fill="rgb(89,91,93)" stroke="rgb(89,91,93)" stroke-width="1" opacity="0.9333333333333333" d="M 348.5 104 Q 357.5 102.5 360 107.5 Q 360.7 118.7 354 122.5 L 354 132.5 L 355 135 Q 358.5 138 366 137 L 366 140 L 357.5 140 L 351.5 137 L 347.5 140 L 338 140 L 338 137 L 345.5 137 L 349 134.5 Q 351.7 130.7 350 122.5 Q 344.4 118.6 344 109.5 L 346.5 105 L 348.5 104 Z " /><path fill="rgb(89,91,93)" stroke="rgb(89,91,93)" stroke-width="1" opacity="0.9333333333333333" d="M 289 118 L 296.5 119 L 325 129.5 L 323.5 132 L 289 121 L 289 118 Z " /><path fill="rgb(89,91,93)" stroke="rgb(89,91,93)" stroke-width="1" opacity="0.9333333333333333" d="M 423.5 124 L 427 125.5 L 425.5 128 L 387.5 132 L 386.5 133 L 385 129 L 414.5 126 L 415.5 125 L 422.5 125 L 423.5 124 Z " /><path fill="rgb(89,91,93)" stroke="rgb(89,91,93)" stroke-width="1" opacity="0.9333333333333333" d="M 386.5 139 L 419 150 Q 420.8 154.9 414.5 153 L 411.5 151 L 388.5 144 L 385 141.5 L 386.5 139 Z " /><path fill="rgb(89,91,93)" stroke="rgb(89,91,93)" stroke-width="1" opacity="0.9333333333333333" d="M 308.5 140 L 323.5 140 L 324 143 L 319.5 144 L 296.5 144 Q 294.8 146.8 288.5 145 L 287 142.5 L 288.5 141 L 307.5 141 L 308.5 140 Z " /><path fill="rgb(89,91,93)" stroke="rgb(89,91,93)" stroke-width="1" opacity="0.9333333333333333" d="M 133.5 280 L 135.5 280 Q 143.2 289.8 154.5 296 L 165.5 301 L 177.5 303 L 179 304.5 L 176 317.5 L 167 341.5 Q 161.6 354.6 152.5 364 Q 146.3 370.8 131.5 369 Q 116.4 365.6 109 354.5 Q 103.1 346.9 105 331.5 L 113 309.5 Q 121.4 292.9 133.5 280 Z M 135 285 Q 116 305 108 336 Q 108 347 113 354 Q 120 362 132 365 Q 142 367 148 363 L 157 353 L 165 337 L 172 318 L 174 308 L 154 300 L 135 285 Z " /><path fill="rgb(234,234,234)" stroke="rgb(234,234,234)" stroke-width="1" opacity="1" d="M 263.5 15 L 291.5 39 L 294.5 39 L 310.5 33 L 332.5 29 L 365.5 29 L 391.5 34 L 407.5 40 L 435.5 16 L 438 16 L 439 18.5 L 439 36.5 L 438 37.5 L 438 69.5 L 440 75.5 L 442 95.5 L 443 96.5 L 444 120.5 L 443 121.5 L 442 132.5 L 433 153.5 Q 426.8 164.3 417.5 172 L 410 177.5 L 411.5 181 L 414.5 181 L 419.5 177 L 424 188.5 L 434 234.5 L 436 255.5 L 437 256.5 L 437 267.5 L 438 268.5 L 438 291.5 L 437 292.5 L 436 306 L 420.5 293 L 382 271.5 L 381 256.5 L 374 235.5 Q 366.6 221.9 355.5 212 L 338.5 199 L 323.5 193 L 313.5 191 L 285.5 191 L 280.5 192 L 277 185.5 L 277 181.5 L 278.5 176 Q 280.6 179.9 286 179 L 287 176.5 L 275 165.5 Q 265.4 155.1 260 140.5 L 256 126.5 L 255 107.5 L 256 106.5 L 256 99.5 L 260 77.5 L 264 65.5 L 264 54.5 L 263 53.5 L 262 18.5 L 261 17.5 L 263.5 15 Z M 313 78 Q 308 80 310 88 L 315 91 L 319 90 L 321 87 L 320 81 Q 319 77 313 78 Z M 390 78 L 386 82 Q 385 88 387 90 L 390 91 L 396 90 Q 398 88 397 82 Q 396 77 390 78 Z M 350 103 L 344 107 Q 343 119 350 124 L 349 133 L 346 136 Q 339 134 337 138 L 339 141 Q 348 143 352 138 L 358 141 L 366 141 L 367 138 Q 365 134 359 136 L 355 133 L 355 123 L 357 122 L 361 113 L 360 107 Q 357 102 350 103 Z M 290 117 L 288 121 L 317 131 L 325 132 L 326 130 L 324 127 L 290 117 Z M 425 123 L 424 124 L 402 126 L 401 127 L 386 128 Q 383 129 384 133 L 393 133 L 394 132 L 401 132 L 402 131 L 409 131 L 410 130 L 417 130 L 427 128 L 428 124 L 425 123 Z M 315 139 L 314 140 L 291 140 L 286 143 L 288 145 L 324 144 L 325 141 L 324 139 L 315 139 Z M 384 139 L 384 143 L 416 154 L 419 154 L 420 151 L 390 139 L 384 139 Z " /><path fill="rgb(234,234,234)" stroke="rgb(234,234,234)" stroke-width="1" opacity="1" d="M 280 208 L 304.5 208 L 314.5 210 Q 331.1 214.9 341 226.5 Q 351.9 237.6 355 256.5 L 353.5 256 L 334.5 246 L 332 249.5 L 339.5 255 L 418.5 298 L 433 312.5 L 441 325.5 Q 444 330.5 443 339.5 Q 439 351.5 430.5 359 L 426.5 359 L 418.5 355 L 404 341.5 L 400 334.5 L 400 331.5 L 401 329.5 L 396.5 326 L 301.5 293 L 300 296.5 L 303.5 299 L 322.5 305 L 332 309.5 L 317.5 317 L 294.5 323 L 278.5 324 L 277.5 325 L 224.5 325 L 223.5 324 L 210.5 324 L 209.5 323 L 198.5 323 L 197.5 322 L 189 321.5 L 204 299.5 L 243.5 259 Q 245.8 259.8 245 257.5 L 270 230.5 L 279 214.5 L 280 208 Z " /><path fill="rgb(234,234,234)" stroke="rgb(234,234,234)" stroke-width="1" opacity="1" d="M 443.5 281 Q 450.8 288.8 455 299.5 L 458 309.5 L 458 317.5 Q 456 327.5 448.5 332 L 446 323.5 L 439 312.5 L 442 301.5 L 443.5 281 Z " /><path fill="rgb(234,234,234)" stroke="rgb(234,234,234)" stroke-width="1" opacity="1" d="M 359.5 319 L 395 331 Q 394 337.3 397 340.5 L 406.5 352 L 417 360.5 Q 404.2 390.2 382.5 411 L 374.5 417 L 374 415.5 L 377 404.5 L 377 392.5 L 374 378.5 L 367 363.5 Q 356.8 347.2 342.5 335 L 341 334.5 L 359.5 319 Z " /><path fill="rgb(234,234,234)" stroke="rgb(234,234,234)" stroke-width="1" opacity="1" d="M 336.5 337 Q 352.3 349.7 363 367.5 Q 372.3 380.7 372 403.5 L 369 416.5 L 363 428.5 Q 355.2 440.7 344.5 450 L 335.5 457 Q 328.7 455.3 327 458.5 L 328.5 462 L 359.5 461 L 360.5 460 L 376.5 459 L 377.5 460 L 388.5 461 L 395 466.5 L 398 480 L 392.5 479 L 375.5 479 L 374.5 480 L 235.5 480 L 226.5 478 L 217.5 473 L 198 454.5 Q 185.5 440 178 420.5 L 173 403.5 L 171 384.5 L 170 383.5 L 170 372.5 L 173.5 366 L 189.5 367 L 190.5 368 L 234.5 368 L 235.5 367 L 246.5 367 L 247.5 366 L 261.5 365 L 288.5 359 Q 315.8 351.3 336.5 337 Z " /><path fill="rgb(234,234,234)" stroke="rgb(234,234,234)" stroke-width="1" opacity="1" d="M 61.5 359 Q 69 359 72 363.5 L 75 370.5 L 75 391 Q 56.5 394.8 45.5 407 L 45 393.5 L 49 377.5 L 59.5 360 L 61.5 359 Z " /><path fill="rgb(234,234,234)" stroke="rgb(234,234,234)" stroke-width="1" opacity="1" d="M 75.5 411 Q 79.3 409.8 78 413.5 Q 82.4 427.6 91 437.5 L 87 442.5 L 81 455.5 L 79 468 L 67 458.5 Q 55.8 447.7 50 431.5 L 62.5 418 L 75.5 411 Z " /><path fill="rgb(234,234,234)" stroke="rgb(234,234,234)" stroke-width="1" opacity="1" d="M 105.5 452 Q 116.1 460.2 132 462 L 134 478.5 L 138 490 L 120.5 488 L 106.5 484 L 98 479.5 Q 96.9 460.9 105.5 452 Z " /><path fill="rgb(234,234,234)" stroke="rgb(234,234,234)" stroke-width="1" opacity="1" d="M 166.5 459 Q 174.4 473.6 186 484.5 L 180.5 487 L 162.5 489 L 161.5 490 Q 153 479.8 152 463 L 166.5 459 Z " /></svg>