<svg width="512" height="512" version="1.1" xmlns="http://www.w3.org/2000/svg" desc="Created with imagetracer.js version 1.2.6" ><path fill="rgb(0,0,0)" stroke="rgb(0,0,0)" stroke-width="1" opacity="0" d="M 0 0 L 512 0 L 512 512 L 0 512 L 0 0 Z M 89 10 L 84 16 L 84 73 L 83 74 L 80 98 L 79 99 L 79 107 L 78 108 L 78 129 L 83 149 L 92 166 L 103 179 L 107 182 L 89 217 L 85 228 L 80 229 L 74 233 Q 64 240 64 258 L 63 261 L 64 268 L 69 275 L 62 309 L 61 324 L 60 325 L 60 335 L 59 336 L 59 376 L 60 377 L 60 387 L 64 409 L 71 431 L 77 443 Q 83 454 92 462 Q 91 464 94 463 L 95 466 L 101 469 L 99 478 Q 97 488 100 495 L 104 498 L 115 502 L 139 502 L 152 497 L 156 489 L 156 477 L 157 476 L 226 476 L 225 481 Q 227 484 226 491 L 228 495 L 236 500 L 244 502 L 266 502 L 275 500 L 280 497 L 282 494 Q 281 489 283 488 Q 283 476 280 469 L 284 467 L 307 472 L 325 473 L 326 474 L 355 473 L 379 468 Q 403 460 421 445 Q 434 433 443 418 L 451 398 L 453 387 L 453 367 L 451 356 Q 446 339 437 328 Q 428 314 411 310 L 403 310 L 394 314 L 389 325 L 389 335 L 393 358 L 392 372 L 388 387 Q 383 399 375 409 Q 367 418 355 424 L 339 429 L 330 429 L 329 430 Q 325 427 317 429 L 311 427 L 316 414 L 320 396 L 321 381 L 322 380 L 322 364 L 323 361 L 322 356 L 321 321 L 320 320 L 317 295 L 312 276 L 318 267 Q 319 248 312 238 Q 307 230 298 228 L 282 196 L 274 183 Q 273 180 276 181 Q 297 163 303 130 L 303 105 L 302 104 L 302 97 L 301 96 L 299 78 L 297 72 L 297 16 L 295 11 L 293 10 L 286 10 L 256 34 L 231 27 L 220 26 L 219 25 L 211 25 L 210 24 L 172 24 L 171 25 L 163 25 L 139 30 L 129 34 L 126 34 L 98 11 L 89 10 Z " /><path fill="rgb(221,221,219)" stroke="rgb(221,221,219)" stroke-width="1" opacity="1" d="M 286.5 15 L 285.5 17 L 286.5 15 Z " /><path fill="rgb(221,221,219)" stroke="rgb(221,221,219)" stroke-width="1" opacity="1" d="M 98.5 18 L 99.5 20 L 98.5 18 Z " /><path fill="rgb(221,221,219)" stroke="rgb(221,221,219)" stroke-width="1" opacity="1" d="M 281.5 19 L 280.5 21 L 281.5 19 Z " /><path fill="rgb(221,221,219)" stroke="rgb(221,221,219)" stroke-width="1" opacity="1" d="M 103.5 22 L 104.5 24 L 103.5 22 Z " /><path fill="rgb(221,221,219)" stroke="rgb(221,221,219)" stroke-width="1" opacity="1" d="M 276.5 23 L 275.5 25 L 276.5 23 Z " /><path fill="rgb(221,221,219)" stroke="rgb(221,221,219)" stroke-width="1" opacity="1" d="M 108.5 26 L 109.5 28 L 108.5 26 Z " /><path fill="rgb(221,221,219)" stroke="rgb(221,221,219)" stroke-width="1" opacity="1" d="M 271.5 27 L 270.5 29 L 271.5 27 Z " /><path fill="rgb(221,221,219)" stroke="rgb(221,221,219)" stroke-width="1" opacity="1" d="M 181.5 28 L 200 28.5 L 181.5 29 L 181.5 28 Z " /><path fill="rgb(221,221,219)" stroke="rgb(221,221,219)" stroke-width="1" opacity="1" d="M 167.5 29 L 170 29.5 L 167.5 30 L 167.5 29 Z " /><path fill="rgb(221,221,219)" stroke="rgb(221,221,219)" stroke-width="1" opacity="1" d="M 211.5 29 L 214 29.5 L 211.5 30 L 211.5 29 Z " /><path fill="rgb(221,221,219)" stroke="rgb(221,221,219)" stroke-width="1" opacity="1" d="M 113.5 30 L 114.5 32 L 113.5 30 Z " /><path fill="rgb(221,221,219)" stroke="rgb(221,221,219)" stroke-width="1" opacity="1" d="M 266.5 31 L 265.5 33 L 266.5 31 Z " /><path fill="rgb(221,221,219)" stroke="rgb(221,221,219)" stroke-width="1" opacity="1" d="M 118.5 34 L 119.5 36 L 118.5 34 Z " /><path fill="rgb(221,221,219)" stroke="rgb(221,221,219)" stroke-width="1" opacity="1" d="M 261.5 35 L 260.5 37 L 261.5 35 Z " /><path fill="rgb(221,221,219)" stroke="rgb(221,221,219)" stroke-width="1" opacity="1" d="M 141.5 81 L 144 81.5 L 141.5 82 L 141.5 81 Z " /><path fill="rgb(221,221,219)" stroke="rgb(221,221,219)" stroke-width="1" opacity="1" d="M 237.5 81 L 240 81.5 L 237.5 82 L 237.5 81 Z " /><path fill="rgb(221,221,219)" stroke="rgb(221,221,219)" stroke-width="1" opacity="1" d="M 146.5 82 L 148.5 85 L 146.5 82 Z " /><path fill="rgb(221,221,219)" stroke="rgb(221,221,219)" stroke-width="1" opacity="1" d="M 242.5 82 L 243.5 84 L 242.5 82 Z " /><path fill="rgb(221,221,219)" stroke="rgb(221,221,219)" stroke-width="1" opacity="1" d="M 148.5 91 L 146.5 94 L 148.5 91 Z " /><path fill="rgb(221,221,219)" stroke="rgb(221,221,219)" stroke-width="1" opacity="1" d="M 244.5 91 L 242.5 94 L 244.5 91 Z " /><path fill="rgb(221,221,219)" stroke="rgb(221,221,219)" stroke-width="1" opacity="1" d="M 233.5 92 L 234.5 94 L 233.5 92 Z " /><path fill="rgb(221,221,219)" stroke="rgb(221,221,219)" stroke-width="1" opacity="1" d="M 297.5 101 L 298 103.5 L 297 103.5 L 297.5 101 Z " /><path fill="rgb(221,221,219)" stroke="rgb(221,221,219)" stroke-width="1" opacity="1" d="M 83.5 104 L 84 106.5 L 83 106.5 L 83.5 104 Z " /><path fill="rgb(221,221,219)" stroke="rgb(221,221,219)" stroke-width="1" opacity="1" d="M 187.5 108 L 194 108.5 L 187.5 109 L 187.5 108 Z " /><path fill="rgb(221,221,219)" stroke="rgb(221,221,219)" stroke-width="1" opacity="1" d="M 183.5 109 L 181.5 112 L 183.5 109 Z " /><path fill="rgb(221,221,219)" stroke="rgb(221,221,219)" stroke-width="1" opacity="1" d="M 298.5 111 L 299 114.5 L 298 114.5 L 298.5 111 Z " /><path fill="rgb(221,221,219)" stroke="rgb(221,221,219)" stroke-width="1" opacity="1" d="M 82.5 115 L 83 119.5 L 82 119.5 L 82.5 115 Z " /><path fill="rgb(221,221,219)" stroke="rgb(221,221,219)" stroke-width="1" opacity="1" d="M 298.5 122 L 299 124.5 L 298 124.5 L 298.5 122 Z " /><path fill="rgb(221,221,219)" stroke="rgb(221,221,219)" stroke-width="1" opacity="1" d="M 197.5 125 L 195.5 128 L 197.5 125 Z " /><path fill="rgb(221,221,219)" stroke="rgb(221,221,219)" stroke-width="1" opacity="1" d="M 122.5 131 L 123.5 133 L 122.5 131 Z " /><path fill="rgb(221,221,219)" stroke="rgb(221,221,219)" stroke-width="1" opacity="1" d="M 226.5 136 L 225.5 138 L 226.5 136 Z " /><path fill="rgb(221,221,219)" stroke="rgb(221,221,219)" stroke-width="1" opacity="1" d="M 187.5 139 L 185.5 142 L 187.5 139 Z " /><path fill="rgb(221,221,219)" stroke="rgb(221,221,219)" stroke-width="1" opacity="1" d="M 174.5 147 L 183 147.5 L 174.5 148 L 174.5 147 Z " /><path fill="rgb(221,221,219)" stroke="rgb(221,221,219)" stroke-width="1" opacity="1" d="M 198.5 147 L 207 147.5 L 198.5 148 L 198.5 147 Z " /><path fill="rgb(221,221,219)" stroke="rgb(221,221,219)" stroke-width="1" opacity="1" d="M 122.5 156 L 126 157.5 L 123.5 158 L 122.5 156 Z " /><path fill="rgb(221,221,219)" stroke="rgb(221,221,219)" stroke-width="1" opacity="1" d="M 255.5 157 L 258 157.5 L 255.5 158 L 255.5 157 Z " /><path fill="rgb(221,221,219)" stroke="rgb(221,221,219)" stroke-width="1" opacity="1" d="M 98.5 165 L 99.5 167 L 98.5 165 Z " /><path fill="rgb(221,221,219)" stroke="rgb(221,221,219)" stroke-width="1" opacity="1" d="M 280.5 168 L 279.5 170 L 280.5 168 Z " /><path fill="rgb(221,221,219)" stroke="rgb(221,221,219)" stroke-width="1" opacity="1" d="M 102.5 170 L 109.5 178 L 102.5 170 Z " /><path fill="rgb(221,221,219)" stroke="rgb(221,221,219)" stroke-width="1" opacity="1" d="M 271.5 177 L 269.5 180 L 271.5 177 Z " /><path fill="rgb(221,221,219)" stroke="rgb(221,221,219)" stroke-width="1" opacity="1" d="M 113.5 180 L 114.5 182 L 113.5 180 Z " /><path fill="rgb(221,221,219)" stroke="rgb(221,221,219)" stroke-width="1" opacity="1" d="M 266.5 181 L 265.5 183 L 266.5 181 Z " /><path fill="rgb(221,221,219)" stroke="rgb(221,221,219)" stroke-width="1" opacity="1" d="M 112.5 185 L 113.5 187 L 112.5 185 Z " /><path fill="rgb(221,221,219)" stroke="rgb(221,221,219)" stroke-width="1" opacity="1" d="M 115.5 187 L 116.5 189 L 115.5 187 Z " /><path fill="rgb(221,221,219)" stroke="rgb(221,221,219)" stroke-width="1" opacity="1" d="M 182.5 203 L 187 203.5 L 182.5 204 L 182.5 203 Z " /><path fill="rgb(221,221,219)" stroke="rgb(221,221,219)" stroke-width="1" opacity="1" d="M 193.5 203 L 199 203.5 L 193.5 204 L 193.5 203 Z " /><path fill="rgb(221,221,219)" stroke="rgb(221,221,219)" stroke-width="1" opacity="1" d="M 127.5 222 L 126.5 224 L 127.5 222 Z " /><path fill="rgb(221,221,219)" stroke="rgb(221,221,219)" stroke-width="1" opacity="1" d="M 124.5 224 L 123.5 226 L 124.5 224 Z " /><path fill="rgb(221,221,219)" stroke="rgb(221,221,219)" stroke-width="1" opacity="1" d="M 256.5 224 L 257.5 226 L 256.5 224 Z " /><path fill="rgb(221,221,219)" stroke="rgb(221,221,219)" stroke-width="1" opacity="1" d="M 119.5 228 L 118.5 230 L 119.5 228 Z " /><path fill="rgb(221,221,219)" stroke="rgb(221,221,219)" stroke-width="1" opacity="1" d="M 265.5 231 L 271.5 238 L 265.5 231 Z " /><path fill="rgb(221,221,219)" stroke="rgb(221,221,219)" stroke-width="1" opacity="1" d="M 104.5 233 L 105.5 235 L 104.5 233 Z " /><path fill="rgb(221,221,219)" stroke="rgb(221,221,219)" stroke-width="1" opacity="1" d="M 78.5 235 L 77.5 237 L 78.5 235 Z " /><path fill="rgb(221,221,219)" stroke="rgb(221,221,219)" stroke-width="1" opacity="1" d="M 108.5 236 L 109.5 238 L 108.5 236 Z " /><path fill="rgb(221,221,219)" stroke="rgb(221,221,219)" stroke-width="1" opacity="1" d="M 276.5 239 L 274.5 242 L 276.5 239 Z " /><path fill="rgb(221,221,219)" stroke="rgb(221,221,219)" stroke-width="1" opacity="1" d="M 108.5 244 L 109 248.5 L 108 248.5 L 108.5 244 Z " /><path fill="rgb(221,221,219)" stroke="rgb(221,221,219)" stroke-width="1" opacity="1" d="M 68.5 254 L 69 256.5 L 68 256.5 L 68.5 254 Z " /><path fill="rgb(221,221,219)" stroke="rgb(221,221,219)" stroke-width="1" opacity="1" d="M 281.5 268 L 282.5 270 L 281.5 268 Z " /><path fill="rgb(221,221,219)" stroke="rgb(221,221,219)" stroke-width="1" opacity="1" d="M 98.5 270 L 97.5 272 L 98.5 270 Z " /><path fill="rgb(221,221,219)" stroke="rgb(221,221,219)" stroke-width="1" opacity="1" d="M 283.5 271 L 285.5 274 L 283.5 271 Z " /><path fill="rgb(221,221,219)" stroke="rgb(221,221,219)" stroke-width="1" opacity="1" d="M 308.5 271 L 306.5 274 L 308.5 271 Z " /><path fill="rgb(221,221,219)" stroke="rgb(221,221,219)" stroke-width="1" opacity="1" d="M 77.5 275 L 78.5 277 L 77.5 275 Z " /><path fill="rgb(221,221,219)" stroke="rgb(221,221,219)" stroke-width="1" opacity="1" d="M 307.5 278 L 306.5 280 L 307.5 278 Z " /><path fill="rgb(221,221,219)" stroke="rgb(221,221,219)" stroke-width="1" opacity="1" d="M 310.5 288 L 311 290.5 L 310 290.5 L 310.5 288 Z " /><path fill="rgb(221,221,219)" stroke="rgb(221,221,219)" stroke-width="1" opacity="1" d="M 70.5 290 L 71 293.5 L 70 293.5 L 70.5 290 Z " /><path fill="rgb(221,221,219)" stroke="rgb(221,221,219)" stroke-width="1" opacity="1" d="M 311.5 293 L 315 310.5 L 316 325.5 L 317 326.5 L 317 337.5 L 318 338.5 L 318 372.5 L 317 373.5 L 317 383.5 L 316 384.5 L 314 401.5 L 306 427.5 Q 297.3 449.8 280.5 464 L 277.5 466 Q 274 461.5 275 452.5 L 273.5 451 L 271 451.5 L 271 462.5 L 277 475.5 L 278 489.5 L 275.5 494 L 267.5 497 L 249.5 498 L 235.5 495 L 231 490.5 L 230 476.5 L 231 475.5 L 231 466.5 L 233 455 L 230.5 454 L 228 457.5 L 227 469.5 L 225.5 471 L 155.5 471 L 155 469.5 L 154 468.5 Q 154.9 458.6 153 453 L 149 454.5 L 149 464.5 L 151 472.5 L 151 489.5 L 147.5 494 L 139.5 497 L 121.5 498 L 107.5 495 L 104 491.5 L 103 482.5 L 106 470.5 L 110 463.5 L 111 452.5 L 107.5 451 L 106 452.5 L 106 461.5 L 103.5 466 L 93 456.5 L 80 437.5 L 69 408.5 L 64 380.5 L 63 343.5 L 64 342.5 L 65 320.5 L 69.5 295 L 70 302.5 L 69 303.5 L 69 315.5 L 68 316.5 L 68 352.5 L 69 353.5 L 69 363.5 L 70 364.5 L 72 382.5 L 79 406.5 L 89 426.5 L 105.5 445 L 111.5 449 L 122.5 452 L 259.5 452 Q 275 449 283 438.5 L 298 416.5 L 302 407.5 L 309 383.5 L 312 366.5 L 312 357.5 L 313 356.5 L 313 311.5 L 312 310.5 L 311.5 293 Z " /><path fill="rgb(221,221,219)" stroke="rgb(221,221,219)" stroke-width="1" opacity="1" d="M 300.5 300 L 301 302.5 L 300 302.5 L 300.5 300 Z " /><path fill="rgb(221,221,219)" stroke="rgb(221,221,219)" stroke-width="1" opacity="1" d="M 80.5 303 L 81 308.5 L 80 308.5 L 80.5 303 Z " /><path fill="rgb(221,221,219)" stroke="rgb(221,221,219)" stroke-width="1" opacity="1" d="M 80.5 312 L 81 317.5 L 80 317.5 L 80.5 312 Z " /><path fill="rgb(221,221,219)" stroke="rgb(221,221,219)" stroke-width="1" opacity="1" d="M 409.5 315 Q 425.8 319.1 434 331.5 L 444 349.5 L 448 364.5 Q 446.3 372.7 449 376.5 L 448 377.5 L 448 388.5 L 443 406.5 Q 433.4 427.9 416.5 442 Q 400.5 455.5 378.5 463 L 348.5 469 L 322.5 469 L 321.5 468 L 312.5 468 L 311.5 467 L 299.5 466 L 291 463.5 L 298.5 463 L 299.5 464 L 322.5 464 L 328 452.5 L 329 434 L 337.5 434 L 347.5 431 Q 350.8 436.2 349 446.5 L 346 461 Q 370.2 457.1 387 444.5 Q 385.6 425.4 374.5 416 L 372 417.5 Q 381.7 410.8 386 400 L 389 401.5 Q 400 412.5 404.5 430 Q 422.3 414.8 429 388.5 L 422.5 381 Q 412.8 371.9 397 370 L 396.5 372 L 396 370.5 L 397 369.5 L 397 350 L 406.5 351 L 415.5 354 L 431 362 L 429 349.5 L 424 335.5 L 409.5 315 Z " /><path fill="rgb(221,221,219)" stroke="rgb(221,221,219)" stroke-width="1" opacity="1" d="M 398.5 317 L 396.5 320 L 398.5 317 Z " /><path fill="rgb(221,221,219)" stroke="rgb(221,221,219)" stroke-width="1" opacity="1" d="M 300.5 319 L 301 321.5 L 300 321.5 L 300.5 319 Z " /><path fill="rgb(221,221,219)" stroke="rgb(221,221,219)" stroke-width="1" opacity="1" d="M 96.5 366 L 97.5 368 L 96.5 366 Z " /><path fill="rgb(221,221,219)" stroke="rgb(221,221,219)" stroke-width="1" opacity="1" d="M 283.5 368 L 282.5 370 L 283.5 368 Z " /><path fill="rgb(221,221,219)" stroke="rgb(221,221,219)" stroke-width="1" opacity="1" d="M 98.5 369 L 99.5 371 L 98.5 369 Z " /><path fill="rgb(221,221,219)" stroke="rgb(221,221,219)" stroke-width="1" opacity="1" d="M 281.5 371 L 280.5 373 L 281.5 371 Z " /><path fill="rgb(221,221,219)" stroke="rgb(221,221,219)" stroke-width="1" opacity="1" d="M 278.5 375 L 276.5 378 L 278.5 375 Z " /><path fill="rgb(221,221,219)" stroke="rgb(221,221,219)" stroke-width="1" opacity="1" d="M 104.5 377 L 106.5 380 L 104.5 377 Z " /><path fill="rgb(221,221,219)" stroke="rgb(221,221,219)" stroke-width="1" opacity="1" d="M 272.5 382 L 267.5 388 L 272.5 382 Z " /><path fill="rgb(221,221,219)" stroke="rgb(221,221,219)" stroke-width="1" opacity="1" d="M 117.5 390 L 118.5 392 L 117.5 390 Z " /><path fill="rgb(221,221,219)" stroke="rgb(221,221,219)" stroke-width="1" opacity="1" d="M 261.5 392 L 260.5 394 L 261.5 392 Z " /><path fill="rgb(221,221,219)" stroke="rgb(221,221,219)" stroke-width="1" opacity="1" d="M 122.5 394 L 123.5 396 L 122.5 394 Z " /><path fill="rgb(221,221,219)" stroke="rgb(221,221,219)" stroke-width="1" opacity="1" d="M 257.5 395 L 256.5 397 L 257.5 395 Z " /><path fill="rgb(221,221,219)" stroke="rgb(221,221,219)" stroke-width="1" opacity="1" d="M 184.5 417 L 198 417.5 L 184.5 418 L 184.5 417 Z " /><path fill="rgb(221,221,219)" stroke="rgb(221,221,219)" stroke-width="1" opacity="1" d="M 296.5 453 L 295.5 455 L 296.5 453 Z " /><path fill="rgb(221,221,219)" stroke="rgb(221,221,219)" stroke-width="1" opacity="1" d="M 292.5 458 L 290 461.5 Q 290.8 463.8 288.5 463 L 292.5 458 Z " /><path fill="rgb(233,233,233)" stroke="rgb(233,233,233)" stroke-width="1" opacity="1" d="M 138.5 82 L 137.5 84 L 138.5 82 Z " /><path fill="rgb(233,233,233)" stroke="rgb(233,233,233)" stroke-width="1" opacity="1" d="M 234.5 82 L 233.5 84 L 234.5 82 Z " /><path fill="rgb(233,233,233)" stroke="rgb(233,233,233)" stroke-width="1" opacity="1" d="M 298.5 117 L 299 121.5 L 298 121.5 L 298.5 117 Z " /><path fill="rgb(233,233,233)" stroke="rgb(233,233,233)" stroke-width="1" opacity="1" d="M 190.5 143 L 189.5 145 L 190.5 143 Z " /><path fill="rgb(233,233,233)" stroke="rgb(233,233,233)" stroke-width="1" opacity="1" d="M 278.5 170 L 272.5 177 L 278.5 170 Z " /><path fill="rgb(233,233,233)" stroke="rgb(233,233,233)" stroke-width="1" opacity="1" d="M 114.5 232 L 110.5 237 L 114.5 232 Z " /><path fill="rgb(233,233,233)" stroke="rgb(233,233,233)" stroke-width="1" opacity="1" d="M 76.5 237 L 74.5 240 L 76.5 237 Z " /><path fill="rgb(233,233,233)" stroke="rgb(233,233,233)" stroke-width="1" opacity="1" d="M 104.5 239 L 106.5 242 L 104.5 239 Z " /><path fill="rgb(233,233,233)" stroke="rgb(233,233,233)" stroke-width="1" opacity="1" d="M 71.5 269 L 72.5 271 L 71.5 269 Z " /><path fill="rgb(233,233,233)" stroke="rgb(233,233,233)" stroke-width="1" opacity="1" d="M 286.5 274 L 289.5 278 L 286.5 274 Z " /><path fill="rgb(233,233,233)" stroke="rgb(233,233,233)" stroke-width="1" opacity="1" d="M 309.5 285 L 310 287.5 L 309 287.5 L 309.5 285 Z " /><path fill="rgb(233,233,233)" stroke="rgb(233,233,233)" stroke-width="1" opacity="1" d="M 71.5 287 L 72 289.5 L 71 289.5 L 71.5 287 Z " /><path fill="rgb(233,233,233)" stroke="rgb(233,233,233)" stroke-width="1" opacity="1" d="M 310.5 291 L 311 296.5 L 310 296.5 L 310.5 291 Z " /><path fill="rgb(233,233,233)" stroke="rgb(233,233,233)" stroke-width="1" opacity="1" d="M 70.5 294 L 71 298.5 L 70 298.5 L 70.5 294 Z " /><path fill="rgb(233,233,233)" stroke="rgb(233,233,233)" stroke-width="1" opacity="1" d="M 311.5 299 L 312 305.5 L 311 305.5 L 311.5 299 Z " /><path fill="rgb(233,233,233)" stroke="rgb(233,233,233)" stroke-width="1" opacity="1" d="M 69.5 303 L 70 308.5 L 69 308.5 L 69.5 303 Z " /><path fill="rgb(233,233,233)" stroke="rgb(233,233,233)" stroke-width="1" opacity="1" d="M 312.5 311 L 313 320.5 L 312 320.5 L 312.5 311 Z " /><path fill="rgb(233,233,233)" stroke="rgb(233,233,233)" stroke-width="1" opacity="1" d="M 408.5 315 L 420 328.5 L 417 326.5 L 408.5 315 Z " /><path fill="rgb(233,233,233)" stroke="rgb(233,233,233)" stroke-width="1" opacity="1" d="M 68.5 316 L 69 352.5 L 68 352.5 L 68.5 316 Z " /><path fill="rgb(233,233,233)" stroke="rgb(233,233,233)" stroke-width="1" opacity="1" d="M 422.5 334 L 424 336.5 L 423 336.5 L 422.5 334 Z " /><path fill="rgb(233,233,233)" stroke="rgb(233,233,233)" stroke-width="1" opacity="1" d="M 312.5 348 L 313 356.5 L 312 356.5 L 312.5 348 Z " /><path fill="rgb(233,233,233)" stroke="rgb(233,233,233)" stroke-width="1" opacity="1" d="M 429.5 354 L 430 356.5 L 429 356.5 L 429.5 354 Z " /><path fill="rgb(233,233,233)" stroke="rgb(233,233,233)" stroke-width="1" opacity="1" d="M 69.5 358 L 70 363.5 L 69 363.5 L 69.5 358 Z " /><path fill="rgb(233,233,233)" stroke="rgb(233,233,233)" stroke-width="1" opacity="1" d="M 426.5 359 L 427.5 361 L 426.5 359 Z " /><path fill="rgb(233,233,233)" stroke="rgb(233,233,233)" stroke-width="1" opacity="1" d="M 430.5 360 L 431 362 L 429 361.5 L 430.5 360 Z " /><path fill="rgb(233,233,233)" stroke="rgb(233,233,233)" stroke-width="1" opacity="1" d="M 311.5 362 L 312 366.5 L 311 366.5 L 311.5 362 Z " /><path fill="rgb(233,233,233)" stroke="rgb(233,233,233)" stroke-width="1" opacity="1" d="M 70.5 367 L 71 370.5 L 70 370.5 L 70.5 367 Z " /><path fill="rgb(233,233,233)" stroke="rgb(233,233,233)" stroke-width="1" opacity="1" d="M 310.5 370 L 311 373.5 L 310 373.5 L 310.5 370 Z " /><path fill="rgb(233,233,233)" stroke="rgb(233,233,233)" stroke-width="1" opacity="1" d="M 71.5 374 L 72 376.5 L 71 376.5 L 71.5 374 Z " /><path fill="rgb(233,233,233)" stroke="rgb(233,233,233)" stroke-width="1" opacity="1" d="M 309.5 376 L 310 378.5 L 309 378.5 L 309.5 376 Z " /><path fill="rgb(233,233,233)" stroke="rgb(233,233,233)" stroke-width="1" opacity="1" d="M 415.5 376 L 416.5 378 L 415.5 376 Z " /><path fill="rgb(233,233,233)" stroke="rgb(233,233,233)" stroke-width="1" opacity="1" d="M 72.5 379 L 73 382.5 L 72 382.5 L 72.5 379 Z " /><path fill="rgb(233,233,233)" stroke="rgb(233,233,233)" stroke-width="1" opacity="1" d="M 274.5 380 L 273.5 382 L 274.5 380 Z " /><path fill="rgb(233,233,233)" stroke="rgb(233,233,233)" stroke-width="1" opacity="1" d="M 308.5 381 L 309 383.5 L 308 383.5 L 308.5 381 Z " /><path fill="rgb(233,233,233)" stroke="rgb(233,233,233)" stroke-width="1" opacity="1" d="M 422.5 381 L 427.5 387 L 422.5 381 Z " /><path fill="rgb(233,233,233)" stroke="rgb(233,233,233)" stroke-width="1" opacity="1" d="M 73.5 384 L 74 386.5 L 73 386.5 L 73.5 384 Z " /><path fill="rgb(233,233,233)" stroke="rgb(233,233,233)" stroke-width="1" opacity="1" d="M 110.5 384 L 112.5 387 L 110.5 384 Z " /><path fill="rgb(233,233,233)" stroke="rgb(233,233,233)" stroke-width="1" opacity="1" d="M 266.5 388 L 265.5 390 L 266.5 388 Z " /><path fill="rgb(233,233,233)" stroke="rgb(233,233,233)" stroke-width="1" opacity="1" d="M 75.5 392 L 76 394.5 L 75 394.5 L 75.5 392 Z " /><path fill="rgb(233,233,233)" stroke="rgb(233,233,233)" stroke-width="1" opacity="1" d="M 119.5 392 L 120.5 394 L 119.5 392 Z " /><path fill="rgb(233,233,233)" stroke="rgb(233,233,233)" stroke-width="1" opacity="1" d="M 389.5 402 L 392.5 406 L 389.5 402 Z " /><path fill="rgb(233,233,233)" stroke="rgb(233,233,233)" stroke-width="1" opacity="1" d="M 423.5 402 L 424 403.5 L 420.5 409 L 421 407.5 L 423.5 402 Z " /><path fill="rgb(233,233,233)" stroke="rgb(233,233,233)" stroke-width="1" opacity="1" d="M 79.5 405 L 81 408.5 L 80 408.5 L 79.5 405 Z " /><path fill="rgb(233,233,233)" stroke="rgb(233,233,233)" stroke-width="1" opacity="1" d="M 394.5 408 L 395.5 410 L 394.5 408 Z " /><path fill="rgb(233,233,233)" stroke="rgb(233,233,233)" stroke-width="1" opacity="1" d="M 418.5 412 L 417.5 414 L 418.5 412 Z " /><path fill="rgb(233,233,233)" stroke="rgb(233,233,233)" stroke-width="1" opacity="1" d="M 83.5 415 L 87 420.5 L 85 419.5 L 83.5 415 Z " /><path fill="rgb(233,233,233)" stroke="rgb(233,233,233)" stroke-width="1" opacity="1" d="M 297.5 415 L 298 416.5 L 296 417.5 L 297.5 415 Z " /><path fill="rgb(233,233,233)" stroke="rgb(233,233,233)" stroke-width="1" opacity="1" d="M 416.5 415 L 415.5 417 L 416.5 415 Z " /><path fill="rgb(233,233,233)" stroke="rgb(233,233,233)" stroke-width="1" opacity="1" d="M 371.5 418 L 370.5 420 L 371.5 418 Z " /><path fill="rgb(233,233,233)" stroke="rgb(233,233,233)" stroke-width="1" opacity="1" d="M 376.5 418 L 378.5 421 L 376.5 418 Z " /><path fill="rgb(233,233,233)" stroke="rgb(233,233,233)" stroke-width="1" opacity="1" d="M 414.5 418 L 412.5 421 L 414.5 418 Z " /><path fill="rgb(233,233,233)" stroke="rgb(233,233,233)" stroke-width="1" opacity="1" d="M 411.5 422 L 406.5 428 L 411.5 422 Z " /><path fill="rgb(233,233,233)" stroke="rgb(233,233,233)" stroke-width="1" opacity="1" d="M 293.5 423 L 292.5 425 L 293.5 423 Z " /><path fill="rgb(233,233,233)" stroke="rgb(233,233,233)" stroke-width="1" opacity="1" d="M 88.5 424 L 91 427.5 L 89 426.5 L 88.5 424 Z " /><path fill="rgb(233,233,233)" stroke="rgb(233,233,233)" stroke-width="1" opacity="1" d="M 291.5 426 L 290.5 428 L 291.5 426 Z " /><path fill="rgb(233,233,233)" stroke="rgb(233,233,233)" stroke-width="1" opacity="1" d="M 289.5 429 L 288.5 431 L 289.5 429 Z " /><path fill="rgb(233,233,233)" stroke="rgb(233,233,233)" stroke-width="1" opacity="1" d="M 92.5 430 L 93.5 432 L 92.5 430 Z " /><path fill="rgb(233,233,233)" stroke="rgb(233,233,233)" stroke-width="1" opacity="1" d="M 348.5 431 L 349 433.5 L 348 433.5 L 348.5 431 Z " /><path fill="rgb(233,233,233)" stroke="rgb(233,233,233)" stroke-width="1" opacity="1" d="M 287.5 432 L 283.5 437 L 287.5 432 Z " /><path fill="rgb(233,233,233)" stroke="rgb(233,233,233)" stroke-width="1" opacity="1" d="M 94.5 433 L 105.5 445 L 94.5 433 Z " /><path fill="rgb(233,233,233)" stroke="rgb(233,233,233)" stroke-width="1" opacity="1" d="M 328.5 434 L 329 436.5 L 328 436.5 L 328.5 434 Z " /><path fill="rgb(233,233,233)" stroke="rgb(233,233,233)" stroke-width="1" opacity="1" d="M 282.5 438 L 278.5 443 L 282.5 438 Z " /><path fill="rgb(233,233,233)" stroke="rgb(233,233,233)" stroke-width="1" opacity="1" d="M 275.5 444 L 274.5 446 L 275.5 444 Z " /><path fill="rgb(233,233,233)" stroke="rgb(233,233,233)" stroke-width="1" opacity="1" d="M 328.5 444 L 329 446.5 L 328 446.5 L 328.5 444 Z " /><path fill="rgb(233,233,233)" stroke="rgb(233,233,233)" stroke-width="1" opacity="1" d="M 386.5 444 L 385.5 446 L 383.5 447 L 384.5 445 L 386.5 444 Z " /><path fill="rgb(233,233,233)" stroke="rgb(233,233,233)" stroke-width="1" opacity="1" d="M 272.5 446 L 271.5 448 L 272.5 446 Z " /><path fill="rgb(233,233,233)" stroke="rgb(233,233,233)" stroke-width="1" opacity="1" d="M 110.5 447 L 113 448.5 L 111.5 449 L 110.5 447 Z " /><path fill="rgb(233,233,233)" stroke="rgb(233,233,233)" stroke-width="1" opacity="1" d="M 348.5 447 L 349 449.5 L 348 449.5 L 348.5 447 Z " /><path fill="rgb(233,233,233)" stroke="rgb(233,233,233)" stroke-width="1" opacity="1" d="M 268.5 448 L 270 448.5 L 266.5 450 L 266.5 449 L 268.5 448 Z " /><path fill="rgb(233,233,233)" stroke="rgb(233,233,233)" stroke-width="1" opacity="1" d="M 379.5 448 L 378.5 450 L 376.5 451 L 377.5 449 L 379.5 448 Z " /><path fill="rgb(233,233,233)" stroke="rgb(233,233,233)" stroke-width="1" opacity="1" d="M 262.5 450 L 265 450.5 L 262.5 451 L 262.5 450 Z " /><path fill="rgb(233,233,233)" stroke="rgb(233,233,233)" stroke-width="1" opacity="1" d="M 122.5 451 L 260 451.5 L 122.5 452 L 122.5 451 Z " /><path fill="rgb(233,233,233)" stroke="rgb(233,233,233)" stroke-width="1" opacity="1" d="M 373.5 451 L 375 451.5 L 371.5 453 L 371.5 452 L 373.5 451 Z " /><path fill="rgb(233,233,233)" stroke="rgb(233,233,233)" stroke-width="1" opacity="1" d="M 366.5 454 L 368 454.5 L 364.5 456 L 364.5 455 L 366.5 454 Z " /><path fill="rgb(233,233,233)" stroke="rgb(233,233,233)" stroke-width="1" opacity="1" d="M 350.5 459 L 353 459.5 L 350.5 460 L 350.5 459 Z " /><path fill="rgb(233,233,233)" stroke="rgb(233,233,233)" stroke-width="1" opacity="1" d="M 346.5 460 L 349 460.5 L 346.5 461 L 346.5 460 Z " /><path fill="rgb(233,233,233)" stroke="rgb(233,233,233)" stroke-width="1" opacity="1" d="M 290.5 462 L 295 462.5 L 290.5 463 L 290.5 462 Z " /><path fill="rgb(233,233,233)" stroke="rgb(233,233,233)" stroke-width="1" opacity="1" d="M 299.5 463 L 307 463.5 L 299.5 464 L 299.5 463 Z " /><path fill="rgb(93,94,95)" stroke="rgb(93,94,95)" stroke-width="1" opacity="0.9607843137254902" d="M 88.5 10 L 97.5 11 L 125.5 34 L 128.5 34 L 138.5 30 L 162.5 25 L 170.5 25 L 171.5 24 L 209.5 24 L 210.5 25 L 218.5 25 L 219.5 26 L 230.5 27 L 255.5 34 L 285.5 10 L 292.5 10 L 297 15.5 L 297 71.5 L 299 77.5 L 301 95.5 L 302 96.5 L 302 103.5 L 303 104.5 L 303 129.5 Q 297 163 275.5 181 Q 273.3 180.3 274 182.5 L 282 195.5 L 297.5 228 Q 307.4 230.1 312 237.5 Q 319.2 247.8 318 266.5 L 312 275.5 L 317 294.5 L 319 312.5 L 320 313.5 L 321 331.5 L 322 332.5 L 322 355.5 L 323 360.5 L 322 361.5 L 322 379.5 L 321 380.5 L 320 395.5 L 316 413.5 L 311 426.5 L 316.5 429 Q 324.7 427.3 328.5 430 L 329.5 429 L 338.5 429 L 354.5 424 Q 366.7 418.2 375 408.5 Q 383.2 399.2 388 386.5 L 392 371.5 L 393 357.5 L 389 334.5 L 389 324.5 Q 390.6 315.6 397.5 312 Q 401.9 308.9 410.5 310 Q 428.2 314.3 437 327.5 Q 446.2 339.3 451 355.5 L 453 366.5 L 453 386.5 L 451 397.5 L 443 417.5 Q 434.2 432.7 421.5 444 Q 403.8 459.8 378.5 468 L 354.5 473 L 325.5 474 L 324.5 473 L 306.5 472 L 283.5 467 L 280 469 Q 283.1 476 283 487.5 Q 280.8 488.8 282 493.5 L 277.5 498 L 265.5 502 L 243.5 502 L 235.5 500 L 228 494.5 L 226 490.5 L 226 481.5 L 225 480.5 L 226 476 L 156.5 476 L 156 476.5 L 156 488.5 L 152 497 L 138.5 502 L 115.5 502 L 107.5 500 L 100 494.5 Q 97.2 488.3 99 477.5 L 101 469 L 92 463 L 77 442.5 L 70 427.5 L 64 408.5 L 60 386.5 L 60 376.5 L 59 375.5 L 59 335.5 L 60 334.5 L 60 324.5 L 61 323.5 L 62 308.5 L 69 274.5 L 64 267.5 L 63 260.5 L 66 243.5 L 73.5 233 L 79.5 229 L 85 228 L 89 216.5 L 107 181.5 Q 90 168 82 145.5 L 78 128.5 L 78 107.5 L 79 106.5 L 79 98.5 L 80 97.5 L 82 79.5 L 84 73.5 L 84 16.5 L 88.5 10 Z M 91 14 L 88 18 L 88 75 L 86 81 L 84 100 L 83 101 L 83 109 L 82 110 L 82 127 L 84 138 Q 89 155 99 168 L 113 181 L 117 183 L 120 187 L 119 188 L 117 188 L 112 184 Q 98 204 90 228 Q 102 231 110 238 Q 124 222 146 213 L 160 208 L 181 204 L 209 205 L 229 210 Q 254 220 272 238 Q 280 230 292 228 L 276 194 L 270 184 L 265 188 L 261 187 L 273 178 Q 293 161 299 129 L 299 107 L 298 106 L 296 85 L 293 73 L 293 17 L 291 14 Q 286 13 285 16 L 257 39 L 230 31 L 219 30 L 218 29 L 210 29 L 209 28 L 174 28 L 173 29 L 165 29 L 144 33 L 127 39 L 125 39 L 96 15 L 91 14 Z M 190 207 L 189 208 L 176 208 L 162 211 Q 146 215 135 223 L 133 226 L 153 222 Q 168 220 178 224 L 190 218 L 203 215 L 204 214 L 203 208 L 190 207 Z M 204 218 L 190 222 L 182 228 Q 184 244 189 258 L 202 265 L 226 274 L 244 264 L 258 259 L 256 250 L 252 243 Q 236 222 204 218 Z M 129 227 L 112 242 L 113 245 L 111 257 L 101 275 L 91 284 Q 86 283 88 287 L 94 289 L 98 282 Q 104 272 115 268 L 117 266 L 119 254 L 123 242 L 130 230 Q 131 226 129 227 Z M 88 231 L 77 236 Q 70 241 68 252 L 68 266 L 71 271 Q 76 278 86 281 L 91 280 Q 103 269 109 251 L 108 242 Q 101 233 88 231 Z M 292 231 L 276 239 L 272 245 L 272 250 L 275 259 L 285 275 L 294 281 L 304 277 Q 311 273 314 265 L 313 251 L 309 241 Q 304 232 292 231 Z M 256 232 L 251 236 L 260 250 L 261 260 Q 277 272 285 294 L 286 296 L 295 296 Q 296 289 293 284 L 288 282 Q 278 273 272 261 L 269 253 L 269 241 L 260 232 L 256 232 Z M 187 262 Q 170 270 158 281 L 153 287 L 153 295 L 152 296 L 152 308 L 153 309 L 153 321 L 154 326 L 182 338 L 195 342 L 203 341 L 218 332 L 228 321 L 227 306 L 226 305 L 226 295 L 225 294 L 225 277 L 209 272 L 187 262 Z M 118 270 L 111 274 Q 100 282 95 295 L 96 324 L 99 336 L 101 339 Q 111 347 125 352 L 133 342 L 151 326 L 149 318 L 149 288 Q 135 277 118 270 Z M 74 278 L 72 280 L 68 298 L 66 316 L 65 317 L 65 324 L 64 325 L 64 334 L 63 335 L 63 376 L 64 377 L 64 386 L 67 403 L 76 431 L 89 453 L 103 466 L 105 466 L 107 459 L 107 453 Q 109 450 110 453 L 110 462 L 103 479 L 103 491 L 104 493 L 109 496 L 117 498 Q 135 500 147 495 L 152 488 Q 153 476 150 469 L 150 457 L 150 455 Q 149 452 152 453 L 153 455 L 154 471 L 156 472 L 227 472 L 229 457 L 232 455 L 231 470 L 230 471 L 230 490 L 231 492 L 237 496 L 245 498 L 266 498 L 275 495 L 278 492 Q 277 486 279 485 Q 276 483 278 477 L 271 460 Q 269 453 273 451 L 274 453 L 276 465 L 278 466 L 283 463 Q 298 448 307 427 L 315 400 L 317 381 L 318 380 L 318 366 L 319 365 L 319 348 L 318 347 L 317 322 L 309 278 L 297 283 L 300 298 L 300 324 L 294 348 Q 285 369 270 385 Q 255 400 234 409 L 219 414 L 201 416 L 200 417 L 182 417 L 160 413 Q 135 406 119 391 Q 104 379 94 362 L 85 341 L 81 321 L 81 301 L 84 283 L 82 283 L 74 278 Z M 285 300 Q 283 312 277 323 L 269 332 L 269 354 L 267 366 L 279 368 L 290 348 L 295 331 L 296 317 L 297 316 L 297 306 L 296 305 L 296 300 L 285 300 Z M 405 314 L 400 316 Q 394 319 393 327 L 393 334 L 397 355 Q 397 392 378 412 Q 368 423 354 429 L 345 432 L 333 433 L 332 434 L 316 433 L 308 431 Q 302 450 288 463 L 290 464 L 303 467 L 315 468 L 316 469 L 330 469 L 331 470 L 354 469 L 374 465 L 386 461 Q 405 453 420 440 Q 430 430 438 418 L 444 406 L 449 386 L 449 368 L 446 354 Q 442 339 433 330 Q 424 316 405 314 Z M 231 323 L 228 327 Q 218 341 199 345 L 198 350 L 198 381 L 199 385 L 219 391 Q 228 392 233 389 Q 245 384 254 375 L 263 365 L 264 354 L 265 353 L 265 334 L 264 332 L 256 331 L 231 323 Z M 99 341 L 93 349 L 93 352 L 97 360 L 108 376 L 120 386 L 146 394 L 147 392 L 147 390 L 130 371 L 124 357 L 107 347 L 99 341 Z M 194 388 L 175 392 L 153 392 L 152 391 L 150 397 L 168 411 L 179 413 L 203 413 L 218 410 Q 223 405 222 395 L 213 394 L 199 388 L 194 388 Z " /><path fill="rgb(93,94,95)" stroke="rgb(93,94,95)" stroke-width="1" opacity="0.9607843137254902" d="M 140.5 82 Q 146.3 81.2 148 84.5 L 149 89.5 L 146.5 93 L 140.5 94 Q 135.8 92.7 137 85.5 L 140.5 82 Z " /><path fill="rgb(93,94,95)" stroke="rgb(93,94,95)" stroke-width="1" opacity="0.9607843137254902" d="M 236.5 82 Q 242.3 81.2 244 84.5 L 245 88.5 L 242.5 93 L 236.5 94 L 234 93 Q 232.4 90.9 233 85.5 L 236.5 82 Z " /><path fill="rgb(93,94,95)" stroke="rgb(93,94,95)" stroke-width="1" opacity="0.9607843137254902" d="M 186.5 109 Q 197 107 200 112.5 L 201 115.5 L 200 120.5 L 195.5 127 L 192 129.5 L 193 139.5 L 196.5 143 L 208 144 L 207.5 147 L 197.5 147 L 190.5 142 Q 186.9 148.9 174.5 147 L 173 144 Q 184 145.8 188 139.5 L 189 137.5 L 189 128 L 183 123.5 Q 180.1 119.9 181 112.5 L 186.5 109 Z " /><path fill="rgb(93,94,95)" stroke="rgb(93,94,95)" stroke-width="1" opacity="0.9607843137254902" d="M 123 129 L 127.5 129 L 148.5 135 L 156 138.5 Q 155.3 140.8 151.5 140 L 123 132 L 123 129 Z " /><path fill="rgb(93,94,95)" stroke="rgb(93,94,95)" stroke-width="1" opacity="0.9607843137254902" d="M 253.5 129 Q 259.8 127.1 258 132 L 230.5 140 L 226 140 Q 224.3 135.9 228.5 137 L 253.5 129 Z " /><path fill="rgb(93,94,95)" stroke="rgb(93,94,95)" stroke-width="1" opacity="0.9607843137254902" d="M 153.5 149 Q 158 151 154.5 153 L 123 157 Q 121.5 153.3 124.5 154 L 153.5 149 Z " /><path fill="rgb(93,94,95)" stroke="rgb(93,94,95)" stroke-width="1" opacity="0.9607843137254902" d="M 227.5 149 L 249.5 153 L 256.5 153 L 259 155.5 Q 258.3 157.8 254.5 157 L 253.5 156 L 227.5 153 L 226 151.5 L 227.5 149 Z " /><path fill="rgb(132,196,156)" stroke="rgb(132,196,156)" stroke-width="1" opacity="1" d="M 90.5 14 L 89.5 16 L 90.5 14 Z " /><path fill="rgb(132,196,156)" stroke="rgb(132,196,156)" stroke-width="1" opacity="1" d="M 96.5 16 L 97.5 18 L 96.5 16 Z " /><path fill="rgb(132,196,156)" stroke="rgb(132,196,156)" stroke-width="1" opacity="1" d="M 292.5 16 L 293 70.5 L 292 70.5 L 292.5 16 Z " /><path fill="rgb(132,196,156)" stroke="rgb(132,196,156)" stroke-width="1" opacity="1" d="M 283.5 17 L 282.5 19 L 283.5 17 Z " /><path fill="rgb(132,196,156)" stroke="rgb(132,196,156)" stroke-width="1" opacity="1" d="M 101.5 20 L 102.5 22 L 101.5 20 Z " /><path fill="rgb(132,196,156)" stroke="rgb(132,196,156)" stroke-width="1" opacity="1" d="M 278.5 21 L 277.5 23 L 278.5 21 Z " /><path fill="rgb(132,196,156)" stroke="rgb(132,196,156)" stroke-width="1" opacity="1" d="M 106.5 24 L 107.5 26 L 106.5 24 Z " /><path fill="rgb(132,196,156)" stroke="rgb(132,196,156)" stroke-width="1" opacity="1" d="M 273.5 25 L 272.5 27 L 273.5 25 Z " /><path fill="rgb(132,196,156)" stroke="rgb(132,196,156)" stroke-width="1" opacity="1" d="M 111.5 28 L 112.5 30 L 111.5 28 Z " /><path fill="rgb(132,196,156)" stroke="rgb(132,196,156)" stroke-width="1" opacity="1" d="M 174.5 28 L 181 28.5 L 174.5 29 L 174.5 28 Z " /><path fill="rgb(132,196,156)" stroke="rgb(132,196,156)" stroke-width="1" opacity="1" d="M 200.5 28 L 208 28.5 L 200.5 29 L 200.5 28 Z " /><path fill="rgb(132,196,156)" stroke="rgb(132,196,156)" stroke-width="1" opacity="1" d="M 164.5 29 L 167 29.5 L 164.5 30 L 164.5 29 Z " /><path fill="rgb(132,196,156)" stroke="rgb(132,196,156)" stroke-width="1" opacity="1" d="M 214.5 29 L 217 29.5 L 214.5 30 L 214.5 29 Z " /><path fill="rgb(132,196,156)" stroke="rgb(132,196,156)" stroke-width="1" opacity="1" d="M 268.5 29 L 267.5 31 L 268.5 29 Z " /><path fill="rgb(132,196,156)" stroke="rgb(132,196,156)" stroke-width="1" opacity="1" d="M 221.5 30 L 224 30.5 L 221.5 31 L 221.5 30 Z " /><path fill="rgb(132,196,156)" stroke="rgb(132,196,156)" stroke-width="1" opacity="1" d="M 116.5 32 L 117.5 34 L 116.5 32 Z " /><path fill="rgb(132,196,156)" stroke="rgb(132,196,156)" stroke-width="1" opacity="1" d="M 263.5 33 L 262.5 35 L 263.5 33 Z " /><path fill="rgb(132,196,156)" stroke="rgb(132,196,156)" stroke-width="1" opacity="1" d="M 121.5 36 L 122.5 38 L 121.5 36 Z " /><path fill="rgb(132,196,156)" stroke="rgb(132,196,156)" stroke-width="1" opacity="1" d="M 258.5 37 L 257.5 39 L 258.5 37 Z " /><path fill="rgb(132,196,156)" stroke="rgb(132,196,156)" stroke-width="1" opacity="1" d="M 139.5 82 L 137.5 85 L 139.5 82 Z " /><path fill="rgb(132,196,156)" stroke="rgb(132,196,156)" stroke-width="1" opacity="1" d="M 136.5 86 L 137 89.5 L 136 89.5 L 136.5 86 Z " /><path fill="rgb(132,196,156)" stroke="rgb(132,196,156)" stroke-width="1" opacity="1" d="M 296.5 91 L 297 93.5 L 296 93.5 L 296.5 91 Z " /><path fill="rgb(132,196,156)" stroke="rgb(132,196,156)" stroke-width="1" opacity="1" d="M 84.5 93 L 85 95.5 L 84 95.5 L 84.5 93 Z " /><path fill="rgb(132,196,156)" stroke="rgb(132,196,156)" stroke-width="1" opacity="1" d="M 141.5 94 L 144 94.5 L 141.5 95 L 141.5 94 Z " /><path fill="rgb(132,196,156)" stroke="rgb(132,196,156)" stroke-width="1" opacity="1" d="M 237.5 94 L 240 94.5 L 237.5 95 L 237.5 94 Z " /><path fill="rgb(132,196,156)" stroke="rgb(132,196,156)" stroke-width="1" opacity="1" d="M 297.5 98 L 298 100.5 L 297 100.5 L 297.5 98 Z " /><path fill="rgb(132,196,156)" stroke="rgb(132,196,156)" stroke-width="1" opacity="1" d="M 83.5 101 L 84 103.5 L 83 103.5 L 83.5 101 Z " /><path fill="rgb(132,196,156)" stroke="rgb(132,196,156)" stroke-width="1" opacity="1" d="M 298.5 107 L 299 110.5 L 298 110.5 L 298.5 107 Z " /><path fill="rgb(132,196,156)" stroke="rgb(132,196,156)" stroke-width="1" opacity="1" d="M 82.5 110 L 83 114.5 L 82 114.5 L 82.5 110 Z " /><path fill="rgb(132,196,156)" stroke="rgb(132,196,156)" stroke-width="1" opacity="1" d="M 180.5 114 L 181 116.5 L 180 116.5 L 180.5 114 Z " /><path fill="rgb(132,196,156)" stroke="rgb(132,196,156)" stroke-width="1" opacity="1" d="M 82.5 120 L 83 125.5 L 82 125.5 L 82.5 120 Z " /><path fill="rgb(132,196,156)" stroke="rgb(132,196,156)" stroke-width="1" opacity="1" d="M 184.5 125 L 186.5 128 L 184.5 125 Z " /><path fill="rgb(132,196,156)" stroke="rgb(132,196,156)" stroke-width="1" opacity="1" d="M 298.5 125 L 299 127.5 L 298 127.5 L 298.5 125 Z " /><path fill="rgb(132,196,156)" stroke="rgb(132,196,156)" stroke-width="1" opacity="1" d="M 123.5 128 L 123 129.5 L 122.5 131 L 122 129.5 L 123.5 128 Z " /><path fill="rgb(132,196,156)" stroke="rgb(132,196,156)" stroke-width="1" opacity="1" d="M 193.5 128 L 193 129.5 L 192.5 134 L 192 129.5 L 193.5 128 Z " /><path fill="rgb(132,196,156)" stroke="rgb(132,196,156)" stroke-width="1" opacity="1" d="M 255.5 128 L 259 129.5 L 257.5 129 Q 254.5 129.5 255.5 128 Z " /><path fill="rgb(132,196,156)" stroke="rgb(132,196,156)" stroke-width="1" opacity="1" d="M 188.5 129 L 189 137.5 L 188 137.5 L 188.5 129 Z " /><path fill="rgb(132,196,156)" stroke="rgb(132,196,156)" stroke-width="1" opacity="1" d="M 225.5 138 L 226 140 L 229 140.5 L 226.5 141 L 225.5 138 Z " /><path fill="rgb(132,196,156)" stroke="rgb(132,196,156)" stroke-width="1" opacity="1" d="M 155.5 139 L 154.5 141 L 152 140.5 L 155.5 139 Z " /><path fill="rgb(132,196,156)" stroke="rgb(132,196,156)" stroke-width="1" opacity="1" d="M 195.5 141 L 196.5 143 L 195.5 141 Z " /><path fill="rgb(132,196,156)" stroke="rgb(132,196,156)" stroke-width="1" opacity="1" d="M 190.5 142 L 192.5 145 L 190.5 143 L 187 145.5 L 190.5 142 Z " /><path fill="rgb(132,196,156)" stroke="rgb(132,196,156)" stroke-width="1" opacity="1" d="M 226.5 149 L 226 150.5 L 225.5 152 L 225 150.5 L 226.5 149 Z " /><path fill="rgb(132,196,156)" stroke="rgb(132,196,156)" stroke-width="1" opacity="1" d="M 229.5 149 L 232 149.5 L 229.5 150 L 229.5 149 Z " /><path fill="rgb(132,196,156)" stroke="rgb(132,196,156)" stroke-width="1" opacity="1" d="M 142.5 150 L 145 150.5 L 142.5 151 L 142.5 150 Z " /><path fill="rgb(132,196,156)" stroke="rgb(132,196,156)" stroke-width="1" opacity="1" d="M 236.5 150 L 239 150.5 L 236.5 151 L 236.5 150 Z " /><path fill="rgb(132,196,156)" stroke="rgb(132,196,156)" stroke-width="1" opacity="1" d="M 135.5 151 L 138 151.5 L 135.5 152 L 135.5 151 Z " /><path fill="rgb(132,196,156)" stroke="rgb(132,196,156)" stroke-width="1" opacity="1" d="M 243.5 151 L 246 151.5 L 243.5 152 L 243.5 151 Z " /><path fill="rgb(132,196,156)" stroke="rgb(132,196,156)" stroke-width="1" opacity="1" d="M 128.5 152 L 131 152.5 L 128.5 153 L 128.5 152 Z " /><path fill="rgb(132,196,156)" stroke="rgb(132,196,156)" stroke-width="1" opacity="1" d="M 250.5 152 L 253 152.5 L 250.5 153 L 250.5 152 Z " /><path fill="rgb(132,196,156)" stroke="rgb(132,196,156)" stroke-width="1" opacity="1" d="M 123.5 153 L 123 154.5 L 122.5 156 L 122 154.5 L 123.5 153 Z " /><path fill="rgb(132,196,156)" stroke="rgb(132,196,156)" stroke-width="1" opacity="1" d="M 229.5 153 L 232 153.5 L 229.5 154 L 229.5 153 Z " /><path fill="rgb(132,196,156)" stroke="rgb(132,196,156)" stroke-width="1" opacity="1" d="M 236.5 154 L 239 154.5 L 236.5 155 L 236.5 154 Z " /><path fill="rgb(132,196,156)" stroke="rgb(132,196,156)" stroke-width="1" opacity="1" d="M 135.5 155 L 138 155.5 L 135.5 156 L 135.5 155 Z " /><path fill="rgb(132,196,156)" stroke="rgb(132,196,156)" stroke-width="1" opacity="1" d="M 243.5 155 L 246 155.5 L 243.5 156 L 243.5 155 Z " /><path fill="rgb(132,196,156)" stroke="rgb(132,196,156)" stroke-width="1" opacity="1" d="M 128.5 156 L 131 156.5 L 128.5 157 L 128.5 156 Z " /><path fill="rgb(132,196,156)" stroke="rgb(132,196,156)" stroke-width="1" opacity="1" d="M 250.5 156 L 253 156.5 L 250.5 157 L 250.5 156 Z " /><path fill="rgb(132,196,156)" stroke="rgb(132,196,156)" stroke-width="1" opacity="1" d="M 285.5 162 L 284.5 164 L 285.5 162 Z " /><path fill="rgb(132,196,156)" stroke="rgb(132,196,156)" stroke-width="1" opacity="1" d="M 282.5 166 L 281.5 168 L 282.5 166 Z " /><path fill="rgb(132,196,156)" stroke="rgb(132,196,156)" stroke-width="1" opacity="1" d="M 100.5 168 L 101.5 170 L 100.5 168 Z " /><path fill="rgb(132,196,156)" stroke="rgb(132,196,156)" stroke-width="1" opacity="1" d="M 276.5 173 L 274.5 176 L 276.5 173 Z " /><path fill="rgb(132,196,156)" stroke="rgb(132,196,156)" stroke-width="1" opacity="1" d="M 110.5 178 L 111.5 180 L 110.5 178 Z " /><path fill="rgb(132,196,156)" stroke="rgb(132,196,156)" stroke-width="1" opacity="1" d="M 111.5 184 L 110.5 186 L 111.5 184 Z " /><path fill="rgb(132,196,156)" stroke="rgb(132,196,156)" stroke-width="1" opacity="1" d="M 118.5 184 L 119.5 186 L 118.5 184 Z " /><path fill="rgb(132,196,156)" stroke="rgb(132,196,156)" stroke-width="1" opacity="1" d="M 187.5 203 L 193 203.5 L 187.5 204 L 187.5 203 Z " /><path fill="rgb(132,196,156)" stroke="rgb(132,196,156)" stroke-width="1" opacity="1" d="M 175.5 204 L 179 204.5 L 175.5 205 L 175.5 204 Z " /><path fill="rgb(132,196,156)" stroke="rgb(132,196,156)" stroke-width="1" opacity="1" d="M 180.5 208 L 200.5 208 L 203 209 L 203 214 L 201.5 214 L 188.5 218 L 179.5 224 L 173.5 222 L 159.5 221 L 158.5 222 L 148.5 222 L 133 226 Q 131.9 223.3 134.5 224 L 153.5 214 L 167.5 210 L 179.5 209 L 180.5 208 Z " /><path fill="rgb(132,196,156)" stroke="rgb(132,196,156)" stroke-width="1" opacity="1" d="M 200.5 219 L 208.5 219 L 227.5 225 Q 243.6 231.4 253 244.5 L 257 254.5 L 257 258.5 L 244.5 263 L 227.5 273 L 223.5 273 Q 204.2 266.9 189 258 L 184 238.5 L 183 226 Q 189.9 221.2 200.5 219 Z " /><path fill="rgb(132,196,156)" stroke="rgb(132,196,156)" stroke-width="1" opacity="1" d="M 122.5 226 L 121.5 228 L 122.5 226 Z " /><path fill="rgb(132,196,156)" stroke="rgb(132,196,156)" stroke-width="1" opacity="1" d="M 127.5 228 L 130 228.5 L 121 245.5 L 116 267 L 110.5 269 L 99 279.5 L 92.5 289 L 88 285.5 L 99 277.5 Q 106.5 269 111 257.5 Q 114.1 252.1 113 242.5 L 112 241.5 L 118.5 235 L 127.5 228 Z " /><path fill="rgb(132,196,156)" stroke="rgb(132,196,156)" stroke-width="1" opacity="1" d="M 261.5 228 L 263.5 231 L 261.5 228 Z " /><path fill="rgb(132,196,156)" stroke="rgb(132,196,156)" stroke-width="1" opacity="1" d="M 117.5 230 L 114.5 234 L 117.5 230 Z " /><path fill="rgb(132,196,156)" stroke="rgb(132,196,156)" stroke-width="1" opacity="1" d="M 87.5 231 L 90 231.5 L 87.5 232 L 87.5 231 Z " /><path fill="rgb(132,196,156)" stroke="rgb(132,196,156)" stroke-width="1" opacity="1" d="M 257.5 232 L 260.5 233 L 269 241.5 L 268 249.5 Q 272.4 267.6 284 278.5 L 284 282.5 L 282.5 286 Q 275.1 270.4 262 260.5 L 260 248.5 L 252 235.5 L 257.5 232 Z " /><path fill="rgb(132,196,156)" stroke="rgb(132,196,156)" stroke-width="1" opacity="1" d="M 274.5 235 L 273.5 237 L 274.5 235 Z " /><path fill="rgb(132,196,156)" stroke="rgb(132,196,156)" stroke-width="1" opacity="1" d="M 304.5 236 L 307.5 240 L 304.5 236 Z " /><path fill="rgb(132,196,156)" stroke="rgb(132,196,156)" stroke-width="1" opacity="1" d="M 278.5 237 L 277.5 239 L 278.5 237 Z " /><path fill="rgb(132,196,156)" stroke="rgb(132,196,156)" stroke-width="1" opacity="1" d="M 105.5 239 L 107.5 242 L 105.5 239 Z " /><path fill="rgb(132,196,156)" stroke="rgb(132,196,156)" stroke-width="1" opacity="1" d="M 272.5 244 L 273 248.5 L 272 248.5 L 272.5 244 Z " /><path fill="rgb(132,196,156)" stroke="rgb(132,196,156)" stroke-width="1" opacity="1" d="M 313.5 258 L 314 263.5 L 313 263.5 L 313.5 258 Z " /><path fill="rgb(132,196,156)" stroke="rgb(132,196,156)" stroke-width="1" opacity="1" d="M 187.5 262 Q 203.4 272.3 224 277 L 224 284.5 L 225 285.5 L 225 299.5 L 226 300.5 L 226 308.5 L 228 319.5 L 215.5 333 L 201.5 341 L 196.5 342 L 177.5 336 L 155 326 L 153 315.5 L 153 286.5 Q 167.3 271.3 187.5 262 Z " /><path fill="rgb(132,196,156)" stroke="rgb(132,196,156)" stroke-width="1" opacity="1" d="M 310.5 269 L 309.5 271 L 310.5 269 Z " /><path fill="rgb(132,196,156)" stroke="rgb(132,196,156)" stroke-width="1" opacity="1" d="M 71.5 270 L 75.5 275 L 71.5 270 Z " /><path fill="rgb(132,196,156)" stroke="rgb(132,196,156)" stroke-width="1" opacity="1" d="M 116.5 271 L 126.5 274 L 149 287.5 L 148 289.5 L 148 310.5 L 149 311.5 L 149 321.5 L 150 327 L 145.5 329 L 129 345.5 L 124.5 352 Q 110.4 346.1 100 336.5 L 96 321.5 L 96 292.5 L 105 279 L 116.5 271 Z " /><path fill="rgb(132,196,156)" stroke="rgb(132,196,156)" stroke-width="1" opacity="1" d="M 96.5 273 L 91.5 279 L 96.5 273 Z " /><path fill="rgb(132,196,156)" stroke="rgb(132,196,156)" stroke-width="1" opacity="1" d="M 305.5 274 L 304.5 276 L 305.5 274 Z " /><path fill="rgb(132,196,156)" stroke="rgb(132,196,156)" stroke-width="1" opacity="1" d="M 286.5 275 L 288.5 278 L 286.5 275 Z " /><path fill="rgb(132,196,156)" stroke="rgb(132,196,156)" stroke-width="1" opacity="1" d="M 293.5 280 L 296 280.5 L 293.5 281 L 293.5 280 Z " /><path fill="rgb(132,196,156)" stroke="rgb(132,196,156)" stroke-width="1" opacity="1" d="M 81.5 296 L 82 298.5 L 81 298.5 L 81.5 296 Z " /><path fill="rgb(132,196,156)" stroke="rgb(132,196,156)" stroke-width="1" opacity="1" d="M 312.5 296 L 313 298.5 L 312 298.5 L 312.5 296 Z " /><path fill="rgb(132,196,156)" stroke="rgb(132,196,156)" stroke-width="1" opacity="1" d="M 300.5 303 L 301 318.5 L 300 318.5 L 300.5 303 Z " /><path fill="rgb(132,196,156)" stroke="rgb(132,196,156)" stroke-width="1" opacity="1" d="M 80.5 309 L 81 311.5 L 80 311.5 L 80.5 309 Z " /><path fill="rgb(132,196,156)" stroke="rgb(132,196,156)" stroke-width="1" opacity="1" d="M 66.5 310 L 67 312.5 L 66 312.5 L 66.5 310 Z " /><path fill="rgb(132,196,156)" stroke="rgb(132,196,156)" stroke-width="1" opacity="1" d="M 404.5 314 L 409 314.5 L 404.5 315 L 404.5 314 Z " /><path fill="rgb(132,196,156)" stroke="rgb(132,196,156)" stroke-width="1" opacity="1" d="M 65.5 317 L 66 319.5 L 65 319.5 L 65.5 317 Z " /><path fill="rgb(132,196,156)" stroke="rgb(132,196,156)" stroke-width="1" opacity="1" d="M 421.5 319 L 422.5 321 L 421.5 319 Z " /><path fill="rgb(132,196,156)" stroke="rgb(132,196,156)" stroke-width="1" opacity="1" d="M 81.5 322 L 82 324.5 L 81 324.5 L 81.5 322 Z " /><path fill="rgb(132,196,156)" stroke="rgb(132,196,156)" stroke-width="1" opacity="1" d="M 316.5 322 L 317 325.5 L 316 325.5 L 316.5 322 Z " /><path fill="rgb(132,196,156)" stroke="rgb(132,196,156)" stroke-width="1" opacity="1" d="M 425.5 322 L 431.5 329 L 425.5 322 Z " /><path fill="rgb(132,196,156)" stroke="rgb(132,196,156)" stroke-width="1" opacity="1" d="M 231.5 323 L 253 330.5 Q 230.9 353.8 198 365 L 199 361.5 L 199 346 Q 215.7 341.5 226 329.5 L 231.5 323 Z " /><path fill="rgb(132,196,156)" stroke="rgb(132,196,156)" stroke-width="1" opacity="1" d="M 299.5 324 L 300 326.5 L 299 326.5 L 299.5 324 Z " /><path fill="rgb(132,196,156)" stroke="rgb(132,196,156)" stroke-width="1" opacity="1" d="M 64.5 325 L 65 328.5 L 64 328.5 L 64.5 325 Z " /><path fill="rgb(132,196,156)" stroke="rgb(132,196,156)" stroke-width="1" opacity="1" d="M 393.5 326 L 394 332.5 L 393 332.5 L 393.5 326 Z " /><path fill="rgb(132,196,156)" stroke="rgb(132,196,156)" stroke-width="1" opacity="1" d="M 317.5 332 L 318 337.5 L 317 337.5 L 317.5 332 Z " /><path fill="rgb(132,196,156)" stroke="rgb(132,196,156)" stroke-width="1" opacity="1" d="M 434.5 332 L 435.5 334 L 434.5 332 Z " /><path fill="rgb(132,196,156)" stroke="rgb(132,196,156)" stroke-width="1" opacity="1" d="M 63.5 336 L 64 342.5 L 63 342.5 L 63.5 336 Z " /><path fill="rgb(132,196,156)" stroke="rgb(132,196,156)" stroke-width="1" opacity="1" d="M 394.5 337 L 395 339.5 L 394 339.5 L 394.5 337 Z " /><path fill="rgb(132,196,156)" stroke="rgb(132,196,156)" stroke-width="1" opacity="1" d="M 98.5 342 L 124 357.5 Q 127.6 370.4 136 378.5 L 129.5 380 L 113.5 380 Q 99.9 368.1 93 349.5 L 98.5 342 Z " /><path fill="rgb(132,196,156)" stroke="rgb(132,196,156)" stroke-width="1" opacity="1" d="M 396.5 349 L 397 351.5 L 396 351.5 L 396.5 349 Z " /><path fill="rgb(132,196,156)" stroke="rgb(132,196,156)" stroke-width="1" opacity="1" d="M 318.5 354 L 319 357.5 L 318 357.5 L 318.5 354 Z " /><path fill="rgb(132,196,156)" stroke="rgb(132,196,156)" stroke-width="1" opacity="1" d="M 396.5 367 L 397 369.5 L 396 369.5 L 396.5 367 Z " /><path fill="rgb(132,196,156)" stroke="rgb(132,196,156)" stroke-width="1" opacity="1" d="M 63.5 368 L 64 374.5 L 63 374.5 L 63.5 368 Z " /><path fill="rgb(132,196,156)" stroke="rgb(132,196,156)" stroke-width="1" opacity="1" d="M 448.5 369 L 449 374.5 L 448 374.5 L 448.5 369 Z " /><path fill="rgb(132,196,156)" stroke="rgb(132,196,156)" stroke-width="1" opacity="1" d="M 279.5 373 L 278.5 375 L 279.5 373 Z " /><path fill="rgb(132,196,156)" stroke="rgb(132,196,156)" stroke-width="1" opacity="1" d="M 317.5 373 L 318 377.5 L 317 377.5 L 317.5 373 Z " /><path fill="rgb(132,196,156)" stroke="rgb(132,196,156)" stroke-width="1" opacity="1" d="M 102.5 374 L 103.5 376 L 102.5 374 Z " /><path fill="rgb(132,196,156)" stroke="rgb(132,196,156)" stroke-width="1" opacity="1" d="M 448.5 377 L 449 384.5 L 448 384.5 L 448.5 377 Z " /><path fill="rgb(132,196,156)" stroke="rgb(132,196,156)" stroke-width="1" opacity="1" d="M 275.5 378 L 273.5 381 L 275.5 378 Z " /><path fill="rgb(132,196,156)" stroke="rgb(132,196,156)" stroke-width="1" opacity="1" d="M 107.5 380 L 116.5 390 L 107.5 380 Z " /><path fill="rgb(132,196,156)" stroke="rgb(132,196,156)" stroke-width="1" opacity="1" d="M 64.5 381 L 65 384.5 L 64 384.5 L 64.5 381 Z " /><path fill="rgb(132,196,156)" stroke="rgb(132,196,156)" stroke-width="1" opacity="1" d="M 316.5 384 L 317 386.5 L 316 386.5 L 316.5 384 Z " /><path fill="rgb(132,196,156)" stroke="rgb(132,196,156)" stroke-width="1" opacity="1" d="M 65.5 389 L 66 391.5 L 65 391.5 L 65.5 389 Z " /><path fill="rgb(132,196,156)" stroke="rgb(132,196,156)" stroke-width="1" opacity="1" d="M 264.5 389 L 262.5 392 L 264.5 389 Z " /><path fill="rgb(132,196,156)" stroke="rgb(132,196,156)" stroke-width="1" opacity="1" d="M 120.5 392 L 121.5 394 L 120.5 392 Z " /><path fill="rgb(132,196,156)" stroke="rgb(132,196,156)" stroke-width="1" opacity="1" d="M 381.5 407 L 379.5 410 L 381.5 407 Z " /><path fill="rgb(132,196,156)" stroke="rgb(132,196,156)" stroke-width="1" opacity="1" d="M 176.5 416 L 180 416.5 L 176.5 417 L 176.5 416 Z " /><path fill="rgb(132,196,156)" stroke="rgb(132,196,156)" stroke-width="1" opacity="1" d="M 202.5 416 L 205 416.5 L 202.5 417 L 202.5 416 Z " /><path fill="rgb(132,196,156)" stroke="rgb(132,196,156)" stroke-width="1" opacity="1" d="M 369.5 419 L 368.5 421 L 369.5 419 Z " /><path fill="rgb(132,196,156)" stroke="rgb(132,196,156)" stroke-width="1" opacity="1" d="M 435.5 420 L 434.5 422 L 435.5 420 Z " /><path fill="rgb(132,196,156)" stroke="rgb(132,196,156)" stroke-width="1" opacity="1" d="M 433.5 423 L 432.5 425 L 433.5 423 Z " /><path fill="rgb(132,196,156)" stroke="rgb(132,196,156)" stroke-width="1" opacity="1" d="M 430.5 427 L 428.5 430 L 430.5 427 Z " /><path fill="rgb(132,196,156)" stroke="rgb(132,196,156)" stroke-width="1" opacity="1" d="M 318.5 433 L 321 433.5 L 318.5 434 L 318.5 433 Z " /><path fill="rgb(132,196,156)" stroke="rgb(132,196,156)" stroke-width="1" opacity="1" d="M 334.5 433 L 338 433.5 L 334.5 434 L 334.5 433 Z " /><path fill="rgb(132,196,156)" stroke="rgb(132,196,156)" stroke-width="1" opacity="1" d="M 424.5 434 L 420.5 439 L 424.5 434 Z " /><path fill="rgb(132,196,156)" stroke="rgb(132,196,156)" stroke-width="1" opacity="1" d="M 415.5 442 L 414.5 444 L 415.5 442 Z " /><path fill="rgb(132,196,156)" stroke="rgb(132,196,156)" stroke-width="1" opacity="1" d="M 87.5 449 L 88.5 451 L 87.5 449 Z " /><path fill="rgb(132,196,156)" stroke="rgb(132,196,156)" stroke-width="1" opacity="1" d="M 107.5 451 L 107 452.5 L 106.5 458 L 106 452.5 L 107.5 451 Z " /><path fill="rgb(132,196,156)" stroke="rgb(132,196,156)" stroke-width="1" opacity="1" d="M 109.5 451 Q 112.5 452.5 111 458.5 L 110 458.5 Q 110.5 452.5 109.5 451 Z " /><path fill="rgb(132,196,156)" stroke="rgb(132,196,156)" stroke-width="1" opacity="1" d="M 291.5 452 L 290.5 454 L 291.5 452 Z " /><path fill="rgb(132,196,156)" stroke="rgb(132,196,156)" stroke-width="1" opacity="1" d="M 90.5 453 L 92.5 456 L 90.5 453 Z " /><path fill="rgb(132,196,156)" stroke="rgb(132,196,156)" stroke-width="1" opacity="1" d="M 294.5 455 L 293.5 457 L 294.5 455 Z " /><path fill="rgb(132,196,156)" stroke="rgb(132,196,156)" stroke-width="1" opacity="1" d="M 153.5 457 L 154 462.5 L 153 462.5 L 153.5 457 Z " /><path fill="rgb(132,196,156)" stroke="rgb(132,196,156)" stroke-width="1" opacity="1" d="M 232.5 457 L 233 459.5 L 232 459.5 L 232.5 457 Z " /><path fill="rgb(132,196,156)" stroke="rgb(132,196,156)" stroke-width="1" opacity="1" d="M 149.5 458 L 150 464.5 L 149 464.5 L 149.5 458 Z " /><path fill="rgb(132,196,156)" stroke="rgb(132,196,156)" stroke-width="1" opacity="1" d="M 286.5 458 L 283.5 462 L 286.5 458 Z " /><path fill="rgb(132,196,156)" stroke="rgb(132,196,156)" stroke-width="1" opacity="1" d="M 100.5 463 L 101.5 465 L 100.5 463 Z " /><path fill="rgb(132,196,156)" stroke="rgb(132,196,156)" stroke-width="1" opacity="1" d="M 231.5 463 L 232 465.5 L 231 465.5 L 231.5 463 Z " /><path fill="rgb(132,196,156)" stroke="rgb(132,196,156)" stroke-width="1" opacity="1" d="M 279.5 464 L 278.5 466 L 279.5 464 Z " /><path fill="rgb(132,196,156)" stroke="rgb(132,196,156)" stroke-width="1" opacity="1" d="M 309.5 467 L 312 467.5 L 309.5 468 L 309.5 467 Z " /><path fill="rgb(132,196,156)" stroke="rgb(132,196,156)" stroke-width="1" opacity="1" d="M 357.5 467 L 360 467.5 L 357.5 468 L 357.5 467 Z " /><path fill="rgb(132,196,156)" stroke="rgb(132,196,156)" stroke-width="1" opacity="1" d="M 317.5 468 L 322 468.5 L 317.5 469 L 317.5 468 Z " /><path fill="rgb(132,196,156)" stroke="rgb(132,196,156)" stroke-width="1" opacity="1" d="M 349.5 468 L 353 468.5 L 349.5 469 L 349.5 468 Z " /><path fill="rgb(132,196,156)" stroke="rgb(132,196,156)" stroke-width="1" opacity="1" d="M 154.5 469 L 155 471 L 225.5 471 L 226.5 470 L 225.5 472 L 155.5 472 L 154 470.5 L 154.5 469 Z " /><path fill="rgb(132,196,156)" stroke="rgb(132,196,156)" stroke-width="1" opacity="1" d="M 230.5 471 L 231 475.5 L 230 475.5 L 230.5 471 Z " /><path fill="rgb(132,196,156)" stroke="rgb(132,196,156)" stroke-width="1" opacity="1" d="M 151.5 476 L 152 486.5 L 151 486.5 L 151.5 476 Z " /><path fill="rgb(132,196,156)" stroke="rgb(132,196,156)" stroke-width="1" opacity="1" d="M 103.5 479 L 104 481.5 L 103 481.5 L 103.5 479 Z " /><path fill="rgb(132,196,156)" stroke="rgb(132,196,156)" stroke-width="1" opacity="1" d="M 103.5 487 L 104 489.5 L 103 489.5 L 103.5 487 Z " /><path fill="rgb(132,196,156)" stroke="rgb(132,196,156)" stroke-width="1" opacity="1" d="M 230.5 487 L 231 489.5 L 230 489.5 L 230.5 487 Z " /><path fill="rgb(132,196,156)" stroke="rgb(132,196,156)" stroke-width="1" opacity="1" d="M 231.5 491 L 233.5 494 L 231.5 491 Z " /><path fill="rgb(132,196,156)" stroke="rgb(132,196,156)" stroke-width="1" opacity="1" d="M 104.5 492 L 105.5 494 L 104.5 492 Z " /><path fill="rgb(132,196,156)" stroke="rgb(132,196,156)" stroke-width="1" opacity="1" d="M 117.5 497 L 121 497.5 L 117.5 498 L 117.5 497 Z " /><path fill="rgb(132,196,156)" stroke="rgb(132,196,156)" stroke-width="1" opacity="1" d="M 133.5 497 L 136 497.5 L 133.5 498 L 133.5 497 Z " /><path fill="rgb(132,196,156)" stroke="rgb(132,196,156)" stroke-width="1" opacity="1" d="M 245.5 497 L 249 497.5 L 245.5 498 L 245.5 497 Z " /><path fill="rgb(132,196,156)" stroke="rgb(132,196,156)" stroke-width="1" opacity="1" d="M 261.5 497 L 265 497.5 L 261.5 498 L 261.5 497 Z " /><path fill="rgb(234,234,234)" stroke="rgb(234,234,234)" stroke-width="1" opacity="1" d="M 90 15 Q 94.5 14.2 96.5 17 L 120.5 37 L 126.5 40 L 143.5 34 L 163.5 30 Q 169.8 31.8 171.5 29 L 210.5 29 L 211.5 30 L 229.5 32 L 256.5 40 L 287.5 15 L 290.5 15 L 292 16.5 L 292 72.5 L 296 89.5 L 297 103.5 L 298 104.5 L 298 115.5 L 299 116.5 L 298 117.5 L 298 129.5 L 293 147.5 Q 284.6 167.5 268.5 180 L 261 185.5 Q 259.3 190.8 264.5 189 L 268.5 186 L 271 186 L 291 226.5 L 276.5 233 L 271.5 237 Q 256.1 220.4 233.5 211 L 207.5 204 L 181.5 203 L 180.5 204 L 167.5 205 L 145.5 212 Q 124.4 221.4 109.5 237 L 104.5 233 L 91 226.5 Q 99.4 203.9 111.5 185 L 116.5 189 L 120 189 L 120 184 L 118.5 184 L 101 168.5 Q 91.3 157.2 86 141.5 L 83 127.5 L 83 107.5 L 84 106.5 L 86 85.5 L 89 73.5 L 89 17.5 L 90 15 Z M 141 81 L 139 82 L 136 86 L 137 93 Q 139 96 146 95 L 150 89 L 149 85 Q 147 80 141 81 Z M 237 81 L 235 82 Q 231 84 232 92 L 237 95 L 243 94 L 246 89 L 245 85 Q 243 80 237 81 Z M 187 108 L 184 109 L 180 114 Q 179 122 184 126 Q 183 128 186 127 L 188 130 L 188 139 L 183 143 L 174 143 L 172 145 L 175 148 Q 186 150 191 144 Q 196 150 208 148 L 209 145 L 208 143 L 197 142 L 193 138 L 193 130 L 195 129 L 201 121 L 201 112 Q 197 107 187 108 Z M 122 128 L 122 132 L 127 134 L 152 141 Q 158 143 156 138 L 149 134 L 128 128 L 122 128 Z M 255 128 L 227 136 Q 224 137 225 141 L 231 141 L 238 138 L 258 133 L 259 132 Q 261 126 255 128 Z M 148 149 L 147 150 L 122 153 Q 121 157 124 158 L 155 154 L 156 153 L 156 149 L 148 149 Z M 225 149 L 225 153 L 228 154 L 258 158 Q 260 157 259 153 L 235 150 L 234 149 L 225 149 Z " /><path fill="rgb(234,234,234)" stroke="rgb(234,234,234)" stroke-width="1" opacity="1" d="M 86.5 232 Q 101 234 108 243.5 L 107 254.5 Q 101.6 268.6 91.5 278 Q 90.1 280.6 85.5 280 L 73 271.5 Q 68 267.5 68 258.5 L 70 247.5 Q 72.9 239.4 79.5 235 L 86.5 232 Z " /><path fill="rgb(234,234,234)" stroke="rgb(234,234,234)" stroke-width="1" opacity="1" d="M 291.5 232 Q 302.3 232.7 307 239.5 L 312 249.5 L 313 264.5 L 304.5 275 L 293.5 280 L 283 270.5 L 274 253.5 L 273 244.5 L 278.5 238 L 291.5 232 Z " /><path fill="rgb(234,234,234)" stroke="rgb(234,234,234)" stroke-width="1" opacity="1" d="M 73.5 279 L 83 284 L 80 302.5 L 80 318.5 L 81 319.5 L 82 332.5 L 88 351.5 Q 97.3 372.2 112.5 387 Q 128.3 402.2 150.5 411 L 174.5 417 L 198.5 418 L 199.5 417 L 207.5 417 L 217.5 415 L 233.5 410 Q 258.5 399.5 275 380.5 Q 289.5 364.5 297 341.5 L 301 321.5 L 301 299.5 L 298 284 L 307.5 279 L 310 288.5 L 310 296.5 L 312 306.5 L 313 347.5 L 312 348.5 L 312 361.5 L 311 362.5 L 310 375.5 L 306 393.5 L 301 408.5 Q 292.3 429.8 276.5 444 Q 270.7 449.2 261.5 451 L 119.5 451 L 107.5 446 L 94 432.5 L 83 414.5 L 74 388.5 L 70 366.5 L 70 358.5 L 69 357.5 L 69 309.5 L 70 308.5 L 71 290.5 L 73.5 279 Z " /><path fill="rgb(234,234,234)" stroke="rgb(234,234,234)" stroke-width="1" opacity="1" d="M 403.5 315 L 407.5 315 L 414 321.5 Q 427.4 336.3 430 361 L 411.5 352 L 397 350 L 394 334.5 L 394 325.5 Q 395.3 319.8 399.5 317 L 403.5 315 Z " /><path fill="rgb(234,234,234)" stroke="rgb(234,234,234)" stroke-width="1" opacity="1" d="M 397 370 Q 417.1 373.6 428 387.5 Q 422 413.5 405.5 429 L 396 409.5 L 387 399.5 Q 395.3 387.7 397 370 Z " /><path fill="rgb(234,234,234)" stroke="rgb(234,234,234)" stroke-width="1" opacity="1" d="M 374.5 416 L 383 428.5 L 387 443.5 Q 371 456 346.5 460 L 347 458.5 L 349 449.5 L 349 431 Q 364.6 426.9 374.5 416 Z " /><path fill="rgb(234,234,234)" stroke="rgb(234,234,234)" stroke-width="1" opacity="1" d="M 309 432 Q 316.2 435.2 328 434 L 329 443.5 L 327 454.5 L 323 464 L 307.5 464 L 306.5 463 Q 296.3 464.2 290 461.5 Q 302.6 449.3 309 432 Z " /><path fill="rgb(110,177,118)" stroke="rgb(110,177,118)" stroke-width="1" opacity="0.996078431372549" d="M 88.5 17 L 89 70.5 L 88 70.5 L 88.5 17 Z " /><path fill="rgb(110,177,118)" stroke="rgb(110,177,118)" stroke-width="1" opacity="0.996078431372549" d="M 175.5 143 L 182 143.5 L 175.5 144 L 175.5 143 Z " /><path fill="rgb(110,177,118)" stroke="rgb(110,177,118)" stroke-width="1" opacity="0.996078431372549" d="M 199.5 143 L 207 143.5 L 199.5 144 L 199.5 143 Z " /><path fill="rgb(110,177,118)" stroke="rgb(110,177,118)" stroke-width="1" opacity="0.996078431372549" d="M 154.5 149 L 155.5 151 L 154.5 149 Z " /><path fill="rgb(110,177,118)" stroke="rgb(110,177,118)" stroke-width="1" opacity="0.996078431372549" d="M 279.5 170 L 277.5 173 L 279.5 170 Z " /><path fill="rgb(110,177,118)" stroke="rgb(110,177,118)" stroke-width="1" opacity="0.996078431372549" d="M 273.5 176 L 272.5 178 L 273.5 176 Z " /><path fill="rgb(110,177,118)" stroke="rgb(110,177,118)" stroke-width="1" opacity="0.996078431372549" d="M 261.5 187 L 264 188.5 L 262.5 189 L 261.5 187 Z " /><path fill="rgb(110,177,118)" stroke="rgb(110,177,118)" stroke-width="1" opacity="0.996078431372549" d="M 201.5 204 L 205 204.5 L 201.5 205 L 201.5 204 Z " /><path fill="rgb(110,177,118)" stroke="rgb(110,177,118)" stroke-width="1" opacity="0.996078431372549" d="M 189.5 207 L 193 207.5 L 189.5 208 L 189.5 207 Z " /><path fill="rgb(110,177,118)" stroke="rgb(110,177,118)" stroke-width="1" opacity="0.996078431372549" d="M 175.5 208 L 180 208.5 L 175.5 209 L 175.5 208 Z " /><path fill="rgb(110,177,118)" stroke="rgb(110,177,118)" stroke-width="1" opacity="0.996078431372549" d="M 203.5 211 L 204 213.5 L 201.5 215 L 201.5 214 Q 204.4 214.7 203.5 211 Z " /><path fill="rgb(110,177,118)" stroke="rgb(110,177,118)" stroke-width="1" opacity="0.996078431372549" d="M 203.5 218 L 207 218.5 L 203.5 219 L 203.5 218 Z " /><path fill="rgb(110,177,118)" stroke="rgb(110,177,118)" stroke-width="1" opacity="0.996078431372549" d="M 159.5 221 L 164 221.5 L 159.5 222 L 159.5 221 Z " /><path fill="rgb(110,177,118)" stroke="rgb(110,177,118)" stroke-width="1" opacity="0.996078431372549" d="M 182.5 221 L 181.5 223 L 182.5 221 Z " /><path fill="rgb(110,177,118)" stroke="rgb(110,177,118)" stroke-width="1" opacity="0.996078431372549" d="M 148.5 222 L 152 222.5 L 148.5 223 L 148.5 222 Z " /><path fill="rgb(110,177,118)" stroke="rgb(110,177,118)" stroke-width="1" opacity="0.996078431372549" d="M 171.5 222 L 174 222.5 L 171.5 223 L 171.5 222 Z " /><path fill="rgb(110,177,118)" stroke="rgb(110,177,118)" stroke-width="1" opacity="0.996078431372549" d="M 185.5 224 L 184.5 226 L 185.5 224 Z " /><path fill="rgb(110,177,118)" stroke="rgb(110,177,118)" stroke-width="1" opacity="0.996078431372549" d="M 182.5 227 L 183 229.5 L 182 229.5 L 182.5 227 Z " /><path fill="rgb(110,177,118)" stroke="rgb(110,177,118)" stroke-width="1" opacity="0.996078431372549" d="M 126.5 228 L 125.5 230 L 126.5 228 Z " /><path fill="rgb(110,177,118)" stroke="rgb(110,177,118)" stroke-width="1" opacity="0.996078431372549" d="M 129.5 229 L 128.5 231 L 129.5 229 Z " /><path fill="rgb(110,177,118)" stroke="rgb(110,177,118)" stroke-width="1" opacity="0.996078431372549" d="M 264.5 231 L 265.5 233 L 264.5 231 Z " /><path fill="rgb(110,177,118)" stroke="rgb(110,177,118)" stroke-width="1" opacity="0.996078431372549" d="M 121.5 232 L 119.5 235 L 121.5 232 Z " /><path fill="rgb(110,177,118)" stroke="rgb(110,177,118)" stroke-width="1" opacity="0.996078431372549" d="M 255.5 232 L 257 232.5 L 254.5 234 L 255.5 232 Z " /><path fill="rgb(110,177,118)" stroke="rgb(110,177,118)" stroke-width="1" opacity="0.996078431372549" d="M 183.5 233 L 184 235.5 L 183 235.5 L 183.5 233 Z " /><path fill="rgb(110,177,118)" stroke="rgb(110,177,118)" stroke-width="1" opacity="0.996078431372549" d="M 113.5 234 L 110.5 238 L 113.5 234 Z " /><path fill="rgb(110,177,118)" stroke="rgb(110,177,118)" stroke-width="1" opacity="0.996078431372549" d="M 243.5 234 L 251.5 243 L 243.5 234 Z " /><path fill="rgb(110,177,118)" stroke="rgb(110,177,118)" stroke-width="1" opacity="0.996078431372549" d="M 252.5 234 L 252 235.5 L 255 239.5 L 251 236.5 L 252.5 234 Z " /><path fill="rgb(110,177,118)" stroke="rgb(110,177,118)" stroke-width="1" opacity="0.996078431372549" d="M 264.5 236 L 268.5 241 L 264.5 236 Z " /><path fill="rgb(110,177,118)" stroke="rgb(110,177,118)" stroke-width="1" opacity="0.996078431372549" d="M 74.5 238 L 73.5 240 L 74.5 238 Z " /><path fill="rgb(110,177,118)" stroke="rgb(110,177,118)" stroke-width="1" opacity="0.996078431372549" d="M 275.5 239 L 274.5 241 L 275.5 239 Z " /><path fill="rgb(110,177,118)" stroke="rgb(110,177,118)" stroke-width="1" opacity="0.996078431372549" d="M 255.5 241 L 256.5 243 L 255.5 241 Z " /><path fill="rgb(110,177,118)" stroke="rgb(110,177,118)" stroke-width="1" opacity="0.996078431372549" d="M 268.5 243 L 269 249.5 L 268 249.5 L 268.5 243 Z " /><path fill="rgb(110,177,118)" stroke="rgb(110,177,118)" stroke-width="1" opacity="0.996078431372549" d="M 112.5 249 L 113 251.5 L 112 251.5 L 112.5 249 Z " /><path fill="rgb(110,177,118)" stroke="rgb(110,177,118)" stroke-width="1" opacity="0.996078431372549" d="M 261.5 256 L 262 259.5 L 261 259.5 L 261.5 256 Z " /><path fill="rgb(110,177,118)" stroke="rgb(110,177,118)" stroke-width="1" opacity="0.996078431372549" d="M 257.5 258 L 256.5 260 L 257.5 258 Z " /><path fill="rgb(110,177,118)" stroke="rgb(110,177,118)" stroke-width="1" opacity="0.996078431372549" d="M 180.5 265 L 179.5 267 L 180.5 265 Z " /><path fill="rgb(110,177,118)" stroke="rgb(110,177,118)" stroke-width="1" opacity="0.996078431372549" d="M 175.5 268 L 174.5 270 L 175.5 268 Z " /><path fill="rgb(110,177,118)" stroke="rgb(110,177,118)" stroke-width="1" opacity="0.996078431372549" d="M 104.5 269 L 103.5 271 L 104.5 269 Z " /><path fill="rgb(110,177,118)" stroke="rgb(110,177,118)" stroke-width="1" opacity="0.996078431372549" d="M 110.5 269 L 109.5 271 L 110.5 269 Z " /><path fill="rgb(110,177,118)" stroke="rgb(110,177,118)" stroke-width="1" opacity="0.996078431372549" d="M 172.5 270 L 171.5 272 L 172.5 270 Z " /><path fill="rgb(110,177,118)" stroke="rgb(110,177,118)" stroke-width="1" opacity="0.996078431372549" d="M 277.5 270 L 278.5 272 L 277.5 270 Z " /><path fill="rgb(110,177,118)" stroke="rgb(110,177,118)" stroke-width="1" opacity="0.996078431372549" d="M 272.5 271 L 274.5 274 L 272.5 271 Z " /><path fill="rgb(110,177,118)" stroke="rgb(110,177,118)" stroke-width="1" opacity="0.996078431372549" d="M 102.5 272 L 101.5 274 L 102.5 272 Z " /><path fill="rgb(110,177,118)" stroke="rgb(110,177,118)" stroke-width="1" opacity="0.996078431372549" d="M 106.5 272 L 99.5 280 L 106.5 272 Z " /><path fill="rgb(110,177,118)" stroke="rgb(110,177,118)" stroke-width="1" opacity="0.996078431372549" d="M 169.5 272 L 168.5 274 L 169.5 272 Z " /><path fill="rgb(110,177,118)" stroke="rgb(110,177,118)" stroke-width="1" opacity="0.996078431372549" d="M 279.5 273 L 281.5 276 L 279.5 273 Z " /><path fill="rgb(110,177,118)" stroke="rgb(110,177,118)" stroke-width="1" opacity="0.996078431372549" d="M 110.5 274 L 106.5 279 L 110.5 274 Z " /><path fill="rgb(110,177,118)" stroke="rgb(110,177,118)" stroke-width="1" opacity="0.996078431372549" d="M 166.5 274 L 165.5 276 L 166.5 274 Z " /><path fill="rgb(110,177,118)" stroke="rgb(110,177,118)" stroke-width="1" opacity="0.996078431372549" d="M 98.5 277 L 95.5 281 L 98.5 277 Z " /><path fill="rgb(110,177,118)" stroke="rgb(110,177,118)" stroke-width="1" opacity="0.996078431372549" d="M 162.5 277 L 161.5 279 L 162.5 277 Z " /><path fill="rgb(110,177,118)" stroke="rgb(110,177,118)" stroke-width="1" opacity="0.996078431372549" d="M 224.5 277 L 225 284.5 L 224 284.5 L 224.5 277 Z " /><path fill="rgb(110,177,118)" stroke="rgb(110,177,118)" stroke-width="1" opacity="0.996078431372549" d="M 284.5 279 L 290.5 284 L 293 284 Q 295.7 288.5 295 296 L 285.5 296 L 285 293.5 L 281 285.5 L 283 285.5 L 284.5 279 Z " /><path fill="rgb(110,177,118)" stroke="rgb(110,177,118)" stroke-width="1" opacity="0.996078431372549" d="M 104.5 280 L 102.5 283 L 104.5 280 Z " /><path fill="rgb(110,177,118)" stroke="rgb(110,177,118)" stroke-width="1" opacity="0.996078431372549" d="M 157.5 281 L 155.5 284 L 157.5 281 Z " /><path fill="rgb(110,177,118)" stroke="rgb(110,177,118)" stroke-width="1" opacity="0.996078431372549" d="M 92.5 282 L 91.5 284 L 92.5 282 Z " /><path fill="rgb(110,177,118)" stroke="rgb(110,177,118)" stroke-width="1" opacity="0.996078431372549" d="M 97.5 282 L 96.5 284 L 97.5 282 Z " /><path fill="rgb(110,177,118)" stroke="rgb(110,177,118)" stroke-width="1" opacity="0.996078431372549" d="M 143.5 283 L 144.5 285 L 143.5 283 Z " /><path fill="rgb(110,177,118)" stroke="rgb(110,177,118)" stroke-width="1" opacity="0.996078431372549" d="M 100.5 285 L 99.5 287 L 100.5 285 Z " /><path fill="rgb(110,177,118)" stroke="rgb(110,177,118)" stroke-width="1" opacity="0.996078431372549" d="M 148.5 289 L 149 310.5 L 148 310.5 L 148.5 289 Z " /><path fill="rgb(110,177,118)" stroke="rgb(110,177,118)" stroke-width="1" opacity="0.996078431372549" d="M 95.5 294 L 96 313.5 L 95 313.5 L 95.5 294 Z " /><path fill="rgb(110,177,118)" stroke="rgb(110,177,118)" stroke-width="1" opacity="0.996078431372549" d="M 225.5 294 L 226 299.5 L 225 299.5 L 225.5 294 Z " /><path fill="rgb(110,177,118)" stroke="rgb(110,177,118)" stroke-width="1" opacity="0.996078431372549" d="M 152.5 295 L 153 307.5 L 152 307.5 L 152.5 295 Z " /><path fill="rgb(110,177,118)" stroke="rgb(110,177,118)" stroke-width="1" opacity="0.996078431372549" d="M 285 300 L 296 300 L 296 304.5 L 297 305.5 L 297 315.5 L 296 316.5 L 295 330.5 L 290 347.5 L 278.5 368 L 267 366 L 269 353.5 L 269 331.5 L 277 322.5 Q 282.7 312.5 285 300 Z " /><path fill="rgb(110,177,118)" stroke="rgb(110,177,118)" stroke-width="1" opacity="0.996078431372549" d="M 226.5 305 L 227 308.5 L 226 308.5 L 226.5 305 Z " /><path fill="rgb(110,177,118)" stroke="rgb(110,177,118)" stroke-width="1" opacity="0.996078431372549" d="M 227.5 314 L 228 317.5 L 227 317.5 L 227.5 314 Z " /><path fill="rgb(110,177,118)" stroke="rgb(110,177,118)" stroke-width="1" opacity="0.996078431372549" d="M 153.5 316 L 154 320.5 L 153 320.5 L 153.5 316 Z " /><path fill="rgb(110,177,118)" stroke="rgb(110,177,118)" stroke-width="1" opacity="0.996078431372549" d="M 149.5 318 L 150 321.5 L 149 321.5 L 149.5 318 Z " /><path fill="rgb(110,177,118)" stroke="rgb(110,177,118)" stroke-width="1" opacity="0.996078431372549" d="M 227.5 320 L 226.5 322 L 227.5 320 Z " /><path fill="rgb(110,177,118)" stroke="rgb(110,177,118)" stroke-width="1" opacity="0.996078431372549" d="M 230.5 323 L 228.5 326 L 230.5 323 Z " /><path fill="rgb(110,177,118)" stroke="rgb(110,177,118)" stroke-width="1" opacity="0.996078431372549" d="M 223.5 325 L 217.5 332 L 223.5 325 Z " /><path fill="rgb(110,177,118)" stroke="rgb(110,177,118)" stroke-width="1" opacity="0.996078431372549" d="M 148.5 327 L 147.5 329 L 148.5 327 Z " /><path fill="rgb(110,177,118)" stroke="rgb(110,177,118)" stroke-width="1" opacity="0.996078431372549" d="M 145.5 329 L 143.5 332 L 145.5 329 Z " /><path fill="rgb(110,177,118)" stroke="rgb(110,177,118)" stroke-width="1" opacity="0.996078431372549" d="M 225.5 329 L 221.5 334 L 225.5 329 Z " /><path fill="rgb(110,177,118)" stroke="rgb(110,177,118)" stroke-width="1" opacity="0.996078431372549" d="M 253.5 330 L 263.5 332 L 265 333.5 L 265 352.5 L 264 353.5 L 263 364.5 L 253.5 375 Q 244.6 383.6 232.5 389 Q 227.5 392 218.5 391 L 199 385 L 198 380.5 L 198 365 Q 231.3 353.6 253.5 330 Z " /><path fill="rgb(110,177,118)" stroke="rgb(110,177,118)" stroke-width="1" opacity="0.996078431372549" d="M 214.5 333 L 213.5 335 L 214.5 333 Z " /><path fill="rgb(110,177,118)" stroke="rgb(110,177,118)" stroke-width="1" opacity="0.996078431372549" d="M 217.5 336 L 216.5 338 L 217.5 336 Z " /><path fill="rgb(110,177,118)" stroke="rgb(110,177,118)" stroke-width="1" opacity="0.996078431372549" d="M 101.5 338 L 102.5 340 L 101.5 338 Z " /><path fill="rgb(110,177,118)" stroke="rgb(110,177,118)" stroke-width="1" opacity="0.996078431372549" d="M 104.5 340 L 105.5 342 L 104.5 340 Z " /><path fill="rgb(110,177,118)" stroke="rgb(110,177,118)" stroke-width="1" opacity="0.996078431372549" d="M 98.5 341 L 97.5 343 L 98.5 341 Z " /><path fill="rgb(110,177,118)" stroke="rgb(110,177,118)" stroke-width="1" opacity="0.996078431372549" d="M 107.5 342 L 108.5 344 L 107.5 342 Z " /><path fill="rgb(110,177,118)" stroke="rgb(110,177,118)" stroke-width="1" opacity="0.996078431372549" d="M 132.5 342 L 129.5 346 L 132.5 342 Z " /><path fill="rgb(110,177,118)" stroke="rgb(110,177,118)" stroke-width="1" opacity="0.996078431372549" d="M 101.5 343 L 102.5 345 L 101.5 343 Z " /><path fill="rgb(110,177,118)" stroke="rgb(110,177,118)" stroke-width="1" opacity="0.996078431372549" d="M 95.5 345 L 94.5 347 L 95.5 345 Z " /><path fill="rgb(110,177,118)" stroke="rgb(110,177,118)" stroke-width="1" opacity="0.996078431372549" d="M 104.5 345 L 105.5 347 L 104.5 345 Z " /><path fill="rgb(110,177,118)" stroke="rgb(110,177,118)" stroke-width="1" opacity="0.996078431372549" d="M 318.5 347 L 319 353.5 L 318 353.5 L 318.5 347 Z " /><path fill="rgb(110,177,118)" stroke="rgb(110,177,118)" stroke-width="1" opacity="0.996078431372549" d="M 127.5 348 L 126.5 350 L 127.5 348 Z " /><path fill="rgb(110,177,118)" stroke="rgb(110,177,118)" stroke-width="1" opacity="0.996078431372549" d="M 111.5 349 L 112.5 351 L 111.5 349 Z " /><path fill="rgb(110,177,118)" stroke="rgb(110,177,118)" stroke-width="1" opacity="0.996078431372549" d="M 198.5 349 L 199 361.5 L 198 361.5 L 198.5 349 Z " /><path fill="rgb(110,177,118)" stroke="rgb(110,177,118)" stroke-width="1" opacity="0.996078431372549" d="M 122.5 355 L 123.5 357 L 122.5 355 Z " /><path fill="rgb(110,177,118)" stroke="rgb(110,177,118)" stroke-width="1" opacity="0.996078431372549" d="M 318.5 358 L 319 364.5 L 318 364.5 L 318.5 358 Z " /><path fill="rgb(110,177,118)" stroke="rgb(110,177,118)" stroke-width="1" opacity="0.996078431372549" d="M 102.5 367 L 103.5 369 L 102.5 367 Z " /><path fill="rgb(110,177,118)" stroke="rgb(110,177,118)" stroke-width="1" opacity="0.996078431372549" d="M 104.5 370 L 106.5 373 L 104.5 370 Z " /><path fill="rgb(110,177,118)" stroke="rgb(110,177,118)" stroke-width="1" opacity="0.996078431372549" d="M 108.5 375 L 113.5 380 L 129.5 380 Q 131 377.5 136.5 379 L 147 389.5 L 147 391.5 L 146 394 L 117.5 385 L 108.5 375 Z " /><path fill="rgb(110,177,118)" stroke="rgb(110,177,118)" stroke-width="1" opacity="0.996078431372549" d="M 133.5 375 L 135.5 378 L 133.5 375 Z " /><path fill="rgb(110,177,118)" stroke="rgb(110,177,118)" stroke-width="1" opacity="0.996078431372549" d="M 272.5 381 L 270.5 384 L 272.5 381 Z " /><path fill="rgb(110,177,118)" stroke="rgb(110,177,118)" stroke-width="1" opacity="0.996078431372549" d="M 267.5 386 L 265.5 389 L 267.5 386 Z " /><path fill="rgb(110,177,118)" stroke="rgb(110,177,118)" stroke-width="1" opacity="0.996078431372549" d="M 193.5 388 L 198.5 388 L 212.5 394 L 222 395 Q 222.7 405 217.5 410 L 202.5 413 L 178.5 413 L 167.5 411 L 150 396.5 L 151.5 391 L 152.5 392 L 174.5 392 L 193.5 388 Z " /><path fill="rgb(110,177,118)" stroke="rgb(110,177,118)" stroke-width="1" opacity="0.996078431372549" d="M 371.5 417 L 370.5 419 L 371.5 417 Z " /><path fill="rgb(110,177,118)" stroke="rgb(110,177,118)" stroke-width="1" opacity="0.996078431372549" d="M 426.5 432 L 425.5 434 L 426.5 432 Z " /><path fill="rgb(110,177,118)" stroke="rgb(110,177,118)" stroke-width="1" opacity="0.996078431372549" d="M 274.5 453 L 275 455.5 L 274 455.5 L 274.5 453 Z " /><path fill="rgb(110,177,118)" stroke="rgb(110,177,118)" stroke-width="1" opacity="0.996078431372549" d="M 288.5 456 L 287.5 458 L 288.5 456 Z " /><path fill="rgb(110,177,118)" stroke="rgb(110,177,118)" stroke-width="1" opacity="0.996078431372549" d="M 292.5 457 L 291.5 459 L 292.5 457 Z " /><path fill="rgb(110,177,118)" stroke="rgb(110,177,118)" stroke-width="1" opacity="0.996078431372549" d="M 153.5 463 L 154 465.5 L 153 465.5 L 153.5 463 Z " /><path fill="rgb(110,177,118)" stroke="rgb(110,177,118)" stroke-width="1" opacity="0.996078431372549" d="M 330.5 469 L 340 469.5 L 330.5 470 L 330.5 469 Z " /></svg>