<svg width="512" height="512" version="1.1" xmlns="http://www.w3.org/2000/svg" desc="Created with imagetracer.js version 1.2.6" ><path fill="rgb(224,224,223)" stroke="rgb(224,224,223)" stroke-width="1" opacity="1" d="M 228.5 109 L 229.5 111 L 228.5 109 Z " /><path fill="rgb(224,224,223)" stroke="rgb(224,224,223)" stroke-width="1" opacity="1" d="M 153.5 127 L 152.5 129 L 153.5 127 Z " /><path fill="rgb(224,224,223)" stroke="rgb(224,224,223)" stroke-width="1" opacity="1" d="M 287.5 127 L 288.5 129 L 287.5 127 Z " /><path fill="rgb(224,224,223)" stroke="rgb(224,224,223)" stroke-width="1" opacity="1" d="M 216.5 139 L 215.5 141 L 216.5 139 Z " /><path fill="rgb(224,224,223)" stroke="rgb(224,224,223)" stroke-width="1" opacity="1" d="M 220.5 142 L 219.5 144 L 220.5 142 Z " /><path fill="rgb(224,224,223)" stroke="rgb(224,224,223)" stroke-width="1" opacity="1" d="M 367 163 L 380.5 163 L 392.5 167 Q 406.5 174 416 185.5 Q 423.6 194.4 428 206.5 L 426.5 206 L 404.5 197 L 400.5 198 L 400.5 197 Q 404.9 198.5 404 195.5 Q 397.2 184.3 387.5 176 Q 379 168.1 367 165 L 367 163 Z " /><path fill="rgb(224,224,223)" stroke="rgb(224,224,223)" stroke-width="1" opacity="1" d="M 129.5 165 L 130.5 167 L 129.5 165 Z " /><path fill="rgb(224,224,223)" stroke="rgb(224,224,223)" stroke-width="1" opacity="1" d="M 387.5 196 L 396 196.5 L 387.5 197 L 387.5 196 Z " /><path fill="rgb(224,224,223)" stroke="rgb(224,224,223)" stroke-width="1" opacity="1" d="M 379.5 197 L 383 197.5 L 379.5 198 L 379.5 197 Z " /><path fill="rgb(224,224,223)" stroke="rgb(224,224,223)" stroke-width="1" opacity="1" d="M 374.5 198 L 377 198.5 L 374.5 199 L 374.5 198 Z " /><path fill="rgb(224,224,223)" stroke="rgb(224,224,223)" stroke-width="1" opacity="1" d="M 383.5 216 L 387 216.5 L 383.5 217 L 383.5 216 Z " /><path fill="rgb(224,224,223)" stroke="rgb(224,224,223)" stroke-width="1" opacity="1" d="M 396.5 216 L 400 216.5 L 396.5 217 L 396.5 216 Z " /><path fill="rgb(224,224,223)" stroke="rgb(224,224,223)" stroke-width="1" opacity="1" d="M 402.5 217 L 405 217.5 L 402.5 218 L 402.5 217 Z " /><path fill="rgb(224,224,223)" stroke="rgb(224,224,223)" stroke-width="1" opacity="1" d="M 414 222 L 419.5 224 L 432 234.5 Q 434.8 236.2 434 241.5 L 433 242.5 L 432 254.5 L 427 270.5 L 419.5 284 L 417 282.5 L 409 269.5 L 412 262.5 L 415 248.5 L 415 225.5 L 414 222 Z " /><path fill="rgb(224,224,223)" stroke="rgb(224,224,223)" stroke-width="1" opacity="1" d="M 391.5 254 L 392.5 256 L 391.5 254 Z " /><path fill="rgb(224,224,223)" stroke="rgb(224,224,223)" stroke-width="1" opacity="1" d="M 394.5 256 L 395.5 258 L 394.5 256 Z " /><path fill="rgb(224,224,223)" stroke="rgb(224,224,223)" stroke-width="1" opacity="1" d="M 397.5 258 L 399.5 261 L 397.5 258 Z " /><path fill="rgb(224,224,223)" stroke="rgb(224,224,223)" stroke-width="1" opacity="1" d="M 402.5 262 L 407.5 268 L 402.5 262 Z " /><path fill="rgb(224,224,223)" stroke="rgb(224,224,223)" stroke-width="1" opacity="1" d="M 377.5 269 L 382 271.5 L 380.5 271 Q 376.8 270.8 377.5 269 Z " /><path fill="rgb(224,224,223)" stroke="rgb(224,224,223)" stroke-width="1" opacity="1" d="M 386.5 274 L 388.5 277 L 386.5 274 Z " /><path fill="rgb(224,224,223)" stroke="rgb(224,224,223)" stroke-width="1" opacity="1" d="M 393.5 281 L 395.5 284 L 393.5 281 Z " /><path fill="rgb(224,224,223)" stroke="rgb(224,224,223)" stroke-width="1" opacity="1" d="M 101.5 287 L 102 289.5 L 101 289.5 L 101.5 287 Z " /><path fill="rgb(224,224,223)" stroke="rgb(224,224,223)" stroke-width="1" opacity="1" d="M 398.5 288 L 404 298.5 L 405 303.5 L 386.5 320 L 379 320 L 381 312.5 Q 391.8 302.8 399 289.5 L 398.5 288 Z " /><path fill="rgb(224,224,223)" stroke="rgb(224,224,223)" stroke-width="1" opacity="1" d="M 100.5 292 L 101 297.5 L 100 298.5 L 99 320 Q 94.5 321.8 96 316.5 L 100.5 292 Z " /><path fill="rgb(224,224,223)" stroke="rgb(224,224,223)" stroke-width="1" opacity="1" d="M 274.5 296 L 271.5 300 L 274.5 296 Z " /><path fill="rgb(224,224,223)" stroke="rgb(224,224,223)" stroke-width="1" opacity="1" d="M 201.5 306 L 203.5 309 L 201.5 306 Z " /><path fill="rgb(0,0,0)" stroke="rgb(0,0,0)" stroke-width="1" opacity="0" d="M 0 0 L 512 0 L 512 512 L 0 512 L 0 0 Z M 120 10 L 118 11 L 115 15 L 115 70 L 112 82 L 110 101 L 109 102 L 109 110 L 108 111 L 109 132 L 115 152 Q 123 170 138 182 L 128 198 L 111 236 L 99 276 L 94 279 L 87 287 L 86 291 Q 73 289 67 295 Q 55 302 56 320 L 49 322 Q 43 324 42 331 L 42 367 L 44 370 Q 47 375 55 376 L 73 376 L 97 482 L 106 496 L 120 502 L 409 502 L 419 498 L 424 494 Q 429 488 432 479 L 455 376 L 474 376 L 480 374 Q 485 372 486 366 L 486 330 L 484 325 L 476 320 L 461 320 L 460 319 L 461 316 L 458 308 Q 454 301 445 299 L 437 300 L 432 302 L 430 298 L 420 293 L 432 272 L 437 255 L 438 243 L 439 242 L 438 222 L 434 207 Q 429 192 419 182 Q 405 165 382 158 Q 365 156 358 162 Q 352 166 351 174 L 351 178 L 354 187 L 370 212 L 376 233 L 376 253 L 374 262 L 368 276 L 363 283 L 362 284 Q 350 283 345 287 L 340 267 L 328 231 L 314 200 L 304 183 L 304 181 L 318 166 L 325 154 L 331 137 L 332 125 L 333 124 L 332 102 L 331 101 L 329 82 L 326 71 L 326 15 L 325 13 L 322 10 L 314 11 L 286 34 L 261 27 L 256 27 L 250 25 L 242 25 L 241 24 L 201 24 L 200 25 L 192 25 L 165 31 L 158 34 L 152 31 L 128 11 L 120 10 Z M 378 83 L 368 88 Q 362 92 360 101 Q 359 112 363 118 L 370 124 L 382 128 L 392 126 L 398 122 L 403 115 L 405 106 L 404 99 L 401 93 Q 395 82 378 83 Z M 37 97 L 33 99 L 26 108 Q 25 118 29 123 Q 32 127 38 128 Q 48 129 53 124 L 57 117 Q 58 108 55 104 Q 51 95 37 97 Z M 464 148 L 460 150 Q 453 153 452 162 L 452 167 L 456 175 L 463 179 L 468 180 Q 475 179 480 175 L 484 167 L 484 162 L 482 156 L 473 148 L 464 148 Z M 68 188 L 58 192 Q 50 197 48 208 L 48 214 L 51 223 Q 56 231 68 233 L 75 233 L 84 229 Q 91 224 93 214 Q 93 203 89 198 Q 83 188 68 188 Z " /><path fill="rgb(234,234,233)" stroke="rgb(234,234,233)" stroke-width="1" opacity="1" d="M 128.5 18 L 129.5 20 L 128.5 18 Z " /><path fill="rgb(234,234,233)" stroke="rgb(234,234,233)" stroke-width="1" opacity="1" d="M 169.5 82 L 168.5 84 L 169.5 82 Z " /><path fill="rgb(234,234,233)" stroke="rgb(234,234,233)" stroke-width="1" opacity="1" d="M 178.5 82 L 179.5 84 L 178.5 82 Z " /><path fill="rgb(234,234,233)" stroke="rgb(234,234,233)" stroke-width="1" opacity="1" d="M 224.5 139 L 225.5 141 L 224.5 139 Z " /><path fill="rgb(234,234,233)" stroke="rgb(234,234,233)" stroke-width="1" opacity="1" d="M 310.5 166 L 309.5 168 L 310.5 166 Z " /><path fill="rgb(234,234,233)" stroke="rgb(234,234,233)" stroke-width="1" opacity="1" d="M 373.5 167 L 376 168.5 L 374.5 169 L 373.5 167 Z " /><path fill="rgb(234,234,233)" stroke="rgb(234,234,233)" stroke-width="1" opacity="1" d="M 380.5 171 L 381.5 173 L 380.5 171 Z " /><path fill="rgb(234,234,233)" stroke="rgb(234,234,233)" stroke-width="1" opacity="1" d="M 383.5 173 L 385.5 176 L 383.5 173 Z " /><path fill="rgb(234,234,233)" stroke="rgb(234,234,233)" stroke-width="1" opacity="1" d="M 387.5 176 L 395.5 185 L 387.5 176 Z " /><path fill="rgb(234,234,233)" stroke="rgb(234,234,233)" stroke-width="1" opacity="1" d="M 398.5 188 L 399.5 190 L 398.5 188 Z " /><path fill="rgb(234,234,233)" stroke="rgb(234,234,233)" stroke-width="1" opacity="1" d="M 396.5 196 L 399 196.5 L 396.5 197 L 396.5 196 Z " /><path fill="rgb(234,234,233)" stroke="rgb(234,234,233)" stroke-width="1" opacity="1" d="M 387.5 216 L 392 216.5 L 387.5 217 L 387.5 216 Z " /><path fill="rgb(234,234,233)" stroke="rgb(234,234,233)" stroke-width="1" opacity="1" d="M 393.5 216 L 396 216.5 L 393.5 217 L 393.5 216 Z " /><path fill="rgb(234,234,233)" stroke="rgb(234,234,233)" stroke-width="1" opacity="1" d="M 414.5 225 L 415 227.5 L 414 227.5 L 414.5 225 Z " /><path fill="rgb(234,234,233)" stroke="rgb(234,234,233)" stroke-width="1" opacity="1" d="M 414.5 246 L 415 248.5 L 414 248.5 L 414.5 246 Z " /><path fill="rgb(234,234,233)" stroke="rgb(234,234,233)" stroke-width="1" opacity="1" d="M 399.5 259 L 401.5 262 L 399.5 259 Z " /><path fill="rgb(234,234,233)" stroke="rgb(234,234,233)" stroke-width="1" opacity="1" d="M 384.5 273 L 385.5 275 L 384.5 273 Z " /><path fill="rgb(234,234,233)" stroke="rgb(234,234,233)" stroke-width="1" opacity="1" d="M 389.5 277 L 392.5 281 L 389.5 277 Z " /><path fill="rgb(234,234,233)" stroke="rgb(234,234,233)" stroke-width="1" opacity="1" d="M 395.5 284 L 396.5 286 L 395.5 284 Z " /><path fill="rgb(234,234,233)" stroke="rgb(234,234,233)" stroke-width="1" opacity="1" d="M 101.5 290 L 102 292.5 L 101 292.5 L 101.5 290 Z " /><path fill="rgb(234,234,233)" stroke="rgb(234,234,233)" stroke-width="1" opacity="1" d="M 397.5 292 L 395.5 295 L 397.5 292 Z " /><path fill="rgb(234,234,233)" stroke="rgb(234,234,233)" stroke-width="1" opacity="1" d="M 394.5 296 L 393.5 298 L 394.5 296 Z " /><path fill="rgb(234,234,233)" stroke="rgb(234,234,233)" stroke-width="1" opacity="1" d="M 100.5 298 L 101 302.5 L 100 302.5 L 100.5 298 Z " /><path fill="rgb(234,234,233)" stroke="rgb(234,234,233)" stroke-width="1" opacity="1" d="M 150.5 300 L 148.5 303 L 150.5 300 Z " /><path fill="rgb(234,234,233)" stroke="rgb(234,234,233)" stroke-width="1" opacity="1" d="M 391.5 300 L 387.5 305 L 391.5 300 Z " /><path fill="rgb(234,234,233)" stroke="rgb(234,234,233)" stroke-width="1" opacity="1" d="M 384.5 308 L 381.5 312 L 384.5 308 Z " /><path fill="rgb(234,234,233)" stroke="rgb(234,234,233)" stroke-width="1" opacity="1" d="M 99.5 309 L 100 315.5 L 99 315.5 L 99.5 309 Z " /><path fill="rgb(234,234,234)" stroke="rgb(234,234,234)" stroke-width="1" opacity="1" d="M 121.5 15 L 125.5 16 L 149.5 36 L 156.5 40 L 169.5 35 L 192.5 30 Q 198.8 31.8 200.5 29 L 240.5 29 L 241.5 30 L 259.5 32 L 285.5 40 L 315.5 16 L 319.5 15 L 321 16.5 L 321 70.5 L 324 81.5 L 326 100.5 L 327 101.5 L 328 123.5 L 324 142.5 L 317 157.5 Q 310.2 168.7 300.5 177 L 290 184.5 Q 288.2 190.2 294.5 188 L 300 185 Q 313.5 207.8 324 234.5 L 333 260.5 L 338 281.5 L 333.5 278 Q 327.2 272.3 313.5 274 L 305.5 277 L 300 281 L 295 291 L 290.5 290 L 278.5 293 L 270 300.5 Q 264.3 307.1 266 320 L 208.5 320 L 208 316.5 Q 205.9 309.1 200.5 305 Q 195.3 300.2 183.5 302 L 182 302.5 Q 182.8 300.3 180.5 301 Q 175 293.5 160.5 295 Q 152.8 297.3 148 302.5 L 146.5 305 Q 142.1 299.9 130.5 302 Q 122.6 304.1 119 310.5 L 116 320 L 99.5 320 L 99 316.5 L 100 315.5 L 100 303.5 L 101 302.5 L 102 285.5 L 108 260.5 Q 121 218.8 141 185 L 146.5 188 L 149.5 188 L 151 185.5 L 150 183 Q 139.2 178.1 132 168.5 Q 122.4 157.6 117 142.5 L 113 123.5 L 113 111.5 L 114 110.5 L 114 101.5 L 115 100.5 L 117 81.5 L 120 70.5 L 120 16.5 L 121.5 15 Z M 172 81 L 170 82 L 167 86 L 168 92 L 171 94 L 175 95 L 178 94 L 181 90 L 180 84 Q 178 80 172 81 Z M 267 81 L 263 85 Q 262 91 264 93 L 270 95 L 273 94 Q 278 93 276 85 Q 275 79 267 81 Z M 215 108 L 210 112 Q 209 120 212 124 L 218 128 L 217 139 L 214 142 L 204 142 L 202 144 L 204 147 Q 216 149 221 143 L 227 147 L 238 147 L 239 145 L 238 142 L 228 142 L 223 138 L 223 129 L 225 128 Q 229 125 231 119 L 230 111 L 227 108 L 215 108 Z M 154 127 L 152 131 L 156 133 L 181 140 Q 188 143 186 137 L 185 135 L 154 127 Z M 285 127 L 257 136 L 255 136 L 255 140 L 261 140 L 288 132 L 289 129 Q 288 126 285 127 Z M 180 148 L 179 149 L 154 152 L 152 154 L 154 157 L 186 153 L 186 148 L 180 148 Z M 255 148 L 255 153 L 288 157 L 289 154 L 283 151 L 255 148 Z " /><path fill="rgb(234,234,234)" stroke="rgb(234,234,234)" stroke-width="1" opacity="1" d="M 364.5 164 Q 385.5 171.5 398 187.5 L 404 196.5 L 399.5 197 L 398.5 196 L 385.5 196 L 384.5 197 L 373.5 198 L 369.5 200 L 360 186.5 Q 356.2 181.8 356 173.5 L 362.5 165 L 364.5 164 Z " /><path fill="rgb(234,234,234)" stroke="rgb(234,234,234)" stroke-width="1" opacity="1" d="M 392.5 216 L 393.5 217 L 404.5 218 L 414 222.5 Q 412.8 227.3 415 228.5 L 415 245.5 L 410 268 L 408.5 268 L 399.5 259 L 381 248.5 L 381 232.5 L 378 218 Q 382.9 216.2 391.5 217 L 392.5 216 Z " /><path fill="rgb(234,234,234)" stroke="rgb(234,234,234)" stroke-width="1" opacity="1" d="M 376.5 270 L 382.5 272 L 395 283.5 L 399 289.5 Q 391.8 301.8 381.5 311 L 380 299.5 L 370.5 288 L 367 287 L 376.5 270 Z " /><path fill="rgb(206,208,210)" stroke="rgb(206,208,210)" stroke-width="1" opacity="1" d="M 119.5 16 L 120 69.5 L 119 69.5 L 119.5 16 Z " /><path fill="rgb(206,208,210)" stroke="rgb(206,208,210)" stroke-width="1" opacity="1" d="M 126.5 16 L 127.5 18 L 126.5 16 Z " /><path fill="rgb(206,208,210)" stroke="rgb(206,208,210)" stroke-width="1" opacity="1" d="M 314.5 16 L 313.5 18 L 314.5 16 Z " /><path fill="rgb(206,208,210)" stroke="rgb(206,208,210)" stroke-width="1" opacity="1" d="M 321.5 16 L 322 69.5 L 321 69.5 L 321.5 16 Z " /><path fill="rgb(206,208,210)" stroke="rgb(206,208,210)" stroke-width="1" opacity="1" d="M 131.5 20 L 132.5 22 L 131.5 20 Z " /><path fill="rgb(206,208,210)" stroke="rgb(206,208,210)" stroke-width="1" opacity="1" d="M 309.5 20 L 308.5 22 L 309.5 20 Z " /><path fill="rgb(206,208,210)" stroke="rgb(206,208,210)" stroke-width="1" opacity="1" d="M 136.5 24 L 137.5 26 L 136.5 24 Z " /><path fill="rgb(206,208,210)" stroke="rgb(206,208,210)" stroke-width="1" opacity="1" d="M 304.5 24 L 303.5 26 L 304.5 24 Z " /><path fill="rgb(206,208,210)" stroke="rgb(206,208,210)" stroke-width="1" opacity="1" d="M 141.5 28 L 142.5 30 L 141.5 28 Z " /><path fill="rgb(206,208,210)" stroke="rgb(206,208,210)" stroke-width="1" opacity="1" d="M 208.5 28 L 233 28.5 L 208.5 29 L 208.5 28 Z " /><path fill="rgb(206,208,210)" stroke="rgb(206,208,210)" stroke-width="1" opacity="1" d="M 299.5 28 L 298.5 30 L 299.5 28 Z " /><path fill="rgb(206,208,210)" stroke="rgb(206,208,210)" stroke-width="1" opacity="1" d="M 196.5 29 L 199 29.5 L 196.5 30 L 196.5 29 Z " /><path fill="rgb(206,208,210)" stroke="rgb(206,208,210)" stroke-width="1" opacity="1" d="M 242.5 29 L 245 29.5 L 242.5 30 L 242.5 29 Z " /><path fill="rgb(206,208,210)" stroke="rgb(206,208,210)" stroke-width="1" opacity="1" d="M 146.5 32 L 147.5 34 L 146.5 32 Z " /><path fill="rgb(206,208,210)" stroke="rgb(206,208,210)" stroke-width="1" opacity="1" d="M 294.5 32 L 293.5 34 L 294.5 32 Z " /><path fill="rgb(206,208,210)" stroke="rgb(206,208,210)" stroke-width="1" opacity="1" d="M 151.5 36 L 152.5 38 L 151.5 36 Z " /><path fill="rgb(206,208,210)" stroke="rgb(206,208,210)" stroke-width="1" opacity="1" d="M 289.5 36 L 288.5 38 L 289.5 36 Z " /><path fill="rgb(206,208,210)" stroke="rgb(206,208,210)" stroke-width="1" opacity="1" d="M 265.5 82 L 264.5 84 L 265.5 82 Z " /><path fill="rgb(206,208,210)" stroke="rgb(206,208,210)" stroke-width="1" opacity="1" d="M 273.5 82 L 274.5 84 L 273.5 82 Z " /><path fill="rgb(206,208,210)" stroke="rgb(206,208,210)" stroke-width="1" opacity="1" d="M 167.5 86 L 168 88.5 L 167 88.5 L 167.5 86 Z " /><path fill="rgb(206,208,210)" stroke="rgb(206,208,210)" stroke-width="1" opacity="1" d="M 180.5 86 L 181 88.5 L 180 88.5 L 180.5 86 Z " /><path fill="rgb(206,208,210)" stroke="rgb(206,208,210)" stroke-width="1" opacity="1" d="M 168.5 91 L 169.5 93 L 168.5 91 Z " /><path fill="rgb(206,208,210)" stroke="rgb(206,208,210)" stroke-width="1" opacity="1" d="M 394.5 92 L 395.5 94 L 394.5 92 Z " /><path fill="rgb(206,208,210)" stroke="rgb(206,208,210)" stroke-width="1" opacity="1" d="M 52.5 111 L 53 113.5 L 52 113.5 L 52.5 111 Z " /><path fill="rgb(206,208,210)" stroke="rgb(206,208,210)" stroke-width="1" opacity="1" d="M 227.5 124 L 225.5 127 L 227.5 124 Z " /><path fill="rgb(206,208,210)" stroke="rgb(206,208,210)" stroke-width="1" opacity="1" d="M 214.5 125 L 215.5 127 L 214.5 125 Z " /><path fill="rgb(206,208,210)" stroke="rgb(206,208,210)" stroke-width="1" opacity="1" d="M 327.5 125 L 328 127.5 L 327 127.5 L 327.5 125 Z " /><path fill="rgb(206,208,210)" stroke="rgb(206,208,210)" stroke-width="1" opacity="1" d="M 152.5 129 L 154 131.5 L 152 130.5 L 152.5 129 Z " /><path fill="rgb(206,208,210)" stroke="rgb(206,208,210)" stroke-width="1" opacity="1" d="M 153.5 152 L 152.5 154 L 153.5 152 Z " /><path fill="rgb(206,208,210)" stroke="rgb(206,208,210)" stroke-width="1" opacity="1" d="M 287.5 152 L 288.5 154 L 287.5 152 Z " /><path fill="rgb(206,208,210)" stroke="rgb(206,208,210)" stroke-width="1" opacity="1" d="M 152.5 155 L 153.5 157 L 152.5 155 Z " /><path fill="rgb(206,208,210)" stroke="rgb(206,208,210)" stroke-width="1" opacity="1" d="M 288.5 155 L 287.5 157 L 288.5 155 Z " /><path fill="rgb(206,208,210)" stroke="rgb(206,208,210)" stroke-width="1" opacity="1" d="M 460.5 155 L 459.5 157 L 460.5 155 Z " /><path fill="rgb(206,208,210)" stroke="rgb(206,208,210)" stroke-width="1" opacity="1" d="M 371.5 162 L 376 162.5 L 371.5 163 L 371.5 162 Z " /><path fill="rgb(206,208,210)" stroke="rgb(206,208,210)" stroke-width="1" opacity="1" d="M 132.5 169 L 139.5 177 L 132.5 169 Z " /><path fill="rgb(206,208,210)" stroke="rgb(206,208,210)" stroke-width="1" opacity="1" d="M 308.5 169 L 301.5 177 L 308.5 169 Z " /><path fill="rgb(206,208,210)" stroke="rgb(206,208,210)" stroke-width="1" opacity="1" d="M 404.5 174 L 405.5 176 L 404.5 174 Z " /><path fill="rgb(206,208,210)" stroke="rgb(206,208,210)" stroke-width="1" opacity="1" d="M 143.5 179 L 144.5 181 L 143.5 179 Z " /><path fill="rgb(206,208,210)" stroke="rgb(206,208,210)" stroke-width="1" opacity="1" d="M 297.5 179 L 296.5 181 L 297.5 179 Z " /><path fill="rgb(206,208,210)" stroke="rgb(206,208,210)" stroke-width="1" opacity="1" d="M 416.5 186 L 417.5 188 L 416.5 186 Z " /><path fill="rgb(206,208,210)" stroke="rgb(206,208,210)" stroke-width="1" opacity="1" d="M 419.5 190 L 420.5 192 L 419.5 190 Z " /><path fill="rgb(206,208,210)" stroke="rgb(206,208,210)" stroke-width="1" opacity="1" d="M 58.5 197 L 57.5 199 L 58.5 197 Z " /><path fill="rgb(206,208,210)" stroke="rgb(206,208,210)" stroke-width="1" opacity="1" d="M 383.5 197 L 406.5 198 L 421.5 203 L 427.5 207 L 429 206.5 L 433 220.5 L 434 236.5 L 432 235.5 L 430.5 233 Q 422.1 224.4 410.5 219 L 399.5 216 L 383.5 216 L 377 218 Q 374.5 207.5 368 199.5 L 369.5 200 L 383.5 197 Z " /><path fill="rgb(206,208,210)" stroke="rgb(206,208,210)" stroke-width="1" opacity="1" d="M 57.5 222 L 58.5 224 L 57.5 222 Z " /><path fill="rgb(206,208,210)" stroke="rgb(206,208,210)" stroke-width="1" opacity="1" d="M 380.5 233 L 381 235.5 L 380 235.5 L 380.5 233 Z " /><path fill="rgb(206,208,210)" stroke="rgb(206,208,210)" stroke-width="1" opacity="1" d="M 433.5 242 L 434 244.5 L 433 244.5 L 433.5 242 Z " /><path fill="rgb(206,208,210)" stroke="rgb(206,208,210)" stroke-width="1" opacity="1" d="M 380.5 249 L 396.5 258 L 411 271.5 L 418.5 284 L 420 284.5 Q 411.6 299.1 399.5 310 L 405 303.5 Q 400.6 283.9 386.5 274 L 376 268.5 L 380 256.5 L 380.5 249 Z " /><path fill="rgb(206,208,210)" stroke="rgb(206,208,210)" stroke-width="1" opacity="1" d="M 304.5 278 L 303.5 280 L 304.5 278 Z " /><path fill="rgb(206,208,210)" stroke="rgb(206,208,210)" stroke-width="1" opacity="1" d="M 335.5 280 Q 337.3 283.1 339 281.5 L 337.5 283 L 335.5 280 Z " /><path fill="rgb(206,208,210)" stroke="rgb(206,208,210)" stroke-width="1" opacity="1" d="M 299.5 283 L 298.5 285 L 299.5 283 Z " /><path fill="rgb(206,208,210)" stroke="rgb(206,208,210)" stroke-width="1" opacity="1" d="M 305.5 283 L 303.5 286 L 305.5 283 Z " /><path fill="rgb(206,208,210)" stroke="rgb(206,208,210)" stroke-width="1" opacity="1" d="M 371.5 289 L 372.5 291 L 371.5 289 Z " /><path fill="rgb(206,208,210)" stroke="rgb(206,208,210)" stroke-width="1" opacity="1" d="M 374.5 292 L 375.5 294 L 374.5 292 Z " /><path fill="rgb(206,208,210)" stroke="rgb(206,208,210)" stroke-width="1" opacity="1" d="M 369.5 293 L 371.5 296 L 369.5 293 Z " /><path fill="rgb(206,208,210)" stroke="rgb(206,208,210)" stroke-width="1" opacity="1" d="M 78.5 295 L 84 295.5 L 78.5 296 L 78.5 295 Z " /><path fill="rgb(206,208,210)" stroke="rgb(206,208,210)" stroke-width="1" opacity="1" d="M 416.5 297 L 415.5 299 L 416.5 297 Z " /><path fill="rgb(206,208,210)" stroke="rgb(206,208,210)" stroke-width="1" opacity="1" d="M 67.5 300 L 65.5 303 L 67.5 300 Z " /><path fill="rgb(206,208,210)" stroke="rgb(206,208,210)" stroke-width="1" opacity="1" d="M 412.5 302 L 410.5 305 L 412.5 302 Z " /><path fill="rgb(206,208,210)" stroke="rgb(206,208,210)" stroke-width="1" opacity="1" d="M 154.5 303 L 151.5 307 L 154.5 303 Z " /><path fill="rgb(206,208,210)" stroke="rgb(206,208,210)" stroke-width="1" opacity="1" d="M 176.5 303 L 180.5 308 L 176.5 303 Z " /><path fill="rgb(206,208,210)" stroke="rgb(206,208,210)" stroke-width="1" opacity="1" d="M 186.5 306 L 191 306.5 L 186.5 307 L 186.5 306 Z " /><path fill="rgb(206,208,210)" stroke="rgb(206,208,210)" stroke-width="1" opacity="1" d="M 376.5 306 L 377 311.5 L 376 311.5 L 376.5 306 Z " /><path fill="rgb(206,208,210)" stroke="rgb(206,208,210)" stroke-width="1" opacity="1" d="M 451.5 307 L 452.5 309 L 451.5 307 Z " /><path fill="rgb(206,208,210)" stroke="rgb(206,208,210)" stroke-width="1" opacity="1" d="M 126.5 309 L 124.5 312 L 126.5 309 Z " /><path fill="rgb(206,208,210)" stroke="rgb(206,208,210)" stroke-width="1" opacity="1" d="M 394.5 313 L 393.5 315 L 394.5 313 Z " /><path fill="rgb(206,208,210)" stroke="rgb(206,208,210)" stroke-width="1" opacity="1" d="M 401.5 313 L 399.5 316 L 401.5 313 Z " /><path fill="rgb(206,208,210)" stroke="rgb(206,208,210)" stroke-width="1" opacity="1" d="M 389.5 317 L 388.5 319 L 389.5 317 Z " /><path fill="rgb(206,208,210)" stroke="rgb(206,208,210)" stroke-width="1" opacity="1" d="M 369.5 324 L 368.5 326 L 369.5 324 Z " /><path fill="rgb(206,208,210)" stroke="rgb(206,208,210)" stroke-width="1" opacity="1" d="M 275.5 329 L 276.5 331 L 275.5 329 Z " /><path fill="rgb(206,208,210)" stroke="rgb(206,208,210)" stroke-width="1" opacity="1" d="M 354.5 329 L 359 329.5 L 354.5 330 L 354.5 329 Z " /><path fill="rgb(206,208,210)" stroke="rgb(206,208,210)" stroke-width="1" opacity="1" d="M 348.5 330 L 349 333.5 L 348 333.5 L 348.5 330 Z " /><path fill="rgb(206,208,210)" stroke="rgb(206,208,210)" stroke-width="1" opacity="1" d="M 311.5 346 L 312.5 348 L 311.5 346 Z " /><path fill="rgb(206,208,210)" stroke="rgb(206,208,210)" stroke-width="1" opacity="1" d="M 315.5 350 L 316.5 352 L 315.5 350 Z " /><path fill="rgb(198,218,242)" stroke="rgb(198,218,242)" stroke-width="1" opacity="1" d="M 377.5 88 Q 392.5 86.5 397 95.5 Q 400.2 99.8 400 107.5 Q 398.5 115 393.5 119 Q 388.8 122.8 380.5 123 Q 371.3 121.3 367 114.5 Q 363.7 109.8 365 100.5 L 371.5 91 L 377.5 88 Z " /><path fill="rgb(198,218,242)" stroke="rgb(198,218,242)" stroke-width="1" opacity="1" d="M 40.5 101 Q 48 101.5 51 106.5 Q 53.3 109.7 52 116.5 L 48.5 121 Q 45.6 124.6 37.5 123 L 32 118.5 L 30 112.5 Q 30.9 105.9 35.5 103 L 40.5 101 Z " /><path fill="rgb(198,218,242)" stroke="rgb(198,218,242)" stroke-width="1" opacity="1" d="M 464.5 153 Q 475.6 151.4 478 158.5 L 479 166.5 L 474.5 173 L 466.5 175 L 459 170.5 Q 456 167.5 457 160.5 L 462.5 154 L 464.5 153 Z " /><path fill="rgb(198,218,242)" stroke="rgb(198,218,242)" stroke-width="1" opacity="1" d="M 67.5 193 Q 80.4 192.6 85 200.5 Q 88.9 204.6 88 213.5 Q 86.2 221.2 80.5 225 Q 76.3 229.3 66.5 228 Q 59.8 225.8 56 220.5 Q 51.7 216.3 53 206.5 Q 54.8 199.3 60.5 196 L 67.5 193 Z " /><path fill="rgb(198,218,242)" stroke="rgb(198,218,242)" stroke-width="1" opacity="1" d="M 313.5 279 L 324.5 279 Q 331.9 281.6 336 287.5 L 339.5 295 L 351.5 289 L 360.5 289 Q 368.9 291.2 373 297.5 Q 377.8 302.7 376 314.5 L 370.5 324 L 361.5 329 L 349.5 329 L 348 330.5 L 349 335.5 L 347 343.5 L 339.5 352 Q 334.7 356.2 324.5 355 L 313 348.5 L 310 344.5 Q 307.1 339.9 308 331.5 L 306.5 330 L 294.5 336 L 286.5 336 Q 277.4 333.5 273 326.5 L 270 317.5 L 270 313.5 Q 271.5 303.5 278.5 299 Q 283.5 295 292.5 295 L 297.5 296 L 301 288.5 L 308.5 281 L 313.5 279 Z " /><path fill="rgb(198,218,242)" stroke="rgb(198,218,242)" stroke-width="1" opacity="1" d="M 96.5 283 L 97 286.5 L 95 292.5 L 92 317.5 L 91 320 L 61.5 320 L 61 319.5 L 61 310.5 Q 63.9 302.4 70.5 298 L 75.5 296 L 89 296 Q 90.3 287.6 96.5 283 Z " /><path fill="rgb(198,218,242)" stroke="rgb(198,218,242)" stroke-width="1" opacity="1" d="M 417.5 297 L 427 301.5 L 430.5 308 L 433.5 308 L 440.5 304 L 444.5 304 Q 451 305.5 454 310.5 L 456 320 L 395 319.5 L 413 302.5 L 417.5 297 Z " /><path fill="rgb(198,218,242)" stroke="rgb(198,218,242)" stroke-width="1" opacity="1" d="M 161.5 300 L 172.5 301 L 180.5 308 L 183.5 308 L 184.5 307 L 193.5 307 L 200 311.5 L 203 320 L 121.5 320 L 121 318.5 Q 122.8 311.3 128.5 308 L 135.5 306 L 148.5 311 L 156.5 302 L 161.5 300 Z " /><path fill="rgb(95,99,99)" stroke="rgb(95,99,99)" stroke-width="1" opacity="0.9686274509803922" d="M 119.5 10 L 127.5 11 L 151.5 31 L 157.5 34 L 164.5 31 L 191.5 25 L 199.5 25 L 200.5 24 L 240.5 24 L 241.5 25 L 249.5 25 L 255.5 27 L 260.5 27 L 285.5 34 L 313.5 11 L 321.5 10 L 325 12.5 L 326 14.5 L 326 70.5 L 329 81.5 L 331 100.5 L 332 101.5 L 333 123.5 L 332 124.5 L 331 136.5 L 325 153.5 L 318 165.5 L 304 180.5 L 304 182.5 L 314 199.5 L 328 230.5 L 340 266.5 L 344.5 287 Q 350.3 282.8 361.5 284 L 363 282.5 L 368 275.5 L 374 261.5 L 376 252.5 L 376 232.5 L 370 211.5 L 354 186.5 L 351 177.5 L 351 173.5 Q 352.2 165.7 357.5 162 Q 365.2 155.7 381.5 158 Q 405.4 164.6 419 181.5 Q 428.6 191.9 434 206.5 L 438 221.5 L 439 241.5 L 438 242.5 L 437 254.5 L 432 271.5 L 420 292.5 L 430 297.5 L 432 302 L 436.5 300 L 444.5 299 Q 453.8 300.8 458 307.5 L 461 315.5 L 460 318.5 L 460.5 320 L 475.5 320 L 484 325 L 486 329.5 L 486 365.5 Q 484.6 371.6 479.5 374 L 473.5 376 L 455 376 L 432 478.5 Q 429.3 488.1 424 494 L 418.5 498 L 408.5 502 L 119.5 502 L 106 496 L 97 481.5 L 73 376 L 54.5 376 Q 47.1 374.9 44 369.5 L 42 366.5 L 42 330.5 Q 43.4 324.4 48.5 322 L 56 320 Q 54.8 301.7 66.5 295 Q 73.1 289.3 86 291 L 87 286.5 L 93.5 279 L 99 275.5 L 111 235.5 L 128 197.5 L 138 181.5 Q 123.1 169.9 115 151.5 L 109 131.5 L 108 110.5 L 109 109.5 L 109 101.5 L 110 100.5 L 112 81.5 L 115 69.5 L 115 14.5 L 117.5 11 L 119.5 10 Z M 120 14 L 119 17 L 119 72 L 114 96 L 113 115 L 112 116 Q 114 121 113 130 L 118 148 L 130 168 Q 136 177 147 182 L 150 187 L 147 187 L 142 183 Q 124 211 112 246 L 103 276 L 95 320 L 96 321 L 117 321 L 120 311 Q 124 304 134 302 Q 142 302 147 306 Q 151 299 161 296 Q 176 295 182 303 Q 186 304 188 302 Q 197 302 202 307 L 207 317 Q 206 321 208 321 L 267 321 L 266 319 Q 266 307 271 301 Q 276 293 288 291 Q 293 290 295 292 L 298 286 L 306 278 L 319 274 L 329 276 L 334 279 L 338 285 L 340 286 Q 327 227 300 184 L 293 188 L 291 184 L 300 179 Q 322 162 328 130 L 328 105 L 327 104 L 327 97 L 326 96 L 324 78 L 322 72 L 322 17 L 321 14 L 317 14 L 286 39 L 264 32 L 247 29 L 239 29 L 238 28 L 204 28 L 203 29 L 195 29 L 178 32 L 157 39 L 154 38 L 125 14 L 120 14 Z M 370 162 L 363 164 L 356 172 L 356 181 L 375 213 L 380 231 L 380 255 L 379 260 L 374 274 L 366 287 L 371 289 L 378 298 L 381 308 Q 381 316 378 321 L 386 321 L 397 313 Q 413 300 423 281 L 430 265 L 434 248 L 434 224 L 432 215 Q 427 197 416 185 Q 405 172 390 165 L 379 162 L 370 162 Z M 316 278 L 308 281 Q 301 285 299 294 Q 297 298 296 295 Q 283 293 278 299 Q 272 303 270 311 Q 269 322 273 328 L 279 333 L 285 336 Q 289 335 291 337 Q 292 335 297 336 L 305 331 L 307 331 L 307 337 L 310 346 Q 315 354 327 356 Q 336 356 341 352 L 348 343 L 349 331 L 351 329 L 353 330 Q 363 331 368 327 Q 375 323 377 314 Q 378 303 374 298 Q 369 290 359 288 L 350 289 L 342 294 L 339 294 L 335 286 Q 330 277 316 278 Z M 98 282 L 96 283 L 88 296 L 86 295 Q 75 294 70 298 Q 62 303 60 313 Q 59 318 61 320 L 62 321 L 92 321 L 94 302 L 98 286 L 98 282 Z M 417 297 L 413 302 L 393 321 L 456 321 Q 457 313 454 310 L 447 304 L 439 304 L 432 308 L 429 304 Q 426 297 417 297 Z M 164 299 L 156 302 L 148 311 L 140 306 Q 131 305 128 308 L 121 317 Q 120 321 122 321 L 204 321 L 202 314 L 193 306 Q 186 304 185 307 L 181 307 L 172 300 L 164 299 Z M 53 325 L 51 326 L 46 333 L 46 364 L 48 368 L 54 371 L 475 371 L 478 370 L 482 364 L 482 333 L 481 330 L 476 325 L 376 325 Q 369 335 353 334 Q 353 343 349 349 Q 344 356 334 359 Q 318 360 312 353 Q 304 348 304 337 L 297 340 Q 284 342 278 337 L 270 330 L 269 327 L 268 325 L 53 325 Z M 78 375 L 97 459 L 99 472 L 102 483 L 105 488 Q 111 495 122 498 L 407 498 L 418 493 Q 424 488 427 480 L 451 376 L 78 375 Z " /><path fill="rgb(95,99,99)" stroke="rgb(95,99,99)" stroke-width="1" opacity="0.9686274509803922" d="M 171.5 82 Q 178.8 80.8 180 85.5 Q 180.8 91.3 177.5 93 L 172.5 94 L 169 91.5 L 168 85.5 L 169 83 L 171.5 82 Z " /><path fill="rgb(95,99,99)" stroke="rgb(95,99,99)" stroke-width="1" opacity="0.9686274509803922" d="M 266.5 82 Q 273.5 80.5 275 84.5 L 276 87.5 L 272.5 93 L 268.5 94 L 264 90.5 L 263 86.5 L 266.5 82 Z " /><path fill="rgb(95,99,99)" stroke="rgb(95,99,99)" stroke-width="1" opacity="0.9686274509803922" d="M 377.5 83 Q 395.5 81.5 401 92.5 L 404 98.5 L 405 105.5 L 403 114.5 L 397.5 122 L 391.5 126 L 381.5 128 L 369.5 124 L 363 117.5 Q 358.5 112 360 100.5 Q 361.7 92.2 367.5 88 L 377.5 83 Z M 380 87 L 369 92 L 364 103 Q 363 111 367 116 Q 371 121 378 123 Q 387 124 392 121 Q 398 117 400 110 Q 402 99 397 95 Q 392 87 380 87 Z " /><path fill="rgb(95,99,99)" stroke="rgb(95,99,99)" stroke-width="1" opacity="0.9686274509803922" d="M 36.5 97 Q 51.2 94.8 55 103.5 Q 58.1 107.9 57 116.5 L 52.5 124 Q 48.5 129.5 37.5 128 Q 31.8 126.8 29 122.5 Q 24.5 118 26 107.5 L 32.5 99 L 36.5 97 Z M 38 101 L 36 102 L 30 110 Q 29 117 32 120 L 40 124 L 47 123 L 53 116 Q 54 109 51 106 Q 48 100 38 101 Z " /><path fill="rgb(95,99,99)" stroke="rgb(95,99,99)" stroke-width="1" opacity="0.9686274509803922" d="M 219.5 108 L 226.5 109 L 230 111.5 Q 231 123 224.5 127 L 222 128.5 Q 220.9 137.4 224 141 Q 228.4 144.4 238 143 L 237.5 146 L 226.5 146 L 220.5 142 L 214.5 146 L 203 146 L 203.5 143 L 212.5 143 L 218 138.5 L 219 128.5 L 213 123.5 Q 209.7 119.8 211 111.5 L 214.5 109 L 219.5 108 Z " /><path fill="rgb(95,99,99)" stroke="rgb(95,99,99)" stroke-width="1" opacity="0.9686274509803922" d="M 153 128 L 181.5 135 L 186 137.5 L 184.5 140 L 153 131 L 153 128 Z " /><path fill="rgb(95,99,99)" stroke="rgb(95,99,99)" stroke-width="1" opacity="0.9686274509803922" d="M 284.5 128 Q 289.8 126.5 288 131 L 256.5 140 L 255 137.5 L 256.5 136 L 284.5 128 Z " /><path fill="rgb(95,99,99)" stroke="rgb(95,99,99)" stroke-width="1" opacity="0.9686274509803922" d="M 463.5 148 L 472.5 148 L 482 155.5 L 484 161.5 L 484 166.5 L 479.5 175 Q 475.4 179.4 467.5 180 L 462.5 179 L 456 174.5 L 452 166.5 L 452 161.5 Q 453.4 153.4 459.5 150 L 463.5 148 Z M 466 152 L 462 154 Q 457 157 456 163 Q 456 169 459 172 L 465 175 L 474 174 L 479 168 Q 480 161 478 158 L 471 152 L 466 152 Z " /><path fill="rgb(95,99,99)" stroke="rgb(95,99,99)" stroke-width="1" opacity="0.9686274509803922" d="M 177.5 149 Q 184.3 147.2 186 150.5 L 181.5 153 L 174.5 153 L 173.5 154 L 153 156 Q 151.3 151.9 155.5 153 L 177.5 149 Z " /><path fill="rgb(95,99,99)" stroke="rgb(95,99,99)" stroke-width="1" opacity="0.9686274509803922" d="M 256.5 149 L 263.5 149 L 288 153 L 288 156 L 281.5 156 L 266.5 153 L 259.5 153 L 255 150.5 L 256.5 149 Z " /><path fill="rgb(95,99,99)" stroke="rgb(95,99,99)" stroke-width="1" opacity="0.9686274509803922" d="M 67.5 188 Q 83.4 187.6 89 197.5 Q 93.4 203.1 93 213.5 Q 91.3 224.3 83.5 229 L 74.5 233 L 67.5 233 Q 55.9 231.1 51 222.5 L 48 213.5 L 48 207.5 Q 49.6 196.6 57.5 192 L 67.5 188 Z M 70 192 L 61 195 Q 54 199 52 209 L 53 217 L 55 221 L 61 226 L 70 229 L 77 228 L 82 225 L 87 219 L 89 211 L 85 200 L 77 193 L 70 192 Z " /><path fill="rgb(129,199,156)" stroke="rgb(129,199,156)" stroke-width="1" opacity="1" d="M 124.5 14 L 125.5 16 L 124.5 14 Z " /><path fill="rgb(129,199,156)" stroke="rgb(129,199,156)" stroke-width="1" opacity="1" d="M 316.5 14 L 315.5 16 L 316.5 14 Z " /><path fill="rgb(129,199,156)" stroke="rgb(129,199,156)" stroke-width="1" opacity="1" d="M 129.5 18 L 130.5 20 L 129.5 18 Z " /><path fill="rgb(129,199,156)" stroke="rgb(129,199,156)" stroke-width="1" opacity="1" d="M 311.5 18 L 310.5 20 L 311.5 18 Z " /><path fill="rgb(129,199,156)" stroke="rgb(129,199,156)" stroke-width="1" opacity="1" d="M 134.5 22 L 135.5 24 L 134.5 22 Z " /><path fill="rgb(129,199,156)" stroke="rgb(129,199,156)" stroke-width="1" opacity="1" d="M 306.5 22 L 305.5 24 L 306.5 22 Z " /><path fill="rgb(129,199,156)" stroke="rgb(129,199,156)" stroke-width="1" opacity="1" d="M 139.5 26 L 140.5 28 L 139.5 26 Z " /><path fill="rgb(129,199,156)" stroke="rgb(129,199,156)" stroke-width="1" opacity="1" d="M 301.5 26 L 300.5 28 L 301.5 26 Z " /><path fill="rgb(129,199,156)" stroke="rgb(129,199,156)" stroke-width="1" opacity="1" d="M 203.5 28 L 208 28.5 L 203.5 29 L 203.5 28 Z " /><path fill="rgb(129,199,156)" stroke="rgb(129,199,156)" stroke-width="1" opacity="1" d="M 233.5 28 L 238 28.5 L 233.5 29 L 233.5 28 Z " /><path fill="rgb(129,199,156)" stroke="rgb(129,199,156)" stroke-width="1" opacity="1" d="M 144.5 30 L 145.5 32 L 144.5 30 Z " /><path fill="rgb(129,199,156)" stroke="rgb(129,199,156)" stroke-width="1" opacity="1" d="M 296.5 30 L 295.5 32 L 296.5 30 Z " /><path fill="rgb(129,199,156)" stroke="rgb(129,199,156)" stroke-width="1" opacity="1" d="M 149.5 34 L 150.5 36 L 149.5 34 Z " /><path fill="rgb(129,199,156)" stroke="rgb(129,199,156)" stroke-width="1" opacity="1" d="M 291.5 34 L 290.5 36 L 291.5 34 Z " /><path fill="rgb(129,199,156)" stroke="rgb(129,199,156)" stroke-width="1" opacity="1" d="M 172.5 81 L 176 81.5 L 172.5 82 L 172.5 81 Z " /><path fill="rgb(129,199,156)" stroke="rgb(129,199,156)" stroke-width="1" opacity="1" d="M 268.5 81 L 271 81.5 L 268.5 82 L 268.5 81 Z " /><path fill="rgb(129,199,156)" stroke="rgb(129,199,156)" stroke-width="1" opacity="1" d="M 177.5 82 L 179.5 85 L 177.5 82 Z " /><path fill="rgb(129,199,156)" stroke="rgb(129,199,156)" stroke-width="1" opacity="1" d="M 379.5 87 L 386 87.5 L 379.5 88 L 379.5 87 Z " /><path fill="rgb(129,199,156)" stroke="rgb(129,199,156)" stroke-width="1" opacity="1" d="M 392.5 90 L 393.5 92 L 392.5 90 Z " /><path fill="rgb(129,199,156)" stroke="rgb(129,199,156)" stroke-width="1" opacity="1" d="M 264.5 91 L 265.5 93 L 264.5 91 Z " /><path fill="rgb(129,199,156)" stroke="rgb(129,199,156)" stroke-width="1" opacity="1" d="M 274.5 91 L 273.5 93 L 274.5 91 Z " /><path fill="rgb(129,199,156)" stroke="rgb(129,199,156)" stroke-width="1" opacity="1" d="M 114.5 95 L 115 97.5 L 114 97.5 L 114.5 95 Z " /><path fill="rgb(129,199,156)" stroke="rgb(129,199,156)" stroke-width="1" opacity="1" d="M 35.5 102 L 34.5 104 L 35.5 102 Z " /><path fill="rgb(129,199,156)" stroke="rgb(129,199,156)" stroke-width="1" opacity="1" d="M 364.5 102 L 365 108.5 L 364 108.5 L 364.5 102 Z " /><path fill="rgb(129,199,156)" stroke="rgb(129,199,156)" stroke-width="1" opacity="1" d="M 48.5 103 L 50.5 106 L 48.5 103 Z " /><path fill="rgb(129,199,156)" stroke="rgb(129,199,156)" stroke-width="1" opacity="1" d="M 113.5 104 L 114 106.5 L 113 106.5 L 113.5 104 Z " /><path fill="rgb(129,199,156)" stroke="rgb(129,199,156)" stroke-width="1" opacity="1" d="M 327.5 104 L 328 106.5 L 327 106.5 L 327.5 104 Z " /><path fill="rgb(129,199,156)" stroke="rgb(129,199,156)" stroke-width="1" opacity="1" d="M 32.5 105 L 31.5 107 L 32.5 105 Z " /><path fill="rgb(129,199,156)" stroke="rgb(129,199,156)" stroke-width="1" opacity="1" d="M 216.5 108 L 219 108.5 L 216.5 109 L 216.5 108 Z " /><path fill="rgb(129,199,156)" stroke="rgb(129,199,156)" stroke-width="1" opacity="1" d="M 222.5 108 L 225 108.5 L 222.5 109 L 222.5 108 Z " /><path fill="rgb(129,199,156)" stroke="rgb(129,199,156)" stroke-width="1" opacity="1" d="M 210.5 113 L 211 116.5 L 210 116.5 L 210.5 113 Z " /><path fill="rgb(129,199,156)" stroke="rgb(129,199,156)" stroke-width="1" opacity="1" d="M 230.5 113 L 231 116.5 L 230 116.5 L 230.5 113 Z " /><path fill="rgb(129,199,156)" stroke="rgb(129,199,156)" stroke-width="1" opacity="1" d="M 112.5 115 L 113 117.5 L 112 117.5 L 112.5 115 Z " /><path fill="rgb(129,199,156)" stroke="rgb(129,199,156)" stroke-width="1" opacity="1" d="M 367.5 115 L 368.5 117 L 367.5 115 Z " /><path fill="rgb(129,199,156)" stroke="rgb(129,199,156)" stroke-width="1" opacity="1" d="M 370.5 118 L 371.5 120 L 370.5 118 Z " /><path fill="rgb(129,199,156)" stroke="rgb(129,199,156)" stroke-width="1" opacity="1" d="M 32.5 119 L 33.5 121 L 32.5 119 Z " /><path fill="rgb(129,199,156)" stroke="rgb(129,199,156)" stroke-width="1" opacity="1" d="M 39.5 123 L 44 123.5 L 39.5 124 L 39.5 123 Z " /><path fill="rgb(129,199,156)" stroke="rgb(129,199,156)" stroke-width="1" opacity="1" d="M 217.5 127 Q 220.5 128.5 219 134.5 L 218 134.5 Q 218.5 128.5 217.5 127 Z " /><path fill="rgb(129,199,156)" stroke="rgb(129,199,156)" stroke-width="1" opacity="1" d="M 223.5 127 L 223 128.5 L 222.5 137 L 222 128.5 L 223.5 127 Z " /><path fill="rgb(129,199,156)" stroke="rgb(129,199,156)" stroke-width="1" opacity="1" d="M 204.5 142 L 213 142.5 L 204.5 143 L 204.5 142 Z " /><path fill="rgb(129,199,156)" stroke="rgb(129,199,156)" stroke-width="1" opacity="1" d="M 228.5 142 L 236 142.5 L 228.5 143 L 228.5 142 Z " /><path fill="rgb(129,199,156)" stroke="rgb(129,199,156)" stroke-width="1" opacity="1" d="M 204.5 146 L 213 146.5 L 204.5 147 L 204.5 146 Z " /><path fill="rgb(129,199,156)" stroke="rgb(129,199,156)" stroke-width="1" opacity="1" d="M 228.5 146 L 237 146.5 L 228.5 147 L 228.5 146 Z " /><path fill="rgb(129,199,156)" stroke="rgb(129,199,156)" stroke-width="1" opacity="1" d="M 182.5 148 L 186 149.5 L 184.5 149 Q 181.5 149.5 182.5 148 Z " /><path fill="rgb(129,199,156)" stroke="rgb(129,199,156)" stroke-width="1" opacity="1" d="M 256.5 148 L 259 148.5 L 255.5 150 L 256.5 148 Z " /><path fill="rgb(129,199,156)" stroke="rgb(129,199,156)" stroke-width="1" opacity="1" d="M 465.5 152 L 471 152.5 L 465.5 153 L 465.5 152 Z " /><path fill="rgb(129,199,156)" stroke="rgb(129,199,156)" stroke-width="1" opacity="1" d="M 174.5 153 L 177 153.5 L 174.5 154 L 174.5 153 Z " /><path fill="rgb(129,199,156)" stroke="rgb(129,199,156)" stroke-width="1" opacity="1" d="M 264.5 153 L 267 153.5 L 264.5 154 L 264.5 153 Z " /><path fill="rgb(129,199,156)" stroke="rgb(129,199,156)" stroke-width="1" opacity="1" d="M 167.5 154 L 170 154.5 L 167.5 155 L 167.5 154 Z " /><path fill="rgb(129,199,156)" stroke="rgb(129,199,156)" stroke-width="1" opacity="1" d="M 271.5 154 L 274 154.5 L 271.5 155 L 271.5 154 Z " /><path fill="rgb(129,199,156)" stroke="rgb(129,199,156)" stroke-width="1" opacity="1" d="M 160.5 155 L 163 155.5 L 160.5 156 L 160.5 155 Z " /><path fill="rgb(129,199,156)" stroke="rgb(129,199,156)" stroke-width="1" opacity="1" d="M 278.5 155 L 281 155.5 L 278.5 156 L 278.5 155 Z " /><path fill="rgb(129,199,156)" stroke="rgb(129,199,156)" stroke-width="1" opacity="1" d="M 476.5 156 L 477.5 158 L 476.5 156 Z " /><path fill="rgb(129,199,156)" stroke="rgb(129,199,156)" stroke-width="1" opacity="1" d="M 376.5 162 L 379 162.5 L 376.5 163 L 376.5 162 Z " /><path fill="rgb(129,199,156)" stroke="rgb(129,199,156)" stroke-width="1" opacity="1" d="M 456.5 162 L 457 164.5 L 456 164.5 L 456.5 162 Z " /><path fill="rgb(129,199,156)" stroke="rgb(129,199,156)" stroke-width="1" opacity="1" d="M 130.5 167 L 131.5 169 L 130.5 167 Z " /><path fill="rgb(129,199,156)" stroke="rgb(129,199,156)" stroke-width="1" opacity="1" d="M 310.5 167 L 309.5 169 L 310.5 167 Z " /><path fill="rgb(129,199,156)" stroke="rgb(129,199,156)" stroke-width="1" opacity="1" d="M 407.5 176 L 415.5 185 L 407.5 176 Z " /><path fill="rgb(129,199,156)" stroke="rgb(129,199,156)" stroke-width="1" opacity="1" d="M 140.5 177 L 141.5 179 L 140.5 177 Z " /><path fill="rgb(129,199,156)" stroke="rgb(129,199,156)" stroke-width="1" opacity="1" d="M 300.5 177 L 299.5 179 L 300.5 177 Z " /><path fill="rgb(129,199,156)" stroke="rgb(129,199,156)" stroke-width="1" opacity="1" d="M 148.5 183 L 149.5 185 L 148.5 183 Z " /><path fill="rgb(129,199,156)" stroke="rgb(129,199,156)" stroke-width="1" opacity="1" d="M 290.5 185 L 292 187.5 L 290 186.5 L 290.5 185 Z " /><path fill="rgb(129,199,156)" stroke="rgb(129,199,156)" stroke-width="1" opacity="1" d="M 418.5 188 L 419.5 190 L 418.5 188 Z " /><path fill="rgb(129,199,156)" stroke="rgb(129,199,156)" stroke-width="1" opacity="1" d="M 69.5 192 L 72 192.5 L 69.5 193 L 69.5 192 Z " /><path fill="rgb(129,199,156)" stroke="rgb(129,199,156)" stroke-width="1" opacity="1" d="M 60.5 195 L 59.5 197 L 60.5 195 Z " /><path fill="rgb(129,199,156)" stroke="rgb(129,199,156)" stroke-width="1" opacity="1" d="M 83.5 198 L 84.5 200 L 83.5 198 Z " /><path fill="rgb(129,199,156)" stroke="rgb(129,199,156)" stroke-width="1" opacity="1" d="M 56.5 199 L 55.5 201 L 56.5 199 Z " /><path fill="rgb(129,199,156)" stroke="rgb(129,199,156)" stroke-width="1" opacity="1" d="M 52.5 208 L 53 211.5 L 52 211.5 L 52.5 208 Z " /><path fill="rgb(129,199,156)" stroke="rgb(129,199,156)" stroke-width="1" opacity="1" d="M 55.5 220 L 56.5 222 L 55.5 220 Z " /><path fill="rgb(129,199,156)" stroke="rgb(129,199,156)" stroke-width="1" opacity="1" d="M 82.5 223 L 81.5 225 L 82.5 223 Z " /><path fill="rgb(129,199,156)" stroke="rgb(129,199,156)" stroke-width="1" opacity="1" d="M 433.5 223 L 434 225.5 L 433 225.5 L 433.5 223 Z " /><path fill="rgb(129,199,156)" stroke="rgb(129,199,156)" stroke-width="1" opacity="1" d="M 59.5 224 L 60.5 226 L 59.5 224 Z " /><path fill="rgb(129,199,156)" stroke="rgb(129,199,156)" stroke-width="1" opacity="1" d="M 69.5 228 L 72 228.5 L 69.5 229 L 69.5 228 Z " /><path fill="rgb(129,199,156)" stroke="rgb(129,199,156)" stroke-width="1" opacity="1" d="M 380.5 236 L 381 248.5 L 380 248.5 L 380.5 236 Z " /><path fill="rgb(129,199,156)" stroke="rgb(129,199,156)" stroke-width="1" opacity="1" d="M 433.5 245 L 434 247.5 L 433 247.5 L 433.5 245 Z " /><path fill="rgb(129,199,156)" stroke="rgb(129,199,156)" stroke-width="1" opacity="1" d="M 315.5 274 L 318 274.5 L 315.5 275 L 315.5 274 Z " /><path fill="rgb(129,199,156)" stroke="rgb(129,199,156)" stroke-width="1" opacity="1" d="M 320.5 274 L 323 274.5 L 320.5 275 L 320.5 274 Z " /><path fill="rgb(129,199,156)" stroke="rgb(129,199,156)" stroke-width="1" opacity="1" d="M 315.5 278 L 318 278.5 L 315.5 279 L 315.5 278 Z " /><path fill="rgb(129,199,156)" stroke="rgb(129,199,156)" stroke-width="1" opacity="1" d="M 319.5 278 L 323 278.5 L 319.5 279 L 319.5 278 Z " /><path fill="rgb(129,199,156)" stroke="rgb(129,199,156)" stroke-width="1" opacity="1" d="M 302.5 280 L 300.5 283 L 302.5 280 Z " /><path fill="rgb(129,199,156)" stroke="rgb(129,199,156)" stroke-width="1" opacity="1" d="M 307.5 281 L 306.5 283 L 307.5 281 Z " /><path fill="rgb(129,199,156)" stroke="rgb(129,199,156)" stroke-width="1" opacity="1" d="M 331.5 282 L 334.5 286 L 331.5 282 Z " /><path fill="rgb(129,199,156)" stroke="rgb(129,199,156)" stroke-width="1" opacity="1" d="M 368.5 282 L 367.5 284 L 368.5 282 Z " /><path fill="rgb(129,199,156)" stroke="rgb(129,199,156)" stroke-width="1" opacity="1" d="M 95.5 283 L 93.5 286 L 95.5 283 Z " /><path fill="rgb(129,199,156)" stroke="rgb(129,199,156)" stroke-width="1" opacity="1" d="M 338.5 284 Q 340.8 283.3 340 285.5 L 338.5 284 Z " /><path fill="rgb(129,199,156)" stroke="rgb(129,199,156)" stroke-width="1" opacity="1" d="M 302.5 286 L 301.5 288 L 302.5 286 Z " /><path fill="rgb(129,199,156)" stroke="rgb(129,199,156)" stroke-width="1" opacity="1" d="M 353.5 288 L 359 288.5 L 353.5 289 L 353.5 288 Z " /><path fill="rgb(129,199,156)" stroke="rgb(129,199,156)" stroke-width="1" opacity="1" d="M 95.5 293 L 96 295.5 L 95 295.5 L 95.5 293 Z " /><path fill="rgb(129,199,156)" stroke="rgb(129,199,156)" stroke-width="1" opacity="1" d="M 342.5 293 L 341.5 295 L 339 294.5 L 342.5 293 Z " /><path fill="rgb(129,199,156)" stroke="rgb(129,199,156)" stroke-width="1" opacity="1" d="M 298.5 294 L 297.5 296 L 298.5 294 Z " /><path fill="rgb(129,199,156)" stroke="rgb(129,199,156)" stroke-width="1" opacity="1" d="M 413.5 294 L 412.5 296 L 413.5 294 Z " /><path fill="rgb(129,199,156)" stroke="rgb(129,199,156)" stroke-width="1" opacity="1" d="M 163.5 295 L 168 295.5 L 163.5 296 L 163.5 295 Z " /><path fill="rgb(129,199,156)" stroke="rgb(129,199,156)" stroke-width="1" opacity="1" d="M 372.5 296 L 373.5 298 L 372.5 296 Z " /><path fill="rgb(129,199,156)" stroke="rgb(129,199,156)" stroke-width="1" opacity="1" d="M 69.5 298 L 68.5 300 L 69.5 298 Z " /><path fill="rgb(129,199,156)" stroke="rgb(129,199,156)" stroke-width="1" opacity="1" d="M 163.5 299 L 168 299.5 L 163.5 300 L 163.5 299 Z " /><path fill="rgb(129,199,156)" stroke="rgb(129,199,156)" stroke-width="1" opacity="1" d="M 277.5 299 L 274.5 303 L 277.5 299 Z " /><path fill="rgb(129,199,156)" stroke="rgb(129,199,156)" stroke-width="1" opacity="1" d="M 409.5 299 L 406.5 303 L 409.5 299 Z " /><path fill="rgb(129,199,156)" stroke="rgb(129,199,156)" stroke-width="1" opacity="1" d="M 414.5 299 L 413.5 301 L 414.5 299 Z " /><path fill="rgb(129,199,156)" stroke="rgb(129,199,156)" stroke-width="1" opacity="1" d="M 151.5 300 L 148.5 304 L 151.5 300 Z " /><path fill="rgb(129,199,156)" stroke="rgb(129,199,156)" stroke-width="1" opacity="1" d="M 179.5 300 L 181.5 303 L 179.5 300 Z " /><path fill="rgb(129,199,156)" stroke="rgb(129,199,156)" stroke-width="1" opacity="1" d="M 380.5 304 L 381 306.5 L 380 306.5 L 380.5 304 Z " /><path fill="rgb(129,199,156)" stroke="rgb(129,199,156)" stroke-width="1" opacity="1" d="M 93.5 305 L 94 307.5 L 93 307.5 L 93.5 305 Z " /><path fill="rgb(129,199,156)" stroke="rgb(129,199,156)" stroke-width="1" opacity="1" d="M 199.5 305 L 200.5 307 L 199.5 305 Z " /><path fill="rgb(129,199,156)" stroke="rgb(129,199,156)" stroke-width="1" opacity="1" d="M 409.5 305 L 402.5 313 L 409.5 305 Z " /><path fill="rgb(129,199,156)" stroke="rgb(129,199,156)" stroke-width="1" opacity="1" d="M 123.5 306 L 121.5 309 L 123.5 306 Z " /><path fill="rgb(129,199,156)" stroke="rgb(129,199,156)" stroke-width="1" opacity="1" d="M 434.5 306 L 433.5 308 L 434.5 306 Z " /><path fill="rgb(129,199,156)" stroke="rgb(129,199,156)" stroke-width="1" opacity="1" d="M 149.5 309 L 148.5 311 L 149.5 309 Z " /><path fill="rgb(129,199,156)" stroke="rgb(129,199,156)" stroke-width="1" opacity="1" d="M 398.5 310 L 396.5 313 L 398.5 310 Z " /><path fill="rgb(129,199,156)" stroke="rgb(129,199,156)" stroke-width="1" opacity="1" d="M 96.5 311 L 97 313.5 L 96 313.5 L 96.5 311 Z " /><path fill="rgb(129,199,156)" stroke="rgb(129,199,156)" stroke-width="1" opacity="1" d="M 380.5 311 L 381 313.5 L 380 313.5 L 380.5 311 Z " /><path fill="rgb(129,199,156)" stroke="rgb(129,199,156)" stroke-width="1" opacity="1" d="M 60.5 312 L 61 318.5 L 60 318.5 L 60.5 312 Z " /><path fill="rgb(129,199,156)" stroke="rgb(129,199,156)" stroke-width="1" opacity="1" d="M 92.5 312 L 93 314.5 L 92 314.5 L 92.5 312 Z " /><path fill="rgb(129,199,156)" stroke="rgb(129,199,156)" stroke-width="1" opacity="1" d="M 392.5 315 L 391.5 317 L 392.5 315 Z " /><path fill="rgb(129,199,156)" stroke="rgb(129,199,156)" stroke-width="1" opacity="1" d="M 396.5 317 L 395.5 319 L 396.5 317 Z " /><path fill="rgb(129,199,156)" stroke="rgb(129,199,156)" stroke-width="1" opacity="1" d="M 203.5 318 L 204 321 L 121 320.5 L 203 320 L 203.5 318 Z " /><path fill="rgb(129,199,156)" stroke="rgb(129,199,156)" stroke-width="1" opacity="1" d="M 95.5 319 L 96.5 320 L 117 320.5 L 95 321 L 95.5 319 Z " /><path fill="rgb(129,199,156)" stroke="rgb(129,199,156)" stroke-width="1" opacity="1" d="M 207.5 319 L 208.5 320 L 265.5 320 L 267 319.5 L 266.5 321 L 207 321 L 207.5 319 Z " /><path fill="rgb(129,199,156)" stroke="rgb(129,199,156)" stroke-width="1" opacity="1" d="M 378.5 319 L 386 320.5 L 378 321 L 378.5 319 Z " /><path fill="rgb(129,199,156)" stroke="rgb(129,199,156)" stroke-width="1" opacity="1" d="M 61.5 320 L 92 320.5 L 61.5 321 L 61.5 320 Z " /><path fill="rgb(129,199,156)" stroke="rgb(129,199,156)" stroke-width="1" opacity="1" d="M 393.5 320 L 456 320.5 L 393.5 321 L 393.5 320 Z " /><path fill="rgb(129,199,156)" stroke="rgb(129,199,156)" stroke-width="1" opacity="1" d="M 267.5 325 L 270 328.5 L 268 327.5 L 267.5 325 Z " /><path fill="rgb(129,199,156)" stroke="rgb(129,199,156)" stroke-width="1" opacity="1" d="M 50.5 326 L 48 329.5 L 47.5 331 L 47 329.5 L 50.5 326 Z " /><path fill="rgb(129,199,156)" stroke="rgb(129,199,156)" stroke-width="1" opacity="1" d="M 374.5 326 L 372.5 329 L 374.5 326 Z " /><path fill="rgb(129,199,156)" stroke="rgb(129,199,156)" stroke-width="1" opacity="1" d="M 477.5 326 L 481 330.5 L 480 330.5 L 477.5 326 Z " /><path fill="rgb(129,199,156)" stroke="rgb(129,199,156)" stroke-width="1" opacity="1" d="M 273.5 327 L 274.5 329 L 273.5 327 Z " /><path fill="rgb(129,199,156)" stroke="rgb(129,199,156)" stroke-width="1" opacity="1" d="M 370.5 329 L 369.5 331 L 370.5 329 Z " /><path fill="rgb(129,199,156)" stroke="rgb(129,199,156)" stroke-width="1" opacity="1" d="M 270.5 330 L 276.5 337 L 270.5 330 Z " /><path fill="rgb(129,199,156)" stroke="rgb(129,199,156)" stroke-width="1" opacity="1" d="M 277.5 331 L 278.5 333 L 277.5 331 Z " /><path fill="rgb(129,199,156)" stroke="rgb(129,199,156)" stroke-width="1" opacity="1" d="M 307.5 331 L 308 336.5 L 307 336.5 L 307.5 331 Z " /><path fill="rgb(129,199,156)" stroke="rgb(129,199,156)" stroke-width="1" opacity="1" d="M 46.5 332 L 47 363.5 L 46 363.5 L 46.5 332 Z " /><path fill="rgb(129,199,156)" stroke="rgb(129,199,156)" stroke-width="1" opacity="1" d="M 481.5 332 L 482 363.5 L 481 363.5 L 481.5 332 Z " /><path fill="rgb(129,199,156)" stroke="rgb(129,199,156)" stroke-width="1" opacity="1" d="M 360.5 333 L 363 333.5 L 360.5 334 L 360.5 333 Z " /><path fill="rgb(129,199,156)" stroke="rgb(129,199,156)" stroke-width="1" opacity="1" d="M 302.5 337 Q 304.8 336.3 304 338.5 L 302.5 337 Z " /><path fill="rgb(129,199,156)" stroke="rgb(129,199,156)" stroke-width="1" opacity="1" d="M 287.5 340 L 295 340.5 L 287.5 341 L 287.5 340 Z " /><path fill="rgb(129,199,156)" stroke="rgb(129,199,156)" stroke-width="1" opacity="1" d="M 350.5 345 L 351 346.5 L 349 347.5 L 350.5 345 Z " /><path fill="rgb(129,199,156)" stroke="rgb(129,199,156)" stroke-width="1" opacity="1" d="M 344.5 347 L 343.5 349 L 344.5 347 Z " /><path fill="rgb(129,199,156)" stroke="rgb(129,199,156)" stroke-width="1" opacity="1" d="M 307.5 348 L 309.5 351 L 307.5 348 Z " /><path fill="rgb(129,199,156)" stroke="rgb(129,199,156)" stroke-width="1" opacity="1" d="M 348.5 349 L 343.5 355 L 348.5 349 Z " /><path fill="rgb(129,199,156)" stroke="rgb(129,199,156)" stroke-width="1" opacity="1" d="M 341.5 350 L 340.5 352 L 341.5 350 Z " /><path fill="rgb(129,199,156)" stroke="rgb(129,199,156)" stroke-width="1" opacity="1" d="M 312.5 353 L 314.5 356 L 312.5 353 Z " /><path fill="rgb(129,199,156)" stroke="rgb(129,199,156)" stroke-width="1" opacity="1" d="M 326.5 355 L 330 355.5 L 326.5 356 L 326.5 355 Z " /><path fill="rgb(129,199,156)" stroke="rgb(129,199,156)" stroke-width="1" opacity="1" d="M 341.5 355 L 340.5 357 L 337.5 358 L 337.5 357 L 341.5 355 Z " /><path fill="rgb(129,199,156)" stroke="rgb(129,199,156)" stroke-width="1" opacity="1" d="M 326.5 359 L 330 359.5 L 326.5 360 L 326.5 359 Z " /><path fill="rgb(129,199,156)" stroke="rgb(129,199,156)" stroke-width="1" opacity="1" d="M 48.5 367 L 49.5 369 L 48.5 367 Z " /><path fill="rgb(129,199,156)" stroke="rgb(129,199,156)" stroke-width="1" opacity="1" d="M 479.5 367 L 477.5 370 L 476 369.5 L 479.5 367 Z " /><path fill="rgb(129,199,156)" stroke="rgb(129,199,156)" stroke-width="1" opacity="1" d="M 77.5 375 L 451 375.5 L 77.5 376 L 77.5 375 Z " /><path fill="rgb(129,199,156)" stroke="rgb(129,199,156)" stroke-width="1" opacity="1" d="M 79.5 382 L 80 384.5 L 79 384.5 L 79.5 382 Z " /><path fill="rgb(129,199,156)" stroke="rgb(129,199,156)" stroke-width="1" opacity="1" d="M 448.5 382 L 449 384.5 L 448 384.5 L 448.5 382 Z " /><path fill="rgb(129,199,156)" stroke="rgb(129,199,156)" stroke-width="1" opacity="1" d="M 82.5 395 L 83 397.5 L 82 397.5 L 82.5 395 Z " /><path fill="rgb(129,199,156)" stroke="rgb(129,199,156)" stroke-width="1" opacity="1" d="M 445.5 395 L 446 397.5 L 445 397.5 L 445.5 395 Z " /><path fill="rgb(129,199,156)" stroke="rgb(129,199,156)" stroke-width="1" opacity="1" d="M 85.5 408 L 86 410.5 L 85 410.5 L 85.5 408 Z " /><path fill="rgb(129,199,156)" stroke="rgb(129,199,156)" stroke-width="1" opacity="1" d="M 442.5 408 L 443 410.5 L 442 410.5 L 442.5 408 Z " /><path fill="rgb(129,199,156)" stroke="rgb(129,199,156)" stroke-width="1" opacity="1" d="M 88.5 421 L 89 423.5 L 88 423.5 L 88.5 421 Z " /><path fill="rgb(129,199,156)" stroke="rgb(129,199,156)" stroke-width="1" opacity="1" d="M 439.5 421 L 440 423.5 L 439 423.5 L 439.5 421 Z " /><path fill="rgb(129,199,156)" stroke="rgb(129,199,156)" stroke-width="1" opacity="1" d="M 91.5 434 L 92 436.5 L 91 436.5 L 91.5 434 Z " /><path fill="rgb(129,199,156)" stroke="rgb(129,199,156)" stroke-width="1" opacity="1" d="M 436.5 434 L 437 436.5 L 436 436.5 L 436.5 434 Z " /><path fill="rgb(129,199,156)" stroke="rgb(129,199,156)" stroke-width="1" opacity="1" d="M 434.5 443 L 435 445.5 L 434 445.5 L 434.5 443 Z " /><path fill="rgb(129,199,156)" stroke="rgb(129,199,156)" stroke-width="1" opacity="1" d="M 94.5 447 L 95 449.5 L 94 449.5 L 94.5 447 Z " /><path fill="rgb(129,199,156)" stroke="rgb(129,199,156)" stroke-width="1" opacity="1" d="M 431.5 456 L 432 458.5 L 431 458.5 L 431.5 456 Z " /><path fill="rgb(129,199,156)" stroke="rgb(129,199,156)" stroke-width="1" opacity="1" d="M 97.5 460 L 98 462.5 L 97 462.5 L 97.5 460 Z " /><path fill="rgb(129,199,156)" stroke="rgb(129,199,156)" stroke-width="1" opacity="1" d="M 99.5 469 L 100 471.5 L 99 471.5 L 99.5 469 Z " /><path fill="rgb(129,199,156)" stroke="rgb(129,199,156)" stroke-width="1" opacity="1" d="M 428.5 469 L 429 471.5 L 428 471.5 L 428.5 469 Z " /><path fill="rgb(129,199,156)" stroke="rgb(129,199,156)" stroke-width="1" opacity="1" d="M 100.5 473 L 101 475.5 L 100 475.5 L 100.5 473 Z " /><path fill="rgb(129,199,156)" stroke="rgb(129,199,156)" stroke-width="1" opacity="1" d="M 102.5 481 L 105 485.5 L 103 484.5 L 102.5 481 Z " /><path fill="rgb(129,199,156)" stroke="rgb(129,199,156)" stroke-width="1" opacity="1" d="M 425.5 481 L 426 482.5 L 423.5 486 L 424 484.5 L 425.5 481 Z " /><path fill="rgb(129,199,156)" stroke="rgb(129,199,156)" stroke-width="1" opacity="1" d="M 105.5 487 L 110.5 493 L 105.5 487 Z " /><path fill="rgb(129,199,156)" stroke="rgb(129,199,156)" stroke-width="1" opacity="1" d="M 422.5 487 L 417.5 493 L 422.5 487 Z " /><path fill="rgb(129,199,156)" stroke="rgb(129,199,156)" stroke-width="1" opacity="1" d="M 112.5 493 L 113.5 495 L 112.5 493 Z " /><path fill="rgb(129,199,156)" stroke="rgb(129,199,156)" stroke-width="1" opacity="1" d="M 415.5 493 L 414.5 495 L 415.5 493 Z " /><path fill="rgb(129,199,156)" stroke="rgb(129,199,156)" stroke-width="1" opacity="1" d="M 121.5 497 L 126 497.5 L 121.5 498 L 121.5 497 Z " /><path fill="rgb(129,199,156)" stroke="rgb(129,199,156)" stroke-width="1" opacity="1" d="M 402.5 497 L 407 497.5 L 402.5 498 L 402.5 497 Z " /><path fill="rgb(129,200,156)" stroke="rgb(129,200,156)" stroke-width="1" opacity="1" d="M 53.5 325 L 266.5 325 L 268 326.5 L 276.5 337 L 282.5 340 L 294.5 341 L 302.5 338 L 307 348.5 L 314.5 356 Q 320.2 359.8 329.5 360 L 340.5 357 L 349 349.5 L 353 340.5 L 353 334 Q 368.5 335.3 375 326.5 L 375.5 325 L 474.5 325 L 480 329.5 L 481 331.5 L 481 364.5 L 477.5 369 L 472.5 371 L 55.5 371 L 48 366.5 L 47 364.5 L 47 331.5 L 51.5 326 L 53.5 325 Z " /><path fill="rgb(129,200,156)" stroke="rgb(129,200,156)" stroke-width="1" opacity="1" d="M 78 376 L 449.5 376 L 450 377.5 L 436 434.5 L 427 477.5 Q 424.3 487.8 416.5 493 L 408.5 497 Q 403 495.5 401.5 498 L 126.5 498 L 114.5 495 L 105 486.5 L 101 477.5 L 101 473.5 L 78 376 Z " /></svg>