<svg width="512" height="512" version="1.1" xmlns="http://www.w3.org/2000/svg" desc="Created with imagetracer.js version 1.2.6" ><path fill="rgb(219,220,219)" stroke="rgb(219,220,219)" stroke-width="1" opacity="1" d="M 154.5 16 L 155 70.5 L 154 70.5 L 154.5 16 Z " /><path fill="rgb(219,220,219)" stroke="rgb(219,220,219)" stroke-width="1" opacity="1" d="M 161.5 16 L 162.5 18 L 161.5 16 Z " /><path fill="rgb(219,220,219)" stroke="rgb(219,220,219)" stroke-width="1" opacity="1" d="M 350.5 16 L 348.5 19 L 350.5 16 Z " /><path fill="rgb(219,220,219)" stroke="rgb(219,220,219)" stroke-width="1" opacity="1" d="M 357.5 16 L 358 69.5 L 357 69.5 L 357.5 16 Z " /><path fill="rgb(219,220,219)" stroke="rgb(219,220,219)" stroke-width="1" opacity="1" d="M 166.5 20 L 167.5 22 L 166.5 20 Z " /><path fill="rgb(219,220,219)" stroke="rgb(219,220,219)" stroke-width="1" opacity="1" d="M 344.5 21 L 343.5 23 L 344.5 21 Z " /><path fill="rgb(219,220,219)" stroke="rgb(219,220,219)" stroke-width="1" opacity="1" d="M 171.5 24 L 172.5 26 L 171.5 24 Z " /><path fill="rgb(219,220,219)" stroke="rgb(219,220,219)" stroke-width="1" opacity="1" d="M 247.5 28 L 265 28.5 L 247.5 29 L 247.5 28 Z " /><path fill="rgb(219,220,219)" stroke="rgb(219,220,219)" stroke-width="1" opacity="1" d="M 233.5 29 L 236 29.5 L 233.5 30 L 233.5 29 Z " /><path fill="rgb(219,220,219)" stroke="rgb(219,220,219)" stroke-width="1" opacity="1" d="M 334.5 29 L 333.5 31 L 334.5 29 Z " /><path fill="rgb(219,220,219)" stroke="rgb(219,220,219)" stroke-width="1" opacity="1" d="M 182.5 33 L 183.5 35 L 182.5 33 Z " /><path fill="rgb(219,220,219)" stroke="rgb(219,220,219)" stroke-width="1" opacity="1" d="M 329.5 33 L 328.5 35 L 329.5 33 Z " /><path fill="rgb(219,220,219)" stroke="rgb(219,220,219)" stroke-width="1" opacity="1" d="M 187.5 37 L 188.5 39 L 187.5 37 Z " /><path fill="rgb(219,220,219)" stroke="rgb(219,220,219)" stroke-width="1" opacity="1" d="M 324.5 37 L 323.5 39 L 324.5 37 Z " /><path fill="rgb(219,220,219)" stroke="rgb(219,220,219)" stroke-width="1" opacity="1" d="M 208.5 81 L 211 81.5 L 208.5 82 L 208.5 81 Z " /><path fill="rgb(219,220,219)" stroke="rgb(219,220,219)" stroke-width="1" opacity="1" d="M 303.5 81 L 307 81.5 L 303.5 82 L 303.5 81 Z " /><path fill="rgb(219,220,219)" stroke="rgb(219,220,219)" stroke-width="1" opacity="1" d="M 205.5 82 L 203.5 85 L 205.5 82 Z " /><path fill="rgb(219,220,219)" stroke="rgb(219,220,219)" stroke-width="1" opacity="1" d="M 301.5 82 L 299.5 85 L 301.5 82 Z " /><path fill="rgb(219,220,219)" stroke="rgb(219,220,219)" stroke-width="1" opacity="1" d="M 298.5 87 L 299 89.5 L 298 89.5 L 298.5 87 Z " /><path fill="rgb(219,220,219)" stroke="rgb(219,220,219)" stroke-width="1" opacity="1" d="M 148.5 107 L 149 109.5 L 148 109.5 L 148.5 107 Z " /><path fill="rgb(219,220,219)" stroke="rgb(219,220,219)" stroke-width="1" opacity="1" d="M 252.5 108 L 260 108.5 L 252.5 109 L 252.5 108 Z " /><path fill="rgb(219,220,219)" stroke="rgb(219,220,219)" stroke-width="1" opacity="1" d="M 247.5 110 L 246.5 112 L 247.5 110 Z " /><path fill="rgb(219,220,219)" stroke="rgb(219,220,219)" stroke-width="1" opacity="1" d="M 264.5 110 L 265.5 112 L 264.5 110 Z " /><path fill="rgb(219,220,219)" stroke="rgb(219,220,219)" stroke-width="1" opacity="1" d="M 245.5 114 L 246 116.5 L 245 116.5 L 245.5 114 Z " /><path fill="rgb(219,220,219)" stroke="rgb(219,220,219)" stroke-width="1" opacity="1" d="M 248.5 124 L 249.5 126 L 248.5 124 Z " /><path fill="rgb(219,220,219)" stroke="rgb(219,220,219)" stroke-width="1" opacity="1" d="M 263.5 124 L 262.5 126 L 263.5 124 Z " /><path fill="rgb(219,220,219)" stroke="rgb(219,220,219)" stroke-width="1" opacity="1" d="M 253.5 129 L 254 137.5 L 253 137.5 L 253.5 129 Z " /><path fill="rgb(219,220,219)" stroke="rgb(219,220,219)" stroke-width="1" opacity="1" d="M 221.5 138 L 222 139.5 L 220 140.5 L 221.5 138 Z " /><path fill="rgb(219,220,219)" stroke="rgb(219,220,219)" stroke-width="1" opacity="1" d="M 290.5 138 L 292 140.5 L 290 139.5 L 290.5 138 Z " /><path fill="rgb(219,220,219)" stroke="rgb(219,220,219)" stroke-width="1" opacity="1" d="M 255.5 143 L 259 145.5 L 256.5 144 L 254.5 145 L 255.5 143 Z " /><path fill="rgb(219,220,219)" stroke="rgb(219,220,219)" stroke-width="1" opacity="1" d="M 273.5 146 L 272.5 148 L 263 147.5 L 272.5 147 L 273.5 146 Z " /><path fill="rgb(219,220,219)" stroke="rgb(219,220,219)" stroke-width="1" opacity="1" d="M 239.5 147 L 248 147.5 L 239.5 148 L 239.5 147 Z " /><path fill="rgb(219,220,219)" stroke="rgb(219,220,219)" stroke-width="1" opacity="1" d="M 164.5 166 L 165.5 168 L 164.5 166 Z " /><path fill="rgb(219,220,219)" stroke="rgb(219,220,219)" stroke-width="1" opacity="1" d="M 347.5 166 L 346.5 168 L 347.5 166 Z " /><path fill="rgb(219,220,219)" stroke="rgb(219,220,219)" stroke-width="1" opacity="1" d="M 396.5 170 Q 410.7 171.3 416 181.5 L 421 189.5 L 427 206.5 L 428 218.5 L 429 219.5 L 429 231.5 L 426 248.5 L 415 274.5 Q 403 296 385.5 312 Q 382.8 312.6 384 306.5 L 383 304.5 L 385 304.5 L 400 282.5 L 401 277.5 L 394 267 L 386.5 262 L 385 262.5 L 388 256.5 L 390.5 243 L 392.5 247 Q 401.3 250.7 406 258.5 L 408.5 262 L 414 246.5 L 417 226.5 Q 409.5 216.7 392 218 L 391 203.5 L 390 201 Q 405.5 199.8 414.5 206 L 415 203.5 L 408 183.5 L 398.5 171 Q 395.5 171.5 396.5 170 Z " /><path fill="rgb(219,220,219)" stroke="rgb(219,220,219)" stroke-width="1" opacity="1" d="M 390.5 174 L 389.5 176 L 390.5 174 Z " /><path fill="rgb(219,220,219)" stroke="rgb(219,220,219)" stroke-width="1" opacity="1" d="M 334.5 179 L 333.5 181 L 334.5 179 Z " /><path fill="rgb(219,220,219)" stroke="rgb(219,220,219)" stroke-width="1" opacity="1" d="M 327.5 184 L 326.5 186 L 327.5 184 Z " /><path fill="rgb(219,220,219)" stroke="rgb(219,220,219)" stroke-width="1" opacity="1" d="M 391.5 236 L 392 238.5 L 391 238.5 L 391.5 236 Z " /><path fill="rgb(219,220,219)" stroke="rgb(219,220,219)" stroke-width="1" opacity="1" d="M 289.5 264 L 290 274.5 L 289 274.5 L 289.5 264 Z " /><path fill="rgb(219,220,219)" stroke="rgb(219,220,219)" stroke-width="1" opacity="1" d="M 222.5 267 L 223 310.5 L 222 310.5 L 222.5 267 Z " /><path fill="rgb(219,220,219)" stroke="rgb(219,220,219)" stroke-width="1" opacity="1" d="M 289.5 283 L 290 311.5 L 289 311.5 L 289.5 283 Z " /><path fill="rgb(219,220,219)" stroke="rgb(219,220,219)" stroke-width="1" opacity="1" d="M 339.5 291 L 340 293.5 L 339 293.5 L 339.5 291 Z " /><path fill="rgb(219,220,219)" stroke="rgb(219,220,219)" stroke-width="1" opacity="1" d="M 135.5 292 L 136 295.5 L 135 295.5 L 135.5 292 Z " /><path fill="rgb(219,220,219)" stroke="rgb(219,220,219)" stroke-width="1" opacity="1" d="M 376.5 292 L 377 295.5 L 376 295.5 L 376.5 292 Z " /><path fill="rgb(219,220,219)" stroke="rgb(219,220,219)" stroke-width="1" opacity="1" d="M 172.5 293 L 173 295.5 L 172 295.5 L 172.5 293 Z " /><path fill="rgb(219,220,219)" stroke="rgb(219,220,219)" stroke-width="1" opacity="1" d="M 334.5 295 L 335 298.5 L 334 298.5 L 334.5 295 Z " /><path fill="rgb(219,220,219)" stroke="rgb(219,220,219)" stroke-width="1" opacity="1" d="M 134.5 297 L 135 305.5 L 134 306.5 L 134 320.5 L 133 321.5 L 133 346.5 Q 135.3 347.8 134 352.5 L 133 352.5 L 130 336.5 L 130 323.5 L 131 322.5 L 131 315.5 L 134.5 297 Z " /><path fill="rgb(219,220,219)" stroke="rgb(219,220,219)" stroke-width="1" opacity="1" d="M 177.5 297 L 178 299.5 L 177 299.5 L 177.5 297 Z " /><path fill="rgb(219,220,219)" stroke="rgb(219,220,219)" stroke-width="1" opacity="1" d="M 377.5 297 L 381 315.5 L 381 322.5 L 382 323.5 L 382 336.5 L 378.5 353 L 378 347.5 L 379 346.5 L 379 321.5 L 378 320.5 L 377.5 297 Z " /><path fill="rgb(219,220,219)" stroke="rgb(219,220,219)" stroke-width="1" opacity="1" d="M 173.5 305 L 174 307.5 L 173 307.5 L 173.5 305 Z " /><path fill="rgb(219,220,219)" stroke="rgb(219,220,219)" stroke-width="1" opacity="1" d="M 333.5 307 L 334 309.5 L 333 309.5 L 333.5 307 Z " /><path fill="rgb(219,220,219)" stroke="rgb(219,220,219)" stroke-width="1" opacity="1" d="M 178.5 308 L 179 310.5 L 178 310.5 L 178.5 308 Z " /><path fill="rgb(219,220,219)" stroke="rgb(219,220,219)" stroke-width="1" opacity="1" d="M 217.5 321 L 218 339.5 L 217 339.5 L 217.5 321 Z " /><path fill="rgb(219,220,219)" stroke="rgb(219,220,219)" stroke-width="1" opacity="1" d="M 183.5 341 L 184 344.5 L 183 344.5 L 183.5 341 Z " /><path fill="rgb(219,220,219)" stroke="rgb(219,220,219)" stroke-width="1" opacity="1" d="M 328.5 341 L 329 343.5 L 328 343.5 L 328.5 341 Z " /><path fill="rgb(219,220,219)" stroke="rgb(219,220,219)" stroke-width="1" opacity="1" d="M 289.5 344 L 290 353.5 L 289 353.5 L 289.5 344 Z " /><path fill="rgb(219,220,219)" stroke="rgb(219,220,219)" stroke-width="1" opacity="1" d="M 222.5 345 L 223 353.5 L 222 353.5 L 222.5 345 Z " /><path fill="rgb(219,220,219)" stroke="rgb(219,220,219)" stroke-width="1" opacity="1" d="M 271.5 360 L 281 360.5 L 271.5 361 L 271.5 360 Z " /><path fill="rgb(219,220,219)" stroke="rgb(219,220,219)" stroke-width="1" opacity="1" d="M 236.5 361 L 242 361.5 L 236.5 362 L 236.5 361 Z " /><path fill="rgb(219,220,219)" stroke="rgb(219,220,219)" stroke-width="1" opacity="1" d="M 183.5 362 L 184 364.5 L 183 364.5 L 183.5 362 Z " /><path fill="rgb(219,220,219)" stroke="rgb(219,220,219)" stroke-width="1" opacity="1" d="M 343.5 363 L 346 363.5 L 343.5 364 L 343.5 363 Z " /><path fill="rgb(219,220,219)" stroke="rgb(219,220,219)" stroke-width="1" opacity="1" d="M 257.5 365 L 287.5 365 L 288 366.5 Q 285.3 371.1 286 378 L 246.5 378 L 245.5 379 L 226 379 L 225 367 L 231.5 366 L 256.5 366 L 257.5 365 Z " /><path fill="rgb(219,220,219)" stroke="rgb(219,220,219)" stroke-width="1" opacity="1" d="M 335 367 L 337.5 368 L 347.5 368 L 348.5 369 L 375 371 L 373 384 Q 368.5 382.3 360.5 383 L 359.5 382 L 351.5 382 L 350.5 381 L 340.5 381 L 337 380 L 335 367 Z " /><path fill="rgb(219,220,219)" stroke="rgb(219,220,219)" stroke-width="1" opacity="1" d="M 175.5 371 L 176 373.5 L 175 374.5 L 175 383.5 L 173.5 385 L 166.5 385 L 146.5 389 L 140 389 L 138 377 L 160.5 373 L 174.5 372 L 175.5 371 Z " /><path fill="rgb(219,220,219)" stroke="rgb(219,220,219)" stroke-width="1" opacity="1" d="M 221.5 377 L 222 379.5 L 221 379.5 L 221.5 377 Z " /><path fill="rgb(219,220,219)" stroke="rgb(219,220,219)" stroke-width="1" opacity="1" d="M 290.5 377 L 291 380.5 L 290 380.5 L 290.5 377 Z " /><path fill="rgb(219,220,219)" stroke="rgb(219,220,219)" stroke-width="1" opacity="1" d="M 268.5 382 L 285.5 382 L 287 383.5 L 285.5 383 L 268.5 383 L 268.5 382 Z " /><path fill="rgb(219,220,219)" stroke="rgb(219,220,219)" stroke-width="1" opacity="1" d="M 236.5 383 L 241 383.5 L 236.5 384 L 236.5 383 Z " /><path fill="rgb(219,220,219)" stroke="rgb(219,220,219)" stroke-width="1" opacity="1" d="M 219.5 385 L 218.5 387 L 219.5 385 Z " /><path fill="rgb(219,220,219)" stroke="rgb(219,220,219)" stroke-width="1" opacity="1" d="M 292.5 385 L 293.5 387 L 292.5 385 Z " /><path fill="rgb(219,220,219)" stroke="rgb(219,220,219)" stroke-width="1" opacity="1" d="M 450.5 387 L 460.5 390 L 465 393.5 Q 466.5 400.5 462.5 402 L 457.5 403 L 447 400 L 449 388.5 L 450.5 387 Z " /><path fill="rgb(219,220,219)" stroke="rgb(219,220,219)" stroke-width="1" opacity="1" d="M 370.5 388 Q 373.1 387.2 372 390.5 L 371 390.5 L 370.5 388 Z " /><path fill="rgb(219,220,219)" stroke="rgb(219,220,219)" stroke-width="1" opacity="1" d="M 193.5 391 L 198 391.5 L 193.5 392 L 193.5 391 Z " /><path fill="rgb(219,220,219)" stroke="rgb(219,220,219)" stroke-width="1" opacity="1" d="M 314.5 391 L 319 391.5 L 314.5 392 L 314.5 391 Z " /><path fill="rgb(219,220,219)" stroke="rgb(219,220,219)" stroke-width="1" opacity="1" d="M 61.5 395 Q 65.3 393.8 64 397.5 L 66 406.5 L 55.5 411 L 50.5 411 Q 45.5 409.5 47 401.5 L 51.5 398 L 61.5 395 Z " /><path fill="rgb(219,220,219)" stroke="rgb(219,220,219)" stroke-width="1" opacity="1" d="M 143.5 403 Q 151.8 429.2 170.5 445 Q 177.1 450.4 187.5 452 L 324.5 452 Q 342.4 448.4 351 435.5 Q 362.4 421.9 368.5 403 L 369 405.5 L 362 438.5 L 362 445.5 L 344.5 465 Q 341.2 466.1 342 463.5 L 340 451 L 336 452.5 L 337 464.5 L 343 477.5 L 343 491.5 L 340.5 494 L 332.5 497 L 314.5 498 L 303.5 496 L 297 491.5 L 296 489.5 L 296 469.5 L 297 468.5 L 298 455.5 Q 296.8 452.8 295.5 455 Q 292.9 454.2 294 457.5 L 293 458.5 L 292 471 L 220.5 471 L 220 467.5 L 219 466.5 L 219 454.5 L 217.5 453 L 214 454.5 L 215 469.5 L 217 477.5 L 217 486.5 L 212.5 494 L 204.5 497 L 186.5 498 L 175.5 496 L 169 491.5 L 169 478.5 L 175 464.5 L 176 452.5 L 172 451 L 170 465 L 167.5 465 L 155 452.5 L 150 445.5 L 150 438.5 L 147 427.5 L 143.5 403 Z " /><path fill="rgb(0,0,0)" stroke="rgb(0,0,0)" stroke-width="1" opacity="0" d="M 0 0 L 512 0 L 512 512 L 0 512 L 0 0 Z M 155 10 L 153 11 L 150 15 L 150 71 L 147 81 L 145 101 L 144 102 L 144 110 L 143 111 L 144 133 L 151 155 Q 159 171 173 183 L 169 188 L 153 220 L 137 264 L 130 293 L 126 326 L 120 323 L 114 323 L 97 327 L 91 333 L 86 330 L 77 330 L 63 333 L 60 335 L 55 342 L 55 352 L 63 390 L 46 396 L 42 402 L 43 411 L 51 416 L 56 416 L 67 412 L 74 452 L 77 459 L 84 463 L 94 463 L 108 460 L 114 453 L 121 457 L 141 454 L 148 450 L 152 457 L 167 471 L 164 480 Q 162 490 166 496 L 173 500 L 181 502 L 204 502 L 216 498 L 221 491 L 221 484 L 221 482 Q 220 476 222 476 L 291 476 L 291 490 L 294 496 L 301 500 L 309 502 L 332 502 L 344 498 L 348 491 Q 350 477 345 471 L 348 469 Q 358 461 364 450 L 372 454 L 387 457 Q 395 458 399 453 L 400 457 L 406 460 L 419 463 Q 428 465 433 461 Q 437 458 438 452 L 447 404 L 458 408 L 466 406 L 470 401 L 469 391 L 464 386 L 451 382 L 457 351 Q 459 342 455 338 L 450 333 L 436 330 Q 425 328 422 333 L 416 327 L 399 323 Q 391 322 388 325 L 386 326 Q 384 319 387 318 Q 386 315 389 316 L 389 314 L 391 314 L 393 311 L 396 309 L 412 289 L 424 268 L 431 249 L 433 239 L 433 229 L 434 228 L 433 213 L 430 200 L 419 178 Q 414 170 404 166 Q 393 164 389 169 L 383 178 Q 385 184 382 186 L 387 209 L 387 224 L 388 225 L 387 227 L 387 239 L 384 253 L 377 270 L 364 232 L 351 203 L 340 184 L 340 182 L 354 167 L 361 155 L 367 138 L 368 126 L 369 125 L 369 111 L 368 110 L 367 94 L 366 93 L 364 76 L 362 71 L 362 15 L 361 13 L 358 10 L 351 10 L 322 34 L 297 27 L 277 25 L 276 24 L 237 24 L 236 25 L 229 25 L 212 28 L 194 34 L 191 34 L 162 10 L 155 10 Z " /><path fill="rgb(234,234,233)" stroke="rgb(234,234,233)" stroke-width="1" opacity="1" d="M 163.5 18 L 164.5 20 L 163.5 18 Z " /><path fill="rgb(234,234,233)" stroke="rgb(234,234,233)" stroke-width="1" opacity="1" d="M 168.5 22 L 169.5 24 L 168.5 22 Z " /><path fill="rgb(234,234,233)" stroke="rgb(234,234,233)" stroke-width="1" opacity="1" d="M 173.5 26 L 174.5 28 L 173.5 26 Z " /><path fill="rgb(234,234,233)" stroke="rgb(234,234,233)" stroke-width="1" opacity="1" d="M 338.5 26 L 337.5 28 L 338.5 26 Z " /><path fill="rgb(234,234,233)" stroke="rgb(234,234,233)" stroke-width="1" opacity="1" d="M 178.5 30 L 179.5 32 L 178.5 30 Z " /><path fill="rgb(234,234,233)" stroke="rgb(234,234,233)" stroke-width="1" opacity="1" d="M 214.5 92 L 213.5 94 L 214.5 92 Z " /><path fill="rgb(234,234,233)" stroke="rgb(234,234,233)" stroke-width="1" opacity="1" d="M 310.5 92 L 309.5 94 L 310.5 92 Z " /><path fill="rgb(234,234,233)" stroke="rgb(234,234,233)" stroke-width="1" opacity="1" d="M 187.5 131 L 188.5 133 L 187.5 131 Z " /><path fill="rgb(234,234,233)" stroke="rgb(234,234,233)" stroke-width="1" opacity="1" d="M 220.5 136 L 221.5 138 L 220.5 136 Z " /><path fill="rgb(234,234,233)" stroke="rgb(234,234,233)" stroke-width="1" opacity="1" d="M 291.5 136 L 290.5 138 L 291.5 136 Z " /><path fill="rgb(234,234,233)" stroke="rgb(234,234,233)" stroke-width="1" opacity="1" d="M 251.5 140 L 250.5 142 L 251.5 140 Z " /><path fill="rgb(234,234,233)" stroke="rgb(234,234,233)" stroke-width="1" opacity="1" d="M 187.5 156 L 188.5 158 L 187.5 156 Z " /><path fill="rgb(234,234,233)" stroke="rgb(234,234,233)" stroke-width="1" opacity="1" d="M 324.5 156 L 323.5 158 L 324.5 156 Z " /><path fill="rgb(234,234,233)" stroke="rgb(234,234,233)" stroke-width="1" opacity="1" d="M 166.5 168 L 167.5 170 L 166.5 168 Z " /><path fill="rgb(234,234,233)" stroke="rgb(234,234,233)" stroke-width="1" opacity="1" d="M 345.5 168 L 344.5 170 L 345.5 168 Z " /><path fill="rgb(234,234,233)" stroke="rgb(234,234,233)" stroke-width="1" opacity="1" d="M 398.5 171 L 406 180.5 L 404 179.5 L 398.5 171 Z " /><path fill="rgb(234,234,233)" stroke="rgb(234,234,233)" stroke-width="1" opacity="1" d="M 175.5 177 L 176.5 179 L 175.5 177 Z " /><path fill="rgb(234,234,233)" stroke="rgb(234,234,233)" stroke-width="1" opacity="1" d="M 336.5 177 L 335.5 179 L 336.5 177 Z " /><path fill="rgb(234,234,233)" stroke="rgb(234,234,233)" stroke-width="1" opacity="1" d="M 406.5 182 L 410 188.5 L 409 188.5 L 406.5 182 Z " /><path fill="rgb(234,234,233)" stroke="rgb(234,234,233)" stroke-width="1" opacity="1" d="M 411.5 193 L 413 197.5 L 412 197.5 L 411.5 193 Z " /><path fill="rgb(234,234,233)" stroke="rgb(234,234,233)" stroke-width="1" opacity="1" d="M 413.5 199 L 414 201.5 L 413 201.5 L 413.5 199 Z " /><path fill="rgb(234,234,233)" stroke="rgb(234,234,233)" stroke-width="1" opacity="1" d="M 414.5 203 L 415 205.5 L 414 205.5 L 414.5 203 Z " /><path fill="rgb(234,234,233)" stroke="rgb(234,234,233)" stroke-width="1" opacity="1" d="M 413.5 223 L 414.5 225 L 413.5 223 Z " /><path fill="rgb(234,234,233)" stroke="rgb(234,234,233)" stroke-width="1" opacity="1" d="M 415.5 233 L 416 236.5 L 415 236.5 L 415.5 233 Z " /><path fill="rgb(234,234,233)" stroke="rgb(234,234,233)" stroke-width="1" opacity="1" d="M 414.5 239 L 415 241.5 L 414 241.5 L 414.5 239 Z " /><path fill="rgb(234,234,233)" stroke="rgb(234,234,233)" stroke-width="1" opacity="1" d="M 413.5 244 L 414 246.5 L 413 246.5 L 413.5 244 Z " /><path fill="rgb(234,234,233)" stroke="rgb(234,234,233)" stroke-width="1" opacity="1" d="M 391.5 245 L 392.5 247 L 391.5 245 Z " /><path fill="rgb(234,234,233)" stroke="rgb(234,234,233)" stroke-width="1" opacity="1" d="M 394.5 247 L 395.5 249 L 394.5 247 Z " /><path fill="rgb(234,234,233)" stroke="rgb(234,234,233)" stroke-width="1" opacity="1" d="M 412.5 248 L 413 250.5 L 412 250.5 L 412.5 248 Z " /><path fill="rgb(234,234,233)" stroke="rgb(234,234,233)" stroke-width="1" opacity="1" d="M 398.5 250 L 404.5 257 L 398.5 250 Z " /><path fill="rgb(234,234,233)" stroke="rgb(234,234,233)" stroke-width="1" opacity="1" d="M 410.5 255 L 411 257.5 L 409.5 260 L 409 258.5 L 410.5 255 Z " /><path fill="rgb(234,234,233)" stroke="rgb(234,234,233)" stroke-width="1" opacity="1" d="M 406.5 259 L 408.5 262 L 406.5 259 Z " /><path fill="rgb(234,234,233)" stroke="rgb(234,234,233)" stroke-width="1" opacity="1" d="M 388.5 263 L 389.5 265 L 388.5 263 Z " /><path fill="rgb(234,234,233)" stroke="rgb(234,234,233)" stroke-width="1" opacity="1" d="M 396.5 271 L 397.5 273 L 396.5 271 Z " /><path fill="rgb(234,234,233)" stroke="rgb(234,234,233)" stroke-width="1" opacity="1" d="M 400.5 280 L 400 281.5 L 397.5 286 L 397 284.5 L 400.5 280 Z " /><path fill="rgb(234,234,233)" stroke="rgb(234,234,233)" stroke-width="1" opacity="1" d="M 396.5 287 L 395.5 289 L 396.5 287 Z " /><path fill="rgb(234,234,233)" stroke="rgb(234,234,233)" stroke-width="1" opacity="1" d="M 136.5 288 L 137 292.5 L 136 292.5 L 136.5 288 Z " /><path fill="rgb(234,234,233)" stroke="rgb(234,234,233)" stroke-width="1" opacity="1" d="M 375.5 288 L 376 292.5 L 375 292.5 L 375.5 288 Z " /><path fill="rgb(234,234,233)" stroke="rgb(234,234,233)" stroke-width="1" opacity="1" d="M 394.5 290 L 393.5 292 L 394.5 290 Z " /><path fill="rgb(234,234,233)" stroke="rgb(234,234,233)" stroke-width="1" opacity="1" d="M 392.5 293 L 391 295.5 L 388.5 299 L 390 296.5 L 392.5 293 Z " /><path fill="rgb(234,234,233)" stroke="rgb(234,234,233)" stroke-width="1" opacity="1" d="M 135.5 296 L 136 302.5 L 135 302.5 L 135.5 296 Z " /><path fill="rgb(234,234,233)" stroke="rgb(234,234,233)" stroke-width="1" opacity="1" d="M 376.5 296 L 377 302.5 L 376 302.5 L 376.5 296 Z " /><path fill="rgb(234,234,233)" stroke="rgb(234,234,233)" stroke-width="1" opacity="1" d="M 387.5 300 L 385 303.5 L 384.5 305 L 384 303.5 L 387.5 300 Z " /><path fill="rgb(234,234,233)" stroke="rgb(234,234,233)" stroke-width="1" opacity="1" d="M 134.5 306 L 135 314.5 L 134 314.5 L 134.5 306 Z " /><path fill="rgb(234,234,233)" stroke="rgb(234,234,233)" stroke-width="1" opacity="1" d="M 377.5 306 L 378 313.5 L 377 313.5 L 377.5 306 Z " /><path fill="rgb(234,234,233)" stroke="rgb(234,234,233)" stroke-width="1" opacity="1" d="M 222.5 311 L 223 315.5 L 222 315.5 L 222.5 311 Z " /><path fill="rgb(234,234,233)" stroke="rgb(234,234,233)" stroke-width="1" opacity="1" d="M 289.5 312 L 290 316.5 L 289 316.5 L 289.5 312 Z " /><path fill="rgb(234,234,233)" stroke="rgb(234,234,233)" stroke-width="1" opacity="1" d="M 217.5 316 L 218 320.5 L 217 320.5 L 217.5 316 Z " /><path fill="rgb(234,234,233)" stroke="rgb(234,234,233)" stroke-width="1" opacity="1" d="M 294.5 319 L 295 340.5 L 294 340.5 L 294.5 319 Z " /><path fill="rgb(234,234,233)" stroke="rgb(234,234,233)" stroke-width="1" opacity="1" d="M 133.5 321 L 134 346.5 L 133 346.5 L 133.5 321 Z " /><path fill="rgb(234,234,233)" stroke="rgb(234,234,233)" stroke-width="1" opacity="1" d="M 378.5 321 L 379 346.5 L 378 346.5 L 378.5 321 Z " /><path fill="rgb(234,234,233)" stroke="rgb(234,234,233)" stroke-width="1" opacity="1" d="M 217.5 340 L 218 342.5 L 217 342.5 L 217.5 340 Z " /><path fill="rgb(234,234,233)" stroke="rgb(234,234,233)" stroke-width="1" opacity="1" d="M 222.5 342 L 223 344.5 L 222 344.5 L 222.5 342 Z " /><path fill="rgb(234,234,233)" stroke="rgb(234,234,233)" stroke-width="1" opacity="1" d="M 134.5 353 L 135 356.5 L 134 356.5 L 134.5 353 Z " /><path fill="rgb(234,234,233)" stroke="rgb(234,234,233)" stroke-width="1" opacity="1" d="M 377.5 353 L 378 356.5 L 377 356.5 L 377.5 353 Z " /><path fill="rgb(234,234,233)" stroke="rgb(234,234,233)" stroke-width="1" opacity="1" d="M 367.5 404 L 368 405.5 L 364.5 413 L 364 411.5 L 367.5 404 Z " /><path fill="rgb(234,234,233)" stroke="rgb(234,234,233)" stroke-width="1" opacity="1" d="M 146.5 409 L 149 414.5 L 148 414.5 L 146.5 409 Z " /><path fill="rgb(234,234,233)" stroke="rgb(234,234,233)" stroke-width="1" opacity="1" d="M 150.5 418 L 154 423.5 L 152 422.5 L 150.5 418 Z " /><path fill="rgb(234,234,233)" stroke="rgb(234,234,233)" stroke-width="1" opacity="1" d="M 361.5 418 L 361 419.5 L 358.5 424 L 359 422.5 L 361.5 418 Z " /><path fill="rgb(234,234,233)" stroke="rgb(234,234,233)" stroke-width="1" opacity="1" d="M 154.5 425 L 161 433.5 L 157 430.5 L 154.5 425 Z " /><path fill="rgb(234,234,233)" stroke="rgb(234,234,233)" stroke-width="1" opacity="1" d="M 357.5 425 L 357 426.5 L 351.5 434 L 354 430.5 L 357.5 425 Z " /><path fill="rgb(234,234,233)" stroke="rgb(234,234,233)" stroke-width="1" opacity="1" d="M 161.5 435 L 174 446.5 L 171.5 445 L 161.5 435 Z " /><path fill="rgb(234,234,233)" stroke="rgb(234,234,233)" stroke-width="1" opacity="1" d="M 350.5 435 L 341.5 445 L 338.5 447 L 340.5 444 L 350.5 435 Z " /><path fill="rgb(234,234,233)" stroke="rgb(234,234,233)" stroke-width="1" opacity="1" d="M 177.5 448 L 181 449.5 L 179.5 450 L 177.5 448 Z " /><path fill="rgb(234,234,233)" stroke="rgb(234,234,233)" stroke-width="1" opacity="1" d="M 333.5 448 L 335 448.5 L 331.5 450 L 331.5 449 L 333.5 448 Z " /><path fill="rgb(234,234,233)" stroke="rgb(234,234,233)" stroke-width="1" opacity="1" d="M 182.5 450 L 185 450.5 L 182.5 451 L 182.5 450 Z " /><path fill="rgb(234,234,233)" stroke="rgb(234,234,233)" stroke-width="1" opacity="1" d="M 327.5 450 L 330 450.5 L 327.5 451 L 327.5 450 Z " /><path fill="rgb(234,234,233)" stroke="rgb(234,234,233)" stroke-width="1" opacity="1" d="M 187.5 451 L 325 451.5 L 187.5 452 L 187.5 451 Z " /><path fill="rgb(234,234,234)" stroke="rgb(234,234,234)" stroke-width="1" opacity="1" d="M 156.5 15 L 160.5 16 L 184.5 36 L 192.5 40 L 208.5 34 L 228.5 30 Q 234.8 31.8 236.5 29 L 275.5 29 L 276.5 30 L 283.5 30 L 299.5 33 L 321.5 40 L 351.5 16 L 355.5 15 L 357 16.5 L 357 70.5 L 360 81.5 L 362 100.5 L 363 101.5 L 364 124.5 L 360 143.5 L 354 156.5 L 337.5 177 L 326 185.5 Q 324.2 191.2 330.5 189 L 336 186 Q 357.8 222.5 371 268.5 L 375 286.5 L 377 313.5 L 378 314.5 L 378 352.5 L 377 353.5 L 376 367 L 365.5 365 L 357.5 365 L 356.5 364 L 334.5 363 L 333 361.5 L 333 341.5 L 338 315.5 L 340 285.5 L 343 272.5 L 343 265 L 339 265 L 339 266.5 L 335 284.5 L 333 314.5 L 328 340.5 L 328 365.5 Q 333.5 371.5 332 384.5 L 329.5 389 Q 321.5 393 307.5 391 L 298.5 389 L 292 384.5 L 291 382.5 L 291 371.5 L 294 362.5 L 295 319.5 L 294 318.5 L 294 263.5 L 295 261.5 L 294 259 Q 288.8 256.9 290 261.5 L 289 262.5 L 289 316.5 L 290 317.5 L 290 341.5 L 289 342.5 L 289 361 L 271.5 360 L 270.5 361 L 235.5 361 L 234.5 362 L 223 362 L 222 316.5 L 223 315.5 L 223 266.5 L 222 262 L 218 262 L 218 263.5 L 217 265.5 L 218 266.5 L 218 315.5 L 217 316.5 L 217 342.5 L 218 343.5 L 218 362.5 L 221 372.5 L 221 382.5 L 217.5 387 L 204.5 391 L 187.5 391 L 181 387.5 Q 178.7 382.8 180 374.5 L 184 364.5 L 184 340.5 L 178 307.5 L 178 296.5 L 177 295.5 L 176 280.5 L 174 270.5 L 171.5 267 L 168 269.5 L 171 281.5 L 174 315.5 L 179 341.5 L 179 363.5 L 178 366 L 175.5 367 L 168.5 367 L 167.5 368 L 161.5 368 L 137 372 L 135 361.5 L 135 353.5 L 134 352.5 L 134 315.5 L 135 314.5 L 135 303.5 L 136 302.5 L 137 286.5 L 143 261.5 Q 156 219.8 176 186 Q 180.2 185.2 181.5 189 L 184.5 189 L 186 185.5 L 168 170.5 Q 159.4 161.1 154 148.5 L 149 131.5 L 148 110.5 L 149 109.5 L 149 101.5 L 150 100.5 L 152 81.5 L 155 70.5 L 155 16.5 L 156.5 15 Z M 208 81 L 206 82 L 202 88 L 203 92 L 208 95 L 214 94 L 216 91 Q 217 85 215 83 L 208 81 Z M 304 81 L 302 82 L 298 87 Q 298 93 303 95 L 310 94 Q 313 92 312 86 Q 310 81 304 81 Z M 253 108 L 249 109 L 245 115 Q 246 125 253 130 L 253 139 Q 250 145 238 143 Q 237 147 240 148 Q 251 150 256 144 Q 261 150 273 148 Q 275 147 274 143 Q 264 144 260 141 L 258 136 Q 256 128 260 129 Q 266 125 267 117 L 266 112 L 264 109 L 253 108 Z M 189 128 L 187 132 L 189 133 L 217 141 L 221 141 L 222 138 L 211 133 L 204 132 L 193 128 L 189 128 Z M 320 128 L 292 136 L 290 138 L 292 141 L 296 141 L 324 133 L 325 130 Q 324 127 320 128 Z M 213 149 L 198 152 L 192 152 L 187 155 L 189 158 L 220 154 L 222 151 L 221 149 L 213 149 Z M 292 149 L 290 152 L 293 154 L 324 158 L 325 155 L 321 152 L 301 150 L 300 149 L 292 149 Z " /><path fill="rgb(234,234,234)" stroke="rgb(234,234,234)" stroke-width="1" opacity="1" d="M 395.5 171 Q 400.5 170.5 401 174.5 Q 411 186 414 204.5 L 412.5 204 L 402.5 201 L 390 201 L 387 183.5 L 389 176.5 L 393.5 172 L 395.5 171 Z " /><path fill="rgb(234,234,234)" stroke="rgb(234,234,234)" stroke-width="1" opacity="1" d="M 392 218 L 403.5 219 L 416 225 Q 415.4 245.6 408.5 261 L 398.5 250 L 391 244.5 L 392 218 Z " /><path fill="rgb(234,234,234)" stroke="rgb(234,234,234)" stroke-width="1" opacity="1" d="M 386.5 262 L 396 270.5 L 401 279.5 L 393 292.5 L 383.5 304 L 381 287.5 L 378 277.5 L 386.5 262 Z " /><path fill="rgb(234,234,234)" stroke="rgb(234,234,234)" stroke-width="1" opacity="1" d="M 242.5 383 L 285.5 383 L 286 384.5 L 289 390 L 294.5 393 L 306.5 396 L 324.5 396 L 331.5 394 L 336 389.5 Q 335.3 385.8 337.5 385 L 368.5 388 L 371 389 Q 364.7 424.4 341.5 444 Q 335.7 449.2 326.5 451 L 185.5 451 L 174.5 447 L 161 434.5 Q 147.1 418.1 142 394 L 175.5 389 L 180.5 394 L 187.5 396 L 205.5 396 L 217.5 393 L 223 390 L 226.5 384 L 241.5 384 L 242.5 383 Z " /><path fill="rgb(93,94,96)" stroke="rgb(93,94,96)" stroke-width="1" opacity="0.9568627450980393" d="M 154.5 10 L 161.5 10 L 190.5 34 L 193.5 34 L 211.5 28 L 228.5 25 L 235.5 25 L 236.5 24 L 275.5 24 L 276.5 25 L 296.5 27 L 321.5 34 L 350.5 10 L 357.5 10 L 361 12.5 L 362 14.5 L 362 70.5 L 364 75.5 L 366 92.5 L 367 93.5 L 368 109.5 L 369 110.5 L 369 124.5 L 368 125.5 L 367 137.5 L 361 154.5 L 354 166.5 L 340 181.5 L 340 183.5 L 351 202.5 L 364 231.5 L 376.5 270 L 384 252.5 L 387 238.5 L 387 226.5 L 388 224.5 L 387 223.5 L 387 208.5 L 382 185.5 Q 384.8 183.8 383 177.5 L 388.5 169 Q 392.6 164.1 403.5 166 Q 413.5 169.5 419 177.5 L 430 199.5 L 433 212.5 L 434 227.5 L 433 228.5 L 433 238.5 L 431 248.5 L 424 267.5 L 412 288.5 L 396 309 L 393 310.5 L 390.5 314 L 389 314 L 389 316 Q 386.3 314.9 387 317.5 Q 384.3 319.3 386 325.5 L 387.5 325 Q 390.8 321.8 398.5 323 L 415.5 327 L 421.5 333 Q 425.3 328.3 435.5 330 L 449.5 333 L 455 337.5 Q 458.5 341.5 457 350.5 L 451 381.5 L 463.5 386 L 469 390.5 L 470 400.5 L 465.5 406 L 457.5 408 L 446.5 404 L 438 451.5 Q 437.1 458.1 432.5 461 Q 428.2 464.7 418.5 463 L 405.5 460 L 400 456.5 L 398.5 453 Q 395 457.5 386.5 457 L 371.5 454 L 364 450 Q 358.2 461.1 347.5 469 L 345 470.5 Q 349.6 477.4 348 490.5 L 343.5 498 L 331.5 502 L 308.5 502 L 300.5 500 L 294 495.5 L 291 489.5 L 291 476 L 221.5 476 Q 220.4 476.1 221 481.5 L 221 483.5 L 221 490.5 L 215.5 498 L 203.5 502 L 180.5 502 L 172.5 500 L 166 495.5 Q 162.4 490.1 164 479.5 L 167 470.5 L 152 456.5 L 147.5 450 L 140.5 454 L 120.5 457 L 113.5 453 L 107.5 460 L 93.5 463 L 83.5 463 L 77 458.5 L 74 451.5 L 67 412 L 55.5 416 L 50.5 416 L 43 410.5 L 42 401.5 L 45.5 396 L 63 390 L 55 351.5 L 55 341.5 L 59.5 335 L 62.5 333 L 76.5 330 L 85.5 330 L 90.5 333 L 96.5 327 L 113.5 323 L 119.5 323 L 125.5 326 L 130 292.5 L 137 263.5 L 153 219.5 L 169 187.5 L 173 182.5 Q 159.3 171.2 151 154.5 L 144 132.5 L 143 110.5 L 144 109.5 L 144 101.5 L 145 100.5 L 147 80.5 L 150 70.5 L 150 14.5 L 152.5 11 L 154.5 10 Z M 156 14 L 154 16 L 154 72 L 149 96 L 148 114 L 147 115 L 148 131 L 152 146 Q 157 159 166 170 L 184 185 Q 186 184 185 188 L 182 188 L 177 184 Q 157 216 144 256 L 135 290 L 131 313 L 131 319 L 130 320 L 130 328 L 129 329 L 135 367 L 138 373 L 178 367 L 180 362 L 179 336 L 175 318 L 173 291 L 169 270 L 172 268 L 173 270 L 176 286 L 178 314 L 183 339 L 183 366 L 179 376 L 180 388 L 185 391 L 190 392 L 204 392 L 218 388 L 222 383 L 222 374 L 219 364 L 219 354 L 218 353 L 218 285 L 219 284 L 218 279 L 218 264 L 222 263 L 222 360 L 223 363 L 230 363 L 231 362 L 255 362 L 256 361 L 289 361 L 290 360 L 290 262 L 294 260 L 294 271 L 293 272 L 293 287 L 294 288 L 294 353 L 293 354 L 293 364 L 290 374 Q 289 381 291 385 L 297 389 L 309 392 Q 322 394 330 390 L 332 388 L 333 383 L 333 376 L 329 366 L 329 338 L 334 313 L 337 277 L 339 267 L 341 265 L 343 267 L 339 288 L 337 317 L 333 335 L 332 362 L 339 364 L 349 364 L 350 365 L 377 367 L 377 362 L 383 334 L 378 295 L 368 256 L 351 213 L 336 184 L 329 189 L 327 185 L 337 179 Q 350 168 358 151 L 363 136 L 364 123 L 365 122 L 363 96 L 358 72 L 358 16 L 357 14 L 353 14 L 322 39 L 295 31 L 284 30 L 283 29 L 274 29 L 273 28 L 240 28 L 239 29 L 231 29 L 206 34 L 193 39 L 189 38 L 160 14 L 156 14 Z M 396 170 L 394 171 Q 388 173 387 180 L 387 192 L 389 197 L 391 207 L 391 215 L 392 216 L 392 232 L 391 233 L 390 247 L 384 266 L 378 276 L 378 282 L 381 292 L 385 313 Q 403 297 415 276 Q 425 259 429 237 L 429 216 L 427 205 Q 423 190 415 180 Q 411 173 403 170 L 396 170 Z M 112 328 L 98 332 L 94 339 L 112 430 L 112 435 L 116 450 L 120 452 L 138 450 L 145 445 L 145 435 L 141 419 L 141 414 L 138 403 L 138 398 L 131 366 L 126 335 L 124 331 Q 121 326 112 328 Z M 392 328 L 390 329 L 386 335 L 384 345 L 381 366 L 368 430 L 367 445 L 372 449 L 386 452 L 393 452 L 396 450 L 401 430 L 401 425 L 418 339 L 416 334 L 411 330 L 401 328 L 392 328 Z M 80 334 L 64 338 L 59 345 L 80 455 L 86 459 Q 98 459 107 455 L 110 451 L 110 443 L 108 437 L 108 432 L 105 421 L 105 416 L 102 405 L 102 400 L 90 339 Q 88 333 80 334 Z M 429 334 L 426 335 L 421 342 L 417 368 L 402 443 Q 401 449 403 453 L 408 456 L 423 459 L 429 458 L 433 453 L 436 433 L 440 417 L 440 412 L 443 401 L 443 396 L 446 385 L 446 380 L 449 369 L 449 364 L 453 348 L 452 342 L 447 337 L 429 334 Z M 242 365 L 241 366 L 224 366 L 226 380 L 236 380 L 237 379 L 270 379 L 271 378 L 284 378 L 286 379 L 288 369 L 288 365 L 242 365 Z M 335 367 Q 337 371 336 380 L 338 381 L 356 382 L 373 385 L 375 377 L 375 371 L 363 369 L 355 369 L 354 368 L 335 367 Z M 172 371 L 171 372 L 138 376 L 140 390 L 176 385 L 176 373 L 177 372 L 172 371 Z M 249 382 L 248 383 L 229 383 L 226 384 L 224 387 L 218 392 L 207 395 L 198 395 L 197 396 L 187 395 L 181 393 L 177 388 L 175 389 L 168 389 L 167 390 L 143 393 L 141 395 L 145 420 L 149 436 L 149 445 L 157 456 Q 162 463 170 466 L 172 460 L 172 453 L 174 451 L 176 453 L 174 467 L 170 473 L 168 482 L 169 493 L 175 496 L 183 498 Q 202 500 214 494 L 217 489 Q 219 475 215 467 L 215 454 L 218 453 L 219 469 L 220 470 L 221 472 L 292 472 L 294 457 L 296 455 L 298 457 L 296 466 L 296 474 L 295 475 Q 293 486 297 493 L 303 496 L 311 498 L 330 498 L 342 494 L 344 489 L 343 476 L 337 463 L 336 453 L 339 451 L 340 453 L 340 460 L 342 466 L 347 464 Q 356 456 363 445 L 363 436 L 367 420 L 367 415 L 370 404 L 372 388 Q 368 386 360 387 L 359 386 L 351 386 L 350 385 L 340 385 L 336 384 L 335 390 L 332 393 L 317 396 L 301 394 L 293 391 L 287 385 L 287 382 L 249 382 Z M 449 387 L 447 400 L 456 403 L 464 402 L 466 399 L 465 393 Q 459 387 449 387 Z M 63 394 L 49 399 L 46 403 L 47 409 L 53 412 L 64 409 L 67 407 L 65 401 L 65 396 L 63 394 Z " /><path fill="rgb(93,94,96)" stroke="rgb(93,94,96)" stroke-width="1" opacity="0.9568627450980393" d="M 207.5 82 Q 214 81 215 85.5 Q 215.6 90.9 214 93 Q 211.9 94.6 206.5 94 Q 202.3 92.7 203 86.5 L 205.5 83 L 207.5 82 Z " /><path fill="rgb(93,94,96)" stroke="rgb(93,94,96)" stroke-width="1" opacity="0.9568627450980393" d="M 303.5 82 Q 310 81 311 85.5 Q 312.3 92.8 307.5 94 Q 301.3 95.3 300 91.5 L 299 86.5 L 301.5 83 L 303.5 82 Z " /><path fill="rgb(93,94,96)" stroke="rgb(93,94,96)" stroke-width="1" opacity="0.9568627450980393" d="M 251.5 109 Q 261.1 107.4 265 111.5 L 266 117.5 Q 264.4 124.5 259.5 128 L 258 128.5 L 258 138.5 L 260.5 142 Q 265.4 144.9 273 144 L 272.5 147 L 262.5 147 L 255.5 143 Q 251.5 149 239.5 147 Q 236.5 145.5 239.5 144 L 249.5 143 L 253 140.5 L 254 138.5 L 254 128 L 249 124.5 L 246 117.5 L 246 113.5 L 248.5 110 L 251.5 109 Z " /><path fill="rgb(93,94,96)" stroke="rgb(93,94,96)" stroke-width="1" opacity="0.9568627450980393" d="M 188 129 L 193.5 129 L 221 137 Q 222.8 141.9 216.5 140 L 191.5 133 L 188 130.5 L 188 129 Z " /><path fill="rgb(93,94,96)" stroke="rgb(93,94,96)" stroke-width="1" opacity="0.9568627450980393" d="M 318.5 129 Q 324.6 127.8 324 130.5 L 320.5 133 L 295.5 140 L 291 140 Q 289.3 135.9 293.5 137 L 318.5 129 Z " /><path fill="rgb(93,94,96)" stroke="rgb(93,94,96)" stroke-width="1" opacity="0.9568627450980393" d="M 218.5 149 L 221 150.5 L 219.5 153 L 188 157 L 189.5 153 L 203.5 152 L 218.5 149 Z " /><path fill="rgb(93,94,96)" stroke="rgb(93,94,96)" stroke-width="1" opacity="0.9568627450980393" d="M 292.5 149 L 315.5 153 L 321.5 153 L 324 154 Q 325.8 158.9 319.5 157 L 318.5 156 L 297.5 154 L 291 151.5 L 292.5 149 Z " /><path fill="rgb(162,163,166)" stroke="rgb(162,163,166)" stroke-width="1" opacity="1" d="M 155.5 14 L 154.5 16 L 155.5 14 Z " /><path fill="rgb(162,163,166)" stroke="rgb(162,163,166)" stroke-width="1" opacity="1" d="M 159.5 14 L 160.5 16 L 159.5 14 Z " /><path fill="rgb(162,163,166)" stroke="rgb(162,163,166)" stroke-width="1" opacity="1" d="M 352.5 14 L 351.5 16 L 352.5 14 Z " /><path fill="rgb(162,163,166)" stroke="rgb(162,163,166)" stroke-width="1" opacity="1" d="M 356.5 14 L 357.5 16 L 356.5 14 Z " /><path fill="rgb(162,163,166)" stroke="rgb(162,163,166)" stroke-width="1" opacity="1" d="M 164.5 18 L 165.5 20 L 164.5 18 Z " /><path fill="rgb(162,163,166)" stroke="rgb(162,163,166)" stroke-width="1" opacity="1" d="M 347.5 18 L 345.5 21 L 347.5 18 Z " /><path fill="rgb(162,163,166)" stroke="rgb(162,163,166)" stroke-width="1" opacity="1" d="M 169.5 22 L 170.5 24 L 169.5 22 Z " /><path fill="rgb(162,163,166)" stroke="rgb(162,163,166)" stroke-width="1" opacity="1" d="M 342.5 22 L 340.5 25 L 342.5 22 Z " /><path fill="rgb(162,163,166)" stroke="rgb(162,163,166)" stroke-width="1" opacity="1" d="M 174.5 26 L 176.5 29 L 174.5 26 Z " /><path fill="rgb(162,163,166)" stroke="rgb(162,163,166)" stroke-width="1" opacity="1" d="M 337.5 26 L 335.5 29 L 337.5 26 Z " /><path fill="rgb(162,163,166)" stroke="rgb(162,163,166)" stroke-width="1" opacity="1" d="M 239.5 28 L 247 28.5 L 239.5 29 L 239.5 28 Z " /><path fill="rgb(162,163,166)" stroke="rgb(162,163,166)" stroke-width="1" opacity="1" d="M 265.5 28 L 273 28.5 L 265.5 29 L 265.5 28 Z " /><path fill="rgb(162,163,166)" stroke="rgb(162,163,166)" stroke-width="1" opacity="1" d="M 230.5 29 L 233 29.5 L 230.5 30 L 230.5 29 Z " /><path fill="rgb(162,163,166)" stroke="rgb(162,163,166)" stroke-width="1" opacity="1" d="M 279.5 29 L 283 29.5 L 279.5 30 L 279.5 29 Z " /><path fill="rgb(162,163,166)" stroke="rgb(162,163,166)" stroke-width="1" opacity="1" d="M 179.5 30 L 181.5 33 L 179.5 30 Z " /><path fill="rgb(162,163,166)" stroke="rgb(162,163,166)" stroke-width="1" opacity="1" d="M 223.5 30 L 226 30.5 L 223.5 31 L 223.5 30 Z " /><path fill="rgb(162,163,166)" stroke="rgb(162,163,166)" stroke-width="1" opacity="1" d="M 286.5 30 L 289 30.5 L 286.5 31 L 286.5 30 Z " /><path fill="rgb(162,163,166)" stroke="rgb(162,163,166)" stroke-width="1" opacity="1" d="M 332.5 30 L 330.5 33 L 332.5 30 Z " /><path fill="rgb(162,163,166)" stroke="rgb(162,163,166)" stroke-width="1" opacity="1" d="M 292.5 31 L 295 31.5 L 292.5 32 L 292.5 31 Z " /><path fill="rgb(162,163,166)" stroke="rgb(162,163,166)" stroke-width="1" opacity="1" d="M 184.5 34 L 186.5 37 L 184.5 34 Z " /><path fill="rgb(162,163,166)" stroke="rgb(162,163,166)" stroke-width="1" opacity="1" d="M 327.5 34 L 325.5 37 L 327.5 34 Z " /><path fill="rgb(162,163,166)" stroke="rgb(162,163,166)" stroke-width="1" opacity="1" d="M 212.5 82 L 214.5 85 L 212.5 82 Z " /><path fill="rgb(162,163,166)" stroke="rgb(162,163,166)" stroke-width="1" opacity="1" d="M 308.5 82 L 310.5 85 L 308.5 82 Z " /><path fill="rgb(162,163,166)" stroke="rgb(162,163,166)" stroke-width="1" opacity="1" d="M 215.5 86 L 216 89.5 L 215 89.5 L 215.5 86 Z " /><path fill="rgb(162,163,166)" stroke="rgb(162,163,166)" stroke-width="1" opacity="1" d="M 311.5 86 L 312 89.5 L 311 89.5 L 311.5 86 Z " /><path fill="rgb(162,163,166)" stroke="rgb(162,163,166)" stroke-width="1" opacity="1" d="M 310.5 91 L 308.5 94 L 310.5 91 Z " /><path fill="rgb(162,163,166)" stroke="rgb(162,163,166)" stroke-width="1" opacity="1" d="M 208.5 94 L 211 94.5 L 208.5 95 L 208.5 94 Z " /><path fill="rgb(162,163,166)" stroke="rgb(162,163,166)" stroke-width="1" opacity="1" d="M 149.5 95 L 150 98.5 L 149 98.5 L 149.5 95 Z " /><path fill="rgb(162,163,166)" stroke="rgb(162,163,166)" stroke-width="1" opacity="1" d="M 362.5 95 L 363 98.5 L 362 98.5 L 362.5 95 Z " /><path fill="rgb(162,163,166)" stroke="rgb(162,163,166)" stroke-width="1" opacity="1" d="M 148.5 103 L 149 106.5 L 148 106.5 L 148.5 103 Z " /><path fill="rgb(162,163,166)" stroke="rgb(162,163,166)" stroke-width="1" opacity="1" d="M 363.5 103 L 364 106.5 L 363 106.5 L 363.5 103 Z " /><path fill="rgb(162,163,166)" stroke="rgb(162,163,166)" stroke-width="1" opacity="1" d="M 147.5 114 L 148 121.5 L 147 121.5 L 147.5 114 Z " /><path fill="rgb(162,163,166)" stroke="rgb(162,163,166)" stroke-width="1" opacity="1" d="M 364.5 114 L 365 121.5 L 364 121.5 L 364.5 114 Z " /><path fill="rgb(162,163,166)" stroke="rgb(162,163,166)" stroke-width="1" opacity="1" d="M 148.5 128 L 149 130.5 L 148 130.5 L 148.5 128 Z " /><path fill="rgb(162,163,166)" stroke="rgb(162,163,166)" stroke-width="1" opacity="1" d="M 189.5 128 L 192 128.5 L 189.5 129 L 189.5 128 Z " /><path fill="rgb(162,163,166)" stroke="rgb(162,163,166)" stroke-width="1" opacity="1" d="M 320.5 128 L 323 128.5 L 320.5 129 L 320.5 128 Z " /><path fill="rgb(162,163,166)" stroke="rgb(162,163,166)" stroke-width="1" opacity="1" d="M 363.5 128 L 364 130.5 L 363 130.5 L 363.5 128 Z " /><path fill="rgb(162,163,166)" stroke="rgb(162,163,166)" stroke-width="1" opacity="1" d="M 252.5 140 L 251.5 142 L 252.5 140 Z " /><path fill="rgb(162,163,166)" stroke="rgb(162,163,166)" stroke-width="1" opacity="1" d="M 259.5 140 L 260.5 142 L 259.5 140 Z " /><path fill="rgb(162,163,166)" stroke="rgb(162,163,166)" stroke-width="1" opacity="1" d="M 239.5 143 L 246 143.5 L 238.5 145 L 239.5 143 Z " /><path fill="rgb(162,163,166)" stroke="rgb(162,163,166)" stroke-width="1" opacity="1" d="M 266.5 143 Q 272.5 141.5 274 144.5 L 273.5 146 L 273 144 L 266.5 144 L 266.5 143 Z " /><path fill="rgb(162,163,166)" stroke="rgb(162,163,166)" stroke-width="1" opacity="1" d="M 215.5 149 L 218 149.5 L 215.5 150 L 215.5 149 Z " /><path fill="rgb(162,163,166)" stroke="rgb(162,163,166)" stroke-width="1" opacity="1" d="M 294.5 149 L 297 149.5 L 294.5 150 L 294.5 149 Z " /><path fill="rgb(162,163,166)" stroke="rgb(162,163,166)" stroke-width="1" opacity="1" d="M 207.5 150 L 211 150.5 L 207.5 151 L 207.5 150 Z " /><path fill="rgb(162,163,166)" stroke="rgb(162,163,166)" stroke-width="1" opacity="1" d="M 301.5 150 L 304 150.5 L 301.5 151 L 301.5 150 Z " /><path fill="rgb(162,163,166)" stroke="rgb(162,163,166)" stroke-width="1" opacity="1" d="M 200.5 151 L 204 151.5 L 200.5 152 L 200.5 151 Z " /><path fill="rgb(162,163,166)" stroke="rgb(162,163,166)" stroke-width="1" opacity="1" d="M 308.5 151 L 312 151.5 L 308.5 152 L 308.5 151 Z " /><path fill="rgb(162,163,166)" stroke="rgb(162,163,166)" stroke-width="1" opacity="1" d="M 193.5 152 L 196 152.5 L 193.5 153 L 193.5 152 Z " /><path fill="rgb(162,163,166)" stroke="rgb(162,163,166)" stroke-width="1" opacity="1" d="M 315.5 152 L 319 152.5 L 315.5 153 L 315.5 152 Z " /><path fill="rgb(162,163,166)" stroke="rgb(162,163,166)" stroke-width="1" opacity="1" d="M 215.5 153 L 218 153.5 L 215.5 154 L 215.5 153 Z " /><path fill="rgb(162,163,166)" stroke="rgb(162,163,166)" stroke-width="1" opacity="1" d="M 294.5 153 L 297 153.5 L 294.5 154 L 294.5 153 Z " /><path fill="rgb(162,163,166)" stroke="rgb(162,163,166)" stroke-width="1" opacity="1" d="M 208.5 154 L 211 154.5 L 208.5 155 L 208.5 154 Z " /><path fill="rgb(162,163,166)" stroke="rgb(162,163,166)" stroke-width="1" opacity="1" d="M 301.5 154 L 304 154.5 L 301.5 155 L 301.5 154 Z " /><path fill="rgb(162,163,166)" stroke="rgb(162,163,166)" stroke-width="1" opacity="1" d="M 200.5 155 L 204 155.5 L 200.5 156 L 200.5 155 Z " /><path fill="rgb(162,163,166)" stroke="rgb(162,163,166)" stroke-width="1" opacity="1" d="M 308.5 155 L 311 155.5 L 308.5 156 L 308.5 155 Z " /><path fill="rgb(162,163,166)" stroke="rgb(162,163,166)" stroke-width="1" opacity="1" d="M 193.5 156 L 197 156.5 L 193.5 157 L 193.5 156 Z " /><path fill="rgb(162,163,166)" stroke="rgb(162,163,166)" stroke-width="1" opacity="1" d="M 315.5 156 L 319 156.5 L 315.5 157 L 315.5 156 Z " /><path fill="rgb(162,163,166)" stroke="rgb(162,163,166)" stroke-width="1" opacity="1" d="M 160.5 161 L 161.5 163 L 160.5 161 Z " /><path fill="rgb(162,163,166)" stroke="rgb(162,163,166)" stroke-width="1" opacity="1" d="M 351.5 161 L 350.5 163 L 351.5 161 Z " /><path fill="rgb(162,163,166)" stroke="rgb(162,163,166)" stroke-width="1" opacity="1" d="M 166.5 169 L 175.5 179 L 166.5 169 Z " /><path fill="rgb(162,163,166)" stroke="rgb(162,163,166)" stroke-width="1" opacity="1" d="M 345.5 169 L 336.5 179 L 345.5 169 Z " /><path fill="rgb(162,163,166)" stroke="rgb(162,163,166)" stroke-width="1" opacity="1" d="M 400.5 170 L 403 170.5 L 400.5 171 L 400.5 170 Z " /><path fill="rgb(162,163,166)" stroke="rgb(162,163,166)" stroke-width="1" opacity="1" d="M 408.5 173 L 414.5 180 L 408.5 173 Z " /><path fill="rgb(162,163,166)" stroke="rgb(162,163,166)" stroke-width="1" opacity="1" d="M 178.5 180 L 179.5 182 L 178.5 180 Z " /><path fill="rgb(162,163,166)" stroke="rgb(162,163,166)" stroke-width="1" opacity="1" d="M 332.5 181 L 331.5 183 L 332.5 181 Z " /><path fill="rgb(162,163,166)" stroke="rgb(162,163,166)" stroke-width="1" opacity="1" d="M 182.5 183 L 183.5 185 L 182.5 183 Z " /><path fill="rgb(162,163,166)" stroke="rgb(162,163,166)" stroke-width="1" opacity="1" d="M 329.5 183 L 328.5 185 L 329.5 183 Z " /><path fill="rgb(162,163,166)" stroke="rgb(162,163,166)" stroke-width="1" opacity="1" d="M 178.5 185 L 179.5 187 L 178.5 185 Z " /><path fill="rgb(162,163,166)" stroke="rgb(162,163,166)" stroke-width="1" opacity="1" d="M 326.5 186 L 328 188.5 L 326 187.5 L 326.5 186 Z " /><path fill="rgb(162,163,166)" stroke="rgb(162,163,166)" stroke-width="1" opacity="1" d="M 387.5 189 L 388 191.5 L 387 191.5 L 387.5 189 Z " /><path fill="rgb(162,163,166)" stroke="rgb(162,163,166)" stroke-width="1" opacity="1" d="M 390.5 203 L 391 205.5 L 390 205.5 L 390.5 203 Z " /><path fill="rgb(162,163,166)" stroke="rgb(162,163,166)" stroke-width="1" opacity="1" d="M 391.5 210 L 392 214.5 L 391 214.5 L 391.5 210 Z " /><path fill="rgb(162,163,166)" stroke="rgb(162,163,166)" stroke-width="1" opacity="1" d="M 428.5 215 L 429 218.5 L 428 218.5 L 428.5 215 Z " /><path fill="rgb(162,163,166)" stroke="rgb(162,163,166)" stroke-width="1" opacity="1" d="M 391.5 232 L 392 235.5 L 391 235.5 L 391.5 232 Z " /><path fill="rgb(162,163,166)" stroke="rgb(162,163,166)" stroke-width="1" opacity="1" d="M 428.5 232 L 429 236.5 L 428 236.5 L 428.5 232 Z " /><path fill="rgb(162,163,166)" stroke="rgb(162,163,166)" stroke-width="1" opacity="1" d="M 427.5 240 L 428 242.5 L 427 242.5 L 427.5 240 Z " /><path fill="rgb(162,163,166)" stroke="rgb(162,163,166)" stroke-width="1" opacity="1" d="M 291.5 259 L 293 259.5 L 290.5 261 L 291.5 259 Z " /><path fill="rgb(162,163,166)" stroke="rgb(162,163,166)" stroke-width="1" opacity="1" d="M 338.5 268 L 339 270.5 L 338 270.5 L 338.5 268 Z " /><path fill="rgb(162,163,166)" stroke="rgb(162,163,166)" stroke-width="1" opacity="1" d="M 173.5 271 L 174 273.5 L 173 273.5 L 173.5 271 Z " /><path fill="rgb(162,163,166)" stroke="rgb(162,163,166)" stroke-width="1" opacity="1" d="M 293.5 271 L 294 286.5 L 293 286.5 L 293.5 271 Z " /><path fill="rgb(162,163,166)" stroke="rgb(162,163,166)" stroke-width="1" opacity="1" d="M 379.5 274 L 378.5 276 L 379.5 274 Z " /><path fill="rgb(162,163,166)" stroke="rgb(162,163,166)" stroke-width="1" opacity="1" d="M 289.5 275 L 290 282.5 L 289 282.5 L 289.5 275 Z " /><path fill="rgb(162,163,166)" stroke="rgb(162,163,166)" stroke-width="1" opacity="1" d="M 414.5 275 L 413.5 277 L 414.5 275 Z " /><path fill="rgb(162,163,166)" stroke="rgb(162,163,166)" stroke-width="1" opacity="1" d="M 174.5 276 L 175 278.5 L 174 278.5 L 174.5 276 Z " /><path fill="rgb(162,163,166)" stroke="rgb(162,163,166)" stroke-width="1" opacity="1" d="M 218.5 279 L 219 283.5 L 218 283.5 L 218.5 279 Z " /><path fill="rgb(162,163,166)" stroke="rgb(162,163,166)" stroke-width="1" opacity="1" d="M 336.5 280 L 337 282.5 L 336 282.5 L 336.5 280 Z " /><path fill="rgb(162,163,166)" stroke="rgb(162,163,166)" stroke-width="1" opacity="1" d="M 340.5 280 L 341 282.5 L 340 282.5 L 340.5 280 Z " /><path fill="rgb(162,163,166)" stroke="rgb(162,163,166)" stroke-width="1" opacity="1" d="M 411.5 280 L 410.5 282 L 411.5 280 Z " /><path fill="rgb(162,163,166)" stroke="rgb(162,163,166)" stroke-width="1" opacity="1" d="M 175.5 282 L 176 284.5 L 175 284.5 L 175.5 282 Z " /><path fill="rgb(162,163,166)" stroke="rgb(162,163,166)" stroke-width="1" opacity="1" d="M 409.5 283 L 408.5 285 L 409.5 283 Z " /><path fill="rgb(162,163,166)" stroke="rgb(162,163,166)" stroke-width="1" opacity="1" d="M 379.5 284 L 380 286.5 L 379 286.5 L 379.5 284 Z " /><path fill="rgb(162,163,166)" stroke="rgb(162,163,166)" stroke-width="1" opacity="1" d="M 407.5 286 L 406.5 288 L 407.5 286 Z " /><path fill="rgb(162,163,166)" stroke="rgb(162,163,166)" stroke-width="1" opacity="1" d="M 335.5 287 L 336 290.5 L 335 290.5 L 335.5 287 Z " /><path fill="rgb(162,163,166)" stroke="rgb(162,163,166)" stroke-width="1" opacity="1" d="M 339.5 287 L 340 290.5 L 339 290.5 L 339.5 287 Z " /><path fill="rgb(162,163,166)" stroke="rgb(162,163,166)" stroke-width="1" opacity="1" d="M 135.5 289 L 136 291.5 L 135 291.5 L 135.5 289 Z " /><path fill="rgb(162,163,166)" stroke="rgb(162,163,166)" stroke-width="1" opacity="1" d="M 376.5 289 L 377 291.5 L 376 291.5 L 376.5 289 Z " /><path fill="rgb(162,163,166)" stroke="rgb(162,163,166)" stroke-width="1" opacity="1" d="M 405.5 289 L 404.5 291 L 405.5 289 Z " /><path fill="rgb(162,163,166)" stroke="rgb(162,163,166)" stroke-width="1" opacity="1" d="M 172.5 290 L 173 292.5 L 172 292.5 L 172.5 290 Z " /><path fill="rgb(162,163,166)" stroke="rgb(162,163,166)" stroke-width="1" opacity="1" d="M 176.5 290 L 177 292.5 L 176 292.5 L 176.5 290 Z " /><path fill="rgb(162,163,166)" stroke="rgb(162,163,166)" stroke-width="1" opacity="1" d="M 134.5 294 L 135 296.5 L 134 296.5 L 134.5 294 Z " /><path fill="rgb(162,163,166)" stroke="rgb(162,163,166)" stroke-width="1" opacity="1" d="M 377.5 294 L 378 296.5 L 377 296.5 L 377.5 294 Z " /><path fill="rgb(162,163,166)" stroke="rgb(162,163,166)" stroke-width="1" opacity="1" d="M 381.5 294 L 382 296.5 L 381 296.5 L 381.5 294 Z " /><path fill="rgb(162,163,166)" stroke="rgb(162,163,166)" stroke-width="1" opacity="1" d="M 401.5 294 L 400.5 296 L 401.5 294 Z " /><path fill="rgb(162,163,166)" stroke="rgb(162,163,166)" stroke-width="1" opacity="1" d="M 338.5 298 L 339 303.5 L 338 303.5 L 338.5 298 Z " /><path fill="rgb(162,163,166)" stroke="rgb(162,163,166)" stroke-width="1" opacity="1" d="M 334.5 299 L 335 303.5 L 334 303.5 L 334.5 299 Z " /><path fill="rgb(162,163,166)" stroke="rgb(162,163,166)" stroke-width="1" opacity="1" d="M 397.5 299 L 394.5 303 L 397.5 299 Z " /><path fill="rgb(162,163,166)" stroke="rgb(162,163,166)" stroke-width="1" opacity="1" d="M 173.5 300 L 174 304.5 L 173 304.5 L 173.5 300 Z " /><path fill="rgb(162,163,166)" stroke="rgb(162,163,166)" stroke-width="1" opacity="1" d="M 177.5 300 L 178 304.5 L 177 304.5 L 177.5 300 Z " /><path fill="rgb(162,163,166)" stroke="rgb(162,163,166)" stroke-width="1" opacity="1" d="M 132.5 305 L 133 307.5 L 132 307.5 L 132.5 305 Z " /><path fill="rgb(162,163,166)" stroke="rgb(162,163,166)" stroke-width="1" opacity="1" d="M 379.5 305 L 380 307.5 L 379 307.5 L 379.5 305 Z " /><path fill="rgb(162,163,166)" stroke="rgb(162,163,166)" stroke-width="1" opacity="1" d="M 333.5 310 L 334 312.5 L 333 312.5 L 333.5 310 Z " /><path fill="rgb(162,163,166)" stroke="rgb(162,163,166)" stroke-width="1" opacity="1" d="M 337.5 310 L 338 312.5 L 337 312.5 L 337.5 310 Z " /><path fill="rgb(162,163,166)" stroke="rgb(162,163,166)" stroke-width="1" opacity="1" d="M 174.5 311 L 175 313.5 L 174 313.5 L 174.5 311 Z " /><path fill="rgb(162,163,166)" stroke="rgb(162,163,166)" stroke-width="1" opacity="1" d="M 178.5 311 L 179 313.5 L 178 313.5 L 178.5 311 Z " /><path fill="rgb(162,163,166)" stroke="rgb(162,163,166)" stroke-width="1" opacity="1" d="M 131.5 312 L 132 314.5 L 131 314.5 L 131.5 312 Z " /><path fill="rgb(162,163,166)" stroke="rgb(162,163,166)" stroke-width="1" opacity="1" d="M 380.5 312 L 381 314.5 L 380 314.5 L 380.5 312 Z " /><path fill="rgb(162,163,166)" stroke="rgb(162,163,166)" stroke-width="1" opacity="1" d="M 332.5 317 L 333 319.5 L 332 319.5 L 332.5 317 Z " /><path fill="rgb(162,163,166)" stroke="rgb(162,163,166)" stroke-width="1" opacity="1" d="M 336.5 317 L 337 319.5 L 336 319.5 L 336.5 317 Z " /><path fill="rgb(162,163,166)" stroke="rgb(162,163,166)" stroke-width="1" opacity="1" d="M 175.5 318 L 176 320.5 L 175 320.5 L 175.5 318 Z " /><path fill="rgb(162,163,166)" stroke="rgb(162,163,166)" stroke-width="1" opacity="1" d="M 130.5 319 L 131 322.5 L 130 322.5 L 130.5 319 Z " /><path fill="rgb(162,163,166)" stroke="rgb(162,163,166)" stroke-width="1" opacity="1" d="M 381.5 319 L 382 322.5 L 381 322.5 L 381.5 319 Z " /><path fill="rgb(162,163,166)" stroke="rgb(162,163,166)" stroke-width="1" opacity="1" d="M 111.5 328 Q 120.9 326.1 124 330.5 L 126 334.5 L 131 365.5 L 138 397.5 L 138 402.5 L 141 413.5 L 141 418.5 L 145 434.5 L 145 444.5 L 137.5 450 L 119.5 452 L 116 450 L 112 434.5 L 112 429.5 L 94 338.5 L 97.5 332 L 111.5 328 Z " /><path fill="rgb(162,163,166)" stroke="rgb(162,163,166)" stroke-width="1" opacity="1" d="M 129.5 328 L 130 333.5 L 129 333.5 L 129.5 328 Z " /><path fill="rgb(162,163,166)" stroke="rgb(162,163,166)" stroke-width="1" opacity="1" d="M 177.5 328 L 178 330.5 L 177 330.5 L 177.5 328 Z " /><path fill="rgb(162,163,166)" stroke="rgb(162,163,166)" stroke-width="1" opacity="1" d="M 181.5 328 L 182 330.5 L 181 330.5 L 181.5 328 Z " /><path fill="rgb(162,163,166)" stroke="rgb(162,163,166)" stroke-width="1" opacity="1" d="M 334.5 328 L 335 330.5 L 334 330.5 L 334.5 328 Z " /><path fill="rgb(162,163,166)" stroke="rgb(162,163,166)" stroke-width="1" opacity="1" d="M 382.5 328 L 383 333.5 L 382 333.5 L 382.5 328 Z " /><path fill="rgb(162,163,166)" stroke="rgb(162,163,166)" stroke-width="1" opacity="1" d="M 391.5 328 L 400.5 328 L 410.5 330 L 416 333.5 L 418 338.5 L 401 424.5 L 401 429.5 L 396 450 L 392.5 452 L 385.5 452 L 371.5 449 L 367 444.5 L 368 429.5 L 381 365.5 L 384 344.5 L 386 334.5 L 389.5 329 L 391.5 328 Z " /><path fill="rgb(162,163,166)" stroke="rgb(162,163,166)" stroke-width="1" opacity="1" d="M 79.5 334 Q 87.6 333.4 90 338.5 L 102 399.5 L 102 404.5 L 105 415.5 L 105 420.5 L 108 431.5 L 108 436.5 L 110 442.5 L 110 450.5 L 106.5 455 Q 97.5 458.5 85.5 459 L 80 454.5 L 59 344.5 L 63.5 338 L 79.5 334 Z " /><path fill="rgb(162,163,166)" stroke="rgb(162,163,166)" stroke-width="1" opacity="1" d="M 182.5 334 L 183 337.5 L 182 337.5 L 182.5 334 Z " /><path fill="rgb(162,163,166)" stroke="rgb(162,163,166)" stroke-width="1" opacity="1" d="M 329.5 334 L 330 336.5 L 329 336.5 L 329.5 334 Z " /><path fill="rgb(162,163,166)" stroke="rgb(162,163,166)" stroke-width="1" opacity="1" d="M 333.5 334 L 334 337.5 L 333 337.5 L 333.5 334 Z " /><path fill="rgb(162,163,166)" stroke="rgb(162,163,166)" stroke-width="1" opacity="1" d="M 428.5 334 L 446.5 337 L 452 341.5 L 453 347.5 L 449 363.5 L 449 368.5 L 446 379.5 L 446 384.5 L 443 395.5 L 443 400.5 L 440 411.5 L 440 416.5 L 436 432.5 L 433 452.5 L 428.5 458 L 422.5 459 L 407.5 456 L 403 452.5 Q 400.7 449.3 402 442.5 L 417 367.5 L 421 341.5 L 425.5 335 L 428.5 334 Z " /><path fill="rgb(162,163,166)" stroke="rgb(162,163,166)" stroke-width="1" opacity="1" d="M 178.5 335 L 179 337.5 L 178 337.5 L 178.5 335 Z " /><path fill="rgb(162,163,166)" stroke="rgb(162,163,166)" stroke-width="1" opacity="1" d="M 130.5 337 L 131 339.5 L 130 339.5 L 130.5 337 Z " /><path fill="rgb(162,163,166)" stroke="rgb(162,163,166)" stroke-width="1" opacity="1" d="M 381.5 337 L 382 339.5 L 381 339.5 L 381.5 337 Z " /><path fill="rgb(162,163,166)" stroke="rgb(162,163,166)" stroke-width="1" opacity="1" d="M 328.5 344 L 329 362.5 L 328 362.5 L 328.5 344 Z " /><path fill="rgb(162,163,166)" stroke="rgb(162,163,166)" stroke-width="1" opacity="1" d="M 332.5 344 L 333 361.5 L 332 361.5 L 332.5 344 Z " /><path fill="rgb(162,163,166)" stroke="rgb(162,163,166)" stroke-width="1" opacity="1" d="M 179.5 345 L 180 361.5 L 179 361.5 L 179.5 345 Z " /><path fill="rgb(162,163,166)" stroke="rgb(162,163,166)" stroke-width="1" opacity="1" d="M 183.5 345 L 184 361.5 L 183 361.5 L 183.5 345 Z " /><path fill="rgb(162,163,166)" stroke="rgb(162,163,166)" stroke-width="1" opacity="1" d="M 132.5 348 L 133 350.5 L 132 350.5 L 132.5 348 Z " /><path fill="rgb(162,163,166)" stroke="rgb(162,163,166)" stroke-width="1" opacity="1" d="M 379.5 348 L 380 350.5 L 379 350.5 L 379.5 348 Z " /><path fill="rgb(162,163,166)" stroke="rgb(162,163,166)" stroke-width="1" opacity="1" d="M 133.5 353 L 134 355.5 L 133 355.5 L 133.5 353 Z " /><path fill="rgb(162,163,166)" stroke="rgb(162,163,166)" stroke-width="1" opacity="1" d="M 218.5 353 L 219 359.5 L 218 359.5 L 218.5 353 Z " /><path fill="rgb(162,163,166)" stroke="rgb(162,163,166)" stroke-width="1" opacity="1" d="M 293.5 353 L 294 359.5 L 293 359.5 L 293.5 353 Z " /><path fill="rgb(162,163,166)" stroke="rgb(162,163,166)" stroke-width="1" opacity="1" d="M 378.5 353 L 379 355.5 L 378 355.5 L 378.5 353 Z " /><path fill="rgb(162,163,166)" stroke="rgb(162,163,166)" stroke-width="1" opacity="1" d="M 222.5 354 L 223 359.5 L 222 359.5 L 222.5 354 Z " /><path fill="rgb(162,163,166)" stroke="rgb(162,163,166)" stroke-width="1" opacity="1" d="M 289.5 354 L 290 359.5 L 289 359.5 L 289.5 354 Z " /><path fill="rgb(162,163,166)" stroke="rgb(162,163,166)" stroke-width="1" opacity="1" d="M 242.5 361 L 255 361.5 L 242.5 362 L 242.5 361 Z " /><path fill="rgb(162,163,166)" stroke="rgb(162,163,166)" stroke-width="1" opacity="1" d="M 223.5 362 L 230 362.5 L 223.5 363 L 223.5 362 Z " /><path fill="rgb(162,163,166)" stroke="rgb(162,163,166)" stroke-width="1" opacity="1" d="M 338.5 363 L 343 363.5 L 338.5 364 L 338.5 363 Z " /><path fill="rgb(162,163,166)" stroke="rgb(162,163,166)" stroke-width="1" opacity="1" d="M 135.5 364 L 136 366.5 L 135 366.5 L 135.5 364 Z " /><path fill="rgb(162,163,166)" stroke="rgb(162,163,166)" stroke-width="1" opacity="1" d="M 349.5 364 L 354 364.5 L 349.5 365 L 349.5 364 Z " /><path fill="rgb(162,163,166)" stroke="rgb(162,163,166)" stroke-width="1" opacity="1" d="M 376.5 364 L 377 366.5 L 376 366.5 L 376.5 364 Z " /><path fill="rgb(162,163,166)" stroke="rgb(162,163,166)" stroke-width="1" opacity="1" d="M 241.5 365 L 257 365.5 L 241.5 366 L 241.5 365 Z " /><path fill="rgb(162,163,166)" stroke="rgb(162,163,166)" stroke-width="1" opacity="1" d="M 359.5 365 L 363 365.5 L 359.5 366 L 359.5 365 Z " /><path fill="rgb(162,163,166)" stroke="rgb(162,163,166)" stroke-width="1" opacity="1" d="M 224 366 L 231 366.5 L 225 367 L 224.5 369 L 224 366 Z " /><path fill="rgb(162,163,166)" stroke="rgb(162,163,166)" stroke-width="1" opacity="1" d="M 368.5 366 L 372 366.5 L 368.5 367 L 368.5 366 Z " /><path fill="rgb(162,163,166)" stroke="rgb(162,163,166)" stroke-width="1" opacity="1" d="M 171.5 367 L 174 367.5 L 171.5 368 L 171.5 367 Z " /><path fill="rgb(162,163,166)" stroke="rgb(162,163,166)" stroke-width="1" opacity="1" d="M 337.5 367 L 343 367.5 L 337.5 368 L 337.5 367 Z " /><path fill="rgb(162,163,166)" stroke="rgb(162,163,166)" stroke-width="1" opacity="1" d="M 163.5 368 L 167 368.5 L 163.5 369 L 163.5 368 Z " /><path fill="rgb(162,163,166)" stroke="rgb(162,163,166)" stroke-width="1" opacity="1" d="M 348.5 368 L 354 368.5 L 348.5 369 L 348.5 368 Z " /><path fill="rgb(162,163,166)" stroke="rgb(162,163,166)" stroke-width="1" opacity="1" d="M 136.5 369 L 137 371.5 L 136 371.5 L 136.5 369 Z " /><path fill="rgb(162,163,166)" stroke="rgb(162,163,166)" stroke-width="1" opacity="1" d="M 156.5 369 L 159 369.5 L 156.5 370 L 156.5 369 Z " /><path fill="rgb(162,163,166)" stroke="rgb(162,163,166)" stroke-width="1" opacity="1" d="M 358.5 369 L 363 369.5 L 358.5 370 L 358.5 369 Z " /><path fill="rgb(162,163,166)" stroke="rgb(162,163,166)" stroke-width="1" opacity="1" d="M 150.5 370 L 153 370.5 L 150.5 371 L 150.5 370 Z " /><path fill="rgb(162,163,166)" stroke="rgb(162,163,166)" stroke-width="1" opacity="1" d="M 367.5 370 L 371 370.5 L 367.5 371 L 367.5 370 Z " /><path fill="rgb(162,163,166)" stroke="rgb(162,163,166)" stroke-width="1" opacity="1" d="M 171.5 371 L 175 371.5 L 171.5 372 L 171.5 371 Z " /><path fill="rgb(162,163,166)" stroke="rgb(162,163,166)" stroke-width="1" opacity="1" d="M 164.5 372 L 168 372.5 L 164.5 373 L 164.5 372 Z " /><path fill="rgb(162,163,166)" stroke="rgb(162,163,166)" stroke-width="1" opacity="1" d="M 225.5 372 L 226 376.5 L 225 376.5 L 225.5 372 Z " /><path fill="rgb(162,163,166)" stroke="rgb(162,163,166)" stroke-width="1" opacity="1" d="M 286.5 372 L 287 375.5 L 286 375.5 L 286.5 372 Z " /><path fill="rgb(162,163,166)" stroke="rgb(162,163,166)" stroke-width="1" opacity="1" d="M 157.5 373 L 160 373.5 L 157.5 374 L 157.5 373 Z " /><path fill="rgb(162,163,166)" stroke="rgb(162,163,166)" stroke-width="1" opacity="1" d="M 221.5 373 L 222 376.5 L 221 376.5 L 221.5 373 Z " /><path fill="rgb(162,163,166)" stroke="rgb(162,163,166)" stroke-width="1" opacity="1" d="M 290.5 373 L 291 376.5 L 290 376.5 L 290.5 373 Z " /><path fill="rgb(162,163,166)" stroke="rgb(162,163,166)" stroke-width="1" opacity="1" d="M 150.5 374 L 154 374.5 L 150.5 375 L 150.5 374 Z " /><path fill="rgb(162,163,166)" stroke="rgb(162,163,166)" stroke-width="1" opacity="1" d="M 175.5 374 L 176 385 L 174 384.5 L 175 383.5 L 175.5 374 Z " /><path fill="rgb(162,163,166)" stroke="rgb(162,163,166)" stroke-width="1" opacity="1" d="M 336.5 374 L 337 380 L 340 380.5 L 337.5 381 Q 334.4 379.4 336.5 374 Z " /><path fill="rgb(162,163,166)" stroke="rgb(162,163,166)" stroke-width="1" opacity="1" d="M 374.5 374 L 375 376.5 L 374 376.5 L 374.5 374 Z " /><path fill="rgb(162,163,166)" stroke="rgb(162,163,166)" stroke-width="1" opacity="1" d="M 144.5 375 L 147 375.5 L 144.5 376 L 144.5 375 Z " /><path fill="rgb(162,163,166)" stroke="rgb(162,163,166)" stroke-width="1" opacity="1" d="M 179.5 375 L 180 382.5 L 179 382.5 L 179.5 375 Z " /><path fill="rgb(162,163,166)" stroke="rgb(162,163,166)" stroke-width="1" opacity="1" d="M 332.5 375 L 333 382.5 L 332 382.5 L 332.5 375 Z " /><path fill="rgb(162,163,166)" stroke="rgb(162,163,166)" stroke-width="1" opacity="1" d="M 138.5 376 L 141 376.5 L 138.5 377 L 138.5 376 Z " /><path fill="rgb(162,163,166)" stroke="rgb(162,163,166)" stroke-width="1" opacity="1" d="M 246.5 378 L 270 378.5 L 246.5 379 L 246.5 378 Z " /><path fill="rgb(162,163,166)" stroke="rgb(162,163,166)" stroke-width="1" opacity="1" d="M 138.5 379 L 139 381.5 L 138 381.5 L 138.5 379 Z " /><path fill="rgb(162,163,166)" stroke="rgb(162,163,166)" stroke-width="1" opacity="1" d="M 226.5 379 L 236 379.5 L 226.5 380 L 226.5 379 Z " /><path fill="rgb(162,163,166)" stroke="rgb(162,163,166)" stroke-width="1" opacity="1" d="M 373.5 379 L 374 381.5 L 373 381.5 L 373.5 379 Z " /><path fill="rgb(162,163,166)" stroke="rgb(162,163,166)" stroke-width="1" opacity="1" d="M 221.5 380 L 222 382.5 L 221 382.5 L 221.5 380 Z " /><path fill="rgb(162,163,166)" stroke="rgb(162,163,166)" stroke-width="1" opacity="1" d="M 345.5 381 L 351 381.5 L 345.5 382 L 345.5 381 Z " /><path fill="rgb(162,163,166)" stroke="rgb(162,163,166)" stroke-width="1" opacity="1" d="M 248.5 382 L 268 382.5 L 248.5 383 L 248.5 382 Z " /><path fill="rgb(162,163,166)" stroke="rgb(162,163,166)" stroke-width="1" opacity="1" d="M 356.5 382 L 360 382.5 L 356.5 383 L 356.5 382 Z " /><path fill="rgb(162,163,166)" stroke="rgb(162,163,166)" stroke-width="1" opacity="1" d="M 228.5 383 L 236 383.5 L 228.5 384 L 228.5 383 Z " /><path fill="rgb(162,163,166)" stroke="rgb(162,163,166)" stroke-width="1" opacity="1" d="M 364.5 383 L 369 383.5 L 364.5 384 L 364.5 383 Z " /><path fill="rgb(162,163,166)" stroke="rgb(162,163,166)" stroke-width="1" opacity="1" d="M 336.5 384 L 339 384.5 L 336.5 385 L 336.5 384 Z " /><path fill="rgb(162,163,166)" stroke="rgb(162,163,166)" stroke-width="1" opacity="1" d="M 139.5 385 L 140 387.5 L 139 387.5 L 139.5 385 Z " /><path fill="rgb(162,163,166)" stroke="rgb(162,163,166)" stroke-width="1" opacity="1" d="M 166.5 385 L 170 385.5 L 166.5 386 L 166.5 385 Z " /><path fill="rgb(162,163,166)" stroke="rgb(162,163,166)" stroke-width="1" opacity="1" d="M 345.5 385 L 350 385.5 L 345.5 386 L 345.5 385 Z " /><path fill="rgb(162,163,166)" stroke="rgb(162,163,166)" stroke-width="1" opacity="1" d="M 159.5 386 L 163 386.5 L 159.5 387 L 159.5 386 Z " /><path fill="rgb(162,163,166)" stroke="rgb(162,163,166)" stroke-width="1" opacity="1" d="M 331.5 386 L 332 387.5 L 329 389.5 L 331.5 386 Z " /><path fill="rgb(162,163,166)" stroke="rgb(162,163,166)" stroke-width="1" opacity="1" d="M 355.5 386 L 359 386.5 L 355.5 387 L 355.5 386 Z " /><path fill="rgb(162,163,166)" stroke="rgb(162,163,166)" stroke-width="1" opacity="1" d="M 153.5 387 L 156 387.5 L 153.5 388 L 153.5 387 Z " /><path fill="rgb(162,163,166)" stroke="rgb(162,163,166)" stroke-width="1" opacity="1" d="M 223.5 387 L 221.5 390 L 223.5 387 Z " /><path fill="rgb(162,163,166)" stroke="rgb(162,163,166)" stroke-width="1" opacity="1" d="M 288.5 387 L 290.5 390 L 288.5 387 Z " /><path fill="rgb(162,163,166)" stroke="rgb(162,163,166)" stroke-width="1" opacity="1" d="M 364.5 387 L 368 387.5 L 364.5 388 L 364.5 387 Z " /><path fill="rgb(162,163,166)" stroke="rgb(162,163,166)" stroke-width="1" opacity="1" d="M 147.5 388 L 150 388.5 L 147.5 389 L 147.5 388 Z " /><path fill="rgb(162,163,166)" stroke="rgb(162,163,166)" stroke-width="1" opacity="1" d="M 140.5 389 L 144 389.5 L 140.5 390 L 140.5 389 Z " /><path fill="rgb(162,163,166)" stroke="rgb(162,163,166)" stroke-width="1" opacity="1" d="M 167.5 389 L 170 389.5 L 167.5 390 L 167.5 389 Z " /><path fill="rgb(162,163,166)" stroke="rgb(162,163,166)" stroke-width="1" opacity="1" d="M 160.5 390 L 163 390.5 L 160.5 391 L 160.5 390 Z " /><path fill="rgb(162,163,166)" stroke="rgb(162,163,166)" stroke-width="1" opacity="1" d="M 177.5 390 L 178.5 392 L 177.5 390 Z " /><path fill="rgb(162,163,166)" stroke="rgb(162,163,166)" stroke-width="1" opacity="1" d="M 448.5 390 L 449 392.5 L 448 392.5 L 448.5 390 Z " /><path fill="rgb(162,163,166)" stroke="rgb(162,163,166)" stroke-width="1" opacity="1" d="M 154.5 391 L 157 391.5 L 154.5 392 L 154.5 391 Z " /><path fill="rgb(162,163,166)" stroke="rgb(162,163,166)" stroke-width="1" opacity="1" d="M 189.5 391 L 193 391.5 L 189.5 392 L 189.5 391 Z " /><path fill="rgb(162,163,166)" stroke="rgb(162,163,166)" stroke-width="1" opacity="1" d="M 198.5 391 L 204 391.5 L 198.5 392 L 198.5 391 Z " /><path fill="rgb(162,163,166)" stroke="rgb(162,163,166)" stroke-width="1" opacity="1" d="M 308.5 391 L 314 391.5 L 308.5 392 L 308.5 391 Z " /><path fill="rgb(162,163,166)" stroke="rgb(162,163,166)" stroke-width="1" opacity="1" d="M 319.5 391 L 323 391.5 L 319.5 392 L 319.5 391 Z " /><path fill="rgb(162,163,166)" stroke="rgb(162,163,166)" stroke-width="1" opacity="1" d="M 463.5 391 L 464.5 393 L 463.5 391 Z " /><path fill="rgb(162,163,166)" stroke="rgb(162,163,166)" stroke-width="1" opacity="1" d="M 62.5 394 L 65 395.5 L 64.5 398 L 64 395 L 62.5 394 Z " /><path fill="rgb(162,163,166)" stroke="rgb(162,163,166)" stroke-width="1" opacity="1" d="M 207.5 394 L 210 394.5 L 207.5 395 L 207.5 394 Z " /><path fill="rgb(162,163,166)" stroke="rgb(162,163,166)" stroke-width="1" opacity="1" d="M 302.5 394 L 305 394.5 L 302.5 395 L 302.5 394 Z " /><path fill="rgb(162,163,166)" stroke="rgb(162,163,166)" stroke-width="1" opacity="1" d="M 465.5 394 L 466 398.5 L 465 398.5 L 465.5 394 Z " /><path fill="rgb(162,163,166)" stroke="rgb(162,163,166)" stroke-width="1" opacity="1" d="M 189.5 395 L 194 395.5 L 189.5 396 L 189.5 395 Z " /><path fill="rgb(162,163,166)" stroke="rgb(162,163,166)" stroke-width="1" opacity="1" d="M 197.5 395 L 204 395.5 L 197.5 396 L 197.5 395 Z " /><path fill="rgb(162,163,166)" stroke="rgb(162,163,166)" stroke-width="1" opacity="1" d="M 308.5 395 L 315 395.5 L 308.5 396 L 308.5 395 Z " /><path fill="rgb(162,163,166)" stroke="rgb(162,163,166)" stroke-width="1" opacity="1" d="M 317.5 395 L 323 395.5 L 317.5 396 L 317.5 395 Z " /><path fill="rgb(162,163,166)" stroke="rgb(162,163,166)" stroke-width="1" opacity="1" d="M 447.5 395 L 448 397.5 L 447 397.5 L 447.5 395 Z " /><path fill="rgb(162,163,166)" stroke="rgb(162,163,166)" stroke-width="1" opacity="1" d="M 48.5 399 L 47.5 401 L 48.5 399 Z " /><path fill="rgb(162,163,166)" stroke="rgb(162,163,166)" stroke-width="1" opacity="1" d="M 464.5 400 L 463.5 402 L 464.5 400 Z " /><path fill="rgb(162,163,166)" stroke="rgb(162,163,166)" stroke-width="1" opacity="1" d="M 65.5 401 L 66 403.5 L 65 403.5 L 65.5 401 Z " /><path fill="rgb(162,163,166)" stroke="rgb(162,163,166)" stroke-width="1" opacity="1" d="M 142.5 401 L 143 403.5 L 142 403.5 L 142.5 401 Z " /><path fill="rgb(162,163,166)" stroke="rgb(162,163,166)" stroke-width="1" opacity="1" d="M 369.5 401 L 370 403.5 L 369 403.5 L 369.5 401 Z " /><path fill="rgb(162,163,166)" stroke="rgb(162,163,166)" stroke-width="1" opacity="1" d="M 46.5 402 L 47 406.5 L 46 406.5 L 46.5 402 Z " /><path fill="rgb(162,163,166)" stroke="rgb(162,163,166)" stroke-width="1" opacity="1" d="M 66.5 406 L 65.5 408 L 66.5 406 Z " /><path fill="rgb(162,163,166)" stroke="rgb(162,163,166)" stroke-width="1" opacity="1" d="M 143.5 406 L 144 408.5 L 143 408.5 L 143.5 406 Z " /><path fill="rgb(162,163,166)" stroke="rgb(162,163,166)" stroke-width="1" opacity="1" d="M 368.5 406 L 369 408.5 L 368 408.5 L 368.5 406 Z " /><path fill="rgb(162,163,166)" stroke="rgb(162,163,166)" stroke-width="1" opacity="1" d="M 47.5 408 L 49.5 411 L 47.5 408 Z " /><path fill="rgb(162,163,166)" stroke="rgb(162,163,166)" stroke-width="1" opacity="1" d="M 145.5 417 L 146 419.5 L 145 419.5 L 145.5 417 Z " /><path fill="rgb(162,163,166)" stroke="rgb(162,163,166)" stroke-width="1" opacity="1" d="M 366.5 417 L 367 419.5 L 366 419.5 L 366.5 417 Z " /><path fill="rgb(162,163,166)" stroke="rgb(162,163,166)" stroke-width="1" opacity="1" d="M 146.5 422 L 147 424.5 L 146 424.5 L 146.5 422 Z " /><path fill="rgb(162,163,166)" stroke="rgb(162,163,166)" stroke-width="1" opacity="1" d="M 365.5 422 L 366 424.5 L 365 424.5 L 365.5 422 Z " /><path fill="rgb(162,163,166)" stroke="rgb(162,163,166)" stroke-width="1" opacity="1" d="M 149.5 438 L 150 444.5 L 149 444.5 L 149.5 438 Z " /><path fill="rgb(162,163,166)" stroke="rgb(162,163,166)" stroke-width="1" opacity="1" d="M 362.5 438 L 363 444.5 L 362 444.5 L 362.5 438 Z " /><path fill="rgb(162,163,166)" stroke="rgb(162,163,166)" stroke-width="1" opacity="1" d="M 153.5 450 L 154.5 452 L 153.5 450 Z " /><path fill="rgb(162,163,166)" stroke="rgb(162,163,166)" stroke-width="1" opacity="1" d="M 358.5 450 L 357.5 452 L 358.5 450 Z " /><path fill="rgb(162,163,166)" stroke="rgb(162,163,166)" stroke-width="1" opacity="1" d="M 214.5 454 L 215 459.5 L 214 459.5 L 214.5 454 Z " /><path fill="rgb(162,163,166)" stroke="rgb(162,163,166)" stroke-width="1" opacity="1" d="M 218.5 454 L 219 458.5 L 218 458.5 L 218.5 454 Z " /><path fill="rgb(162,163,166)" stroke="rgb(162,163,166)" stroke-width="1" opacity="1" d="M 296.5 454 L 297.5 456 L 296.5 454 Z " /><path fill="rgb(162,163,166)" stroke="rgb(162,163,166)" stroke-width="1" opacity="1" d="M 355.5 454 L 346.5 464 L 355.5 454 Z " /><path fill="rgb(162,163,166)" stroke="rgb(162,163,166)" stroke-width="1" opacity="1" d="M 157.5 455 L 165.5 464 L 157.5 455 Z " /><path fill="rgb(162,163,166)" stroke="rgb(162,163,166)" stroke-width="1" opacity="1" d="M 171.5 457 L 172 459.5 L 171 459.5 L 171.5 457 Z " /><path fill="rgb(162,163,166)" stroke="rgb(162,163,166)" stroke-width="1" opacity="1" d="M 340.5 457 L 341 459.5 L 340 459.5 L 340.5 457 Z " /><path fill="rgb(162,163,166)" stroke="rgb(162,163,166)" stroke-width="1" opacity="1" d="M 175.5 458 L 176 460.5 L 175 460.5 L 175.5 458 Z " /><path fill="rgb(162,163,166)" stroke="rgb(162,163,166)" stroke-width="1" opacity="1" d="M 293.5 458 L 294 460.5 L 293 460.5 L 293.5 458 Z " /><path fill="rgb(162,163,166)" stroke="rgb(162,163,166)" stroke-width="1" opacity="1" d="M 336.5 458 L 337 460.5 L 336 460.5 L 336.5 458 Z " /><path fill="rgb(162,163,166)" stroke="rgb(162,163,166)" stroke-width="1" opacity="1" d="M 297.5 459 L 298 461.5 L 297 461.5 L 297.5 459 Z " /><path fill="rgb(162,163,166)" stroke="rgb(162,163,166)" stroke-width="1" opacity="1" d="M 292.5 465 L 293 467.5 L 292 467.5 L 292.5 465 Z " /><path fill="rgb(162,163,166)" stroke="rgb(162,163,166)" stroke-width="1" opacity="1" d="M 296.5 465 L 297 468.5 L 296 468.5 L 296.5 465 Z " /><path fill="rgb(162,163,166)" stroke="rgb(162,163,166)" stroke-width="1" opacity="1" d="M 215.5 467 L 216 469.5 L 215 469.5 L 215.5 467 Z " /><path fill="rgb(162,163,166)" stroke="rgb(162,163,166)" stroke-width="1" opacity="1" d="M 220.5 471 L 292 471.5 L 220.5 472 L 220.5 471 Z " /><path fill="rgb(162,163,166)" stroke="rgb(162,163,166)" stroke-width="1" opacity="1" d="M 216.5 473 L 217 476.5 L 216 476.5 L 216.5 473 Z " /><path fill="rgb(162,163,166)" stroke="rgb(162,163,166)" stroke-width="1" opacity="1" d="M 295.5 474 L 296 487.5 L 295 487.5 L 295.5 474 Z " /><path fill="rgb(162,163,166)" stroke="rgb(162,163,166)" stroke-width="1" opacity="1" d="M 169.5 475 L 170 477.5 L 169 477.5 L 169.5 475 Z " /><path fill="rgb(162,163,166)" stroke="rgb(162,163,166)" stroke-width="1" opacity="1" d="M 168.5 481 L 169 488.5 L 168 488.5 L 168.5 481 Z " /><path fill="rgb(162,163,166)" stroke="rgb(162,163,166)" stroke-width="1" opacity="1" d="M 343.5 481 L 344 488.5 L 343 488.5 L 343.5 481 Z " /><path fill="rgb(162,163,166)" stroke="rgb(162,163,166)" stroke-width="1" opacity="1" d="M 169.5 492 L 170.5 494 L 169.5 492 Z " /><path fill="rgb(162,163,166)" stroke="rgb(162,163,166)" stroke-width="1" opacity="1" d="M 214.5 492 L 213.5 494 L 214.5 492 Z " /><path fill="rgb(162,163,166)" stroke="rgb(162,163,166)" stroke-width="1" opacity="1" d="M 297.5 492 L 298.5 494 L 297.5 492 Z " /><path fill="rgb(162,163,166)" stroke="rgb(162,163,166)" stroke-width="1" opacity="1" d="M 182.5 497 L 186 497.5 L 182.5 498 L 182.5 497 Z " /><path fill="rgb(162,163,166)" stroke="rgb(162,163,166)" stroke-width="1" opacity="1" d="M 198.5 497 L 202 497.5 L 198.5 498 L 198.5 497 Z " /><path fill="rgb(162,163,166)" stroke="rgb(162,163,166)" stroke-width="1" opacity="1" d="M 310.5 497 L 314 497.5 L 310.5 498 L 310.5 497 Z " /><path fill="rgb(162,163,166)" stroke="rgb(162,163,166)" stroke-width="1" opacity="1" d="M 326.5 497 L 330 497.5 L 326.5 498 L 326.5 497 Z " /></svg>