<svg width="512" height="512" version="1.1" xmlns="http://www.w3.org/2000/svg" desc="Created with imagetracer.js version 1.2.6" ><path fill="rgb(88,89,91)" stroke="rgb(88,89,91)" stroke-width="1" opacity="0.9254901960784314" d="M 275.5 10 Q 284.3 8.3 286 13.5 L 296 66.5 L 300 74.5 L 310 105.5 L 311 116.5 L 312 117.5 L 312 132.5 L 307 154.5 Q 301.5 169.5 291 179.5 L 308.5 181 L 333.5 186 L 353.5 193 Q 363.6 197.4 370 205.5 Q 373.5 209.5 372 218.5 L 369 224 L 383.5 224 L 387 227.5 L 386 234 L 337.5 254 L 317 255.5 L 325 279.5 L 332 313.5 L 332 320.5 L 334 329.5 L 334 341.5 L 335 342.5 L 335 379.5 L 334 380.5 L 334 389.5 L 333 390.5 L 333 397.5 L 331 407.5 L 324 429.5 L 335.5 432 L 344.5 432 L 355.5 430 L 370.5 424 Q 381.5 417.5 389 407.5 L 400 385.5 L 403 369.5 L 403 358.5 L 402 357.5 L 399 333.5 L 402 323.5 L 407.5 318 Q 412.1 315.1 420.5 316 Q 438.3 320.7 447 334.5 L 459 358.5 L 461 367.5 L 462 384.5 L 461 385.5 L 461 393.5 L 459 402.5 L 452 419.5 Q 442.9 436.4 428.5 448 Q 412.1 461.6 389.5 469 L 366.5 474 L 339.5 475 L 338.5 474 L 319.5 473 L 297.5 468 L 294 472.5 L 296 476.5 L 297 487.5 Q 294.8 488.8 296 493.5 L 293.5 497 L 288.5 500 L 280.5 502 L 258.5 502 L 250.5 500 L 244 495.5 Q 239.5 488.8 241 477 L 174.5 477 L 174 477.5 L 174 489.5 L 168.5 498 L 156.5 502 L 134.5 502 L 126.5 500 L 120 495.5 L 118 482.5 L 121 471.5 L 108 459.5 Q 98.3 448.3 92 433.5 L 84 407.5 L 82 390.5 L 81 389.5 L 81 380.5 L 80 379.5 L 80 342.5 L 81 341.5 L 81 330.5 L 82 329.5 L 82 321.5 L 83 320.5 L 85 302.5 L 82.5 304 L 73.5 309 Q 68.8 307.8 67.5 310 Q 56.6 308.4 52 300.5 L 50 295.5 L 65.5 279 L 85 264.5 Q 76.1 261.4 71 254.5 Q 54.7 241.3 57 209.5 Q 60.8 189.3 74.5 179 L 83.5 178 L 92 185.5 Q 99.9 198.1 103 215.5 L 110.5 224 L 123 197.5 Q 104.5 183 97 157.5 L 94 140.5 L 93 98.5 L 88 76.5 L 84 49.5 L 87.5 45 L 93.5 44 L 127.5 62 Q 148.1 48.1 176.5 42 L 198.5 38 L 206.5 38 L 207.5 37 L 235.5 37 L 236.5 38 L 249.5 39 L 275.5 10 Z M 278 14 L 252 44 L 243 42 L 234 42 L 233 41 L 201 42 L 174 47 L 150 55 L 129 66 L 126 66 L 114 60 L 93 48 L 89 49 L 88 52 L 98 103 L 97 107 L 98 138 L 99 139 L 100 153 Q 105 172 116 185 Q 127 199 146 206 Q 150 208 147 210 Q 135 206 127 200 L 113 228 L 114 233 L 120 242 L 136 255 L 148 260 L 158 262 L 203 261 L 204 260 L 206 261 L 237 261 L 237 261 L 237 254 L 198 254 L 147 234 Q 144 233 145 228 L 148 225 L 164 225 L 159 217 Q 158 210 161 207 L 174 196 L 197 187 L 222 182 L 239 181 L 240 180 L 253 180 L 254 179 L 256 180 Q 261 182 263 179 Q 268 178 270 180 Q 275 182 277 179 L 285 180 Q 296 170 302 156 L 306 144 L 307 133 L 308 132 L 307 112 Q 301 86 291 65 L 291 60 L 289 54 L 283 17 Q 282 13 278 14 Z M 79 182 L 77 183 Q 64 193 61 212 Q 59 233 68 245 Q 75 255 87 261 L 94 260 L 95 263 L 67 284 L 56 295 L 55 298 L 64 305 L 75 304 L 85 297 L 88 294 L 94 269 L 103 242 Q 96 243 92 239 Q 80 232 79 215 L 82 213 L 84 224 L 87 230 Q 92 238 105 239 L 109 230 L 99 218 Q 96 200 88 188 Q 86 182 79 182 Z M 249 183 L 248 184 L 235 184 L 233 186 L 233 199 L 231 200 L 229 199 L 229 185 L 214 187 L 193 192 Q 179 196 170 203 L 163 211 Q 162 218 165 221 L 171 225 L 361 225 L 368 217 Q 369 209 365 207 L 359 201 L 342 193 L 323 188 L 302 185 L 302 198 L 301 199 Q 302 201 300 200 L 298 199 L 298 185 L 296 184 Q 285 185 279 183 L 279 199 L 278 200 L 275 199 L 275 183 L 256 183 L 256 199 L 255 200 L 252 199 L 252 184 L 249 183 Z M 150 228 L 148 231 L 195 250 L 200 251 L 238 251 L 240 247 Q 243 241 251 239 L 265 241 L 276 251 L 331 251 L 336 250 L 381 232 L 383 230 L 382 228 L 150 228 Z M 110 234 L 108 240 L 117 257 L 121 271 L 122 280 L 148 310 L 164 325 L 171 329 L 178 339 L 177 346 L 169 358 L 157 367 L 149 366 Q 139 360 137 347 L 121 333 L 117 371 L 115 379 L 112 407 L 110 414 Q 109 418 111 418 L 299 418 L 297 399 L 296 398 L 296 391 L 295 390 L 294 374 L 293 373 L 292 354 L 291 353 L 290 322 L 274 300 Q 263 287 249 279 Q 240 274 238 265 L 227 265 L 226 264 L 184 264 L 183 265 L 156 265 L 147 263 Q 133 259 124 250 L 112 236 Q 113 233 110 234 Z M 249 243 L 245 245 L 240 256 L 240 262 L 245 272 L 270 290 Q 287 308 301 330 Q 302 334 298 332 L 295 327 L 293 326 L 297 378 L 298 379 L 302 416 L 303 417 Q 304 421 303 421 L 106 421 L 110 397 L 110 391 L 111 390 L 111 384 L 112 383 L 115 350 L 116 349 L 116 340 L 117 339 L 117 330 L 103 315 L 105 312 L 107 313 L 116 324 Q 123 333 134 338 L 139 344 L 144 357 L 152 364 L 155 364 L 162 360 Q 171 353 175 342 L 174 338 L 159 325 L 114 277 Q 112 272 116 273 L 118 275 L 115 262 L 107 245 L 97 271 L 91 294 L 86 322 L 85 340 L 84 341 L 84 380 L 85 381 L 87 402 L 91 418 L 97 434 L 112 458 Q 116 464 124 467 L 126 463 L 126 455 L 128 453 L 130 455 L 129 465 L 123 478 L 123 492 L 124 494 L 136 498 Q 154 500 166 495 L 170 489 Q 171 476 168 469 L 168 456 L 171 455 L 172 472 L 174 473 L 242 473 L 243 472 L 243 466 L 245 458 Q 247 455 248 458 L 246 469 L 246 477 L 245 478 Q 244 487 247 493 L 252 496 L 260 498 L 280 498 L 291 494 L 292 492 L 292 478 L 286 465 L 285 455 L 288 453 L 289 455 L 289 463 L 292 467 L 296 465 Q 310 452 318 434 L 326 411 L 330 389 L 330 381 L 331 380 L 331 341 L 330 340 L 329 322 L 324 294 L 313 256 L 312 254 L 302 254 L 297 272 L 316 286 L 317 289 Q 319 290 317 291 L 284 265 L 273 254 Q 269 246 260 243 L 257 244 Q 255 241 249 243 Z M 279 254 L 279 256 L 294 269 L 298 258 L 298 254 L 279 254 Z M 415 320 L 410 322 L 404 329 L 404 344 L 407 357 L 407 372 L 404 387 L 392 411 Q 384 421 374 427 L 361 433 L 347 436 L 334 436 L 323 433 L 314 449 L 302 465 L 330 470 L 365 470 L 385 466 Q 409 459 427 444 Q 450 426 457 393 Q 460 355 443 337 L 430 324 Q 424 320 415 320 Z " /><path fill="rgb(88,89,91)" stroke="rgb(88,89,91)" stroke-width="1" opacity="0.9254901960784314" d="M 244.5 95 Q 250 94 251 97.5 L 252 102.5 L 251 105 L 245.5 107 L 240 102.5 Q 239.4 97.4 242.5 96 L 244.5 95 Z " /><path fill="rgb(88,89,91)" stroke="rgb(88,89,91)" stroke-width="1" opacity="0.9254901960784314" d="M 152.5 112 Q 158.8 110.8 160 114.5 L 161 118.5 L 157.5 123 Q 152.1 123.6 150 122 L 149 115.5 L 152.5 112 Z " /><path fill="rgb(88,89,91)" stroke="rgb(88,89,91)" stroke-width="1" opacity="0.9254901960784314" d="M 198.5 114 L 207.5 114 L 210 116.5 L 211 122.5 Q 209.7 129.7 205 133.5 L 207 141.5 L 210.5 145 L 221.5 144 L 223 147 L 212.5 149 L 205 146 L 202.5 150 L 198.5 152 L 190 153 Q 188.5 149.3 191.5 150 L 199.5 148 L 203 144.5 Q 204.4 135.6 200.5 132 L 194 127.5 Q 191.2 124.8 192 118.5 L 198.5 114 Z " /><path fill="rgb(88,89,91)" stroke="rgb(88,89,91)" stroke-width="1" opacity="0.9254901960784314" d="M 265.5 121 L 269 122.5 L 266.5 125 L 242.5 137 L 239 137 Q 237.5 133.3 240.5 134 L 265.5 121 Z " /><path fill="rgb(88,89,91)" stroke="rgb(88,89,91)" stroke-width="1" opacity="0.9254901960784314" d="M 140.5 144 L 172 147 L 171.5 150 L 161.5 150 L 160.5 149 L 140.5 148 L 139 146.5 L 140.5 144 Z " /><path fill="rgb(88,89,91)" stroke="rgb(88,89,91)" stroke-width="1" opacity="0.9254901960784314" d="M 254.5 145 L 272.5 145 L 273 148 L 241 149 L 241.5 146 L 253.5 146 L 254.5 145 Z " /><path fill="rgb(88,89,91)" stroke="rgb(88,89,91)" stroke-width="1" opacity="0.9254901960784314" d="M 170.5 159 Q 175.8 157.5 174 162 L 147.5 171 L 144 171 Q 142.5 167.3 145.5 168 L 170.5 159 Z " /><path fill="rgb(0,0,0)" stroke="rgb(0,0,0)" stroke-width="1" opacity="0" d="M 0 0 L 512 0 L 512 512 L 0 512 L 0 0 Z M 276 10 L 250 39 L 237 38 L 236 37 L 208 37 L 207 38 L 199 38 L 177 42 Q 148 48 128 62 L 94 44 L 88 45 L 84 50 L 88 77 L 93 99 L 94 141 L 97 158 Q 105 183 123 198 L 111 224 L 103 216 Q 100 198 92 186 L 84 178 L 78 178 L 70 182 L 60 199 L 57 210 Q 55 240 70 254 L 80 262 L 85 265 L 66 279 L 50 296 L 55 305 L 63 309 L 68 310 Q 69 308 74 309 L 83 304 L 86 302 L 83 315 L 82 329 L 81 330 L 81 342 L 80 343 L 80 380 L 81 381 L 81 390 L 82 391 L 82 398 L 84 408 L 92 434 Q 98 448 108 460 L 121 472 L 118 483 L 120 496 L 127 500 L 135 502 L 157 502 L 169 498 L 174 490 L 174 478 L 175 477 L 241 477 Q 240 489 244 496 L 251 500 L 259 502 L 281 502 L 289 500 L 294 497 L 296 494 Q 295 489 297 488 L 296 477 L 294 472 L 299 468 L 314 472 L 327 473 L 328 474 L 338 474 L 339 475 L 367 474 L 390 469 Q 412 462 429 448 Q 443 436 452 420 L 459 403 L 461 394 L 461 386 L 462 385 L 461 368 L 457 353 L 451 341 L 441 327 L 430 319 L 421 316 Q 412 315 408 318 L 402 324 L 399 334 L 401 351 L 402 352 L 402 359 L 403 360 L 403 370 L 400 386 Q 396 399 388 409 L 371 424 L 356 430 L 345 432 L 336 432 L 324 430 L 330 413 L 334 390 L 334 381 L 335 380 L 335 343 L 334 342 L 334 330 L 332 321 L 332 314 L 325 280 L 317 256 L 338 254 L 386 234 L 387 228 L 384 224 L 369 224 L 372 219 Q 374 209 370 206 L 361 197 L 344 189 L 321 183 L 291 180 Q 301 169 307 155 L 312 134 L 312 118 L 311 117 L 310 106 L 300 75 L 296 67 L 286 14 Q 284 8 276 10 Z " /><path fill="rgb(230,227,214)" stroke="rgb(230,227,214)" stroke-width="1" opacity="1" d="M 274.5 18 L 273.5 20 L 274.5 18 Z " /><path fill="rgb(230,227,214)" stroke="rgb(230,227,214)" stroke-width="1" opacity="1" d="M 255.5 40 L 254.5 42 L 255.5 40 Z " /><path fill="rgb(230,227,214)" stroke="rgb(230,227,214)" stroke-width="1" opacity="1" d="M 251.5 104 L 250.5 106 L 251.5 104 Z " /><path fill="rgb(230,227,214)" stroke="rgb(230,227,214)" stroke-width="1" opacity="1" d="M 211.5 119 L 212 121.5 L 211 121.5 L 211.5 119 Z " /><path fill="rgb(230,227,214)" stroke="rgb(230,227,214)" stroke-width="1" opacity="1" d="M 149.5 121 L 150.5 123 L 149.5 121 Z " /><path fill="rgb(230,227,214)" stroke="rgb(230,227,214)" stroke-width="1" opacity="1" d="M 258.5 144 L 261 144.5 L 258.5 145 L 258.5 144 Z " /><path fill="rgb(230,227,214)" stroke="rgb(230,227,214)" stroke-width="1" opacity="1" d="M 254.5 149 L 257 149.5 L 254.5 150 L 254.5 149 Z " /><path fill="rgb(230,227,214)" stroke="rgb(230,227,214)" stroke-width="1" opacity="1" d="M 189.5 152 L 190.5 154 L 189.5 152 Z " /><path fill="rgb(230,227,214)" stroke="rgb(230,227,214)" stroke-width="1" opacity="1" d="M 149 229 L 382 229.5 L 376.5 233 L 333.5 250 L 274.5 250 L 267.5 242 Q 260.9 237 247.5 239 L 240 245.5 L 237.5 250 L 197.5 250 L 149 231 L 149 229 Z " /><path fill="rgb(230,227,214)" stroke="rgb(230,227,214)" stroke-width="1" opacity="1" d="M 246.5 245 L 245.5 247 L 246.5 245 Z " /><path fill="rgb(230,227,214)" stroke="rgb(230,227,214)" stroke-width="1" opacity="1" d="M 271.5 253 L 272.5 255 L 271.5 253 Z " /><path fill="rgb(230,227,214)" stroke="rgb(230,227,214)" stroke-width="1" opacity="1" d="M 179.5 260 L 182 260.5 L 179.5 261 L 179.5 260 Z " /><path fill="rgb(230,227,214)" stroke="rgb(230,227,214)" stroke-width="1" opacity="1" d="M 227.5 260 L 231 260.5 L 227.5 261 L 227.5 260 Z " /><path fill="rgb(230,227,214)" stroke="rgb(230,227,214)" stroke-width="1" opacity="1" d="M 283.5 265 L 284.5 267 L 283.5 265 Z " /><path fill="rgb(230,227,214)" stroke="rgb(230,227,214)" stroke-width="1" opacity="1" d="M 245.5 270 L 248.5 274 L 245.5 270 Z " /><path fill="rgb(230,227,214)" stroke="rgb(230,227,214)" stroke-width="1" opacity="1" d="M 315.5 285 L 316.5 287 L 315.5 285 Z " /><path fill="rgb(230,227,214)" stroke="rgb(230,227,214)" stroke-width="1" opacity="1" d="M 310.5 287 L 311.5 289 L 310.5 287 Z " /><path fill="rgb(230,227,214)" stroke="rgb(230,227,214)" stroke-width="1" opacity="1" d="M 124.5 288 L 125.5 290 L 124.5 288 Z " /><path fill="rgb(230,227,214)" stroke="rgb(230,227,214)" stroke-width="1" opacity="1" d="M 268.5 288 L 275.5 296 L 268.5 288 Z " /><path fill="rgb(230,227,214)" stroke="rgb(230,227,214)" stroke-width="1" opacity="1" d="M 131.5 296 L 132.5 298 L 131.5 296 Z " /><path fill="rgb(230,227,214)" stroke="rgb(230,227,214)" stroke-width="1" opacity="1" d="M 91.5 297 L 92 299.5 L 91 299.5 L 91.5 297 Z " /><path fill="rgb(230,227,214)" stroke="rgb(230,227,214)" stroke-width="1" opacity="1" d="M 323.5 297 L 324 299.5 L 323 299.5 L 323.5 297 Z " /><path fill="rgb(230,227,214)" stroke="rgb(230,227,214)" stroke-width="1" opacity="1" d="M 90.5 302 L 91 307.5 L 90 308.5 L 90 319.5 L 89 320.5 L 89 358.5 L 90 359.5 L 90 369.5 L 94 391.5 L 104 420 L 106 420.5 L 106 422.5 Q 113.1 437.4 125.5 447 L 138.5 453 L 276.5 453 L 288.5 448 L 301 435.5 L 313 415.5 L 321 391.5 L 325 368.5 L 325 358.5 L 326 357.5 L 326 319.5 L 325 318.5 L 324 302.5 L 325 302.5 L 328 326.5 L 329 327.5 L 329 336.5 L 330 337.5 L 331 364.5 L 330 365.5 L 330 382.5 L 329 383.5 L 328 397.5 L 320 426.5 Q 311.7 449.2 295.5 464 L 291 466 L 289 453.5 L 287.5 452 L 285 453.5 L 285 463.5 L 291 476.5 L 292 488.5 L 291 493 L 280.5 497 L 267.5 498 L 266.5 497 L 254.5 496 L 248 492.5 L 246 488.5 L 246 474.5 L 249 457.5 Q 247.8 455 244 456 L 242 472 L 173.5 472 L 173 468.5 L 172 467.5 L 172 455.5 L 170.5 454 L 167 455.5 L 167 466.5 L 169 473.5 L 169 489.5 L 165.5 494 L 156.5 497 L 144.5 498 L 143.5 497 L 130.5 496 L 124 493 L 123 482.5 L 125 473.5 L 129 467.5 L 131 455.5 L 128.5 452 L 126 453.5 L 126 458.5 L 124 466 Q 117.1 463.9 113 457.5 Q 98 440 91 414.5 L 85 382.5 L 84 357.5 L 85 356.5 L 86 327.5 L 90.5 302 Z " /><path fill="rgb(230,227,214)" stroke="rgb(230,227,214)" stroke-width="1" opacity="1" d="M 145.5 312 L 147.5 315 L 145.5 312 Z " /><path fill="rgb(230,227,214)" stroke="rgb(230,227,214)" stroke-width="1" opacity="1" d="M 114.5 320 L 117.5 324 L 114.5 320 Z " /><path fill="rgb(230,227,214)" stroke="rgb(230,227,214)" stroke-width="1" opacity="1" d="M 419.5 321 Q 434.9 325.6 443 337.5 Q 456.9 354.1 457 384.5 L 455 383.5 L 443.5 370 L 440 367.5 L 437 350.5 L 433 340.5 L 419.5 321 Z " /><path fill="rgb(230,227,214)" stroke="rgb(230,227,214)" stroke-width="1" opacity="1" d="M 157.5 324 L 160.5 328 L 157.5 324 Z " /><path fill="rgb(230,227,214)" stroke="rgb(230,227,214)" stroke-width="1" opacity="1" d="M 114.5 327 L 115.5 329 L 114.5 327 Z " /><path fill="rgb(230,227,214)" stroke="rgb(230,227,214)" stroke-width="1" opacity="1" d="M 125.5 331 L 126.5 333 L 125.5 331 Z " /><path fill="rgb(230,227,214)" stroke="rgb(230,227,214)" stroke-width="1" opacity="1" d="M 410.5 355 L 413 355.5 L 410.5 356 L 410.5 355 Z " /><path fill="rgb(230,227,214)" stroke="rgb(230,227,214)" stroke-width="1" opacity="1" d="M 147.5 359 L 148.5 361 L 147.5 359 Z " /><path fill="rgb(230,227,214)" stroke="rgb(230,227,214)" stroke-width="1" opacity="1" d="M 429.5 361 L 432 362.5 L 430.5 362 L 429.5 361 Z " /><path fill="rgb(230,227,214)" stroke="rgb(230,227,214)" stroke-width="1" opacity="1" d="M 435.5 364 L 436.5 366 L 435.5 364 Z " /><path fill="rgb(230,227,214)" stroke="rgb(230,227,214)" stroke-width="1" opacity="1" d="M 409.5 374 L 412 374.5 L 409.5 375 L 409.5 374 Z " /><path fill="rgb(230,227,214)" stroke="rgb(230,227,214)" stroke-width="1" opacity="1" d="M 419.5 377 L 424 379.5 L 422.5 379 Q 418.8 378.8 419.5 377 Z " /><path fill="rgb(230,227,214)" stroke="rgb(230,227,214)" stroke-width="1" opacity="1" d="M 427.5 381 L 428.5 383 L 427.5 381 Z " /><path fill="rgb(230,227,214)" stroke="rgb(230,227,214)" stroke-width="1" opacity="1" d="M 431.5 384 L 437.5 391 L 431.5 384 Z " /><path fill="rgb(230,227,214)" stroke="rgb(230,227,214)" stroke-width="1" opacity="1" d="M 438.5 392 Q 447.1 399.9 449 414.5 Q 440.4 431.4 426.5 443 L 416 450 Q 417.2 439.5 414 432.5 Q 431.4 417.4 438.5 392 Z " /><path fill="rgb(230,227,214)" stroke="rgb(230,227,214)" stroke-width="1" opacity="1" d="M 397.5 403 L 401.5 408 L 397.5 403 Z " /><path fill="rgb(230,227,214)" stroke="rgb(230,227,214)" stroke-width="1" opacity="1" d="M 402.5 409 L 404.5 412 L 402.5 409 Z " /><path fill="rgb(230,227,214)" stroke="rgb(230,227,214)" stroke-width="1" opacity="1" d="M 405.5 413 L 406.5 415 L 405.5 413 Z " /><path fill="rgb(230,227,214)" stroke="rgb(230,227,214)" stroke-width="1" opacity="1" d="M 385.5 418 L 388.5 422 L 385.5 418 Z " /><path fill="rgb(230,227,214)" stroke="rgb(230,227,214)" stroke-width="1" opacity="1" d="M 391.5 426 L 392.5 428 L 391.5 426 Z " /><path fill="rgb(230,227,214)" stroke="rgb(230,227,214)" stroke-width="1" opacity="1" d="M 335.5 436 L 339 436.5 L 335.5 437 L 335.5 436 Z " /><path fill="rgb(230,227,214)" stroke="rgb(230,227,214)" stroke-width="1" opacity="1" d="M 341.5 437 L 342 447.5 L 341 447.5 L 341.5 437 Z " /><path fill="rgb(230,227,214)" stroke="rgb(230,227,214)" stroke-width="1" opacity="1" d="M 360.5 439 L 361 445.5 L 360 445.5 L 360.5 439 Z " /><path fill="rgb(230,227,214)" stroke="rgb(230,227,214)" stroke-width="1" opacity="1" d="M 397.5 443 L 398 457.5 L 397 461 L 377.5 467 L 354.5 470 L 355 468.5 L 357.5 460 L 358 462 Q 381.1 458.4 397 446.5 L 397.5 443 Z " /><path fill="rgb(230,227,214)" stroke="rgb(230,227,214)" stroke-width="1" opacity="1" d="M 340.5 451 L 341 453.5 L 340 453.5 L 340.5 451 Z " /><path fill="rgb(230,227,214)" stroke="rgb(230,227,214)" stroke-width="1" opacity="1" d="M 359.5 451 L 360 453.5 L 359 453.5 L 359.5 451 Z " /><path fill="rgb(230,227,214)" stroke="rgb(230,227,214)" stroke-width="1" opacity="1" d="M 358.5 456 L 359 458.5 L 358 458.5 L 358.5 456 Z " /><path fill="rgb(230,227,214)" stroke="rgb(230,227,214)" stroke-width="1" opacity="1" d="M 305.5 460 L 304.5 462 L 305.5 460 Z " /><path fill="rgb(230,227,214)" stroke="rgb(230,227,214)" stroke-width="1" opacity="1" d="M 305.5 464 L 336 465.5 L 333.5 469 L 313.5 467 L 305.5 465 L 305.5 464 Z " /><path fill="rgb(143,144,144)" stroke="rgb(143,144,144)" stroke-width="1" opacity="0.9882352941176471" d="M 277.5 14 L 274.5 18 L 277.5 14 Z " /><path fill="rgb(143,144,144)" stroke="rgb(143,144,144)" stroke-width="1" opacity="0.9882352941176471" d="M 270.5 22 L 267.5 26 L 270.5 22 Z " /><path fill="rgb(143,144,144)" stroke="rgb(143,144,144)" stroke-width="1" opacity="0.9882352941176471" d="M 263.5 30 L 261.5 33 L 263.5 30 Z " /><path fill="rgb(143,144,144)" stroke="rgb(143,144,144)" stroke-width="1" opacity="0.9882352941176471" d="M 257.5 37 L 254.5 41 L 257.5 37 Z " /><path fill="rgb(143,144,144)" stroke="rgb(143,144,144)" stroke-width="1" opacity="0.9882352941176471" d="M 286.5 37 L 287 39.5 L 286 39.5 L 286.5 37 Z " /><path fill="rgb(143,144,144)" stroke="rgb(143,144,144)" stroke-width="1" opacity="0.9882352941176471" d="M 210.5 41 L 232 41.5 L 210.5 42 L 210.5 41 Z " /><path fill="rgb(143,144,144)" stroke="rgb(143,144,144)" stroke-width="1" opacity="0.9882352941176471" d="M 200.5 42 L 203 42.5 L 200.5 43 L 200.5 42 Z " /><path fill="rgb(143,144,144)" stroke="rgb(143,144,144)" stroke-width="1" opacity="0.9882352941176471" d="M 239.5 42 L 243 42.5 L 239.5 43 L 239.5 42 Z " /><path fill="rgb(143,144,144)" stroke="rgb(143,144,144)" stroke-width="1" opacity="0.9882352941176471" d="M 193.5 43 L 196 43.5 L 193.5 44 L 193.5 43 Z " /><path fill="rgb(143,144,144)" stroke="rgb(143,144,144)" stroke-width="1" opacity="0.9882352941176471" d="M 182.5 45 L 185 45.5 L 182.5 46 L 182.5 45 Z " /><path fill="rgb(143,144,144)" stroke="rgb(143,144,144)" stroke-width="1" opacity="0.9882352941176471" d="M 288.5 48 L 289 50.5 L 288 50.5 L 288.5 48 Z " /><path fill="rgb(143,144,144)" stroke="rgb(143,144,144)" stroke-width="1" opacity="0.9882352941176471" d="M 91.5 67 L 92 69.5 L 91 69.5 L 91.5 67 Z " /><path fill="rgb(143,144,144)" stroke="rgb(143,144,144)" stroke-width="1" opacity="0.9882352941176471" d="M 240.5 103 L 242.5 106 L 240.5 103 Z " /><path fill="rgb(143,144,144)" stroke="rgb(143,144,144)" stroke-width="1" opacity="0.9882352941176471" d="M 97.5 108 L 98 115.5 L 97 115.5 L 97.5 108 Z " /><path fill="rgb(143,144,144)" stroke="rgb(143,144,144)" stroke-width="1" opacity="0.9882352941176471" d="M 306.5 111 L 307 113.5 L 306 113.5 L 306.5 111 Z " /><path fill="rgb(143,144,144)" stroke="rgb(143,144,144)" stroke-width="1" opacity="0.9882352941176471" d="M 151.5 112 L 149.5 115 L 151.5 112 Z " /><path fill="rgb(143,144,144)" stroke="rgb(143,144,144)" stroke-width="1" opacity="0.9882352941176471" d="M 201.5 113 L 207 113.5 L 201.5 114 L 201.5 113 Z " /><path fill="rgb(143,144,144)" stroke="rgb(143,144,144)" stroke-width="1" opacity="0.9882352941176471" d="M 208.5 114 L 209.5 116 L 208.5 114 Z " /><path fill="rgb(143,144,144)" stroke="rgb(143,144,144)" stroke-width="1" opacity="0.9882352941176471" d="M 193.5 116 L 192.5 118 L 193.5 116 Z " /><path fill="rgb(143,144,144)" stroke="rgb(143,144,144)" stroke-width="1" opacity="0.9882352941176471" d="M 307.5 119 L 308 130.5 L 307 130.5 L 307.5 119 Z " /><path fill="rgb(143,144,144)" stroke="rgb(143,144,144)" stroke-width="1" opacity="0.9882352941176471" d="M 159.5 121 L 158.5 123 L 159.5 121 Z " /><path fill="rgb(143,144,144)" stroke="rgb(143,144,144)" stroke-width="1" opacity="0.9882352941176471" d="M 153.5 123 L 157 123.5 L 153.5 124 L 153.5 123 Z " /><path fill="rgb(143,144,144)" stroke="rgb(143,144,144)" stroke-width="1" opacity="0.9882352941176471" d="M 268.5 123 L 267.5 125 L 268.5 123 Z " /><path fill="rgb(143,144,144)" stroke="rgb(143,144,144)" stroke-width="1" opacity="0.9882352941176471" d="M 208.5 129 L 206 132.5 L 205.5 134 L 205 132.5 L 208.5 129 Z " /><path fill="rgb(143,144,144)" stroke="rgb(143,144,144)" stroke-width="1" opacity="0.9882352941176471" d="M 98.5 133 L 99 137.5 L 98 137.5 L 98.5 133 Z " /><path fill="rgb(143,144,144)" stroke="rgb(143,144,144)" stroke-width="1" opacity="0.9882352941176471" d="M 238.5 135 L 239 137 L 242 137.5 L 239.5 138 L 238.5 135 Z " /><path fill="rgb(143,144,144)" stroke="rgb(143,144,144)" stroke-width="1" opacity="0.9882352941176471" d="M 202.5 136 L 203 138.5 L 202 138.5 L 202.5 136 Z " /><path fill="rgb(143,144,144)" stroke="rgb(143,144,144)" stroke-width="1" opacity="0.9882352941176471" d="M 144.5 144 L 148 144.5 L 144.5 145 L 144.5 144 Z " /><path fill="rgb(143,144,144)" stroke="rgb(143,144,144)" stroke-width="1" opacity="0.9882352941176471" d="M 202.5 144 L 201.5 146 L 202.5 144 Z " /><path fill="rgb(143,144,144)" stroke="rgb(143,144,144)" stroke-width="1" opacity="0.9882352941176471" d="M 267.5 144 L 272 144.5 L 267.5 145 L 267.5 144 Z " /><path fill="rgb(143,144,144)" stroke="rgb(143,144,144)" stroke-width="1" opacity="0.9882352941176471" d="M 99.5 145 L 100 147.5 L 99 147.5 L 99.5 145 Z " /><path fill="rgb(143,144,144)" stroke="rgb(143,144,144)" stroke-width="1" opacity="0.9882352941176471" d="M 154.5 145 L 158 145.5 L 154.5 146 L 154.5 145 Z " /><path fill="rgb(143,144,144)" stroke="rgb(143,144,144)" stroke-width="1" opacity="0.9882352941176471" d="M 244.5 145 L 253 145.5 L 244.5 146 L 244.5 145 Z " /><path fill="rgb(143,144,144)" stroke="rgb(143,144,144)" stroke-width="1" opacity="0.9882352941176471" d="M 164.5 146 L 169 146.5 L 164.5 147 L 164.5 146 Z " /><path fill="rgb(143,144,144)" stroke="rgb(143,144,144)" stroke-width="1" opacity="0.9882352941176471" d="M 146.5 148 L 150 148.5 L 146.5 149 L 146.5 148 Z " /><path fill="rgb(143,144,144)" stroke="rgb(143,144,144)" stroke-width="1" opacity="0.9882352941176471" d="M 262.5 148 L 271 148.5 L 262.5 149 L 262.5 148 Z " /><path fill="rgb(143,144,144)" stroke="rgb(143,144,144)" stroke-width="1" opacity="0.9882352941176471" d="M 156.5 149 L 160 149.5 L 156.5 150 L 156.5 149 Z " /><path fill="rgb(143,144,144)" stroke="rgb(143,144,144)" stroke-width="1" opacity="0.9882352941176471" d="M 242.5 149 L 248 149.5 L 242.5 150 L 242.5 149 Z " /><path fill="rgb(143,144,144)" stroke="rgb(143,144,144)" stroke-width="1" opacity="0.9882352941176471" d="M 167.5 150 L 172 150.5 L 167.5 151 L 167.5 150 Z " /><path fill="rgb(143,144,144)" stroke="rgb(143,144,144)" stroke-width="1" opacity="0.9882352941176471" d="M 194.5 152 L 197 152.5 L 194.5 153 L 194.5 152 Z " /><path fill="rgb(143,144,144)" stroke="rgb(143,144,144)" stroke-width="1" opacity="0.9882352941176471" d="M 143.5 169 L 144 171 L 146 171.5 L 144.5 172 L 143.5 169 Z " /><path fill="rgb(143,144,144)" stroke="rgb(143,144,144)" stroke-width="1" opacity="0.9882352941176471" d="M 293.5 169 L 292.5 171 L 293.5 169 Z " /><path fill="rgb(143,144,144)" stroke="rgb(143,144,144)" stroke-width="1" opacity="0.9882352941176471" d="M 290.5 173 L 288.5 176 L 290.5 173 Z " /><path fill="rgb(143,144,144)" stroke="rgb(143,144,144)" stroke-width="1" opacity="0.9882352941176471" d="M 110.5 176 L 111.5 178 L 110.5 176 Z " /><path fill="rgb(143,144,144)" stroke="rgb(143,144,144)" stroke-width="1" opacity="0.9882352941176471" d="M 248.5 179 L 253 179.5 L 248.5 180 L 248.5 179 Z " /><path fill="rgb(143,144,144)" stroke="rgb(143,144,144)" stroke-width="1" opacity="0.9882352941176471" d="M 255.5 179 L 262 179.5 L 255.5 180 L 255.5 179 Z " /><path fill="rgb(143,144,144)" stroke="rgb(143,144,144)" stroke-width="1" opacity="0.9882352941176471" d="M 269.5 179 L 276 179.5 L 269.5 180 L 269.5 179 Z " /><path fill="rgb(143,144,144)" stroke="rgb(143,144,144)" stroke-width="1" opacity="0.9882352941176471" d="M 278.5 179 L 282 179.5 L 278.5 180 L 278.5 179 Z " /><path fill="rgb(143,144,144)" stroke="rgb(143,144,144)" stroke-width="1" opacity="0.9882352941176471" d="M 234.5 180 L 239 180.5 L 234.5 181 L 234.5 180 Z " /><path fill="rgb(143,144,144)" stroke="rgb(143,144,144)" stroke-width="1" opacity="0.9882352941176471" d="M 225.5 181 L 229 181.5 L 225.5 182 L 225.5 181 Z " /><path fill="rgb(143,144,144)" stroke="rgb(143,144,144)" stroke-width="1" opacity="0.9882352941176471" d="M 78.5 182 L 82 182.5 L 78.5 183 L 78.5 182 Z " /><path fill="rgb(143,144,144)" stroke="rgb(143,144,144)" stroke-width="1" opacity="0.9882352941176471" d="M 212.5 183 L 215 183.5 L 212.5 184 L 212.5 183 Z " /><path fill="rgb(143,144,144)" stroke="rgb(143,144,144)" stroke-width="1" opacity="0.9882352941176471" d="M 116.5 184 L 118.5 187 L 116.5 184 Z " /><path fill="rgb(143,144,144)" stroke="rgb(143,144,144)" stroke-width="1" opacity="0.9882352941176471" d="M 71.5 188 L 70.5 190 L 71.5 188 Z " /><path fill="rgb(143,144,144)" stroke="rgb(143,144,144)" stroke-width="1" opacity="0.9882352941176471" d="M 124.5 192 L 126.5 195 L 124.5 192 Z " /><path fill="rgb(143,144,144)" stroke="rgb(143,144,144)" stroke-width="1" opacity="0.9882352941176471" d="M 129.5 196 L 130.5 198 L 129.5 196 Z " /><path fill="rgb(143,144,144)" stroke="rgb(143,144,144)" stroke-width="1" opacity="0.9882352941176471" d="M 169.5 198 L 168.5 200 L 169.5 198 Z " /><path fill="rgb(143,144,144)" stroke="rgb(143,144,144)" stroke-width="1" opacity="0.9882352941176471" d="M 127.5 200 L 130 201.5 L 128.5 201 L 127.5 200 Z " /><path fill="rgb(143,144,144)" stroke="rgb(143,144,144)" stroke-width="1" opacity="0.9882352941176471" d="M 165.5 201 L 163.5 204 L 165.5 201 Z " /><path fill="rgb(143,144,144)" stroke="rgb(143,144,144)" stroke-width="1" opacity="0.9882352941176471" d="M 146.5 206 L 147.5 208 L 146.5 206 Z " /><path fill="rgb(143,144,144)" stroke="rgb(143,144,144)" stroke-width="1" opacity="0.9882352941176471" d="M 61.5 211 L 62 213.5 L 61 213.5 L 61.5 211 Z " /><path fill="rgb(143,144,144)" stroke="rgb(143,144,144)" stroke-width="1" opacity="0.9882352941176471" d="M 99.5 218 L 100.5 220 L 99.5 218 Z " /><path fill="rgb(143,144,144)" stroke="rgb(143,144,144)" stroke-width="1" opacity="0.9882352941176471" d="M 61.5 224 L 62 226.5 L 61 226.5 L 61.5 224 Z " /><path fill="rgb(143,144,144)" stroke="rgb(143,144,144)" stroke-width="1" opacity="0.9882352941176471" d="M 104.5 224 L 107.5 228 L 104.5 224 Z " /><path fill="rgb(143,144,144)" stroke="rgb(143,144,144)" stroke-width="1" opacity="0.9882352941176471" d="M 146.5 225 L 145.5 227 L 146.5 225 Z " /><path fill="rgb(143,144,144)" stroke="rgb(143,144,144)" stroke-width="1" opacity="0.9882352941176471" d="M 144.5 228 L 145 231.5 L 144 231.5 L 144.5 228 Z " /><path fill="rgb(143,144,144)" stroke="rgb(143,144,144)" stroke-width="1" opacity="0.9882352941176471" d="M 149.5 228 L 381.5 228 L 383 229.5 L 381.5 229 L 149.5 229 L 149.5 228 Z " /><path fill="rgb(143,144,144)" stroke="rgb(143,144,144)" stroke-width="1" opacity="0.9882352941176471" d="M 87.5 229 L 88.5 231 L 87.5 229 Z " /><path fill="rgb(143,144,144)" stroke="rgb(143,144,144)" stroke-width="1" opacity="0.9882352941176471" d="M 86.5 234 L 89.5 238 L 86.5 234 Z " /><path fill="rgb(143,144,144)" stroke="rgb(143,144,144)" stroke-width="1" opacity="0.9882352941176471" d="M 117.5 237 L 118.5 239 L 117.5 237 Z " /><path fill="rgb(143,144,144)" stroke="rgb(143,144,144)" stroke-width="1" opacity="0.9882352941176471" d="M 108.5 239 L 110 242.5 L 108 241.5 L 108.5 239 Z " /><path fill="rgb(143,144,144)" stroke="rgb(143,144,144)" stroke-width="1" opacity="0.9882352941176471" d="M 120.5 241 L 128.5 250 L 120.5 241 Z " /><path fill="rgb(143,144,144)" stroke="rgb(143,144,144)" stroke-width="1" opacity="0.9882352941176471" d="M 244.5 241 L 241.5 245 L 244.5 241 Z " /><path fill="rgb(143,144,144)" stroke="rgb(143,144,144)" stroke-width="1" opacity="0.9882352941176471" d="M 100.5 242 L 103 242.5 L 100.5 243 L 100.5 242 Z " /><path fill="rgb(143,144,144)" stroke="rgb(143,144,144)" stroke-width="1" opacity="0.9882352941176471" d="M 116.5 242 L 118.5 245 L 116.5 242 Z " /><path fill="rgb(143,144,144)" stroke="rgb(143,144,144)" stroke-width="1" opacity="0.9882352941176471" d="M 257.5 243 L 260 243.5 L 257.5 244 L 257.5 243 Z " /><path fill="rgb(143,144,144)" stroke="rgb(143,144,144)" stroke-width="1" opacity="0.9882352941176471" d="M 68.5 244 L 70.5 247 L 68.5 244 Z " /><path fill="rgb(143,144,144)" stroke="rgb(143,144,144)" stroke-width="1" opacity="0.9882352941176471" d="M 110.5 244 L 111.5 246 L 110.5 244 Z " /><path fill="rgb(143,144,144)" stroke="rgb(143,144,144)" stroke-width="1" opacity="0.9882352941176471" d="M 266.5 247 L 272.5 254 L 266.5 247 Z " /><path fill="rgb(143,144,144)" stroke="rgb(143,144,144)" stroke-width="1" opacity="0.9882352941176471" d="M 238.5 249 L 237.5 251 L 200 250.5 L 237.5 250 L 238.5 249 Z " /><path fill="rgb(143,144,144)" stroke="rgb(143,144,144)" stroke-width="1" opacity="0.9882352941176471" d="M 124.5 250 L 126.5 253 L 124.5 250 Z " /><path fill="rgb(143,144,144)" stroke="rgb(143,144,144)" stroke-width="1" opacity="0.9882352941176471" d="M 275.5 250 L 331 250.5 L 275.5 251 L 275.5 250 Z " /><path fill="rgb(143,144,144)" stroke="rgb(143,144,144)" stroke-width="1" opacity="0.9882352941176471" d="M 131.5 251 L 132.5 253 L 131.5 251 Z " /><path fill="rgb(143,144,144)" stroke="rgb(143,144,144)" stroke-width="1" opacity="0.9882352941176471" d="M 134.5 253 L 135.5 255 L 134.5 253 Z " /><path fill="rgb(143,144,144)" stroke="rgb(143,144,144)" stroke-width="1" opacity="0.9882352941176471" d="M 129.5 254 L 130.5 256 L 129.5 254 Z " /><path fill="rgb(143,144,144)" stroke="rgb(143,144,144)" stroke-width="1" opacity="0.9882352941176471" d="M 202.5 254 L 237 254.5 L 202.5 255 L 202.5 254 Z " /><path fill="rgb(143,144,144)" stroke="rgb(143,144,144)" stroke-width="1" opacity="0.9882352941176471" d="M 279.5 254 L 298 254.5 L 279.5 255 L 279.5 254 Z " /><path fill="rgb(143,144,144)" stroke="rgb(143,144,144)" stroke-width="1" opacity="0.9882352941176471" d="M 302.5 254 L 311.5 254 L 313 255.5 L 311.5 255 L 302.5 255 L 302.5 254 Z " /><path fill="rgb(143,144,144)" stroke="rgb(143,144,144)" stroke-width="1" opacity="0.9882352941176471" d="M 80.5 256 L 81.5 258 L 80.5 256 Z " /><path fill="rgb(143,144,144)" stroke="rgb(143,144,144)" stroke-width="1" opacity="0.9882352941176471" d="M 240.5 256 L 241 261.5 L 240 261.5 L 240.5 256 Z " /><path fill="rgb(143,144,144)" stroke="rgb(143,144,144)" stroke-width="1" opacity="0.9882352941176471" d="M 236.5 258 L 237 260.5 L 236 260.5 L 236.5 258 Z " /><path fill="rgb(143,144,144)" stroke="rgb(143,144,144)" stroke-width="1" opacity="0.9882352941176471" d="M 282.5 258 L 287.5 264 L 282.5 258 Z " /><path fill="rgb(143,144,144)" stroke="rgb(143,144,144)" stroke-width="1" opacity="0.9882352941176471" d="M 191.5 260 L 203 260.5 L 191.5 261 L 191.5 260 Z " /><path fill="rgb(143,144,144)" stroke="rgb(143,144,144)" stroke-width="1" opacity="0.9882352941176471" d="M 206.5 260 L 218 260.5 L 206.5 261 L 206.5 260 Z " /><path fill="rgb(143,144,144)" stroke="rgb(143,144,144)" stroke-width="1" opacity="0.9882352941176471" d="M 157.5 261 L 172 261.5 L 157.5 262 L 157.5 261 Z " /><path fill="rgb(143,144,144)" stroke="rgb(143,144,144)" stroke-width="1" opacity="0.9882352941176471" d="M 92.5 264 L 91.5 266 L 92.5 264 Z " /><path fill="rgb(143,144,144)" stroke="rgb(143,144,144)" stroke-width="1" opacity="0.9882352941176471" d="M 152.5 264 L 155 264.5 L 152.5 265 L 152.5 264 Z " /><path fill="rgb(143,144,144)" stroke="rgb(143,144,144)" stroke-width="1" opacity="0.9882352941176471" d="M 183.5 264 L 197 264.5 L 183.5 265 L 183.5 264 Z " /><path fill="rgb(143,144,144)" stroke="rgb(143,144,144)" stroke-width="1" opacity="0.9882352941176471" d="M 212.5 264 L 226 264.5 L 212.5 265 L 212.5 264 Z " /><path fill="rgb(143,144,144)" stroke="rgb(143,144,144)" stroke-width="1" opacity="0.9882352941176471" d="M 161.5 265 L 166 265.5 L 161.5 266 L 161.5 265 Z " /><path fill="rgb(143,144,144)" stroke="rgb(143,144,144)" stroke-width="1" opacity="0.9882352941176471" d="M 89.5 266 L 88.5 268 L 89.5 266 Z " /><path fill="rgb(143,144,144)" stroke="rgb(143,144,144)" stroke-width="1" opacity="0.9882352941176471" d="M 285.5 266 L 287.5 269 L 285.5 266 Z " /><path fill="rgb(143,144,144)" stroke="rgb(143,144,144)" stroke-width="1" opacity="0.9882352941176471" d="M 291.5 266 Q 293.3 269.1 295 267.5 L 293.5 269 L 291.5 266 Z " /><path fill="rgb(143,144,144)" stroke="rgb(143,144,144)" stroke-width="1" opacity="0.9882352941176471" d="M 82.5 271 L 81.5 273 L 82.5 271 Z " /><path fill="rgb(143,144,144)" stroke="rgb(143,144,144)" stroke-width="1" opacity="0.9882352941176471" d="M 245.5 271 L 246.5 273 L 245.5 271 Z " /><path fill="rgb(143,144,144)" stroke="rgb(143,144,144)" stroke-width="1" opacity="0.9882352941176471" d="M 291.5 271 L 292.5 273 L 291.5 271 Z " /><path fill="rgb(143,144,144)" stroke="rgb(143,144,144)" stroke-width="1" opacity="0.9882352941176471" d="M 241.5 272 L 246.5 278 L 241.5 272 Z " /><path fill="rgb(143,144,144)" stroke="rgb(143,144,144)" stroke-width="1" opacity="0.9882352941176471" d="M 121.5 274 L 122 276.5 L 121 276.5 L 121.5 274 Z " /><path fill="rgb(143,144,144)" stroke="rgb(143,144,144)" stroke-width="1" opacity="0.9882352941176471" d="M 301.5 274 L 302.5 276 L 301.5 274 Z " /><path fill="rgb(143,144,144)" stroke="rgb(143,144,144)" stroke-width="1" opacity="0.9882352941176471" d="M 77.5 275 L 76.5 277 L 77.5 275 Z " /><path fill="rgb(143,144,144)" stroke="rgb(143,144,144)" stroke-width="1" opacity="0.9882352941176471" d="M 250.5 275 L 251.5 277 L 250.5 275 Z " /><path fill="rgb(143,144,144)" stroke="rgb(143,144,144)" stroke-width="1" opacity="0.9882352941176471" d="M 73.5 278 L 71.5 281 L 73.5 278 Z " /><path fill="rgb(143,144,144)" stroke="rgb(143,144,144)" stroke-width="1" opacity="0.9882352941176471" d="M 300.5 278 L 301.5 280 L 300.5 278 Z " /><path fill="rgb(143,144,144)" stroke="rgb(143,144,144)" stroke-width="1" opacity="0.9882352941176471" d="M 306.5 278 L 307.5 280 L 306.5 278 Z " /><path fill="rgb(143,144,144)" stroke="rgb(143,144,144)" stroke-width="1" opacity="0.9882352941176471" d="M 249.5 279 L 250.5 281 L 249.5 279 Z " /><path fill="rgb(143,144,144)" stroke="rgb(143,144,144)" stroke-width="1" opacity="0.9882352941176471" d="M 256.5 279 L 257.5 281 L 256.5 279 Z " /><path fill="rgb(143,144,144)" stroke="rgb(143,144,144)" stroke-width="1" opacity="0.9882352941176471" d="M 260.5 282 L 261.5 284 L 260.5 282 Z " /><path fill="rgb(143,144,144)" stroke="rgb(143,144,144)" stroke-width="1" opacity="0.9882352941176471" d="M 305.5 282 L 307.5 285 L 305.5 282 Z " /><path fill="rgb(143,144,144)" stroke="rgb(143,144,144)" stroke-width="1" opacity="0.9882352941176471" d="M 311.5 282 L 314.5 286 L 311.5 282 Z " /><path fill="rgb(143,144,144)" stroke="rgb(143,144,144)" stroke-width="1" opacity="0.9882352941176471" d="M 120.5 283 L 124.5 288 L 120.5 283 Z " /><path fill="rgb(143,144,144)" stroke="rgb(143,144,144)" stroke-width="1" opacity="0.9882352941176471" d="M 255.5 283 L 256.5 285 L 255.5 283 Z " /><path fill="rgb(143,144,144)" stroke="rgb(143,144,144)" stroke-width="1" opacity="0.9882352941176471" d="M 66.5 284 L 56.5 295 L 66.5 284 Z " /><path fill="rgb(143,144,144)" stroke="rgb(143,144,144)" stroke-width="1" opacity="0.9882352941176471" d="M 127.5 285 L 130.5 289 L 127.5 285 Z " /><path fill="rgb(143,144,144)" stroke="rgb(143,144,144)" stroke-width="1" opacity="0.9882352941176471" d="M 259.5 286 L 260.5 288 L 259.5 286 Z " /><path fill="rgb(143,144,144)" stroke="rgb(143,144,144)" stroke-width="1" opacity="0.9882352941176471" d="M 265.5 286 L 268.5 290 L 265.5 286 Z " /><path fill="rgb(143,144,144)" stroke="rgb(143,144,144)" stroke-width="1" opacity="0.9882352941176471" d="M 311.5 287 L 314.5 291 L 311.5 287 Z " /><path fill="rgb(143,144,144)" stroke="rgb(143,144,144)" stroke-width="1" opacity="0.9882352941176471" d="M 265.5 291 L 273.5 300 L 265.5 291 Z " /><path fill="rgb(143,144,144)" stroke="rgb(143,144,144)" stroke-width="1" opacity="0.9882352941176471" d="M 87.5 293 L 84.5 297 L 87.5 293 Z " /><path fill="rgb(143,144,144)" stroke="rgb(143,144,144)" stroke-width="1" opacity="0.9882352941176471" d="M 91.5 293 L 92 295.5 L 91 295.5 L 91.5 293 Z " /><path fill="rgb(143,144,144)" stroke="rgb(143,144,144)" stroke-width="1" opacity="0.9882352941176471" d="M 129.5 293 L 132.5 297 L 129.5 293 Z " /><path fill="rgb(143,144,144)" stroke="rgb(143,144,144)" stroke-width="1" opacity="0.9882352941176471" d="M 134.5 293 L 137.5 297 L 134.5 293 Z " /><path fill="rgb(143,144,144)" stroke="rgb(143,144,144)" stroke-width="1" opacity="0.9882352941176471" d="M 275.5 296 L 278.5 300 L 275.5 296 Z " /><path fill="rgb(143,144,144)" stroke="rgb(143,144,144)" stroke-width="1" opacity="0.9882352941176471" d="M 55.5 297 L 56.5 299 L 55.5 297 Z " /><path fill="rgb(143,144,144)" stroke="rgb(143,144,144)" stroke-width="1" opacity="0.9882352941176471" d="M 80.5 299 L 79.5 301 L 80.5 299 Z " /><path fill="rgb(143,144,144)" stroke="rgb(143,144,144)" stroke-width="1" opacity="0.9882352941176471" d="M 140.5 300 L 143.5 304 L 140.5 300 Z " /><path fill="rgb(143,144,144)" stroke="rgb(143,144,144)" stroke-width="1" opacity="0.9882352941176471" d="M 77.5 301 L 76.5 303 L 77.5 301 Z " /><path fill="rgb(143,144,144)" stroke="rgb(143,144,144)" stroke-width="1" opacity="0.9882352941176471" d="M 136.5 301 L 138.5 304 L 136.5 301 Z " /><path fill="rgb(143,144,144)" stroke="rgb(143,144,144)" stroke-width="1" opacity="0.9882352941176471" d="M 60.5 302 L 61.5 304 L 60.5 302 Z " /><path fill="rgb(143,144,144)" stroke="rgb(143,144,144)" stroke-width="1" opacity="0.9882352941176471" d="M 89.5 303 L 90 305.5 L 89 305.5 L 89.5 303 Z " /><path fill="rgb(143,144,144)" stroke="rgb(143,144,144)" stroke-width="1" opacity="0.9882352941176471" d="M 276.5 303 L 278.5 306 L 276.5 303 Z " /><path fill="rgb(143,144,144)" stroke="rgb(143,144,144)" stroke-width="1" opacity="0.9882352941176471" d="M 281.5 303 L 282.5 305 L 281.5 303 Z " /><path fill="rgb(143,144,144)" stroke="rgb(143,144,144)" stroke-width="1" opacity="0.9882352941176471" d="M 325.5 303 L 326 305.5 L 325 305.5 L 325.5 303 Z " /><path fill="rgb(143,144,144)" stroke="rgb(143,144,144)" stroke-width="1" opacity="0.9882352941176471" d="M 284.5 307 L 285.5 309 L 284.5 307 Z " /><path fill="rgb(143,144,144)" stroke="rgb(143,144,144)" stroke-width="1" opacity="0.9882352941176471" d="M 142.5 308 L 146.5 313 L 142.5 308 Z " /><path fill="rgb(143,144,144)" stroke="rgb(143,144,144)" stroke-width="1" opacity="0.9882352941176471" d="M 280.5 308 L 281.5 310 L 280.5 308 Z " /><path fill="rgb(143,144,144)" stroke="rgb(143,144,144)" stroke-width="1" opacity="0.9882352941176471" d="M 148.5 309 L 163.5 325 L 148.5 309 Z " /><path fill="rgb(143,144,144)" stroke="rgb(143,144,144)" stroke-width="1" opacity="0.9882352941176471" d="M 288.5 312 L 289.5 314 L 288.5 312 Z " /><path fill="rgb(143,144,144)" stroke="rgb(143,144,144)" stroke-width="1" opacity="0.9882352941176471" d="M 284.5 313 L 285.5 315 L 284.5 313 Z " /><path fill="rgb(143,144,144)" stroke="rgb(143,144,144)" stroke-width="1" opacity="0.9882352941176471" d="M 87.5 315 L 88 317.5 L 87 317.5 L 87.5 315 Z " /><path fill="rgb(143,144,144)" stroke="rgb(143,144,144)" stroke-width="1" opacity="0.9882352941176471" d="M 103.5 315 L 114.5 327 L 103.5 315 Z " /><path fill="rgb(143,144,144)" stroke="rgb(143,144,144)" stroke-width="1" opacity="0.9882352941176471" d="M 327.5 315 L 328 317.5 L 327 317.5 L 327.5 315 Z " /><path fill="rgb(143,144,144)" stroke="rgb(143,144,144)" stroke-width="1" opacity="0.9882352941176471" d="M 291.5 316 L 292.5 318 L 291.5 316 Z " /><path fill="rgb(143,144,144)" stroke="rgb(143,144,144)" stroke-width="1" opacity="0.9882352941176471" d="M 287.5 317 L 288.5 319 L 287.5 317 Z " /><path fill="rgb(143,144,144)" stroke="rgb(143,144,144)" stroke-width="1" opacity="0.9882352941176471" d="M 414.5 320 L 419 320.5 L 414.5 321 L 414.5 320 Z " /><path fill="rgb(143,144,144)" stroke="rgb(143,144,144)" stroke-width="1" opacity="0.9882352941176471" d="M 289.5 321 L 290 330.5 L 289 330.5 L 289.5 321 Z " /><path fill="rgb(143,144,144)" stroke="rgb(143,144,144)" stroke-width="1" opacity="0.9882352941176471" d="M 328.5 321 L 329 324.5 L 328 324.5 L 328.5 321 Z " /><path fill="rgb(143,144,144)" stroke="rgb(143,144,144)" stroke-width="1" opacity="0.9882352941176471" d="M 86.5 322 L 87 324.5 L 86 324.5 L 86.5 322 Z " /><path fill="rgb(143,144,144)" stroke="rgb(143,144,144)" stroke-width="1" opacity="0.9882352941176471" d="M 116.5 323 L 124.5 332 L 116.5 323 Z " /><path fill="rgb(143,144,144)" stroke="rgb(143,144,144)" stroke-width="1" opacity="0.9882352941176471" d="M 159.5 325 L 161.5 328 L 159.5 325 Z " /><path fill="rgb(143,144,144)" stroke="rgb(143,144,144)" stroke-width="1" opacity="0.9882352941176471" d="M 293.5 325 Q 296.3 326.3 294 327.5 L 293.5 333 L 293.5 325 Z " /><path fill="rgb(143,144,144)" stroke="rgb(143,144,144)" stroke-width="1" opacity="0.9882352941176471" d="M 432.5 326 L 433.5 328 L 432.5 326 Z " /><path fill="rgb(143,144,144)" stroke="rgb(143,144,144)" stroke-width="1" opacity="0.9882352941176471" d="M 168.5 327 L 169.5 329 L 168.5 327 Z " /><path fill="rgb(143,144,144)" stroke="rgb(143,144,144)" stroke-width="1" opacity="0.9882352941176471" d="M 296.5 329 L 297.5 331 L 296.5 329 Z " /><path fill="rgb(143,144,144)" stroke="rgb(143,144,144)" stroke-width="1" opacity="0.9882352941176471" d="M 85.5 330 L 86 333.5 L 85 333.5 L 85.5 330 Z " /><path fill="rgb(143,144,144)" stroke="rgb(143,144,144)" stroke-width="1" opacity="0.9882352941176471" d="M 329.5 330 L 330 333.5 L 329 333.5 L 329.5 330 Z " /><path fill="rgb(143,144,144)" stroke="rgb(143,144,144)" stroke-width="1" opacity="0.9882352941176471" d="M 167.5 331 L 168.5 333 L 167.5 331 Z " /><path fill="rgb(143,144,144)" stroke="rgb(143,144,144)" stroke-width="1" opacity="0.9882352941176471" d="M 173.5 331 L 174.5 333 L 173.5 331 Z " /><path fill="rgb(143,144,144)" stroke="rgb(143,144,144)" stroke-width="1" opacity="0.9882352941176471" d="M 120.5 333 L 121 337.5 L 120 337.5 L 120.5 333 Z " /><path fill="rgb(143,144,144)" stroke="rgb(143,144,144)" stroke-width="1" opacity="0.9882352941176471" d="M 116.5 334 L 117 338.5 L 116 338.5 L 116.5 334 Z " /><path fill="rgb(143,144,144)" stroke="rgb(143,144,144)" stroke-width="1" opacity="0.9882352941176471" d="M 122.5 334 L 124.5 337 L 122.5 334 Z " /><path fill="rgb(143,144,144)" stroke="rgb(143,144,144)" stroke-width="1" opacity="0.9882352941176471" d="M 441.5 335 L 442.5 337 L 441.5 335 Z " /><path fill="rgb(143,144,144)" stroke="rgb(143,144,144)" stroke-width="1" opacity="0.9882352941176471" d="M 131.5 336 L 132.5 338 L 131.5 336 Z " /><path fill="rgb(143,144,144)" stroke="rgb(143,144,144)" stroke-width="1" opacity="0.9882352941176471" d="M 444.5 339 L 445.5 341 L 444.5 339 Z " /><path fill="rgb(143,144,144)" stroke="rgb(143,144,144)" stroke-width="1" opacity="0.9882352941176471" d="M 84.5 340 L 85 346.5 L 84 346.5 L 84.5 340 Z " /><path fill="rgb(143,144,144)" stroke="rgb(143,144,144)" stroke-width="1" opacity="0.9882352941176471" d="M 130.5 340 L 131.5 342 L 130.5 340 Z " /><path fill="rgb(143,144,144)" stroke="rgb(143,144,144)" stroke-width="1" opacity="0.9882352941176471" d="M 136.5 340 L 137.5 342 L 136.5 340 Z " /><path fill="rgb(143,144,144)" stroke="rgb(143,144,144)" stroke-width="1" opacity="0.9882352941176471" d="M 290.5 340 L 291 345.5 L 290 345.5 L 290.5 340 Z " /><path fill="rgb(143,144,144)" stroke="rgb(143,144,144)" stroke-width="1" opacity="0.9882352941176471" d="M 330.5 340 L 331 346.5 L 330 346.5 L 330.5 340 Z " /><path fill="rgb(143,144,144)" stroke="rgb(143,144,144)" stroke-width="1" opacity="0.9882352941176471" d="M 404.5 341 L 405 343.5 L 404 343.5 L 404.5 341 Z " /><path fill="rgb(143,144,144)" stroke="rgb(143,144,144)" stroke-width="1" opacity="0.9882352941176471" d="M 294.5 342 L 295 346.5 L 294 346.5 L 294.5 342 Z " /><path fill="rgb(143,144,144)" stroke="rgb(143,144,144)" stroke-width="1" opacity="0.9882352941176471" d="M 446.5 342 L 447.5 344 L 446.5 342 Z " /><path fill="rgb(143,144,144)" stroke="rgb(143,144,144)" stroke-width="1" opacity="0.9882352941176471" d="M 119.5 344 L 120 347.5 L 119 347.5 L 119.5 344 Z " /><path fill="rgb(143,144,144)" stroke="rgb(143,144,144)" stroke-width="1" opacity="0.9882352941176471" d="M 115.5 345 L 116 348.5 L 115 348.5 L 115.5 345 Z " /><path fill="rgb(143,144,144)" stroke="rgb(143,144,144)" stroke-width="1" opacity="0.9882352941176471" d="M 135.5 345 L 136.5 347 L 135.5 345 Z " /><path fill="rgb(143,144,144)" stroke="rgb(143,144,144)" stroke-width="1" opacity="0.9882352941176471" d="M 174.5 350 L 173.5 352 L 174.5 350 Z " /><path fill="rgb(143,144,144)" stroke="rgb(143,144,144)" stroke-width="1" opacity="0.9882352941176471" d="M 118.5 353 L 119 356.5 L 118 356.5 L 118.5 353 Z " /><path fill="rgb(143,144,144)" stroke="rgb(143,144,144)" stroke-width="1" opacity="0.9882352941176471" d="M 167.5 353 L 161.5 360 L 167.5 353 Z " /><path fill="rgb(143,144,144)" stroke="rgb(143,144,144)" stroke-width="1" opacity="0.9882352941176471" d="M 291.5 353 L 292 356.5 L 291 356.5 L 291.5 353 Z " /><path fill="rgb(143,144,144)" stroke="rgb(143,144,144)" stroke-width="1" opacity="0.9882352941176471" d="M 406.5 353 L 407 355.5 L 406 355.5 L 406.5 353 Z " /><path fill="rgb(143,144,144)" stroke="rgb(143,144,144)" stroke-width="1" opacity="0.9882352941176471" d="M 171.5 354 L 169.5 357 L 171.5 354 Z " /><path fill="rgb(143,144,144)" stroke="rgb(143,144,144)" stroke-width="1" opacity="0.9882352941176471" d="M 295.5 354 L 296 358.5 L 295 358.5 L 295.5 354 Z " /><path fill="rgb(143,144,144)" stroke="rgb(143,144,144)" stroke-width="1" opacity="0.9882352941176471" d="M 114.5 355 L 115 357.5 L 114 357.5 L 114.5 355 Z " /><path fill="rgb(143,144,144)" stroke="rgb(143,144,144)" stroke-width="1" opacity="0.9882352941176471" d="M 142.5 360 L 146.5 365 L 142.5 360 Z " /><path fill="rgb(143,144,144)" stroke="rgb(143,144,144)" stroke-width="1" opacity="0.9882352941176471" d="M 117.5 362 L 118 365.5 L 117 365.5 L 117.5 362 Z " /><path fill="rgb(143,144,144)" stroke="rgb(143,144,144)" stroke-width="1" opacity="0.9882352941176471" d="M 150.5 362 L 151.5 364 L 150.5 362 Z " /><path fill="rgb(143,144,144)" stroke="rgb(143,144,144)" stroke-width="1" opacity="0.9882352941176471" d="M 163.5 362 L 162.5 364 L 163.5 362 Z " /><path fill="rgb(143,144,144)" stroke="rgb(143,144,144)" stroke-width="1" opacity="0.9882352941176471" d="M 113.5 363 L 114 366.5 L 113 366.5 L 113.5 363 Z " /><path fill="rgb(143,144,144)" stroke="rgb(143,144,144)" stroke-width="1" opacity="0.9882352941176471" d="M 292.5 363 L 293 366.5 L 292 366.5 L 292.5 363 Z " /><path fill="rgb(143,144,144)" stroke="rgb(143,144,144)" stroke-width="1" opacity="0.9882352941176471" d="M 296.5 365 L 297 367.5 L 296 367.5 L 296.5 365 Z " /><path fill="rgb(143,144,144)" stroke="rgb(143,144,144)" stroke-width="1" opacity="0.9882352941176471" d="M 151.5 367 L 155 367.5 L 151.5 368 L 151.5 367 Z " /><path fill="rgb(143,144,144)" stroke="rgb(143,144,144)" stroke-width="1" opacity="0.9882352941176471" d="M 456.5 369 L 457 371.5 L 456 371.5 L 456.5 369 Z " /><path fill="rgb(143,144,144)" stroke="rgb(143,144,144)" stroke-width="1" opacity="0.9882352941176471" d="M 112.5 371 L 113 374.5 L 112 374.5 L 112.5 371 Z " /><path fill="rgb(143,144,144)" stroke="rgb(143,144,144)" stroke-width="1" opacity="0.9882352941176471" d="M 116.5 371 L 117 373.5 L 116 373.5 L 116.5 371 Z " /><path fill="rgb(143,144,144)" stroke="rgb(143,144,144)" stroke-width="1" opacity="0.9882352941176471" d="M 406.5 372 L 407 374.5 L 406 374.5 L 406.5 372 Z " /><path fill="rgb(143,144,144)" stroke="rgb(143,144,144)" stroke-width="1" opacity="0.9882352941176471" d="M 293.5 373 L 294 376.5 L 293 376.5 L 293.5 373 Z " /><path fill="rgb(143,144,144)" stroke="rgb(143,144,144)" stroke-width="1" opacity="0.9882352941176471" d="M 84.5 374 L 85 379.5 L 84 379.5 L 84.5 374 Z " /><path fill="rgb(143,144,144)" stroke="rgb(143,144,144)" stroke-width="1" opacity="0.9882352941176471" d="M 297.5 374 L 298 377.5 L 297 377.5 L 297.5 374 Z " /><path fill="rgb(143,144,144)" stroke="rgb(143,144,144)" stroke-width="1" opacity="0.9882352941176471" d="M 330.5 374 L 331 379.5 L 330 379.5 L 330.5 374 Z " /><path fill="rgb(143,144,144)" stroke="rgb(143,144,144)" stroke-width="1" opacity="0.9882352941176471" d="M 115.5 378 L 116 381.5 L 115 381.5 L 115.5 378 Z " /><path fill="rgb(143,144,144)" stroke="rgb(143,144,144)" stroke-width="1" opacity="0.9882352941176471" d="M 111.5 380 L 112 382.5 L 111 382.5 L 111.5 380 Z " /><path fill="rgb(143,144,144)" stroke="rgb(143,144,144)" stroke-width="1" opacity="0.9882352941176471" d="M 294.5 381 L 295 384.5 L 294 384.5 L 294.5 381 Z " /><path fill="rgb(143,144,144)" stroke="rgb(143,144,144)" stroke-width="1" opacity="0.9882352941176471" d="M 298.5 383 L 299 385.5 L 298 385.5 L 298.5 383 Z " /><path fill="rgb(143,144,144)" stroke="rgb(143,144,144)" stroke-width="1" opacity="0.9882352941176471" d="M 85.5 386 L 86 388.5 L 85 388.5 L 85.5 386 Z " /><path fill="rgb(143,144,144)" stroke="rgb(143,144,144)" stroke-width="1" opacity="0.9882352941176471" d="M 114.5 386 L 115 388.5 L 114 388.5 L 114.5 386 Z " /><path fill="rgb(143,144,144)" stroke="rgb(143,144,144)" stroke-width="1" opacity="0.9882352941176471" d="M 329.5 386 L 330 388.5 L 329 388.5 L 329.5 386 Z " /><path fill="rgb(143,144,144)" stroke="rgb(143,144,144)" stroke-width="1" opacity="0.9882352941176471" d="M 110.5 387 L 111 389.5 L 110 389.5 L 110.5 387 Z " /><path fill="rgb(143,144,144)" stroke="rgb(143,144,144)" stroke-width="1" opacity="0.9882352941176471" d="M 456.5 389 L 457 392.5 L 456 392.5 L 456.5 389 Z " /><path fill="rgb(143,144,144)" stroke="rgb(143,144,144)" stroke-width="1" opacity="0.9882352941176471" d="M 295.5 390 L 296 393.5 L 295 393.5 L 295.5 390 Z " /><path fill="rgb(143,144,144)" stroke="rgb(143,144,144)" stroke-width="1" opacity="0.9882352941176471" d="M 299.5 391 L 300 393.5 L 299 393.5 L 299.5 391 Z " /><path fill="rgb(143,144,144)" stroke="rgb(143,144,144)" stroke-width="1" opacity="0.9882352941176471" d="M 86.5 393 L 87 395.5 L 86 395.5 L 86.5 393 Z " /><path fill="rgb(143,144,144)" stroke="rgb(143,144,144)" stroke-width="1" opacity="0.9882352941176471" d="M 113.5 393 L 114 395.5 L 113 395.5 L 113.5 393 Z " /><path fill="rgb(143,144,144)" stroke="rgb(143,144,144)" stroke-width="1" opacity="0.9882352941176471" d="M 328.5 393 L 329 395.5 L 328 395.5 L 328.5 393 Z " /><path fill="rgb(143,144,144)" stroke="rgb(143,144,144)" stroke-width="1" opacity="0.9882352941176471" d="M 109.5 394 L 110 396.5 L 109 396.5 L 109.5 394 Z " /><path fill="rgb(143,144,144)" stroke="rgb(143,144,144)" stroke-width="1" opacity="0.9882352941176471" d="M 455.5 395 L 456 397.5 L 455 397.5 L 455.5 395 Z " /><path fill="rgb(143,144,144)" stroke="rgb(143,144,144)" stroke-width="1" opacity="0.9882352941176471" d="M 296.5 398 L 297 400.5 L 296 400.5 L 296.5 398 Z " /><path fill="rgb(143,144,144)" stroke="rgb(143,144,144)" stroke-width="1" opacity="0.9882352941176471" d="M 87.5 399 L 88 401.5 L 87 401.5 L 87.5 399 Z " /><path fill="rgb(143,144,144)" stroke="rgb(143,144,144)" stroke-width="1" opacity="0.9882352941176471" d="M 300.5 399 L 301 401.5 L 300 401.5 L 300.5 399 Z " /><path fill="rgb(143,144,144)" stroke="rgb(143,144,144)" stroke-width="1" opacity="0.9882352941176471" d="M 327.5 399 L 328 401.5 L 327 401.5 L 327.5 399 Z " /><path fill="rgb(143,144,144)" stroke="rgb(143,144,144)" stroke-width="1" opacity="0.9882352941176471" d="M 112.5 400 L 113 402.5 L 112 402.5 L 112.5 400 Z " /><path fill="rgb(143,144,144)" stroke="rgb(143,144,144)" stroke-width="1" opacity="0.9882352941176471" d="M 108.5 401 L 109 403.5 L 108 403.5 L 108.5 401 Z " /><path fill="rgb(143,144,144)" stroke="rgb(143,144,144)" stroke-width="1" opacity="0.9882352941176471" d="M 297.5 405 L 298 407.5 L 297 407.5 L 297.5 405 Z " /><path fill="rgb(143,144,144)" stroke="rgb(143,144,144)" stroke-width="1" opacity="0.9882352941176471" d="M 301.5 406 L 302 408.5 L 301 408.5 L 301.5 406 Z " /><path fill="rgb(143,144,144)" stroke="rgb(143,144,144)" stroke-width="1" opacity="0.9882352941176471" d="M 111.5 407 L 112 409.5 L 111 409.5 L 111.5 407 Z " /><path fill="rgb(143,144,144)" stroke="rgb(143,144,144)" stroke-width="1" opacity="0.9882352941176471" d="M 393.5 408 L 392.5 410 L 393.5 408 Z " /><path fill="rgb(143,144,144)" stroke="rgb(143,144,144)" stroke-width="1" opacity="0.9882352941176471" d="M 298.5 412 L 299 414.5 L 298 414.5 L 298.5 412 Z " /><path fill="rgb(143,144,144)" stroke="rgb(143,144,144)" stroke-width="1" opacity="0.9882352941176471" d="M 390.5 412 L 386.5 417 L 390.5 412 Z " /><path fill="rgb(143,144,144)" stroke="rgb(143,144,144)" stroke-width="1" opacity="0.9882352941176471" d="M 110.5 413 L 111 415.5 L 110 415.5 L 110.5 413 Z " /><path fill="rgb(143,144,144)" stroke="rgb(143,144,144)" stroke-width="1" opacity="0.9882352941176471" d="M 302.5 413 L 303 415.5 L 302 415.5 L 302.5 413 Z " /><path fill="rgb(143,144,144)" stroke="rgb(143,144,144)" stroke-width="1" opacity="0.9882352941176471" d="M 106.5 414 L 107 416.5 L 106 416.5 L 106.5 414 Z " /><path fill="rgb(143,144,144)" stroke="rgb(143,144,144)" stroke-width="1" opacity="0.9882352941176471" d="M 384.5 418 L 381.5 422 L 384.5 418 Z " /><path fill="rgb(143,144,144)" stroke="rgb(143,144,144)" stroke-width="1" opacity="0.9882352941176471" d="M 107.5 421 L 302 421.5 L 107.5 422 L 107.5 421 Z " /><path fill="rgb(143,144,144)" stroke="rgb(143,144,144)" stroke-width="1" opacity="0.9882352941176471" d="M 445.5 421 L 444.5 423 L 445.5 421 Z " /><path fill="rgb(143,144,144)" stroke="rgb(143,144,144)" stroke-width="1" opacity="0.9882352941176471" d="M 378.5 423 L 377.5 425 L 378.5 423 Z " /><path fill="rgb(143,144,144)" stroke="rgb(143,144,144)" stroke-width="1" opacity="0.9882352941176471" d="M 443.5 424 L 442.5 426 L 443.5 424 Z " /><path fill="rgb(143,144,144)" stroke="rgb(143,144,144)" stroke-width="1" opacity="0.9882352941176471" d="M 375.5 425 L 374.5 427 L 375.5 425 Z " /><path fill="rgb(143,144,144)" stroke="rgb(143,144,144)" stroke-width="1" opacity="0.9882352941176471" d="M 440.5 428 L 439.5 430 L 440.5 428 Z " /><path fill="rgb(143,144,144)" stroke="rgb(143,144,144)" stroke-width="1" opacity="0.9882352941176471" d="M 322.5 433 L 321.5 435 L 322.5 433 Z " /><path fill="rgb(143,144,144)" stroke="rgb(143,144,144)" stroke-width="1" opacity="0.9882352941176471" d="M 436.5 433 L 426.5 444 L 436.5 433 Z " /><path fill="rgb(143,144,144)" stroke="rgb(143,144,144)" stroke-width="1" opacity="0.9882352941176471" d="M 353.5 434 L 356 434.5 L 353.5 435 L 353.5 434 Z " /><path fill="rgb(143,144,144)" stroke="rgb(143,144,144)" stroke-width="1" opacity="0.9882352941176471" d="M 330.5 435 L 333 435.5 L 330.5 436 L 330.5 435 Z " /><path fill="rgb(143,144,144)" stroke="rgb(143,144,144)" stroke-width="1" opacity="0.9882352941176471" d="M 347.5 435 L 351 435.5 L 347.5 436 L 347.5 435 Z " /><path fill="rgb(143,144,144)" stroke="rgb(143,144,144)" stroke-width="1" opacity="0.9882352941176471" d="M 422.5 446 L 421.5 448 L 422.5 446 Z " /><path fill="rgb(143,144,144)" stroke="rgb(143,144,144)" stroke-width="1" opacity="0.9882352941176471" d="M 108.5 452 L 110.5 455 L 108.5 452 Z " /><path fill="rgb(143,144,144)" stroke="rgb(143,144,144)" stroke-width="1" opacity="0.9882352941176471" d="M 306.5 452 L 305.5 454 L 306.5 452 Z " /><path fill="rgb(143,144,144)" stroke="rgb(143,144,144)" stroke-width="1" opacity="0.9882352941176471" d="M 413.5 452 L 412.5 454 L 413.5 452 Z " /><path fill="rgb(143,144,144)" stroke="rgb(143,144,144)" stroke-width="1" opacity="0.9882352941176471" d="M 168.5 454 L 170 454.5 L 168 455 L 167.5 462 L 167 455.5 L 168.5 454 Z " /><path fill="rgb(143,144,144)" stroke="rgb(143,144,144)" stroke-width="1" opacity="0.9882352941176471" d="M 245.5 456 L 245 457.5 L 244.5 459 L 244 457.5 L 245.5 456 Z " /><path fill="rgb(143,144,144)" stroke="rgb(143,144,144)" stroke-width="1" opacity="0.9882352941176471" d="M 112.5 457 L 118.5 464 L 112.5 457 Z " /><path fill="rgb(143,144,144)" stroke="rgb(143,144,144)" stroke-width="1" opacity="0.9882352941176471" d="M 302.5 457 L 295.5 465 L 302.5 457 Z " /><path fill="rgb(143,144,144)" stroke="rgb(143,144,144)" stroke-width="1" opacity="0.9882352941176471" d="M 307.5 457 L 305.5 460 L 307.5 457 Z " /><path fill="rgb(143,144,144)" stroke="rgb(143,144,144)" stroke-width="1" opacity="0.9882352941176471" d="M 171.5 458 L 172 464.5 L 171 464.5 L 171.5 458 Z " /><path fill="rgb(143,144,144)" stroke="rgb(143,144,144)" stroke-width="1" opacity="0.9882352941176471" d="M 129.5 460 L 130 462.5 L 129 462.5 L 129.5 460 Z " /><path fill="rgb(143,144,144)" stroke="rgb(143,144,144)" stroke-width="1" opacity="0.9882352941176471" d="M 285.5 460 L 286 462.5 L 285 462.5 L 285.5 460 Z " /><path fill="rgb(143,144,144)" stroke="rgb(143,144,144)" stroke-width="1" opacity="0.9882352941176471" d="M 247.5 461 L 248 463.5 L 247 463.5 L 247.5 461 Z " /><path fill="rgb(143,144,144)" stroke="rgb(143,144,144)" stroke-width="1" opacity="0.9882352941176471" d="M 246.5 468 L 247 470.5 L 246 470.5 L 246.5 468 Z " /><path fill="rgb(143,144,144)" stroke="rgb(143,144,144)" stroke-width="1" opacity="0.9882352941176471" d="M 321.5 468 L 324 468.5 L 321.5 469 L 321.5 468 Z " /><path fill="rgb(143,144,144)" stroke="rgb(143,144,144)" stroke-width="1" opacity="0.9882352941176471" d="M 369.5 468 L 372 468.5 L 369.5 469 L 369.5 468 Z " /><path fill="rgb(143,144,144)" stroke="rgb(143,144,144)" stroke-width="1" opacity="0.9882352941176471" d="M 168.5 469 L 169 471.5 L 168 471.5 L 168.5 469 Z " /><path fill="rgb(143,144,144)" stroke="rgb(143,144,144)" stroke-width="1" opacity="0.9882352941176471" d="M 242.5 469 L 243 471.5 L 241.5 473 L 173.5 473 L 172 470.5 L 173 470.5 L 173.5 472 L 242 472 L 242.5 469 Z " /><path fill="rgb(143,144,144)" stroke="rgb(143,144,144)" stroke-width="1" opacity="0.9882352941176471" d="M 329.5 469 L 334 469.5 L 329.5 470 L 329.5 469 Z " /><path fill="rgb(143,144,144)" stroke="rgb(143,144,144)" stroke-width="1" opacity="0.9882352941176471" d="M 361.5 469 L 365 469.5 L 361.5 470 L 361.5 469 Z " /><path fill="rgb(143,144,144)" stroke="rgb(143,144,144)" stroke-width="1" opacity="0.9882352941176471" d="M 169.5 475 L 170 479.5 L 169 479.5 L 169.5 475 Z " /><path fill="rgb(143,144,144)" stroke="rgb(143,144,144)" stroke-width="1" opacity="0.9882352941176471" d="M 123.5 477 L 124 479.5 L 123 479.5 L 123.5 477 Z " /><path fill="rgb(143,144,144)" stroke="rgb(143,144,144)" stroke-width="1" opacity="0.9882352941176471" d="M 245.5 477 L 246 486.5 L 245 486.5 L 245.5 477 Z " /><path fill="rgb(143,144,144)" stroke="rgb(143,144,144)" stroke-width="1" opacity="0.9882352941176471" d="M 169.5 486 L 170 488.5 L 169 488.5 L 169.5 486 Z " /><path fill="rgb(143,144,144)" stroke="rgb(143,144,144)" stroke-width="1" opacity="0.9882352941176471" d="M 167.5 492 L 165.5 495 L 167.5 492 Z " /><path fill="rgb(143,144,144)" stroke="rgb(143,144,144)" stroke-width="1" opacity="0.9882352941176471" d="M 247.5 492 L 248.5 494 L 247.5 492 Z " /><path fill="rgb(143,144,144)" stroke="rgb(143,144,144)" stroke-width="1" opacity="0.9882352941176471" d="M 135.5 497 L 139 497.5 L 135.5 498 L 135.5 497 Z " /><path fill="rgb(143,144,144)" stroke="rgb(143,144,144)" stroke-width="1" opacity="0.9882352941176471" d="M 153.5 497 L 156 497.5 L 153.5 498 L 153.5 497 Z " /><path fill="rgb(143,144,144)" stroke="rgb(143,144,144)" stroke-width="1" opacity="0.9882352941176471" d="M 259.5 497 L 262 497.5 L 259.5 498 L 259.5 497 Z " /><path fill="rgb(143,144,144)" stroke="rgb(143,144,144)" stroke-width="1" opacity="0.9882352941176471" d="M 277.5 497 L 280 497.5 L 277.5 498 L 277.5 497 Z " /><path fill="rgb(175,129,103)" stroke="rgb(175,129,103)" stroke-width="1" opacity="1" d="M 248.5 183 L 252 183.5 L 252 198.5 L 254.5 200 L 256 198.5 L 256 183 L 275 183 L 275 198.5 L 277.5 200 L 279 198.5 L 279 183 Q 284.6 185.3 295.5 184 L 298 185 L 298 198.5 L 299.5 200 Q 301.8 200.8 301 198.5 L 302 197.5 L 302 185 L 322.5 188 L 341.5 193 L 358.5 201 L 365 206.5 Q 368.9 209.1 368 216.5 L 360.5 225 L 170.5 225 L 165 220.5 Q 162 217.5 163 210.5 L 169.5 203 Q 179.3 195.8 192.5 192 L 213.5 187 L 229 185 L 229 198.5 L 230.5 200 L 233 198.5 L 233 185.5 L 234.5 184 L 247.5 184 L 248.5 183 Z " /><path fill="rgb(175,129,103)" stroke="rgb(175,129,103)" stroke-width="1" opacity="1" d="M 297.5 271 L 298.5 273 L 297.5 271 Z " /><path fill="rgb(203,206,208)" stroke="rgb(203,206,208)" stroke-width="1" opacity="1" d="M 280.5 14 L 281.5 16 L 280.5 14 Z " /><path fill="rgb(203,206,208)" stroke="rgb(203,206,208)" stroke-width="1" opacity="1" d="M 272.5 20 L 271.5 22 L 272.5 20 Z " /><path fill="rgb(203,206,208)" stroke="rgb(203,206,208)" stroke-width="1" opacity="1" d="M 266.5 27 L 264.5 30 L 266.5 27 Z " /><path fill="rgb(203,206,208)" stroke="rgb(203,206,208)" stroke-width="1" opacity="1" d="M 260.5 34 L 258.5 37 L 260.5 34 Z " /><path fill="rgb(203,206,208)" stroke="rgb(203,206,208)" stroke-width="1" opacity="1" d="M 203.5 42 L 206 42.5 L 203.5 43 L 203.5 42 Z " /><path fill="rgb(203,206,208)" stroke="rgb(203,206,208)" stroke-width="1" opacity="1" d="M 236.5 42 L 239 42.5 L 236.5 43 L 236.5 42 Z " /><path fill="rgb(203,206,208)" stroke="rgb(203,206,208)" stroke-width="1" opacity="1" d="M 253.5 42 L 252.5 44 L 253.5 42 Z " /><path fill="rgb(203,206,208)" stroke="rgb(203,206,208)" stroke-width="1" opacity="1" d="M 244.5 94 L 248 94.5 L 244.5 95 L 244.5 94 Z " /><path fill="rgb(203,206,208)" stroke="rgb(203,206,208)" stroke-width="1" opacity="1" d="M 242.5 95 L 240.5 98 L 242.5 95 Z " /><path fill="rgb(203,206,208)" stroke="rgb(203,206,208)" stroke-width="1" opacity="1" d="M 158.5 112 L 160.5 115 L 158.5 112 Z " /><path fill="rgb(203,206,208)" stroke="rgb(203,206,208)" stroke-width="1" opacity="1" d="M 148.5 116 L 149 118.5 L 148 118.5 L 148.5 116 Z " /><path fill="rgb(203,206,208)" stroke="rgb(203,206,208)" stroke-width="1" opacity="1" d="M 98.5 127 L 99 132.5 L 98 132.5 L 98.5 127 Z " /><path fill="rgb(203,206,208)" stroke="rgb(203,206,208)" stroke-width="1" opacity="1" d="M 194.5 128 L 197.5 132 L 194.5 128 Z " /><path fill="rgb(203,206,208)" stroke="rgb(203,206,208)" stroke-width="1" opacity="1" d="M 99.5 142 L 100 144.5 L 99 144.5 L 99.5 142 Z " /><path fill="rgb(203,206,208)" stroke="rgb(203,206,208)" stroke-width="1" opacity="1" d="M 208.5 142 L 209.5 144 L 208.5 142 Z " /><path fill="rgb(203,206,208)" stroke="rgb(203,206,208)" stroke-width="1" opacity="1" d="M 148.5 144 L 151 144.5 L 148.5 145 L 148.5 144 Z " /><path fill="rgb(203,206,208)" stroke="rgb(203,206,208)" stroke-width="1" opacity="1" d="M 261.5 144 L 267 144.5 L 261.5 145 L 261.5 144 Z " /><path fill="rgb(203,206,208)" stroke="rgb(203,206,208)" stroke-width="1" opacity="1" d="M 158.5 145 L 161 145.5 L 158.5 146 L 158.5 145 Z " /><path fill="rgb(203,206,208)" stroke="rgb(203,206,208)" stroke-width="1" opacity="1" d="M 223.5 145 L 224 146.5 L 222 147.5 L 223.5 145 Z " /><path fill="rgb(203,206,208)" stroke="rgb(203,206,208)" stroke-width="1" opacity="1" d="M 206.5 146 L 207.5 148 L 206.5 146 Z " /><path fill="rgb(203,206,208)" stroke="rgb(203,206,208)" stroke-width="1" opacity="1" d="M 143.5 148 L 146 148.5 L 143.5 149 L 143.5 148 Z " /><path fill="rgb(203,206,208)" stroke="rgb(203,206,208)" stroke-width="1" opacity="1" d="M 204.5 148 L 202.5 151 L 204.5 148 Z " /><path fill="rgb(203,206,208)" stroke="rgb(203,206,208)" stroke-width="1" opacity="1" d="M 240.5 148 L 241.5 150 L 240.5 148 Z " /><path fill="rgb(203,206,208)" stroke="rgb(203,206,208)" stroke-width="1" opacity="1" d="M 153.5 149 L 156 149.5 L 153.5 150 L 153.5 149 Z " /><path fill="rgb(203,206,208)" stroke="rgb(203,206,208)" stroke-width="1" opacity="1" d="M 190.5 149 L 189.5 151 L 190.5 149 Z " /><path fill="rgb(203,206,208)" stroke="rgb(203,206,208)" stroke-width="1" opacity="1" d="M 248.5 149 L 254 149.5 L 248.5 150 L 248.5 149 Z " /><path fill="rgb(203,206,208)" stroke="rgb(203,206,208)" stroke-width="1" opacity="1" d="M 164.5 150 L 167 150.5 L 164.5 151 L 164.5 150 Z " /><path fill="rgb(203,206,208)" stroke="rgb(203,206,208)" stroke-width="1" opacity="1" d="M 171.5 158 L 175 159.5 L 173.5 159 Q 170.5 159.5 171.5 158 Z " /><path fill="rgb(203,206,208)" stroke="rgb(203,206,208)" stroke-width="1" opacity="1" d="M 174.5 161 L 173.5 163 L 174.5 161 Z " /><path fill="rgb(203,206,208)" stroke="rgb(203,206,208)" stroke-width="1" opacity="1" d="M 144.5 167 L 143.5 169 L 144.5 167 Z " /><path fill="rgb(203,206,208)" stroke="rgb(203,206,208)" stroke-width="1" opacity="1" d="M 287.5 176 L 285.5 179 L 287.5 176 Z " /><path fill="rgb(203,206,208)" stroke="rgb(203,206,208)" stroke-width="1" opacity="1" d="M 243.5 179 L 248 179.5 L 243.5 180 L 243.5 179 Z " /><path fill="rgb(203,206,208)" stroke="rgb(203,206,208)" stroke-width="1" opacity="1" d="M 231.5 180 L 234 180.5 L 231.5 181 L 231.5 180 Z " /><path fill="rgb(203,206,208)" stroke="rgb(203,206,208)" stroke-width="1" opacity="1" d="M 114.5 181 L 115.5 183 L 114.5 181 Z " /><path fill="rgb(203,206,208)" stroke="rgb(203,206,208)" stroke-width="1" opacity="1" d="M 75.5 184 L 72.5 188 L 75.5 184 Z " /><path fill="rgb(203,206,208)" stroke="rgb(203,206,208)" stroke-width="1" opacity="1" d="M 84.5 184 L 86.5 187 L 84.5 184 Z " /><path fill="rgb(203,206,208)" stroke="rgb(203,206,208)" stroke-width="1" opacity="1" d="M 119.5 187 L 123.5 192 L 119.5 187 Z " /><path fill="rgb(203,206,208)" stroke="rgb(203,206,208)" stroke-width="1" opacity="1" d="M 167.5 199 L 166.5 201 L 167.5 199 Z " /><path fill="rgb(203,206,208)" stroke="rgb(203,206,208)" stroke-width="1" opacity="1" d="M 162.5 204 L 161.5 206 L 162.5 204 Z " /><path fill="rgb(203,206,208)" stroke="rgb(203,206,208)" stroke-width="1" opacity="1" d="M 80.5 212 L 83 213.5 L 81.5 213 L 80.5 212 Z " /><path fill="rgb(203,206,208)" stroke="rgb(203,206,208)" stroke-width="1" opacity="1" d="M 61.5 214 L 62 217.5 L 61 217.5 L 61.5 214 Z " /><path fill="rgb(203,206,208)" stroke="rgb(203,206,208)" stroke-width="1" opacity="1" d="M 61.5 219 L 62 223.5 L 61 223.5 L 61.5 219 Z " /><path fill="rgb(203,206,208)" stroke="rgb(203,206,208)" stroke-width="1" opacity="1" d="M 101.5 221 L 103.5 224 L 101.5 221 Z " /><path fill="rgb(203,206,208)" stroke="rgb(203,206,208)" stroke-width="1" opacity="1" d="M 162.5 223 L 163 225 L 148 224.5 L 161.5 224 L 162.5 223 Z " /><path fill="rgb(203,206,208)" stroke="rgb(203,206,208)" stroke-width="1" opacity="1" d="M 89.5 231 L 92.5 235 L 89.5 231 Z " /><path fill="rgb(203,206,208)" stroke="rgb(203,206,208)" stroke-width="1" opacity="1" d="M 256.5 239 L 261 239.5 L 256.5 240 L 256.5 239 Z " /><path fill="rgb(203,206,208)" stroke="rgb(203,206,208)" stroke-width="1" opacity="1" d="M 67.5 242 L 68.5 244 L 67.5 242 Z " /><path fill="rgb(203,206,208)" stroke="rgb(203,206,208)" stroke-width="1" opacity="1" d="M 267.5 242 L 272.5 248 L 267.5 242 Z " /><path fill="rgb(203,206,208)" stroke="rgb(203,206,208)" stroke-width="1" opacity="1" d="M 119.5 246 L 122.5 250 L 119.5 246 Z " /><path fill="rgb(203,206,208)" stroke="rgb(203,206,208)" stroke-width="1" opacity="1" d="M 71.5 247 L 79.5 256 L 71.5 247 Z " /><path fill="rgb(203,206,208)" stroke="rgb(203,206,208)" stroke-width="1" opacity="1" d="M 199.5 254 L 202 254.5 L 199.5 255 L 199.5 254 Z " /><path fill="rgb(203,206,208)" stroke="rgb(203,206,208)" stroke-width="1" opacity="1" d="M 236.5 255 L 237 257.5 L 236 257.5 L 236.5 255 Z " /><path fill="rgb(203,206,208)" stroke="rgb(203,206,208)" stroke-width="1" opacity="1" d="M 273.5 255 L 274.5 257 L 273.5 255 Z " /><path fill="rgb(203,206,208)" stroke="rgb(203,206,208)" stroke-width="1" opacity="1" d="M 279.5 255 L 281.5 258 L 279.5 255 Z " /><path fill="rgb(203,206,208)" stroke="rgb(203,206,208)" stroke-width="1" opacity="1" d="M 276.5 258 L 282.5 265 L 276.5 258 Z " /><path fill="rgb(203,206,208)" stroke="rgb(203,206,208)" stroke-width="1" opacity="1" d="M 182.5 260 L 191 260.5 L 182.5 261 L 182.5 260 Z " /><path fill="rgb(203,206,208)" stroke="rgb(203,206,208)" stroke-width="1" opacity="1" d="M 218.5 260 L 227 260.5 L 218.5 261 L 218.5 260 Z " /><path fill="rgb(203,206,208)" stroke="rgb(203,206,208)" stroke-width="1" opacity="1" d="M 197.5 264 L 212 264.5 L 197.5 265 L 197.5 264 Z " /><path fill="rgb(203,206,208)" stroke="rgb(203,206,208)" stroke-width="1" opacity="1" d="M 289.5 264 L 290.5 266 L 289.5 264 Z " /><path fill="rgb(203,206,208)" stroke="rgb(203,206,208)" stroke-width="1" opacity="1" d="M 158.5 265 L 161 265.5 L 158.5 266 L 158.5 265 Z " /><path fill="rgb(203,206,208)" stroke="rgb(203,206,208)" stroke-width="1" opacity="1" d="M 166.5 265 L 174 265.5 L 166.5 266 L 166.5 265 Z " /><path fill="rgb(203,206,208)" stroke="rgb(203,206,208)" stroke-width="1" opacity="1" d="M 288.5 269 L 289.5 271 L 288.5 269 Z " /><path fill="rgb(203,206,208)" stroke="rgb(203,206,208)" stroke-width="1" opacity="1" d="M 84.5 270 L 83.5 272 L 84.5 270 Z " /><path fill="rgb(203,206,208)" stroke="rgb(203,206,208)" stroke-width="1" opacity="1" d="M 299.5 272 L 300.5 274 L 299.5 272 Z " /><path fill="rgb(203,206,208)" stroke="rgb(203,206,208)" stroke-width="1" opacity="1" d="M 80.5 273 L 79.5 275 L 80.5 273 Z " /><path fill="rgb(203,206,208)" stroke="rgb(203,206,208)" stroke-width="1" opacity="1" d="M 293.5 273 L 294.5 275 L 293.5 273 Z " /><path fill="rgb(203,206,208)" stroke="rgb(203,206,208)" stroke-width="1" opacity="1" d="M 113.5 276 L 119.5 283 L 113.5 276 Z " /><path fill="rgb(203,206,208)" stroke="rgb(203,206,208)" stroke-width="1" opacity="1" d="M 297.5 276 L 298.5 278 L 297.5 276 Z " /><path fill="rgb(203,206,208)" stroke="rgb(203,206,208)" stroke-width="1" opacity="1" d="M 304.5 276 L 305.5 278 L 304.5 276 Z " /><path fill="rgb(203,206,208)" stroke="rgb(203,206,208)" stroke-width="1" opacity="1" d="M 75.5 277 L 74.5 279 L 75.5 277 Z " /><path fill="rgb(203,206,208)" stroke="rgb(203,206,208)" stroke-width="1" opacity="1" d="M 122.5 279 L 126.5 284 L 122.5 279 Z " /><path fill="rgb(203,206,208)" stroke="rgb(203,206,208)" stroke-width="1" opacity="1" d="M 258.5 280 L 259.5 282 L 258.5 280 Z " /><path fill="rgb(203,206,208)" stroke="rgb(203,206,208)" stroke-width="1" opacity="1" d="M 302.5 280 L 303.5 282 L 302.5 280 Z " /><path fill="rgb(203,206,208)" stroke="rgb(203,206,208)" stroke-width="1" opacity="1" d="M 309.5 280 L 310.5 282 L 309.5 280 Z " /><path fill="rgb(203,206,208)" stroke="rgb(203,206,208)" stroke-width="1" opacity="1" d="M 70.5 281 L 68.5 284 L 70.5 281 Z " /><path fill="rgb(203,206,208)" stroke="rgb(203,206,208)" stroke-width="1" opacity="1" d="M 263.5 284 L 264.5 286 L 263.5 284 Z " /><path fill="rgb(203,206,208)" stroke="rgb(203,206,208)" stroke-width="1" opacity="1" d="M 308.5 285 L 309.5 287 L 308.5 285 Z " /><path fill="rgb(203,206,208)" stroke="rgb(203,206,208)" stroke-width="1" opacity="1" d="M 261.5 288 L 263.5 291 L 261.5 288 Z " /><path fill="rgb(203,206,208)" stroke="rgb(203,206,208)" stroke-width="1" opacity="1" d="M 131.5 289 L 133.5 292 L 131.5 289 Z " /><path fill="rgb(203,206,208)" stroke="rgb(203,206,208)" stroke-width="1" opacity="1" d="M 126.5 290 L 128.5 293 L 126.5 290 Z " /><path fill="rgb(203,206,208)" stroke="rgb(203,206,208)" stroke-width="1" opacity="1" d="M 82.5 297 L 81.5 299 L 82.5 297 Z " /><path fill="rgb(203,206,208)" stroke="rgb(203,206,208)" stroke-width="1" opacity="1" d="M 138.5 297 L 140.5 300 L 138.5 297 Z " /><path fill="rgb(203,206,208)" stroke="rgb(203,206,208)" stroke-width="1" opacity="1" d="M 133.5 298 L 135.5 301 L 133.5 298 Z " /><path fill="rgb(203,206,208)" stroke="rgb(203,206,208)" stroke-width="1" opacity="1" d="M 57.5 299 L 59.5 302 L 57.5 299 Z " /><path fill="rgb(203,206,208)" stroke="rgb(203,206,208)" stroke-width="1" opacity="1" d="M 279.5 300 L 280.5 302 L 279.5 300 Z " /><path fill="rgb(203,206,208)" stroke="rgb(203,206,208)" stroke-width="1" opacity="1" d="M 274.5 301 L 275.5 303 L 274.5 301 Z " /><path fill="rgb(203,206,208)" stroke="rgb(203,206,208)" stroke-width="1" opacity="1" d="M 144.5 304 L 147.5 308 L 144.5 304 Z " /><path fill="rgb(203,206,208)" stroke="rgb(203,206,208)" stroke-width="1" opacity="1" d="M 139.5 305 L 141.5 308 L 139.5 305 Z " /><path fill="rgb(203,206,208)" stroke="rgb(203,206,208)" stroke-width="1" opacity="1" d="M 286.5 309 L 287.5 311 L 286.5 309 Z " /><path fill="rgb(203,206,208)" stroke="rgb(203,206,208)" stroke-width="1" opacity="1" d="M 282.5 311 L 283.5 313 L 282.5 311 Z " /><path fill="rgb(203,206,208)" stroke="rgb(203,206,208)" stroke-width="1" opacity="1" d="M 106.5 312 L 113.5 320 L 106.5 312 Z " /><path fill="rgb(203,206,208)" stroke="rgb(203,206,208)" stroke-width="1" opacity="1" d="M 148.5 315 L 156.5 324 L 148.5 315 Z " /><path fill="rgb(203,206,208)" stroke="rgb(203,206,208)" stroke-width="1" opacity="1" d="M 293.5 318 L 294.5 320 L 293.5 318 Z " /><path fill="rgb(203,206,208)" stroke="rgb(203,206,208)" stroke-width="1" opacity="1" d="M 296.5 322 L 297.5 324 L 296.5 322 Z " /><path fill="rgb(203,206,208)" stroke="rgb(203,206,208)" stroke-width="1" opacity="1" d="M 408.5 323 L 406.5 326 L 408.5 323 Z " /><path fill="rgb(203,206,208)" stroke="rgb(203,206,208)" stroke-width="1" opacity="1" d="M 430.5 325 L 431.5 327 L 430.5 325 Z " /><path fill="rgb(203,206,208)" stroke="rgb(203,206,208)" stroke-width="1" opacity="1" d="M 170.5 328 L 172.5 331 L 170.5 328 Z " /><path fill="rgb(203,206,208)" stroke="rgb(203,206,208)" stroke-width="1" opacity="1" d="M 434.5 328 L 440.5 335 L 434.5 328 Z " /><path fill="rgb(203,206,208)" stroke="rgb(203,206,208)" stroke-width="1" opacity="1" d="M 116.5 331 L 117 333.5 L 116 333.5 L 116.5 331 Z " /><path fill="rgb(203,206,208)" stroke="rgb(203,206,208)" stroke-width="1" opacity="1" d="M 289.5 331 L 290 334.5 L 289 334.5 L 289.5 331 Z " /><path fill="rgb(203,206,208)" stroke="rgb(203,206,208)" stroke-width="1" opacity="1" d="M 297.5 331 L 298.5 333 L 297.5 331 Z " /><path fill="rgb(203,206,208)" stroke="rgb(203,206,208)" stroke-width="1" opacity="1" d="M 301.5 331 L 300.5 333 L 301.5 331 Z " /><path fill="rgb(203,206,208)" stroke="rgb(203,206,208)" stroke-width="1" opacity="1" d="M 169.5 333 L 172.5 337 L 169.5 333 Z " /><path fill="rgb(203,206,208)" stroke="rgb(203,206,208)" stroke-width="1" opacity="1" d="M 175.5 333 L 176.5 335 L 175.5 333 Z " /><path fill="rgb(203,206,208)" stroke="rgb(203,206,208)" stroke-width="1" opacity="1" d="M 85.5 334 L 86 336.5 L 85 336.5 L 85.5 334 Z " /><path fill="rgb(203,206,208)" stroke="rgb(203,206,208)" stroke-width="1" opacity="1" d="M 329.5 334 L 330 336.5 L 329 336.5 L 329.5 334 Z " /><path fill="rgb(203,206,208)" stroke="rgb(203,206,208)" stroke-width="1" opacity="1" d="M 120.5 338 L 121 340.5 L 120 340.5 L 120.5 338 Z " /><path fill="rgb(203,206,208)" stroke="rgb(203,206,208)" stroke-width="1" opacity="1" d="M 134.5 338 L 135.5 340 L 134.5 338 Z " /><path fill="rgb(203,206,208)" stroke="rgb(203,206,208)" stroke-width="1" opacity="1" d="M 294.5 338 L 295 341.5 L 294 341.5 L 294.5 338 Z " /><path fill="rgb(203,206,208)" stroke="rgb(203,206,208)" stroke-width="1" opacity="1" d="M 178.5 339 L 179 341.5 L 178 341.5 L 178.5 339 Z " /><path fill="rgb(203,206,208)" stroke="rgb(203,206,208)" stroke-width="1" opacity="1" d="M 115.5 342 L 116 344.5 L 115 344.5 L 115.5 342 Z " /><path fill="rgb(203,206,208)" stroke="rgb(203,206,208)" stroke-width="1" opacity="1" d="M 132.5 342 L 134.5 345 L 132.5 342 Z " /><path fill="rgb(203,206,208)" stroke="rgb(203,206,208)" stroke-width="1" opacity="1" d="M 138.5 342 L 139.5 344 L 138.5 342 Z " /><path fill="rgb(203,206,208)" stroke="rgb(203,206,208)" stroke-width="1" opacity="1" d="M 290.5 346 L 291 348.5 L 290 348.5 L 290.5 346 Z " /><path fill="rgb(203,206,208)" stroke="rgb(203,206,208)" stroke-width="1" opacity="1" d="M 84.5 347 L 85 356.5 L 84 356.5 L 84.5 347 Z " /><path fill="rgb(203,206,208)" stroke="rgb(203,206,208)" stroke-width="1" opacity="1" d="M 330.5 347 L 331 355.5 L 330 355.5 L 330.5 347 Z " /><path fill="rgb(203,206,208)" stroke="rgb(203,206,208)" stroke-width="1" opacity="1" d="M 119.5 348 L 120 350.5 L 119 350.5 L 119.5 348 Z " /><path fill="rgb(203,206,208)" stroke="rgb(203,206,208)" stroke-width="1" opacity="1" d="M 169.5 350 L 168.5 352 L 169.5 350 Z " /><path fill="rgb(203,206,208)" stroke="rgb(203,206,208)" stroke-width="1" opacity="1" d="M 295.5 351 L 296 353.5 L 295 353.5 L 295.5 351 Z " /><path fill="rgb(203,206,208)" stroke="rgb(203,206,208)" stroke-width="1" opacity="1" d="M 114.5 352 L 115 354.5 L 114 354.5 L 114.5 352 Z " /><path fill="rgb(203,206,208)" stroke="rgb(203,206,208)" stroke-width="1" opacity="1" d="M 407 355 Q 436.3 359.5 452 378.5 L 457 385.5 L 457 388.5 L 455 399.5 L 449.5 413 Q 444.3 394.7 431.5 384 L 420.5 377 L 411.5 374 L 407 374 L 407 355 Z " /><path fill="rgb(203,206,208)" stroke="rgb(203,206,208)" stroke-width="1" opacity="1" d="M 145.5 357 L 146.5 359 L 145.5 357 Z " /><path fill="rgb(203,206,208)" stroke="rgb(203,206,208)" stroke-width="1" opacity="1" d="M 291.5 357 L 292 359.5 L 291 359.5 L 291.5 357 Z " /><path fill="rgb(203,206,208)" stroke="rgb(203,206,208)" stroke-width="1" opacity="1" d="M 168.5 358 L 166.5 361 L 168.5 358 Z " /><path fill="rgb(203,206,208)" stroke="rgb(203,206,208)" stroke-width="1" opacity="1" d="M 160.5 359 L 159.5 361 L 160.5 359 Z " /><path fill="rgb(203,206,208)" stroke="rgb(203,206,208)" stroke-width="1" opacity="1" d="M 296.5 362 L 297 364.5 L 296 364.5 L 296.5 362 Z " /><path fill="rgb(203,206,208)" stroke="rgb(203,206,208)" stroke-width="1" opacity="1" d="M 84.5 364 L 85 373.5 L 84 373.5 L 84.5 364 Z " /><path fill="rgb(203,206,208)" stroke="rgb(203,206,208)" stroke-width="1" opacity="1" d="M 330.5 365 L 331 373.5 L 330 373.5 L 330.5 365 Z " /><path fill="rgb(203,206,208)" stroke="rgb(203,206,208)" stroke-width="1" opacity="1" d="M 292.5 367 L 293 369.5 L 292 369.5 L 292.5 367 Z " /><path fill="rgb(203,206,208)" stroke="rgb(203,206,208)" stroke-width="1" opacity="1" d="M 297.5 371 L 298 373.5 L 297 373.5 L 297.5 371 Z " /><path fill="rgb(203,206,208)" stroke="rgb(203,206,208)" stroke-width="1" opacity="1" d="M 456.5 372 L 457 374.5 L 456 374.5 L 456.5 372 Z " /><path fill="rgb(203,206,208)" stroke="rgb(203,206,208)" stroke-width="1" opacity="1" d="M 111.5 377 L 112 379.5 L 111 379.5 L 111.5 377 Z " /><path fill="rgb(203,206,208)" stroke="rgb(203,206,208)" stroke-width="1" opacity="1" d="M 298.5 380 L 299 382.5 L 298 382.5 L 298.5 380 Z " /><path fill="rgb(203,206,208)" stroke="rgb(203,206,208)" stroke-width="1" opacity="1" d="M 85.5 383 L 86 385.5 L 85 385.5 L 85.5 383 Z " /><path fill="rgb(203,206,208)" stroke="rgb(203,206,208)" stroke-width="1" opacity="1" d="M 329.5 383 L 330 385.5 L 329 385.5 L 329.5 383 Z " /><path fill="rgb(203,206,208)" stroke="rgb(203,206,208)" stroke-width="1" opacity="1" d="M 396 404 L 402 408.5 L 412 425.5 L 415 434.5 L 416 449.5 L 417 450.5 L 397.5 461 L 397 458.5 L 398 457.5 L 398 443.5 Q 395.4 427.1 386 417.5 Q 393.2 412.1 396 404 Z " /><path fill="rgb(203,206,208)" stroke="rgb(203,206,208)" stroke-width="1" opacity="1" d="M 298.5 415 L 299 418 L 111.5 418 L 110 416.5 L 111.5 417 L 297.5 417 L 298.5 415 Z " /><path fill="rgb(203,206,208)" stroke="rgb(203,206,208)" stroke-width="1" opacity="1" d="M 303.5 418 L 304 420.5 L 302 421.5 L 303.5 418 Z " /><path fill="rgb(203,206,208)" stroke="rgb(203,206,208)" stroke-width="1" opacity="1" d="M 438.5 430 L 437.5 432 L 438.5 430 Z " /><path fill="rgb(203,206,208)" stroke="rgb(203,206,208)" stroke-width="1" opacity="1" d="M 359.5 433 L 360 450.5 L 357 463.5 L 353.5 470 L 334.5 470 L 334 468.5 L 341 453.5 L 342 437 L 339 436.5 Q 351.8 437.3 359.5 433 Z " /><path fill="rgb(203,206,208)" stroke="rgb(203,206,208)" stroke-width="1" opacity="1" d="M 425.5 443 L 423.5 446 L 425.5 443 Z " /><path fill="rgb(203,206,208)" stroke="rgb(203,206,208)" stroke-width="1" opacity="1" d="M 105.5 447 L 106.5 449 L 105.5 447 Z " /><path fill="rgb(203,206,208)" stroke="rgb(203,206,208)" stroke-width="1" opacity="1" d="M 309.5 447 L 308.5 449 L 309.5 447 Z " /><path fill="rgb(203,206,208)" stroke="rgb(203,206,208)" stroke-width="1" opacity="1" d="M 420.5 447 L 419.5 449 L 420.5 447 Z " /><path fill="rgb(203,206,208)" stroke="rgb(203,206,208)" stroke-width="1" opacity="1" d="M 107.5 450 L 108.5 452 L 107.5 450 Z " /><path fill="rgb(203,206,208)" stroke="rgb(203,206,208)" stroke-width="1" opacity="1" d="M 307.5 450 L 306.5 452 L 307.5 450 Z " /><path fill="rgb(203,206,208)" stroke="rgb(203,206,208)" stroke-width="1" opacity="1" d="M 170.5 454 L 172 457.5 L 171 457.5 L 170.5 454 Z " /><path fill="rgb(203,206,208)" stroke="rgb(203,206,208)" stroke-width="1" opacity="1" d="M 304.5 454 L 302.5 457 L 304.5 454 Z " /><path fill="rgb(203,206,208)" stroke="rgb(203,206,208)" stroke-width="1" opacity="1" d="M 111.5 455 L 112.5 457 L 111.5 455 Z " /><path fill="rgb(203,206,208)" stroke="rgb(203,206,208)" stroke-width="1" opacity="1" d="M 309.5 455 L 308.5 457 L 309.5 455 Z " /><path fill="rgb(203,206,208)" stroke="rgb(203,206,208)" stroke-width="1" opacity="1" d="M 248.5 457 L 249 459.5 L 248 459.5 L 248.5 457 Z " /><path fill="rgb(203,206,208)" stroke="rgb(203,206,208)" stroke-width="1" opacity="1" d="M 289.5 458 L 290 460.5 L 289 460.5 L 289.5 458 Z " /><path fill="rgb(203,206,208)" stroke="rgb(203,206,208)" stroke-width="1" opacity="1" d="M 167.5 462 L 168 466.5 L 167 466.5 L 167.5 462 Z " /><path fill="rgb(203,206,208)" stroke="rgb(203,206,208)" stroke-width="1" opacity="1" d="M 303.5 462 L 302.5 464 L 303.5 462 Z " /><path fill="rgb(203,206,208)" stroke="rgb(203,206,208)" stroke-width="1" opacity="1" d="M 120.5 464 L 121.5 466 L 120.5 464 Z " /><path fill="rgb(203,206,208)" stroke="rgb(203,206,208)" stroke-width="1" opacity="1" d="M 294.5 464 L 293.5 466 L 294.5 464 Z " /><path fill="rgb(203,206,208)" stroke="rgb(203,206,208)" stroke-width="1" opacity="1" d="M 242.5 466 L 243 468.5 L 242 468.5 L 242.5 466 Z " /><path fill="rgb(203,206,208)" stroke="rgb(203,206,208)" stroke-width="1" opacity="1" d="M 357.5 469 L 361 469.5 L 357.5 470 L 357.5 469 Z " /><path fill="rgb(203,206,208)" stroke="rgb(203,206,208)" stroke-width="1" opacity="1" d="M 246.5 471 L 247 473.5 L 246 473.5 L 246.5 471 Z " /><path fill="rgb(203,206,208)" stroke="rgb(203,206,208)" stroke-width="1" opacity="1" d="M 291.5 479 L 292 481.5 L 291 481.5 L 291.5 479 Z " /><path fill="rgb(203,206,208)" stroke="rgb(203,206,208)" stroke-width="1" opacity="1" d="M 169.5 480 L 170 485.5 L 169 485.5 L 169.5 480 Z " /><path fill="rgb(203,206,208)" stroke="rgb(203,206,208)" stroke-width="1" opacity="1" d="M 139.5 497 L 144 497.5 L 139.5 498 L 139.5 497 Z " /><path fill="rgb(203,206,208)" stroke="rgb(203,206,208)" stroke-width="1" opacity="1" d="M 148.5 497 L 153 497.5 L 148.5 498 L 148.5 497 Z " /><path fill="rgb(203,206,208)" stroke="rgb(203,206,208)" stroke-width="1" opacity="1" d="M 262.5 497 L 267 497.5 L 262.5 498 L 262.5 497 Z " /><path fill="rgb(203,206,208)" stroke="rgb(203,206,208)" stroke-width="1" opacity="1" d="M 271.5 497 L 277 497.5 L 271.5 498 L 271.5 497 Z " /><path fill="rgb(233,233,233)" stroke="rgb(233,233,233)" stroke-width="1" opacity="1" d="M 269.5 24 L 268.5 26 L 269.5 24 Z " /><path fill="rgb(233,233,233)" stroke="rgb(233,233,233)" stroke-width="1" opacity="1" d="M 263.5 31 L 262.5 33 L 263.5 31 Z " /><path fill="rgb(233,233,233)" stroke="rgb(233,233,233)" stroke-width="1" opacity="1" d="M 90.5 49 L 89.5 51 L 90.5 49 Z " /><path fill="rgb(233,233,233)" stroke="rgb(233,233,233)" stroke-width="1" opacity="1" d="M 150.5 112 L 149.5 114 L 150.5 112 Z " /><path fill="rgb(233,233,233)" stroke="rgb(233,233,233)" stroke-width="1" opacity="1" d="M 209.5 114 L 210.5 116 L 209.5 114 Z " /><path fill="rgb(233,233,233)" stroke="rgb(233,233,233)" stroke-width="1" opacity="1" d="M 193.5 115 L 192.5 117 L 193.5 115 Z " /><path fill="rgb(233,233,233)" stroke="rgb(233,233,233)" stroke-width="1" opacity="1" d="M 121.5 241 L 122.5 243 L 121.5 241 Z " /><path fill="rgb(233,233,233)" stroke="rgb(233,233,233)" stroke-width="1" opacity="1" d="M 127.5 247 L 128.5 249 L 127.5 247 Z " /><path fill="rgb(233,233,233)" stroke="rgb(233,233,233)" stroke-width="1" opacity="1" d="M 269.5 251 L 270.5 253 L 269.5 251 Z " /><path fill="rgb(233,233,233)" stroke="rgb(233,233,233)" stroke-width="1" opacity="1" d="M 285.5 267 L 286.5 269 L 285.5 267 Z " /><path fill="rgb(233,233,233)" stroke="rgb(233,233,233)" stroke-width="1" opacity="1" d="M 313.5 283 L 314.5 285 L 313.5 283 Z " /><path fill="rgb(233,233,233)" stroke="rgb(233,233,233)" stroke-width="1" opacity="1" d="M 122.5 286 L 123.5 288 L 122.5 286 Z " /><path fill="rgb(233,233,233)" stroke="rgb(233,233,233)" stroke-width="1" opacity="1" d="M 266.5 286 L 267.5 288 L 266.5 286 Z " /><path fill="rgb(233,233,233)" stroke="rgb(233,233,233)" stroke-width="1" opacity="1" d="M 312.5 289 L 313.5 291 L 312.5 289 Z " /><path fill="rgb(233,233,233)" stroke="rgb(233,233,233)" stroke-width="1" opacity="1" d="M 322.5 293 L 323 295.5 L 322 295.5 L 322.5 293 Z " /><path fill="rgb(233,233,233)" stroke="rgb(233,233,233)" stroke-width="1" opacity="1" d="M 129.5 294 L 130.5 296 L 129.5 294 Z " /><path fill="rgb(233,233,233)" stroke="rgb(233,233,233)" stroke-width="1" opacity="1" d="M 276.5 296 L 277.5 298 L 276.5 296 Z " /><path fill="rgb(233,233,233)" stroke="rgb(233,233,233)" stroke-width="1" opacity="1" d="M 91.5 300 L 92 303.5 L 91 303.5 L 91.5 300 Z " /><path fill="rgb(233,233,233)" stroke="rgb(233,233,233)" stroke-width="1" opacity="1" d="M 323.5 300 L 324 303.5 L 323 303.5 L 323.5 300 Z " /><path fill="rgb(233,233,233)" stroke="rgb(233,233,233)" stroke-width="1" opacity="1" d="M 136.5 302 L 137.5 304 L 136.5 302 Z " /><path fill="rgb(233,233,233)" stroke="rgb(233,233,233)" stroke-width="1" opacity="1" d="M 90.5 308 L 91 312.5 L 90 312.5 L 90.5 308 Z " /><path fill="rgb(233,233,233)" stroke="rgb(233,233,233)" stroke-width="1" opacity="1" d="M 324.5 309 L 325 313.5 L 324 313.5 L 324.5 309 Z " /><path fill="rgb(233,233,233)" stroke="rgb(233,233,233)" stroke-width="1" opacity="1" d="M 143.5 310 L 144.5 312 L 143.5 310 Z " /><path fill="rgb(233,233,233)" stroke="rgb(233,233,233)" stroke-width="1" opacity="1" d="M 325.5 319 L 326 331.5 L 325 331.5 L 325.5 319 Z " /><path fill="rgb(233,233,233)" stroke="rgb(233,233,233)" stroke-width="1" opacity="1" d="M 89.5 320 L 90 329.5 L 89 329.5 L 89.5 320 Z " /><path fill="rgb(233,233,233)" stroke="rgb(233,233,233)" stroke-width="1" opacity="1" d="M 418.5 321 L 422.5 326 L 418.5 321 Z " /><path fill="rgb(233,233,233)" stroke="rgb(233,233,233)" stroke-width="1" opacity="1" d="M 109.5 322 L 113.5 327 L 109.5 322 Z " /><path fill="rgb(233,233,233)" stroke="rgb(233,233,233)" stroke-width="1" opacity="1" d="M 118.5 324 L 124.5 331 L 118.5 324 Z " /><path fill="rgb(233,233,233)" stroke="rgb(233,233,233)" stroke-width="1" opacity="1" d="M 424.5 328 L 426.5 331 L 424.5 328 Z " /><path fill="rgb(233,233,233)" stroke="rgb(233,233,233)" stroke-width="1" opacity="1" d="M 427.5 332 L 428.5 334 L 427.5 332 Z " /><path fill="rgb(233,233,233)" stroke="rgb(233,233,233)" stroke-width="1" opacity="1" d="M 89.5 347 L 90 358.5 L 89 358.5 L 89.5 347 Z " /><path fill="rgb(233,233,233)" stroke="rgb(233,233,233)" stroke-width="1" opacity="1" d="M 325.5 347 L 326 357.5 L 325 357.5 L 325.5 347 Z " /><path fill="rgb(233,233,233)" stroke="rgb(233,233,233)" stroke-width="1" opacity="1" d="M 436.5 350 L 437 352.5 L 436 352.5 L 436.5 350 Z " /><path fill="rgb(233,233,233)" stroke="rgb(233,233,233)" stroke-width="1" opacity="1" d="M 166.5 353 L 161.5 359 L 166.5 353 Z " /><path fill="rgb(233,233,233)" stroke="rgb(233,233,233)" stroke-width="1" opacity="1" d="M 438.5 358 L 439 360.5 L 438 360.5 L 438.5 358 Z " /><path fill="rgb(233,233,233)" stroke="rgb(233,233,233)" stroke-width="1" opacity="1" d="M 90.5 364 L 91 369.5 L 90 369.5 L 90.5 364 Z " /><path fill="rgb(233,233,233)" stroke="rgb(233,233,233)" stroke-width="1" opacity="1" d="M 324.5 364 L 325 368.5 L 324 368.5 L 324.5 364 Z " /><path fill="rgb(233,233,233)" stroke="rgb(233,233,233)" stroke-width="1" opacity="1" d="M 439.5 364 L 440 366.5 L 439 366.5 L 439.5 364 Z " /><path fill="rgb(233,233,233)" stroke="rgb(233,233,233)" stroke-width="1" opacity="1" d="M 91.5 373 L 92 376.5 L 91 376.5 L 91.5 373 Z " /><path fill="rgb(233,233,233)" stroke="rgb(233,233,233)" stroke-width="1" opacity="1" d="M 323.5 373 L 324 376.5 L 323 376.5 L 323.5 373 Z " /><path fill="rgb(233,233,233)" stroke="rgb(233,233,233)" stroke-width="1" opacity="1" d="M 429.5 383 L 430.5 385 L 429.5 383 Z " /><path fill="rgb(233,233,233)" stroke="rgb(233,233,233)" stroke-width="1" opacity="1" d="M 435.5 389 Q 438.5 389.5 438 393.5 L 437 393.5 L 435.5 389 Z " /><path fill="rgb(233,233,233)" stroke="rgb(233,233,233)" stroke-width="1" opacity="1" d="M 402.5 408 L 403.5 410 L 402.5 408 Z " /><path fill="rgb(233,233,233)" stroke="rgb(233,233,233)" stroke-width="1" opacity="1" d="M 312.5 414 L 313 415.5 L 311.5 418 L 311 416.5 L 312.5 414 Z " /><path fill="rgb(233,233,233)" stroke="rgb(233,233,233)" stroke-width="1" opacity="1" d="M 428.5 414 L 427.5 416 L 428.5 414 Z " /><path fill="rgb(233,233,233)" stroke="rgb(233,233,233)" stroke-width="1" opacity="1" d="M 384.5 419 L 383.5 421 L 384.5 419 Z " /><path fill="rgb(233,233,233)" stroke="rgb(233,233,233)" stroke-width="1" opacity="1" d="M 424.5 420 L 423.5 422 L 424.5 420 Z " /><path fill="rgb(233,233,233)" stroke="rgb(233,233,233)" stroke-width="1" opacity="1" d="M 387.5 421 L 389.5 424 L 387.5 421 Z " /><path fill="rgb(233,233,233)" stroke="rgb(233,233,233)" stroke-width="1" opacity="1" d="M 106.5 423 L 107.5 425 L 106.5 423 Z " /><path fill="rgb(233,233,233)" stroke="rgb(233,233,233)" stroke-width="1" opacity="1" d="M 421.5 424 L 418.5 428 L 421.5 424 Z " /><path fill="rgb(233,233,233)" stroke="rgb(233,233,233)" stroke-width="1" opacity="1" d="M 109.5 428 L 114 433.5 L 111 431.5 L 109.5 428 Z " /><path fill="rgb(233,233,233)" stroke="rgb(233,233,233)" stroke-width="1" opacity="1" d="M 305.5 428 L 304.5 430 L 305.5 428 Z " /><path fill="rgb(233,233,233)" stroke="rgb(233,233,233)" stroke-width="1" opacity="1" d="M 302.5 432 L 301.5 434 L 302.5 432 Z " /><path fill="rgb(233,233,233)" stroke="rgb(233,233,233)" stroke-width="1" opacity="1" d="M 114.5 435 L 117.5 439 L 114.5 435 Z " /><path fill="rgb(233,233,233)" stroke="rgb(233,233,233)" stroke-width="1" opacity="1" d="M 300.5 435 L 298.5 438 L 300.5 435 Z " /><path fill="rgb(233,233,233)" stroke="rgb(233,233,233)" stroke-width="1" opacity="1" d="M 360.5 435 L 361 438.5 L 360 438.5 L 360.5 435 Z " /><path fill="rgb(233,233,233)" stroke="rgb(233,233,233)" stroke-width="1" opacity="1" d="M 124.5 445 L 125.5 447 L 124.5 445 Z " /><path fill="rgb(233,233,233)" stroke="rgb(233,233,233)" stroke-width="1" opacity="1" d="M 290.5 445 L 288.5 448 L 286.5 449 L 287.5 447 L 290.5 445 Z " /><path fill="rgb(233,233,233)" stroke="rgb(233,233,233)" stroke-width="1" opacity="1" d="M 360.5 446 L 361 448.5 L 360 448.5 L 360.5 446 Z " /><path fill="rgb(233,233,233)" stroke="rgb(233,233,233)" stroke-width="1" opacity="1" d="M 396.5 446 L 395.5 448 L 396.5 446 Z " /><path fill="rgb(233,233,233)" stroke="rgb(233,233,233)" stroke-width="1" opacity="1" d="M 127.5 447 L 128.5 449 L 127.5 447 Z " /><path fill="rgb(233,233,233)" stroke="rgb(233,233,233)" stroke-width="1" opacity="1" d="M 389.5 450 L 388.5 452 L 386.5 453 L 387.5 451 L 389.5 450 Z " /><path fill="rgb(233,233,233)" stroke="rgb(233,233,233)" stroke-width="1" opacity="1" d="M 138.5 452 L 141 452.5 L 138.5 453 L 138.5 452 Z " /><path fill="rgb(233,233,233)" stroke="rgb(233,233,233)" stroke-width="1" opacity="1" d="M 307.5 458 L 306.5 460 L 307.5 458 Z " /><path fill="rgb(233,233,233)" stroke="rgb(233,233,233)" stroke-width="1" opacity="1" d="M 303.5 463 L 307 463.5 L 303.5 464 L 303.5 463 Z " /><path fill="rgb(233,233,233)" stroke="rgb(233,233,233)" stroke-width="1" opacity="1" d="M 311.5 464 L 317 464.5 L 311.5 465 L 311.5 464 Z " /><path fill="rgb(234,234,234)" stroke="rgb(234,234,234)" stroke-width="1" opacity="1" d="M 277.5 15 Q 281.3 14.3 282 16.5 L 291 67.5 L 296 78.5 L 305 106.5 L 307 117.5 L 307 132.5 L 301 155.5 Q 294.8 169.3 284.5 179 L 241.5 179 L 240.5 180 L 230.5 180 L 229.5 181 L 222.5 181 L 205.5 184 L 179.5 192 Q 167.3 196.8 160 206.5 Q 157.4 209.4 158 215.5 L 162 223.5 L 147.5 224 L 144 226.5 Q 142.5 233.5 146.5 235 L 193.5 254 L 198.5 255 L 236 255 L 236 261 L 231.5 261 L 230.5 260 L 178.5 260 L 177.5 261 L 156.5 261 Q 134.6 257.4 123 243.5 L 115 232.5 L 114 227.5 L 127.5 202 L 146.5 211 Q 149 209.8 148 206 Q 129.8 199.5 118 185.5 Q 106.2 172.3 101 152.5 L 100 140.5 L 99 139.5 L 99 124.5 L 98 123.5 L 98 97.5 L 89 51.5 L 92.5 49 L 125.5 67 L 129.5 67 Q 168.1 40.6 234.5 42 L 235.5 43 L 252.5 44 L 277.5 15 Z M 245 94 L 243 95 L 239 100 L 240 105 Q 242 109 250 107 L 253 103 L 252 98 Q 251 93 245 94 Z M 153 111 L 151 112 L 148 116 Q 147 122 152 124 Q 158 125 160 123 Q 162 121 161 115 Q 160 110 153 111 Z M 200 113 L 194 115 L 191 119 Q 190 125 193 128 L 199 133 L 201 133 L 202 137 L 201 146 L 198 148 Q 191 147 189 151 L 191 154 L 202 152 L 207 147 L 214 150 Q 215 148 221 149 L 224 147 L 223 143 L 214 145 L 211 144 L 207 140 L 206 135 L 212 123 L 211 116 Q 208 111 200 113 Z M 266 120 L 240 133 Q 237 134 238 138 L 243 138 L 268 125 Q 271 126 269 122 L 266 120 Z M 141 143 L 138 147 L 143 149 L 162 150 L 163 151 L 173 151 L 173 148 L 172 146 L 153 145 L 152 144 Q 144 146 141 143 Z M 259 144 L 258 145 L 242 145 L 240 147 L 242 150 L 273 149 L 274 146 L 273 144 L 259 144 Z M 172 158 L 145 167 Q 142 168 143 172 L 148 172 L 174 163 L 175 160 L 172 158 Z " /><path fill="rgb(234,234,234)" stroke="rgb(234,234,234)" stroke-width="1" opacity="1" d="M 248.5 244 Q 264.6 241.4 269 250.5 L 286.5 269 Q 301.8 278.2 313.5 291 L 316.5 292 Q 318.8 291.3 318 287.5 L 298 270.5 L 303 255 L 311.5 255 L 312 257.5 L 314 260.5 L 322 289.5 L 324 313.5 L 325 314.5 L 326 346.5 L 325 347.5 L 325 363.5 L 324 364.5 L 323 379.5 L 315 409.5 Q 306.8 430.8 291.5 445 Q 284.9 450.9 274.5 453 L 141.5 453 Q 126 450 118 439.5 L 106 422.5 L 302.5 422 L 304 420.5 L 302 403.5 L 301 402.5 L 301 395.5 L 300 394.5 L 300 387.5 L 299 386.5 L 299 379.5 L 298 378.5 L 298 370.5 L 297 369.5 L 294 328.5 L 296 329.5 L 298.5 333 L 302 331.5 L 299 324.5 L 283 303.5 L 266.5 286 L 250.5 275 L 244 268.5 L 241 262.5 L 241 255.5 Q 242.8 247.9 248.5 244 Z " /><path fill="rgb(234,234,234)" stroke="rgb(234,234,234)" stroke-width="1" opacity="1" d="M 106.5 246 Q 113.8 257.2 117 272.5 L 113 273 L 113 276.5 L 160.5 328 L 173 337.5 L 174 341.5 Q 169.2 354.2 158.5 361 L 152.5 363 L 145 356.5 Q 141.3 352.2 141 344.5 L 132.5 336 L 128.5 334 L 106.5 312 L 103.5 312 L 102 314.5 L 116 329.5 L 116 340.5 L 115 341.5 L 115 350.5 L 114 351.5 L 114 359.5 L 113 360.5 L 113 367.5 L 112 368.5 L 108 404.5 L 106 411.5 L 106 417.5 L 104.5 419 L 97 400.5 L 92 379.5 L 91 364.5 L 90 363.5 L 89 330.5 L 90 329.5 L 90 313.5 L 91 312.5 L 91 304.5 L 92 303.5 L 92 295.5 L 94 284.5 L 106.5 246 Z " /><path fill="rgb(234,234,234)" stroke="rgb(234,234,234)" stroke-width="1" opacity="1" d="M 413.5 321 L 417.5 321 L 424 327.5 Q 436.6 341.4 439 365.5 L 437.5 365 L 424.5 358 L 414.5 355 L 408.5 355 L 407 353.5 L 404 332.5 Q 404.9 325.9 409.5 323 L 413.5 321 Z " /><path fill="rgb(234,234,234)" stroke="rgb(234,234,234)" stroke-width="1" opacity="1" d="M 407 375 Q 413.9 374.3 418.5 377 L 432 385 Q 430.9 387.7 433.5 387 L 437 391.5 L 437 394.5 Q 430.3 416.8 415.5 431 Q 412.9 431.8 414 428.5 L 408 415.5 L 398 401.5 Q 405.7 391 407 375 Z " /><path fill="rgb(234,234,234)" stroke="rgb(234,234,234)" stroke-width="1" opacity="1" d="M 385.5 419 Q 395.4 428.1 397 445.5 Q 380.9 457.7 358 462 L 361 448.5 L 361 435.5 Q 358.8 434.3 361.5 433 Q 376.2 428.7 385.5 419 Z " /><path fill="rgb(234,234,234)" stroke="rgb(234,234,234)" stroke-width="1" opacity="1" d="M 322.5 434 L 327.5 436 L 341 437 Q 342.4 455.2 334.5 465 L 317.5 465 L 316.5 464 L 307.5 464 L 304 462.5 Q 315.8 450.8 322.5 434 Z " /><path fill="rgb(198,218,242)" stroke="rgb(198,218,242)" stroke-width="1" opacity="1" d="M 77.5 183 L 82.5 183 L 88 188.5 L 95 203.5 L 98 217.5 L 108 228.5 L 108 230.5 L 105 238 Q 92.5 238.3 88 229.5 L 81.5 212 L 78 214.5 Q 80 231 90.5 239 L 102 243 L 95.5 263 L 95 260 L 89.5 261 L 82.5 258 L 69 244.5 L 63 232.5 L 62 219.5 L 61 218.5 L 62 217.5 L 62 209.5 L 65 199.5 Q 69.2 189.2 77.5 183 Z " /><path fill="rgb(198,218,242)" stroke="rgb(198,218,242)" stroke-width="1" opacity="1" d="M 110 236 L 113 237.5 L 122.5 250 Q 132.4 259.6 147.5 264 L 158.5 266 L 173.5 266 L 174.5 265 L 234.5 265 L 238 266 Q 239.9 274.7 247.5 279 Q 263 287.5 274 300.5 L 289 319.5 L 289 334.5 L 290 335.5 L 291 359.5 L 292 360.5 L 292 369.5 L 293 370.5 L 293 378.5 L 294 379.5 L 294 386.5 L 295 387.5 L 298 417 L 111.5 417 Q 110.4 416.9 111 411.5 L 116 383.5 L 121.5 334 L 136 346.5 Q 138 360 147.5 366 Q 149.5 369 155.5 368 Q 163.8 364.8 169 358.5 L 177 347.5 L 179 339.5 Q 176.9 331.6 170.5 328 L 163.5 324 L 148 308.5 L 122 278.5 L 120 263.5 L 116 252.5 L 109 239.5 L 110 236 Z " /><path fill="rgb(198,218,242)" stroke="rgb(198,218,242)" stroke-width="1" opacity="1" d="M 280.5 255 L 298 255.5 L 293.5 268 L 280.5 255 Z " /><path fill="rgb(198,218,242)" stroke="rgb(198,218,242)" stroke-width="1" opacity="1" d="M 93.5 264 Q 95.8 263.3 95 265.5 Q 89.7 277.2 88 292.5 L 83.5 297 Q 77.5 303 67.5 305 Q 59.4 303.6 56 297.5 L 56 295.5 L 67.5 284 L 93.5 264 Z " /></svg>