<svg width="512" height="512" version="1.1" xmlns="http://www.w3.org/2000/svg" desc="Created with imagetracer.js version 1.2.6" ><path fill="rgb(88,89,91)" stroke="rgb(88,89,91)" stroke-width="1" opacity="0.3333333333333333" d="M 88.5 10 L 97.5 11 L 125.5 34 L 128.5 34 L 138.5 30 L 162.5 25 L 170.5 25 L 171.5 24 L 210.5 24 L 211.5 25 L 230.5 27 L 255.5 34 L 285.5 10 L 292.5 10 L 295 11 L 297 14.5 L 297 71.5 L 301 88.5 L 301 95.5 L 303 104.5 L 303 114.5 L 304 115.5 L 303 116.5 L 303 130.5 L 297 151.5 Q 288.8 170.3 274 182.5 Q 297.8 220.2 311 268.5 L 317 294.5 L 320 319.5 L 321 320.5 L 323 362.5 L 322 363.5 L 322 379.5 L 321 380.5 L 320 395.5 L 314 420.5 L 311 426.5 L 317.5 429 L 337.5 429 Q 360.9 424.4 374 409.5 Q 382.9 399.9 388 386.5 L 392 371.5 Q 390.8 363.3 393 358.5 L 392 357.5 L 392 347.5 L 389 335.5 L 389 324.5 L 394 314 L 402.5 310 L 411.5 310 Q 428.3 314.7 437 327.5 Q 446.4 339.1 451 355.5 L 453 365.5 L 453 387.5 L 450 401.5 L 443 417.5 Q 433.9 433.4 420.5 445 Q 403 460 378.5 468 L 355.5 473 L 325.5 474 L 324.5 473 L 306.5 472 L 283.5 467 L 280 471.5 L 283 480.5 L 283 488.5 L 280 497 L 266.5 502 L 242.5 502 L 231.5 498 L 227 493.5 L 225 480.5 L 226 476 L 156.5 476 L 156 476.5 L 156 489.5 L 151.5 497 L 138.5 502 L 114.5 502 L 103.5 498 L 100 494.5 L 99 492.5 L 99 476.5 L 101 469 L 90 460.5 Q 78.3 447.7 71 430.5 L 63 404.5 L 61 387.5 L 60 386.5 L 60 377.5 L 59 376.5 L 59 335.5 L 60 334.5 L 60 324.5 L 61 323.5 L 61 315.5 L 62 314.5 L 64 296.5 L 72 262.5 Q 85.5 218 107 181.5 L 102 177.5 Q 89.9 165.6 83 148.5 L 78 128.5 L 78 107.5 L 79 106.5 L 81 84.5 L 84 72.5 L 84 15.5 L 88.5 10 Z M 91 14 L 88 17 L 88 74 L 86 80 L 83 107 L 82 108 L 82 128 L 85 142 Q 91 159 102 172 L 118 184 L 119 188 L 112 184 Q 101 198 94 216 Q 84 238 76 264 L 67 303 L 65 323 L 64 324 L 64 333 L 63 334 L 63 378 L 64 379 L 64 387 L 66 394 L 66 399 L 75 429 Q 82 445 93 458 L 103 466 L 105 466 L 107 460 L 107 452 L 110 452 L 109 465 L 103 478 L 103 492 L 107 495 L 116 498 L 138 498 L 149 494 L 152 489 Q 154 475 150 468 L 150 455 L 152 453 L 153 455 L 153 467 L 154 468 Q 153 472 155 472 L 227 472 L 229 457 L 232 455 L 231 469 L 230 470 L 230 490 L 231 492 L 235 495 L 244 498 L 266 498 L 277 494 L 279 487 L 278 477 L 273 467 L 271 459 L 271 452 L 274 452 L 276 466 L 281 465 Q 300 448 309 422 L 316 395 L 317 382 L 318 381 L 318 369 L 319 368 L 319 345 L 318 344 L 317 321 L 316 320 L 314 301 L 307 270 Q 294 222 271 184 L 265 188 Q 260 189 262 185 L 271 180 Q 293 163 299 130 L 299 106 L 298 105 L 296 84 L 293 73 L 293 17 L 292 14 L 286 15 L 257 39 L 235 32 L 219 29 L 211 29 L 210 28 L 172 28 Q 170 31 164 29 L 140 34 L 127 39 L 124 38 L 95 14 L 91 14 Z M 404 314 L 398 317 L 393 326 L 393 335 L 397 357 L 396 373 L 392 388 L 384 404 L 375 415 L 356 428 L 344 432 L 331 433 L 330 434 Q 325 432 317 433 L 308 431 Q 301 450 287 463 L 289 464 L 302 467 L 314 468 L 315 469 L 326 469 L 327 470 L 355 469 L 378 464 Q 401 456 418 442 Q 431 430 440 415 L 446 401 L 449 387 L 449 367 L 447 357 Q 443 341 434 331 L 421 318 L 410 314 L 404 314 Z " /><path fill="rgb(88,89,91)" stroke="rgb(88,89,91)" stroke-width="1" opacity="0.3333333333333333" d="M 141.5 90 Q 147.3 89.3 148 93.5 L 149 96.5 L 146.5 101 L 140.5 102 Q 135.8 100.8 137 93.5 L 141.5 90 Z " /><path fill="rgb(88,89,91)" stroke="rgb(88,89,91)" stroke-width="1" opacity="0.3333333333333333" d="M 237.5 90 Q 243.3 89.3 244 93.5 L 245 96.5 L 243 101 L 236.5 102 Q 231.7 100.8 233 93.5 L 237.5 90 Z " /><path fill="rgb(88,89,91)" stroke="rgb(88,89,91)" stroke-width="1" opacity="0.3333333333333333" d="M 186.5 101 Q 196.6 99.4 200 104.5 L 200 111.5 L 193.5 120 L 192 120.5 L 192 129.5 L 196.5 135 L 198.5 136 L 208 136 L 206.5 139 Q 194.5 140.5 190.5 134 Q 186.9 140.9 174.5 139 Q 171.5 137.5 174.5 136 Q 184.6 137.6 188 132.5 L 189 130.5 L 189 120 L 184 116.5 L 181 110.5 L 181 105.5 L 182 103 L 186.5 101 Z " /><path fill="rgb(88,89,91)" stroke="rgb(88,89,91)" stroke-width="1" opacity="0.3333333333333333" d="M 123 121 L 155 129 Q 156.8 133.5 151.5 132 L 130.5 126 L 123 122.5 L 123 121 Z " /><path fill="rgb(88,89,91)" stroke="rgb(88,89,91)" stroke-width="1" opacity="0.3333333333333333" d="M 254.5 121 Q 259.8 119.5 258 124 L 226 132 Q 224.3 127.9 228.5 129 L 254.5 121 Z " /><path fill="rgb(88,89,91)" stroke="rgb(88,89,91)" stroke-width="1" opacity="0.3333333333333333" d="M 147.5 142 L 154.5 142 L 155 143.5 L 153.5 145 L 123 149 Q 121.5 145.3 124.5 146 L 147.5 142 Z " /><path fill="rgb(88,89,91)" stroke="rgb(88,89,91)" stroke-width="1" opacity="0.3333333333333333" d="M 226 142 L 241.5 143 L 258 146 Q 259.7 150.1 255.5 149 L 254.5 148 L 227.5 145 L 226 143.5 L 226 142 Z " /><path fill="rgb(88,89,91)" stroke="rgb(88,89,91)" stroke-width="1" opacity="0.3333333333333333" d="M 105.5 200 L 186.5 200 L 193.5 206 L 204.5 206 L 215.5 214 L 232.5 200 L 275.5 200 Q 278.5 201.5 277 207.5 L 271 230.5 L 261 248.5 L 270.5 258 L 299 280 Q 300.7 284.1 296.5 283 L 255 247.5 L 247.5 238 Q 245.2 234.8 238.5 236 L 225 246.5 Q 219.5 251.5 218 260.5 L 225.5 268 L 231.5 271 L 234.5 271 L 241.5 276 L 257 290.5 L 271 308.5 L 268 310 Q 256.7 292.7 240.5 279 L 233.5 274 L 230.5 274 L 223.5 278 L 211.5 282 L 200.5 283 L 199.5 284 L 181.5 284 L 166.5 281 L 150.5 274 L 147.5 274 L 125 294.5 L 112.5 310 L 110 308.5 Q 122.5 291 138.5 277 L 146.5 271 Q 156 269.4 161 263.5 Q 163.6 262.1 163 257.5 Q 158.5 246.5 149.5 240 L 142.5 236 L 136.5 236 L 115.5 258 L 84.5 283 L 82 283 L 88.5 275 L 120 249.5 L 108 224.5 L 104 201.5 L 105.5 200 Z M 108 203 L 108 211 L 111 224 L 121 244 L 124 245 L 130 238 L 121 221 L 118 205 L 117 203 L 108 203 Z M 123 203 L 121 205 Q 123 224 133 235 L 140 232 L 151 237 L 165 254 L 166 263 L 181 267 L 201 267 L 216 263 L 215 261 Q 216 251 221 247 Q 228 236 241 232 L 250 235 Q 257 224 260 208 Q 261 204 259 203 L 235 203 L 216 218 L 214 218 L 205 210 L 194 210 L 185 203 L 123 203 Z M 265 203 L 263 205 L 263 210 L 260 222 L 252 237 L 252 239 L 259 246 Q 271 230 274 205 L 273 203 L 265 203 Z M 164 265 L 155 273 L 168 278 L 184 281 L 206 280 L 227 273 L 218 265 L 208 269 L 192 270 L 191 271 L 190 270 L 175 269 L 164 265 Z " /><path fill="rgb(88,89,91)" stroke="rgb(88,89,91)" stroke-width="1" opacity="0.3333333333333333" d="M 154 217 L 157 217 L 157 223.5 Q 155.5 226.5 154 223.5 L 154 217 Z " /><path fill="rgb(88,89,91)" stroke="rgb(88,89,91)" stroke-width="1" opacity="0.3333333333333333" d="M 178.5 217 L 181 218.5 Q 182.3 223.8 179.5 225 Q 177.3 225.8 178 223.5 L 177 218.5 L 178.5 217 Z " /><path fill="rgb(88,89,91)" stroke="rgb(88,89,91)" stroke-width="1" opacity="0.3333333333333333" d="M 201 217 L 204 217 L 204 223.5 Q 202.5 226.5 201 223.5 L 201 217 Z " /><path fill="rgb(88,89,91)" stroke="rgb(88,89,91)" stroke-width="1" opacity="0.3333333333333333" d="M 224 217 L 227 217 L 227 223.5 Q 225.5 226.5 224 223.5 L 224 217 Z " /><path fill="rgb(88,89,91)" stroke="rgb(88,89,91)" stroke-width="1" opacity="0.3333333333333333" d="M 165.5 235 L 167 235.5 L 167 243 L 164 241.5 Q 162.8 236.3 165.5 235 Z " /><path fill="rgb(88,89,91)" stroke="rgb(88,89,91)" stroke-width="1" opacity="0.3333333333333333" d="M 189 235 L 192 236.5 Q 193.3 241.8 190.5 243 L 189 242.5 L 189 235 Z " /><path fill="rgb(88,89,91)" stroke="rgb(88,89,91)" stroke-width="1" opacity="0.3333333333333333" d="M 213 235 L 216 235 L 216 243 L 213 241.5 L 213 235 Z " /><path fill="rgb(0,0,0)" stroke="rgb(0,0,0)" stroke-width="1" opacity="0" d="M 0 0 L 512 0 L 512 512 L 0 512 L 0 0 Z M 89 10 L 84 16 L 84 73 L 81 85 L 79 107 L 78 108 L 78 129 L 83 149 Q 90 166 102 178 L 107 182 Q 85 218 72 263 L 64 297 L 62 315 L 61 316 L 61 324 L 60 325 L 60 335 L 59 336 L 59 377 L 60 378 L 60 387 L 61 388 L 63 405 L 71 431 Q 78 448 90 461 L 101 469 L 99 477 L 99 493 L 100 495 L 104 498 L 115 502 L 139 502 L 152 497 L 156 490 L 156 477 L 157 476 L 226 476 L 225 481 L 227 494 L 232 498 L 243 502 L 267 502 L 280 497 L 283 489 L 283 481 L 280 472 L 284 467 L 307 472 L 325 473 L 326 474 L 356 473 L 379 468 Q 403 460 421 445 Q 434 433 443 418 L 450 402 L 453 388 L 453 366 L 451 356 Q 446 339 437 328 Q 428 315 412 310 L 403 310 L 394 314 L 389 325 L 389 336 L 392 348 L 392 358 L 393 359 Q 391 363 392 372 L 388 387 Q 383 400 374 410 Q 361 424 338 429 L 318 429 L 311 427 L 314 421 L 320 396 L 321 381 L 322 380 L 322 364 L 323 363 L 321 321 L 320 320 L 317 295 L 311 269 Q 298 220 274 183 Q 289 170 297 152 L 303 131 L 303 117 L 304 116 L 303 115 L 303 105 L 301 96 L 301 89 L 297 72 L 297 15 L 295 11 L 293 10 L 286 10 L 256 34 L 231 27 L 212 25 L 211 24 L 172 24 L 171 25 L 163 25 L 139 30 L 129 34 L 126 34 L 98 11 L 89 10 Z " /><path fill="rgb(172,158,156)" stroke="rgb(172,158,156)" stroke-width="1" opacity="0.996078431372549" d="M 90.5 14 L 89 16.5 L 88.5 73 L 88 16.5 L 90.5 14 Z " /><path fill="rgb(172,158,156)" stroke="rgb(172,158,156)" stroke-width="1" opacity="0.996078431372549" d="M 93.5 14 L 98 17.5 L 94.5 15 L 93.5 14 Z " /><path fill="rgb(172,158,156)" stroke="rgb(172,158,156)" stroke-width="1" opacity="0.996078431372549" d="M 285.5 15 L 281.5 20 L 257.5 39 L 260.5 35 L 285.5 15 Z " /><path fill="rgb(172,158,156)" stroke="rgb(172,158,156)" stroke-width="1" opacity="0.996078431372549" d="M 292.5 16 L 293 70.5 L 292 70.5 L 292.5 16 Z " /><path fill="rgb(172,158,156)" stroke="rgb(172,158,156)" stroke-width="1" opacity="0.996078431372549" d="M 99.5 18 L 102.5 22 L 99.5 18 Z " /><path fill="rgb(172,158,156)" stroke="rgb(172,158,156)" stroke-width="1" opacity="0.996078431372549" d="M 104.5 22 L 107.5 26 L 104.5 22 Z " /><path fill="rgb(172,158,156)" stroke="rgb(172,158,156)" stroke-width="1" opacity="0.996078431372549" d="M 109.5 26 L 112.5 30 L 109.5 26 Z " /><path fill="rgb(172,158,156)" stroke="rgb(172,158,156)" stroke-width="1" opacity="0.996078431372549" d="M 171.5 28 L 186 28.5 L 171.5 29 L 171.5 28 Z " /><path fill="rgb(172,158,156)" stroke="rgb(172,158,156)" stroke-width="1" opacity="0.996078431372549" d="M 195.5 28 L 210 28.5 L 195.5 29 L 195.5 28 Z " /><path fill="rgb(172,158,156)" stroke="rgb(172,158,156)" stroke-width="1" opacity="0.996078431372549" d="M 163.5 29 L 168 29.5 L 163.5 30 L 163.5 29 Z " /><path fill="rgb(172,158,156)" stroke="rgb(172,158,156)" stroke-width="1" opacity="0.996078431372549" d="M 213.5 29 L 219 29.5 L 213.5 30 L 213.5 29 Z " /><path fill="rgb(172,158,156)" stroke="rgb(172,158,156)" stroke-width="1" opacity="0.996078431372549" d="M 114.5 30 L 117.5 34 L 114.5 30 Z " /><path fill="rgb(172,158,156)" stroke="rgb(172,158,156)" stroke-width="1" opacity="0.996078431372549" d="M 156.5 30 L 161 30.5 L 156.5 31 L 156.5 30 Z " /><path fill="rgb(172,158,156)" stroke="rgb(172,158,156)" stroke-width="1" opacity="0.996078431372549" d="M 221.5 30 L 225 30.5 L 221.5 31 L 221.5 30 Z " /><path fill="rgb(172,158,156)" stroke="rgb(172,158,156)" stroke-width="1" opacity="0.996078431372549" d="M 151.5 31 L 155 31.5 L 151.5 32 L 151.5 31 Z " /><path fill="rgb(172,158,156)" stroke="rgb(172,158,156)" stroke-width="1" opacity="0.996078431372549" d="M 227.5 31 L 230 31.5 L 227.5 32 L 227.5 31 Z " /><path fill="rgb(172,158,156)" stroke="rgb(172,158,156)" stroke-width="1" opacity="0.996078431372549" d="M 147.5 32 L 150 32.5 L 147.5 33 L 147.5 32 Z " /><path fill="rgb(172,158,156)" stroke="rgb(172,158,156)" stroke-width="1" opacity="0.996078431372549" d="M 232.5 32 L 235 32.5 L 232.5 33 L 232.5 32 Z " /><path fill="rgb(172,158,156)" stroke="rgb(172,158,156)" stroke-width="1" opacity="0.996078431372549" d="M 143.5 33 L 146 33.5 L 143.5 34 L 143.5 33 Z " /><path fill="rgb(172,158,156)" stroke="rgb(172,158,156)" stroke-width="1" opacity="0.996078431372549" d="M 236.5 33 L 239 33.5 L 236.5 34 L 236.5 33 Z " /><path fill="rgb(172,158,156)" stroke="rgb(172,158,156)" stroke-width="1" opacity="0.996078431372549" d="M 119.5 34 L 122.5 38 L 119.5 34 Z " /><path fill="rgb(172,158,156)" stroke="rgb(172,158,156)" stroke-width="1" opacity="0.996078431372549" d="M 139.5 34 L 142 34.5 L 139.5 35 L 139.5 34 Z " /><path fill="rgb(172,158,156)" stroke="rgb(172,158,156)" stroke-width="1" opacity="0.996078431372549" d="M 243.5 35 L 249 36.5 L 246.5 37 L 243.5 36 L 243.5 35 Z " /><path fill="rgb(172,158,156)" stroke="rgb(172,158,156)" stroke-width="1" opacity="0.996078431372549" d="M 250.5 37 L 254 38.5 L 252.5 39 L 250.5 37 Z " /><path fill="rgb(172,158,156)" stroke="rgb(172,158,156)" stroke-width="1" opacity="0.996078431372549" d="M 293.5 73 L 294 75.5 L 293 75.5 L 293.5 73 Z " /><path fill="rgb(172,158,156)" stroke="rgb(172,158,156)" stroke-width="1" opacity="0.996078431372549" d="M 87.5 74 L 88 77.5 L 87 77.5 L 87.5 74 Z " /><path fill="rgb(172,158,156)" stroke="rgb(172,158,156)" stroke-width="1" opacity="0.996078431372549" d="M 294.5 78 L 295 81.5 L 294 81.5 L 294.5 78 Z " /><path fill="rgb(172,158,156)" stroke="rgb(172,158,156)" stroke-width="1" opacity="0.996078431372549" d="M 86.5 79 L 87 82.5 L 86 82.5 L 86.5 79 Z " /><path fill="rgb(172,158,156)" stroke="rgb(172,158,156)" stroke-width="1" opacity="0.996078431372549" d="M 295.5 83 L 296 87.5 L 295 87.5 L 295.5 83 Z " /><path fill="rgb(172,158,156)" stroke="rgb(172,158,156)" stroke-width="1" opacity="0.996078431372549" d="M 85.5 85 L 86 88.5 L 85 88.5 L 85.5 85 Z " /><path fill="rgb(172,158,156)" stroke="rgb(172,158,156)" stroke-width="1" opacity="0.996078431372549" d="M 296.5 89 L 297 93.5 L 296 93.5 L 296.5 89 Z " /><path fill="rgb(172,158,156)" stroke="rgb(172,158,156)" stroke-width="1" opacity="0.996078431372549" d="M 139.5 90 L 141 90.5 L 137.5 93 L 139.5 90 Z " /><path fill="rgb(172,158,156)" stroke="rgb(172,158,156)" stroke-width="1" opacity="0.996078431372549" d="M 145.5 90 L 149 94.5 L 148 94.5 L 145.5 90 Z " /><path fill="rgb(172,158,156)" stroke="rgb(172,158,156)" stroke-width="1" opacity="0.996078431372549" d="M 235.5 90 L 237 90.5 L 233.5 93 L 235.5 90 Z " /><path fill="rgb(172,158,156)" stroke="rgb(172,158,156)" stroke-width="1" opacity="0.996078431372549" d="M 241.5 90 L 245 94.5 L 244 94.5 L 241.5 90 Z " /><path fill="rgb(172,158,156)" stroke="rgb(172,158,156)" stroke-width="1" opacity="0.996078431372549" d="M 84.5 92 L 85 95.5 L 84 95.5 L 84.5 92 Z " /><path fill="rgb(172,158,156)" stroke="rgb(172,158,156)" stroke-width="1" opacity="0.996078431372549" d="M 136.5 94 L 137 97.5 L 136 97.5 L 136.5 94 Z " /><path fill="rgb(172,158,156)" stroke="rgb(172,158,156)" stroke-width="1" opacity="0.996078431372549" d="M 232.5 94 Q 232.1 100 236 101.5 L 232 98.5 L 232.5 94 Z " /><path fill="rgb(172,158,156)" stroke="rgb(172,158,156)" stroke-width="1" opacity="0.996078431372549" d="M 297.5 96 L 298 101.5 L 297 101.5 L 297.5 96 Z " /><path fill="rgb(172,158,156)" stroke="rgb(172,158,156)" stroke-width="1" opacity="0.996078431372549" d="M 244.5 97 L 245 98.5 L 243 99.5 L 244.5 97 Z " /><path fill="rgb(172,158,156)" stroke="rgb(172,158,156)" stroke-width="1" opacity="0.996078431372549" d="M 83.5 99 L 84 104.5 L 83 104.5 L 83.5 99 Z " /><path fill="rgb(172,158,156)" stroke="rgb(172,158,156)" stroke-width="1" opacity="0.996078431372549" d="M 137.5 99 L 139.5 102 L 137.5 99 Z " /><path fill="rgb(172,158,156)" stroke="rgb(172,158,156)" stroke-width="1" opacity="0.996078431372549" d="M 184.5 101 L 186 101.5 L 182 103 L 181.5 105 L 181 103.5 L 184.5 101 Z " /><path fill="rgb(172,158,156)" stroke="rgb(172,158,156)" stroke-width="1" opacity="0.996078431372549" d="M 141.5 102 L 144 102.5 L 141.5 103 L 141.5 102 Z " /><path fill="rgb(172,158,156)" stroke="rgb(172,158,156)" stroke-width="1" opacity="0.996078431372549" d="M 198.5 102 Q 202.5 103.5 201 110.5 L 200 110.5 Q 200.9 103.5 198.5 102 Z " /><path fill="rgb(172,158,156)" stroke="rgb(172,158,156)" stroke-width="1" opacity="0.996078431372549" d="M 237.5 102 L 240 102.5 L 237.5 103 L 237.5 102 Z " /><path fill="rgb(172,158,156)" stroke="rgb(172,158,156)" stroke-width="1" opacity="0.996078431372549" d="M 298.5 105 L 299 111.5 L 298 111.5 L 298.5 105 Z " /><path fill="rgb(172,158,156)" stroke="rgb(172,158,156)" stroke-width="1" opacity="0.996078431372549" d="M 180.5 106 L 181 108.5 L 180 108.5 L 180.5 106 Z " /><path fill="rgb(172,158,156)" stroke="rgb(172,158,156)" stroke-width="1" opacity="0.996078431372549" d="M 82.5 107 L 83 127.5 L 82 127.5 L 82.5 107 Z " /><path fill="rgb(172,158,156)" stroke="rgb(172,158,156)" stroke-width="1" opacity="0.996078431372549" d="M 181.5 111 L 187 119.5 L 183 116.5 L 181.5 111 Z " /><path fill="rgb(172,158,156)" stroke="rgb(172,158,156)" stroke-width="1" opacity="0.996078431372549" d="M 199.5 112 L 200 113.5 L 193 121.5 L 192.5 130 L 192 120 L 198 115.5 L 199.5 112 Z " /><path fill="rgb(172,158,156)" stroke="rgb(172,158,156)" stroke-width="1" opacity="0.996078431372549" d="M 123.5 120 L 126 120.5 L 123 121 L 124.5 124 L 127 124.5 L 124.5 125 L 122 121.5 L 123.5 120 Z " /><path fill="rgb(172,158,156)" stroke="rgb(172,158,156)" stroke-width="1" opacity="0.996078431372549" d="M 188.5 120 L 189 130.5 L 186.5 134 L 187 132.5 L 188.5 120 Z " /><path fill="rgb(172,158,156)" stroke="rgb(172,158,156)" stroke-width="1" opacity="0.996078431372549" d="M 255.5 120 L 259 121.5 L 258.5 124 L 258 121 Q 254.7 121.8 255.5 120 Z " /><path fill="rgb(172,158,156)" stroke="rgb(172,158,156)" stroke-width="1" opacity="0.996078431372549" d="M 127.5 121 L 130 121.5 L 127.5 122 L 127.5 121 Z " /><path fill="rgb(172,158,156)" stroke="rgb(172,158,156)" stroke-width="1" opacity="0.996078431372549" d="M 251.5 121 L 254 121.5 L 251.5 122 L 251.5 121 Z " /><path fill="rgb(172,158,156)" stroke="rgb(172,158,156)" stroke-width="1" opacity="0.996078431372549" d="M 134.5 123 L 137 123.5 L 134.5 124 L 134.5 123 Z " /><path fill="rgb(172,158,156)" stroke="rgb(172,158,156)" stroke-width="1" opacity="0.996078431372549" d="M 244.5 123 L 247 123.5 L 244.5 124 L 244.5 123 Z " /><path fill="rgb(172,158,156)" stroke="rgb(172,158,156)" stroke-width="1" opacity="0.996078431372549" d="M 298.5 124 L 299 129.5 L 298 129.5 L 298.5 124 Z " /><path fill="rgb(172,158,156)" stroke="rgb(172,158,156)" stroke-width="1" opacity="0.996078431372549" d="M 141.5 125 L 144 125.5 L 141.5 126 L 141.5 125 Z " /><path fill="rgb(172,158,156)" stroke="rgb(172,158,156)" stroke-width="1" opacity="0.996078431372549" d="M 251.5 125 L 254 125.5 L 251.5 126 L 251.5 125 Z " /><path fill="rgb(172,158,156)" stroke="rgb(172,158,156)" stroke-width="1" opacity="0.996078431372549" d="M 131.5 126 L 134 126.5 L 131.5 127 L 131.5 126 Z " /><path fill="rgb(172,158,156)" stroke="rgb(172,158,156)" stroke-width="1" opacity="0.996078431372549" d="M 145.5 126 L 151 127.5 L 148.5 128 L 145.5 127 L 145.5 126 Z " /><path fill="rgb(172,158,156)" stroke="rgb(172,158,156)" stroke-width="1" opacity="0.996078431372549" d="M 244.5 127 L 247 127.5 L 244.5 128 L 244.5 127 Z " /><path fill="rgb(172,158,156)" stroke="rgb(172,158,156)" stroke-width="1" opacity="0.996078431372549" d="M 138.5 128 L 141 128.5 L 138.5 129 L 138.5 128 Z " /><path fill="rgb(172,158,156)" stroke="rgb(172,158,156)" stroke-width="1" opacity="0.996078431372549" d="M 155.5 129 L 156 131.5 L 152.5 133 L 152.5 132 Q 156.5 133.1 155.5 129 Z " /><path fill="rgb(172,158,156)" stroke="rgb(172,158,156)" stroke-width="1" opacity="0.996078431372549" d="M 237.5 129 L 240 129.5 L 237.5 130 L 237.5 129 Z " /><path fill="rgb(172,158,156)" stroke="rgb(172,158,156)" stroke-width="1" opacity="0.996078431372549" d="M 83.5 130 L 84 133.5 L 83 133.5 L 83.5 130 Z " /><path fill="rgb(172,158,156)" stroke="rgb(172,158,156)" stroke-width="1" opacity="0.996078431372549" d="M 145.5 130 L 148 130.5 L 145.5 131 L 145.5 130 Z " /><path fill="rgb(172,158,156)" stroke="rgb(172,158,156)" stroke-width="1" opacity="0.996078431372549" d="M 225.5 130 L 226 132 L 229 132.5 L 226.5 133 L 225.5 130 Z " /><path fill="rgb(172,158,156)" stroke="rgb(172,158,156)" stroke-width="1" opacity="0.996078431372549" d="M 193.5 131 L 196.5 135 L 193.5 131 Z " /><path fill="rgb(172,158,156)" stroke="rgb(172,158,156)" stroke-width="1" opacity="0.996078431372549" d="M 230.5 131 L 233 131.5 L 230.5 132 L 230.5 131 Z " /><path fill="rgb(172,158,156)" stroke="rgb(172,158,156)" stroke-width="1" opacity="0.996078431372549" d="M 297.5 132 L 298 134.5 L 297 134.5 L 297.5 132 Z " /><path fill="rgb(172,158,156)" stroke="rgb(172,158,156)" stroke-width="1" opacity="0.996078431372549" d="M 190.5 134 L 192.5 137 Q 190 132.5 187.5 138 L 184.5 139 L 184.5 138 L 190.5 134 Z " /><path fill="rgb(172,158,156)" stroke="rgb(172,158,156)" stroke-width="1" opacity="0.996078431372549" d="M 84.5 135 L 85 137.5 L 84 137.5 L 84.5 135 Z " /><path fill="rgb(172,158,156)" stroke="rgb(172,158,156)" stroke-width="1" opacity="0.996078431372549" d="M 174.5 135 L 183 135.5 L 174.5 136 L 173.5 137 L 174.5 135 Z " /><path fill="rgb(172,158,156)" stroke="rgb(172,158,156)" stroke-width="1" opacity="0.996078431372549" d="M 198.5 135 L 208 135.5 L 198.5 136 L 198.5 135 Z " /><path fill="rgb(172,158,156)" stroke="rgb(172,158,156)" stroke-width="1" opacity="0.996078431372549" d="M 194.5 137 L 198 138.5 L 195.5 139 L 194.5 137 Z " /><path fill="rgb(172,158,156)" stroke="rgb(172,158,156)" stroke-width="1" opacity="0.996078431372549" d="M 208.5 137 L 207.5 139 L 208.5 137 Z " /><path fill="rgb(172,158,156)" stroke="rgb(172,158,156)" stroke-width="1" opacity="0.996078431372549" d="M 85.5 139 L 86 141.5 L 85 141.5 L 85.5 139 Z " /><path fill="rgb(172,158,156)" stroke="rgb(172,158,156)" stroke-width="1" opacity="0.996078431372549" d="M 175.5 139 L 181 139.5 L 175.5 140 L 175.5 139 Z " /><path fill="rgb(172,158,156)" stroke="rgb(172,158,156)" stroke-width="1" opacity="0.996078431372549" d="M 200.5 139 L 206 139.5 L 200.5 140 L 200.5 139 Z " /><path fill="rgb(172,158,156)" stroke="rgb(172,158,156)" stroke-width="1" opacity="0.996078431372549" d="M 295.5 140 L 296 142.5 L 295 142.5 L 295.5 140 Z " /><path fill="rgb(172,158,156)" stroke="rgb(172,158,156)" stroke-width="1" opacity="0.996078431372549" d="M 149.5 141 Q 154.8 139.8 156 142.5 Q 157.1 145.8 154.5 145 L 155 143.5 Q 155.6 140.8 149.5 142 L 149.5 141 Z " /><path fill="rgb(172,158,156)" stroke="rgb(172,158,156)" stroke-width="1" opacity="0.996078431372549" d="M 226.5 141 L 232 141.5 L 226 142 L 227 144.5 L 225 143.5 L 226.5 141 Z " /><path fill="rgb(172,158,156)" stroke="rgb(172,158,156)" stroke-width="1" opacity="0.996078431372549" d="M 142.5 142 L 147 142.5 L 142.5 143 L 142.5 142 Z " /><path fill="rgb(172,158,156)" stroke="rgb(172,158,156)" stroke-width="1" opacity="0.996078431372549" d="M 234.5 142 L 239 142.5 L 234.5 143 L 234.5 142 Z " /><path fill="rgb(172,158,156)" stroke="rgb(172,158,156)" stroke-width="1" opacity="0.996078431372549" d="M 86.5 143 L 88 146.5 L 87 146.5 L 86.5 143 Z " /><path fill="rgb(172,158,156)" stroke="rgb(172,158,156)" stroke-width="1" opacity="0.996078431372549" d="M 135.5 143 L 140 143.5 L 135.5 144 L 135.5 143 Z " /><path fill="rgb(172,158,156)" stroke="rgb(172,158,156)" stroke-width="1" opacity="0.996078431372549" d="M 242.5 143 L 246 143.5 L 242.5 144 L 242.5 143 Z " /><path fill="rgb(172,158,156)" stroke="rgb(172,158,156)" stroke-width="1" opacity="0.996078431372549" d="M 128.5 144 L 133 144.5 L 128.5 145 L 128.5 144 Z " /><path fill="rgb(172,158,156)" stroke="rgb(172,158,156)" stroke-width="1" opacity="0.996078431372549" d="M 249.5 144 L 254 144.5 L 249.5 145 L 249.5 144 Z " /><path fill="rgb(172,158,156)" stroke="rgb(172,158,156)" stroke-width="1" opacity="0.996078431372549" d="M 294.5 144 L 295 145.5 L 293.5 148 L 293 146.5 L 294.5 144 Z " /><path fill="rgb(172,158,156)" stroke="rgb(172,158,156)" stroke-width="1" opacity="0.996078431372549" d="M 123.5 145 L 125 145.5 L 123 146 L 122.5 148 L 122 146.5 L 123.5 145 Z " /><path fill="rgb(172,158,156)" stroke="rgb(172,158,156)" stroke-width="1" opacity="0.996078431372549" d="M 148.5 145 L 153 145.5 L 148.5 146 L 148.5 145 Z " /><path fill="rgb(172,158,156)" stroke="rgb(172,158,156)" stroke-width="1" opacity="0.996078431372549" d="M 228.5 145 L 233 145.5 L 228.5 146 L 228.5 145 Z " /><path fill="rgb(172,158,156)" stroke="rgb(172,158,156)" stroke-width="1" opacity="0.996078431372549" d="M 256.5 145 L 259 146.5 L 258.5 149 L 258 146 L 256.5 145 Z " /><path fill="rgb(172,158,156)" stroke="rgb(172,158,156)" stroke-width="1" opacity="0.996078431372549" d="M 141.5 146 L 146 146.5 L 141.5 147 L 141.5 146 Z " /><path fill="rgb(172,158,156)" stroke="rgb(172,158,156)" stroke-width="1" opacity="0.996078431372549" d="M 236.5 146 L 240 146.5 L 236.5 147 L 236.5 146 Z " /><path fill="rgb(172,158,156)" stroke="rgb(172,158,156)" stroke-width="1" opacity="0.996078431372549" d="M 134.5 147 L 139 147.5 L 134.5 148 L 134.5 147 Z " /><path fill="rgb(172,158,156)" stroke="rgb(172,158,156)" stroke-width="1" opacity="0.996078431372549" d="M 243.5 147 L 248 147.5 L 243.5 148 L 243.5 147 Z " /><path fill="rgb(172,158,156)" stroke="rgb(172,158,156)" stroke-width="1" opacity="0.996078431372549" d="M 88.5 148 L 90 151.5 L 89 151.5 L 88.5 148 Z " /><path fill="rgb(172,158,156)" stroke="rgb(172,158,156)" stroke-width="1" opacity="0.996078431372549" d="M 127.5 148 L 132 148.5 L 127.5 149 L 127.5 148 Z " /><path fill="rgb(172,158,156)" stroke="rgb(172,158,156)" stroke-width="1" opacity="0.996078431372549" d="M 250.5 148 L 255 148.5 L 250.5 149 L 250.5 148 Z " /><path fill="rgb(172,158,156)" stroke="rgb(172,158,156)" stroke-width="1" opacity="0.996078431372549" d="M 292.5 149 L 293 150.5 L 288.5 158 L 289 156.5 L 292.5 149 Z " /><path fill="rgb(172,158,156)" stroke="rgb(172,158,156)" stroke-width="1" opacity="0.996078431372549" d="M 90.5 153 L 94 158.5 L 92 157.5 L 90.5 153 Z " /><path fill="rgb(172,158,156)" stroke="rgb(172,158,156)" stroke-width="1" opacity="0.996078431372549" d="M 287.5 159 L 287 160.5 L 284.5 164 L 286 161.5 L 287.5 159 Z " /><path fill="rgb(172,158,156)" stroke="rgb(172,158,156)" stroke-width="1" opacity="0.996078431372549" d="M 94.5 160 L 98 164.5 L 95 162.5 L 94.5 160 Z " /><path fill="rgb(172,158,156)" stroke="rgb(172,158,156)" stroke-width="1" opacity="0.996078431372549" d="M 283.5 165 L 281.5 168 L 283.5 165 Z " /><path fill="rgb(172,158,156)" stroke="rgb(172,158,156)" stroke-width="1" opacity="0.996078431372549" d="M 98.5 166 L 101.5 170 L 98.5 166 Z " /><path fill="rgb(172,158,156)" stroke="rgb(172,158,156)" stroke-width="1" opacity="0.996078431372549" d="M 280.5 169 L 270.5 180 L 263.5 185 L 265.5 182 Q 274.8 177.2 280.5 169 Z " /><path fill="rgb(172,158,156)" stroke="rgb(172,158,156)" stroke-width="1" opacity="0.996078431372549" d="M 102.5 171 L 107.5 177 L 102.5 171 Z " /><path fill="rgb(172,158,156)" stroke="rgb(172,158,156)" stroke-width="1" opacity="0.996078431372549" d="M 109.5 177 L 113.5 182 L 109.5 177 Z " /><path fill="rgb(172,158,156)" stroke="rgb(172,158,156)" stroke-width="1" opacity="0.996078431372549" d="M 115.5 182 L 116.5 184 L 115.5 182 Z " /><path fill="rgb(172,158,156)" stroke="rgb(172,158,156)" stroke-width="1" opacity="0.996078431372549" d="M 111.5 184 L 119 188 L 118 184.5 L 120 185.5 L 118.5 189 L 111.5 185 L 110 185.5 L 111.5 184 Z " /><path fill="rgb(172,158,156)" stroke="rgb(172,158,156)" stroke-width="1" opacity="0.996078431372549" d="M 269.5 184 Q 271.8 183.3 271 185.5 L 271.5 187 Q 269.8 183.9 268 185.5 L 269.5 184 Z " /><path fill="rgb(172,158,156)" stroke="rgb(172,158,156)" stroke-width="1" opacity="0.996078431372549" d="M 261.5 185 L 262 188 L 264 188.5 L 262.5 189 Q 260 188 261.5 185 Z " /><path fill="rgb(172,158,156)" stroke="rgb(172,158,156)" stroke-width="1" opacity="0.996078431372549" d="M 266.5 186 L 265.5 188 L 266.5 186 Z " /><path fill="rgb(172,158,156)" stroke="rgb(172,158,156)" stroke-width="1" opacity="0.996078431372549" d="M 109.5 187 L 109 188.5 L 107.5 191 L 108 189.5 L 109.5 187 Z " /><path fill="rgb(172,158,156)" stroke="rgb(172,158,156)" stroke-width="1" opacity="0.996078431372549" d="M 272.5 188 L 276 193.5 L 274 192.5 L 272.5 188 Z " /><path fill="rgb(172,158,156)" stroke="rgb(172,158,156)" stroke-width="1" opacity="0.996078431372549" d="M 105.5 194 L 105 195.5 L 94.5 217 L 94 215.5 L 105.5 194 Z " /><path fill="rgb(172,158,156)" stroke="rgb(172,158,156)" stroke-width="1" opacity="0.996078431372549" d="M 278.5 199 L 285 211.5 L 284 211.5 L 278.5 199 Z " /><path fill="rgb(172,158,156)" stroke="rgb(172,158,156)" stroke-width="1" opacity="0.996078431372549" d="M 187.5 200 L 189.5 203 L 187.5 200 Z " /><path fill="rgb(172,158,156)" stroke="rgb(172,158,156)" stroke-width="1" opacity="0.996078431372549" d="M 276.5 200 L 278 203.5 L 277 203.5 L 276.5 200 Z " /><path fill="rgb(172,158,156)" stroke="rgb(172,158,156)" stroke-width="1" opacity="0.996078431372549" d="M 228.5 202 L 226.5 205 L 228.5 202 Z " /><path fill="rgb(172,158,156)" stroke="rgb(172,158,156)" stroke-width="1" opacity="0.996078431372549" d="M 108 203 L 116.5 203 L 118 204.5 L 121 220.5 L 130 237.5 L 123.5 245 L 121 243.5 L 111 223.5 L 108 210.5 L 108 203 Z " /><path fill="rgb(172,158,156)" stroke="rgb(172,158,156)" stroke-width="1" opacity="0.996078431372549" d="M 122.5 203 L 184.5 203 L 193.5 210 L 204.5 210 L 213.5 218 L 215.5 218 L 234.5 203 L 258.5 203 Q 260.8 203.8 260 207.5 Q 257 223.8 250 235 L 240.5 232 Q 227.9 236.4 221 246.5 Q 215.6 251.1 215 260.5 L 216 263 L 200.5 267 L 180.5 267 L 166 263 L 165 253.5 L 150.5 237 L 139.5 232 L 132.5 235 Q 122.8 223.7 121 204.5 L 122.5 203 Z M 154 217 L 154 224 Q 156 227 157 224 L 157 217 L 154 217 Z M 179 217 L 177 219 L 178 224 Q 177 226 180 225 Q 182 224 181 219 L 179 217 Z M 201 217 L 201 224 Q 203 227 204 224 L 204 217 L 201 217 Z M 224 217 L 224 224 Q 226 227 227 224 L 227 217 L 224 217 Z M 166 235 Q 163 236 164 242 L 167 243 L 167 236 L 166 235 Z M 189 235 L 189 243 L 191 243 Q 193 242 192 237 L 189 235 Z M 213 235 L 213 242 L 216 243 L 216 235 L 213 235 Z " /><path fill="rgb(172,158,156)" stroke="rgb(172,158,156)" stroke-width="1" opacity="0.996078431372549" d="M 264.5 203 L 272.5 203 L 274 204.5 Q 271.1 230.1 258.5 246 L 252 238.5 L 252 236.5 L 260 221.5 L 263 209.5 L 263 204.5 L 264.5 203 Z " /><path fill="rgb(172,158,156)" stroke="rgb(172,158,156)" stroke-width="1" opacity="0.996078431372549" d="M 104.5 204 L 105 210.5 L 104 210.5 L 104.5 204 Z " /><path fill="rgb(172,158,156)" stroke="rgb(172,158,156)" stroke-width="1" opacity="0.996078431372549" d="M 192.5 204 L 193.5 206 L 192.5 204 Z " /><path fill="rgb(172,158,156)" stroke="rgb(172,158,156)" stroke-width="1" opacity="0.996078431372549" d="M 205.5 206 L 211 210.5 L 206.5 207 L 205.5 206 Z " /><path fill="rgb(172,158,156)" stroke="rgb(172,158,156)" stroke-width="1" opacity="0.996078431372549" d="M 223.5 206 L 221.5 209 L 223.5 206 Z " /><path fill="rgb(172,158,156)" stroke="rgb(172,158,156)" stroke-width="1" opacity="0.996078431372549" d="M 276.5 208 L 277 211.5 L 276 211.5 L 276.5 208 Z " /><path fill="rgb(172,158,156)" stroke="rgb(172,158,156)" stroke-width="1" opacity="0.996078431372549" d="M 218.5 210 L 215.5 214 L 213 212.5 L 214.5 213 L 218.5 210 Z " /><path fill="rgb(172,158,156)" stroke="rgb(172,158,156)" stroke-width="1" opacity="0.996078431372549" d="M 105.5 212 L 106 215.5 L 105 215.5 L 105.5 212 Z " /><path fill="rgb(172,158,156)" stroke="rgb(172,158,156)" stroke-width="1" opacity="0.996078431372549" d="M 275.5 214 L 276 216.5 L 275 216.5 L 275.5 214 Z " /><path fill="rgb(172,158,156)" stroke="rgb(172,158,156)" stroke-width="1" opacity="0.996078431372549" d="M 106.5 217 L 107 219.5 L 106 219.5 L 106.5 217 Z " /><path fill="rgb(172,158,156)" stroke="rgb(172,158,156)" stroke-width="1" opacity="0.996078431372549" d="M 287.5 217 L 290 222.5 L 289 222.5 L 287.5 217 Z " /><path fill="rgb(172,158,156)" stroke="rgb(172,158,156)" stroke-width="1" opacity="0.996078431372549" d="M 107.5 221 L 108 223.5 L 107 223.5 L 107.5 221 Z " /><path fill="rgb(172,158,156)" stroke="rgb(172,158,156)" stroke-width="1" opacity="0.996078431372549" d="M 91.5 222 L 92 223.5 L 90.5 226 L 90 224.5 L 91.5 222 Z " /><path fill="rgb(172,158,156)" stroke="rgb(172,158,156)" stroke-width="1" opacity="0.996078431372549" d="M 273.5 222 L 274 224.5 L 271.5 230 L 271 228.5 L 273.5 222 Z " /><path fill="rgb(172,158,156)" stroke="rgb(172,158,156)" stroke-width="1" opacity="0.996078431372549" d="M 108.5 225 L 110 228.5 L 109 228.5 L 108.5 225 Z " /><path fill="rgb(172,158,156)" stroke="rgb(172,158,156)" stroke-width="1" opacity="0.996078431372549" d="M 291.5 226 L 293 229.5 L 292 229.5 L 291.5 226 Z " /><path fill="rgb(172,158,156)" stroke="rgb(172,158,156)" stroke-width="1" opacity="0.996078431372549" d="M 89.5 227 L 90 228.5 L 88.5 231 L 88 229.5 L 89.5 227 Z " /><path fill="rgb(172,158,156)" stroke="rgb(172,158,156)" stroke-width="1" opacity="0.996078431372549" d="M 110.5 230 L 112 233.5 L 111 233.5 L 110.5 230 Z " /><path fill="rgb(172,158,156)" stroke="rgb(172,158,156)" stroke-width="1" opacity="0.996078431372549" d="M 270.5 231 L 271 232.5 L 266.5 240 L 267 238.5 L 270.5 231 Z " /><path fill="rgb(172,158,156)" stroke="rgb(172,158,156)" stroke-width="1" opacity="0.996078431372549" d="M 293.5 231 L 295 234.5 L 294 234.5 L 293.5 231 Z " /><path fill="rgb(172,158,156)" stroke="rgb(172,158,156)" stroke-width="1" opacity="0.996078431372549" d="M 87.5 232 L 88 233.5 L 86.5 236 L 86 234.5 L 87.5 232 Z " /><path fill="rgb(172,158,156)" stroke="rgb(172,158,156)" stroke-width="1" opacity="0.996078431372549" d="M 136.5 236 L 138 236.5 L 128 245.5 L 116.5 258 L 127 246.5 L 136.5 236 Z " /><path fill="rgb(172,158,156)" stroke="rgb(172,158,156)" stroke-width="1" opacity="0.996078431372549" d="M 243.5 236 L 246 237.5 L 244.5 237 L 243.5 236 Z " /><path fill="rgb(172,158,156)" stroke="rgb(172,158,156)" stroke-width="1" opacity="0.996078431372549" d="M 85.5 237 L 86 238.5 L 84.5 241 L 84 239.5 L 85.5 237 Z " /><path fill="rgb(172,158,156)" stroke="rgb(172,158,156)" stroke-width="1" opacity="0.996078431372549" d="M 236.5 237 L 235.5 239 L 225.5 247 L 230.5 241 L 236.5 237 Z " /><path fill="rgb(172,158,156)" stroke="rgb(172,158,156)" stroke-width="1" opacity="0.996078431372549" d="M 146.5 238 L 147.5 240 L 146.5 238 Z " /><path fill="rgb(172,158,156)" stroke="rgb(172,158,156)" stroke-width="1" opacity="0.996078431372549" d="M 247.5 238 L 250.5 242 L 247.5 238 Z " /><path fill="rgb(172,158,156)" stroke="rgb(172,158,156)" stroke-width="1" opacity="0.996078431372549" d="M 114.5 239 L 117 242.5 L 115 241.5 L 114.5 239 Z " /><path fill="rgb(172,158,156)" stroke="rgb(172,158,156)" stroke-width="1" opacity="0.996078431372549" d="M 296.5 239 L 298 242.5 L 297 242.5 L 296.5 239 Z " /><path fill="rgb(172,158,156)" stroke="rgb(172,158,156)" stroke-width="1" opacity="0.996078431372549" d="M 149.5 240 L 160 251.5 L 157 249.5 L 149.5 240 Z " /><path fill="rgb(172,158,156)" stroke="rgb(172,158,156)" stroke-width="1" opacity="0.996078431372549" d="M 251.5 243 L 254.5 247 L 251.5 243 Z " /><path fill="rgb(172,158,156)" stroke="rgb(172,158,156)" stroke-width="1" opacity="0.996078431372549" d="M 264.5 243 L 263.5 245 L 264.5 243 Z " /><path fill="rgb(172,158,156)" stroke="rgb(172,158,156)" stroke-width="1" opacity="0.996078431372549" d="M 117.5 244 L 118.5 246 L 117.5 244 Z " /><path fill="rgb(172,158,156)" stroke="rgb(172,158,156)" stroke-width="1" opacity="0.996078431372549" d="M 262.5 246 L 262 247.5 L 271 257.5 L 261 248.5 L 262.5 246 Z " /><path fill="rgb(172,158,156)" stroke="rgb(172,158,156)" stroke-width="1" opacity="0.996078431372549" d="M 224.5 248 L 222.5 251 L 224.5 248 Z " /><path fill="rgb(172,158,156)" stroke="rgb(172,158,156)" stroke-width="1" opacity="0.996078431372549" d="M 255.5 248 L 261.5 255 L 255.5 248 Z " /><path fill="rgb(172,158,156)" stroke="rgb(172,158,156)" stroke-width="1" opacity="0.996078431372549" d="M 119.5 249 L 116.5 253 L 119.5 249 Z " /><path fill="rgb(172,158,156)" stroke="rgb(172,158,156)" stroke-width="1" opacity="0.996078431372549" d="M 221.5 252 L 221 253.5 L 219.5 257 L 219 255.5 L 221.5 252 Z " /><path fill="rgb(172,158,156)" stroke="rgb(172,158,156)" stroke-width="1" opacity="0.996078431372549" d="M 114.5 253 L 109.5 259 L 114.5 253 Z " /><path fill="rgb(172,158,156)" stroke="rgb(172,158,156)" stroke-width="1" opacity="0.996078431372549" d="M 160.5 253 L 162 255.5 L 161 255.5 L 160.5 253 Z " /><path fill="rgb(172,158,156)" stroke="rgb(172,158,156)" stroke-width="1" opacity="0.996078431372549" d="M 263.5 255 L 269.5 262 L 263.5 255 Z " /><path fill="rgb(172,158,156)" stroke="rgb(172,158,156)" stroke-width="1" opacity="0.996078431372549" d="M 162.5 257 L 163 260.5 L 161 261.5 L 162.5 257 Z " /><path fill="rgb(172,158,156)" stroke="rgb(172,158,156)" stroke-width="1" opacity="0.996078431372549" d="M 114.5 258 L 109.5 264 L 105.5 267 L 108.5 263 L 114.5 258 Z " /><path fill="rgb(172,158,156)" stroke="rgb(172,158,156)" stroke-width="1" opacity="0.996078431372549" d="M 218.5 258 L 219 260.5 L 225.5 267 L 228 268.5 L 226.5 268 L 218 260.5 L 218.5 258 Z " /><path fill="rgb(172,158,156)" stroke="rgb(172,158,156)" stroke-width="1" opacity="0.996078431372549" d="M 272.5 258 L 275.5 262 L 272.5 258 Z " /><path fill="rgb(172,158,156)" stroke="rgb(172,158,156)" stroke-width="1" opacity="0.996078431372549" d="M 107.5 259 L 104.5 263 L 107.5 259 Z " /><path fill="rgb(172,158,156)" stroke="rgb(172,158,156)" stroke-width="1" opacity="0.996078431372549" d="M 271.5 262 L 274.5 266 L 271.5 262 Z " /><path fill="rgb(172,158,156)" stroke="rgb(172,158,156)" stroke-width="1" opacity="0.996078431372549" d="M 277.5 262 L 279.5 265 L 277.5 262 Z " /><path fill="rgb(172,158,156)" stroke="rgb(172,158,156)" stroke-width="1" opacity="0.996078431372549" d="M 304.5 262 L 305 264.5 L 304 264.5 L 304.5 262 Z " /><path fill="rgb(172,158,156)" stroke="rgb(172,158,156)" stroke-width="1" opacity="0.996078431372549" d="M 76.5 263 L 77 265.5 L 76 265.5 L 76.5 263 Z " /><path fill="rgb(172,158,156)" stroke="rgb(172,158,156)" stroke-width="1" opacity="0.996078431372549" d="M 102.5 263 L 99.5 267 L 102.5 263 Z " /><path fill="rgb(172,158,156)" stroke="rgb(172,158,156)" stroke-width="1" opacity="0.996078431372549" d="M 160.5 263 L 158.5 266 L 160.5 263 Z " /><path fill="rgb(172,158,156)" stroke="rgb(172,158,156)" stroke-width="1" opacity="0.996078431372549" d="M 163.5 265 L 174.5 269 L 189.5 270 L 190.5 271 L 191.5 270 L 207.5 269 L 217.5 265 L 227 272.5 L 205.5 280 L 183.5 281 L 167.5 278 L 155 272.5 L 163.5 265 Z " /><path fill="rgb(172,158,156)" stroke="rgb(172,158,156)" stroke-width="1" opacity="0.996078431372549" d="M 281.5 265 L 284.5 269 L 281.5 265 Z " /><path fill="rgb(172,158,156)" stroke="rgb(172,158,156)" stroke-width="1" opacity="0.996078431372549" d="M 156.5 266 L 155.5 268 L 156.5 266 Z " /><path fill="rgb(172,158,156)" stroke="rgb(172,158,156)" stroke-width="1" opacity="0.996078431372549" d="M 276.5 266 L 278.5 269 L 276.5 266 Z " /><path fill="rgb(172,158,156)" stroke="rgb(172,158,156)" stroke-width="1" opacity="0.996078431372549" d="M 97.5 267 L 94.5 271 L 89.5 275 L 93.5 270 L 97.5 267 Z " /><path fill="rgb(172,158,156)" stroke="rgb(172,158,156)" stroke-width="1" opacity="0.996078431372549" d="M 103.5 267 L 100.5 271 L 90.5 279 L 94.5 274 L 103.5 267 Z " /><path fill="rgb(172,158,156)" stroke="rgb(172,158,156)" stroke-width="1" opacity="0.996078431372549" d="M 229.5 269 L 234 270.5 L 231.5 271 L 229.5 269 Z " /><path fill="rgb(172,158,156)" stroke="rgb(172,158,156)" stroke-width="1" opacity="0.996078431372549" d="M 280.5 269 L 283.5 273 L 280.5 269 Z " /><path fill="rgb(172,158,156)" stroke="rgb(172,158,156)" stroke-width="1" opacity="0.996078431372549" d="M 286.5 269 L 289.5 273 L 286.5 269 Z " /><path fill="rgb(172,158,156)" stroke="rgb(172,158,156)" stroke-width="1" opacity="0.996078431372549" d="M 306.5 269 L 307 271.5 L 306 271.5 L 306.5 269 Z " /><path fill="rgb(172,158,156)" stroke="rgb(172,158,156)" stroke-width="1" opacity="0.996078431372549" d="M 74.5 270 L 75 272.5 L 74 272.5 L 74.5 270 Z " /><path fill="rgb(172,158,156)" stroke="rgb(172,158,156)" stroke-width="1" opacity="0.996078431372549" d="M 147.5 270 L 150 270.5 L 147.5 271 L 147.5 270 Z " /><path fill="rgb(172,158,156)" stroke="rgb(172,158,156)" stroke-width="1" opacity="0.996078431372549" d="M 145.5 271 L 143.5 274 L 138.5 277 L 121 294.5 L 117.5 299 L 120 295.5 L 138.5 276 L 145.5 271 Z " /><path fill="rgb(172,158,156)" stroke="rgb(172,158,156)" stroke-width="1" opacity="0.996078431372549" d="M 235.5 271 L 246 279.5 L 241.5 276 Q 236.2 274.3 235.5 271 Z " /><path fill="rgb(172,158,156)" stroke="rgb(172,158,156)" stroke-width="1" opacity="0.996078431372549" d="M 285.5 273 L 296.5 283 L 299 283 L 299.5 281 L 300 282.5 L 296.5 284 L 285.5 273 Z " /><path fill="rgb(172,158,156)" stroke="rgb(172,158,156)" stroke-width="1" opacity="0.996078431372549" d="M 291.5 273 L 297.5 280 L 291.5 273 Z " /><path fill="rgb(172,158,156)" stroke="rgb(172,158,156)" stroke-width="1" opacity="0.996078431372549" d="M 307.5 273 L 308 275.5 L 307 275.5 L 307.5 273 Z " /><path fill="rgb(172,158,156)" stroke="rgb(172,158,156)" stroke-width="1" opacity="0.996078431372549" d="M 73.5 274 L 74 276.5 L 73 276.5 L 73.5 274 Z " /><path fill="rgb(172,158,156)" stroke="rgb(172,158,156)" stroke-width="1" opacity="0.996078431372549" d="M 147.5 274 L 151 274.5 Q 146.8 274.3 145.5 277 L 147.5 274 Z " /><path fill="rgb(172,158,156)" stroke="rgb(172,158,156)" stroke-width="1" opacity="0.996078431372549" d="M 230.5 274 Q 234.3 273.3 235 275.5 L 233.5 275 L 226.5 277 L 226.5 276 L 230.5 274 Z " /><path fill="rgb(172,158,156)" stroke="rgb(172,158,156)" stroke-width="1" opacity="0.996078431372549" d="M 87.5 275 L 82.5 281 L 87.5 275 Z " /><path fill="rgb(172,158,156)" stroke="rgb(172,158,156)" stroke-width="1" opacity="0.996078431372549" d="M 236.5 276 L 248 286.5 L 240.5 280 L 236.5 276 Z " /><path fill="rgb(172,158,156)" stroke="rgb(172,158,156)" stroke-width="1" opacity="0.996078431372549" d="M 143.5 277 L 140.5 281 L 143.5 277 Z " /><path fill="rgb(172,158,156)" stroke="rgb(172,158,156)" stroke-width="1" opacity="0.996078431372549" d="M 156.5 277 L 160 278.5 L 158.5 279 L 156.5 277 Z " /><path fill="rgb(172,158,156)" stroke="rgb(172,158,156)" stroke-width="1" opacity="0.996078431372549" d="M 308.5 277 L 309 279.5 L 308 279.5 L 308.5 277 Z " /><path fill="rgb(172,158,156)" stroke="rgb(172,158,156)" stroke-width="1" opacity="0.996078431372549" d="M 72.5 278 L 73 280.5 L 72 280.5 L 72.5 278 Z " /><path fill="rgb(172,158,156)" stroke="rgb(172,158,156)" stroke-width="1" opacity="0.996078431372549" d="M 88.5 279 L 84.5 284 L 83 283.5 L 88.5 279 Z " /><path fill="rgb(172,158,156)" stroke="rgb(172,158,156)" stroke-width="1" opacity="0.996078431372549" d="M 218.5 279 L 220 279.5 L 215.5 281 L 215.5 280 L 218.5 279 Z " /><path fill="rgb(172,158,156)" stroke="rgb(172,158,156)" stroke-width="1" opacity="0.996078431372549" d="M 247.5 280 L 256.5 290 L 247.5 280 Z " /><path fill="rgb(172,158,156)" stroke="rgb(172,158,156)" stroke-width="1" opacity="0.996078431372549" d="M 138.5 281 L 125.5 295 L 138.5 281 Z " /><path fill="rgb(172,158,156)" stroke="rgb(172,158,156)" stroke-width="1" opacity="0.996078431372549" d="M 167.5 281 L 170 281.5 L 167.5 282 L 167.5 281 Z " /><path fill="rgb(172,158,156)" stroke="rgb(172,158,156)" stroke-width="1" opacity="0.996078431372549" d="M 309.5 281 L 310 283.5 L 309 283.5 L 309.5 281 Z " /><path fill="rgb(172,158,156)" stroke="rgb(172,158,156)" stroke-width="1" opacity="0.996078431372549" d="M 71.5 282 L 72 284.5 L 71 284.5 L 71.5 282 Z " /><path fill="rgb(172,158,156)" stroke="rgb(172,158,156)" stroke-width="1" opacity="0.996078431372549" d="M 171.5 282 L 174 282.5 L 171.5 283 L 171.5 282 Z " /><path fill="rgb(172,158,156)" stroke="rgb(172,158,156)" stroke-width="1" opacity="0.996078431372549" d="M 207.5 282 L 210 282.5 L 207.5 283 L 207.5 282 Z " /><path fill="rgb(172,158,156)" stroke="rgb(172,158,156)" stroke-width="1" opacity="0.996078431372549" d="M 176.5 283 L 181 283.5 L 176.5 284 L 176.5 283 Z " /><path fill="rgb(172,158,156)" stroke="rgb(172,158,156)" stroke-width="1" opacity="0.996078431372549" d="M 200.5 283 L 205 283.5 L 200.5 284 L 200.5 283 Z " /><path fill="rgb(172,158,156)" stroke="rgb(172,158,156)" stroke-width="1" opacity="0.996078431372549" d="M 184.5 284 L 197 284.5 L 184.5 285 L 184.5 284 Z " /><path fill="rgb(172,158,156)" stroke="rgb(172,158,156)" stroke-width="1" opacity="0.996078431372549" d="M 310.5 285 L 311 288.5 L 310 288.5 L 310.5 285 Z " /><path fill="rgb(172,158,156)" stroke="rgb(172,158,156)" stroke-width="1" opacity="0.996078431372549" d="M 70.5 287 L 71 289.5 L 70 289.5 L 70.5 287 Z " /><path fill="rgb(172,158,156)" stroke="rgb(172,158,156)" stroke-width="1" opacity="0.996078431372549" d="M 250.5 289 L 257.5 297 L 250.5 289 Z " /><path fill="rgb(172,158,156)" stroke="rgb(172,158,156)" stroke-width="1" opacity="0.996078431372549" d="M 311.5 290 L 312 293.5 L 311 293.5 L 311.5 290 Z " /><path fill="rgb(172,158,156)" stroke="rgb(172,158,156)" stroke-width="1" opacity="0.996078431372549" d="M 257.5 291 L 261.5 296 L 257.5 291 Z " /><path fill="rgb(172,158,156)" stroke="rgb(172,158,156)" stroke-width="1" opacity="0.996078431372549" d="M 69.5 292 L 70 294.5 L 69 294.5 L 69.5 292 Z " /><path fill="rgb(172,158,156)" stroke="rgb(172,158,156)" stroke-width="1" opacity="0.996078431372549" d="M 312.5 295 L 313 298.5 L 312 298.5 L 312.5 295 Z " /><path fill="rgb(172,158,156)" stroke="rgb(172,158,156)" stroke-width="1" opacity="0.996078431372549" d="M 124.5 296 L 121.5 300 L 124.5 296 Z " /><path fill="rgb(172,158,156)" stroke="rgb(172,158,156)" stroke-width="1" opacity="0.996078431372549" d="M 68.5 297 L 69 300.5 L 68 300.5 L 68.5 297 Z " /><path fill="rgb(172,158,156)" stroke="rgb(172,158,156)" stroke-width="1" opacity="0.996078431372549" d="M 262.5 297 L 271 306.5 L 269 305.5 L 262.5 297 Z " /><path fill="rgb(172,158,156)" stroke="rgb(172,158,156)" stroke-width="1" opacity="0.996078431372549" d="M 258.5 298 L 264.5 305 L 258.5 298 Z " /><path fill="rgb(172,158,156)" stroke="rgb(172,158,156)" stroke-width="1" opacity="0.996078431372549" d="M 115.5 300 L 113.5 303 L 115.5 300 Z " /><path fill="rgb(172,158,156)" stroke="rgb(172,158,156)" stroke-width="1" opacity="0.996078431372549" d="M 313.5 300 L 314 304.5 L 313 304.5 L 313.5 300 Z " /><path fill="rgb(172,158,156)" stroke="rgb(172,158,156)" stroke-width="1" opacity="0.996078431372549" d="M 120.5 301 L 114.5 308 L 120.5 301 Z " /><path fill="rgb(172,158,156)" stroke="rgb(172,158,156)" stroke-width="1" opacity="0.996078431372549" d="M 67.5 302 L 68 305.5 L 67 305.5 L 67.5 302 Z " /><path fill="rgb(172,158,156)" stroke="rgb(172,158,156)" stroke-width="1" opacity="0.996078431372549" d="M 112.5 304 L 111.5 306 L 112.5 304 Z " /><path fill="rgb(172,158,156)" stroke="rgb(172,158,156)" stroke-width="1" opacity="0.996078431372549" d="M 265.5 306 L 268 309.5 L 267 309.5 L 265.5 306 Z " /><path fill="rgb(172,158,156)" stroke="rgb(172,158,156)" stroke-width="1" opacity="0.996078431372549" d="M 314.5 306 L 315 310.5 L 314 310.5 L 314.5 306 Z " /><path fill="rgb(172,158,156)" stroke="rgb(172,158,156)" stroke-width="1" opacity="0.996078431372549" d="M 66.5 308 L 67 312.5 L 66 312.5 L 66.5 308 Z " /><path fill="rgb(172,158,156)" stroke="rgb(172,158,156)" stroke-width="1" opacity="0.996078431372549" d="M 271.5 308 L 269.5 311 L 271.5 308 Z " /><path fill="rgb(172,158,156)" stroke="rgb(172,158,156)" stroke-width="1" opacity="0.996078431372549" d="M 110.5 309 L 112.5 310 L 114 309.5 L 111.5 311 L 110.5 309 Z " /><path fill="rgb(172,158,156)" stroke="rgb(172,158,156)" stroke-width="1" opacity="0.996078431372549" d="M 315.5 313 L 316 317.5 L 315 317.5 L 315.5 313 Z " /><path fill="rgb(172,158,156)" stroke="rgb(172,158,156)" stroke-width="1" opacity="0.996078431372549" d="M 403.5 314 L 410 314.5 L 403.5 315 L 403.5 314 Z " /><path fill="rgb(172,158,156)" stroke="rgb(172,158,156)" stroke-width="1" opacity="0.996078431372549" d="M 65.5 315 L 66 320.5 L 65 320.5 L 65.5 315 Z " /><path fill="rgb(172,158,156)" stroke="rgb(172,158,156)" stroke-width="1" opacity="0.996078431372549" d="M 400.5 315 L 402 315.5 L 399.5 317 L 400.5 315 Z " /><path fill="rgb(172,158,156)" stroke="rgb(172,158,156)" stroke-width="1" opacity="0.996078431372549" d="M 411.5 315 L 414 315.5 L 411.5 316 L 411.5 315 Z " /><path fill="rgb(172,158,156)" stroke="rgb(172,158,156)" stroke-width="1" opacity="0.996078431372549" d="M 415.5 316 Q 427.5 320.5 434 330.5 L 423.5 321 L 415.5 317 L 415.5 316 Z " /><path fill="rgb(172,158,156)" stroke="rgb(172,158,156)" stroke-width="1" opacity="0.996078431372549" d="M 397.5 317 L 396.5 319 L 397.5 317 Z " /><path fill="rgb(172,158,156)" stroke="rgb(172,158,156)" stroke-width="1" opacity="0.996078431372549" d="M 316.5 320 L 317 326.5 L 316 326.5 L 316.5 320 Z " /><path fill="rgb(172,158,156)" stroke="rgb(172,158,156)" stroke-width="1" opacity="0.996078431372549" d="M 64.5 323 L 65 329.5 L 64 329.5 L 64.5 323 Z " /><path fill="rgb(172,158,156)" stroke="rgb(172,158,156)" stroke-width="1" opacity="0.996078431372549" d="M 393.5 325 L 394 334.5 L 393 334.5 L 393.5 325 Z " /><path fill="rgb(172,158,156)" stroke="rgb(172,158,156)" stroke-width="1" opacity="0.996078431372549" d="M 317.5 329 L 318 338.5 L 317 338.5 L 317.5 329 Z " /><path fill="rgb(172,158,156)" stroke="rgb(172,158,156)" stroke-width="1" opacity="0.996078431372549" d="M 434.5 332 Q 441 338.5 444 348.5 L 443 348.5 L 434.5 332 Z " /><path fill="rgb(172,158,156)" stroke="rgb(172,158,156)" stroke-width="1" opacity="0.996078431372549" d="M 63.5 333 L 64 344.5 L 63 344.5 L 63.5 333 Z " /><path fill="rgb(172,158,156)" stroke="rgb(172,158,156)" stroke-width="1" opacity="0.996078431372549" d="M 394.5 337 L 395 340.5 L 394 340.5 L 394.5 337 Z " /><path fill="rgb(172,158,156)" stroke="rgb(172,158,156)" stroke-width="1" opacity="0.996078431372549" d="M 395.5 342 L 396 345.5 L 395 345.5 L 395.5 342 Z " /><path fill="rgb(172,158,156)" stroke="rgb(172,158,156)" stroke-width="1" opacity="0.996078431372549" d="M 318.5 344 L 319 367.5 L 318 367.5 L 318.5 344 Z " /><path fill="rgb(172,158,156)" stroke="rgb(172,158,156)" stroke-width="1" opacity="0.996078431372549" d="M 396.5 348 L 397 355.5 L 396 355.5 L 396.5 348 Z " /><path fill="rgb(172,158,156)" stroke="rgb(172,158,156)" stroke-width="1" opacity="0.996078431372549" d="M 446.5 356 L 447 358.5 L 446 358.5 L 446.5 356 Z " /><path fill="rgb(172,158,156)" stroke="rgb(172,158,156)" stroke-width="1" opacity="0.996078431372549" d="M 447.5 361 L 448 364.5 L 447 364.5 L 447.5 361 Z " /><path fill="rgb(172,158,156)" stroke="rgb(172,158,156)" stroke-width="1" opacity="0.996078431372549" d="M 396.5 363 L 397 370.5 L 396 370.5 L 396.5 363 Z " /><path fill="rgb(172,158,156)" stroke="rgb(172,158,156)" stroke-width="1" opacity="0.996078431372549" d="M 448.5 366 L 449 386.5 L 448 386.5 L 448.5 366 Z " /><path fill="rgb(172,158,156)" stroke="rgb(172,158,156)" stroke-width="1" opacity="0.996078431372549" d="M 63.5 367 L 64 377.5 L 63 377.5 L 63.5 367 Z " /><path fill="rgb(172,158,156)" stroke="rgb(172,158,156)" stroke-width="1" opacity="0.996078431372549" d="M 317.5 372 L 318 380.5 L 317 380.5 L 317.5 372 Z " /><path fill="rgb(172,158,156)" stroke="rgb(172,158,156)" stroke-width="1" opacity="0.996078431372549" d="M 395.5 373 L 396 376.5 L 395 376.5 L 395.5 373 Z " /><path fill="rgb(172,158,156)" stroke="rgb(172,158,156)" stroke-width="1" opacity="0.996078431372549" d="M 394.5 378 L 395 380.5 L 394 380.5 L 394.5 378 Z " /><path fill="rgb(172,158,156)" stroke="rgb(172,158,156)" stroke-width="1" opacity="0.996078431372549" d="M 64.5 380 L 65 386.5 L 64 386.5 L 64.5 380 Z " /><path fill="rgb(172,158,156)" stroke="rgb(172,158,156)" stroke-width="1" opacity="0.996078431372549" d="M 316.5 383 L 317 388.5 L 316 388.5 L 316.5 383 Z " /><path fill="rgb(172,158,156)" stroke="rgb(172,158,156)" stroke-width="1" opacity="0.996078431372549" d="M 391.5 388 L 392 389.5 L 390.5 392 L 390 390.5 L 391.5 388 Z " /><path fill="rgb(172,158,156)" stroke="rgb(172,158,156)" stroke-width="1" opacity="0.996078431372549" d="M 447.5 388 L 448 392.5 L 447 392.5 L 447.5 388 Z " /><path fill="rgb(172,158,156)" stroke="rgb(172,158,156)" stroke-width="1" opacity="0.996078431372549" d="M 65.5 389 L 66 392.5 L 65 392.5 L 65.5 389 Z " /><path fill="rgb(172,158,156)" stroke="rgb(172,158,156)" stroke-width="1" opacity="0.996078431372549" d="M 315.5 390 L 316 394.5 L 315 394.5 L 315.5 390 Z " /><path fill="rgb(172,158,156)" stroke="rgb(172,158,156)" stroke-width="1" opacity="0.996078431372549" d="M 446.5 394 L 447 396.5 L 446 396.5 L 446.5 394 Z " /><path fill="rgb(172,158,156)" stroke="rgb(172,158,156)" stroke-width="1" opacity="0.996078431372549" d="M 66.5 395 L 67 398.5 L 66 398.5 L 66.5 395 Z " /><path fill="rgb(172,158,156)" stroke="rgb(172,158,156)" stroke-width="1" opacity="0.996078431372549" d="M 314.5 396 L 315 399.5 L 314 399.5 L 314.5 396 Z " /><path fill="rgb(172,158,156)" stroke="rgb(172,158,156)" stroke-width="1" opacity="0.996078431372549" d="M 445.5 398 L 446 400.5 L 444.5 403 L 444 401.5 L 445.5 398 Z " /><path fill="rgb(172,158,156)" stroke="rgb(172,158,156)" stroke-width="1" opacity="0.996078431372549" d="M 386.5 399 L 386 400.5 L 374.5 416 L 368.5 421 L 373.5 415 Q 375.8 415.8 375 413.5 L 386.5 399 Z " /><path fill="rgb(172,158,156)" stroke="rgb(172,158,156)" stroke-width="1" opacity="0.996078431372549" d="M 67.5 400 L 68 402.5 L 67 402.5 L 67.5 400 Z " /><path fill="rgb(172,158,156)" stroke="rgb(172,158,156)" stroke-width="1" opacity="0.996078431372549" d="M 313.5 401 L 314 404.5 L 313 404.5 L 313.5 401 Z " /><path fill="rgb(172,158,156)" stroke="rgb(172,158,156)" stroke-width="1" opacity="0.996078431372549" d="M 68.5 404 L 69 406.5 L 68 406.5 L 68.5 404 Z " /><path fill="rgb(172,158,156)" stroke="rgb(172,158,156)" stroke-width="1" opacity="0.996078431372549" d="M 443.5 404 L 444 405.5 L 442.5 408 L 442 406.5 L 443.5 404 Z " /><path fill="rgb(172,158,156)" stroke="rgb(172,158,156)" stroke-width="1" opacity="0.996078431372549" d="M 312.5 406 L 313 408.5 L 312 408.5 L 312.5 406 Z " /><path fill="rgb(172,158,156)" stroke="rgb(172,158,156)" stroke-width="1" opacity="0.996078431372549" d="M 69.5 408 L 70 410.5 L 69 410.5 L 69.5 408 Z " /><path fill="rgb(172,158,156)" stroke="rgb(172,158,156)" stroke-width="1" opacity="0.996078431372549" d="M 440.5 411 L 441 412.5 L 432.5 425 L 434 422.5 L 440.5 411 Z " /><path fill="rgb(172,158,156)" stroke="rgb(172,158,156)" stroke-width="1" opacity="0.996078431372549" d="M 70.5 412 L 71 414.5 L 70 414.5 L 70.5 412 Z " /><path fill="rgb(172,158,156)" stroke="rgb(172,158,156)" stroke-width="1" opacity="0.996078431372549" d="M 310.5 413 L 311 415.5 L 307.5 424 L 307 422.5 L 310.5 413 Z " /><path fill="rgb(172,158,156)" stroke="rgb(172,158,156)" stroke-width="1" opacity="0.996078431372549" d="M 72.5 419 L 75 425.5 L 74 425.5 L 72.5 419 Z " /><path fill="rgb(172,158,156)" stroke="rgb(172,158,156)" stroke-width="1" opacity="0.996078431372549" d="M 366.5 421 L 365.5 423 L 366.5 421 Z " /><path fill="rgb(172,158,156)" stroke="rgb(172,158,156)" stroke-width="1" opacity="0.996078431372549" d="M 363.5 423 L 362.5 425 L 360.5 426 L 361.5 424 L 363.5 423 Z " /><path fill="rgb(172,158,156)" stroke="rgb(172,158,156)" stroke-width="1" opacity="0.996078431372549" d="M 306.5 425 L 307 426.5 L 305.5 429 L 305 427.5 L 306.5 425 Z " /><path fill="rgb(172,158,156)" stroke="rgb(172,158,156)" stroke-width="1" opacity="0.996078431372549" d="M 431.5 426 L 428.5 430 L 431.5 426 Z " /><path fill="rgb(172,158,156)" stroke="rgb(172,158,156)" stroke-width="1" opacity="0.996078431372549" d="M 75.5 427 L 78 432.5 L 77 432.5 L 75.5 427 Z " /><path fill="rgb(172,158,156)" stroke="rgb(172,158,156)" stroke-width="1" opacity="0.996078431372549" d="M 353.5 428 L 355 428.5 L 351.5 430 L 351.5 429 L 353.5 428 Z " /><path fill="rgb(172,158,156)" stroke="rgb(172,158,156)" stroke-width="1" opacity="0.996078431372549" d="M 304.5 430 L 305 431.5 L 299.5 441 L 300 439.5 L 304.5 430 Z " /><path fill="rgb(172,158,156)" stroke="rgb(172,158,156)" stroke-width="1" opacity="0.996078431372549" d="M 308 431 L 311 431.5 L 308 433.5 L 303.5 442 L 304 440.5 L 308 431 Z " /><path fill="rgb(172,158,156)" stroke="rgb(172,158,156)" stroke-width="1" opacity="0.996078431372549" d="M 344.5 431 L 347 431.5 L 338.5 434 L 330.5 434 L 330.5 433 Q 339.5 434 344.5 431 Z " /><path fill="rgb(172,158,156)" stroke="rgb(172,158,156)" stroke-width="1" opacity="0.996078431372549" d="M 427.5 431 L 417.5 442 L 427.5 431 Z " /><path fill="rgb(172,158,156)" stroke="rgb(172,158,156)" stroke-width="1" opacity="0.996078431372549" d="M 313.5 432 L 316 432.5 L 313.5 433 L 313.5 432 Z " /><path fill="rgb(172,158,156)" stroke="rgb(172,158,156)" stroke-width="1" opacity="0.996078431372549" d="M 318.5 433 L 327 433.5 L 318.5 434 L 318.5 433 Z " /><path fill="rgb(172,158,156)" stroke="rgb(172,158,156)" stroke-width="1" opacity="0.996078431372549" d="M 79.5 436 L 86 446.5 L 84 445.5 L 79.5 436 Z " /><path fill="rgb(172,158,156)" stroke="rgb(172,158,156)" stroke-width="1" opacity="0.996078431372549" d="M 298.5 442 L 298 443.5 L 296.5 446 L 297 444.5 L 298.5 442 Z " /><path fill="rgb(172,158,156)" stroke="rgb(172,158,156)" stroke-width="1" opacity="0.996078431372549" d="M 415.5 442 L 412.5 446 Q 402.6 454.1 389.5 459 L 389.5 458 Q 404.8 452.3 415.5 442 Z " /><path fill="rgb(172,158,156)" stroke="rgb(172,158,156)" stroke-width="1" opacity="0.996078431372549" d="M 301.5 445 L 300.5 447 L 301.5 445 Z " /><path fill="rgb(172,158,156)" stroke="rgb(172,158,156)" stroke-width="1" opacity="0.996078431372549" d="M 295.5 447 L 294 449.5 Q 289.1 459.1 280.5 465 L 278.5 466 L 279.5 464 L 290 454.5 L 295.5 447 Z " /><path fill="rgb(172,158,156)" stroke="rgb(172,158,156)" stroke-width="1" opacity="0.996078431372549" d="M 86.5 448 L 93 455.5 L 88 451.5 L 86.5 448 Z " /><path fill="rgb(172,158,156)" stroke="rgb(172,158,156)" stroke-width="1" opacity="0.996078431372549" d="M 299.5 448 L 298.5 450 L 299.5 448 Z " /><path fill="rgb(172,158,156)" stroke="rgb(172,158,156)" stroke-width="1" opacity="0.996078431372549" d="M 107.5 451 L 111 452.5 L 110.5 460 L 110 452 L 107 452 L 107 459.5 L 106 459.5 Q 104.3 452.8 107.5 451 Z " /><path fill="rgb(172,158,156)" stroke="rgb(172,158,156)" stroke-width="1" opacity="0.996078431372549" d="M 271.5 451 L 275 452.5 L 274.5 457 L 274 452 Q 270.7 452.8 271.5 451 Z " /><path fill="rgb(172,158,156)" stroke="rgb(172,158,156)" stroke-width="1" opacity="0.996078431372549" d="M 297.5 451 L 295.5 454 L 297.5 451 Z " /><path fill="rgb(172,158,156)" stroke="rgb(172,158,156)" stroke-width="1" opacity="0.996078431372549" d="M 149 453 L 151 453.5 L 150 454.5 L 149.5 465 L 149 453 Z " /><path fill="rgb(172,158,156)" stroke="rgb(172,158,156)" stroke-width="1" opacity="0.996078431372549" d="M 270.5 453 L 271 455.5 L 270 455.5 L 270.5 453 Z " /><path fill="rgb(172,158,156)" stroke="rgb(172,158,156)" stroke-width="1" opacity="0.996078431372549" d="M 230.5 454 L 229 456.5 L 228.5 461 L 228 456.5 L 230.5 454 Z " /><path fill="rgb(172,158,156)" stroke="rgb(172,158,156)" stroke-width="1" opacity="0.996078431372549" d="M 232.5 455 L 233 459.5 L 232 459.5 L 232.5 455 Z " /><path fill="rgb(172,158,156)" stroke="rgb(172,158,156)" stroke-width="1" opacity="0.996078431372549" d="M 294.5 455 L 288.5 463 L 291 463.5 L 288.5 464 L 287 462.5 L 294.5 455 Z " /><path fill="rgb(172,158,156)" stroke="rgb(172,158,156)" stroke-width="1" opacity="0.996078431372549" d="M 153.5 456 L 154 466.5 L 153 466.5 L 153.5 456 Z " /><path fill="rgb(172,158,156)" stroke="rgb(172,158,156)" stroke-width="1" opacity="0.996078431372549" d="M 93.5 457 L 98.5 463 L 93.5 457 Z " /><path fill="rgb(172,158,156)" stroke="rgb(172,158,156)" stroke-width="1" opacity="0.996078431372549" d="M 271.5 459 L 272 462.5 L 271 462.5 L 271.5 459 Z " /><path fill="rgb(172,158,156)" stroke="rgb(172,158,156)" stroke-width="1" opacity="0.996078431372549" d="M 275.5 459 L 276 462.5 L 275 462.5 L 275.5 459 Z " /><path fill="rgb(172,158,156)" stroke="rgb(172,158,156)" stroke-width="1" opacity="0.996078431372549" d="M 384.5 460 L 386 460.5 L 375.5 464 L 375.5 463 L 384.5 460 Z " /><path fill="rgb(172,158,156)" stroke="rgb(172,158,156)" stroke-width="1" opacity="0.996078431372549" d="M 105.5 461 L 106 463.5 L 105 463.5 L 105.5 461 Z " /><path fill="rgb(172,158,156)" stroke="rgb(172,158,156)" stroke-width="1" opacity="0.996078431372549" d="M 109.5 461 L 110 463.5 L 109 463.5 L 109.5 461 Z " /><path fill="rgb(172,158,156)" stroke="rgb(172,158,156)" stroke-width="1" opacity="0.996078431372549" d="M 227.5 462 L 228 466.5 L 227 466.5 L 227.5 462 Z " /><path fill="rgb(172,158,156)" stroke="rgb(172,158,156)" stroke-width="1" opacity="0.996078431372549" d="M 231.5 462 L 232 466.5 L 231 466.5 L 231.5 462 Z " /><path fill="rgb(172,158,156)" stroke="rgb(172,158,156)" stroke-width="1" opacity="0.996078431372549" d="M 100.5 463 L 102.5 466 L 100.5 463 Z " /><path fill="rgb(172,158,156)" stroke="rgb(172,158,156)" stroke-width="1" opacity="0.996078431372549" d="M 292.5 464 L 295 464.5 L 292.5 465 L 292.5 464 Z " /><path fill="rgb(172,158,156)" stroke="rgb(172,158,156)" stroke-width="1" opacity="0.996078431372549" d="M 371.5 464 L 374 464.5 L 371.5 465 L 371.5 464 Z " /><path fill="rgb(172,158,156)" stroke="rgb(172,158,156)" stroke-width="1" opacity="0.996078431372549" d="M 108.5 465 L 109 466.5 L 105.5 473 L 105 471.5 L 108.5 465 Z " /><path fill="rgb(172,158,156)" stroke="rgb(172,158,156)" stroke-width="1" opacity="0.996078431372549" d="M 296.5 465 L 300 465.5 L 296.5 466 L 296.5 465 Z " /><path fill="rgb(172,158,156)" stroke="rgb(172,158,156)" stroke-width="1" opacity="0.996078431372549" d="M 367.5 465 L 370 465.5 L 367.5 466 L 367.5 465 Z " /><path fill="rgb(172,158,156)" stroke="rgb(172,158,156)" stroke-width="1" opacity="0.996078431372549" d="M 301.5 466 L 305 466.5 L 301.5 467 L 301.5 466 Z " /><path fill="rgb(172,158,156)" stroke="rgb(172,158,156)" stroke-width="1" opacity="0.996078431372549" d="M 363.5 466 L 366 466.5 L 363.5 467 L 363.5 466 Z " /><path fill="rgb(172,158,156)" stroke="rgb(172,158,156)" stroke-width="1" opacity="0.996078431372549" d="M 273.5 467 L 276 471.5 L 275 471.5 L 273.5 467 Z " /><path fill="rgb(172,158,156)" stroke="rgb(172,158,156)" stroke-width="1" opacity="0.996078431372549" d="M 307.5 467 L 312 467.5 L 307.5 468 L 307.5 467 Z " /><path fill="rgb(172,158,156)" stroke="rgb(172,158,156)" stroke-width="1" opacity="0.996078431372549" d="M 357.5 467 L 361 467.5 L 357.5 468 L 357.5 467 Z " /><path fill="rgb(172,158,156)" stroke="rgb(172,158,156)" stroke-width="1" opacity="0.996078431372549" d="M 150.5 468 L 151 471.5 L 150 471.5 L 150.5 468 Z " /><path fill="rgb(172,158,156)" stroke="rgb(172,158,156)" stroke-width="1" opacity="0.996078431372549" d="M 154.5 468 L 155 471 L 225.5 471 L 226 469.5 L 227 469.5 L 226.5 472 L 154 472 L 154.5 468 Z " /><path fill="rgb(172,158,156)" stroke="rgb(172,158,156)" stroke-width="1" opacity="0.996078431372549" d="M 314.5 468 L 323 468.5 L 314.5 469 L 314.5 468 Z " /><path fill="rgb(172,158,156)" stroke="rgb(172,158,156)" stroke-width="1" opacity="0.996078431372549" d="M 348.5 468 L 355 468.5 L 348.5 469 L 348.5 468 Z " /><path fill="rgb(172,158,156)" stroke="rgb(172,158,156)" stroke-width="1" opacity="0.996078431372549" d="M 230.5 469 L 231 476.5 L 230 476.5 L 230.5 469 Z " /><path fill="rgb(172,158,156)" stroke="rgb(172,158,156)" stroke-width="1" opacity="0.996078431372549" d="M 326.5 469 L 344 469.5 L 326.5 470 L 326.5 469 Z " /><path fill="rgb(172,158,156)" stroke="rgb(172,158,156)" stroke-width="1" opacity="0.996078431372549" d="M 151.5 474 L 152 488.5 L 151 488.5 L 151.5 474 Z " /><path fill="rgb(172,158,156)" stroke="rgb(172,158,156)" stroke-width="1" opacity="0.996078431372549" d="M 277.5 476 L 278 479.5 L 277 479.5 L 277.5 476 Z " /><path fill="rgb(172,158,156)" stroke="rgb(172,158,156)" stroke-width="1" opacity="0.996078431372549" d="M 103.5 477 L 104 482.5 L 103 482.5 L 103.5 477 Z " /><path fill="rgb(172,158,156)" stroke="rgb(172,158,156)" stroke-width="1" opacity="0.996078431372549" d="M 278.5 481 L 279 486.5 L 278 486.5 L 278.5 481 Z " /><path fill="rgb(172,158,156)" stroke="rgb(172,158,156)" stroke-width="1" opacity="0.996078431372549" d="M 103.5 486 Q 102.7 492.3 106.5 494 L 110 495.5 L 108.5 496 L 103 491.5 L 103.5 486 Z " /><path fill="rgb(172,158,156)" stroke="rgb(172,158,156)" stroke-width="1" opacity="0.996078431372549" d="M 230.5 487 L 231 489.5 L 230 489.5 L 230.5 487 Z " /><path fill="rgb(172,158,156)" stroke="rgb(172,158,156)" stroke-width="1" opacity="0.996078431372549" d="M 150.5 490 L 150 491.5 L 148.5 494 L 149 492.5 L 150.5 490 Z " /><path fill="rgb(172,158,156)" stroke="rgb(172,158,156)" stroke-width="1" opacity="0.996078431372549" d="M 231.5 491 L 238 495.5 L 236.5 496 L 231.5 491 Z " /><path fill="rgb(172,158,156)" stroke="rgb(172,158,156)" stroke-width="1" opacity="0.996078431372549" d="M 275.5 493 L 277 493.5 L 274.5 495 L 275.5 493 Z " /><path fill="rgb(172,158,156)" stroke="rgb(172,158,156)" stroke-width="1" opacity="0.996078431372549" d="M 111.5 496 L 114 496.5 L 111.5 497 L 111.5 496 Z " /><path fill="rgb(172,158,156)" stroke="rgb(172,158,156)" stroke-width="1" opacity="0.996078431372549" d="M 139.5 496 L 142 496.5 L 139.5 497 L 139.5 496 Z " /><path fill="rgb(172,158,156)" stroke="rgb(172,158,156)" stroke-width="1" opacity="0.996078431372549" d="M 239.5 496 L 242 496.5 L 239.5 497 L 239.5 496 Z " /><path fill="rgb(172,158,156)" stroke="rgb(172,158,156)" stroke-width="1" opacity="0.996078431372549" d="M 267.5 496 L 270 496.5 L 267.5 497 L 267.5 496 Z " /><path fill="rgb(172,158,156)" stroke="rgb(172,158,156)" stroke-width="1" opacity="0.996078431372549" d="M 115.5 497 L 122 497.5 L 115.5 498 L 115.5 497 Z " /><path fill="rgb(172,158,156)" stroke="rgb(172,158,156)" stroke-width="1" opacity="0.996078431372549" d="M 132.5 497 L 138 497.5 L 132.5 498 L 132.5 497 Z " /><path fill="rgb(172,158,156)" stroke="rgb(172,158,156)" stroke-width="1" opacity="0.996078431372549" d="M 243.5 497 L 250 497.5 L 243.5 498 L 243.5 497 Z " /><path fill="rgb(172,158,156)" stroke="rgb(172,158,156)" stroke-width="1" opacity="0.996078431372549" d="M 260.5 497 L 266 497.5 L 260.5 498 L 260.5 497 Z " /><path fill="rgb(233,233,233)" stroke="rgb(233,233,233)" stroke-width="1" opacity="1" d="M 94.5 15 L 95.5 17 L 94.5 15 Z " /><path fill="rgb(233,233,233)" stroke="rgb(233,233,233)" stroke-width="1" opacity="1" d="M 286.5 15 L 284.5 18 L 286.5 15 Z " /><path fill="rgb(233,233,233)" stroke="rgb(233,233,233)" stroke-width="1" opacity="1" d="M 98.5 18 L 100.5 21 L 98.5 18 Z " /><path fill="rgb(233,233,233)" stroke="rgb(233,233,233)" stroke-width="1" opacity="1" d="M 280.5 20 L 279.5 22 L 280.5 20 Z " /><path fill="rgb(233,233,233)" stroke="rgb(233,233,233)" stroke-width="1" opacity="1" d="M 103.5 22 L 105.5 25 L 103.5 22 Z " /><path fill="rgb(233,233,233)" stroke="rgb(233,233,233)" stroke-width="1" opacity="1" d="M 275.5 24 L 274.5 26 L 275.5 24 Z " /><path fill="rgb(233,233,233)" stroke="rgb(233,233,233)" stroke-width="1" opacity="1" d="M 108.5 26 L 110.5 29 L 108.5 26 Z " /><path fill="rgb(233,233,233)" stroke="rgb(233,233,233)" stroke-width="1" opacity="1" d="M 186.5 28 L 195 28.5 L 186.5 29 L 186.5 28 Z " /><path fill="rgb(233,233,233)" stroke="rgb(233,233,233)" stroke-width="1" opacity="1" d="M 270.5 28 L 269.5 30 L 270.5 28 Z " /><path fill="rgb(233,233,233)" stroke="rgb(233,233,233)" stroke-width="1" opacity="1" d="M 168.5 29 L 171 29.5 L 168.5 30 L 168.5 29 Z " /><path fill="rgb(233,233,233)" stroke="rgb(233,233,233)" stroke-width="1" opacity="1" d="M 113.5 30 L 115.5 33 L 113.5 30 Z " /><path fill="rgb(233,233,233)" stroke="rgb(233,233,233)" stroke-width="1" opacity="1" d="M 265.5 32 L 264.5 34 L 265.5 32 Z " /><path fill="rgb(233,233,233)" stroke="rgb(233,233,233)" stroke-width="1" opacity="1" d="M 118.5 34 L 120.5 37 L 118.5 34 Z " /><path fill="rgb(233,233,233)" stroke="rgb(233,233,233)" stroke-width="1" opacity="1" d="M 260.5 36 L 259.5 38 L 260.5 36 Z " /><path fill="rgb(233,233,233)" stroke="rgb(233,233,233)" stroke-width="1" opacity="1" d="M 123.5 38 L 127 39.5 L 124.5 40 L 123.5 38 Z " /><path fill="rgb(233,233,233)" stroke="rgb(233,233,233)" stroke-width="1" opacity="1" d="M 254.5 39 L 257 39.5 L 254.5 40 L 254.5 39 Z " /><path fill="rgb(233,233,233)" stroke="rgb(233,233,233)" stroke-width="1" opacity="1" d="M 138.5 90 L 137.5 92 L 138.5 90 Z " /><path fill="rgb(233,233,233)" stroke="rgb(233,233,233)" stroke-width="1" opacity="1" d="M 146.5 90 L 148.5 93 L 146.5 90 Z " /><path fill="rgb(233,233,233)" stroke="rgb(233,233,233)" stroke-width="1" opacity="1" d="M 234.5 90 L 233.5 92 L 234.5 90 Z " /><path fill="rgb(233,233,233)" stroke="rgb(233,233,233)" stroke-width="1" opacity="1" d="M 242.5 90 L 244.5 93 L 242.5 90 Z " /><path fill="rgb(233,233,233)" stroke="rgb(233,233,233)" stroke-width="1" opacity="1" d="M 84.5 96 L 85 98.5 L 84 98.5 L 84.5 96 Z " /><path fill="rgb(233,233,233)" stroke="rgb(233,233,233)" stroke-width="1" opacity="1" d="M 232.5 99 L 234.5 102 L 232.5 99 Z " /><path fill="rgb(233,233,233)" stroke="rgb(233,233,233)" stroke-width="1" opacity="1" d="M 244.5 99 L 242.5 102 L 244.5 99 Z " /><path fill="rgb(233,233,233)" stroke="rgb(233,233,233)" stroke-width="1" opacity="1" d="M 137.5 100 L 138.5 102 L 137.5 100 Z " /><path fill="rgb(233,233,233)" stroke="rgb(233,233,233)" stroke-width="1" opacity="1" d="M 186.5 100 L 190 100.5 L 186.5 101 L 186.5 100 Z " /><path fill="rgb(233,233,233)" stroke="rgb(233,233,233)" stroke-width="1" opacity="1" d="M 192.5 100 L 195 100.5 L 192.5 101 L 192.5 100 Z " /><path fill="rgb(233,233,233)" stroke="rgb(233,233,233)" stroke-width="1" opacity="1" d="M 146.5 101 L 145.5 103 L 144 102.5 L 146.5 101 Z " /><path fill="rgb(233,233,233)" stroke="rgb(233,233,233)" stroke-width="1" opacity="1" d="M 199.5 102 L 200.5 104 L 199.5 102 Z " /><path fill="rgb(233,233,233)" stroke="rgb(233,233,233)" stroke-width="1" opacity="1" d="M 298.5 112 L 299 115.5 L 298 115.5 L 298.5 112 Z " /><path fill="rgb(233,233,233)" stroke="rgb(233,233,233)" stroke-width="1" opacity="1" d="M 198.5 116 L 194.5 121 L 198.5 116 Z " /><path fill="rgb(233,233,233)" stroke="rgb(233,233,233)" stroke-width="1" opacity="1" d="M 298.5 118 L 299 123.5 L 298 123.5 L 298.5 118 Z " /><path fill="rgb(233,233,233)" stroke="rgb(233,233,233)" stroke-width="1" opacity="1" d="M 122.5 123 L 123.5 125 L 122.5 123 Z " /><path fill="rgb(233,233,233)" stroke="rgb(233,233,233)" stroke-width="1" opacity="1" d="M 226.5 128 L 225.5 130 L 226.5 128 Z " /><path fill="rgb(233,233,233)" stroke="rgb(233,233,233)" stroke-width="1" opacity="1" d="M 186.5 132 L 185.5 134 L 186.5 132 Z " /><path fill="rgb(233,233,233)" stroke="rgb(233,233,233)" stroke-width="1" opacity="1" d="M 173.5 135 L 173 136.5 L 172.5 138 L 172 136.5 L 173.5 135 Z " /><path fill="rgb(233,233,233)" stroke="rgb(233,233,233)" stroke-width="1" opacity="1" d="M 190.5 135 L 189.5 137 L 190.5 135 Z " /><path fill="rgb(233,233,233)" stroke="rgb(233,233,233)" stroke-width="1" opacity="1" d="M 208.5 138 L 207.5 140 L 206 139.5 L 208.5 138 Z " /><path fill="rgb(233,233,233)" stroke="rgb(233,233,233)" stroke-width="1" opacity="1" d="M 181.5 139 L 184 139.5 L 181.5 140 L 181.5 139 Z " /><path fill="rgb(233,233,233)" stroke="rgb(233,233,233)" stroke-width="1" opacity="1" d="M 122.5 148 L 126 149.5 L 123.5 150 L 122.5 148 Z " /><path fill="rgb(233,233,233)" stroke="rgb(233,233,233)" stroke-width="1" opacity="1" d="M 255.5 149 L 258 149.5 L 255.5 150 L 255.5 149 Z " /><path fill="rgb(233,233,233)" stroke="rgb(233,233,233)" stroke-width="1" opacity="1" d="M 287.5 158 L 286.5 160 L 287.5 158 Z " /><path fill="rgb(233,233,233)" stroke="rgb(233,233,233)" stroke-width="1" opacity="1" d="M 96.5 162 L 97.5 164 L 96.5 162 Z " /><path fill="rgb(233,233,233)" stroke="rgb(233,233,233)" stroke-width="1" opacity="1" d="M 283.5 164 L 282.5 166 L 283.5 164 Z " /><path fill="rgb(233,233,233)" stroke="rgb(233,233,233)" stroke-width="1" opacity="1" d="M 98.5 165 L 100.5 168 L 98.5 165 Z " /><path fill="rgb(233,233,233)" stroke="rgb(233,233,233)" stroke-width="1" opacity="1" d="M 280.5 168 L 270.5 179 L 280.5 168 Z " /><path fill="rgb(233,233,233)" stroke="rgb(233,233,233)" stroke-width="1" opacity="1" d="M 102.5 170 L 108.5 177 L 102.5 170 Z " /><path fill="rgb(233,233,233)" stroke="rgb(233,233,233)" stroke-width="1" opacity="1" d="M 112.5 179 L 114.5 182 L 112.5 179 Z " /><path fill="rgb(233,233,233)" stroke="rgb(233,233,233)" stroke-width="1" opacity="1" d="M 267.5 180 L 266.5 182 L 267.5 180 Z " /><path fill="rgb(233,233,233)" stroke="rgb(233,233,233)" stroke-width="1" opacity="1" d="M 116.5 182 L 117.5 184 L 116.5 182 Z " /><path fill="rgb(233,233,233)" stroke="rgb(233,233,233)" stroke-width="1" opacity="1" d="M 263.5 183 L 262.5 185 L 263.5 183 Z " /><path fill="rgb(233,233,233)" stroke="rgb(233,233,233)" stroke-width="1" opacity="1" d="M 267.5 186 L 266.5 188 L 267.5 186 Z " /><path fill="rgb(233,233,233)" stroke="rgb(233,233,233)" stroke-width="1" opacity="1" d="M 105.5 199 L 187 199.5 L 105.5 200 L 105.5 199 Z " /><path fill="rgb(233,233,233)" stroke="rgb(233,233,233)" stroke-width="1" opacity="1" d="M 232.5 199 L 276 199.5 L 232.5 200 L 232.5 199 Z " /><path fill="rgb(233,233,233)" stroke="rgb(233,233,233)" stroke-width="1" opacity="1" d="M 230.5 200 L 229.5 202 L 230.5 200 Z " /><path fill="rgb(233,233,233)" stroke="rgb(233,233,233)" stroke-width="1" opacity="1" d="M 102.5 201 Q 105.1 200.2 104 203.5 L 103 203.5 L 102.5 201 Z " /><path fill="rgb(233,233,233)" stroke="rgb(233,233,233)" stroke-width="1" opacity="1" d="M 190.5 202 L 191.5 204 L 190.5 202 Z " /><path fill="rgb(233,233,233)" stroke="rgb(233,233,233)" stroke-width="1" opacity="1" d="M 225.5 204 L 224.5 206 L 225.5 204 Z " /><path fill="rgb(233,233,233)" stroke="rgb(233,233,233)" stroke-width="1" opacity="1" d="M 277.5 204 L 278 207.5 L 277 207.5 L 277.5 204 Z " /><path fill="rgb(233,233,233)" stroke="rgb(233,233,233)" stroke-width="1" opacity="1" d="M 220.5 208 L 219.5 210 L 220.5 208 Z " /><path fill="rgb(233,233,233)" stroke="rgb(233,233,233)" stroke-width="1" opacity="1" d="M 210.5 209 L 212.5 212 L 210.5 209 Z " /><path fill="rgb(233,233,233)" stroke="rgb(233,233,233)" stroke-width="1" opacity="1" d="M 138.5 236 L 141 236.5 L 138.5 237 L 138.5 236 Z " /><path fill="rgb(233,233,233)" stroke="rgb(233,233,233)" stroke-width="1" opacity="1" d="M 145.5 238 L 146.5 240 L 145.5 238 Z " /><path fill="rgb(233,233,233)" stroke="rgb(233,233,233)" stroke-width="1" opacity="1" d="M 246.5 238 L 250.5 243 L 246.5 238 Z " /><path fill="rgb(233,233,233)" stroke="rgb(233,233,233)" stroke-width="1" opacity="1" d="M 234.5 239 L 233.5 241 L 234.5 239 Z " /><path fill="rgb(233,233,233)" stroke="rgb(233,233,233)" stroke-width="1" opacity="1" d="M 267.5 239 L 266.5 241 L 267.5 239 Z " /><path fill="rgb(233,233,233)" stroke="rgb(233,233,233)" stroke-width="1" opacity="1" d="M 148.5 240 L 156.5 249 L 148.5 240 Z " /><path fill="rgb(233,233,233)" stroke="rgb(233,233,233)" stroke-width="1" opacity="1" d="M 115.5 242 L 116.5 244 L 115.5 242 Z " /><path fill="rgb(233,233,233)" stroke="rgb(233,233,233)" stroke-width="1" opacity="1" d="M 230.5 242 L 225.5 248 L 230.5 242 Z " /><path fill="rgb(233,233,233)" stroke="rgb(233,233,233)" stroke-width="1" opacity="1" d="M 129.5 244 L 128.5 246 L 129.5 244 Z " /><path fill="rgb(233,233,233)" stroke="rgb(233,233,233)" stroke-width="1" opacity="1" d="M 264.5 244 L 263.5 246 L 264.5 244 Z " /><path fill="rgb(233,233,233)" stroke="rgb(233,233,233)" stroke-width="1" opacity="1" d="M 117.5 245 L 118.5 247 L 117.5 245 Z " /><path fill="rgb(233,233,233)" stroke="rgb(233,233,233)" stroke-width="1" opacity="1" d="M 253.5 246 L 254.5 248 L 253.5 246 Z " /><path fill="rgb(233,233,233)" stroke="rgb(233,233,233)" stroke-width="1" opacity="1" d="M 119.5 248 L 115.5 253 L 119.5 248 Z " /><path fill="rgb(233,233,233)" stroke="rgb(233,233,233)" stroke-width="1" opacity="1" d="M 126.5 248 L 120.5 255 L 126.5 248 Z " /><path fill="rgb(233,233,233)" stroke="rgb(233,233,233)" stroke-width="1" opacity="1" d="M 223.5 250 L 222.5 252 L 223.5 250 Z " /><path fill="rgb(233,233,233)" stroke="rgb(233,233,233)" stroke-width="1" opacity="1" d="M 158.5 251 L 159.5 253 L 158.5 251 Z " /><path fill="rgb(233,233,233)" stroke="rgb(233,233,233)" stroke-width="1" opacity="1" d="M 267.5 253 L 271.5 258 L 267.5 253 Z " /><path fill="rgb(233,233,233)" stroke="rgb(233,233,233)" stroke-width="1" opacity="1" d="M 262.5 255 L 267.5 261 L 262.5 255 Z " /><path fill="rgb(233,233,233)" stroke="rgb(233,233,233)" stroke-width="1" opacity="1" d="M 110.5 256 L 108.5 259 L 110.5 256 Z " /><path fill="rgb(233,233,233)" stroke="rgb(233,233,233)" stroke-width="1" opacity="1" d="M 115.5 258 L 112.5 262 L 115.5 258 Z " /><path fill="rgb(233,233,233)" stroke="rgb(233,233,233)" stroke-width="1" opacity="1" d="M 274.5 259 L 276.5 262 L 274.5 259 Z " /><path fill="rgb(233,233,233)" stroke="rgb(233,233,233)" stroke-width="1" opacity="1" d="M 105.5 260 L 103.5 263 L 105.5 260 Z " /><path fill="rgb(233,233,233)" stroke="rgb(233,233,233)" stroke-width="1" opacity="1" d="M 160.5 262 L 157.5 266 L 160.5 262 Z " /><path fill="rgb(233,233,233)" stroke="rgb(233,233,233)" stroke-width="1" opacity="1" d="M 270.5 262 L 272.5 265 L 270.5 262 Z " /><path fill="rgb(233,233,233)" stroke="rgb(233,233,233)" stroke-width="1" opacity="1" d="M 279.5 263 L 280.5 265 L 279.5 263 Z " /><path fill="rgb(233,233,233)" stroke="rgb(233,233,233)" stroke-width="1" opacity="1" d="M 100.5 264 L 98.5 267 L 100.5 264 Z " /><path fill="rgb(233,233,233)" stroke="rgb(233,233,233)" stroke-width="1" opacity="1" d="M 108.5 264 L 107.5 266 L 108.5 264 Z " /><path fill="rgb(233,233,233)" stroke="rgb(233,233,233)" stroke-width="1" opacity="1" d="M 275.5 266 L 276.5 268 L 275.5 266 Z " /><path fill="rgb(233,233,233)" stroke="rgb(233,233,233)" stroke-width="1" opacity="1" d="M 283.5 266 L 285.5 269 L 283.5 266 Z " /><path fill="rgb(233,233,233)" stroke="rgb(233,233,233)" stroke-width="1" opacity="1" d="M 104.5 267 L 102.5 270 L 104.5 267 Z " /><path fill="rgb(233,233,233)" stroke="rgb(233,233,233)" stroke-width="1" opacity="1" d="M 95.5 268 L 94.5 270 L 95.5 268 Z " /><path fill="rgb(233,233,233)" stroke="rgb(233,233,233)" stroke-width="1" opacity="1" d="M 279.5 269 L 281.5 272 L 279.5 269 Z " /><path fill="rgb(233,233,233)" stroke="rgb(233,233,233)" stroke-width="1" opacity="1" d="M 288.5 270 L 290.5 273 L 288.5 270 Z " /><path fill="rgb(233,233,233)" stroke="rgb(233,233,233)" stroke-width="1" opacity="1" d="M 91.5 271 L 88.5 275 L 91.5 271 Z " /><path fill="rgb(233,233,233)" stroke="rgb(233,233,233)" stroke-width="1" opacity="1" d="M 99.5 271 L 97.5 274 L 99.5 271 Z " /><path fill="rgb(233,233,233)" stroke="rgb(233,233,233)" stroke-width="1" opacity="1" d="M 144.5 271 L 143.5 273 L 144.5 271 Z " /><path fill="rgb(233,233,233)" stroke="rgb(233,233,233)" stroke-width="1" opacity="1" d="M 239.5 273 L 240.5 275 L 239.5 273 Z " /><path fill="rgb(233,233,233)" stroke="rgb(233,233,233)" stroke-width="1" opacity="1" d="M 284.5 273 L 286.5 276 L 284.5 273 Z " /><path fill="rgb(233,233,233)" stroke="rgb(233,233,233)" stroke-width="1" opacity="1" d="M 140.5 274 L 139.5 276 L 140.5 274 Z " /><path fill="rgb(233,233,233)" stroke="rgb(233,233,233)" stroke-width="1" opacity="1" d="M 94.5 275 L 92.5 278 L 94.5 275 Z " /><path fill="rgb(233,233,233)" stroke="rgb(233,233,233)" stroke-width="1" opacity="1" d="M 294.5 275 L 299.5 281 L 294.5 275 Z " /><path fill="rgb(233,233,233)" stroke="rgb(233,233,233)" stroke-width="1" opacity="1" d="M 235.5 276 L 237.5 279 L 235.5 276 Z " /><path fill="rgb(233,233,233)" stroke="rgb(233,233,233)" stroke-width="1" opacity="1" d="M 243.5 276 L 246.5 280 L 243.5 276 Z " /><path fill="rgb(233,233,233)" stroke="rgb(233,233,233)" stroke-width="1" opacity="1" d="M 84.5 277 L 82 280.5 L 83 283.5 L 81 282.5 Q 80.5 277.5 84.5 277 Z " /><path fill="rgb(233,233,233)" stroke="rgb(233,233,233)" stroke-width="1" opacity="1" d="M 144.5 277 L 142.5 280 L 144.5 277 Z " /><path fill="rgb(233,233,233)" stroke="rgb(233,233,233)" stroke-width="1" opacity="1" d="M 135.5 278 L 122.5 292 L 135.5 278 Z " /><path fill="rgb(233,233,233)" stroke="rgb(233,233,233)" stroke-width="1" opacity="1" d="M 290.5 278 L 293.5 282 L 290.5 278 Z " /><path fill="rgb(233,233,233)" stroke="rgb(233,233,233)" stroke-width="1" opacity="1" d="M 89.5 279 L 85.5 284 L 89.5 279 Z " /><path fill="rgb(233,233,233)" stroke="rgb(233,233,233)" stroke-width="1" opacity="1" d="M 240.5 280 L 242.5 283 L 240.5 280 Z " /><path fill="rgb(233,233,233)" stroke="rgb(233,233,233)" stroke-width="1" opacity="1" d="M 72.5 281 L 73 283.5 L 72 283.5 L 72.5 281 Z " /><path fill="rgb(233,233,233)" stroke="rgb(233,233,233)" stroke-width="1" opacity="1" d="M 139.5 281 L 135.5 286 L 139.5 281 Z " /><path fill="rgb(233,233,233)" stroke="rgb(233,233,233)" stroke-width="1" opacity="1" d="M 181.5 284 L 184 284.5 L 181.5 285 L 181.5 284 Z " /><path fill="rgb(233,233,233)" stroke="rgb(233,233,233)" stroke-width="1" opacity="1" d="M 197.5 284 L 200 284.5 L 197.5 285 L 197.5 284 Z " /><path fill="rgb(233,233,233)" stroke="rgb(233,233,233)" stroke-width="1" opacity="1" d="M 309.5 284 L 310 287.5 L 309 287.5 L 309.5 284 Z " /><path fill="rgb(233,233,233)" stroke="rgb(233,233,233)" stroke-width="1" opacity="1" d="M 71.5 285 L 72 289.5 L 71 290.5 L 70 308.5 L 69 309.5 L 69 357.5 L 70 358.5 L 70 366.5 L 74 388.5 L 83 414.5 Q 91.9 433.6 107.5 446 L 119.5 451 L 261.5 451 Q 275.9 447.9 283 437.5 Q 298.9 419.9 306 393.5 L 312 361.5 L 313 321.5 L 312 320.5 L 312 306.5 L 311 305.5 L 310 289.5 L 311 289.5 L 316 318.5 L 316 326.5 L 317 327.5 L 317 338.5 L 318 339.5 L 318 371.5 L 317 372.5 L 317 382.5 L 313 405.5 L 305 429.5 Q 296.4 450.4 280.5 464 L 277.5 466 L 275 458.5 L 275 452.5 L 273.5 451 Q 270.2 449.9 271 452.5 L 270 455.5 L 272 465.5 L 277 475.5 L 278 489.5 L 277 493 L 266.5 497 L 250.5 498 L 249.5 497 L 238.5 496 L 231 490.5 L 230 477.5 L 231 476.5 L 231 467.5 L 233 455 L 230.5 454 L 228 456.5 L 227 468.5 L 226 471 L 155.5 471 L 155 468.5 L 154 467.5 Q 155.1 457.9 153 453 L 149 453 L 149 464.5 L 151 472.5 L 151 489.5 L 147.5 494 L 138.5 497 L 122.5 498 L 121.5 497 L 110.5 496 L 104 491.5 L 103 483.5 L 105 473.5 L 110 463.5 L 111 452.5 L 107.5 451 L 106 452.5 Q 107.3 461.8 103.5 466 L 93 456.5 L 79 435.5 L 71 415.5 L 65 388.5 L 64 367.5 L 63 366.5 L 63 345.5 L 64 344.5 L 64 330.5 L 65 329.5 L 66 313.5 L 71.5 285 Z " /><path fill="rgb(233,233,233)" stroke="rgb(233,233,233)" stroke-width="1" opacity="1" d="M 248.5 287 L 249.5 289 L 248.5 287 Z " /><path fill="rgb(233,233,233)" stroke="rgb(233,233,233)" stroke-width="1" opacity="1" d="M 257.5 290 L 260.5 294 L 257.5 290 Z " /><path fill="rgb(233,233,233)" stroke="rgb(233,233,233)" stroke-width="1" opacity="1" d="M 129.5 291 L 125.5 296 L 129.5 291 Z " /><path fill="rgb(233,233,233)" stroke="rgb(233,233,233)" stroke-width="1" opacity="1" d="M 254.5 294 L 257.5 298 L 254.5 294 Z " /><path fill="rgb(233,233,233)" stroke="rgb(233,233,233)" stroke-width="1" opacity="1" d="M 119.5 295 L 118.5 297 L 119.5 295 Z " /><path fill="rgb(233,233,233)" stroke="rgb(233,233,233)" stroke-width="1" opacity="1" d="M 262.5 296 L 264.5 299 L 262.5 296 Z " /><path fill="rgb(233,233,233)" stroke="rgb(233,233,233)" stroke-width="1" opacity="1" d="M 123.5 298 L 121.5 301 L 123.5 298 Z " /><path fill="rgb(233,233,233)" stroke="rgb(233,233,233)" stroke-width="1" opacity="1" d="M 259.5 300 L 264.5 306 L 259.5 300 Z " /><path fill="rgb(233,233,233)" stroke="rgb(233,233,233)" stroke-width="1" opacity="1" d="M 112.5 303 L 111.5 305 L 112.5 303 Z " /><path fill="rgb(233,233,233)" stroke="rgb(233,233,233)" stroke-width="1" opacity="1" d="M 115.5 307 L 114.5 309 L 115.5 307 Z " /><path fill="rgb(233,233,233)" stroke="rgb(233,233,233)" stroke-width="1" opacity="1" d="M 271.5 309 L 270.5 311 L 271.5 309 Z " /><path fill="rgb(233,233,233)" stroke="rgb(233,233,233)" stroke-width="1" opacity="1" d="M 408.5 315 Q 426.1 318.4 434 331.5 L 446 355.5 L 448 365.5 L 448 387.5 L 446 397.5 L 439 414.5 Q 430.1 430.6 416.5 442 Q 399 456.5 374.5 464 L 347.5 469 L 323.5 469 L 322.5 468 L 305.5 467 L 288 462.5 L 294 457.5 L 290.5 462 L 306.5 463 L 307.5 464 L 323 464 L 328 450.5 L 329 437.5 L 328 434 L 338.5 434 L 349 431 L 349 449.5 L 346 459.5 L 349.5 460 L 375.5 451 L 387 443.5 L 383 428.5 L 375 415.5 L 385 403.5 L 386 400 L 393 405.5 L 399 414.5 L 405.5 429 Q 422 413.5 428 387.5 Q 417.1 373.6 397 370 L 397 350 L 403.5 350 Q 419.1 353.6 430 361 L 429 351.5 L 425 339.5 L 420 329.5 L 408.5 315 Z " /><path fill="rgb(233,233,233)" stroke="rgb(233,233,233)" stroke-width="1" opacity="1" d="M 398.5 317 L 396.5 320 L 398.5 317 Z " /><path fill="rgb(233,233,233)" stroke="rgb(233,233,233)" stroke-width="1" opacity="1" d="M 373.5 416 L 370.5 420 L 373.5 416 Z " /><path fill="rgb(233,233,233)" stroke="rgb(233,233,233)" stroke-width="1" opacity="1" d="M 367.5 421 L 366.5 423 L 367.5 421 Z " /><path fill="rgb(233,233,233)" stroke="rgb(233,233,233)" stroke-width="1" opacity="1" d="M 364.5 423 L 363.5 425 L 364.5 423 Z " /><path fill="rgb(233,233,233)" stroke="rgb(233,233,233)" stroke-width="1" opacity="1" d="M 304.5 441 L 303.5 443 L 304.5 441 Z " /><path fill="rgb(233,233,233)" stroke="rgb(233,233,233)" stroke-width="1" opacity="1" d="M 301.5 446 L 300.5 448 L 301.5 446 Z " /><path fill="rgb(233,233,233)" stroke="rgb(233,233,233)" stroke-width="1" opacity="1" d="M 299.5 449 L 298.5 451 L 299.5 449 Z " /><path fill="rgb(233,233,233)" stroke="rgb(233,233,233)" stroke-width="1" opacity="1" d="M 297.5 452 L 295.5 455 L 297.5 452 Z " /><path fill="rgb(234,234,234)" stroke="rgb(234,234,234)" stroke-width="1" opacity="1" d="M 90 15 Q 94.5 14.2 96.5 17 L 120.5 37 L 126.5 40 L 143.5 34 L 163.5 30 Q 169.8 31.8 171.5 29 L 210.5 29 L 211.5 30 L 229.5 32 L 256.5 40 L 287.5 15 L 290.5 15 L 292 16.5 L 292 72.5 L 296 89.5 L 297 103.5 L 298 104.5 L 298 115.5 L 299 117.5 L 298 118.5 L 298 129.5 L 293 147.5 Q 284.6 167.5 268.5 180 L 261 185.5 Q 259.3 190.8 264.5 189 L 268.5 186 L 271 186 L 278 199.5 L 276.5 200 L 275.5 199 L 232.5 199 L 214.5 213 L 206.5 206 L 195.5 206 L 186.5 199 L 105.5 199 L 103 200.5 L 111.5 185 L 116.5 189 L 120 189 L 120 184 L 118.5 184 L 101 168.5 Q 91.3 157.2 86 141.5 L 83 127.5 L 83 107.5 L 84 106.5 L 86 85.5 L 89 73.5 L 89 17.5 L 90 15 Z M 141 89 L 139 90 L 136 94 L 137 101 Q 139 104 146 103 L 150 97 L 149 93 Q 147 88 141 89 Z M 237 89 L 235 90 Q 231 92 232 100 L 237 103 L 243 102 L 246 97 L 245 93 Q 243 88 237 89 Z M 187 100 L 184 101 L 180 106 Q 179 114 184 118 Q 183 120 186 119 L 188 122 L 188 131 L 183 135 L 174 135 L 172 137 L 175 140 Q 186 142 191 136 Q 196 142 208 140 L 209 137 L 208 135 L 197 134 L 193 130 L 193 122 L 195 121 L 201 113 L 201 104 Q 197 99 187 100 Z M 122 120 L 122 124 L 127 126 L 152 133 Q 158 135 156 130 L 149 126 L 128 120 L 122 120 Z M 255 120 L 227 128 Q 224 129 225 133 L 231 133 L 238 130 L 258 125 L 259 124 Q 261 118 255 120 Z M 148 141 L 147 142 L 122 145 Q 121 149 124 150 L 155 146 L 156 145 L 156 141 L 148 141 Z M 225 141 L 225 145 L 228 146 L 258 150 Q 260 149 259 145 L 235 142 L 234 141 L 225 141 Z " /><path fill="rgb(234,234,234)" stroke="rgb(234,234,234)" stroke-width="1" opacity="1" d="M 278.5 201 Q 297.3 235.2 308 277.5 L 310 288.5 L 310 296.5 L 311 297.5 L 311 305.5 L 312 306.5 L 313 347.5 L 312 348.5 L 312 361.5 L 311 362.5 L 310 375.5 L 306 393.5 L 301 408.5 Q 292.3 429.8 276.5 444 Q 270.7 449.2 261.5 451 L 119.5 451 L 107.5 446 L 94 432.5 L 83 414.5 L 74 388.5 L 70 366.5 L 70 358.5 L 69 357.5 L 69 309.5 L 70 308.5 L 70 299.5 L 71 298.5 L 71 290.5 L 72 289.5 L 73 278.5 L 78 260.5 L 92 222.5 L 102.5 202 L 104 204.5 L 105 217.5 L 108 227.5 L 119 248.5 L 81 280.5 L 82.5 284 L 85.5 284 L 127 248.5 L 135.5 238 L 142.5 237 Q 152.1 241.9 158 250.5 L 162 257.5 L 162 260.5 L 155.5 267 L 149.5 270 L 146.5 270 L 140.5 274 L 122 291.5 L 109 308.5 L 110 311 L 114 311 L 114 309.5 L 134.5 286 L 146.5 276 L 150.5 275 L 157.5 279 L 174.5 284 L 199.5 285 L 215.5 282 L 232.5 275 Q 244.8 282.7 254 293.5 L 268.5 311 L 272 309.5 L 268 301 L 265 299.5 Q 256.5 285.5 243.5 276 Q 237.5 270 227.5 268 L 220 261.5 L 219 258.5 Q 223.5 247.5 232.5 241 L 241.5 236 Q 249 239 253 245.5 L 267.5 261 L 293.5 282 Q 295.5 284.8 300 284 L 300 280.5 L 294.5 275 L 262 248.5 Q 276.3 230.8 278.5 201 Z " /><path fill="rgb(234,234,234)" stroke="rgb(234,234,234)" stroke-width="1" opacity="1" d="M 403.5 315 L 407.5 315 L 414 321.5 Q 427.4 336.3 430 361 L 411.5 352 L 397 350 L 394 334.5 L 394 325.5 Q 395.3 319.8 399.5 317 L 403.5 315 Z " /><path fill="rgb(234,234,234)" stroke="rgb(234,234,234)" stroke-width="1" opacity="1" d="M 397 370 Q 417.1 373.6 428 387.5 Q 422 413.5 405.5 429 L 396 409.5 L 387 399.5 Q 395.3 387.7 397 370 Z " /><path fill="rgb(234,234,234)" stroke="rgb(234,234,234)" stroke-width="1" opacity="1" d="M 374.5 416 L 383 428.5 L 387 443.5 Q 371 456 346.5 460 L 347 458.5 L 349 449.5 L 349 431 Q 364.6 426.9 374.5 416 Z " /><path fill="rgb(234,234,234)" stroke="rgb(234,234,234)" stroke-width="1" opacity="1" d="M 309 432 Q 316.2 435.2 328 434 L 329 443.5 L 327 454.5 L 323 464 L 307.5 464 L 306.5 463 Q 296.3 464.2 290 461.5 Q 302.6 449.3 309 432 Z " /></svg>