<svg width="512" height="512" version="1.1" xmlns="http://www.w3.org/2000/svg" desc="Created with imagetracer.js version 1.2.6" ><path fill="rgb(91,92,93)" stroke="rgb(91,92,93)" stroke-width="1" opacity="0.9137254901960784" d="M 235.5 15 L 246.5 15 L 253.5 17 L 272.5 29 Q 301.1 50.9 326 76.5 L 330 87.5 L 333 103.5 L 334 130.5 L 335 131.5 L 335 160.5 L 334.5 162 Q 341 163.5 344 168.5 Q 350.2 174.8 348 189.5 Q 345.9 196.9 340.5 201 Q 334.4 206.9 321.5 206 Q 312.1 203.9 307 197.5 L 303 190.5 L 302 179.5 L 306 169.5 L 310 165.5 L 310 157.5 L 309 156.5 L 306.5 122 L 305 123.5 L 303 132.5 L 298.5 137 L 294 138 L 298 162.5 L 298 178.5 L 293 198.5 L 287 210.5 L 272 227.5 L 287 254.5 L 298 281.5 L 305 304.5 L 313 346.5 L 315 385.5 L 314 386.5 L 314 402.5 L 313 403.5 L 312 416.5 L 305 442 L 309.5 443 L 328.5 443 Q 351.3 437.8 363 421.5 Q 370.6 411.6 374 397.5 L 375 392.5 L 375 372.5 L 372 359.5 L 372 352.5 L 377 342 Q 381.8 337.5 393.5 339 Q 407.3 343.7 415 354.5 Q 423 364.5 427 378.5 L 429 387.5 L 429 406.5 L 424 425.5 L 419 435.5 Q 410.3 449.8 397.5 460 Q 381.9 472.9 359.5 479 L 336.5 483 L 314.5 483 L 313.5 482 L 297.5 481 L 280.5 477 L 270.5 483 L 263.5 484 L 262 485.5 Q 262.7 491.7 258.5 493 L 245.5 497 L 230.5 497 L 221.5 495 L 213 488.5 L 211.5 485 L 185.5 485 L 185 486.5 L 180.5 493 L 166.5 497 L 152.5 497 L 140.5 494 L 136 489.5 L 133.5 484 Q 125.2 483.8 120.5 480 L 107 467.5 L 94 445.5 L 86 419.5 L 85 407.5 L 84 406.5 L 84 397.5 L 83 396.5 L 83 362.5 L 84 361.5 L 84 350.5 L 85 349.5 L 87 329.5 L 96 292.5 L 110 255.5 L 125 226.5 Q 111.2 215.3 104 197.5 L 100 181.5 L 100 158.5 L 101 157.5 L 103 137.5 L 105 131.5 L 105 81.5 L 107 77 Q 109.4 75.3 115.5 76 L 134.5 91 L 136 89.5 L 141 65.5 L 146.5 59 L 153.5 57 L 155.5 58 Q 173.5 42 195.5 30 Q 212.4 19.4 235.5 15 Z M 233 20 L 222 23 L 200 33 Q 179 44 162 59 L 168 61 L 190 65 L 304 92 L 309 100 L 314 163 L 323 160 L 329 160 L 330 161 L 330 121 L 329 120 L 329 109 L 328 108 L 327 95 L 322 80 Q 294 50 261 26 L 249 20 L 233 20 Z M 150 62 L 145 67 L 139 93 L 141 99 L 147 102 L 213 116 L 288 134 L 297 133 L 300 129 L 305 108 Q 306 101 304 98 L 295 93 L 282 91 L 273 88 L 260 86 L 251 83 L 238 81 L 158 62 L 150 62 Z M 112 80 L 110 82 L 110 129 L 107 140 L 105 161 L 104 162 L 104 180 L 106 190 Q 110 204 118 214 L 137 231 L 136 233 L 130 229 L 113 260 L 98 301 L 90 338 L 89 353 L 88 354 L 88 366 L 87 367 L 88 405 L 92 427 Q 96 443 104 456 L 112 467 Q 120 478 136 480 L 136 474 L 141 463 Q 139 456 142 455 L 142 430 Q 139 428 141 422 L 127 365 Q 125 357 130 359 L 143 414 L 145 425 L 145 435 L 146 436 L 145 460 L 139 477 Q 138 484 140 488 L 145 491 L 156 493 L 171 492 L 179 489 L 182 481 L 181 469 L 180 468 L 180 458 L 179 457 L 178 420 L 177 419 L 177 377 L 180 361 Q 179 358 183 359 L 181 381 L 180 382 L 181 429 L 182 430 L 182 448 L 183 449 L 183 464 L 185 472 L 185 480 L 187 481 L 212 481 L 213 469 L 214 468 L 214 458 L 215 457 L 216 419 L 217 418 L 217 377 L 214 361 L 218 359 L 219 372 L 220 373 L 220 381 L 221 382 L 219 448 L 218 449 L 218 465 L 216 472 L 216 485 L 217 487 L 221 490 L 235 493 L 250 492 L 258 488 L 258 475 L 253 464 Q 255 457 252 456 L 252 429 Q 255 427 253 421 L 267 361 L 269 359 L 271 361 L 258 414 L 257 425 L 256 426 L 256 436 L 255 437 L 256 460 L 261 472 L 262 480 Q 271 480 277 475 Q 292 463 300 443 L 306 425 L 309 409 L 309 401 L 310 400 L 310 359 L 309 358 L 309 349 L 308 348 L 308 342 L 304 319 Q 292 268 269 230 L 263 233 L 260 232 L 261 229 L 271 223 Q 281 214 287 202 L 291 192 L 294 176 L 293 157 L 292 156 L 290 139 L 285 136 L 281 136 L 206 118 L 162 109 L 141 103 L 137 99 L 116 81 L 112 80 Z M 322 164 L 315 167 L 308 175 L 306 183 L 307 189 L 310 195 Q 314 200 323 202 Q 331 203 336 199 Q 342 195 344 188 Q 346 175 340 171 Q 335 163 322 164 Z M 386 343 L 383 344 L 377 351 L 377 365 L 380 379 Q 379 411 363 429 Q 354 439 341 444 L 324 448 L 315 448 L 314 447 L 303 446 Q 296 462 284 473 L 286 474 L 300 477 L 319 478 L 320 479 L 343 478 L 365 473 Q 383 467 397 455 Q 419 438 425 404 L 425 390 L 423 380 Q 419 365 410 356 L 401 347 L 392 343 L 386 343 Z " /><path fill="rgb(91,92,93)" stroke="rgb(91,92,93)" stroke-width="1" opacity="0.9137254901960784" d="M 156.5 139 Q 161.3 139.3 163 142.5 L 162 149 L 155.5 150 L 152 144.5 L 154.5 140 L 156.5 139 Z " /><path fill="rgb(91,92,93)" stroke="rgb(91,92,93)" stroke-width="1" opacity="0.9137254901960784" d="M 241.5 139 L 247 142.5 L 246 149 L 240.5 150 L 237 147.5 L 236 144.5 L 238.5 140 L 241.5 139 Z " /><path fill="rgb(91,92,93)" stroke="rgb(91,92,93)" stroke-width="1" opacity="0.9137254901960784" d="M 194.5 163 Q 203.9 161.1 207 165.5 L 207 172.5 L 200 181.5 L 200 184.5 L 201 189.5 L 203.5 192 L 214 193 L 213.5 196 L 202.5 196 L 198.5 193 L 194.5 196 L 183 196 L 184.5 193 Q 193.2 194.7 196 190.5 Q 198.3 187.3 197 180.5 Q 190.2 176.8 190 166.5 L 194.5 163 Z " /><path fill="rgb(91,92,93)" stroke="rgb(91,92,93)" stroke-width="1" opacity="0.9137254901960784" d="M 139 180 L 160.5 185 L 168 188.5 L 166.5 191 L 139 183 L 139 180 Z " /><path fill="rgb(91,92,93)" stroke="rgb(91,92,93)" stroke-width="1" opacity="0.9137254901960784" d="M 254.5 180 Q 259.3 178.3 258 182.5 L 256.5 184 L 230.5 191 L 229 188.5 L 230.5 187 L 254.5 180 Z " /><path fill="rgb(91,92,93)" stroke="rgb(91,92,93)" stroke-width="1" opacity="0.9137254901960784" d="M 164.5 198 Q 169.3 196.3 168 200.5 L 166.5 202 Q 161.8 200.8 160.5 203 L 139 205 Q 137.3 200.9 141.5 202 L 164.5 198 Z " /><path fill="rgb(91,92,93)" stroke="rgb(91,92,93)" stroke-width="1" opacity="0.9137254901960784" d="M 230.5 198 L 258 202 L 258 205 L 251.5 205 L 250.5 204 L 230.5 202 L 229 200.5 L 230.5 198 Z " /><path fill="rgb(0,0,0)" stroke="rgb(0,0,0)" stroke-width="1" opacity="0" d="M 0 0 L 512 0 L 512 512 L 0 512 L 0 0 Z M 236 15 Q 212 19 196 30 Q 174 42 156 58 L 154 57 L 147 59 L 141 66 L 136 90 L 135 91 L 116 76 Q 109 75 107 77 L 105 82 L 105 132 L 103 138 L 101 158 L 100 159 L 100 182 L 104 198 Q 111 215 125 227 L 110 256 L 96 293 L 87 330 L 85 350 L 84 351 L 84 362 L 83 363 L 83 397 L 84 398 L 84 407 L 85 408 L 86 420 L 94 446 L 107 468 L 121 480 Q 125 484 134 484 L 136 490 L 141 494 L 153 497 L 167 497 L 181 493 L 185 487 L 186 485 L 212 485 L 213 489 L 222 495 L 231 497 L 246 497 L 259 493 Q 263 492 262 486 L 264 484 L 271 483 L 281 477 L 298 481 L 314 482 L 315 483 L 337 483 L 360 479 Q 382 473 398 460 Q 410 450 419 436 L 424 426 L 429 407 L 429 388 L 427 379 Q 423 365 415 355 Q 407 344 394 339 Q 382 338 377 342 L 372 353 L 372 360 L 375 373 L 375 393 L 374 398 Q 371 412 363 422 Q 351 438 329 443 L 310 443 L 305 442 L 312 417 L 313 404 L 314 403 L 314 387 L 315 386 L 313 347 L 305 305 L 298 282 L 287 255 L 272 228 L 287 211 L 293 199 L 298 179 L 298 163 L 294 138 L 299 137 L 303 133 L 305 124 L 307 122 L 309 157 L 310 158 L 310 166 L 306 170 L 302 180 L 303 191 L 307 198 Q 312 204 322 206 Q 334 207 341 201 Q 346 197 348 190 Q 350 175 344 169 Q 341 164 335 162 L 335 161 L 335 132 L 334 131 L 333 104 L 330 88 L 326 77 Q 301 51 273 29 L 254 17 L 247 15 L 236 15 Z " /><path fill="rgb(232,233,232)" stroke="rgb(232,233,232)" stroke-width="1" opacity="1" d="M 148.5 63 L 146.5 66 L 148.5 63 Z " /><path fill="rgb(232,233,232)" stroke="rgb(232,233,232)" stroke-width="1" opacity="1" d="M 111.5 80 Q 115.5 79.5 116 82.5 L 113.5 81 L 110.5 82 L 111.5 80 Z " /><path fill="rgb(232,233,232)" stroke="rgb(232,233,232)" stroke-width="1" opacity="1" d="M 117.5 83 L 120.5 87 L 117.5 83 Z " /><path fill="rgb(232,233,232)" stroke="rgb(232,233,232)" stroke-width="1" opacity="1" d="M 122.5 87 L 125.5 91 L 122.5 87 Z " /><path fill="rgb(232,233,232)" stroke="rgb(232,233,232)" stroke-width="1" opacity="1" d="M 141 87 L 288.5 120 L 291 116.5 Q 291.5 106.5 295 99.5 L 295 94 L 300.5 95 L 304 98.5 L 305 105.5 L 300 127.5 L 295.5 133 L 289.5 134 L 271.5 129 L 267.5 129 L 249.5 124 L 245.5 124 L 227.5 119 L 223.5 119 L 144.5 101 L 140 96.5 Q 139.1 89.7 141 87 Z " /><path fill="rgb(232,233,232)" stroke="rgb(232,233,232)" stroke-width="1" opacity="1" d="M 127.5 91 L 130.5 95 L 127.5 91 Z " /><path fill="rgb(232,233,232)" stroke="rgb(232,233,232)" stroke-width="1" opacity="1" d="M 132.5 95 L 135.5 99 L 132.5 95 Z " /><path fill="rgb(232,233,232)" stroke="rgb(232,233,232)" stroke-width="1" opacity="1" d="M 137.5 100 L 140.5 104 L 137.5 100 Z " /><path fill="rgb(232,233,232)" stroke="rgb(232,233,232)" stroke-width="1" opacity="1" d="M 154.5 139 L 153 141.5 L 152.5 143 L 152 141.5 L 154.5 139 Z " /><path fill="rgb(232,233,232)" stroke="rgb(232,233,232)" stroke-width="1" opacity="1" d="M 238.5 139 L 237.5 141 L 238.5 139 Z " /><path fill="rgb(232,233,232)" stroke="rgb(232,233,232)" stroke-width="1" opacity="1" d="M 163.5 142 L 164 146.5 L 163 146.5 L 163.5 142 Z " /><path fill="rgb(232,233,232)" stroke="rgb(232,233,232)" stroke-width="1" opacity="1" d="M 152.5 147 L 154.5 150 L 152.5 147 Z " /><path fill="rgb(232,233,232)" stroke="rgb(232,233,232)" stroke-width="1" opacity="1" d="M 236.5 147 L 238.5 150 L 236.5 147 Z " /><path fill="rgb(232,233,232)" stroke="rgb(232,233,232)" stroke-width="1" opacity="1" d="M 106.5 148 L 107 150.5 L 106 150.5 L 106.5 148 Z " /><path fill="rgb(232,233,232)" stroke="rgb(232,233,232)" stroke-width="1" opacity="1" d="M 162.5 148 L 161.5 150 L 162.5 148 Z " /><path fill="rgb(232,233,232)" stroke="rgb(232,233,232)" stroke-width="1" opacity="1" d="M 246.5 148 L 245.5 150 L 246.5 148 Z " /><path fill="rgb(232,233,232)" stroke="rgb(232,233,232)" stroke-width="1" opacity="1" d="M 156.5 150 L 160 150.5 L 156.5 151 L 156.5 150 Z " /><path fill="rgb(232,233,232)" stroke="rgb(232,233,232)" stroke-width="1" opacity="1" d="M 240.5 150 L 244 150.5 L 240.5 151 L 240.5 150 Z " /><path fill="rgb(232,233,232)" stroke="rgb(232,233,232)" stroke-width="1" opacity="1" d="M 291.5 151 L 292 153.5 L 291 153.5 L 291.5 151 Z " /><path fill="rgb(232,233,232)" stroke="rgb(232,233,232)" stroke-width="1" opacity="1" d="M 105.5 155 L 106 158.5 L 105 158.5 L 105.5 155 Z " /><path fill="rgb(232,233,232)" stroke="rgb(232,233,232)" stroke-width="1" opacity="1" d="M 292.5 160 L 293 162.5 L 292 162.5 L 292.5 160 Z " /><path fill="rgb(232,233,232)" stroke="rgb(232,233,232)" stroke-width="1" opacity="1" d="M 195.5 162 L 203 162.5 L 195.5 163 L 195.5 162 Z " /><path fill="rgb(232,233,232)" stroke="rgb(232,233,232)" stroke-width="1" opacity="1" d="M 205.5 163 L 208 166.5 L 207 166.5 L 205.5 163 Z " /><path fill="rgb(232,233,232)" stroke="rgb(232,233,232)" stroke-width="1" opacity="1" d="M 104.5 164 L 105 176.5 L 104 176.5 L 104.5 164 Z " /><path fill="rgb(232,233,232)" stroke="rgb(232,233,232)" stroke-width="1" opacity="1" d="M 323.5 164 L 328 164.5 L 323.5 165 L 323.5 164 Z " /><path fill="rgb(232,233,232)" stroke="rgb(232,233,232)" stroke-width="1" opacity="1" d="M 189.5 167 L 190 170.5 L 189 170.5 L 189.5 167 Z " /><path fill="rgb(232,233,232)" stroke="rgb(232,233,232)" stroke-width="1" opacity="1" d="M 312.5 169 L 311.5 171 L 312.5 169 Z " /><path fill="rgb(232,233,232)" stroke="rgb(232,233,232)" stroke-width="1" opacity="1" d="M 308.5 175 Q 310.1 182.9 316.5 186 Q 321.3 190.7 332.5 189 Q 339.8 187.3 343.5 182 L 344 186.5 Q 342.2 194.2 336.5 198 Q 331.7 202.7 320.5 201 Q 313.3 199.2 310 193.5 Q 305.5 189 307 178.5 L 308.5 175 Z " /><path fill="rgb(232,233,232)" stroke="rgb(232,233,232)" stroke-width="1" opacity="1" d="M 205.5 176 L 202.5 180 L 205.5 176 Z " /><path fill="rgb(232,233,232)" stroke="rgb(232,233,232)" stroke-width="1" opacity="1" d="M 192.5 177 L 194.5 180 L 192.5 177 Z " /><path fill="rgb(232,233,232)" stroke="rgb(232,233,232)" stroke-width="1" opacity="1" d="M 292.5 178 L 293 180.5 L 292 180.5 L 292.5 178 Z " /><path fill="rgb(232,233,232)" stroke="rgb(232,233,232)" stroke-width="1" opacity="1" d="M 139.5 179 L 143 179.5 L 139 180 L 140 183.5 L 138 182.5 L 139.5 179 Z " /><path fill="rgb(232,233,232)" stroke="rgb(232,233,232)" stroke-width="1" opacity="1" d="M 255.5 179 L 259 180.5 L 257.5 180 Q 254.5 180.5 255.5 179 Z " /><path fill="rgb(232,233,232)" stroke="rgb(232,233,232)" stroke-width="1" opacity="1" d="M 196.5 181 L 197 184.5 L 196 184.5 L 196.5 181 Z " /><path fill="rgb(232,233,232)" stroke="rgb(232,233,232)" stroke-width="1" opacity="1" d="M 230.5 186 L 232 186.5 L 229 188.5 L 230 190.5 L 228 189.5 L 230.5 186 Z " /><path fill="rgb(232,233,232)" stroke="rgb(232,233,232)" stroke-width="1" opacity="1" d="M 195.5 189 L 193.5 192 L 195.5 189 Z " /><path fill="rgb(232,233,232)" stroke="rgb(232,233,232)" stroke-width="1" opacity="1" d="M 202.5 190 L 203.5 192 L 202.5 190 Z " /><path fill="rgb(232,233,232)" stroke="rgb(232,233,232)" stroke-width="1" opacity="1" d="M 183.5 192 L 191 192.5 L 183.5 193 L 183.5 192 Z " /><path fill="rgb(232,233,232)" stroke="rgb(232,233,232)" stroke-width="1" opacity="1" d="M 206.5 192 Q 213.3 190.3 215 193.5 L 213.5 193 L 206.5 193 L 206.5 192 Z " /><path fill="rgb(232,233,232)" stroke="rgb(232,233,232)" stroke-width="1" opacity="1" d="M 198.5 193 L 199.5 195 L 198.5 194 L 196 195.5 L 198.5 193 Z " /><path fill="rgb(232,233,232)" stroke="rgb(232,233,232)" stroke-width="1" opacity="1" d="M 182.5 194 L 184 196.5 L 182 195.5 L 182.5 194 Z " /><path fill="rgb(232,233,232)" stroke="rgb(232,233,232)" stroke-width="1" opacity="1" d="M 165.5 197 L 169 198.5 L 167.5 198 Q 164.5 198.5 165.5 197 Z " /><path fill="rgb(232,233,232)" stroke="rgb(232,233,232)" stroke-width="1" opacity="1" d="M 158.5 198 L 161 198.5 L 158.5 199 L 158.5 198 Z " /><path fill="rgb(232,233,232)" stroke="rgb(232,233,232)" stroke-width="1" opacity="1" d="M 151.5 199 L 154 199.5 L 151.5 200 L 151.5 199 Z " /><path fill="rgb(232,233,232)" stroke="rgb(232,233,232)" stroke-width="1" opacity="1" d="M 228.5 199 L 230 201.5 L 228 200.5 L 228.5 199 Z " /><path fill="rgb(232,233,232)" stroke="rgb(232,233,232)" stroke-width="1" opacity="1" d="M 144.5 200 L 147 200.5 L 144.5 201 L 144.5 200 Z " /><path fill="rgb(232,233,232)" stroke="rgb(232,233,232)" stroke-width="1" opacity="1" d="M 251.5 200 L 254 200.5 L 251.5 201 L 251.5 200 Z " /><path fill="rgb(232,233,232)" stroke="rgb(232,233,232)" stroke-width="1" opacity="1" d="M 139.5 201 L 139 202.5 L 140 205.5 L 138 204.5 L 139.5 201 Z " /><path fill="rgb(232,233,232)" stroke="rgb(232,233,232)" stroke-width="1" opacity="1" d="M 163.5 202 L 166 202.5 L 163.5 203 L 163.5 202 Z " /><path fill="rgb(232,233,232)" stroke="rgb(232,233,232)" stroke-width="1" opacity="1" d="M 231.5 202 L 234 202.5 L 231.5 203 L 231.5 202 Z " /><path fill="rgb(232,233,232)" stroke="rgb(232,233,232)" stroke-width="1" opacity="1" d="M 112.5 203 L 115 206.5 L 113 205.5 L 112.5 203 Z " /><path fill="rgb(232,233,232)" stroke="rgb(232,233,232)" stroke-width="1" opacity="1" d="M 156.5 203 L 159 203.5 L 156.5 204 L 156.5 203 Z " /><path fill="rgb(232,233,232)" stroke="rgb(232,233,232)" stroke-width="1" opacity="1" d="M 149.5 204 L 152 204.5 L 149.5 205 L 149.5 204 Z " /><path fill="rgb(232,233,232)" stroke="rgb(232,233,232)" stroke-width="1" opacity="1" d="M 284.5 204 L 283.5 206 L 284.5 204 Z " /><path fill="rgb(232,233,232)" stroke="rgb(232,233,232)" stroke-width="1" opacity="1" d="M 142.5 205 L 145 205.5 L 142.5 206 L 142.5 205 Z " /><path fill="rgb(232,233,232)" stroke="rgb(232,233,232)" stroke-width="1" opacity="1" d="M 253.5 205 L 256 205.5 L 253.5 206 L 253.5 205 Z " /><path fill="rgb(232,233,232)" stroke="rgb(232,233,232)" stroke-width="1" opacity="1" d="M 115.5 208 L 116.5 210 L 115.5 208 Z " /><path fill="rgb(232,233,232)" stroke="rgb(232,233,232)" stroke-width="1" opacity="1" d="M 281.5 209 L 279.5 212 L 281.5 209 Z " /><path fill="rgb(232,233,232)" stroke="rgb(232,233,232)" stroke-width="1" opacity="1" d="M 117.5 211 L 119.5 214 L 117.5 211 Z " /><path fill="rgb(232,233,232)" stroke="rgb(232,233,232)" stroke-width="1" opacity="1" d="M 278.5 213 L 273.5 219 L 278.5 213 Z " /><path fill="rgb(232,233,232)" stroke="rgb(232,233,232)" stroke-width="1" opacity="1" d="M 121.5 216 L 128.5 224 L 121.5 216 Z " /><path fill="rgb(232,233,232)" stroke="rgb(232,233,232)" stroke-width="1" opacity="1" d="M 270.5 221 L 267.5 225 L 270.5 221 Z " /><path fill="rgb(232,233,232)" stroke="rgb(232,233,232)" stroke-width="1" opacity="1" d="M 130.5 224 L 132.5 227 L 130.5 224 Z " /><path fill="rgb(232,233,232)" stroke="rgb(232,233,232)" stroke-width="1" opacity="1" d="M 264.5 226 L 263.5 228 L 264.5 226 Z " /><path fill="rgb(232,233,232)" stroke="rgb(232,233,232)" stroke-width="1" opacity="1" d="M 134.5 227 L 136.5 230 L 134.5 227 Z " /><path fill="rgb(232,233,232)" stroke="rgb(232,233,232)" stroke-width="1" opacity="1" d="M 261.5 228 L 260.5 230 L 261.5 228 Z " /><path fill="rgb(232,233,232)" stroke="rgb(232,233,232)" stroke-width="1" opacity="1" d="M 130.5 230 L 131.5 232 L 130.5 230 Z " /><path fill="rgb(232,233,232)" stroke="rgb(232,233,232)" stroke-width="1" opacity="1" d="M 265.5 231 L 264.5 233 L 265.5 231 Z " /><path fill="rgb(232,233,232)" stroke="rgb(232,233,232)" stroke-width="1" opacity="1" d="M 260.5 232 L 263 233.5 L 261.5 234 L 260.5 232 Z " /><path fill="rgb(232,233,232)" stroke="rgb(232,233,232)" stroke-width="1" opacity="1" d="M 270.5 234 L 271.5 236 L 270.5 234 Z " /><path fill="rgb(232,233,232)" stroke="rgb(232,233,232)" stroke-width="1" opacity="1" d="M 126.5 235 L 125.5 237 L 126.5 235 Z " /><path fill="rgb(232,233,232)" stroke="rgb(232,233,232)" stroke-width="1" opacity="1" d="M 94.5 318 L 95 320.5 L 94 320.5 L 94.5 318 Z " /><path fill="rgb(232,233,232)" stroke="rgb(232,233,232)" stroke-width="1" opacity="1" d="M 303.5 320 L 307 337.5 L 308 351.5 L 309 352.5 L 310 393.5 L 309 394.5 L 308 412.5 L 302 436.5 Q 294.2 458.7 278.5 473 Q 272.1 478.9 262 480 L 262 473.5 L 257 462.5 L 259.5 462 Q 265.6 462.6 268.5 460 L 279 451.5 L 290 436.5 L 296 423.5 L 301 407.5 L 304 391.5 L 304 384.5 L 305 383.5 L 306 350.5 L 305 349.5 L 305 335.5 L 304 334.5 L 303.5 320 Z " /><path fill="rgb(232,233,232)" stroke="rgb(232,233,232)" stroke-width="1" opacity="1" d="M 93.5 323 L 94 329.5 L 93 330.5 L 93 340.5 L 92 341.5 L 92 377.5 L 93 378.5 L 93 387.5 L 94 388.5 L 94 395.5 L 96 405.5 L 103 427.5 Q 110.7 445.3 124.5 457 L 131.5 461 L 140 463.5 L 136 471.5 L 135 480 Q 118.1 476.7 110 463.5 Q 96.3 446.2 91 420.5 L 89 401.5 L 88 400.5 L 88 358.5 L 89 357.5 L 90 340.5 L 93.5 323 Z " /><path fill="rgb(232,233,232)" stroke="rgb(232,233,232)" stroke-width="1" opacity="1" d="M 390.5 344 L 393.5 344 L 401.5 348 L 412 358.5 Q 419.4 368.1 423 381.5 L 425 398.5 L 424 399.5 L 424 408.5 L 420 422.5 Q 412.6 440.1 399.5 452 Q 383.4 466.9 359.5 474 L 339.5 478 L 310.5 478 L 309.5 477 L 291.5 475 L 285 472.5 Q 286.2 469.8 287.5 472 Q 291.3 474.7 299.5 473 L 300.5 474 L 313.5 474 L 319 462.5 L 320 450.5 L 319 448 L 327.5 448 L 337.5 445 L 337 446.5 Q 339.5 450 338 457.5 L 335 470.5 L 336.5 471 L 355.5 465 L 370 456.5 L 370 451.5 L 368 444.5 L 360.5 433 L 357.5 435 L 366 425.5 L 370 418 L 375 421.5 Q 382.9 430.1 386.5 443 Q 401.5 430 407 407.5 Q 398.4 395.1 380.5 392 L 379 392.5 L 380 390.5 L 380 374.5 L 379 372.5 L 380 372.5 Q 379.4 375.3 385.5 374 L 395.5 377 L 407.5 384 L 408 378.5 L 401 358.5 L 390.5 344 Z " /><path fill="rgb(232,233,232)" stroke="rgb(232,233,232)" stroke-width="1" opacity="1" d="M 381.5 345 L 379.5 348 L 381.5 345 Z " /><path fill="rgb(232,233,232)" stroke="rgb(232,233,232)" stroke-width="1" opacity="1" d="M 127.5 358 L 131 359.5 L 129.5 359 L 126.5 360 L 127.5 358 Z " /><path fill="rgb(232,233,232)" stroke="rgb(232,233,232)" stroke-width="1" opacity="1" d="M 180.5 358 L 184 359.5 L 183.5 363 L 183 359 L 179.5 360 L 180.5 358 Z " /><path fill="rgb(232,233,232)" stroke="rgb(232,233,232)" stroke-width="1" opacity="1" d="M 215.5 358 L 219 359.5 L 218.5 362 L 218 359 Q 214.7 359.8 215.5 358 Z " /><path fill="rgb(232,233,232)" stroke="rgb(232,233,232)" stroke-width="1" opacity="1" d="M 267.5 358 L 271 358.5 L 267.5 359 L 267.5 358 Z " /><path fill="rgb(232,233,232)" stroke="rgb(232,233,232)" stroke-width="1" opacity="1" d="M 214.5 364 L 215 366.5 L 214 366.5 L 214.5 364 Z " /><path fill="rgb(232,233,232)" stroke="rgb(232,233,232)" stroke-width="1" opacity="1" d="M 219.5 366 L 220 368.5 L 219 368.5 L 219.5 366 Z " /><path fill="rgb(232,233,232)" stroke="rgb(232,233,232)" stroke-width="1" opacity="1" d="M 182.5 368 L 183 370.5 L 182 370.5 L 182.5 368 Z " /><path fill="rgb(232,233,232)" stroke="rgb(232,233,232)" stroke-width="1" opacity="1" d="M 177.5 370 L 178 372.5 L 177 372.5 L 177.5 370 Z " /><path fill="rgb(232,233,232)" stroke="rgb(232,233,232)" stroke-width="1" opacity="1" d="M 215.5 372 L 216 374.5 L 215 374.5 L 215.5 372 Z " /><path fill="rgb(232,233,232)" stroke="rgb(232,233,232)" stroke-width="1" opacity="1" d="M 220.5 374 L 221 376.5 L 220 376.5 L 220.5 374 Z " /><path fill="rgb(232,233,232)" stroke="rgb(232,233,232)" stroke-width="1" opacity="1" d="M 181.5 376 L 182 378.5 L 181 378.5 L 181.5 376 Z " /><path fill="rgb(232,233,232)" stroke="rgb(232,233,232)" stroke-width="1" opacity="1" d="M 176.5 378 L 177 382.5 L 176 382.5 L 176.5 378 Z " /><path fill="rgb(232,233,232)" stroke="rgb(232,233,232)" stroke-width="1" opacity="1" d="M 216.5 380 L 217 406.5 L 216 406.5 L 216.5 380 Z " /><path fill="rgb(232,233,232)" stroke="rgb(232,233,232)" stroke-width="1" opacity="1" d="M 176.5 399 L 177 411.5 L 176 411.5 L 176.5 399 Z " /><path fill="rgb(232,233,232)" stroke="rgb(232,233,232)" stroke-width="1" opacity="1" d="M 181.5 412 L 182 420.5 L 181 420.5 L 181.5 412 Z " /><path fill="rgb(232,233,232)" stroke="rgb(232,233,232)" stroke-width="1" opacity="1" d="M 220.5 416 L 221 423.5 L 220 423.5 L 220.5 416 Z " /><path fill="rgb(232,233,232)" stroke="rgb(232,233,232)" stroke-width="1" opacity="1" d="M 257.5 420 L 258 422.5 L 257 422.5 L 257.5 420 Z " /><path fill="rgb(232,233,232)" stroke="rgb(232,233,232)" stroke-width="1" opacity="1" d="M 252.5 422 L 253 424.5 L 252 424.5 L 252.5 422 Z " /><path fill="rgb(232,233,232)" stroke="rgb(232,233,232)" stroke-width="1" opacity="1" d="M 215.5 423 L 216 430.5 L 215 430.5 L 215.5 423 Z " /><path fill="rgb(232,233,232)" stroke="rgb(232,233,232)" stroke-width="1" opacity="1" d="M 140.5 424 L 141 426.5 L 140 426.5 L 140.5 424 Z " /><path fill="rgb(232,233,232)" stroke="rgb(232,233,232)" stroke-width="1" opacity="1" d="M 145.5 426 L 146 429.5 L 145 429.5 L 145.5 426 Z " /><path fill="rgb(232,233,232)" stroke="rgb(232,233,232)" stroke-width="1" opacity="1" d="M 177.5 427 L 178 433.5 L 177 433.5 L 177.5 427 Z " /><path fill="rgb(232,233,232)" stroke="rgb(232,233,232)" stroke-width="1" opacity="1" d="M 256.5 428 L 257 431.5 L 256 431.5 L 256.5 428 Z " /><path fill="rgb(232,233,232)" stroke="rgb(232,233,232)" stroke-width="1" opacity="1" d="M 251.5 431 L 252 436.5 L 251 436.5 L 251.5 431 Z " /><path fill="rgb(232,233,232)" stroke="rgb(232,233,232)" stroke-width="1" opacity="1" d="M 141.5 434 L 142 449.5 L 141 449.5 L 141.5 434 Z " /><path fill="rgb(232,233,232)" stroke="rgb(232,233,232)" stroke-width="1" opacity="1" d="M 182.5 434 L 183 440.5 L 182 440.5 L 182.5 434 Z " /><path fill="rgb(232,233,232)" stroke="rgb(232,233,232)" stroke-width="1" opacity="1" d="M 355.5 435 L 353.5 438 L 355.5 435 Z " /><path fill="rgb(232,233,232)" stroke="rgb(232,233,232)" stroke-width="1" opacity="1" d="M 219.5 437 L 220 443.5 L 219 443.5 L 219.5 437 Z " /><path fill="rgb(232,233,232)" stroke="rgb(232,233,232)" stroke-width="1" opacity="1" d="M 351.5 438 L 350.5 440 L 351.5 438 Z " /><path fill="rgb(232,233,232)" stroke="rgb(232,233,232)" stroke-width="1" opacity="1" d="M 214.5 444 L 215 449.5 L 214 449.5 L 214.5 444 Z " /><path fill="rgb(232,233,232)" stroke="rgb(232,233,232)" stroke-width="1" opacity="1" d="M 302.5 446 L 305 446.5 L 302.5 447 L 302.5 446 Z " /><path fill="rgb(232,233,232)" stroke="rgb(232,233,232)" stroke-width="1" opacity="1" d="M 178.5 447 L 179 452.5 L 178 452.5 L 178.5 447 Z " /><path fill="rgb(232,233,232)" stroke="rgb(232,233,232)" stroke-width="1" opacity="1" d="M 251.5 448 L 252 453.5 L 251 453.5 L 251.5 448 Z " /><path fill="rgb(232,233,232)" stroke="rgb(232,233,232)" stroke-width="1" opacity="1" d="M 183.5 452 L 184 457.5 L 183 457.5 L 183.5 452 Z " /><path fill="rgb(232,233,232)" stroke="rgb(232,233,232)" stroke-width="1" opacity="1" d="M 256.5 453 L 257 456.5 L 256 456.5 L 256.5 453 Z " /><path fill="rgb(232,233,232)" stroke="rgb(232,233,232)" stroke-width="1" opacity="1" d="M 145.5 455 L 146 458.5 L 145 458.5 L 145.5 455 Z " /><path fill="rgb(232,233,232)" stroke="rgb(232,233,232)" stroke-width="1" opacity="1" d="M 218.5 455 L 219 460.5 L 218 460.5 L 218.5 455 Z " /><path fill="rgb(232,233,232)" stroke="rgb(232,233,232)" stroke-width="1" opacity="1" d="M 297.5 456 L 296.5 458 L 297.5 456 Z " /><path fill="rgb(232,233,232)" stroke="rgb(232,233,232)" stroke-width="1" opacity="1" d="M 140.5 458 L 141 460.5 L 140 460.5 L 140.5 458 Z " /><path fill="rgb(232,233,232)" stroke="rgb(232,233,232)" stroke-width="1" opacity="1" d="M 252.5 460 L 253 462.5 L 252 462.5 L 252.5 460 Z " /><path fill="rgb(232,233,232)" stroke="rgb(232,233,232)" stroke-width="1" opacity="1" d="M 213.5 461 L 214 464.5 L 212 471.5 L 212 480 L 186.5 480 L 186 476.5 L 185 475.5 L 184 463 L 212.5 463 L 213.5 461 Z " /><path fill="rgb(232,233,232)" stroke="rgb(232,233,232)" stroke-width="1" opacity="1" d="M 294.5 461 L 292.5 464 L 294.5 461 Z " /><path fill="rgb(232,233,232)" stroke="rgb(232,233,232)" stroke-width="1" opacity="1" d="M 179.5 463 L 180 466.5 L 179 466.5 L 179.5 463 Z " /><path fill="rgb(232,233,232)" stroke="rgb(232,233,232)" stroke-width="1" opacity="1" d="M 291.5 465 L 289.5 468 L 291.5 465 Z " /><path fill="rgb(232,233,232)" stroke="rgb(232,233,232)" stroke-width="1" opacity="1" d="M 180.5 471 L 181 473.5 L 180 473.5 L 180.5 471 Z " /><path fill="rgb(232,233,232)" stroke="rgb(232,233,232)" stroke-width="1" opacity="1" d="M 216.5 475 L 217 482.5 L 216 482.5 L 216.5 475 Z " /><path fill="rgb(232,233,232)" stroke="rgb(232,233,232)" stroke-width="1" opacity="1" d="M 257.5 475 L 258 477.5 L 257 477.5 L 257.5 475 Z " /><path fill="rgb(232,233,232)" stroke="rgb(232,233,232)" stroke-width="1" opacity="1" d="M 139.5 479 L 140 481.5 L 139 481.5 L 139.5 479 Z " /><path fill="rgb(232,233,232)" stroke="rgb(232,233,232)" stroke-width="1" opacity="1" d="M 257.5 484 L 258 486.5 L 253.5 490 L 253.5 489 L 257 486.5 L 257.5 484 Z " /><path fill="rgb(232,233,232)" stroke="rgb(232,233,232)" stroke-width="1" opacity="1" d="M 179.5 486 L 177.5 489 L 179.5 486 Z " /><path fill="rgb(232,233,232)" stroke="rgb(232,233,232)" stroke-width="1" opacity="1" d="M 140.5 487 L 141.5 489 L 140.5 487 Z " /><path fill="rgb(232,233,232)" stroke="rgb(232,233,232)" stroke-width="1" opacity="1" d="M 218.5 487 L 219.5 489 L 218.5 487 Z " /><path fill="rgb(232,233,232)" stroke="rgb(232,233,232)" stroke-width="1" opacity="1" d="M 166.5 491 L 169 491.5 L 166.5 492 L 166.5 491 Z " /><path fill="rgb(232,233,232)" stroke="rgb(232,233,232)" stroke-width="1" opacity="1" d="M 228.5 491 L 231 491.5 L 228.5 492 L 228.5 491 Z " /><path fill="rgb(232,233,232)" stroke="rgb(232,233,232)" stroke-width="1" opacity="1" d="M 245.5 491 L 248 491.5 L 245.5 492 L 245.5 491 Z " /><path fill="rgb(234,234,234)" stroke="rgb(234,234,234)" stroke-width="1" opacity="1" d="M 151.5 62 L 295 94 L 295 99.5 Q 291.5 106.5 291 116.5 L 288.5 120 L 141 86.5 L 145 72.5 L 145 68.5 L 149.5 63 L 151.5 62 Z " /><path fill="rgb(234,234,234)" stroke="rgb(234,234,234)" stroke-width="1" opacity="1" d="M 111.5 81 L 116.5 83 L 137 99 L 140.5 104 L 144.5 106 L 166.5 110 L 175.5 113 L 179.5 113 L 289 138 L 292 154.5 L 292 162.5 L 293 163.5 L 293 177.5 L 291 188.5 L 287 199.5 Q 281.1 212.1 271.5 221 L 260 229.5 Q 259.3 233.3 261.5 234 L 269 231 Q 288.3 263.9 300 305.5 L 303 318.5 L 304 334.5 L 305 335.5 L 306 368.5 L 305 369.5 L 305 383.5 L 304 384.5 L 303 397.5 L 296 423.5 Q 288.7 443.2 274.5 456 L 266.5 461 L 258.5 463 L 257 461.5 L 257 453.5 L 256 452.5 L 256 432.5 L 257 431.5 L 258 417.5 L 272 360.5 L 271 358 L 267 358 L 267 359.5 L 253 416.5 L 252 430.5 L 251 431.5 L 251 453.5 L 252 454.5 L 252 462.5 L 257 473.5 L 258 483.5 L 254.5 489 L 244.5 492 L 231.5 492 L 222.5 490 L 218 486.5 L 217 484.5 L 217 470.5 L 219 460.5 L 220 424.5 L 221 423.5 L 221 374.5 L 220 373.5 L 219 359.5 L 217.5 358 L 214 359.5 L 214 366.5 L 216 375.5 L 216 422.5 L 215 423.5 L 214 460.5 L 213 463 L 184 463 L 184 452.5 L 183 451.5 L 182 412.5 L 181 411.5 L 181 379.5 L 182 378.5 L 184 359.5 L 180.5 358 L 178 363.5 L 177 377.5 L 176 378.5 L 176 411.5 L 177 412.5 L 178 452.5 L 179 453.5 L 179 466.5 L 181 474.5 L 181 482.5 L 176.5 489 L 165.5 492 L 152.5 492 L 144.5 490 L 140 486.5 L 140 475.5 L 145 464.5 Q 143.8 459.7 146 458.5 L 146 426.5 L 139 392.5 L 133 371.5 L 133 367.5 L 129.5 358 L 126 359.5 L 128 372.5 L 140 420.5 Q 138.5 426 141 427.5 L 141 457.5 L 140 463 Q 123.9 460.5 116 448.5 L 103 427.5 L 96 405.5 L 94 395.5 L 94 388.5 L 93 387.5 L 93 378.5 L 92 377.5 L 92 341.5 L 93 340.5 L 93 330.5 L 94 329.5 L 95 315.5 L 104 284.5 Q 114.4 254.9 129.5 230 Q 131.6 233.9 137 233 Q 138 228.3 134.5 227 L 120 214.5 Q 110.3 203.2 106 186.5 L 105 181.5 L 105 159.5 L 106 158.5 L 108 138.5 L 110 132.5 L 110 82.5 L 111.5 81 Z M 155 139 Q 151 141 152 148 L 157 151 L 162 150 Q 165 148 164 143 Q 163 138 155 139 Z M 239 139 Q 235 141 236 148 L 241 151 L 246 150 Q 249 148 248 143 Q 247 138 239 139 Z M 196 162 L 193 163 L 189 168 Q 189 176 195 180 L 196 181 L 196 189 L 193 192 L 183 192 L 182 195 L 184 197 L 195 197 L 199 194 Q 203 199 214 197 L 215 194 L 214 192 L 205 192 L 201 188 L 201 181 L 203 180 L 208 173 L 208 166 Q 205 161 196 162 Z M 140 179 L 138 183 L 140 184 L 163 191 L 169 191 L 169 187 L 140 179 Z M 256 179 L 231 186 L 228 189 L 230 191 L 239 190 L 257 184 Q 261 185 259 181 L 256 179 Z M 166 197 L 165 198 L 140 201 L 138 203 L 140 206 L 166 203 L 167 202 Q 171 203 169 199 L 166 197 Z M 231 197 L 228 201 L 232 203 L 239 203 L 240 204 L 258 206 L 259 203 L 254 200 L 247 200 L 231 197 Z " /><path fill="rgb(234,234,234)" stroke="rgb(234,234,234)" stroke-width="1" opacity="1" d="M 320.5 165 L 330.5 165 L 340 171.5 L 344 181.5 Q 338.5 190.5 322.5 189 Q 314.4 186.1 310 179.5 L 309 174.5 L 314.5 168 L 320.5 165 Z " /><path fill="rgb(234,234,234)" stroke="rgb(234,234,234)" stroke-width="1" opacity="1" d="M 384.5 344 Q 391.8 342.8 393 347.5 Q 405.8 360.2 408 383.5 L 405.5 382 Q 395.3 374.9 380 374 L 377 359.5 L 377 353.5 Q 378.3 347.8 382.5 345 L 384.5 344 Z " /><path fill="rgb(234,234,234)" stroke="rgb(234,234,234)" stroke-width="1" opacity="1" d="M 380.5 392 Q 398.4 395.1 407 407.5 Q 401.5 430 386.5 443 Q 382 427 371 417.5 L 376 408.5 L 379 398.5 L 379 393.5 L 380.5 392 Z " /><path fill="rgb(234,234,234)" stroke="rgb(234,234,234)" stroke-width="1" opacity="1" d="M 359.5 433 L 362 434.5 L 368 444.5 L 370 451.5 L 370 456.5 L 355.5 465 L 335.5 471 L 336 469.5 L 337 458.5 L 338 457.5 L 338 448.5 L 337 446.5 L 350.5 440 L 359.5 433 Z " /><path fill="rgb(234,234,234)" stroke="rgb(234,234,234)" stroke-width="1" opacity="1" d="M 302 447 L 319 448 Q 320.6 450.1 320 455.5 L 317 468.5 L 313.5 474 L 300.5 474 L 299.5 473 Q 290.6 474.2 287 472 L 295 461.5 L 302 447 Z " /><path fill="rgb(235,133,140)" stroke="rgb(235,133,140)" stroke-width="1" opacity="1" d="M 232.5 20 L 248.5 20 L 260.5 26 Q 294 50 322 79.5 L 327 94.5 L 328 107.5 L 329 108.5 L 329 119.5 L 330 120.5 L 330 160.5 L 328.5 160 L 322.5 160 L 314 163 L 309 99.5 L 303.5 92 L 189.5 65 L 167.5 61 L 162 58.5 Q 179.1 44.1 199.5 33 L 221.5 23 L 232.5 20 Z " /><path fill="rgb(235,133,140)" stroke="rgb(235,133,140)" stroke-width="1" opacity="1" d="M 115.5 81 L 116.5 83 L 115.5 81 Z " /><path fill="rgb(235,133,140)" stroke="rgb(235,133,140)" stroke-width="1" opacity="1" d="M 120.5 85 L 121.5 87 L 120.5 85 Z " /><path fill="rgb(235,133,140)" stroke="rgb(235,133,140)" stroke-width="1" opacity="1" d="M 125.5 89 L 126.5 91 L 125.5 89 Z " /><path fill="rgb(235,133,140)" stroke="rgb(235,133,140)" stroke-width="1" opacity="1" d="M 139.5 92 L 140 94.5 L 139 94.5 L 139.5 92 Z " /><path fill="rgb(235,133,140)" stroke="rgb(235,133,140)" stroke-width="1" opacity="1" d="M 130.5 93 L 131.5 95 L 130.5 93 Z " /><path fill="rgb(235,133,140)" stroke="rgb(235,133,140)" stroke-width="1" opacity="1" d="M 302.5 96 L 303.5 98 L 302.5 96 Z " /><path fill="rgb(235,133,140)" stroke="rgb(235,133,140)" stroke-width="1" opacity="1" d="M 135.5 97 L 136.5 99 L 135.5 97 Z " /><path fill="rgb(235,133,140)" stroke="rgb(235,133,140)" stroke-width="1" opacity="1" d="M 141.5 98 L 142.5 100 L 141.5 98 Z " /><path fill="rgb(235,133,140)" stroke="rgb(235,133,140)" stroke-width="1" opacity="1" d="M 298.5 130 L 296.5 133 L 298.5 130 Z " /><path fill="rgb(235,133,140)" stroke="rgb(235,133,140)" stroke-width="1" opacity="1" d="M 287.5 137 L 290 138.5 L 288.5 138 L 287.5 137 Z " /><path fill="rgb(235,133,140)" stroke="rgb(235,133,140)" stroke-width="1" opacity="1" d="M 107.5 139 L 108 141.5 L 107 141.5 L 107.5 139 Z " /><path fill="rgb(235,133,140)" stroke="rgb(235,133,140)" stroke-width="1" opacity="1" d="M 161.5 140 L 162.5 142 L 161.5 140 Z " /><path fill="rgb(235,133,140)" stroke="rgb(235,133,140)" stroke-width="1" opacity="1" d="M 245.5 140 L 246.5 142 L 245.5 140 Z " /><path fill="rgb(235,133,140)" stroke="rgb(235,133,140)" stroke-width="1" opacity="1" d="M 290.5 142 L 291 144.5 L 290 144.5 L 290.5 142 Z " /><path fill="rgb(235,133,140)" stroke="rgb(235,133,140)" stroke-width="1" opacity="1" d="M 106.5 145 L 107 147.5 L 106 147.5 L 106.5 145 Z " /><path fill="rgb(235,133,140)" stroke="rgb(235,133,140)" stroke-width="1" opacity="1" d="M 105.5 152 L 106 154.5 L 105 154.5 L 105.5 152 Z " /><path fill="rgb(235,133,140)" stroke="rgb(235,133,140)" stroke-width="1" opacity="1" d="M 292.5 156 L 293 159.5 L 292 159.5 L 292.5 156 Z " /><path fill="rgb(235,133,140)" stroke="rgb(235,133,140)" stroke-width="1" opacity="1" d="M 104.5 161 L 105 163.5 L 104 163.5 L 104.5 161 Z " /><path fill="rgb(235,133,140)" stroke="rgb(235,133,140)" stroke-width="1" opacity="1" d="M 293.5 166 L 294 175.5 L 293 175.5 L 293.5 166 Z " /><path fill="rgb(235,133,140)" stroke="rgb(235,133,140)" stroke-width="1" opacity="1" d="M 207.5 167 L 208 170.5 L 207 170.5 L 207.5 167 Z " /><path fill="rgb(235,133,140)" stroke="rgb(235,133,140)" stroke-width="1" opacity="1" d="M 314.5 167 L 313.5 169 L 314.5 167 Z " /><path fill="rgb(235,133,140)" stroke="rgb(235,133,140)" stroke-width="1" opacity="1" d="M 337.5 168 L 339.5 171 L 337.5 168 Z " /><path fill="rgb(235,133,140)" stroke="rgb(235,133,140)" stroke-width="1" opacity="1" d="M 192.5 176 L 196.5 181 L 192.5 176 Z " /><path fill="rgb(235,133,140)" stroke="rgb(235,133,140)" stroke-width="1" opacity="1" d="M 104.5 177 L 105 179.5 L 104 179.5 L 104.5 177 Z " /><path fill="rgb(235,133,140)" stroke="rgb(235,133,140)" stroke-width="1" opacity="1" d="M 200.5 181 L 201 184.5 L 200 184.5 L 200.5 181 Z " /><path fill="rgb(235,133,140)" stroke="rgb(235,133,140)" stroke-width="1" opacity="1" d="M 258.5 181 L 259 182.5 L 257 183.5 L 258.5 181 Z " /><path fill="rgb(235,133,140)" stroke="rgb(235,133,140)" stroke-width="1" opacity="1" d="M 292.5 181 L 293 183.5 L 292 183.5 L 292.5 181 Z " /><path fill="rgb(235,133,140)" stroke="rgb(235,133,140)" stroke-width="1" opacity="1" d="M 196.5 185 L 197 188.5 L 196 188.5 L 196.5 185 Z " /><path fill="rgb(235,133,140)" stroke="rgb(235,133,140)" stroke-width="1" opacity="1" d="M 167.5 187 L 169 189.5 L 167 190.5 L 168 188.5 L 167.5 187 Z " /><path fill="rgb(235,133,140)" stroke="rgb(235,133,140)" stroke-width="1" opacity="1" d="M 195.5 190 L 194.5 192 L 195.5 190 Z " /><path fill="rgb(235,133,140)" stroke="rgb(235,133,140)" stroke-width="1" opacity="1" d="M 199.5 193 L 200.5 195 L 199.5 193 Z " /><path fill="rgb(235,133,140)" stroke="rgb(235,133,140)" stroke-width="1" opacity="1" d="M 310.5 194 L 313.5 198 L 310.5 194 Z " /><path fill="rgb(235,133,140)" stroke="rgb(235,133,140)" stroke-width="1" opacity="1" d="M 184.5 196 L 193 196.5 L 184.5 197 L 184.5 196 Z " /><path fill="rgb(235,133,140)" stroke="rgb(235,133,140)" stroke-width="1" opacity="1" d="M 204.5 196 L 214 196.5 L 204.5 197 L 204.5 196 Z " /><path fill="rgb(235,133,140)" stroke="rgb(235,133,140)" stroke-width="1" opacity="1" d="M 161.5 198 L 164 198.5 L 161.5 199 L 161.5 198 Z " /><path fill="rgb(235,133,140)" stroke="rgb(235,133,140)" stroke-width="1" opacity="1" d="M 234.5 198 L 237 198.5 L 234.5 199 L 234.5 198 Z " /><path fill="rgb(235,133,140)" stroke="rgb(235,133,140)" stroke-width="1" opacity="1" d="M 154.5 199 L 157 199.5 L 154.5 200 L 154.5 199 Z " /><path fill="rgb(235,133,140)" stroke="rgb(235,133,140)" stroke-width="1" opacity="1" d="M 168.5 199 L 169 200.5 L 167 201.5 L 168.5 199 Z " /><path fill="rgb(235,133,140)" stroke="rgb(235,133,140)" stroke-width="1" opacity="1" d="M 241.5 199 L 244 199.5 L 241.5 200 L 241.5 199 Z " /><path fill="rgb(235,133,140)" stroke="rgb(235,133,140)" stroke-width="1" opacity="1" d="M 248.5 200 L 251 200.5 L 248.5 201 L 248.5 200 Z " /><path fill="rgb(235,133,140)" stroke="rgb(235,133,140)" stroke-width="1" opacity="1" d="M 322.5 201 L 329 201.5 L 322.5 202 L 322.5 201 Z " /><path fill="rgb(235,133,140)" stroke="rgb(235,133,140)" stroke-width="1" opacity="1" d="M 234.5 202 L 237 202.5 L 234.5 203 L 234.5 202 Z " /><path fill="rgb(235,133,140)" stroke="rgb(235,133,140)" stroke-width="1" opacity="1" d="M 258.5 202 L 259 204.5 L 258 204.5 L 258.5 202 Z " /><path fill="rgb(235,133,140)" stroke="rgb(235,133,140)" stroke-width="1" opacity="1" d="M 153.5 203 L 156 203.5 L 153.5 204 L 153.5 203 Z " /><path fill="rgb(235,133,140)" stroke="rgb(235,133,140)" stroke-width="1" opacity="1" d="M 241.5 203 L 244 203.5 L 241.5 204 L 241.5 203 Z " /><path fill="rgb(235,133,140)" stroke="rgb(235,133,140)" stroke-width="1" opacity="1" d="M 146.5 204 L 149 204.5 L 146.5 205 L 146.5 204 Z " /><path fill="rgb(235,133,140)" stroke="rgb(235,133,140)" stroke-width="1" opacity="1" d="M 248.5 204 L 251 204.5 L 248.5 205 L 248.5 204 Z " /><path fill="rgb(235,133,140)" stroke="rgb(235,133,140)" stroke-width="1" opacity="1" d="M 118.5 213 L 120.5 216 L 118.5 213 Z " /><path fill="rgb(235,133,140)" stroke="rgb(235,133,140)" stroke-width="1" opacity="1" d="M 276.5 216 L 270.5 223 L 276.5 216 Z " /><path fill="rgb(235,133,140)" stroke="rgb(235,133,140)" stroke-width="1" opacity="1" d="M 129.5 224 L 130.5 226 L 129.5 224 Z " /><path fill="rgb(235,133,140)" stroke="rgb(235,133,140)" stroke-width="1" opacity="1" d="M 266.5 225 L 265.5 227 L 266.5 225 Z " /><path fill="rgb(235,133,140)" stroke="rgb(235,133,140)" stroke-width="1" opacity="1" d="M 129.5 229 L 128.5 231 L 129.5 229 Z " /><path fill="rgb(235,133,140)" stroke="rgb(235,133,140)" stroke-width="1" opacity="1" d="M 132.5 231 L 133.5 233 L 132.5 231 Z " /><path fill="rgb(235,133,140)" stroke="rgb(235,133,140)" stroke-width="1" opacity="1" d="M 305.5 328 L 306 330.5 L 305 330.5 L 305.5 328 Z " /><path fill="rgb(235,133,140)" stroke="rgb(235,133,140)" stroke-width="1" opacity="1" d="M 91.5 331 L 92 333.5 L 91 333.5 L 91.5 331 Z " /><path fill="rgb(235,133,140)" stroke="rgb(235,133,140)" stroke-width="1" opacity="1" d="M 306.5 334 L 307 336.5 L 306 336.5 L 306.5 334 Z " /><path fill="rgb(235,133,140)" stroke="rgb(235,133,140)" stroke-width="1" opacity="1" d="M 90.5 337 L 91 339.5 L 90 339.5 L 90.5 337 Z " /><path fill="rgb(235,133,140)" stroke="rgb(235,133,140)" stroke-width="1" opacity="1" d="M 307.5 341 L 308 343.5 L 307 343.5 L 307.5 341 Z " /><path fill="rgb(235,133,140)" stroke="rgb(235,133,140)" stroke-width="1" opacity="1" d="M 388.5 343 L 392 343.5 L 388.5 344 L 388.5 343 Z " /><path fill="rgb(235,133,140)" stroke="rgb(235,133,140)" stroke-width="1" opacity="1" d="M 89.5 344 L 90 347.5 L 89 347.5 L 89.5 344 Z " /><path fill="rgb(235,133,140)" stroke="rgb(235,133,140)" stroke-width="1" opacity="1" d="M 308.5 348 L 309 351.5 L 308 351.5 L 308.5 348 Z " /><path fill="rgb(235,133,140)" stroke="rgb(235,133,140)" stroke-width="1" opacity="1" d="M 403.5 349 L 409.5 356 L 403.5 349 Z " /><path fill="rgb(235,133,140)" stroke="rgb(235,133,140)" stroke-width="1" opacity="1" d="M 88.5 353 L 89 357.5 L 88 357.5 L 88.5 353 Z " /><path fill="rgb(235,133,140)" stroke="rgb(235,133,140)" stroke-width="1" opacity="1" d="M 309.5 358 L 310 364.5 L 309 364.5 L 309.5 358 Z " /><path fill="rgb(235,133,140)" stroke="rgb(235,133,140)" stroke-width="1" opacity="1" d="M 214.5 361 L 215 363.5 L 214 363.5 L 214.5 361 Z " /><path fill="rgb(235,133,140)" stroke="rgb(235,133,140)" stroke-width="1" opacity="1" d="M 218.5 362 L 219 364.5 L 218 364.5 L 218.5 362 Z " /><path fill="rgb(235,133,140)" stroke="rgb(235,133,140)" stroke-width="1" opacity="1" d="M 377.5 362 L 378 364.5 L 377 364.5 L 377.5 362 Z " /><path fill="rgb(235,133,140)" stroke="rgb(235,133,140)" stroke-width="1" opacity="1" d="M 178.5 365 L 179 367.5 L 178 367.5 L 178.5 365 Z " /><path fill="rgb(235,133,140)" stroke="rgb(235,133,140)" stroke-width="1" opacity="1" d="M 182.5 365 L 183 367.5 L 182 367.5 L 182.5 365 Z " /><path fill="rgb(235,133,140)" stroke="rgb(235,133,140)" stroke-width="1" opacity="1" d="M 87.5 366 L 88 392.5 L 87 392.5 L 87.5 366 Z " /><path fill="rgb(235,133,140)" stroke="rgb(235,133,140)" stroke-width="1" opacity="1" d="M 215.5 369 L 216 371.5 L 215 371.5 L 215.5 369 Z " /><path fill="rgb(235,133,140)" stroke="rgb(235,133,140)" stroke-width="1" opacity="1" d="M 219.5 369 L 220 371.5 L 219 371.5 L 219.5 369 Z " /><path fill="rgb(235,133,140)" stroke="rgb(235,133,140)" stroke-width="1" opacity="1" d="M 177.5 373 L 178 375.5 L 177 375.5 L 177.5 373 Z " /><path fill="rgb(235,133,140)" stroke="rgb(235,133,140)" stroke-width="1" opacity="1" d="M 181.5 373 L 182 375.5 L 181 375.5 L 181.5 373 Z " /><path fill="rgb(235,133,140)" stroke="rgb(235,133,140)" stroke-width="1" opacity="1" d="M 379.5 374 L 380 377.5 L 379 377.5 L 379.5 374 Z " /><path fill="rgb(235,133,140)" stroke="rgb(235,133,140)" stroke-width="1" opacity="1" d="M 216.5 376 L 217 379.5 L 216 379.5 L 216.5 376 Z " /><path fill="rgb(235,133,140)" stroke="rgb(235,133,140)" stroke-width="1" opacity="1" d="M 220.5 377 L 221 380.5 L 220 380.5 L 220.5 377 Z " /><path fill="rgb(235,133,140)" stroke="rgb(235,133,140)" stroke-width="1" opacity="1" d="M 180.5 381 L 181 403.5 L 180 403.5 L 180.5 381 Z " /><path fill="rgb(235,133,140)" stroke="rgb(235,133,140)" stroke-width="1" opacity="1" d="M 176.5 383 L 177 398.5 L 176 398.5 L 176.5 383 Z " /><path fill="rgb(235,133,140)" stroke="rgb(235,133,140)" stroke-width="1" opacity="1" d="M 379.5 387 L 380 390.5 L 379 390.5 L 379.5 387 Z " /><path fill="rgb(235,133,140)" stroke="rgb(235,133,140)" stroke-width="1" opacity="1" d="M 424.5 389 L 425 394.5 L 424 394.5 L 424.5 389 Z " /><path fill="rgb(235,133,140)" stroke="rgb(235,133,140)" stroke-width="1" opacity="1" d="M 309.5 394 L 310 399.5 L 309 399.5 L 309.5 394 Z " /><path fill="rgb(235,133,140)" stroke="rgb(235,133,140)" stroke-width="1" opacity="1" d="M 424.5 399 L 425 403.5 L 424 403.5 L 424.5 399 Z " /><path fill="rgb(235,133,140)" stroke="rgb(235,133,140)" stroke-width="1" opacity="1" d="M 88.5 401 L 89 404.5 L 88 404.5 L 88.5 401 Z " /><path fill="rgb(235,133,140)" stroke="rgb(235,133,140)" stroke-width="1" opacity="1" d="M 220.5 404 L 221 415.5 L 220 415.5 L 220.5 404 Z " /><path fill="rgb(235,133,140)" stroke="rgb(235,133,140)" stroke-width="1" opacity="1" d="M 308.5 405 L 309 408.5 L 308 408.5 L 308.5 405 Z " /><path fill="rgb(235,133,140)" stroke="rgb(235,133,140)" stroke-width="1" opacity="1" d="M 216.5 407 L 217 417.5 L 216 417.5 L 216.5 407 Z " /><path fill="rgb(235,133,140)" stroke="rgb(235,133,140)" stroke-width="1" opacity="1" d="M 89.5 409 L 90 411.5 L 89 411.5 L 89.5 409 Z " /><path fill="rgb(235,133,140)" stroke="rgb(235,133,140)" stroke-width="1" opacity="1" d="M 90.5 415 L 91 417.5 L 90 417.5 L 90.5 415 Z " /><path fill="rgb(235,133,140)" stroke="rgb(235,133,140)" stroke-width="1" opacity="1" d="M 177.5 419 L 178 426.5 L 177 426.5 L 177.5 419 Z " /><path fill="rgb(235,133,140)" stroke="rgb(235,133,140)" stroke-width="1" opacity="1" d="M 140.5 421 L 141 423.5 L 140 423.5 L 140.5 421 Z " /><path fill="rgb(235,133,140)" stroke="rgb(235,133,140)" stroke-width="1" opacity="1" d="M 144.5 421 L 145 423.5 L 144 423.5 L 144.5 421 Z " /><path fill="rgb(235,133,140)" stroke="rgb(235,133,140)" stroke-width="1" opacity="1" d="M 181.5 421 L 182 428.5 L 181 428.5 L 181.5 421 Z " /><path fill="rgb(235,133,140)" stroke="rgb(235,133,140)" stroke-width="1" opacity="1" d="M 252.5 425 L 253 427.5 L 252 427.5 L 252.5 425 Z " /><path fill="rgb(235,133,140)" stroke="rgb(235,133,140)" stroke-width="1" opacity="1" d="M 256.5 425 L 257 427.5 L 256 427.5 L 256.5 425 Z " /><path fill="rgb(235,133,140)" stroke="rgb(235,133,140)" stroke-width="1" opacity="1" d="M 365.5 425 L 363.5 428 L 365.5 425 Z " /><path fill="rgb(235,133,140)" stroke="rgb(235,133,140)" stroke-width="1" opacity="1" d="M 141.5 429 L 142 433.5 L 141 433.5 L 141.5 429 Z " /><path fill="rgb(235,133,140)" stroke="rgb(235,133,140)" stroke-width="1" opacity="1" d="M 145.5 430 L 146 434.5 L 145 434.5 L 145.5 430 Z " /><path fill="rgb(235,133,140)" stroke="rgb(235,133,140)" stroke-width="1" opacity="1" d="M 219.5 430 L 220 436.5 L 219 436.5 L 219.5 430 Z " /><path fill="rgb(235,133,140)" stroke="rgb(235,133,140)" stroke-width="1" opacity="1" d="M 215.5 431 L 216 438.5 L 215 438.5 L 215.5 431 Z " /><path fill="rgb(235,133,140)" stroke="rgb(235,133,140)" stroke-width="1" opacity="1" d="M 357.5 433 L 356.5 435 L 357.5 433 Z " /><path fill="rgb(235,133,140)" stroke="rgb(235,133,140)" stroke-width="1" opacity="1" d="M 255.5 436 L 256 448.5 L 255 448.5 L 255.5 436 Z " /><path fill="rgb(235,133,140)" stroke="rgb(235,133,140)" stroke-width="1" opacity="1" d="M 251.5 437 L 252 447.5 L 251 447.5 L 251.5 437 Z " /><path fill="rgb(235,133,140)" stroke="rgb(235,133,140)" stroke-width="1" opacity="1" d="M 178.5 439 L 179 446.5 L 178 446.5 L 178.5 439 Z " /><path fill="rgb(235,133,140)" stroke="rgb(235,133,140)" stroke-width="1" opacity="1" d="M 410.5 439 L 409.5 441 L 410.5 439 Z " /><path fill="rgb(235,133,140)" stroke="rgb(235,133,140)" stroke-width="1" opacity="1" d="M 182.5 441 L 183 447.5 L 182 447.5 L 182.5 441 Z " /><path fill="rgb(235,133,140)" stroke="rgb(235,133,140)" stroke-width="1" opacity="1" d="M 407.5 443 L 404.5 447 L 407.5 443 Z " /><path fill="rgb(235,133,140)" stroke="rgb(235,133,140)" stroke-width="1" opacity="1" d="M 310.5 447 L 314 447.5 L 310.5 448 L 310.5 447 Z " /><path fill="rgb(235,133,140)" stroke="rgb(235,133,140)" stroke-width="1" opacity="1" d="M 324.5 447 L 328 447.5 L 324.5 448 L 324.5 447 Z " /><path fill="rgb(235,133,140)" stroke="rgb(235,133,140)" stroke-width="1" opacity="1" d="M 218.5 448 L 219 454.5 L 218 454.5 L 218.5 448 Z " /><path fill="rgb(235,133,140)" stroke="rgb(235,133,140)" stroke-width="1" opacity="1" d="M 145.5 449 L 146 454.5 L 145 454.5 L 145.5 449 Z " /><path fill="rgb(235,133,140)" stroke="rgb(235,133,140)" stroke-width="1" opacity="1" d="M 141.5 450 L 142 454.5 L 141 454.5 L 141.5 450 Z " /><path fill="rgb(235,133,140)" stroke="rgb(235,133,140)" stroke-width="1" opacity="1" d="M 214.5 450 L 215 456.5 L 214 456.5 L 214.5 450 Z " /><path fill="rgb(235,133,140)" stroke="rgb(235,133,140)" stroke-width="1" opacity="1" d="M 398.5 452 L 396.5 455 L 398.5 452 Z " /><path fill="rgb(235,133,140)" stroke="rgb(235,133,140)" stroke-width="1" opacity="1" d="M 252.5 456 L 253 459.5 L 252 459.5 L 252.5 456 Z " /><path fill="rgb(235,133,140)" stroke="rgb(235,133,140)" stroke-width="1" opacity="1" d="M 179.5 457 L 180 462.5 L 179 462.5 L 179.5 457 Z " /><path fill="rgb(235,133,140)" stroke="rgb(235,133,140)" stroke-width="1" opacity="1" d="M 256.5 457 L 257 459.5 L 256 459.5 L 256.5 457 Z " /><path fill="rgb(235,133,140)" stroke="rgb(235,133,140)" stroke-width="1" opacity="1" d="M 392.5 457 L 391.5 459 L 392.5 457 Z " /><path fill="rgb(235,133,140)" stroke="rgb(235,133,140)" stroke-width="1" opacity="1" d="M 183.5 458 L 184 463.5 L 183 463.5 L 183.5 458 Z " /><path fill="rgb(235,133,140)" stroke="rgb(235,133,140)" stroke-width="1" opacity="1" d="M 290.5 459 L 289.5 461 L 290.5 459 Z " /><path fill="rgb(235,133,140)" stroke="rgb(235,133,140)" stroke-width="1" opacity="1" d="M 144.5 460 L 145 462.5 L 144 462.5 L 144.5 460 Z " /><path fill="rgb(235,133,140)" stroke="rgb(235,133,140)" stroke-width="1" opacity="1" d="M 108.5 461 L 109.5 463 L 108.5 461 Z " /><path fill="rgb(235,133,140)" stroke="rgb(235,133,140)" stroke-width="1" opacity="1" d="M 386.5 461 L 385.5 463 L 386.5 461 Z " /><path fill="rgb(235,133,140)" stroke="rgb(235,133,140)" stroke-width="1" opacity="1" d="M 287.5 463 L 285.5 466 L 287.5 463 Z " /><path fill="rgb(235,133,140)" stroke="rgb(235,133,140)" stroke-width="1" opacity="1" d="M 381.5 464 L 380.5 466 L 381.5 464 Z " /><path fill="rgb(235,133,140)" stroke="rgb(235,133,140)" stroke-width="1" opacity="1" d="M 213.5 465 L 214 467.5 L 213 467.5 L 213.5 465 Z " /><path fill="rgb(235,133,140)" stroke="rgb(235,133,140)" stroke-width="1" opacity="1" d="M 217.5 465 L 218 467.5 L 217 467.5 L 217.5 465 Z " /><path fill="rgb(235,133,140)" stroke="rgb(235,133,140)" stroke-width="1" opacity="1" d="M 112.5 466 L 118.5 473 L 112.5 466 Z " /><path fill="rgb(235,133,140)" stroke="rgb(235,133,140)" stroke-width="1" opacity="1" d="M 180.5 468 L 181 470.5 L 180 470.5 L 180.5 468 Z " /><path fill="rgb(235,133,140)" stroke="rgb(235,133,140)" stroke-width="1" opacity="1" d="M 184.5 468 L 185 470.5 L 184 470.5 L 184.5 468 Z " /><path fill="rgb(235,133,140)" stroke="rgb(235,133,140)" stroke-width="1" opacity="1" d="M 288.5 468 L 285.5 473 L 287 473.5 L 285.5 474 L 284 472.5 L 288.5 468 Z " /><path fill="rgb(235,133,140)" stroke="rgb(235,133,140)" stroke-width="1" opacity="1" d="M 212.5 471 L 213 474.5 L 212 474.5 L 212.5 471 Z " /><path fill="rgb(235,133,140)" stroke="rgb(235,133,140)" stroke-width="1" opacity="1" d="M 216.5 471 L 217 474.5 L 216 474.5 L 216.5 471 Z " /><path fill="rgb(235,133,140)" stroke="rgb(235,133,140)" stroke-width="1" opacity="1" d="M 277.5 473 L 276.5 475 L 277.5 473 Z " /><path fill="rgb(235,133,140)" stroke="rgb(235,133,140)" stroke-width="1" opacity="1" d="M 135.5 476 L 136 479.5 L 135 479.5 L 135.5 476 Z " /><path fill="rgb(235,133,140)" stroke="rgb(235,133,140)" stroke-width="1" opacity="1" d="M 139.5 476 L 140 478.5 L 139 478.5 L 139.5 476 Z " /><path fill="rgb(235,133,140)" stroke="rgb(235,133,140)" stroke-width="1" opacity="1" d="M 181.5 476 L 182 480.5 L 181 480.5 L 181.5 476 Z " /><path fill="rgb(235,133,140)" stroke="rgb(235,133,140)" stroke-width="1" opacity="1" d="M 185.5 476 L 186 480 L 212 480.5 L 186.5 481 Q 183.8 479.8 185.5 476 Z " /><path fill="rgb(235,133,140)" stroke="rgb(235,133,140)" stroke-width="1" opacity="1" d="M 299.5 476 L 302 476.5 L 299.5 477 L 299.5 476 Z " /><path fill="rgb(235,133,140)" stroke="rgb(235,133,140)" stroke-width="1" opacity="1" d="M 306.5 477 L 310 477.5 L 306.5 478 L 306.5 477 Z " /><path fill="rgb(235,133,140)" stroke="rgb(235,133,140)" stroke-width="1" opacity="1" d="M 340.5 477 L 343 477.5 L 340.5 478 L 340.5 477 Z " /><path fill="rgb(235,133,140)" stroke="rgb(235,133,140)" stroke-width="1" opacity="1" d="M 319.5 478 L 332 478.5 L 319.5 479 L 319.5 478 Z " /><path fill="rgb(235,133,140)" stroke="rgb(235,133,140)" stroke-width="1" opacity="1" d="M 139.5 482 L 140 485.5 L 139 485.5 L 139.5 482 Z " /><path fill="rgb(235,133,140)" stroke="rgb(235,133,140)" stroke-width="1" opacity="1" d="M 257.5 487 L 256.5 489 L 257.5 487 Z " /><path fill="rgb(235,133,140)" stroke="rgb(235,133,140)" stroke-width="1" opacity="1" d="M 155.5 492 L 164 492.5 L 155.5 493 L 155.5 492 Z " /><path fill="rgb(235,133,140)" stroke="rgb(235,133,140)" stroke-width="1" opacity="1" d="M 234.5 492 L 242 492.5 L 234.5 493 L 234.5 492 Z " /></svg>