<svg width="512" height="512" version="1.1" xmlns="http://www.w3.org/2000/svg" desc="Created with imagetracer.js version 1.2.6" ><path fill="rgb(230,230,230)" stroke="rgb(230,230,230)" stroke-width="1" opacity="1" d="M 122.5 176 L 123.5 178 L 122.5 176 Z " /><path fill="rgb(230,230,230)" stroke="rgb(230,230,230)" stroke-width="1" opacity="1" d="M 55.5 287 L 54.5 289 L 55.5 287 Z " /><path fill="rgb(230,230,230)" stroke="rgb(230,230,230)" stroke-width="1" opacity="1" d="M 424.5 316 L 429.5 322 L 424.5 316 Z " /><path fill="rgb(230,230,230)" stroke="rgb(230,230,230)" stroke-width="1" opacity="1" d="M 413.5 318 L 412.5 320 L 413.5 318 Z " /><path fill="rgb(230,230,230)" stroke="rgb(230,230,230)" stroke-width="1" opacity="1" d="M 431.5 324 L 432.5 326 L 431.5 324 Z " /><path fill="rgb(230,230,230)" stroke="rgb(230,230,230)" stroke-width="1" opacity="1" d="M 433.5 327 L 434.5 329 L 433.5 327 Z " /><path fill="rgb(230,230,230)" stroke="rgb(230,230,230)" stroke-width="1" opacity="1" d="M 435.5 330 L 436.5 332 L 435.5 330 Z " /><path fill="rgb(230,230,230)" stroke="rgb(230,230,230)" stroke-width="1" opacity="1" d="M 441.5 342 L 443 345.5 L 442 345.5 L 441.5 342 Z " /><path fill="rgb(230,230,230)" stroke="rgb(230,230,230)" stroke-width="1" opacity="1" d="M 444.5 351 L 445 353.5 L 444 353.5 L 444.5 351 Z " /><path fill="rgb(230,230,230)" stroke="rgb(230,230,230)" stroke-width="1" opacity="1" d="M 81.5 354 L 82 360.5 L 81 360.5 L 81.5 354 Z " /><path fill="rgb(230,230,230)" stroke="rgb(230,230,230)" stroke-width="1" opacity="1" d="M 445.5 356 L 446 360.5 L 445 360.5 L 445.5 356 Z " /><path fill="rgb(230,230,230)" stroke="rgb(230,230,230)" stroke-width="1" opacity="1" d="M 326.5 359 L 327 364.5 L 326 364.5 L 326.5 359 Z " /><path fill="rgb(230,230,230)" stroke="rgb(230,230,230)" stroke-width="1" opacity="1" d="M 446.5 364 L 447 377.5 L 446 377.5 L 446.5 364 Z " /><path fill="rgb(230,230,230)" stroke="rgb(230,230,230)" stroke-width="1" opacity="1" d="M 82.5 365 L 83 369.5 L 82 369.5 L 82.5 365 Z " /><path fill="rgb(230,230,230)" stroke="rgb(230,230,230)" stroke-width="1" opacity="1" d="M 325.5 368 L 326 371.5 L 325 371.5 L 325.5 368 Z " /><path fill="rgb(230,230,230)" stroke="rgb(230,230,230)" stroke-width="1" opacity="1" d="M 83.5 372 L 84 375.5 L 83 375.5 L 83.5 372 Z " /><path fill="rgb(230,230,230)" stroke="rgb(230,230,230)" stroke-width="1" opacity="1" d="M 324.5 375 L 325 377.5 L 324 377.5 L 324.5 375 Z " /><path fill="rgb(230,230,230)" stroke="rgb(230,230,230)" stroke-width="1" opacity="1" d="M 84.5 378 L 85 381.5 L 84 381.5 L 84.5 378 Z " /><path fill="rgb(230,230,230)" stroke="rgb(230,230,230)" stroke-width="1" opacity="1" d="M 323.5 380 L 324 383.5 L 323 383.5 L 323.5 380 Z " /><path fill="rgb(230,230,230)" stroke="rgb(230,230,230)" stroke-width="1" opacity="1" d="M 445.5 381 L 446 384.5 L 445 384.5 L 445.5 381 Z " /><path fill="rgb(230,230,230)" stroke="rgb(230,230,230)" stroke-width="1" opacity="1" d="M 85.5 383 L 86 385.5 L 85 385.5 L 85.5 383 Z " /><path fill="rgb(230,230,230)" stroke="rgb(230,230,230)" stroke-width="1" opacity="1" d="M 322.5 385 L 323 387.5 L 322 387.5 L 322.5 385 Z " /><path fill="rgb(230,230,230)" stroke="rgb(230,230,230)" stroke-width="1" opacity="1" d="M 444.5 387 L 445 389.5 L 444 389.5 L 444.5 387 Z " /><path fill="rgb(230,230,230)" stroke="rgb(230,230,230)" stroke-width="1" opacity="1" d="M 86.5 388 L 87 390.5 L 86 390.5 L 86.5 388 Z " /><path fill="rgb(230,230,230)" stroke="rgb(230,230,230)" stroke-width="1" opacity="1" d="M 321.5 389 L 322 391.5 L 321 391.5 L 321.5 389 Z " /><path fill="rgb(230,230,230)" stroke="rgb(230,230,230)" stroke-width="1" opacity="1" d="M 442.5 394 L 443 396.5 L 442 396.5 L 442.5 394 Z " /><path fill="rgb(230,230,230)" stroke="rgb(230,230,230)" stroke-width="1" opacity="1" d="M 402.5 401 L 406.5 406 L 402.5 401 Z " /><path fill="rgb(230,230,230)" stroke="rgb(230,230,230)" stroke-width="1" opacity="1" d="M 408.5 408 L 409.5 410 L 408.5 408 Z " /><path fill="rgb(230,230,230)" stroke="rgb(230,230,230)" stroke-width="1" opacity="1" d="M 93.5 410 L 95 413.5 L 94 413.5 L 93.5 410 Z " /><path fill="rgb(230,230,230)" stroke="rgb(230,230,230)" stroke-width="1" opacity="1" d="M 314.5 411 L 315 412.5 L 313.5 415 L 313 413.5 L 314.5 411 Z " /><path fill="rgb(230,230,230)" stroke="rgb(230,230,230)" stroke-width="1" opacity="1" d="M 435.5 411 L 435 412.5 L 433.5 415 L 434 413.5 L 435.5 411 Z " /><path fill="rgb(230,230,230)" stroke="rgb(230,230,230)" stroke-width="1" opacity="1" d="M 432.5 416 L 431.5 418 L 432.5 416 Z " /><path fill="rgb(230,230,230)" stroke="rgb(230,230,230)" stroke-width="1" opacity="1" d="M 391.5 419 L 392.5 421 L 391.5 419 Z " /><path fill="rgb(230,230,230)" stroke="rgb(230,230,230)" stroke-width="1" opacity="1" d="M 430.5 419 L 428.5 422 L 430.5 419 Z " /><path fill="rgb(230,230,230)" stroke="rgb(230,230,230)" stroke-width="1" opacity="1" d="M 310.5 420 L 310 421.5 L 307.5 426 L 308 424.5 L 310.5 420 Z " /><path fill="rgb(230,230,230)" stroke="rgb(230,230,230)" stroke-width="1" opacity="1" d="M 99.5 423 L 102 426.5 L 100 425.5 L 99.5 423 Z " /><path fill="rgb(230,230,230)" stroke="rgb(230,230,230)" stroke-width="1" opacity="1" d="M 426.5 424 L 422.5 429 L 426.5 424 Z " /><path fill="rgb(230,230,230)" stroke="rgb(230,230,230)" stroke-width="1" opacity="1" d="M 306.5 427 L 305.5 429 L 306.5 427 Z " /><path fill="rgb(230,230,230)" stroke="rgb(230,230,230)" stroke-width="1" opacity="1" d="M 102.5 428 L 103.5 430 L 102.5 428 Z " /><path fill="rgb(230,230,230)" stroke="rgb(230,230,230)" stroke-width="1" opacity="1" d="M 304.5 430 L 303.5 432 L 304.5 430 Z " /><path fill="rgb(230,230,230)" stroke="rgb(230,230,230)" stroke-width="1" opacity="1" d="M 104.5 431 L 106.5 434 L 104.5 431 Z " /><path fill="rgb(230,230,230)" stroke="rgb(230,230,230)" stroke-width="1" opacity="1" d="M 301.5 434 L 299.5 437 L 301.5 434 Z " /><path fill="rgb(230,230,230)" stroke="rgb(230,230,230)" stroke-width="1" opacity="1" d="M 107.5 435 L 111.5 440 L 107.5 435 Z " /><path fill="rgb(230,230,230)" stroke="rgb(230,230,230)" stroke-width="1" opacity="1" d="M 363.5 435 L 364 437.5 L 363 437.5 L 363.5 435 Z " /><path fill="rgb(230,230,230)" stroke="rgb(230,230,230)" stroke-width="1" opacity="1" d="M 343.5 438 L 344 445.5 L 343 445.5 L 343.5 438 Z " /><path fill="rgb(230,230,230)" stroke="rgb(230,230,230)" stroke-width="1" opacity="1" d="M 297.5 439 L 292.5 445 L 297.5 439 Z " /><path fill="rgb(230,230,230)" stroke="rgb(230,230,230)" stroke-width="1" opacity="1" d="M 114.5 442 L 118.5 447 L 114.5 442 Z " /><path fill="rgb(230,230,230)" stroke="rgb(230,230,230)" stroke-width="1" opacity="1" d="M 289.5 446 L 288.5 448 L 289.5 446 Z " /><path fill="rgb(230,230,230)" stroke="rgb(230,230,230)" stroke-width="1" opacity="1" d="M 363.5 446 L 364 448.5 L 363 448.5 L 363.5 446 Z " /><path fill="rgb(230,230,230)" stroke="rgb(230,230,230)" stroke-width="1" opacity="1" d="M 120.5 447 L 121.5 449 L 120.5 447 Z " /><path fill="rgb(230,230,230)" stroke="rgb(230,230,230)" stroke-width="1" opacity="1" d="M 399.5 447 L 398.5 449 L 399.5 447 Z " /><path fill="rgb(230,230,230)" stroke="rgb(230,230,230)" stroke-width="1" opacity="1" d="M 286.5 448 L 285.5 450 L 284 449.5 L 286.5 448 Z " /><path fill="rgb(230,230,230)" stroke="rgb(230,230,230)" stroke-width="1" opacity="1" d="M 275.5 452 L 278 452.5 L 275.5 453 L 275.5 452 Z " /><path fill="rgb(230,230,230)" stroke="rgb(230,230,230)" stroke-width="1" opacity="1" d="M 390.5 452 L 389.5 454 L 388 453.5 L 390.5 452 Z " /><path fill="rgb(230,230,230)" stroke="rgb(230,230,230)" stroke-width="1" opacity="1" d="M 135.5 453 L 273 453.5 L 135.5 454 L 135.5 453 Z " /><path fill="rgb(230,230,230)" stroke="rgb(230,230,230)" stroke-width="1" opacity="1" d="M 383.5 455 L 385 455.5 L 381.5 457 L 381.5 456 L 383.5 455 Z " /><path fill="rgb(230,230,230)" stroke="rgb(230,230,230)" stroke-width="1" opacity="1" d="M 365.5 461 L 368 461.5 L 365.5 462 L 365.5 461 Z " /><path fill="rgb(230,230,230)" stroke="rgb(230,230,230)" stroke-width="1" opacity="1" d="M 305.5 464 L 311 464.5 L 305.5 465 L 305.5 464 Z " /><path fill="rgb(230,230,230)" stroke="rgb(230,230,230)" stroke-width="1" opacity="1" d="M 315.5 465 L 327 465.5 L 315.5 466 L 315.5 465 Z " /><path fill="rgb(230,230,230)" stroke="rgb(230,230,230)" stroke-width="1" opacity="1" d="M 331.5 465 L 338 465.5 L 331.5 466 L 331.5 465 Z " /><path fill="rgb(0,0,0)" stroke="rgb(0,0,0)" stroke-width="1" opacity="0" d="M 0 0 L 512 0 L 512 512 L 0 512 L 0 0 Z M 102 8 L 97 14 L 97 70 L 93 88 L 92 102 L 91 103 L 91 113 L 90 114 L 91 131 L 96 149 Q 105 168 120 182 Q 100 214 88 255 L 87 256 L 71 256 L 69 258 L 69 277 Q 60 277 54 282 L 46 292 L 43 303 Q 41 315 46 320 Q 52 328 64 332 L 69 331 L 69 352 L 71 354 L 71 370 L 72 371 L 73 392 L 78 416 Q 83 433 91 447 L 103 463 L 114 471 L 111 486 L 113 497 L 121 502 L 129 504 L 151 504 L 160 502 L 165 499 L 169 492 L 169 479 L 170 478 L 239 478 L 239 488 L 241 496 L 246 500 L 258 504 L 280 504 L 292 500 L 296 496 L 297 492 L 297 482 L 294 471 L 298 469 L 303 469 L 307 471 L 330 474 L 331 475 L 348 475 L 349 476 L 375 474 L 399 468 Q 423 459 440 443 L 457 422 L 467 398 L 468 386 L 469 385 L 469 372 L 466 355 Q 461 338 451 327 L 437 314 L 422 310 L 416 311 L 411 314 L 406 320 L 404 327 L 404 335 L 408 356 L 408 366 L 405 383 Q 400 397 392 408 Q 378 426 350 431 L 336 431 L 326 429 L 333 405 L 335 388 L 336 387 L 337 354 L 339 352 L 339 331 L 342 332 L 346 332 L 358 325 L 365 315 L 365 301 L 360 288 Q 354 279 343 277 L 340 278 L 339 258 L 338 256 L 321 256 L 318 245 L 305 213 L 288 182 Q 299 172 307 160 L 314 144 L 318 126 L 317 100 L 316 99 L 314 80 L 311 69 L 311 13 L 308 8 L 299 9 L 270 33 L 249 26 L 232 23 L 224 23 L 223 22 L 187 22 L 186 23 L 178 23 L 153 28 L 140 33 L 109 8 L 102 8 Z " /><path fill="rgb(234,234,233)" stroke="rgb(234,234,233)" stroke-width="1" opacity="1" d="M 336.5 322 L 337.5 324 L 336.5 322 Z " /><path fill="rgb(234,234,233)" stroke="rgb(234,234,233)" stroke-width="1" opacity="1" d="M 326.5 356 L 327 358.5 L 326 358.5 L 326.5 356 Z " /><path fill="rgb(234,234,233)" stroke="rgb(234,234,233)" stroke-width="1" opacity="1" d="M 389.5 417 L 390.5 419 L 389.5 417 Z " /><path fill="rgb(234,234,233)" stroke="rgb(234,234,233)" stroke-width="1" opacity="1" d="M 427.5 422 L 426.5 424 L 427.5 422 Z " /><path fill="rgb(234,234,233)" stroke="rgb(234,234,233)" stroke-width="1" opacity="1" d="M 419.5 429 L 422 429.5 Q 419.9 432.8 419.5 429 Z " /><path fill="rgb(234,234,233)" stroke="rgb(234,234,233)" stroke-width="1" opacity="1" d="M 298.5 437 L 296.5 440 L 298.5 437 Z " /><path fill="rgb(234,234,233)" stroke="rgb(234,234,233)" stroke-width="1" opacity="1" d="M 112.5 440 L 113.5 442 L 112.5 440 Z " /><path fill="rgb(234,234,233)" stroke="rgb(234,234,233)" stroke-width="1" opacity="1" d="M 293.5 442 L 292.5 444 L 293.5 442 Z " /><path fill="rgb(234,234,233)" stroke="rgb(234,234,233)" stroke-width="1" opacity="1" d="M 327.5 465 L 331 465.5 L 327.5 466 L 327.5 465 Z " /><path fill="rgb(234,234,234)" stroke="rgb(234,234,234)" stroke-width="1" opacity="1" d="M 103.5 13 L 106.5 13 L 134.5 36 Q 135.9 38.6 140.5 38 L 153.5 33 L 177.5 28 Q 183.8 29.7 185.5 27 L 222.5 27 L 223.5 28 L 231.5 28 L 247.5 31 L 271.5 38 L 301.5 13 L 304.5 13 L 306 14.5 L 306 69.5 L 312 99.5 L 313 124.5 L 310 139.5 L 302 157.5 Q 294.8 169.3 284.5 178 L 275 184.5 Q 274.3 188.3 276.5 189 L 283.5 185 Q 303.9 216.1 316 255.5 L 93 256 Q 104 216.3 124.5 185 Q 126.8 189.1 133 188 Q 134 184.2 131.5 183 L 116 170.5 Q 105 158.5 99 141.5 L 96 129.5 L 95 113.5 L 96 112.5 L 96 102.5 L 97 101.5 L 98 88.5 L 102 70.5 L 102 14.5 L 103.5 13 Z M 154 80 L 152 81 Q 148 82 149 90 L 155 94 L 160 93 L 163 88 L 161 81 Q 159 79 154 80 Z M 250 80 Q 244 82 246 91 L 252 94 L 258 92 Q 260 90 259 84 Q 258 79 250 80 Z M 200 107 L 197 108 L 193 114 L 196 124 L 202 128 Q 203 136 200 140 Q 196 143 186 142 Q 185 146 188 147 Q 200 149 204 143 Q 209 149 221 147 Q 223 146 222 142 Q 211 144 207 138 L 207 129 Q 216 125 215 112 Q 212 105 200 107 Z M 135 127 L 135 131 L 140 133 L 165 140 Q 171 142 169 137 L 162 133 L 141 127 L 135 127 Z M 269 127 L 241 135 Q 238 136 239 140 L 248 139 L 272 132 L 273 131 Q 275 125 269 127 Z M 162 148 L 161 149 L 135 152 Q 134 156 137 157 L 168 153 L 169 152 L 169 148 L 162 148 Z M 239 148 L 239 152 L 241 153 L 272 157 Q 274 156 273 152 L 239 148 Z " /><path fill="rgb(234,234,234)" stroke="rgb(234,234,234)" stroke-width="1" opacity="1" d="M 66.5 282 Q 77.4 284.6 84 291.5 L 85 299.5 Q 80.2 315.2 69.5 325 L 64.5 327 Q 56.1 323.9 51 317.5 Q 46.3 313.7 48 303.5 L 52 291.5 L 58.5 285 L 66.5 282 Z " /><path fill="rgb(234,234,234)" stroke="rgb(234,234,234)" stroke-width="1" opacity="1" d="M 341.5 282 Q 350.1 283.9 355 289.5 L 360 301.5 L 360 313.5 L 351.5 323 L 342.5 327 L 333 318.5 L 325 304.5 L 323 294.5 L 328.5 288 L 341.5 282 Z " /><path fill="rgb(234,234,234)" stroke="rgb(234,234,234)" stroke-width="1" opacity="1" d="M 417.5 316 L 423.5 316 L 430 322.5 Q 438.6 332.9 443 347.5 L 446 361.5 L 446 379.5 Q 440.4 411.9 420.5 430 L 411 410.5 L 402 400.5 L 405 396.5 L 411 379.5 L 412 366.5 L 413 365.5 L 413 355.5 L 409 333.5 L 409 326.5 Q 410.5 320 415.5 317 L 417.5 316 Z " /><path fill="rgb(234,234,234)" stroke="rgb(234,234,234)" stroke-width="1" opacity="1" d="M 82 353 L 326.5 353 L 327 355.5 L 326 356.5 L 326 365.5 L 322 388.5 L 315 410.5 Q 307.3 428.8 294.5 442 L 292 443.5 Q 292.8 445.8 290.5 445 L 281.5 451 L 273.5 453 L 134.5 453 Q 116.8 448.7 108 435.5 Q 83.9 404.7 82 353 Z " /><path fill="rgb(234,234,234)" stroke="rgb(234,234,234)" stroke-width="1" opacity="1" d="M 388.5 418 L 393 421.5 L 400 434.5 L 402 446 L 377.5 458 L 361 462 L 364 449.5 L 364 434.5 Q 361.8 433.3 364.5 432 Q 379.7 428.2 388.5 418 Z " /><path fill="rgb(234,234,234)" stroke="rgb(234,234,234)" stroke-width="1" opacity="1" d="M 323 434 L 334.5 436 L 343 436 L 343 450.5 L 338 465 L 312.5 465 L 304 463.5 Q 317 451.5 323 434 Z " /><path fill="rgb(92,97,96)" stroke="rgb(92,97,96)" stroke-width="1" opacity="0.9568627450980393" d="M 101.5 8 L 108.5 8 L 139.5 33 L 152.5 28 L 177.5 23 L 185.5 23 L 186.5 22 L 222.5 22 L 223.5 23 L 231.5 23 L 248.5 26 L 269.5 33 L 298.5 9 L 307.5 8 L 311 12.5 L 311 68.5 L 314 79.5 L 316 98.5 L 317 99.5 L 318 125.5 L 314 143.5 L 307 159.5 Q 299.1 172.1 288 181.5 L 305 212.5 L 318 244.5 L 321 256 L 337.5 256 L 339 257.5 L 339.5 278 L 342.5 277 Q 354.3 279.2 360 287.5 L 365 300.5 L 365 314.5 L 357.5 325 L 345.5 332 L 341.5 332 L 339 331 L 339 351.5 L 337 353.5 L 336 386.5 L 335 387.5 L 333 404.5 L 326 429 L 335.5 431 L 349.5 431 Q 377.7 426.2 392 407.5 Q 400.3 396.8 405 382.5 L 408 365.5 L 408 355.5 L 404 334.5 L 404 326.5 L 406 319.5 L 410.5 314 L 415.5 311 L 421.5 310 L 436.5 314 L 451 326.5 Q 461.3 337.7 466 354.5 L 469 371.5 L 469 384.5 L 468 385.5 L 467 397.5 L 457 421.5 L 439.5 443 Q 422.7 459.2 398.5 468 L 374.5 474 L 348.5 476 L 347.5 475 L 330.5 475 L 329.5 474 L 306.5 471 L 302.5 469 L 297.5 469 L 294 471 L 297 481.5 L 297 491.5 L 296 495.5 L 291.5 500 L 279.5 504 L 257.5 504 L 245.5 500 L 241 495.5 L 239 487.5 L 239 478 L 169.5 478 L 169 478.5 L 169 491.5 L 164.5 499 L 159.5 502 L 150.5 504 L 128.5 504 L 120.5 502 L 113 496.5 L 111 485.5 L 114 471 L 103 463 L 91 446.5 Q 82.7 432.8 78 415.5 L 73 391.5 L 72 370.5 L 71 369.5 L 71 353.5 L 69 351.5 L 68.5 331 L 63.5 332 Q 52.3 328.3 46 319.5 Q 40.8 314.8 43 302.5 L 46 291.5 L 53.5 282 Q 59.5 277.2 69 277 L 69 257.5 L 70.5 256 L 86.5 256 L 88 254.5 Q 99.8 213.8 120 181.5 Q 104.5 168.5 96 148.5 L 91 130.5 L 90 113.5 L 91 112.5 L 91 102.5 L 92 101.5 L 93 87.5 L 97 69.5 L 97 13.5 L 101.5 8 Z M 104 12 L 101 15 L 101 72 L 99 78 L 97 96 L 96 97 L 96 104 L 95 105 L 95 128 L 97 138 Q 103 156 114 170 L 131 184 L 132 184 L 132 188 L 123 184 Q 105 215 92 254 L 93 257 L 317 257 Q 305 217 285 184 L 278 188 L 275 187 L 285 179 Q 296 170 303 158 L 311 139 L 314 122 L 312 95 L 307 70 L 307 15 L 306 12 L 302 12 L 271 37 L 247 30 L 230 27 L 221 27 L 220 26 L 189 26 L 188 27 L 179 27 L 158 31 L 141 37 Q 136 38 135 35 L 107 12 L 104 12 Z M 73 261 L 73 279 L 83 284 L 90 294 L 87 308 Q 82 320 73 329 L 73 348 L 74 348 L 335 348 L 335 328 Q 324 317 319 301 Q 318 293 320 290 Q 326 282 335 280 L 335 262 L 335 261 L 73 261 Z M 342 281 L 326 289 L 322 295 L 325 307 L 335 323 L 343 328 L 352 324 L 361 314 L 360 298 L 356 290 Q 351 283 342 281 Z M 64 282 L 56 286 L 49 296 L 47 306 Q 46 314 50 318 Q 55 325 65 328 L 70 326 Q 81 316 86 299 L 85 292 Q 78 283 64 282 Z M 418 315 L 412 318 L 409 324 L 408 329 L 411 352 L 412 353 L 412 369 L 409 384 Q 405 399 396 410 Q 381 430 352 435 L 333 435 L 324 433 Q 316 452 302 465 L 309 467 L 326 470 L 333 470 L 334 471 L 366 471 L 391 466 Q 413 459 430 446 Q 443 435 453 420 L 462 400 L 464 391 L 464 382 L 465 381 Q 464 346 447 329 L 433 317 Q 427 314 418 315 Z M 75 352 L 76 382 L 81 410 L 89 433 L 103 456 L 117 468 L 119 464 Q 118 459 120 458 Q 118 451 123 453 L 122 467 L 116 480 L 116 494 L 122 498 L 131 500 L 149 500 L 160 497 L 165 490 Q 166 477 163 470 L 163 456 L 166 455 L 167 472 L 168 473 L 169 474 L 240 474 L 241 473 L 241 467 L 243 460 Q 242 455 246 457 L 245 471 L 244 472 L 244 492 L 245 494 L 249 497 L 260 500 Q 278 502 289 497 L 292 494 L 293 489 Q 293 474 286 466 L 285 455 L 288 453 L 289 455 Q 288 464 291 468 L 298 464 Q 314 448 323 424 L 330 398 L 331 386 L 332 385 L 332 375 L 333 374 L 333 353 L 333 352 L 75 352 Z " /><path fill="rgb(92,97,96)" stroke="rgb(92,97,96)" stroke-width="1" opacity="0.9568627450980393" d="M 152.5 81 Q 160.5 79.5 162 84.5 Q 162.8 90.3 159.5 92 L 154.5 93 L 150 89.5 Q 148.5 82.5 152.5 81 Z " /><path fill="rgb(92,97,96)" stroke="rgb(92,97,96)" stroke-width="1" opacity="0.9568627450980393" d="M 249.5 81 Q 256.5 79.5 258 83.5 L 259 87.5 L 254.5 93 Q 248 94 247 89.5 L 246 85.5 L 249.5 81 Z " /><path fill="rgb(92,97,96)" stroke="rgb(92,97,96)" stroke-width="1" opacity="0.9568627450980393" d="M 198.5 108 Q 210.4 105.6 214 111.5 Q 214.7 123.2 207.5 127 L 206 127.5 L 206 137.5 L 208.5 141 Q 212.5 144 220.5 143 L 222 144.5 L 220.5 146 L 210.5 146 L 203.5 142 Q 199 148.2 187 146 L 187 143 L 194.5 143 L 201 139.5 L 202 137.5 L 202 127 L 197 123.5 L 194 116.5 L 194 112.5 L 196.5 109 L 198.5 108 Z " /><path fill="rgb(92,97,96)" stroke="rgb(92,97,96)" stroke-width="1" opacity="0.9568627450980393" d="M 136 128 L 140.5 128 L 165.5 135 L 169 137.5 Q 169.6 140.3 163.5 139 L 136 131 L 136 128 Z " /><path fill="rgb(92,97,96)" stroke="rgb(92,97,96)" stroke-width="1" opacity="0.9568627450980393" d="M 267.5 128 Q 272 127 273 129.5 L 265.5 133 L 244.5 139 L 240.5 139 Q 237.5 137.5 240.5 136 L 267.5 128 Z " /><path fill="rgb(92,97,96)" stroke="rgb(92,97,96)" stroke-width="1" opacity="0.9568627450980393" d="M 160.5 149 L 168.5 149 L 169 150.5 L 163.5 153 L 156.5 153 L 155.5 154 L 136 156 Q 134.5 152.2 137.5 153 L 160.5 149 Z " /><path fill="rgb(92,97,96)" stroke="rgb(92,97,96)" stroke-width="1" opacity="0.9568627450980393" d="M 240 149 L 269.5 152 L 273 154.5 Q 271.8 157.3 266.5 156 L 265.5 155 L 240 152 L 240 149 Z " /><path fill="rgb(92,97,96)" stroke="rgb(92,97,96)" stroke-width="1" opacity="0.9568627450980393" d="M 123.5 276 L 126 279.5 L 126 303 L 153 303 L 153 278.5 Q 155 274 157 277.5 L 157 302.5 L 158 305.5 L 157 306.5 L 157 331.5 L 155.5 333 L 153 330.5 L 153 307 L 126 307 L 126 330.5 Q 123.5 335.5 121 330.5 L 121 278.5 L 123.5 276 Z " /><path fill="rgb(92,97,96)" stroke="rgb(92,97,96)" stroke-width="1" opacity="0.9568627450980393" d="M 170.5 276 L 197.5 276 L 199 277.5 L 198.5 280 L 173 280 L 173 303 L 190.5 303 L 191 306 L 188.5 307 L 173 307 L 173 329 L 198.5 329 L 199 331.5 L 197.5 333 L 170.5 333 L 169 331.5 L 169 306.5 L 168 303.5 L 169 302.5 L 169 277.5 L 170.5 276 Z " /><path fill="rgb(92,97,96)" stroke="rgb(92,97,96)" stroke-width="1" opacity="0.9568627450980393" d="M 208.5 276 L 211 277.5 L 211 329 L 236.5 329 L 238 331.5 L 236.5 333 L 208.5 333 L 207 331.5 L 207 277.5 L 208.5 276 Z " /><path fill="rgb(92,97,96)" stroke="rgb(92,97,96)" stroke-width="1" opacity="0.9568627450980393" d="M 248.5 276 L 275.5 276 L 284 280.5 Q 288.5 285 287 295.5 L 280.5 304 L 274.5 306 L 250 306 L 250 331.5 L 248.5 333 L 246 331.5 L 246 277.5 L 247.5 277 L 248.5 276 Z M 252 280 L 250 282 L 250 301 L 252 302 L 275 302 L 280 300 L 283 295 L 282 285 L 276 280 L 252 280 Z " /><path fill="rgb(131,198,157)" stroke="rgb(131,198,157)" stroke-width="1" opacity="1" d="M 301.5 12 L 300.5 14 L 301.5 12 Z " /><path fill="rgb(131,198,157)" stroke="rgb(131,198,157)" stroke-width="1" opacity="1" d="M 101.5 14 L 102 68.5 L 101 68.5 L 101.5 14 Z " /><path fill="rgb(131,198,157)" stroke="rgb(131,198,157)" stroke-width="1" opacity="1" d="M 110.5 15 L 111.5 17 L 110.5 15 Z " /><path fill="rgb(131,198,157)" stroke="rgb(131,198,157)" stroke-width="1" opacity="1" d="M 296.5 16 L 295.5 18 L 296.5 16 Z " /><path fill="rgb(131,198,157)" stroke="rgb(131,198,157)" stroke-width="1" opacity="1" d="M 114.5 18 L 116.5 21 L 114.5 18 Z " /><path fill="rgb(131,198,157)" stroke="rgb(131,198,157)" stroke-width="1" opacity="1" d="M 291.5 20 L 290.5 22 L 291.5 20 Z " /><path fill="rgb(131,198,157)" stroke="rgb(131,198,157)" stroke-width="1" opacity="1" d="M 120.5 23 L 121.5 25 L 120.5 23 Z " /><path fill="rgb(131,198,157)" stroke="rgb(131,198,157)" stroke-width="1" opacity="1" d="M 286.5 24 L 285.5 26 L 286.5 24 Z " /><path fill="rgb(131,198,157)" stroke="rgb(131,198,157)" stroke-width="1" opacity="1" d="M 188.5 26 L 220 26.5 L 188.5 27 L 188.5 26 Z " /><path fill="rgb(131,198,157)" stroke="rgb(131,198,157)" stroke-width="1" opacity="1" d="M 125.5 27 L 126.5 29 L 125.5 27 Z " /><path fill="rgb(131,198,157)" stroke="rgb(131,198,157)" stroke-width="1" opacity="1" d="M 178.5 27 L 182 27.5 L 178.5 28 L 178.5 27 Z " /><path fill="rgb(131,198,157)" stroke="rgb(131,198,157)" stroke-width="1" opacity="1" d="M 226.5 27 L 230 27.5 L 226.5 28 L 226.5 27 Z " /><path fill="rgb(131,198,157)" stroke="rgb(131,198,157)" stroke-width="1" opacity="1" d="M 171.5 28 L 174 28.5 L 171.5 29 L 171.5 28 Z " /><path fill="rgb(131,198,157)" stroke="rgb(131,198,157)" stroke-width="1" opacity="1" d="M 234.5 28 L 237 28.5 L 234.5 29 L 234.5 28 Z " /><path fill="rgb(131,198,157)" stroke="rgb(131,198,157)" stroke-width="1" opacity="1" d="M 281.5 28 L 280.5 30 L 281.5 28 Z " /><path fill="rgb(131,198,157)" stroke="rgb(131,198,157)" stroke-width="1" opacity="1" d="M 130.5 31 L 131.5 33 L 130.5 31 Z " /><path fill="rgb(131,198,157)" stroke="rgb(131,198,157)" stroke-width="1" opacity="1" d="M 276.5 32 L 275.5 34 L 276.5 32 Z " /><path fill="rgb(131,198,157)" stroke="rgb(131,198,157)" stroke-width="1" opacity="1" d="M 135.5 35 L 136.5 37 L 135.5 35 Z " /><path fill="rgb(131,198,157)" stroke="rgb(131,198,157)" stroke-width="1" opacity="1" d="M 307.5 70 L 308 72.5 L 307 72.5 L 307.5 70 Z " /><path fill="rgb(131,198,157)" stroke="rgb(131,198,157)" stroke-width="1" opacity="1" d="M 154.5 80 L 158 80.5 L 154.5 81 L 154.5 80 Z " /><path fill="rgb(131,198,157)" stroke="rgb(131,198,157)" stroke-width="1" opacity="1" d="M 250.5 80 L 255 80.5 L 250.5 81 L 250.5 80 Z " /><path fill="rgb(131,198,157)" stroke="rgb(131,198,157)" stroke-width="1" opacity="1" d="M 159.5 81 L 160.5 83 L 159.5 81 Z " /><path fill="rgb(131,198,157)" stroke="rgb(131,198,157)" stroke-width="1" opacity="1" d="M 248.5 81 L 247.5 83 L 248.5 81 Z " /><path fill="rgb(131,198,157)" stroke="rgb(131,198,157)" stroke-width="1" opacity="1" d="M 149.5 85 L 150 88.5 L 149 88.5 L 149.5 85 Z " /><path fill="rgb(131,198,157)" stroke="rgb(131,198,157)" stroke-width="1" opacity="1" d="M 310.5 87 L 311 89.5 L 310 89.5 L 310.5 87 Z " /><path fill="rgb(131,198,157)" stroke="rgb(131,198,157)" stroke-width="1" opacity="1" d="M 246.5 88 L 250 92.5 L 246 89.5 L 246.5 88 Z " /><path fill="rgb(131,198,157)" stroke="rgb(131,198,157)" stroke-width="1" opacity="1" d="M 97.5 89 L 98 91.5 L 97 91.5 L 97.5 89 Z " /><path fill="rgb(131,198,157)" stroke="rgb(131,198,157)" stroke-width="1" opacity="1" d="M 150.5 90 L 151.5 92 L 150.5 90 Z " /><path fill="rgb(131,198,157)" stroke="rgb(131,198,157)" stroke-width="1" opacity="1" d="M 257.5 90 L 255.5 93 L 257.5 90 Z " /><path fill="rgb(131,198,157)" stroke="rgb(131,198,157)" stroke-width="1" opacity="1" d="M 311.5 94 L 312 96.5 L 311 96.5 L 311.5 94 Z " /><path fill="rgb(131,198,157)" stroke="rgb(131,198,157)" stroke-width="1" opacity="1" d="M 96.5 96 L 97 98.5 L 96 98.5 L 96.5 96 Z " /><path fill="rgb(131,198,157)" stroke="rgb(131,198,157)" stroke-width="1" opacity="1" d="M 312.5 102 L 313 104.5 L 312 104.5 L 312.5 102 Z " /><path fill="rgb(131,198,157)" stroke="rgb(131,198,157)" stroke-width="1" opacity="1" d="M 95.5 104 L 96 107.5 L 95 107.5 L 95.5 104 Z " /><path fill="rgb(131,198,157)" stroke="rgb(131,198,157)" stroke-width="1" opacity="1" d="M 201.5 107 L 207 107.5 L 201.5 108 L 201.5 107 Z " /><path fill="rgb(131,198,157)" stroke="rgb(131,198,157)" stroke-width="1" opacity="1" d="M 212.5 109 L 213.5 111 L 212.5 109 Z " /><path fill="rgb(131,198,157)" stroke="rgb(131,198,157)" stroke-width="1" opacity="1" d="M 313.5 112 L 314 121.5 L 313 121.5 L 313.5 112 Z " /><path fill="rgb(131,198,157)" stroke="rgb(131,198,157)" stroke-width="1" opacity="1" d="M 210.5 124 L 208.5 127 L 210.5 124 Z " /><path fill="rgb(131,198,157)" stroke="rgb(131,198,157)" stroke-width="1" opacity="1" d="M 95.5 125 L 96 127.5 L 95 127.5 L 95.5 125 Z " /><path fill="rgb(131,198,157)" stroke="rgb(131,198,157)" stroke-width="1" opacity="1" d="M 136.5 127 L 139 127.5 L 136 128 L 135.5 130 L 135 128.5 L 136.5 127 Z " /><path fill="rgb(131,198,157)" stroke="rgb(131,198,157)" stroke-width="1" opacity="1" d="M 269.5 127 L 273 128.5 L 271.5 128 Q 268.5 128.5 269.5 127 Z " /><path fill="rgb(131,198,157)" stroke="rgb(131,198,157)" stroke-width="1" opacity="1" d="M 312.5 128 L 313 130.5 L 312 130.5 L 312.5 128 Z " /><path fill="rgb(131,198,157)" stroke="rgb(131,198,157)" stroke-width="1" opacity="1" d="M 239.5 138 L 243 139.5 L 240.5 140 L 239.5 138 Z " /><path fill="rgb(131,198,157)" stroke="rgb(131,198,157)" stroke-width="1" opacity="1" d="M 165.5 139 L 168 139.5 L 165.5 140 L 165.5 139 Z " /><path fill="rgb(131,198,157)" stroke="rgb(131,198,157)" stroke-width="1" opacity="1" d="M 200.5 139 L 199.5 141 L 200.5 139 Z " /><path fill="rgb(131,198,157)" stroke="rgb(131,198,157)" stroke-width="1" opacity="1" d="M 207.5 139 L 208.5 141 L 207.5 139 Z " /><path fill="rgb(131,198,157)" stroke="rgb(131,198,157)" stroke-width="1" opacity="1" d="M 187.5 142 L 195 142.5 L 187 143 L 186.5 146 L 186 143.5 L 187.5 142 Z " /><path fill="rgb(131,198,157)" stroke="rgb(131,198,157)" stroke-width="1" opacity="1" d="M 213.5 142 Q 220.3 140.3 222 143.5 L 220.5 143 L 213.5 143 L 213.5 142 Z " /><path fill="rgb(131,198,157)" stroke="rgb(131,198,157)" stroke-width="1" opacity="1" d="M 188.5 146 L 195 146.5 L 188.5 147 L 188.5 146 Z " /><path fill="rgb(131,198,157)" stroke="rgb(131,198,157)" stroke-width="1" opacity="1" d="M 213.5 146 L 220 146.5 L 213.5 147 L 213.5 146 Z " /><path fill="rgb(131,198,157)" stroke="rgb(131,198,157)" stroke-width="1" opacity="1" d="M 164.5 148 L 168 148.5 L 164.5 149 L 164.5 148 Z " /><path fill="rgb(131,198,157)" stroke="rgb(131,198,157)" stroke-width="1" opacity="1" d="M 240.5 148 L 244 148.5 L 240 149 L 239.5 151 L 239 149.5 L 240.5 148 Z " /><path fill="rgb(131,198,157)" stroke="rgb(131,198,157)" stroke-width="1" opacity="1" d="M 157.5 149 L 160 149.5 L 157.5 150 L 157.5 149 Z " /><path fill="rgb(131,198,157)" stroke="rgb(131,198,157)" stroke-width="1" opacity="1" d="M 249.5 149 L 252 149.5 L 249.5 150 L 249.5 149 Z " /><path fill="rgb(131,198,157)" stroke="rgb(131,198,157)" stroke-width="1" opacity="1" d="M 149.5 150 L 152 150.5 L 149.5 151 L 149.5 150 Z " /><path fill="rgb(131,198,157)" stroke="rgb(131,198,157)" stroke-width="1" opacity="1" d="M 256.5 150 L 259 150.5 L 256.5 151 L 256.5 150 Z " /><path fill="rgb(131,198,157)" stroke="rgb(131,198,157)" stroke-width="1" opacity="1" d="M 142.5 151 L 145 151.5 L 142.5 152 L 142.5 151 Z " /><path fill="rgb(131,198,157)" stroke="rgb(131,198,157)" stroke-width="1" opacity="1" d="M 263.5 151 L 266 151.5 L 263.5 152 L 263.5 151 Z " /><path fill="rgb(131,198,157)" stroke="rgb(131,198,157)" stroke-width="1" opacity="1" d="M 136.5 152 L 138 152.5 L 136 153 L 135.5 155 L 135 153.5 L 136.5 152 Z " /><path fill="rgb(131,198,157)" stroke="rgb(131,198,157)" stroke-width="1" opacity="1" d="M 164.5 152 L 167 152.5 L 164.5 153 L 164.5 152 Z " /><path fill="rgb(131,198,157)" stroke="rgb(131,198,157)" stroke-width="1" opacity="1" d="M 242.5 152 L 245 152.5 L 242.5 153 L 242.5 152 Z " /><path fill="rgb(131,198,157)" stroke="rgb(131,198,157)" stroke-width="1" opacity="1" d="M 270.5 152 L 273 153.5 L 271.5 153 L 270.5 152 Z " /><path fill="rgb(131,198,157)" stroke="rgb(131,198,157)" stroke-width="1" opacity="1" d="M 156.5 153 L 159 153.5 L 156.5 154 L 156.5 153 Z " /><path fill="rgb(131,198,157)" stroke="rgb(131,198,157)" stroke-width="1" opacity="1" d="M 249.5 153 L 252 153.5 L 249.5 154 L 249.5 153 Z " /><path fill="rgb(131,198,157)" stroke="rgb(131,198,157)" stroke-width="1" opacity="1" d="M 149.5 154 L 152 154.5 L 149.5 155 L 149.5 154 Z " /><path fill="rgb(131,198,157)" stroke="rgb(131,198,157)" stroke-width="1" opacity="1" d="M 256.5 154 L 259 154.5 L 256.5 155 L 256.5 154 Z " /><path fill="rgb(131,198,157)" stroke="rgb(131,198,157)" stroke-width="1" opacity="1" d="M 142.5 155 L 145 155.5 L 142.5 156 L 142.5 155 Z " /><path fill="rgb(131,198,157)" stroke="rgb(131,198,157)" stroke-width="1" opacity="1" d="M 263.5 155 L 266 155.5 L 263.5 156 L 263.5 155 Z " /><path fill="rgb(131,198,157)" stroke="rgb(131,198,157)" stroke-width="1" opacity="1" d="M 298.5 163 L 297.5 165 L 298.5 163 Z " /><path fill="rgb(131,198,157)" stroke="rgb(131,198,157)" stroke-width="1" opacity="1" d="M 110.5 164 L 111.5 166 L 110.5 164 Z " /><path fill="rgb(131,198,157)" stroke="rgb(131,198,157)" stroke-width="1" opacity="1" d="M 295.5 167 L 293.5 170 L 295.5 167 Z " /><path fill="rgb(131,198,157)" stroke="rgb(131,198,157)" stroke-width="1" opacity="1" d="M 114.5 169 L 122.5 178 L 114.5 169 Z " /><path fill="rgb(131,198,157)" stroke="rgb(131,198,157)" stroke-width="1" opacity="1" d="M 286.5 176 L 284.5 179 L 286.5 176 Z " /><path fill="rgb(131,198,157)" stroke="rgb(131,198,157)" stroke-width="1" opacity="1" d="M 126.5 180 L 127.5 182 L 126.5 180 Z " /><path fill="rgb(131,198,157)" stroke="rgb(131,198,157)" stroke-width="1" opacity="1" d="M 129.5 182 L 130.5 184 L 129.5 182 Z " /><path fill="rgb(131,198,157)" stroke="rgb(131,198,157)" stroke-width="1" opacity="1" d="M 277.5 183 L 275.5 186 L 277.5 183 Z " /><path fill="rgb(131,198,157)" stroke="rgb(131,198,157)" stroke-width="1" opacity="1" d="M 281.5 185 L 280.5 187 L 281.5 185 Z " /><path fill="rgb(131,198,157)" stroke="rgb(131,198,157)" stroke-width="1" opacity="1" d="M 316.5 255 L 317 257 L 92 256.5 L 315.5 256 L 316.5 255 Z " /><path fill="rgb(131,198,157)" stroke="rgb(131,198,157)" stroke-width="1" opacity="1" d="M 73 261 L 334.5 261 L 335 261.5 L 335 280 Q 325.7 282.4 320 289.5 Q 317.5 293 319 300.5 Q 323.9 317.1 335 327.5 L 335 348 L 73.5 348 L 73 347.5 L 73 328.5 Q 81.7 319.7 87 307.5 L 90 293.5 L 82.5 284 L 73 278.5 L 73 261 Z M 124 276 L 121 279 L 121 331 Q 124 336 126 331 L 126 307 L 153 307 L 153 331 L 156 333 L 157 332 L 157 307 L 158 306 L 157 303 L 157 278 Q 155 274 153 279 L 153 303 L 126 303 L 126 280 L 124 276 Z M 171 276 L 169 278 L 169 303 L 168 304 L 169 307 L 169 332 L 171 333 L 198 333 L 199 332 L 199 329 L 173 329 L 173 307 L 189 307 L 191 306 L 191 303 L 173 303 L 173 280 L 199 280 L 199 278 L 198 276 L 171 276 Z M 209 276 L 207 278 L 207 332 L 209 333 L 237 333 L 238 332 L 237 329 L 211 329 L 211 278 L 209 276 Z M 249 276 L 248 277 L 246 278 L 246 332 L 249 333 L 250 332 L 250 306 L 275 306 L 281 304 L 287 296 Q 289 285 284 281 L 276 276 L 249 276 Z " /><path fill="rgb(131,198,157)" stroke="rgb(131,198,157)" stroke-width="1" opacity="1" d="M 251.5 280 L 275.5 280 L 282 284.5 L 283 294.5 L 279.5 300 L 274.5 302 L 251.5 302 L 250 300.5 L 250 281.5 L 251.5 280 Z " /><path fill="rgb(131,198,157)" stroke="rgb(131,198,157)" stroke-width="1" opacity="1" d="M 351.5 285 L 355.5 290 L 351.5 285 Z " /><path fill="rgb(131,198,157)" stroke="rgb(131,198,157)" stroke-width="1" opacity="1" d="M 55.5 286 L 53.5 289 L 55.5 286 Z " /><path fill="rgb(131,198,157)" stroke="rgb(131,198,157)" stroke-width="1" opacity="1" d="M 81.5 288 L 82.5 290 L 81.5 288 Z " /><path fill="rgb(131,198,157)" stroke="rgb(131,198,157)" stroke-width="1" opacity="1" d="M 325.5 289 L 324.5 291 L 325.5 289 Z " /><path fill="rgb(131,198,157)" stroke="rgb(131,198,157)" stroke-width="1" opacity="1" d="M 85.5 293 L 86 298.5 L 85 298.5 L 85.5 293 Z " /><path fill="rgb(131,198,157)" stroke="rgb(131,198,157)" stroke-width="1" opacity="1" d="M 322.5 294 L 323 296.5 L 322 296.5 L 322.5 294 Z " /><path fill="rgb(131,198,157)" stroke="rgb(131,198,157)" stroke-width="1" opacity="1" d="M 360.5 302 L 361 306.5 L 360 306.5 L 360.5 302 Z " /><path fill="rgb(131,198,157)" stroke="rgb(131,198,157)" stroke-width="1" opacity="1" d="M 47.5 305 L 48 312.5 L 47 312.5 L 47.5 305 Z " /><path fill="rgb(131,198,157)" stroke="rgb(131,198,157)" stroke-width="1" opacity="1" d="M 360.5 311 L 361 313.5 L 360 313.5 L 360.5 311 Z " /><path fill="rgb(131,198,157)" stroke="rgb(131,198,157)" stroke-width="1" opacity="1" d="M 77.5 316 L 76.5 318 L 77.5 316 Z " /><path fill="rgb(131,198,157)" stroke="rgb(131,198,157)" stroke-width="1" opacity="1" d="M 50.5 317 L 51.5 319 L 50.5 317 Z " /><path fill="rgb(131,198,157)" stroke="rgb(131,198,157)" stroke-width="1" opacity="1" d="M 331.5 317 L 332.5 319 L 331.5 317 Z " /><path fill="rgb(131,198,157)" stroke="rgb(131,198,157)" stroke-width="1" opacity="1" d="M 74.5 320 L 72.5 323 L 74.5 320 Z " /><path fill="rgb(131,198,157)" stroke="rgb(131,198,157)" stroke-width="1" opacity="1" d="M 54.5 321 L 55.5 323 L 54.5 321 Z " /><path fill="rgb(131,198,157)" stroke="rgb(131,198,157)" stroke-width="1" opacity="1" d="M 335.5 322 L 337.5 325 L 335.5 322 Z " /><path fill="rgb(131,198,157)" stroke="rgb(131,198,157)" stroke-width="1" opacity="1" d="M 441.5 323 L 446.5 329 L 441.5 323 Z " /><path fill="rgb(131,198,157)" stroke="rgb(131,198,157)" stroke-width="1" opacity="1" d="M 70.5 324 L 69.5 326 L 70.5 324 Z " /><path fill="rgb(131,198,157)" stroke="rgb(131,198,157)" stroke-width="1" opacity="1" d="M 408.5 328 L 409 331.5 L 408 331.5 L 408.5 328 Z " /><path fill="rgb(131,198,157)" stroke="rgb(131,198,157)" stroke-width="1" opacity="1" d="M 449.5 332 L 450.5 334 L 449.5 332 Z " /><path fill="rgb(131,198,157)" stroke="rgb(131,198,157)" stroke-width="1" opacity="1" d="M 411.5 349 L 412 351.5 L 411 351.5 L 411.5 349 Z " /><path fill="rgb(131,198,157)" stroke="rgb(131,198,157)" stroke-width="1" opacity="1" d="M 75 352 L 333 352.5 L 76 353 L 75.5 370 L 75 352 Z " /><path fill="rgb(131,198,157)" stroke="rgb(131,198,157)" stroke-width="1" opacity="1" d="M 463.5 365 L 464 367.5 L 463 367.5 L 463.5 365 Z " /><path fill="rgb(131,198,157)" stroke="rgb(131,198,157)" stroke-width="1" opacity="1" d="M 332.5 366 L 333 373.5 L 332 373.5 L 332.5 366 Z " /><path fill="rgb(131,198,157)" stroke="rgb(131,198,157)" stroke-width="1" opacity="1" d="M 411.5 369 L 412 371.5 L 411 371.5 L 411.5 369 Z " /><path fill="rgb(131,198,157)" stroke="rgb(131,198,157)" stroke-width="1" opacity="1" d="M 464.5 375 L 465 380.5 L 464 380.5 L 464.5 375 Z " /><path fill="rgb(131,198,157)" stroke="rgb(131,198,157)" stroke-width="1" opacity="1" d="M 76.5 378 L 77 381.5 L 76 381.5 L 76.5 378 Z " /><path fill="rgb(131,198,157)" stroke="rgb(131,198,157)" stroke-width="1" opacity="1" d="M 331.5 381 L 332 384.5 L 331 384.5 L 331.5 381 Z " /><path fill="rgb(131,198,157)" stroke="rgb(131,198,157)" stroke-width="1" opacity="1" d="M 77.5 387 L 78 389.5 L 77 389.5 L 77.5 387 Z " /><path fill="rgb(131,198,157)" stroke="rgb(131,198,157)" stroke-width="1" opacity="1" d="M 463.5 388 L 464 390.5 L 463 390.5 L 463.5 388 Z " /><path fill="rgb(131,198,157)" stroke="rgb(131,198,157)" stroke-width="1" opacity="1" d="M 330.5 389 L 331 391.5 L 330 391.5 L 330.5 389 Z " /><path fill="rgb(131,198,157)" stroke="rgb(131,198,157)" stroke-width="1" opacity="1" d="M 329.5 395 L 330 397.5 L 329 397.5 L 329.5 395 Z " /><path fill="rgb(131,198,157)" stroke="rgb(131,198,157)" stroke-width="1" opacity="1" d="M 399.5 404 L 398.5 406 L 399.5 404 Z " /><path fill="rgb(131,198,157)" stroke="rgb(131,198,157)" stroke-width="1" opacity="1" d="M 397.5 407 L 396.5 409 L 397.5 407 Z " /><path fill="rgb(131,198,157)" stroke="rgb(131,198,157)" stroke-width="1" opacity="1" d="M 393.5 412 L 388.5 418 L 393.5 412 Z " /><path fill="rgb(131,198,157)" stroke="rgb(131,198,157)" stroke-width="1" opacity="1" d="M 383.5 421 L 382.5 423 L 383.5 421 Z " /><path fill="rgb(131,198,157)" stroke="rgb(131,198,157)" stroke-width="1" opacity="1" d="M 448.5 425 L 447.5 427 L 448.5 425 Z " /><path fill="rgb(131,198,157)" stroke="rgb(131,198,157)" stroke-width="1" opacity="1" d="M 445.5 429 L 443.5 432 L 445.5 429 Z " /><path fill="rgb(131,198,157)" stroke="rgb(131,198,157)" stroke-width="1" opacity="1" d="M 352.5 434 L 355 434.5 L 352.5 435 L 352.5 434 Z " /><path fill="rgb(131,198,157)" stroke="rgb(131,198,157)" stroke-width="1" opacity="1" d="M 338.5 435 L 348 435.5 L 338.5 436 L 338.5 435 Z " /><path fill="rgb(131,198,157)" stroke="rgb(131,198,157)" stroke-width="1" opacity="1" d="M 431.5 443 L 429.5 446 L 431.5 443 Z " /><path fill="rgb(131,198,157)" stroke="rgb(131,198,157)" stroke-width="1" opacity="1" d="M 426.5 447 L 425.5 449 L 426.5 447 Z " /><path fill="rgb(131,198,157)" stroke="rgb(131,198,157)" stroke-width="1" opacity="1" d="M 420.5 451 L 419.5 453 L 420.5 451 Z " /><path fill="rgb(131,198,157)" stroke="rgb(131,198,157)" stroke-width="1" opacity="1" d="M 306.5 453 L 305.5 455 L 306.5 453 Z " /><path fill="rgb(131,198,157)" stroke="rgb(131,198,157)" stroke-width="1" opacity="1" d="M 119.5 454 L 120 457.5 L 119 457.5 L 119.5 454 Z " /><path fill="rgb(131,198,157)" stroke="rgb(131,198,157)" stroke-width="1" opacity="1" d="M 123.5 454 L 124 458.5 L 123 458.5 L 123.5 454 Z " /><path fill="rgb(131,198,157)" stroke="rgb(131,198,157)" stroke-width="1" opacity="1" d="M 103.5 455 L 104.5 457 L 103.5 455 Z " /><path fill="rgb(131,198,157)" stroke="rgb(131,198,157)" stroke-width="1" opacity="1" d="M 162.5 455 L 163 463.5 L 162 463.5 L 162.5 455 Z " /><path fill="rgb(131,198,157)" stroke="rgb(131,198,157)" stroke-width="1" opacity="1" d="M 166.5 456 L 167 462.5 L 166 462.5 L 166.5 456 Z " /><path fill="rgb(131,198,157)" stroke="rgb(131,198,157)" stroke-width="1" opacity="1" d="M 243.5 456 L 247 457.5 L 246.5 460 L 246 457 Q 242.7 457.7 243.5 456 Z " /><path fill="rgb(131,198,157)" stroke="rgb(131,198,157)" stroke-width="1" opacity="1" d="M 308.5 457 L 307.5 459 L 308.5 457 Z " /><path fill="rgb(131,198,157)" stroke="rgb(131,198,157)" stroke-width="1" opacity="1" d="M 301.5 459 L 297.5 464 L 301.5 459 Z " /><path fill="rgb(131,198,157)" stroke="rgb(131,198,157)" stroke-width="1" opacity="1" d="M 241.5 463 L 242 465.5 L 241 465.5 L 241.5 463 Z " /><path fill="rgb(131,198,157)" stroke="rgb(131,198,157)" stroke-width="1" opacity="1" d="M 245.5 463 L 246 466.5 L 245 466.5 L 245.5 463 Z " /><path fill="rgb(131,198,157)" stroke="rgb(131,198,157)" stroke-width="1" opacity="1" d="M 113.5 465 L 114.5 467 L 113.5 465 Z " /><path fill="rgb(131,198,157)" stroke="rgb(131,198,157)" stroke-width="1" opacity="1" d="M 117.5 466 L 116.5 468 L 117.5 466 Z " /><path fill="rgb(131,198,157)" stroke="rgb(131,198,157)" stroke-width="1" opacity="1" d="M 293.5 466 L 292.5 468 L 291 467.5 L 293.5 466 Z " /><path fill="rgb(131,198,157)" stroke="rgb(131,198,157)" stroke-width="1" opacity="1" d="M 318.5 468 L 321 468.5 L 318.5 469 L 318.5 468 Z " /><path fill="rgb(131,198,157)" stroke="rgb(131,198,157)" stroke-width="1" opacity="1" d="M 167.5 469 L 168 471.5 L 167 471.5 L 167.5 469 Z " /><path fill="rgb(131,198,157)" stroke="rgb(131,198,157)" stroke-width="1" opacity="1" d="M 325.5 469 L 328 469.5 L 325.5 470 L 325.5 469 Z " /><path fill="rgb(131,198,157)" stroke="rgb(131,198,157)" stroke-width="1" opacity="1" d="M 370.5 469 L 373 469.5 L 370.5 470 L 370.5 469 Z " /><path fill="rgb(131,198,157)" stroke="rgb(131,198,157)" stroke-width="1" opacity="1" d="M 163.5 470 L 164 472.5 L 163 472.5 L 163.5 470 Z " /><path fill="rgb(131,198,157)" stroke="rgb(131,198,157)" stroke-width="1" opacity="1" d="M 240.5 470 L 241 472.5 L 239.5 474 L 168.5 474 L 168.5 473 L 239.5 473 L 240.5 470 Z " /><path fill="rgb(131,198,157)" stroke="rgb(131,198,157)" stroke-width="1" opacity="1" d="M 333.5 470 L 340 470.5 L 333.5 471 L 333.5 470 Z " /><path fill="rgb(131,198,157)" stroke="rgb(131,198,157)" stroke-width="1" opacity="1" d="M 360.5 470 L 366 470.5 L 360.5 471 L 360.5 470 Z " /><path fill="rgb(131,198,157)" stroke="rgb(131,198,157)" stroke-width="1" opacity="1" d="M 244.5 471 L 245 474.5 L 244 474.5 L 244.5 471 Z " /><path fill="rgb(131,198,157)" stroke="rgb(131,198,157)" stroke-width="1" opacity="1" d="M 164.5 476 L 165 479.5 L 164 479.5 L 164.5 476 Z " /><path fill="rgb(131,198,157)" stroke="rgb(131,198,157)" stroke-width="1" opacity="1" d="M 116.5 479 L 117 481.5 L 116 481.5 L 116.5 479 Z " /><path fill="rgb(131,198,157)" stroke="rgb(131,198,157)" stroke-width="1" opacity="1" d="M 292.5 483 L 293 488.5 L 292 488.5 L 292.5 483 Z " /><path fill="rgb(131,198,157)" stroke="rgb(131,198,157)" stroke-width="1" opacity="1" d="M 164.5 487 L 165 489.5 L 164 489.5 L 164.5 487 Z " /><path fill="rgb(131,198,157)" stroke="rgb(131,198,157)" stroke-width="1" opacity="1" d="M 116.5 491 L 117 493.5 L 116 493.5 L 116.5 491 Z " /><path fill="rgb(131,198,157)" stroke="rgb(131,198,157)" stroke-width="1" opacity="1" d="M 118.5 495 L 119.5 497 L 118.5 495 Z " /><path fill="rgb(131,198,157)" stroke="rgb(131,198,157)" stroke-width="1" opacity="1" d="M 247.5 495 L 248.5 497 L 247.5 495 Z " /><path fill="rgb(131,198,157)" stroke="rgb(131,198,157)" stroke-width="1" opacity="1" d="M 130.5 499 L 134 499.5 L 130.5 500 L 130.5 499 Z " /><path fill="rgb(131,198,157)" stroke="rgb(131,198,157)" stroke-width="1" opacity="1" d="M 145.5 499 L 149 499.5 L 145.5 500 L 145.5 499 Z " /><path fill="rgb(131,198,157)" stroke="rgb(131,198,157)" stroke-width="1" opacity="1" d="M 259.5 499 L 263 499.5 L 259.5 500 L 259.5 499 Z " /><path fill="rgb(131,198,157)" stroke="rgb(131,198,157)" stroke-width="1" opacity="1" d="M 274.5 499 L 279 499.5 L 274.5 500 L 274.5 499 Z " /><path fill="rgb(221,221,219)" stroke="rgb(221,221,219)" stroke-width="1" opacity="1" d="M 107.5 13 L 108.5 15 L 107.5 13 Z " /><path fill="rgb(221,221,219)" stroke="rgb(221,221,219)" stroke-width="1" opacity="1" d="M 299.5 14 L 298.5 16 L 299.5 14 Z " /><path fill="rgb(221,221,219)" stroke="rgb(221,221,219)" stroke-width="1" opacity="1" d="M 306.5 14 L 307 68.5 L 306 68.5 L 306.5 14 Z " /><path fill="rgb(221,221,219)" stroke="rgb(221,221,219)" stroke-width="1" opacity="1" d="M 112.5 17 L 113.5 19 L 112.5 17 Z " /><path fill="rgb(221,221,219)" stroke="rgb(221,221,219)" stroke-width="1" opacity="1" d="M 294.5 18 L 293.5 20 L 294.5 18 Z " /><path fill="rgb(221,221,219)" stroke="rgb(221,221,219)" stroke-width="1" opacity="1" d="M 117.5 21 L 118.5 23 L 117.5 21 Z " /><path fill="rgb(221,221,219)" stroke="rgb(221,221,219)" stroke-width="1" opacity="1" d="M 289.5 22 L 288.5 24 L 289.5 22 Z " /><path fill="rgb(221,221,219)" stroke="rgb(221,221,219)" stroke-width="1" opacity="1" d="M 122.5 25 L 123.5 27 L 122.5 25 Z " /><path fill="rgb(221,221,219)" stroke="rgb(221,221,219)" stroke-width="1" opacity="1" d="M 284.5 26 L 283.5 28 L 284.5 26 Z " /><path fill="rgb(221,221,219)" stroke="rgb(221,221,219)" stroke-width="1" opacity="1" d="M 182.5 27 L 185 27.5 L 182.5 28 L 182.5 27 Z " /><path fill="rgb(221,221,219)" stroke="rgb(221,221,219)" stroke-width="1" opacity="1" d="M 127.5 29 L 128.5 31 L 127.5 29 Z " /><path fill="rgb(221,221,219)" stroke="rgb(221,221,219)" stroke-width="1" opacity="1" d="M 279.5 30 L 278.5 32 L 279.5 30 Z " /><path fill="rgb(221,221,219)" stroke="rgb(221,221,219)" stroke-width="1" opacity="1" d="M 132.5 33 L 133.5 35 L 132.5 33 Z " /><path fill="rgb(221,221,219)" stroke="rgb(221,221,219)" stroke-width="1" opacity="1" d="M 274.5 34 L 272.5 37 L 274.5 34 Z " /><path fill="rgb(221,221,219)" stroke="rgb(221,221,219)" stroke-width="1" opacity="1" d="M 151.5 81 L 150.5 83 L 151.5 81 Z " /><path fill="rgb(221,221,219)" stroke="rgb(221,221,219)" stroke-width="1" opacity="1" d="M 256.5 81 L 258.5 84 L 256.5 81 Z " /><path fill="rgb(221,221,219)" stroke="rgb(221,221,219)" stroke-width="1" opacity="1" d="M 162.5 85 L 163 87.5 L 162 87.5 L 162.5 85 Z " /><path fill="rgb(221,221,219)" stroke="rgb(221,221,219)" stroke-width="1" opacity="1" d="M 161.5 90 L 160.5 92 L 161.5 90 Z " /><path fill="rgb(221,221,219)" stroke="rgb(221,221,219)" stroke-width="1" opacity="1" d="M 96.5 99 L 97 101.5 L 96 101.5 L 96.5 99 Z " /><path fill="rgb(221,221,219)" stroke="rgb(221,221,219)" stroke-width="1" opacity="1" d="M 312.5 105 L 313 107.5 L 312 107.5 L 312.5 105 Z " /><path fill="rgb(221,221,219)" stroke="rgb(221,221,219)" stroke-width="1" opacity="1" d="M 95.5 108 L 96 111.5 L 95 111.5 L 95.5 108 Z " /><path fill="rgb(221,221,219)" stroke="rgb(221,221,219)" stroke-width="1" opacity="1" d="M 196.5 108 L 194.5 111 L 196.5 108 Z " /><path fill="rgb(221,221,219)" stroke="rgb(221,221,219)" stroke-width="1" opacity="1" d="M 95.5 122 L 96 124.5 L 95 124.5 L 95.5 122 Z " /><path fill="rgb(221,221,219)" stroke="rgb(221,221,219)" stroke-width="1" opacity="1" d="M 197.5 124 L 199.5 127 L 197.5 124 Z " /><path fill="rgb(221,221,219)" stroke="rgb(221,221,219)" stroke-width="1" opacity="1" d="M 207.5 127 L 207 128.5 L 206.5 137 L 206 128.5 L 207.5 127 Z " /><path fill="rgb(221,221,219)" stroke="rgb(221,221,219)" stroke-width="1" opacity="1" d="M 135.5 130 L 136.5 132 L 135.5 130 Z " /><path fill="rgb(221,221,219)" stroke="rgb(221,221,219)" stroke-width="1" opacity="1" d="M 203.5 142 L 206 143.5 L 204.5 143 L 201.5 145 L 203.5 142 Z " /><path fill="rgb(221,221,219)" stroke="rgb(221,221,219)" stroke-width="1" opacity="1" d="M 239.5 151 L 242 152.5 L 240.5 153 L 239.5 151 Z " /><path fill="rgb(221,221,219)" stroke="rgb(221,221,219)" stroke-width="1" opacity="1" d="M 135.5 155 L 136.5 157 L 135.5 155 Z " /><path fill="rgb(221,221,219)" stroke="rgb(221,221,219)" stroke-width="1" opacity="1" d="M 109.5 162 L 110.5 164 L 109.5 162 Z " /><path fill="rgb(221,221,219)" stroke="rgb(221,221,219)" stroke-width="1" opacity="1" d="M 112.5 166 L 113.5 168 L 112.5 166 Z " /><path fill="rgb(221,221,219)" stroke="rgb(221,221,219)" stroke-width="1" opacity="1" d="M 292.5 170 L 287.5 176 L 292.5 170 Z " /><path fill="rgb(221,221,219)" stroke="rgb(221,221,219)" stroke-width="1" opacity="1" d="M 124.5 178 L 125.5 180 L 124.5 178 Z " /><path fill="rgb(221,221,219)" stroke="rgb(221,221,219)" stroke-width="1" opacity="1" d="M 282.5 179 L 281.5 181 L 282.5 179 Z " /><path fill="rgb(221,221,219)" stroke="rgb(221,221,219)" stroke-width="1" opacity="1" d="M 131.5 183 L 132.5 185 L 131.5 183 Z " /><path fill="rgb(221,221,219)" stroke="rgb(221,221,219)" stroke-width="1" opacity="1" d="M 124.5 184 L 123.5 186 L 124.5 184 Z " /><path fill="rgb(221,221,219)" stroke="rgb(221,221,219)" stroke-width="1" opacity="1" d="M 283.5 184 L 282.5 186 L 283.5 184 Z " /><path fill="rgb(221,221,219)" stroke="rgb(221,221,219)" stroke-width="1" opacity="1" d="M 57.5 285 L 56.5 287 L 57.5 285 Z " /><path fill="rgb(221,221,219)" stroke="rgb(221,221,219)" stroke-width="1" opacity="1" d="M 53.5 289 L 52.5 291 L 53.5 289 Z " /><path fill="rgb(221,221,219)" stroke="rgb(221,221,219)" stroke-width="1" opacity="1" d="M 360.5 307 L 361 310.5 L 360 310.5 L 360.5 307 Z " /><path fill="rgb(221,221,219)" stroke="rgb(221,221,219)" stroke-width="1" opacity="1" d="M 423.5 315 Q 441.1 318.4 449 331.5 Q 457 341 461 354.5 L 464 368.5 L 464 387.5 L 462 397.5 L 456 413.5 Q 446.7 430.7 432.5 443 Q 415.9 457.4 392.5 465 L 369.5 470 L 340.5 471 L 339.5 470 L 321.5 469 L 306 465.5 L 314.5 465 L 315.5 466 L 338 466 L 343 452.5 L 344 438.5 L 343 436 L 359.5 434 L 363.5 432 L 363 433.5 L 364 445.5 L 361 463 Q 384.9 458.5 402 447 L 400 433.5 L 390 416.5 Q 397.4 410.4 401.5 401 L 413 414.5 L 420.5 431 Q 435.5 417.5 443 396.5 L 447 377.5 L 447 364.5 L 446 363.5 L 445 351.5 L 441 339.5 Q 434.9 325.6 424.5 316 L 423.5 315 Z " /><path fill="rgb(221,221,219)" stroke="rgb(221,221,219)" stroke-width="1" opacity="1" d="M 357.5 317 L 352.5 323 L 357.5 317 Z " /><path fill="rgb(221,221,219)" stroke="rgb(221,221,219)" stroke-width="1" opacity="1" d="M 52.5 319 L 53.5 321 L 52.5 319 Z " /><path fill="rgb(221,221,219)" stroke="rgb(221,221,219)" stroke-width="1" opacity="1" d="M 333.5 319 L 334.5 321 L 333.5 319 Z " /><path fill="rgb(221,221,219)" stroke="rgb(221,221,219)" stroke-width="1" opacity="1" d="M 76 353 L 81 353 L 81 360.5 L 82 361.5 L 82 369.5 L 86 390.5 L 93 411.5 Q 101.8 433.2 118.5 447 L 127.5 452 L 135.5 454 L 164 454.5 L 162 455 L 165 486.5 L 164 491.5 L 160.5 496 L 152.5 499 L 134.5 500 Q 132.8 497.2 126.5 499 L 117 495 Q 115.3 490.5 116 482.5 Q 117.8 471.8 123 464.5 L 124 454.5 Q 121.5 449.5 119 454.5 Q 120.1 463.1 116.5 467 Q 109 464 105 457.5 Q 74.4 420.9 76 353 Z " /><path fill="rgb(221,221,219)" stroke="rgb(221,221,219)" stroke-width="1" opacity="1" d="M 328.5 353 L 333 353 L 333 365.5 L 332 366.5 L 332 380.5 L 331 381.5 L 329 400.5 L 321 427.5 Q 312 451 294.5 466 L 291 467 Q 288.1 461.8 289 453 L 285 453 L 285 462.5 L 292 480.5 L 292 492.5 L 289.5 496 L 281.5 499 L 263.5 500 L 252.5 498 L 246 495 Q 242.2 488.7 244 475.5 L 245 474.5 L 245 467.5 L 247 457.5 L 243 456 L 240 473 L 168.5 473 L 168 469.5 L 167 468.5 L 167 456.5 L 165 454.5 L 272.5 454 L 285.5 450 L 298 439.5 Q 310.1 426.1 317 407.5 L 324 383.5 L 326 365.5 L 327 364.5 L 327 354.5 L 328.5 353 Z " /><path fill="rgb(221,221,219)" stroke="rgb(221,221,219)" stroke-width="1" opacity="1" d="M 412.5 356 L 413 364.5 L 412 364.5 L 412.5 356 Z " /><path fill="rgb(221,221,219)" stroke="rgb(221,221,219)" stroke-width="1" opacity="1" d="M 387.5 418 L 385.5 421 L 387.5 418 Z " /><path fill="rgb(221,221,219)" stroke="rgb(221,221,219)" stroke-width="1" opacity="1" d="M 335.5 435 L 338 435.5 L 335.5 436 L 335.5 435 Z " /><path fill="rgb(221,221,219)" stroke="rgb(221,221,219)" stroke-width="1" opacity="1" d="M 315.5 448 L 314.5 450 L 315.5 448 Z " /><path fill="rgb(221,221,219)" stroke="rgb(221,221,219)" stroke-width="1" opacity="1" d="M 313.5 451 L 312.5 453 L 313.5 451 Z " /><path fill="rgb(221,221,219)" stroke="rgb(221,221,219)" stroke-width="1" opacity="1" d="M 310.5 455 L 309.5 457 L 310.5 455 Z " /><path fill="rgb(221,221,219)" stroke="rgb(221,221,219)" stroke-width="1" opacity="1" d="M 306.5 460 L 304 463.5 L 304.5 465 Q 302.3 465.8 303 463.5 L 306.5 460 Z " /></svg>