<svg width="512" height="512" version="1.1" xmlns="http://www.w3.org/2000/svg" desc="Created with imagetracer.js version 1.2.6" ><path fill="rgb(0,0,0)" stroke="rgb(0,0,0)" stroke-width="1" opacity="0" d="M 0 0 L 512 0 L 512 512 L 0 512 L 0 0 Z M 88 8 L 83 13 L 83 70 L 79 88 L 78 101 L 77 102 L 77 112 L 76 113 L 77 130 L 83 151 Q 91 169 106 182 L 84 225 L 72 258 L 63 294 L 60 319 L 59 320 L 58 344 L 57 345 L 57 371 L 58 372 L 58 384 L 59 385 L 61 404 L 69 431 L 84 457 L 99 471 L 100 471 L 97 485 L 99 497 L 107 502 L 115 504 L 138 504 L 146 502 L 151 499 L 155 492 L 155 479 L 156 478 L 225 478 Q 224 489 227 496 L 232 500 L 243 504 L 267 504 L 278 500 L 282 496 L 283 491 L 283 483 L 280 471 L 284 469 L 289 469 L 309 474 L 333 475 L 334 476 L 361 474 L 388 467 L 408 457 L 423 445 Q 425 446 424 444 L 427 442 L 439 428 L 449 410 L 453 398 L 454 386 L 455 385 L 455 371 L 452 355 Q 447 338 437 327 Q 428 313 409 310 L 400 312 L 397 314 Q 391 318 390 326 L 390 335 L 394 356 L 393 374 L 390 386 Q 385 400 376 410 Q 362 426 336 431 L 321 431 L 311 429 L 316 417 L 320 400 L 321 387 L 322 386 L 322 375 L 323 374 L 322 328 L 321 327 L 320 310 L 315 288 L 315 283 L 301 237 L 290 211 L 274 182 L 289 166 L 297 152 L 302 137 L 303 125 L 304 124 L 304 110 L 303 109 L 302 93 L 297 69 L 297 13 L 296 11 L 293 8 L 286 8 L 256 33 L 230 25 L 219 24 L 218 23 L 210 23 L 209 22 L 172 22 L 163 24 L 156 24 L 142 27 L 129 32 L 123 31 L 95 8 L 88 8 Z " /><path fill="rgb(210,218,225)" stroke="rgb(210,218,225)" stroke-width="1" opacity="1" d="M 89.5 12 L 88.5 14 L 89.5 12 Z " /><path fill="rgb(210,218,225)" stroke="rgb(210,218,225)" stroke-width="1" opacity="1" d="M 91.5 12 L 95 14.5 L 92.5 13 L 91.5 12 Z " /><path fill="rgb(210,218,225)" stroke="rgb(210,218,225)" stroke-width="1" opacity="1" d="M 286.5 13 L 284.5 16 L 286.5 13 Z " /><path fill="rgb(210,218,225)" stroke="rgb(210,218,225)" stroke-width="1" opacity="1" d="M 292.5 14 L 293 68.5 L 292 68.5 L 292.5 14 Z " /><path fill="rgb(210,218,225)" stroke="rgb(210,218,225)" stroke-width="1" opacity="1" d="M 87.5 15 L 88 69.5 L 87 69.5 L 87.5 15 Z " /><path fill="rgb(210,218,225)" stroke="rgb(210,218,225)" stroke-width="1" opacity="1" d="M 97.5 16 L 99.5 19 L 97.5 16 Z " /><path fill="rgb(210,218,225)" stroke="rgb(210,218,225)" stroke-width="1" opacity="1" d="M 281.5 17 L 279.5 20 L 281.5 17 Z " /><path fill="rgb(210,218,225)" stroke="rgb(210,218,225)" stroke-width="1" opacity="1" d="M 102.5 20 L 104.5 23 L 102.5 20 Z " /><path fill="rgb(210,218,225)" stroke="rgb(210,218,225)" stroke-width="1" opacity="1" d="M 276.5 21 L 274.5 24 L 276.5 21 Z " /><path fill="rgb(210,218,225)" stroke="rgb(210,218,225)" stroke-width="1" opacity="1" d="M 107.5 24 L 109.5 27 L 107.5 24 Z " /><path fill="rgb(210,218,225)" stroke="rgb(210,218,225)" stroke-width="1" opacity="1" d="M 271.5 25 L 269.5 28 L 271.5 25 Z " /><path fill="rgb(210,218,225)" stroke="rgb(210,218,225)" stroke-width="1" opacity="1" d="M 178.5 26 L 202 26.5 L 178.5 27 L 178.5 26 Z " /><path fill="rgb(210,218,225)" stroke="rgb(210,218,225)" stroke-width="1" opacity="1" d="M 166.5 27 L 171 27.5 L 166.5 28 L 166.5 27 Z " /><path fill="rgb(210,218,225)" stroke="rgb(210,218,225)" stroke-width="1" opacity="1" d="M 210.5 27 L 215 27.5 L 210.5 28 L 210.5 27 Z " /><path fill="rgb(210,218,225)" stroke="rgb(210,218,225)" stroke-width="1" opacity="1" d="M 112.5 28 L 114.5 31 L 112.5 28 Z " /><path fill="rgb(210,218,225)" stroke="rgb(210,218,225)" stroke-width="1" opacity="1" d="M 159.5 28 L 162 28.5 L 159.5 29 L 159.5 28 Z " /><path fill="rgb(210,218,225)" stroke="rgb(210,218,225)" stroke-width="1" opacity="1" d="M 218.5 28 L 222 28.5 L 218.5 29 L 218.5 28 Z " /><path fill="rgb(210,218,225)" stroke="rgb(210,218,225)" stroke-width="1" opacity="1" d="M 153.5 29 L 156 29.5 L 153.5 30 L 153.5 29 Z " /><path fill="rgb(210,218,225)" stroke="rgb(210,218,225)" stroke-width="1" opacity="1" d="M 266.5 29 L 264.5 32 L 266.5 29 Z " /><path fill="rgb(210,218,225)" stroke="rgb(210,218,225)" stroke-width="1" opacity="1" d="M 148.5 30 L 151 30.5 L 148.5 31 L 148.5 30 Z " /><path fill="rgb(210,218,225)" stroke="rgb(210,218,225)" stroke-width="1" opacity="1" d="M 117.5 32 L 119.5 35 L 117.5 32 Z " /><path fill="rgb(210,218,225)" stroke="rgb(210,218,225)" stroke-width="1" opacity="1" d="M 261.5 33 L 259.5 36 L 261.5 33 Z " /><path fill="rgb(210,218,225)" stroke="rgb(210,218,225)" stroke-width="1" opacity="1" d="M 122.5 36 L 126 37.5 L 123.5 38 L 122.5 36 Z " /><path fill="rgb(210,218,225)" stroke="rgb(210,218,225)" stroke-width="1" opacity="1" d="M 254.5 37 L 257 37.5 L 254.5 38 L 254.5 37 Z " /><path fill="rgb(210,218,225)" stroke="rgb(210,218,225)" stroke-width="1" opacity="1" d="M 85.5 78 L 86 80.5 L 85 80.5 L 85.5 78 Z " /><path fill="rgb(210,218,225)" stroke="rgb(210,218,225)" stroke-width="1" opacity="1" d="M 241.5 80 L 246 83.5 L 242.5 81 L 241.5 80 Z " /><path fill="rgb(210,218,225)" stroke="rgb(210,218,225)" stroke-width="1" opacity="1" d="M 235.5 81 L 234.5 83 L 235.5 81 Z " /><path fill="rgb(210,218,225)" stroke="rgb(210,218,225)" stroke-width="1" opacity="1" d="M 295.5 82 L 296 84.5 L 295 84.5 L 295.5 82 Z " /><path fill="rgb(210,218,225)" stroke="rgb(210,218,225)" stroke-width="1" opacity="1" d="M 137.5 83 L 137 84.5 L 136.5 89 L 136 84.5 L 137.5 83 Z " /><path fill="rgb(210,218,225)" stroke="rgb(210,218,225)" stroke-width="1" opacity="1" d="M 84.5 84 L 85 86.5 L 84 86.5 L 84.5 84 Z " /><path fill="rgb(210,218,225)" stroke="rgb(210,218,225)" stroke-width="1" opacity="1" d="M 149.5 85 L 150 88.5 L 149 88.5 L 149.5 85 Z " /><path fill="rgb(210,218,225)" stroke="rgb(210,218,225)" stroke-width="1" opacity="1" d="M 233.5 88 L 235 90.5 L 233 89.5 L 233.5 88 Z " /><path fill="rgb(210,218,225)" stroke="rgb(210,218,225)" stroke-width="1" opacity="1" d="M 296.5 88 L 297 91.5 L 296 91.5 L 296.5 88 Z " /><path fill="rgb(210,218,225)" stroke="rgb(210,218,225)" stroke-width="1" opacity="1" d="M 83.5 90 L 84 93.5 L 83 93.5 L 83.5 90 Z " /><path fill="rgb(210,218,225)" stroke="rgb(210,218,225)" stroke-width="1" opacity="1" d="M 137.5 90 L 139.5 93 L 137.5 90 Z " /><path fill="rgb(210,218,225)" stroke="rgb(210,218,225)" stroke-width="1" opacity="1" d="M 148.5 90 L 146.5 93 L 148.5 90 Z " /><path fill="rgb(210,218,225)" stroke="rgb(210,218,225)" stroke-width="1" opacity="1" d="M 297.5 96 L 298 98.5 L 297 98.5 L 297.5 96 Z " /><path fill="rgb(210,218,225)" stroke="rgb(210,218,225)" stroke-width="1" opacity="1" d="M 82.5 97 L 83 100.5 L 82 100.5 L 82.5 97 Z " /><path fill="rgb(210,218,225)" stroke="rgb(210,218,225)" stroke-width="1" opacity="1" d="M 298.5 104 L 299 107.5 L 298 107.5 L 298.5 104 Z " /><path fill="rgb(210,218,225)" stroke="rgb(210,218,225)" stroke-width="1" opacity="1" d="M 81.5 106 L 82 110.5 L 81 110.5 L 81.5 106 Z " /><path fill="rgb(210,218,225)" stroke="rgb(210,218,225)" stroke-width="1" opacity="1" d="M 185.5 107 L 195 107.5 L 185.5 108 L 185.5 107 Z " /><path fill="rgb(210,218,225)" stroke="rgb(210,218,225)" stroke-width="1" opacity="1" d="M 182.5 108 L 184 108.5 L 180.5 111 L 182.5 108 Z " /><path fill="rgb(210,218,225)" stroke="rgb(210,218,225)" stroke-width="1" opacity="1" d="M 197.5 108 L 199.5 111 L 197.5 108 Z " /><path fill="rgb(210,218,225)" stroke="rgb(210,218,225)" stroke-width="1" opacity="1" d="M 200.5 112 L 201 116.5 L 200 116.5 L 200.5 112 Z " /><path fill="rgb(210,218,225)" stroke="rgb(210,218,225)" stroke-width="1" opacity="1" d="M 81.5 122 L 82 126.5 L 81 126.5 L 81.5 122 Z " /><path fill="rgb(210,218,225)" stroke="rgb(210,218,225)" stroke-width="1" opacity="1" d="M 197.5 123 L 193.5 128 L 192 127.5 L 197.5 123 Z " /><path fill="rgb(210,218,225)" stroke="rgb(210,218,225)" stroke-width="1" opacity="1" d="M 183.5 124 L 185.5 127 L 183.5 124 Z " /><path fill="rgb(210,218,225)" stroke="rgb(210,218,225)" stroke-width="1" opacity="1" d="M 298.5 125 L 299 128.5 L 298 128.5 L 298.5 125 Z " /><path fill="rgb(210,218,225)" stroke="rgb(210,218,225)" stroke-width="1" opacity="1" d="M 122.5 127 L 121.5 129 L 122.5 127 Z " /><path fill="rgb(210,218,225)" stroke="rgb(210,218,225)" stroke-width="1" opacity="1" d="M 258.5 130 L 257.5 132 L 256 131.5 L 258.5 130 Z " /><path fill="rgb(210,218,225)" stroke="rgb(210,218,225)" stroke-width="1" opacity="1" d="M 192.5 135 L 194 138.5 L 192 137.5 L 192.5 135 Z " /><path fill="rgb(210,218,225)" stroke="rgb(210,218,225)" stroke-width="1" opacity="1" d="M 226.5 135 L 228 135.5 L 225.5 137 L 226.5 135 Z " /><path fill="rgb(210,218,225)" stroke="rgb(210,218,225)" stroke-width="1" opacity="1" d="M 189.5 142 L 193 144.5 L 190.5 143 L 187.5 145 L 189.5 142 Z " /><path fill="rgb(210,218,225)" stroke="rgb(210,218,225)" stroke-width="1" opacity="1" d="M 172.5 145 L 173.5 146 L 183 146.5 L 173.5 147 L 172.5 145 Z " /><path fill="rgb(210,218,225)" stroke="rgb(210,218,225)" stroke-width="1" opacity="1" d="M 207.5 145 L 206.5 147 L 197 146.5 L 206.5 146 L 207.5 145 Z " /><path fill="rgb(210,218,225)" stroke="rgb(210,218,225)" stroke-width="1" opacity="1" d="M 148.5 148 L 151 148.5 L 148.5 149 L 148.5 148 Z " /><path fill="rgb(210,218,225)" stroke="rgb(210,218,225)" stroke-width="1" opacity="1" d="M 229.5 148 L 232 148.5 L 229.5 149 L 229.5 148 Z " /><path fill="rgb(210,218,225)" stroke="rgb(210,218,225)" stroke-width="1" opacity="1" d="M 141.5 149 L 144 149.5 L 141.5 150 L 141.5 149 Z " /><path fill="rgb(210,218,225)" stroke="rgb(210,218,225)" stroke-width="1" opacity="1" d="M 236.5 149 L 239 149.5 L 236.5 150 L 236.5 149 Z " /><path fill="rgb(210,218,225)" stroke="rgb(210,218,225)" stroke-width="1" opacity="1" d="M 134.5 150 L 137 150.5 L 134.5 151 L 134.5 150 Z " /><path fill="rgb(210,218,225)" stroke="rgb(210,218,225)" stroke-width="1" opacity="1" d="M 243.5 150 L 247 150.5 L 243.5 151 L 243.5 150 Z " /><path fill="rgb(210,218,225)" stroke="rgb(210,218,225)" stroke-width="1" opacity="1" d="M 291.5 150 L 292 151.5 L 289.5 155 L 290 153.5 L 291.5 150 Z " /><path fill="rgb(210,218,225)" stroke="rgb(210,218,225)" stroke-width="1" opacity="1" d="M 127.5 151 L 130 151.5 L 127.5 152 L 127.5 151 Z " /><path fill="rgb(210,218,225)" stroke="rgb(210,218,225)" stroke-width="1" opacity="1" d="M 154.5 151 L 153.5 153 L 151 152.5 L 154.5 151 Z " /><path fill="rgb(210,218,225)" stroke="rgb(210,218,225)" stroke-width="1" opacity="1" d="M 225.5 151 L 229 152.5 L 226.5 153 L 225.5 151 Z " /><path fill="rgb(210,218,225)" stroke="rgb(210,218,225)" stroke-width="1" opacity="1" d="M 250.5 151 L 254 151.5 L 250.5 152 L 250.5 151 Z " /><path fill="rgb(210,218,225)" stroke="rgb(210,218,225)" stroke-width="1" opacity="1" d="M 122.5 152 L 121.5 154 L 122.5 152 Z " /><path fill="rgb(210,218,225)" stroke="rgb(210,218,225)" stroke-width="1" opacity="1" d="M 186.5 152 L 190 152.5 L 186.5 153 L 186.5 152 Z " /><path fill="rgb(210,218,225)" stroke="rgb(210,218,225)" stroke-width="1" opacity="1" d="M 144.5 153 L 147 153.5 L 144.5 154 L 144.5 153 Z " /><path fill="rgb(210,218,225)" stroke="rgb(210,218,225)" stroke-width="1" opacity="1" d="M 183.5 153 L 185 153.5 L 182.5 155 L 183.5 153 Z " /><path fill="rgb(210,218,225)" stroke="rgb(210,218,225)" stroke-width="1" opacity="1" d="M 233.5 153 L 236 153.5 L 233.5 154 L 233.5 153 Z " /><path fill="rgb(210,218,225)" stroke="rgb(210,218,225)" stroke-width="1" opacity="1" d="M 137.5 154 L 140 154.5 L 137.5 155 L 137.5 154 Z " /><path fill="rgb(210,218,225)" stroke="rgb(210,218,225)" stroke-width="1" opacity="1" d="M 240.5 154 L 243 154.5 L 240.5 155 L 240.5 154 Z " /><path fill="rgb(210,218,225)" stroke="rgb(210,218,225)" stroke-width="1" opacity="1" d="M 121.5 155 L 126 156.5 L 122.5 157 L 121.5 155 Z " /><path fill="rgb(210,218,225)" stroke="rgb(210,218,225)" stroke-width="1" opacity="1" d="M 130.5 155 L 133 155.5 L 130.5 156 L 130.5 155 Z " /><path fill="rgb(210,218,225)" stroke="rgb(210,218,225)" stroke-width="1" opacity="1" d="M 247.5 155 L 251 155.5 L 247.5 156 L 247.5 155 Z " /><path fill="rgb(210,218,225)" stroke="rgb(210,218,225)" stroke-width="1" opacity="1" d="M 258.5 155 L 257.5 157 L 254 156.5 L 258.5 155 Z " /><path fill="rgb(210,218,225)" stroke="rgb(210,218,225)" stroke-width="1" opacity="1" d="M 91.5 156 L 92.5 158 L 91.5 156 Z " /><path fill="rgb(210,218,225)" stroke="rgb(210,218,225)" stroke-width="1" opacity="1" d="M 188.5 156 L 193 156.5 L 188.5 157 L 188.5 156 Z " /><path fill="rgb(210,218,225)" stroke="rgb(210,218,225)" stroke-width="1" opacity="1" d="M 185.5 157 L 183.5 160 L 185.5 157 Z " /><path fill="rgb(210,218,225)" stroke="rgb(210,218,225)" stroke-width="1" opacity="1" d="M 194.5 157 Q 199.3 158.3 198 165.5 L 197 165.5 L 197 160.5 L 194.5 157 Z " /><path fill="rgb(210,218,225)" stroke="rgb(210,218,225)" stroke-width="1" opacity="1" d="M 94.5 161 L 95.5 163 L 94.5 161 Z " /><path fill="rgb(210,218,225)" stroke="rgb(210,218,225)" stroke-width="1" opacity="1" d="M 182.5 161 L 183 164.5 L 182 164.5 L 182.5 161 Z " /><path fill="rgb(210,218,225)" stroke="rgb(210,218,225)" stroke-width="1" opacity="1" d="M 285.5 161 L 284.5 163 L 285.5 161 Z " /><path fill="rgb(210,218,225)" stroke="rgb(210,218,225)" stroke-width="1" opacity="1" d="M 283.5 164 L 282.5 166 L 283.5 164 Z " /><path fill="rgb(210,218,225)" stroke="rgb(210,218,225)" stroke-width="1" opacity="1" d="M 97.5 165 L 99.5 168 L 97.5 165 Z " /><path fill="rgb(210,218,225)" stroke="rgb(210,218,225)" stroke-width="1" opacity="1" d="M 201.5 166 L 202 168.5 L 201 168.5 L 201.5 166 Z " /><path fill="rgb(210,218,225)" stroke="rgb(210,218,225)" stroke-width="1" opacity="1" d="M 196.5 169 L 197 171.5 L 196 171.5 L 196.5 169 Z " /><path fill="rgb(210,218,225)" stroke="rgb(210,218,225)" stroke-width="1" opacity="1" d="M 279.5 169 L 271.5 178 L 279.5 169 Z " /><path fill="rgb(210,218,225)" stroke="rgb(210,218,225)" stroke-width="1" opacity="1" d="M 102.5 171 L 106.5 176 L 102.5 171 Z " /><path fill="rgb(210,218,225)" stroke="rgb(210,218,225)" stroke-width="1" opacity="1" d="M 184.5 172 L 185 174.5 L 184 174.5 L 184.5 172 Z " /><path fill="rgb(210,218,225)" stroke="rgb(210,218,225)" stroke-width="1" opacity="1" d="M 200.5 172 L 201 174.5 L 200 174.5 L 200.5 172 Z " /><path fill="rgb(210,218,225)" stroke="rgb(210,218,225)" stroke-width="1" opacity="1" d="M 180.5 175 L 181 183.5 L 180 183.5 L 180.5 175 Z " /><path fill="rgb(210,218,225)" stroke="rgb(210,218,225)" stroke-width="1" opacity="1" d="M 195.5 176 L 196 182.5 L 195 182.5 L 195.5 176 Z " /><path fill="rgb(210,218,225)" stroke="rgb(210,218,225)" stroke-width="1" opacity="1" d="M 110.5 178 L 112.5 181 L 110.5 178 Z " /><path fill="rgb(210,218,225)" stroke="rgb(210,218,225)" stroke-width="1" opacity="1" d="M 268.5 179 L 266.5 182 L 268.5 179 Z " /><path fill="rgb(210,218,225)" stroke="rgb(210,218,225)" stroke-width="1" opacity="1" d="M 114.5 181 L 115.5 183 L 114.5 181 Z " /><path fill="rgb(210,218,225)" stroke="rgb(210,218,225)" stroke-width="1" opacity="1" d="M 264.5 182 L 263.5 184 L 264.5 182 Z " /><path fill="rgb(210,218,225)" stroke="rgb(210,218,225)" stroke-width="1" opacity="1" d="M 117.5 183 L 118.5 185 L 117.5 183 Z " /><path fill="rgb(210,218,225)" stroke="rgb(210,218,225)" stroke-width="1" opacity="1" d="M 184.5 183 L 185 185.5 L 184 185.5 L 184.5 183 Z " /><path fill="rgb(210,218,225)" stroke="rgb(210,218,225)" stroke-width="1" opacity="1" d="M 110.5 184 L 108.5 187 L 110.5 184 Z " /><path fill="rgb(210,218,225)" stroke="rgb(210,218,225)" stroke-width="1" opacity="1" d="M 269.5 184 L 271 184.5 L 268.5 186 L 269.5 184 Z " /><path fill="rgb(210,218,225)" stroke="rgb(210,218,225)" stroke-width="1" opacity="1" d="M 112.5 185 L 113.5 187 L 112.5 185 Z " /><path fill="rgb(210,218,225)" stroke="rgb(210,218,225)" stroke-width="1" opacity="1" d="M 266.5 186 L 265.5 188 L 266.5 186 Z " /><path fill="rgb(210,218,225)" stroke="rgb(210,218,225)" stroke-width="1" opacity="1" d="M 261.5 187 L 264 188.5 L 262.5 189 L 261.5 187 Z " /><path fill="rgb(210,218,225)" stroke="rgb(210,218,225)" stroke-width="1" opacity="1" d="M 178.5 189 L 174.5 194 L 164 193.5 L 174.5 193 L 178.5 189 Z " /><path fill="rgb(210,218,225)" stroke="rgb(210,218,225)" stroke-width="1" opacity="1" d="M 202.5 190 L 204.5 193 L 202.5 190 Z " /><path fill="rgb(210,218,225)" stroke="rgb(210,218,225)" stroke-width="1" opacity="1" d="M 181.5 192 L 182.5 193 L 197.5 193 Q 198.8 190.7 200 193.5 L 181 194 L 181.5 192 Z " /><path fill="rgb(210,218,225)" stroke="rgb(210,218,225)" stroke-width="1" opacity="1" d="M 206.5 193 L 216 193.5 L 206.5 194 L 206.5 193 Z " /><path fill="rgb(210,218,225)" stroke="rgb(210,218,225)" stroke-width="1" opacity="1" d="M 104.5 194 L 103.5 196 L 104.5 194 Z " /><path fill="rgb(210,218,225)" stroke="rgb(210,218,225)" stroke-width="1" opacity="1" d="M 159.5 195 L 158.5 197 L 159.5 195 Z " /><path fill="rgb(210,218,225)" stroke="rgb(210,218,225)" stroke-width="1" opacity="1" d="M 220.5 195 L 222.5 198 L 220.5 195 Z " /><path fill="rgb(210,218,225)" stroke="rgb(210,218,225)" stroke-width="1" opacity="1" d="M 216.5 198 L 219 200.5 L 219 212.5 L 217.5 214 L 162.5 214 L 161 210 L 215.5 210 L 217 208.5 Q 217.8 200.3 216.5 198 Z " /><path fill="rgb(210,218,225)" stroke="rgb(210,218,225)" stroke-width="1" opacity="1" d="M 156.5 200 L 157 213.5 L 156 213.5 L 156.5 200 Z " /><path fill="rgb(210,218,225)" stroke="rgb(210,218,225)" stroke-width="1" opacity="1" d="M 223.5 200 L 224 213.5 L 223 213.5 L 223.5 200 Z " /><path fill="rgb(210,218,225)" stroke="rgb(210,218,225)" stroke-width="1" opacity="1" d="M 280.5 203 L 283 207.5 L 282 207.5 L 280.5 203 Z " /><path fill="rgb(210,218,225)" stroke="rgb(210,218,225)" stroke-width="1" opacity="1" d="M 157.5 215 L 160 217.5 L 154.5 223 L 159 217.5 L 157.5 215 Z " /><path fill="rgb(210,218,225)" stroke="rgb(210,218,225)" stroke-width="1" opacity="1" d="M 222.5 215 L 221.5 219 Q 218 217 222.5 215 Z " /><path fill="rgb(210,218,225)" stroke="rgb(210,218,225)" stroke-width="1" opacity="1" d="M 167.5 218 L 212.5 218 L 222 224.5 L 225 231.5 L 225 273 Q 214.1 280.4 199.5 285 L 193 290.5 Q 190.3 293.8 191 300.5 Q 196.1 319.9 209.5 331 Q 211.8 334.2 218.5 333 L 225 330 L 225 359.5 L 220.5 367 L 217.5 369 L 163.5 369 L 158 365.5 L 155 355.5 L 155 332 Q 157.1 333.6 162.5 333 Q 170 330 174 323.5 L 183 307.5 L 185 300.5 L 185 295.5 L 180.5 288 L 155 274.5 L 155 233.5 L 158 224.5 L 161.5 221 L 167.5 218 Z " /><path fill="rgb(210,218,225)" stroke="rgb(210,218,225)" stroke-width="1" opacity="1" d="M 224.5 221 L 225.5 223 L 224.5 221 Z " /><path fill="rgb(210,218,225)" stroke="rgb(210,218,225)" stroke-width="1" opacity="1" d="M 226.5 224 L 228 226.5 L 227 226.5 L 226.5 224 Z " /><path fill="rgb(210,218,225)" stroke="rgb(210,218,225)" stroke-width="1" opacity="1" d="M 151.5 229 L 152 272 L 150 271.5 L 151 270.5 L 151.5 229 Z " /><path fill="rgb(210,218,225)" stroke="rgb(210,218,225)" stroke-width="1" opacity="1" d="M 106.5 242 L 106 243.5 L 108 246.5 L 105 244.5 L 106.5 242 Z " /><path fill="rgb(210,218,225)" stroke="rgb(210,218,225)" stroke-width="1" opacity="1" d="M 111.5 243 L 112.5 245 L 111.5 243 Z " /><path fill="rgb(210,218,225)" stroke="rgb(210,218,225)" stroke-width="1" opacity="1" d="M 114.5 245 L 115.5 247 L 114.5 245 Z " /><path fill="rgb(210,218,225)" stroke="rgb(210,218,225)" stroke-width="1" opacity="1" d="M 263.5 245 L 262.5 247 L 263.5 245 Z " /><path fill="rgb(210,218,225)" stroke="rgb(210,218,225)" stroke-width="1" opacity="1" d="M 109.5 247 L 110.5 249 L 109.5 247 Z " /><path fill="rgb(210,218,225)" stroke="rgb(210,218,225)" stroke-width="1" opacity="1" d="M 117.5 247 L 118.5 249 L 117.5 247 Z " /><path fill="rgb(210,218,225)" stroke="rgb(210,218,225)" stroke-width="1" opacity="1" d="M 260.5 247 L 259.5 249 L 260.5 247 Z " /><path fill="rgb(210,218,225)" stroke="rgb(210,218,225)" stroke-width="1" opacity="1" d="M 112.5 249 L 113.5 251 L 112.5 249 Z " /><path fill="rgb(210,218,225)" stroke="rgb(210,218,225)" stroke-width="1" opacity="1" d="M 120.5 249 L 121.5 251 L 120.5 249 Z " /><path fill="rgb(210,218,225)" stroke="rgb(210,218,225)" stroke-width="1" opacity="1" d="M 257.5 249 L 256.5 251 L 257.5 249 Z " /><path fill="rgb(210,218,225)" stroke="rgb(210,218,225)" stroke-width="1" opacity="1" d="M 265.5 249 L 264.5 251 L 265.5 249 Z " /><path fill="rgb(210,218,225)" stroke="rgb(210,218,225)" stroke-width="1" opacity="1" d="M 115.5 251 L 116.5 253 L 115.5 251 Z " /><path fill="rgb(210,218,225)" stroke="rgb(210,218,225)" stroke-width="1" opacity="1" d="M 254.5 251 L 253.5 253 L 254.5 251 Z " /><path fill="rgb(210,218,225)" stroke="rgb(210,218,225)" stroke-width="1" opacity="1" d="M 262.5 251 L 261.5 253 L 262.5 251 Z " /><path fill="rgb(210,218,225)" stroke="rgb(210,218,225)" stroke-width="1" opacity="1" d="M 124.5 252 L 125.5 254 L 124.5 252 Z " /><path fill="rgb(210,218,225)" stroke="rgb(210,218,225)" stroke-width="1" opacity="1" d="M 118.5 253 L 119.5 255 L 118.5 253 Z " /><path fill="rgb(210,218,225)" stroke="rgb(210,218,225)" stroke-width="1" opacity="1" d="M 251.5 253 L 250.5 255 L 251.5 253 Z " /><path fill="rgb(210,218,225)" stroke="rgb(210,218,225)" stroke-width="1" opacity="1" d="M 259.5 253 L 258.5 255 L 259.5 253 Z " /><path fill="rgb(210,218,225)" stroke="rgb(210,218,225)" stroke-width="1" opacity="1" d="M 128.5 255 L 129.5 257 L 128.5 255 Z " /><path fill="rgb(210,218,225)" stroke="rgb(210,218,225)" stroke-width="1" opacity="1" d="M 256.5 255 L 255.5 257 L 256.5 255 Z " /><path fill="rgb(210,218,225)" stroke="rgb(210,218,225)" stroke-width="1" opacity="1" d="M 122.5 256 L 123.5 258 L 122.5 256 Z " /><path fill="rgb(210,218,225)" stroke="rgb(210,218,225)" stroke-width="1" opacity="1" d="M 247.5 256 L 246.5 258 L 247.5 256 Z " /><path fill="rgb(210,218,225)" stroke="rgb(210,218,225)" stroke-width="1" opacity="1" d="M 131.5 257 L 133.5 260 L 131.5 257 Z " /><path fill="rgb(210,218,225)" stroke="rgb(210,218,225)" stroke-width="1" opacity="1" d="M 253.5 257 L 252.5 259 L 253.5 257 Z " /><path fill="rgb(210,218,225)" stroke="rgb(210,218,225)" stroke-width="1" opacity="1" d="M 244.5 258 L 243.5 260 L 244.5 258 Z " /><path fill="rgb(210,218,225)" stroke="rgb(210,218,225)" stroke-width="1" opacity="1" d="M 126.5 259 L 127.5 261 L 126.5 259 Z " /><path fill="rgb(210,218,225)" stroke="rgb(210,218,225)" stroke-width="1" opacity="1" d="M 135.5 260 L 137.5 263 L 135.5 260 Z " /><path fill="rgb(210,218,225)" stroke="rgb(210,218,225)" stroke-width="1" opacity="1" d="M 241.5 260 L 239.5 263 L 241.5 260 Z " /><path fill="rgb(210,218,225)" stroke="rgb(210,218,225)" stroke-width="1" opacity="1" d="M 249.5 260 L 248.5 262 L 249.5 260 Z " /><path fill="rgb(210,218,225)" stroke="rgb(210,218,225)" stroke-width="1" opacity="1" d="M 130.5 262 L 131.5 264 L 130.5 262 Z " /><path fill="rgb(210,218,225)" stroke="rgb(210,218,225)" stroke-width="1" opacity="1" d="M 246.5 262 L 245.5 264 L 246.5 262 Z " /><path fill="rgb(210,218,225)" stroke="rgb(210,218,225)" stroke-width="1" opacity="1" d="M 237.5 263 L 236.5 265 L 237.5 263 Z " /><path fill="rgb(210,218,225)" stroke="rgb(210,218,225)" stroke-width="1" opacity="1" d="M 140.5 264 L 141.5 266 L 140.5 264 Z " /><path fill="rgb(210,218,225)" stroke="rgb(210,218,225)" stroke-width="1" opacity="1" d="M 243.5 264 L 241.5 267 L 243.5 264 Z " /><path fill="rgb(210,218,225)" stroke="rgb(210,218,225)" stroke-width="1" opacity="1" d="M 134.5 265 L 135.5 267 L 134.5 265 Z " /><path fill="rgb(210,218,225)" stroke="rgb(210,218,225)" stroke-width="1" opacity="1" d="M 233.5 266 L 232.5 268 L 233.5 266 Z " /><path fill="rgb(210,218,225)" stroke="rgb(210,218,225)" stroke-width="1" opacity="1" d="M 144.5 267 L 145.5 269 L 144.5 267 Z " /><path fill="rgb(210,218,225)" stroke="rgb(210,218,225)" stroke-width="1" opacity="1" d="M 239.5 267 L 238.5 269 L 239.5 267 Z " /><path fill="rgb(210,218,225)" stroke="rgb(210,218,225)" stroke-width="1" opacity="1" d="M 138.5 268 L 139.5 270 L 138.5 268 Z " /><path fill="rgb(210,218,225)" stroke="rgb(210,218,225)" stroke-width="1" opacity="1" d="M 230.5 268 L 229.5 270 L 230.5 268 Z " /><path fill="rgb(210,218,225)" stroke="rgb(210,218,225)" stroke-width="1" opacity="1" d="M 147.5 269 L 148.5 271 L 147.5 269 Z " /><path fill="rgb(210,218,225)" stroke="rgb(210,218,225)" stroke-width="1" opacity="1" d="M 235.5 270 L 234.5 272 L 235.5 270 Z " /><path fill="rgb(210,218,225)" stroke="rgb(210,218,225)" stroke-width="1" opacity="1" d="M 142.5 271 L 143.5 273 L 142.5 271 Z " /><path fill="rgb(210,218,225)" stroke="rgb(210,218,225)" stroke-width="1" opacity="1" d="M 232.5 272 L 231.5 274 L 232.5 272 Z " /><path fill="rgb(210,218,225)" stroke="rgb(210,218,225)" stroke-width="1" opacity="1" d="M 145.5 273 L 146.5 275 L 145.5 273 Z " /><path fill="rgb(210,218,225)" stroke="rgb(210,218,225)" stroke-width="1" opacity="1" d="M 229.5 274 L 228.5 276 L 229.5 274 Z " /><path fill="rgb(210,218,225)" stroke="rgb(210,218,225)" stroke-width="1" opacity="1" d="M 148.5 275 L 149.5 277 L 148.5 275 Z " /><path fill="rgb(210,218,225)" stroke="rgb(210,218,225)" stroke-width="1" opacity="1" d="M 224.5 277 L 223.5 279 L 224.5 277 Z " /><path fill="rgb(210,218,225)" stroke="rgb(210,218,225)" stroke-width="1" opacity="1" d="M 219.5 280 L 218.5 282 L 219.5 280 Z " /><path fill="rgb(210,218,225)" stroke="rgb(210,218,225)" stroke-width="1" opacity="1" d="M 158.5 281 L 159.5 283 L 158.5 281 Z " /><path fill="rgb(210,218,225)" stroke="rgb(210,218,225)" stroke-width="1" opacity="1" d="M 83.5 285 L 86 285.5 L 83 286 L 84 289.5 L 82 288.5 L 83.5 285 Z " /><path fill="rgb(210,218,225)" stroke="rgb(210,218,225)" stroke-width="1" opacity="1" d="M 285.5 285 L 289 286.5 L 287.5 286 Q 284.5 286.5 285.5 285 Z " /><path fill="rgb(210,218,225)" stroke="rgb(210,218,225)" stroke-width="1" opacity="1" d="M 310.5 285 L 311 287.5 L 310 287.5 L 310.5 285 Z " /><path fill="rgb(210,218,225)" stroke="rgb(210,218,225)" stroke-width="1" opacity="1" d="M 288.5 288 L 287.5 290 L 288.5 288 Z " /><path fill="rgb(210,218,225)" stroke="rgb(210,218,225)" stroke-width="1" opacity="1" d="M 176.5 290 L 179.5 294 L 176.5 290 Z " /><path fill="rgb(210,218,225)" stroke="rgb(210,218,225)" stroke-width="1" opacity="1" d="M 199.5 290 L 196.5 294 L 199.5 290 Z " /><path fill="rgb(210,218,225)" stroke="rgb(210,218,225)" stroke-width="1" opacity="1" d="M 311.5 290 L 315 306.5 L 317 328.5 L 318 329.5 L 319 370.5 L 318 371.5 L 318 382.5 L 317 383.5 L 315 401.5 L 306 430.5 Q 296.8 452.8 279.5 467 L 277.5 468 Q 274 463.5 275 454.5 L 273.5 453 L 271 453.5 L 271 461.5 L 278 479.5 L 278 493.5 L 268.5 499 L 246.5 500 L 237.5 498 L 231 493.5 L 230 491.5 L 230 472.5 L 232 464.5 L 232 457.5 Q 230 454 228 458.5 L 227 471.5 L 225.5 473 L 154.5 473 L 154 471.5 L 153 470.5 L 153 460.5 L 152 455 L 148 456.5 L 149 470.5 L 151 478.5 L 151 488.5 L 150 492.5 L 146.5 496 L 133.5 500 L 117.5 500 L 108.5 498 L 103 494.5 L 102 492.5 L 102 480.5 L 109 463.5 L 109 453 L 105 454.5 Q 106.3 463.8 102.5 468 L 89 455.5 Q 74.8 437.7 68 412.5 L 62 379.5 L 61 348.5 L 62 347.5 L 62 332.5 L 63 331.5 L 64 314.5 L 68.5 291 L 69 296.5 L 68 297.5 L 67 321.5 L 66 322.5 L 66 348.5 L 67 349.5 L 67 361.5 L 68 362.5 L 69 376.5 L 77 406.5 Q 82.8 422.2 92 434.5 L 104.5 447 L 113.5 452 L 122.5 454 L 258.5 454 Q 276 450.5 285 438.5 Q 294.5 427 301 412.5 L 310 383.5 L 312 365.5 L 313 364.5 L 313 354.5 L 314 353.5 L 314 317.5 L 313 316.5 L 313 304.5 L 312 303.5 L 311.5 290 Z " /><path fill="rgb(210,218,225)" stroke="rgb(210,218,225)" stroke-width="1" opacity="1" d="M 281.5 291 L 283 291.5 L 280.5 293 L 281.5 291 Z " /><path fill="rgb(210,218,225)" stroke="rgb(210,218,225)" stroke-width="1" opacity="1" d="M 180.5 295 L 181 299.5 L 180 299.5 L 180.5 295 Z " /><path fill="rgb(210,218,225)" stroke="rgb(210,218,225)" stroke-width="1" opacity="1" d="M 195.5 295 L 196 299.5 L 195 299.5 L 195.5 295 Z " /><path fill="rgb(210,218,225)" stroke="rgb(210,218,225)" stroke-width="1" opacity="1" d="M 119.5 298 L 120.5 300 L 119.5 298 Z " /><path fill="rgb(210,218,225)" stroke="rgb(210,218,225)" stroke-width="1" opacity="1" d="M 254.5 299 L 253.5 301 L 254.5 299 Z " /><path fill="rgb(210,218,225)" stroke="rgb(210,218,225)" stroke-width="1" opacity="1" d="M 126.5 302 L 127.5 304 L 126.5 302 Z " /><path fill="rgb(210,218,225)" stroke="rgb(210,218,225)" stroke-width="1" opacity="1" d="M 249.5 302 L 248.5 304 L 249.5 302 Z " /><path fill="rgb(210,218,225)" stroke="rgb(210,218,225)" stroke-width="1" opacity="1" d="M 119.5 303 L 120.5 305 L 119.5 303 Z " /><path fill="rgb(210,218,225)" stroke="rgb(210,218,225)" stroke-width="1" opacity="1" d="M 256.5 303 L 255.5 305 L 256.5 303 Z " /><path fill="rgb(210,218,225)" stroke="rgb(210,218,225)" stroke-width="1" opacity="1" d="M 129.5 304 L 130.5 306 L 129.5 304 Z " /><path fill="rgb(210,218,225)" stroke="rgb(210,218,225)" stroke-width="1" opacity="1" d="M 124.5 306 L 125.5 308 L 124.5 306 Z " /><path fill="rgb(210,218,225)" stroke="rgb(210,218,225)" stroke-width="1" opacity="1" d="M 132.5 306 L 133.5 308 L 132.5 306 Z " /><path fill="rgb(210,218,225)" stroke="rgb(210,218,225)" stroke-width="1" opacity="1" d="M 243.5 306 L 242.5 308 L 243.5 306 Z " /><path fill="rgb(210,218,225)" stroke="rgb(210,218,225)" stroke-width="1" opacity="1" d="M 251.5 306 L 250.5 308 L 251.5 306 Z " /><path fill="rgb(210,218,225)" stroke="rgb(210,218,225)" stroke-width="1" opacity="1" d="M 127.5 308 L 128.5 310 L 127.5 308 Z " /><path fill="rgb(210,218,225)" stroke="rgb(210,218,225)" stroke-width="1" opacity="1" d="M 135.5 308 L 136.5 310 L 135.5 308 Z " /><path fill="rgb(210,218,225)" stroke="rgb(210,218,225)" stroke-width="1" opacity="1" d="M 240.5 308 L 239.5 310 L 240.5 308 Z " /><path fill="rgb(210,218,225)" stroke="rgb(210,218,225)" stroke-width="1" opacity="1" d="M 130.5 310 L 131.5 312 L 130.5 310 Z " /><path fill="rgb(210,218,225)" stroke="rgb(210,218,225)" stroke-width="1" opacity="1" d="M 245.5 310 L 244.5 312 L 245.5 310 Z " /><path fill="rgb(210,218,225)" stroke="rgb(210,218,225)" stroke-width="1" opacity="1" d="M 139.5 311 L 141.5 314 L 139.5 311 Z " /><path fill="rgb(210,218,225)" stroke="rgb(210,218,225)" stroke-width="1" opacity="1" d="M 236.5 311 L 235.5 313 L 236.5 311 Z " /><path fill="rgb(210,218,225)" stroke="rgb(210,218,225)" stroke-width="1" opacity="1" d="M 133.5 312 L 134.5 314 L 133.5 312 Z " /><path fill="rgb(210,218,225)" stroke="rgb(210,218,225)" stroke-width="1" opacity="1" d="M 242.5 312 L 241.5 314 L 242.5 312 Z " /><path fill="rgb(210,218,225)" stroke="rgb(210,218,225)" stroke-width="1" opacity="1" d="M 137.5 315 L 139.5 318 L 137.5 315 Z " /><path fill="rgb(210,218,225)" stroke="rgb(210,218,225)" stroke-width="1" opacity="1" d="M 238.5 315 L 236.5 318 L 238.5 315 Z " /><path fill="rgb(210,218,225)" stroke="rgb(210,218,225)" stroke-width="1" opacity="1" d="M 404.5 315 L 407 315.5 L 404.5 316 L 404.5 315 Z " /><path fill="rgb(210,218,225)" stroke="rgb(210,218,225)" stroke-width="1" opacity="1" d="M 409.5 315 Q 417 315.5 421.5 319 L 436 332.5 L 447 353.5 L 450 366.5 L 450 388.5 Q 447.3 405.3 440 417.5 Q 430.6 433.6 416.5 445 Q 398.2 459.7 372.5 467 L 357.5 470 L 349.5 470 L 348.5 471 L 322.5 471 L 321.5 470 L 305.5 469 L 288 464.5 L 292 461.5 Q 288.3 463.3 291.5 465 L 324 466 L 329 452.5 L 330 439.5 L 329 436 L 321 435.5 L 339.5 435 L 349.5 432 L 349 433.5 L 350 445.5 L 347 463 Q 370.7 458.3 388 447 L 386 433.5 Q 382.4 423.6 375.5 417 L 371 420.5 Q 381.2 412.7 387.5 401 Q 401 411.9 405 431 L 413 424.5 L 427 401.5 L 430 392.5 L 430 388.5 Q 419.2 374.1 398 371 L 397.5 374 L 397 371.5 L 398 370.5 L 398 351 Q 418.7 352.5 431.5 363 L 432 356.5 Q 426.9 330.6 410.5 316 L 409.5 315 Z " /><path fill="rgb(210,218,225)" stroke="rgb(210,218,225)" stroke-width="1" opacity="1" d="M 173.5 316 L 172.5 318 L 173.5 316 Z " /><path fill="rgb(210,218,225)" stroke="rgb(210,218,225)" stroke-width="1" opacity="1" d="M 202.5 316 L 203.5 318 L 202.5 316 Z " /><path fill="rgb(210,218,225)" stroke="rgb(210,218,225)" stroke-width="1" opacity="1" d="M 401.5 316 L 400.5 318 L 401.5 316 Z " /><path fill="rgb(210,218,225)" stroke="rgb(210,218,225)" stroke-width="1" opacity="1" d="M 144.5 317 L 145.5 319 L 144.5 317 Z " /><path fill="rgb(210,218,225)" stroke="rgb(210,218,225)" stroke-width="1" opacity="1" d="M 231.5 317 L 230.5 319 L 231.5 317 Z " /><path fill="rgb(210,218,225)" stroke="rgb(210,218,225)" stroke-width="1" opacity="1" d="M 140.5 319 L 141.5 321 L 140.5 319 Z " /><path fill="rgb(210,218,225)" stroke="rgb(210,218,225)" stroke-width="1" opacity="1" d="M 171.5 319 L 169.5 322 L 171.5 319 Z " /><path fill="rgb(210,218,225)" stroke="rgb(210,218,225)" stroke-width="1" opacity="1" d="M 204.5 319 L 205.5 321 L 204.5 319 Z " /><path fill="rgb(210,218,225)" stroke="rgb(210,218,225)" stroke-width="1" opacity="1" d="M 235.5 319 L 234.5 321 L 235.5 319 Z " /><path fill="rgb(210,218,225)" stroke="rgb(210,218,225)" stroke-width="1" opacity="1" d="M 397.5 320 L 396.5 322 L 397.5 320 Z " /><path fill="rgb(210,218,225)" stroke="rgb(210,218,225)" stroke-width="1" opacity="1" d="M 142.5 322 L 146.5 327 L 142.5 322 Z " /><path fill="rgb(210,218,225)" stroke="rgb(210,218,225)" stroke-width="1" opacity="1" d="M 207.5 323 L 210.5 327 L 207.5 323 Z " /><path fill="rgb(210,218,225)" stroke="rgb(210,218,225)" stroke-width="1" opacity="1" d="M 232.5 323 L 229.5 327 L 232.5 323 Z " /><path fill="rgb(210,218,225)" stroke="rgb(210,218,225)" stroke-width="1" opacity="1" d="M 151.5 324 L 152.5 326 L 151.5 324 Z " /><path fill="rgb(210,218,225)" stroke="rgb(210,218,225)" stroke-width="1" opacity="1" d="M 167.5 324 L 165.5 327 L 167.5 324 Z " /><path fill="rgb(210,218,225)" stroke="rgb(210,218,225)" stroke-width="1" opacity="1" d="M 224.5 324 L 223.5 326 L 224.5 324 Z " /><path fill="rgb(210,218,225)" stroke="rgb(210,218,225)" stroke-width="1" opacity="1" d="M 163.5 327 L 162.5 329 L 163.5 327 Z " /><path fill="rgb(210,218,225)" stroke="rgb(210,218,225)" stroke-width="1" opacity="1" d="M 212.5 327 L 213.5 329 L 212.5 327 Z " /><path fill="rgb(210,218,225)" stroke="rgb(210,218,225)" stroke-width="1" opacity="1" d="M 149.5 328 L 152 330.5 L 152 361.5 L 151 361.5 L 151 330.5 L 149.5 328 Z " /><path fill="rgb(210,218,225)" stroke="rgb(210,218,225)" stroke-width="1" opacity="1" d="M 395.5 336 L 396 338.5 L 395 338.5 L 395.5 336 Z " /><path fill="rgb(210,218,225)" stroke="rgb(210,218,225)" stroke-width="1" opacity="1" d="M 396.5 341 L 397 343.5 L 396 343.5 L 396.5 341 Z " /><path fill="rgb(210,218,225)" stroke="rgb(210,218,225)" stroke-width="1" opacity="1" d="M 397.5 347 L 398 349.5 L 397 349.5 L 397.5 347 Z " /><path fill="rgb(210,218,225)" stroke="rgb(210,218,225)" stroke-width="1" opacity="1" d="M 152.5 363 L 154 365.5 L 152 364.5 L 152.5 363 Z " /><path fill="rgb(210,218,225)" stroke="rgb(210,218,225)" stroke-width="1" opacity="1" d="M 226.5 366 L 221.5 372 L 226.5 366 Z " /><path fill="rgb(210,218,225)" stroke="rgb(210,218,225)" stroke-width="1" opacity="1" d="M 154.5 367 L 157.5 371 L 154.5 367 Z " /><path fill="rgb(210,218,225)" stroke="rgb(210,218,225)" stroke-width="1" opacity="1" d="M 164.5 373 L 217 373.5 L 164.5 374 L 164.5 373 Z " /><path fill="rgb(210,218,225)" stroke="rgb(210,218,225)" stroke-width="1" opacity="1" d="M 368.5 422 L 367.5 424 L 368.5 422 Z " /><path fill="rgb(210,218,225)" stroke="rgb(210,218,225)" stroke-width="1" opacity="1" d="M 365.5 424 L 364.5 426 L 365.5 424 Z " /><path fill="rgb(210,218,225)" stroke="rgb(210,218,225)" stroke-width="1" opacity="1" d="M 307.5 436 L 308 437.5 L 304.5 443 L 305 441.5 L 307.5 436 Z " /><path fill="rgb(210,218,225)" stroke="rgb(210,218,225)" stroke-width="1" opacity="1" d="M 299.5 451 L 297.5 454 L 299.5 451 Z " /><path fill="rgb(210,218,225)" stroke="rgb(210,218,225)" stroke-width="1" opacity="1" d="M 296.5 455 L 294.5 458 L 296.5 455 Z " /><path fill="rgb(234,233,233)" stroke="rgb(234,233,233)" stroke-width="1" opacity="1" d="M 138.5 81 L 137.5 83 L 138.5 81 Z " /><path fill="rgb(234,233,233)" stroke="rgb(234,233,233)" stroke-width="1" opacity="1" d="M 147.5 81 L 148.5 83 L 147.5 81 Z " /><path fill="rgb(234,233,233)" stroke="rgb(234,233,233)" stroke-width="1" opacity="1" d="M 192.5 128 L 193 134.5 L 192 134.5 L 192.5 128 Z " /><path fill="rgb(234,233,233)" stroke="rgb(234,233,233)" stroke-width="1" opacity="1" d="M 194.5 139 L 195.5 141 L 194.5 139 Z " /><path fill="rgb(234,233,233)" stroke="rgb(234,233,233)" stroke-width="1" opacity="1" d="M 193.5 157 Q 199 159 197 168.5 L 196 169.5 L 195 182.5 L 198 193 L 195 191.5 L 193 187.5 L 192 179.5 L 194 169.5 L 194 159.5 L 193.5 157 Z " /><path fill="rgb(234,233,233)" stroke="rgb(234,233,233)" stroke-width="1" opacity="1" d="M 281.5 166 L 280.5 168 L 281.5 166 Z " /><path fill="rgb(234,233,233)" stroke="rgb(234,233,233)" stroke-width="1" opacity="1" d="M 100.5 168 L 101.5 170 L 100.5 168 Z " /><path fill="rgb(234,233,233)" stroke="rgb(234,233,233)" stroke-width="1" opacity="1" d="M 108.5 176 L 109.5 178 L 108.5 176 Z " /><path fill="rgb(234,233,233)" stroke="rgb(234,233,233)" stroke-width="1" opacity="1" d="M 164.5 198 L 215.5 198 L 217 199.5 L 217 208.5 L 215.5 210 L 161.5 210 L 161 209.5 L 161 201.5 L 162 199 L 164.5 198 Z " /><path fill="rgb(234,233,233)" stroke="rgb(234,233,233)" stroke-width="1" opacity="1" d="M 136.5 267 L 137.5 269 L 136.5 267 Z " /><path fill="rgb(234,233,233)" stroke="rgb(234,233,233)" stroke-width="1" opacity="1" d="M 309.5 283 L 310 285.5 L 309 285.5 L 309.5 283 Z " /><path fill="rgb(234,233,233)" stroke="rgb(234,233,233)" stroke-width="1" opacity="1" d="M 70.5 284 L 71 286.5 L 70 286.5 L 70.5 284 Z " /><path fill="rgb(234,233,233)" stroke="rgb(234,233,233)" stroke-width="1" opacity="1" d="M 310.5 288 L 311 292.5 L 310 292.5 L 310.5 288 Z " /><path fill="rgb(234,233,233)" stroke="rgb(234,233,233)" stroke-width="1" opacity="1" d="M 69.5 289 L 70 294.5 L 69 294.5 L 69.5 289 Z " /><path fill="rgb(234,233,233)" stroke="rgb(234,233,233)" stroke-width="1" opacity="1" d="M 311.5 295 L 312 300.5 L 311 300.5 L 311.5 295 Z " /><path fill="rgb(234,233,233)" stroke="rgb(234,233,233)" stroke-width="1" opacity="1" d="M 68.5 297 L 69 303.5 L 68 303.5 L 68.5 297 Z " /><path fill="rgb(234,233,233)" stroke="rgb(234,233,233)" stroke-width="1" opacity="1" d="M 312.5 304 L 313 312.5 L 312 312.5 L 312.5 304 Z " /><path fill="rgb(234,233,233)" stroke="rgb(234,233,233)" stroke-width="1" opacity="1" d="M 67.5 306 L 68 318.5 L 67 318.5 L 67.5 306 Z " /><path fill="rgb(234,233,233)" stroke="rgb(234,233,233)" stroke-width="1" opacity="1" d="M 410.5 316 L 421 328.5 L 419 327.5 L 410.5 316 Z " /><path fill="rgb(234,233,233)" stroke="rgb(234,233,233)" stroke-width="1" opacity="1" d="M 313.5 317 L 314 353.5 L 313 353.5 L 313.5 317 Z " /><path fill="rgb(234,233,233)" stroke="rgb(234,233,233)" stroke-width="1" opacity="1" d="M 399.5 318 L 398.5 320 L 399.5 318 Z " /><path fill="rgb(234,233,233)" stroke="rgb(234,233,233)" stroke-width="1" opacity="1" d="M 146.5 319 L 150.5 324 L 146.5 319 Z " /><path fill="rgb(234,233,233)" stroke="rgb(234,233,233)" stroke-width="1" opacity="1" d="M 229.5 319 L 225.5 324 L 229.5 319 Z " /><path fill="rgb(234,233,233)" stroke="rgb(234,233,233)" stroke-width="1" opacity="1" d="M 206.5 321 L 207.5 323 L 206.5 321 Z " /><path fill="rgb(234,233,233)" stroke="rgb(234,233,233)" stroke-width="1" opacity="1" d="M 66.5 322 L 67 348.5 L 66 348.5 L 66.5 322 Z " /><path fill="rgb(234,233,233)" stroke="rgb(234,233,233)" stroke-width="1" opacity="1" d="M 421.5 330 L 428 343.5 L 427 343.5 L 421.5 330 Z " /><path fill="rgb(234,233,233)" stroke="rgb(234,233,233)" stroke-width="1" opacity="1" d="M 429.5 348 L 432 356.5 L 432 361.5 L 431 361.5 L 429.5 348 Z " /><path fill="rgb(234,233,233)" stroke="rgb(234,233,233)" stroke-width="1" opacity="1" d="M 398.5 350 L 401 350.5 L 398.5 351 L 398.5 350 Z " /><path fill="rgb(234,233,233)" stroke="rgb(234,233,233)" stroke-width="1" opacity="1" d="M 67.5 352 L 68 361.5 L 67 361.5 L 67.5 352 Z " /><path fill="rgb(234,233,233)" stroke="rgb(234,233,233)" stroke-width="1" opacity="1" d="M 312.5 356 L 313 364.5 L 312 364.5 L 312.5 356 Z " /><path fill="rgb(234,233,233)" stroke="rgb(234,233,233)" stroke-width="1" opacity="1" d="M 68.5 363 L 69 369.5 L 68 369.5 L 68.5 363 Z " /><path fill="rgb(234,233,233)" stroke="rgb(234,233,233)" stroke-width="1" opacity="1" d="M 311.5 366 L 312 371.5 L 311 371.5 L 311.5 366 Z " /><path fill="rgb(234,233,233)" stroke="rgb(234,233,233)" stroke-width="1" opacity="1" d="M 69.5 372 L 71 381.5 L 70 381.5 L 69.5 372 Z " /><path fill="rgb(234,233,233)" stroke="rgb(234,233,233)" stroke-width="1" opacity="1" d="M 310.5 374 L 311 377.5 L 310 377.5 L 310.5 374 Z " /><path fill="rgb(234,233,233)" stroke="rgb(234,233,233)" stroke-width="1" opacity="1" d="M 418.5 378 L 419.5 380 L 418.5 378 Z " /><path fill="rgb(234,233,233)" stroke="rgb(234,233,233)" stroke-width="1" opacity="1" d="M 309.5 379 L 310 383.5 L 307.5 392 L 307 388.5 L 309.5 379 Z " /><path fill="rgb(234,233,233)" stroke="rgb(234,233,233)" stroke-width="1" opacity="1" d="M 421.5 380 L 424.5 384 L 421.5 380 Z " /><path fill="rgb(234,233,233)" stroke="rgb(234,233,233)" stroke-width="1" opacity="1" d="M 71.5 383 L 72 386.5 L 71 386.5 L 71.5 383 Z " /><path fill="rgb(234,233,233)" stroke="rgb(234,233,233)" stroke-width="1" opacity="1" d="M 426.5 385 L 429.5 389 L 426.5 385 Z " /><path fill="rgb(234,233,233)" stroke="rgb(234,233,233)" stroke-width="1" opacity="1" d="M 72.5 388 L 73 390.5 L 72 390.5 L 72.5 388 Z " /><path fill="rgb(234,233,233)" stroke="rgb(234,233,233)" stroke-width="1" opacity="1" d="M 73.5 392 L 77 403.5 L 76 403.5 L 73 394.5 L 73.5 392 Z " /><path fill="rgb(234,233,233)" stroke="rgb(234,233,233)" stroke-width="1" opacity="1" d="M 306.5 393 L 307 395.5 L 301 412.5 L 294.5 424 L 295 422.5 Q 302.4 409.4 306.5 393 Z " /><path fill="rgb(234,233,233)" stroke="rgb(234,233,233)" stroke-width="1" opacity="1" d="M 428.5 394 L 429 396.5 L 427.5 399 L 427 397.5 L 428.5 394 Z " /><path fill="rgb(234,233,233)" stroke="rgb(234,233,233)" stroke-width="1" opacity="1" d="M 426.5 400 L 427 401.5 L 424.5 406 L 424 404.5 L 426.5 400 Z " /><path fill="rgb(234,233,233)" stroke="rgb(234,233,233)" stroke-width="1" opacity="1" d="M 388.5 401 L 393.5 407 L 388.5 401 Z " /><path fill="rgb(234,233,233)" stroke="rgb(234,233,233)" stroke-width="1" opacity="1" d="M 77.5 405 L 79 408.5 L 78 408.5 L 77.5 405 Z " /><path fill="rgb(234,233,233)" stroke="rgb(234,233,233)" stroke-width="1" opacity="1" d="M 423.5 407 L 423 408.5 L 420.5 413 L 421 411.5 L 423.5 407 Z " /><path fill="rgb(234,233,233)" stroke="rgb(234,233,233)" stroke-width="1" opacity="1" d="M 394.5 408 L 396.5 411 L 394.5 408 Z " /><path fill="rgb(234,233,233)" stroke="rgb(234,233,233)" stroke-width="1" opacity="1" d="M 79.5 410 L 83 417.5 L 82 417.5 L 79.5 410 Z " /><path fill="rgb(234,233,233)" stroke="rgb(234,233,233)" stroke-width="1" opacity="1" d="M 398.5 414 L 399.5 416 L 398.5 414 Z " /><path fill="rgb(234,233,233)" stroke="rgb(234,233,233)" stroke-width="1" opacity="1" d="M 419.5 414 L 419 415.5 L 406.5 431 Q 404.3 431.8 405 429.5 L 406.5 430 L 411 425.5 L 419.5 414 Z " /><path fill="rgb(234,233,233)" stroke="rgb(234,233,233)" stroke-width="1" opacity="1" d="M 376.5 418 L 378.5 421 L 376.5 418 Z " /><path fill="rgb(234,233,233)" stroke="rgb(234,233,233)" stroke-width="1" opacity="1" d="M 83.5 419 Q 91.5 435.5 105 446.5 L 92 434.5 L 83.5 419 Z " /><path fill="rgb(234,233,233)" stroke="rgb(234,233,233)" stroke-width="1" opacity="1" d="M 379.5 422 L 380.5 424 L 379.5 422 Z " /><path fill="rgb(234,233,233)" stroke="rgb(234,233,233)" stroke-width="1" opacity="1" d="M 293.5 425 L 293 426.5 Q 287.3 438.3 277.5 446 L 270.5 450 L 271.5 448 L 282 440.5 L 293.5 425 Z " /><path fill="rgb(234,233,233)" stroke="rgb(234,233,233)" stroke-width="1" opacity="1" d="M 349.5 434 L 350 438.5 L 349 438.5 L 349.5 434 Z " /><path fill="rgb(234,233,233)" stroke="rgb(234,233,233)" stroke-width="1" opacity="1" d="M 329.5 439 L 330 444.5 L 329 444.5 L 329.5 439 Z " /><path fill="rgb(234,233,233)" stroke="rgb(234,233,233)" stroke-width="1" opacity="1" d="M 387.5 441 L 388 443.5 L 387 443.5 L 387.5 441 Z " /><path fill="rgb(234,233,233)" stroke="rgb(234,233,233)" stroke-width="1" opacity="1" d="M 349.5 446 L 350 449.5 L 349 449.5 L 349.5 446 Z " /><path fill="rgb(234,233,233)" stroke="rgb(234,233,233)" stroke-width="1" opacity="1" d="M 386.5 446 L 388 446.5 L 378.5 452 L 379.5 450 L 386.5 446 Z " /><path fill="rgb(234,233,233)" stroke="rgb(234,233,233)" stroke-width="1" opacity="1" d="M 106.5 447 Q 111.6 451.4 120 452.5 L 116.5 453 L 107.5 449 L 106.5 447 Z " /><path fill="rgb(234,233,233)" stroke="rgb(234,233,233)" stroke-width="1" opacity="1" d="M 267.5 450 L 269 450.5 L 265.5 452 L 265.5 451 L 267.5 450 Z " /><path fill="rgb(234,233,233)" stroke="rgb(234,233,233)" stroke-width="1" opacity="1" d="M 328.5 450 L 329 452.5 L 328 452.5 L 328.5 450 Z " /><path fill="rgb(234,233,233)" stroke="rgb(234,233,233)" stroke-width="1" opacity="1" d="M 260.5 452 L 264 452.5 L 260.5 453 L 260.5 452 Z " /><path fill="rgb(234,233,233)" stroke="rgb(234,233,233)" stroke-width="1" opacity="1" d="M 375.5 452 L 377 452.5 L 369.5 456 L 369.5 455 L 375.5 452 Z " /><path fill="rgb(234,233,233)" stroke="rgb(234,233,233)" stroke-width="1" opacity="1" d="M 122.5 453 L 259 453.5 L 122.5 454 L 122.5 453 Z " /><path fill="rgb(234,233,233)" stroke="rgb(234,233,233)" stroke-width="1" opacity="1" d="M 366.5 456 L 368 456.5 L 364.5 458 L 364.5 457 L 366.5 456 Z " /><path fill="rgb(234,233,233)" stroke="rgb(234,233,233)" stroke-width="1" opacity="1" d="M 293.5 459 L 292.5 461 L 293.5 459 Z " /><path fill="rgb(234,233,233)" stroke="rgb(234,233,233)" stroke-width="1" opacity="1" d="M 354.5 460 L 357 460.5 L 350.5 462 L 350.5 461 L 354.5 460 Z " /><path fill="rgb(234,233,233)" stroke="rgb(234,233,233)" stroke-width="1" opacity="1" d="M 291.5 464 L 298 464.5 L 291.5 465 L 291.5 464 Z " /><path fill="rgb(234,233,233)" stroke="rgb(234,233,233)" stroke-width="1" opacity="1" d="M 301.5 465 L 324 465.5 L 301.5 466 L 301.5 465 Z " /><path fill="rgb(97,98,100)" stroke="rgb(97,98,100)" stroke-width="1" opacity="0.9529411764705882" d="M 87.5 8 L 94.5 8 L 122.5 31 L 128.5 32 L 141.5 27 L 155.5 24 L 162.5 24 L 171.5 22 L 208.5 22 L 209.5 23 L 217.5 23 L 218.5 24 L 229.5 25 L 255.5 33 L 285.5 8 L 292.5 8 L 296 10.5 L 297 12.5 L 297 68.5 L 302 92.5 L 303 108.5 L 304 109.5 L 304 123.5 L 303 124.5 L 302 136.5 L 297 151.5 L 289 165.5 L 274 181.5 L 290 210.5 L 301 236.5 L 315 282.5 L 315 287.5 L 320 309.5 L 321 326.5 L 322 327.5 L 323 373.5 L 322 374.5 L 322 385.5 L 321 386.5 L 320 399.5 L 316 416.5 L 311 428.5 L 320.5 431 L 335.5 431 Q 361.9 426.5 376 409.5 Q 385 399.5 390 385.5 L 393 373.5 L 394 355.5 L 390 334.5 L 390 325.5 Q 391.4 317.9 396.5 314 L 399.5 312 L 408.5 310 Q 427.6 313.4 437 326.5 Q 447 338 452 354.5 L 455 370.5 L 455 384.5 L 454 385.5 L 453 397.5 L 449 409.5 L 439 427.5 L 427 442 L 424 443.5 Q 424.8 445.8 422.5 445 L 407.5 457 L 387.5 467 L 360.5 474 L 333.5 476 L 332.5 475 L 308.5 474 L 288.5 469 L 283.5 469 L 280 471 L 283 482.5 L 283 490.5 L 282 495.5 L 277.5 500 L 266.5 504 L 242.5 504 L 231.5 500 L 227 495.5 Q 223.8 488.5 225 478 L 155.5 478 L 155 478.5 L 155 491.5 L 151 499 L 145.5 502 L 137.5 504 L 114.5 504 L 106.5 502 L 99 496.5 L 97 484.5 L 100 471 L 98.5 471 L 84 456.5 L 69 430.5 L 61 403.5 L 59 384.5 L 58 383.5 L 58 371.5 L 57 370.5 L 57 344.5 L 58 343.5 L 59 319.5 L 60 318.5 L 63 293.5 L 72 257.5 L 84 224.5 L 106 181.5 Q 91.2 169.3 83 150.5 L 77 129.5 L 76 112.5 L 77 111.5 L 77 101.5 L 78 100.5 L 79 87.5 L 83 69.5 L 83 12.5 L 87.5 8 Z M 90 12 L 87 16 L 87 73 L 85 79 L 83 97 L 82 98 L 82 106 L 81 107 L 81 127 L 84 141 Q 90 159 102 172 L 119 186 L 118 188 L 111 184 Q 100 198 93 216 Q 83 238 75 264 L 68 292 L 64 315 L 63 332 L 62 333 L 62 348 L 61 349 L 62 380 L 68 413 Q 75 438 89 456 L 103 468 Q 106 464 105 455 L 109 453 L 109 464 L 102 481 L 102 493 L 103 495 L 109 498 L 118 500 L 134 500 L 147 496 L 150 493 L 151 489 L 151 479 L 149 471 L 148 457 L 152 455 L 153 461 L 153 471 L 154 472 L 155 473 L 226 473 L 227 472 L 228 459 Q 230 454 232 458 L 232 465 L 230 473 L 230 492 L 231 494 L 238 498 L 247 500 L 269 499 L 278 494 L 278 480 L 271 462 L 271 454 L 274 453 L 275 455 Q 274 463 278 468 L 280 467 Q 297 453 306 431 L 315 402 L 317 384 L 318 383 L 318 372 L 319 371 L 319 343 L 318 342 L 317 321 L 316 320 L 314 301 L 307 270 L 290 222 L 271 184 L 263 188 L 261 186 L 272 178 Q 293 161 299 129 L 299 105 L 298 104 L 296 83 L 293 72 L 293 15 L 291 12 L 287 13 L 258 37 L 254 37 L 240 32 L 222 28 L 203 27 L 202 26 L 179 26 L 178 27 L 160 28 L 141 32 L 128 37 L 122 36 L 93 12 L 90 12 Z M 405 315 L 402 316 Q 396 318 395 325 L 395 339 L 398 351 L 398 371 L 395 385 Q 391 399 382 410 Q 368 429 340 435 L 318 435 L 310 433 Q 302 452 288 465 L 306 469 L 322 470 L 323 471 L 349 471 L 350 470 L 358 470 L 373 467 Q 398 460 417 445 Q 431 434 440 418 Q 447 405 450 389 L 450 367 L 447 354 L 436 333 L 422 319 L 412 315 L 405 315 Z " /><path fill="rgb(97,98,100)" stroke="rgb(97,98,100)" stroke-width="1" opacity="0.9529411764705882" d="M 142.5 80 L 148 82.5 L 149 89.5 Q 147.7 94.3 140.5 93 Q 135.8 91.8 137 84.5 L 139.5 81 L 142.5 80 Z " /><path fill="rgb(97,98,100)" stroke="rgb(97,98,100)" stroke-width="1" opacity="0.9529411764705882" d="M 238.5 80 Q 244.1 80.5 246 84.5 Q 246.8 90.3 243.5 92 L 237.5 93 L 235 92 L 233 85.5 L 236.5 81 L 238.5 80 Z " /><path fill="rgb(97,98,100)" stroke="rgb(97,98,100)" stroke-width="1" opacity="0.9529411764705882" d="M 184.5 108 L 196.5 108 L 200 111.5 L 200 118.5 L 193.5 127 L 192 127.5 L 192 137.5 L 196.5 142 L 206.5 142 L 208 143.5 L 206.5 146 Q 193.8 148.2 189.5 142 Q 185.9 148.4 173.5 146 L 172 143 L 186 141 L 188 137.5 L 188 127 L 182 122.5 Q 179.1 118.9 180 111.5 L 184.5 108 Z " /><path fill="rgb(97,98,100)" stroke="rgb(97,98,100)" stroke-width="1" opacity="0.9529411764705882" d="M 123.5 127 L 155 136 L 153.5 140 L 124.5 132 L 121 129.5 L 123.5 127 Z " /><path fill="rgb(97,98,100)" stroke="rgb(97,98,100)" stroke-width="1" opacity="0.9529411764705882" d="M 256.5 127 L 259 128.5 L 257.5 131 L 226.5 140 L 225 137.5 L 228.5 135 L 256.5 127 Z " /><path fill="rgb(97,98,100)" stroke="rgb(97,98,100)" stroke-width="1" opacity="0.9529411764705882" d="M 151.5 148 L 155 149.5 L 153.5 152 L 130.5 155 L 129.5 156 L 122.5 156 Q 119 154 123.5 152 L 129.5 152 L 151.5 148 Z " /><path fill="rgb(97,98,100)" stroke="rgb(97,98,100)" stroke-width="1" opacity="0.9529411764705882" d="M 226.5 148 L 256.5 152 L 259 153 L 257.5 156 L 229.5 153 L 225 150.5 L 226.5 148 Z " /><path fill="rgb(97,98,100)" stroke="rgb(97,98,100)" stroke-width="1" opacity="0.9529411764705882" d="M 190.5 152 Q 197.1 152.4 200 156.5 Q 202.8 159.2 202 165.5 Q 198.6 173.1 200 185.5 L 204.5 193 L 206.5 194 L 217.5 194 L 223 198.5 L 223 214.5 L 220 217.5 L 224 220.5 L 229 230.5 L 229.5 270 Q 246.2 255.7 266.5 245 L 268 247.5 L 227.5 276 L 213.5 284 L 202.5 288 L 196 293.5 L 195 299.5 Q 199.4 316.6 210.5 327 Q 212.2 329.8 217.5 329 Q 226.9 325.4 232 317.5 L 234.5 313 L 255.5 299 L 283.5 286 L 287.5 286 Q 291 288 286.5 290 L 281.5 291 L 275.5 295 L 256.5 303 L 236 317.5 L 229 326.5 L 229 360.5 Q 226.9 368.4 220.5 372 L 217.5 373 L 162.5 373 L 154 366.5 L 152 362.5 L 152 330.5 L 149.5 328 L 142 321.5 L 137.5 315 Q 124 304.5 107.5 297 L 84.5 290 L 83 288.5 Q 81.7 283.9 87.5 286 Q 120.4 295.3 143 314 L 144 317.5 L 152.5 326 L 158.5 329 L 162.5 329 L 168 324.5 L 179 306.5 L 181 295.5 L 176.5 290 L 153.5 279 L 106 244.5 L 107.5 242 Q 128.6 253.4 145.5 269 L 152 272 L 152 227.5 L 160 217.5 L 157 214.5 L 157 199.5 L 160.5 195 L 162.5 194 L 174.5 194 L 179 189.5 Q 182 184.5 181 175.5 L 178 161.5 L 181.5 155 L 190.5 152 Z M 189 156 L 186 157 L 182 162 L 185 176 Q 186 188 181 194 L 200 194 L 196 186 L 196 173 L 198 166 L 198 161 Q 196 155 189 156 Z M 164 198 L 161 201 L 161 213 L 163 214 L 218 214 L 219 213 L 219 201 L 217 198 L 164 198 Z M 168 218 L 162 221 L 158 225 L 155 234 L 155 275 L 181 288 L 185 296 L 185 301 L 183 308 L 174 324 Q 170 330 163 333 Q 157 334 155 332 L 155 356 L 158 366 L 164 369 L 218 369 L 221 367 L 225 360 L 225 330 L 219 333 Q 212 334 210 331 Q 196 320 191 301 Q 190 294 193 291 L 200 285 Q 214 280 225 273 L 225 232 L 222 225 L 213 218 L 168 218 Z " /><path fill="rgb(234,234,234)" stroke="rgb(234,234,234)" stroke-width="1" opacity="1" d="M 89.5 13 L 92.5 13 L 120.5 36 Q 121.9 38.6 126.5 38 L 139.5 33 L 163.5 28 Q 169.8 29.7 171.5 27 L 208.5 27 L 209.5 28 L 217.5 28 L 233.5 31 L 256.5 38 L 287.5 13 L 290.5 13 L 292 14.5 L 292 69.5 L 297 92.5 L 298 108.5 L 299 109.5 L 299 124.5 L 295 142.5 L 288 157.5 Q 280.8 169.3 270.5 178 L 261 184.5 Q 260.3 188.3 262.5 189 L 269.5 185 L 276 194.5 L 291 225.5 L 308 275.5 L 310 292.5 L 311 293.5 L 311 300.5 L 312 301.5 L 312 312.5 L 313 313.5 L 313 355.5 L 312 356.5 L 312 365.5 L 311 366.5 L 311 373.5 L 309 383.5 L 302 407.5 Q 293.9 429.4 278.5 444 Q 271.4 450.9 259.5 453 L 120.5 453 Q 102.5 449 94 435.5 L 83 418.5 L 77 404.5 L 72 387.5 Q 72 378 69 371.5 L 68 352.5 L 67 351.5 L 67 319.5 L 68 318.5 L 68 304.5 L 69 303.5 L 70 287.5 L 75 265.5 L 91 221.5 L 110.5 185 Q 112.8 189.1 119 188 Q 120 184.2 117.5 183 L 102 170.5 Q 92 159.5 86 144.5 L 82 129.5 L 81 113.5 L 82 112.5 L 82 102.5 L 83 101.5 L 84 87.5 L 88 70.5 L 88 14.5 L 89.5 13 Z M 141 80 L 139 81 L 136 85 L 137 91 L 142 94 L 147 93 L 150 89 L 149 83 Q 147 79 141 80 Z M 237 80 L 233 84 Q 232 90 234 92 L 239 94 L 244 93 L 247 88 L 246 84 Q 245 79 237 80 Z M 186 107 L 183 108 L 179 114 L 182 124 L 188 128 Q 189 136 186 140 Q 182 143 172 142 Q 171 146 174 147 Q 186 149 190 143 Q 194 149 207 147 Q 209 146 208 142 Q 197 144 193 138 L 193 129 Q 202 125 201 112 Q 197 105 186 107 Z M 121 127 L 121 131 L 123 132 L 147 139 L 155 140 L 156 138 L 154 135 L 148 133 L 127 127 L 121 127 Z M 255 127 L 227 135 Q 224 136 225 140 L 234 139 L 258 132 L 259 131 Q 261 125 255 127 Z M 148 148 L 133 151 L 127 151 L 121 154 L 123 157 L 154 153 L 155 152 L 155 148 L 148 148 Z M 225 148 L 225 152 L 227 153 L 258 157 Q 260 156 259 152 L 225 148 Z M 186 152 L 180 155 L 178 160 Q 177 168 180 173 L 180 186 L 178 190 L 175 193 Q 166 192 161 194 L 156 201 L 156 214 L 159 218 Q 153 221 151 229 L 151 271 L 120 248 L 108 241 L 105 245 L 153 279 L 176 290 L 180 295 L 180 302 L 177 310 L 168 324 L 161 329 L 153 325 L 144 317 L 143 313 Q 128 302 110 293 L 97 288 L 84 285 L 82 289 L 86 291 L 106 297 Q 123 304 137 315 L 142 323 L 149 328 L 151 331 L 151 362 L 153 367 Q 156 372 164 374 L 217 374 L 222 372 L 229 363 L 229 328 L 236 319 L 255 305 L 271 297 L 278 295 L 284 291 L 289 290 Q 290 286 288 285 L 282 286 L 274 291 L 253 300 L 233 313 L 231 318 Q 226 326 216 329 L 211 326 L 198 308 Q 195 303 196 295 L 201 290 L 226 278 L 267 250 Q 269 249 268 245 L 264 245 L 259 248 L 230 269 L 229 229 L 224 221 Q 225 218 223 219 Q 219 217 224 215 L 224 200 L 223 198 Q 219 191 206 193 L 203 191 L 200 183 L 201 170 L 202 169 Q 204 160 201 157 Q 197 150 186 152 Z " /><path fill="rgb(234,234,234)" stroke="rgb(234,234,234)" stroke-width="1" opacity="1" d="M 187.5 157 Q 193.6 155.8 193 158.5 L 194 159.5 L 194 169.5 L 192 180.5 Q 194.5 182 193 187.5 L 196 192.5 L 182 193 Q 186.8 186.6 185 172.5 L 183 166.5 L 183 160.5 L 187.5 157 Z " /><path fill="rgb(234,234,234)" stroke="rgb(234,234,234)" stroke-width="1" opacity="1" d="M 403.5 316 L 409.5 316 L 415 321.5 L 426 339.5 L 429 347.5 L 432 362.5 L 429.5 361 Q 416.8 352 398 350 L 395 334.5 L 395 326.5 Q 396.5 320 401.5 317 L 403.5 316 Z " /><path fill="rgb(234,234,234)" stroke="rgb(234,234,234)" stroke-width="1" opacity="1" d="M 398 371 L 407.5 373 L 426 384 L 430 390.5 Q 422.9 414.9 406.5 430 L 397 410.5 L 388 400.5 L 395 386.5 L 398 371 Z " /><path fill="rgb(234,234,234)" stroke="rgb(234,234,234)" stroke-width="1" opacity="1" d="M 375.5 417 L 385 432.5 L 388 446 L 363.5 458 L 347 462 L 350 449.5 L 350 434.5 Q 347.8 433.3 350.5 432 Q 366.5 428 375.5 417 Z " /><path fill="rgb(234,234,234)" stroke="rgb(234,234,234)" stroke-width="1" opacity="1" d="M 309 434 L 320.5 436 L 329 436 L 329 449.5 L 324 465 L 298.5 465 L 290 463.5 Q 303 451.5 309 434 Z " /></svg>