<svg width="512" height="512" version="1.1" xmlns="http://www.w3.org/2000/svg" desc="Created with imagetracer.js version 1.2.6" ><path fill="rgb(180,211,222)" stroke="rgb(180,211,222)" stroke-width="1" opacity="1" d="M 296.5 22 L 295.5 24 L 296.5 22 Z " /><path fill="rgb(180,211,222)" stroke="rgb(180,211,222)" stroke-width="1" opacity="1" d="M 326.5 54 L 332 54.5 L 326.5 55 L 326.5 54 Z " /><path fill="rgb(180,211,222)" stroke="rgb(180,211,222)" stroke-width="1" opacity="1" d="M 337.5 55 L 340 55.5 L 337.5 56 L 337.5 55 Z " /><path fill="rgb(180,211,222)" stroke="rgb(180,211,222)" stroke-width="1" opacity="1" d="M 281.5 66 L 280.5 68 L 281.5 66 Z " /><path fill="rgb(180,211,222)" stroke="rgb(180,211,222)" stroke-width="1" opacity="1" d="M 278.5 70 L 277.5 72 L 278.5 70 Z " /><path fill="rgb(180,211,222)" stroke="rgb(180,211,222)" stroke-width="1" opacity="1" d="M 386.5 71 L 387.5 73 L 386.5 71 Z " /><path fill="rgb(180,211,222)" stroke="rgb(180,211,222)" stroke-width="1" opacity="1" d="M 275.5 74 L 274.5 76 L 275.5 74 Z " /><path fill="rgb(180,211,222)" stroke="rgb(180,211,222)" stroke-width="1" opacity="1" d="M 393.5 75 L 394.5 77 L 393.5 75 Z " /><path fill="rgb(180,211,222)" stroke="rgb(180,211,222)" stroke-width="1" opacity="1" d="M 273.5 77 L 272.5 79 L 273.5 77 Z " /><path fill="rgb(180,211,222)" stroke="rgb(180,211,222)" stroke-width="1" opacity="1" d="M 396.5 77 L 397.5 79 L 396.5 77 Z " /><path fill="rgb(180,211,222)" stroke="rgb(180,211,222)" stroke-width="1" opacity="1" d="M 271.5 80 L 270.5 82 L 271.5 80 Z " /><path fill="rgb(180,211,222)" stroke="rgb(180,211,222)" stroke-width="1" opacity="1" d="M 402.5 81 L 403.5 83 L 402.5 81 Z " /><path fill="rgb(180,211,222)" stroke="rgb(180,211,222)" stroke-width="1" opacity="1" d="M 451.5 82 L 452.5 84 L 451.5 82 Z " /><path fill="rgb(180,211,222)" stroke="rgb(180,211,222)" stroke-width="1" opacity="1" d="M 269.5 83 L 268.5 85 L 269.5 83 Z " /><path fill="rgb(180,211,222)" stroke="rgb(180,211,222)" stroke-width="1" opacity="1" d="M 406.5 84 L 408.5 87 L 406.5 84 Z " /><path fill="rgb(180,211,222)" stroke="rgb(180,211,222)" stroke-width="1" opacity="1" d="M 411.5 88 L 416.5 94 L 411.5 88 Z " /><path fill="rgb(180,211,222)" stroke="rgb(180,211,222)" stroke-width="1" opacity="1" d="M 323.5 123 L 322.5 125 L 323.5 123 Z " /><path fill="rgb(180,211,222)" stroke="rgb(180,211,222)" stroke-width="1" opacity="1" d="M 332.5 123 L 333.5 125 L 332.5 123 Z " /><path fill="rgb(180,211,222)" stroke="rgb(180,211,222)" stroke-width="1" opacity="1" d="M 251.5 126 L 252 131.5 L 251 131.5 L 251.5 126 Z " /><path fill="rgb(180,211,222)" stroke="rgb(180,211,222)" stroke-width="1" opacity="1" d="M 434.5 134 L 435 136.5 L 434 136.5 L 434.5 134 Z " /><path fill="rgb(180,211,222)" stroke="rgb(180,211,222)" stroke-width="1" opacity="1" d="M 326.5 136 L 330 136.5 L 326.5 137 L 326.5 136 Z " /><path fill="rgb(180,211,222)" stroke="rgb(180,211,222)" stroke-width="1" opacity="1" d="M 251.5 139 L 252 144.5 L 251 144.5 L 251.5 139 Z " /><path fill="rgb(180,211,222)" stroke="rgb(180,211,222)" stroke-width="1" opacity="1" d="M 252.5 148 L 253 150.5 L 252 150.5 L 252.5 148 Z " /><path fill="rgb(180,211,222)" stroke="rgb(180,211,222)" stroke-width="1" opacity="1" d="M 305.5 148 L 307.5 151 L 305.5 148 Z " /><path fill="rgb(180,211,222)" stroke="rgb(180,211,222)" stroke-width="1" opacity="1" d="M 389.5 151 L 388.5 153 L 389.5 151 Z " /><path fill="rgb(180,211,222)" stroke="rgb(180,211,222)" stroke-width="1" opacity="1" d="M 398.5 151 L 400.5 154 L 398.5 151 Z " /><path fill="rgb(180,211,222)" stroke="rgb(180,211,222)" stroke-width="1" opacity="1" d="M 303.5 152 L 305.5 155 L 303.5 152 Z " /><path fill="rgb(180,211,222)" stroke="rgb(180,211,222)" stroke-width="1" opacity="1" d="M 311.5 153 L 312.5 155 L 311.5 153 Z " /><path fill="rgb(180,211,222)" stroke="rgb(180,211,222)" stroke-width="1" opacity="1" d="M 355.5 154 L 360 154.5 L 355.5 155 L 355.5 154 Z " /><path fill="rgb(180,211,222)" stroke="rgb(180,211,222)" stroke-width="1" opacity="1" d="M 308.5 156 L 310.5 159 L 308.5 156 Z " /><path fill="rgb(180,211,222)" stroke="rgb(180,211,222)" stroke-width="1" opacity="1" d="M 364.5 156 L 366.5 159 L 364.5 156 Z " /><path fill="rgb(180,211,222)" stroke="rgb(180,211,222)" stroke-width="1" opacity="1" d="M 316.5 157 L 318.5 160 L 316.5 157 Z " /><path fill="rgb(180,211,222)" stroke="rgb(180,211,222)" stroke-width="1" opacity="1" d="M 313.5 160 L 315.5 163 L 313.5 160 Z " /><path fill="rgb(180,211,222)" stroke="rgb(180,211,222)" stroke-width="1" opacity="1" d="M 351.5 160 L 352 162.5 L 351 162.5 L 351.5 160 Z " /><path fill="rgb(180,211,222)" stroke="rgb(180,211,222)" stroke-width="1" opacity="1" d="M 367.5 160 L 368 162.5 L 367 162.5 L 367.5 160 Z " /><path fill="rgb(180,211,222)" stroke="rgb(180,211,222)" stroke-width="1" opacity="1" d="M 387.5 160 L 388.5 162 L 387.5 160 Z " /><path fill="rgb(180,211,222)" stroke="rgb(180,211,222)" stroke-width="1" opacity="1" d="M 321.5 161 L 323.5 164 L 321.5 161 Z " /><path fill="rgb(180,211,222)" stroke="rgb(180,211,222)" stroke-width="1" opacity="1" d="M 392.5 164 L 396 164.5 L 392.5 165 L 392.5 164 Z " /><path fill="rgb(180,211,222)" stroke="rgb(180,211,222)" stroke-width="1" opacity="1" d="M 319.5 165 L 321.5 168 L 319.5 165 Z " /><path fill="rgb(180,211,222)" stroke="rgb(180,211,222)" stroke-width="1" opacity="1" d="M 290.5 166 L 293 166.5 L 289.5 168 L 290.5 166 Z " /><path fill="rgb(180,211,222)" stroke="rgb(180,211,222)" stroke-width="1" opacity="1" d="M 327.5 166 L 328.5 168 L 327.5 166 Z " /><path fill="rgb(180,211,222)" stroke="rgb(180,211,222)" stroke-width="1" opacity="1" d="M 351.5 166 L 352 168.5 L 351 168.5 L 351.5 166 Z " /><path fill="rgb(180,211,222)" stroke="rgb(180,211,222)" stroke-width="1" opacity="1" d="M 258.5 168 L 259.5 170 L 258.5 168 Z " /><path fill="rgb(180,211,222)" stroke="rgb(180,211,222)" stroke-width="1" opacity="1" d="M 289.5 169 L 290.5 171 L 289.5 169 Z " /><path fill="rgb(180,211,222)" stroke="rgb(180,211,222)" stroke-width="1" opacity="1" d="M 324.5 169 L 325.5 171 L 324.5 169 Z " /><path fill="rgb(180,211,222)" stroke="rgb(180,211,222)" stroke-width="1" opacity="1" d="M 328.5 169 L 327.5 171 L 328.5 169 Z " /><path fill="rgb(180,211,222)" stroke="rgb(180,211,222)" stroke-width="1" opacity="1" d="M 261.5 173 L 262.5 175 L 261.5 173 Z " /><path fill="rgb(180,211,222)" stroke="rgb(180,211,222)" stroke-width="1" opacity="1" d="M 264.5 177 L 265.5 179 L 264.5 177 Z " /><path fill="rgb(180,211,222)" stroke="rgb(180,211,222)" stroke-width="1" opacity="1" d="M 260.5 179 L 262.5 182 L 260.5 179 Z " /><path fill="rgb(180,211,222)" stroke="rgb(180,211,222)" stroke-width="1" opacity="1" d="M 420.5 182 L 419.5 184 L 420.5 182 Z " /><path fill="rgb(180,211,222)" stroke="rgb(180,211,222)" stroke-width="1" opacity="1" d="M 417.5 187 L 416.5 189 L 417.5 187 Z " /><path fill="rgb(180,211,222)" stroke="rgb(180,211,222)" stroke-width="1" opacity="1" d="M 244.5 188 L 243.5 190 L 244.5 188 Z " /><path fill="rgb(180,211,222)" stroke="rgb(180,211,222)" stroke-width="1" opacity="1" d="M 382.5 189 L 385 189.5 L 381.5 191 L 382.5 189 Z " /><path fill="rgb(180,211,222)" stroke="rgb(180,211,222)" stroke-width="1" opacity="1" d="M 362.5 191 L 361.5 193 L 362.5 191 Z " /><path fill="rgb(180,211,222)" stroke="rgb(180,211,222)" stroke-width="1" opacity="1" d="M 414.5 191 L 413.5 193 L 414.5 191 Z " /><path fill="rgb(180,211,222)" stroke="rgb(180,211,222)" stroke-width="1" opacity="1" d="M 241.5 192 L 240.5 194 L 241.5 192 Z " /><path fill="rgb(180,211,222)" stroke="rgb(180,211,222)" stroke-width="1" opacity="1" d="M 238.5 196 L 236.5 199 L 238.5 196 Z " /><path fill="rgb(180,211,222)" stroke="rgb(180,211,222)" stroke-width="1" opacity="1" d="M 381.5 199 L 383.5 202 L 381.5 199 Z " /><path fill="rgb(180,211,222)" stroke="rgb(180,211,222)" stroke-width="1" opacity="1" d="M 405.5 199 Q 407.8 198.3 407 200.5 L 404 202.5 Q 407.1 200.8 405.5 199 Z " /><path fill="rgb(180,211,222)" stroke="rgb(180,211,222)" stroke-width="1" opacity="1" d="M 377.5 200 L 381 204.5 L 377 201.5 L 377.5 200 Z " /><path fill="rgb(180,211,222)" stroke="rgb(180,211,222)" stroke-width="1" opacity="1" d="M 387.5 204 L 389.5 207 L 387.5 204 Z " /><path fill="rgb(180,211,222)" stroke="rgb(180,211,222)" stroke-width="1" opacity="1" d="M 401.5 204 L 399.5 207 L 401.5 204 Z " /><path fill="rgb(180,211,222)" stroke="rgb(180,211,222)" stroke-width="1" opacity="1" d="M 384.5 207 L 387.5 211 L 384.5 207 Z " /><path fill="rgb(180,211,222)" stroke="rgb(180,211,222)" stroke-width="1" opacity="1" d="M 397.5 207 L 396.5 209 L 397.5 207 Z " /><path fill="rgb(180,211,222)" stroke="rgb(180,211,222)" stroke-width="1" opacity="1" d="M 224.5 210 L 221.5 214 L 224.5 210 Z " /><path fill="rgb(180,211,222)" stroke="rgb(180,211,222)" stroke-width="1" opacity="1" d="M 218.5 215 L 216.5 218 L 218.5 215 Z " /><path fill="rgb(180,211,222)" stroke="rgb(180,211,222)" stroke-width="1" opacity="1" d="M 214.5 218 L 213.5 220 L 214.5 218 Z " /><path fill="rgb(180,211,222)" stroke="rgb(180,211,222)" stroke-width="1" opacity="1" d="M 210.5 221 L 209.5 223 L 210.5 221 Z " /><path fill="rgb(180,211,222)" stroke="rgb(180,211,222)" stroke-width="1" opacity="1" d="M 207.5 223 L 206.5 225 L 207.5 223 Z " /><path fill="rgb(180,211,222)" stroke="rgb(180,211,222)" stroke-width="1" opacity="1" d="M 394.5 224 L 395 226.5 L 394 226.5 L 394.5 224 Z " /><path fill="rgb(180,211,222)" stroke="rgb(180,211,222)" stroke-width="1" opacity="1" d="M 202.5 226 L 201.5 228 L 202.5 226 Z " /><path fill="rgb(180,211,222)" stroke="rgb(180,211,222)" stroke-width="1" opacity="1" d="M 395.5 230 L 396 233.5 L 395 233.5 L 395.5 230 Z " /><path fill="rgb(180,211,222)" stroke="rgb(180,211,222)" stroke-width="1" opacity="1" d="M 183.5 237 L 182.5 239 L 183.5 237 Z " /><path fill="rgb(180,211,222)" stroke="rgb(180,211,222)" stroke-width="1" opacity="1" d="M 396.5 237 L 397 240.5 L 396 240.5 L 396.5 237 Z " /><path fill="rgb(180,211,222)" stroke="rgb(180,211,222)" stroke-width="1" opacity="1" d="M 180.5 239 L 179.5 241 L 180.5 239 Z " /><path fill="rgb(180,211,222)" stroke="rgb(180,211,222)" stroke-width="1" opacity="1" d="M 173.5 244 L 171.5 247 L 173.5 244 Z " /><path fill="rgb(180,211,222)" stroke="rgb(180,211,222)" stroke-width="1" opacity="1" d="M 397.5 245 L 398 248.5 L 397 248.5 L 397.5 245 Z " /><path fill="rgb(180,211,222)" stroke="rgb(180,211,222)" stroke-width="1" opacity="1" d="M 168.5 248 L 165.5 252 L 168.5 248 Z " /><path fill="rgb(180,211,222)" stroke="rgb(180,211,222)" stroke-width="1" opacity="1" d="M 398.5 256 L 399 262.5 L 398 262.5 L 398.5 256 Z " /><path fill="rgb(180,211,222)" stroke="rgb(180,211,222)" stroke-width="1" opacity="1" d="M 153.5 263 L 150.5 267 L 153.5 263 Z " /><path fill="rgb(180,211,222)" stroke="rgb(180,211,222)" stroke-width="1" opacity="1" d="M 148.5 269 L 146.5 272 L 148.5 269 Z " /><path fill="rgb(180,211,222)" stroke="rgb(180,211,222)" stroke-width="1" opacity="1" d="M 144.5 274 L 143.5 276 L 144.5 274 Z " /><path fill="rgb(180,211,222)" stroke="rgb(180,211,222)" stroke-width="1" opacity="1" d="M 142.5 277 L 141.5 279 L 142.5 277 Z " /><path fill="rgb(180,211,222)" stroke="rgb(180,211,222)" stroke-width="1" opacity="1" d="M 140.5 280 L 139.5 282 L 140.5 280 Z " /><path fill="rgb(180,211,222)" stroke="rgb(180,211,222)" stroke-width="1" opacity="1" d="M 398.5 282 L 399 287.5 L 398 287.5 L 398.5 282 Z " /><path fill="rgb(180,211,222)" stroke="rgb(180,211,222)" stroke-width="1" opacity="1" d="M 138.5 283 L 137.5 285 L 138.5 283 Z " /><path fill="rgb(180,211,222)" stroke="rgb(180,211,222)" stroke-width="1" opacity="1" d="M 397.5 293 L 398 295.5 L 397 295.5 L 397.5 293 Z " /><path fill="rgb(180,211,222)" stroke="rgb(180,211,222)" stroke-width="1" opacity="1" d="M 341.5 294 L 342 300.5 L 341 300.5 L 341.5 294 Z " /><path fill="rgb(180,211,222)" stroke="rgb(180,211,222)" stroke-width="1" opacity="1" d="M 345.5 298 L 346 304.5 L 345 304.5 L 345.5 298 Z " /><path fill="rgb(180,211,222)" stroke="rgb(180,211,222)" stroke-width="1" opacity="1" d="M 396.5 298 L 397 300.5 L 396 300.5 L 396.5 298 Z " /><path fill="rgb(180,211,222)" stroke="rgb(180,211,222)" stroke-width="1" opacity="1" d="M 272.5 307 L 273 311.5 L 272 311.5 L 272.5 307 Z " /><path fill="rgb(180,211,222)" stroke="rgb(180,211,222)" stroke-width="1" opacity="1" d="M 268.5 311 L 269 315.5 L 268 315.5 L 268.5 311 Z " /><path fill="rgb(180,211,222)" stroke="rgb(180,211,222)" stroke-width="1" opacity="1" d="M 250.5 314 L 251.5 316 L 250.5 314 Z " /><path fill="rgb(180,211,222)" stroke="rgb(180,211,222)" stroke-width="1" opacity="1" d="M 312.5 315 L 488.5 315 L 492 317.5 L 493 322.5 L 490.5 327 L 311.5 327 L 310 325.5 L 309 318.5 L 312.5 315 Z " /><path fill="rgb(180,211,222)" stroke="rgb(180,211,222)" stroke-width="1" opacity="1" d="M 247.5 317 L 248.5 319 L 247.5 317 Z " /><path fill="rgb(180,211,222)" stroke="rgb(180,211,222)" stroke-width="1" opacity="1" d="M 254.5 317 L 255.5 319 L 254.5 317 Z " /><path fill="rgb(180,211,222)" stroke="rgb(180,211,222)" stroke-width="1" opacity="1" d="M 273.5 317 L 274 321.5 L 273 321.5 L 273.5 317 Z " /><path fill="rgb(180,211,222)" stroke="rgb(180,211,222)" stroke-width="1" opacity="1" d="M 251.5 320 L 254.5 324 L 251.5 320 Z " /><path fill="rgb(180,211,222)" stroke="rgb(180,211,222)" stroke-width="1" opacity="1" d="M 259.5 321 L 269.5 331 L 271 330.5 L 270.5 333 L 259.5 321 Z " /><path fill="rgb(180,211,222)" stroke="rgb(180,211,222)" stroke-width="1" opacity="1" d="M 269.5 321 L 270 324.5 L 269 324.5 L 269.5 321 Z " /><path fill="rgb(180,211,222)" stroke="rgb(180,211,222)" stroke-width="1" opacity="1" d="M 76.5 322 L 79.5 326 L 76.5 322 Z " /><path fill="rgb(180,211,222)" stroke="rgb(180,211,222)" stroke-width="1" opacity="1" d="M 51.5 323 L 53 323.5 L 50.5 325 L 51.5 323 Z " /><path fill="rgb(180,211,222)" stroke="rgb(180,211,222)" stroke-width="1" opacity="1" d="M 46.5 326 L 45.5 328 L 46.5 326 Z " /><path fill="rgb(180,211,222)" stroke="rgb(180,211,222)" stroke-width="1" opacity="1" d="M 258.5 326 L 266.5 335 L 258.5 326 Z " /><path fill="rgb(180,211,222)" stroke="rgb(180,211,222)" stroke-width="1" opacity="1" d="M 306.5 327 L 309.5 331 L 306.5 327 Z " /><path fill="rgb(180,211,222)" stroke="rgb(180,211,222)" stroke-width="1" opacity="1" d="M 43.5 328 L 42.5 330 L 43.5 328 Z " /><path fill="rgb(180,211,222)" stroke="rgb(180,211,222)" stroke-width="1" opacity="1" d="M 274.5 328 L 275 331.5 L 274 331.5 L 274.5 328 Z " /><path fill="rgb(180,211,222)" stroke="rgb(180,211,222)" stroke-width="1" opacity="1" d="M 39.5 331 L 31.5 340 L 39.5 331 Z " /><path fill="rgb(180,211,222)" stroke="rgb(180,211,222)" stroke-width="1" opacity="1" d="M 312.5 331 Q 315.8 329.9 315 332.5 L 313.5 332 L 312.5 331 Z " /><path fill="rgb(180,211,222)" stroke="rgb(180,211,222)" stroke-width="1" opacity="1" d="M 320.5 331 L 481.5 331 L 482 332.5 Q 490.9 343.6 495 359.5 L 497 368.5 L 497 377.5 L 498 378.5 L 498 391.5 L 494 413.5 L 489 426.5 Q 480.4 444.4 466.5 457 Q 456.1 466.6 442.5 473 L 425.5 476 L 418.5 476 L 417.5 477 L 381.5 477 L 380.5 476 L 362.5 474 L 351.5 469 Q 337.4 460.6 327 448.5 Q 314.7 434.3 308 414.5 L 304 395.5 L 304 375.5 L 309 352.5 L 317 335.5 L 320.5 331 Z M 403 377 Q 393 380 388 386 L 383 392 Q 377 400 367 404 L 352 420 L 358 429 Q 365 437 377 442 L 382 449 L 396 460 L 408 464 L 410 463 L 414 446 Q 428 443 437 434 L 439 434 L 448 441 L 458 445 L 460 445 L 461 445 L 461 395 L 452 397 L 439 406 L 437 406 Q 431 399 422 396 L 414 394 L 410 380 L 410 377 L 403 377 Z " /><path fill="rgb(180,211,222)" stroke="rgb(180,211,222)" stroke-width="1" opacity="1" d="M 118.5 333 L 119 335.5 L 118 335.5 L 118.5 333 Z " /><path fill="rgb(180,211,222)" stroke="rgb(180,211,222)" stroke-width="1" opacity="1" d="M 275.5 337 L 276 340.5 L 275 340.5 L 275.5 337 Z " /><path fill="rgb(180,211,222)" stroke="rgb(180,211,222)" stroke-width="1" opacity="1" d="M 117.5 338 L 118 340.5 L 117 340.5 L 117.5 338 Z " /><path fill="rgb(180,211,222)" stroke="rgb(180,211,222)" stroke-width="1" opacity="1" d="M 269.5 338 L 270.5 340 L 269.5 338 Z " /><path fill="rgb(180,211,222)" stroke="rgb(180,211,222)" stroke-width="1" opacity="1" d="M 271.5 341 L 272 343.5 L 271 343.5 L 271.5 341 Z " /><path fill="rgb(180,211,222)" stroke="rgb(180,211,222)" stroke-width="1" opacity="1" d="M 29.5 342 L 28.5 344 L 29.5 342 Z " /><path fill="rgb(180,211,222)" stroke="rgb(180,211,222)" stroke-width="1" opacity="1" d="M 116.5 344 L 117 346.5 L 116 346.5 L 116.5 344 Z " /><path fill="rgb(180,211,222)" stroke="rgb(180,211,222)" stroke-width="1" opacity="1" d="M 276.5 345 L 277 349.5 L 276 349.5 L 276.5 345 Z " /><path fill="rgb(180,211,222)" stroke="rgb(180,211,222)" stroke-width="1" opacity="1" d="M 25.5 348 L 24.5 350 L 25.5 348 Z " /><path fill="rgb(180,211,222)" stroke="rgb(180,211,222)" stroke-width="1" opacity="1" d="M 272.5 348 L 273 351.5 L 272 351.5 L 272.5 348 Z " /><path fill="rgb(180,211,222)" stroke="rgb(180,211,222)" stroke-width="1" opacity="1" d="M 115.5 350 L 116 353.5 L 115 353.5 L 115.5 350 Z " /><path fill="rgb(180,211,222)" stroke="rgb(180,211,222)" stroke-width="1" opacity="1" d="M 277.5 354 L 278 357.5 L 277 357.5 L 277.5 354 Z " /><path fill="rgb(180,211,222)" stroke="rgb(180,211,222)" stroke-width="1" opacity="1" d="M 53.5 355 Q 64.4 353.6 71.5 356 L 73 355.5 Q 68.3 361.8 68 372.5 L 66.5 374 L 58.5 373 L 57.5 374 L 46.5 375 L 35.5 380 L 22 391.5 L 16 399.5 L 15.5 403 L 14 395.5 L 14 379.5 Q 16.3 378.3 15 373.5 L 17 370.5 L 16 368.5 L 17 368.5 Q 16.3 370.8 18.5 370 Q 25.7 362.7 36.5 359 L 53.5 355 Z " /><path fill="rgb(180,211,222)" stroke="rgb(180,211,222)" stroke-width="1" opacity="1" d="M 273.5 357 L 274 360.5 L 273 360.5 L 273.5 357 Z " /><path fill="rgb(180,211,222)" stroke="rgb(180,211,222)" stroke-width="1" opacity="1" d="M 114.5 359 L 115 366.5 L 114 366.5 L 114.5 359 Z " /><path fill="rgb(180,211,222)" stroke="rgb(180,211,222)" stroke-width="1" opacity="1" d="M 278.5 363 L 279 365.5 L 278 365.5 L 278.5 363 Z " /><path fill="rgb(180,211,222)" stroke="rgb(180,211,222)" stroke-width="1" opacity="1" d="M 274.5 365 L 275 368.5 L 274 368.5 L 274.5 365 Z " /><path fill="rgb(180,211,222)" stroke="rgb(180,211,222)" stroke-width="1" opacity="1" d="M 279.5 370 L 280 373.5 L 279 373.5 L 279.5 370 Z " /><path fill="rgb(180,211,222)" stroke="rgb(180,211,222)" stroke-width="1" opacity="1" d="M 300.5 371 L 301 373.5 L 300 373.5 L 300.5 371 Z " /><path fill="rgb(180,211,222)" stroke="rgb(180,211,222)" stroke-width="1" opacity="1" d="M 275.5 373 L 276 375.5 L 275 375.5 L 275.5 373 Z " /><path fill="rgb(180,211,222)" stroke="rgb(180,211,222)" stroke-width="1" opacity="1" d="M 66.5 377 L 67 382.5 L 66 382.5 L 66.5 377 Z " /><path fill="rgb(180,211,222)" stroke="rgb(180,211,222)" stroke-width="1" opacity="1" d="M 280.5 378 L 281 380.5 L 280 380.5 L 280.5 378 Z " /><path fill="rgb(180,211,222)" stroke="rgb(180,211,222)" stroke-width="1" opacity="1" d="M 276.5 380 L 277 383.5 L 276 383.5 L 276.5 380 Z " /><path fill="rgb(180,211,222)" stroke="rgb(180,211,222)" stroke-width="1" opacity="1" d="M 299.5 382 L 300 388.5 L 299 388.5 L 299.5 382 Z " /><path fill="rgb(180,211,222)" stroke="rgb(180,211,222)" stroke-width="1" opacity="1" d="M 114.5 385 L 115 391.5 L 114 391.5 L 114.5 385 Z " /><path fill="rgb(180,211,222)" stroke="rgb(180,211,222)" stroke-width="1" opacity="1" d="M 281.5 385 L 282 387.5 L 281 387.5 L 281.5 385 Z " /><path fill="rgb(180,211,222)" stroke="rgb(180,211,222)" stroke-width="1" opacity="1" d="M 277.5 387 L 278 390.5 L 277 390.5 L 277.5 387 Z " /><path fill="rgb(180,211,222)" stroke="rgb(180,211,222)" stroke-width="1" opacity="1" d="M 391.5 388 L 388 392.5 L 388.5 394 L 386 393.5 L 391.5 388 Z " /><path fill="rgb(180,211,222)" stroke="rgb(180,211,222)" stroke-width="1" opacity="1" d="M 66.5 389 L 67 394.5 L 66 394.5 L 66.5 389 Z " /><path fill="rgb(180,211,222)" stroke="rgb(180,211,222)" stroke-width="1" opacity="1" d="M 282.5 392 L 283 394.5 L 282 394.5 L 282.5 392 Z " /><path fill="rgb(180,211,222)" stroke="rgb(180,211,222)" stroke-width="1" opacity="1" d="M 407.5 392 L 410 392.5 L 407.5 393 L 407.5 392 Z " /><path fill="rgb(180,211,222)" stroke="rgb(180,211,222)" stroke-width="1" opacity="1" d="M 278.5 394 L 279 396.5 L 278 396.5 L 278.5 394 Z " /><path fill="rgb(180,211,222)" stroke="rgb(180,211,222)" stroke-width="1" opacity="1" d="M 300.5 396 L 301 399.5 L 300 399.5 L 300.5 396 Z " /><path fill="rgb(180,211,222)" stroke="rgb(180,211,222)" stroke-width="1" opacity="1" d="M 395.5 396 L 398 396.5 L 395.5 397 L 395.5 396 Z " /><path fill="rgb(180,211,222)" stroke="rgb(180,211,222)" stroke-width="1" opacity="1" d="M 402.5 396 L 405 396.5 L 402.5 397 L 402.5 396 Z " /><path fill="rgb(180,211,222)" stroke="rgb(180,211,222)" stroke-width="1" opacity="1" d="M 115.5 397 L 116 400.5 L 115 400.5 L 115.5 397 Z " /><path fill="rgb(180,211,222)" stroke="rgb(180,211,222)" stroke-width="1" opacity="1" d="M 283.5 398 L 284 400.5 L 283 400.5 L 283.5 398 Z " /><path fill="rgb(180,211,222)" stroke="rgb(180,211,222)" stroke-width="1" opacity="1" d="M 279.5 401 L 280 403.5 L 279 403.5 L 279.5 401 Z " /><path fill="rgb(180,211,222)" stroke="rgb(180,211,222)" stroke-width="1" opacity="1" d="M 301.5 403 L 302 405.5 L 301 405.5 L 301.5 403 Z " /><path fill="rgb(180,211,222)" stroke="rgb(180,211,222)" stroke-width="1" opacity="1" d="M 68.5 404 Q 70.3 415.2 76 422.5 L 65 430.5 Q 54.6 441.2 53 460 L 41 450.5 L 34 442.5 L 36.5 444 L 38 442.5 L 43 429.5 L 54.5 415 L 64.5 407 L 68 406 L 68.5 404 Z " /><path fill="rgb(180,211,222)" stroke="rgb(180,211,222)" stroke-width="1" opacity="1" d="M 116.5 405 L 117 407.5 L 116 407.5 L 116.5 405 Z " /><path fill="rgb(180,211,222)" stroke="rgb(180,211,222)" stroke-width="1" opacity="1" d="M 284.5 405 L 285 407.5 L 284 407.5 L 284.5 405 Z " /><path fill="rgb(180,211,222)" stroke="rgb(180,211,222)" stroke-width="1" opacity="1" d="M 444.5 406 L 443.5 408 L 444.5 406 Z " /><path fill="rgb(180,211,222)" stroke="rgb(180,211,222)" stroke-width="1" opacity="1" d="M 280.5 407 L 281 409.5 L 280 409.5 L 280.5 407 Z " /><path fill="rgb(180,211,222)" stroke="rgb(180,211,222)" stroke-width="1" opacity="1" d="M 433.5 408 L 435.5 411 L 433.5 408 Z " /><path fill="rgb(180,211,222)" stroke="rgb(180,211,222)" stroke-width="1" opacity="1" d="M 366.5 409 L 364.5 412 L 366.5 409 Z " /><path fill="rgb(180,211,222)" stroke="rgb(180,211,222)" stroke-width="1" opacity="1" d="M 285.5 411 L 286 413.5 L 285 413.5 L 285.5 411 Z " /><path fill="rgb(180,211,222)" stroke="rgb(180,211,222)" stroke-width="1" opacity="1" d="M 281.5 413 L 282 415.5 L 281 415.5 L 281.5 413 Z " /><path fill="rgb(180,211,222)" stroke="rgb(180,211,222)" stroke-width="1" opacity="1" d="M 361.5 414 L 359.5 417 L 361.5 414 Z " /><path fill="rgb(180,211,222)" stroke="rgb(180,211,222)" stroke-width="1" opacity="1" d="M 280.5 417 L 279.5 419 L 280.5 417 Z " /><path fill="rgb(180,211,222)" stroke="rgb(180,211,222)" stroke-width="1" opacity="1" d="M 278.5 420 L 277.5 422 L 278.5 420 Z " /><path fill="rgb(180,211,222)" stroke="rgb(180,211,222)" stroke-width="1" opacity="1" d="M 287.5 422 L 288 424.5 L 287 424.5 L 287.5 422 Z " /><path fill="rgb(180,211,222)" stroke="rgb(180,211,222)" stroke-width="1" opacity="1" d="M 276.5 423 L 275.5 425 L 276.5 423 Z " /><path fill="rgb(180,211,222)" stroke="rgb(180,211,222)" stroke-width="1" opacity="1" d="M 359.5 423 L 360.5 425 L 359.5 423 Z " /><path fill="rgb(180,211,222)" stroke="rgb(180,211,222)" stroke-width="1" opacity="1" d="M 23.5 424 L 25 426.5 L 23 425.5 L 23.5 424 Z " /><path fill="rgb(180,211,222)" stroke="rgb(180,211,222)" stroke-width="1" opacity="1" d="M 283.5 424 L 284 426.5 L 283 426.5 L 283.5 424 Z " /><path fill="rgb(180,211,222)" stroke="rgb(180,211,222)" stroke-width="1" opacity="1" d="M 279.5 426 L 278.5 428 L 279.5 426 Z " /><path fill="rgb(180,211,222)" stroke="rgb(180,211,222)" stroke-width="1" opacity="1" d="M 78.5 427 L 80.5 430 L 78.5 427 Z " /><path fill="rgb(180,211,222)" stroke="rgb(180,211,222)" stroke-width="1" opacity="1" d="M 272.5 428 L 269.5 432 L 272.5 428 Z " /><path fill="rgb(180,211,222)" stroke="rgb(180,211,222)" stroke-width="1" opacity="1" d="M 276.5 430 L 273.5 434 L 276.5 430 Z " /><path fill="rgb(180,211,222)" stroke="rgb(180,211,222)" stroke-width="1" opacity="1" d="M 366.5 430 L 367.5 432 L 366.5 430 Z " /><path fill="rgb(180,211,222)" stroke="rgb(180,211,222)" stroke-width="1" opacity="1" d="M 434.5 430 L 432.5 433 L 434.5 430 Z " /><path fill="rgb(180,211,222)" stroke="rgb(180,211,222)" stroke-width="1" opacity="1" d="M 27.5 432 L 28.5 434 L 27.5 432 Z " /><path fill="rgb(180,211,222)" stroke="rgb(180,211,222)" stroke-width="1" opacity="1" d="M 82.5 432 L 88.5 439 L 82.5 432 Z " /><path fill="rgb(180,211,222)" stroke="rgb(180,211,222)" stroke-width="1" opacity="1" d="M 381.5 432 L 379.5 435 L 381.5 432 Z " /><path fill="rgb(180,211,222)" stroke="rgb(180,211,222)" stroke-width="1" opacity="1" d="M 370.5 433 L 371.5 435 L 370.5 433 Z " /><path fill="rgb(180,211,222)" stroke="rgb(180,211,222)" stroke-width="1" opacity="1" d="M 403.5 433 L 402.5 435 L 401 434.5 L 403.5 433 Z " /><path fill="rgb(180,211,222)" stroke="rgb(180,211,222)" stroke-width="1" opacity="1" d="M 29.5 435 L 30.5 437 L 29.5 435 Z " /><path fill="rgb(180,211,222)" stroke="rgb(180,211,222)" stroke-width="1" opacity="1" d="M 382.5 437 L 381.5 439 L 382.5 437 Z " /><path fill="rgb(180,211,222)" stroke="rgb(180,211,222)" stroke-width="1" opacity="1" d="M 31.5 438 L 32.5 440 L 31.5 438 Z " /><path fill="rgb(180,211,222)" stroke="rgb(180,211,222)" stroke-width="1" opacity="1" d="M 126.5 439 L 130 445.5 L 128 444.5 L 126.5 439 Z " /><path fill="rgb(180,211,222)" stroke="rgb(180,211,222)" stroke-width="1" opacity="1" d="M 260.5 440 L 256.5 445 L 260.5 440 Z " /><path fill="rgb(180,211,222)" stroke="rgb(180,211,222)" stroke-width="1" opacity="1" d="M 92.5 441 L 93.5 443 L 92.5 441 Z " /><path fill="rgb(180,211,222)" stroke="rgb(180,211,222)" stroke-width="1" opacity="1" d="M 316.5 441 L 317.5 443 L 316.5 441 Z " /><path fill="rgb(180,211,222)" stroke="rgb(180,211,222)" stroke-width="1" opacity="1" d="M 95.5 443 L 100.5 447 L 113 452.5 L 109 464.5 L 109 476.5 L 112 485.5 L 108.5 486 L 90 480.5 L 91 479.5 L 91 461.5 L 96 444.5 L 95.5 443 Z " /><path fill="rgb(180,211,222)" stroke="rgb(180,211,222)" stroke-width="1" opacity="1" d="M 403.5 443 L 407 443.5 L 403.5 444 L 403.5 443 Z " /><path fill="rgb(180,211,222)" stroke="rgb(180,211,222)" stroke-width="1" opacity="1" d="M 262.5 444 L 260.5 448 L 288 448.5 L 259 449 L 262.5 444 Z " /><path fill="rgb(180,211,222)" stroke="rgb(180,211,222)" stroke-width="1" opacity="1" d="M 319.5 445 L 320.5 447 L 319.5 445 Z " /><path fill="rgb(180,211,222)" stroke="rgb(180,211,222)" stroke-width="1" opacity="1" d="M 253.5 446 L 250.5 450 L 253.5 446 Z " /><path fill="rgb(180,211,222)" stroke="rgb(180,211,222)" stroke-width="1" opacity="1" d="M 407.5 447 Q 410.8 445.9 410 448.5 L 408.5 448 L 407.5 447 Z " /><path fill="rgb(180,211,222)" stroke="rgb(180,211,222)" stroke-width="1" opacity="1" d="M 322.5 449 L 325.5 453 L 322.5 449 Z " /><path fill="rgb(180,211,222)" stroke="rgb(180,211,222)" stroke-width="1" opacity="1" d="M 390.5 450 L 392.5 453 L 390.5 450 Z " /><path fill="rgb(180,211,222)" stroke="rgb(180,211,222)" stroke-width="1" opacity="1" d="M 132.5 451 L 133.5 453 L 132.5 451 Z " /><path fill="rgb(180,211,222)" stroke="rgb(180,211,222)" stroke-width="1" opacity="1" d="M 250.5 451 L 251.5 452 L 288.5 452 L 290 453.5 L 288.5 453 L 251.5 453 L 250.5 451 Z " /><path fill="rgb(180,211,222)" stroke="rgb(180,211,222)" stroke-width="1" opacity="1" d="M 123.5 454 L 129 454.5 L 123.5 455 L 123.5 454 Z " /><path fill="rgb(180,211,222)" stroke="rgb(180,211,222)" stroke-width="1" opacity="1" d="M 134.5 454 L 135.5 456 L 134.5 454 Z " /><path fill="rgb(180,211,222)" stroke="rgb(180,211,222)" stroke-width="1" opacity="1" d="M 136.5 457 L 138.5 460 L 136.5 457 Z " /><path fill="rgb(180,211,222)" stroke="rgb(180,211,222)" stroke-width="1" opacity="1" d="M 330.5 458 L 331 461 L 333 461.5 L 331.5 462 Q 329 461 330.5 458 Z " /><path fill="rgb(180,211,222)" stroke="rgb(180,211,222)" stroke-width="1" opacity="1" d="M 133.5 460 L 134.5 462 L 133.5 460 Z " /><path fill="rgb(180,211,222)" stroke="rgb(180,211,222)" stroke-width="1" opacity="1" d="M 54.5 461 L 55.5 463 L 54.5 461 Z " /><path fill="rgb(180,211,222)" stroke="rgb(180,211,222)" stroke-width="1" opacity="1" d="M 139.5 461 L 141.5 464 L 139.5 461 Z " /><path fill="rgb(180,211,222)" stroke="rgb(180,211,222)" stroke-width="1" opacity="1" d="M 335.5 462 L 336.5 464 L 335.5 462 Z " /><path fill="rgb(180,211,222)" stroke="rgb(180,211,222)" stroke-width="1" opacity="1" d="M 135.5 463 L 137.5 466 L 135.5 463 Z " /><path fill="rgb(180,211,222)" stroke="rgb(180,211,222)" stroke-width="1" opacity="1" d="M 58.5 464 L 59.5 466 L 58.5 464 Z " /><path fill="rgb(180,211,222)" stroke="rgb(180,211,222)" stroke-width="1" opacity="1" d="M 339.5 465 L 340.5 467 L 339.5 465 Z " /><path fill="rgb(180,211,222)" stroke="rgb(180,211,222)" stroke-width="1" opacity="1" d="M 143.5 466 L 155.5 479 L 143.5 466 Z " /><path fill="rgb(180,211,222)" stroke="rgb(180,211,222)" stroke-width="1" opacity="1" d="M 63.5 467 L 64.5 469 L 63.5 467 Z " /><path fill="rgb(180,211,222)" stroke="rgb(180,211,222)" stroke-width="1" opacity="1" d="M 139.5 468 L 145.5 475 L 139.5 468 Z " /><path fill="rgb(180,211,222)" stroke="rgb(180,211,222)" stroke-width="1" opacity="1" d="M 343.5 468 L 344.5 470 L 343.5 468 Z " /><path fill="rgb(180,211,222)" stroke="rgb(180,211,222)" stroke-width="1" opacity="1" d="M 68.5 470 L 72 472.5 L 70.5 472 L 68.5 470 Z " /><path fill="rgb(180,211,222)" stroke="rgb(180,211,222)" stroke-width="1" opacity="1" d="M 75.5 474 L 79 475.5 L 77.5 476 L 75.5 474 Z " /><path fill="rgb(180,211,222)" stroke="rgb(180,211,222)" stroke-width="1" opacity="1" d="M 353.5 474 L 354 475.5 L 352 476.5 L 353.5 474 Z " /><path fill="rgb(180,211,222)" stroke="rgb(180,211,222)" stroke-width="1" opacity="1" d="M 147.5 476 L 153.5 483 L 147.5 476 Z " /><path fill="rgb(180,211,222)" stroke="rgb(180,211,222)" stroke-width="1" opacity="1" d="M 358.5 477 L 378.5 481 L 405.5 482 L 406.5 481 L 429.5 480 L 442.5 477 L 446 479.5 L 444.5 483 L 437.5 486 L 422.5 489 L 388.5 490 L 387.5 489 L 378.5 489 L 367.5 487 L 357.5 483 L 355 480.5 L 358.5 477 Z " /><path fill="rgb(180,211,222)" stroke="rgb(180,211,222)" stroke-width="1" opacity="1" d="M 158.5 480 L 160.5 483 L 158.5 480 Z " /><path fill="rgb(180,211,222)" stroke="rgb(180,211,222)" stroke-width="1" opacity="1" d="M 303.5 481 L 304.5 483 L 303.5 481 Z " /><path fill="rgb(180,211,222)" stroke="rgb(180,211,222)" stroke-width="1" opacity="1" d="M 162.5 483 L 163.5 485 L 162.5 483 Z " /><path fill="rgb(180,211,222)" stroke="rgb(180,211,222)" stroke-width="1" opacity="1" d="M 156.5 484 L 158.5 487 L 156.5 484 Z " /><path fill="rgb(180,211,222)" stroke="rgb(180,211,222)" stroke-width="1" opacity="1" d="M 300.5 484 L 301.5 486 L 300.5 484 Z " /><path fill="rgb(180,211,222)" stroke="rgb(180,211,222)" stroke-width="1" opacity="1" d="M 113.5 486 L 116 486.5 L 113.5 487 L 113.5 486 Z " /><path fill="rgb(180,211,222)" stroke="rgb(180,211,222)" stroke-width="1" opacity="1" d="M 118.5 487 L 122 487.5 L 118.5 488 L 118.5 487 Z " /><path fill="rgb(180,211,222)" stroke="rgb(180,211,222)" stroke-width="1" opacity="1" d="M 160.5 487 Q 163.5 488.5 160.5 490 L 139 489.5 L 161 488.5 L 160.5 487 Z " /><path fill="rgb(180,211,222)" stroke="rgb(180,211,222)" stroke-width="1" opacity="1" d="M 126.5 488 L 131 488.5 L 126.5 489 L 126.5 488 Z " /><path fill="rgb(180,211,222)" stroke="rgb(180,211,222)" stroke-width="1" opacity="1" d="M 359.5 488 L 363 489.5 L 358.5 490 L 359.5 488 Z " /><path fill="rgb(180,211,222)" stroke="rgb(180,211,222)" stroke-width="1" opacity="1" d="M 175.5 489 L 179 489.5 L 175.5 490 L 175.5 489 Z " /><path fill="rgb(180,211,222)" stroke="rgb(180,211,222)" stroke-width="1" opacity="1" d="M 320.5 489 L 324 489.5 L 320.5 490 L 320.5 489 Z " /><path fill="rgb(180,211,222)" stroke="rgb(180,211,222)" stroke-width="1" opacity="1" d="M 335.5 489 L 340 489.5 L 335.5 490 L 335.5 489 Z " /><path fill="rgb(234,234,229)" stroke="rgb(234,234,229)" stroke-width="1" opacity="1" d="M 298.5 22 L 299.5 24 L 298.5 22 Z " /><path fill="rgb(234,234,229)" stroke="rgb(234,234,229)" stroke-width="1" opacity="1" d="M 409.5 87 L 410.5 89 L 409.5 87 Z " /><path fill="rgb(234,234,229)" stroke="rgb(234,234,229)" stroke-width="1" opacity="1" d="M 320.5 128 L 321 130.5 L 320 130.5 L 320.5 128 Z " /><path fill="rgb(234,234,229)" stroke="rgb(234,234,229)" stroke-width="1" opacity="1" d="M 251.5 132 L 252 138.5 L 251 138.5 L 251.5 132 Z " /><path fill="rgb(234,234,229)" stroke="rgb(234,234,229)" stroke-width="1" opacity="1" d="M 300.5 150 L 301.5 152 L 300.5 150 Z " /><path fill="rgb(234,234,229)" stroke="rgb(234,234,229)" stroke-width="1" opacity="1" d="M 309.5 151 L 310.5 153 L 309.5 151 Z " /><path fill="rgb(234,234,229)" stroke="rgb(234,234,229)" stroke-width="1" opacity="1" d="M 314.5 155 L 315.5 157 L 314.5 155 Z " /><path fill="rgb(234,234,229)" stroke="rgb(234,234,229)" stroke-width="1" opacity="1" d="M 311.5 159 L 312.5 161 L 311.5 159 Z " /><path fill="rgb(234,234,229)" stroke="rgb(234,234,229)" stroke-width="1" opacity="1" d="M 399.5 162 L 398.5 164 L 399.5 162 Z " /><path fill="rgb(234,234,229)" stroke="rgb(234,234,229)" stroke-width="1" opacity="1" d="M 316.5 163 L 317.5 165 L 316.5 163 Z " /><path fill="rgb(234,234,229)" stroke="rgb(234,234,229)" stroke-width="1" opacity="1" d="M 325.5 164 L 326.5 166 L 325.5 164 Z " /><path fill="rgb(234,234,229)" stroke="rgb(234,234,229)" stroke-width="1" opacity="1" d="M 364.5 168 L 361.5 172 L 364.5 168 Z " /><path fill="rgb(234,234,229)" stroke="rgb(234,234,229)" stroke-width="1" opacity="1" d="M 349.5 179 L 348.5 181 L 349.5 179 Z " /><path fill="rgb(234,234,229)" stroke="rgb(234,234,229)" stroke-width="1" opacity="1" d="M 349.5 185 L 350.5 187 L 349.5 185 Z " /><path fill="rgb(234,234,229)" stroke="rgb(234,234,229)" stroke-width="1" opacity="1" d="M 355.5 185 L 356.5 187 L 355.5 185 Z " /><path fill="rgb(234,234,229)" stroke="rgb(234,234,229)" stroke-width="1" opacity="1" d="M 343.5 186 L 347 186.5 L 343.5 187 L 343.5 186 Z " /><path fill="rgb(234,234,229)" stroke="rgb(234,234,229)" stroke-width="1" opacity="1" d="M 351.5 188 L 352.5 190 L 351.5 188 Z " /><path fill="rgb(234,234,229)" stroke="rgb(234,234,229)" stroke-width="1" opacity="1" d="M 412.5 193 L 411.5 195 L 412.5 193 Z " /><path fill="rgb(234,234,229)" stroke="rgb(234,234,229)" stroke-width="1" opacity="1" d="M 378.5 198 L 377.5 200 L 378.5 198 Z " /><path fill="rgb(234,234,229)" stroke="rgb(234,234,229)" stroke-width="1" opacity="1" d="M 235.5 200 L 226.5 210 L 235.5 200 Z " /><path fill="rgb(234,234,229)" stroke="rgb(234,234,229)" stroke-width="1" opacity="1" d="M 385.5 202 L 386.5 204 L 385.5 202 Z " /><path fill="rgb(234,234,229)" stroke="rgb(234,234,229)" stroke-width="1" opacity="1" d="M 381.5 205 L 382.5 207 L 381.5 205 Z " /><path fill="rgb(234,234,229)" stroke="rgb(234,234,229)" stroke-width="1" opacity="1" d="M 391.5 207 L 392.5 209 L 391.5 207 Z " /><path fill="rgb(234,234,229)" stroke="rgb(234,234,229)" stroke-width="1" opacity="1" d="M 220.5 214 L 219.5 216 L 220.5 214 Z " /><path fill="rgb(234,234,229)" stroke="rgb(234,234,229)" stroke-width="1" opacity="1" d="M 164.5 252 L 160.5 257 L 164.5 252 Z " /><path fill="rgb(234,234,229)" stroke="rgb(234,234,229)" stroke-width="1" opacity="1" d="M 158.5 258 L 154.5 263 L 158.5 258 Z " /><path fill="rgb(234,234,229)" stroke="rgb(234,234,229)" stroke-width="1" opacity="1" d="M 398.5 263 L 399 265.5 L 398 265.5 L 398.5 263 Z " /><path fill="rgb(234,234,229)" stroke="rgb(234,234,229)" stroke-width="1" opacity="1" d="M 153.5 264 L 153 265.5 L 143 285.5 L 134 314.5 L 134 319.5 L 131 332.5 L 131 341.5 L 130 342.5 L 130 371.5 L 131 372.5 L 131 381.5 L 132 382.5 L 133 393.5 L 142 421.5 Q 154 446.5 174.5 463 Q 181.3 469.2 191.5 472 L 293.5 472 L 295 471.5 Q 296.9 483.6 305 489.5 L 179.5 490 L 170.5 488 L 161.5 483 L 142 464.5 Q 128.5 448.5 121 426.5 L 115 396.5 L 114 367.5 L 115 366.5 L 115 354.5 L 119 331.5 L 126 308.5 Q 135.8 282.3 153.5 264 Z " /><path fill="rgb(234,234,229)" stroke="rgb(234,234,229)" stroke-width="1" opacity="1" d="M 398.5 279 L 399 281.5 L 398 281.5 L 398.5 279 Z " /><path fill="rgb(234,234,229)" stroke="rgb(234,234,229)" stroke-width="1" opacity="1" d="M 308.5 312 L 306.5 315 L 308.5 312 Z " /><path fill="rgb(234,234,229)" stroke="rgb(234,234,229)" stroke-width="1" opacity="1" d="M 249.5 319 L 250.5 321 L 249.5 319 Z " /><path fill="rgb(234,234,229)" stroke="rgb(234,234,229)" stroke-width="1" opacity="1" d="M 257.5 319 L 258.5 321 L 257.5 319 Z " /><path fill="rgb(234,234,229)" stroke="rgb(234,234,229)" stroke-width="1" opacity="1" d="M 62.5 320 L 71 320.5 L 54 332.5 Q 43.6 342.6 38 357.5 L 38.5 359 Q 25.3 362.8 16.5 371 L 17 369.5 Q 23.2 343.7 41.5 330 Q 49.8 322.8 62.5 320 Z " /><path fill="rgb(234,234,229)" stroke="rgb(234,234,229)" stroke-width="1" opacity="1" d="M 255.5 324 L 256.5 326 L 255.5 324 Z " /><path fill="rgb(234,234,229)" stroke="rgb(234,234,229)" stroke-width="1" opacity="1" d="M 267.5 336 L 268.5 338 L 267.5 336 Z " /><path fill="rgb(234,234,229)" stroke="rgb(234,234,229)" stroke-width="1" opacity="1" d="M 58.5 354 L 63 354.5 L 58.5 355 L 58.5 354 Z " /><path fill="rgb(234,234,229)" stroke="rgb(234,234,229)" stroke-width="1" opacity="1" d="M 72.5 354 L 71.5 356 L 68 355.5 L 72.5 354 Z " /><path fill="rgb(234,234,229)" stroke="rgb(234,234,229)" stroke-width="1" opacity="1" d="M 49.5 355 L 53 355.5 L 49.5 356 L 49.5 355 Z " /><path fill="rgb(234,234,229)" stroke="rgb(234,234,229)" stroke-width="1" opacity="1" d="M 44.5 356 L 47 356.5 L 44.5 357 L 44.5 356 Z " /><path fill="rgb(234,234,229)" stroke="rgb(234,234,229)" stroke-width="1" opacity="1" d="M 40.5 357 L 43 357.5 L 40.5 358 L 40.5 357 Z " /><path fill="rgb(234,234,229)" stroke="rgb(234,234,229)" stroke-width="1" opacity="1" d="M 58.5 373 L 62 373.5 L 58.5 374 L 58.5 373 Z " /><path fill="rgb(234,234,229)" stroke="rgb(234,234,229)" stroke-width="1" opacity="1" d="M 50.5 374 L 54 374.5 L 50.5 375 L 50.5 374 Z " /><path fill="rgb(234,234,229)" stroke="rgb(234,234,229)" stroke-width="1" opacity="1" d="M 46.5 375 L 49 375.5 L 46.5 376 L 46.5 375 Z " /><path fill="rgb(234,234,229)" stroke="rgb(234,234,229)" stroke-width="1" opacity="1" d="M 43.5 376 L 45 376.5 L 41.5 378 L 41.5 377 L 43.5 376 Z " /><path fill="rgb(234,234,229)" stroke="rgb(234,234,229)" stroke-width="1" opacity="1" d="M 35.5 380 L 34.5 382 L 35.5 380 Z " /><path fill="rgb(234,234,229)" stroke="rgb(234,234,229)" stroke-width="1" opacity="1" d="M 404.5 381 L 407 382.5 L 409 392 L 392.5 392 L 388.5 393 L 394.5 386 L 404.5 381 Z " /><path fill="rgb(234,234,229)" stroke="rgb(234,234,229)" stroke-width="1" opacity="1" d="M 32.5 382 L 33 397.5 L 35 407.5 L 43 427 L 45 427.5 L 36.5 444 Q 26.8 433.7 21 419.5 L 17 408.5 L 16 399.5 L 27.5 386 L 32.5 382 Z " /><path fill="rgb(234,234,229)" stroke="rgb(234,234,229)" stroke-width="1" opacity="1" d="M 398.5 396 L 409.5 397 L 419.5 400 L 438.5 412 Q 445.5 404 456.5 400 L 457 440 Q 445.5 436.5 437.5 428 Q 429.3 436.3 417.5 441 L 410.5 443 L 396.5 444 L 381 439.5 Q 388.4 434.9 389 423.5 L 385.5 422 L 384 423.5 L 383 430.5 L 378.5 435 L 374.5 436 L 361 425.5 L 357 419.5 L 363.5 412 L 379.5 401 L 387.5 398 L 398.5 396 Z M 401 405 L 398 406 L 399 410 L 398 414 Q 397 418 402 416 L 404 413 Q 405 406 401 405 Z M 413 414 L 411 416 L 412 420 L 411 422 Q 409 427 415 425 Q 417 423 416 417 L 413 414 Z M 370 416 L 370 420 Q 374 421 375 419 L 375 416 L 370 416 Z M 401 424 L 399 426 L 400 428 L 399 433 L 403 435 Q 406 433 405 427 Q 404 423 401 424 Z " /><path fill="rgb(234,234,229)" stroke="rgb(234,234,229)" stroke-width="1" opacity="1" d="M 63.5 407 L 61.5 410 L 63.5 407 Z " /><path fill="rgb(234,234,229)" stroke="rgb(234,234,229)" stroke-width="1" opacity="1" d="M 59.5 410 L 55.5 415 L 59.5 410 Z " /><path fill="rgb(234,234,229)" stroke="rgb(234,234,229)" stroke-width="1" opacity="1" d="M 52.5 417 L 48.5 422 L 52.5 417 Z " /><path fill="rgb(234,234,229)" stroke="rgb(234,234,229)" stroke-width="1" opacity="1" d="M 47.5 423 L 45.5 426 L 47.5 423 Z " /><path fill="rgb(234,234,229)" stroke="rgb(234,234,229)" stroke-width="1" opacity="1" d="M 72.5 424 L 70.5 427 L 72.5 424 Z " /><path fill="rgb(234,234,229)" stroke="rgb(234,234,229)" stroke-width="1" opacity="1" d="M 274.5 425 L 273.5 427 L 274.5 425 Z " /><path fill="rgb(234,234,229)" stroke="rgb(234,234,229)" stroke-width="1" opacity="1" d="M 68.5 427 L 65.5 431 L 68.5 427 Z " /><path fill="rgb(234,234,229)" stroke="rgb(234,234,229)" stroke-width="1" opacity="1" d="M 64.5 432 L 62 435.5 L 60.5 438 L 61 436.5 L 64.5 432 Z " /><path fill="rgb(234,234,229)" stroke="rgb(234,234,229)" stroke-width="1" opacity="1" d="M 268.5 432 L 261.5 440 L 268.5 432 Z " /><path fill="rgb(234,234,229)" stroke="rgb(234,234,229)" stroke-width="1" opacity="1" d="M 272.5 435 L 264.5 444 L 272.5 435 Z " /><path fill="rgb(234,234,229)" stroke="rgb(234,234,229)" stroke-width="1" opacity="1" d="M 59.5 439 L 59 440.5 L 58.5 442 L 58 440.5 L 59.5 439 Z " /><path fill="rgb(234,234,229)" stroke="rgb(234,234,229)" stroke-width="1" opacity="1" d="M 89.5 439 L 90.5 441 L 89.5 439 Z " /><path fill="rgb(234,234,229)" stroke="rgb(234,234,229)" stroke-width="1" opacity="1" d="M 56.5 445 L 69.5 459 L 89.5 472 L 90.5 464 L 91 480 L 72.5 473 L 53 461 Q 52.9 451.6 56.5 445 Z " /><path fill="rgb(234,234,229)" stroke="rgb(234,234,229)" stroke-width="1" opacity="1" d="M 387.5 447 L 391.5 448 L 409 448 L 407 457.5 L 405.5 459 Q 393.1 455.4 387.5 447 Z " /><path fill="rgb(234,234,229)" stroke="rgb(234,234,229)" stroke-width="1" opacity="1" d="M 113.5 452 L 113 453.5 L 112.5 455 L 112 453.5 L 113.5 452 Z " /><path fill="rgb(234,234,229)" stroke="rgb(234,234,229)" stroke-width="1" opacity="1" d="M 92.5 453 L 93 455.5 L 92 455.5 L 92.5 453 Z " /><path fill="rgb(234,234,229)" stroke="rgb(234,234,229)" stroke-width="1" opacity="1" d="M 326.5 454 L 329.5 458 L 326.5 454 Z " /><path fill="rgb(234,234,229)" stroke="rgb(234,234,229)" stroke-width="1" opacity="1" d="M 91.5 457 L 92 460.5 L 91 460.5 L 91.5 457 Z " /><path fill="rgb(234,234,229)" stroke="rgb(234,234,229)" stroke-width="1" opacity="1" d="M 110.5 459 L 111 461.5 L 110 461.5 L 110.5 459 Z " /><path fill="rgb(234,234,229)" stroke="rgb(234,234,229)" stroke-width="1" opacity="1" d="M 109.5 464 L 110 476.5 L 109 476.5 L 109.5 464 Z " /><path fill="rgb(234,234,229)" stroke="rgb(234,234,229)" stroke-width="1" opacity="1" d="M 110.5 479 L 112.5 482 L 127.5 486 L 145 488.5 L 131.5 489 L 130.5 488 L 116.5 487 L 111 484.5 L 110.5 479 Z " /><path fill="rgb(234,234,229)" stroke="rgb(234,234,229)" stroke-width="1" opacity="1" d="M 305.5 483 L 306.5 485 L 305.5 483 Z " /><path fill="rgb(234,234,229)" stroke="rgb(234,234,229)" stroke-width="1" opacity="1" d="M 352.5 484 L 353.5 486 L 352.5 484 Z " /><path fill="rgb(0,0,0)" stroke="rgb(0,0,0)" stroke-width="1" opacity="0" d="M 0 0 L 512 0 L 512 512 L 0 512 L 0 0 Z M 295 18 L 291 22 L 278 64 Q 265 78 256 97 L 250 111 L 247 124 L 247 147 L 251 162 L 250 169 L 244 181 L 230 200 L 210 217 L 179 235 L 161 249 Q 137 271 123 303 L 113 336 L 111 355 L 110 356 L 110 370 L 109 371 L 110 397 L 111 398 L 113 416 Q 117 435 126 450 Q 104 447 92 435 L 80 422 L 75 412 L 71 396 L 71 377 L 74 364 L 86 336 Q 87 328 84 324 Q 80 317 71 315 L 63 315 L 52 318 L 39 326 Q 16 343 10 377 L 10 399 L 15 419 Q 22 436 33 449 Q 49 468 74 479 L 102 489 L 123 493 L 131 493 L 132 494 L 169 494 L 170 493 L 181 495 L 332 495 L 333 494 L 349 493 L 350 492 L 364 495 Q 369 497 371 494 L 397 494 L 398 495 L 428 493 L 443 489 L 449 486 L 451 483 Q 452 476 449 474 Q 459 471 466 464 Q 494 442 502 399 L 502 372 Q 500 370 501 366 Q 497 346 488 332 L 493 331 L 497 326 Q 498 319 496 316 L 492 311 L 399 311 L 403 292 L 404 271 L 404 269 L 403 268 L 403 253 L 402 252 L 402 243 L 399 228 L 399 222 L 399 220 L 402 222 L 404 219 L 398 214 L 407 207 L 413 201 L 414 202 Q 418 200 415 199 Q 425 187 431 171 L 438 144 L 439 135 L 458 87 Q 458 80 454 78 L 450 78 L 420 89 Q 401 71 376 61 L 352 53 L 335 50 Q 324 51 318 49 L 303 20 Q 301 16 295 18 Z " /><path fill="rgb(234,234,234)" stroke="rgb(234,234,234)" stroke-width="1" opacity="1" d="M 297.5 22 L 315.5 54 L 341.5 56 L 366.5 63 L 390.5 74 Q 405.3 82.2 416.5 94 L 420.5 94 L 451.5 83 L 453 86.5 L 435 130.5 L 431 151.5 L 424 174.5 L 411 196 L 382.5 189 Q 380 190.2 381 194 L 406 200.5 L 395.5 209 L 393.5 209 L 380.5 198 L 378.5 198 L 377 201.5 L 389 212.5 L 373.5 218 L 371 220.5 L 372.5 223 L 376.5 223 L 393 217 L 396 234.5 L 397 249.5 L 398 250.5 L 399 278.5 L 398 279.5 L 398 291.5 L 394 311 L 345.5 311 L 345 307.5 L 346 306.5 L 346 290 L 342 290 L 342 291.5 L 341 292.5 Q 342.2 304.2 340 311 L 310.5 311 L 306 314.5 Q 303.5 318 305 325.5 L 309.5 331 L 314 332.5 Q 307 343 303 356.5 L 300 370.5 L 299 390.5 L 300 391.5 L 300 400.5 L 302 410.5 L 308 427.5 L 318 444.5 L 331.5 462 L 334.5 462 L 353 475.5 Q 349.8 476.8 351 482.5 L 353 487 L 342.5 489 L 326.5 490 L 310.5 487 L 304 481.5 L 300 473.5 L 294 454.5 L 287 421.5 L 284 397.5 L 282 390.5 L 282 384.5 L 281 383.5 L 281 377.5 L 280 376.5 L 279 362.5 L 278 361.5 L 278 353.5 L 277 352.5 L 277 344.5 L 276 343.5 L 275 326.5 L 274 325.5 L 274 316.5 L 273 315.5 L 273 306.5 L 270.5 303 L 268 304.5 L 268 316.5 L 269 317.5 L 270 330.5 L 257.5 319 L 249.5 313 L 245 312 L 244 314.5 L 246.5 318 Q 258.3 325.3 267 335.5 L 271 340.5 L 272 345.5 L 274 369.5 L 275 370.5 L 276 384.5 L 277 385.5 L 281 415.5 Q 271 433 255.5 445 L 250 449.5 L 251.5 453 L 288.5 453 L 289 454.5 L 294 472 L 191.5 472 Q 181.3 469.2 174.5 463 L 157 445.5 Q 143.2 428.8 136 405.5 L 133 393.5 L 133 388.5 L 131 381.5 L 131 372.5 L 130 371.5 L 130 342.5 L 131 341.5 L 131 332.5 L 132 331.5 L 134 314.5 L 140 293.5 L 149 272.5 L 159 257 L 181.5 239 L 215.5 219 L 236 200.5 Q 247.2 187.7 254.5 171 L 262.5 182 Q 267.8 183.8 266 178.5 Q 249 161 252 123.5 L 259 101.5 Q 269.4 81.4 283 64.5 L 295 25.5 L 297.5 22 Z M 325 122 L 320 129 L 322 135 L 327 137 L 334 135 L 336 130 L 335 126 Q 333 120 325 122 Z M 301 145 Q 298 146 299 150 L 323 169 L 328 171 L 329 168 L 301 145 Z M 391 150 Q 385 152 387 161 L 393 165 L 399 164 L 402 159 L 401 154 Q 399 148 391 150 Z M 356 154 L 353 155 L 351 160 Q 349 168 353 172 L 350 179 L 346 182 L 340 180 L 338 180 L 336 180 L 336 184 L 344 187 L 350 186 L 351 189 L 359 193 Q 365 195 363 190 L 358 187 L 354 183 L 357 173 L 362 172 Q 368 169 368 160 Q 365 154 356 154 Z M 291 166 L 289 170 L 296 173 L 320 181 Q 326 183 324 178 L 323 176 L 291 166 Z " /><path fill="rgb(234,234,234)" stroke="rgb(234,234,234)" stroke-width="1" opacity="1" d="M 69.5 321 Q 77.4 320.1 79 325.5 Q 81.8 328.2 81 334.5 Q 78.3 346.8 71.5 355 L 58.5 354 L 38.5 358 L 39 356.5 Q 44.3 340.8 55.5 331 L 69.5 321 Z " /><path fill="rgb(234,234,234)" stroke="rgb(234,234,234)" stroke-width="1" opacity="1" d="M 54.5 374 L 65.5 374 L 67 375.5 L 66 376.5 L 66 395.5 L 68 404.5 Q 56 411 48 421.5 L 45 427 Q 42.3 428.1 43 425.5 L 35 407.5 L 33 397.5 L 33 382 L 45.5 376 L 54.5 374 Z " /><path fill="rgb(234,234,234)" stroke="rgb(234,234,234)" stroke-width="1" opacity="1" d="M 75.5 423 Q 81.2 433.8 90.5 441 L 96 444.5 L 91 457.5 L 89.5 472 Q 70.1 462.4 57 446.5 Q 60.4 433.9 69.5 427 L 75.5 423 Z " /><path fill="rgb(234,234,234)" stroke="rgb(234,234,234)" stroke-width="1" opacity="1" d="M 282.5 423 L 288 447.5 L 260.5 448 L 263.5 444 L 273 435.5 L 282.5 423 Z " /><path fill="rgb(234,234,234)" stroke="rgb(234,234,234)" stroke-width="1" opacity="1" d="M 113 453 L 122.5 455 L 130 455 Q 139 472.1 154.5 484 L 161 488.5 L 145.5 489 L 144.5 488 L 127.5 486 L 112.5 482 L 111 480.5 L 110 478.5 L 110 462.5 L 113 453 Z " /><path fill="rgb(94,97,98)" stroke="rgb(94,97,98)" stroke-width="1" opacity="0.9450980392156862" d="M 294.5 18 Q 301.3 16.3 303 19.5 L 318 49 Q 324 51 334.5 50 L 351.5 53 L 375.5 61 Q 401.1 71.4 419.5 89 L 449.5 78 L 453.5 78 Q 457.9 80.1 458 86.5 L 439 134.5 L 438 143.5 L 431 170.5 Q 425.5 187 415 198.5 Q 417.8 200.2 413.5 202 L 412.5 201 L 406.5 207 L 398 213.5 L 404 218.5 L 401.5 222 L 399 221 L 401 241.5 L 402 242.5 L 402 251.5 L 403 252.5 L 403 267.5 L 404 268.5 L 404 270.5 L 403 291.5 L 399 311 L 491.5 311 L 496 315.5 Q 498.3 318.7 497 325.5 L 492.5 331 L 488 332 Q 496.7 346.1 501 365.5 Q 499.8 370.3 502 371.5 L 502 398.5 Q 494.3 441.8 465.5 464 Q 458.7 471.3 449 474 Q 451.6 476.3 451 482.5 L 449 486 L 442.5 489 L 427.5 493 L 397.5 495 L 396.5 494 L 370.5 494 Q 369 496.5 363.5 495 L 349.5 492 L 348.5 493 L 332.5 494 L 331.5 495 L 180.5 495 L 169.5 493 L 168.5 494 L 131.5 494 L 130.5 493 L 122.5 493 L 101.5 489 L 73.5 479 Q 49.5 467.5 33 448.5 Q 21.7 435.8 15 418.5 L 10 398.5 L 10 376.5 Q 16.1 343.1 38.5 326 L 51.5 318 L 62.5 315 L 70.5 315 Q 79.8 316.8 84 323.5 Q 87 327.5 86 335.5 L 74 363.5 L 71 376.5 L 71 395.5 L 75 411.5 L 80 421.5 L 91.5 435 Q 104.3 447.4 126 450 Q 117.4 435.4 113 415.5 L 111 397.5 L 110 396.5 L 109 370.5 L 110 369.5 L 110 355.5 L 111 354.5 L 113 335.5 L 123 302.5 Q 136.7 270.7 160.5 249 L 178.5 235 L 209.5 217 L 230 199.5 L 244 180.5 L 250 168.5 L 251 161.5 L 247 146.5 L 247 123.5 L 250 110.5 L 256 96.5 Q 265.3 78.3 278 63.5 L 291 21.5 L 294.5 18 Z M 297 22 L 295 24 L 282 63 L 282 66 Q 270 79 261 97 L 254 113 L 251 127 L 251 145 L 254 159 Q 258 171 266 181 L 264 182 Q 257 177 255 169 Q 248 187 236 200 L 212 221 L 184 237 L 169 248 Q 142 270 127 305 L 118 334 L 115 351 L 115 359 L 114 360 L 114 392 L 115 393 L 115 401 L 119 422 Q 127 448 143 467 L 161 483 L 176 490 L 306 490 L 305 489 L 296 476 L 290 454 L 289 452 L 252 452 L 250 451 L 257 445 Q 272 433 282 416 L 277 387 L 277 381 L 276 380 L 276 374 L 275 373 L 272 342 L 267 335 L 247 317 L 245 313 L 249 313 L 257 319 L 271 333 L 268 306 L 271 304 L 272 306 Q 271 311 273 313 L 273 322 L 274 323 L 274 332 L 275 333 L 275 341 L 276 342 L 279 374 L 280 375 L 280 381 L 281 382 L 281 388 L 282 389 L 282 395 L 287 420 L 287 425 L 295 461 L 303 482 L 312 488 L 321 490 L 340 490 L 355 487 L 351 482 L 354 474 L 349 472 L 336 462 L 331 461 L 331 459 L 314 438 L 307 424 L 302 408 L 301 397 L 300 396 L 300 375 Q 303 373 301 368 L 308 345 L 315 333 Q 316 329 311 331 L 305 324 Q 304 317 307 315 L 314 311 L 341 311 L 341 302 L 342 301 L 342 291 L 346 291 L 346 298 L 345 299 L 345 311 L 346 311 L 394 311 L 397 301 L 398 289 L 399 288 L 399 257 L 398 256 L 398 246 L 397 245 L 396 231 L 393 216 L 374 223 L 372 219 Q 382 218 390 213 L 384 207 L 378 202 L 378 199 L 381 199 L 394 210 L 405 203 L 407 199 L 381 193 L 383 190 L 411 196 Q 419 188 424 177 L 433 146 L 435 133 L 453 88 Q 454 83 452 82 L 420 94 L 418 94 Q 407 83 394 75 L 374 65 L 354 58 L 340 55 L 317 54 L 312 48 L 301 25 Q 301 22 297 22 Z M 313 315 L 309 319 L 310 326 L 312 327 L 491 327 L 493 323 L 492 318 L 489 315 L 313 315 Z M 61 320 Q 48 323 40 331 Q 30 339 24 350 L 16 369 L 14 380 L 14 396 L 18 414 Q 26 435 41 451 Q 56 466 78 476 L 109 486 L 119 488 L 126 488 L 127 489 L 139 489 L 140 490 L 161 490 L 162 489 L 146 476 L 132 458 L 129 454 L 121 454 L 105 449 L 92 441 Q 78 430 71 414 L 67 399 L 67 390 L 66 389 L 67 374 L 69 365 L 81 338 Q 83 329 80 326 Q 76 317 61 320 Z M 321 331 L 317 336 L 309 353 L 304 376 L 304 396 L 308 415 Q 315 434 327 449 Q 337 461 352 469 L 363 474 L 381 476 L 382 477 L 418 477 L 419 476 L 426 476 L 443 473 Q 456 467 467 457 Q 480 444 489 427 L 494 414 L 498 392 L 498 379 L 497 378 L 497 369 L 495 360 Q 491 344 482 333 L 482 331 L 321 331 Z M 283 422 L 273 435 L 259 448 L 260 449 L 288 449 L 284 430 L 284 425 L 283 422 Z M 359 477 L 355 481 L 358 483 L 368 487 L 379 489 L 388 489 L 389 490 L 423 489 L 438 486 L 445 483 L 446 480 L 443 477 L 430 480 L 407 481 L 406 482 L 379 481 L 359 477 Z M 360 488 L 359 490 L 363 490 L 360 488 Z " /><path fill="rgb(94,97,98)" stroke="rgb(94,97,98)" stroke-width="1" opacity="0.9450980392156862" d="M 326.5 122 Q 332.7 121.3 334 125.5 L 335 131.5 L 332.5 135 L 325.5 136 L 322 133.5 L 321 127.5 L 324.5 123 L 326.5 122 Z " /><path fill="rgb(94,97,98)" stroke="rgb(94,97,98)" stroke-width="1" opacity="0.9450980392156862" d="M 300.5 146 L 303.5 147 L 329 168.5 Q 326.8 173.2 324.5 169 L 299 148.5 L 300.5 146 Z " /><path fill="rgb(94,97,98)" stroke="rgb(94,97,98)" stroke-width="1" opacity="0.9450980392156862" d="M 392.5 150 Q 398.9 150.1 401 154.5 Q 402 161 398.5 163 L 391.5 164 L 389 163 L 387 159.5 L 387 155.5 L 390.5 151 L 392.5 150 Z " /><path fill="rgb(94,97,98)" stroke="rgb(94,97,98)" stroke-width="1" opacity="0.9450980392156862" d="M 354.5 155 Q 364.6 153.4 367 159.5 L 367 163.5 L 361.5 171 L 356 174.5 L 354 184.5 L 363 190.5 Q 361.3 194.7 359.5 192 L 352 188.5 L 351 185 L 342.5 186 L 337 184 L 336 181.5 L 339.5 180 Q 341.5 183 347.5 182 L 353 173.5 L 353 170.5 L 351 163.5 L 352 158.5 L 354.5 155 Z " /><path fill="rgb(94,97,98)" stroke="rgb(94,97,98)" stroke-width="1" opacity="0.9450980392156862" d="M 290.5 167 L 320.5 176 L 324 178.5 L 322.5 181 L 291.5 171 L 289 168.5 L 290.5 167 Z " /><path fill="rgb(94,97,98)" stroke="rgb(94,97,98)" stroke-width="1" opacity="0.9450980392156862" d="M 402.5 377 L 409.5 377 L 410 379.5 L 414 394 L 421.5 396 Q 430.6 399.4 436.5 406 L 438.5 406 L 451.5 397 L 461 395 L 461 444.5 L 459.5 445 L 457.5 445 L 447.5 441 L 438.5 434 L 436.5 434 Q 428.2 443.3 414 446 L 410 463 L 407.5 464 L 395.5 460 L 382 448.5 L 376.5 442 Q 365.4 437.1 358 428.5 L 352 419.5 L 366.5 404 Q 376.6 399.6 383 391.5 L 387.5 386 Q 393.5 380 402.5 377 Z M 404 381 L 392 388 L 387 394 L 395 392 L 407 392 L 408 393 L 410 393 L 407 385 Q 409 379 404 381 Z M 396 396 Q 377 399 367 409 L 357 420 L 359 424 L 374 436 L 380 435 Q 385 431 385 422 L 389 424 Q 389 432 384 436 Q 385 438 383 437 L 381 440 L 395 444 L 407 444 L 419 441 Q 430 437 437 429 L 441 430 Q 446 437 456 440 L 457 440 L 457 400 Q 446 403 440 411 L 437 411 L 421 400 L 412 397 L 396 396 Z M 387 446 Q 390 453 399 457 L 407 459 L 410 447 L 407 448 Q 394 449 387 446 Z " /><path fill="rgb(94,97,98)" stroke="rgb(94,97,98)" stroke-width="1" opacity="0.9450980392156862" d="M 399.5 406 L 403 407.5 L 404 411.5 L 401.5 416 L 398 414.5 L 399 409.5 L 398 407.5 L 399.5 406 Z " /><path fill="rgb(94,97,98)" stroke="rgb(94,97,98)" stroke-width="1" opacity="0.9450980392156862" d="M 411 415 L 415 415 L 415 416.5 Q 417.2 417.8 416 422.5 Q 414.8 425.8 411 425 L 412 418.5 L 411 415 Z " /><path fill="rgb(94,97,98)" stroke="rgb(94,97,98)" stroke-width="1" opacity="0.9450980392156862" d="M 370 416 Q 373.8 415 375 417.5 L 373.5 420 L 370 418.5 L 370 416 Z " /><path fill="rgb(94,97,98)" stroke="rgb(94,97,98)" stroke-width="1" opacity="0.9450980392156862" d="M 400 424 L 404 425.5 L 405 431.5 Q 403.8 434.8 400 434 L 401 428.5 L 400 424 Z " /></svg>