<svg width="512" height="512" version="1.1" xmlns="http://www.w3.org/2000/svg" desc="Created with imagetracer.js version 1.2.6" ><path fill="rgb(0,0,0)" stroke="rgb(0,0,0)" stroke-width="1" opacity="0" d="M 0 0 L 512 0 L 512 512 L 0 512 L 0 0 Z M 190 10 Q 178 12 171 18 Q 164 22 161 30 L 160 31 L 154 31 L 148 33 L 143 36 Q 133 43 130 57 Q 129 71 136 79 Q 140 84 148 87 L 149 89 L 149 100 L 146 101 L 121 81 L 113 80 L 109 84 L 109 132 L 107 138 L 105 155 L 104 156 L 104 164 L 103 165 L 103 181 L 108 201 Q 115 217 128 228 L 111 261 L 98 297 L 91 327 L 89 346 L 88 347 L 88 356 L 87 357 L 87 395 L 88 396 L 88 405 L 90 412 L 90 417 L 96 438 L 100 447 L 112 465 L 123 475 L 121 482 Q 120 490 122 496 L 128 500 L 135 502 L 156 502 L 165 499 Q 169 496 171 490 L 171 481 L 172 480 L 230 480 L 230 493 L 233 498 L 245 502 L 266 502 L 275 499 L 279 493 Q 281 481 277 476 L 280 472 L 297 476 L 313 477 L 314 478 L 335 478 L 361 473 L 384 463 L 399 452 L 401 449 Q 403 450 402 447 L 404 447 L 416 431 L 420 423 L 425 405 L 425 385 L 422 372 Q 417 357 407 348 Q 401 340 390 337 Q 381 336 377 339 L 370 348 L 370 362 L 372 369 L 372 376 L 373 379 L 372 392 L 370 400 L 360 419 Q 349 434 327 439 L 309 439 L 304 438 L 309 422 L 312 406 L 312 397 L 313 396 L 313 357 L 312 356 L 310 332 L 302 297 L 290 264 Q 287 262 292 260 Q 294 261 293 258 L 314 242 L 327 247 L 343 247 L 352 245 Q 365 241 374 233 Q 391 220 396 196 Q 397 174 386 165 Q 378 158 367 155 L 349 156 L 339 159 L 320 171 Q 304 184 299 208 L 299 219 L 302 230 L 282 246 L 272 229 L 287 211 L 295 192 L 297 181 L 296 156 L 291 131 L 291 84 L 288 80 L 282 80 L 256 101 L 253 100 L 251 99 L 251 89 L 259 84 Q 267 77 270 65 Q 271 51 265 44 Q 258 32 241 31 L 234 21 L 224 14 L 216 11 L 211 10 L 190 10 Z " /><path fill="rgb(224,224,222)" stroke="rgb(224,224,222)" stroke-width="1" opacity="0.996078431372549" d="M 196.5 14 L 199 14.5 L 196.5 15 L 196.5 14 Z " /><path fill="rgb(224,224,222)" stroke="rgb(224,224,222)" stroke-width="1" opacity="0.996078431372549" d="M 201.5 14 L 204 14.5 L 201.5 15 L 201.5 14 Z " /><path fill="rgb(224,224,222)" stroke="rgb(224,224,222)" stroke-width="1" opacity="0.996078431372549" d="M 141.5 76 L 142.5 78 L 141.5 76 Z " /><path fill="rgb(224,224,222)" stroke="rgb(224,224,222)" stroke-width="1" opacity="0.996078431372549" d="M 113.5 87 L 114 131.5 L 113 131.5 L 113.5 87 Z " /><path fill="rgb(224,224,222)" stroke="rgb(224,224,222)" stroke-width="1" opacity="0.996078431372549" d="M 141.5 104 L 142.5 106 L 141.5 104 Z " /><path fill="rgb(224,224,222)" stroke="rgb(224,224,222)" stroke-width="1" opacity="0.996078431372549" d="M 238.5 149 L 237.5 151 L 238.5 149 Z " /><path fill="rgb(224,224,222)" stroke="rgb(224,224,222)" stroke-width="1" opacity="0.996078431372549" d="M 230.5 181 L 229.5 183 L 230.5 181 Z " /><path fill="rgb(224,224,222)" stroke="rgb(224,224,222)" stroke-width="1" opacity="0.996078431372549" d="M 199.5 188 L 202 189.5 L 200.5 189 L 198.5 190 L 199.5 188 Z " /><path fill="rgb(224,224,222)" stroke="rgb(224,224,222)" stroke-width="1" opacity="0.996078431372549" d="M 215.5 190 L 214.5 192 L 215.5 190 Z " /><path fill="rgb(224,224,222)" stroke="rgb(224,224,222)" stroke-width="1" opacity="0.996078431372549" d="M 229.5 195 L 230.5 197 L 229.5 195 Z " /><path fill="rgb(224,224,222)" stroke="rgb(224,224,222)" stroke-width="1" opacity="0.996078431372549" d="M 276.5 272 L 275.5 274 L 276.5 272 Z " /><path fill="rgb(224,224,222)" stroke="rgb(224,224,222)" stroke-width="1" opacity="0.996078431372549" d="M 230.5 276 L 227.5 280 L 230.5 276 Z " /><path fill="rgb(224,224,222)" stroke="rgb(224,224,222)" stroke-width="1" opacity="0.996078431372549" d="M 248.5 277 L 249.5 279 L 248.5 277 Z " /><path fill="rgb(224,224,222)" stroke="rgb(224,224,222)" stroke-width="1" opacity="0.996078431372549" d="M 234.5 279 L 233.5 281 L 234.5 279 Z " /><path fill="rgb(224,224,222)" stroke="rgb(224,224,222)" stroke-width="1" opacity="0.996078431372549" d="M 266.5 289 L 267.5 291 L 266.5 289 Z " /><path fill="rgb(224,224,222)" stroke="rgb(224,224,222)" stroke-width="1" opacity="0.996078431372549" d="M 261.5 291 L 262.5 293 L 261.5 291 Z " /><path fill="rgb(224,224,222)" stroke="rgb(224,224,222)" stroke-width="1" opacity="0.996078431372549" d="M 167.5 292 L 169.5 295 L 167.5 292 Z " /><path fill="rgb(224,224,222)" stroke="rgb(224,224,222)" stroke-width="1" opacity="0.996078431372549" d="M 257.5 320 L 258.5 322 L 257.5 320 Z " /><path fill="rgb(224,224,222)" stroke="rgb(224,224,222)" stroke-width="1" opacity="0.996078431372549" d="M 96.5 326 L 97 329.5 L 96 329.5 L 96.5 326 Z " /><path fill="rgb(224,224,222)" stroke="rgb(224,224,222)" stroke-width="1" opacity="0.996078431372549" d="M 303.5 326 L 304 328.5 L 303 328.5 L 303.5 326 Z " /><path fill="rgb(224,224,222)" stroke="rgb(224,224,222)" stroke-width="1" opacity="0.996078431372549" d="M 304.5 331 L 307 345.5 L 307 354.5 L 308 355.5 L 308 397.5 L 307 398.5 L 305 416.5 L 297 441.5 Q 289.6 458.1 276.5 469 L 274.5 470 Q 272 466.6 273 459.5 L 270.5 457 L 268 458.5 L 269 470.5 L 274 480.5 L 274 492.5 L 271.5 495 L 265.5 497 Q 257.3 495.3 253.5 498 L 252.5 497 L 240.5 496 L 235 491.5 L 234 482.5 L 235 481.5 L 235 471.5 L 237 462.5 Q 235.8 460 232 461 L 230 475 L 170.5 475 L 170 473.5 L 169 472.5 L 169 461.5 L 168 459 L 258.5 459 Q 271.7 456.2 279 447.5 Q 289 436.5 295 421.5 L 302 397.5 L 303 385.5 L 304 384.5 L 304 375.5 L 305 374.5 L 305 340.5 L 304 339.5 L 304.5 331 Z " /><path fill="rgb(224,224,222)" stroke="rgb(224,224,222)" stroke-width="1" opacity="0.996078431372549" d="M 95.5 332 L 96 341.5 L 95 342.5 L 95 372.5 L 96 373.5 L 96 383.5 L 97 384.5 L 99 401.5 L 105 421.5 Q 112.9 441.6 128.5 454 L 142.5 459 L 165 459.5 L 164 460.5 L 164 472.5 L 166 479.5 L 166 489.5 L 161.5 495 L 155.5 497 L 143.5 498 L 142.5 497 L 134.5 497 L 128.5 495 L 126 492.5 L 126 481.5 L 131 470.5 L 132 458 L 129.5 457 L 127 459.5 Q 128 466.5 125.5 470 L 115 460.5 L 104 443.5 L 95 416.5 L 93 405.5 L 93 396.5 L 92 395.5 L 92 356.5 L 93 355.5 L 93 346.5 L 95.5 332 Z " /><path fill="rgb(224,224,222)" stroke="rgb(224,224,222)" stroke-width="1" opacity="0.996078431372549" d="M 387.5 342 L 394.5 344 L 403 350 L 411 360.5 L 417 372.5 L 420 383.5 L 420 396.5 L 419 396.5 L 411.5 387 L 404 381.5 Q 406.5 380 405 374.5 Q 400.1 353.5 387.5 342 Z " /><path fill="rgb(224,224,222)" stroke="rgb(224,224,222)" stroke-width="1" opacity="0.996078431372549" d="M 191.5 343 L 190.5 345 L 191.5 343 Z " /><path fill="rgb(224,224,222)" stroke="rgb(224,224,222)" stroke-width="1" opacity="0.996078431372549" d="M 179.5 357 L 177.5 360 L 179.5 357 Z " /><path fill="rgb(224,224,222)" stroke="rgb(224,224,222)" stroke-width="1" opacity="0.996078431372549" d="M 137.5 358 L 136.5 360 L 137.5 358 Z " /><path fill="rgb(224,224,222)" stroke="rgb(224,224,222)" stroke-width="1" opacity="0.996078431372549" d="M 399.5 378 L 400.5 380 L 399.5 378 Z " /><path fill="rgb(224,224,222)" stroke="rgb(224,224,222)" stroke-width="1" opacity="0.996078431372549" d="M 109.5 381 L 108.5 383 L 109.5 381 Z " /><path fill="rgb(224,224,222)" stroke="rgb(224,224,222)" stroke-width="1" opacity="0.996078431372549" d="M 103.5 386 L 102.5 388 L 103.5 386 Z " /><path fill="rgb(224,224,222)" stroke="rgb(224,224,222)" stroke-width="1" opacity="0.996078431372549" d="M 396.5 396 L 397.5 398 L 396.5 396 Z " /><path fill="rgb(224,224,222)" stroke="rgb(224,224,222)" stroke-width="1" opacity="0.996078431372549" d="M 403.5 403 Q 411 411 414 423.5 Q 405.1 440.6 390.5 452 L 385 455 L 385 447.5 L 383 440.5 Q 398.1 427.1 404 404.5 L 403.5 403 Z " /><path fill="rgb(224,224,222)" stroke="rgb(224,224,222)" stroke-width="1" opacity="0.996078431372549" d="M 368.5 414 L 369.5 416 L 368.5 414 Z " /><path fill="rgb(224,224,222)" stroke="rgb(224,224,222)" stroke-width="1" opacity="0.996078431372549" d="M 372.5 419 L 373.5 421 L 372.5 419 Z " /><path fill="rgb(224,224,222)" stroke="rgb(224,224,222)" stroke-width="1" opacity="0.996078431372549" d="M 358.5 428 L 359.5 430 L 358.5 428 Z " /><path fill="rgb(224,224,222)" stroke="rgb(224,224,222)" stroke-width="1" opacity="0.996078431372549" d="M 360.5 431 L 361.5 433 L 360.5 431 Z " /><path fill="rgb(224,224,222)" stroke="rgb(224,224,222)" stroke-width="1" opacity="0.996078431372549" d="M 318.5 444 L 319 454.5 L 318 454.5 L 318.5 444 Z " /><path fill="rgb(224,224,222)" stroke="rgb(224,224,222)" stroke-width="1" opacity="0.996078431372549" d="M 335.5 445 L 336 452.5 L 335 452.5 L 335.5 445 Z " /><path fill="rgb(224,224,222)" stroke="rgb(224,224,222)" stroke-width="1" opacity="0.996078431372549" d="M 366.5 453 Q 369.1 452.2 368 455.5 L 369 457.5 L 368 458.5 L 368 465 L 348.5 471 L 330.5 473 L 331 471.5 L 332.5 466 L 334.5 466 Q 354.1 463.1 366.5 453 Z " /><path fill="rgb(224,224,222)" stroke="rgb(224,224,222)" stroke-width="1" opacity="0.996078431372549" d="M 317.5 457 L 318 459.5 L 317 459.5 L 317.5 457 Z " /><path fill="rgb(224,224,222)" stroke="rgb(224,224,222)" stroke-width="1" opacity="0.996078431372549" d="M 334.5 457 L 335 459.5 L 334 459.5 L 334.5 457 Z " /><path fill="rgb(224,224,222)" stroke="rgb(224,224,222)" stroke-width="1" opacity="0.996078431372549" d="M 287.5 468 L 291.5 469 L 313 469 L 311.5 472 L 296.5 471 L 287.5 469 L 287.5 468 Z " /><path fill="rgb(96,97,99)" stroke="rgb(96,97,99)" stroke-width="1" opacity="0.9568627450980393" d="M 191.5 10 L 209.5 10 L 214.5 12 L 216.5 12 L 223.5 14 L 234 21 L 239 31 Q 256.4 31.2 264 42.5 L 269 52.5 L 270 62.5 Q 267.5 78 256.5 85 L 251 87 L 251 98.5 L 252.5 100 L 255.5 101 L 281.5 80 L 287.5 80 L 291 83.5 L 291 130.5 L 296 155.5 L 297 180.5 L 295 191.5 L 287 210.5 L 272 228.5 L 281.5 246 L 302 229.5 L 299 218.5 L 299 207.5 Q 303.8 183.8 319.5 171 L 338.5 159 L 348.5 156 L 366.5 155 Q 378.5 157.5 386 164.5 Q 397.5 173.5 396 195.5 Q 390.5 220 373.5 233 Q 364.5 241 351.5 245 L 342.5 247 L 326.5 247 L 313.5 242 L 293 258 Q 294.1 260.7 291.5 260 Q 287.3 261.7 290 263.5 L 302 296.5 L 310 331.5 L 312 355.5 L 313 356.5 L 313 395.5 L 312 396.5 L 312 405.5 L 309 421.5 L 304 438 L 308.5 439 L 326.5 439 Q 348.8 434.3 360 418.5 L 370 399.5 L 372 391.5 L 373 378.5 L 372 375.5 L 372 368.5 L 370 361.5 L 370 347.5 L 376.5 339 Q 380.9 335.9 389.5 337 Q 400.6 339.9 407 347.5 Q 416.7 357.3 422 371.5 L 425 384.5 L 425 404.5 L 420 422.5 L 416 430.5 L 404 447 L 402 447 Q 403.1 449.7 400.5 449 L 399 452 L 383.5 463 L 360.5 473 L 334.5 478 L 313.5 478 L 312.5 477 L 296.5 476 L 279.5 472 L 277 475.5 Q 280.7 481.3 279 492.5 L 274.5 499 L 265.5 502 L 244.5 502 L 233 498 L 230 492.5 L 230 480 L 171.5 480 L 171 480.5 L 171 489.5 Q 169.5 496 164.5 499 L 155.5 502 L 134.5 502 L 127.5 500 L 122 495.5 Q 119.6 490.4 121 481.5 L 123 474.5 L 112 464.5 L 100 446.5 L 96 437.5 L 90 416.5 L 90 411.5 L 88 404.5 L 88 395.5 L 87 394.5 L 87 356.5 L 88 355.5 L 88 346.5 L 89 345.5 L 91 326.5 L 98 296.5 L 111 260.5 L 128 227.5 Q 115.3 216.7 108 200.5 L 103 180.5 L 103 164.5 L 104 163.5 L 104 155.5 L 105 154.5 L 107 137.5 L 109 131.5 L 109 83.5 L 112.5 80 L 120.5 81 L 145.5 101 L 150 98.5 L 150 87.5 L 148.5 87 L 137 78.5 L 131 66.5 L 131 53.5 Q 133.6 44.6 139.5 39 Q 146.8 31 161 31 L 167.5 21 Q 176.6 12.6 191.5 10 Z M 193 14 Q 180 16 172 23 L 165 31 L 164 35 L 153 36 L 145 40 Q 138 45 135 55 Q 133 68 139 75 Q 143 82 153 84 L 154 86 L 154 99 L 246 99 L 246 99 L 246 86 L 254 82 Q 262 77 265 67 Q 267 52 261 46 Q 254 34 236 35 L 233 28 Q 226 18 213 15 L 208 14 L 193 14 Z M 115 84 L 113 86 L 113 134 L 110 146 L 109 159 L 108 160 L 108 170 L 107 171 Q 108 200 123 217 L 137 228 L 140 232 L 139 233 L 133 230 L 116 261 L 103 296 L 95 330 L 93 351 L 92 352 L 92 364 L 91 365 L 92 402 L 97 427 Q 104 449 118 465 L 126 470 Q 129 466 128 458 L 132 460 L 131 469 Q 127 475 125 485 L 126 494 L 130 496 L 138 498 L 153 498 L 163 495 L 166 491 L 166 477 L 165 476 L 164 460 L 167 459 L 168 461 Q 167 466 169 468 L 169 475 L 170 475 L 231 475 L 232 463 L 236 461 L 235 476 L 234 477 L 234 491 L 235 493 L 240 496 L 248 498 L 263 498 L 273 495 L 275 490 L 275 484 L 269 469 L 268 460 L 272 458 L 273 469 L 275 470 L 279 468 Q 293 455 300 436 L 306 415 L 307 403 L 308 402 L 308 392 L 309 391 L 309 364 L 308 363 L 308 351 L 307 350 L 307 343 L 306 342 L 304 324 L 298 299 L 286 265 L 280 269 L 261 286 L 286 305 L 293 313 L 293 315 L 291 315 L 265 294 L 253 282 L 245 274 Q 238 273 237 277 L 224 292 L 225 297 L 231 301 Q 240 303 246 309 L 266 331 L 269 337 L 267 338 L 253 322 L 237 307 L 231 310 L 183 350 L 180 353 L 179 358 L 118 408 L 113 407 L 101 393 L 102 389 L 161 340 L 172 336 L 219 298 Q 221 297 220 292 L 226 282 Q 232 274 242 270 L 249 272 L 255 269 L 278 250 L 268 230 L 262 234 L 260 232 L 269 225 Q 281 214 288 199 L 291 190 L 292 177 L 293 176 L 291 152 L 287 134 L 287 86 L 286 84 L 281 86 L 256 106 L 249 103 L 152 103 L 145 106 L 120 86 L 115 84 Z M 352 160 Q 336 163 326 172 Q 310 183 304 205 Q 301 224 310 233 Q 317 241 331 243 L 341 243 L 353 240 Q 364 236 373 228 Q 388 216 392 193 Q 392 179 386 172 Q 380 163 369 160 L 352 160 Z M 305 233 L 253 274 L 259 282 L 306 243 L 310 238 L 305 233 Z M 222 300 L 171 342 L 178 349 L 230 306 L 224 300 L 222 300 Z M 384 341 L 379 343 L 374 351 L 374 360 L 377 372 L 377 388 L 374 402 Q 369 415 361 425 L 346 437 L 333 442 L 323 444 L 313 444 L 302 442 Q 295 457 284 468 L 290 470 L 300 472 L 307 472 L 308 473 L 340 473 L 359 469 Q 378 463 392 452 Q 405 442 413 427 L 419 412 L 421 401 L 421 387 L 419 378 Q 416 364 408 356 L 396 344 L 384 341 Z M 165 342 L 105 392 L 116 404 L 176 355 L 170 346 Q 169 342 165 342 Z " /><path fill="rgb(96,97,99)" stroke="rgb(96,97,99)" stroke-width="1" opacity="0.9568627450980393" d="M 157.5 149 Q 163.8 147.8 165 151.5 Q 166.3 157.8 162.5 159 Q 156.3 160.3 155 156.5 Q 153.8 150.3 157.5 149 Z " /><path fill="rgb(96,97,99)" stroke="rgb(96,97,99)" stroke-width="1" opacity="0.9568627450980393" d="M 239.5 149 Q 245.8 147.8 247 151.5 Q 248.3 157.8 244.5 159 Q 238.3 160.3 237 156.5 Q 235.8 150.3 239.5 149 Z " /><path fill="rgb(96,97,99)" stroke="rgb(96,97,99)" stroke-width="1" opacity="0.9568627450980393" d="M 196.5 158 Q 204.8 156.8 208 160.5 L 209 164.5 Q 207.8 172.3 202 175.5 L 202 183.5 L 205.5 187 L 213.5 187 L 215 188.5 L 214.5 191 L 204.5 191 L 199.5 188 L 195.5 191 L 185 191 L 186.5 187 Q 196 189 198 183.5 L 198 175.5 Q 191.9 172.1 191 163.5 L 193.5 159 L 196.5 158 Z " /><path fill="rgb(96,97,99)" stroke="rgb(96,97,99)" stroke-width="1" opacity="0.9568627450980393" d="M 142.5 175 L 146.5 175 L 170 182 L 168.5 186 L 143.5 179 L 141 176.5 L 142.5 175 Z " /><path fill="rgb(96,97,99)" stroke="rgb(96,97,99)" stroke-width="1" opacity="0.9568627450980393" d="M 253.5 175 Q 258 174 259 176.5 L 256.5 179 L 231.5 186 L 230 182 L 253.5 175 Z " /><path fill="rgb(96,97,99)" stroke="rgb(96,97,99)" stroke-width="1" opacity="0.9568627450980393" d="M 168.5 192 L 170 196 L 142.5 200 L 141 197.5 L 146.5 195 L 167.5 193 L 168.5 192 Z " /><path fill="rgb(96,97,99)" stroke="rgb(96,97,99)" stroke-width="1" opacity="0.9568627450980393" d="M 231.5 192 L 232.5 193 L 253.5 195 L 259 197.5 L 257.5 200 L 230 196 L 231.5 192 Z " /><path fill="rgb(96,97,99)" stroke="rgb(96,97,99)" stroke-width="1" opacity="0.9568627450980393" d="M 160.5 287 L 167.5 287 L 174 292.5 L 181 304.5 L 183 310.5 L 183 315.5 L 179.5 320 L 171.5 324 L 158.5 326 Q 140.9 333.9 127.5 346 L 125.5 346 L 124 343.5 L 149.5 326 L 161.5 321 L 171.5 320 L 179 314.5 Q 176.7 298.8 166.5 291 L 161.5 291 L 144.5 302 L 108.5 318 L 107 314 L 147.5 296 L 160.5 287 Z " /><path fill="rgb(234,234,234)" stroke="rgb(234,234,234)" stroke-width="1" opacity="0.996078431372549" d="M 140.5 82 L 141.5 84 L 140.5 82 Z " /><path fill="rgb(207,210,213)" stroke="rgb(207,210,213)" stroke-width="1" opacity="0.996078431372549" d="M 192.5 14 L 196 14.5 L 192.5 15 L 192.5 14 Z " /><path fill="rgb(207,210,213)" stroke="rgb(207,210,213)" stroke-width="1" opacity="0.996078431372549" d="M 204.5 14 L 208 14.5 L 204.5 15 L 204.5 14 Z " /><path fill="rgb(207,210,213)" stroke="rgb(207,210,213)" stroke-width="1" opacity="0.996078431372549" d="M 173.5 16 L 172.5 18 L 173.5 16 Z " /><path fill="rgb(207,210,213)" stroke="rgb(207,210,213)" stroke-width="1" opacity="0.996078431372549" d="M 228.5 17 L 229.5 19 L 228.5 17 Z " /><path fill="rgb(207,210,213)" stroke="rgb(207,210,213)" stroke-width="1" opacity="0.996078431372549" d="M 170.5 18 L 168.5 21 L 170.5 18 Z " /><path fill="rgb(207,210,213)" stroke="rgb(207,210,213)" stroke-width="1" opacity="0.996078431372549" d="M 175.5 20 L 174.5 22 L 175.5 20 Z " /><path fill="rgb(207,210,213)" stroke="rgb(207,210,213)" stroke-width="1" opacity="0.996078431372549" d="M 227.5 22 L 232.5 28 L 227.5 22 Z " /><path fill="rgb(207,210,213)" stroke="rgb(207,210,213)" stroke-width="1" opacity="0.996078431372549" d="M 165.5 23 L 163.5 26 L 165.5 23 Z " /><path fill="rgb(207,210,213)" stroke="rgb(207,210,213)" stroke-width="1" opacity="0.996078431372549" d="M 171.5 23 L 168.5 27 L 171.5 23 Z " /><path fill="rgb(207,210,213)" stroke="rgb(207,210,213)" stroke-width="1" opacity="0.996078431372549" d="M 236.5 25 L 237.5 27 L 236.5 25 Z " /><path fill="rgb(207,210,213)" stroke="rgb(207,210,213)" stroke-width="1" opacity="0.996078431372549" d="M 162.5 27 L 161.5 29 L 162.5 27 Z " /><path fill="rgb(207,210,213)" stroke="rgb(207,210,213)" stroke-width="1" opacity="0.996078431372549" d="M 166.5 29 L 165.5 31 L 166.5 29 Z " /><path fill="rgb(207,210,213)" stroke="rgb(207,210,213)" stroke-width="1" opacity="0.996078431372549" d="M 153.5 31 L 156 31.5 L 153.5 32 L 153.5 31 Z " /><path fill="rgb(207,210,213)" stroke="rgb(207,210,213)" stroke-width="1" opacity="0.996078431372549" d="M 145.5 34 L 144.5 36 L 145.5 34 Z " /><path fill="rgb(207,210,213)" stroke="rgb(207,210,213)" stroke-width="1" opacity="0.996078431372549" d="M 157.5 35 L 163 35.5 L 157.5 36 L 157.5 35 Z " /><path fill="rgb(207,210,213)" stroke="rgb(207,210,213)" stroke-width="1" opacity="0.996078431372549" d="M 237.5 35 L 243 35.5 L 237.5 36 L 237.5 35 Z " /><path fill="rgb(207,210,213)" stroke="rgb(207,210,213)" stroke-width="1" opacity="0.996078431372549" d="M 142.5 36 L 140.5 39 L 142.5 36 Z " /><path fill="rgb(207,210,213)" stroke="rgb(207,210,213)" stroke-width="1" opacity="0.996078431372549" d="M 147.5 38 L 146.5 40 L 147.5 38 Z " /><path fill="rgb(207,210,213)" stroke="rgb(207,210,213)" stroke-width="1" opacity="0.996078431372549" d="M 252.5 38 L 253.5 40 L 252.5 38 Z " /><path fill="rgb(207,210,213)" stroke="rgb(207,210,213)" stroke-width="1" opacity="0.996078431372549" d="M 144.5 40 L 140.5 45 L 144.5 40 Z " /><path fill="rgb(207,210,213)" stroke="rgb(207,210,213)" stroke-width="1" opacity="0.996078431372549" d="M 255.5 40 L 260.5 46 L 255.5 40 Z " /><path fill="rgb(207,210,213)" stroke="rgb(207,210,213)" stroke-width="1" opacity="0.996078431372549" d="M 137.5 41 L 135.5 44 L 137.5 41 Z " /><path fill="rgb(207,210,213)" stroke="rgb(207,210,213)" stroke-width="1" opacity="0.996078431372549" d="M 130.5 56 L 131 63.5 L 130 63.5 L 130.5 56 Z " /><path fill="rgb(207,210,213)" stroke="rgb(207,210,213)" stroke-width="1" opacity="0.996078431372549" d="M 137.5 71 L 138.5 73 L 137.5 71 Z " /><path fill="rgb(207,210,213)" stroke="rgb(207,210,213)" stroke-width="1" opacity="0.996078431372549" d="M 133.5 73 L 137 77.5 L 134 75.5 L 133.5 73 Z " /><path fill="rgb(207,210,213)" stroke="rgb(207,210,213)" stroke-width="1" opacity="0.996078431372549" d="M 261.5 73 L 260.5 75 L 261.5 73 Z " /><path fill="rgb(207,210,213)" stroke="rgb(207,210,213)" stroke-width="1" opacity="0.996078431372549" d="M 139.5 74 L 140.5 76 L 139.5 74 Z " /><path fill="rgb(207,210,213)" stroke="rgb(207,210,213)" stroke-width="1" opacity="0.996078431372549" d="M 143.5 78 L 145.5 81 L 143.5 78 Z " /><path fill="rgb(207,210,213)" stroke="rgb(207,210,213)" stroke-width="1" opacity="0.996078431372549" d="M 263.5 78 L 258.5 84 L 263.5 78 Z " /><path fill="rgb(207,210,213)" stroke="rgb(207,210,213)" stroke-width="1" opacity="0.996078431372549" d="M 138.5 80 L 139.5 82 L 138.5 80 Z " /><path fill="rgb(207,210,213)" stroke="rgb(207,210,213)" stroke-width="1" opacity="0.996078431372549" d="M 254.5 80 L 253.5 82 L 254.5 80 Z " /><path fill="rgb(207,210,213)" stroke="rgb(207,210,213)" stroke-width="1" opacity="0.996078431372549" d="M 141.5 82 L 143.5 85 L 141.5 82 Z " /><path fill="rgb(207,210,213)" stroke="rgb(207,210,213)" stroke-width="1" opacity="0.996078431372549" d="M 151.5 83 L 154 84.5 L 152.5 84 L 151.5 83 Z " /><path fill="rgb(207,210,213)" stroke="rgb(207,210,213)" stroke-width="1" opacity="0.996078431372549" d="M 114.5 84 L 114 85.5 L 113.5 87 L 113 85.5 L 114.5 84 Z " /><path fill="rgb(207,210,213)" stroke="rgb(207,210,213)" stroke-width="1" opacity="0.996078431372549" d="M 285.5 84 L 286.5 86 L 285.5 84 Z " /><path fill="rgb(207,210,213)" stroke="rgb(207,210,213)" stroke-width="1" opacity="0.996078431372549" d="M 119.5 86 L 120.5 88 L 119.5 86 Z " /><path fill="rgb(207,210,213)" stroke="rgb(207,210,213)" stroke-width="1" opacity="0.996078431372549" d="M 280.5 86 L 278.5 89 L 280.5 86 Z " /><path fill="rgb(207,210,213)" stroke="rgb(207,210,213)" stroke-width="1" opacity="0.996078431372549" d="M 149.5 87 L 150 98.5 L 149 98.5 L 149.5 87 Z " /><path fill="rgb(207,210,213)" stroke="rgb(207,210,213)" stroke-width="1" opacity="0.996078431372549" d="M 124.5 90 L 125.5 92 L 124.5 90 Z " /><path fill="rgb(207,210,213)" stroke="rgb(207,210,213)" stroke-width="1" opacity="0.996078431372549" d="M 275.5 90 L 273.5 93 L 275.5 90 Z " /><path fill="rgb(207,210,213)" stroke="rgb(207,210,213)" stroke-width="1" opacity="0.996078431372549" d="M 129.5 94 L 130.5 96 L 129.5 94 Z " /><path fill="rgb(207,210,213)" stroke="rgb(207,210,213)" stroke-width="1" opacity="0.996078431372549" d="M 270.5 94 L 268.5 97 L 270.5 94 Z " /><path fill="rgb(207,210,213)" stroke="rgb(207,210,213)" stroke-width="1" opacity="0.996078431372549" d="M 134.5 98 L 135.5 100 L 134.5 98 Z " /><path fill="rgb(207,210,213)" stroke="rgb(207,210,213)" stroke-width="1" opacity="0.996078431372549" d="M 154.5 98 L 246 98.5 L 154.5 99 L 154.5 98 Z " /><path fill="rgb(207,210,213)" stroke="rgb(207,210,213)" stroke-width="1" opacity="0.996078431372549" d="M 265.5 98 L 263.5 101 L 265.5 98 Z " /><path fill="rgb(207,210,213)" stroke="rgb(207,210,213)" stroke-width="1" opacity="0.996078431372549" d="M 139.5 102 L 140.5 104 L 139.5 102 Z " /><path fill="rgb(207,210,213)" stroke="rgb(207,210,213)" stroke-width="1" opacity="0.996078431372549" d="M 150.5 102 L 151.5 104 L 150.5 102 Z " /><path fill="rgb(207,210,213)" stroke="rgb(207,210,213)" stroke-width="1" opacity="0.996078431372549" d="M 249.5 102 L 248.5 104 L 249.5 102 Z " /><path fill="rgb(207,210,213)" stroke="rgb(207,210,213)" stroke-width="1" opacity="0.996078431372549" d="M 260.5 102 L 258.5 105 L 260.5 102 Z " /><path fill="rgb(207,210,213)" stroke="rgb(207,210,213)" stroke-width="1" opacity="0.996078431372549" d="M 112.5 134 L 113 136.5 L 112 136.5 L 112.5 134 Z " /><path fill="rgb(207,210,213)" stroke="rgb(207,210,213)" stroke-width="1" opacity="0.996078431372549" d="M 288.5 139 L 289 141.5 L 288 141.5 L 288.5 139 Z " /><path fill="rgb(207,210,213)" stroke="rgb(207,210,213)" stroke-width="1" opacity="0.996078431372549" d="M 110.5 145 L 111 147.5 L 110 147.5 L 110.5 145 Z " /><path fill="rgb(207,210,213)" stroke="rgb(207,210,213)" stroke-width="1" opacity="0.996078431372549" d="M 289.5 145 L 290 147.5 L 289 147.5 L 289.5 145 Z " /><path fill="rgb(207,210,213)" stroke="rgb(207,210,213)" stroke-width="1" opacity="0.996078431372549" d="M 158.5 148 L 162 148.5 L 158.5 149 L 158.5 148 Z " /><path fill="rgb(207,210,213)" stroke="rgb(207,210,213)" stroke-width="1" opacity="0.996078431372549" d="M 241.5 148 L 244 148.5 L 241.5 149 L 241.5 148 Z " /><path fill="rgb(207,210,213)" stroke="rgb(207,210,213)" stroke-width="1" opacity="0.996078431372549" d="M 156.5 149 L 155.5 151 L 156.5 149 Z " /><path fill="rgb(207,210,213)" stroke="rgb(207,210,213)" stroke-width="1" opacity="0.996078431372549" d="M 163.5 149 L 164.5 151 L 163.5 149 Z " /><path fill="rgb(207,210,213)" stroke="rgb(207,210,213)" stroke-width="1" opacity="0.996078431372549" d="M 245.5 149 L 246.5 151 L 245.5 149 Z " /><path fill="rgb(207,210,213)" stroke="rgb(207,210,213)" stroke-width="1" opacity="0.996078431372549" d="M 290.5 151 L 291 154.5 L 290 154.5 L 290.5 151 Z " /><path fill="rgb(207,210,213)" stroke="rgb(207,210,213)" stroke-width="1" opacity="0.996078431372549" d="M 109.5 152 L 110 154.5 L 109 154.5 L 109.5 152 Z " /><path fill="rgb(207,210,213)" stroke="rgb(207,210,213)" stroke-width="1" opacity="0.996078431372549" d="M 154.5 152 L 155 155.5 L 154 155.5 L 154.5 152 Z " /><path fill="rgb(207,210,213)" stroke="rgb(207,210,213)" stroke-width="1" opacity="0.996078431372549" d="M 165.5 152 L 166 155.5 L 165 155.5 L 165.5 152 Z " /><path fill="rgb(207,210,213)" stroke="rgb(207,210,213)" stroke-width="1" opacity="0.996078431372549" d="M 247.5 152 L 248 155.5 L 247 155.5 L 247.5 152 Z " /><path fill="rgb(207,210,213)" stroke="rgb(207,210,213)" stroke-width="1" opacity="0.996078431372549" d="M 236.5 153 L 237 155.5 L 236 155.5 L 236.5 153 Z " /><path fill="rgb(207,210,213)" stroke="rgb(207,210,213)" stroke-width="1" opacity="0.996078431372549" d="M 155.5 157 L 156.5 159 L 155.5 157 Z " /><path fill="rgb(207,210,213)" stroke="rgb(207,210,213)" stroke-width="1" opacity="0.996078431372549" d="M 164.5 157 L 163.5 159 L 164.5 157 Z " /><path fill="rgb(207,210,213)" stroke="rgb(207,210,213)" stroke-width="1" opacity="0.996078431372549" d="M 237.5 157 L 238.5 159 L 237.5 157 Z " /><path fill="rgb(207,210,213)" stroke="rgb(207,210,213)" stroke-width="1" opacity="0.996078431372549" d="M 246.5 157 L 245.5 159 L 246.5 157 Z " /><path fill="rgb(207,210,213)" stroke="rgb(207,210,213)" stroke-width="1" opacity="0.996078431372549" d="M 108.5 159 L 109 162.5 L 108 162.5 L 108.5 159 Z " /><path fill="rgb(207,210,213)" stroke="rgb(207,210,213)" stroke-width="1" opacity="0.996078431372549" d="M 158.5 159 L 162 159.5 L 158.5 160 L 158.5 159 Z " /><path fill="rgb(207,210,213)" stroke="rgb(207,210,213)" stroke-width="1" opacity="0.996078431372549" d="M 240.5 159 L 244 159.5 L 240.5 160 L 240.5 159 Z " /><path fill="rgb(207,210,213)" stroke="rgb(207,210,213)" stroke-width="1" opacity="0.996078431372549" d="M 291.5 159 L 292 162.5 L 291 162.5 L 291.5 159 Z " /><path fill="rgb(207,210,213)" stroke="rgb(207,210,213)" stroke-width="1" opacity="0.996078431372549" d="M 351.5 160 L 368.5 160 Q 380 163 386 171.5 Q 392 179 392 192.5 Q 387.6 215.6 372.5 228 Q 364 235.5 352.5 240 L 340.5 243 L 330.5 243 Q 317.2 240.8 310 232.5 Q 301.3 224.2 304 204.5 Q 309.8 183.3 325.5 172 Q 335.7 163.2 351.5 160 Z " /><path fill="rgb(207,210,213)" stroke="rgb(207,210,213)" stroke-width="1" opacity="0.996078431372549" d="M 292.5 169 L 293 175.5 L 292 175.5 L 292.5 169 Z " /><path fill="rgb(207,210,213)" stroke="rgb(207,210,213)" stroke-width="1" opacity="0.996078431372549" d="M 107.5 170 L 108 175.5 L 107 175.5 L 107.5 170 Z " /><path fill="rgb(207,210,213)" stroke="rgb(207,210,213)" stroke-width="1" opacity="0.996078431372549" d="M 206.5 171 L 203.5 175 L 206.5 171 Z " /><path fill="rgb(207,210,213)" stroke="rgb(207,210,213)" stroke-width="1" opacity="0.996078431372549" d="M 194.5 172 L 196.5 175 L 194.5 172 Z " /><path fill="rgb(207,210,213)" stroke="rgb(207,210,213)" stroke-width="1" opacity="0.996078431372549" d="M 142.5 174 L 145 174.5 L 141.5 176 L 142.5 174 Z " /><path fill="rgb(207,210,213)" stroke="rgb(207,210,213)" stroke-width="1" opacity="0.996078431372549" d="M 255.5 174 L 259 175.5 L 257.5 175 Q 254.5 175.5 255.5 174 Z " /><path fill="rgb(207,210,213)" stroke="rgb(207,210,213)" stroke-width="1" opacity="0.996078431372549" d="M 141.5 177 L 142.5 179 L 141.5 177 Z " /><path fill="rgb(207,210,213)" stroke="rgb(207,210,213)" stroke-width="1" opacity="0.996078431372549" d="M 258.5 177 L 257.5 179 L 258.5 177 Z " /><path fill="rgb(207,210,213)" stroke="rgb(207,210,213)" stroke-width="1" opacity="0.996078431372549" d="M 108.5 182 L 109 184.5 L 108 184.5 L 108.5 182 Z " /><path fill="rgb(207,210,213)" stroke="rgb(207,210,213)" stroke-width="1" opacity="0.996078431372549" d="M 170.5 182 L 171 184.5 L 169 185.5 L 170.5 182 Z " /><path fill="rgb(207,210,213)" stroke="rgb(207,210,213)" stroke-width="1" opacity="0.996078431372549" d="M 291.5 182 L 292 184.5 L 291 184.5 L 291.5 182 Z " /><path fill="rgb(207,210,213)" stroke="rgb(207,210,213)" stroke-width="1" opacity="0.996078431372549" d="M 229.5 183 L 231 185.5 L 229 184.5 L 229.5 183 Z " /><path fill="rgb(207,210,213)" stroke="rgb(207,210,213)" stroke-width="1" opacity="0.996078431372549" d="M 185.5 187 L 185 188.5 L 184.5 191 L 184 188.5 L 185.5 187 Z " /><path fill="rgb(207,210,213)" stroke="rgb(207,210,213)" stroke-width="1" opacity="0.996078431372549" d="M 214.5 187 L 216 189.5 L 215 189.5 L 214.5 187 Z " /><path fill="rgb(207,210,213)" stroke="rgb(207,210,213)" stroke-width="1" opacity="0.996078431372549" d="M 186.5 191 L 194 191.5 L 186.5 192 L 186.5 191 Z " /><path fill="rgb(207,210,213)" stroke="rgb(207,210,213)" stroke-width="1" opacity="0.996078431372549" d="M 206.5 191 L 214 191.5 L 206.5 192 L 206.5 191 Z " /><path fill="rgb(207,210,213)" stroke="rgb(207,210,213)" stroke-width="1" opacity="0.996078431372549" d="M 164.5 192 L 168 192.5 L 164.5 193 L 164.5 192 Z " /><path fill="rgb(207,210,213)" stroke="rgb(207,210,213)" stroke-width="1" opacity="0.996078431372549" d="M 169.5 192 L 171 195.5 L 170 195.5 L 169.5 192 Z " /><path fill="rgb(207,210,213)" stroke="rgb(207,210,213)" stroke-width="1" opacity="0.996078431372549" d="M 230.5 192 L 230 193.5 L 229.5 195 L 229 193.5 L 230.5 192 Z " /><path fill="rgb(207,210,213)" stroke="rgb(207,210,213)" stroke-width="1" opacity="0.996078431372549" d="M 232.5 192 L 236 192.5 L 232.5 193 L 232.5 192 Z " /><path fill="rgb(207,210,213)" stroke="rgb(207,210,213)" stroke-width="1" opacity="0.996078431372549" d="M 157.5 193 L 160 193.5 L 157.5 194 L 157.5 193 Z " /><path fill="rgb(207,210,213)" stroke="rgb(207,210,213)" stroke-width="1" opacity="0.996078431372549" d="M 240.5 193 L 243 193.5 L 240.5 194 L 240.5 193 Z " /><path fill="rgb(207,210,213)" stroke="rgb(207,210,213)" stroke-width="1" opacity="0.996078431372549" d="M 150.5 194 L 153 194.5 L 150.5 195 L 150.5 194 Z " /><path fill="rgb(207,210,213)" stroke="rgb(207,210,213)" stroke-width="1" opacity="0.996078431372549" d="M 247.5 194 L 250 194.5 L 247.5 195 L 247.5 194 Z " /><path fill="rgb(207,210,213)" stroke="rgb(207,210,213)" stroke-width="1" opacity="0.996078431372549" d="M 143.5 195 L 146 195.5 L 143.5 196 L 143.5 195 Z " /><path fill="rgb(207,210,213)" stroke="rgb(207,210,213)" stroke-width="1" opacity="0.996078431372549" d="M 254.5 195 L 257 195.5 L 254.5 196 L 254.5 195 Z " /><path fill="rgb(207,210,213)" stroke="rgb(207,210,213)" stroke-width="1" opacity="0.996078431372549" d="M 160.5 197 L 163 197.5 L 160.5 198 L 160.5 197 Z " /><path fill="rgb(207,210,213)" stroke="rgb(207,210,213)" stroke-width="1" opacity="0.996078431372549" d="M 237.5 197 L 240 197.5 L 237.5 198 L 237.5 197 Z " /><path fill="rgb(207,210,213)" stroke="rgb(207,210,213)" stroke-width="1" opacity="0.996078431372549" d="M 153.5 198 L 156 198.5 L 153.5 199 L 153.5 198 Z " /><path fill="rgb(207,210,213)" stroke="rgb(207,210,213)" stroke-width="1" opacity="0.996078431372549" d="M 244.5 198 L 247 198.5 L 244.5 199 L 244.5 198 Z " /><path fill="rgb(207,210,213)" stroke="rgb(207,210,213)" stroke-width="1" opacity="0.996078431372549" d="M 146.5 199 L 149 199.5 L 146.5 200 L 146.5 199 Z " /><path fill="rgb(207,210,213)" stroke="rgb(207,210,213)" stroke-width="1" opacity="0.996078431372549" d="M 251.5 199 L 254 199.5 L 251.5 200 L 251.5 199 Z " /><path fill="rgb(207,210,213)" stroke="rgb(207,210,213)" stroke-width="1" opacity="0.996078431372549" d="M 116.5 206 L 117.5 208 L 116.5 206 Z " /><path fill="rgb(207,210,213)" stroke="rgb(207,210,213)" stroke-width="1" opacity="0.996078431372549" d="M 120.5 212 L 121.5 214 L 120.5 212 Z " /><path fill="rgb(207,210,213)" stroke="rgb(207,210,213)" stroke-width="1" opacity="0.996078431372549" d="M 279.5 212 L 278.5 214 L 279.5 212 Z " /><path fill="rgb(207,210,213)" stroke="rgb(207,210,213)" stroke-width="1" opacity="0.996078431372549" d="M 123.5 216 L 131.5 225 L 123.5 216 Z " /><path fill="rgb(207,210,213)" stroke="rgb(207,210,213)" stroke-width="1" opacity="0.996078431372549" d="M 276.5 216 L 268.5 225 L 276.5 216 Z " /><path fill="rgb(207,210,213)" stroke="rgb(207,210,213)" stroke-width="1" opacity="0.996078431372549" d="M 134.5 226 L 135.5 228 L 134.5 226 Z " /><path fill="rgb(207,210,213)" stroke="rgb(207,210,213)" stroke-width="1" opacity="0.996078431372549" d="M 265.5 226 L 264.5 228 L 265.5 226 Z " /><path fill="rgb(207,210,213)" stroke="rgb(207,210,213)" stroke-width="1" opacity="0.996078431372549" d="M 138.5 229 L 139.5 231 L 138.5 229 Z " /><path fill="rgb(207,210,213)" stroke="rgb(207,210,213)" stroke-width="1" opacity="0.996078431372549" d="M 261.5 229 L 260.5 231 L 261.5 229 Z " /><path fill="rgb(207,210,213)" stroke="rgb(207,210,213)" stroke-width="1" opacity="0.996078431372549" d="M 132.5 230 L 133.5 232 L 131 231.5 L 132.5 230 Z " /><path fill="rgb(207,210,213)" stroke="rgb(207,210,213)" stroke-width="1" opacity="0.996078431372549" d="M 267.5 230 L 268.5 232 L 266 231.5 L 267.5 230 Z " /><path fill="rgb(207,210,213)" stroke="rgb(207,210,213)" stroke-width="1" opacity="0.996078431372549" d="M 135.5 232 L 138.5 233 L 140 232.5 L 136.5 234 L 135.5 232 Z " /><path fill="rgb(207,210,213)" stroke="rgb(207,210,213)" stroke-width="1" opacity="0.996078431372549" d="M 264.5 232 L 263.5 234 L 264.5 232 Z " /><path fill="rgb(207,210,213)" stroke="rgb(207,210,213)" stroke-width="1" opacity="0.996078431372549" d="M 269.5 233 L 270.5 235 L 269.5 233 Z " /><path fill="rgb(207,210,213)" stroke="rgb(207,210,213)" stroke-width="1" opacity="0.996078431372549" d="M 304.5 233 L 310 237.5 L 305.5 243 L 258.5 282 L 253 274 L 304.5 233 Z " /><path fill="rgb(207,210,213)" stroke="rgb(207,210,213)" stroke-width="1" opacity="0.996078431372549" d="M 277.5 249 L 275.5 252 L 277.5 249 Z " /><path fill="rgb(207,210,213)" stroke="rgb(207,210,213)" stroke-width="1" opacity="0.996078431372549" d="M 272.5 253 L 270.5 256 L 272.5 253 Z " /><path fill="rgb(207,210,213)" stroke="rgb(207,210,213)" stroke-width="1" opacity="0.996078431372549" d="M 267.5 257 L 265.5 260 L 267.5 257 Z " /><path fill="rgb(207,210,213)" stroke="rgb(207,210,213)" stroke-width="1" opacity="0.996078431372549" d="M 261.5 262 L 260.5 264 L 261.5 262 Z " /><path fill="rgb(207,210,213)" stroke="rgb(207,210,213)" stroke-width="1" opacity="0.996078431372549" d="M 284.5 265 L 286 265.5 L 282.5 268 L 284.5 265 Z " /><path fill="rgb(207,210,213)" stroke="rgb(207,210,213)" stroke-width="1" opacity="0.996078431372549" d="M 256.5 266 L 254.5 269 L 256.5 266 Z " /><path fill="rgb(207,210,213)" stroke="rgb(207,210,213)" stroke-width="1" opacity="0.996078431372549" d="M 279.5 269 L 277.5 272 L 279.5 269 Z " /><path fill="rgb(207,210,213)" stroke="rgb(207,210,213)" stroke-width="1" opacity="0.996078431372549" d="M 251.5 270 L 250.5 272 L 251.5 270 Z " /><path fill="rgb(207,210,213)" stroke="rgb(207,210,213)" stroke-width="1" opacity="0.996078431372549" d="M 234.5 273 L 233.5 275 L 234.5 273 Z " /><path fill="rgb(207,210,213)" stroke="rgb(207,210,213)" stroke-width="1" opacity="0.996078431372549" d="M 241.5 274 L 245 274.5 L 241.5 275 L 241.5 274 Z " /><path fill="rgb(207,210,213)" stroke="rgb(207,210,213)" stroke-width="1" opacity="0.996078431372549" d="M 246.5 275 L 247.5 277 L 246.5 275 Z " /><path fill="rgb(207,210,213)" stroke="rgb(207,210,213)" stroke-width="1" opacity="0.996078431372549" d="M 272.5 275 L 270.5 278 L 272.5 275 Z " /><path fill="rgb(207,210,213)" stroke="rgb(207,210,213)" stroke-width="1" opacity="0.996078431372549" d="M 236.5 277 L 235.5 279 L 236.5 277 Z " /><path fill="rgb(207,210,213)" stroke="rgb(207,210,213)" stroke-width="1" opacity="0.996078431372549" d="M 250.5 279 L 252.5 282 L 250.5 279 Z " /><path fill="rgb(207,210,213)" stroke="rgb(207,210,213)" stroke-width="1" opacity="0.996078431372549" d="M 266.5 280 L 264.5 283 L 266.5 280 Z " /><path fill="rgb(207,210,213)" stroke="rgb(207,210,213)" stroke-width="1" opacity="0.996078431372549" d="M 225.5 282 L 224.5 284 L 225.5 282 Z " /><path fill="rgb(207,210,213)" stroke="rgb(207,210,213)" stroke-width="1" opacity="0.996078431372549" d="M 229.5 284 L 227.5 287 L 229.5 284 Z " /><path fill="rgb(207,210,213)" stroke="rgb(207,210,213)" stroke-width="1" opacity="0.996078431372549" d="M 254.5 284 L 260.5 291 L 254.5 284 Z " /><path fill="rgb(207,210,213)" stroke="rgb(207,210,213)" stroke-width="1" opacity="0.996078431372549" d="M 261.5 285 L 262.5 287 L 261.5 285 Z " /><path fill="rgb(207,210,213)" stroke="rgb(207,210,213)" stroke-width="1" opacity="0.996078431372549" d="M 162.5 286 L 166 286.5 L 162.5 287 L 162.5 286 Z " /><path fill="rgb(207,210,213)" stroke="rgb(207,210,213)" stroke-width="1" opacity="0.996078431372549" d="M 168.5 287 L 169.5 289 L 168.5 287 Z " /><path fill="rgb(207,210,213)" stroke="rgb(207,210,213)" stroke-width="1" opacity="0.996078431372549" d="M 226.5 288 L 225.5 290 L 226.5 288 Z " /><path fill="rgb(207,210,213)" stroke="rgb(207,210,213)" stroke-width="1" opacity="0.996078431372549" d="M 152.5 291 L 151.5 293 L 152.5 291 Z " /><path fill="rgb(207,210,213)" stroke="rgb(207,210,213)" stroke-width="1" opacity="0.996078431372549" d="M 268.5 291 L 270.5 294 L 268.5 291 Z " /><path fill="rgb(207,210,213)" stroke="rgb(207,210,213)" stroke-width="1" opacity="0.996078431372549" d="M 174.5 293 L 175.5 295 L 174.5 293 Z " /><path fill="rgb(207,210,213)" stroke="rgb(207,210,213)" stroke-width="1" opacity="0.996078431372549" d="M 148.5 294 L 147.5 296 L 148.5 294 Z " /><path fill="rgb(207,210,213)" stroke="rgb(207,210,213)" stroke-width="1" opacity="0.996078431372549" d="M 265.5 294 L 267.5 297 L 265.5 294 Z " /><path fill="rgb(207,210,213)" stroke="rgb(207,210,213)" stroke-width="1" opacity="0.996078431372549" d="M 154.5 295 L 153.5 297 L 154.5 295 Z " /><path fill="rgb(207,210,213)" stroke="rgb(207,210,213)" stroke-width="1" opacity="0.996078431372549" d="M 170.5 295 L 171.5 297 L 170.5 295 Z " /><path fill="rgb(207,210,213)" stroke="rgb(207,210,213)" stroke-width="1" opacity="0.996078431372549" d="M 273.5 295 L 274.5 297 L 273.5 295 Z " /><path fill="rgb(207,210,213)" stroke="rgb(207,210,213)" stroke-width="1" opacity="0.996078431372549" d="M 176.5 296 L 177.5 298 L 176.5 296 Z " /><path fill="rgb(207,210,213)" stroke="rgb(207,210,213)" stroke-width="1" opacity="0.996078431372549" d="M 219.5 296 L 218.5 298 L 219.5 296 Z " /><path fill="rgb(207,210,213)" stroke="rgb(207,210,213)" stroke-width="1" opacity="0.996078431372549" d="M 225.5 296 L 227.5 299 L 225.5 296 Z " /><path fill="rgb(207,210,213)" stroke="rgb(207,210,213)" stroke-width="1" opacity="0.996078431372549" d="M 215.5 299 L 213.5 302 L 215.5 299 Z " /><path fill="rgb(207,210,213)" stroke="rgb(207,210,213)" stroke-width="1" opacity="0.996078431372549" d="M 271.5 299 L 272.5 301 L 271.5 299 Z " /><path fill="rgb(207,210,213)" stroke="rgb(207,210,213)" stroke-width="1" opacity="0.996078431372549" d="M 278.5 299 L 279.5 301 L 278.5 299 Z " /><path fill="rgb(207,210,213)" stroke="rgb(207,210,213)" stroke-width="1" opacity="0.996078431372549" d="M 146.5 300 L 145.5 302 L 146.5 300 Z " /><path fill="rgb(207,210,213)" stroke="rgb(207,210,213)" stroke-width="1" opacity="0.996078431372549" d="M 221.5 300 L 223.5 300 L 230 305.5 L 177.5 349 L 171 341.5 L 221.5 300 Z " /><path fill="rgb(207,210,213)" stroke="rgb(207,210,213)" stroke-width="1" opacity="0.996078431372549" d="M 275.5 302 L 277.5 305 L 275.5 302 Z " /><path fill="rgb(207,210,213)" stroke="rgb(207,210,213)" stroke-width="1" opacity="0.996078431372549" d="M 283.5 303 L 284.5 305 L 283.5 303 Z " /><path fill="rgb(207,210,213)" stroke="rgb(207,210,213)" stroke-width="1" opacity="0.996078431372549" d="M 209.5 304 L 208.5 306 L 209.5 304 Z " /><path fill="rgb(207,210,213)" stroke="rgb(207,210,213)" stroke-width="1" opacity="0.996078431372549" d="M 239.5 304 L 240.5 306 L 239.5 304 Z " /><path fill="rgb(207,210,213)" stroke="rgb(207,210,213)" stroke-width="1" opacity="0.996078431372549" d="M 280.5 306 L 282.5 309 L 280.5 306 Z " /><path fill="rgb(207,210,213)" stroke="rgb(207,210,213)" stroke-width="1" opacity="0.996078431372549" d="M 234.5 307 L 238 308.5 L 236.5 308 Q 233.5 308.5 234.5 307 Z " /><path fill="rgb(207,210,213)" stroke="rgb(207,210,213)" stroke-width="1" opacity="0.996078431372549" d="M 243.5 307 L 244.5 309 L 243.5 307 Z " /><path fill="rgb(207,210,213)" stroke="rgb(207,210,213)" stroke-width="1" opacity="0.996078431372549" d="M 288.5 307 L 294 313.5 L 293 313.5 L 288.5 307 Z " /><path fill="rgb(207,210,213)" stroke="rgb(207,210,213)" stroke-width="1" opacity="0.996078431372549" d="M 204.5 308 L 202.5 311 L 204.5 308 Z " /><path fill="rgb(207,210,213)" stroke="rgb(207,210,213)" stroke-width="1" opacity="0.996078431372549" d="M 178.5 310 L 179 314.5 L 178 314.5 L 178.5 310 Z " /><path fill="rgb(207,210,213)" stroke="rgb(207,210,213)" stroke-width="1" opacity="0.996078431372549" d="M 230.5 310 L 228.5 313 L 230.5 310 Z " /><path fill="rgb(207,210,213)" stroke="rgb(207,210,213)" stroke-width="1" opacity="0.996078431372549" d="M 240.5 310 L 242.5 313 L 240.5 310 Z " /><path fill="rgb(207,210,213)" stroke="rgb(207,210,213)" stroke-width="1" opacity="0.996078431372549" d="M 248.5 311 L 256.5 320 L 248.5 311 Z " /><path fill="rgb(207,210,213)" stroke="rgb(207,210,213)" stroke-width="1" opacity="0.996078431372549" d="M 286.5 311 L 289.5 315 L 286.5 311 Z " /><path fill="rgb(207,210,213)" stroke="rgb(207,210,213)" stroke-width="1" opacity="0.996078431372549" d="M 199.5 312 L 197.5 315 L 199.5 312 Z " /><path fill="rgb(207,210,213)" stroke="rgb(207,210,213)" stroke-width="1" opacity="0.996078431372549" d="M 224.5 315 L 222.5 318 L 224.5 315 Z " /><path fill="rgb(207,210,213)" stroke="rgb(207,210,213)" stroke-width="1" opacity="0.996078431372549" d="M 194.5 316 L 192.5 319 L 194.5 316 Z " /><path fill="rgb(207,210,213)" stroke="rgb(207,210,213)" stroke-width="1" opacity="0.996078431372549" d="M 247.5 316 L 252.5 322 L 247.5 316 Z " /><path fill="rgb(207,210,213)" stroke="rgb(207,210,213)" stroke-width="1" opacity="0.996078431372549" d="M 162.5 320 L 168 320.5 L 162.5 321 L 162.5 320 Z " /><path fill="rgb(207,210,213)" stroke="rgb(207,210,213)" stroke-width="1" opacity="0.996078431372549" d="M 178.5 320 L 177.5 322 L 178.5 320 Z " /><path fill="rgb(207,210,213)" stroke="rgb(207,210,213)" stroke-width="1" opacity="0.996078431372549" d="M 189.5 320 L 187.5 323 L 189.5 320 Z " /><path fill="rgb(207,210,213)" stroke="rgb(207,210,213)" stroke-width="1" opacity="0.996078431372549" d="M 218.5 320 L 216.5 323 L 218.5 320 Z " /><path fill="rgb(207,210,213)" stroke="rgb(207,210,213)" stroke-width="1" opacity="0.996078431372549" d="M 259.5 323 L 261.5 326 L 259.5 323 Z " /><path fill="rgb(207,210,213)" stroke="rgb(207,210,213)" stroke-width="1" opacity="0.996078431372549" d="M 303.5 323 L 304 325.5 L 303 325.5 L 303.5 323 Z " /><path fill="rgb(207,210,213)" stroke="rgb(207,210,213)" stroke-width="1" opacity="0.996078431372549" d="M 167.5 324 L 170 324.5 L 167.5 325 L 167.5 324 Z " /><path fill="rgb(207,210,213)" stroke="rgb(207,210,213)" stroke-width="1" opacity="0.996078431372549" d="M 183.5 325 L 182.5 327 L 183.5 325 Z " /><path fill="rgb(207,210,213)" stroke="rgb(207,210,213)" stroke-width="1" opacity="0.996078431372549" d="M 212.5 325 L 210.5 328 L 212.5 325 Z " /><path fill="rgb(207,210,213)" stroke="rgb(207,210,213)" stroke-width="1" opacity="0.996078431372549" d="M 255.5 325 L 257.5 328 L 255.5 325 Z " /><path fill="rgb(207,210,213)" stroke="rgb(207,210,213)" stroke-width="1" opacity="0.996078431372549" d="M 95.5 329 L 96 331.5 L 95 331.5 L 95.5 329 Z " /><path fill="rgb(207,210,213)" stroke="rgb(207,210,213)" stroke-width="1" opacity="0.996078431372549" d="M 178.5 329 L 176.5 332 L 178.5 329 Z " /><path fill="rgb(207,210,213)" stroke="rgb(207,210,213)" stroke-width="1" opacity="0.996078431372549" d="M 206.5 330 L 204.5 333 L 206.5 330 Z " /><path fill="rgb(207,210,213)" stroke="rgb(207,210,213)" stroke-width="1" opacity="0.996078431372549" d="M 259.5 330 L 263.5 335 L 259.5 330 Z " /><path fill="rgb(207,210,213)" stroke="rgb(207,210,213)" stroke-width="1" opacity="0.996078431372549" d="M 266.5 331 L 267.5 333 L 266.5 331 Z " /><path fill="rgb(207,210,213)" stroke="rgb(207,210,213)" stroke-width="1" opacity="0.996078431372549" d="M 173.5 333 L 171.5 336 L 173.5 333 Z " /><path fill="rgb(207,210,213)" stroke="rgb(207,210,213)" stroke-width="1" opacity="0.996078431372549" d="M 143.5 334 L 142.5 336 L 143.5 334 Z " /><path fill="rgb(207,210,213)" stroke="rgb(207,210,213)" stroke-width="1" opacity="0.996078431372549" d="M 94.5 335 L 95 337.5 L 94 337.5 L 94.5 335 Z " /><path fill="rgb(207,210,213)" stroke="rgb(207,210,213)" stroke-width="1" opacity="0.996078431372549" d="M 134.5 335 L 133.5 337 L 134.5 335 Z " /><path fill="rgb(207,210,213)" stroke="rgb(207,210,213)" stroke-width="1" opacity="0.996078431372549" d="M 200.5 335 L 198.5 338 L 200.5 335 Z " /><path fill="rgb(207,210,213)" stroke="rgb(207,210,213)" stroke-width="1" opacity="0.996078431372549" d="M 305.5 335 L 306 337.5 L 305 337.5 L 305.5 335 Z " /><path fill="rgb(207,210,213)" stroke="rgb(207,210,213)" stroke-width="1" opacity="0.996078431372549" d="M 140.5 336 L 139.5 338 L 140.5 336 Z " /><path fill="rgb(207,210,213)" stroke="rgb(207,210,213)" stroke-width="1" opacity="0.996078431372549" d="M 164.5 337 L 167 337.5 L 164.5 338 L 164.5 337 Z " /><path fill="rgb(207,210,213)" stroke="rgb(207,210,213)" stroke-width="1" opacity="0.996078431372549" d="M 130.5 338 L 129.5 340 L 130.5 338 Z " /><path fill="rgb(207,210,213)" stroke="rgb(207,210,213)" stroke-width="1" opacity="0.996078431372549" d="M 162.5 338 L 161.5 340 L 162.5 338 Z " /><path fill="rgb(207,210,213)" stroke="rgb(207,210,213)" stroke-width="1" opacity="0.996078431372549" d="M 136.5 339 L 135.5 341 L 136.5 339 Z " /><path fill="rgb(207,210,213)" stroke="rgb(207,210,213)" stroke-width="1" opacity="0.996078431372549" d="M 194.5 340 L 192.5 343 L 194.5 340 Z " /><path fill="rgb(207,210,213)" stroke="rgb(207,210,213)" stroke-width="1" opacity="0.996078431372549" d="M 158.5 341 L 156.5 344 L 158.5 341 Z " /><path fill="rgb(207,210,213)" stroke="rgb(207,210,213)" stroke-width="1" opacity="0.996078431372549" d="M 383.5 341 L 386 341.5 L 383.5 342 L 383.5 341 Z " /><path fill="rgb(207,210,213)" stroke="rgb(207,210,213)" stroke-width="1" opacity="0.996078431372549" d="M 93.5 342 L 94 345.5 L 93 345.5 L 93.5 342 Z " /><path fill="rgb(207,210,213)" stroke="rgb(207,210,213)" stroke-width="1" opacity="0.996078431372549" d="M 132.5 342 L 131.5 344 L 132.5 342 Z " /><path fill="rgb(207,210,213)" stroke="rgb(207,210,213)" stroke-width="1" opacity="0.996078431372549" d="M 164.5 342 Q 169.5 341.5 170 345.5 L 176 354.5 L 115.5 404 L 105 391.5 L 164.5 342 Z " /><path fill="rgb(207,210,213)" stroke="rgb(207,210,213)" stroke-width="1" opacity="0.996078431372549" d="M 306.5 342 L 307 344.5 L 306 344.5 L 306.5 342 Z " /><path fill="rgb(207,210,213)" stroke="rgb(207,210,213)" stroke-width="1" opacity="0.996078431372549" d="M 378.5 343 L 376.5 346 L 378.5 343 Z " /><path fill="rgb(207,210,213)" stroke="rgb(207,210,213)" stroke-width="1" opacity="0.996078431372549" d="M 129.5 344 L 128.5 346 L 129.5 344 Z " /><path fill="rgb(207,210,213)" stroke="rgb(207,210,213)" stroke-width="1" opacity="0.996078431372549" d="M 395.5 344 L 396.5 346 L 395.5 344 Z " /><path fill="rgb(207,210,213)" stroke="rgb(207,210,213)" stroke-width="1" opacity="0.996078431372549" d="M 188.5 345 L 185.5 349 L 188.5 345 Z " /><path fill="rgb(207,210,213)" stroke="rgb(207,210,213)" stroke-width="1" opacity="0.996078431372549" d="M 152.5 346 L 150.5 349 L 152.5 346 Z " /><path fill="rgb(207,210,213)" stroke="rgb(207,210,213)" stroke-width="1" opacity="0.996078431372549" d="M 398.5 346 L 401.5 350 L 398.5 346 Z " /><path fill="rgb(207,210,213)" stroke="rgb(207,210,213)" stroke-width="1" opacity="0.996078431372549" d="M 147.5 350 L 145.5 353 L 147.5 350 Z " /><path fill="rgb(207,210,213)" stroke="rgb(207,210,213)" stroke-width="1" opacity="0.996078431372549" d="M 182.5 350 L 180.5 353 L 182.5 350 Z " /><path fill="rgb(207,210,213)" stroke="rgb(207,210,213)" stroke-width="1" opacity="0.996078431372549" d="M 307.5 350 L 308 354.5 L 307 354.5 L 307.5 350 Z " /><path fill="rgb(207,210,213)" stroke="rgb(207,210,213)" stroke-width="1" opacity="0.996078431372549" d="M 374.5 350 L 375 352.5 L 374 352.5 L 374.5 350 Z " /><path fill="rgb(207,210,213)" stroke="rgb(207,210,213)" stroke-width="1" opacity="0.996078431372549" d="M 92.5 351 L 93 355.5 L 92 355.5 L 92.5 351 Z " /><path fill="rgb(207,210,213)" stroke="rgb(207,210,213)" stroke-width="1" opacity="0.996078431372549" d="M 403.5 351 L 407.5 356 L 403.5 351 Z " /><path fill="rgb(207,210,213)" stroke="rgb(207,210,213)" stroke-width="1" opacity="0.996078431372549" d="M 141.5 355 L 139.5 358 L 141.5 355 Z " /><path fill="rgb(207,210,213)" stroke="rgb(207,210,213)" stroke-width="1" opacity="0.996078431372549" d="M 374.5 355 L 375 359.5 L 374 359.5 L 374.5 355 Z " /><path fill="rgb(207,210,213)" stroke="rgb(207,210,213)" stroke-width="1" opacity="0.996078431372549" d="M 409.5 358 L 410.5 360 L 409.5 358 Z " /><path fill="rgb(207,210,213)" stroke="rgb(207,210,213)" stroke-width="1" opacity="0.996078431372549" d="M 135.5 360 L 133.5 363 L 135.5 360 Z " /><path fill="rgb(207,210,213)" stroke="rgb(207,210,213)" stroke-width="1" opacity="0.996078431372549" d="M 175.5 360 L 173.5 363 L 175.5 360 Z " /><path fill="rgb(207,210,213)" stroke="rgb(207,210,213)" stroke-width="1" opacity="0.996078431372549" d="M 308.5 363 L 309 390.5 L 308 390.5 L 308.5 363 Z " /><path fill="rgb(207,210,213)" stroke="rgb(207,210,213)" stroke-width="1" opacity="0.996078431372549" d="M 412.5 363 L 413.5 365 L 412.5 363 Z " /><path fill="rgb(207,210,213)" stroke="rgb(207,210,213)" stroke-width="1" opacity="0.996078431372549" d="M 91.5 364 L 92 389.5 L 91 389.5 L 91.5 364 Z " /><path fill="rgb(207,210,213)" stroke="rgb(207,210,213)" stroke-width="1" opacity="0.996078431372549" d="M 130.5 364 L 128.5 367 L 130.5 364 Z " /><path fill="rgb(207,210,213)" stroke="rgb(207,210,213)" stroke-width="1" opacity="0.996078431372549" d="M 169.5 365 L 167.5 368 L 169.5 365 Z " /><path fill="rgb(207,210,213)" stroke="rgb(207,210,213)" stroke-width="1" opacity="0.996078431372549" d="M 376.5 368 L 377 370.5 L 376 370.5 L 376.5 368 Z " /><path fill="rgb(207,210,213)" stroke="rgb(207,210,213)" stroke-width="1" opacity="0.996078431372549" d="M 124.5 369 L 122.5 372 L 124.5 369 Z " /><path fill="rgb(207,210,213)" stroke="rgb(207,210,213)" stroke-width="1" opacity="0.996078431372549" d="M 163.5 370 L 161.5 373 L 163.5 370 Z " /><path fill="rgb(207,210,213)" stroke="rgb(207,210,213)" stroke-width="1" opacity="0.996078431372549" d="M 377 372 L 381.5 372 L 394.5 376 Q 405.8 381.2 414 389.5 L 419.5 397 L 420.5 386 L 421 400.5 L 419 411.5 L 414.5 423 L 409 410.5 L 396.5 396 Q 388.5 389.6 377 388 L 376.5 391 L 376 388.5 L 377 387.5 L 377 372 Z " /><path fill="rgb(207,210,213)" stroke="rgb(207,210,213)" stroke-width="1" opacity="0.996078431372549" d="M 119.5 373 L 117.5 376 L 119.5 373 Z " /><path fill="rgb(207,210,213)" stroke="rgb(207,210,213)" stroke-width="1" opacity="0.996078431372549" d="M 158.5 374 L 156.5 377 L 158.5 374 Z " /><path fill="rgb(207,210,213)" stroke="rgb(207,210,213)" stroke-width="1" opacity="0.996078431372549" d="M 113.5 378 L 111.5 381 L 113.5 378 Z " /><path fill="rgb(207,210,213)" stroke="rgb(207,210,213)" stroke-width="1" opacity="0.996078431372549" d="M 152.5 379 L 150.5 382 L 152.5 379 Z " /><path fill="rgb(207,210,213)" stroke="rgb(207,210,213)" stroke-width="1" opacity="0.996078431372549" d="M 107.5 383 L 105.5 386 L 107.5 383 Z " /><path fill="rgb(207,210,213)" stroke="rgb(207,210,213)" stroke-width="1" opacity="0.996078431372549" d="M 147.5 383 L 145.5 386 L 147.5 383 Z " /><path fill="rgb(207,210,213)" stroke="rgb(207,210,213)" stroke-width="1" opacity="0.996078431372549" d="M 141.5 388 L 139.5 391 L 141.5 388 Z " /><path fill="rgb(207,210,213)" stroke="rgb(207,210,213)" stroke-width="1" opacity="0.996078431372549" d="M 136.5 392 L 133.5 396 L 136.5 392 Z " /><path fill="rgb(207,210,213)" stroke="rgb(207,210,213)" stroke-width="1" opacity="0.996078431372549" d="M 92.5 396 L 93 401.5 L 92 401.5 L 92.5 396 Z " /><path fill="rgb(207,210,213)" stroke="rgb(207,210,213)" stroke-width="1" opacity="0.996078431372549" d="M 103.5 396 L 105.5 399 L 103.5 396 Z " /><path fill="rgb(207,210,213)" stroke="rgb(207,210,213)" stroke-width="1" opacity="0.996078431372549" d="M 130.5 397 L 128.5 400 L 130.5 397 Z " /><path fill="rgb(207,210,213)" stroke="rgb(207,210,213)" stroke-width="1" opacity="0.996078431372549" d="M 307.5 398 L 308 401.5 L 307 401.5 L 307.5 398 Z " /><path fill="rgb(207,210,213)" stroke="rgb(207,210,213)" stroke-width="1" opacity="0.996078431372549" d="M 107.5 401 L 109.5 404 L 107.5 401 Z " /><path fill="rgb(207,210,213)" stroke="rgb(207,210,213)" stroke-width="1" opacity="0.996078431372549" d="M 124.5 402 L 122.5 405 L 124.5 402 Z " /><path fill="rgb(207,210,213)" stroke="rgb(207,210,213)" stroke-width="1" opacity="0.996078431372549" d="M 93.5 406 L 94 408.5 L 93 408.5 L 93.5 406 Z " /><path fill="rgb(207,210,213)" stroke="rgb(207,210,213)" stroke-width="1" opacity="0.996078431372549" d="M 119.5 406 L 118.5 408 L 119.5 406 Z " /><path fill="rgb(207,210,213)" stroke="rgb(207,210,213)" stroke-width="1" opacity="0.996078431372549" d="M 306.5 406 L 307 408.5 L 306 408.5 L 306.5 406 Z " /><path fill="rgb(207,210,213)" stroke="rgb(207,210,213)" stroke-width="1" opacity="0.996078431372549" d="M 305.5 412 L 306 414.5 L 305 414.5 L 305.5 412 Z " /><path fill="rgb(207,210,213)" stroke="rgb(207,210,213)" stroke-width="1" opacity="0.996078431372549" d="M 367 415 L 372 418.5 L 381 433.5 L 384 442.5 L 385 454.5 L 386 455.5 L 368 465 L 369 456.5 L 366 439.5 L 358 427.5 Q 364.5 422.5 367 415 Z " /><path fill="rgb(207,210,213)" stroke="rgb(207,210,213)" stroke-width="1" opacity="0.996078431372549" d="M 412.5 426 L 411.5 428 L 412.5 426 Z " /><path fill="rgb(207,210,213)" stroke="rgb(207,210,213)" stroke-width="1" opacity="0.996078431372549" d="M 354.5 430 L 353.5 432 L 354.5 430 Z " /><path fill="rgb(207,210,213)" stroke="rgb(207,210,213)" stroke-width="1" opacity="0.996078431372549" d="M 409.5 431 L 408.5 433 L 409.5 431 Z " /><path fill="rgb(207,210,213)" stroke="rgb(207,210,213)" stroke-width="1" opacity="0.996078431372549" d="M 350.5 433 L 349.5 435 L 350.5 433 Z " /><path fill="rgb(207,210,213)" stroke="rgb(207,210,213)" stroke-width="1" opacity="0.996078431372549" d="M 407.5 434 L 405.5 437 L 407.5 434 Z " /><path fill="rgb(207,210,213)" stroke="rgb(207,210,213)" stroke-width="1" opacity="0.996078431372549" d="M 404.5 438 L 391.5 452 L 404.5 438 Z " /><path fill="rgb(207,210,213)" stroke="rgb(207,210,213)" stroke-width="1" opacity="0.996078431372549" d="M 333.5 441 L 335 441.5 L 335 456.5 L 332 469.5 L 329.5 473 L 307 472.5 Q 311.6 473.1 313 470.5 Q 320.2 461 319 444 L 328.5 443 L 333.5 441 Z " /><path fill="rgb(207,210,213)" stroke="rgb(207,210,213)" stroke-width="1" opacity="0.996078431372549" d="M 309.5 443 L 312 443.5 L 309.5 444 L 309.5 443 Z " /><path fill="rgb(207,210,213)" stroke="rgb(207,210,213)" stroke-width="1" opacity="0.996078431372549" d="M 105.5 446 L 106.5 448 L 105.5 446 Z " /><path fill="rgb(207,210,213)" stroke="rgb(207,210,213)" stroke-width="1" opacity="0.996078431372549" d="M 293.5 448 L 292.5 450 L 293.5 448 Z " /><path fill="rgb(207,210,213)" stroke="rgb(207,210,213)" stroke-width="1" opacity="0.996078431372549" d="M 108.5 451 L 109.5 453 L 108.5 451 Z " /><path fill="rgb(207,210,213)" stroke="rgb(207,210,213)" stroke-width="1" opacity="0.996078431372549" d="M 389.5 452 L 388.5 454 L 389.5 452 Z " /><path fill="rgb(207,210,213)" stroke="rgb(207,210,213)" stroke-width="1" opacity="0.996078431372549" d="M 295.5 453 L 294.5 455 L 295.5 453 Z " /><path fill="rgb(207,210,213)" stroke="rgb(207,210,213)" stroke-width="1" opacity="0.996078431372549" d="M 110.5 454 L 111.5 456 L 110.5 454 Z " /><path fill="rgb(207,210,213)" stroke="rgb(207,210,213)" stroke-width="1" opacity="0.996078431372549" d="M 293.5 456 L 292.5 458 L 293.5 456 Z " /><path fill="rgb(207,210,213)" stroke="rgb(207,210,213)" stroke-width="1" opacity="0.996078431372549" d="M 112.5 457 L 114.5 460 L 112.5 457 Z " /><path fill="rgb(207,210,213)" stroke="rgb(207,210,213)" stroke-width="1" opacity="0.996078431372549" d="M 269.5 457 L 271 457.5 L 268.5 459 L 269.5 457 Z " /><path fill="rgb(207,210,213)" stroke="rgb(207,210,213)" stroke-width="1" opacity="0.996078431372549" d="M 287.5 457 L 285.5 460 L 287.5 457 Z " /><path fill="rgb(207,210,213)" stroke="rgb(207,210,213)" stroke-width="1" opacity="0.996078431372549" d="M 127.5 459 L 128 464.5 L 127 464.5 L 127.5 459 Z " /><path fill="rgb(207,210,213)" stroke="rgb(207,210,213)" stroke-width="1" opacity="0.996078431372549" d="M 272.5 459 L 273 463.5 L 272 463.5 L 272.5 459 Z " /><path fill="rgb(207,210,213)" stroke="rgb(207,210,213)" stroke-width="1" opacity="0.996078431372549" d="M 291.5 459 L 289.5 462 L 291.5 459 Z " /><path fill="rgb(207,210,213)" stroke="rgb(207,210,213)" stroke-width="1" opacity="0.996078431372549" d="M 168.5 461 L 169 466.5 L 168 466.5 L 168.5 461 Z " /><path fill="rgb(207,210,213)" stroke="rgb(207,210,213)" stroke-width="1" opacity="0.996078431372549" d="M 236.5 462 L 237 464.5 L 236 464.5 L 236.5 462 Z " /><path fill="rgb(207,210,213)" stroke="rgb(207,210,213)" stroke-width="1" opacity="0.996078431372549" d="M 283.5 462 L 278.5 468 L 283.5 462 Z " /><path fill="rgb(207,210,213)" stroke="rgb(207,210,213)" stroke-width="1" opacity="0.996078431372549" d="M 118.5 464 L 119.5 466 L 118.5 464 Z " /><path fill="rgb(207,210,213)" stroke="rgb(207,210,213)" stroke-width="1" opacity="0.996078431372549" d="M 131.5 464 L 132 466.5 L 131 466.5 L 131.5 464 Z " /><path fill="rgb(207,210,213)" stroke="rgb(207,210,213)" stroke-width="1" opacity="0.996078431372549" d="M 268.5 464 L 269 466.5 L 268 466.5 L 268.5 464 Z " /><path fill="rgb(207,210,213)" stroke="rgb(207,210,213)" stroke-width="1" opacity="0.996078431372549" d="M 287.5 464 L 285.5 468 L 287 468.5 L 285.5 469 L 284 467.5 L 287.5 464 Z " /><path fill="rgb(207,210,213)" stroke="rgb(207,210,213)" stroke-width="1" opacity="0.996078431372549" d="M 231.5 465 L 232 467.5 L 231 467.5 L 231.5 465 Z " /><path fill="rgb(207,210,213)" stroke="rgb(207,210,213)" stroke-width="1" opacity="0.996078431372549" d="M 164.5 466 L 165 472.5 L 164 472.5 L 164.5 466 Z " /><path fill="rgb(207,210,213)" stroke="rgb(207,210,213)" stroke-width="1" opacity="0.996078431372549" d="M 123.5 468 L 124.5 470 L 123.5 468 Z " /><path fill="rgb(207,210,213)" stroke="rgb(207,210,213)" stroke-width="1" opacity="0.996078431372549" d="M 235.5 468 L 236 470.5 L 235 470.5 L 235.5 468 Z " /><path fill="rgb(207,210,213)" stroke="rgb(207,210,213)" stroke-width="1" opacity="0.996078431372549" d="M 299.5 471 L 303 471.5 L 299.5 472 L 299.5 471 Z " /><path fill="rgb(207,210,213)" stroke="rgb(207,210,213)" stroke-width="1" opacity="0.996078431372549" d="M 343.5 471 L 346 471.5 L 343.5 472 L 343.5 471 Z " /><path fill="rgb(207,210,213)" stroke="rgb(207,210,213)" stroke-width="1" opacity="0.996078431372549" d="M 230.5 472 L 231 474.5 L 230 474.5 L 230.5 472 Z " /><path fill="rgb(207,210,213)" stroke="rgb(207,210,213)" stroke-width="1" opacity="0.996078431372549" d="M 335.5 472 L 340 472.5 L 335.5 473 L 335.5 472 Z " /><path fill="rgb(207,210,213)" stroke="rgb(207,210,213)" stroke-width="1" opacity="0.996078431372549" d="M 165.5 476 L 166 478.5 L 165 478.5 L 165.5 476 Z " /><path fill="rgb(207,210,213)" stroke="rgb(207,210,213)" stroke-width="1" opacity="0.996078431372549" d="M 234.5 476 L 235 481.5 L 234 481.5 L 234.5 476 Z " /><path fill="rgb(207,210,213)" stroke="rgb(207,210,213)" stroke-width="1" opacity="0.996078431372549" d="M 274.5 483 L 275 489.5 L 274 489.5 L 274.5 483 Z " /><path fill="rgb(207,210,213)" stroke="rgb(207,210,213)" stroke-width="1" opacity="0.996078431372549" d="M 125.5 484 L 126 489.5 L 125 489.5 L 125.5 484 Z " /><path fill="rgb(207,210,213)" stroke="rgb(207,210,213)" stroke-width="1" opacity="0.996078431372549" d="M 234.5 487 L 235 490.5 L 234 490.5 L 234.5 487 Z " /><path fill="rgb(207,210,213)" stroke="rgb(207,210,213)" stroke-width="1" opacity="0.996078431372549" d="M 164.5 492 L 162.5 495 L 164.5 492 Z " /><path fill="rgb(207,210,213)" stroke="rgb(207,210,213)" stroke-width="1" opacity="0.996078431372549" d="M 235.5 492 L 237.5 495 L 235.5 492 Z " /><path fill="rgb(207,210,213)" stroke="rgb(207,210,213)" stroke-width="1" opacity="0.996078431372549" d="M 126.5 493 L 127.5 495 L 126.5 493 Z " /><path fill="rgb(207,210,213)" stroke="rgb(207,210,213)" stroke-width="1" opacity="0.996078431372549" d="M 273.5 493 L 272.5 495 L 273.5 493 Z " /><path fill="rgb(207,210,213)" stroke="rgb(207,210,213)" stroke-width="1" opacity="0.996078431372549" d="M 137.5 497 L 143 497.5 L 137.5 498 L 137.5 497 Z " /><path fill="rgb(207,210,213)" stroke="rgb(207,210,213)" stroke-width="1" opacity="0.996078431372549" d="M 147.5 497 L 153 497.5 L 147.5 498 L 147.5 497 Z " /><path fill="rgb(207,210,213)" stroke="rgb(207,210,213)" stroke-width="1" opacity="0.996078431372549" d="M 247.5 497 L 253 497.5 L 247.5 498 L 247.5 497 Z " /><path fill="rgb(207,210,213)" stroke="rgb(207,210,213)" stroke-width="1" opacity="0.996078431372549" d="M 255.5 497 L 263 497.5 L 255.5 498 L 255.5 497 Z " /><path fill="rgb(234,234,234)" stroke="rgb(234,234,234)" stroke-width="1" opacity="1" d="M 199.5 14 Q 203 16.5 210.5 15 L 217.5 17 Q 227.2 20.8 233 28.5 L 237.5 36 L 248.5 37 Q 256.6 39.9 261 46.5 L 265 56.5 L 265 63.5 Q 263.3 73.8 256.5 79 Q 252.4 83.4 246 84 L 246 97.5 L 245.5 98 L 154 98 L 154 84.5 L 152.5 83 Q 142.9 81.1 139 73.5 Q 134.6 67.9 135 57.5 Q 137.2 45.7 145.5 40 L 154.5 36 L 162.5 36 L 165 33.5 Q 166.8 26.3 172.5 23 L 180.5 18 L 190.5 15 L 198.5 15 L 199.5 14 Z " /><path fill="rgb(234,234,234)" stroke="rgb(234,234,234)" stroke-width="1" opacity="1" d="M 114 85 L 117.5 85 L 142.5 106 L 146.5 106 L 153.5 103 L 246.5 103 L 253.5 106 L 257.5 106 L 281.5 86 L 286 85 L 287 87.5 L 287 136.5 L 291 155.5 L 292 181.5 Q 286.8 210.3 267.5 225 L 260 230.5 Q 258.3 235.8 263.5 234 L 267.5 231 Q 273.9 238.6 277 249.5 L 249.5 272 Q 246.9 268.6 239.5 270 L 227 279.5 L 221 287.5 L 220 295.5 L 217.5 298 L 170.5 336 L 164.5 337 L 159.5 340 L 102 387.5 L 101 393.5 L 111 407 Q 113.1 408.6 118.5 408 L 180 357.5 Q 179.9 351.9 183.5 350 L 232.5 309 L 236.5 308 L 254 323.5 L 265.5 338 Q 269.9 339.5 269 336.5 L 269 334.5 Q 259.8 320.8 247.5 310 L 238.5 303 L 235.5 303 L 229.5 300 L 225 295.5 L 224 293.5 L 232.5 281 L 240.5 275 L 245.5 275 L 262.5 293 L 289.5 315 L 292.5 315 L 294 312.5 L 262 285.5 Q 261.3 283.3 263.5 284 L 280.5 269 L 286 266 L 295 290.5 L 303 321.5 L 304 339.5 L 305 340.5 L 305 374.5 L 304 375.5 L 304 384.5 L 303 385.5 L 302 397.5 L 295 421.5 Q 288 439 275.5 451 Q 268.9 456.9 258.5 459 L 142.5 459 L 128.5 454 L 117 442.5 Q 104.1 425.9 99 401.5 L 97 384.5 L 96 383.5 L 96 373.5 L 95 372.5 L 95 342.5 L 96 341.5 L 96 330.5 L 97 329.5 L 98 316.5 L 110 276.5 Q 119.3 251.8 132.5 231 L 138.5 234 L 140 230.5 L 123 215.5 Q 114.2 205.3 110 190.5 L 108 180.5 L 108 164.5 L 109 163.5 L 109 156.5 L 110 155.5 L 112 137.5 L 114 131.5 L 114 85 Z M 159 148 L 157 149 L 154 153 L 155 158 L 159 160 L 164 159 L 166 156 L 165 151 Q 164 147 159 148 Z M 241 148 L 239 149 L 236 153 L 237 158 Q 239 161 245 160 Q 249 159 248 152 Q 247 147 241 148 Z M 195 158 L 192 159 L 191 162 Q 190 169 193 172 L 198 175 Q 199 182 196 186 Q 193 188 186 187 L 184 189 L 186 192 Q 195 193 200 189 Q 204 193 215 192 L 216 189 L 215 187 Q 208 188 205 186 L 202 182 Q 200 174 204 175 L 209 168 Q 210 161 208 159 Q 204 157 195 158 Z M 143 174 L 141 178 L 149 181 L 170 186 L 171 183 L 170 181 L 143 174 Z M 256 174 L 231 181 L 229 183 L 231 186 L 258 179 L 259 176 L 256 174 Z M 165 192 L 143 196 L 141 196 L 141 200 L 170 197 L 171 194 Q 170 191 165 192 Z M 231 192 L 229 196 L 231 197 L 251 199 L 252 200 L 259 200 L 259 196 L 257 195 L 231 192 Z M 163 286 Q 152 290 145 297 L 119 308 L 106 316 L 107 318 L 111 318 Q 121 311 136 307 Q 149 302 159 293 L 166 291 Q 177 299 178 316 L 170 320 L 163 320 L 155 323 L 142 330 L 124 342 Q 123 346 126 347 L 150 331 L 163 325 L 174 324 L 183 318 L 182 306 L 173 290 L 167 286 L 163 286 Z " /><path fill="rgb(234,234,234)" stroke="rgb(234,234,234)" stroke-width="1" opacity="1" d="M 381.5 342 L 386.5 342 L 394 349.5 L 402 364.5 L 406 381.5 L 404.5 381 Q 393.2 373 377 371 L 375 361.5 L 375 348.5 L 379.5 343 L 381.5 342 Z " /><path fill="rgb(234,234,234)" stroke="rgb(234,234,234)" stroke-width="1" opacity="1" d="M 377 389 Q 394 391.4 403 402.5 L 404 405.5 Q 397.9 426.9 383.5 440 L 378 426.5 L 370 416.5 L 369 412.5 Q 375.8 403.1 377 389 Z " /><path fill="rgb(234,234,234)" stroke="rgb(234,234,234)" stroke-width="1" opacity="1" d="M 357.5 428 Q 367.3 436.5 368 453 Q 353.8 462.6 333.5 467 L 333 464.5 L 335 459.5 L 336 445.5 L 335 441 Q 349.3 438.1 357.5 428 Z " /><path fill="rgb(234,234,234)" stroke="rgb(234,234,234)" stroke-width="1" opacity="1" d="M 301 442 L 308.5 444 L 318 444 L 318 456.5 L 314 469 L 291.5 469 L 285 467.5 Q 296.1 457.2 301 442 Z " /></svg>