<svg width="512" height="512" version="1.1" xmlns="http://www.w3.org/2000/svg" desc="Created with imagetracer.js version 1.2.6" ><path fill="rgb(221,221,219)" stroke="rgb(221,221,219)" stroke-width="1" opacity="1" d="M 326.5 35 L 325.5 37 L 326.5 35 Z " /><path fill="rgb(221,221,219)" stroke="rgb(221,221,219)" stroke-width="1" opacity="1" d="M 321.5 39 L 320.5 41 L 321.5 39 Z " /><path fill="rgb(221,221,219)" stroke="rgb(221,221,219)" stroke-width="1" opacity="1" d="M 316.5 43 L 315.5 45 L 316.5 43 Z " /><path fill="rgb(221,221,219)" stroke="rgb(221,221,219)" stroke-width="1" opacity="1" d="M 220.5 47 L 226 47.5 L 220.5 48 L 220.5 47 Z " /><path fill="rgb(221,221,219)" stroke="rgb(221,221,219)" stroke-width="1" opacity="1" d="M 245.5 47 L 251 47.5 L 245.5 48 L 245.5 47 Z " /><path fill="rgb(221,221,219)" stroke="rgb(221,221,219)" stroke-width="1" opacity="1" d="M 311.5 47 L 310.5 49 L 311.5 47 Z " /><path fill="rgb(221,221,219)" stroke="rgb(221,221,219)" stroke-width="1" opacity="1" d="M 258.5 48 L 261 48.5 L 258.5 49 L 258.5 48 Z " /><path fill="rgb(221,221,219)" stroke="rgb(221,221,219)" stroke-width="1" opacity="1" d="M 306.5 51 L 305.5 53 L 306.5 51 Z " /><path fill="rgb(221,221,219)" stroke="rgb(221,221,219)" stroke-width="1" opacity="1" d="M 183.5 54 L 182.5 56 L 183.5 54 Z " /><path fill="rgb(221,221,219)" stroke="rgb(221,221,219)" stroke-width="1" opacity="1" d="M 301.5 55 L 300.5 57 L 301.5 55 Z " /><path fill="rgb(221,221,219)" stroke="rgb(221,221,219)" stroke-width="1" opacity="1" d="M 192.5 80 L 193 83.5 L 192 83.5 L 192.5 80 Z " /><path fill="rgb(221,221,219)" stroke="rgb(221,221,219)" stroke-width="1" opacity="1" d="M 281.5 118 L 284 118.5 L 281.5 119 L 281.5 118 Z " /><path fill="rgb(221,221,219)" stroke="rgb(221,221,219)" stroke-width="1" opacity="1" d="M 338.5 122 L 339 124.5 L 338 124.5 L 338.5 122 Z " /><path fill="rgb(221,221,219)" stroke="rgb(221,221,219)" stroke-width="1" opacity="1" d="M 238.5 135 L 238 136.5 L 237.5 142 L 237 136.5 L 238.5 135 Z " /><path fill="rgb(221,221,219)" stroke="rgb(221,221,219)" stroke-width="1" opacity="1" d="M 300.5 138 L 299.5 140 L 300.5 138 Z " /><path fill="rgb(221,221,219)" stroke="rgb(221,221,219)" stroke-width="1" opacity="1" d="M 269.5 143 L 269 144.5 L 268.5 146 L 268 144.5 L 269.5 143 Z " /><path fill="rgb(221,221,219)" stroke="rgb(221,221,219)" stroke-width="1" opacity="1" d="M 231.5 146 L 229.5 149 L 231.5 146 Z " /><path fill="rgb(221,221,219)" stroke="rgb(221,221,219)" stroke-width="1" opacity="1" d="M 235.5 149 L 237.5 152 Q 235.8 148.9 234 150.5 L 235.5 149 Z " /><path fill="rgb(221,221,219)" stroke="rgb(221,221,219)" stroke-width="1" opacity="1" d="M 251.5 149 L 252.5 151 L 251.5 149 Z " /><path fill="rgb(221,221,219)" stroke="rgb(221,221,219)" stroke-width="1" opacity="1" d="M 252.5 152 L 251.5 154 L 252.5 152 Z " /><path fill="rgb(221,221,219)" stroke="rgb(221,221,219)" stroke-width="1" opacity="1" d="M 288.5 157 L 291 157.5 L 288.5 158 L 288.5 157 Z " /><path fill="rgb(221,221,219)" stroke="rgb(221,221,219)" stroke-width="1" opacity="1" d="M 177.5 162 L 180 162.5 L 177.5 163 L 177.5 162 Z " /><path fill="rgb(221,221,219)" stroke="rgb(221,221,219)" stroke-width="1" opacity="1" d="M 327.5 173 L 326.5 175 L 327.5 173 Z " /><path fill="rgb(221,221,219)" stroke="rgb(221,221,219)" stroke-width="1" opacity="1" d="M 325.5 176 L 324.5 178 L 325.5 176 Z " /><path fill="rgb(221,221,219)" stroke="rgb(221,221,219)" stroke-width="1" opacity="1" d="M 322.5 180 L 320.5 183 L 322.5 180 Z " /><path fill="rgb(221,221,219)" stroke="rgb(221,221,219)" stroke-width="1" opacity="1" d="M 312.5 190 L 311.5 192 L 312.5 190 Z " /><path fill="rgb(221,221,219)" stroke="rgb(221,221,219)" stroke-width="1" opacity="1" d="M 307.5 194 L 306.5 196 L 307.5 194 Z " /><path fill="rgb(221,221,219)" stroke="rgb(221,221,219)" stroke-width="1" opacity="1" d="M 304.5 196 L 303 198.5 L 302.5 200 L 302 198.5 L 304.5 196 Z " /><path fill="rgb(221,221,219)" stroke="rgb(221,221,219)" stroke-width="1" opacity="1" d="M 183.5 247 L 182.5 249 L 183.5 247 Z " /><path fill="rgb(221,221,219)" stroke="rgb(221,221,219)" stroke-width="1" opacity="1" d="M 272.5 247 L 264.5 256 L 272.5 247 Z " /><path fill="rgb(221,221,219)" stroke="rgb(221,221,219)" stroke-width="1" opacity="1" d="M 288.5 248 L 294.5 255 L 288.5 248 Z " /><path fill="rgb(221,221,219)" stroke="rgb(221,221,219)" stroke-width="1" opacity="1" d="M 200.5 249 L 204.5 254 L 200.5 249 Z " /><path fill="rgb(221,221,219)" stroke="rgb(221,221,219)" stroke-width="1" opacity="1" d="M 277.5 249 L 276.5 251 L 277.5 249 Z " /><path fill="rgb(221,221,219)" stroke="rgb(221,221,219)" stroke-width="1" opacity="1" d="M 194.5 250 L 196.5 253 L 194.5 250 Z " /><path fill="rgb(221,221,219)" stroke="rgb(221,221,219)" stroke-width="1" opacity="1" d="M 298.5 252 L 299.5 254 L 298.5 252 Z " /><path fill="rgb(221,221,219)" stroke="rgb(221,221,219)" stroke-width="1" opacity="1" d="M 177.5 253 L 175.5 256 L 177.5 253 Z " /><path fill="rgb(221,221,219)" stroke="rgb(221,221,219)" stroke-width="1" opacity="1" d="M 301.5 256 L 303.5 259 L 301.5 256 Z " /><path fill="rgb(221,221,219)" stroke="rgb(221,221,219)" stroke-width="1" opacity="1" d="M 201.5 257 L 203.5 260 L 201.5 257 Z " /><path fill="rgb(221,221,219)" stroke="rgb(221,221,219)" stroke-width="1" opacity="1" d="M 296.5 257 L 297.5 259 L 296.5 257 Z " /><path fill="rgb(221,221,219)" stroke="rgb(221,221,219)" stroke-width="1" opacity="1" d="M 173.5 258 L 167.5 265 L 173.5 258 Z " /><path fill="rgb(221,221,219)" stroke="rgb(221,221,219)" stroke-width="1" opacity="1" d="M 262.5 258 L 261.5 260 L 262.5 258 Z " /><path fill="rgb(221,221,219)" stroke="rgb(221,221,219)" stroke-width="1" opacity="1" d="M 267.5 259 L 266.5 261 L 267.5 259 Z " /><path fill="rgb(221,221,219)" stroke="rgb(221,221,219)" stroke-width="1" opacity="1" d="M 163.5 261 L 159.5 266 L 163.5 261 Z " /><path fill="rgb(221,221,219)" stroke="rgb(221,221,219)" stroke-width="1" opacity="1" d="M 300.5 261 L 306.5 268 L 300.5 261 Z " /><path fill="rgb(221,221,219)" stroke="rgb(221,221,219)" stroke-width="1" opacity="1" d="M 310.5 264 L 312.5 267 L 310.5 264 Z " /><path fill="rgb(221,221,219)" stroke="rgb(221,221,219)" stroke-width="1" opacity="1" d="M 212.5 267 L 213 270.5 L 212 270.5 L 212.5 267 Z " /><path fill="rgb(221,221,219)" stroke="rgb(221,221,219)" stroke-width="1" opacity="1" d="M 155.5 268 L 154.5 270 L 155.5 268 Z " /><path fill="rgb(221,221,219)" stroke="rgb(221,221,219)" stroke-width="1" opacity="1" d="M 161.5 269 L 159.5 272 L 161.5 269 Z " /><path fill="rgb(221,221,219)" stroke="rgb(221,221,219)" stroke-width="1" opacity="1" d="M 316.5 269 L 317.5 271 L 316.5 269 Z " /><path fill="rgb(221,221,219)" stroke="rgb(221,221,219)" stroke-width="1" opacity="1" d="M 310.5 270 L 312.5 273 L 310.5 270 Z " /><path fill="rgb(221,221,219)" stroke="rgb(221,221,219)" stroke-width="1" opacity="1" d="M 206.5 271 L 202.5 276 L 206.5 271 Z " /><path fill="rgb(221,221,219)" stroke="rgb(221,221,219)" stroke-width="1" opacity="1" d="M 150.5 272 L 149.5 274 L 150.5 272 Z " /><path fill="rgb(221,221,219)" stroke="rgb(221,221,219)" stroke-width="1" opacity="1" d="M 321.5 273 L 322.5 275 L 321.5 273 Z " /><path fill="rgb(221,221,219)" stroke="rgb(221,221,219)" stroke-width="1" opacity="1" d="M 155.5 274 L 154.5 276 L 155.5 274 Z " /><path fill="rgb(221,221,219)" stroke="rgb(221,221,219)" stroke-width="1" opacity="1" d="M 260.5 274 L 264.5 279 L 260.5 274 Z " /><path fill="rgb(221,221,219)" stroke="rgb(221,221,219)" stroke-width="1" opacity="1" d="M 146.5 275 L 144.5 278 L 146.5 275 Z " /><path fill="rgb(221,221,219)" stroke="rgb(221,221,219)" stroke-width="1" opacity="1" d="M 316.5 275 L 317.5 277 L 316.5 275 Z " /><path fill="rgb(221,221,219)" stroke="rgb(221,221,219)" stroke-width="1" opacity="1" d="M 151.5 277 L 150.5 279 L 151.5 277 Z " /><path fill="rgb(221,221,219)" stroke="rgb(221,221,219)" stroke-width="1" opacity="1" d="M 326.5 277 L 327.5 279 L 326.5 277 Z " /><path fill="rgb(221,221,219)" stroke="rgb(221,221,219)" stroke-width="1" opacity="1" d="M 320.5 278 L 321.5 280 L 320.5 278 Z " /><path fill="rgb(221,221,219)" stroke="rgb(221,221,219)" stroke-width="1" opacity="1" d="M 141.5 279 L 139.5 282 L 141.5 279 Z " /><path fill="rgb(221,221,219)" stroke="rgb(221,221,219)" stroke-width="1" opacity="1" d="M 279.5 280 L 280.5 282 L 279.5 280 Z " /><path fill="rgb(221,221,219)" stroke="rgb(221,221,219)" stroke-width="1" opacity="1" d="M 330.5 280 L 332.5 283 L 330.5 280 Z " /><path fill="rgb(221,221,219)" stroke="rgb(221,221,219)" stroke-width="1" opacity="1" d="M 146.5 281 L 145.5 283 L 146.5 281 Z " /><path fill="rgb(221,221,219)" stroke="rgb(221,221,219)" stroke-width="1" opacity="1" d="M 188.5 282 L 187.5 284 L 188.5 282 Z " /><path fill="rgb(221,221,219)" stroke="rgb(221,221,219)" stroke-width="1" opacity="1" d="M 325.5 282 L 326.5 284 L 325.5 282 Z " /><path fill="rgb(221,221,219)" stroke="rgb(221,221,219)" stroke-width="1" opacity="1" d="M 283.5 283 L 284.5 285 L 283.5 283 Z " /><path fill="rgb(221,221,219)" stroke="rgb(221,221,219)" stroke-width="1" opacity="1" d="M 135.5 284 L 132.5 288 L 135.5 284 Z " /><path fill="rgb(221,221,219)" stroke="rgb(221,221,219)" stroke-width="1" opacity="1" d="M 141.5 285 L 139.5 288 L 141.5 285 Z " /><path fill="rgb(221,221,219)" stroke="rgb(221,221,219)" stroke-width="1" opacity="1" d="M 184.5 285 L 182.5 288 L 184.5 285 Z " /><path fill="rgb(221,221,219)" stroke="rgb(221,221,219)" stroke-width="1" opacity="1" d="M 330.5 286 L 333.5 290 L 330.5 286 Z " /><path fill="rgb(221,221,219)" stroke="rgb(221,221,219)" stroke-width="1" opacity="1" d="M 337.5 286 L 339.5 289 L 337.5 286 Z " /><path fill="rgb(221,221,219)" stroke="rgb(221,221,219)" stroke-width="1" opacity="1" d="M 288.5 287 L 292.5 292 L 288.5 287 Z " /><path fill="rgb(221,221,219)" stroke="rgb(221,221,219)" stroke-width="1" opacity="1" d="M 282.5 288 L 284.5 291 L 282.5 288 Z " /><path fill="rgb(221,221,219)" stroke="rgb(221,221,219)" stroke-width="1" opacity="1" d="M 134.5 291 L 133.5 293 L 132 292.5 L 134.5 291 Z " /><path fill="rgb(221,221,219)" stroke="rgb(221,221,219)" stroke-width="1" opacity="1" d="M 182.5 293 L 174.5 302 L 182.5 293 Z " /><path fill="rgb(221,221,219)" stroke="rgb(221,221,219)" stroke-width="1" opacity="1" d="M 290.5 295 L 293.5 299 L 290.5 295 Z " /><path fill="rgb(221,221,219)" stroke="rgb(221,221,219)" stroke-width="1" opacity="1" d="M 296.5 295 L 300.5 300 L 296.5 295 Z " /><path fill="rgb(221,221,219)" stroke="rgb(221,221,219)" stroke-width="1" opacity="1" d="M 350.5 297 L 351 299.5 L 350 299.5 L 350.5 297 Z " /><path fill="rgb(221,221,219)" stroke="rgb(221,221,219)" stroke-width="1" opacity="1" d="M 170.5 299 L 168.5 302 L 170.5 299 Z " /><path fill="rgb(221,221,219)" stroke="rgb(221,221,219)" stroke-width="1" opacity="1" d="M 119.5 301 L 120 305.5 L 118 316.5 L 118 337.5 L 117 341.5 L 117 343.5 L 120 379.5 L 128 409.5 Q 136.7 433.3 154.5 448 L 159.5 451 L 170.5 454 L 197 454.5 Q 193.8 455.8 195 461.5 L 196 462.5 L 196 471.5 L 197 472.5 L 198 485.5 L 197 490.5 L 192.5 495 L 178.5 498 L 169.5 498 L 155.5 495 L 152 491.5 L 152 478.5 L 158 464.5 L 159 454.5 L 155.5 453 L 154 454.5 L 154 462.5 L 151.5 467 L 141 457.5 Q 125.9 439.6 119 413.5 L 115 394.5 L 114 377.5 L 113 376.5 L 113 345.5 L 114 344.5 L 114 333.5 L 115 332.5 L 116 317.5 L 119.5 301 Z " /><path fill="rgb(221,221,219)" stroke="rgb(221,221,219)" stroke-width="1" opacity="1" d="M 351.5 302 L 356 327.5 L 356 336.5 L 357 337.5 L 358 370.5 L 357 371.5 L 357 384.5 L 356 385.5 L 355 398.5 L 349 422.5 Q 341.1 446.1 325.5 462 L 318 467 L 316 453 L 312 454.5 L 313 465.5 L 319 479.5 L 319 490.5 L 316.5 494 L 308.5 497 L 291.5 498 Q 290 495.5 284.5 497 L 275 492.5 L 273 485.5 L 273 479.5 L 274 478.5 L 274 468.5 L 276 457.5 L 273.5 456 L 271 459.5 L 270 472 L 201.5 472 L 201 469.5 L 200 468.5 L 200 456.5 L 198 454.5 L 300.5 454 Q 318.4 450.4 327 437.5 L 339 418.5 L 349 388.5 L 351 371.5 L 352 370.5 L 352 361.5 L 353 360.5 L 353 320.5 L 352 319.5 L 351.5 302 Z " /><path fill="rgb(221,221,219)" stroke="rgb(221,221,219)" stroke-width="1" opacity="1" d="M 303.5 303 L 305.5 306 L 303.5 303 Z " /><path fill="rgb(221,221,219)" stroke="rgb(221,221,219)" stroke-width="1" opacity="1" d="M 298.5 304 L 299.5 306 L 298.5 304 Z " /><path fill="rgb(221,221,219)" stroke="rgb(221,221,219)" stroke-width="1" opacity="1" d="M 165.5 305 L 163.5 308 L 165.5 305 Z " /><path fill="rgb(221,221,219)" stroke="rgb(221,221,219)" stroke-width="1" opacity="1" d="M 170.5 306 L 169.5 308 L 170.5 306 Z " /><path fill="rgb(221,221,219)" stroke="rgb(221,221,219)" stroke-width="1" opacity="1" d="M 302.5 309 L 304.5 312 L 302.5 309 Z " /><path fill="rgb(221,221,219)" stroke="rgb(221,221,219)" stroke-width="1" opacity="1" d="M 308.5 309 L 314.5 316 L 308.5 309 Z " /><path fill="rgb(221,221,219)" stroke="rgb(221,221,219)" stroke-width="1" opacity="1" d="M 166.5 311 L 163.5 315 L 166.5 311 Z " /><path fill="rgb(221,221,219)" stroke="rgb(221,221,219)" stroke-width="1" opacity="1" d="M 159.5 312 L 155.5 317 L 159.5 312 Z " /><path fill="rgb(221,221,219)" stroke="rgb(221,221,219)" stroke-width="1" opacity="1" d="M 311.5 319 L 316.5 325 L 311.5 319 Z " /><path fill="rgb(221,221,219)" stroke="rgb(221,221,219)" stroke-width="1" opacity="1" d="M 158.5 320 L 152.5 327 L 158.5 320 Z " /><path fill="rgb(221,221,219)" stroke="rgb(221,221,219)" stroke-width="1" opacity="1" d="M 194.5 320 L 195.5 322 L 194.5 320 Z " /><path fill="rgb(221,221,219)" stroke="rgb(221,221,219)" stroke-width="1" opacity="1" d="M 320.5 322 L 321.5 324 L 320.5 322 Z " /><path fill="rgb(221,221,219)" stroke="rgb(221,221,219)" stroke-width="1" opacity="1" d="M 444.5 322 Q 458.5 325 466 334.5 Q 475.4 344.6 480 359.5 L 483 374.5 L 483 388.5 L 480 403.5 L 473 419.5 Q 464.6 433.6 452.5 444 Q 436.3 457.8 413.5 465 L 387.5 470 L 359.5 470 L 330 464.5 L 334.5 464 L 335.5 465 L 360.5 466 L 363 465 L 368 450.5 L 368 437 L 379.5 436 L 387.5 433 L 387 434.5 L 387 452.5 L 384 463 L 402.5 458 L 424 446.5 Q 422.3 428.7 412.5 419 L 410 420.5 Q 418.6 413.9 423 404 L 426 405.5 Q 436.7 415.6 440 432 L 448 425.5 L 461 403.5 L 464 392.5 L 459.5 387 Q 449.6 377 433 375 Q 435.3 369.4 434 358.5 L 433 355.5 L 434.5 356 Q 454.2 357.8 465.5 368 L 466 364.5 L 461 345.5 Q 455.2 332.3 445.5 323 L 444.5 322 Z " /><path fill="rgb(221,221,219)" stroke="rgb(221,221,219)" stroke-width="1" opacity="1" d="M 148.5 324 L 146.5 327 L 148.5 324 Z " /><path fill="rgb(221,221,219)" stroke="rgb(221,221,219)" stroke-width="1" opacity="1" d="M 433.5 326 L 432.5 328 L 433.5 326 Z " /><path fill="rgb(221,221,219)" stroke="rgb(221,221,219)" stroke-width="1" opacity="1" d="M 324.5 327 L 325.5 329 L 324.5 327 Z " /><path fill="rgb(221,221,219)" stroke="rgb(221,221,219)" stroke-width="1" opacity="1" d="M 319.5 328 L 320.5 330 L 319.5 328 Z " /><path fill="rgb(221,221,219)" stroke="rgb(221,221,219)" stroke-width="1" opacity="1" d="M 143.5 330 L 141.5 333 L 143.5 330 Z " /><path fill="rgb(221,221,219)" stroke="rgb(221,221,219)" stroke-width="1" opacity="1" d="M 149.5 330 L 147.5 333 L 149.5 330 Z " /><path fill="rgb(221,221,219)" stroke="rgb(221,221,219)" stroke-width="1" opacity="1" d="M 322.5 332 L 323.5 334 L 322.5 332 Z " /><path fill="rgb(221,221,219)" stroke="rgb(221,221,219)" stroke-width="1" opacity="1" d="M 430.5 334 L 431 338.5 L 430 338.5 L 430.5 334 Z " /><path fill="rgb(221,221,219)" stroke="rgb(221,221,219)" stroke-width="1" opacity="1" d="M 139.5 335 L 138.5 337 L 139.5 335 Z " /><path fill="rgb(221,221,219)" stroke="rgb(221,221,219)" stroke-width="1" opacity="1" d="M 144.5 336 L 143.5 338 L 144.5 336 Z " /><path fill="rgb(221,221,219)" stroke="rgb(221,221,219)" stroke-width="1" opacity="1" d="M 138.5 339 L 141 340.5 L 139.5 341 L 138.5 339 Z " /><path fill="rgb(221,221,219)" stroke="rgb(221,221,219)" stroke-width="1" opacity="1" d="M 406.5 423 L 405.5 425 L 406.5 423 Z " /><path fill="rgb(221,221,219)" stroke="rgb(221,221,219)" stroke-width="1" opacity="1" d="M 349.5 434 L 348.5 436 L 349.5 434 Z " /><path fill="rgb(221,221,219)" stroke="rgb(221,221,219)" stroke-width="1" opacity="1" d="M 340.5 450 L 339.5 452 L 340.5 450 Z " /><path fill="rgb(221,221,219)" stroke="rgb(221,221,219)" stroke-width="1" opacity="1" d="M 334.5 458 L 332.5 461 L 334.5 458 Z " /><path fill="rgb(0,0,0)" stroke="rgb(0,0,0)" stroke-width="1" opacity="0" d="M 0 0 L 512 0 L 512 512 L 0 512 L 0 0 Z M 151 4 L 22 57 L 19 63 L 19 71 L 47 139 Q 50 144 58 145 L 78 138 L 113 123 L 118 134 L 148 208 L 135 234 L 120 277 L 113 308 L 111 329 L 110 330 L 110 339 L 109 340 L 109 383 L 110 384 L 110 393 L 113 410 L 122 437 L 133 456 L 138 461 Q 137 463 140 462 L 140 464 L 150 472 L 147 480 Q 146 489 148 495 L 156 500 L 164 502 L 185 502 L 197 498 L 202 490 L 202 478 L 203 477 L 269 477 L 269 491 L 271 495 L 276 499 L 287 502 L 308 502 L 320 498 L 322 496 L 324 490 L 323 476 L 321 472 L 326 468 L 346 473 L 363 474 L 364 475 L 394 474 L 417 469 Q 440 461 457 446 L 460 444 Q 472 431 481 415 L 486 400 L 487 385 L 488 384 L 486 364 L 480 347 L 472 335 Q 463 320 444 317 Q 436 317 432 321 L 426 331 L 426 344 L 429 357 L 429 375 L 427 385 L 421 400 L 411 414 Q 398 428 376 432 Q 360 434 351 430 L 357 413 L 361 390 L 361 380 L 362 379 L 362 345 L 361 344 L 361 333 L 360 332 L 358 310 L 352 282 L 339 242 L 322 206 L 315 195 L 318 193 Q 330 182 337 167 L 341 156 L 344 140 L 343 117 L 338 91 L 338 37 L 337 33 L 333 29 L 326 30 L 299 52 L 295 52 L 284 48 L 266 44 L 245 43 L 244 42 L 228 42 L 227 43 L 206 44 L 180 50 L 164 10 Q 160 4 151 4 Z " /><path fill="rgb(99,98,99)" stroke="rgb(99,98,99)" stroke-width="1" opacity="0.9647058823529412" d="M 150.5 4 Q 160.5 3.5 164 9.5 L 180 50 L 205.5 44 L 226.5 43 L 227.5 42 L 243.5 42 L 244.5 43 L 265.5 44 L 283.5 48 L 294.5 52 L 298.5 52 L 325.5 30 L 332.5 29 L 337 32.5 L 338 36.5 L 338 90.5 L 343 116.5 L 344 139.5 L 341 155.5 L 337 166.5 Q 329.9 182.4 317.5 193 L 315 194.5 L 322 205.5 L 339 241.5 L 352 281.5 L 358 309.5 L 360 331.5 L 361 332.5 L 361 343.5 L 362 344.5 L 362 378.5 L 361 379.5 L 361 389.5 L 357 412.5 L 351 429.5 Q 359.9 434.1 375.5 432 Q 398.4 427.9 411 413.5 L 421 399.5 L 427 384.5 L 429 374.5 L 429 356.5 L 426 343.5 L 426 330.5 L 431.5 321 Q 435.5 317 443.5 317 Q 463.1 320.4 472 334.5 L 480 346.5 L 486 363.5 L 488 383.5 L 487 384.5 L 486 399.5 L 481 414.5 Q 472.5 431.5 459.5 444 L 456.5 446 Q 440.4 461.4 416.5 469 L 393.5 474 L 363.5 475 L 362.5 474 L 345.5 473 L 325.5 468 L 321 471.5 L 323 475.5 L 324 489.5 L 322 495.5 L 319.5 498 L 307.5 502 L 286.5 502 L 275.5 499 L 271 494.5 L 269 490.5 L 269 477 L 202.5 477 L 202 477.5 L 202 489.5 L 196.5 498 L 184.5 502 L 163.5 502 L 155.5 500 L 148 494.5 Q 145.5 489 147 479.5 L 150 471.5 L 140 464 L 140 462 Q 137.3 463.1 138 460.5 L 133 455.5 L 122 436.5 L 113 409.5 L 110 392.5 L 110 383.5 L 109 382.5 L 109 339.5 L 110 338.5 L 110 329.5 L 111 328.5 L 113 307.5 L 120 276.5 L 135 233.5 L 148 207.5 L 118 133.5 L 112.5 123 L 77.5 138 L 57.5 145 Q 50.1 143.9 47 138.5 L 19 70.5 L 19 62.5 L 22 57 L 150.5 4 Z M 151 9 L 28 59 L 23 65 L 23 69 L 51 137 L 56 140 L 63 139 L 169 96 L 185 89 L 188 86 L 188 80 L 160 12 Q 158 8 151 9 Z M 330 33 L 300 57 L 296 57 L 274 50 L 255 48 L 254 47 L 218 47 L 217 48 L 209 48 L 198 50 L 182 54 L 192 80 Q 193 87 190 90 L 184 94 L 150 107 L 134 115 L 185 242 L 187 243 L 193 244 L 200 249 Q 208 255 212 266 Q 213 273 209 276 L 202 280 L 202 284 L 214 312 L 212 320 L 206 324 Q 199 325 197 322 L 191 314 L 183 293 L 150 329 L 142 340 L 138 339 L 145 329 L 174 296 L 190 282 L 202 277 L 208 271 Q 209 263 205 261 Q 199 251 188 246 L 181 249 L 174 258 L 134 292 Q 130 293 131 290 L 168 258 L 151 213 L 137 241 L 126 272 L 118 305 L 115 330 L 114 331 L 114 341 L 113 342 L 113 381 L 114 382 L 116 403 L 124 430 Q 130 444 139 456 L 150 466 L 153 467 L 155 458 Q 153 451 158 453 L 158 464 L 153 474 L 151 483 L 152 493 L 158 496 L 166 498 L 182 498 L 195 494 L 198 488 L 198 477 L 196 470 L 196 456 L 199 455 L 200 461 L 200 470 L 201 471 L 202 473 L 269 473 L 270 472 L 272 458 L 274 456 L 276 458 L 274 467 L 274 475 L 273 476 Q 271 486 274 492 L 281 496 L 290 498 L 311 497 Q 316 496 319 492 L 319 479 L 313 465 L 312 455 L 316 453 Q 315 462 318 467 L 323 465 Q 339 451 347 429 L 354 406 L 356 389 L 357 388 L 357 377 L 358 376 L 357 335 L 356 334 L 356 326 L 355 325 L 353 307 L 348 284 L 332 237 L 317 206 L 312 197 L 305 201 L 303 199 L 317 188 L 330 171 Q 336 159 339 145 L 339 121 L 338 120 L 336 100 L 333 89 L 333 36 L 330 33 Z M 129 116 L 117 122 L 172 254 L 172 253 L 181 244 L 182 244 L 131 118 L 129 116 Z M 196 283 L 186 291 L 196 316 L 202 320 L 207 319 L 210 315 L 210 312 L 199 285 L 196 283 Z M 439 322 L 437 323 Q 432 326 430 333 L 430 341 L 434 363 L 433 378 L 429 393 L 417 414 Q 407 426 392 432 L 379 436 L 371 436 L 370 437 Q 364 435 356 436 L 350 434 L 341 450 L 329 465 L 357 470 L 391 470 L 415 465 Q 435 458 451 446 Q 465 434 475 417 L 480 405 L 483 391 L 483 372 L 480 359 Q 476 346 468 337 Q 461 328 451 323 L 439 322 Z " /><path fill="rgb(99,98,99)" stroke="rgb(99,98,99)" stroke-width="1" opacity="0.9647058823529412" d="M 142.5 39 Q 157 38 162 46.5 Q 166.7 51.3 165 62.5 Q 163.2 69.7 157.5 73 L 144.5 78 Q 135.6 63.4 131 44.5 L 142.5 39 Z M 144 43 L 135 48 L 147 73 L 155 70 Q 160 68 161 62 Q 162 53 159 50 L 151 43 L 144 43 Z " /><path fill="rgb(99,98,99)" stroke="rgb(99,98,99)" stroke-width="1" opacity="0.9647058823529412" d="M 117.5 50 Q 125.6 51.4 129 57.5 L 134 68.5 L 134 78.5 L 128.5 85 L 120.5 87 Q 113.3 85.2 110 79.5 Q 104.3 72.7 105 59.5 L 109.5 53 L 117.5 50 Z M 115 55 L 113 56 L 109 61 L 110 71 L 115 80 L 121 83 L 128 81 L 130 78 L 130 70 L 127 62 L 121 55 L 115 55 Z " /><path fill="rgb(99,98,99)" stroke="rgb(99,98,99)" stroke-width="1" opacity="0.9647058823529412" d="M 86.5 62 L 91.5 62 L 100 68.5 Q 105.9 75.1 106 87.5 Q 104.5 94 99.5 97 Q 96.3 99.3 89.5 98 L 84 95 L 78 84.5 L 76 73.5 Q 76.9 66.9 81.5 64 L 86.5 62 Z M 88 66 L 85 67 L 81 71 L 80 76 L 82 84 L 86 91 L 91 94 L 99 93 L 102 87 Q 102 78 98 73 Q 96 66 88 66 Z " /><path fill="rgb(99,98,99)" stroke="rgb(99,98,99)" stroke-width="1" opacity="0.9647058823529412" d="M 56.5 74 L 63.5 74 L 69 77 L 70 81.5 L 68.5 83 L 64.5 79 L 57.5 78 L 51 82.5 L 49 89.5 Q 50.7 100.8 58.5 106 L 62.5 107 L 67.5 106 L 72 102.5 L 74 96.5 L 71.5 91 L 67 93.5 L 68 97.5 L 65.5 99 L 62 91.5 L 70.5 87 L 75 87 Q 77.7 91 78 98.5 L 74 107 Q 69.7 110.3 61.5 111 Q 53.4 109.6 50 103.5 Q 45.6 97.4 45 87.5 L 48 79.5 L 50.5 77 L 56.5 74 Z " /><path fill="rgb(99,98,99)" stroke="rgb(99,98,99)" stroke-width="1" opacity="0.9647058823529412" d="M 188.5 106 Q 195 105 196 109.5 Q 197.3 116.8 192.5 118 L 186 117 L 184 111.5 L 186 107 L 188.5 106 Z " /><path fill="rgb(99,98,99)" stroke="rgb(99,98,99)" stroke-width="1" opacity="0.9647058823529412" d="M 280.5 106 L 287 107 L 289 112.5 L 287 117 L 280.5 118 Q 275.8 116.8 277 109.5 L 280.5 106 Z " /><path fill="rgb(99,98,99)" stroke="rgb(99,98,99)" stroke-width="1" opacity="0.9647058823529412" d="M 229.5 117 L 241.5 117 L 245 120.5 Q 245.3 132.8 237 136.5 L 237 143.5 L 240.5 149 L 252 150 L 251.5 153 L 240.5 153 L 235.5 149 Q 231.9 155.4 219.5 153 Q 216.5 151.5 219.5 150 Q 230.3 151.8 233 145.5 L 233 135.5 L 231.5 135 Q 225.3 131.3 226 120.5 L 227 118 L 229.5 117 Z " /><path fill="rgb(99,98,99)" stroke="rgb(99,98,99)" stroke-width="1" opacity="0.9647058823529412" d="M 171.5 135 L 200.5 143 L 202 144.5 L 200.5 147 L 170 139 L 171.5 135 Z " /><path fill="rgb(99,98,99)" stroke="rgb(99,98,99)" stroke-width="1" opacity="0.9647058823529412" d="M 298.5 135 L 301 136.5 L 299.5 139 L 269 147 L 270.5 143 L 298.5 135 Z " /><path fill="rgb(99,98,99)" stroke="rgb(99,98,99)" stroke-width="1" opacity="0.9647058823529412" d="M 198.5 155 L 202 156.5 L 200.5 159 L 170 163 L 171.5 159 L 197.5 156 L 198.5 155 Z " /><path fill="rgb(99,98,99)" stroke="rgb(99,98,99)" stroke-width="1" opacity="0.9647058823529412" d="M 270.5 155 L 299.5 159 L 301 160.5 L 299.5 163 L 269 159 L 270.5 155 Z " /><path fill="rgb(99,98,99)" stroke="rgb(99,98,99)" stroke-width="1" opacity="0.9647058823529412" d="M 280.5 243 L 287.5 243 L 296 249.5 L 307.5 263 L 340 289.5 L 338.5 292 L 335.5 291 L 308.5 269 L 296 256.5 L 287.5 247 L 283.5 246 Q 273.8 249.8 268 257.5 L 262 269.5 L 265 274 L 273.5 279 L 278.5 280 L 302 301.5 L 323 325.5 L 327 333 Q 323.2 334 322 331.5 L 286.5 291 L 277.5 284 L 268.5 281 L 260 273.5 L 258 268.5 L 261 260.5 L 273.5 247 L 280.5 243 Z " /><path fill="rgb(233,233,233)" stroke="rgb(233,233,233)" stroke-width="1" opacity="1" d="M 188.5 91 L 187.5 93 L 188.5 91 Z " /><path fill="rgb(233,233,233)" stroke="rgb(233,233,233)" stroke-width="1" opacity="1" d="M 186.5 106 L 185.5 108 L 186.5 106 Z " /><path fill="rgb(233,233,233)" stroke="rgb(233,233,233)" stroke-width="1" opacity="1" d="M 185.5 116 L 186.5 118 L 185.5 116 Z " /><path fill="rgb(233,233,233)" stroke="rgb(233,233,233)" stroke-width="1" opacity="1" d="M 287.5 116 L 286.5 118 L 287.5 116 Z " /><path fill="rgb(233,233,233)" stroke="rgb(233,233,233)" stroke-width="1" opacity="1" d="M 268.5 146 L 269.5 148 L 268.5 146 Z " /><path fill="rgb(233,233,233)" stroke="rgb(233,233,233)" stroke-width="1" opacity="1" d="M 169.5 162 L 170.5 164 L 169.5 162 Z " /><path fill="rgb(233,233,233)" stroke="rgb(233,233,233)" stroke-width="1" opacity="1" d="M 319.5 183 L 313.5 190 L 319.5 183 Z " /><path fill="rgb(233,233,233)" stroke="rgb(233,233,233)" stroke-width="1" opacity="1" d="M 292.5 245 L 296.5 250 L 292.5 245 Z " /><path fill="rgb(233,233,233)" stroke="rgb(233,233,233)" stroke-width="1" opacity="1" d="M 181.5 249 L 178.5 253 L 181.5 249 Z " /><path fill="rgb(233,233,233)" stroke="rgb(233,233,233)" stroke-width="1" opacity="1" d="M 197.5 253 L 200.5 257 L 197.5 253 Z " /><path fill="rgb(233,233,233)" stroke="rgb(233,233,233)" stroke-width="1" opacity="1" d="M 167.5 256 L 168 257.5 L 164 260.5 L 167.5 256 Z " /><path fill="rgb(233,233,233)" stroke="rgb(233,233,233)" stroke-width="1" opacity="1" d="M 308.5 262 L 309.5 264 L 308.5 262 Z " /><path fill="rgb(233,233,233)" stroke="rgb(233,233,233)" stroke-width="1" opacity="1" d="M 166.5 265 L 165.5 267 L 166.5 265 Z " /><path fill="rgb(233,233,233)" stroke="rgb(233,233,233)" stroke-width="1" opacity="1" d="M 157.5 266 L 156.5 268 L 157.5 266 Z " /><path fill="rgb(233,233,233)" stroke="rgb(233,233,233)" stroke-width="1" opacity="1" d="M 307.5 268 L 308.5 270 L 307.5 268 Z " /><path fill="rgb(233,233,233)" stroke="rgb(233,233,233)" stroke-width="1" opacity="1" d="M 264.5 271 L 267.5 275 L 264.5 271 Z " /><path fill="rgb(233,233,233)" stroke="rgb(233,233,233)" stroke-width="1" opacity="1" d="M 209.5 275 L 207.5 278 L 209.5 275 Z " /><path fill="rgb(233,233,233)" stroke="rgb(233,233,233)" stroke-width="1" opacity="1" d="M 324.5 275 L 325.5 277 L 324.5 275 Z " /><path fill="rgb(233,233,233)" stroke="rgb(233,233,233)" stroke-width="1" opacity="1" d="M 137.5 282 L 136.5 284 L 137.5 282 Z " /><path fill="rgb(233,233,233)" stroke="rgb(233,233,233)" stroke-width="1" opacity="1" d="M 327.5 284 L 328.5 286 L 327.5 284 Z " /><path fill="rgb(233,233,233)" stroke="rgb(233,233,233)" stroke-width="1" opacity="1" d="M 335.5 284 L 336.5 286 L 335.5 284 Z " /><path fill="rgb(233,233,233)" stroke="rgb(233,233,233)" stroke-width="1" opacity="1" d="M 286.5 285 L 287.5 287 L 286.5 285 Z " /><path fill="rgb(233,233,233)" stroke="rgb(233,233,233)" stroke-width="1" opacity="1" d="M 178.5 290 L 173.5 296 L 178.5 290 Z " /><path fill="rgb(233,233,233)" stroke="rgb(233,233,233)" stroke-width="1" opacity="1" d="M 334.5 290 L 335.5 292 L 334.5 290 Z " /><path fill="rgb(233,233,233)" stroke="rgb(233,233,233)" stroke-width="1" opacity="1" d="M 349.5 294 L 350 296.5 L 349 296.5 L 349.5 294 Z " /><path fill="rgb(233,233,233)" stroke="rgb(233,233,233)" stroke-width="1" opacity="1" d="M 120.5 298 L 121 301.5 L 120 301.5 L 120.5 298 Z " /><path fill="rgb(233,233,233)" stroke="rgb(233,233,233)" stroke-width="1" opacity="1" d="M 301.5 300 L 302.5 302 L 301.5 300 Z " /><path fill="rgb(233,233,233)" stroke="rgb(233,233,233)" stroke-width="1" opacity="1" d="M 350.5 300 L 351 304.5 L 350 304.5 L 350.5 300 Z " /><path fill="rgb(233,233,233)" stroke="rgb(233,233,233)" stroke-width="1" opacity="1" d="M 296.5 302 L 297.5 304 L 296.5 302 Z " /><path fill="rgb(233,233,233)" stroke="rgb(233,233,233)" stroke-width="1" opacity="1" d="M 172.5 304 L 171.5 306 L 172.5 304 Z " /><path fill="rgb(233,233,233)" stroke="rgb(233,233,233)" stroke-width="1" opacity="1" d="M 119.5 306 L 120 311.5 L 119 311.5 L 119.5 306 Z " /><path fill="rgb(233,233,233)" stroke="rgb(233,233,233)" stroke-width="1" opacity="1" d="M 351.5 308 L 352 314.5 L 351 314.5 L 351.5 308 Z " /><path fill="rgb(233,233,233)" stroke="rgb(233,233,233)" stroke-width="1" opacity="1" d="M 307.5 315 L 310.5 319 L 307.5 315 Z " /><path fill="rgb(233,233,233)" stroke="rgb(233,233,233)" stroke-width="1" opacity="1" d="M 118.5 316 L 119 324.5 L 118 324.5 L 118.5 316 Z " /><path fill="rgb(233,233,233)" stroke="rgb(233,233,233)" stroke-width="1" opacity="1" d="M 315.5 316 L 317.5 319 L 315.5 316 Z " /><path fill="rgb(233,233,233)" stroke="rgb(233,233,233)" stroke-width="1" opacity="1" d="M 154.5 317 L 151.5 321 L 154.5 317 Z " /><path fill="rgb(233,233,233)" stroke="rgb(233,233,233)" stroke-width="1" opacity="1" d="M 160.5 318 L 159.5 320 L 160.5 318 Z " /><path fill="rgb(233,233,233)" stroke="rgb(233,233,233)" stroke-width="1" opacity="1" d="M 211.5 320 L 209.5 323 L 211.5 320 Z " /><path fill="rgb(233,233,233)" stroke="rgb(233,233,233)" stroke-width="1" opacity="1" d="M 352.5 320 L 353 331.5 L 352 331.5 L 352.5 320 Z " /><path fill="rgb(233,233,233)" stroke="rgb(233,233,233)" stroke-width="1" opacity="1" d="M 445.5 323 L 449.5 328 L 445.5 323 Z " /><path fill="rgb(233,233,233)" stroke="rgb(233,233,233)" stroke-width="1" opacity="1" d="M 322.5 324 L 323.5 326 L 322.5 324 Z " /><path fill="rgb(233,233,233)" stroke="rgb(233,233,233)" stroke-width="1" opacity="1" d="M 317.5 326 L 318.5 328 L 317.5 326 Z " /><path fill="rgb(233,233,233)" stroke="rgb(233,233,233)" stroke-width="1" opacity="1" d="M 145.5 327 L 144.5 329 L 145.5 327 Z " /><path fill="rgb(233,233,233)" stroke="rgb(233,233,233)" stroke-width="1" opacity="1" d="M 450.5 329 L 452.5 332 L 450.5 329 Z " /><path fill="rgb(233,233,233)" stroke="rgb(233,233,233)" stroke-width="1" opacity="1" d="M 453.5 333 L 454.5 335 L 453.5 333 Z " /><path fill="rgb(233,233,233)" stroke="rgb(233,233,233)" stroke-width="1" opacity="1" d="M 455.5 336 L 458 339.5 L 456 338.5 L 455.5 336 Z " /><path fill="rgb(233,233,233)" stroke="rgb(233,233,233)" stroke-width="1" opacity="1" d="M 117.5 338 L 118 341.5 L 117 341.5 L 117.5 338 Z " /><path fill="rgb(233,233,233)" stroke="rgb(233,233,233)" stroke-width="1" opacity="1" d="M 117.5 343 L 118 345.5 L 117 345.5 L 117.5 343 Z " /><path fill="rgb(233,233,233)" stroke="rgb(233,233,233)" stroke-width="1" opacity="1" d="M 459.5 343 L 461 346.5 L 460 346.5 L 459.5 343 Z " /><path fill="rgb(233,233,233)" stroke="rgb(233,233,233)" stroke-width="1" opacity="1" d="M 352.5 349 L 353 360.5 L 352 360.5 L 352.5 349 Z " /><path fill="rgb(233,233,233)" stroke="rgb(233,233,233)" stroke-width="1" opacity="1" d="M 118.5 357 L 119 363.5 L 118 363.5 L 118.5 357 Z " /><path fill="rgb(233,233,233)" stroke="rgb(233,233,233)" stroke-width="1" opacity="1" d="M 464.5 358 L 465 360.5 L 464 360.5 L 464.5 358 Z " /><path fill="rgb(233,233,233)" stroke="rgb(233,233,233)" stroke-width="1" opacity="1" d="M 465.5 364 L 466 367.5 L 465 367.5 L 465.5 364 Z " /><path fill="rgb(233,233,233)" stroke="rgb(233,233,233)" stroke-width="1" opacity="1" d="M 351.5 366 L 352 370.5 L 351 370.5 L 351.5 366 Z " /><path fill="rgb(233,233,233)" stroke="rgb(233,233,233)" stroke-width="1" opacity="1" d="M 119.5 368 L 120 372.5 L 119 372.5 L 119.5 368 Z " /><path fill="rgb(233,233,233)" stroke="rgb(233,233,233)" stroke-width="1" opacity="1" d="M 350.5 374 L 351 377.5 L 350 377.5 L 350.5 374 Z " /><path fill="rgb(233,233,233)" stroke="rgb(233,233,233)" stroke-width="1" opacity="1" d="M 120.5 376 L 121 379.5 L 120 379.5 L 120.5 376 Z " /><path fill="rgb(233,233,233)" stroke="rgb(233,233,233)" stroke-width="1" opacity="1" d="M 349.5 380 L 350 383.5 L 349 383.5 L 349.5 380 Z " /><path fill="rgb(233,233,233)" stroke="rgb(233,233,233)" stroke-width="1" opacity="1" d="M 451.5 381 L 452.5 383 L 451.5 381 Z " /><path fill="rgb(233,233,233)" stroke="rgb(233,233,233)" stroke-width="1" opacity="1" d="M 121.5 382 L 122 385.5 L 121 385.5 L 121.5 382 Z " /><path fill="rgb(233,233,233)" stroke="rgb(233,233,233)" stroke-width="1" opacity="1" d="M 454.5 383 L 455.5 385 L 454.5 383 Z " /><path fill="rgb(233,233,233)" stroke="rgb(233,233,233)" stroke-width="1" opacity="1" d="M 348.5 386 L 349 388.5 L 348 388.5 L 348.5 386 Z " /><path fill="rgb(233,233,233)" stroke="rgb(233,233,233)" stroke-width="1" opacity="1" d="M 122.5 387 L 123 389.5 L 122 389.5 L 122.5 387 Z " /><path fill="rgb(233,233,233)" stroke="rgb(233,233,233)" stroke-width="1" opacity="1" d="M 459.5 387 L 461.5 390 L 459.5 387 Z " /><path fill="rgb(233,233,233)" stroke="rgb(233,233,233)" stroke-width="1" opacity="1" d="M 347.5 390 L 348 392.5 L 347 392.5 L 347.5 390 Z " /><path fill="rgb(233,233,233)" stroke="rgb(233,233,233)" stroke-width="1" opacity="1" d="M 123.5 391 L 124 393.5 L 123 393.5 L 123.5 391 Z " /><path fill="rgb(233,233,233)" stroke="rgb(233,233,233)" stroke-width="1" opacity="1" d="M 346.5 394 L 347 396.5 L 346 396.5 L 346.5 394 Z " /><path fill="rgb(233,233,233)" stroke="rgb(233,233,233)" stroke-width="1" opacity="1" d="M 124.5 395 L 125 397.5 L 124 397.5 L 124.5 395 Z " /><path fill="rgb(233,233,233)" stroke="rgb(233,233,233)" stroke-width="1" opacity="1" d="M 426.5 406 L 429.5 410 L 426.5 406 Z " /><path fill="rgb(233,233,233)" stroke="rgb(233,233,233)" stroke-width="1" opacity="1" d="M 130.5 413 L 132 416.5 L 131 416.5 L 130.5 413 Z " /><path fill="rgb(233,233,233)" stroke="rgb(233,233,233)" stroke-width="1" opacity="1" d="M 454.5 415 L 453.5 417 L 454.5 415 Z " /><path fill="rgb(233,233,233)" stroke="rgb(233,233,233)" stroke-width="1" opacity="1" d="M 338.5 417 L 339 418.5 L 335.5 424 L 336 422.5 L 338.5 417 Z " /><path fill="rgb(233,233,233)" stroke="rgb(233,233,233)" stroke-width="1" opacity="1" d="M 452.5 418 L 451.5 420 L 452.5 418 Z " /><path fill="rgb(233,233,233)" stroke="rgb(233,233,233)" stroke-width="1" opacity="1" d="M 409.5 421 L 408.5 423 L 409.5 421 Z " /><path fill="rgb(233,233,233)" stroke="rgb(233,233,233)" stroke-width="1" opacity="1" d="M 450.5 421 L 448 424.5 L 443.5 430 L 447 425.5 L 450.5 421 Z " /><path fill="rgb(233,233,233)" stroke="rgb(233,233,233)" stroke-width="1" opacity="1" d="M 134.5 422 L 138 427.5 L 136 426.5 L 134.5 422 Z " /><path fill="rgb(233,233,233)" stroke="rgb(233,233,233)" stroke-width="1" opacity="1" d="M 414.5 422 L 415.5 424 L 414.5 422 Z " /><path fill="rgb(233,233,233)" stroke="rgb(233,233,233)" stroke-width="1" opacity="1" d="M 333.5 427 L 332.5 429 L 333.5 427 Z " /><path fill="rgb(233,233,233)" stroke="rgb(233,233,233)" stroke-width="1" opacity="1" d="M 138.5 429 L 139.5 431 L 138.5 429 Z " /><path fill="rgb(233,233,233)" stroke="rgb(233,233,233)" stroke-width="1" opacity="1" d="M 331.5 430 L 330.5 432 L 331.5 430 Z " /><path fill="rgb(233,233,233)" stroke="rgb(233,233,233)" stroke-width="1" opacity="1" d="M 440.5 430 L 441.5 432 Q 438.7 432.7 440.5 430 Z " /><path fill="rgb(233,233,233)" stroke="rgb(233,233,233)" stroke-width="1" opacity="1" d="M 140.5 432 L 142.5 435 L 140.5 432 Z " /><path fill="rgb(233,233,233)" stroke="rgb(233,233,233)" stroke-width="1" opacity="1" d="M 329.5 433 L 327 436.5 L 317.5 447 L 326 437.5 L 329.5 433 Z " /><path fill="rgb(233,233,233)" stroke="rgb(233,233,233)" stroke-width="1" opacity="1" d="M 143.5 436 L 147.5 441 L 143.5 436 Z " /><path fill="rgb(233,233,233)" stroke="rgb(233,233,233)" stroke-width="1" opacity="1" d="M 387.5 440 L 388 445.5 L 387 445.5 L 387.5 440 Z " /><path fill="rgb(233,233,233)" stroke="rgb(233,233,233)" stroke-width="1" opacity="1" d="M 423.5 443 L 424 446.5 L 422 447.5 L 423.5 443 Z " /><path fill="rgb(233,233,233)" stroke="rgb(233,233,233)" stroke-width="1" opacity="1" d="M 151.5 444 L 157 448.5 L 155.5 448 L 151.5 444 Z " /><path fill="rgb(233,233,233)" stroke="rgb(233,233,233)" stroke-width="1" opacity="1" d="M 315.5 447 L 314.5 449 L 315.5 447 Z " /><path fill="rgb(233,233,233)" stroke="rgb(233,233,233)" stroke-width="1" opacity="1" d="M 367.5 448 L 368 450.5 L 367 450.5 L 367.5 448 Z " /><path fill="rgb(233,233,233)" stroke="rgb(233,233,233)" stroke-width="1" opacity="1" d="M 158.5 449 L 161 450.5 L 159.5 451 L 158.5 449 Z " /><path fill="rgb(233,233,233)" stroke="rgb(233,233,233)" stroke-width="1" opacity="1" d="M 418.5 449 L 417.5 451 L 415.5 452 L 416.5 450 L 418.5 449 Z " /><path fill="rgb(233,233,233)" stroke="rgb(233,233,233)" stroke-width="1" opacity="1" d="M 303.5 452 L 306 452.5 L 303.5 453 L 303.5 452 Z " /><path fill="rgb(233,233,233)" stroke="rgb(233,233,233)" stroke-width="1" opacity="1" d="M 170.5 453 L 301 453.5 L 170.5 454 L 170.5 453 Z " /><path fill="rgb(233,233,233)" stroke="rgb(233,233,233)" stroke-width="1" opacity="1" d="M 410.5 453 L 412 453.5 L 408.5 455 L 408.5 454 L 410.5 453 Z " /><path fill="rgb(233,233,233)" stroke="rgb(233,233,233)" stroke-width="1" opacity="1" d="M 403.5 456 L 405 456.5 L 401.5 458 L 401.5 457 L 403.5 456 Z " /><path fill="rgb(233,233,233)" stroke="rgb(233,233,233)" stroke-width="1" opacity="1" d="M 394.5 459 L 397 459.5 L 394.5 460 L 394.5 459 Z " /><path fill="rgb(233,233,233)" stroke="rgb(233,233,233)" stroke-width="1" opacity="1" d="M 384.5 461 L 385.5 463 Q 382.7 463.7 384.5 461 Z " /><path fill="rgb(233,233,233)" stroke="rgb(233,233,233)" stroke-width="1" opacity="1" d="M 387.5 461 L 390 461.5 L 387.5 462 L 387.5 461 Z " /><path fill="rgb(233,233,233)" stroke="rgb(233,233,233)" stroke-width="1" opacity="1" d="M 335.5 464 L 341 464.5 L 335.5 465 L 335.5 464 Z " /><path fill="rgb(233,233,233)" stroke="rgb(233,233,233)" stroke-width="1" opacity="1" d="M 348.5 465 L 361 465.5 L 348.5 466 L 348.5 465 Z " /><path fill="rgb(234,234,234)" stroke="rgb(234,234,234)" stroke-width="1" opacity="1" d="M 328.5 34 Q 332.9 32.5 332 35.5 L 333 36.5 L 333 91.5 L 337 109.5 L 338 125.5 L 339 126.5 L 339 139.5 L 336 154.5 L 328 172.5 L 309.5 193 L 302 198.5 L 304.5 202 L 311.5 198 Q 330.9 229.6 343 268.5 L 349 290.5 L 351 314.5 L 352 315.5 L 352 331.5 L 353 333.5 L 353 335.5 L 352 365.5 L 351 366.5 L 349 385.5 L 345 401.5 L 334 426.5 Q 326.8 438.3 316.5 447 L 302.5 453 L 167.5 453 Q 155.3 449.7 148 441.5 Q 132.2 424.3 125 398.5 L 119 367.5 L 119 357.5 L 118 356.5 L 118 325.5 L 119 324.5 L 119 312.5 L 120 311.5 L 121 295.5 L 127 270.5 L 139 237.5 L 150.5 215 L 167 254.5 L 167 257.5 L 130 289.5 L 131.5 293 L 133.5 293 L 158.5 273 L 175 257.5 L 184.5 247 Q 191.2 246.2 193.5 250 L 204 260.5 L 208 269.5 L 201.5 276 L 189.5 281 L 173 295.5 L 140 333.5 Q 137.4 334.9 138 339.5 L 140.5 341 L 143 340 L 151 328.5 L 182.5 294 L 191 315.5 L 196.5 323 Q 200 325.5 207.5 324 L 212 320.5 Q 215.2 317.2 214 309.5 L 202 281.5 L 210 275.5 Q 213.7 273.2 213 266.5 Q 208.5 255 199.5 248 L 189.5 242 L 186 242 L 134 114.5 L 185.5 94 L 191 89.5 Q 193.6 86.6 193 80.5 L 183 55.5 L 191.5 52 L 213.5 48 L 243.5 47 L 244.5 48 L 264.5 49 L 289.5 55 L 295.5 58 L 299.5 58 L 328.5 34 Z M 190 105 L 187 106 L 184 110 L 185 117 L 190 119 L 194 118 Q 198 117 197 110 Q 195 105 190 105 Z M 283 105 L 276 110 Q 275 115 277 117 L 282 119 L 287 118 L 289 115 Q 290 109 288 107 L 283 105 Z M 231 116 L 226 118 L 225 121 L 225 126 L 228 133 L 233 137 Q 235 147 229 149 L 218 149 L 218 154 L 230 154 L 236 150 Q 240 156 252 154 L 253 151 L 252 149 Q 244 151 241 148 L 238 145 L 238 137 L 244 131 L 246 124 L 245 120 Q 242 114 231 116 Z M 171 135 L 169 139 L 201 148 Q 203 147 202 143 L 179 136 L 171 135 Z M 296 135 L 272 142 L 268 145 L 270 148 L 297 141 L 301 139 Q 303 132 296 135 Z M 195 155 L 187 157 L 173 158 L 169 161 L 171 164 L 201 160 L 202 159 L 202 155 L 195 155 Z M 270 155 L 268 159 L 271 160 L 300 164 L 302 161 L 298 158 L 270 155 Z M 282 242 L 274 246 Q 263 253 258 266 L 259 274 L 265 279 L 274 284 L 277 284 L 287 292 L 321 332 Q 322 335 327 334 L 327 330 L 303 302 L 287 285 L 278 279 L 273 278 L 263 270 L 264 265 L 269 258 L 283 247 L 288 248 L 295 257 L 309 270 L 338 293 L 341 291 L 340 289 L 308 262 L 297 250 L 288 242 L 282 242 Z " /><path fill="rgb(234,234,234)" stroke="rgb(234,234,234)" stroke-width="1" opacity="1" d="M 441.5 322 L 443.5 322 L 450 328.5 Q 462.6 342.4 465 366.5 L 462.5 365 L 450.5 359 L 433 355 L 431 342.5 L 431 331.5 L 436.5 324 L 441.5 322 Z " /><path fill="rgb(234,234,234)" stroke="rgb(234,234,234)" stroke-width="1" opacity="1" d="M 433 375 Q 453.1 378.6 464 392.5 L 455 414.5 L 443 431 L 440 429.5 Q 435.2 413.3 424 403.5 Q 432.2 392.3 433 375 Z " /><path fill="rgb(234,234,234)" stroke="rgb(234,234,234)" stroke-width="1" opacity="1" d="M 411.5 420 L 414 421.5 Q 422.5 430 423 446.5 Q 407 457.8 385 462 L 387 454.5 L 388 440.5 L 387 434 Q 401.6 429.9 411.5 420 Z " /><path fill="rgb(234,234,234)" stroke="rgb(234,234,234)" stroke-width="1" opacity="1" d="M 349.5 435 L 357.5 437 L 366.5 437 L 368 438.5 L 367 453.5 L 361.5 465 L 341.5 465 L 340.5 464 L 332.5 464 L 331 462.5 Q 342.7 451.2 349.5 435 Z " /><path fill="rgb(244,200,152)" stroke="rgb(244,200,152)" stroke-width="1" opacity="1" d="M 150.5 9 Q 157.8 7.8 160 11.5 L 188 79.5 L 188 85.5 L 184.5 89 L 168.5 96 L 62.5 139 L 55.5 140 L 51 136.5 L 23 68.5 L 23 64.5 L 27.5 59 L 150.5 9 Z M 143 39 L 131 45 Q 136 63 145 78 L 158 73 Q 163 70 165 63 Q 167 51 162 47 Q 157 38 143 39 Z M 118 50 L 110 53 L 105 60 Q 104 73 110 80 Q 113 85 121 87 L 129 85 L 134 79 L 134 69 L 129 58 Q 126 51 118 50 Z M 87 62 L 82 64 Q 77 67 76 74 L 78 85 L 84 95 L 90 98 Q 96 99 100 97 Q 104 94 106 88 Q 106 75 100 69 L 92 62 L 87 62 Z M 57 74 L 51 77 L 48 80 L 45 88 Q 46 97 50 104 Q 53 110 62 111 Q 70 110 74 107 L 78 99 Q 78 91 75 87 L 71 87 L 62 92 L 66 99 L 68 98 L 67 94 L 72 91 L 74 97 L 72 103 L 68 106 L 63 107 L 59 106 Q 51 101 49 90 L 51 83 L 58 78 L 65 79 L 69 83 L 70 82 L 69 77 L 64 74 L 57 74 Z " /><path fill="rgb(244,200,152)" stroke="rgb(244,200,152)" stroke-width="1" opacity="1" d="M 323.5 37 L 322.5 39 L 323.5 37 Z " /><path fill="rgb(244,200,152)" stroke="rgb(244,200,152)" stroke-width="1" opacity="1" d="M 318.5 41 L 317.5 43 L 318.5 41 Z " /><path fill="rgb(244,200,152)" stroke="rgb(244,200,152)" stroke-width="1" opacity="1" d="M 143.5 43 L 150.5 43 L 159 49.5 Q 162.3 53.2 161 61.5 Q 159.6 67.6 154.5 70 L 146.5 73 L 135 47.5 L 143.5 43 Z " /><path fill="rgb(244,200,152)" stroke="rgb(244,200,152)" stroke-width="1" opacity="1" d="M 313.5 45 L 312.5 47 L 313.5 45 Z " /><path fill="rgb(244,200,152)" stroke="rgb(244,200,152)" stroke-width="1" opacity="1" d="M 217.5 47 L 220 47.5 L 217.5 48 L 217.5 47 Z " /><path fill="rgb(244,200,152)" stroke="rgb(244,200,152)" stroke-width="1" opacity="1" d="M 251.5 47 L 254 47.5 L 251.5 48 L 251.5 47 Z " /><path fill="rgb(244,200,152)" stroke="rgb(244,200,152)" stroke-width="1" opacity="1" d="M 308.5 49 L 307.5 51 L 308.5 49 Z " /><path fill="rgb(244,200,152)" stroke="rgb(244,200,152)" stroke-width="1" opacity="1" d="M 303.5 53 L 302.5 55 L 303.5 53 Z " /><path fill="rgb(244,200,152)" stroke="rgb(244,200,152)" stroke-width="1" opacity="1" d="M 114.5 55 L 120.5 55 L 127 61.5 L 130 69.5 L 130 77.5 L 127.5 81 L 120.5 83 L 115 80 L 110 70.5 L 109 60.5 L 112.5 56 L 114.5 55 Z " /><path fill="rgb(244,200,152)" stroke="rgb(244,200,152)" stroke-width="1" opacity="1" d="M 87.5 66 Q 95.6 66.4 98 72.5 Q 101.6 77.9 102 86.5 L 98.5 93 L 90.5 94 L 86 90.5 L 82 83.5 L 80 75.5 L 81 70.5 L 84.5 67 L 87.5 66 Z " /><path fill="rgb(244,200,152)" stroke="rgb(244,200,152)" stroke-width="1" opacity="1" d="M 194.5 107 L 195.5 109 L 194.5 107 Z " /><path fill="rgb(244,200,152)" stroke="rgb(244,200,152)" stroke-width="1" opacity="1" d="M 278.5 107 L 277.5 109 L 278.5 107 Z " /><path fill="rgb(244,200,152)" stroke="rgb(244,200,152)" stroke-width="1" opacity="1" d="M 196.5 110 L 197 113.5 L 196 113.5 L 196.5 110 Z " /><path fill="rgb(244,200,152)" stroke="rgb(244,200,152)" stroke-width="1" opacity="1" d="M 276.5 111 L 277 113.5 L 276 113.5 L 276.5 111 Z " /><path fill="rgb(244,200,152)" stroke="rgb(244,200,152)" stroke-width="1" opacity="1" d="M 195.5 115 L 194.5 117 L 195.5 115 Z " /><path fill="rgb(244,200,152)" stroke="rgb(244,200,152)" stroke-width="1" opacity="1" d="M 277.5 115 L 278.5 117 L 277.5 115 Z " /><path fill="rgb(244,200,152)" stroke="rgb(244,200,152)" stroke-width="1" opacity="1" d="M 128.5 116 L 131 117.5 L 182 244 L 180.5 244 L 172 252.5 L 171.5 254 L 117 121.5 L 128.5 116 Z " /><path fill="rgb(244,200,152)" stroke="rgb(244,200,152)" stroke-width="1" opacity="1" d="M 232.5 116 L 239 116.5 L 232.5 117 L 232.5 116 Z " /><path fill="rgb(244,200,152)" stroke="rgb(244,200,152)" stroke-width="1" opacity="1" d="M 241.5 132 L 239.5 135 L 241.5 132 Z " /><path fill="rgb(244,200,152)" stroke="rgb(244,200,152)" stroke-width="1" opacity="1" d="M 238.5 146 L 240.5 149 L 238.5 146 Z " /><path fill="rgb(244,200,152)" stroke="rgb(244,200,152)" stroke-width="1" opacity="1" d="M 220.5 149 L 228 149.5 L 220.5 150 L 220.5 149 Z " /><path fill="rgb(244,200,152)" stroke="rgb(244,200,152)" stroke-width="1" opacity="1" d="M 243.5 149 L 251 149.5 L 243.5 150 L 243.5 149 Z " /><path fill="rgb(244,200,152)" stroke="rgb(244,200,152)" stroke-width="1" opacity="1" d="M 218.5 152 L 219.5 153 L 228 153.5 L 219.5 154 L 218.5 152 Z " /><path fill="rgb(244,200,152)" stroke="rgb(244,200,152)" stroke-width="1" opacity="1" d="M 242.5 153 L 251 153.5 L 242.5 154 L 242.5 153 Z " /><path fill="rgb(244,200,152)" stroke="rgb(244,200,152)" stroke-width="1" opacity="1" d="M 310.5 192 L 309.5 194 L 310.5 192 Z " /><path fill="rgb(244,200,152)" stroke="rgb(244,200,152)" stroke-width="1" opacity="1" d="M 150.5 213 L 149.5 215 L 150.5 213 Z " /><path fill="rgb(244,200,152)" stroke="rgb(244,200,152)" stroke-width="1" opacity="1" d="M 185.5 241 L 188 242.5 L 186.5 243 L 185.5 241 Z " /><path fill="rgb(244,200,152)" stroke="rgb(244,200,152)" stroke-width="1" opacity="1" d="M 282.5 242 L 286 242.5 L 282.5 243 L 282.5 242 Z " /><path fill="rgb(244,200,152)" stroke="rgb(244,200,152)" stroke-width="1" opacity="1" d="M 185.5 246 L 188 246.5 L 185.5 247 L 185.5 246 Z " /><path fill="rgb(244,200,152)" stroke="rgb(244,200,152)" stroke-width="1" opacity="1" d="M 197.5 247 L 198.5 249 L 197.5 247 Z " /><path fill="rgb(244,200,152)" stroke="rgb(244,200,152)" stroke-width="1" opacity="1" d="M 180.5 249 L 179.5 251 L 180.5 249 Z " /><path fill="rgb(244,200,152)" stroke="rgb(244,200,152)" stroke-width="1" opacity="1" d="M 296.5 250 L 297.5 252 L 296.5 250 Z " /><path fill="rgb(244,200,152)" stroke="rgb(244,200,152)" stroke-width="1" opacity="1" d="M 274.5 251 L 272.5 254 L 274.5 251 Z " /><path fill="rgb(244,200,152)" stroke="rgb(244,200,152)" stroke-width="1" opacity="1" d="M 270.5 255 L 268.5 258 L 270.5 255 Z " /><path fill="rgb(244,200,152)" stroke="rgb(244,200,152)" stroke-width="1" opacity="1" d="M 298.5 259 L 299.5 261 L 298.5 259 Z " /><path fill="rgb(244,200,152)" stroke="rgb(244,200,152)" stroke-width="1" opacity="1" d="M 304.5 259 L 307.5 263 L 304.5 259 Z " /><path fill="rgb(244,200,152)" stroke="rgb(244,200,152)" stroke-width="1" opacity="1" d="M 164.5 266 L 162.5 269 L 164.5 266 Z " /><path fill="rgb(244,200,152)" stroke="rgb(244,200,152)" stroke-width="1" opacity="1" d="M 313.5 267 L 314.5 269 L 313.5 267 Z " /><path fill="rgb(244,200,152)" stroke="rgb(244,200,152)" stroke-width="1" opacity="1" d="M 318.5 271 L 319.5 273 L 318.5 271 Z " /><path fill="rgb(244,200,152)" stroke="rgb(244,200,152)" stroke-width="1" opacity="1" d="M 157.5 272 L 156.5 274 L 157.5 272 Z " /><path fill="rgb(244,200,152)" stroke="rgb(244,200,152)" stroke-width="1" opacity="1" d="M 210.5 273 L 209.5 275 L 210.5 273 Z " /><path fill="rgb(244,200,152)" stroke="rgb(244,200,152)" stroke-width="1" opacity="1" d="M 206.5 277 L 205.5 279 L 206.5 277 Z " /><path fill="rgb(244,200,152)" stroke="rgb(244,200,152)" stroke-width="1" opacity="1" d="M 143.5 283 L 142.5 285 L 143.5 283 Z " /><path fill="rgb(244,200,152)" stroke="rgb(244,200,152)" stroke-width="1" opacity="1" d="M 195.5 283 L 199 284.5 L 210 311.5 L 210 314.5 L 206.5 319 L 201.5 320 L 196 315.5 L 186 290.5 L 195.5 283 Z " /><path fill="rgb(244,200,152)" stroke="rgb(244,200,152)" stroke-width="1" opacity="1" d="M 333.5 283 L 334.5 285 L 333.5 283 Z " /><path fill="rgb(244,200,152)" stroke="rgb(244,200,152)" stroke-width="1" opacity="1" d="M 137.5 288 L 135.5 291 L 137.5 288 Z " /><path fill="rgb(244,200,152)" stroke="rgb(244,200,152)" stroke-width="1" opacity="1" d="M 181.5 288 L 179.5 291 L 181.5 288 Z " /><path fill="rgb(244,200,152)" stroke="rgb(244,200,152)" stroke-width="1" opacity="1" d="M 286.5 291 L 289.5 295 L 286.5 291 Z " /><path fill="rgb(244,200,152)" stroke="rgb(244,200,152)" stroke-width="1" opacity="1" d="M 293.5 292 L 295.5 295 L 293.5 292 Z " /><path fill="rgb(244,200,152)" stroke="rgb(244,200,152)" stroke-width="1" opacity="1" d="M 173.5 296 L 171.5 299 L 173.5 296 Z " /><path fill="rgb(244,200,152)" stroke="rgb(244,200,152)" stroke-width="1" opacity="1" d="M 294.5 299 L 296.5 302 L 294.5 299 Z " /><path fill="rgb(244,200,152)" stroke="rgb(244,200,152)" stroke-width="1" opacity="1" d="M 173.5 302 L 172.5 304 L 173.5 302 Z " /><path fill="rgb(244,200,152)" stroke="rgb(244,200,152)" stroke-width="1" opacity="1" d="M 306.5 307 L 307.5 309 L 306.5 307 Z " /><path fill="rgb(244,200,152)" stroke="rgb(244,200,152)" stroke-width="1" opacity="1" d="M 162.5 309 L 160.5 312 L 162.5 309 Z " /><path fill="rgb(244,200,152)" stroke="rgb(244,200,152)" stroke-width="1" opacity="1" d="M 305.5 312 L 307.5 315 L 305.5 312 Z " /><path fill="rgb(244,200,152)" stroke="rgb(244,200,152)" stroke-width="1" opacity="1" d="M 162.5 315 L 160.5 318 L 162.5 315 Z " /><path fill="rgb(244,200,152)" stroke="rgb(244,200,152)" stroke-width="1" opacity="1" d="M 317.5 319 L 319.5 322 L 317.5 319 Z " /><path fill="rgb(244,200,152)" stroke="rgb(244,200,152)" stroke-width="1" opacity="1" d="M 151.5 321 L 149.5 324 L 151.5 321 Z " /><path fill="rgb(244,200,152)" stroke="rgb(244,200,152)" stroke-width="1" opacity="1" d="M 151.5 327 L 150.5 329 L 151.5 327 Z " /><path fill="rgb(244,200,152)" stroke="rgb(244,200,152)" stroke-width="1" opacity="1" d="M 459.5 328 L 461.5 331 L 459.5 328 Z " /><path fill="rgb(244,200,152)" stroke="rgb(244,200,152)" stroke-width="1" opacity="1" d="M 114.5 330 L 115 332.5 L 114 332.5 L 114.5 330 Z " /><path fill="rgb(244,200,152)" stroke="rgb(244,200,152)" stroke-width="1" opacity="1" d="M 146.5 333 L 145.5 335 L 146.5 333 Z " /><path fill="rgb(244,200,152)" stroke="rgb(244,200,152)" stroke-width="1" opacity="1" d="M 356.5 334 L 357 336.5 L 356 336.5 L 356.5 334 Z " /><path fill="rgb(244,200,152)" stroke="rgb(244,200,152)" stroke-width="1" opacity="1" d="M 466.5 335 L 467.5 337 L 466.5 335 Z " /><path fill="rgb(244,200,152)" stroke="rgb(244,200,152)" stroke-width="1" opacity="1" d="M 113.5 341 L 114 344.5 L 113 344.5 L 113.5 341 Z " /><path fill="rgb(244,200,152)" stroke="rgb(244,200,152)" stroke-width="1" opacity="1" d="M 357.5 346 L 358 351.5 L 357 351.5 L 357.5 346 Z " /><path fill="rgb(244,200,152)" stroke="rgb(244,200,152)" stroke-width="1" opacity="1" d="M 433.5 358 L 434 361.5 L 433 361.5 L 433.5 358 Z " /><path fill="rgb(244,200,152)" stroke="rgb(244,200,152)" stroke-width="1" opacity="1" d="M 433.5 368 L 434 371.5 L 433 371.5 L 433.5 368 Z " /><path fill="rgb(244,200,152)" stroke="rgb(244,200,152)" stroke-width="1" opacity="1" d="M 357.5 371 L 358 375.5 L 357 375.5 L 357.5 371 Z " /><path fill="rgb(244,200,152)" stroke="rgb(244,200,152)" stroke-width="1" opacity="1" d="M 482.5 371 L 483 373.5 L 482 373.5 L 482.5 371 Z " /><path fill="rgb(244,200,152)" stroke="rgb(244,200,152)" stroke-width="1" opacity="1" d="M 113.5 377 L 114 380.5 L 113 380.5 L 113.5 377 Z " /><path fill="rgb(244,200,152)" stroke="rgb(244,200,152)" stroke-width="1" opacity="1" d="M 356.5 385 L 357 387.5 L 356 387.5 L 356.5 385 Z " /><path fill="rgb(244,200,152)" stroke="rgb(244,200,152)" stroke-width="1" opacity="1" d="M 464.5 431 L 463.5 433 L 464.5 431 Z " /><path fill="rgb(244,200,152)" stroke="rgb(244,200,152)" stroke-width="1" opacity="1" d="M 360.5 436 L 367 436.5 L 360.5 437 L 360.5 436 Z " /><path fill="rgb(244,200,152)" stroke="rgb(244,200,152)" stroke-width="1" opacity="1" d="M 370.5 436 L 374 436.5 L 370.5 437 L 370.5 436 Z " /><path fill="rgb(244,200,152)" stroke="rgb(244,200,152)" stroke-width="1" opacity="1" d="M 451.5 444 L 450.5 446 L 451.5 444 Z " /><path fill="rgb(244,200,152)" stroke="rgb(244,200,152)" stroke-width="1" opacity="1" d="M 154.5 454 L 155 457.5 L 154 457.5 L 154.5 454 Z " /><path fill="rgb(244,200,152)" stroke="rgb(244,200,152)" stroke-width="1" opacity="1" d="M 158.5 454 L 159 459.5 L 158 459.5 L 158.5 454 Z " /><path fill="rgb(244,200,152)" stroke="rgb(244,200,152)" stroke-width="1" opacity="1" d="M 139.5 455 L 140.5 457 L 139.5 455 Z " /><path fill="rgb(244,200,152)" stroke="rgb(244,200,152)" stroke-width="1" opacity="1" d="M 195.5 456 L 196 461.5 L 195 461.5 L 195.5 456 Z " /><path fill="rgb(244,200,152)" stroke="rgb(244,200,152)" stroke-width="1" opacity="1" d="M 199.5 456 L 200 459.5 L 199 459.5 L 199.5 456 Z " /><path fill="rgb(244,200,152)" stroke="rgb(244,200,152)" stroke-width="1" opacity="1" d="M 329.5 457 L 327.5 460 L 329.5 457 Z " /><path fill="rgb(244,200,152)" stroke="rgb(244,200,152)" stroke-width="1" opacity="1" d="M 316.5 458 L 317 460.5 L 316 460.5 L 316.5 458 Z " /><path fill="rgb(244,200,152)" stroke="rgb(244,200,152)" stroke-width="1" opacity="1" d="M 331.5 461 L 330 463.5 L 329.5 465 L 329 463.5 L 331.5 461 Z " /><path fill="rgb(244,200,152)" stroke="rgb(244,200,152)" stroke-width="1" opacity="1" d="M 324.5 462 L 322.5 465 L 324.5 462 Z " /><path fill="rgb(244,200,152)" stroke="rgb(244,200,152)" stroke-width="1" opacity="1" d="M 356.5 469 L 359 469.5 L 356.5 470 L 356.5 469 Z " /><path fill="rgb(244,200,152)" stroke="rgb(244,200,152)" stroke-width="1" opacity="1" d="M 388.5 469 L 391 469.5 L 388.5 470 L 388.5 469 Z " /><path fill="rgb(244,200,152)" stroke="rgb(244,200,152)" stroke-width="1" opacity="1" d="M 201.5 472 L 269 472.5 L 201.5 473 L 201.5 472 Z " /><path fill="rgb(244,200,152)" stroke="rgb(244,200,152)" stroke-width="1" opacity="1" d="M 273.5 475 L 274 478.5 L 273 478.5 L 273.5 475 Z " /><path fill="rgb(244,200,152)" stroke="rgb(244,200,152)" stroke-width="1" opacity="1" d="M 197.5 476 L 198 479.5 L 197 479.5 L 197.5 476 Z " /><path fill="rgb(244,200,152)" stroke="rgb(244,200,152)" stroke-width="1" opacity="1" d="M 151.5 482 L 152 488.5 L 151 488.5 L 151.5 482 Z " /><path fill="rgb(244,200,152)" stroke="rgb(244,200,152)" stroke-width="1" opacity="1" d="M 273.5 486 L 274 488.5 L 273 488.5 L 273.5 486 Z " /><path fill="rgb(244,200,152)" stroke="rgb(244,200,152)" stroke-width="1" opacity="1" d="M 152.5 492 L 153.5 494 L 152.5 492 Z " /><path fill="rgb(244,200,152)" stroke="rgb(244,200,152)" stroke-width="1" opacity="1" d="M 195.5 492 L 194.5 494 L 195.5 492 Z " /><path fill="rgb(244,200,152)" stroke="rgb(244,200,152)" stroke-width="1" opacity="1" d="M 165.5 497 L 169 497.5 L 165.5 498 L 165.5 497 Z " /><path fill="rgb(244,200,152)" stroke="rgb(244,200,152)" stroke-width="1" opacity="1" d="M 179.5 497 L 182 497.5 L 179.5 498 L 179.5 497 Z " /><path fill="rgb(244,200,152)" stroke="rgb(244,200,152)" stroke-width="1" opacity="1" d="M 302.5 497 L 305 497.5 L 302.5 498 L 302.5 497 Z " /></svg>