<svg width="512" height="512" version="1.1" xmlns="http://www.w3.org/2000/svg" desc="Created with imagetracer.js version 1.2.6" ><path fill="rgb(0,0,0)" stroke="rgb(0,0,0)" stroke-width="1" opacity="0" d="M 0 0 L 512 0 L 512 512 L 0 512 L 0 0 Z M 88 8 L 83 13 L 83 70 L 79 88 L 78 101 L 77 102 L 77 112 L 76 113 L 77 130 L 83 151 Q 92 169 106 182 L 84 225 L 70 265 L 61 306 L 59 330 L 58 331 L 58 343 L 57 344 L 57 371 L 58 372 L 58 384 L 59 385 L 61 404 L 70 433 L 84 457 L 99 471 L 100 471 L 97 485 L 99 497 L 107 502 L 115 504 L 138 504 L 146 502 L 151 499 L 155 492 L 155 479 L 156 478 L 226 478 L 225 480 L 225 489 L 227 496 L 232 500 L 243 504 L 266 504 L 280 499 L 283 491 L 283 483 L 280 471 L 284 469 L 289 469 L 309 474 L 333 475 L 334 476 L 339 475 L 354 475 L 355 474 L 367 473 L 388 467 L 408 457 L 425 444 Q 424 441 427 442 L 439 428 L 448 412 L 453 398 L 454 386 L 455 385 L 455 372 L 451 352 Q 446 337 437 327 Q 430 318 421 313 L 408 310 L 397 314 Q 391 318 390 326 L 390 335 L 394 356 L 393 374 L 390 386 Q 385 400 376 410 L 360 423 L 346 429 L 335 431 L 322 431 L 311 429 L 316 417 L 320 400 L 321 387 L 322 386 L 322 376 L 323 375 L 323 341 L 322 340 L 322 328 L 320 318 L 320 310 L 314 279 L 301 237 L 290 211 L 274 182 Q 288 170 296 154 L 301 141 L 304 124 L 304 110 L 303 109 L 302 93 L 297 69 L 297 13 L 296 11 L 293 8 L 286 8 L 256 33 L 230 25 L 210 23 L 209 22 L 172 22 L 163 24 L 156 24 L 142 27 L 126 33 L 105 16 Q 102 17 103 14 L 95 8 L 88 8 Z " /><path fill="rgb(218,219,210)" stroke="rgb(218,219,210)" stroke-width="1" opacity="1" d="M 89.5 12 L 88.5 14 L 89.5 12 Z " /><path fill="rgb(218,219,210)" stroke="rgb(218,219,210)" stroke-width="1" opacity="1" d="M 91.5 12 L 95 14.5 L 92.5 13 L 91.5 12 Z " /><path fill="rgb(218,219,210)" stroke="rgb(218,219,210)" stroke-width="1" opacity="1" d="M 286.5 13 L 284.5 16 L 286.5 13 Z " /><path fill="rgb(218,219,210)" stroke="rgb(218,219,210)" stroke-width="1" opacity="1" d="M 292.5 14 L 293 68.5 L 292 68.5 L 292.5 14 Z " /><path fill="rgb(218,219,210)" stroke="rgb(218,219,210)" stroke-width="1" opacity="1" d="M 87.5 15 L 88 69.5 L 87 69.5 L 87.5 15 Z " /><path fill="rgb(218,219,210)" stroke="rgb(218,219,210)" stroke-width="1" opacity="1" d="M 97.5 16 L 99.5 19 L 97.5 16 Z " /><path fill="rgb(218,219,210)" stroke="rgb(218,219,210)" stroke-width="1" opacity="1" d="M 281.5 17 L 279.5 20 L 281.5 17 Z " /><path fill="rgb(218,219,210)" stroke="rgb(218,219,210)" stroke-width="1" opacity="1" d="M 102.5 20 L 104.5 23 L 102.5 20 Z " /><path fill="rgb(218,219,210)" stroke="rgb(218,219,210)" stroke-width="1" opacity="1" d="M 276.5 21 L 274.5 24 L 276.5 21 Z " /><path fill="rgb(218,219,210)" stroke="rgb(218,219,210)" stroke-width="1" opacity="1" d="M 107.5 24 L 109.5 27 L 107.5 24 Z " /><path fill="rgb(218,219,210)" stroke="rgb(218,219,210)" stroke-width="1" opacity="1" d="M 271.5 25 L 269.5 28 L 271.5 25 Z " /><path fill="rgb(218,219,210)" stroke="rgb(218,219,210)" stroke-width="1" opacity="1" d="M 179.5 26 L 201 26.5 L 179.5 27 L 179.5 26 Z " /><path fill="rgb(218,219,210)" stroke="rgb(218,219,210)" stroke-width="1" opacity="1" d="M 166.5 27 L 171 27.5 L 166.5 28 L 166.5 27 Z " /><path fill="rgb(218,219,210)" stroke="rgb(218,219,210)" stroke-width="1" opacity="1" d="M 210.5 27 L 214 27.5 L 210.5 28 L 210.5 27 Z " /><path fill="rgb(218,219,210)" stroke="rgb(218,219,210)" stroke-width="1" opacity="1" d="M 112.5 28 L 114.5 31 L 112.5 28 Z " /><path fill="rgb(218,219,210)" stroke="rgb(218,219,210)" stroke-width="1" opacity="1" d="M 159.5 28 L 162 28.5 L 159.5 29 L 159.5 28 Z " /><path fill="rgb(218,219,210)" stroke="rgb(218,219,210)" stroke-width="1" opacity="1" d="M 218.5 28 L 221 28.5 L 218.5 29 L 218.5 28 Z " /><path fill="rgb(218,219,210)" stroke="rgb(218,219,210)" stroke-width="1" opacity="1" d="M 153.5 29 L 156 29.5 L 153.5 30 L 153.5 29 Z " /><path fill="rgb(218,219,210)" stroke="rgb(218,219,210)" stroke-width="1" opacity="1" d="M 266.5 29 L 264.5 32 L 266.5 29 Z " /><path fill="rgb(218,219,210)" stroke="rgb(218,219,210)" stroke-width="1" opacity="1" d="M 148.5 30 L 151 30.5 L 148.5 31 L 148.5 30 Z " /><path fill="rgb(218,219,210)" stroke="rgb(218,219,210)" stroke-width="1" opacity="1" d="M 117.5 32 L 119.5 35 L 117.5 32 Z " /><path fill="rgb(218,219,210)" stroke="rgb(218,219,210)" stroke-width="1" opacity="1" d="M 261.5 33 L 259.5 36 L 261.5 33 Z " /><path fill="rgb(218,219,210)" stroke="rgb(218,219,210)" stroke-width="1" opacity="1" d="M 122.5 36 L 126 37.5 L 123.5 38 L 122.5 36 Z " /><path fill="rgb(218,219,210)" stroke="rgb(218,219,210)" stroke-width="1" opacity="1" d="M 254.5 37 L 257 37.5 L 254.5 38 L 254.5 37 Z " /><path fill="rgb(218,219,210)" stroke="rgb(218,219,210)" stroke-width="1" opacity="1" d="M 85.5 78 L 86 80.5 L 85 80.5 L 85.5 78 Z " /><path fill="rgb(218,219,210)" stroke="rgb(218,219,210)" stroke-width="1" opacity="1" d="M 137.5 81 L 136.5 83 L 137.5 81 Z " /><path fill="rgb(218,219,210)" stroke="rgb(218,219,210)" stroke-width="1" opacity="1" d="M 234.5 81 L 232.5 84 L 234.5 81 Z " /><path fill="rgb(218,219,210)" stroke="rgb(218,219,210)" stroke-width="1" opacity="1" d="M 242.5 81 L 245 84.5 L 244 84.5 L 242.5 81 Z " /><path fill="rgb(218,219,210)" stroke="rgb(218,219,210)" stroke-width="1" opacity="1" d="M 84.5 84 L 85 86.5 L 84 86.5 L 84.5 84 Z " /><path fill="rgb(218,219,210)" stroke="rgb(218,219,210)" stroke-width="1" opacity="1" d="M 148.5 85 L 149 87.5 L 148 87.5 L 148.5 85 Z " /><path fill="rgb(218,219,210)" stroke="rgb(218,219,210)" stroke-width="1" opacity="1" d="M 296.5 89 L 297 91.5 L 296 91.5 L 296.5 89 Z " /><path fill="rgb(218,219,210)" stroke="rgb(218,219,210)" stroke-width="1" opacity="1" d="M 83.5 90 L 84 93.5 L 83 93.5 L 83.5 90 Z " /><path fill="rgb(218,219,210)" stroke="rgb(218,219,210)" stroke-width="1" opacity="1" d="M 136.5 90 L 138.5 93 L 136.5 90 Z " /><path fill="rgb(218,219,210)" stroke="rgb(218,219,210)" stroke-width="1" opacity="1" d="M 147.5 90 L 146.5 92 L 147.5 90 Z " /><path fill="rgb(218,219,210)" stroke="rgb(218,219,210)" stroke-width="1" opacity="1" d="M 297.5 96 L 298 98.5 L 297 98.5 L 297.5 96 Z " /><path fill="rgb(218,219,210)" stroke="rgb(218,219,210)" stroke-width="1" opacity="1" d="M 82.5 97 L 83 100.5 L 82 100.5 L 82.5 97 Z " /><path fill="rgb(218,219,210)" stroke="rgb(218,219,210)" stroke-width="1" opacity="1" d="M 298.5 104 L 299 107.5 L 298 107.5 L 298.5 104 Z " /><path fill="rgb(218,219,210)" stroke="rgb(218,219,210)" stroke-width="1" opacity="1" d="M 81.5 106 L 82 110.5 L 81 110.5 L 81.5 106 Z " /><path fill="rgb(218,219,210)" stroke="rgb(218,219,210)" stroke-width="1" opacity="1" d="M 185.5 107 L 195 107.5 L 185.5 108 L 185.5 107 Z " /><path fill="rgb(218,219,210)" stroke="rgb(218,219,210)" stroke-width="1" opacity="1" d="M 197.5 108 L 199.5 111 L 197.5 108 Z " /><path fill="rgb(218,219,210)" stroke="rgb(218,219,210)" stroke-width="1" opacity="1" d="M 181.5 109 L 180.5 111 L 181.5 109 Z " /><path fill="rgb(218,219,210)" stroke="rgb(218,219,210)" stroke-width="1" opacity="1" d="M 200.5 112 L 201 116.5 L 200 116.5 L 200.5 112 Z " /><path fill="rgb(218,219,210)" stroke="rgb(218,219,210)" stroke-width="1" opacity="1" d="M 181.5 121 L 182.5 123 L 181.5 121 Z " /><path fill="rgb(218,219,210)" stroke="rgb(218,219,210)" stroke-width="1" opacity="1" d="M 81.5 122 L 82 126.5 L 81 126.5 L 81.5 122 Z " /><path fill="rgb(218,219,210)" stroke="rgb(218,219,210)" stroke-width="1" opacity="1" d="M 197.5 123 L 193 128.5 L 192.5 137 L 192 128.5 L 197.5 123 Z " /><path fill="rgb(218,219,210)" stroke="rgb(218,219,210)" stroke-width="1" opacity="1" d="M 183.5 124 L 185.5 127 L 183.5 124 Z " /><path fill="rgb(218,219,210)" stroke="rgb(218,219,210)" stroke-width="1" opacity="1" d="M 298.5 125 L 299 128.5 L 298 128.5 L 298.5 125 Z " /><path fill="rgb(218,219,210)" stroke="rgb(218,219,210)" stroke-width="1" opacity="1" d="M 258.5 130 L 257.5 132 L 256 131.5 L 258.5 130 Z " /><path fill="rgb(218,219,210)" stroke="rgb(218,219,210)" stroke-width="1" opacity="1" d="M 226.5 135 L 228 135.5 L 225.5 137 L 226.5 135 Z " /><path fill="rgb(218,219,210)" stroke="rgb(218,219,210)" stroke-width="1" opacity="1" d="M 186.5 139 L 185.5 141 L 186.5 139 Z " /><path fill="rgb(218,219,210)" stroke="rgb(218,219,210)" stroke-width="1" opacity="1" d="M 189.5 142 L 192 143.5 L 190.5 143 L 187.5 145 L 189.5 142 Z " /><path fill="rgb(218,219,210)" stroke="rgb(218,219,210)" stroke-width="1" opacity="1" d="M 172.5 145 L 173.5 146 L 183 146.5 L 173.5 147 L 172.5 145 Z " /><path fill="rgb(218,219,210)" stroke="rgb(218,219,210)" stroke-width="1" opacity="1" d="M 197.5 146 L 207 146.5 L 197.5 147 L 197.5 146 Z " /><path fill="rgb(218,219,210)" stroke="rgb(218,219,210)" stroke-width="1" opacity="1" d="M 148.5 148 L 151 148.5 L 148.5 149 L 148.5 148 Z " /><path fill="rgb(218,219,210)" stroke="rgb(218,219,210)" stroke-width="1" opacity="1" d="M 229.5 148 L 232 148.5 L 229.5 149 L 229.5 148 Z " /><path fill="rgb(218,219,210)" stroke="rgb(218,219,210)" stroke-width="1" opacity="1" d="M 141.5 149 L 144 149.5 L 141.5 150 L 141.5 149 Z " /><path fill="rgb(218,219,210)" stroke="rgb(218,219,210)" stroke-width="1" opacity="1" d="M 236.5 149 L 239 149.5 L 236.5 150 L 236.5 149 Z " /><path fill="rgb(218,219,210)" stroke="rgb(218,219,210)" stroke-width="1" opacity="1" d="M 134.5 150 L 137 150.5 L 134.5 151 L 134.5 150 Z " /><path fill="rgb(218,219,210)" stroke="rgb(218,219,210)" stroke-width="1" opacity="1" d="M 243.5 150 L 247 150.5 L 243.5 151 L 243.5 150 Z " /><path fill="rgb(218,219,210)" stroke="rgb(218,219,210)" stroke-width="1" opacity="1" d="M 126.5 151 L 130 151.5 L 126.5 152 L 126.5 151 Z " /><path fill="rgb(218,219,210)" stroke="rgb(218,219,210)" stroke-width="1" opacity="1" d="M 225.5 151 L 229 152.5 L 226.5 153 L 225.5 151 Z " /><path fill="rgb(218,219,210)" stroke="rgb(218,219,210)" stroke-width="1" opacity="1" d="M 251.5 151 L 254 151.5 L 251.5 152 L 251.5 151 Z " /><path fill="rgb(218,219,210)" stroke="rgb(218,219,210)" stroke-width="1" opacity="1" d="M 151.5 152 L 154 152.5 L 151.5 153 L 151.5 152 Z " /><path fill="rgb(218,219,210)" stroke="rgb(218,219,210)" stroke-width="1" opacity="1" d="M 144.5 153 L 147 153.5 L 144.5 154 L 144.5 153 Z " /><path fill="rgb(218,219,210)" stroke="rgb(218,219,210)" stroke-width="1" opacity="1" d="M 233.5 153 L 236 153.5 L 233.5 154 L 233.5 153 Z " /><path fill="rgb(218,219,210)" stroke="rgb(218,219,210)" stroke-width="1" opacity="1" d="M 137.5 154 L 140 154.5 L 137.5 155 L 137.5 154 Z " /><path fill="rgb(218,219,210)" stroke="rgb(218,219,210)" stroke-width="1" opacity="1" d="M 240.5 154 L 243 154.5 L 240.5 155 L 240.5 154 Z " /><path fill="rgb(218,219,210)" stroke="rgb(218,219,210)" stroke-width="1" opacity="1" d="M 121.5 155 L 126 156.5 L 122.5 157 L 121.5 155 Z " /><path fill="rgb(218,219,210)" stroke="rgb(218,219,210)" stroke-width="1" opacity="1" d="M 130.5 155 L 133 155.5 L 130.5 156 L 130.5 155 Z " /><path fill="rgb(218,219,210)" stroke="rgb(218,219,210)" stroke-width="1" opacity="1" d="M 247.5 155 L 250 155.5 L 247.5 156 L 247.5 155 Z " /><path fill="rgb(218,219,210)" stroke="rgb(218,219,210)" stroke-width="1" opacity="1" d="M 91.5 156 L 92.5 158 L 91.5 156 Z " /><path fill="rgb(218,219,210)" stroke="rgb(218,219,210)" stroke-width="1" opacity="1" d="M 254.5 156 L 258 156.5 L 254.5 157 L 254.5 156 Z " /><path fill="rgb(218,219,210)" stroke="rgb(218,219,210)" stroke-width="1" opacity="1" d="M 179.5 160 L 182 160.5 L 179.5 161 L 179.5 160 Z " /><path fill="rgb(218,219,210)" stroke="rgb(218,219,210)" stroke-width="1" opacity="1" d="M 190.5 160 L 193 160.5 L 190.5 161 L 190.5 160 Z " /><path fill="rgb(218,219,210)" stroke="rgb(218,219,210)" stroke-width="1" opacity="1" d="M 94.5 161 L 95.5 163 L 94.5 161 Z " /><path fill="rgb(218,219,210)" stroke="rgb(218,219,210)" stroke-width="1" opacity="1" d="M 283.5 164 L 282.5 166 L 283.5 164 Z " /><path fill="rgb(218,219,210)" stroke="rgb(218,219,210)" stroke-width="1" opacity="1" d="M 97.5 165 L 99.5 168 L 97.5 165 Z " /><path fill="rgb(218,219,210)" stroke="rgb(218,219,210)" stroke-width="1" opacity="1" d="M 178.5 165 Q 189.4 163.6 196.5 166 Q 207.8 170.2 214 179.5 L 219 191.5 L 219 204.5 Q 216.7 215.7 209.5 222 L 162.5 222 L 158 217.5 Q 151.2 209.8 152 194.5 Q 154.9 178.9 165.5 171 L 178.5 165 Z " /><path fill="rgb(218,219,210)" stroke="rgb(218,219,210)" stroke-width="1" opacity="1" d="M 205.5 165 L 206.5 167 L 205.5 165 Z " /><path fill="rgb(218,219,210)" stroke="rgb(218,219,210)" stroke-width="1" opacity="1" d="M 164.5 166 L 163.5 168 L 164.5 166 Z " /><path fill="rgb(218,219,210)" stroke="rgb(218,219,210)" stroke-width="1" opacity="1" d="M 208.5 167 L 210.5 170 L 208.5 167 Z " /><path fill="rgb(218,219,210)" stroke="rgb(218,219,210)" stroke-width="1" opacity="1" d="M 161.5 168 L 155.5 175 L 161.5 168 Z " /><path fill="rgb(218,219,210)" stroke="rgb(218,219,210)" stroke-width="1" opacity="1" d="M 279.5 169 L 271.5 178 L 279.5 169 Z " /><path fill="rgb(218,219,210)" stroke="rgb(218,219,210)" stroke-width="1" opacity="1" d="M 102.5 171 L 105.5 175 L 102.5 171 Z " /><path fill="rgb(218,219,210)" stroke="rgb(218,219,210)" stroke-width="1" opacity="1" d="M 214.5 173 L 216.5 176 L 214.5 173 Z " /><path fill="rgb(218,219,210)" stroke="rgb(218,219,210)" stroke-width="1" opacity="1" d="M 154.5 176 L 153.5 178 L 154.5 176 Z " /><path fill="rgb(218,219,210)" stroke="rgb(218,219,210)" stroke-width="1" opacity="1" d="M 217.5 177 L 218.5 179 L 217.5 177 Z " /><path fill="rgb(218,219,210)" stroke="rgb(218,219,210)" stroke-width="1" opacity="1" d="M 110.5 178 L 112.5 181 L 110.5 178 Z " /><path fill="rgb(218,219,210)" stroke="rgb(218,219,210)" stroke-width="1" opacity="1" d="M 268.5 179 L 266.5 182 L 268.5 179 Z " /><path fill="rgb(218,219,210)" stroke="rgb(218,219,210)" stroke-width="1" opacity="1" d="M 114.5 181 L 115.5 183 L 114.5 181 Z " /><path fill="rgb(218,219,210)" stroke="rgb(218,219,210)" stroke-width="1" opacity="1" d="M 264.5 182 L 263.5 184 L 264.5 182 Z " /><path fill="rgb(218,219,210)" stroke="rgb(218,219,210)" stroke-width="1" opacity="1" d="M 117.5 183 L 118.5 185 L 117.5 183 Z " /><path fill="rgb(218,219,210)" stroke="rgb(218,219,210)" stroke-width="1" opacity="1" d="M 110.5 184 L 108.5 187 L 110.5 184 Z " /><path fill="rgb(218,219,210)" stroke="rgb(218,219,210)" stroke-width="1" opacity="1" d="M 269.5 184 L 271 184.5 L 268.5 186 L 269.5 184 Z " /><path fill="rgb(218,219,210)" stroke="rgb(218,219,210)" stroke-width="1" opacity="1" d="M 112.5 185 L 113.5 187 L 112.5 185 Z " /><path fill="rgb(218,219,210)" stroke="rgb(218,219,210)" stroke-width="1" opacity="1" d="M 266.5 186 L 265.5 188 L 266.5 186 Z " /><path fill="rgb(218,219,210)" stroke="rgb(218,219,210)" stroke-width="1" opacity="1" d="M 261.5 187 L 264 188.5 L 262.5 189 L 261.5 187 Z " /><path fill="rgb(218,219,210)" stroke="rgb(218,219,210)" stroke-width="1" opacity="1" d="M 223.5 192 L 224 195.5 L 223 195.5 L 223.5 192 Z " /><path fill="rgb(218,219,210)" stroke="rgb(218,219,210)" stroke-width="1" opacity="1" d="M 104.5 194 L 103.5 196 L 104.5 194 Z " /><path fill="rgb(218,219,210)" stroke="rgb(218,219,210)" stroke-width="1" opacity="1" d="M 147.5 195 L 148 201.5 L 147 201.5 L 147.5 195 Z " /><path fill="rgb(218,219,210)" stroke="rgb(218,219,210)" stroke-width="1" opacity="1" d="M 223.5 200 L 224 203.5 L 223 203.5 L 223.5 200 Z " /><path fill="rgb(218,219,210)" stroke="rgb(218,219,210)" stroke-width="1" opacity="1" d="M 217.5 219 L 216.5 221 L 217.5 219 Z " /><path fill="rgb(218,219,210)" stroke="rgb(218,219,210)" stroke-width="1" opacity="1" d="M 218.5 222 L 222 224.5 L 219.5 223 L 218.5 222 Z " /><path fill="rgb(218,219,210)" stroke="rgb(218,219,210)" stroke-width="1" opacity="1" d="M 154.5 226 L 216.5 226 L 218 227.5 L 218 248.5 L 216.5 250 L 154.5 250 L 153 248.5 L 153 227.5 L 154.5 226 Z " /><path fill="rgb(218,219,210)" stroke="rgb(218,219,210)" stroke-width="1" opacity="1" d="M 222.5 226 L 223 249.5 L 222 249.5 L 222.5 226 Z " /><path fill="rgb(218,219,210)" stroke="rgb(218,219,210)" stroke-width="1" opacity="1" d="M 148.5 228 L 149 248.5 L 148 248.5 L 148.5 228 Z " /><path fill="rgb(218,219,210)" stroke="rgb(218,219,210)" stroke-width="1" opacity="1" d="M 117.5 244 L 118.5 246 L 117.5 244 Z " /><path fill="rgb(218,219,210)" stroke="rgb(218,219,210)" stroke-width="1" opacity="1" d="M 271.5 245 L 273 247.5 L 270 249.5 L 272 246.5 L 271.5 245 Z " /><path fill="rgb(218,219,210)" stroke="rgb(218,219,210)" stroke-width="1" opacity="1" d="M 112.5 246 L 113.5 248 L 112.5 246 Z " /><path fill="rgb(218,219,210)" stroke="rgb(218,219,210)" stroke-width="1" opacity="1" d="M 120.5 246 L 121.5 248 L 120.5 246 Z " /><path fill="rgb(218,219,210)" stroke="rgb(218,219,210)" stroke-width="1" opacity="1" d="M 266.5 246 L 265.5 248 L 266.5 246 Z " /><path fill="rgb(218,219,210)" stroke="rgb(218,219,210)" stroke-width="1" opacity="1" d="M 115.5 248 L 116.5 250 L 115.5 248 Z " /><path fill="rgb(218,219,210)" stroke="rgb(218,219,210)" stroke-width="1" opacity="1" d="M 123.5 248 L 124.5 250 L 123.5 248 Z " /><path fill="rgb(218,219,210)" stroke="rgb(218,219,210)" stroke-width="1" opacity="1" d="M 263.5 248 L 262.5 250 L 263.5 248 Z " /><path fill="rgb(218,219,210)" stroke="rgb(218,219,210)" stroke-width="1" opacity="1" d="M 118.5 250 L 119.5 252 L 118.5 250 Z " /><path fill="rgb(218,219,210)" stroke="rgb(218,219,210)" stroke-width="1" opacity="1" d="M 260.5 250 L 259.5 252 L 260.5 250 Z " /><path fill="rgb(218,219,210)" stroke="rgb(218,219,210)" stroke-width="1" opacity="1" d="M 268.5 250 L 267.5 252 L 268.5 250 Z " /><path fill="rgb(218,219,210)" stroke="rgb(218,219,210)" stroke-width="1" opacity="1" d="M 127.5 251 L 128.5 253 L 127.5 251 Z " /><path fill="rgb(218,219,210)" stroke="rgb(218,219,210)" stroke-width="1" opacity="1" d="M 149.5 251 L 150.5 253 L 149.5 251 Z " /><path fill="rgb(218,219,210)" stroke="rgb(218,219,210)" stroke-width="1" opacity="1" d="M 221.5 251 L 219.5 254 L 221.5 251 Z " /><path fill="rgb(218,219,210)" stroke="rgb(218,219,210)" stroke-width="1" opacity="1" d="M 121.5 252 L 122.5 254 L 121.5 252 Z " /><path fill="rgb(218,219,210)" stroke="rgb(218,219,210)" stroke-width="1" opacity="1" d="M 257.5 252 L 256.5 254 L 257.5 252 Z " /><path fill="rgb(218,219,210)" stroke="rgb(218,219,210)" stroke-width="1" opacity="1" d="M 265.5 252 L 264.5 254 L 265.5 252 Z " /><path fill="rgb(218,219,210)" stroke="rgb(218,219,210)" stroke-width="1" opacity="1" d="M 131.5 254 L 132.5 256 L 131.5 254 Z " /><path fill="rgb(218,219,210)" stroke="rgb(218,219,210)" stroke-width="1" opacity="1" d="M 161.5 254 L 162 258.5 L 161 258.5 L 161.5 254 Z " /><path fill="rgb(218,219,210)" stroke="rgb(218,219,210)" stroke-width="1" opacity="1" d="M 166 254 L 205.5 254 L 206 256.5 L 205 257.5 L 205 269.5 L 204 270.5 L 204 283.5 L 196 293.5 L 196 302.5 L 201 313.5 L 201 325.5 L 200 326.5 L 199 350.5 L 196.5 354 L 193.5 355 L 177.5 355 L 173 351.5 Q 170.7 344.8 172 334.5 L 171 330 L 176 326.5 L 187 308.5 Q 190.1 303.1 189 293.5 L 183.5 287 L 167 278.5 L 166 254 Z " /><path fill="rgb(218,219,210)" stroke="rgb(218,219,210)" stroke-width="1" opacity="1" d="M 254.5 254 L 253.5 256 L 254.5 254 Z " /><path fill="rgb(218,219,210)" stroke="rgb(218,219,210)" stroke-width="1" opacity="1" d="M 262.5 254 L 261.5 256 L 262.5 254 Z " /><path fill="rgb(218,219,210)" stroke="rgb(218,219,210)" stroke-width="1" opacity="1" d="M 125.5 255 L 126.5 257 L 125.5 255 Z " /><path fill="rgb(218,219,210)" stroke="rgb(218,219,210)" stroke-width="1" opacity="1" d="M 134.5 256 L 136.5 259 L 134.5 256 Z " /><path fill="rgb(218,219,210)" stroke="rgb(218,219,210)" stroke-width="1" opacity="1" d="M 259.5 256 L 258.5 258 L 259.5 256 Z " /><path fill="rgb(218,219,210)" stroke="rgb(218,219,210)" stroke-width="1" opacity="1" d="M 209.5 257 L 210 262.5 L 209 262.5 L 209.5 257 Z " /><path fill="rgb(218,219,210)" stroke="rgb(218,219,210)" stroke-width="1" opacity="1" d="M 250.5 257 L 249.5 259 L 250.5 257 Z " /><path fill="rgb(218,219,210)" stroke="rgb(218,219,210)" stroke-width="1" opacity="1" d="M 129.5 258 L 130.5 260 L 129.5 258 Z " /><path fill="rgb(218,219,210)" stroke="rgb(218,219,210)" stroke-width="1" opacity="1" d="M 256.5 258 L 255.5 260 L 256.5 258 Z " /><path fill="rgb(218,219,210)" stroke="rgb(218,219,210)" stroke-width="1" opacity="1" d="M 138.5 259 L 140.5 262 L 138.5 259 Z " /><path fill="rgb(218,219,210)" stroke="rgb(218,219,210)" stroke-width="1" opacity="1" d="M 247.5 259 L 246.5 261 L 247.5 259 Z " /><path fill="rgb(218,219,210)" stroke="rgb(218,219,210)" stroke-width="1" opacity="1" d="M 132.5 260 L 134.5 263 L 132.5 260 Z " /><path fill="rgb(218,219,210)" stroke="rgb(218,219,210)" stroke-width="1" opacity="1" d="M 252.5 261 L 251.5 263 L 252.5 261 Z " /><path fill="rgb(218,219,210)" stroke="rgb(218,219,210)" stroke-width="1" opacity="1" d="M 142.5 262 L 144.5 265 L 142.5 262 Z " /><path fill="rgb(218,219,210)" stroke="rgb(218,219,210)" stroke-width="1" opacity="1" d="M 243.5 262 L 242.5 264 L 243.5 262 Z " /><path fill="rgb(218,219,210)" stroke="rgb(218,219,210)" stroke-width="1" opacity="1" d="M 249.5 263 L 248.5 265 L 249.5 263 Z " /><path fill="rgb(218,219,210)" stroke="rgb(218,219,210)" stroke-width="1" opacity="1" d="M 137.5 264 L 138.5 266 L 137.5 264 Z " /><path fill="rgb(218,219,210)" stroke="rgb(218,219,210)" stroke-width="1" opacity="1" d="M 240.5 264 L 239.5 266 L 240.5 264 Z " /><path fill="rgb(218,219,210)" stroke="rgb(218,219,210)" stroke-width="1" opacity="1" d="M 162.5 266 L 163 271.5 L 162 271.5 L 162.5 266 Z " /><path fill="rgb(218,219,210)" stroke="rgb(218,219,210)" stroke-width="1" opacity="1" d="M 245.5 266 L 244.5 268 L 245.5 266 Z " /><path fill="rgb(218,219,210)" stroke="rgb(218,219,210)" stroke-width="1" opacity="1" d="M 141.5 267 L 142.5 269 L 141.5 267 Z " /><path fill="rgb(218,219,210)" stroke="rgb(218,219,210)" stroke-width="1" opacity="1" d="M 236.5 267 L 235.5 269 L 236.5 267 Z " /><path fill="rgb(218,219,210)" stroke="rgb(218,219,210)" stroke-width="1" opacity="1" d="M 150.5 268 L 151.5 270 L 150.5 268 Z " /><path fill="rgb(218,219,210)" stroke="rgb(218,219,210)" stroke-width="1" opacity="1" d="M 233.5 269 L 232.5 271 L 233.5 269 Z " /><path fill="rgb(218,219,210)" stroke="rgb(218,219,210)" stroke-width="1" opacity="1" d="M 145.5 270 L 146.5 272 L 145.5 270 Z " /><path fill="rgb(218,219,210)" stroke="rgb(218,219,210)" stroke-width="1" opacity="1" d="M 153.5 270 L 154.5 272 L 153.5 270 Z " /><path fill="rgb(218,219,210)" stroke="rgb(218,219,210)" stroke-width="1" opacity="1" d="M 208.5 271 L 209 276.5 L 208 276.5 L 208.5 271 Z " /><path fill="rgb(218,219,210)" stroke="rgb(218,219,210)" stroke-width="1" opacity="1" d="M 238.5 271 L 237.5 273 L 238.5 271 Z " /><path fill="rgb(218,219,210)" stroke="rgb(218,219,210)" stroke-width="1" opacity="1" d="M 148.5 272 L 149.5 274 L 148.5 272 Z " /><path fill="rgb(218,219,210)" stroke="rgb(218,219,210)" stroke-width="1" opacity="1" d="M 156.5 272 L 157.5 274 L 156.5 272 Z " /><path fill="rgb(218,219,210)" stroke="rgb(218,219,210)" stroke-width="1" opacity="1" d="M 235.5 273 L 234.5 275 L 235.5 273 Z " /><path fill="rgb(218,219,210)" stroke="rgb(218,219,210)" stroke-width="1" opacity="1" d="M 151.5 274 L 152.5 276 L 151.5 274 Z " /><path fill="rgb(218,219,210)" stroke="rgb(218,219,210)" stroke-width="1" opacity="1" d="M 225.5 274 L 224.5 276 L 225.5 274 Z " /><path fill="rgb(218,219,210)" stroke="rgb(218,219,210)" stroke-width="1" opacity="1" d="M 154.5 276 L 155.5 278 L 154.5 276 Z " /><path fill="rgb(218,219,210)" stroke="rgb(218,219,210)" stroke-width="1" opacity="1" d="M 230.5 276 L 229.5 278 L 230.5 276 Z " /><path fill="rgb(218,219,210)" stroke="rgb(218,219,210)" stroke-width="1" opacity="1" d="M 218.5 278 L 217.5 280 L 216 279.5 L 218.5 278 Z " /><path fill="rgb(218,219,210)" stroke="rgb(218,219,210)" stroke-width="1" opacity="1" d="M 159.5 279 L 160.5 281 L 159.5 279 Z " /><path fill="rgb(218,219,210)" stroke="rgb(218,219,210)" stroke-width="1" opacity="1" d="M 164.5 282 L 167 283.5 L 165.5 284 L 164.5 282 Z " /><path fill="rgb(218,219,210)" stroke="rgb(218,219,210)" stroke-width="1" opacity="1" d="M 88.5 285 L 91 285.5 L 87.5 287 L 88.5 285 Z " /><path fill="rgb(218,219,210)" stroke="rgb(218,219,210)" stroke-width="1" opacity="1" d="M 289.5 285 L 292 285.5 L 289.5 286 L 289.5 285 Z " /><path fill="rgb(218,219,210)" stroke="rgb(218,219,210)" stroke-width="1" opacity="1" d="M 179.5 289 L 180.5 291 L 179.5 289 Z " /><path fill="rgb(218,219,210)" stroke="rgb(218,219,210)" stroke-width="1" opacity="1" d="M 280.5 289 L 279.5 291 L 278 290.5 L 280.5 289 Z " /><path fill="rgb(218,219,210)" stroke="rgb(218,219,210)" stroke-width="1" opacity="1" d="M 311.5 290 L 317 320.5 L 317 329.5 L 318 330.5 L 319 369.5 L 318 370.5 L 318 381.5 L 317 382.5 L 315 401.5 L 308 425.5 L 295 450.5 L 279.5 467 L 277.5 468 Q 273.8 462.5 275 453 L 271 453 L 271 462.5 L 278 479.5 L 278 493.5 L 268.5 499 L 247.5 500 L 237.5 498 L 231 493.5 L 230 491.5 L 230 473.5 L 233 458.5 Q 230.5 453.5 228 458.5 L 227 470.5 L 226 473 L 154.5 473 L 154 471.5 L 153 470.5 L 153 460.5 L 152 455 L 148 456.5 L 149 471.5 L 151 478.5 L 151 488.5 L 146.5 496 L 133.5 500 L 117.5 500 L 108.5 498 L 103 494.5 L 102 492.5 L 102 480.5 Q 103.3 472.3 108 467.5 L 109 453 L 105 454.5 Q 106.3 463.8 102.5 468 L 90 456.5 Q 75 438.5 68 412.5 L 63 388.5 L 61 349.5 L 62 348.5 L 63 322.5 L 68.5 291 L 69 295.5 L 68 296.5 L 67 321.5 L 66 322.5 L 66 348.5 L 67 349.5 L 67 361.5 L 68 362.5 L 69 376.5 L 73 394.5 L 78 409.5 L 92 434.5 L 104.5 447 L 113.5 452 L 122.5 454 L 258.5 454 Q 276.5 451 285 438.5 Q 294.5 427 301 412.5 L 310 383.5 L 312 365.5 L 313 364.5 L 313 354.5 L 314 353.5 L 314 316.5 L 313 315.5 L 313 304.5 L 312 303.5 L 311.5 290 Z " /><path fill="rgb(218,219,210)" stroke="rgb(218,219,210)" stroke-width="1" opacity="1" d="M 202.5 291 L 201.5 293 L 202.5 291 Z " /><path fill="rgb(218,219,210)" stroke="rgb(218,219,210)" stroke-width="1" opacity="1" d="M 255.5 301 L 254.5 303 L 255.5 301 Z " /><path fill="rgb(218,219,210)" stroke="rgb(218,219,210)" stroke-width="1" opacity="1" d="M 132.5 303 L 133.5 305 L 132.5 303 Z " /><path fill="rgb(218,219,210)" stroke="rgb(218,219,210)" stroke-width="1" opacity="1" d="M 257.5 305 L 256.5 307 L 257.5 305 Z " /><path fill="rgb(218,219,210)" stroke="rgb(218,219,210)" stroke-width="1" opacity="1" d="M 130.5 307 L 131.5 309 L 130.5 307 Z " /><path fill="rgb(218,219,210)" stroke="rgb(218,219,210)" stroke-width="1" opacity="1" d="M 138.5 307 L 139.5 309 L 138.5 307 Z " /><path fill="rgb(218,219,210)" stroke="rgb(218,219,210)" stroke-width="1" opacity="1" d="M 246.5 307 L 245.5 309 L 246.5 307 Z " /><path fill="rgb(218,219,210)" stroke="rgb(218,219,210)" stroke-width="1" opacity="1" d="M 133.5 309 L 134.5 311 L 133.5 309 Z " /><path fill="rgb(218,219,210)" stroke="rgb(218,219,210)" stroke-width="1" opacity="1" d="M 141.5 309 L 143.5 312 L 141.5 309 Z " /><path fill="rgb(218,219,210)" stroke="rgb(218,219,210)" stroke-width="1" opacity="1" d="M 243.5 309 L 242.5 311 L 243.5 309 Z " /><path fill="rgb(218,219,210)" stroke="rgb(218,219,210)" stroke-width="1" opacity="1" d="M 136.5 311 L 137.5 313 L 136.5 311 Z " /><path fill="rgb(218,219,210)" stroke="rgb(218,219,210)" stroke-width="1" opacity="1" d="M 248.5 311 L 247.5 313 L 248.5 311 Z " /><path fill="rgb(218,219,210)" stroke="rgb(218,219,210)" stroke-width="1" opacity="1" d="M 239.5 312 L 237.5 315 L 239.5 312 Z " /><path fill="rgb(218,219,210)" stroke="rgb(218,219,210)" stroke-width="1" opacity="1" d="M 146.5 313 L 147.5 315 L 146.5 313 Z " /><path fill="rgb(218,219,210)" stroke="rgb(218,219,210)" stroke-width="1" opacity="1" d="M 245.5 313 L 243.5 316 L 245.5 313 Z " /><path fill="rgb(218,219,210)" stroke="rgb(218,219,210)" stroke-width="1" opacity="1" d="M 140.5 314 L 141.5 316 L 140.5 314 Z " /><path fill="rgb(218,219,210)" stroke="rgb(218,219,210)" stroke-width="1" opacity="1" d="M 178.5 315 L 177.5 317 L 178.5 315 Z " /><path fill="rgb(218,219,210)" stroke="rgb(218,219,210)" stroke-width="1" opacity="1" d="M 404.5 315 L 407 315.5 L 404.5 316 L 404.5 315 Z " /><path fill="rgb(218,219,210)" stroke="rgb(218,219,210)" stroke-width="1" opacity="1" d="M 409.5 315 Q 417 315.5 421.5 319 L 436 332.5 L 447 353.5 L 450 367.5 L 450 388.5 Q 442.6 425.1 417.5 444 Q 400.2 458.7 375.5 466 L 348.5 471 L 323.5 471 L 322.5 470 L 312.5 470 L 311.5 469 L 300.5 468 L 288 464.5 L 292 461.5 Q 288.3 463.3 291.5 465 L 324 466 L 329 452.5 L 330 438.5 L 329 436 L 321 435.5 L 339.5 435 L 349.5 432 L 349 433.5 L 350 443.5 L 349 444.5 L 348 458.5 L 346 462.5 L 348.5 463 Q 371.6 457.9 388 447 Q 387.1 427.1 375.5 417 L 371 420.5 Q 381.5 413 387.5 401 Q 401 411.9 405 431 L 413 424.5 L 427 401.5 L 430 392.5 L 430 388.5 Q 419.6 373.5 398 371 L 397.5 374 L 397 371.5 L 398 370.5 L 398 351 Q 418.7 352.5 431.5 363 L 432 356.5 Q 426.9 330.6 410.5 316 L 409.5 315 Z " /><path fill="rgb(218,219,210)" stroke="rgb(218,219,210)" stroke-width="1" opacity="1" d="M 236.5 316 L 235.5 318 L 236.5 316 Z " /><path fill="rgb(218,219,210)" stroke="rgb(218,219,210)" stroke-width="1" opacity="1" d="M 401.5 316 L 400.5 318 L 401.5 316 Z " /><path fill="rgb(218,219,210)" stroke="rgb(218,219,210)" stroke-width="1" opacity="1" d="M 176.5 318 L 175.5 320 L 176.5 318 Z " /><path fill="rgb(218,219,210)" stroke="rgb(218,219,210)" stroke-width="1" opacity="1" d="M 150.5 319 L 155.5 325 L 150.5 319 Z " /><path fill="rgb(218,219,210)" stroke="rgb(218,219,210)" stroke-width="1" opacity="1" d="M 234.5 319 L 230.5 324 L 234.5 319 Z " /><path fill="rgb(218,219,210)" stroke="rgb(218,219,210)" stroke-width="1" opacity="1" d="M 145.5 320 L 147.5 323 L 145.5 320 Z " /><path fill="rgb(218,219,210)" stroke="rgb(218,219,210)" stroke-width="1" opacity="1" d="M 397.5 320 L 396.5 322 L 397.5 320 Z " /><path fill="rgb(218,219,210)" stroke="rgb(218,219,210)" stroke-width="1" opacity="1" d="M 174.5 321 L 168.5 328 L 174.5 321 Z " /><path fill="rgb(218,219,210)" stroke="rgb(218,219,210)" stroke-width="1" opacity="1" d="M 210.5 321 L 216.5 328 L 210.5 321 Z " /><path fill="rgb(218,219,210)" stroke="rgb(218,219,210)" stroke-width="1" opacity="1" d="M 238.5 321 L 231.5 329 L 238.5 321 Z " /><path fill="rgb(218,219,210)" stroke="rgb(218,219,210)" stroke-width="1" opacity="1" d="M 206.5 323 L 207.5 325 L 206.5 323 Z " /><path fill="rgb(218,219,210)" stroke="rgb(218,219,210)" stroke-width="1" opacity="1" d="M 157.5 325 L 158.5 327 L 157.5 325 Z " /><path fill="rgb(218,219,210)" stroke="rgb(218,219,210)" stroke-width="1" opacity="1" d="M 151.5 326 L 153.5 329 L 151.5 326 Z " /><path fill="rgb(218,219,210)" stroke="rgb(218,219,210)" stroke-width="1" opacity="1" d="M 204.5 326 L 205 331.5 L 204 331.5 L 204.5 326 Z " /><path fill="rgb(218,219,210)" stroke="rgb(218,219,210)" stroke-width="1" opacity="1" d="M 155.5 329 L 156.5 331 L 155.5 329 Z " /><path fill="rgb(218,219,210)" stroke="rgb(218,219,210)" stroke-width="1" opacity="1" d="M 213.5 330 L 214.5 332 L 213.5 330 Z " /><path fill="rgb(218,219,210)" stroke="rgb(218,219,210)" stroke-width="1" opacity="1" d="M 167.5 335 L 168 340.5 L 167 340.5 L 167.5 335 Z " /><path fill="rgb(218,219,210)" stroke="rgb(218,219,210)" stroke-width="1" opacity="1" d="M 203.5 340 L 204 345.5 L 203 345.5 L 203.5 340 Z " /><path fill="rgb(218,219,210)" stroke="rgb(218,219,210)" stroke-width="1" opacity="1" d="M 397.5 347 L 398 349.5 L 397 349.5 L 397.5 347 Z " /><path fill="rgb(218,219,210)" stroke="rgb(218,219,210)" stroke-width="1" opacity="1" d="M 168.5 349 L 169 351.5 L 168 351.5 L 168.5 349 Z " /><path fill="rgb(218,219,210)" stroke="rgb(218,219,210)" stroke-width="1" opacity="1" d="M 201.5 354 L 198.5 358 L 201.5 354 Z " /><path fill="rgb(218,219,210)" stroke="rgb(218,219,210)" stroke-width="1" opacity="1" d="M 170.5 355 L 171.5 357 L 170.5 355 Z " /><path fill="rgb(218,219,210)" stroke="rgb(218,219,210)" stroke-width="1" opacity="1" d="M 368.5 422 L 367.5 424 L 368.5 422 Z " /><path fill="rgb(218,219,210)" stroke="rgb(218,219,210)" stroke-width="1" opacity="1" d="M 365.5 424 L 364.5 426 L 365.5 424 Z " /><path fill="rgb(218,219,210)" stroke="rgb(218,219,210)" stroke-width="1" opacity="1" d="M 305.5 441 L 304.5 443 L 305.5 441 Z " /><path fill="rgb(218,219,210)" stroke="rgb(218,219,210)" stroke-width="1" opacity="1" d="M 298.5 452 L 297.5 454 L 298.5 452 Z " /><path fill="rgb(218,219,210)" stroke="rgb(218,219,210)" stroke-width="1" opacity="1" d="M 296.5 455 L 294.5 458 L 296.5 455 Z " /><path fill="rgb(233,233,233)" stroke="rgb(233,233,233)" stroke-width="1" opacity="1" d="M 233.5 91 L 234.5 93 L 233.5 91 Z " /><path fill="rgb(233,233,233)" stroke="rgb(233,233,233)" stroke-width="1" opacity="1" d="M 243.5 91 L 242.5 93 L 243.5 91 Z " /><path fill="rgb(233,233,233)" stroke="rgb(233,233,233)" stroke-width="1" opacity="1" d="M 194.5 139 L 195.5 141 L 194.5 139 Z " /><path fill="rgb(233,233,233)" stroke="rgb(233,233,233)" stroke-width="1" opacity="1" d="M 281.5 166 L 280.5 168 L 281.5 166 Z " /><path fill="rgb(233,233,233)" stroke="rgb(233,233,233)" stroke-width="1" opacity="1" d="M 100.5 168 L 101.5 170 L 100.5 168 Z " /><path fill="rgb(233,233,233)" stroke="rgb(233,233,233)" stroke-width="1" opacity="1" d="M 212.5 170 L 213.5 172 L 212.5 170 Z " /><path fill="rgb(233,233,233)" stroke="rgb(233,233,233)" stroke-width="1" opacity="1" d="M 108.5 176 L 109.5 178 L 108.5 176 Z " /><path fill="rgb(233,233,233)" stroke="rgb(233,233,233)" stroke-width="1" opacity="1" d="M 70.5 284 L 71 286.5 L 70 286.5 L 70.5 284 Z " /><path fill="rgb(233,233,233)" stroke="rgb(233,233,233)" stroke-width="1" opacity="1" d="M 292.5 285 L 293.5 287 L 292.5 285 Z " /><path fill="rgb(233,233,233)" stroke="rgb(233,233,233)" stroke-width="1" opacity="1" d="M 310.5 288 L 311 292.5 L 310 292.5 L 310.5 288 Z " /><path fill="rgb(233,233,233)" stroke="rgb(233,233,233)" stroke-width="1" opacity="1" d="M 69.5 289 L 70 294.5 L 69 294.5 L 69.5 289 Z " /><path fill="rgb(233,233,233)" stroke="rgb(233,233,233)" stroke-width="1" opacity="1" d="M 311.5 295 L 312 300.5 L 311 300.5 L 311.5 295 Z " /><path fill="rgb(233,233,233)" stroke="rgb(233,233,233)" stroke-width="1" opacity="1" d="M 68.5 296 L 69 303.5 L 68 303.5 L 68.5 296 Z " /><path fill="rgb(233,233,233)" stroke="rgb(233,233,233)" stroke-width="1" opacity="1" d="M 312.5 304 L 313 312.5 L 312 312.5 L 312.5 304 Z " /><path fill="rgb(233,233,233)" stroke="rgb(233,233,233)" stroke-width="1" opacity="1" d="M 67.5 306 L 68 317.5 L 67 317.5 L 67.5 306 Z " /><path fill="rgb(233,233,233)" stroke="rgb(233,233,233)" stroke-width="1" opacity="1" d="M 142.5 316 L 143.5 318 L 142.5 316 Z " /><path fill="rgb(233,233,233)" stroke="rgb(233,233,233)" stroke-width="1" opacity="1" d="M 313.5 316 L 314 353.5 L 313 353.5 L 313.5 316 Z " /><path fill="rgb(233,233,233)" stroke="rgb(233,233,233)" stroke-width="1" opacity="1" d="M 410.5 316 L 421 328.5 L 419 327.5 L 410.5 316 Z " /><path fill="rgb(233,233,233)" stroke="rgb(233,233,233)" stroke-width="1" opacity="1" d="M 399.5 318 L 398.5 320 L 399.5 318 Z " /><path fill="rgb(233,233,233)" stroke="rgb(233,233,233)" stroke-width="1" opacity="1" d="M 66.5 322 L 67 348.5 L 66 348.5 L 66.5 322 Z " /><path fill="rgb(233,233,233)" stroke="rgb(233,233,233)" stroke-width="1" opacity="1" d="M 148.5 324 L 149.5 326 L 148.5 324 Z " /><path fill="rgb(233,233,233)" stroke="rgb(233,233,233)" stroke-width="1" opacity="1" d="M 208.5 326 L 211.5 330 L 208.5 326 Z " /><path fill="rgb(233,233,233)" stroke="rgb(233,233,233)" stroke-width="1" opacity="1" d="M 421.5 330 L 428 343.5 L 427 343.5 L 421.5 330 Z " /><path fill="rgb(233,233,233)" stroke="rgb(233,233,233)" stroke-width="1" opacity="1" d="M 429.5 348 L 432 356.5 L 432 361.5 L 431 361.5 L 429.5 348 Z " /><path fill="rgb(233,233,233)" stroke="rgb(233,233,233)" stroke-width="1" opacity="1" d="M 398.5 350 L 401 350.5 L 398.5 351 L 398.5 350 Z " /><path fill="rgb(233,233,233)" stroke="rgb(233,233,233)" stroke-width="1" opacity="1" d="M 67.5 352 L 68 361.5 L 67 361.5 L 67.5 352 Z " /><path fill="rgb(233,233,233)" stroke="rgb(233,233,233)" stroke-width="1" opacity="1" d="M 312.5 356 L 313 364.5 L 312 364.5 L 312.5 356 Z " /><path fill="rgb(233,233,233)" stroke="rgb(233,233,233)" stroke-width="1" opacity="1" d="M 68.5 363 L 69 369.5 L 68 369.5 L 68.5 363 Z " /><path fill="rgb(233,233,233)" stroke="rgb(233,233,233)" stroke-width="1" opacity="1" d="M 311.5 366 L 312 371.5 L 311 371.5 L 311.5 366 Z " /><path fill="rgb(233,233,233)" stroke="rgb(233,233,233)" stroke-width="1" opacity="1" d="M 69.5 372 L 71 381.5 L 70 381.5 L 69.5 372 Z " /><path fill="rgb(233,233,233)" stroke="rgb(233,233,233)" stroke-width="1" opacity="1" d="M 310.5 374 L 311 377.5 L 310 377.5 L 310.5 374 Z " /><path fill="rgb(233,233,233)" stroke="rgb(233,233,233)" stroke-width="1" opacity="1" d="M 412.5 375 L 415 376.5 L 413.5 376 L 412.5 375 Z " /><path fill="rgb(233,233,233)" stroke="rgb(233,233,233)" stroke-width="1" opacity="1" d="M 418.5 378 L 419.5 380 L 418.5 378 Z " /><path fill="rgb(233,233,233)" stroke="rgb(233,233,233)" stroke-width="1" opacity="1" d="M 309.5 379 L 310 383.5 L 307.5 392 L 307 388.5 L 309.5 379 Z " /><path fill="rgb(233,233,233)" stroke="rgb(233,233,233)" stroke-width="1" opacity="1" d="M 421.5 380 L 424.5 384 L 421.5 380 Z " /><path fill="rgb(233,233,233)" stroke="rgb(233,233,233)" stroke-width="1" opacity="1" d="M 71.5 383 L 72 386.5 L 71 386.5 L 71.5 383 Z " /><path fill="rgb(233,233,233)" stroke="rgb(233,233,233)" stroke-width="1" opacity="1" d="M 426.5 385 L 429.5 389 L 426.5 385 Z " /><path fill="rgb(233,233,233)" stroke="rgb(233,233,233)" stroke-width="1" opacity="1" d="M 72.5 388 L 73 390.5 L 72 390.5 L 72.5 388 Z " /><path fill="rgb(233,233,233)" stroke="rgb(233,233,233)" stroke-width="1" opacity="1" d="M 73.5 392 L 77 403.5 L 76 403.5 L 73 394.5 L 73.5 392 Z " /><path fill="rgb(233,233,233)" stroke="rgb(233,233,233)" stroke-width="1" opacity="1" d="M 306.5 393 L 307 395.5 L 301 412.5 L 294.5 424 L 295 422.5 Q 302.4 409.4 306.5 393 Z " /><path fill="rgb(233,233,233)" stroke="rgb(233,233,233)" stroke-width="1" opacity="1" d="M 428.5 394 L 429 396.5 L 427.5 399 L 427 397.5 L 428.5 394 Z " /><path fill="rgb(233,233,233)" stroke="rgb(233,233,233)" stroke-width="1" opacity="1" d="M 426.5 400 L 427 401.5 L 424.5 406 L 424 404.5 L 426.5 400 Z " /><path fill="rgb(233,233,233)" stroke="rgb(233,233,233)" stroke-width="1" opacity="1" d="M 388.5 401 L 393.5 407 L 388.5 401 Z " /><path fill="rgb(233,233,233)" stroke="rgb(233,233,233)" stroke-width="1" opacity="1" d="M 77.5 405 L 82 415.5 L 81 415.5 L 77.5 405 Z " /><path fill="rgb(233,233,233)" stroke="rgb(233,233,233)" stroke-width="1" opacity="1" d="M 423.5 407 L 423 408.5 L 420.5 413 L 421 411.5 L 423.5 407 Z " /><path fill="rgb(233,233,233)" stroke="rgb(233,233,233)" stroke-width="1" opacity="1" d="M 394.5 408 L 396.5 411 L 394.5 408 Z " /><path fill="rgb(233,233,233)" stroke="rgb(233,233,233)" stroke-width="1" opacity="1" d="M 398.5 414 L 399.5 416 L 398.5 414 Z " /><path fill="rgb(233,233,233)" stroke="rgb(233,233,233)" stroke-width="1" opacity="1" d="M 419.5 414 L 419 415.5 L 406.5 431 Q 404.3 431.8 405 429.5 L 406.5 430 L 412 424.5 L 419.5 414 Z " /><path fill="rgb(233,233,233)" stroke="rgb(233,233,233)" stroke-width="1" opacity="1" d="M 376.5 418 L 378.5 421 L 376.5 418 Z " /><path fill="rgb(233,233,233)" stroke="rgb(233,233,233)" stroke-width="1" opacity="1" d="M 83.5 419 Q 91.5 435.5 105 446.5 L 92 434.5 L 83.5 419 Z " /><path fill="rgb(233,233,233)" stroke="rgb(233,233,233)" stroke-width="1" opacity="1" d="M 379.5 422 L 380.5 424 L 379.5 422 Z " /><path fill="rgb(233,233,233)" stroke="rgb(233,233,233)" stroke-width="1" opacity="1" d="M 293.5 425 L 293 426.5 Q 287.3 438.3 277.5 446 L 270.5 450 L 271.5 448 L 282 440.5 L 293.5 425 Z " /><path fill="rgb(233,233,233)" stroke="rgb(233,233,233)" stroke-width="1" opacity="1" d="M 382.5 427 L 384 429.5 L 383 429.5 L 382.5 427 Z " /><path fill="rgb(233,233,233)" stroke="rgb(233,233,233)" stroke-width="1" opacity="1" d="M 349.5 434 L 350 439.5 L 349 439.5 L 349.5 434 Z " /><path fill="rgb(233,233,233)" stroke="rgb(233,233,233)" stroke-width="1" opacity="1" d="M 329.5 438 L 330 445.5 L 329 445.5 L 329.5 438 Z " /><path fill="rgb(233,233,233)" stroke="rgb(233,233,233)" stroke-width="1" opacity="1" d="M 387.5 441 L 388 443.5 L 387 443.5 L 387.5 441 Z " /><path fill="rgb(233,233,233)" stroke="rgb(233,233,233)" stroke-width="1" opacity="1" d="M 349.5 444 L 350 449.5 L 349 449.5 L 349.5 444 Z " /><path fill="rgb(233,233,233)" stroke="rgb(233,233,233)" stroke-width="1" opacity="1" d="M 386.5 446 L 388 446.5 L 378.5 452 L 379.5 450 L 386.5 446 Z " /><path fill="rgb(233,233,233)" stroke="rgb(233,233,233)" stroke-width="1" opacity="1" d="M 106.5 447 Q 111.6 451.4 120 452.5 L 116.5 453 L 107.5 449 L 106.5 447 Z " /><path fill="rgb(233,233,233)" stroke="rgb(233,233,233)" stroke-width="1" opacity="1" d="M 328.5 450 L 329 452.5 L 328 452.5 L 328.5 450 Z " /><path fill="rgb(233,233,233)" stroke="rgb(233,233,233)" stroke-width="1" opacity="1" d="M 260.5 452 L 264 452.5 L 260.5 453 L 260.5 452 Z " /><path fill="rgb(233,233,233)" stroke="rgb(233,233,233)" stroke-width="1" opacity="1" d="M 375.5 452 L 377 452.5 L 364.5 458 L 364.5 457 L 375.5 452 Z " /><path fill="rgb(233,233,233)" stroke="rgb(233,233,233)" stroke-width="1" opacity="1" d="M 122.5 453 L 259 453.5 L 122.5 454 L 122.5 453 Z " /><path fill="rgb(233,233,233)" stroke="rgb(233,233,233)" stroke-width="1" opacity="1" d="M 293.5 459 L 292.5 461 L 293.5 459 Z " /><path fill="rgb(233,233,233)" stroke="rgb(233,233,233)" stroke-width="1" opacity="1" d="M 354.5 460 L 357 460.5 L 350.5 462 L 350.5 461 L 354.5 460 Z " /><path fill="rgb(233,233,233)" stroke="rgb(233,233,233)" stroke-width="1" opacity="1" d="M 346.5 462 L 349 462.5 L 346.5 463 L 346.5 462 Z " /><path fill="rgb(233,233,233)" stroke="rgb(233,233,233)" stroke-width="1" opacity="1" d="M 291.5 464 L 298 464.5 L 291.5 465 L 291.5 464 Z " /><path fill="rgb(233,233,233)" stroke="rgb(233,233,233)" stroke-width="1" opacity="1" d="M 300.5 465 L 324 465.5 L 300.5 466 L 300.5 465 Z " /><path fill="rgb(108,109,111)" stroke="rgb(108,109,111)" stroke-width="1" opacity="0.9529411764705882" d="M 87.5 8 L 94.5 8 L 103 14 Q 101.9 16.7 104.5 16 L 125.5 33 L 141.5 27 L 155.5 24 L 162.5 24 L 171.5 22 L 208.5 22 L 209.5 23 L 229.5 25 L 255.5 33 L 285.5 8 L 292.5 8 L 296 10.5 L 297 12.5 L 297 68.5 L 302 92.5 L 303 108.5 L 304 109.5 L 304 123.5 L 301 140.5 L 296 153.5 Q 287.9 170.4 274 181.5 L 290 210.5 L 301 236.5 L 314 278.5 L 320 309.5 L 320 317.5 L 322 327.5 L 322 339.5 L 323 340.5 L 323 374.5 L 322 375.5 L 322 385.5 L 321 386.5 L 320 399.5 L 316 416.5 L 311 428.5 L 321.5 431 L 334.5 431 L 345.5 429 L 359.5 423 L 376 409.5 Q 385.3 399.8 390 385.5 L 393 373.5 L 394 355.5 L 390 334.5 L 390 325.5 Q 391.4 317.9 396.5 314 L 407.5 310 L 420.5 313 Q 430.3 318.3 437 326.5 Q 446.1 336.9 451 351.5 L 455 371.5 L 455 384.5 L 454 385.5 L 453 397.5 L 448 411.5 L 439 427.5 L 427 442 Q 424.3 440.9 425 443.5 L 407.5 457 L 387.5 467 L 366.5 473 L 354.5 474 L 353.5 475 L 338.5 475 L 333.5 476 L 332.5 475 L 308.5 474 L 288.5 469 L 283.5 469 L 280 471 L 283 482.5 L 283 490.5 L 280 499 L 265.5 504 L 242.5 504 L 231.5 500 L 227 495.5 L 225 488.5 L 225 479.5 L 225.5 478 L 155.5 478 L 155 478.5 L 155 491.5 L 151 499 L 145.5 502 L 137.5 504 L 114.5 504 L 106.5 502 L 99 496.5 L 97 484.5 L 100 471 L 98.5 471 L 84 456.5 L 70 432.5 L 61 403.5 L 59 384.5 L 58 383.5 L 58 371.5 L 57 370.5 L 57 343.5 L 58 342.5 L 58 330.5 L 59 329.5 L 61 305.5 L 70 264.5 L 84 224.5 L 106 181.5 Q 91.5 169 83 150.5 L 77 129.5 L 76 112.5 L 77 111.5 L 77 101.5 L 78 100.5 L 79 87.5 L 83 69.5 L 83 12.5 L 87.5 8 Z M 90 12 L 87 16 L 87 73 L 85 79 L 83 97 L 82 98 L 82 106 L 81 107 L 81 127 L 84 141 Q 90 159 102 172 L 119 186 L 118 188 L 116 188 L 111 184 Q 100 198 93 216 Q 83 238 75 264 L 65 309 L 64 322 L 63 323 L 63 332 L 62 333 L 62 349 L 61 350 L 63 389 L 68 413 Q 75 439 90 457 L 103 468 Q 106 464 105 455 L 109 453 L 108 468 Q 103 472 102 481 L 102 493 L 103 495 L 109 498 L 118 500 L 134 500 L 147 496 L 151 489 L 151 479 L 149 472 L 148 457 L 152 455 L 153 461 L 153 471 L 154 472 L 155 473 L 226 473 L 227 471 L 228 459 Q 231 454 233 459 L 230 474 L 230 492 L 231 494 L 238 498 L 248 500 L 269 499 L 278 494 L 278 480 L 271 463 L 271 453 L 275 453 Q 274 463 278 468 L 280 467 L 295 451 L 308 426 L 315 402 L 317 383 L 318 382 L 318 371 L 319 370 L 319 344 L 318 343 L 317 321 L 316 320 L 313 296 L 307 270 Q 293 222 271 184 L 263 188 L 261 186 L 272 178 Q 284 167 292 152 L 296 142 L 299 129 L 299 105 L 298 104 L 298 97 L 297 96 L 295 78 L 293 72 L 293 15 L 291 12 L 287 13 L 258 37 L 254 37 L 247 34 L 227 29 L 215 28 L 214 27 L 202 27 L 201 26 L 180 26 L 179 27 L 160 28 L 141 32 L 128 37 L 122 36 L 93 12 L 90 12 Z M 405 315 L 402 316 Q 396 318 395 325 L 395 338 L 398 351 L 398 371 L 395 385 L 383 409 Q 368 429 340 435 L 318 435 L 310 433 Q 302 452 288 465 L 301 468 L 312 469 L 313 470 L 323 470 L 324 471 L 349 471 L 376 466 Q 400 459 418 444 Q 443 425 450 389 L 450 368 L 447 354 L 436 333 L 422 319 L 412 315 L 405 315 Z " /><path fill="rgb(108,109,111)" stroke="rgb(108,109,111)" stroke-width="1" opacity="0.9529411764705882" d="M 140.5 80 L 147 82.5 L 148 89.5 Q 146.8 94.3 139.5 93 L 135 86.5 L 138.5 81 L 140.5 80 Z " /><path fill="rgb(108,109,111)" stroke="rgb(108,109,111)" stroke-width="1" opacity="0.9529411764705882" d="M 237.5 80 Q 242.3 80.3 244 83.5 L 245 88.5 L 242.5 92 L 236.5 93 L 233 90.5 L 232 84.5 L 237.5 80 Z " /><path fill="rgb(108,109,111)" stroke="rgb(108,109,111)" stroke-width="1" opacity="0.9529411764705882" d="M 184.5 108 L 196.5 108 L 200 111.5 L 200 118.5 L 192 128.5 L 192 136.5 L 196.5 142 L 206.5 142 L 208 143.5 L 207.5 146 L 195.5 146 L 189.5 142 Q 185.9 148.4 173.5 146 L 172 143 Q 175.3 140.9 183.5 142 L 187 139.5 L 188 137.5 L 188 127 L 183 123.5 Q 179 120 180 111.5 L 184.5 108 Z " /><path fill="rgb(108,109,111)" stroke="rgb(108,109,111)" stroke-width="1" opacity="0.9529411764705882" d="M 122 127 L 155 136 L 153.5 140 L 124.5 132 L 121 129.5 L 122 127 Z " /><path fill="rgb(108,109,111)" stroke="rgb(108,109,111)" stroke-width="1" opacity="0.9529411764705882" d="M 256.5 127 L 259 128.5 L 257.5 131 L 226.5 140 L 225 137.5 L 228.5 135 L 256.5 127 Z " /><path fill="rgb(108,109,111)" stroke="rgb(108,109,111)" stroke-width="1" opacity="0.9529411764705882" d="M 151.5 148 L 155 149.5 Q 156.3 153.7 151.5 152 L 129.5 156 L 122.5 156 L 121 153 L 123.5 152 L 150.5 149 L 151.5 148 Z " /><path fill="rgb(108,109,111)" stroke="rgb(108,109,111)" stroke-width="1" opacity="0.9529411764705882" d="M 226.5 148 L 243.5 151 L 250.5 151 L 259 153 L 259 156 L 250.5 156 L 249.5 155 L 229.5 153 L 225 150.5 L 226.5 148 Z " /><path fill="rgb(108,109,111)" stroke="rgb(108,109,111)" stroke-width="1" opacity="0.9529411764705882" d="M 182.5 160 Q 204.2 160.3 214 172.5 Q 223.3 181.7 224 199.5 L 221 212.5 L 216 222 L 222 225.5 L 222 250.5 L 218.5 254 L 210.5 254 L 210 256.5 L 209 257.5 L 208 283 L 224.5 276 L 270.5 245 L 272 247.5 L 233.5 275 L 201 292.5 Q 198.7 295.7 200 302.5 Q 205.3 318.2 216.5 328 L 221.5 329 Q 229.9 325.9 235 319.5 L 241.5 311 Q 255.4 300.4 272.5 293 Q 280.7 291.7 285.5 287 L 293 286 L 291.5 290 L 288.5 290 L 257.5 305 L 241 316 L 240 319.5 L 230.5 329 L 222.5 333 L 217.5 333 L 208 325.5 L 205.5 322 L 204 326.5 L 203 350.5 L 197.5 358 L 194.5 359 L 177.5 359 L 170 354.5 L 168 348.5 L 168 335.5 L 167 333 L 157.5 331 L 148 323.5 L 140.5 314 Q 118.2 296.5 87 289 L 88.5 286 Q 125.5 293.5 148 315.5 L 155.5 325 L 162.5 329 L 166.5 329 L 175 321.5 L 183 307.5 Q 185.9 302.9 185 294.5 L 179.5 289 L 156.5 278 L 110 244.5 L 111.5 242 L 113.5 242 L 125.5 250 L 162.5 277 L 163 266.5 L 162 265.5 L 162 254 Q 152.3 256 149 250.5 L 149 226.5 L 151.5 223 L 156 221.5 L 152 216.5 L 148 205.5 L 148 191.5 Q 151.5 176 162.5 168 L 168.5 164 L 182.5 160 Z M 179 165 L 166 171 Q 155 179 152 195 Q 151 210 158 218 L 163 222 L 210 222 Q 217 216 219 205 L 219 192 L 214 180 Q 208 170 197 166 Q 189 164 179 165 Z M 155 226 L 153 228 L 153 249 L 155 250 L 217 250 L 218 249 L 218 228 L 217 226 L 155 226 Z M 166 254 L 167 279 L 184 287 L 189 294 Q 190 303 187 309 L 176 327 L 171 330 L 172 335 Q 171 345 173 352 L 178 355 L 194 355 L 197 354 L 199 351 L 200 327 L 201 326 L 201 314 L 196 303 L 196 294 L 204 284 L 204 271 L 205 270 L 205 258 L 206 257 L 206 254 L 166 254 Z " /><path fill="rgb(234,234,234)" stroke="rgb(234,234,234)" stroke-width="1" opacity="1" d="M 89.5 13 L 92.5 13 L 120.5 36 Q 121.9 38.6 126.5 38 L 139.5 33 L 163.5 28 Q 169.8 29.7 171.5 27 L 208.5 27 L 209.5 28 L 217.5 28 L 233.5 31 L 256.5 38 L 287.5 13 L 290.5 13 L 292 14.5 L 292 69.5 L 297 92.5 L 298 108.5 L 299 109.5 L 299 123.5 L 295 142.5 L 288 157.5 Q 280.8 169.3 270.5 178 L 261 184.5 Q 260.3 188.3 262.5 189 L 269.5 185 L 276 194.5 L 291 225.5 L 308 275.5 L 310 285.5 L 310 292.5 L 311 293.5 L 311 300.5 L 312 301.5 L 312 312.5 L 313 313.5 L 313 355.5 L 312 356.5 L 312 365.5 L 311 366.5 L 311 373.5 L 309 383.5 L 302 407.5 Q 293.9 429.4 278.5 444 L 267.5 451 L 259.5 453 L 120.5 453 Q 102.5 449 94 435.5 L 82 416.5 L 72 387.5 Q 72 378 69 371.5 L 68 352.5 L 67 351.5 L 67 318.5 L 68 317.5 L 68 304.5 L 69 303.5 L 70 287.5 L 75 265.5 L 91 221.5 L 110.5 185 Q 112.8 189.1 119 188 Q 120 184.2 117.5 183 L 102 170.5 Q 92 159.5 86 144.5 L 82 129.5 L 81 113.5 L 82 112.5 L 82 102.5 L 83 101.5 L 84 87.5 L 88 70.5 L 88 14.5 L 89.5 13 Z M 140 80 L 138 81 Q 134 83 135 90 L 141 94 L 146 93 L 149 89 L 147 81 Q 145 79 140 80 Z M 236 80 L 232 84 L 233 92 L 238 94 L 243 93 Q 246 91 245 84 Q 244 79 236 80 Z M 186 107 L 183 108 L 179 114 L 182 124 L 188 128 Q 189 136 186 140 Q 182 144 172 142 Q 171 146 174 147 Q 186 149 190 143 L 198 147 L 208 147 L 208 142 Q 197 144 193 138 L 193 129 Q 202 125 201 112 Q 198 105 186 107 Z M 121 127 L 121 131 L 123 132 Q 136 134 147 139 L 155 140 L 156 138 L 154 135 L 148 133 L 127 127 L 121 127 Z M 255 127 L 227 135 Q 224 136 225 140 L 234 139 L 258 132 L 259 131 Q 261 125 255 127 Z M 148 148 L 147 149 L 121 152 Q 120 156 123 157 L 154 153 L 156 150 Q 154 146 148 148 Z M 225 148 L 225 152 L 227 153 L 254 156 L 255 157 L 259 157 L 259 152 L 225 148 Z M 179 160 Q 169 162 163 167 L 151 181 L 147 195 Q 146 213 155 222 L 152 222 L 148 228 L 148 250 L 149 252 L 152 254 L 161 254 L 162 261 L 162 273 L 163 274 L 163 276 Q 141 263 123 247 L 114 242 L 112 242 Q 109 241 110 246 L 151 275 L 164 283 L 182 291 L 185 297 L 182 309 L 174 322 L 166 329 L 157 325 L 148 315 Q 125 293 89 285 Q 86 286 87 290 Q 118 297 140 314 L 148 325 Q 155 332 167 334 L 169 355 L 175 359 L 197 359 L 199 358 L 203 353 L 206 323 L 208 327 L 219 334 Q 227 333 232 329 L 240 321 L 241 317 L 261 304 L 294 289 L 293 285 Q 262 294 241 311 L 235 319 Q 230 326 221 329 L 218 328 Q 205 318 200 300 L 201 294 L 207 289 L 220 284 L 232 277 L 273 248 L 272 245 L 265 247 L 222 277 L 208 282 Q 210 276 209 266 L 210 265 L 210 254 L 220 254 L 223 251 L 223 226 Q 222 221 216 222 Q 222 215 224 205 Q 225 194 223 188 Q 220 178 214 172 Q 208 164 197 161 Q 189 159 179 160 Z " /><path fill="rgb(234,234,234)" stroke="rgb(234,234,234)" stroke-width="1" opacity="1" d="M 403.5 316 L 409.5 316 L 415 321.5 L 426 339.5 L 429 347.5 L 432 362.5 L 429.5 361 Q 416.8 352 398 350 L 395 334.5 L 395 326.5 Q 396.5 320 401.5 317 L 403.5 316 Z " /><path fill="rgb(234,234,234)" stroke="rgb(234,234,234)" stroke-width="1" opacity="1" d="M 398 371 L 407.5 373 L 426 384 L 430 390.5 Q 422.9 414.9 406.5 430 L 397 410.5 L 388 400.5 L 395 386.5 L 398 371 Z " /><path fill="rgb(234,234,234)" stroke="rgb(234,234,234)" stroke-width="1" opacity="1" d="M 375.5 417 L 385 432.5 L 388 446 L 363.5 458 L 347 462 L 350 449.5 L 350 434.5 Q 347.8 433.3 350.5 432 Q 366.5 428 375.5 417 Z " /><path fill="rgb(234,234,234)" stroke="rgb(234,234,234)" stroke-width="1" opacity="1" d="M 309 434 L 320.5 436 L 329 436 L 329 449.5 L 324 465 L 298.5 465 L 290 463.5 Q 303 451.5 309 434 Z " /></svg>