<svg width="512" height="512" version="1.1" xmlns="http://www.w3.org/2000/svg" desc="Created with imagetracer.js version 1.2.6" ><path fill="rgb(0,0,0)" stroke="rgb(0,0,0)" stroke-width="1" opacity="0" d="M 0 0 L 512 0 L 512 512 L 0 512 L 0 0 Z M 89 10 L 84 17 L 84 73 L 81 85 L 79 107 L 78 108 L 78 128 L 83 149 L 92 166 L 103 179 L 107 182 L 89 217 L 72 263 L 64 297 L 61 324 L 60 325 L 60 335 L 59 336 L 59 376 L 60 377 L 60 387 L 64 409 L 71 431 L 77 443 L 94 464 Q 96 463 95 466 L 101 469 L 99 478 Q 97 488 100 495 L 104 498 L 115 502 L 139 502 L 152 497 L 156 490 L 156 477 L 157 476 L 226 476 L 225 481 Q 227 484 226 491 L 228 495 L 236 500 L 244 502 L 267 502 L 275 500 L 280 497 L 283 489 L 283 481 L 280 469 L 284 467 L 307 472 L 325 473 L 326 474 L 356 473 L 379 468 Q 403 460 421 445 Q 434 433 443 418 L 450 402 L 453 387 L 453 366 L 451 356 Q 446 339 437 328 Q 428 315 412 310 L 403 310 L 394 314 L 389 325 L 389 335 L 393 358 L 392 372 L 388 387 Q 383 399 375 409 Q 367 418 355 424 L 343 428 L 330 429 L 329 430 L 328 429 L 317 429 L 311 427 L 314 421 L 320 396 L 321 381 L 322 380 L 322 364 L 322 362 L 323 357 L 323 355 L 322 353 L 321 321 L 320 320 L 317 295 L 311 269 L 295 223 L 274 182 L 277 180 Q 290 169 297 152 L 303 131 L 303 117 L 304 116 L 303 115 L 303 105 L 302 104 L 301 90 L 297 72 L 297 15 L 293 10 L 286 10 L 256 34 L 231 27 L 220 26 L 219 25 L 211 25 L 210 24 L 171 24 L 170 25 L 151 27 L 129 34 Q 124 35 123 32 L 98 11 L 89 10 Z " /><path fill="rgb(221,221,219)" stroke="rgb(221,221,219)" stroke-width="1" opacity="1" d="M 93.5 14 L 94.5 16 L 93.5 14 Z " /><path fill="rgb(221,221,219)" stroke="rgb(221,221,219)" stroke-width="1" opacity="1" d="M 288.5 14 L 292 15.5 L 290.5 15 Q 287.5 15.5 288.5 14 Z " /><path fill="rgb(221,221,219)" stroke="rgb(221,221,219)" stroke-width="1" opacity="1" d="M 286.5 15 L 285.5 17 L 286.5 15 Z " /><path fill="rgb(221,221,219)" stroke="rgb(221,221,219)" stroke-width="1" opacity="1" d="M 97.5 17 L 99.5 20 L 97.5 17 Z " /><path fill="rgb(221,221,219)" stroke="rgb(221,221,219)" stroke-width="1" opacity="1" d="M 281.5 19 L 280.5 21 L 281.5 19 Z " /><path fill="rgb(221,221,219)" stroke="rgb(221,221,219)" stroke-width="1" opacity="1" d="M 102.5 21 L 104.5 24 L 102.5 21 Z " /><path fill="rgb(221,221,219)" stroke="rgb(221,221,219)" stroke-width="1" opacity="1" d="M 276.5 23 L 275.5 25 L 276.5 23 Z " /><path fill="rgb(221,221,219)" stroke="rgb(221,221,219)" stroke-width="1" opacity="1" d="M 108.5 26 L 109.5 28 L 108.5 26 Z " /><path fill="rgb(221,221,219)" stroke="rgb(221,221,219)" stroke-width="1" opacity="1" d="M 271.5 27 L 270.5 29 L 271.5 27 Z " /><path fill="rgb(221,221,219)" stroke="rgb(221,221,219)" stroke-width="1" opacity="1" d="M 180.5 28 L 201 28.5 L 180.5 29 L 180.5 28 Z " /><path fill="rgb(221,221,219)" stroke="rgb(221,221,219)" stroke-width="1" opacity="1" d="M 167.5 29 L 170 29.5 L 167.5 30 L 167.5 29 Z " /><path fill="rgb(221,221,219)" stroke="rgb(221,221,219)" stroke-width="1" opacity="1" d="M 211.5 29 L 214 29.5 L 211.5 30 L 211.5 29 Z " /><path fill="rgb(221,221,219)" stroke="rgb(221,221,219)" stroke-width="1" opacity="1" d="M 113.5 30 L 114.5 32 L 113.5 30 Z " /><path fill="rgb(221,221,219)" stroke="rgb(221,221,219)" stroke-width="1" opacity="1" d="M 266.5 31 L 265.5 33 L 266.5 31 Z " /><path fill="rgb(221,221,219)" stroke="rgb(221,221,219)" stroke-width="1" opacity="1" d="M 118.5 34 L 119.5 36 L 118.5 34 Z " /><path fill="rgb(221,221,219)" stroke="rgb(221,221,219)" stroke-width="1" opacity="1" d="M 261.5 35 L 260.5 37 L 261.5 35 Z " /><path fill="rgb(221,221,219)" stroke="rgb(221,221,219)" stroke-width="1" opacity="1" d="M 142.5 89 L 146 89.5 L 142.5 90 L 142.5 89 Z " /><path fill="rgb(221,221,219)" stroke="rgb(221,221,219)" stroke-width="1" opacity="1" d="M 238.5 89 L 242 89.5 L 238.5 90 L 238.5 89 Z " /><path fill="rgb(221,221,219)" stroke="rgb(221,221,219)" stroke-width="1" opacity="1" d="M 147.5 90 L 149.5 93 L 147.5 90 Z " /><path fill="rgb(221,221,219)" stroke="rgb(221,221,219)" stroke-width="1" opacity="1" d="M 243.5 90 L 245.5 93 L 243.5 90 Z " /><path fill="rgb(221,221,219)" stroke="rgb(221,221,219)" stroke-width="1" opacity="1" d="M 150.5 94 L 151 97.5 L 150 97.5 L 150.5 94 Z " /><path fill="rgb(221,221,219)" stroke="rgb(221,221,219)" stroke-width="1" opacity="1" d="M 187.5 100 L 194 100.5 L 187.5 101 L 187.5 100 Z " /><path fill="rgb(221,221,219)" stroke="rgb(221,221,219)" stroke-width="1" opacity="1" d="M 297.5 101 L 298 103.5 L 297 103.5 L 297.5 101 Z " /><path fill="rgb(221,221,219)" stroke="rgb(221,221,219)" stroke-width="1" opacity="1" d="M 83.5 104 L 84 106.5 L 83 106.5 L 83.5 104 Z " /><path fill="rgb(221,221,219)" stroke="rgb(221,221,219)" stroke-width="1" opacity="1" d="M 298.5 110 L 299 114.5 L 298 114.5 L 298.5 110 Z " /><path fill="rgb(221,221,219)" stroke="rgb(221,221,219)" stroke-width="1" opacity="1" d="M 82.5 115 L 83 120.5 L 82 120.5 L 82.5 115 Z " /><path fill="rgb(221,221,219)" stroke="rgb(221,221,219)" stroke-width="1" opacity="1" d="M 197.5 117 L 195.5 120 L 197.5 117 Z " /><path fill="rgb(221,221,219)" stroke="rgb(221,221,219)" stroke-width="1" opacity="1" d="M 298.5 122 L 299 125.5 L 298 125.5 L 298.5 122 Z " /><path fill="rgb(221,221,219)" stroke="rgb(221,221,219)" stroke-width="1" opacity="1" d="M 122.5 123 L 123.5 125 L 122.5 123 Z " /><path fill="rgb(221,221,219)" stroke="rgb(221,221,219)" stroke-width="1" opacity="1" d="M 226.5 128 L 225.5 130 L 226.5 128 Z " /><path fill="rgb(221,221,219)" stroke="rgb(221,221,219)" stroke-width="1" opacity="1" d="M 186.5 132 L 185.5 134 L 186.5 132 Z " /><path fill="rgb(221,221,219)" stroke="rgb(221,221,219)" stroke-width="1" opacity="1" d="M 194.5 132 L 195.5 134 L 194.5 132 Z " /><path fill="rgb(221,221,219)" stroke="rgb(221,221,219)" stroke-width="1" opacity="1" d="M 174.5 139 L 183 139.5 L 174.5 140 L 174.5 139 Z " /><path fill="rgb(221,221,219)" stroke="rgb(221,221,219)" stroke-width="1" opacity="1" d="M 198.5 139 L 207 139.5 L 198.5 140 L 198.5 139 Z " /><path fill="rgb(221,221,219)" stroke="rgb(221,221,219)" stroke-width="1" opacity="1" d="M 231.5 141 L 234 141.5 L 231.5 142 L 231.5 141 Z " /><path fill="rgb(221,221,219)" stroke="rgb(221,221,219)" stroke-width="1" opacity="1" d="M 133.5 143 L 136 143.5 L 133.5 144 L 133.5 143 Z " /><path fill="rgb(221,221,219)" stroke="rgb(221,221,219)" stroke-width="1" opacity="1" d="M 255.5 149 L 258 149.5 L 255.5 150 L 255.5 149 Z " /><path fill="rgb(221,221,219)" stroke="rgb(221,221,219)" stroke-width="1" opacity="1" d="M 95.5 161 L 96.5 163 L 95.5 161 Z " /><path fill="rgb(221,221,219)" stroke="rgb(221,221,219)" stroke-width="1" opacity="1" d="M 172.5 162 L 176 162.5 L 172.5 163 L 172.5 162 Z " /><path fill="rgb(221,221,219)" stroke="rgb(221,221,219)" stroke-width="1" opacity="1" d="M 98.5 165 L 99.5 167 L 98.5 165 Z " /><path fill="rgb(221,221,219)" stroke="rgb(221,221,219)" stroke-width="1" opacity="1" d="M 179.5 166 L 180.5 168 L 179.5 166 Z " /><path fill="rgb(221,221,219)" stroke="rgb(221,221,219)" stroke-width="1" opacity="1" d="M 280.5 168 L 279.5 170 L 280.5 168 Z " /><path fill="rgb(221,221,219)" stroke="rgb(221,221,219)" stroke-width="1" opacity="1" d="M 102.5 170 L 109.5 178 L 102.5 170 Z " /><path fill="rgb(221,221,219)" stroke="rgb(221,221,219)" stroke-width="1" opacity="1" d="M 271.5 177 L 269.5 180 L 271.5 177 Z " /><path fill="rgb(221,221,219)" stroke="rgb(221,221,219)" stroke-width="1" opacity="1" d="M 113.5 180 L 114.5 182 L 113.5 180 Z " /><path fill="rgb(221,221,219)" stroke="rgb(221,221,219)" stroke-width="1" opacity="1" d="M 139.5 180 L 138.5 182 L 139.5 180 Z " /><path fill="rgb(221,221,219)" stroke="rgb(221,221,219)" stroke-width="1" opacity="1" d="M 266.5 181 L 265.5 183 L 266.5 181 Z " /><path fill="rgb(221,221,219)" stroke="rgb(221,221,219)" stroke-width="1" opacity="1" d="M 112.5 185 L 113.5 187 L 112.5 185 Z " /><path fill="rgb(221,221,219)" stroke="rgb(221,221,219)" stroke-width="1" opacity="1" d="M 115.5 187 L 116.5 189 L 115.5 187 Z " /><path fill="rgb(221,221,219)" stroke="rgb(221,221,219)" stroke-width="1" opacity="1" d="M 103.5 206 L 104 208.5 L 103 208.5 L 103.5 206 Z " /><path fill="rgb(221,221,219)" stroke="rgb(221,221,219)" stroke-width="1" opacity="1" d="M 117.5 232 L 118.5 234 L 117.5 232 Z " /><path fill="rgb(221,221,219)" stroke="rgb(221,221,219)" stroke-width="1" opacity="1" d="M 247.5 233 L 248.5 235 L 247.5 233 Z " /><path fill="rgb(221,221,219)" stroke="rgb(221,221,219)" stroke-width="1" opacity="1" d="M 246.5 238 L 251.5 244 L 246.5 238 Z " /><path fill="rgb(221,221,219)" stroke="rgb(221,221,219)" stroke-width="1" opacity="1" d="M 133.5 239 L 131.5 242 L 133.5 239 Z " /><path fill="rgb(221,221,219)" stroke="rgb(221,221,219)" stroke-width="1" opacity="1" d="M 148.5 240 L 149.5 242 L 148.5 240 Z " /><path fill="rgb(221,221,219)" stroke="rgb(221,221,219)" stroke-width="1" opacity="1" d="M 231.5 241 L 225.5 248 L 231.5 241 Z " /><path fill="rgb(221,221,219)" stroke="rgb(221,221,219)" stroke-width="1" opacity="1" d="M 255.5 241 L 256.5 243 L 255.5 241 Z " /><path fill="rgb(221,221,219)" stroke="rgb(221,221,219)" stroke-width="1" opacity="1" d="M 123.5 244 L 114.5 254 L 123.5 244 Z " /><path fill="rgb(221,221,219)" stroke="rgb(221,221,219)" stroke-width="1" opacity="1" d="M 128.5 245 L 127.5 247 L 128.5 245 Z " /><path fill="rgb(221,221,219)" stroke="rgb(221,221,219)" stroke-width="1" opacity="1" d="M 258.5 245 L 264.5 252 L 258.5 245 Z " /><path fill="rgb(221,221,219)" stroke="rgb(221,221,219)" stroke-width="1" opacity="1" d="M 253.5 246 L 254.5 248 L 253.5 246 Z " /><path fill="rgb(221,221,219)" stroke="rgb(221,221,219)" stroke-width="1" opacity="1" d="M 155.5 247 L 157.5 250 L 155.5 247 Z " /><path fill="rgb(221,221,219)" stroke="rgb(221,221,219)" stroke-width="1" opacity="1" d="M 261.5 254 L 265.5 259 L 261.5 254 Z " /><path fill="rgb(221,221,219)" stroke="rgb(221,221,219)" stroke-width="1" opacity="1" d="M 269.5 255 L 271.5 258 L 269.5 255 Z " /><path fill="rgb(221,221,219)" stroke="rgb(221,221,219)" stroke-width="1" opacity="1" d="M 109.5 257 L 107.5 260 L 109.5 257 Z " /><path fill="rgb(221,221,219)" stroke="rgb(221,221,219)" stroke-width="1" opacity="1" d="M 116.5 257 L 113.5 261 L 116.5 257 Z " /><path fill="rgb(221,221,219)" stroke="rgb(221,221,219)" stroke-width="1" opacity="1" d="M 275.5 260 L 276.5 262 L 275.5 260 Z " /><path fill="rgb(221,221,219)" stroke="rgb(221,221,219)" stroke-width="1" opacity="1" d="M 104.5 261 L 103.5 263 L 104.5 261 Z " /><path fill="rgb(221,221,219)" stroke="rgb(221,221,219)" stroke-width="1" opacity="1" d="M 269.5 261 L 271.5 264 L 269.5 261 Z " /><path fill="rgb(221,221,219)" stroke="rgb(221,221,219)" stroke-width="1" opacity="1" d="M 160.5 262 L 157.5 266 L 160.5 262 Z " /><path fill="rgb(221,221,219)" stroke="rgb(221,221,219)" stroke-width="1" opacity="1" d="M 109.5 263 L 108.5 265 L 109.5 263 Z " /><path fill="rgb(221,221,219)" stroke="rgb(221,221,219)" stroke-width="1" opacity="1" d="M 221.5 263 L 222.5 265 L 221.5 263 Z " /><path fill="rgb(221,221,219)" stroke="rgb(221,221,219)" stroke-width="1" opacity="1" d="M 280.5 264 L 281.5 266 L 280.5 264 Z " /><path fill="rgb(221,221,219)" stroke="rgb(221,221,219)" stroke-width="1" opacity="1" d="M 99.5 265 L 98.5 267 L 99.5 265 Z " /><path fill="rgb(221,221,219)" stroke="rgb(221,221,219)" stroke-width="1" opacity="1" d="M 274.5 265 L 275.5 267 L 274.5 265 Z " /><path fill="rgb(221,221,219)" stroke="rgb(221,221,219)" stroke-width="1" opacity="1" d="M 104.5 267 L 103.5 269 L 104.5 267 Z " /><path fill="rgb(221,221,219)" stroke="rgb(221,221,219)" stroke-width="1" opacity="1" d="M 284.5 267 L 286.5 270 L 284.5 267 Z " /><path fill="rgb(221,221,219)" stroke="rgb(221,221,219)" stroke-width="1" opacity="1" d="M 94.5 269 L 93.5 271 L 94.5 269 Z " /><path fill="rgb(221,221,219)" stroke="rgb(221,221,219)" stroke-width="1" opacity="1" d="M 279.5 269 L 280.5 271 L 279.5 269 Z " /><path fill="rgb(221,221,219)" stroke="rgb(221,221,219)" stroke-width="1" opacity="1" d="M 100.5 270 L 99.5 272 L 100.5 270 Z " /><path fill="rgb(221,221,219)" stroke="rgb(221,221,219)" stroke-width="1" opacity="1" d="M 236.5 271 L 237.5 273 L 236.5 271 Z " /><path fill="rgb(221,221,219)" stroke="rgb(221,221,219)" stroke-width="1" opacity="1" d="M 289.5 271 L 291.5 274 L 289.5 271 Z " /><path fill="rgb(221,221,219)" stroke="rgb(221,221,219)" stroke-width="1" opacity="1" d="M 143.5 272 L 142.5 274 L 143.5 272 Z " /><path fill="rgb(221,221,219)" stroke="rgb(221,221,219)" stroke-width="1" opacity="1" d="M 89.5 273 L 87.5 276 L 89.5 273 Z " /><path fill="rgb(221,221,219)" stroke="rgb(221,221,219)" stroke-width="1" opacity="1" d="M 284.5 273 L 285.5 275 L 284.5 273 Z " /><path fill="rgb(221,221,219)" stroke="rgb(221,221,219)" stroke-width="1" opacity="1" d="M 95.5 274 L 94.5 276 L 95.5 274 Z " /><path fill="rgb(221,221,219)" stroke="rgb(221,221,219)" stroke-width="1" opacity="1" d="M 240.5 274 L 241.5 276 L 240.5 274 Z " /><path fill="rgb(221,221,219)" stroke="rgb(221,221,219)" stroke-width="1" opacity="1" d="M 139.5 275 L 138.5 277 L 139.5 275 Z " /><path fill="rgb(221,221,219)" stroke="rgb(221,221,219)" stroke-width="1" opacity="1" d="M 295.5 276 L 299.5 281 L 295.5 276 Z " /><path fill="rgb(221,221,219)" stroke="rgb(221,221,219)" stroke-width="1" opacity="1" d="M 144.5 277 L 145.5 279 L 143 278.5 L 144.5 277 Z " /><path fill="rgb(221,221,219)" stroke="rgb(221,221,219)" stroke-width="1" opacity="1" d="M 289.5 277 L 291.5 280 L 289.5 277 Z " /><path fill="rgb(221,221,219)" stroke="rgb(221,221,219)" stroke-width="1" opacity="1" d="M 245.5 278 L 248.5 282 L 245.5 278 Z " /><path fill="rgb(221,221,219)" stroke="rgb(221,221,219)" stroke-width="1" opacity="1" d="M 89.5 279 L 86.5 283 L 89.5 279 Z " /><path fill="rgb(221,221,219)" stroke="rgb(221,221,219)" stroke-width="1" opacity="1" d="M 133.5 280 L 124.5 290 L 133.5 280 Z " /><path fill="rgb(221,221,219)" stroke="rgb(221,221,219)" stroke-width="1" opacity="1" d="M 140.5 280 L 138.5 283 L 140.5 280 Z " /><path fill="rgb(221,221,219)" stroke="rgb(221,221,219)" stroke-width="1" opacity="1" d="M 81.5 281 L 83 283.5 L 81 282.5 L 81.5 281 Z " /><path fill="rgb(221,221,219)" stroke="rgb(221,221,219)" stroke-width="1" opacity="1" d="M 310.5 288 L 311 290.5 L 310 290.5 L 310.5 288 Z " /><path fill="rgb(221,221,219)" stroke="rgb(221,221,219)" stroke-width="1" opacity="1" d="M 256.5 289 L 259.5 293 L 256.5 289 Z " /><path fill="rgb(221,221,219)" stroke="rgb(221,221,219)" stroke-width="1" opacity="1" d="M 70.5 290 L 71 293.5 L 70 293.5 L 70.5 290 Z " /><path fill="rgb(221,221,219)" stroke="rgb(221,221,219)" stroke-width="1" opacity="1" d="M 311.5 293 L 315 310.5 L 316 325.5 L 317 326.5 L 317 336.5 L 318 337.5 L 318 373.5 L 317 374.5 L 317 383.5 L 316 384.5 L 314 401.5 L 306 427.5 Q 296.9 450.4 279.5 465 L 277.5 466 Q 274 461.5 275 452.5 L 273.5 451 L 271 451.5 L 271 462.5 L 277 475.5 L 278 489.5 L 275.5 494 L 267.5 497 L 248.5 498 L 238.5 496 L 232 493 Q 228.8 487 230 475.5 L 231 474.5 L 231 466.5 L 233 455 L 229 455 L 229 456.5 L 227 463.5 L 227 469.5 L 225.5 471 L 155.5 471 L 155 469.5 L 154 468.5 Q 154.9 458.6 153 453 L 149 454.5 L 149 463.5 L 151 472.5 L 151 489.5 L 147.5 494 L 139.5 497 L 120.5 498 L 107.5 495 L 104 491.5 L 103 481.5 L 106 470.5 L 110 463.5 L 111 452.5 L 107.5 451 L 106 452.5 L 106 461.5 L 103.5 466 L 92 455.5 L 77 431.5 L 69 408.5 L 64 380.5 L 63 342.5 L 64 341.5 L 64 329.5 L 65 328.5 L 66 312.5 L 69.5 295 L 70 302.5 L 69 303.5 L 69 315.5 L 68 316.5 L 68 352.5 L 69 353.5 L 69 363.5 L 70 364.5 L 72 382.5 L 79 406.5 L 89 426.5 L 105.5 445 L 111.5 449 L 122.5 452 L 259.5 452 Q 275 449 283 438.5 L 298 416.5 L 302 407.5 L 309 383.5 L 312 366.5 L 312 357.5 L 313 356.5 L 313 311.5 L 312 310.5 L 311.5 293 Z " /><path fill="rgb(221,221,219)" stroke="rgb(221,221,219)" stroke-width="1" opacity="1" d="M 120.5 294 L 119.5 296 L 120.5 294 Z " /><path fill="rgb(221,221,219)" stroke="rgb(221,221,219)" stroke-width="1" opacity="1" d="M 126.5 294 L 124.5 297 L 126.5 294 Z " /><path fill="rgb(221,221,219)" stroke="rgb(221,221,219)" stroke-width="1" opacity="1" d="M 262.5 296 L 263.5 298 L 262.5 296 Z " /><path fill="rgb(221,221,219)" stroke="rgb(221,221,219)" stroke-width="1" opacity="1" d="M 116.5 299 L 112.5 304 L 116.5 299 Z " /><path fill="rgb(221,221,219)" stroke="rgb(221,221,219)" stroke-width="1" opacity="1" d="M 121.5 300 L 120.5 302 L 121.5 300 Z " /><path fill="rgb(221,221,219)" stroke="rgb(221,221,219)" stroke-width="1" opacity="1" d="M 260.5 301 L 265.5 307 L 260.5 301 Z " /><path fill="rgb(221,221,219)" stroke="rgb(221,221,219)" stroke-width="1" opacity="1" d="M 269.5 304 L 270.5 306 L 269.5 304 Z " /><path fill="rgb(221,221,219)" stroke="rgb(221,221,219)" stroke-width="1" opacity="1" d="M 271.5 307 L 272 309.5 L 270 310.5 L 271.5 307 Z " /><path fill="rgb(221,221,219)" stroke="rgb(221,221,219)" stroke-width="1" opacity="1" d="M 267.5 309 L 268.5 311 L 267.5 309 Z " /><path fill="rgb(221,221,219)" stroke="rgb(221,221,219)" stroke-width="1" opacity="1" d="M 409.5 315 L 422.5 320 L 434 331.5 Q 442.1 341.4 446 355.5 L 448 364.5 L 449 379.5 L 448 380.5 L 448 388.5 L 446 397.5 L 438 416.5 Q 429 432 415.5 443 Q 397.5 458 371.5 465 L 348.5 469 L 321.5 469 L 320.5 468 L 311.5 468 L 310.5 467 L 299.5 466 L 291 463.5 L 298.5 463 L 299.5 464 L 322.5 464 L 328 452.5 L 329 434 L 337.5 434 L 347.5 431 Q 350.8 436.2 349 446.5 L 346 461 Q 370.2 457.1 387 444.5 Q 385.6 425.4 374.5 416 L 371 418.5 Q 381.3 411.4 386 400 L 389 401.5 Q 400 412.5 404.5 430 Q 422.3 414.8 429 388.5 L 422.5 381 Q 412.8 371.9 397 370 L 396.5 372 L 396 370.5 L 397 369.5 L 397 350 L 406.5 351 L 415.5 354 L 431 362 L 429 349.5 L 424 335.5 L 409.5 315 Z " /><path fill="rgb(221,221,219)" stroke="rgb(221,221,219)" stroke-width="1" opacity="1" d="M 398.5 317 L 396.5 320 L 398.5 317 Z " /><path fill="rgb(221,221,219)" stroke="rgb(221,221,219)" stroke-width="1" opacity="1" d="M 296.5 453 L 295.5 455 L 296.5 453 Z " /><path fill="rgb(221,221,219)" stroke="rgb(221,221,219)" stroke-width="1" opacity="1" d="M 292.5 458 L 290 461.5 Q 290.8 463.8 288.5 463 L 292.5 458 Z " /><path fill="rgb(233,233,233)" stroke="rgb(233,233,233)" stroke-width="1" opacity="1" d="M 138.5 100 L 139.5 102 L 138.5 100 Z " /><path fill="rgb(233,233,233)" stroke="rgb(233,233,233)" stroke-width="1" opacity="1" d="M 234.5 100 L 235.5 102 L 234.5 100 Z " /><path fill="rgb(233,233,233)" stroke="rgb(233,233,233)" stroke-width="1" opacity="1" d="M 184.5 118 L 185.5 120 L 184.5 118 Z " /><path fill="rgb(233,233,233)" stroke="rgb(233,233,233)" stroke-width="1" opacity="1" d="M 298.5 118 L 299 121.5 L 298 121.5 L 298.5 118 Z " /><path fill="rgb(233,233,233)" stroke="rgb(233,233,233)" stroke-width="1" opacity="1" d="M 208.5 138 L 207.5 140 L 208.5 138 Z " /><path fill="rgb(233,233,233)" stroke="rgb(233,233,233)" stroke-width="1" opacity="1" d="M 278.5 170 L 272.5 177 L 278.5 170 Z " /><path fill="rgb(233,233,233)" stroke="rgb(233,233,233)" stroke-width="1" opacity="1" d="M 105.5 202 L 104.5 204 L 105.5 202 Z " /><path fill="rgb(233,233,233)" stroke="rgb(233,233,233)" stroke-width="1" opacity="1" d="M 250.5 235 L 254.5 240 L 250.5 235 Z " /><path fill="rgb(233,233,233)" stroke="rgb(233,233,233)" stroke-width="1" opacity="1" d="M 150.5 242 L 154.5 247 L 150.5 242 Z " /><path fill="rgb(233,233,233)" stroke="rgb(233,233,233)" stroke-width="1" opacity="1" d="M 126.5 248 L 120.5 255 L 126.5 248 Z " /><path fill="rgb(233,233,233)" stroke="rgb(233,233,233)" stroke-width="1" opacity="1" d="M 267.5 253 L 268.5 255 L 267.5 253 Z " /><path fill="rgb(233,233,233)" stroke="rgb(233,233,233)" stroke-width="1" opacity="1" d="M 266.5 259 L 267.5 261 L 266.5 259 Z " /><path fill="rgb(233,233,233)" stroke="rgb(233,233,233)" stroke-width="1" opacity="1" d="M 91.5 271 L 90.5 273 L 91.5 271 Z " /><path fill="rgb(233,233,233)" stroke="rgb(233,233,233)" stroke-width="1" opacity="1" d="M 93.5 276 L 92.5 278 L 93.5 276 Z " /><path fill="rgb(233,233,233)" stroke="rgb(233,233,233)" stroke-width="1" opacity="1" d="M 243.5 276 L 244.5 278 L 243.5 276 Z " /><path fill="rgb(233,233,233)" stroke="rgb(233,233,233)" stroke-width="1" opacity="1" d="M 84.5 277 L 83.5 279 L 84.5 277 Z " /><path fill="rgb(233,233,233)" stroke="rgb(233,233,233)" stroke-width="1" opacity="1" d="M 135.5 278 L 134.5 280 L 135.5 278 Z " /><path fill="rgb(233,233,233)" stroke="rgb(233,233,233)" stroke-width="1" opacity="1" d="M 292.5 280 L 293.5 282 L 292.5 280 Z " /><path fill="rgb(233,233,233)" stroke="rgb(233,233,233)" stroke-width="1" opacity="1" d="M 137.5 283 L 135.5 286 L 137.5 283 Z " /><path fill="rgb(233,233,233)" stroke="rgb(233,233,233)" stroke-width="1" opacity="1" d="M 309.5 285 L 310 287.5 L 309 287.5 L 309.5 285 Z " /><path fill="rgb(233,233,233)" stroke="rgb(233,233,233)" stroke-width="1" opacity="1" d="M 71.5 287 L 72 289.5 L 71 289.5 L 71.5 287 Z " /><path fill="rgb(233,233,233)" stroke="rgb(233,233,233)" stroke-width="1" opacity="1" d="M 123.5 290 L 122.5 292 L 123.5 290 Z " /><path fill="rgb(233,233,233)" stroke="rgb(233,233,233)" stroke-width="1" opacity="1" d="M 129.5 291 L 127.5 294 L 129.5 291 Z " /><path fill="rgb(233,233,233)" stroke="rgb(233,233,233)" stroke-width="1" opacity="1" d="M 310.5 291 L 311 296.5 L 310 296.5 L 310.5 291 Z " /><path fill="rgb(233,233,233)" stroke="rgb(233,233,233)" stroke-width="1" opacity="1" d="M 70.5 294 L 71 298.5 L 70 298.5 L 70.5 294 Z " /><path fill="rgb(233,233,233)" stroke="rgb(233,233,233)" stroke-width="1" opacity="1" d="M 123.5 298 L 122.5 300 L 123.5 298 Z " /><path fill="rgb(233,233,233)" stroke="rgb(233,233,233)" stroke-width="1" opacity="1" d="M 311.5 299 L 312 305.5 L 311 305.5 L 311.5 299 Z " /><path fill="rgb(233,233,233)" stroke="rgb(233,233,233)" stroke-width="1" opacity="1" d="M 69.5 303 L 70 308.5 L 69 308.5 L 69.5 303 Z " /><path fill="rgb(233,233,233)" stroke="rgb(233,233,233)" stroke-width="1" opacity="1" d="M 312.5 311 L 313 320.5 L 312 320.5 L 312.5 311 Z " /><path fill="rgb(233,233,233)" stroke="rgb(233,233,233)" stroke-width="1" opacity="1" d="M 408.5 315 L 420 328.5 L 417 326.5 L 408.5 315 Z " /><path fill="rgb(233,233,233)" stroke="rgb(233,233,233)" stroke-width="1" opacity="1" d="M 68.5 316 L 69 352.5 L 68 352.5 L 68.5 316 Z " /><path fill="rgb(233,233,233)" stroke="rgb(233,233,233)" stroke-width="1" opacity="1" d="M 422.5 334 L 424 336.5 L 423 336.5 L 422.5 334 Z " /><path fill="rgb(233,233,233)" stroke="rgb(233,233,233)" stroke-width="1" opacity="1" d="M 312.5 348 L 313 356.5 L 312 356.5 L 312.5 348 Z " /><path fill="rgb(233,233,233)" stroke="rgb(233,233,233)" stroke-width="1" opacity="1" d="M 429.5 354 L 430 356.5 L 429 356.5 L 429.5 354 Z " /><path fill="rgb(233,233,233)" stroke="rgb(233,233,233)" stroke-width="1" opacity="1" d="M 69.5 358 L 70 363.5 L 69 363.5 L 69.5 358 Z " /><path fill="rgb(233,233,233)" stroke="rgb(233,233,233)" stroke-width="1" opacity="1" d="M 426.5 359 L 427.5 361 L 426.5 359 Z " /><path fill="rgb(233,233,233)" stroke="rgb(233,233,233)" stroke-width="1" opacity="1" d="M 430.5 360 L 431 362 L 429 361.5 L 430.5 360 Z " /><path fill="rgb(233,233,233)" stroke="rgb(233,233,233)" stroke-width="1" opacity="1" d="M 311.5 362 L 312 366.5 L 311 366.5 L 311.5 362 Z " /><path fill="rgb(233,233,233)" stroke="rgb(233,233,233)" stroke-width="1" opacity="1" d="M 70.5 367 L 71 370.5 L 70 370.5 L 70.5 367 Z " /><path fill="rgb(233,233,233)" stroke="rgb(233,233,233)" stroke-width="1" opacity="1" d="M 310.5 370 L 311 373.5 L 310 373.5 L 310.5 370 Z " /><path fill="rgb(233,233,233)" stroke="rgb(233,233,233)" stroke-width="1" opacity="1" d="M 71.5 374 L 72 376.5 L 71 376.5 L 71.5 374 Z " /><path fill="rgb(233,233,233)" stroke="rgb(233,233,233)" stroke-width="1" opacity="1" d="M 309.5 376 L 310 378.5 L 309 378.5 L 309.5 376 Z " /><path fill="rgb(233,233,233)" stroke="rgb(233,233,233)" stroke-width="1" opacity="1" d="M 415.5 376 L 416.5 378 L 415.5 376 Z " /><path fill="rgb(233,233,233)" stroke="rgb(233,233,233)" stroke-width="1" opacity="1" d="M 72.5 379 L 73 382.5 L 72 382.5 L 72.5 379 Z " /><path fill="rgb(233,233,233)" stroke="rgb(233,233,233)" stroke-width="1" opacity="1" d="M 308.5 381 L 309 383.5 L 308 383.5 L 308.5 381 Z " /><path fill="rgb(233,233,233)" stroke="rgb(233,233,233)" stroke-width="1" opacity="1" d="M 422.5 381 L 427.5 387 L 422.5 381 Z " /><path fill="rgb(233,233,233)" stroke="rgb(233,233,233)" stroke-width="1" opacity="1" d="M 73.5 384 L 74 386.5 L 73 386.5 L 73.5 384 Z " /><path fill="rgb(233,233,233)" stroke="rgb(233,233,233)" stroke-width="1" opacity="1" d="M 75.5 392 L 76 394.5 L 75 394.5 L 75.5 392 Z " /><path fill="rgb(233,233,233)" stroke="rgb(233,233,233)" stroke-width="1" opacity="1" d="M 389.5 402 L 392.5 406 L 389.5 402 Z " /><path fill="rgb(233,233,233)" stroke="rgb(233,233,233)" stroke-width="1" opacity="1" d="M 423.5 402 L 424 403.5 L 420.5 409 L 421 407.5 L 423.5 402 Z " /><path fill="rgb(233,233,233)" stroke="rgb(233,233,233)" stroke-width="1" opacity="1" d="M 79.5 405 L 81 408.5 L 80 408.5 L 79.5 405 Z " /><path fill="rgb(233,233,233)" stroke="rgb(233,233,233)" stroke-width="1" opacity="1" d="M 394.5 408 L 395.5 410 L 394.5 408 Z " /><path fill="rgb(233,233,233)" stroke="rgb(233,233,233)" stroke-width="1" opacity="1" d="M 418.5 412 L 417.5 414 L 418.5 412 Z " /><path fill="rgb(233,233,233)" stroke="rgb(233,233,233)" stroke-width="1" opacity="1" d="M 83.5 415 L 87 420.5 L 85 419.5 L 83.5 415 Z " /><path fill="rgb(233,233,233)" stroke="rgb(233,233,233)" stroke-width="1" opacity="1" d="M 297.5 415 L 298 416.5 L 296 417.5 L 297.5 415 Z " /><path fill="rgb(233,233,233)" stroke="rgb(233,233,233)" stroke-width="1" opacity="1" d="M 416.5 415 L 415.5 417 L 416.5 415 Z " /><path fill="rgb(233,233,233)" stroke="rgb(233,233,233)" stroke-width="1" opacity="1" d="M 376.5 418 L 378.5 421 L 376.5 418 Z " /><path fill="rgb(233,233,233)" stroke="rgb(233,233,233)" stroke-width="1" opacity="1" d="M 414.5 418 L 412.5 421 L 414.5 418 Z " /><path fill="rgb(233,233,233)" stroke="rgb(233,233,233)" stroke-width="1" opacity="1" d="M 411.5 422 L 406.5 428 L 411.5 422 Z " /><path fill="rgb(233,233,233)" stroke="rgb(233,233,233)" stroke-width="1" opacity="1" d="M 293.5 423 L 292.5 425 L 293.5 423 Z " /><path fill="rgb(233,233,233)" stroke="rgb(233,233,233)" stroke-width="1" opacity="1" d="M 88.5 424 L 91 427.5 L 89 426.5 L 88.5 424 Z " /><path fill="rgb(233,233,233)" stroke="rgb(233,233,233)" stroke-width="1" opacity="1" d="M 291.5 426 L 290.5 428 L 291.5 426 Z " /><path fill="rgb(233,233,233)" stroke="rgb(233,233,233)" stroke-width="1" opacity="1" d="M 289.5 429 L 288.5 431 L 289.5 429 Z " /><path fill="rgb(233,233,233)" stroke="rgb(233,233,233)" stroke-width="1" opacity="1" d="M 92.5 430 L 93.5 432 L 92.5 430 Z " /><path fill="rgb(233,233,233)" stroke="rgb(233,233,233)" stroke-width="1" opacity="1" d="M 348.5 431 L 349 433.5 L 348 433.5 L 348.5 431 Z " /><path fill="rgb(233,233,233)" stroke="rgb(233,233,233)" stroke-width="1" opacity="1" d="M 287.5 432 L 283.5 437 L 287.5 432 Z " /><path fill="rgb(233,233,233)" stroke="rgb(233,233,233)" stroke-width="1" opacity="1" d="M 94.5 433 L 105.5 445 L 94.5 433 Z " /><path fill="rgb(233,233,233)" stroke="rgb(233,233,233)" stroke-width="1" opacity="1" d="M 328.5 434 L 329 436.5 L 328 436.5 L 328.5 434 Z " /><path fill="rgb(233,233,233)" stroke="rgb(233,233,233)" stroke-width="1" opacity="1" d="M 282.5 438 L 278.5 443 L 282.5 438 Z " /><path fill="rgb(233,233,233)" stroke="rgb(233,233,233)" stroke-width="1" opacity="1" d="M 275.5 444 L 274.5 446 L 275.5 444 Z " /><path fill="rgb(233,233,233)" stroke="rgb(233,233,233)" stroke-width="1" opacity="1" d="M 328.5 444 L 329 446.5 L 328 446.5 L 328.5 444 Z " /><path fill="rgb(233,233,233)" stroke="rgb(233,233,233)" stroke-width="1" opacity="1" d="M 386.5 444 L 385.5 446 L 383.5 447 L 384.5 445 L 386.5 444 Z " /><path fill="rgb(233,233,233)" stroke="rgb(233,233,233)" stroke-width="1" opacity="1" d="M 272.5 446 L 271.5 448 L 272.5 446 Z " /><path fill="rgb(233,233,233)" stroke="rgb(233,233,233)" stroke-width="1" opacity="1" d="M 110.5 447 L 113 448.5 L 111.5 449 L 110.5 447 Z " /><path fill="rgb(233,233,233)" stroke="rgb(233,233,233)" stroke-width="1" opacity="1" d="M 348.5 447 L 349 449.5 L 348 449.5 L 348.5 447 Z " /><path fill="rgb(233,233,233)" stroke="rgb(233,233,233)" stroke-width="1" opacity="1" d="M 268.5 448 L 270 448.5 L 266.5 450 L 266.5 449 L 268.5 448 Z " /><path fill="rgb(233,233,233)" stroke="rgb(233,233,233)" stroke-width="1" opacity="1" d="M 379.5 448 L 378.5 450 L 376.5 451 L 377.5 449 L 379.5 448 Z " /><path fill="rgb(233,233,233)" stroke="rgb(233,233,233)" stroke-width="1" opacity="1" d="M 262.5 450 L 265 450.5 L 262.5 451 L 262.5 450 Z " /><path fill="rgb(233,233,233)" stroke="rgb(233,233,233)" stroke-width="1" opacity="1" d="M 122.5 451 L 260 451.5 L 122.5 452 L 122.5 451 Z " /><path fill="rgb(233,233,233)" stroke="rgb(233,233,233)" stroke-width="1" opacity="1" d="M 373.5 451 L 375 451.5 L 371.5 453 L 371.5 452 L 373.5 451 Z " /><path fill="rgb(233,233,233)" stroke="rgb(233,233,233)" stroke-width="1" opacity="1" d="M 366.5 454 L 368 454.5 L 364.5 456 L 364.5 455 L 366.5 454 Z " /><path fill="rgb(233,233,233)" stroke="rgb(233,233,233)" stroke-width="1" opacity="1" d="M 350.5 459 L 353 459.5 L 350.5 460 L 350.5 459 Z " /><path fill="rgb(233,233,233)" stroke="rgb(233,233,233)" stroke-width="1" opacity="1" d="M 346.5 460 L 349 460.5 L 346.5 461 L 346.5 460 Z " /><path fill="rgb(233,233,233)" stroke="rgb(233,233,233)" stroke-width="1" opacity="1" d="M 290.5 462 L 295 462.5 L 290.5 463 L 290.5 462 Z " /><path fill="rgb(233,233,233)" stroke="rgb(233,233,233)" stroke-width="1" opacity="1" d="M 299.5 463 L 307 463.5 L 299.5 464 L 299.5 463 Z " /><path fill="rgb(90,93,93)" stroke="rgb(90,93,93)" stroke-width="1" opacity="0.9372549019607843" d="M 88.5 10 L 97.5 11 L 122.5 32 Q 123.9 34.6 128.5 34 L 138.5 30 L 162.5 25 L 170.5 25 L 171.5 24 L 209.5 24 L 210.5 25 L 218.5 25 L 219.5 26 L 230.5 27 L 255.5 34 L 285.5 10 L 292.5 10 L 297 15.5 L 297 71.5 L 299 77.5 L 301 95.5 L 302 96.5 L 302 103.5 L 303 104.5 L 303 130.5 Q 297 162.5 276.5 180 L 274 181.5 L 297 227.5 L 311 268.5 L 320 313.5 L 321 331.5 L 322 332.5 L 322 352.5 L 323 354.5 L 323 356.5 L 322 361.5 L 322 379.5 L 321 380.5 L 320 395.5 L 314 420.5 L 311 426.5 L 316.5 429 L 327.5 429 L 328.5 430 L 329.5 429 L 342.5 428 L 354.5 424 Q 366.7 418.2 375 408.5 Q 383.2 399.2 388 386.5 L 392 371.5 L 393 357.5 L 389 334.5 L 389 324.5 Q 390.6 315.6 397.5 312 Q 402.2 308.7 411.5 310 Q 428.3 314.7 437 327.5 Q 446.2 339.3 451 355.5 L 453 365.5 L 453 386.5 L 450 401.5 L 443 417.5 Q 434.3 432.8 421.5 444 Q 403.8 459.8 378.5 468 L 355.5 473 L 325.5 474 L 324.5 473 L 306.5 472 L 283.5 467 L 280 469 Q 283.1 476 283 487.5 L 281 494.5 L 277.5 498 L 266.5 502 L 243.5 502 L 235.5 500 L 228 494.5 L 226 490.5 L 226 481.5 L 225 480.5 L 226 476 L 156.5 476 L 156 476.5 L 156 489.5 L 152 497 L 138.5 502 L 115.5 502 L 107.5 500 L 100 494.5 Q 97.2 488.3 99 477.5 L 101 469 L 91 461.5 L 77 442.5 L 70 427.5 L 64 408.5 L 60 386.5 L 60 376.5 L 59 375.5 L 59 335.5 L 60 334.5 L 60 324.5 L 61 323.5 L 64 296.5 L 72 262.5 L 89 216.5 L 107 181.5 Q 91.9 169.6 84 150.5 L 81 142.5 L 78 127.5 L 78 107.5 L 79 106.5 L 81 84.5 L 84 73.5 L 84 16.5 L 88.5 10 Z M 91 14 L 89 16 L 89 70 L 86 81 L 84 100 L 83 101 L 83 109 L 82 110 L 82 127 L 84 138 Q 89 155 99 168 L 113 181 L 117 183 L 120 187 L 119 188 L 117 188 L 112 184 L 101 202 L 91 223 L 77 261 L 68 298 L 66 316 L 65 317 L 65 324 L 64 325 L 64 335 L 63 336 L 63 376 L 64 377 L 64 385 L 65 386 L 67 403 Q 73 432 89 453 L 102 465 L 105 466 L 107 459 L 107 453 Q 109 450 110 453 L 109 466 Q 104 470 103 479 L 103 491 L 104 493 L 109 496 L 117 498 Q 135 500 147 495 L 152 488 Q 153 476 150 469 L 150 457 L 150 455 Q 149 452 152 453 L 153 455 L 154 471 L 156 472 L 227 472 L 229 460 Q 227 453 232 455 L 232 463 L 230 471 L 230 490 L 231 492 L 237 496 L 245 498 L 265 498 L 273 496 L 278 492 L 278 478 L 271 460 Q 269 453 273 451 L 275 455 Q 274 463 278 466 L 283 463 Q 299 447 308 424 L 316 394 L 317 380 L 318 379 L 318 365 L 319 364 L 317 322 L 316 321 L 315 308 L 311 287 L 306 267 Q 293 220 270 184 L 265 188 Q 260 189 261 187 L 274 177 Q 293 160 299 129 L 299 107 L 298 106 L 296 85 L 293 74 L 293 17 L 291 14 Q 286 13 285 16 L 257 39 L 230 31 L 219 30 L 218 29 L 210 29 L 209 28 L 174 28 L 173 29 L 165 29 L 144 33 L 127 39 L 125 39 L 96 15 L 91 14 Z M 405 314 L 400 316 Q 394 319 393 327 L 393 334 L 397 354 L 397 366 L 396 367 L 395 379 Q 390 397 379 411 L 362 425 L 345 432 L 334 433 L 333 434 L 323 434 L 308 431 Q 302 450 288 463 L 290 464 L 303 467 L 316 468 L 317 469 L 330 469 L 331 470 L 354 469 L 374 465 L 386 461 Q 405 453 420 440 L 438 418 L 445 403 L 449 386 L 449 369 L 446 354 Q 441 340 433 330 Q 424 316 405 314 Z " /><path fill="rgb(90,93,93)" stroke="rgb(90,93,93)" stroke-width="1" opacity="0.9372549019607843" d="M 142.5 90 Q 147.6 89.4 149 92.5 L 150 97.5 L 146.5 102 Q 139.3 103.3 138 98.5 Q 136.8 92.3 140.5 91 L 142.5 90 Z " /><path fill="rgb(90,93,93)" stroke="rgb(90,93,93)" stroke-width="1" opacity="0.9372549019607843" d="M 237.5 90 Q 243.3 89.2 245 92.5 L 246 97.5 L 242.5 102 Q 235.3 103.3 234 98.5 Q 232.8 91.3 237.5 90 Z " /><path fill="rgb(90,93,93)" stroke="rgb(90,93,93)" stroke-width="1" opacity="0.9372549019607843" d="M 186.5 101 Q 197 99 200 104.5 Q 201.3 115.3 195.5 119 L 192 121.5 L 193 131.5 L 196.5 135 L 208 136 L 206.5 139 Q 194.1 140.9 190.5 134 Q 186.9 140.9 174.5 139 L 173 136 Q 184 137.8 188 131.5 L 189 129.5 L 189 120 L 183 115.5 Q 180.1 111.9 181 104.5 L 186.5 101 Z " /><path fill="rgb(90,93,93)" stroke="rgb(90,93,93)" stroke-width="1" opacity="0.9372549019607843" d="M 123 121 L 127.5 121 L 148.5 127 L 156 130.5 Q 155.3 132.8 151.5 132 L 123 124 L 123 121 Z " /><path fill="rgb(90,93,93)" stroke="rgb(90,93,93)" stroke-width="1" opacity="0.9372549019607843" d="M 253.5 121 Q 259.8 119.1 258 124 L 230.5 132 L 226 132 Q 224.3 127.9 228.5 129 L 253.5 121 Z " /><path fill="rgb(90,93,93)" stroke="rgb(90,93,93)" stroke-width="1" opacity="0.9372549019607843" d="M 153.5 141 Q 158 143 154.5 145 L 123 149 Q 121.5 145.3 124.5 146 L 153.5 141 Z " /><path fill="rgb(90,93,93)" stroke="rgb(90,93,93)" stroke-width="1" opacity="0.9372549019607843" d="M 227.5 141 L 242.5 144 L 256.5 145 L 258 146.5 Q 259.3 150.7 254.5 149 L 253.5 148 L 226 145 L 227.5 141 Z " /><path fill="rgb(90,93,93)" stroke="rgb(90,93,93)" stroke-width="1" opacity="0.9372549019607843" d="M 211.5 158 Q 218.5 156.5 220 160.5 L 241 230.5 L 243.5 233 L 247.5 234 L 257 243.5 L 268.5 256 L 299 280.5 Q 300.3 284.3 296.5 283 L 265.5 258 L 254 246.5 L 244.5 236 L 236.5 237 L 223 249.5 L 218 259.5 L 224.5 267 L 236.5 272 L 259 292.5 L 270 305.5 L 271 310 L 267 308.5 L 261 300 L 208.5 316 L 184.5 331 L 180.5 332 L 176 328.5 L 146 277 Q 134 282.6 126 293.5 L 112.5 310 L 110 308.5 Q 120.6 292.6 134.5 280 L 146.5 271 L 155.5 268 L 163 260.5 L 161 253.5 L 150.5 241 L 142.5 236 L 137.5 236 L 128 244.5 L 113.5 260 L 86.5 282 L 82 283 Q 80.5 279.3 83.5 280 L 123 246.5 L 125 243.5 L 106 212.5 L 104 205.5 L 110.5 200 L 138 183.5 L 139.5 181 Q 156.2 175.2 168.5 165 L 175.5 163 L 178 164 L 180.5 168 L 211.5 158 Z M 215 161 L 182 172 L 187 178 L 201 173 L 205 173 L 206 177 L 211 179 L 214 178 L 216 182 L 232 235 L 238 233 L 217 163 L 215 161 Z M 173 167 L 108 207 L 109 211 L 126 239 L 128 240 L 132 236 L 122 219 Q 122 214 125 214 L 124 206 L 164 181 Q 168 180 167 183 L 171 185 L 178 184 L 216 249 L 219 250 L 222 246 L 176 169 L 173 167 Z M 202 177 L 189 181 L 191 187 L 225 241 L 229 239 L 212 183 Q 204 183 202 177 Z M 165 185 L 129 206 L 129 215 L 127 217 L 127 220 L 134 232 Q 135 234 137 232 L 143 232 L 149 235 L 161 246 L 164 240 Q 168 233 177 231 Q 186 230 190 233 Q 194 236 196 243 Q 196 252 191 257 L 180 263 Q 170 264 166 261 L 164 266 L 158 271 L 179 306 Q 187 305 190 309 L 194 308 L 224 290 L 226 288 Q 225 279 229 277 L 227 274 L 224 271 L 215 263 Q 217 255 214 252 L 177 191 L 176 189 L 168 188 L 165 185 Z M 177 235 L 170 239 L 165 246 L 166 255 L 172 259 L 180 259 L 186 256 L 192 247 Q 193 241 190 239 Q 187 233 177 235 Z M 153 273 L 149 274 L 150 279 L 181 328 L 183 328 L 247 289 L 246 285 L 233 275 Q 234 280 230 282 L 231 290 L 192 314 L 190 314 L 185 310 L 179 311 L 156 275 L 153 273 Z M 250 290 L 250 292 L 226 306 L 226 307 L 257 298 L 255 294 L 250 290 Z " /><path fill="rgb(123,187,136)" stroke="rgb(123,187,136)" stroke-width="1" opacity="1" d="M 90.5 14 L 89.5 16 L 90.5 14 Z " /><path fill="rgb(123,187,136)" stroke="rgb(123,187,136)" stroke-width="1" opacity="1" d="M 95.5 15 L 96.5 17 L 95.5 15 Z " /><path fill="rgb(123,187,136)" stroke="rgb(123,187,136)" stroke-width="1" opacity="1" d="M 284.5 16 L 282.5 19 L 284.5 16 Z " /><path fill="rgb(123,187,136)" stroke="rgb(123,187,136)" stroke-width="1" opacity="1" d="M 292.5 16 L 293 70.5 L 292 70.5 L 292.5 16 Z " /><path fill="rgb(123,187,136)" stroke="rgb(123,187,136)" stroke-width="1" opacity="1" d="M 100.5 19 L 101.5 21 L 100.5 19 Z " /><path fill="rgb(123,187,136)" stroke="rgb(123,187,136)" stroke-width="1" opacity="1" d="M 279.5 20 L 277.5 23 L 279.5 20 Z " /><path fill="rgb(123,187,136)" stroke="rgb(123,187,136)" stroke-width="1" opacity="1" d="M 105.5 23 L 107.5 26 L 105.5 23 Z " /><path fill="rgb(123,187,136)" stroke="rgb(123,187,136)" stroke-width="1" opacity="1" d="M 274.5 24 L 272.5 27 L 274.5 24 Z " /><path fill="rgb(123,187,136)" stroke="rgb(123,187,136)" stroke-width="1" opacity="1" d="M 110.5 27 L 112.5 30 L 110.5 27 Z " /><path fill="rgb(123,187,136)" stroke="rgb(123,187,136)" stroke-width="1" opacity="1" d="M 173.5 28 L 180 28.5 L 173.5 29 L 173.5 28 Z " /><path fill="rgb(123,187,136)" stroke="rgb(123,187,136)" stroke-width="1" opacity="1" d="M 201.5 28 L 209 28.5 L 201.5 29 L 201.5 28 Z " /><path fill="rgb(123,187,136)" stroke="rgb(123,187,136)" stroke-width="1" opacity="1" d="M 269.5 28 L 267.5 31 L 269.5 28 Z " /><path fill="rgb(123,187,136)" stroke="rgb(123,187,136)" stroke-width="1" opacity="1" d="M 164.5 29 L 167 29.5 L 164.5 30 L 164.5 29 Z " /><path fill="rgb(123,187,136)" stroke="rgb(123,187,136)" stroke-width="1" opacity="1" d="M 214.5 29 L 218 29.5 L 214.5 30 L 214.5 29 Z " /><path fill="rgb(123,187,136)" stroke="rgb(123,187,136)" stroke-width="1" opacity="1" d="M 157.5 30 L 160 30.5 L 157.5 31 L 157.5 30 Z " /><path fill="rgb(123,187,136)" stroke="rgb(123,187,136)" stroke-width="1" opacity="1" d="M 221.5 30 L 224 30.5 L 221.5 31 L 221.5 30 Z " /><path fill="rgb(123,187,136)" stroke="rgb(123,187,136)" stroke-width="1" opacity="1" d="M 115.5 31 L 117.5 34 L 115.5 31 Z " /><path fill="rgb(123,187,136)" stroke="rgb(123,187,136)" stroke-width="1" opacity="1" d="M 152.5 31 L 155 31.5 L 152.5 32 L 152.5 31 Z " /><path fill="rgb(123,187,136)" stroke="rgb(123,187,136)" stroke-width="1" opacity="1" d="M 227.5 31 L 230 31.5 L 227.5 32 L 227.5 31 Z " /><path fill="rgb(123,187,136)" stroke="rgb(123,187,136)" stroke-width="1" opacity="1" d="M 264.5 32 L 262.5 35 L 264.5 32 Z " /><path fill="rgb(123,187,136)" stroke="rgb(123,187,136)" stroke-width="1" opacity="1" d="M 120.5 35 L 122.5 38 L 120.5 35 Z " /><path fill="rgb(123,187,136)" stroke="rgb(123,187,136)" stroke-width="1" opacity="1" d="M 259.5 36 L 257.5 39 L 259.5 36 Z " /><path fill="rgb(123,187,136)" stroke="rgb(123,187,136)" stroke-width="1" opacity="1" d="M 86.5 80 L 87 82.5 L 86 82.5 L 86.5 80 Z " /><path fill="rgb(123,187,136)" stroke="rgb(123,187,136)" stroke-width="1" opacity="1" d="M 295.5 84 L 296 86.5 L 295 86.5 L 295.5 84 Z " /><path fill="rgb(123,187,136)" stroke="rgb(123,187,136)" stroke-width="1" opacity="1" d="M 85.5 86 L 86 88.5 L 85 88.5 L 85.5 86 Z " /><path fill="rgb(123,187,136)" stroke="rgb(123,187,136)" stroke-width="1" opacity="1" d="M 296.5 90 L 297 93.5 L 296 93.5 L 296.5 90 Z " /><path fill="rgb(123,187,136)" stroke="rgb(123,187,136)" stroke-width="1" opacity="1" d="M 235.5 91 L 234.5 93 L 235.5 91 Z " /><path fill="rgb(123,187,136)" stroke="rgb(123,187,136)" stroke-width="1" opacity="1" d="M 84.5 92 L 85 95.5 L 84 95.5 L 84.5 92 Z " /><path fill="rgb(123,187,136)" stroke="rgb(123,187,136)" stroke-width="1" opacity="1" d="M 233.5 95 L 234 97.5 L 233 97.5 L 233.5 95 Z " /><path fill="rgb(123,187,136)" stroke="rgb(123,187,136)" stroke-width="1" opacity="1" d="M 297.5 97 L 298 100.5 L 297 100.5 L 297.5 97 Z " /><path fill="rgb(123,187,136)" stroke="rgb(123,187,136)" stroke-width="1" opacity="1" d="M 138.5 99 L 140.5 102 L 138.5 99 Z " /><path fill="rgb(123,187,136)" stroke="rgb(123,187,136)" stroke-width="1" opacity="1" d="M 234.5 99 L 236.5 102 L 234.5 99 Z " /><path fill="rgb(123,187,136)" stroke="rgb(123,187,136)" stroke-width="1" opacity="1" d="M 83.5 100 L 84 103.5 L 83 103.5 L 83.5 100 Z " /><path fill="rgb(123,187,136)" stroke="rgb(123,187,136)" stroke-width="1" opacity="1" d="M 198.5 102 L 199.5 104 L 198.5 102 Z " /><path fill="rgb(123,187,136)" stroke="rgb(123,187,136)" stroke-width="1" opacity="1" d="M 200.5 105 L 201 110.5 L 200 110.5 L 200.5 105 Z " /><path fill="rgb(123,187,136)" stroke="rgb(123,187,136)" stroke-width="1" opacity="1" d="M 180.5 106 L 181 108.5 L 180 108.5 L 180.5 106 Z " /><path fill="rgb(123,187,136)" stroke="rgb(123,187,136)" stroke-width="1" opacity="1" d="M 298.5 106 L 299 109.5 L 298 109.5 L 298.5 106 Z " /><path fill="rgb(123,187,136)" stroke="rgb(123,187,136)" stroke-width="1" opacity="1" d="M 82.5 109 L 83 114.5 L 82 114.5 L 82.5 109 Z " /><path fill="rgb(123,187,136)" stroke="rgb(123,187,136)" stroke-width="1" opacity="1" d="M 183.5 116 L 186.5 120 L 183.5 116 Z " /><path fill="rgb(123,187,136)" stroke="rgb(123,187,136)" stroke-width="1" opacity="1" d="M 123.5 120 L 126 120.5 L 123 121 L 122.5 123 L 122 121.5 L 123.5 120 Z " /><path fill="rgb(123,187,136)" stroke="rgb(123,187,136)" stroke-width="1" opacity="1" d="M 188.5 120 L 189 129.5 L 188 129.5 L 188.5 120 Z " /><path fill="rgb(123,187,136)" stroke="rgb(123,187,136)" stroke-width="1" opacity="1" d="M 255.5 120 L 259 121.5 L 258.5 124 L 258 121 Q 254.7 121.8 255.5 120 Z " /><path fill="rgb(123,187,136)" stroke="rgb(123,187,136)" stroke-width="1" opacity="1" d="M 82.5 121 L 83 126.5 L 82 126.5 L 82.5 121 Z " /><path fill="rgb(123,187,136)" stroke="rgb(123,187,136)" stroke-width="1" opacity="1" d="M 192.5 121 L 193 127.5 L 192 127.5 L 192.5 121 Z " /><path fill="rgb(123,187,136)" stroke="rgb(123,187,136)" stroke-width="1" opacity="1" d="M 298.5 126 L 299 128.5 L 298 128.5 L 298.5 126 Z " /><path fill="rgb(123,187,136)" stroke="rgb(123,187,136)" stroke-width="1" opacity="1" d="M 225.5 130 L 226 132 L 229 132.5 L 226.5 133 L 225.5 130 Z " /><path fill="rgb(123,187,136)" stroke="rgb(123,187,136)" stroke-width="1" opacity="1" d="M 155.5 131 L 154.5 133 L 152 132.5 L 155.5 131 Z " /><path fill="rgb(123,187,136)" stroke="rgb(123,187,136)" stroke-width="1" opacity="1" d="M 190.5 134 L 192.5 137 L 190.5 135 L 188 136.5 L 190.5 134 Z " /><path fill="rgb(123,187,136)" stroke="rgb(123,187,136)" stroke-width="1" opacity="1" d="M 174.5 135 L 182 135.5 L 174.5 136 L 174.5 135 Z " /><path fill="rgb(123,187,136)" stroke="rgb(123,187,136)" stroke-width="1" opacity="1" d="M 199.5 135 L 208 135.5 L 199.5 136 L 199.5 135 Z " /><path fill="rgb(123,187,136)" stroke="rgb(123,187,136)" stroke-width="1" opacity="1" d="M 150.5 141 L 153 141.5 L 150.5 142 L 150.5 141 Z " /><path fill="rgb(123,187,136)" stroke="rgb(123,187,136)" stroke-width="1" opacity="1" d="M 154.5 141 L 155.5 143 L 154.5 141 Z " /><path fill="rgb(123,187,136)" stroke="rgb(123,187,136)" stroke-width="1" opacity="1" d="M 226.5 141 L 226 142.5 L 225.5 144 L 225 142.5 L 226.5 141 Z " /><path fill="rgb(123,187,136)" stroke="rgb(123,187,136)" stroke-width="1" opacity="1" d="M 228.5 141 L 231 141.5 L 228.5 142 L 228.5 141 Z " /><path fill="rgb(123,187,136)" stroke="rgb(123,187,136)" stroke-width="1" opacity="1" d="M 143.5 142 L 146 142.5 L 143.5 143 L 143.5 142 Z " /><path fill="rgb(123,187,136)" stroke="rgb(123,187,136)" stroke-width="1" opacity="1" d="M 235.5 142 L 239 142.5 L 235.5 143 L 235.5 142 Z " /><path fill="rgb(123,187,136)" stroke="rgb(123,187,136)" stroke-width="1" opacity="1" d="M 136.5 143 L 139 143.5 L 136.5 144 L 136.5 143 Z " /><path fill="rgb(123,187,136)" stroke="rgb(123,187,136)" stroke-width="1" opacity="1" d="M 242.5 143 L 246 143.5 L 242.5 144 L 242.5 143 Z " /><path fill="rgb(123,187,136)" stroke="rgb(123,187,136)" stroke-width="1" opacity="1" d="M 128.5 144 L 132 144.5 L 128.5 145 L 128.5 144 Z " /><path fill="rgb(123,187,136)" stroke="rgb(123,187,136)" stroke-width="1" opacity="1" d="M 250.5 144 L 253 144.5 L 250.5 145 L 250.5 144 Z " /><path fill="rgb(123,187,136)" stroke="rgb(123,187,136)" stroke-width="1" opacity="1" d="M 123.5 145 L 125 145.5 L 123 146 L 122.5 148 L 122 146.5 L 123.5 145 Z " /><path fill="rgb(123,187,136)" stroke="rgb(123,187,136)" stroke-width="1" opacity="1" d="M 149.5 145 L 152 145.5 L 149.5 146 L 149.5 145 Z " /><path fill="rgb(123,187,136)" stroke="rgb(123,187,136)" stroke-width="1" opacity="1" d="M 229.5 145 L 232 145.5 L 229.5 146 L 229.5 145 Z " /><path fill="rgb(123,187,136)" stroke="rgb(123,187,136)" stroke-width="1" opacity="1" d="M 257.5 145 L 259 148.5 L 258 148.5 L 257.5 145 Z " /><path fill="rgb(123,187,136)" stroke="rgb(123,187,136)" stroke-width="1" opacity="1" d="M 142.5 146 L 145 146.5 L 142.5 147 L 142.5 146 Z " /><path fill="rgb(123,187,136)" stroke="rgb(123,187,136)" stroke-width="1" opacity="1" d="M 236.5 146 L 239 146.5 L 236.5 147 L 236.5 146 Z " /><path fill="rgb(123,187,136)" stroke="rgb(123,187,136)" stroke-width="1" opacity="1" d="M 135.5 147 L 138 147.5 L 135.5 148 L 135.5 147 Z " /><path fill="rgb(123,187,136)" stroke="rgb(123,187,136)" stroke-width="1" opacity="1" d="M 243.5 147 L 247 147.5 L 243.5 148 L 243.5 147 Z " /><path fill="rgb(123,187,136)" stroke="rgb(123,187,136)" stroke-width="1" opacity="1" d="M 128.5 148 L 131 148.5 L 128.5 149 L 128.5 148 Z " /><path fill="rgb(123,187,136)" stroke="rgb(123,187,136)" stroke-width="1" opacity="1" d="M 250.5 148 L 254 148.5 L 250.5 149 L 250.5 148 Z " /><path fill="rgb(123,187,136)" stroke="rgb(123,187,136)" stroke-width="1" opacity="1" d="M 213.5 157 L 217 157.5 L 213.5 158 L 213.5 157 Z " /><path fill="rgb(123,187,136)" stroke="rgb(123,187,136)" stroke-width="1" opacity="1" d="M 218.5 158 L 219.5 160 L 218.5 158 Z " /><path fill="rgb(123,187,136)" stroke="rgb(123,187,136)" stroke-width="1" opacity="1" d="M 287.5 159 L 286.5 161 L 287.5 159 Z " /><path fill="rgb(123,187,136)" stroke="rgb(123,187,136)" stroke-width="1" opacity="1" d="M 214.5 161 L 217 162.5 L 238 233 L 232 235 L 216 181.5 L 213.5 178 L 210.5 179 L 206 176.5 L 205 173 L 200.5 173 L 186.5 178 L 182 171.5 L 214.5 161 Z " /><path fill="rgb(123,187,136)" stroke="rgb(123,187,136)" stroke-width="1" opacity="1" d="M 285.5 162 L 284.5 164 L 285.5 162 Z " /><path fill="rgb(123,187,136)" stroke="rgb(123,187,136)" stroke-width="1" opacity="1" d="M 96.5 163 L 97.5 165 L 96.5 163 Z " /><path fill="rgb(123,187,136)" stroke="rgb(123,187,136)" stroke-width="1" opacity="1" d="M 167.5 165 L 166.5 167 L 167.5 165 Z " /><path fill="rgb(123,187,136)" stroke="rgb(123,187,136)" stroke-width="1" opacity="1" d="M 283.5 165 L 281.5 168 L 283.5 165 Z " /><path fill="rgb(123,187,136)" stroke="rgb(123,187,136)" stroke-width="1" opacity="1" d="M 99.5 167 L 101.5 170 L 99.5 167 Z " /><path fill="rgb(123,187,136)" stroke="rgb(123,187,136)" stroke-width="1" opacity="1" d="M 172.5 167 L 176 168.5 L 222 245.5 L 219 250 L 216 248.5 L 178 184 L 170.5 185 L 167 183 Q 168.3 179.7 163.5 181 L 124 205.5 L 125 213.5 Q 121.5 214 122 218.5 L 132 235.5 L 127.5 240 L 126 238.5 L 109 210.5 L 108 206.5 L 172.5 167 Z " /><path fill="rgb(123,187,136)" stroke="rgb(123,187,136)" stroke-width="1" opacity="1" d="M 162.5 168 L 161.5 170 L 162.5 168 Z " /><path fill="rgb(123,187,136)" stroke="rgb(123,187,136)" stroke-width="1" opacity="1" d="M 157.5 171 L 156.5 173 L 157.5 171 Z " /><path fill="rgb(123,187,136)" stroke="rgb(123,187,136)" stroke-width="1" opacity="1" d="M 278.5 171 L 273.5 177 L 278.5 171 Z " /><path fill="rgb(123,187,136)" stroke="rgb(123,187,136)" stroke-width="1" opacity="1" d="M 201.5 177 Q 204.3 183 212 183 L 229 239 L 224.5 241 L 191 186.5 L 189 181 L 201.5 177 Z " /><path fill="rgb(123,187,136)" stroke="rgb(123,187,136)" stroke-width="1" opacity="1" d="M 110.5 178 L 112.5 181 L 110.5 178 Z " /><path fill="rgb(123,187,136)" stroke="rgb(123,187,136)" stroke-width="1" opacity="1" d="M 268.5 180 L 267.5 182 L 268.5 180 Z " /><path fill="rgb(123,187,136)" stroke="rgb(123,187,136)" stroke-width="1" opacity="1" d="M 137.5 183 L 136.5 185 L 137.5 183 Z " /><path fill="rgb(123,187,136)" stroke="rgb(123,187,136)" stroke-width="1" opacity="1" d="M 111.5 184 L 110.5 186 L 111.5 184 Z " /><path fill="rgb(123,187,136)" stroke="rgb(123,187,136)" stroke-width="1" opacity="1" d="M 118.5 184 L 119.5 186 L 118.5 184 Z " /><path fill="rgb(123,187,136)" stroke="rgb(123,187,136)" stroke-width="1" opacity="1" d="M 269.5 184 L 268.5 186 L 269.5 184 Z " /><path fill="rgb(123,187,136)" stroke="rgb(123,187,136)" stroke-width="1" opacity="1" d="M 164.5 185 L 167.5 188 L 175.5 189 L 177 190.5 L 214 251.5 Q 216.5 255 215 262.5 L 223.5 271 L 227 273.5 L 229 276.5 Q 224.5 279 226 287.5 L 223.5 290 L 193.5 308 L 189.5 309 Q 186.8 304.5 179 306 L 158 270.5 L 164 265.5 L 166 261 Q 170.3 264 179.5 263 L 191 256.5 Q 196 252 196 242.5 Q 194.5 236 189.5 233 Q 185.5 229.5 176.5 231 Q 168.2 233.2 164 239.5 L 160.5 246 L 148.5 235 L 142.5 232 L 136.5 232 Q 135.2 234.3 134 231.5 L 127 219.5 L 127 216.5 L 129 214.5 L 129 206 L 164.5 185 Z " /><path fill="rgb(123,187,136)" stroke="rgb(123,187,136)" stroke-width="1" opacity="1" d="M 119.5 187 L 118.5 189 L 117 188.5 L 119.5 187 Z " /><path fill="rgb(123,187,136)" stroke="rgb(123,187,136)" stroke-width="1" opacity="1" d="M 119.5 194 L 118.5 196 L 119.5 194 Z " /><path fill="rgb(123,187,136)" stroke="rgb(123,187,136)" stroke-width="1" opacity="1" d="M 114.5 197 L 113.5 199 L 114.5 197 Z " /><path fill="rgb(123,187,136)" stroke="rgb(123,187,136)" stroke-width="1" opacity="1" d="M 109.5 200 L 108.5 202 L 109.5 200 Z " /><path fill="rgb(123,187,136)" stroke="rgb(123,187,136)" stroke-width="1" opacity="1" d="M 106.5 202 L 104.5 205 L 106.5 202 Z " /><path fill="rgb(123,187,136)" stroke="rgb(123,187,136)" stroke-width="1" opacity="1" d="M 106.5 213 L 107.5 215 L 106.5 213 Z " /><path fill="rgb(123,187,136)" stroke="rgb(123,187,136)" stroke-width="1" opacity="1" d="M 109.5 218 L 110.5 220 L 109.5 218 Z " /><path fill="rgb(123,187,136)" stroke="rgb(123,187,136)" stroke-width="1" opacity="1" d="M 112.5 223 L 113.5 225 L 112.5 223 Z " /><path fill="rgb(123,187,136)" stroke="rgb(123,187,136)" stroke-width="1" opacity="1" d="M 115.5 228 L 116.5 230 L 115.5 228 Z " /><path fill="rgb(123,187,136)" stroke="rgb(123,187,136)" stroke-width="1" opacity="1" d="M 176.5 235 Q 186.6 233.4 190 238.5 Q 192.7 240.8 192 246.5 L 185.5 256 L 179.5 259 L 171.5 259 L 166 254.5 L 165 245.5 L 169.5 239 L 176.5 235 Z " /><path fill="rgb(123,187,136)" stroke="rgb(123,187,136)" stroke-width="1" opacity="1" d="M 249.5 235 L 254.5 241 L 249.5 235 Z " /><path fill="rgb(123,187,136)" stroke="rgb(123,187,136)" stroke-width="1" opacity="1" d="M 243.5 236 L 246 237.5 L 244.5 237 L 243.5 236 Z " /><path fill="rgb(123,187,136)" stroke="rgb(123,187,136)" stroke-width="1" opacity="1" d="M 135.5 237 L 134.5 239 L 135.5 237 Z " /><path fill="rgb(123,187,136)" stroke="rgb(123,187,136)" stroke-width="1" opacity="1" d="M 236.5 237 L 235.5 239 L 236.5 237 Z " /><path fill="rgb(123,187,136)" stroke="rgb(123,187,136)" stroke-width="1" opacity="1" d="M 146.5 238 L 147.5 240 L 146.5 238 Z " /><path fill="rgb(123,187,136)" stroke="rgb(123,187,136)" stroke-width="1" opacity="1" d="M 233.5 239 L 232.5 241 L 233.5 239 Z " /><path fill="rgb(123,187,136)" stroke="rgb(123,187,136)" stroke-width="1" opacity="1" d="M 150.5 241 L 155.5 247 L 150.5 241 Z " /><path fill="rgb(123,187,136)" stroke="rgb(123,187,136)" stroke-width="1" opacity="1" d="M 130.5 242 L 128.5 245 L 130.5 242 Z " /><path fill="rgb(123,187,136)" stroke="rgb(123,187,136)" stroke-width="1" opacity="1" d="M 252.5 244 L 253.5 246 L 252.5 244 Z " /><path fill="rgb(123,187,136)" stroke="rgb(123,187,136)" stroke-width="1" opacity="1" d="M 122.5 246 L 121.5 248 L 122.5 246 Z " /><path fill="rgb(123,187,136)" stroke="rgb(123,187,136)" stroke-width="1" opacity="1" d="M 126.5 247 L 117.5 257 L 126.5 247 Z " /><path fill="rgb(123,187,136)" stroke="rgb(123,187,136)" stroke-width="1" opacity="1" d="M 224.5 248 L 223.5 250 L 224.5 248 Z " /><path fill="rgb(123,187,136)" stroke="rgb(123,187,136)" stroke-width="1" opacity="1" d="M 255.5 248 L 260.5 254 L 255.5 248 Z " /><path fill="rgb(123,187,136)" stroke="rgb(123,187,136)" stroke-width="1" opacity="1" d="M 265.5 252 L 268.5 256 L 265.5 252 Z " /><path fill="rgb(123,187,136)" stroke="rgb(123,187,136)" stroke-width="1" opacity="1" d="M 113.5 254 L 110.5 258 L 113.5 254 Z " /><path fill="rgb(123,187,136)" stroke="rgb(123,187,136)" stroke-width="1" opacity="1" d="M 266.5 258 L 268.5 261 L 266.5 258 Z " /><path fill="rgb(123,187,136)" stroke="rgb(123,187,136)" stroke-width="1" opacity="1" d="M 272.5 258 L 274.5 261 L 272.5 258 Z " /><path fill="rgb(123,187,136)" stroke="rgb(123,187,136)" stroke-width="1" opacity="1" d="M 106.5 260 L 105.5 262 L 106.5 260 Z " /><path fill="rgb(123,187,136)" stroke="rgb(123,187,136)" stroke-width="1" opacity="1" d="M 112.5 260 L 110.5 263 L 112.5 260 Z " /><path fill="rgb(123,187,136)" stroke="rgb(123,187,136)" stroke-width="1" opacity="1" d="M 162.5 260 L 161.5 262 L 162.5 260 Z " /><path fill="rgb(123,187,136)" stroke="rgb(123,187,136)" stroke-width="1" opacity="1" d="M 219.5 261 L 220.5 263 L 219.5 261 Z " /><path fill="rgb(123,187,136)" stroke="rgb(123,187,136)" stroke-width="1" opacity="1" d="M 277.5 262 L 278.5 264 L 277.5 262 Z " /><path fill="rgb(123,187,136)" stroke="rgb(123,187,136)" stroke-width="1" opacity="1" d="M 102.5 263 L 100.5 266 L 102.5 263 Z " /><path fill="rgb(123,187,136)" stroke="rgb(123,187,136)" stroke-width="1" opacity="1" d="M 272.5 263 L 273.5 265 L 272.5 263 Z " /><path fill="rgb(123,187,136)" stroke="rgb(123,187,136)" stroke-width="1" opacity="1" d="M 107.5 264 L 105.5 267 L 107.5 264 Z " /><path fill="rgb(123,187,136)" stroke="rgb(123,187,136)" stroke-width="1" opacity="1" d="M 223.5 265 L 224.5 267 L 223.5 265 Z " /><path fill="rgb(123,187,136)" stroke="rgb(123,187,136)" stroke-width="1" opacity="1" d="M 156.5 266 L 155.5 268 L 156.5 266 Z " /><path fill="rgb(123,187,136)" stroke="rgb(123,187,136)" stroke-width="1" opacity="1" d="M 282.5 266 L 283.5 268 L 282.5 266 Z " /><path fill="rgb(123,187,136)" stroke="rgb(123,187,136)" stroke-width="1" opacity="1" d="M 97.5 267 L 96.5 269 L 97.5 267 Z " /><path fill="rgb(123,187,136)" stroke="rgb(123,187,136)" stroke-width="1" opacity="1" d="M 277.5 267 L 278.5 269 L 277.5 267 Z " /><path fill="rgb(123,187,136)" stroke="rgb(123,187,136)" stroke-width="1" opacity="1" d="M 102.5 268 L 101.5 270 L 102.5 268 Z " /><path fill="rgb(123,187,136)" stroke="rgb(123,187,136)" stroke-width="1" opacity="1" d="M 281.5 270 L 283.5 273 L 281.5 270 Z " /><path fill="rgb(123,187,136)" stroke="rgb(123,187,136)" stroke-width="1" opacity="1" d="M 287.5 270 L 288.5 272 L 287.5 270 Z " /><path fill="rgb(123,187,136)" stroke="rgb(123,187,136)" stroke-width="1" opacity="1" d="M 92.5 271 L 91.5 273 L 92.5 271 Z " /><path fill="rgb(123,187,136)" stroke="rgb(123,187,136)" stroke-width="1" opacity="1" d="M 145.5 271 L 144.5 273 L 145.5 271 Z " /><path fill="rgb(123,187,136)" stroke="rgb(123,187,136)" stroke-width="1" opacity="1" d="M 97.5 272 L 96.5 274 L 97.5 272 Z " /><path fill="rgb(123,187,136)" stroke="rgb(123,187,136)" stroke-width="1" opacity="1" d="M 152.5 273 L 156 274.5 L 178.5 311 L 184.5 310 L 189.5 314 L 191.5 314 L 231 289.5 L 230 281.5 Q 233.7 280.7 233 275.5 L 232.5 274 L 246 284.5 L 247 288.5 L 182.5 328 L 180.5 328 L 150 278.5 L 149 274 L 152.5 273 Z " /><path fill="rgb(123,187,136)" stroke="rgb(123,187,136)" stroke-width="1" opacity="1" d="M 238.5 273 L 239.5 275 L 238.5 273 Z " /><path fill="rgb(123,187,136)" stroke="rgb(123,187,136)" stroke-width="1" opacity="1" d="M 141.5 274 L 140.5 276 L 141.5 274 Z " /><path fill="rgb(123,187,136)" stroke="rgb(123,187,136)" stroke-width="1" opacity="1" d="M 286.5 274 L 288.5 277 L 286.5 274 Z " /><path fill="rgb(123,187,136)" stroke="rgb(123,187,136)" stroke-width="1" opacity="1" d="M 292.5 274 L 294.5 277 L 292.5 274 Z " /><path fill="rgb(123,187,136)" stroke="rgb(123,187,136)" stroke-width="1" opacity="1" d="M 86.5 276 L 83.5 280 L 86.5 276 Z " /><path fill="rgb(123,187,136)" stroke="rgb(123,187,136)" stroke-width="1" opacity="1" d="M 92.5 276 L 90.5 279 L 92.5 276 Z " /><path fill="rgb(123,187,136)" stroke="rgb(123,187,136)" stroke-width="1" opacity="1" d="M 242.5 276 L 244.5 279 L 242.5 276 Z " /><path fill="rgb(123,187,136)" stroke="rgb(123,187,136)" stroke-width="1" opacity="1" d="M 137.5 277 L 135.5 280 L 137.5 277 Z " /><path fill="rgb(123,187,136)" stroke="rgb(123,187,136)" stroke-width="1" opacity="1" d="M 142.5 278 L 141.5 280 L 142.5 278 Z " /><path fill="rgb(123,187,136)" stroke="rgb(123,187,136)" stroke-width="1" opacity="1" d="M 292.5 279 L 295.5 283 L 292.5 279 Z " /><path fill="rgb(123,187,136)" stroke="rgb(123,187,136)" stroke-width="1" opacity="1" d="M 147.5 281 L 148.5 283 L 147.5 281 Z " /><path fill="rgb(123,187,136)" stroke="rgb(123,187,136)" stroke-width="1" opacity="1" d="M 299.5 281 L 300 282.5 L 297.5 284 L 297.5 283 Q 300 283.7 299.5 281 Z " /><path fill="rgb(123,187,136)" stroke="rgb(123,187,136)" stroke-width="1" opacity="1" d="M 85.5 282 L 84.5 284 L 83 283.5 L 85.5 282 Z " /><path fill="rgb(123,187,136)" stroke="rgb(123,187,136)" stroke-width="1" opacity="1" d="M 137.5 282 L 126.5 294 L 137.5 282 Z " /><path fill="rgb(123,187,136)" stroke="rgb(123,187,136)" stroke-width="1" opacity="1" d="M 249.5 282 L 255.5 289 L 249.5 282 Z " /><path fill="rgb(123,187,136)" stroke="rgb(123,187,136)" stroke-width="1" opacity="1" d="M 150.5 286 L 151.5 288 L 150.5 286 Z " /><path fill="rgb(123,187,136)" stroke="rgb(123,187,136)" stroke-width="1" opacity="1" d="M 70.5 287 L 71 289.5 L 70 289.5 L 70.5 287 Z " /><path fill="rgb(123,187,136)" stroke="rgb(123,187,136)" stroke-width="1" opacity="1" d="M 250 290 L 255 293.5 L 257 298 L 224.5 308 L 225.5 306 L 250 292 L 250 290 Z " /><path fill="rgb(123,187,136)" stroke="rgb(123,187,136)" stroke-width="1" opacity="1" d="M 123.5 291 L 121.5 294 L 123.5 291 Z " /><path fill="rgb(123,187,136)" stroke="rgb(123,187,136)" stroke-width="1" opacity="1" d="M 69.5 292 L 70 294.5 L 69 294.5 L 69.5 292 Z " /><path fill="rgb(123,187,136)" stroke="rgb(123,187,136)" stroke-width="1" opacity="1" d="M 259.5 293 L 261.5 296 L 259.5 293 Z " /><path fill="rgb(123,187,136)" stroke="rgb(123,187,136)" stroke-width="1" opacity="1" d="M 119.5 296 L 117.5 299 L 119.5 296 Z " /><path fill="rgb(123,187,136)" stroke="rgb(123,187,136)" stroke-width="1" opacity="1" d="M 68.5 297 L 69 299.5 L 68 299.5 L 68.5 297 Z " /><path fill="rgb(123,187,136)" stroke="rgb(123,187,136)" stroke-width="1" opacity="1" d="M 123.5 297 L 122.5 299 L 123.5 297 Z " /><path fill="rgb(123,187,136)" stroke="rgb(123,187,136)" stroke-width="1" opacity="1" d="M 263.5 298 L 268.5 304 L 263.5 298 Z " /><path fill="rgb(123,187,136)" stroke="rgb(123,187,136)" stroke-width="1" opacity="1" d="M 313.5 301 L 314 303.5 L 313 303.5 L 313.5 301 Z " /><path fill="rgb(123,187,136)" stroke="rgb(123,187,136)" stroke-width="1" opacity="1" d="M 119.5 302 L 115.5 307 L 119.5 302 Z " /><path fill="rgb(123,187,136)" stroke="rgb(123,187,136)" stroke-width="1" opacity="1" d="M 67.5 303 L 68 305.5 L 67 305.5 L 67.5 303 Z " /><path fill="rgb(123,187,136)" stroke="rgb(123,187,136)" stroke-width="1" opacity="1" d="M 314.5 307 L 315 309.5 L 314 309.5 L 314.5 307 Z " /><path fill="rgb(123,187,136)" stroke="rgb(123,187,136)" stroke-width="1" opacity="1" d="M 66.5 309 L 67 311.5 L 66 311.5 L 66.5 309 Z " /><path fill="rgb(123,187,136)" stroke="rgb(123,187,136)" stroke-width="1" opacity="1" d="M 110.5 309 L 111.5 311 L 110.5 309 Z " /><path fill="rgb(123,187,136)" stroke="rgb(123,187,136)" stroke-width="1" opacity="1" d="M 315.5 314 L 316 316.5 L 315 316.5 L 315.5 314 Z " /><path fill="rgb(123,187,136)" stroke="rgb(123,187,136)" stroke-width="1" opacity="1" d="M 404.5 314 L 410 314.5 L 404.5 315 L 404.5 314 Z " /><path fill="rgb(123,187,136)" stroke="rgb(123,187,136)" stroke-width="1" opacity="1" d="M 65.5 316 L 66 319.5 L 65 319.5 L 65.5 316 Z " /><path fill="rgb(123,187,136)" stroke="rgb(123,187,136)" stroke-width="1" opacity="1" d="M 206.5 317 L 205.5 319 L 206.5 317 Z " /><path fill="rgb(123,187,136)" stroke="rgb(123,187,136)" stroke-width="1" opacity="1" d="M 201.5 320 L 200.5 322 L 201.5 320 Z " /><path fill="rgb(123,187,136)" stroke="rgb(123,187,136)" stroke-width="1" opacity="1" d="M 316.5 321 L 317 325.5 L 316 325.5 L 316.5 321 Z " /><path fill="rgb(123,187,136)" stroke="rgb(123,187,136)" stroke-width="1" opacity="1" d="M 424.5 321 L 432.5 330 L 424.5 321 Z " /><path fill="rgb(123,187,136)" stroke="rgb(123,187,136)" stroke-width="1" opacity="1" d="M 196.5 323 L 195.5 325 L 196.5 323 Z " /><path fill="rgb(123,187,136)" stroke="rgb(123,187,136)" stroke-width="1" opacity="1" d="M 64.5 324 L 65 328.5 L 64 328.5 L 64.5 324 Z " /><path fill="rgb(123,187,136)" stroke="rgb(123,187,136)" stroke-width="1" opacity="1" d="M 173.5 324 L 174.5 326 L 173.5 324 Z " /><path fill="rgb(123,187,136)" stroke="rgb(123,187,136)" stroke-width="1" opacity="1" d="M 191.5 326 L 190.5 328 L 191.5 326 Z " /><path fill="rgb(123,187,136)" stroke="rgb(123,187,136)" stroke-width="1" opacity="1" d="M 393.5 326 L 394 333.5 L 393 333.5 L 393.5 326 Z " /><path fill="rgb(123,187,136)" stroke="rgb(123,187,136)" stroke-width="1" opacity="1" d="M 176.5 329 L 177.5 331 L 176.5 329 Z " /><path fill="rgb(123,187,136)" stroke="rgb(123,187,136)" stroke-width="1" opacity="1" d="M 186.5 329 L 185.5 331 L 186.5 329 Z " /><path fill="rgb(123,187,136)" stroke="rgb(123,187,136)" stroke-width="1" opacity="1" d="M 317.5 331 L 318 336.5 L 317 336.5 L 317.5 331 Z " /><path fill="rgb(123,187,136)" stroke="rgb(123,187,136)" stroke-width="1" opacity="1" d="M 434.5 332 L 435.5 334 L 434.5 332 Z " /><path fill="rgb(123,187,136)" stroke="rgb(123,187,136)" stroke-width="1" opacity="1" d="M 63.5 335 L 64 341.5 L 63 341.5 L 63.5 335 Z " /><path fill="rgb(123,187,136)" stroke="rgb(123,187,136)" stroke-width="1" opacity="1" d="M 394.5 337 L 395 339.5 L 394 339.5 L 394.5 337 Z " /><path fill="rgb(123,187,136)" stroke="rgb(123,187,136)" stroke-width="1" opacity="1" d="M 318.5 348 L 319 363.5 L 318 363.5 L 318.5 348 Z " /><path fill="rgb(123,187,136)" stroke="rgb(123,187,136)" stroke-width="1" opacity="1" d="M 396.5 349 L 397 352.5 L 396 352.5 L 396.5 349 Z " /><path fill="rgb(123,187,136)" stroke="rgb(123,187,136)" stroke-width="1" opacity="1" d="M 447.5 361 L 448 363.5 L 447 363.5 L 447.5 361 Z " /><path fill="rgb(123,187,136)" stroke="rgb(123,187,136)" stroke-width="1" opacity="1" d="M 396.5 366 L 397 369.5 L 396 369.5 L 396.5 366 Z " /><path fill="rgb(123,187,136)" stroke="rgb(123,187,136)" stroke-width="1" opacity="1" d="M 448.5 368 L 449 373.5 L 448 373.5 L 448.5 368 Z " /><path fill="rgb(123,187,136)" stroke="rgb(123,187,136)" stroke-width="1" opacity="1" d="M 63.5 369 L 64 375.5 L 63 375.5 L 63.5 369 Z " /><path fill="rgb(123,187,136)" stroke="rgb(123,187,136)" stroke-width="1" opacity="1" d="M 317.5 374 L 318 378.5 L 317 378.5 L 317.5 374 Z " /><path fill="rgb(123,187,136)" stroke="rgb(123,187,136)" stroke-width="1" opacity="1" d="M 448.5 380 L 449 385.5 L 448 385.5 L 448.5 380 Z " /><path fill="rgb(123,187,136)" stroke="rgb(123,187,136)" stroke-width="1" opacity="1" d="M 64.5 381 L 65 384.5 L 64 384.5 L 64.5 381 Z " /><path fill="rgb(123,187,136)" stroke="rgb(123,187,136)" stroke-width="1" opacity="1" d="M 316.5 384 L 317 387.5 L 316 387.5 L 316.5 384 Z " /><path fill="rgb(123,187,136)" stroke="rgb(123,187,136)" stroke-width="1" opacity="1" d="M 65.5 389 L 66 391.5 L 65 391.5 L 65.5 389 Z " /><path fill="rgb(123,187,136)" stroke="rgb(123,187,136)" stroke-width="1" opacity="1" d="M 447.5 389 L 448 391.5 L 447 391.5 L 447.5 389 Z " /><path fill="rgb(123,187,136)" stroke="rgb(123,187,136)" stroke-width="1" opacity="1" d="M 315.5 391 L 316 393.5 L 315 393.5 L 315.5 391 Z " /><path fill="rgb(123,187,136)" stroke="rgb(123,187,136)" stroke-width="1" opacity="1" d="M 446.5 394 L 447 396.5 L 446 396.5 L 446.5 394 Z " /><path fill="rgb(123,187,136)" stroke="rgb(123,187,136)" stroke-width="1" opacity="1" d="M 66.5 395 L 67 397.5 L 66 397.5 L 66.5 395 Z " /><path fill="rgb(123,187,136)" stroke="rgb(123,187,136)" stroke-width="1" opacity="1" d="M 67.5 400 L 68 402.5 L 67 402.5 L 67.5 400 Z " /><path fill="rgb(123,187,136)" stroke="rgb(123,187,136)" stroke-width="1" opacity="1" d="M 385.5 401 L 384.5 403 L 385.5 401 Z " /><path fill="rgb(123,187,136)" stroke="rgb(123,187,136)" stroke-width="1" opacity="1" d="M 383.5 404 L 382.5 406 L 383.5 404 Z " /><path fill="rgb(123,187,136)" stroke="rgb(123,187,136)" stroke-width="1" opacity="1" d="M 381.5 407 L 379.5 410 L 381.5 407 Z " /><path fill="rgb(123,187,136)" stroke="rgb(123,187,136)" stroke-width="1" opacity="1" d="M 437.5 417 L 436.5 419 L 437.5 417 Z " /><path fill="rgb(123,187,136)" stroke="rgb(123,187,136)" stroke-width="1" opacity="1" d="M 370.5 418 L 368.5 421 L 370.5 418 Z " /><path fill="rgb(123,187,136)" stroke="rgb(123,187,136)" stroke-width="1" opacity="1" d="M 435.5 420 L 434.5 422 L 435.5 420 Z " /><path fill="rgb(123,187,136)" stroke="rgb(123,187,136)" stroke-width="1" opacity="1" d="M 363.5 423 L 362.5 425 L 363.5 423 Z " /><path fill="rgb(123,187,136)" stroke="rgb(123,187,136)" stroke-width="1" opacity="1" d="M 433.5 423 L 432.5 425 L 433.5 423 Z " /><path fill="rgb(123,187,136)" stroke="rgb(123,187,136)" stroke-width="1" opacity="1" d="M 430.5 427 L 429.5 429 L 430.5 427 Z " /><path fill="rgb(123,187,136)" stroke="rgb(123,187,136)" stroke-width="1" opacity="1" d="M 308.5 431 L 311 431.5 L 308.5 432 L 308.5 431 Z " /><path fill="rgb(123,187,136)" stroke="rgb(123,187,136)" stroke-width="1" opacity="1" d="M 340.5 432 L 343 432.5 L 340.5 433 L 340.5 432 Z " /><path fill="rgb(123,187,136)" stroke="rgb(123,187,136)" stroke-width="1" opacity="1" d="M 318.5 433 L 322 433.5 L 318.5 434 L 318.5 433 Z " /><path fill="rgb(123,187,136)" stroke="rgb(123,187,136)" stroke-width="1" opacity="1" d="M 333.5 433 L 338 433.5 L 333.5 434 L 333.5 433 Z " /><path fill="rgb(123,187,136)" stroke="rgb(123,187,136)" stroke-width="1" opacity="1" d="M 425.5 433 L 419.5 440 L 425.5 433 Z " /><path fill="rgb(123,187,136)" stroke="rgb(123,187,136)" stroke-width="1" opacity="1" d="M 304.5 440 L 303.5 442 L 304.5 440 Z " /><path fill="rgb(123,187,136)" stroke="rgb(123,187,136)" stroke-width="1" opacity="1" d="M 414.5 443 L 413.5 445 L 414.5 443 Z " /><path fill="rgb(123,187,136)" stroke="rgb(123,187,136)" stroke-width="1" opacity="1" d="M 410.5 446 L 409.5 448 L 410.5 446 Z " /><path fill="rgb(123,187,136)" stroke="rgb(123,187,136)" stroke-width="1" opacity="1" d="M 407.5 448 L 406.5 450 L 407.5 448 Z " /><path fill="rgb(123,187,136)" stroke="rgb(123,187,136)" stroke-width="1" opacity="1" d="M 404.5 450 L 403.5 452 L 404.5 450 Z " /><path fill="rgb(123,187,136)" stroke="rgb(123,187,136)" stroke-width="1" opacity="1" d="M 107.5 451 L 107 452.5 L 106.5 459 L 106 452.5 L 107.5 451 Z " /><path fill="rgb(123,187,136)" stroke="rgb(123,187,136)" stroke-width="1" opacity="1" d="M 109.5 451 Q 112.5 452.5 111 458.5 L 110 458.5 Q 110.5 452.5 109.5 451 Z " /><path fill="rgb(123,187,136)" stroke="rgb(123,187,136)" stroke-width="1" opacity="1" d="M 273.5 451 L 275 453.5 L 274 453.5 L 273.5 451 Z " /><path fill="rgb(123,187,136)" stroke="rgb(123,187,136)" stroke-width="1" opacity="1" d="M 292.5 451 L 291.5 453 L 292.5 451 Z " /><path fill="rgb(123,187,136)" stroke="rgb(123,187,136)" stroke-width="1" opacity="1" d="M 297.5 451 L 296.5 453 L 297.5 451 Z " /><path fill="rgb(123,187,136)" stroke="rgb(123,187,136)" stroke-width="1" opacity="1" d="M 89.5 452 L 91.5 455 L 89.5 452 Z " /><path fill="rgb(123,187,136)" stroke="rgb(123,187,136)" stroke-width="1" opacity="1" d="M 397.5 454 L 396.5 456 L 397.5 454 Z " /><path fill="rgb(123,187,136)" stroke="rgb(123,187,136)" stroke-width="1" opacity="1" d="M 232.5 455 L 233 459.5 L 232 459.5 L 232.5 455 Z " /><path fill="rgb(123,187,136)" stroke="rgb(123,187,136)" stroke-width="1" opacity="1" d="M 294.5 455 L 292.5 458 L 294.5 455 Z " /><path fill="rgb(123,187,136)" stroke="rgb(123,187,136)" stroke-width="1" opacity="1" d="M 149.5 456 L 150 463.5 L 149 463.5 L 149.5 456 Z " /><path fill="rgb(123,187,136)" stroke="rgb(123,187,136)" stroke-width="1" opacity="1" d="M 288.5 456 L 282.5 463 L 288.5 456 Z " /><path fill="rgb(123,187,136)" stroke="rgb(123,187,136)" stroke-width="1" opacity="1" d="M 393.5 456 L 395 456.5 L 391.5 458 L 391.5 457 L 393.5 456 Z " /><path fill="rgb(123,187,136)" stroke="rgb(123,187,136)" stroke-width="1" opacity="1" d="M 153.5 457 L 154 464.5 L 153 464.5 L 153.5 457 Z " /><path fill="rgb(123,187,136)" stroke="rgb(123,187,136)" stroke-width="1" opacity="1" d="M 228.5 457 L 229 459.5 L 228 459.5 L 228.5 457 Z " /><path fill="rgb(123,187,136)" stroke="rgb(123,187,136)" stroke-width="1" opacity="1" d="M 271.5 460 L 272 462.5 L 271 462.5 L 271.5 460 Z " /><path fill="rgb(123,187,136)" stroke="rgb(123,187,136)" stroke-width="1" opacity="1" d="M 100.5 463 L 101.5 465 L 100.5 463 Z " /><path fill="rgb(123,187,136)" stroke="rgb(123,187,136)" stroke-width="1" opacity="1" d="M 227.5 463 L 228 465.5 L 227 465.5 L 227.5 463 Z " /><path fill="rgb(123,187,136)" stroke="rgb(123,187,136)" stroke-width="1" opacity="1" d="M 231.5 463 L 232 465.5 L 231 465.5 L 231.5 463 Z " /><path fill="rgb(123,187,136)" stroke="rgb(123,187,136)" stroke-width="1" opacity="1" d="M 302.5 466 L 305 466.5 L 302.5 467 L 302.5 466 Z " /><path fill="rgb(123,187,136)" stroke="rgb(123,187,136)" stroke-width="1" opacity="1" d="M 308.5 467 L 311 467.5 L 308.5 468 L 308.5 467 Z " /><path fill="rgb(123,187,136)" stroke="rgb(123,187,136)" stroke-width="1" opacity="1" d="M 357.5 467 L 360 467.5 L 357.5 468 L 357.5 467 Z " /><path fill="rgb(123,187,136)" stroke="rgb(123,187,136)" stroke-width="1" opacity="1" d="M 316.5 468 L 321 468.5 L 316.5 469 L 316.5 468 Z " /><path fill="rgb(123,187,136)" stroke="rgb(123,187,136)" stroke-width="1" opacity="1" d="M 349.5 468 L 354 468.5 L 349.5 469 L 349.5 468 Z " /><path fill="rgb(123,187,136)" stroke="rgb(123,187,136)" stroke-width="1" opacity="1" d="M 150.5 469 L 151 471.5 L 150 471.5 L 150.5 469 Z " /><path fill="rgb(123,187,136)" stroke="rgb(123,187,136)" stroke-width="1" opacity="1" d="M 154.5 469 L 155 471 L 225.5 471 L 226.5 470 L 227 472 L 155.5 472 L 154 470.5 L 154.5 469 Z " /><path fill="rgb(123,187,136)" stroke="rgb(123,187,136)" stroke-width="1" opacity="1" d="M 330.5 469 L 340 469.5 L 330.5 470 L 330.5 469 Z " /><path fill="rgb(123,187,136)" stroke="rgb(123,187,136)" stroke-width="1" opacity="1" d="M 230.5 470 L 231 474.5 L 230 474.5 L 230.5 470 Z " /><path fill="rgb(123,187,136)" stroke="rgb(123,187,136)" stroke-width="1" opacity="1" d="M 151.5 475 L 152 487.5 L 151 487.5 L 151.5 475 Z " /><path fill="rgb(123,187,136)" stroke="rgb(123,187,136)" stroke-width="1" opacity="1" d="M 103.5 478 L 104 480.5 L 103 480.5 L 103.5 478 Z " /><path fill="rgb(123,187,136)" stroke="rgb(123,187,136)" stroke-width="1" opacity="1" d="M 230.5 487 L 231 489.5 L 230 489.5 L 230.5 487 Z " /><path fill="rgb(123,187,136)" stroke="rgb(123,187,136)" stroke-width="1" opacity="1" d="M 103.5 488 L 104 490.5 L 103 490.5 L 103.5 488 Z " /><path fill="rgb(123,187,136)" stroke="rgb(123,187,136)" stroke-width="1" opacity="1" d="M 104.5 492 L 106.5 495 L 104.5 492 Z " /><path fill="rgb(123,187,136)" stroke="rgb(123,187,136)" stroke-width="1" opacity="1" d="M 233.5 493 L 234.5 495 L 233.5 493 Z " /><path fill="rgb(123,187,136)" stroke="rgb(123,187,136)" stroke-width="1" opacity="1" d="M 239.5 496 L 242 496.5 L 239.5 497 L 239.5 496 Z " /><path fill="rgb(123,187,136)" stroke="rgb(123,187,136)" stroke-width="1" opacity="1" d="M 116.5 497 L 120 497.5 L 116.5 498 L 116.5 497 Z " /><path fill="rgb(123,187,136)" stroke="rgb(123,187,136)" stroke-width="1" opacity="1" d="M 133.5 497 L 137 497.5 L 133.5 498 L 133.5 497 Z " /><path fill="rgb(123,187,136)" stroke="rgb(123,187,136)" stroke-width="1" opacity="1" d="M 244.5 497 L 248 497.5 L 244.5 498 L 244.5 497 Z " /><path fill="rgb(123,187,136)" stroke="rgb(123,187,136)" stroke-width="1" opacity="1" d="M 261.5 497 L 265 497.5 L 261.5 498 L 261.5 497 Z " /><path fill="rgb(234,234,234)" stroke="rgb(234,234,234)" stroke-width="1" opacity="1" d="M 90 15 Q 94.5 14.2 96.5 17 L 120.5 37 L 126.5 40 L 143.5 34 L 163.5 30 Q 169.8 31.8 171.5 29 L 209.5 29 L 210.5 30 L 218.5 30 L 229.5 32 L 256.5 40 L 287.5 15 L 290.5 15 L 292 16.5 L 292 72.5 L 296 89.5 L 297 103.5 L 298 104.5 L 298 115.5 L 299 117.5 L 298 118.5 L 298 129.5 L 293 147.5 Q 284.6 167.5 268.5 180 L 261 185.5 Q 259.3 190.8 264.5 189 L 268.5 186 L 271 186 L 291 226.5 L 306 269.5 L 310 288.5 L 310 296.5 L 312 306.5 L 313 347.5 L 312 348.5 L 312 361.5 L 311 362.5 L 310 375.5 L 306 393.5 L 301 408.5 Q 292.3 429.8 276.5 444 Q 270.7 449.2 261.5 451 L 119.5 451 L 107.5 446 L 94 432.5 L 83 414.5 L 74 388.5 L 70 366.5 L 70 358.5 L 69 357.5 L 69 309.5 L 70 308.5 L 70 299.5 L 71 298.5 L 71 290.5 L 72 289.5 L 73 278.5 L 84 242.5 Q 95.3 211.3 111.5 185 L 116.5 189 L 120 189 L 120 184 L 118.5 184 L 101 168.5 Q 91.3 157.2 86 141.5 L 83 127.5 L 83 107.5 L 84 106.5 L 86 85.5 L 89 73.5 L 89 17.5 L 90 15 Z M 143 89 L 137 94 L 138 101 Q 140 104 147 103 L 151 98 L 150 93 Q 149 88 143 89 Z M 239 89 L 234 91 L 233 94 L 234 101 Q 236 104 243 103 L 247 98 L 246 93 Q 245 88 239 89 Z M 187 100 L 180 105 Q 179 114 184 119 L 188 122 Q 189 128 187 132 L 183 135 L 174 135 L 172 137 L 173 140 Q 185 142 190 137 L 191 135 Q 194 142 208 140 L 209 137 L 208 135 L 197 134 L 193 130 L 193 122 L 195 121 L 201 112 Q 202 105 200 102 Q 196 99 187 100 Z M 122 120 L 122 124 L 127 126 L 152 133 Q 158 135 156 130 L 149 126 L 128 120 L 122 120 Z M 255 120 L 227 128 Q 224 129 225 133 L 231 133 L 238 130 L 258 125 L 259 124 Q 261 118 255 120 Z M 148 141 L 147 142 L 122 145 Q 121 149 124 150 L 155 146 L 156 145 L 156 141 L 148 141 Z M 225 141 L 225 145 L 228 146 L 258 150 Q 260 149 259 145 L 235 142 L 234 141 L 225 141 Z M 213 157 L 181 167 L 179 165 L 176 162 L 173 162 L 167 165 L 147 178 L 140 180 L 137 184 L 106 202 L 103 206 L 103 209 L 106 215 L 124 244 L 112 256 L 81 281 L 83 284 L 86 284 L 121 255 L 130 244 L 138 237 Q 145 236 148 240 Q 159 247 162 261 L 156 267 L 145 271 L 136 278 Q 121 291 110 308 L 110 310 L 110 311 L 114 311 L 116 307 L 130 291 L 145 278 L 175 329 L 182 333 L 209 317 L 260 301 L 269 311 L 272 310 Q 272 304 268 303 Q 269 300 267 301 L 261 294 L 244 276 L 237 271 L 225 266 L 219 260 L 224 250 Q 231 241 242 236 L 246 238 L 253 247 L 268 261 L 297 284 Q 302 286 300 281 L 267 253 L 255 240 Q 252 233 244 232 L 241 228 L 221 161 Q 220 156 213 157 Z " /><path fill="rgb(234,234,234)" stroke="rgb(234,234,234)" stroke-width="1" opacity="1" d="M 403.5 315 L 407.5 315 L 414 321.5 Q 427.4 336.3 430 361 L 411.5 352 L 397 350 L 394 334.5 L 394 325.5 Q 395.3 319.8 399.5 317 L 403.5 315 Z " /><path fill="rgb(234,234,234)" stroke="rgb(234,234,234)" stroke-width="1" opacity="1" d="M 397 370 Q 417.1 373.6 428 387.5 Q 422 413.5 405.5 429 L 396 409.5 L 387 399.5 Q 395.3 387.7 397 370 Z " /><path fill="rgb(234,234,234)" stroke="rgb(234,234,234)" stroke-width="1" opacity="1" d="M 374.5 416 L 383 428.5 L 387 443.5 Q 371 456 346.5 460 L 347 458.5 L 349 449.5 L 349 431 Q 364.6 426.9 374.5 416 Z " /><path fill="rgb(234,234,234)" stroke="rgb(234,234,234)" stroke-width="1" opacity="1" d="M 309 432 Q 316.2 435.2 328 434 L 329 443.5 L 327 454.5 L 323 464 L 307.5 464 L 306.5 463 Q 296.3 464.2 290 461.5 Q 302.6 449.3 309 432 Z " /></svg>