<svg width="512" height="512" version="1.1" xmlns="http://www.w3.org/2000/svg" desc="Created with imagetracer.js version 1.2.6" ><path fill="rgb(229,229,229)" stroke="rgb(229,229,229)" stroke-width="1" opacity="1" d="M 293.5 72 L 294.5 74 L 293.5 72 Z " /><path fill="rgb(229,229,229)" stroke="rgb(229,229,229)" stroke-width="1" opacity="1" d="M 294.5 80 L 293.5 82 L 294.5 80 Z " /><path fill="rgb(229,229,229)" stroke="rgb(229,229,229)" stroke-width="1" opacity="1" d="M 259.5 115 L 260.5 117 L 259.5 115 Z " /><path fill="rgb(229,229,229)" stroke="rgb(229,229,229)" stroke-width="1" opacity="1" d="M 271.5 125 L 272.5 127 L 271.5 125 Z " /><path fill="rgb(229,229,229)" stroke="rgb(229,229,229)" stroke-width="1" opacity="1" d="M 307.5 155 L 302.5 161 L 307.5 155 Z " /><path fill="rgb(229,229,229)" stroke="rgb(229,229,229)" stroke-width="1" opacity="1" d="M 395.5 187 L 392.5 191 L 395.5 187 Z " /><path fill="rgb(229,229,229)" stroke="rgb(229,229,229)" stroke-width="1" opacity="1" d="M 89.5 191 L 92.5 195 L 89.5 191 Z " /><path fill="rgb(229,229,229)" stroke="rgb(229,229,229)" stroke-width="1" opacity="1" d="M 78.5 300 L 85 300.5 Q 73.9 305.9 67 315.5 L 61 325.5 L 60 331 L 56.5 331 L 43.5 339 L 43 337.5 Q 48.4 319.4 61.5 309 Q 68.3 302.8 78.5 300 Z " /><path fill="rgb(229,229,229)" stroke="rgb(229,229,229)" stroke-width="1" opacity="1" d="M 135.5 312 L 136 319.5 L 135 319.5 L 135.5 312 Z " /><path fill="rgb(229,229,229)" stroke="rgb(229,229,229)" stroke-width="1" opacity="1" d="M 70.5 327 L 79 327.5 L 70.5 328 L 70.5 327 Z " /><path fill="rgb(229,229,229)" stroke="rgb(229,229,229)" stroke-width="1" opacity="1" d="M 80.5 327 L 85 327.5 L 80.5 328 L 80.5 327 Z " /><path fill="rgb(229,229,229)" stroke="rgb(229,229,229)" stroke-width="1" opacity="1" d="M 60.5 346 L 59.5 348 L 57.5 349 L 58.5 347 L 60.5 346 Z " /><path fill="rgb(229,229,229)" stroke="rgb(229,229,229)" stroke-width="1" opacity="1" d="M 53.5 351 Q 56.5 350.5 55 357.5 L 60 378.5 L 65 386.5 L 58.5 399 Q 50 389.6 45 376.5 L 42 363.5 L 53.5 351 Z " /><path fill="rgb(229,229,229)" stroke="rgb(229,229,229)" stroke-width="1" opacity="1" d="M 80.5 369 L 79.5 371 L 80.5 369 Z " /><path fill="rgb(229,229,229)" stroke="rgb(229,229,229)" stroke-width="1" opacity="1" d="M 271.5 369 L 270.5 371 L 271.5 369 Z " /><path fill="rgb(229,229,229)" stroke="rgb(229,229,229)" stroke-width="1" opacity="1" d="M 76.5 372 L 72.5 377 L 76.5 372 Z " /><path fill="rgb(229,229,229)" stroke="rgb(229,229,229)" stroke-width="1" opacity="1" d="M 70.5 378 L 67.5 382 L 70.5 378 Z " /><path fill="rgb(229,229,229)" stroke="rgb(229,229,229)" stroke-width="1" opacity="1" d="M 66.5 383 L 65.5 385 L 66.5 383 Z " /><path fill="rgb(229,229,229)" stroke="rgb(229,229,229)" stroke-width="1" opacity="1" d="M 87.5 383 L 83.5 388 L 87.5 383 Z " /><path fill="rgb(229,229,229)" stroke="rgb(229,229,229)" stroke-width="1" opacity="1" d="M 81.5 389 L 79.5 392 L 81.5 389 Z " /><path fill="rgb(229,229,229)" stroke="rgb(229,229,229)" stroke-width="1" opacity="1" d="M 74.5 400 L 85.5 412 L 102 422.5 L 101.5 428 Q 84.1 422.4 72 411.5 L 74.5 400 Z " /><path fill="rgb(229,229,229)" stroke="rgb(229,229,229)" stroke-width="1" opacity="1" d="M 102.5 411 L 103 413.5 L 102 413.5 L 102.5 411 Z " /><path fill="rgb(229,229,229)" stroke="rgb(229,229,229)" stroke-width="1" opacity="1" d="M 117.5 415 L 118 426.5 L 117 426.5 L 117.5 415 Z " /><path fill="rgb(229,229,229)" stroke="rgb(229,229,229)" stroke-width="1" opacity="1" d="M 118.5 429 L 122.5 431 L 139 434.5 L 133.5 435 L 132.5 434 L 119 433 L 118.5 429 Z " /><path fill="rgb(229,229,229)" stroke="rgb(229,229,229)" stroke-width="1" opacity="1" d="M 234.5 431 L 232.5 434 L 234.5 431 Z " /><path fill="rgb(229,229,229)" stroke="rgb(229,229,229)" stroke-width="1" opacity="1" d="M 224.5 440 L 223.5 442 L 224.5 440 Z " /><path fill="rgb(229,229,229)" stroke="rgb(229,229,229)" stroke-width="1" opacity="1" d="M 163.5 445 L 170.5 453 L 163.5 445 Z " /><path fill="rgb(229,229,229)" stroke="rgb(229,229,229)" stroke-width="1" opacity="1" d="M 239.5 462 L 240.5 464 L 239.5 462 Z " /><path fill="rgb(229,229,229)" stroke="rgb(229,229,229)" stroke-width="1" opacity="1" d="M 237.5 497 L 240 497.5 L 237.5 498 L 237.5 497 Z " /><path fill="rgb(0,0,0)" stroke="rgb(0,0,0)" stroke-width="1" opacity="0" d="M 0 0 L 512 0 L 512 512 L 0 512 L 0 0 Z M 289 10 L 284 15 L 272 34 L 270 36 L 243 36 L 215 42 Q 192 49 176 62 L 149 49 L 143 50 L 140 54 L 140 59 L 153 95 L 154 123 L 157 140 Q 161 153 168 163 L 168 165 Q 160 173 156 185 L 92 152 L 80 148 L 72 148 L 63 151 Q 54 157 50 169 L 51 175 L 56 182 Q 61 189 73 191 L 76 190 L 82 191 L 89 198 Q 91 197 90 200 L 138 237 L 134 257 L 133 273 L 132 274 L 132 287 L 131 288 L 131 345 L 132 346 L 132 358 L 133 359 L 134 376 L 139 404 L 125 403 Q 113 400 105 393 Q 91 382 87 362 L 87 344 L 88 339 L 99 312 L 97 302 Q 94 297 88 295 L 74 296 L 60 304 Q 48 313 41 328 L 36 348 L 36 361 L 40 378 Q 46 394 57 406 Q 72 422 95 431 L 125 439 L 153 440 L 158 447 L 160 450 Q 180 472 211 483 L 213 488 Q 221 497 233 502 Q 243 504 248 500 Q 255 495 258 486 L 258 475 L 256 472 Q 245 458 230 449 L 227 446 L 244 430 L 266 429 L 267 428 L 267 479 L 269 486 L 277 491 L 467 491 L 470 490 L 476 482 L 476 377 L 474 372 L 467 366 L 444 366 L 444 326 L 443 324 L 340 324 L 340 317 L 341 316 L 341 296 L 340 295 L 339 277 L 332 242 L 356 227 Q 382 209 404 187 L 408 186 L 410 187 Q 421 187 426 181 Q 432 176 435 168 Q 434 159 430 155 Q 425 146 414 144 L 406 144 L 399 146 L 314 189 L 304 169 L 305 166 Q 304 163 307 164 L 318 150 L 327 129 L 328 129 L 328 125 L 326 125 L 327 124 L 327 107 L 330 106 Q 332 100 326 102 L 326 98 L 322 85 L 308 54 L 297 13 Q 296 9 289 10 Z M 415 216 L 393 251 L 381 245 Q 372 244 369 247 L 365 252 Q 364 260 367 264 L 377 272 L 387 275 Q 393 275 397 272 L 415 241 L 449 262 L 439 279 L 428 273 Q 419 272 415 275 L 411 280 Q 410 288 413 292 L 421 299 L 433 303 L 441 301 L 447 294 L 472 253 L 472 251 L 421 218 L 415 216 Z " /><path fill="rgb(0,0,0)" stroke="rgb(0,0,0)" stroke-width="1" opacity="0" d="M 340.5 329 L 439 329 L 439 366 L 348.5 366 L 348 365.5 L 348 352.5 L 343 334.5 L 340.5 329 Z " /><path fill="rgb(91,93,94)" stroke="rgb(91,93,94)" stroke-width="1" opacity="0.9058823529411765" d="M 288.5 10 Q 295.5 8.5 297 12.5 L 308 53.5 L 322 84.5 L 326 97.5 L 326 102 Q 331.6 99.8 330 105.5 L 327 107 L 327 123.5 L 326 124.5 L 328 125 L 328 129 L 326.5 129 L 318 149.5 L 306.5 164 Q 304.3 163.3 305 165.5 L 304 168.5 L 313.5 189 L 398.5 146 L 405.5 144 L 413.5 144 Q 425.1 145.9 430 154.5 Q 434.5 159 435 167.5 Q 431.8 175.8 425.5 181 Q 420.5 187 409.5 187 L 407.5 186 L 403.5 187 Q 381.6 209.1 355.5 227 L 332 242 L 339 276.5 L 340 294.5 L 341 295.5 L 341 315.5 L 340 316.5 L 340 324 L 442.5 324 L 444 325.5 L 444 366 L 466.5 366 L 474 371.5 L 476 376.5 L 476 481.5 L 469.5 490 L 466.5 491 L 276.5 491 L 269 485.5 L 267 478.5 L 266.5 428 L 265.5 429 L 243.5 430 L 227 445.5 L 229.5 449 Q 245 458 256 471.5 L 258 474.5 L 258 485.5 Q 254.8 494.8 247.5 500 Q 242.8 503.8 232.5 502 Q 220.5 497 213 487.5 L 211 483 Q 180.3 472 160 449.5 L 158 446.5 L 152.5 440 L 124.5 439 L 94.5 431 Q 72 422 57 405.5 Q 46.4 393.6 40 377.5 L 36 360.5 L 36 347.5 L 41 327.5 Q 47.8 313.3 59.5 304 L 73.5 296 L 87.5 295 Q 94 296.5 97 301.5 L 99 311.5 L 88 338.5 L 87 343.5 L 87 361.5 Q 90.6 382.4 104.5 393 Q 112.5 400 124.5 403 L 139 404 L 134 375.5 L 133 358.5 L 132 357.5 L 132 345.5 L 131 344.5 L 131 287.5 L 132 286.5 L 132 273.5 L 133 272.5 L 134 256.5 L 138 236.5 L 90 200 Q 91.1 197.3 88.5 198 L 81.5 191 L 75.5 190 L 72.5 191 Q 61.5 189 56 181.5 L 51 174.5 L 50 168.5 Q 53.8 157.3 62.5 151 L 71.5 148 L 79.5 148 L 91.5 152 L 155.5 185 Q 160.1 173.1 168 164.5 L 168 162.5 Q 160.6 152.9 157 139.5 L 154 122.5 L 153 94.5 L 140 58.5 L 140 53.5 L 142.5 50 L 148.5 49 L 175.5 62 Q 191.9 48.9 214.5 42 L 242.5 36 L 269.5 36 L 272 33.5 L 284 14.5 L 288.5 10 Z M 291 14 L 272 41 L 267 40 Q 208 40 177 67 L 148 54 Q 146 51 144 56 L 158 96 L 158 119 L 159 120 L 161 138 Q 166 154 175 166 L 171 167 L 162 182 L 160 188 L 179 197 L 180 201 L 178 201 L 82 153 Q 69 151 64 156 L 55 168 L 55 172 L 61 181 L 70 186 L 82 186 L 84 187 Q 119 221 162 248 L 161 250 L 142 239 L 138 260 L 137 278 L 136 279 L 136 293 L 135 294 L 135 339 L 136 340 L 136 354 L 137 355 L 137 365 L 138 366 L 139 381 L 147 418 L 153 433 L 159 442 Q 179 467 213 479 L 217 486 Q 224 494 235 498 Q 242 499 246 496 Q 252 492 254 483 L 253 475 Q 239 459 222 448 Q 219 449 220 446 L 237 431 L 242 424 L 247 395 L 247 382 L 244 366 L 236 351 Q 231 343 222 340 Q 219 341 220 337 L 225 337 L 232 341 Q 242 349 247 363 L 251 385 L 249 410 L 245 426 L 268 424 L 268 376 L 270 372 L 277 367 L 299 367 L 300 366 L 300 325 L 335 325 L 336 323 L 336 288 L 335 287 L 335 279 L 333 272 L 333 267 L 328 245 L 325 246 L 323 244 L 375 207 L 402 183 L 404 182 L 416 182 L 424 177 L 430 168 L 430 164 L 426 157 Q 422 151 416 149 L 404 149 L 396 152 L 308 197 Q 304 198 305 195 L 309 192 L 300 169 L 286 176 L 284 174 L 299 165 Q 316 152 321 129 L 318 128 L 302 128 L 301 127 Q 296 128 298 124 L 322 125 Q 324 119 323 109 L 296 119 L 295 117 L 322 105 L 319 90 L 304 56 L 297 27 L 293 16 Q 294 13 291 14 Z M 81 299 Q 68 302 61 309 Q 45 321 41 344 L 41 364 L 44 376 Q 49 389 57 399 Q 72 417 97 427 L 122 434 L 137 435 L 138 436 L 151 436 Q 144 424 141 408 L 123 407 Q 111 404 104 398 L 89 382 L 84 370 L 82 359 L 82 347 L 84 336 L 94 314 Q 95 307 93 304 Q 90 298 81 299 Z M 305 328 L 303 330 L 303 366 L 305 367 L 325 367 L 327 364 L 332 349 L 335 330 L 334 328 L 305 328 Z M 341 329 L 343 335 L 348 353 L 348 366 L 349 366 L 439 366 L 439 329 L 341 329 Z M 339 336 L 337 339 L 337 344 L 334 356 L 330 367 L 343 367 L 344 366 Q 345 347 339 336 Z M 281 370 L 277 371 L 272 377 L 272 482 L 279 487 L 465 487 L 469 485 L 471 482 L 471 376 L 467 371 L 463 370 L 444 370 L 443 371 L 440 370 L 304 370 L 303 371 L 300 370 L 281 370 Z " /><path fill="rgb(91,93,94)" stroke="rgb(91,93,94)" stroke-width="1" opacity="0.9058823529411765" d="M 288.5 72 Q 293 71 294 73.5 L 295 78.5 L 294 81 L 290.5 82 L 287 79.5 L 286 75.5 L 288.5 72 Z " /><path fill="rgb(91,93,94)" stroke="rgb(91,93,94)" stroke-width="1" opacity="0.9058823529411765" d="M 224.5 89 L 230 91.5 L 231 95.5 L 228.5 99 Q 224 100 223 97.5 L 222 91.5 L 224.5 89 Z " /><path fill="rgb(91,93,94)" stroke="rgb(91,93,94)" stroke-width="1" opacity="0.9058823529411765" d="M 262.5 102 Q 268.8 100.8 270 104.5 L 271 111.5 L 268 118.5 Q 268.9 125.1 273.5 128 L 282 127 L 280.5 131 L 273.5 132 L 269.5 130 L 266.5 134 L 258 136 L 259.5 132 L 266 129.5 Q 267.4 120.1 262.5 117 L 260 115.5 Q 256.1 112.9 257 105.5 L 262.5 102 Z " /><path fill="rgb(91,93,94)" stroke="rgb(91,93,94)" stroke-width="1" opacity="0.9058823529411765" d="M 213.5 128 L 244.5 129 L 246 130.5 L 244.5 133 L 213.5 132 L 212 130.5 L 213.5 128 Z " /><path fill="rgb(91,93,94)" stroke="rgb(91,93,94)" stroke-width="1" opacity="0.9058823529411765" d="M 244.5 139 Q 249.1 137.8 247 143 L 217.5 152 L 216 149.5 L 244.5 139 Z " /><path fill="rgb(91,93,94)" stroke="rgb(91,93,94)" stroke-width="1" opacity="0.9058823529411765" d="M 414.5 216 L 420.5 218 L 472 250.5 L 472 252.5 L 447 293.5 L 440.5 301 L 432.5 303 L 420.5 299 L 413 291.5 Q 409.7 287.8 411 279.5 L 414.5 275 Q 418.5 271.5 427.5 273 L 438.5 279 L 449 261.5 L 415 241 L 396.5 272 Q 393.3 275.3 386.5 275 L 376.5 272 L 367 263.5 Q 363.7 259.8 365 251.5 L 368.5 247 Q 372.2 243.7 380.5 245 L 392.5 251 L 414.5 216 Z M 417 222 L 397 255 L 394 258 L 382 250 L 373 250 L 369 256 L 371 261 Q 375 268 385 270 L 393 269 L 413 235 L 418 236 L 455 260 L 455 263 L 440 286 L 428 278 Q 421 277 418 279 L 415 284 L 419 292 L 431 298 Q 437 299 440 296 L 466 253 L 417 222 Z " /><path fill="rgb(91,93,94)" stroke="rgb(91,93,94)" stroke-width="1" opacity="0.9058823529411765" d="M 300.5 391 L 443.5 391 L 445 392.5 L 443.5 395 L 299.5 395 L 298 393.5 L 300.5 391 Z " /><path fill="rgb(91,93,94)" stroke="rgb(91,93,94)" stroke-width="1" opacity="0.9058823529411765" d="M 304.5 417 Q 314.6 415.4 320.5 418 L 332 427.5 L 335 433.5 L 336 444.5 Q 333.7 454.2 327.5 460 Q 321.1 466.6 307.5 466 Q 295.6 463.4 290 454.5 L 287 447.5 Q 288.5 442 286 440.5 L 289 429.5 L 296.5 421 L 304.5 417 Z M 311 420 L 303 422 L 296 426 L 291 435 L 290 440 Q 290 449 294 454 Q 298 460 308 462 Q 318 463 324 458 Q 330 454 332 445 L 332 438 L 328 429 L 318 421 L 311 420 Z " /><path fill="rgb(91,93,94)" stroke="rgb(91,93,94)" stroke-width="1" opacity="0.9058823529411765" d="M 425.5 417 Q 446.7 414.8 453 427.5 L 457 437.5 L 457 444.5 Q 455.3 454.8 448.5 460 Q 442.1 466.6 428.5 466 Q 416.6 463.4 411 454.5 Q 406 447.9 408 434.5 Q 410.8 425.8 417.5 421 L 425.5 417 Z M 432 420 L 422 423 Q 413 428 411 440 Q 411 449 415 454 Q 419 460 429 462 L 436 462 L 444 459 Q 451 454 453 445 L 453 438 L 449 429 L 439 421 L 432 420 Z " /><path fill="rgb(91,93,94)" stroke="rgb(91,93,94)" stroke-width="1" opacity="0.9058823529411765" d="M 346 421 L 396.5 421 L 397 422.5 L 398 423.5 L 398 458.5 L 397 461 L 346 461 L 346 421 Z M 350 425 L 350 457 L 393 457 L 393 425 L 350 425 Z " /><path fill="rgb(91,93,94)" stroke="rgb(91,93,94)" stroke-width="1" opacity="0.9058823529411765" d="M 308.5 431 L 313.5 431 L 320 435.5 L 321 444.5 L 316.5 450 L 307.5 451 L 302 446.5 L 301 438.5 L 304.5 433 L 308.5 431 Z M 310 435 L 308 436 L 305 440 Q 304 446 309 447 Q 316 448 317 444 L 316 438 Q 315 434 310 435 Z " /><path fill="rgb(91,93,94)" stroke="rgb(91,93,94)" stroke-width="1" opacity="0.9058823529411765" d="M 429.5 431 L 434.5 431 L 441 435.5 L 442 444.5 L 437.5 450 L 428.5 451 L 424 447.5 Q 421.2 444.8 422 438.5 L 427.5 432 L 429.5 431 Z M 431 435 L 429 436 L 426 440 L 427 445 Q 428 448 435 447 Q 439 446 438 439 Q 437 434 431 435 Z " /><path fill="rgb(234,234,234)" stroke="rgb(234,234,234)" stroke-width="1" opacity="1" d="M 290.5 15 Q 294.3 13.8 293 17.5 L 304 57.5 L 318 88.5 L 322 103.5 L 295 115.5 Q 293.2 121.2 299.5 119 L 322 110 L 322 124 L 308.5 124 L 307.5 123 L 298.5 123 L 297 126.5 L 298.5 128 L 320 129 Q 314.9 152.6 297.5 165 L 284 172.5 Q 282.2 178.2 288.5 176 L 300 170 L 308 192 L 304 194.5 L 305.5 198 L 399.5 151 L 406.5 149 L 413.5 149 Q 421.9 151.2 426 157.5 L 430 166.5 L 422.5 177 Q 418.5 182 409.5 182 L 405.5 181 L 401.5 182 Q 381.3 202.3 357.5 219 L 322 243.5 L 324.5 247 L 326.5 246 L 329 250.5 L 335 283.5 L 336 316.5 L 335 317.5 L 335 324 L 300.5 324 L 299 325.5 L 299 366 L 277.5 366 L 270 370.5 L 267 378.5 L 267 423 L 264.5 424 L 246 425 L 251 399.5 L 251 376.5 L 249 366.5 L 243 352.5 L 232.5 341 L 223.5 336 L 220.5 336 L 219 338.5 L 220 341 L 226.5 343 L 236 351.5 Q 242.4 359.6 245 371.5 Q 243.8 376.2 246 377.5 L 246 398.5 L 241 424.5 L 235.5 431 L 219 445.5 L 220 449 Q 238.3 458.9 252 474.5 Q 254.3 477.7 253 484.5 Q 250.4 491.9 244.5 496 Q 241.3 498.3 234.5 497 Q 223.5 493 217 484.5 L 213.5 479 Q 180 466 159 440.5 L 148 418.5 L 140 383.5 L 138 359.5 L 137 358.5 L 137 346.5 L 136 345.5 L 136 286.5 L 137 285.5 L 137 273.5 L 138 272.5 L 139 256.5 L 142.5 239 L 156.5 249 L 161.5 250 L 163 247.5 L 115.5 214 L 83.5 186 L 76.5 185 L 72.5 186 Q 64.2 184.3 60 178.5 L 55 169.5 Q 57.8 160.8 64.5 156 Q 69 151.9 78.5 153 L 85.5 155 L 179.5 202 L 181 198.5 L 160 186.5 L 172.5 167 L 176 165.5 Q 166.7 154.3 162 138.5 L 159 122.5 L 159 112.5 L 158 111.5 L 158 93.5 L 145 55.5 L 147.5 54 L 175.5 68 Q 194.8 52.3 222.5 45 L 242.5 41 L 270.5 41 L 271.5 42 L 275 38.5 L 290.5 15 Z M 289 71 Q 285 73 286 80 Q 287 83 294 82 L 296 78 L 295 74 Q 294 70 289 71 Z M 224 89 L 221 93 L 222 98 L 226 100 L 230 99 L 231 97 L 230 91 Q 229 88 224 89 Z M 264 101 L 256 106 Q 255 113 259 116 L 262 117 L 266 125 L 265 130 L 257 134 L 259 137 L 267 135 L 271 131 L 272 132 Q 280 133 283 130 L 282 126 L 274 127 L 269 120 L 271 115 L 271 105 Q 270 100 264 101 Z M 214 127 L 211 131 L 213 132 Q 218 131 220 133 L 246 133 L 246 129 L 243 128 L 219 128 L 214 127 Z M 243 139 L 219 147 L 215 150 L 218 153 L 247 144 L 248 143 Q 250 136 243 139 Z " /><path fill="rgb(234,234,234)" stroke="rgb(234,234,234)" stroke-width="1" opacity="1" d="M 85.5 300 L 92 303.5 L 94 310.5 L 87 328 L 84.5 327 L 70.5 327 L 60.5 330 L 60 328.5 Q 65.7 313.7 77.5 305 L 85.5 300 Z " /><path fill="rgb(234,234,234)" stroke="rgb(234,234,234)" stroke-width="1" opacity="1" d="M 304 329 L 333.5 329 Q 334.6 329.1 334 334.5 L 330 353.5 L 325 366 L 304 366 L 304 329 Z " /><path fill="rgb(234,234,234)" stroke="rgb(234,234,234)" stroke-width="1" opacity="1" d="M 338.5 338 L 342 347.5 L 343 366 L 331.5 366 L 331 363.5 L 335 354.5 L 338.5 338 Z " /><path fill="rgb(234,234,234)" stroke="rgb(234,234,234)" stroke-width="1" opacity="1" d="M 71.5 343 L 82 343 L 82 362.5 L 83 367.5 L 67 381.5 L 64.5 386 Q 55.1 372.9 55 350.5 Q 61.1 344.6 71.5 343 Z " /><path fill="rgb(234,234,234)" stroke="rgb(234,234,234)" stroke-width="1" opacity="1" d="M 88.5 383 Q 90.8 382.3 90 384.5 L 102.5 398 L 106 400.5 Q 100.9 408.4 101.5 422 Q 85.5 414.5 75 401.5 L 78 393.5 L 82 388 L 88.5 383 Z " /><path fill="rgb(234,234,234)" stroke="rgb(234,234,234)" stroke-width="1" opacity="1" d="M 120 407 L 129.5 409 L 139.5 409 L 141 408.5 L 146 427.5 L 150 434.5 L 139.5 435 L 122.5 431 L 118 428.5 L 118 412.5 L 120 407 Z " /><path fill="rgb(226,216,176)" stroke="rgb(226,216,176)" stroke-width="1" opacity="1" d="M 273.5 39 L 272.5 41 L 273.5 39 Z " /><path fill="rgb(226,216,176)" stroke="rgb(226,216,176)" stroke-width="1" opacity="1" d="M 246.5 40 L 250 40.5 L 246.5 41 L 246.5 40 Z " /><path fill="rgb(226,216,176)" stroke="rgb(226,216,176)" stroke-width="1" opacity="1" d="M 262.5 40 L 267 40.5 L 262.5 41 L 262.5 40 Z " /><path fill="rgb(226,216,176)" stroke="rgb(226,216,176)" stroke-width="1" opacity="1" d="M 268.5 102 L 269.5 104 L 268.5 102 Z " /><path fill="rgb(226,216,176)" stroke="rgb(226,216,176)" stroke-width="1" opacity="1" d="M 256.5 106 L 257 108.5 L 256 108.5 L 256.5 106 Z " /><path fill="rgb(226,216,176)" stroke="rgb(226,216,176)" stroke-width="1" opacity="1" d="M 158.5 116 L 159 118.5 L 158 118.5 L 158.5 116 Z " /><path fill="rgb(226,216,176)" stroke="rgb(226,216,176)" stroke-width="1" opacity="1" d="M 322.5 117 L 323 120.5 L 322 120.5 L 322.5 117 Z " /><path fill="rgb(226,216,176)" stroke="rgb(226,216,176)" stroke-width="1" opacity="1" d="M 299.5 123 L 302 123.5 L 299.5 124 L 299.5 123 Z " /><path fill="rgb(226,216,176)" stroke="rgb(226,216,176)" stroke-width="1" opacity="1" d="M 314.5 124 L 319 124.5 L 314.5 125 L 314.5 124 Z " /><path fill="rgb(226,216,176)" stroke="rgb(226,216,176)" stroke-width="1" opacity="1" d="M 228.5 128 L 235 128.5 L 228.5 129 L 228.5 128 Z " /><path fill="rgb(226,216,176)" stroke="rgb(226,216,176)" stroke-width="1" opacity="1" d="M 313.5 128 L 318 128.5 L 313.5 129 L 313.5 128 Z " /><path fill="rgb(226,216,176)" stroke="rgb(226,216,176)" stroke-width="1" opacity="1" d="M 265.5 129 L 264.5 131 L 265.5 129 Z " /><path fill="rgb(226,216,176)" stroke="rgb(226,216,176)" stroke-width="1" opacity="1" d="M 226.5 132 L 234 132.5 L 226.5 133 L 226.5 132 Z " /><path fill="rgb(226,216,176)" stroke="rgb(226,216,176)" stroke-width="1" opacity="1" d="M 258.5 132 L 258 133.5 L 257.5 135 L 257 133.5 L 258.5 132 Z " /><path fill="rgb(226,216,176)" stroke="rgb(226,216,176)" stroke-width="1" opacity="1" d="M 424.5 175 L 423.5 177 L 424.5 175 Z " /><path fill="rgb(226,216,176)" stroke="rgb(226,216,176)" stroke-width="1" opacity="1" d="M 399.5 184 L 398.5 186 L 399.5 184 Z " /><path fill="rgb(226,216,176)" stroke="rgb(226,216,176)" stroke-width="1" opacity="1" d="M 84.5 187 L 86.5 190 L 84.5 187 Z " /><path fill="rgb(226,216,176)" stroke="rgb(226,216,176)" stroke-width="1" opacity="1" d="M 387.5 195 L 386.5 197 L 387.5 195 Z " /><path fill="rgb(226,216,176)" stroke="rgb(226,216,176)" stroke-width="1" opacity="1" d="M 97.5 199 L 98.5 201 L 97.5 199 Z " /><path fill="rgb(226,216,176)" stroke="rgb(226,216,176)" stroke-width="1" opacity="1" d="M 375.5 205 L 374.5 207 L 375.5 205 Z " /><path fill="rgb(226,216,176)" stroke="rgb(226,216,176)" stroke-width="1" opacity="1" d="M 362.5 215 L 361.5 217 L 362.5 215 Z " /><path fill="rgb(226,216,176)" stroke="rgb(226,216,176)" stroke-width="1" opacity="1" d="M 416.5 222 L 466 252.5 L 440 296 Q 437.4 298.7 430.5 298 L 419 291.5 L 415 283.5 L 417.5 279 Q 420.7 276.7 427.5 278 L 439.5 286 L 455 262.5 L 455 259.5 L 417.5 236 L 413 235 L 392.5 269 L 384.5 270 Q 375.4 267.5 371 260.5 L 369 255.5 L 372.5 250 L 381.5 250 L 393.5 258 L 397 254.5 L 416.5 222 Z " /><path fill="rgb(226,216,176)" stroke="rgb(226,216,176)" stroke-width="1" opacity="1" d="M 137.5 267 L 138 269.5 L 137 269.5 L 137.5 267 Z " /><path fill="rgb(226,216,176)" stroke="rgb(226,216,176)" stroke-width="1" opacity="1" d="M 136.5 278 L 137 280.5 L 136 280.5 L 136.5 278 Z " /><path fill="rgb(226,216,176)" stroke="rgb(226,216,176)" stroke-width="1" opacity="1" d="M 334.5 278 L 335 280.5 L 334 280.5 L 334.5 278 Z " /><path fill="rgb(226,216,176)" stroke="rgb(226,216,176)" stroke-width="1" opacity="1" d="M 335.5 287 L 336 289.5 L 335 289.5 L 335.5 287 Z " /><path fill="rgb(226,216,176)" stroke="rgb(226,216,176)" stroke-width="1" opacity="1" d="M 135.5 293 L 136 299.5 L 135 299.5 L 135.5 293 Z " /><path fill="rgb(226,216,176)" stroke="rgb(226,216,176)" stroke-width="1" opacity="1" d="M 80.5 299 L 85 299.5 L 80.5 300 L 80.5 299 Z " /><path fill="rgb(226,216,176)" stroke="rgb(226,216,176)" stroke-width="1" opacity="1" d="M 90.5 301 L 92.5 304 L 90.5 301 Z " /><path fill="rgb(226,216,176)" stroke="rgb(226,216,176)" stroke-width="1" opacity="1" d="M 60.5 309 L 54.5 316 L 60.5 309 Z " /><path fill="rgb(226,216,176)" stroke="rgb(226,216,176)" stroke-width="1" opacity="1" d="M 301.5 324 L 335 324.5 L 301.5 325 L 301.5 324 Z " /><path fill="rgb(226,216,176)" stroke="rgb(226,216,176)" stroke-width="1" opacity="1" d="M 299.5 326 L 300 365.5 L 298.5 367 L 279.5 367 L 279.5 366 L 299 366 L 299.5 326 Z " /><path fill="rgb(226,216,176)" stroke="rgb(226,216,176)" stroke-width="1" opacity="1" d="M 304.5 328 L 333.5 328 L 335 329.5 L 334.5 332 L 334 329 L 304 329 L 304 366 L 324.5 366 L 325.5 365 L 324.5 367 L 304.5 367 L 303 365.5 L 303 329.5 L 304.5 328 Z " /><path fill="rgb(226,216,176)" stroke="rgb(226,216,176)" stroke-width="1" opacity="1" d="M 135.5 332 L 136 338.5 L 135 338.5 L 135.5 332 Z " /><path fill="rgb(226,216,176)" stroke="rgb(226,216,176)" stroke-width="1" opacity="1" d="M 41.5 343 L 42 345.5 L 41 345.5 L 41.5 343 Z " /><path fill="rgb(226,216,176)" stroke="rgb(226,216,176)" stroke-width="1" opacity="1" d="M 234.5 343 L 237.5 347 L 234.5 343 Z " /><path fill="rgb(226,216,176)" stroke="rgb(226,216,176)" stroke-width="1" opacity="1" d="M 230.5 345 L 231.5 347 L 230.5 345 Z " /><path fill="rgb(226,216,176)" stroke="rgb(226,216,176)" stroke-width="1" opacity="1" d="M 234.5 349 L 235.5 351 L 234.5 349 Z " /><path fill="rgb(226,216,176)" stroke="rgb(226,216,176)" stroke-width="1" opacity="1" d="M 136.5 351 L 137 353.5 L 136 353.5 L 136.5 351 Z " /><path fill="rgb(226,216,176)" stroke="rgb(226,216,176)" stroke-width="1" opacity="1" d="M 343.5 355 L 344 357.5 L 343 357.5 L 343.5 355 Z " /><path fill="rgb(226,216,176)" stroke="rgb(226,216,176)" stroke-width="1" opacity="1" d="M 137.5 362 L 138 364.5 L 137 364.5 L 137.5 362 Z " /><path fill="rgb(226,216,176)" stroke="rgb(226,216,176)" stroke-width="1" opacity="1" d="M 330.5 366 L 343 366.5 L 330.5 367 L 330.5 366 Z " /><path fill="rgb(226,216,176)" stroke="rgb(226,216,176)" stroke-width="1" opacity="1" d="M 280.5 370 L 299.5 370 L 302.5 371 L 303.5 370 L 439.5 370 L 442.5 371 L 443.5 370 L 462.5 370 L 466.5 371 L 471 375.5 L 471 481.5 L 468.5 485 L 464.5 487 L 278.5 487 L 272 481.5 L 272 376.5 L 276.5 371 L 280.5 370 Z M 301 391 L 298 394 L 300 395 L 444 395 L 445 393 L 444 391 L 301 391 Z M 305 417 L 297 421 L 289 430 L 286 441 Q 289 442 287 448 L 290 455 Q 296 463 308 466 Q 321 467 328 460 Q 334 454 336 445 L 335 434 L 332 428 L 321 418 Q 315 415 305 417 Z M 426 417 L 418 421 Q 411 426 408 435 Q 406 448 411 455 Q 417 463 429 466 Q 442 467 449 460 Q 455 455 457 445 L 457 438 L 453 428 Q 447 415 426 417 Z M 346 421 L 346 461 L 397 461 L 398 459 L 398 424 L 397 423 L 397 421 L 346 421 Z " /><path fill="rgb(226,216,176)" stroke="rgb(226,216,176)" stroke-width="1" opacity="1" d="M 250.5 380 L 251 383.5 L 250 383.5 L 250.5 380 Z " /><path fill="rgb(226,216,176)" stroke="rgb(226,216,176)" stroke-width="1" opacity="1" d="M 246.5 381 L 247 394.5 L 246 394.5 L 246.5 381 Z " /><path fill="rgb(226,216,176)" stroke="rgb(226,216,176)" stroke-width="1" opacity="1" d="M 96.5 391 L 98.5 394 L 96.5 391 Z " /><path fill="rgb(226,216,176)" stroke="rgb(226,216,176)" stroke-width="1" opacity="1" d="M 250.5 392 L 251 396.5 L 250 396.5 L 250.5 392 Z " /><path fill="rgb(226,216,176)" stroke="rgb(226,216,176)" stroke-width="1" opacity="1" d="M 57.5 398 L 59.5 401 L 57.5 398 Z " /><path fill="rgb(226,216,176)" stroke="rgb(226,216,176)" stroke-width="1" opacity="1" d="M 68.5 409 L 69.5 411 L 68.5 409 Z " /><path fill="rgb(226,216,176)" stroke="rgb(226,216,176)" stroke-width="1" opacity="1" d="M 310.5 420 L 313 420.5 L 310.5 421 L 310.5 420 Z " /><path fill="rgb(226,216,176)" stroke="rgb(226,216,176)" stroke-width="1" opacity="1" d="M 431.5 420 L 434 420.5 L 431.5 421 L 431.5 420 Z " /><path fill="rgb(226,216,176)" stroke="rgb(226,216,176)" stroke-width="1" opacity="1" d="M 257.5 424 L 261 424.5 L 257.5 425 L 257.5 424 Z " /><path fill="rgb(226,216,176)" stroke="rgb(226,216,176)" stroke-width="1" opacity="1" d="M 245.5 425 L 249 425.5 L 245.5 426 L 245.5 425 Z " /><path fill="rgb(226,216,176)" stroke="rgb(226,216,176)" stroke-width="1" opacity="1" d="M 324.5 425 L 327.5 429 L 324.5 425 Z " /><path fill="rgb(226,216,176)" stroke="rgb(226,216,176)" stroke-width="1" opacity="1" d="M 350 425 L 393 425 L 393 457 L 350 457 L 350 425 Z " /><path fill="rgb(226,216,176)" stroke="rgb(226,216,176)" stroke-width="1" opacity="1" d="M 445.5 425 L 448.5 429 L 445.5 425 Z " /><path fill="rgb(226,216,176)" stroke="rgb(226,216,176)" stroke-width="1" opacity="1" d="M 237.5 429 L 236.5 431 L 237.5 429 Z " /><path fill="rgb(226,216,176)" stroke="rgb(226,216,176)" stroke-width="1" opacity="1" d="M 426.5 432 L 423.5 436 L 426.5 432 Z " /><path fill="rgb(226,216,176)" stroke="rgb(226,216,176)" stroke-width="1" opacity="1" d="M 137.5 435 L 144 435.5 L 137.5 436 L 137.5 435 Z " /><path fill="rgb(226,216,176)" stroke="rgb(226,216,176)" stroke-width="1" opacity="1" d="M 309.5 435 Q 314.6 434.4 316 437.5 L 317 443.5 Q 315.7 448.3 308.5 447 Q 304.3 445.7 305 439.5 L 307.5 436 L 309.5 435 Z " /><path fill="rgb(226,216,176)" stroke="rgb(226,216,176)" stroke-width="1" opacity="1" d="M 430.5 435 Q 436.7 434.3 438 438.5 Q 439.3 445.8 434.5 447 Q 428.3 448.3 427 444.5 L 426 439.5 L 428.5 436 L 430.5 435 Z " /><path fill="rgb(226,216,176)" stroke="rgb(226,216,176)" stroke-width="1" opacity="1" d="M 228.5 437 L 226.5 440 L 228.5 437 Z " /><path fill="rgb(226,216,176)" stroke="rgb(226,216,176)" stroke-width="1" opacity="1" d="M 331.5 437 L 332 439.5 L 331 439.5 L 331.5 437 Z " /><path fill="rgb(226,216,176)" stroke="rgb(226,216,176)" stroke-width="1" opacity="1" d="M 290.5 439 L 291 442.5 L 290 442.5 L 290.5 439 Z " /><path fill="rgb(226,216,176)" stroke="rgb(226,216,176)" stroke-width="1" opacity="1" d="M 411.5 439 L 412 442.5 L 411 442.5 L 411.5 439 Z " /><path fill="rgb(226,216,176)" stroke="rgb(226,216,176)" stroke-width="1" opacity="1" d="M 442.5 439 L 443 442.5 L 442 442.5 L 442.5 439 Z " /><path fill="rgb(226,216,176)" stroke="rgb(226,216,176)" stroke-width="1" opacity="1" d="M 331.5 442 L 332 444.5 L 331 444.5 L 331.5 442 Z " /><path fill="rgb(226,216,176)" stroke="rgb(226,216,176)" stroke-width="1" opacity="1" d="M 309.5 451 L 313 451.5 L 309.5 452 L 309.5 451 Z " /><path fill="rgb(226,216,176)" stroke="rgb(226,216,176)" stroke-width="1" opacity="1" d="M 430.5 451 L 434 451.5 L 430.5 452 L 430.5 451 Z " /><path fill="rgb(226,216,176)" stroke="rgb(226,216,176)" stroke-width="1" opacity="1" d="M 449.5 452 L 448.5 454 L 449.5 452 Z " /><path fill="rgb(226,216,176)" stroke="rgb(226,216,176)" stroke-width="1" opacity="1" d="M 294.5 453 L 295.5 455 L 294.5 453 Z " /><path fill="rgb(226,216,176)" stroke="rgb(226,216,176)" stroke-width="1" opacity="1" d="M 415.5 453 L 419.5 458 L 415.5 453 Z " /><path fill="rgb(226,216,176)" stroke="rgb(226,216,176)" stroke-width="1" opacity="1" d="M 297.5 456 L 298.5 458 L 297.5 456 Z " /><path fill="rgb(226,216,176)" stroke="rgb(226,216,176)" stroke-width="1" opacity="1" d="M 444.5 457 L 443.5 459 L 444.5 457 Z " /><path fill="rgb(226,216,176)" stroke="rgb(226,216,176)" stroke-width="1" opacity="1" d="M 241.5 463 L 243.5 466 L 241.5 463 Z " /><path fill="rgb(226,216,176)" stroke="rgb(226,216,176)" stroke-width="1" opacity="1" d="M 251.5 473 L 252.5 475 L 251.5 473 Z " /><path fill="rgb(226,216,176)" stroke="rgb(226,216,176)" stroke-width="1" opacity="1" d="M 221.5 489 L 222.5 491 L 221.5 489 Z " /><path fill="rgb(212,213,213)" stroke="rgb(212,213,213)" stroke-width="1" opacity="1" d="M 250.5 40 L 262 40.5 L 250.5 41 L 250.5 40 Z " /><path fill="rgb(212,213,213)" stroke="rgb(212,213,213)" stroke-width="1" opacity="1" d="M 287.5 72 L 286.5 74 L 287.5 72 Z " /><path fill="rgb(212,213,213)" stroke="rgb(212,213,213)" stroke-width="1" opacity="1" d="M 223.5 89 L 222.5 91 L 223.5 89 Z " /><path fill="rgb(212,213,213)" stroke="rgb(212,213,213)" stroke-width="1" opacity="1" d="M 221.5 92 L 222 94.5 L 221 94.5 L 221.5 92 Z " /><path fill="rgb(212,213,213)" stroke="rgb(212,213,213)" stroke-width="1" opacity="1" d="M 225.5 99 L 228 99.5 L 225.5 100 L 225.5 99 Z " /><path fill="rgb(212,213,213)" stroke="rgb(212,213,213)" stroke-width="1" opacity="1" d="M 322.5 109 L 323 116.5 L 322 116.5 L 322.5 109 Z " /><path fill="rgb(212,213,213)" stroke="rgb(212,213,213)" stroke-width="1" opacity="1" d="M 158.5 113 L 159 115.5 L 158 115.5 L 158.5 113 Z " /><path fill="rgb(212,213,213)" stroke="rgb(212,213,213)" stroke-width="1" opacity="1" d="M 302.5 123 L 306 123.5 L 302.5 124 L 302.5 123 Z " /><path fill="rgb(212,213,213)" stroke="rgb(212,213,213)" stroke-width="1" opacity="1" d="M 319.5 124 L 322 124.5 L 319.5 125 L 319.5 124 Z " /><path fill="rgb(212,213,213)" stroke="rgb(212,213,213)" stroke-width="1" opacity="1" d="M 281.5 126 L 282.5 128 L 281.5 126 Z " /><path fill="rgb(212,213,213)" stroke="rgb(212,213,213)" stroke-width="1" opacity="1" d="M 213.5 127 L 217 127.5 L 213.5 128 L 213.5 127 Z " /><path fill="rgb(212,213,213)" stroke="rgb(212,213,213)" stroke-width="1" opacity="1" d="M 235.5 128 L 241 128.5 L 235.5 129 L 235.5 128 Z " /><path fill="rgb(212,213,213)" stroke="rgb(212,213,213)" stroke-width="1" opacity="1" d="M 309.5 128 L 313 128.5 L 309.5 129 L 309.5 128 Z " /><path fill="rgb(212,213,213)" stroke="rgb(212,213,213)" stroke-width="1" opacity="1" d="M 282.5 129 L 281.5 131 L 282.5 129 Z " /><path fill="rgb(212,213,213)" stroke="rgb(212,213,213)" stroke-width="1" opacity="1" d="M 221.5 132 L 226 132.5 L 221.5 133 L 221.5 132 Z " /><path fill="rgb(212,213,213)" stroke="rgb(212,213,213)" stroke-width="1" opacity="1" d="M 268.5 132 L 267.5 134 L 268.5 132 Z " /><path fill="rgb(212,213,213)" stroke="rgb(212,213,213)" stroke-width="1" opacity="1" d="M 422.5 153 L 424.5 156 L 422.5 153 Z " /><path fill="rgb(212,213,213)" stroke="rgb(212,213,213)" stroke-width="1" opacity="1" d="M 62.5 157 L 60.5 160 L 62.5 157 Z " /><path fill="rgb(212,213,213)" stroke="rgb(212,213,213)" stroke-width="1" opacity="1" d="M 172.5 160 L 173.5 162 L 172.5 160 Z " /><path fill="rgb(212,213,213)" stroke="rgb(212,213,213)" stroke-width="1" opacity="1" d="M 301.5 161 L 299.5 164 L 301.5 161 Z " /><path fill="rgb(212,213,213)" stroke="rgb(212,213,213)" stroke-width="1" opacity="1" d="M 170.5 169 L 169.5 171 L 170.5 169 Z " /><path fill="rgb(212,213,213)" stroke="rgb(212,213,213)" stroke-width="1" opacity="1" d="M 391.5 191 L 388.5 195 L 391.5 191 Z " /><path fill="rgb(212,213,213)" stroke="rgb(212,213,213)" stroke-width="1" opacity="1" d="M 305.5 193 L 304.5 195 L 305.5 193 Z " /><path fill="rgb(212,213,213)" stroke="rgb(212,213,213)" stroke-width="1" opacity="1" d="M 93.5 195 L 96.5 199 L 93.5 195 Z " /><path fill="rgb(212,213,213)" stroke="rgb(212,213,213)" stroke-width="1" opacity="1" d="M 304.5 196 L 305.5 198 L 304.5 196 Z " /><path fill="rgb(212,213,213)" stroke="rgb(212,213,213)" stroke-width="1" opacity="1" d="M 179.5 197 L 180.5 199 L 179.5 197 Z " /><path fill="rgb(212,213,213)" stroke="rgb(212,213,213)" stroke-width="1" opacity="1" d="M 383.5 198 L 381.5 201 L 383.5 198 Z " /><path fill="rgb(212,213,213)" stroke="rgb(212,213,213)" stroke-width="1" opacity="1" d="M 180.5 200 L 179.5 202 L 177 201.5 L 180.5 200 Z " /><path fill="rgb(212,213,213)" stroke="rgb(212,213,213)" stroke-width="1" opacity="1" d="M 101.5 202 L 103.5 205 L 101.5 202 Z " /><path fill="rgb(212,213,213)" stroke="rgb(212,213,213)" stroke-width="1" opacity="1" d="M 377.5 203 L 376.5 205 L 377.5 203 Z " /><path fill="rgb(212,213,213)" stroke="rgb(212,213,213)" stroke-width="1" opacity="1" d="M 107.5 207 L 108.5 209 L 107.5 207 Z " /><path fill="rgb(212,213,213)" stroke="rgb(212,213,213)" stroke-width="1" opacity="1" d="M 372.5 207 L 371.5 209 L 372.5 207 Z " /><path fill="rgb(212,213,213)" stroke="rgb(212,213,213)" stroke-width="1" opacity="1" d="M 112.5 211 L 113.5 213 L 112.5 211 Z " /><path fill="rgb(212,213,213)" stroke="rgb(212,213,213)" stroke-width="1" opacity="1" d="M 121.5 218 L 122.5 220 L 121.5 218 Z " /><path fill="rgb(212,213,213)" stroke="rgb(212,213,213)" stroke-width="1" opacity="1" d="M 352.5 222 L 351.5 224 L 352.5 222 Z " /><path fill="rgb(212,213,213)" stroke="rgb(212,213,213)" stroke-width="1" opacity="1" d="M 136.5 281 L 137 283.5 L 136 283.5 L 136.5 281 Z " /><path fill="rgb(212,213,213)" stroke="rgb(212,213,213)" stroke-width="1" opacity="1" d="M 335.5 290 L 336 292.5 L 335 292.5 L 335.5 290 Z " /><path fill="rgb(212,213,213)" stroke="rgb(212,213,213)" stroke-width="1" opacity="1" d="M 135.5 300 L 136 311.5 L 135 311.5 L 135.5 300 Z " /><path fill="rgb(212,213,213)" stroke="rgb(212,213,213)" stroke-width="1" opacity="1" d="M 63.5 307 L 62.5 309 L 63.5 307 Z " /><path fill="rgb(212,213,213)" stroke="rgb(212,213,213)" stroke-width="1" opacity="1" d="M 53.5 317 L 52.5 319 L 53.5 317 Z " /><path fill="rgb(212,213,213)" stroke="rgb(212,213,213)" stroke-width="1" opacity="1" d="M 335.5 318 L 336 320.5 L 335 320.5 L 335.5 318 Z " /><path fill="rgb(212,213,213)" stroke="rgb(212,213,213)" stroke-width="1" opacity="1" d="M 135.5 320 L 136 331.5 L 135 331.5 L 135.5 320 Z " /><path fill="rgb(212,213,213)" stroke="rgb(212,213,213)" stroke-width="1" opacity="1" d="M 300.5 324 L 299.5 326 L 300.5 324 Z " /><path fill="rgb(212,213,213)" stroke="rgb(212,213,213)" stroke-width="1" opacity="1" d="M 79.5 327 L 87 328.5 Q 82.8 334.3 82.5 344 L 77.5 342 L 76.5 343 L 65.5 344 L 55 349 Q 56.1 351.7 53.5 351 L 42.5 363 L 41 361.5 L 41 346.5 Q 43.3 345.3 42 340.5 L 44.5 338 L 56.5 331 L 67.5 328 L 78.5 328 L 79.5 327 Z " /><path fill="rgb(212,213,213)" stroke="rgb(212,213,213)" stroke-width="1" opacity="1" d="M 136.5 347 L 137 350.5 L 136 350.5 L 136.5 347 Z " /><path fill="rgb(212,213,213)" stroke="rgb(212,213,213)" stroke-width="1" opacity="1" d="M 232.5 347 L 233.5 349 L 232.5 347 Z " /><path fill="rgb(212,213,213)" stroke="rgb(212,213,213)" stroke-width="1" opacity="1" d="M 238.5 347 L 239.5 349 L 238.5 347 Z " /><path fill="rgb(212,213,213)" stroke="rgb(212,213,213)" stroke-width="1" opacity="1" d="M 343.5 358 L 344 365.5 L 343 365.5 L 343.5 358 Z " /><path fill="rgb(212,213,213)" stroke="rgb(212,213,213)" stroke-width="1" opacity="1" d="M 83.5 367 Q 84.6 376.9 90 382.5 L 87.5 383 L 79 391.5 Q 72.8 398.8 72 411.5 L 73.5 414 L 60 401.5 L 59 396.5 L 71 377 L 83 369 L 83.5 367 Z " /><path fill="rgb(212,213,213)" stroke="rgb(212,213,213)" stroke-width="1" opacity="1" d="M 250.5 377 L 251 379.5 L 250 379.5 L 250.5 377 Z " /><path fill="rgb(212,213,213)" stroke="rgb(212,213,213)" stroke-width="1" opacity="1" d="M 267.5 379 L 268 424 L 266 423.5 L 267 422.5 L 267.5 379 Z " /><path fill="rgb(212,213,213)" stroke="rgb(212,213,213)" stroke-width="1" opacity="1" d="M 94.5 389 L 95.5 391 L 94.5 389 Z " /><path fill="rgb(212,213,213)" stroke="rgb(212,213,213)" stroke-width="1" opacity="1" d="M 99.5 394 L 101.5 397 L 99.5 394 Z " /><path fill="rgb(212,213,213)" stroke="rgb(212,213,213)" stroke-width="1" opacity="1" d="M 55.5 395 L 56.5 397 L 55.5 395 Z " /><path fill="rgb(212,213,213)" stroke="rgb(212,213,213)" stroke-width="1" opacity="1" d="M 105.5 399 Q 111.4 404.6 121 406.5 Q 115.3 412.8 117 426.5 L 119 432.5 L 117.5 432 L 106.5 430 L 102 427.5 L 102 414.5 L 106 400.5 L 105.5 399 Z " /><path fill="rgb(212,213,213)" stroke="rgb(212,213,213)" stroke-width="1" opacity="1" d="M 130.5 408 L 134 408.5 L 130.5 409 L 130.5 408 Z " /><path fill="rgb(212,213,213)" stroke="rgb(212,213,213)" stroke-width="1" opacity="1" d="M 136.5 408 L 139 408.5 L 136.5 409 L 136.5 408 Z " /><path fill="rgb(212,213,213)" stroke="rgb(212,213,213)" stroke-width="1" opacity="1" d="M 306.5 421 L 316.5 421 Q 324.6 423.9 329 430.5 L 332 441.5 Q 329.8 442.8 331 447.5 L 324.5 457 Q 319.5 462 309.5 462 L 304.5 461 L 296 456 L 291 446.5 L 291 435.5 Q 293.6 428.1 299.5 424 L 306.5 421 Z M 308 431 L 306 432 L 301 438 L 302 447 L 310 452 Q 316 452 319 449 L 322 442 L 320 436 Q 318 429 308 431 Z " /><path fill="rgb(212,213,213)" stroke="rgb(212,213,213)" stroke-width="1" opacity="1" d="M 427.5 421 L 437.5 421 Q 445.6 423.9 450 430.5 L 453 442.5 Q 451.4 451.9 445.5 457 Q 440.5 462 430.5 462 Q 419.6 460.4 415 452.5 Q 410.3 447.7 412 436.5 Q 414.2 428.1 420.5 424 L 427.5 421 Z M 429 431 L 427 432 L 422 438 L 423 447 L 431 452 Q 437 452 440 449 L 443 443 L 442 437 Q 440 429 429 431 Z " /><path fill="rgb(212,213,213)" stroke="rgb(212,213,213)" stroke-width="1" opacity="1" d="M 254.5 424 L 257 424.5 L 254.5 425 L 254.5 424 Z " /><path fill="rgb(212,213,213)" stroke="rgb(212,213,213)" stroke-width="1" opacity="1" d="M 239.5 427 L 238.5 429 L 239.5 427 Z " /><path fill="rgb(212,213,213)" stroke="rgb(212,213,213)" stroke-width="1" opacity="1" d="M 130.5 434 L 133 434.5 L 130.5 435 L 130.5 434 Z " /><path fill="rgb(212,213,213)" stroke="rgb(212,213,213)" stroke-width="1" opacity="1" d="M 231.5 434 L 229.5 437 L 231.5 434 Z " /><path fill="rgb(212,213,213)" stroke="rgb(212,213,213)" stroke-width="1" opacity="1" d="M 144.5 435 L 150 435.5 L 144.5 436 L 144.5 435 Z " /><path fill="rgb(212,213,213)" stroke="rgb(212,213,213)" stroke-width="1" opacity="1" d="M 160.5 442 L 162.5 445 L 160.5 442 Z " /><path fill="rgb(212,213,213)" stroke="rgb(212,213,213)" stroke-width="1" opacity="1" d="M 222.5 442 L 220.5 445 L 222.5 442 Z " /><path fill="rgb(212,213,213)" stroke="rgb(212,213,213)" stroke-width="1" opacity="1" d="M 171.5 453 L 173.5 456 L 171.5 453 Z " /><path fill="rgb(212,213,213)" stroke="rgb(212,213,213)" stroke-width="1" opacity="1" d="M 177.5 458 L 178.5 460 L 177.5 458 Z " /><path fill="rgb(212,213,213)" stroke="rgb(212,213,213)" stroke-width="1" opacity="1" d="M 237.5 460 L 238.5 462 L 237.5 460 Z " /><path fill="rgb(212,213,213)" stroke="rgb(212,213,213)" stroke-width="1" opacity="1" d="M 244.5 466 L 250.5 473 L 244.5 466 Z " /><path fill="rgb(212,213,213)" stroke="rgb(212,213,213)" stroke-width="1" opacity="1" d="M 253.5 477 L 254 481.5 L 253 481.5 L 253.5 477 Z " /><path fill="rgb(212,213,213)" stroke="rgb(212,213,213)" stroke-width="1" opacity="1" d="M 218.5 486 L 220.5 489 L 218.5 486 Z " /><path fill="rgb(212,213,213)" stroke="rgb(212,213,213)" stroke-width="1" opacity="1" d="M 248.5 492 L 246.5 495 L 248.5 492 Z " /></svg>