<svg width="512" height="512" version="1.1" xmlns="http://www.w3.org/2000/svg" desc="Created with imagetracer.js version 1.2.6" ><path fill="rgb(0,0,0)" stroke="rgb(0,0,0)" stroke-width="1" opacity="0" d="M 0 0 L 512 0 L 512 512 L 0 512 L 0 0 Z M 88 8 L 83 13 L 83 60 L 79 65 Q 78 72 81 75 L 81 81 L 77 102 L 77 112 L 77 114 Q 75 115 76 120 L 76 122 L 80 143 L 87 159 Q 95 172 106 182 L 84 225 L 72 258 L 62 300 L 60 319 L 59 320 L 59 329 L 58 330 L 58 345 L 57 346 L 57 371 L 58 372 L 58 384 L 59 385 L 61 404 L 69 431 L 84 457 L 99 471 L 100 471 L 97 485 L 99 497 L 107 502 L 115 504 L 138 504 L 146 502 L 151 499 L 155 492 L 155 479 L 156 478 L 226 478 L 225 480 L 225 489 L 227 496 L 232 500 L 243 504 L 266 504 L 280 499 L 283 491 L 283 483 L 280 471 L 284 469 L 289 469 L 309 474 L 333 475 L 334 476 L 339 475 L 354 475 L 355 474 L 367 473 L 388 467 L 408 457 L 425 444 Q 424 441 427 442 L 439 428 L 448 412 L 453 398 L 454 386 L 455 385 L 455 372 L 451 352 Q 446 337 437 327 Q 430 318 421 313 L 408 310 L 397 314 Q 391 318 390 326 L 390 335 L 394 356 L 393 374 L 390 386 Q 385 400 376 410 L 360 423 L 346 429 L 335 431 L 322 431 L 311 429 L 316 417 L 320 400 L 321 387 L 322 386 L 322 376 L 323 375 L 323 341 L 322 340 L 322 328 L 320 318 L 320 310 L 314 279 L 301 237 L 290 211 L 274 182 Q 288 170 296 154 L 301 141 L 304 124 L 303 101 L 299 80 L 299 76 L 302 69 Q 302 62 297 60 L 297 13 L 296 11 L 293 8 L 286 8 L 256 33 L 230 25 L 210 23 L 209 22 L 173 22 L 172 23 L 156 24 L 132 30 L 126 33 L 105 16 Q 102 17 103 14 L 95 8 L 88 8 Z " /><path fill="rgb(107,108,110)" stroke="rgb(107,108,110)" stroke-width="1" opacity="0.9529411764705882" d="M 87.5 8 L 94.5 8 L 103 14 Q 101.9 16.7 104.5 16 L 125.5 33 L 131.5 30 L 155.5 24 L 171.5 23 L 172.5 22 L 208.5 22 L 209.5 23 L 229.5 25 L 255.5 33 L 285.5 8 L 292.5 8 L 296 10.5 L 297 12.5 L 297 59.5 Q 301.8 61.7 302 68.5 L 299 75.5 L 299 79.5 L 303 100.5 L 304 123.5 L 301 140.5 L 296 153.5 Q 287.9 170.4 274 181.5 L 290 210.5 L 301 236.5 L 314 278.5 L 320 309.5 L 320 317.5 L 322 327.5 L 322 339.5 L 323 340.5 L 323 374.5 L 322 375.5 L 322 385.5 L 321 386.5 L 320 399.5 L 316 416.5 L 311 428.5 L 321.5 431 L 334.5 431 L 345.5 429 L 359.5 423 L 376 409.5 Q 385.3 399.8 390 385.5 L 393 373.5 L 394 355.5 L 390 334.5 L 390 325.5 Q 391.4 317.9 396.5 314 L 407.5 310 L 420.5 313 Q 430.3 318.3 437 326.5 Q 446.1 336.9 451 351.5 L 455 371.5 L 455 384.5 L 454 385.5 L 453 397.5 L 448 411.5 L 439 427.5 L 427 442 Q 424.3 440.9 425 443.5 L 407.5 457 L 387.5 467 L 366.5 473 L 354.5 474 L 353.5 475 L 338.5 475 L 333.5 476 L 332.5 475 L 308.5 474 L 288.5 469 L 283.5 469 L 280 471 L 283 482.5 L 283 490.5 L 280 499 L 265.5 504 L 242.5 504 L 231.5 500 L 227 495.5 L 225 488.5 L 225 479.5 L 225.5 478 L 155.5 478 L 155 478.5 L 155 491.5 L 151 499 L 145.5 502 L 137.5 504 L 114.5 504 L 106.5 502 L 99 496.5 L 97 484.5 L 100 471 L 98.5 471 L 84 456.5 L 69 430.5 L 61 403.5 L 59 384.5 L 58 383.5 L 58 371.5 L 57 370.5 L 57 345.5 L 58 344.5 L 58 329.5 L 59 328.5 L 59 319.5 L 60 318.5 L 62 299.5 L 72 257.5 L 84 224.5 L 106 181.5 Q 94.6 171.9 87 158.5 L 80 142.5 L 76 121.5 L 76 119.5 Q 74.7 114.8 77 113.5 L 77 111.5 L 77 101.5 L 81 80.5 L 81 74.5 Q 77.6 71.9 79 64.5 L 83 59.5 L 83 12.5 L 87.5 8 Z M 90 12 L 87 16 L 87 58 L 89 59 L 95 57 L 111 56 L 112 55 L 133 56 L 149 59 L 164 64 L 169 67 L 184 71 L 203 70 L 230 60 L 259 55 L 281 56 L 293 59 L 293 15 L 291 12 L 287 13 L 258 37 L 254 37 L 247 34 L 227 29 L 215 28 L 214 27 L 202 27 L 201 26 L 180 26 L 179 27 L 160 28 L 141 32 L 128 37 L 122 36 L 93 12 L 90 12 Z M 103 60 L 86 64 L 83 68 Q 92 93 109 112 L 128 126 L 138 130 L 149 132 Q 160 132 167 126 Q 173 120 176 112 L 180 95 L 180 88 L 182 84 L 187 80 L 196 81 L 200 87 L 200 94 L 203 109 L 209 121 L 217 128 L 230 132 Q 241 132 249 128 L 266 117 L 283 97 L 293 79 L 297 70 L 297 67 L 293 63 L 278 60 L 252 60 Q 250 63 245 61 L 228 65 Q 215 71 200 75 L 181 75 L 176 74 L 150 64 L 130 60 L 103 60 Z M 296 83 Q 288 98 278 111 Q 269 122 257 129 L 245 134 L 236 136 L 222 135 L 210 128 L 201 116 L 197 103 L 195 87 L 192 84 L 186 85 L 184 91 L 184 99 L 182 108 L 173 126 Q 167 134 155 136 L 145 136 L 133 133 Q 120 128 111 119 Q 95 105 86 86 Q 87 83 84 84 L 83 97 L 82 98 L 82 106 L 81 107 L 81 127 L 84 141 Q 90 159 102 172 L 119 186 L 118 188 L 116 188 L 111 184 Q 100 198 93 216 Q 83 238 75 264 L 65 309 L 64 322 L 63 323 L 63 332 L 62 333 L 62 349 L 61 350 L 63 389 L 68 413 Q 73 431 82 446 L 90 457 L 103 468 Q 106 464 105 455 L 109 453 L 108 468 Q 103 472 102 481 L 102 493 L 103 495 L 109 498 L 118 500 L 134 500 L 147 496 L 151 489 L 151 479 L 149 472 L 148 457 L 152 455 L 153 461 L 153 471 L 154 472 L 155 473 L 226 473 L 227 471 L 228 459 Q 231 454 233 459 L 230 474 L 230 492 L 231 494 L 238 498 L 248 500 L 269 499 L 278 494 L 278 480 L 271 463 L 271 453 L 275 453 Q 274 463 278 468 L 280 467 L 297 448 L 308 426 L 316 396 L 317 383 L 318 382 L 318 371 L 319 370 L 319 344 L 318 343 L 317 321 L 316 320 L 313 296 L 307 270 Q 293 222 271 184 L 263 188 L 261 186 L 272 178 Q 284 167 292 152 L 296 142 L 299 129 L 299 105 L 298 104 L 298 97 L 296 83 Z M 405 315 L 402 316 Q 396 318 395 325 L 395 338 L 398 351 L 398 371 L 395 385 L 383 409 Q 368 429 340 435 L 318 435 L 310 433 Q 302 452 288 465 L 301 468 L 312 469 L 313 470 L 323 470 L 324 471 L 349 471 L 376 466 Q 400 459 418 444 Q 432 432 441 416 L 447 402 L 450 389 L 450 368 L 448 358 Q 444 343 436 333 L 422 319 L 412 315 L 405 315 Z " /><path fill="rgb(107,108,110)" stroke="rgb(107,108,110)" stroke-width="1" opacity="0.9529411764705882" d="M 110.5 65 L 128.5 65 L 148.5 69 L 162.5 74 L 171 81.5 L 175 94.5 L 172 108.5 L 163.5 122 Q 158.8 126.8 149.5 127 Q 147.7 124.2 141.5 126 L 130.5 122 Q 119.8 116.2 112 107.5 L 99 89.5 L 98 77.5 L 104.5 68 L 110.5 65 Z M 113 69 L 106 72 L 102 80 L 103 88 L 111 100 Q 122 116 145 122 Q 154 124 159 120 L 164 115 Q 168 108 170 99 Q 171 88 167 84 L 161 78 L 147 73 L 133 70 L 113 69 Z " /><path fill="rgb(107,108,110)" stroke="rgb(107,108,110)" stroke-width="1" opacity="0.9529411764705882" d="M 251.5 65 L 269.5 65 Q 276.3 67.3 280 72.5 Q 283.4 77.6 282 87.5 Q 274.1 103.1 261.5 114 Q 253.6 121.1 242.5 125 L 228.5 127 Q 217.6 125.4 213 117.5 Q 207.9 110.6 206 100.5 L 206 88.5 Q 208.5 80.5 214.5 76 L 231.5 69 L 251.5 65 Z M 257 69 L 256 70 L 248 70 L 238 72 L 217 80 Q 211 84 210 92 Q 210 107 217 116 Q 220 120 227 122 L 236 122 L 246 119 L 262 108 Q 272 99 278 86 Q 279 78 276 75 Q 271 67 257 69 Z " /><path fill="rgb(107,108,110)" stroke="rgb(107,108,110)" stroke-width="1" opacity="0.9529411764705882" d="M 184.5 124 Q 196.4 121.6 200 127.5 L 200 134.5 L 196 142 L 192 144.5 Q 191.1 152.4 196.5 154 L 206.5 154 L 208 155.5 L 206.5 158 Q 193.8 160.2 189.5 154 Q 185.9 160.4 173.5 158 L 172 155.5 L 173.5 154 L 183.5 154 L 188 149.5 Q 189.5 142.5 186.5 143 Q 179.3 139.2 180 127.5 L 184.5 124 Z " /><path fill="rgb(107,108,110)" stroke="rgb(107,108,110)" stroke-width="1" opacity="0.9529411764705882" d="M 122 139 L 155 148 L 153.5 152 L 124.5 144 L 121 141.5 L 122 139 Z " /><path fill="rgb(107,108,110)" stroke="rgb(107,108,110)" stroke-width="1" opacity="0.9529411764705882" d="M 256.5 139 L 259 140.5 L 257.5 143 L 226.5 152 L 225 149.5 L 228.5 147 L 256.5 139 Z " /><path fill="rgb(107,108,110)" stroke="rgb(107,108,110)" stroke-width="1" opacity="0.9529411764705882" d="M 151.5 160 L 155 161.5 Q 156.3 165.7 151.5 164 L 129.5 168 L 122.5 168 L 121 165 L 123.5 164 L 150.5 161 L 151.5 160 Z " /><path fill="rgb(107,108,110)" stroke="rgb(107,108,110)" stroke-width="1" opacity="0.9529411764705882" d="M 226.5 160 L 256.5 164 L 259 165 L 259 168 L 250.5 168 L 249.5 167 L 229.5 165 L 225 162.5 L 226.5 160 Z " /><path fill="rgb(107,108,110)" stroke="rgb(107,108,110)" stroke-width="1" opacity="0.9529411764705882" d="M 111.5 242 L 113.5 242 L 125.5 250 L 157.5 274 L 167.5 280 L 180.5 285 L 188 291.5 Q 190.5 295 189 302.5 Q 183.8 319.3 172.5 330 Q 169.9 333.9 162.5 333 Q 153.4 330.1 148 323.5 L 140.5 314 Q 118.2 296.5 87 289 Q 85.2 284.1 91.5 286 Q 125.7 294.8 148 315.5 L 155.5 325 L 162.5 329 L 166.5 329 L 175 321.5 L 183 307.5 Q 185.9 302.9 185 294.5 L 179.5 289 L 156.5 278 L 110 244.5 L 111.5 242 Z " /><path fill="rgb(107,108,110)" stroke="rgb(107,108,110)" stroke-width="1" opacity="0.9529411764705882" d="M 269.5 245 L 272 246.5 L 269.5 250 L 230.5 277 L 205.5 289 L 201 292.5 Q 198.7 295.7 200 302.5 Q 205.3 318.2 216.5 328 L 221.5 329 Q 230.4 326.4 235 319.5 L 241.5 311 Q 255.4 300.4 272.5 293 Q 280.7 291.7 285.5 287 L 293 286 L 291.5 290 L 288.5 290 L 257.5 305 L 245.5 313 L 240 318.5 L 230.5 329 L 222.5 333 L 217.5 333 L 208 325.5 L 198 308.5 Q 194.9 303.1 196 293.5 L 202.5 286 L 224.5 276 L 269.5 245 Z " /><path fill="rgb(213,218,223)" stroke="rgb(213,218,223)" stroke-width="1" opacity="1" d="M 89.5 12 L 88.5 14 L 89.5 12 Z " /><path fill="rgb(213,218,223)" stroke="rgb(213,218,223)" stroke-width="1" opacity="1" d="M 91.5 12 L 95 14.5 L 92.5 13 L 91.5 12 Z " /><path fill="rgb(213,218,223)" stroke="rgb(213,218,223)" stroke-width="1" opacity="1" d="M 286.5 13 L 284.5 16 L 286.5 13 Z " /><path fill="rgb(213,218,223)" stroke="rgb(213,218,223)" stroke-width="1" opacity="1" d="M 292.5 14 L 293 59 L 291 58.5 L 292 57.5 L 292.5 14 Z " /><path fill="rgb(213,218,223)" stroke="rgb(213,218,223)" stroke-width="1" opacity="1" d="M 87.5 15 L 88 57.5 L 89 58.5 L 87 57.5 L 87.5 15 Z " /><path fill="rgb(213,218,223)" stroke="rgb(213,218,223)" stroke-width="1" opacity="1" d="M 97.5 16 L 99.5 19 L 97.5 16 Z " /><path fill="rgb(213,218,223)" stroke="rgb(213,218,223)" stroke-width="1" opacity="1" d="M 281.5 17 L 279.5 20 L 281.5 17 Z " /><path fill="rgb(213,218,223)" stroke="rgb(213,218,223)" stroke-width="1" opacity="1" d="M 102.5 20 L 104.5 23 L 102.5 20 Z " /><path fill="rgb(213,218,223)" stroke="rgb(213,218,223)" stroke-width="1" opacity="1" d="M 276.5 21 L 274.5 24 L 276.5 21 Z " /><path fill="rgb(213,218,223)" stroke="rgb(213,218,223)" stroke-width="1" opacity="1" d="M 107.5 24 L 109.5 27 L 107.5 24 Z " /><path fill="rgb(213,218,223)" stroke="rgb(213,218,223)" stroke-width="1" opacity="1" d="M 271.5 25 L 269.5 28 L 271.5 25 Z " /><path fill="rgb(213,218,223)" stroke="rgb(213,218,223)" stroke-width="1" opacity="1" d="M 179.5 26 L 201 26.5 L 179.5 27 L 179.5 26 Z " /><path fill="rgb(213,218,223)" stroke="rgb(213,218,223)" stroke-width="1" opacity="1" d="M 166.5 27 L 171 27.5 L 166.5 28 L 166.5 27 Z " /><path fill="rgb(213,218,223)" stroke="rgb(213,218,223)" stroke-width="1" opacity="1" d="M 210.5 27 L 214 27.5 L 210.5 28 L 210.5 27 Z " /><path fill="rgb(213,218,223)" stroke="rgb(213,218,223)" stroke-width="1" opacity="1" d="M 112.5 28 L 114.5 31 L 112.5 28 Z " /><path fill="rgb(213,218,223)" stroke="rgb(213,218,223)" stroke-width="1" opacity="1" d="M 159.5 28 L 162 28.5 L 159.5 29 L 159.5 28 Z " /><path fill="rgb(213,218,223)" stroke="rgb(213,218,223)" stroke-width="1" opacity="1" d="M 218.5 28 L 221 28.5 L 218.5 29 L 218.5 28 Z " /><path fill="rgb(213,218,223)" stroke="rgb(213,218,223)" stroke-width="1" opacity="1" d="M 153.5 29 L 156 29.5 L 153.5 30 L 153.5 29 Z " /><path fill="rgb(213,218,223)" stroke="rgb(213,218,223)" stroke-width="1" opacity="1" d="M 266.5 29 L 264.5 32 L 266.5 29 Z " /><path fill="rgb(213,218,223)" stroke="rgb(213,218,223)" stroke-width="1" opacity="1" d="M 148.5 30 L 151 30.5 L 148.5 31 L 148.5 30 Z " /><path fill="rgb(213,218,223)" stroke="rgb(213,218,223)" stroke-width="1" opacity="1" d="M 117.5 32 L 119.5 35 L 117.5 32 Z " /><path fill="rgb(213,218,223)" stroke="rgb(213,218,223)" stroke-width="1" opacity="1" d="M 261.5 33 L 259.5 36 L 261.5 33 Z " /><path fill="rgb(213,218,223)" stroke="rgb(213,218,223)" stroke-width="1" opacity="1" d="M 122.5 36 L 126 37.5 L 123.5 38 L 122.5 36 Z " /><path fill="rgb(213,218,223)" stroke="rgb(213,218,223)" stroke-width="1" opacity="1" d="M 254.5 37 L 257 37.5 L 254.5 38 L 254.5 37 Z " /><path fill="rgb(213,218,223)" stroke="rgb(213,218,223)" stroke-width="1" opacity="1" d="M 105.5 55 L 111 55.5 L 105.5 56 L 105.5 55 Z " /><path fill="rgb(213,218,223)" stroke="rgb(213,218,223)" stroke-width="1" opacity="1" d="M 122.5 55 L 128 55.5 L 122.5 56 L 122.5 55 Z " /><path fill="rgb(213,218,223)" stroke="rgb(213,218,223)" stroke-width="1" opacity="1" d="M 252.5 55 L 258 55.5 L 252.5 56 L 252.5 55 Z " /><path fill="rgb(213,218,223)" stroke="rgb(213,218,223)" stroke-width="1" opacity="1" d="M 271.5 55 L 277 55.5 L 271.5 56 L 271.5 55 Z " /><path fill="rgb(213,218,223)" stroke="rgb(213,218,223)" stroke-width="1" opacity="1" d="M 97.5 56 L 100 56.5 L 97.5 57 L 97.5 56 Z " /><path fill="rgb(213,218,223)" stroke="rgb(213,218,223)" stroke-width="1" opacity="1" d="M 133.5 56 L 136 56.5 L 133.5 57 L 133.5 56 Z " /><path fill="rgb(213,218,223)" stroke="rgb(213,218,223)" stroke-width="1" opacity="1" d="M 245.5 56 L 248 56.5 L 245.5 57 L 245.5 56 Z " /><path fill="rgb(213,218,223)" stroke="rgb(213,218,223)" stroke-width="1" opacity="1" d="M 281.5 56 L 284 56.5 L 281.5 57 L 281.5 56 Z " /><path fill="rgb(213,218,223)" stroke="rgb(213,218,223)" stroke-width="1" opacity="1" d="M 91.5 57 L 94 57.5 L 91.5 58 L 91.5 57 Z " /><path fill="rgb(213,218,223)" stroke="rgb(213,218,223)" stroke-width="1" opacity="1" d="M 239.5 57 L 242 57.5 L 239.5 58 L 239.5 57 Z " /><path fill="rgb(213,218,223)" stroke="rgb(213,218,223)" stroke-width="1" opacity="1" d="M 102.5 60 L 129.5 60 L 149.5 64 L 175.5 74 L 180.5 75 L 199.5 75 Q 215 71.5 227.5 65 L 244.5 61 Q 250 62.5 251.5 60 L 277.5 60 L 292.5 63 L 297 66.5 L 297 69.5 L 293 78.5 L 283 96.5 L 265.5 117 L 248.5 128 Q 240.5 131.5 229.5 132 L 216.5 128 L 209 120.5 L 203 108.5 L 200 93.5 L 200 86.5 L 195.5 81 L 186.5 80 L 182 83.5 L 180 87.5 L 180 94.5 L 176 111.5 Q 172.8 120.3 166.5 126 Q 160 131.5 148.5 132 L 137.5 130 L 127.5 126 L 109 111.5 Q 92.2 93.3 83 67.5 L 85.5 64 L 102.5 60 Z M 111 65 L 105 68 L 98 78 L 99 90 L 112 108 Q 120 116 131 122 L 142 126 Q 148 124 150 127 Q 159 127 164 122 L 172 109 L 175 95 L 171 82 L 163 74 L 149 69 L 129 65 L 111 65 Z M 252 65 L 232 69 L 215 76 Q 209 81 206 89 L 206 101 Q 208 111 213 118 Q 218 125 229 127 L 243 125 Q 254 121 262 114 Q 274 103 282 88 Q 283 78 280 73 Q 276 67 270 65 L 252 65 Z " /><path fill="rgb(213,218,223)" stroke="rgb(213,218,223)" stroke-width="1" opacity="1" d="M 112.5 69 L 132.5 70 L 146.5 73 L 160.5 78 L 167 83.5 Q 171.2 88.3 170 98.5 Q 168.5 108 164 114.5 L 158.5 120 Q 154.2 123.7 144.5 122 Q 122.4 116.1 111 99.5 L 103 87.5 L 102 79.5 L 106 72 L 112.5 69 Z " /><path fill="rgb(213,218,223)" stroke="rgb(213,218,223)" stroke-width="1" opacity="1" d="M 256.5 69 Q 271.2 66.8 276 74.5 Q 278.9 78.1 278 85.5 Q 271.8 98.8 261.5 108 L 245.5 119 L 235.5 122 L 226.5 122 Q 220 120.5 217 115.5 Q 209.9 107.1 210 91.5 Q 211.4 83.9 216.5 80 L 237.5 72 L 247.5 70 L 255.5 70 L 256.5 69 Z " /><path fill="rgb(213,218,223)" stroke="rgb(213,218,223)" stroke-width="1" opacity="1" d="M 183.5 70 L 189 70.5 L 183.5 71 L 183.5 70 Z " /><path fill="rgb(213,218,223)" stroke="rgb(213,218,223)" stroke-width="1" opacity="1" d="M 191.5 70 L 197 70.5 L 191.5 71 L 191.5 70 Z " /><path fill="rgb(213,218,223)" stroke="rgb(213,218,223)" stroke-width="1" opacity="1" d="M 295.5 83 L 296 85 L 294 84.5 L 295.5 83 Z " /><path fill="rgb(213,218,223)" stroke="rgb(213,218,223)" stroke-width="1" opacity="1" d="M 84 84 L 86 84.5 L 84.5 87 L 84 84 Z " /><path fill="rgb(213,218,223)" stroke="rgb(213,218,223)" stroke-width="1" opacity="1" d="M 188.5 84 L 192 84.5 L 188.5 85 L 188.5 84 Z " /><path fill="rgb(213,218,223)" stroke="rgb(213,218,223)" stroke-width="1" opacity="1" d="M 193.5 85 L 194.5 87 L 193.5 85 Z " /><path fill="rgb(213,218,223)" stroke="rgb(213,218,223)" stroke-width="1" opacity="1" d="M 195.5 88 L 196 91.5 L 195 91.5 L 195.5 88 Z " /><path fill="rgb(213,218,223)" stroke="rgb(213,218,223)" stroke-width="1" opacity="1" d="M 296.5 89 L 297 91.5 L 296 91.5 L 296.5 89 Z " /><path fill="rgb(213,218,223)" stroke="rgb(213,218,223)" stroke-width="1" opacity="1" d="M 83.5 90 L 84 93.5 L 83 93.5 L 83.5 90 Z " /><path fill="rgb(213,218,223)" stroke="rgb(213,218,223)" stroke-width="1" opacity="1" d="M 88.5 90 L 89.5 92 L 88.5 90 Z " /><path fill="rgb(213,218,223)" stroke="rgb(213,218,223)" stroke-width="1" opacity="1" d="M 184.5 90 L 185 94.5 L 184 94.5 L 184.5 90 Z " /><path fill="rgb(213,218,223)" stroke="rgb(213,218,223)" stroke-width="1" opacity="1" d="M 91.5 95 L 92.5 97 L 91.5 95 Z " /><path fill="rgb(213,218,223)" stroke="rgb(213,218,223)" stroke-width="1" opacity="1" d="M 297.5 96 L 298 98.5 L 297 98.5 L 297.5 96 Z " /><path fill="rgb(213,218,223)" stroke="rgb(213,218,223)" stroke-width="1" opacity="1" d="M 82.5 97 L 83 100.5 L 82 100.5 L 82.5 97 Z " /><path fill="rgb(213,218,223)" stroke="rgb(213,218,223)" stroke-width="1" opacity="1" d="M 196.5 97 L 197 99.5 L 196 99.5 L 196.5 97 Z " /><path fill="rgb(213,218,223)" stroke="rgb(213,218,223)" stroke-width="1" opacity="1" d="M 287.5 97 L 286.5 99 L 287.5 97 Z " /><path fill="rgb(213,218,223)" stroke="rgb(213,218,223)" stroke-width="1" opacity="1" d="M 285.5 100 L 284.5 102 L 285.5 100 Z " /><path fill="rgb(213,218,223)" stroke="rgb(213,218,223)" stroke-width="1" opacity="1" d="M 95.5 101 L 96.5 103 L 95.5 101 Z " /><path fill="rgb(213,218,223)" stroke="rgb(213,218,223)" stroke-width="1" opacity="1" d="M 283.5 103 L 282.5 105 L 283.5 103 Z " /><path fill="rgb(213,218,223)" stroke="rgb(213,218,223)" stroke-width="1" opacity="1" d="M 97.5 104 L 98.5 106 L 97.5 104 Z " /><path fill="rgb(213,218,223)" stroke="rgb(213,218,223)" stroke-width="1" opacity="1" d="M 298.5 104 L 299 107.5 L 298 107.5 L 298.5 104 Z " /><path fill="rgb(213,218,223)" stroke="rgb(213,218,223)" stroke-width="1" opacity="1" d="M 81.5 106 L 82 110.5 L 81 110.5 L 81.5 106 Z " /><path fill="rgb(213,218,223)" stroke="rgb(213,218,223)" stroke-width="1" opacity="1" d="M 280.5 107 L 278.5 110 L 280.5 107 Z " /><path fill="rgb(213,218,223)" stroke="rgb(213,218,223)" stroke-width="1" opacity="1" d="M 100.5 108 L 103.5 112 L 100.5 108 Z " /><path fill="rgb(213,218,223)" stroke="rgb(213,218,223)" stroke-width="1" opacity="1" d="M 275.5 113 L 269.5 120 L 275.5 113 Z " /><path fill="rgb(213,218,223)" stroke="rgb(213,218,223)" stroke-width="1" opacity="1" d="M 111.5 119 L 114.5 123 L 111.5 119 Z " /><path fill="rgb(213,218,223)" stroke="rgb(213,218,223)" stroke-width="1" opacity="1" d="M 203.5 120 L 204.5 122 L 203.5 120 Z " /><path fill="rgb(213,218,223)" stroke="rgb(213,218,223)" stroke-width="1" opacity="1" d="M 81.5 122 L 82 126.5 L 81 126.5 L 81.5 122 Z " /><path fill="rgb(213,218,223)" stroke="rgb(213,218,223)" stroke-width="1" opacity="1" d="M 175.5 122 L 173.5 125 L 175.5 122 Z " /><path fill="rgb(213,218,223)" stroke="rgb(213,218,223)" stroke-width="1" opacity="1" d="M 265.5 122 L 264.5 124 L 265.5 122 Z " /><path fill="rgb(213,218,223)" stroke="rgb(213,218,223)" stroke-width="1" opacity="1" d="M 186.5 123 L 194 123.5 L 186.5 124 L 186.5 123 Z " /><path fill="rgb(213,218,223)" stroke="rgb(213,218,223)" stroke-width="1" opacity="1" d="M 205.5 123 L 207.5 126 L 205.5 123 Z " /><path fill="rgb(213,218,223)" stroke="rgb(213,218,223)" stroke-width="1" opacity="1" d="M 117.5 124 L 118.5 126 L 117.5 124 Z " /><path fill="rgb(213,218,223)" stroke="rgb(213,218,223)" stroke-width="1" opacity="1" d="M 196.5 124 L 200 126.5 L 197.5 125 L 196.5 124 Z " /><path fill="rgb(213,218,223)" stroke="rgb(213,218,223)" stroke-width="1" opacity="1" d="M 181.5 125 L 180.5 127 L 181.5 125 Z " /><path fill="rgb(213,218,223)" stroke="rgb(213,218,223)" stroke-width="1" opacity="1" d="M 261.5 125 L 260.5 127 L 261.5 125 Z " /><path fill="rgb(213,218,223)" stroke="rgb(213,218,223)" stroke-width="1" opacity="1" d="M 298.5 125 L 299 128.5 L 298 128.5 L 298.5 125 Z " /><path fill="rgb(213,218,223)" stroke="rgb(213,218,223)" stroke-width="1" opacity="1" d="M 200.5 128 L 201 132.5 L 200 132.5 L 200.5 128 Z " /><path fill="rgb(213,218,223)" stroke="rgb(213,218,223)" stroke-width="1" opacity="1" d="M 210.5 128 L 212.5 131 L 210.5 128 Z " /><path fill="rgb(213,218,223)" stroke="rgb(213,218,223)" stroke-width="1" opacity="1" d="M 125.5 129 L 128 130.5 L 126.5 131 L 125.5 129 Z " /><path fill="rgb(213,218,223)" stroke="rgb(213,218,223)" stroke-width="1" opacity="1" d="M 167.5 130 L 166.5 132 L 167.5 130 Z " /><path fill="rgb(213,218,223)" stroke="rgb(213,218,223)" stroke-width="1" opacity="1" d="M 214.5 131 L 215.5 133 L 214.5 131 Z " /><path fill="rgb(213,218,223)" stroke="rgb(213,218,223)" stroke-width="1" opacity="1" d="M 141.5 135 L 144 135.5 L 141.5 136 L 141.5 135 Z " /><path fill="rgb(213,218,223)" stroke="rgb(213,218,223)" stroke-width="1" opacity="1" d="M 223.5 135 L 226 135.5 L 223.5 136 L 223.5 135 Z " /><path fill="rgb(213,218,223)" stroke="rgb(213,218,223)" stroke-width="1" opacity="1" d="M 236.5 135 L 239 135.5 L 236.5 136 L 236.5 135 Z " /><path fill="rgb(213,218,223)" stroke="rgb(213,218,223)" stroke-width="1" opacity="1" d="M 182.5 139 L 188 143.5 L 186.5 144 L 182.5 139 Z " /><path fill="rgb(213,218,223)" stroke="rgb(213,218,223)" stroke-width="1" opacity="1" d="M 197.5 139 L 196.5 141 L 197.5 139 Z " /><path fill="rgb(213,218,223)" stroke="rgb(213,218,223)" stroke-width="1" opacity="1" d="M 194.5 142 L 193.5 144 L 194.5 142 Z " /><path fill="rgb(213,218,223)" stroke="rgb(213,218,223)" stroke-width="1" opacity="1" d="M 258.5 142 L 257.5 144 L 256 143.5 L 258.5 142 Z " /><path fill="rgb(213,218,223)" stroke="rgb(213,218,223)" stroke-width="1" opacity="1" d="M 226.5 147 L 228 147.5 L 225.5 149 L 226.5 147 Z " /><path fill="rgb(213,218,223)" stroke="rgb(213,218,223)" stroke-width="1" opacity="1" d="M 291.5 150 L 292 151.5 L 290 152.5 L 291.5 150 Z " /><path fill="rgb(213,218,223)" stroke="rgb(213,218,223)" stroke-width="1" opacity="1" d="M 189.5 154 L 193 156.5 L 190.5 155 L 187.5 157 L 189.5 154 Z " /><path fill="rgb(213,218,223)" stroke="rgb(213,218,223)" stroke-width="1" opacity="1" d="M 91.5 156 L 92.5 158 L 91.5 156 Z " /><path fill="rgb(213,218,223)" stroke="rgb(213,218,223)" stroke-width="1" opacity="1" d="M 172.5 157 L 173.5 158 L 183 158.5 L 173.5 159 L 172.5 157 Z " /><path fill="rgb(213,218,223)" stroke="rgb(213,218,223)" stroke-width="1" opacity="1" d="M 207.5 157 L 206.5 159 L 197 158.5 L 206.5 158 L 207.5 157 Z " /><path fill="rgb(213,218,223)" stroke="rgb(213,218,223)" stroke-width="1" opacity="1" d="M 148.5 160 L 151 160.5 L 148.5 161 L 148.5 160 Z " /><path fill="rgb(213,218,223)" stroke="rgb(213,218,223)" stroke-width="1" opacity="1" d="M 229.5 160 L 232 160.5 L 229.5 161 L 229.5 160 Z " /><path fill="rgb(213,218,223)" stroke="rgb(213,218,223)" stroke-width="1" opacity="1" d="M 94.5 161 L 95.5 163 L 94.5 161 Z " /><path fill="rgb(213,218,223)" stroke="rgb(213,218,223)" stroke-width="1" opacity="1" d="M 141.5 161 L 144 161.5 L 141.5 162 L 141.5 161 Z " /><path fill="rgb(213,218,223)" stroke="rgb(213,218,223)" stroke-width="1" opacity="1" d="M 236.5 161 L 239 161.5 L 236.5 162 L 236.5 161 Z " /><path fill="rgb(213,218,223)" stroke="rgb(213,218,223)" stroke-width="1" opacity="1" d="M 285.5 161 L 284.5 163 L 285.5 161 Z " /><path fill="rgb(213,218,223)" stroke="rgb(213,218,223)" stroke-width="1" opacity="1" d="M 133.5 162 L 137 162.5 L 133.5 163 L 133.5 162 Z " /><path fill="rgb(213,218,223)" stroke="rgb(213,218,223)" stroke-width="1" opacity="1" d="M 243.5 162 L 247 162.5 L 243.5 163 L 243.5 162 Z " /><path fill="rgb(213,218,223)" stroke="rgb(213,218,223)" stroke-width="1" opacity="1" d="M 126.5 163 L 130 163.5 L 126.5 164 L 126.5 163 Z " /><path fill="rgb(213,218,223)" stroke="rgb(213,218,223)" stroke-width="1" opacity="1" d="M 225.5 163 L 229 164.5 L 226.5 165 L 225.5 163 Z " /><path fill="rgb(213,218,223)" stroke="rgb(213,218,223)" stroke-width="1" opacity="1" d="M 250.5 163 L 254 163.5 L 250.5 164 L 250.5 163 Z " /><path fill="rgb(213,218,223)" stroke="rgb(213,218,223)" stroke-width="1" opacity="1" d="M 151.5 164 L 154 164.5 L 151.5 165 L 151.5 164 Z " /><path fill="rgb(213,218,223)" stroke="rgb(213,218,223)" stroke-width="1" opacity="1" d="M 283.5 164 L 282.5 166 L 283.5 164 Z " /><path fill="rgb(213,218,223)" stroke="rgb(213,218,223)" stroke-width="1" opacity="1" d="M 97.5 165 L 99.5 168 L 97.5 165 Z " /><path fill="rgb(213,218,223)" stroke="rgb(213,218,223)" stroke-width="1" opacity="1" d="M 144.5 165 L 147 165.5 L 144.5 166 L 144.5 165 Z " /><path fill="rgb(213,218,223)" stroke="rgb(213,218,223)" stroke-width="1" opacity="1" d="M 233.5 165 L 236 165.5 L 233.5 166 L 233.5 165 Z " /><path fill="rgb(213,218,223)" stroke="rgb(213,218,223)" stroke-width="1" opacity="1" d="M 137.5 166 L 140 166.5 L 137.5 167 L 137.5 166 Z " /><path fill="rgb(213,218,223)" stroke="rgb(213,218,223)" stroke-width="1" opacity="1" d="M 240.5 166 L 243 166.5 L 240.5 167 L 240.5 166 Z " /><path fill="rgb(213,218,223)" stroke="rgb(213,218,223)" stroke-width="1" opacity="1" d="M 121.5 167 L 126 168.5 L 122.5 169 L 121.5 167 Z " /><path fill="rgb(213,218,223)" stroke="rgb(213,218,223)" stroke-width="1" opacity="1" d="M 130.5 167 L 133 167.5 L 130.5 168 L 130.5 167 Z " /><path fill="rgb(213,218,223)" stroke="rgb(213,218,223)" stroke-width="1" opacity="1" d="M 247.5 167 L 250 167.5 L 247.5 168 L 247.5 167 Z " /><path fill="rgb(213,218,223)" stroke="rgb(213,218,223)" stroke-width="1" opacity="1" d="M 254.5 168 L 258 168.5 L 254.5 169 L 254.5 168 Z " /><path fill="rgb(213,218,223)" stroke="rgb(213,218,223)" stroke-width="1" opacity="1" d="M 279.5 169 L 271.5 178 L 279.5 169 Z " /><path fill="rgb(213,218,223)" stroke="rgb(213,218,223)" stroke-width="1" opacity="1" d="M 102.5 171 L 105.5 175 L 102.5 171 Z " /><path fill="rgb(213,218,223)" stroke="rgb(213,218,223)" stroke-width="1" opacity="1" d="M 110.5 178 L 112.5 181 L 110.5 178 Z " /><path fill="rgb(213,218,223)" stroke="rgb(213,218,223)" stroke-width="1" opacity="1" d="M 268.5 179 L 266.5 182 L 268.5 179 Z " /><path fill="rgb(213,218,223)" stroke="rgb(213,218,223)" stroke-width="1" opacity="1" d="M 114.5 181 L 115.5 183 L 114.5 181 Z " /><path fill="rgb(213,218,223)" stroke="rgb(213,218,223)" stroke-width="1" opacity="1" d="M 264.5 182 L 263.5 184 L 264.5 182 Z " /><path fill="rgb(213,218,223)" stroke="rgb(213,218,223)" stroke-width="1" opacity="1" d="M 117.5 183 L 118.5 185 L 117.5 183 Z " /><path fill="rgb(213,218,223)" stroke="rgb(213,218,223)" stroke-width="1" opacity="1" d="M 110.5 184 L 108.5 187 L 110.5 184 Z " /><path fill="rgb(213,218,223)" stroke="rgb(213,218,223)" stroke-width="1" opacity="1" d="M 269.5 184 L 271 184.5 L 268.5 186 L 269.5 184 Z " /><path fill="rgb(213,218,223)" stroke="rgb(213,218,223)" stroke-width="1" opacity="1" d="M 112.5 185 L 113.5 187 L 112.5 185 Z " /><path fill="rgb(213,218,223)" stroke="rgb(213,218,223)" stroke-width="1" opacity="1" d="M 266.5 186 L 265.5 188 L 266.5 186 Z " /><path fill="rgb(213,218,223)" stroke="rgb(213,218,223)" stroke-width="1" opacity="1" d="M 261.5 187 L 264 188.5 L 262.5 189 L 261.5 187 Z " /><path fill="rgb(213,218,223)" stroke="rgb(213,218,223)" stroke-width="1" opacity="1" d="M 104.5 194 L 103.5 196 L 104.5 194 Z " /><path fill="rgb(213,218,223)" stroke="rgb(213,218,223)" stroke-width="1" opacity="1" d="M 114.5 242 L 115.5 244 L 114.5 242 Z " /><path fill="rgb(213,218,223)" stroke="rgb(213,218,223)" stroke-width="1" opacity="1" d="M 117.5 244 L 118.5 246 L 117.5 244 Z " /><path fill="rgb(213,218,223)" stroke="rgb(213,218,223)" stroke-width="1" opacity="1" d="M 271.5 245 L 273 247.5 L 270 249.5 L 272 246.5 L 271.5 245 Z " /><path fill="rgb(213,218,223)" stroke="rgb(213,218,223)" stroke-width="1" opacity="1" d="M 112.5 246 L 113.5 248 L 112.5 246 Z " /><path fill="rgb(213,218,223)" stroke="rgb(213,218,223)" stroke-width="1" opacity="1" d="M 120.5 246 L 121.5 248 L 120.5 246 Z " /><path fill="rgb(213,218,223)" stroke="rgb(213,218,223)" stroke-width="1" opacity="1" d="M 266.5 246 L 265.5 248 L 266.5 246 Z " /><path fill="rgb(213,218,223)" stroke="rgb(213,218,223)" stroke-width="1" opacity="1" d="M 115.5 248 L 116.5 250 L 115.5 248 Z " /><path fill="rgb(213,218,223)" stroke="rgb(213,218,223)" stroke-width="1" opacity="1" d="M 123.5 248 L 124.5 250 L 123.5 248 Z " /><path fill="rgb(213,218,223)" stroke="rgb(213,218,223)" stroke-width="1" opacity="1" d="M 263.5 248 L 262.5 250 L 263.5 248 Z " /><path fill="rgb(213,218,223)" stroke="rgb(213,218,223)" stroke-width="1" opacity="1" d="M 118.5 250 L 119.5 252 L 118.5 250 Z " /><path fill="rgb(213,218,223)" stroke="rgb(213,218,223)" stroke-width="1" opacity="1" d="M 260.5 250 L 259.5 252 L 260.5 250 Z " /><path fill="rgb(213,218,223)" stroke="rgb(213,218,223)" stroke-width="1" opacity="1" d="M 268.5 250 L 267.5 252 L 268.5 250 Z " /><path fill="rgb(213,218,223)" stroke="rgb(213,218,223)" stroke-width="1" opacity="1" d="M 127.5 251 L 128.5 253 L 127.5 251 Z " /><path fill="rgb(213,218,223)" stroke="rgb(213,218,223)" stroke-width="1" opacity="1" d="M 121.5 252 L 122.5 254 L 121.5 252 Z " /><path fill="rgb(213,218,223)" stroke="rgb(213,218,223)" stroke-width="1" opacity="1" d="M 257.5 252 L 256.5 254 L 257.5 252 Z " /><path fill="rgb(213,218,223)" stroke="rgb(213,218,223)" stroke-width="1" opacity="1" d="M 265.5 252 L 264.5 254 L 265.5 252 Z " /><path fill="rgb(213,218,223)" stroke="rgb(213,218,223)" stroke-width="1" opacity="1" d="M 131.5 254 L 132.5 256 L 131.5 254 Z " /><path fill="rgb(213,218,223)" stroke="rgb(213,218,223)" stroke-width="1" opacity="1" d="M 254.5 254 L 253.5 256 L 254.5 254 Z " /><path fill="rgb(213,218,223)" stroke="rgb(213,218,223)" stroke-width="1" opacity="1" d="M 262.5 254 L 261.5 256 L 262.5 254 Z " /><path fill="rgb(213,218,223)" stroke="rgb(213,218,223)" stroke-width="1" opacity="1" d="M 125.5 255 L 126.5 257 L 125.5 255 Z " /><path fill="rgb(213,218,223)" stroke="rgb(213,218,223)" stroke-width="1" opacity="1" d="M 134.5 256 L 136.5 259 L 134.5 256 Z " /><path fill="rgb(213,218,223)" stroke="rgb(213,218,223)" stroke-width="1" opacity="1" d="M 259.5 256 L 258.5 258 L 259.5 256 Z " /><path fill="rgb(213,218,223)" stroke="rgb(213,218,223)" stroke-width="1" opacity="1" d="M 250.5 257 L 249.5 259 L 250.5 257 Z " /><path fill="rgb(213,218,223)" stroke="rgb(213,218,223)" stroke-width="1" opacity="1" d="M 129.5 258 L 130.5 260 L 129.5 258 Z " /><path fill="rgb(213,218,223)" stroke="rgb(213,218,223)" stroke-width="1" opacity="1" d="M 256.5 258 L 255.5 260 L 256.5 258 Z " /><path fill="rgb(213,218,223)" stroke="rgb(213,218,223)" stroke-width="1" opacity="1" d="M 138.5 259 L 140.5 262 L 138.5 259 Z " /><path fill="rgb(213,218,223)" stroke="rgb(213,218,223)" stroke-width="1" opacity="1" d="M 247.5 259 L 246.5 261 L 247.5 259 Z " /><path fill="rgb(213,218,223)" stroke="rgb(213,218,223)" stroke-width="1" opacity="1" d="M 132.5 260 L 134.5 263 L 132.5 260 Z " /><path fill="rgb(213,218,223)" stroke="rgb(213,218,223)" stroke-width="1" opacity="1" d="M 252.5 261 L 251.5 263 L 252.5 261 Z " /><path fill="rgb(213,218,223)" stroke="rgb(213,218,223)" stroke-width="1" opacity="1" d="M 142.5 262 L 144.5 265 L 142.5 262 Z " /><path fill="rgb(213,218,223)" stroke="rgb(213,218,223)" stroke-width="1" opacity="1" d="M 243.5 262 L 242.5 264 L 243.5 262 Z " /><path fill="rgb(213,218,223)" stroke="rgb(213,218,223)" stroke-width="1" opacity="1" d="M 249.5 263 L 248.5 265 L 249.5 263 Z " /><path fill="rgb(213,218,223)" stroke="rgb(213,218,223)" stroke-width="1" opacity="1" d="M 137.5 264 L 138.5 266 L 137.5 264 Z " /><path fill="rgb(213,218,223)" stroke="rgb(213,218,223)" stroke-width="1" opacity="1" d="M 240.5 264 L 239.5 266 L 240.5 264 Z " /><path fill="rgb(213,218,223)" stroke="rgb(213,218,223)" stroke-width="1" opacity="1" d="M 245.5 266 L 244.5 268 L 245.5 266 Z " /><path fill="rgb(213,218,223)" stroke="rgb(213,218,223)" stroke-width="1" opacity="1" d="M 141.5 267 L 142.5 269 L 141.5 267 Z " /><path fill="rgb(213,218,223)" stroke="rgb(213,218,223)" stroke-width="1" opacity="1" d="M 236.5 267 L 235.5 269 L 236.5 267 Z " /><path fill="rgb(213,218,223)" stroke="rgb(213,218,223)" stroke-width="1" opacity="1" d="M 150.5 268 L 151.5 270 L 150.5 268 Z " /><path fill="rgb(213,218,223)" stroke="rgb(213,218,223)" stroke-width="1" opacity="1" d="M 233.5 269 L 232.5 271 L 233.5 269 Z " /><path fill="rgb(213,218,223)" stroke="rgb(213,218,223)" stroke-width="1" opacity="1" d="M 145.5 270 L 146.5 272 L 145.5 270 Z " /><path fill="rgb(213,218,223)" stroke="rgb(213,218,223)" stroke-width="1" opacity="1" d="M 153.5 270 L 154.5 272 L 153.5 270 Z " /><path fill="rgb(213,218,223)" stroke="rgb(213,218,223)" stroke-width="1" opacity="1" d="M 238.5 271 L 237.5 273 L 238.5 271 Z " /><path fill="rgb(213,218,223)" stroke="rgb(213,218,223)" stroke-width="1" opacity="1" d="M 148.5 272 L 149.5 274 L 148.5 272 Z " /><path fill="rgb(213,218,223)" stroke="rgb(213,218,223)" stroke-width="1" opacity="1" d="M 156.5 272 L 157.5 274 L 156.5 272 Z " /><path fill="rgb(213,218,223)" stroke="rgb(213,218,223)" stroke-width="1" opacity="1" d="M 235.5 273 L 234.5 275 L 235.5 273 Z " /><path fill="rgb(213,218,223)" stroke="rgb(213,218,223)" stroke-width="1" opacity="1" d="M 151.5 274 L 152.5 276 L 151.5 274 Z " /><path fill="rgb(213,218,223)" stroke="rgb(213,218,223)" stroke-width="1" opacity="1" d="M 225.5 274 L 224.5 276 L 225.5 274 Z " /><path fill="rgb(213,218,223)" stroke="rgb(213,218,223)" stroke-width="1" opacity="1" d="M 154.5 276 L 155.5 278 L 154.5 276 Z " /><path fill="rgb(213,218,223)" stroke="rgb(213,218,223)" stroke-width="1" opacity="1" d="M 166.5 278 L 169 279.5 L 167.5 280 L 166.5 278 Z " /><path fill="rgb(213,218,223)" stroke="rgb(213,218,223)" stroke-width="1" opacity="1" d="M 218.5 278 L 217.5 280 L 216 279.5 L 218.5 278 Z " /><path fill="rgb(213,218,223)" stroke="rgb(213,218,223)" stroke-width="1" opacity="1" d="M 227.5 278 L 226.5 280 L 227.5 278 Z " /><path fill="rgb(213,218,223)" stroke="rgb(213,218,223)" stroke-width="1" opacity="1" d="M 159.5 279 L 160.5 281 L 159.5 279 Z " /><path fill="rgb(213,218,223)" stroke="rgb(213,218,223)" stroke-width="1" opacity="1" d="M 164.5 282 L 167 283.5 L 165.5 284 L 164.5 282 Z " /><path fill="rgb(213,218,223)" stroke="rgb(213,218,223)" stroke-width="1" opacity="1" d="M 88.5 285 L 91 285.5 L 88.5 286 L 88.5 285 Z " /><path fill="rgb(213,218,223)" stroke="rgb(213,218,223)" stroke-width="1" opacity="1" d="M 181.5 285 L 182.5 287 L 181.5 285 Z " /><path fill="rgb(213,218,223)" stroke="rgb(213,218,223)" stroke-width="1" opacity="1" d="M 289.5 285 L 292 285.5 L 289.5 286 L 289.5 285 Z " /><path fill="rgb(213,218,223)" stroke="rgb(213,218,223)" stroke-width="1" opacity="1" d="M 184.5 287 L 187.5 291 L 184.5 287 Z " /><path fill="rgb(213,218,223)" stroke="rgb(213,218,223)" stroke-width="1" opacity="1" d="M 200.5 287 L 197.5 291 L 200.5 287 Z " /><path fill="rgb(213,218,223)" stroke="rgb(213,218,223)" stroke-width="1" opacity="1" d="M 179.5 289 L 180.5 291 L 179.5 289 Z " /><path fill="rgb(213,218,223)" stroke="rgb(213,218,223)" stroke-width="1" opacity="1" d="M 280.5 289 L 279.5 291 L 278 290.5 L 280.5 289 Z " /><path fill="rgb(213,218,223)" stroke="rgb(213,218,223)" stroke-width="1" opacity="1" d="M 311.5 290 L 317 320.5 L 317 329.5 L 318 330.5 L 319 369.5 L 318 370.5 L 318 381.5 L 317 382.5 L 316 395.5 L 308 425.5 L 297 447.5 L 279.5 467 L 277.5 468 Q 273.8 462.5 275 453 L 271 453 L 271 462.5 L 278 479.5 L 278 493.5 L 268.5 499 L 247.5 500 L 237.5 498 L 231 493.5 L 230 491.5 L 230 473.5 L 233 458.5 Q 230.5 453.5 228 458.5 L 227 470.5 L 226 473 L 154.5 473 L 154 471.5 L 153 470.5 L 153 460.5 L 152 455 L 148 456.5 L 149 471.5 L 151 478.5 L 151 488.5 L 146.5 496 L 133.5 500 L 117.5 500 L 108.5 498 L 103 494.5 L 102 492.5 L 102 480.5 Q 103.3 472.3 108 467.5 L 109 453 L 105 454.5 Q 106.3 463.8 102.5 468 L 90 456.5 L 82 445.5 Q 73 431 68 412.5 L 63 388.5 L 61 349.5 L 62 348.5 L 63 322.5 L 68.5 291 L 69 296.5 L 68 297.5 L 67 322.5 L 66 323.5 L 66 347.5 L 67 348.5 L 67 360.5 L 68 361.5 L 69 376.5 L 77 406.5 Q 85.9 431.6 104.5 447 L 113.5 452 L 123.5 454 L 257.5 454 Q 274.3 451.3 283 440.5 L 297 420.5 L 308 391.5 L 312 371.5 L 313 352.5 L 314 351.5 L 314 318.5 L 313 317.5 L 313 305.5 L 312 304.5 L 311.5 290 Z " /><path fill="rgb(213,218,223)" stroke="rgb(213,218,223)" stroke-width="1" opacity="1" d="M 202.5 291 L 201.5 293 L 202.5 291 Z " /><path fill="rgb(213,218,223)" stroke="rgb(213,218,223)" stroke-width="1" opacity="1" d="M 282.5 293 L 281.5 295 L 280 294.5 L 282.5 293 Z " /><path fill="rgb(213,218,223)" stroke="rgb(213,218,223)" stroke-width="1" opacity="1" d="M 189.5 295 L 190 299.5 L 189 299.5 L 189.5 295 Z " /><path fill="rgb(213,218,223)" stroke="rgb(213,218,223)" stroke-width="1" opacity="1" d="M 195.5 295 L 196 300.5 L 195 300.5 L 195.5 295 Z " /><path fill="rgb(213,218,223)" stroke="rgb(213,218,223)" stroke-width="1" opacity="1" d="M 255.5 301 L 254.5 303 L 255.5 301 Z " /><path fill="rgb(213,218,223)" stroke="rgb(213,218,223)" stroke-width="1" opacity="1" d="M 132.5 303 L 133.5 305 L 132.5 303 Z " /><path fill="rgb(213,218,223)" stroke="rgb(213,218,223)" stroke-width="1" opacity="1" d="M 257.5 305 L 256.5 307 L 257.5 305 Z " /><path fill="rgb(213,218,223)" stroke="rgb(213,218,223)" stroke-width="1" opacity="1" d="M 130.5 307 L 131.5 309 L 130.5 307 Z " /><path fill="rgb(213,218,223)" stroke="rgb(213,218,223)" stroke-width="1" opacity="1" d="M 138.5 307 L 139.5 309 L 138.5 307 Z " /><path fill="rgb(213,218,223)" stroke="rgb(213,218,223)" stroke-width="1" opacity="1" d="M 246.5 307 L 245.5 309 L 246.5 307 Z " /><path fill="rgb(213,218,223)" stroke="rgb(213,218,223)" stroke-width="1" opacity="1" d="M 133.5 309 L 134.5 311 L 133.5 309 Z " /><path fill="rgb(213,218,223)" stroke="rgb(213,218,223)" stroke-width="1" opacity="1" d="M 141.5 309 L 143.5 312 L 141.5 309 Z " /><path fill="rgb(213,218,223)" stroke="rgb(213,218,223)" stroke-width="1" opacity="1" d="M 243.5 309 L 242.5 311 L 243.5 309 Z " /><path fill="rgb(213,218,223)" stroke="rgb(213,218,223)" stroke-width="1" opacity="1" d="M 136.5 311 L 137.5 313 L 136.5 311 Z " /><path fill="rgb(213,218,223)" stroke="rgb(213,218,223)" stroke-width="1" opacity="1" d="M 248.5 311 L 247.5 313 L 248.5 311 Z " /><path fill="rgb(213,218,223)" stroke="rgb(213,218,223)" stroke-width="1" opacity="1" d="M 145.5 312 L 147.5 315 L 145.5 312 Z " /><path fill="rgb(213,218,223)" stroke="rgb(213,218,223)" stroke-width="1" opacity="1" d="M 239.5 312 L 237.5 315 L 239.5 312 Z " /><path fill="rgb(213,218,223)" stroke="rgb(213,218,223)" stroke-width="1" opacity="1" d="M 245.5 313 L 243.5 316 L 245.5 313 Z " /><path fill="rgb(213,218,223)" stroke="rgb(213,218,223)" stroke-width="1" opacity="1" d="M 140.5 314 L 141.5 316 L 140.5 314 Z " /><path fill="rgb(213,218,223)" stroke="rgb(213,218,223)" stroke-width="1" opacity="1" d="M 178.5 315 L 177.5 317 L 178.5 315 Z " /><path fill="rgb(213,218,223)" stroke="rgb(213,218,223)" stroke-width="1" opacity="1" d="M 404.5 315 L 407 315.5 L 404.5 316 L 404.5 315 Z " /><path fill="rgb(213,218,223)" stroke="rgb(213,218,223)" stroke-width="1" opacity="1" d="M 409.5 315 Q 417 315.5 421.5 319 L 436 332.5 Q 444 343 448 357.5 L 450 367.5 L 450 388.5 L 447 401.5 L 441 415.5 Q 431.7 432.2 417.5 444 Q 400.2 458.7 375.5 466 L 348.5 471 L 323.5 471 L 322.5 470 L 312.5 470 L 311.5 469 L 300.5 468 L 288 464.5 L 292 461.5 Q 288.3 463.3 291.5 465 L 324 466 L 329 452.5 L 330 439.5 L 329 436 L 321 435.5 L 339.5 435 L 349.5 432 L 349 433.5 L 350 445.5 L 347 463 Q 370.7 458.3 388 447 L 386 433.5 Q 382.4 423.6 375.5 417 L 371 420.5 Q 381.5 413 387.5 401 Q 401 411.9 405 431 L 413 424.5 L 427 401.5 L 430 392.5 L 430 388.5 Q 419.2 374.1 398 371 L 397.5 374 L 397 371.5 L 398 370.5 L 398 351 Q 418.7 352.5 431.5 363 L 432 356.5 Q 426.9 330.6 410.5 316 L 409.5 315 Z " /><path fill="rgb(213,218,223)" stroke="rgb(213,218,223)" stroke-width="1" opacity="1" d="M 236.5 316 L 235.5 318 L 236.5 316 Z " /><path fill="rgb(213,218,223)" stroke="rgb(213,218,223)" stroke-width="1" opacity="1" d="M 401.5 316 L 400.5 318 L 401.5 316 Z " /><path fill="rgb(213,218,223)" stroke="rgb(213,218,223)" stroke-width="1" opacity="1" d="M 182.5 317 L 181.5 319 L 182.5 317 Z " /><path fill="rgb(213,218,223)" stroke="rgb(213,218,223)" stroke-width="1" opacity="1" d="M 176.5 318 L 175.5 320 L 176.5 318 Z " /><path fill="rgb(213,218,223)" stroke="rgb(213,218,223)" stroke-width="1" opacity="1" d="M 150.5 319 L 155.5 325 L 150.5 319 Z " /><path fill="rgb(213,218,223)" stroke="rgb(213,218,223)" stroke-width="1" opacity="1" d="M 234.5 319 L 230.5 324 L 234.5 319 Z " /><path fill="rgb(213,218,223)" stroke="rgb(213,218,223)" stroke-width="1" opacity="1" d="M 145.5 320 L 147.5 323 L 145.5 320 Z " /><path fill="rgb(213,218,223)" stroke="rgb(213,218,223)" stroke-width="1" opacity="1" d="M 180.5 320 L 179.5 322 L 180.5 320 Z " /><path fill="rgb(213,218,223)" stroke="rgb(213,218,223)" stroke-width="1" opacity="1" d="M 397.5 320 L 396.5 322 L 397.5 320 Z " /><path fill="rgb(213,218,223)" stroke="rgb(213,218,223)" stroke-width="1" opacity="1" d="M 174.5 321 L 168.5 328 L 174.5 321 Z " /><path fill="rgb(213,218,223)" stroke="rgb(213,218,223)" stroke-width="1" opacity="1" d="M 210.5 321 L 216.5 328 L 210.5 321 Z " /><path fill="rgb(213,218,223)" stroke="rgb(213,218,223)" stroke-width="1" opacity="1" d="M 238.5 321 L 231.5 329 L 238.5 321 Z " /><path fill="rgb(213,218,223)" stroke="rgb(213,218,223)" stroke-width="1" opacity="1" d="M 178.5 323 L 176.5 326 L 178.5 323 Z " /><path fill="rgb(213,218,223)" stroke="rgb(213,218,223)" stroke-width="1" opacity="1" d="M 206.5 323 L 207.5 325 L 206.5 323 Z " /><path fill="rgb(213,218,223)" stroke="rgb(213,218,223)" stroke-width="1" opacity="1" d="M 157.5 325 L 158.5 327 L 157.5 325 Z " /><path fill="rgb(213,218,223)" stroke="rgb(213,218,223)" stroke-width="1" opacity="1" d="M 227.5 325 L 226.5 327 L 227.5 325 Z " /><path fill="rgb(213,218,223)" stroke="rgb(213,218,223)" stroke-width="1" opacity="1" d="M 151.5 326 L 153.5 329 L 151.5 326 Z " /><path fill="rgb(213,218,223)" stroke="rgb(213,218,223)" stroke-width="1" opacity="1" d="M 155.5 329 L 156.5 331 L 155.5 329 Z " /><path fill="rgb(213,218,223)" stroke="rgb(213,218,223)" stroke-width="1" opacity="1" d="M 229.5 329 L 228.5 331 L 229.5 329 Z " /><path fill="rgb(213,218,223)" stroke="rgb(213,218,223)" stroke-width="1" opacity="1" d="M 171.5 330 L 170.5 332 L 171.5 330 Z " /><path fill="rgb(213,218,223)" stroke="rgb(213,218,223)" stroke-width="1" opacity="1" d="M 213.5 330 L 214.5 332 L 213.5 330 Z " /><path fill="rgb(213,218,223)" stroke="rgb(213,218,223)" stroke-width="1" opacity="1" d="M 396.5 341 L 397 343.5 L 396 343.5 L 396.5 341 Z " /><path fill="rgb(213,218,223)" stroke="rgb(213,218,223)" stroke-width="1" opacity="1" d="M 397.5 347 L 398 349.5 L 397 349.5 L 397.5 347 Z " /><path fill="rgb(213,218,223)" stroke="rgb(213,218,223)" stroke-width="1" opacity="1" d="M 368.5 422 L 367.5 424 L 368.5 422 Z " /><path fill="rgb(213,218,223)" stroke="rgb(213,218,223)" stroke-width="1" opacity="1" d="M 365.5 424 L 364.5 426 L 365.5 424 Z " /><path fill="rgb(213,218,223)" stroke="rgb(213,218,223)" stroke-width="1" opacity="1" d="M 305.5 441 L 304.5 443 L 305.5 441 Z " /><path fill="rgb(213,218,223)" stroke="rgb(213,218,223)" stroke-width="1" opacity="1" d="M 299.5 451 L 297.5 454 L 299.5 451 Z " /><path fill="rgb(213,218,223)" stroke="rgb(213,218,223)" stroke-width="1" opacity="1" d="M 296.5 455 L 294.5 458 L 296.5 455 Z " /><path fill="rgb(233,233,233)" stroke="rgb(233,233,233)" stroke-width="1" opacity="1" d="M 277.5 111 L 276.5 113 L 277.5 111 Z " /><path fill="rgb(233,233,233)" stroke="rgb(233,233,233)" stroke-width="1" opacity="1" d="M 104.5 113 L 110.5 120 L 104.5 113 Z " /><path fill="rgb(233,233,233)" stroke="rgb(233,233,233)" stroke-width="1" opacity="1" d="M 268.5 120 L 267.5 122 L 268.5 120 Z " /><path fill="rgb(233,233,233)" stroke="rgb(233,233,233)" stroke-width="1" opacity="1" d="M 173.5 125 L 172.5 127 L 173.5 125 Z " /><path fill="rgb(233,233,233)" stroke="rgb(233,233,233)" stroke-width="1" opacity="1" d="M 170.5 128 L 169.5 130 L 170.5 128 Z " /><path fill="rgb(233,233,233)" stroke="rgb(233,233,233)" stroke-width="1" opacity="1" d="M 192.5 144 L 193 146.5 L 192 146.5 L 192.5 144 Z " /><path fill="rgb(233,233,233)" stroke="rgb(233,233,233)" stroke-width="1" opacity="1" d="M 194.5 151 L 195.5 153 L 194.5 151 Z " /><path fill="rgb(233,233,233)" stroke="rgb(233,233,233)" stroke-width="1" opacity="1" d="M 281.5 166 L 280.5 168 L 281.5 166 Z " /><path fill="rgb(233,233,233)" stroke="rgb(233,233,233)" stroke-width="1" opacity="1" d="M 100.5 168 L 101.5 170 L 100.5 168 Z " /><path fill="rgb(233,233,233)" stroke="rgb(233,233,233)" stroke-width="1" opacity="1" d="M 108.5 176 L 109.5 178 L 108.5 176 Z " /><path fill="rgb(233,233,233)" stroke="rgb(233,233,233)" stroke-width="1" opacity="1" d="M 70.5 284 L 71 286.5 L 70 286.5 L 70.5 284 Z " /><path fill="rgb(233,233,233)" stroke="rgb(233,233,233)" stroke-width="1" opacity="1" d="M 292.5 285 L 293.5 287 L 292.5 285 Z " /><path fill="rgb(233,233,233)" stroke="rgb(233,233,233)" stroke-width="1" opacity="1" d="M 310.5 288 L 311 292.5 L 310 292.5 L 310.5 288 Z " /><path fill="rgb(233,233,233)" stroke="rgb(233,233,233)" stroke-width="1" opacity="1" d="M 69.5 289 L 70 294.5 L 69 294.5 L 69.5 289 Z " /><path fill="rgb(233,233,233)" stroke="rgb(233,233,233)" stroke-width="1" opacity="1" d="M 311.5 295 L 312 300.5 L 311 300.5 L 311.5 295 Z " /><path fill="rgb(233,233,233)" stroke="rgb(233,233,233)" stroke-width="1" opacity="1" d="M 68.5 297 L 69 303.5 L 68 303.5 L 68.5 297 Z " /><path fill="rgb(233,233,233)" stroke="rgb(233,233,233)" stroke-width="1" opacity="1" d="M 312.5 305 L 313 312.5 L 312 312.5 L 312.5 305 Z " /><path fill="rgb(233,233,233)" stroke="rgb(233,233,233)" stroke-width="1" opacity="1" d="M 67.5 307 L 68 317.5 L 67 317.5 L 67.5 307 Z " /><path fill="rgb(233,233,233)" stroke="rgb(233,233,233)" stroke-width="1" opacity="1" d="M 142.5 316 L 143.5 318 L 142.5 316 Z " /><path fill="rgb(233,233,233)" stroke="rgb(233,233,233)" stroke-width="1" opacity="1" d="M 410.5 316 L 419 325.5 L 415 322.5 L 410.5 316 Z " /><path fill="rgb(233,233,233)" stroke="rgb(233,233,233)" stroke-width="1" opacity="1" d="M 313.5 318 L 314 351.5 L 313 351.5 L 313.5 318 Z " /><path fill="rgb(233,233,233)" stroke="rgb(233,233,233)" stroke-width="1" opacity="1" d="M 399.5 318 L 398.5 320 L 399.5 318 Z " /><path fill="rgb(233,233,233)" stroke="rgb(233,233,233)" stroke-width="1" opacity="1" d="M 66.5 323 L 67 347.5 L 66 347.5 L 66.5 323 Z " /><path fill="rgb(233,233,233)" stroke="rgb(233,233,233)" stroke-width="1" opacity="1" d="M 148.5 324 L 149.5 326 L 148.5 324 Z " /><path fill="rgb(233,233,233)" stroke="rgb(233,233,233)" stroke-width="1" opacity="1" d="M 208.5 326 L 211.5 330 L 208.5 326 Z " /><path fill="rgb(233,233,233)" stroke="rgb(233,233,233)" stroke-width="1" opacity="1" d="M 175.5 327 L 173.5 330 L 175.5 327 Z " /><path fill="rgb(233,233,233)" stroke="rgb(233,233,233)" stroke-width="1" opacity="1" d="M 419.5 327 L 420.5 329 L 419.5 327 Z " /><path fill="rgb(233,233,233)" stroke="rgb(233,233,233)" stroke-width="1" opacity="1" d="M 421.5 330 L 428 343.5 L 427 343.5 L 421.5 330 Z " /><path fill="rgb(233,233,233)" stroke="rgb(233,233,233)" stroke-width="1" opacity="1" d="M 429.5 348 L 430 350.5 L 429 350.5 L 429.5 348 Z " /><path fill="rgb(233,233,233)" stroke="rgb(233,233,233)" stroke-width="1" opacity="1" d="M 398.5 350 L 401 350.5 L 398.5 351 L 398.5 350 Z " /><path fill="rgb(233,233,233)" stroke="rgb(233,233,233)" stroke-width="1" opacity="1" d="M 67.5 352 L 68 360.5 L 67 360.5 L 67.5 352 Z " /><path fill="rgb(233,233,233)" stroke="rgb(233,233,233)" stroke-width="1" opacity="1" d="M 430.5 352 L 432 361.5 L 431 361.5 L 430.5 352 Z " /><path fill="rgb(233,233,233)" stroke="rgb(233,233,233)" stroke-width="1" opacity="1" d="M 312.5 356 L 313 363.5 L 312 363.5 L 312.5 356 Z " /><path fill="rgb(233,233,233)" stroke="rgb(233,233,233)" stroke-width="1" opacity="1" d="M 68.5 363 L 69 369.5 L 68 369.5 L 68.5 363 Z " /><path fill="rgb(233,233,233)" stroke="rgb(233,233,233)" stroke-width="1" opacity="1" d="M 311.5 366 L 312 371.5 L 311 371.5 L 311.5 366 Z " /><path fill="rgb(233,233,233)" stroke="rgb(233,233,233)" stroke-width="1" opacity="1" d="M 69.5 372 L 71 381.5 L 70 381.5 L 69.5 372 Z " /><path fill="rgb(233,233,233)" stroke="rgb(233,233,233)" stroke-width="1" opacity="1" d="M 310.5 374 L 311 377.5 L 310 377.5 L 310.5 374 Z " /><path fill="rgb(233,233,233)" stroke="rgb(233,233,233)" stroke-width="1" opacity="1" d="M 418.5 378 L 419.5 380 L 418.5 378 Z " /><path fill="rgb(233,233,233)" stroke="rgb(233,233,233)" stroke-width="1" opacity="1" d="M 309.5 379 L 310 382.5 L 309 382.5 L 309.5 379 Z " /><path fill="rgb(233,233,233)" stroke="rgb(233,233,233)" stroke-width="1" opacity="1" d="M 421.5 380 L 424.5 384 L 421.5 380 Z " /><path fill="rgb(233,233,233)" stroke="rgb(233,233,233)" stroke-width="1" opacity="1" d="M 71.5 383 L 72 386.5 L 71 386.5 L 71.5 383 Z " /><path fill="rgb(233,233,233)" stroke="rgb(233,233,233)" stroke-width="1" opacity="1" d="M 308.5 384 L 309 387.5 L 307.5 392 L 307 388.5 L 308.5 384 Z " /><path fill="rgb(233,233,233)" stroke="rgb(233,233,233)" stroke-width="1" opacity="1" d="M 426.5 385 L 429.5 389 L 426.5 385 Z " /><path fill="rgb(233,233,233)" stroke="rgb(233,233,233)" stroke-width="1" opacity="1" d="M 72.5 388 L 73 390.5 L 72 390.5 L 72.5 388 Z " /><path fill="rgb(233,233,233)" stroke="rgb(233,233,233)" stroke-width="1" opacity="1" d="M 74.5 395 L 77 403.5 L 76 403.5 L 74.5 395 Z " /><path fill="rgb(233,233,233)" stroke="rgb(233,233,233)" stroke-width="1" opacity="1" d="M 305.5 396 L 306 398.5 L 302.5 407 L 302 405.5 L 305.5 396 Z " /><path fill="rgb(233,233,233)" stroke="rgb(233,233,233)" stroke-width="1" opacity="1" d="M 426.5 400 L 427 401.5 L 424.5 406 L 424 404.5 L 426.5 400 Z " /><path fill="rgb(233,233,233)" stroke="rgb(233,233,233)" stroke-width="1" opacity="1" d="M 388.5 401 L 393.5 407 L 388.5 401 Z " /><path fill="rgb(233,233,233)" stroke="rgb(233,233,233)" stroke-width="1" opacity="1" d="M 77.5 405 L 79 408.5 L 78 408.5 L 77.5 405 Z " /><path fill="rgb(233,233,233)" stroke="rgb(233,233,233)" stroke-width="1" opacity="1" d="M 423.5 407 L 423 408.5 L 420.5 413 L 421 411.5 L 423.5 407 Z " /><path fill="rgb(233,233,233)" stroke="rgb(233,233,233)" stroke-width="1" opacity="1" d="M 301.5 408 L 302 409.5 L 300.5 412 L 300 410.5 L 301.5 408 Z " /><path fill="rgb(233,233,233)" stroke="rgb(233,233,233)" stroke-width="1" opacity="1" d="M 394.5 408 L 396.5 411 L 394.5 408 Z " /><path fill="rgb(233,233,233)" stroke="rgb(233,233,233)" stroke-width="1" opacity="1" d="M 79.5 410 L 82 415.5 L 81 415.5 L 79.5 410 Z " /><path fill="rgb(233,233,233)" stroke="rgb(233,233,233)" stroke-width="1" opacity="1" d="M 299.5 413 L 300 414.5 L 295.5 422 L 296 420.5 L 299.5 413 Z " /><path fill="rgb(233,233,233)" stroke="rgb(233,233,233)" stroke-width="1" opacity="1" d="M 398.5 414 L 399.5 416 L 398.5 414 Z " /><path fill="rgb(233,233,233)" stroke="rgb(233,233,233)" stroke-width="1" opacity="1" d="M 419.5 414 L 418.5 416 L 419.5 414 Z " /><path fill="rgb(233,233,233)" stroke="rgb(233,233,233)" stroke-width="1" opacity="1" d="M 417.5 417 L 416 419.5 L 406.5 431 Q 404.3 431.8 405 429.5 L 406.5 430 L 412 424.5 L 417.5 417 Z " /><path fill="rgb(233,233,233)" stroke="rgb(233,233,233)" stroke-width="1" opacity="1" d="M 376.5 418 L 378.5 421 L 376.5 418 Z " /><path fill="rgb(233,233,233)" stroke="rgb(233,233,233)" stroke-width="1" opacity="1" d="M 83.5 419 Q 91.5 435.5 105 446.5 L 93 435.5 Q 86.1 428.1 83.5 419 Z " /><path fill="rgb(233,233,233)" stroke="rgb(233,233,233)" stroke-width="1" opacity="1" d="M 379.5 422 L 380.5 424 L 379.5 422 Z " /><path fill="rgb(233,233,233)" stroke="rgb(233,233,233)" stroke-width="1" opacity="1" d="M 293.5 425 L 293 426.5 Q 287.2 437.2 278.5 445 L 270.5 450 L 271.5 448 L 282 440.5 L 293.5 425 Z " /><path fill="rgb(233,233,233)" stroke="rgb(233,233,233)" stroke-width="1" opacity="1" d="M 349.5 434 L 350 438.5 L 349 438.5 L 349.5 434 Z " /><path fill="rgb(233,233,233)" stroke="rgb(233,233,233)" stroke-width="1" opacity="1" d="M 329.5 439 L 330 444.5 L 329 444.5 L 329.5 439 Z " /><path fill="rgb(233,233,233)" stroke="rgb(233,233,233)" stroke-width="1" opacity="1" d="M 387.5 441 L 388 443.5 L 387 443.5 L 387.5 441 Z " /><path fill="rgb(233,233,233)" stroke="rgb(233,233,233)" stroke-width="1" opacity="1" d="M 349.5 446 L 350 449.5 L 349 449.5 L 349.5 446 Z " /><path fill="rgb(233,233,233)" stroke="rgb(233,233,233)" stroke-width="1" opacity="1" d="M 386.5 446 L 388 446.5 L 378.5 452 L 379.5 450 L 386.5 446 Z " /><path fill="rgb(233,233,233)" stroke="rgb(233,233,233)" stroke-width="1" opacity="1" d="M 106.5 447 L 116 451.5 L 113.5 452 L 107.5 449 L 106.5 447 Z " /><path fill="rgb(233,233,233)" stroke="rgb(233,233,233)" stroke-width="1" opacity="1" d="M 328.5 450 L 329 452.5 L 328 452.5 L 328.5 450 Z " /><path fill="rgb(233,233,233)" stroke="rgb(233,233,233)" stroke-width="1" opacity="1" d="M 117.5 452 L 120 452.5 L 117.5 453 L 117.5 452 Z " /><path fill="rgb(233,233,233)" stroke="rgb(233,233,233)" stroke-width="1" opacity="1" d="M 260.5 452 L 264 452.5 L 260.5 453 L 260.5 452 Z " /><path fill="rgb(233,233,233)" stroke="rgb(233,233,233)" stroke-width="1" opacity="1" d="M 375.5 452 L 377 452.5 L 369.5 456 L 369.5 455 L 375.5 452 Z " /><path fill="rgb(233,233,233)" stroke="rgb(233,233,233)" stroke-width="1" opacity="1" d="M 123.5 453 L 258 453.5 L 123.5 454 L 123.5 453 Z " /><path fill="rgb(233,233,233)" stroke="rgb(233,233,233)" stroke-width="1" opacity="1" d="M 366.5 456 L 368 456.5 L 364.5 458 L 364.5 457 L 366.5 456 Z " /><path fill="rgb(233,233,233)" stroke="rgb(233,233,233)" stroke-width="1" opacity="1" d="M 293.5 459 L 292.5 461 L 293.5 459 Z " /><path fill="rgb(233,233,233)" stroke="rgb(233,233,233)" stroke-width="1" opacity="1" d="M 354.5 460 L 357 460.5 L 354.5 461 L 354.5 460 Z " /><path fill="rgb(233,233,233)" stroke="rgb(233,233,233)" stroke-width="1" opacity="1" d="M 350.5 461 L 353 461.5 L 350.5 462 L 350.5 461 Z " /><path fill="rgb(233,233,233)" stroke="rgb(233,233,233)" stroke-width="1" opacity="1" d="M 291.5 464 L 298 464.5 L 291.5 465 L 291.5 464 Z " /><path fill="rgb(233,233,233)" stroke="rgb(233,233,233)" stroke-width="1" opacity="1" d="M 301.5 465 L 324 465.5 L 301.5 466 L 301.5 465 Z " /><path fill="rgb(234,234,234)" stroke="rgb(234,234,234)" stroke-width="1" opacity="1" d="M 89.5 13 L 92.5 13 L 120.5 36 Q 121.9 38.6 126.5 38 L 139.5 33 L 163.5 28 Q 169.8 29.7 171.5 27 L 208.5 27 L 209.5 28 L 217.5 28 L 233.5 31 L 256.5 38 L 287.5 13 L 290.5 13 L 292 14.5 L 292 58 L 277.5 55 L 252.5 55 L 230.5 59 L 199.5 70 L 180.5 70 L 150.5 59 L 136.5 56 Q 130.2 57.8 128.5 55 L 104.5 55 L 88 58 L 88 14.5 L 89.5 13 Z " /><path fill="rgb(234,234,234)" stroke="rgb(234,234,234)" stroke-width="1" opacity="1" d="M 85.5 85 Q 94.8 105.7 110.5 120 Q 119.9 129.1 133.5 134 L 141.5 136 L 157.5 136 Q 167.9 132.9 174 125.5 L 182 109.5 L 186 86 L 192.5 85 L 195 87.5 L 196 100.5 L 200 114.5 Q 204.5 125.5 213.5 132 Q 221.9 138.1 238.5 136 Q 264.4 129.9 278 111.5 Q 288 100.3 294 86 Q 298 84.6 296 91.5 L 298 100.5 L 298 108.5 L 299 109.5 L 299 123.5 L 295 142.5 L 288 157.5 Q 280.8 169.3 270.5 178 L 261 184.5 Q 260.3 188.3 262.5 189 L 269.5 185 L 276 194.5 L 291 225.5 L 308 275.5 L 310 285.5 L 310 292.5 L 311 293.5 L 311 300.5 L 312 301.5 L 312 312.5 L 313 313.5 L 313 355.5 L 312 356.5 L 312 365.5 L 311 366.5 L 311 373.5 L 309 383.5 L 302 407.5 Q 293.9 429.4 278.5 444 L 267.5 451 L 259.5 453 L 120.5 453 Q 102.5 449 94 435.5 L 82 416.5 L 72 387.5 Q 72 378 69 371.5 L 68 352.5 L 67 351.5 L 67 318.5 L 68 317.5 L 68 304.5 L 69 303.5 L 70 287.5 L 75 265.5 L 91 221.5 L 110.5 185 Q 112.8 189.1 119 188 Q 120 184.2 117.5 183 L 102 170.5 Q 92 159.5 86 144.5 L 82 129.5 L 81 113.5 L 82 112.5 L 82 102.5 L 83 101.5 L 84 87.5 L 85.5 85 Z M 186 123 L 183 124 L 179 130 L 182 140 L 188 144 L 186 152 Q 182 155 172 154 Q 171 158 174 159 Q 186 161 190 155 Q 194 161 207 159 Q 209 158 208 154 Q 197 156 193 150 L 193 145 Q 199 141 201 134 L 200 127 Q 196 121 186 123 Z M 121 139 L 121 143 L 123 144 Q 136 146 147 151 L 155 152 L 156 150 L 154 147 L 148 145 L 127 139 L 121 139 Z M 255 139 L 227 147 Q 224 148 225 152 L 234 151 L 258 144 L 259 143 Q 261 137 255 139 Z M 148 160 L 147 161 L 121 164 Q 120 168 123 169 L 154 165 L 156 162 Q 154 158 148 160 Z M 225 160 L 225 164 L 227 165 L 254 168 L 255 169 L 259 169 L 259 164 L 225 160 Z M 113 241 L 112 242 Q 109 241 110 246 L 151 275 L 164 283 L 182 291 L 185 297 L 182 309 L 174 322 L 166 329 L 157 325 L 148 315 L 141 308 L 123 297 Q 108 290 91 285 L 87 285 L 87 290 Q 118 297 140 314 L 148 325 Q 154 331 164 334 L 167 334 L 174 330 Q 186 319 190 300 Q 191 293 188 291 L 179 283 L 166 278 L 153 270 L 123 247 L 113 241 Z M 269 245 L 227 274 L 202 286 L 195 295 L 195 301 L 199 313 L 208 327 L 219 334 Q 227 333 232 329 L 240 321 L 241 317 L 261 304 L 294 289 L 293 285 Q 262 294 241 311 L 235 319 Q 230 326 221 329 L 218 328 Q 205 318 200 300 L 201 294 L 207 289 Q 221 285 232 277 L 270 251 L 273 247 Q 272 244 269 245 Z " /><path fill="rgb(234,234,234)" stroke="rgb(234,234,234)" stroke-width="1" opacity="1" d="M 403.5 316 L 409.5 316 L 415 321.5 L 426 339.5 L 429 347.5 L 432 362.5 L 429.5 361 Q 416.8 352 398 350 L 395 334.5 L 395 326.5 Q 396.5 320 401.5 317 L 403.5 316 Z " /><path fill="rgb(234,234,234)" stroke="rgb(234,234,234)" stroke-width="1" opacity="1" d="M 398 371 L 407.5 373 L 426 384 L 430 390.5 Q 422.9 414.9 406.5 430 L 397 410.5 L 388 400.5 L 395 386.5 L 398 371 Z " /><path fill="rgb(234,234,234)" stroke="rgb(234,234,234)" stroke-width="1" opacity="1" d="M 375.5 417 L 385 432.5 L 388 446 L 363.5 458 L 347 462 L 350 449.5 L 350 434.5 Q 347.8 433.3 350.5 432 Q 366.5 428 375.5 417 Z " /><path fill="rgb(234,234,234)" stroke="rgb(234,234,234)" stroke-width="1" opacity="1" d="M 309 434 L 320.5 436 L 329 436 L 329 449.5 L 324 465 L 298.5 465 L 290 463.5 Q 303 451.5 309 434 Z " /></svg>