<svg width="512" height="512" version="1.1" xmlns="http://www.w3.org/2000/svg" desc="Created with imagetracer.js version 1.2.6" ><path fill="rgb(88,89,90)" stroke="rgb(88,89,90)" stroke-width="1" opacity="0.11764705882352941" d="M 105.5 10 L 106.5 12 L 105.5 10 Z " /><path fill="rgb(88,89,90)" stroke="rgb(88,89,90)" stroke-width="1" opacity="0.11764705882352941" d="M 290.5 10 L 288.5 13 L 290.5 10 Z " /><path fill="rgb(88,89,90)" stroke="rgb(88,89,90)" stroke-width="1" opacity="0.11764705882352941" d="M 96.5 11 L 95.5 13 L 96.5 11 Z " /><path fill="rgb(88,89,90)" stroke="rgb(88,89,90)" stroke-width="1" opacity="0.11764705882352941" d="M 299.5 11 L 300.5 13 L 299.5 11 Z " /><path fill="rgb(88,89,90)" stroke="rgb(88,89,90)" stroke-width="1" opacity="0.11764705882352941" d="M 109.5 13 L 111.5 16 L 109.5 13 Z " /><path fill="rgb(88,89,90)" stroke="rgb(88,89,90)" stroke-width="1" opacity="0.11764705882352941" d="M 286.5 13 L 284.5 16 L 286.5 13 Z " /><path fill="rgb(88,89,90)" stroke="rgb(88,89,90)" stroke-width="1" opacity="0.11764705882352941" d="M 114.5 17 L 116.5 20 L 114.5 17 Z " /><path fill="rgb(88,89,90)" stroke="rgb(88,89,90)" stroke-width="1" opacity="0.11764705882352941" d="M 281.5 17 L 278.5 21 L 281.5 17 Z " /><path fill="rgb(88,89,90)" stroke="rgb(88,89,90)" stroke-width="1" opacity="0.11764705882352941" d="M 119.5 21 L 121.5 24 L 119.5 21 Z " /><path fill="rgb(88,89,90)" stroke="rgb(88,89,90)" stroke-width="1" opacity="0.11764705882352941" d="M 275.5 22 L 273.5 25 L 275.5 22 Z " /><path fill="rgb(88,89,90)" stroke="rgb(88,89,90)" stroke-width="1" opacity="0.11764705882352941" d="M 188.5 23 L 208 23.5 L 188.5 24 L 188.5 23 Z " /><path fill="rgb(88,89,90)" stroke="rgb(88,89,90)" stroke-width="1" opacity="0.11764705882352941" d="M 174.5 24 L 178 24.5 L 174.5 25 L 174.5 24 Z " /><path fill="rgb(88,89,90)" stroke="rgb(88,89,90)" stroke-width="1" opacity="0.11764705882352941" d="M 218.5 24 L 222 24.5 L 218.5 25 L 218.5 24 Z " /><path fill="rgb(88,89,90)" stroke="rgb(88,89,90)" stroke-width="1" opacity="0.11764705882352941" d="M 124.5 25 L 127.5 29 L 124.5 25 Z " /><path fill="rgb(88,89,90)" stroke="rgb(88,89,90)" stroke-width="1" opacity="0.11764705882352941" d="M 271.5 25 L 268.5 29 L 271.5 25 Z " /><path fill="rgb(88,89,90)" stroke="rgb(88,89,90)" stroke-width="1" opacity="0.11764705882352941" d="M 129.5 29 L 131.5 32 L 129.5 29 Z " /><path fill="rgb(88,89,90)" stroke="rgb(88,89,90)" stroke-width="1" opacity="0.11764705882352941" d="M 265.5 30 L 263.5 33 L 265.5 30 Z " /><path fill="rgb(88,89,90)" stroke="rgb(88,89,90)" stroke-width="1" opacity="0.11764705882352941" d="M 88.5 102 L 89 104.5 L 88 104.5 L 88.5 102 Z " /><path fill="rgb(88,89,90)" stroke="rgb(88,89,90)" stroke-width="1" opacity="0.11764705882352941" d="M 307.5 102 L 308 104.5 L 307 104.5 L 307.5 102 Z " /><path fill="rgb(88,89,90)" stroke="rgb(88,89,90)" stroke-width="1" opacity="0.11764705882352941" d="M 296.5 158 L 295.5 160 L 296.5 158 Z " /><path fill="rgb(88,89,90)" stroke="rgb(88,89,90)" stroke-width="1" opacity="0.11764705882352941" d="M 101.5 161 L 102.5 163 L 101.5 161 Z " /><path fill="rgb(88,89,90)" stroke="rgb(88,89,90)" stroke-width="1" opacity="0.11764705882352941" d="M 294.5 161 L 293.5 163 L 294.5 161 Z " /><path fill="rgb(88,89,90)" stroke="rgb(88,89,90)" stroke-width="1" opacity="0.11764705882352941" d="M 292.5 164 L 290.5 167 L 292.5 164 Z " /><path fill="rgb(88,89,90)" stroke="rgb(88,89,90)" stroke-width="1" opacity="0.11764705882352941" d="M 104.5 165 L 105.5 167 L 104.5 165 Z " /><path fill="rgb(88,89,90)" stroke="rgb(88,89,90)" stroke-width="1" opacity="0.11764705882352941" d="M 288.5 169 L 279.5 179 L 288.5 169 Z " /><path fill="rgb(88,89,90)" stroke="rgb(88,89,90)" stroke-width="1" opacity="0.11764705882352941" d="M 108.5 170 L 116.5 179 L 108.5 170 Z " /><path fill="rgb(88,89,90)" stroke="rgb(88,89,90)" stroke-width="1" opacity="0.11764705882352941" d="M 114.5 182 L 113.5 184 L 114.5 182 Z " /><path fill="rgb(88,89,90)" stroke="rgb(88,89,90)" stroke-width="1" opacity="0.11764705882352941" d="M 281.5 182 L 282.5 184 L 281.5 182 Z " /><path fill="rgb(88,89,90)" stroke="rgb(88,89,90)" stroke-width="1" opacity="0.11764705882352941" d="M 109.5 191 L 108.5 193 L 109.5 191 Z " /><path fill="rgb(88,89,90)" stroke="rgb(88,89,90)" stroke-width="1" opacity="0.11764705882352941" d="M 286.5 191 L 287.5 193 L 286.5 191 Z " /><path fill="rgb(88,89,90)" stroke="rgb(88,89,90)" stroke-width="1" opacity="0.11764705882352941" d="M 408.5 303 L 411 303.5 L 408.5 304 L 408.5 303 Z " /><path fill="rgb(88,89,90)" stroke="rgb(88,89,90)" stroke-width="1" opacity="0.11764705882352941" d="M 71.5 309 L 72 311.5 L 71 311.5 L 71.5 309 Z " /><path fill="rgb(88,89,90)" stroke="rgb(88,89,90)" stroke-width="1" opacity="0.11764705882352941" d="M 324.5 309 L 325 311.5 L 324 311.5 L 324.5 309 Z " /><path fill="rgb(88,89,90)" stroke="rgb(88,89,90)" stroke-width="1" opacity="0.11764705882352941" d="M 395.5 310 L 394.5 312 L 395.5 310 Z " /><path fill="rgb(88,89,90)" stroke="rgb(88,89,90)" stroke-width="1" opacity="0.11764705882352941" d="M 429.5 311 L 438.5 321 L 429.5 311 Z " /><path fill="rgb(88,89,90)" stroke="rgb(88,89,90)" stroke-width="1" opacity="0.11764705882352941" d="M 392.5 317 L 393 319.5 L 392 319.5 L 392.5 317 Z " /><path fill="rgb(88,89,90)" stroke="rgb(88,89,90)" stroke-width="1" opacity="0.11764705882352941" d="M 70.5 318 L 71 321.5 L 70 321.5 L 70.5 318 Z " /><path fill="rgb(88,89,90)" stroke="rgb(88,89,90)" stroke-width="1" opacity="0.11764705882352941" d="M 325.5 318 L 326 321.5 L 325 321.5 L 325.5 318 Z " /><path fill="rgb(88,89,90)" stroke="rgb(88,89,90)" stroke-width="1" opacity="0.11764705882352941" d="M 440.5 323 L 441.5 325 L 440.5 323 Z " /><path fill="rgb(88,89,90)" stroke="rgb(88,89,90)" stroke-width="1" opacity="0.11764705882352941" d="M 392.5 326 L 393 328.5 L 392 328.5 L 392.5 326 Z " /><path fill="rgb(88,89,90)" stroke="rgb(88,89,90)" stroke-width="1" opacity="0.11764705882352941" d="M 442.5 326 L 443.5 328 L 442.5 326 Z " /><path fill="rgb(88,89,90)" stroke="rgb(88,89,90)" stroke-width="1" opacity="0.11764705882352941" d="M 69.5 331 L 70 335.5 L 69 335.5 L 69.5 331 Z " /><path fill="rgb(88,89,90)" stroke="rgb(88,89,90)" stroke-width="1" opacity="0.11764705882352941" d="M 326.5 331 L 327 335.5 L 326 335.5 L 326.5 331 Z " /><path fill="rgb(88,89,90)" stroke="rgb(88,89,90)" stroke-width="1" opacity="0.11764705882352941" d="M 395.5 346 L 396 357.5 L 395 357.5 L 395.5 346 Z " /><path fill="rgb(88,89,90)" stroke="rgb(88,89,90)" stroke-width="1" opacity="0.11764705882352941" d="M 453.5 353 L 454 355.5 L 453 355.5 L 453.5 353 Z " /><path fill="rgb(88,89,90)" stroke="rgb(88,89,90)" stroke-width="1" opacity="0.11764705882352941" d="M 69.5 361 L 70 366.5 L 69 366.5 L 69.5 361 Z " /><path fill="rgb(88,89,90)" stroke="rgb(88,89,90)" stroke-width="1" opacity="0.11764705882352941" d="M 326.5 361 L 327 366.5 L 326 366.5 L 326.5 361 Z " /><path fill="rgb(88,89,90)" stroke="rgb(88,89,90)" stroke-width="1" opacity="0.11764705882352941" d="M 454.5 361 L 455 364.5 L 454 364.5 L 454.5 361 Z " /><path fill="rgb(88,89,90)" stroke="rgb(88,89,90)" stroke-width="1" opacity="0.11764705882352941" d="M 394.5 363 L 395 365.5 L 394 365.5 L 394.5 363 Z " /><path fill="rgb(88,89,90)" stroke="rgb(88,89,90)" stroke-width="1" opacity="0.11764705882352941" d="M 454.5 373 L 455 376.5 L 454 376.5 L 454.5 373 Z " /><path fill="rgb(88,89,90)" stroke="rgb(88,89,90)" stroke-width="1" opacity="0.11764705882352941" d="M 70.5 374 L 71 376.5 L 70 376.5 L 70.5 374 Z " /><path fill="rgb(88,89,90)" stroke="rgb(88,89,90)" stroke-width="1" opacity="0.11764705882352941" d="M 325.5 375 L 326 377.5 L 325 377.5 L 325.5 375 Z " /><path fill="rgb(88,89,90)" stroke="rgb(88,89,90)" stroke-width="1" opacity="0.11764705882352941" d="M 384.5 391 L 383.5 393 L 384.5 391 Z " /><path fill="rgb(88,89,90)" stroke="rgb(88,89,90)" stroke-width="1" opacity="0.11764705882352941" d="M 382.5 394 L 380.5 397 L 382.5 394 Z " /><path fill="rgb(88,89,90)" stroke="rgb(88,89,90)" stroke-width="1" opacity="0.11764705882352941" d="M 378.5 399 L 371.5 407 L 378.5 399 Z " /><path fill="rgb(88,89,90)" stroke="rgb(88,89,90)" stroke-width="1" opacity="0.11764705882352941" d="M 368.5 408 L 367.5 410 L 368.5 408 Z " /><path fill="rgb(88,89,90)" stroke="rgb(88,89,90)" stroke-width="1" opacity="0.11764705882352941" d="M 444.5 408 L 443.5 410 L 444.5 408 Z " /><path fill="rgb(88,89,90)" stroke="rgb(88,89,90)" stroke-width="1" opacity="0.11764705882352941" d="M 365.5 410 L 364.5 412 L 365.5 410 Z " /><path fill="rgb(88,89,90)" stroke="rgb(88,89,90)" stroke-width="1" opacity="0.11764705882352941" d="M 441.5 413 L 440.5 415 L 441.5 413 Z " /><path fill="rgb(88,89,90)" stroke="rgb(88,89,90)" stroke-width="1" opacity="0.11764705882352941" d="M 439.5 416 L 438.5 418 L 439.5 416 Z " /><path fill="rgb(88,89,90)" stroke="rgb(88,89,90)" stroke-width="1" opacity="0.11764705882352941" d="M 327.5 420 L 335 420.5 L 327.5 421 L 327.5 420 Z " /><path fill="rgb(88,89,90)" stroke="rgb(88,89,90)" stroke-width="1" opacity="0.11764705882352941" d="M 436.5 420 L 434.5 423 L 436.5 420 Z " /><path fill="rgb(88,89,90)" stroke="rgb(88,89,90)" stroke-width="1" opacity="0.11764705882352941" d="M 432.5 425 L 423.5 435 L 432.5 425 Z " /><path fill="rgb(88,89,90)" stroke="rgb(88,89,90)" stroke-width="1" opacity="0.11764705882352941" d="M 79.5 431 L 78.5 433 L 79.5 431 Z " /><path fill="rgb(88,89,90)" stroke="rgb(88,89,90)" stroke-width="1" opacity="0.11764705882352941" d="M 74.5 434 L 73.5 436 L 74.5 434 Z " /><path fill="rgb(88,89,90)" stroke="rgb(88,89,90)" stroke-width="1" opacity="0.11764705882352941" d="M 88.5 435 L 89.5 437 L 88.5 435 Z " /><path fill="rgb(88,89,90)" stroke="rgb(88,89,90)" stroke-width="1" opacity="0.11764705882352941" d="M 71.5 436 L 64.5 444 L 71.5 436 Z " /><path fill="rgb(88,89,90)" stroke="rgb(88,89,90)" stroke-width="1" opacity="0.11764705882352941" d="M 78.5 437 L 77.5 439 L 78.5 437 Z " /><path fill="rgb(88,89,90)" stroke="rgb(88,89,90)" stroke-width="1" opacity="0.11764705882352941" d="M 419.5 437 L 418.5 439 L 419.5 437 Z " /><path fill="rgb(88,89,90)" stroke="rgb(88,89,90)" stroke-width="1" opacity="0.11764705882352941" d="M 90.5 438 L 91.5 440 L 90.5 438 Z " /><path fill="rgb(88,89,90)" stroke="rgb(88,89,90)" stroke-width="1" opacity="0.11764705882352941" d="M 75.5 439 L 73.5 442 L 75.5 439 Z " /><path fill="rgb(88,89,90)" stroke="rgb(88,89,90)" stroke-width="1" opacity="0.11764705882352941" d="M 415.5 440 L 414.5 442 L 415.5 440 Z " /><path fill="rgb(88,89,90)" stroke="rgb(88,89,90)" stroke-width="1" opacity="0.11764705882352941" d="M 92.5 441 L 93.5 443 L 92.5 441 Z " /><path fill="rgb(88,89,90)" stroke="rgb(88,89,90)" stroke-width="1" opacity="0.11764705882352941" d="M 412.5 442 L 411.5 444 L 412.5 442 Z " /><path fill="rgb(88,89,90)" stroke="rgb(88,89,90)" stroke-width="1" opacity="0.11764705882352941" d="M 409.5 444 L 408.5 446 L 409.5 444 Z " /><path fill="rgb(88,89,90)" stroke="rgb(88,89,90)" stroke-width="1" opacity="0.11764705882352941" d="M 95.5 445 L 97.5 448 L 95.5 445 Z " /><path fill="rgb(88,89,90)" stroke="rgb(88,89,90)" stroke-width="1" opacity="0.11764705882352941" d="M 68.5 446 L 67.5 448 L 68.5 446 Z " /><path fill="rgb(88,89,90)" stroke="rgb(88,89,90)" stroke-width="1" opacity="0.11764705882352941" d="M 404.5 447 L 403.5 449 L 404.5 447 Z " /><path fill="rgb(88,89,90)" stroke="rgb(88,89,90)" stroke-width="1" opacity="0.11764705882352941" d="M 66.5 449 L 65.5 451 L 66.5 449 Z " /><path fill="rgb(88,89,90)" stroke="rgb(88,89,90)" stroke-width="1" opacity="0.11764705882352941" d="M 106.5 456 L 108.5 459 L 106.5 456 Z " /><path fill="rgb(88,89,90)" stroke="rgb(88,89,90)" stroke-width="1" opacity="0.11764705882352941" d="M 288.5 457 L 287.5 459 L 288.5 457 Z " /><path fill="rgb(88,89,90)" stroke="rgb(88,89,90)" stroke-width="1" opacity="0.11764705882352941" d="M 110.5 459 L 111.5 461 L 110.5 459 Z " /><path fill="rgb(88,89,90)" stroke="rgb(88,89,90)" stroke-width="1" opacity="0.11764705882352941" d="M 285.5 459 L 284.5 461 L 285.5 459 Z " /><path fill="rgb(88,89,90)" stroke="rgb(88,89,90)" stroke-width="1" opacity="0.11764705882352941" d="M 57.5 460 L 58 462.5 L 57 462.5 L 57.5 460 Z " /><path fill="rgb(88,89,90)" stroke="rgb(88,89,90)" stroke-width="1" opacity="0.11764705882352941" d="M 310.5 461 L 313 461.5 L 310.5 462 L 310.5 461 Z " /><path fill="rgb(88,89,90)" stroke="rgb(88,89,90)" stroke-width="1" opacity="0.11764705882352941" d="M 318.5 462 L 321 462.5 L 318.5 463 L 318.5 462 Z " /><path fill="rgb(88,89,90)" stroke="rgb(88,89,90)" stroke-width="1" opacity="0.11764705882352941" d="M 329.5 463 L 339 463.5 L 329.5 464 L 329.5 463 Z " /><path fill="rgb(88,89,90)" stroke="rgb(88,89,90)" stroke-width="1" opacity="0.11764705882352941" d="M 340.5 463 L 349 463.5 L 340.5 464 L 340.5 463 Z " /><path fill="rgb(88,89,90)" stroke="rgb(88,89,90)" stroke-width="1" opacity="0.11764705882352941" d="M 126.5 465 L 128 468.5 L 127 468.5 L 126.5 465 Z " /><path fill="rgb(88,89,90)" stroke="rgb(88,89,90)" stroke-width="1" opacity="0.11764705882352941" d="M 128.5 471 L 131.5 475 L 128.5 471 Z " /><path fill="rgb(88,89,90)" stroke="rgb(88,89,90)" stroke-width="1" opacity="0.11764705882352941" d="M 180.5 471 L 177.5 475 L 180.5 471 Z " /><path fill="rgb(88,89,90)" stroke="rgb(88,89,90)" stroke-width="1" opacity="0.11764705882352941" d="M 234.5 473 L 243 473.5 L 234.5 474 L 234.5 473 Z " /><path fill="rgb(88,89,90)" stroke="rgb(88,89,90)" stroke-width="1" opacity="0.11764705882352941" d="M 59.5 475 L 61 477.5 L 59 476.5 L 59.5 475 Z " /><path fill="rgb(88,89,90)" stroke="rgb(88,89,90)" stroke-width="1" opacity="0.11764705882352941" d="M 64.5 475 L 65.5 477 L 64.5 475 Z " /><path fill="rgb(88,89,90)" stroke="rgb(88,89,90)" stroke-width="1" opacity="0.11764705882352941" d="M 396.5 475 L 399 475.5 L 396.5 476 L 396.5 475 Z " /><path fill="rgb(88,89,90)" stroke="rgb(88,89,90)" stroke-width="1" opacity="0.11764705882352941" d="M 408.5 475 L 411 475.5 L 408.5 476 L 408.5 475 Z " /><path fill="rgb(88,89,90)" stroke="rgb(88,89,90)" stroke-width="1" opacity="0.11764705882352941" d="M 381.5 477 L 384 477.5 L 381.5 478 L 381.5 477 Z " /><path fill="rgb(88,89,90)" stroke="rgb(88,89,90)" stroke-width="1" opacity="0.11764705882352941" d="M 66.5 478 L 68.5 481 L 66.5 478 Z " /><path fill="rgb(88,89,90)" stroke="rgb(88,89,90)" stroke-width="1" opacity="0.11764705882352941" d="M 418.5 478 L 420.5 481 L 418.5 478 Z " /><path fill="rgb(88,89,90)" stroke="rgb(88,89,90)" stroke-width="1" opacity="0.11764705882352941" d="M 61.5 479 L 62.5 481 L 61.5 479 Z " /><path fill="rgb(88,89,90)" stroke="rgb(88,89,90)" stroke-width="1" opacity="0.11764705882352941" d="M 357.5 480 L 360 480.5 L 357.5 481 L 357.5 480 Z " /><path fill="rgb(88,89,90)" stroke="rgb(88,89,90)" stroke-width="1" opacity="0.11764705882352941" d="M 394.5 480 L 397 480.5 L 394.5 481 L 394.5 480 Z " /><path fill="rgb(88,89,90)" stroke="rgb(88,89,90)" stroke-width="1" opacity="0.11764705882352941" d="M 70.5 481 L 71.5 483 L 70.5 481 Z " /><path fill="rgb(88,89,90)" stroke="rgb(88,89,90)" stroke-width="1" opacity="0.11764705882352941" d="M 348.5 481 L 351 481.5 L 348.5 482 L 348.5 481 Z " /><path fill="rgb(88,89,90)" stroke="rgb(88,89,90)" stroke-width="1" opacity="0.11764705882352941" d="M 337.5 482 L 341 482.5 L 337.5 483 L 337.5 482 Z " /><path fill="rgb(88,89,90)" stroke="rgb(88,89,90)" stroke-width="1" opacity="0.11764705882352941" d="M 379.5 482 L 382 482.5 L 379.5 483 L 379.5 482 Z " /><path fill="rgb(88,89,90)" stroke="rgb(88,89,90)" stroke-width="1" opacity="0.11764705882352941" d="M 422.5 482 L 424.5 485 L 422.5 482 Z " /><path fill="rgb(88,89,90)" stroke="rgb(88,89,90)" stroke-width="1" opacity="0.11764705882352941" d="M 326.5 483 L 330 483.5 L 326.5 484 L 326.5 483 Z " /><path fill="rgb(88,89,90)" stroke="rgb(88,89,90)" stroke-width="1" opacity="0.11764705882352941" d="M 372.5 483 L 375 483.5 L 372.5 484 L 372.5 483 Z " /><path fill="rgb(88,89,90)" stroke="rgb(88,89,90)" stroke-width="1" opacity="0.11764705882352941" d="M 66.5 484 L 67.5 486 L 66.5 484 Z " /><path fill="rgb(88,89,90)" stroke="rgb(88,89,90)" stroke-width="1" opacity="0.11764705882352941" d="M 313.5 484 L 317 484.5 L 313.5 485 L 313.5 484 Z " /><path fill="rgb(88,89,90)" stroke="rgb(88,89,90)" stroke-width="1" opacity="0.11764705882352941" d="M 363.5 484 L 366 484.5 L 363.5 485 L 363.5 484 Z " /><path fill="rgb(88,89,90)" stroke="rgb(88,89,90)" stroke-width="1" opacity="0.11764705882352941" d="M 297.5 485 L 302 485.5 L 297.5 486 L 297.5 485 Z " /><path fill="rgb(88,89,90)" stroke="rgb(88,89,90)" stroke-width="1" opacity="0.11764705882352941" d="M 355.5 485 L 358 485.5 L 355.5 486 L 355.5 485 Z " /><path fill="rgb(88,89,90)" stroke="rgb(88,89,90)" stroke-width="1" opacity="0.11764705882352941" d="M 69.5 486 L 70.5 488 L 69.5 486 Z " /><path fill="rgb(88,89,90)" stroke="rgb(88,89,90)" stroke-width="1" opacity="0.11764705882352941" d="M 84.5 486 L 87 486.5 L 84.5 487 L 84.5 486 Z " /><path fill="rgb(88,89,90)" stroke="rgb(88,89,90)" stroke-width="1" opacity="0.11764705882352941" d="M 277.5 486 L 284 486.5 L 277.5 487 L 277.5 486 Z " /><path fill="rgb(88,89,90)" stroke="rgb(88,89,90)" stroke-width="1" opacity="0.11764705882352941" d="M 345.5 486 L 348 486.5 L 345.5 487 L 345.5 486 Z " /><path fill="rgb(88,89,90)" stroke="rgb(88,89,90)" stroke-width="1" opacity="0.11764705882352941" d="M 113.5 487 L 129 487.5 L 113.5 488 L 113.5 487 Z " /><path fill="rgb(88,89,90)" stroke="rgb(88,89,90)" stroke-width="1" opacity="0.11764705882352941" d="M 248.5 487 L 258 487.5 L 248.5 488 L 248.5 487 Z " /><path fill="rgb(88,89,90)" stroke="rgb(88,89,90)" stroke-width="1" opacity="0.11764705882352941" d="M 334.5 487 L 338 487.5 L 334.5 488 L 334.5 487 Z " /><path fill="rgb(88,89,90)" stroke="rgb(88,89,90)" stroke-width="1" opacity="0.11764705882352941" d="M 322.5 488 L 326 488.5 L 322.5 489 L 322.5 488 Z " /><path fill="rgb(88,89,90)" stroke="rgb(88,89,90)" stroke-width="1" opacity="0.11764705882352941" d="M 308.5 489 L 313 489.5 L 308.5 490 L 308.5 489 Z " /><path fill="rgb(88,89,90)" stroke="rgb(88,89,90)" stroke-width="1" opacity="0.11764705882352941" d="M 291.5 490 L 297 490.5 L 291.5 491 L 291.5 490 Z " /><path fill="rgb(88,89,90)" stroke="rgb(88,89,90)" stroke-width="1" opacity="0.11764705882352941" d="M 87.5 491 L 93 491.5 L 87.5 492 L 87.5 491 Z " /><path fill="rgb(88,89,90)" stroke="rgb(88,89,90)" stroke-width="1" opacity="0.11764705882352941" d="M 270.5 491 L 277 491.5 L 270.5 492 L 270.5 491 Z " /><path fill="rgb(88,89,90)" stroke="rgb(88,89,90)" stroke-width="1" opacity="0.11764705882352941" d="M 131.5 492 L 152 492.5 L 131.5 493 L 131.5 492 Z " /><path fill="rgb(88,89,90)" stroke="rgb(88,89,90)" stroke-width="1" opacity="0.11764705882352941" d="M 233.5 492 L 247 492.5 L 233.5 493 L 233.5 492 Z " /><path fill="rgb(0,0,0)" stroke="rgb(0,0,0)" stroke-width="1" opacity="0" d="M 0 0 L 512 0 L 512 512 L 0 512 L 0 0 Z M 99 10 L 97 11 L 94 15 L 94 70 L 92 76 L 90 94 L 89 95 L 89 102 L 88 103 L 88 128 L 93 147 Q 101 166 116 179 Q 95 214 82 257 L 74 291 L 72 309 L 71 310 L 71 318 L 70 319 L 70 331 L 69 332 L 69 367 L 70 368 L 71 385 L 76 408 L 85 429 L 72 436 Q 60 444 57 461 L 57 470 L 61 480 L 71 488 L 81 491 Q 86 490 88 492 L 131 492 L 132 493 L 247 493 L 248 492 L 277 492 L 278 491 L 297 491 L 298 490 L 313 490 L 314 489 L 338 488 L 339 487 L 375 484 L 398 480 Q 410 479 417 483 L 422 491 Q 424 497 420 499 L 420 502 L 425 502 L 427 498 Q 428 489 425 485 Q 420 477 411 475 L 397 475 L 374 479 L 349 481 L 348 482 L 338 482 L 337 483 L 327 483 L 326 484 L 298 485 L 297 486 L 278 486 L 277 487 L 249 487 L 248 488 L 130 488 L 129 487 L 88 487 L 75 484 L 70 481 Q 64 477 62 469 L 63 457 L 69 446 Q 76 437 88 434 L 95 446 L 112 461 L 122 465 L 126 465 L 128 472 L 136 477 L 144 479 L 166 479 L 178 475 L 184 466 L 206 466 L 221 472 L 234 473 L 235 474 L 243 474 L 260 471 L 273 465 L 281 463 L 290 457 L 311 462 L 329 463 L 330 464 L 359 463 L 379 459 Q 405 451 424 435 Q 436 424 445 409 L 453 389 L 454 378 L 455 377 L 455 362 L 452 346 Q 448 331 439 321 L 424 307 L 411 303 L 404 304 L 400 306 Q 393 309 392 318 L 392 329 L 395 341 L 395 363 Q 393 364 394 369 L 391 379 L 380 398 Q 367 415 342 420 L 323 420 L 316 418 L 323 396 L 325 379 L 326 378 L 326 368 L 327 367 L 327 332 L 326 331 L 326 319 L 325 318 L 325 310 L 324 309 L 322 291 L 316 264 Q 303 216 280 180 L 297 159 L 303 147 L 308 128 L 308 103 L 307 102 L 307 95 L 306 94 L 304 76 L 302 70 L 302 15 L 301 13 L 298 10 L 291 10 L 262 34 L 240 27 L 223 25 L 222 24 L 209 24 L 208 23 L 189 23 L 188 24 L 168 25 L 149 29 L 136 34 L 106 10 L 99 10 Z " /><path fill="rgb(224,224,223)" stroke="rgb(224,224,223)" stroke-width="1" opacity="1" d="M 264.5 37 L 263.5 39 L 264.5 37 Z " /><path fill="rgb(224,224,223)" stroke="rgb(224,224,223)" stroke-width="1" opacity="1" d="M 250.5 81 L 251.5 83 L 250.5 81 Z " /><path fill="rgb(224,224,223)" stroke="rgb(224,224,223)" stroke-width="1" opacity="1" d="M 239.5 85 L 240 87.5 L 239 87.5 L 239.5 85 Z " /><path fill="rgb(224,224,223)" stroke="rgb(224,224,223)" stroke-width="1" opacity="1" d="M 157.5 90 L 156.5 92 L 157.5 90 Z " /><path fill="rgb(224,224,223)" stroke="rgb(224,224,223)" stroke-width="1" opacity="1" d="M 92.5 112 L 93 119.5 L 92 119.5 L 92.5 112 Z " /><path fill="rgb(224,224,223)" stroke="rgb(224,224,223)" stroke-width="1" opacity="1" d="M 303.5 112 L 304 119.5 L 303 119.5 L 303.5 112 Z " /><path fill="rgb(224,224,223)" stroke="rgb(224,224,223)" stroke-width="1" opacity="1" d="M 195.5 126 L 196 133.5 L 195 133.5 L 195.5 126 Z " /><path fill="rgb(224,224,223)" stroke="rgb(224,224,223)" stroke-width="1" opacity="1" d="M 180.5 143 L 181.5 145 L 180.5 143 Z " /><path fill="rgb(224,224,223)" stroke="rgb(224,224,223)" stroke-width="1" opacity="1" d="M 215.5 143 L 214.5 145 L 215.5 143 Z " /><path fill="rgb(224,224,223)" stroke="rgb(224,224,223)" stroke-width="1" opacity="1" d="M 111.5 166 L 114.5 170 L 111.5 166 Z " /><path fill="rgb(224,224,223)" stroke="rgb(224,224,223)" stroke-width="1" opacity="1" d="M 284.5 166 L 281.5 170 L 284.5 166 Z " /><path fill="rgb(224,224,223)" stroke="rgb(224,224,223)" stroke-width="1" opacity="1" d="M 116.5 171 L 118.5 174 L 116.5 171 Z " /><path fill="rgb(224,224,223)" stroke="rgb(224,224,223)" stroke-width="1" opacity="1" d="M 279.5 171 L 277.5 174 L 279.5 171 Z " /><path fill="rgb(224,224,223)" stroke="rgb(224,224,223)" stroke-width="1" opacity="1" d="M 80.5 285 L 81 288.5 L 80 288.5 L 80.5 285 Z " /><path fill="rgb(224,224,223)" stroke="rgb(224,224,223)" stroke-width="1" opacity="1" d="M 315.5 285 L 316 288.5 L 315 288.5 L 315.5 285 Z " /><path fill="rgb(224,224,223)" stroke="rgb(224,224,223)" stroke-width="1" opacity="1" d="M 79.5 290 L 80 298.5 L 79 299.5 L 79 313.5 L 78 314.5 L 78 341.5 L 79 342.5 L 79 354.5 L 80 355.5 L 81 368.5 L 86 389.5 Q 92.3 409.3 103 424 L 90.5 427 L 86 419.5 L 80 402.5 L 75 378.5 L 75 370.5 L 74 369.5 L 74 326.5 L 75 325.5 L 76 308.5 L 79.5 290 Z " /><path fill="rgb(224,224,223)" stroke="rgb(224,224,223)" stroke-width="1" opacity="1" d="M 316.5 290 L 320 308.5 L 321 325.5 L 322 326.5 L 322 369.5 L 316 402.5 L 308.5 422 L 308 420.5 L 311 409.5 L 311 391.5 L 309 385.5 L 311 385.5 L 317 354.5 L 318 313.5 L 317 312.5 L 316.5 290 Z " /><path fill="rgb(224,224,223)" stroke="rgb(224,224,223)" stroke-width="1" opacity="1" d="M 412.5 309 L 420.5 311 L 435 323.5 Q 443.8 334.2 448 349.5 L 450 360.5 L 450 372.5 L 448 371.5 L 437.5 359 L 428 352.5 L 429.5 353 L 432.5 355 L 433 353.5 L 430 338.5 L 427 330.5 Q 420.6 317.8 412.5 309 Z " /><path fill="rgb(224,224,223)" stroke="rgb(224,224,223)" stroke-width="1" opacity="1" d="M 403.5 343 L 407 343.5 L 403.5 344 L 403.5 343 Z " /><path fill="rgb(224,224,223)" stroke="rgb(224,224,223)" stroke-width="1" opacity="1" d="M 408.5 344 L 411 344.5 L 408.5 345 L 408.5 344 Z " /><path fill="rgb(224,224,223)" stroke="rgb(224,224,223)" stroke-width="1" opacity="1" d="M 418.5 347 L 427 351.5 L 425.5 351 L 418.5 348 L 418.5 347 Z " /><path fill="rgb(224,224,223)" stroke="rgb(224,224,223)" stroke-width="1" opacity="1" d="M 181.5 354 L 180.5 356 L 181.5 354 Z " /><path fill="rgb(224,224,223)" stroke="rgb(224,224,223)" stroke-width="1" opacity="1" d="M 231.5 354 L 232.5 356 L 231.5 354 Z " /><path fill="rgb(224,224,223)" stroke="rgb(224,224,223)" stroke-width="1" opacity="1" d="M 402.5 362 L 405 362.5 L 402.5 363 L 402.5 362 Z " /><path fill="rgb(224,224,223)" stroke="rgb(224,224,223)" stroke-width="1" opacity="1" d="M 412.5 365 L 423 371.5 L 420.5 370 L 412.5 366 L 412.5 365 Z " /><path fill="rgb(224,224,223)" stroke="rgb(224,224,223)" stroke-width="1" opacity="1" d="M 424.5 372 L 430.5 379 L 424.5 372 Z " /><path fill="rgb(224,224,223)" stroke="rgb(224,224,223)" stroke-width="1" opacity="1" d="M 431.5 380 Q 440.5 388 442 403.5 Q 433.4 419.4 420.5 431 L 409.5 439 L 408 424.5 L 406 418.5 L 407 418.5 L 407.5 421 Q 424.1 405.1 431.5 380 Z " /><path fill="rgb(224,224,223)" stroke="rgb(224,224,223)" stroke-width="1" opacity="1" d="M 390.5 392 L 398 400.5 L 395 398.5 L 390.5 392 Z " /><path fill="rgb(224,224,223)" stroke="rgb(224,224,223)" stroke-width="1" opacity="1" d="M 398.5 402 L 399.5 404 L 398.5 402 Z " /><path fill="rgb(224,224,223)" stroke="rgb(224,224,223)" stroke-width="1" opacity="1" d="M 378.5 407 L 381.5 411 L 378.5 407 Z " /><path fill="rgb(224,224,223)" stroke="rgb(224,224,223)" stroke-width="1" opacity="1" d="M 401.5 407 L 404 411.5 L 403 411.5 L 401.5 407 Z " /><path fill="rgb(224,224,223)" stroke="rgb(224,224,223)" stroke-width="1" opacity="1" d="M 382.5 412 L 383.5 414 L 382.5 412 Z " /><path fill="rgb(224,224,223)" stroke="rgb(224,224,223)" stroke-width="1" opacity="1" d="M 352.5 424 L 353 437.5 L 352 437.5 L 352.5 424 Z " /><path fill="rgb(224,224,223)" stroke="rgb(224,224,223)" stroke-width="1" opacity="1" d="M 333.5 426 L 334 436.5 L 333 436.5 L 333.5 426 Z " /><path fill="rgb(224,224,223)" stroke="rgb(224,224,223)" stroke-width="1" opacity="1" d="M 106.5 428 Q 108.8 427.3 108 429.5 Q 116.2 440 132 442 L 128 451.5 L 126.5 461 Q 108.5 457 100 443.5 L 93 433.5 L 93 431 L 106.5 428 Z " /><path fill="rgb(224,224,223)" stroke="rgb(224,224,223)" stroke-width="1" opacity="1" d="M 389.5 428 L 390 430.5 L 389 430.5 L 389.5 428 Z " /><path fill="rgb(224,224,223)" stroke="rgb(224,224,223)" stroke-width="1" opacity="1" d="M 390.5 434 L 391 444.5 L 390 450 L 370.5 456 L 346.5 459 L 347 457.5 L 349.5 450 L 352.5 451 L 376.5 443 L 390.5 434 Z " /><path fill="rgb(224,224,223)" stroke="rgb(224,224,223)" stroke-width="1" opacity="1" d="M 332.5 439 L 333 442.5 L 332 442.5 L 332.5 439 Z " /><path fill="rgb(224,224,223)" stroke="rgb(224,224,223)" stroke-width="1" opacity="1" d="M 351.5 440 L 352 443.5 L 351 443.5 L 351.5 440 Z " /><path fill="rgb(224,224,223)" stroke="rgb(224,224,223)" stroke-width="1" opacity="1" d="M 182.5 448 L 196 460.5 L 183 461 Q 183.7 452 182.5 448 Z " /><path fill="rgb(224,224,223)" stroke="rgb(224,224,223)" stroke-width="1" opacity="1" d="M 296.5 453 L 328 454.5 L 325.5 458 L 317.5 458 L 316.5 457 L 305.5 456 L 296.5 454 L 296.5 453 Z " /><path fill="rgb(224,224,223)" stroke="rgb(224,224,223)" stroke-width="1" opacity="1" d="M 151.5 474 L 157 474.5 L 151.5 475 L 151.5 474 Z " /><path fill="rgb(87,88,91)" stroke="rgb(87,88,91)" stroke-width="1" opacity="0.5137254901960784" d="M 97.5 11 L 95.5 14 L 97.5 11 Z " /><path fill="rgb(87,88,91)" stroke="rgb(87,88,91)" stroke-width="1" opacity="0.5137254901960784" d="M 298.5 11 L 300.5 14 L 298.5 11 Z " /><path fill="rgb(87,88,91)" stroke="rgb(87,88,91)" stroke-width="1" opacity="0.5137254901960784" d="M 107.5 12 L 109.5 15 L 107.5 12 Z " /><path fill="rgb(87,88,91)" stroke="rgb(87,88,91)" stroke-width="1" opacity="0.5137254901960784" d="M 287.5 13 L 286.5 15 L 287.5 13 Z " /><path fill="rgb(87,88,91)" stroke="rgb(87,88,91)" stroke-width="1" opacity="0.5137254901960784" d="M 94.5 15 L 95 68.5 L 94 68.5 L 94.5 15 Z " /><path fill="rgb(87,88,91)" stroke="rgb(87,88,91)" stroke-width="1" opacity="0.5137254901960784" d="M 301.5 15 L 302 68.5 L 301 68.5 L 301.5 15 Z " /><path fill="rgb(87,88,91)" stroke="rgb(87,88,91)" stroke-width="1" opacity="0.5137254901960784" d="M 112.5 16 L 114.5 19 L 112.5 16 Z " /><path fill="rgb(87,88,91)" stroke="rgb(87,88,91)" stroke-width="1" opacity="0.5137254901960784" d="M 283.5 16 L 281.5 19 L 283.5 16 Z " /><path fill="rgb(87,88,91)" stroke="rgb(87,88,91)" stroke-width="1" opacity="0.5137254901960784" d="M 117.5 20 L 119.5 23 L 117.5 20 Z " /><path fill="rgb(87,88,91)" stroke="rgb(87,88,91)" stroke-width="1" opacity="0.5137254901960784" d="M 277.5 21 L 276.5 23 L 277.5 21 Z " /><path fill="rgb(87,88,91)" stroke="rgb(87,88,91)" stroke-width="1" opacity="0.5137254901960784" d="M 122.5 24 L 124.5 27 L 122.5 24 Z " /><path fill="rgb(87,88,91)" stroke="rgb(87,88,91)" stroke-width="1" opacity="0.5137254901960784" d="M 178.5 24 L 183 24.5 L 178.5 25 L 178.5 24 Z " /><path fill="rgb(87,88,91)" stroke="rgb(87,88,91)" stroke-width="1" opacity="0.5137254901960784" d="M 213.5 24 L 218 24.5 L 213.5 25 L 213.5 24 Z " /><path fill="rgb(87,88,91)" stroke="rgb(87,88,91)" stroke-width="1" opacity="0.5137254901960784" d="M 169.5 25 L 173 25.5 L 169.5 26 L 169.5 25 Z " /><path fill="rgb(87,88,91)" stroke="rgb(87,88,91)" stroke-width="1" opacity="0.5137254901960784" d="M 224.5 25 L 227 25.5 L 224.5 26 L 224.5 25 Z " /><path fill="rgb(87,88,91)" stroke="rgb(87,88,91)" stroke-width="1" opacity="0.5137254901960784" d="M 272.5 25 L 271.5 27 L 272.5 25 Z " /><path fill="rgb(87,88,91)" stroke="rgb(87,88,91)" stroke-width="1" opacity="0.5137254901960784" d="M 163.5 26 L 166 26.5 L 163.5 27 L 163.5 26 Z " /><path fill="rgb(87,88,91)" stroke="rgb(87,88,91)" stroke-width="1" opacity="0.5137254901960784" d="M 230.5 26 L 233 26.5 L 230.5 27 L 230.5 26 Z " /><path fill="rgb(87,88,91)" stroke="rgb(87,88,91)" stroke-width="1" opacity="0.5137254901960784" d="M 128.5 29 L 129.5 31 L 128.5 29 Z " /><path fill="rgb(87,88,91)" stroke="rgb(87,88,91)" stroke-width="1" opacity="0.5137254901960784" d="M 267.5 29 L 266.5 31 L 267.5 29 Z " /><path fill="rgb(87,88,91)" stroke="rgb(87,88,91)" stroke-width="1" opacity="0.5137254901960784" d="M 132.5 32 L 134.5 35 L 132.5 32 Z " /><path fill="rgb(87,88,91)" stroke="rgb(87,88,91)" stroke-width="1" opacity="0.5137254901960784" d="M 262.5 33 L 261.5 35 L 262.5 33 Z " /><path fill="rgb(87,88,91)" stroke="rgb(87,88,91)" stroke-width="1" opacity="0.5137254901960784" d="M 92.5 77 L 93 79.5 L 92 79.5 L 92.5 77 Z " /><path fill="rgb(87,88,91)" stroke="rgb(87,88,91)" stroke-width="1" opacity="0.5137254901960784" d="M 303.5 77 L 304 79.5 L 303 79.5 L 303.5 77 Z " /><path fill="rgb(87,88,91)" stroke="rgb(87,88,91)" stroke-width="1" opacity="0.5137254901960784" d="M 91.5 83 L 92 85.5 L 91 85.5 L 91.5 83 Z " /><path fill="rgb(87,88,91)" stroke="rgb(87,88,91)" stroke-width="1" opacity="0.5137254901960784" d="M 304.5 83 L 305 85.5 L 304 85.5 L 304.5 83 Z " /><path fill="rgb(87,88,91)" stroke="rgb(87,88,91)" stroke-width="1" opacity="0.5137254901960784" d="M 90.5 89 L 91 91.5 L 90 91.5 L 90.5 89 Z " /><path fill="rgb(87,88,91)" stroke="rgb(87,88,91)" stroke-width="1" opacity="0.5137254901960784" d="M 305.5 89 L 306 91.5 L 305 91.5 L 305.5 89 Z " /><path fill="rgb(87,88,91)" stroke="rgb(87,88,91)" stroke-width="1" opacity="0.5137254901960784" d="M 89.5 96 L 90 99.5 L 89 99.5 L 89.5 96 Z " /><path fill="rgb(87,88,91)" stroke="rgb(87,88,91)" stroke-width="1" opacity="0.5137254901960784" d="M 306.5 96 L 307 99.5 L 306 99.5 L 306.5 96 Z " /><path fill="rgb(87,88,91)" stroke="rgb(87,88,91)" stroke-width="1" opacity="0.5137254901960784" d="M 88.5 105 L 89 110.5 L 88 110.5 L 88.5 105 Z " /><path fill="rgb(87,88,91)" stroke="rgb(87,88,91)" stroke-width="1" opacity="0.5137254901960784" d="M 307.5 105 L 308 109.5 L 307 109.5 L 307.5 105 Z " /><path fill="rgb(87,88,91)" stroke="rgb(87,88,91)" stroke-width="1" opacity="0.5137254901960784" d="M 88.5 121 L 89 125.5 L 88 125.5 L 88.5 121 Z " /><path fill="rgb(87,88,91)" stroke="rgb(87,88,91)" stroke-width="1" opacity="0.5137254901960784" d="M 307.5 121 L 308 125.5 L 307 125.5 L 307.5 121 Z " /><path fill="rgb(87,88,91)" stroke="rgb(87,88,91)" stroke-width="1" opacity="0.5137254901960784" d="M 99.5 157 L 100.5 159 L 99.5 157 Z " /><path fill="rgb(87,88,91)" stroke="rgb(87,88,91)" stroke-width="1" opacity="0.5137254901960784" d="M 103.5 163 L 104.5 165 L 103.5 163 Z " /><path fill="rgb(87,88,91)" stroke="rgb(87,88,91)" stroke-width="1" opacity="0.5137254901960784" d="M 292.5 163 L 291.5 165 L 292.5 163 Z " /><path fill="rgb(87,88,91)" stroke="rgb(87,88,91)" stroke-width="1" opacity="0.5137254901960784" d="M 106.5 167 L 110.5 172 L 106.5 167 Z " /><path fill="rgb(87,88,91)" stroke="rgb(87,88,91)" stroke-width="1" opacity="0.5137254901960784" d="M 289.5 167 L 286.5 171 L 289.5 167 Z " /><path fill="rgb(87,88,91)" stroke="rgb(87,88,91)" stroke-width="1" opacity="0.5137254901960784" d="M 114.5 175 L 116.5 178 L 114.5 175 Z " /><path fill="rgb(87,88,91)" stroke="rgb(87,88,91)" stroke-width="1" opacity="0.5137254901960784" d="M 281.5 175 L 279.5 178 L 281.5 175 Z " /><path fill="rgb(87,88,91)" stroke="rgb(87,88,91)" stroke-width="1" opacity="0.5137254901960784" d="M 74.5 292 L 75 294.5 L 74 294.5 L 74.5 292 Z " /><path fill="rgb(87,88,91)" stroke="rgb(87,88,91)" stroke-width="1" opacity="0.5137254901960784" d="M 321.5 292 L 322 294.5 L 321 294.5 L 321.5 292 Z " /><path fill="rgb(87,88,91)" stroke="rgb(87,88,91)" stroke-width="1" opacity="0.5137254901960784" d="M 73.5 298 L 74 300.5 L 73 300.5 L 73.5 298 Z " /><path fill="rgb(87,88,91)" stroke="rgb(87,88,91)" stroke-width="1" opacity="0.5137254901960784" d="M 72.5 304 L 73 307.5 L 72 307.5 L 72.5 304 Z " /><path fill="rgb(87,88,91)" stroke="rgb(87,88,91)" stroke-width="1" opacity="0.5137254901960784" d="M 323.5 304 L 324 307.5 L 323 307.5 L 323.5 304 Z " /><path fill="rgb(87,88,91)" stroke="rgb(87,88,91)" stroke-width="1" opacity="0.5137254901960784" d="M 398.5 307 L 396.5 310 L 398.5 307 Z " /><path fill="rgb(87,88,91)" stroke="rgb(87,88,91)" stroke-width="1" opacity="0.5137254901960784" d="M 427.5 310 L 428.5 312 L 427.5 310 Z " /><path fill="rgb(87,88,91)" stroke="rgb(87,88,91)" stroke-width="1" opacity="0.5137254901960784" d="M 71.5 312 L 72 315.5 L 71 315.5 L 71.5 312 Z " /><path fill="rgb(87,88,91)" stroke="rgb(87,88,91)" stroke-width="1" opacity="0.5137254901960784" d="M 324.5 312 L 325 315.5 L 324 315.5 L 324.5 312 Z " /><path fill="rgb(87,88,91)" stroke="rgb(87,88,91)" stroke-width="1" opacity="0.5137254901960784" d="M 392.5 320 L 393 325.5 L 392 325.5 L 392.5 320 Z " /><path fill="rgb(87,88,91)" stroke="rgb(87,88,91)" stroke-width="1" opacity="0.5137254901960784" d="M 437.5 320 L 439.5 323 L 437.5 320 Z " /><path fill="rgb(87,88,91)" stroke="rgb(87,88,91)" stroke-width="1" opacity="0.5137254901960784" d="M 70.5 322 L 71 326.5 L 70 326.5 L 70.5 322 Z " /><path fill="rgb(87,88,91)" stroke="rgb(87,88,91)" stroke-width="1" opacity="0.5137254901960784" d="M 325.5 322 L 326 326.5 L 325 326.5 L 325.5 322 Z " /><path fill="rgb(87,88,91)" stroke="rgb(87,88,91)" stroke-width="1" opacity="0.5137254901960784" d="M 393.5 330 L 394 332.5 L 393 332.5 L 393.5 330 Z " /><path fill="rgb(87,88,91)" stroke="rgb(87,88,91)" stroke-width="1" opacity="0.5137254901960784" d="M 69.5 336 L 70 360.5 L 69 360.5 L 69.5 336 Z " /><path fill="rgb(87,88,91)" stroke="rgb(87,88,91)" stroke-width="1" opacity="0.5137254901960784" d="M 326.5 336 L 327 360.5 L 326 360.5 L 326.5 336 Z " /><path fill="rgb(87,88,91)" stroke="rgb(87,88,91)" stroke-width="1" opacity="0.5137254901960784" d="M 395.5 342 L 396 345.5 L 395 345.5 L 395.5 342 Z " /><path fill="rgb(87,88,91)" stroke="rgb(87,88,91)" stroke-width="1" opacity="0.5137254901960784" d="M 452.5 350 L 453 352.5 L 452 352.5 L 452.5 350 Z " /><path fill="rgb(87,88,91)" stroke="rgb(87,88,91)" stroke-width="1" opacity="0.5137254901960784" d="M 395.5 358 L 396 361.5 L 395 361.5 L 395.5 358 Z " /><path fill="rgb(87,88,91)" stroke="rgb(87,88,91)" stroke-width="1" opacity="0.5137254901960784" d="M 454.5 365 L 455 372.5 L 454 372.5 L 454.5 365 Z " /><path fill="rgb(87,88,91)" stroke="rgb(87,88,91)" stroke-width="1" opacity="0.5137254901960784" d="M 70.5 370 L 71 373.5 L 70 373.5 L 70.5 370 Z " /><path fill="rgb(87,88,91)" stroke="rgb(87,88,91)" stroke-width="1" opacity="0.5137254901960784" d="M 325.5 370 L 326 374.5 L 325 374.5 L 325.5 370 Z " /><path fill="rgb(87,88,91)" stroke="rgb(87,88,91)" stroke-width="1" opacity="0.5137254901960784" d="M 71.5 379 L 72 382.5 L 71 382.5 L 71.5 379 Z " /><path fill="rgb(87,88,91)" stroke="rgb(87,88,91)" stroke-width="1" opacity="0.5137254901960784" d="M 324.5 379 L 325 382.5 L 324 382.5 L 324.5 379 Z " /><path fill="rgb(87,88,91)" stroke="rgb(87,88,91)" stroke-width="1" opacity="0.5137254901960784" d="M 453.5 379 L 454 381.5 L 453 381.5 L 453.5 379 Z " /><path fill="rgb(87,88,91)" stroke="rgb(87,88,91)" stroke-width="1" opacity="0.5137254901960784" d="M 72.5 386 L 73 388.5 L 72 388.5 L 72.5 386 Z " /><path fill="rgb(87,88,91)" stroke="rgb(87,88,91)" stroke-width="1" opacity="0.5137254901960784" d="M 323.5 386 L 324 388.5 L 323 388.5 L 323.5 386 Z " /><path fill="rgb(87,88,91)" stroke="rgb(87,88,91)" stroke-width="1" opacity="0.5137254901960784" d="M 381.5 396 L 379.5 399 L 381.5 396 Z " /><path fill="rgb(87,88,91)" stroke="rgb(87,88,91)" stroke-width="1" opacity="0.5137254901960784" d="M 370.5 407 L 369.5 409 L 370.5 407 Z " /><path fill="rgb(87,88,91)" stroke="rgb(87,88,91)" stroke-width="1" opacity="0.5137254901960784" d="M 437.5 418 L 436.5 420 L 437.5 418 Z " /><path fill="rgb(87,88,91)" stroke="rgb(87,88,91)" stroke-width="1" opacity="0.5137254901960784" d="M 323.5 420 L 327 420.5 L 323.5 421 L 323.5 420 Z " /><path fill="rgb(87,88,91)" stroke="rgb(87,88,91)" stroke-width="1" opacity="0.5137254901960784" d="M 335.5 420 L 340 420.5 L 335.5 421 L 335.5 420 Z " /><path fill="rgb(87,88,91)" stroke="rgb(87,88,91)" stroke-width="1" opacity="0.5137254901960784" d="M 433.5 423 L 431.5 426 L 433.5 423 Z " /><path fill="rgb(87,88,91)" stroke="rgb(87,88,91)" stroke-width="1" opacity="0.5137254901960784" d="M 423.5 433 L 420.5 437 L 423.5 433 Z " /><path fill="rgb(87,88,91)" stroke="rgb(87,88,91)" stroke-width="1" opacity="0.5137254901960784" d="M 72.5 436 L 71.5 438 L 72.5 436 Z " /><path fill="rgb(87,88,91)" stroke="rgb(87,88,91)" stroke-width="1" opacity="0.5137254901960784" d="M 417.5 438 L 416.5 440 L 417.5 438 Z " /><path fill="rgb(87,88,91)" stroke="rgb(87,88,91)" stroke-width="1" opacity="0.5137254901960784" d="M 73.5 440 L 68.5 446 L 73.5 440 Z " /><path fill="rgb(87,88,91)" stroke="rgb(87,88,91)" stroke-width="1" opacity="0.5137254901960784" d="M 94.5 443 L 95.5 445 L 94.5 443 Z " /><path fill="rgb(87,88,91)" stroke="rgb(87,88,91)" stroke-width="1" opacity="0.5137254901960784" d="M 64.5 444 L 63.5 446 L 64.5 444 Z " /><path fill="rgb(87,88,91)" stroke="rgb(87,88,91)" stroke-width="1" opacity="0.5137254901960784" d="M 98.5 448 L 105.5 456 L 98.5 448 Z " /><path fill="rgb(87,88,91)" stroke="rgb(87,88,91)" stroke-width="1" opacity="0.5137254901960784" d="M 313.5 461 L 316 461.5 L 313.5 462 L 313.5 461 Z " /><path fill="rgb(87,88,91)" stroke="rgb(87,88,91)" stroke-width="1" opacity="0.5137254901960784" d="M 361.5 461 L 364 461.5 L 361.5 462 L 361.5 461 Z " /><path fill="rgb(87,88,91)" stroke="rgb(87,88,91)" stroke-width="1" opacity="0.5137254901960784" d="M 61.5 462 L 62 467.5 L 61 467.5 L 61.5 462 Z " /><path fill="rgb(87,88,91)" stroke="rgb(87,88,91)" stroke-width="1" opacity="0.5137254901960784" d="M 321.5 462 L 326 462.5 L 321.5 463 L 321.5 462 Z " /><path fill="rgb(87,88,91)" stroke="rgb(87,88,91)" stroke-width="1" opacity="0.5137254901960784" d="M 352.5 462 L 357 462.5 L 352.5 463 L 352.5 462 Z " /><path fill="rgb(87,88,91)" stroke="rgb(87,88,91)" stroke-width="1" opacity="0.5137254901960784" d="M 57.5 463 L 58 467.5 L 57 467.5 L 57.5 463 Z " /><path fill="rgb(87,88,91)" stroke="rgb(87,88,91)" stroke-width="1" opacity="0.5137254901960784" d="M 182.5 465 L 206 465.5 L 182.5 466 L 182.5 465 Z " /><path fill="rgb(87,88,91)" stroke="rgb(87,88,91)" stroke-width="1" opacity="0.5137254901960784" d="M 180.5 470 L 179.5 472 L 180.5 470 Z " /><path fill="rgb(87,88,91)" stroke="rgb(87,88,91)" stroke-width="1" opacity="0.5137254901960784" d="M 227.5 472 L 231 472.5 L 227.5 473 L 227.5 472 Z " /><path fill="rgb(87,88,91)" stroke="rgb(87,88,91)" stroke-width="1" opacity="0.5137254901960784" d="M 246.5 472 L 249 472.5 L 246.5 473 L 246.5 472 Z " /><path fill="rgb(87,88,91)" stroke="rgb(87,88,91)" stroke-width="1" opacity="0.5137254901960784" d="M 399.5 475 L 408 475.5 L 399.5 476 L 399.5 475 Z " /><path fill="rgb(87,88,91)" stroke="rgb(87,88,91)" stroke-width="1" opacity="0.5137254901960784" d="M 391.5 476 L 394 476.5 L 391.5 477 L 391.5 476 Z " /><path fill="rgb(87,88,91)" stroke="rgb(87,88,91)" stroke-width="1" opacity="0.5137254901960784" d="M 384.5 477 L 387 477.5 L 384.5 478 L 384.5 477 Z " /><path fill="rgb(87,88,91)" stroke="rgb(87,88,91)" stroke-width="1" opacity="0.5137254901960784" d="M 145.5 478 L 149 478.5 L 145.5 479 L 145.5 478 Z " /><path fill="rgb(87,88,91)" stroke="rgb(87,88,91)" stroke-width="1" opacity="0.5137254901960784" d="M 159.5 478 L 164 478.5 L 159.5 479 L 159.5 478 Z " /><path fill="rgb(87,88,91)" stroke="rgb(87,88,91)" stroke-width="1" opacity="0.5137254901960784" d="M 376.5 478 L 380 478.5 L 376.5 479 L 376.5 478 Z " /><path fill="rgb(87,88,91)" stroke="rgb(87,88,91)" stroke-width="1" opacity="0.5137254901960784" d="M 368.5 479 L 372 479.5 L 368.5 480 L 368.5 479 Z " /><path fill="rgb(87,88,91)" stroke="rgb(87,88,91)" stroke-width="1" opacity="0.5137254901960784" d="M 398.5 479 L 408 479.5 L 398.5 480 L 398.5 479 Z " /><path fill="rgb(87,88,91)" stroke="rgb(87,88,91)" stroke-width="1" opacity="0.5137254901960784" d="M 360.5 480 L 364 480.5 L 360.5 481 L 360.5 480 Z " /><path fill="rgb(87,88,91)" stroke="rgb(87,88,91)" stroke-width="1" opacity="0.5137254901960784" d="M 391.5 480 L 394 480.5 L 391.5 481 L 391.5 480 Z " /><path fill="rgb(87,88,91)" stroke="rgb(87,88,91)" stroke-width="1" opacity="0.5137254901960784" d="M 63.5 481 L 65.5 484 L 63.5 481 Z " /><path fill="rgb(87,88,91)" stroke="rgb(87,88,91)" stroke-width="1" opacity="0.5137254901960784" d="M 351.5 481 L 355 481.5 L 351.5 482 L 351.5 481 Z " /><path fill="rgb(87,88,91)" stroke="rgb(87,88,91)" stroke-width="1" opacity="0.5137254901960784" d="M 383.5 481 L 387 481.5 L 383.5 482 L 383.5 481 Z " /><path fill="rgb(87,88,91)" stroke="rgb(87,88,91)" stroke-width="1" opacity="0.5137254901960784" d="M 341.5 482 L 345 482.5 L 341.5 483 L 341.5 482 Z " /><path fill="rgb(87,88,91)" stroke="rgb(87,88,91)" stroke-width="1" opacity="0.5137254901960784" d="M 376.5 482 L 379 482.5 L 376.5 483 L 376.5 482 Z " /><path fill="rgb(87,88,91)" stroke="rgb(87,88,91)" stroke-width="1" opacity="0.5137254901960784" d="M 416.5 482 L 420.5 487 L 416.5 482 Z " /><path fill="rgb(87,88,91)" stroke="rgb(87,88,91)" stroke-width="1" opacity="0.5137254901960784" d="M 330.5 483 L 335 483.5 L 330.5 484 L 330.5 483 Z " /><path fill="rgb(87,88,91)" stroke="rgb(87,88,91)" stroke-width="1" opacity="0.5137254901960784" d="M 368.5 483 L 372 483.5 L 368.5 484 L 368.5 483 Z " /><path fill="rgb(87,88,91)" stroke="rgb(87,88,91)" stroke-width="1" opacity="0.5137254901960784" d="M 317.5 484 L 323 484.5 L 317.5 485 L 317.5 484 Z " /><path fill="rgb(87,88,91)" stroke="rgb(87,88,91)" stroke-width="1" opacity="0.5137254901960784" d="M 360.5 484 L 363 484.5 L 360.5 485 L 360.5 484 Z " /><path fill="rgb(87,88,91)" stroke="rgb(87,88,91)" stroke-width="1" opacity="0.5137254901960784" d="M 423.5 484 L 424.5 486 L 423.5 484 Z " /><path fill="rgb(87,88,91)" stroke="rgb(87,88,91)" stroke-width="1" opacity="0.5137254901960784" d="M 302.5 485 L 309 485.5 L 302.5 486 L 302.5 485 Z " /><path fill="rgb(87,88,91)" stroke="rgb(87,88,91)" stroke-width="1" opacity="0.5137254901960784" d="M 350.5 485 L 355 485.5 L 350.5 486 L 350.5 485 Z " /><path fill="rgb(87,88,91)" stroke="rgb(87,88,91)" stroke-width="1" opacity="0.5137254901960784" d="M 81.5 486 L 84 486.5 L 81.5 487 L 81.5 486 Z " /><path fill="rgb(87,88,91)" stroke="rgb(87,88,91)" stroke-width="1" opacity="0.5137254901960784" d="M 284.5 486 L 293 486.5 L 284.5 487 L 284.5 486 Z " /><path fill="rgb(87,88,91)" stroke="rgb(87,88,91)" stroke-width="1" opacity="0.5137254901960784" d="M 340.5 486 L 345 486.5 L 340.5 487 L 340.5 486 Z " /><path fill="rgb(87,88,91)" stroke="rgb(87,88,91)" stroke-width="1" opacity="0.5137254901960784" d="M 92.5 487 L 113 487.5 L 92.5 488 L 92.5 487 Z " /><path fill="rgb(87,88,91)" stroke="rgb(87,88,91)" stroke-width="1" opacity="0.5137254901960784" d="M 258.5 487 L 271 487.5 L 258.5 488 L 258.5 487 Z " /><path fill="rgb(87,88,91)" stroke="rgb(87,88,91)" stroke-width="1" opacity="0.5137254901960784" d="M 329.5 487 L 334 487.5 L 329.5 488 L 329.5 487 Z " /><path fill="rgb(87,88,91)" stroke="rgb(87,88,91)" stroke-width="1" opacity="0.5137254901960784" d="M 148.5 488 L 236 488.5 L 148.5 489 L 148.5 488 Z " /><path fill="rgb(87,88,91)" stroke="rgb(87,88,91)" stroke-width="1" opacity="0.5137254901960784" d="M 316.5 488 L 322 488.5 L 316.5 489 L 316.5 488 Z " /><path fill="rgb(87,88,91)" stroke="rgb(87,88,91)" stroke-width="1" opacity="0.5137254901960784" d="M 301.5 489 L 308 489.5 L 301.5 490 L 301.5 489 Z " /><path fill="rgb(87,88,91)" stroke="rgb(87,88,91)" stroke-width="1" opacity="0.5137254901960784" d="M 82.5 490 L 85 490.5 L 82.5 491 L 82.5 490 Z " /><path fill="rgb(87,88,91)" stroke="rgb(87,88,91)" stroke-width="1" opacity="0.5137254901960784" d="M 283.5 490 L 291 490.5 L 283.5 491 L 283.5 490 Z " /><path fill="rgb(87,88,91)" stroke="rgb(87,88,91)" stroke-width="1" opacity="0.5137254901960784" d="M 426.5 490 L 427 496.5 L 426 496.5 L 426.5 490 Z " /><path fill="rgb(87,88,91)" stroke="rgb(87,88,91)" stroke-width="1" opacity="0.5137254901960784" d="M 93.5 491 L 116 491.5 L 93.5 492 L 93.5 491 Z " /><path fill="rgb(87,88,91)" stroke="rgb(87,88,91)" stroke-width="1" opacity="0.5137254901960784" d="M 256.5 491 L 270 491.5 L 256.5 492 L 256.5 491 Z " /><path fill="rgb(87,88,91)" stroke="rgb(87,88,91)" stroke-width="1" opacity="0.5137254901960784" d="M 422.5 491 L 423 495.5 L 422 495.5 L 422.5 491 Z " /><path fill="rgb(87,88,91)" stroke="rgb(87,88,91)" stroke-width="1" opacity="0.5137254901960784" d="M 152.5 492 L 233 492.5 L 152.5 493 L 152.5 492 Z " /><path fill="rgb(87,88,91)" stroke="rgb(87,88,91)" stroke-width="1" opacity="0.5137254901960784" d="M 420.5 499 L 422 501.5 L 420 500.5 L 420.5 499 Z " /><path fill="rgb(87,88,91)" stroke="rgb(87,88,91)" stroke-width="1" opacity="0.5137254901960784" d="M 424.5 500 L 423.5 502 L 424.5 500 Z " /><path fill="rgb(234,234,233)" stroke="rgb(234,234,233)" stroke-width="1" opacity="1" d="M 241.5 81 L 240.5 83 L 241.5 81 Z " /><path fill="rgb(234,234,233)" stroke="rgb(234,234,233)" stroke-width="1" opacity="1" d="M 191.5 123 L 193.5 126 L 191.5 123 Z " /><path fill="rgb(234,234,233)" stroke="rgb(234,234,233)" stroke-width="1" opacity="1" d="M 204.5 123 L 202.5 126 L 204.5 123 Z " /><path fill="rgb(234,234,233)" stroke="rgb(234,234,233)" stroke-width="1" opacity="1" d="M 81.5 281 L 82 283.5 L 81 283.5 L 81.5 281 Z " /><path fill="rgb(234,234,233)" stroke="rgb(234,234,233)" stroke-width="1" opacity="1" d="M 314.5 281 L 315 284.5 L 314 284.5 L 314.5 281 Z " /><path fill="rgb(234,234,233)" stroke="rgb(234,234,233)" stroke-width="1" opacity="1" d="M 80.5 289 L 81 291.5 L 80 291.5 L 80.5 289 Z " /><path fill="rgb(234,234,233)" stroke="rgb(234,234,233)" stroke-width="1" opacity="1" d="M 315.5 289 L 316 291.5 L 315 291.5 L 315.5 289 Z " /><path fill="rgb(234,234,233)" stroke="rgb(234,234,233)" stroke-width="1" opacity="1" d="M 316.5 298 L 317 302.5 L 316 302.5 L 316.5 298 Z " /><path fill="rgb(234,234,233)" stroke="rgb(234,234,233)" stroke-width="1" opacity="1" d="M 79.5 299 L 80 302.5 L 79 302.5 L 79.5 299 Z " /><path fill="rgb(234,234,233)" stroke="rgb(234,234,233)" stroke-width="1" opacity="1" d="M 411.5 309 L 416.5 315 L 411.5 309 Z " /><path fill="rgb(234,234,233)" stroke="rgb(234,234,233)" stroke-width="1" opacity="1" d="M 317.5 313 L 318 340.5 L 317 340.5 L 317.5 313 Z " /><path fill="rgb(234,234,233)" stroke="rgb(234,234,233)" stroke-width="1" opacity="1" d="M 78.5 314 L 79 341.5 L 78 341.5 L 78.5 314 Z " /><path fill="rgb(234,234,233)" stroke="rgb(234,234,233)" stroke-width="1" opacity="1" d="M 422.5 323 L 425 326.5 L 423 325.5 L 422.5 323 Z " /><path fill="rgb(234,234,233)" stroke="rgb(234,234,233)" stroke-width="1" opacity="1" d="M 287.5 346 L 288.5 348 L 287.5 346 Z " /><path fill="rgb(234,234,233)" stroke="rgb(234,234,233)" stroke-width="1" opacity="1" d="M 290.5 349 L 292.5 352 L 290.5 349 Z " /><path fill="rgb(234,234,233)" stroke="rgb(234,234,233)" stroke-width="1" opacity="1" d="M 79.5 350 L 80 354.5 L 79 354.5 L 79.5 350 Z " /><path fill="rgb(234,234,233)" stroke="rgb(234,234,233)" stroke-width="1" opacity="1" d="M 316.5 350 L 317 354.5 L 316 354.5 L 316.5 350 Z " /><path fill="rgb(234,234,233)" stroke="rgb(234,234,233)" stroke-width="1" opacity="1" d="M 274.5 354 L 273.5 356 L 274.5 354 Z " /><path fill="rgb(234,234,233)" stroke="rgb(234,234,233)" stroke-width="1" opacity="1" d="M 80.5 359 L 81 361.5 L 80 361.5 L 80.5 359 Z " /><path fill="rgb(234,234,233)" stroke="rgb(234,234,233)" stroke-width="1" opacity="1" d="M 315.5 360 L 316 362.5 L 315 362.5 L 315.5 360 Z " /><path fill="rgb(234,234,233)" stroke="rgb(234,234,233)" stroke-width="1" opacity="1" d="M 81.5 366 L 82 368.5 L 81 368.5 L 81.5 366 Z " /><path fill="rgb(234,234,233)" stroke="rgb(234,234,233)" stroke-width="1" opacity="1" d="M 423.5 372 L 431 379.5 L 431 381.5 L 430 381.5 L 430 379.5 L 423.5 372 Z " /><path fill="rgb(234,234,233)" stroke="rgb(234,234,233)" stroke-width="1" opacity="1" d="M 312.5 376 L 313 378.5 L 312 378.5 L 312.5 376 Z " /><path fill="rgb(234,234,233)" stroke="rgb(234,234,233)" stroke-width="1" opacity="1" d="M 309.5 384 L 310.5 386 L 309.5 384 Z " /><path fill="rgb(234,234,233)" stroke="rgb(234,234,233)" stroke-width="1" opacity="1" d="M 390.5 391 L 392.5 394 L 390.5 391 Z " /><path fill="rgb(234,234,233)" stroke="rgb(234,234,233)" stroke-width="1" opacity="1" d="M 396.5 398 L 397.5 400 L 396.5 398 Z " /><path fill="rgb(234,234,233)" stroke="rgb(234,234,233)" stroke-width="1" opacity="1" d="M 398.5 401 L 399.5 403 L 398.5 401 Z " /><path fill="rgb(234,234,233)" stroke="rgb(234,234,233)" stroke-width="1" opacity="1" d="M 421.5 402 L 420.5 404 L 421.5 402 Z " /><path fill="rgb(234,234,233)" stroke="rgb(234,234,233)" stroke-width="1" opacity="1" d="M 377.5 407 L 376.5 409 L 377.5 407 Z " /><path fill="rgb(234,234,233)" stroke="rgb(234,234,233)" stroke-width="1" opacity="1" d="M 380.5 410 L 381.5 412 L 380.5 410 Z " /><path fill="rgb(234,234,233)" stroke="rgb(234,234,233)" stroke-width="1" opacity="1" d="M 415.5 411 L 414.5 413 L 415.5 411 Z " /><path fill="rgb(234,234,233)" stroke="rgb(234,234,233)" stroke-width="1" opacity="1" d="M 99.5 417 L 100.5 419 L 99.5 417 Z " /><path fill="rgb(234,234,233)" stroke="rgb(234,234,233)" stroke-width="1" opacity="1" d="M 410.5 417 L 407.5 421 L 410.5 417 Z " /><path fill="rgb(234,234,233)" stroke="rgb(234,234,233)" stroke-width="1" opacity="1" d="M 108.5 429 L 111.5 433 L 108.5 429 Z " /><path fill="rgb(234,234,233)" stroke="rgb(234,234,233)" stroke-width="1" opacity="1" d="M 114.5 434 L 116.5 437 L 114.5 434 Z " /><path fill="rgb(234,234,233)" stroke="rgb(234,234,233)" stroke-width="1" opacity="1" d="M 388.5 435 L 387.5 437 L 388.5 435 Z " /><path fill="rgb(234,234,233)" stroke="rgb(234,234,233)" stroke-width="1" opacity="1" d="M 381.5 439 L 380.5 441 L 381.5 439 Z " /><path fill="rgb(234,234,233)" stroke="rgb(234,234,233)" stroke-width="1" opacity="1" d="M 128.5 441 L 131 441.5 L 128.5 442 L 128.5 441 Z " /><path fill="rgb(234,234,233)" stroke="rgb(234,234,233)" stroke-width="1" opacity="1" d="M 377.5 441 L 379 441.5 L 375.5 443 L 375.5 442 L 377.5 441 Z " /><path fill="rgb(234,234,233)" stroke="rgb(234,234,233)" stroke-width="1" opacity="1" d="M 350.5 448 L 351 450 L 353 450.5 L 351.5 451 L 350.5 448 Z " /><path fill="rgb(234,234,233)" stroke="rgb(234,234,233)" stroke-width="1" opacity="1" d="M 295.5 452 L 299 452.5 L 295.5 453 L 295.5 452 Z " /><path fill="rgb(234,234,233)" stroke="rgb(234,234,233)" stroke-width="1" opacity="1" d="M 304.5 453 L 310 453.5 L 304.5 454 L 304.5 453 Z " /><path fill="rgb(234,234,234)" stroke="rgb(234,234,234)" stroke-width="1" opacity="1" d="M 100.5 15 L 103.5 15 L 132.5 39 L 136.5 39 L 146.5 35 L 168.5 30 L 188.5 29 L 189.5 28 L 206.5 28 L 207.5 29 L 227.5 30 L 249.5 35 L 259.5 39 L 263.5 39 L 292.5 15 L 295.5 15 L 297 16.5 L 297 70.5 L 299 76.5 L 301 94.5 L 302 95.5 L 302 102.5 L 303 103.5 L 303 126.5 Q 296.7 159.2 274.5 176 L 266 182.5 L 267.5 185 Q 273.6 185.6 275.5 182 Q 300.1 221.4 313 272.5 L 315 291.5 L 316 292.5 L 316 302.5 L 317 303.5 L 317 349.5 L 316 350.5 L 315 366.5 L 310.5 385 L 301 362.5 L 287.5 346 L 280 340.5 Q 279.5 332 275 327.5 L 273 311.5 L 266.5 303 L 258.5 300 L 248.5 299 L 237.5 301 L 231 305 L 227 313.5 L 227 321.5 Q 224.8 322.8 226 327.5 L 224.5 329 L 217.5 330 L 206.5 334 L 186 348 L 178.5 358 L 178 347.5 L 179 346.5 L 181 326.5 L 177.5 325 L 176 326.5 L 174 345.5 L 173 346.5 L 173 367.5 L 170 372.5 L 166 385.5 L 165 408.5 L 170 428.5 L 177 443.5 L 178 465.5 L 173.5 471 L 164.5 474 L 143.5 474 L 133 470 Q 130.6 466.1 132 456.5 L 138 442.5 Q 136.3 436.3 139 434.5 L 139 403.5 L 132 367.5 L 125 342.5 L 123 329.5 L 120.5 325 L 117 326.5 L 120 343.5 L 132 390.5 L 133 403.5 L 134 404.5 L 134 417.5 L 128.5 420 L 104.5 424 Q 95.3 413.7 90 399.5 L 83 376.5 L 81 359.5 L 80 358.5 L 80 350.5 L 79 349.5 L 79 303.5 L 80 302.5 L 80 292.5 L 81 291.5 L 83 272.5 L 93 239.5 Q 104.1 208.1 120.5 182 Q 123.3 185.8 129 185 Q 130 180.3 126.5 179 Q 115.7 173.3 109 163.5 Q 100.7 153.3 96 139.5 L 93 126.5 L 93 103.5 L 94 102.5 L 94 95.5 L 95 94.5 L 97 76.5 L 99 70.5 L 99 16.5 L 100.5 15 Z M 150 80 L 147 81 L 146 84 Q 145 92 150 93 L 157 92 L 159 89 L 158 83 Q 157 79 150 80 Z M 244 80 L 242 81 L 239 86 L 241 92 L 244 93 L 251 92 L 253 89 L 252 83 Q 251 79 244 80 Z M 194 106 L 188 110 Q 187 119 191 124 L 195 126 L 195 136 L 194 138 L 191 140 L 182 140 L 180 142 L 182 145 Q 194 147 198 141 Q 202 147 215 145 L 216 142 L 215 140 Q 207 142 204 139 Q 199 136 200 128 L 203 126 L 208 118 L 208 110 Q 204 104 194 106 Z M 133 125 Q 130 126 131 130 L 159 138 Q 164 139 165 137 L 164 135 L 163 133 L 133 125 Z M 262 125 L 234 133 Q 231 134 232 138 L 238 138 L 263 130 Q 267 131 265 127 L 262 125 Z M 156 146 L 131 150 Q 130 154 133 155 L 163 151 L 165 148 L 164 146 L 156 146 Z M 233 146 L 231 149 L 234 151 L 264 155 Q 266 154 265 150 L 241 146 L 233 146 Z " /><path fill="rgb(234,234,234)" stroke="rgb(234,234,234)" stroke-width="1" opacity="1" d="M 248.5 304 L 257.5 305 L 266 309 L 269 315.5 L 270 329.5 Q 276.2 336.3 276 349.5 L 275 353.5 L 271.5 357 L 258.5 360 L 248.5 360 L 237.5 358 L 230 352.5 L 229 340.5 L 231 332.5 L 232 314.5 L 237.5 307 L 248.5 304 Z " /><path fill="rgb(234,234,234)" stroke="rgb(234,234,234)" stroke-width="1" opacity="1" d="M 409.5 308 L 419 317.5 L 426 329.5 L 431 343.5 L 432 353.5 L 429.5 352 Q 417.3 344 400 342 L 397 327.5 L 397 318.5 L 401.5 311 L 409.5 308 Z " /><path fill="rgb(234,234,234)" stroke="rgb(234,234,234)" stroke-width="1" opacity="1" d="M 400.5 363 L 404.5 363 L 413.5 366 Q 423.5 371 430 379.5 Q 424.2 405.2 407.5 420 L 400 402.5 L 393 394.5 L 391 389.5 L 395 382.5 L 399 369.5 L 399 364.5 L 400.5 363 Z " /><path fill="rgb(234,234,234)" stroke="rgb(234,234,234)" stroke-width="1" opacity="1" d="M 377.5 408 L 380 409.5 L 387 421.5 L 390 435 Q 373.6 445.9 350.5 451 L 351 449.5 L 353 439.5 L 353 422 Q 367.6 417.9 377.5 408 Z " /><path fill="rgb(234,234,234)" stroke="rgb(234,234,234)" stroke-width="1" opacity="1" d="M 314.5 423 Q 321.9 426.3 333 425 Q 334.6 443.9 326.5 454 L 310.5 454 L 309.5 453 Q 300.3 454.3 295 451.5 Q 307.4 439.9 314.5 423 Z " /><path fill="rgb(234,234,234)" stroke="rgb(234,234,234)" stroke-width="1" opacity="1" d="M 130.5 424 L 134 424 L 134 433.5 L 133 434.5 L 133 442 Q 116.4 439.8 108 428.5 L 130.5 424 Z " /><path fill="rgb(92,93,94)" stroke="rgb(92,93,94)" stroke-width="1" opacity="0.9921568627450981" d="M 100.5 10 L 105.5 11 L 134.5 35 L 144.5 31 L 173.5 25 L 182.5 25 L 183.5 24 L 212.5 24 L 213.5 25 L 223.5 25 L 224.5 26 L 235.5 27 L 261.5 35 L 290.5 11 L 295.5 10 L 301 14.5 L 301 68.5 L 306 92.5 L 308 120.5 L 307 121.5 L 306 134.5 L 302 146.5 Q 294.9 163.4 282.5 175 L 279 177.5 L 299 217.5 L 308 240.5 L 317 270.5 L 325 316.5 L 325 326.5 L 326 327.5 L 326 369.5 L 325 370.5 L 325 378.5 L 324 379.5 L 322 396.5 L 315 419 L 323.5 421 L 339.5 421 Q 368.2 416.2 382 396.5 Q 390 386 394 371.5 L 396 361.5 L 396 342.5 L 393 329.5 L 393 316.5 Q 394.8 309.3 400.5 306 L 406.5 304 L 412.5 304 Q 428.7 307.8 437 319.5 Q 447.3 331.2 452 348.5 L 454 358.5 L 454 378.5 Q 447.4 413.9 424.5 433 Q 407.4 448.9 382.5 457 L 366.5 461 L 352.5 462 L 351.5 463 L 326.5 463 L 325.5 462 L 309.5 461 L 289.5 456 L 278.5 463 L 256.5 471 L 245.5 473 L 231.5 473 L 216.5 470 L 205.5 465 L 182 465 Q 181.6 470.8 177.5 474 L 166.5 478 L 149.5 479 L 148.5 478 L 137.5 477 L 129 471.5 L 128 465 Q 118.2 464.7 111.5 460 L 96 445.5 L 87.5 433 Q 74.9 436.4 68 445.5 Q 61 453 61 467.5 Q 62.5 477.5 69.5 482 L 77.5 486 L 91.5 487 L 92.5 488 L 235.5 489 L 236.5 488 L 270.5 488 L 271.5 487 L 292.5 487 L 293.5 486 L 322.5 485 L 323.5 484 L 334.5 484 L 335.5 483 L 363.5 481 L 364.5 480 L 379.5 479 L 394.5 476 L 410.5 476 Q 419 477.5 423 483.5 Q 427.3 487.7 426 497.5 L 422.5 502 L 421 498.5 Q 423.8 496.8 423 491.5 Q 421.5 485 416.5 482 L 407.5 479 L 398.5 479 L 397.5 480 L 360.5 484 L 359.5 485 L 329.5 487 L 328.5 488 L 316.5 488 L 315.5 489 L 301.5 489 L 300.5 490 L 283.5 490 L 282.5 491 L 256.5 491 L 255.5 492 L 116.5 492 L 115.5 491 L 85.5 491 Q 84.2 488.8 79.5 490 Q 67.7 487.8 62 479.5 Q 56.2 472.8 58 458.5 Q 61.4 445.4 70.5 438 Q 76.8 432 86 430 L 76 404.5 L 72 385.5 L 71 370.5 L 70 369.5 L 70 327.5 L 71 326.5 L 71 316.5 L 72 315.5 L 72 308.5 L 73 307.5 L 75 289.5 L 85 249.5 L 97 217.5 L 117 177.5 L 111 172.5 Q 100.3 161.7 94 146.5 L 89 129.5 L 88 111.5 L 89 110.5 L 90 92.5 L 95 68.5 L 95 14.5 L 98.5 11 L 100.5 10 Z M 101 14 L 98 17 L 98 73 L 96 79 L 94 97 L 93 98 L 93 106 L 92 107 L 92 125 L 95 139 Q 100 153 108 164 L 129 183 L 128 185 L 121 181 Q 99 214 87 256 L 77 299 L 75 320 L 74 321 L 74 333 L 73 334 L 73 363 L 74 364 L 74 375 L 75 376 L 76 388 L 83 414 L 91 428 L 100 425 L 122 422 L 135 419 L 133 393 L 118 332 Q 116 324 121 326 L 135 384 L 138 400 L 138 411 L 139 412 L 139 426 L 138 427 L 137 444 L 133 451 L 131 459 L 132 470 L 138 473 L 147 475 L 163 475 L 174 472 L 179 465 L 179 454 L 177 447 L 177 440 Q 169 428 166 412 L 166 390 Q 168 376 174 366 L 174 345 L 177 329 Q 176 324 180 326 L 180 335 L 178 343 L 178 352 L 177 353 L 178 360 L 180 357 Q 196 334 227 329 Q 225 313 232 305 L 245 300 L 256 300 L 267 304 L 272 311 L 274 320 L 274 327 Q 279 333 280 342 L 288 347 Q 299 358 306 374 L 311 397 L 310 413 L 307 423 L 308 425 L 313 414 L 319 393 L 321 376 L 322 375 L 322 364 L 323 363 L 323 334 L 322 333 L 321 312 L 316 283 L 311 263 Q 298 217 276 181 L 269 185 L 267 183 L 275 177 Q 298 160 304 125 L 303 98 L 298 73 L 298 17 L 296 14 L 292 15 L 262 39 L 237 31 L 218 29 L 217 28 L 180 28 Q 178 31 172 29 L 148 34 L 135 39 L 105 15 L 101 14 Z M 244 304 L 238 306 Q 233 309 231 316 Q 232 328 229 336 L 229 352 L 230 354 L 236 358 L 244 360 L 264 360 L 273 357 L 276 354 L 276 341 L 270 327 L 270 319 L 267 310 Q 260 302 244 304 Z M 406 308 L 402 310 L 397 317 L 396 322 L 400 345 L 400 360 L 397 375 Q 392 391 382 403 L 366 416 L 349 423 L 338 425 L 327 425 L 313 422 L 310 431 Q 304 443 294 452 L 294 454 L 323 459 L 356 459 L 377 455 Q 400 448 417 435 Q 431 423 441 407 L 448 390 L 450 381 L 450 370 L 451 369 Q 448 365 450 357 L 447 345 Q 442 331 433 321 L 420 310 Q 415 307 406 308 Z M 224 333 Q 206 338 194 348 L 185 358 Q 198 370 216 378 Q 222 377 225 373 L 235 363 L 235 361 L 230 359 L 225 352 L 225 337 L 226 336 Q 227 332 224 333 Z M 280 347 L 281 356 L 284 350 L 280 347 Z M 288 353 L 281 363 L 284 378 L 286 395 L 301 374 Q 297 361 288 353 Z M 275 360 L 266 363 L 267 368 Q 265 373 269 372 L 276 363 Q 277 359 275 360 Z M 183 361 L 178 368 Q 189 379 204 387 L 206 387 L 213 382 L 183 361 Z M 241 363 L 224 379 Q 221 378 222 381 L 232 385 L 235 384 L 248 372 L 247 366 L 241 363 Z M 251 364 L 251 368 L 254 366 Q 255 363 251 364 Z M 261 364 L 252 373 L 254 386 L 264 377 L 262 367 Q 263 363 261 364 Z M 278 367 L 268 379 L 270 395 L 272 396 L 281 397 L 280 378 L 278 367 Z M 177 372 L 172 382 L 189 395 L 192 395 L 200 390 L 177 372 Z M 248 377 L 237 387 L 250 391 L 250 383 L 249 382 Q 251 376 248 377 Z M 303 379 L 288 398 L 307 398 L 305 384 L 303 379 Z M 265 382 L 255 392 Q 259 395 266 394 L 265 382 Z M 218 383 L 209 390 L 218 395 L 226 391 L 228 387 L 218 383 Z M 172 386 L 170 390 L 170 399 L 169 400 L 171 404 L 185 398 L 172 386 Z M 233 390 L 226 395 L 224 398 L 235 402 L 237 402 L 245 395 L 233 390 Z M 205 392 L 194 399 L 203 404 L 213 399 Q 215 400 214 398 L 205 392 Z M 250 396 L 241 404 L 250 406 L 251 407 L 251 397 L 250 396 Z M 255 397 L 255 408 L 264 410 L 266 410 L 266 400 L 265 398 L 255 397 Z M 219 400 L 208 407 L 219 412 Q 226 411 230 406 Q 232 407 231 404 L 219 400 Z M 270 400 L 270 410 L 279 402 Q 276 399 270 400 Z M 188 401 L 170 408 L 171 416 Q 187 413 199 407 L 191 401 L 188 401 Z M 285 402 L 285 413 L 305 414 L 306 413 L 307 404 L 306 402 L 285 402 Z M 281 406 L 275 412 L 281 412 L 281 406 Z M 236 407 L 225 415 L 247 422 L 251 422 L 251 411 Q 245 408 236 407 Z M 203 409 Q 189 417 173 420 L 173 424 L 177 430 Q 199 425 215 415 L 203 409 Z M 255 412 L 256 423 L 264 416 Q 266 417 265 414 L 255 412 Z M 272 415 Q 267 418 269 426 L 280 427 L 281 416 L 272 415 Z M 220 417 Q 202 428 178 434 Q 183 445 193 452 Q 227 445 250 427 L 236 423 L 220 417 Z M 285 417 L 284 424 Q 283 428 285 428 L 301 428 L 304 418 L 285 417 Z M 265 421 L 260 425 L 265 425 L 265 421 Z M 132 423 L 92 431 L 101 446 L 116 458 L 124 461 L 128 461 L 128 454 L 133 443 L 134 431 L 135 430 L 135 423 L 132 423 Z M 256 428 L 253 433 L 252 444 L 245 468 L 245 469 L 253 468 Q 262 452 264 429 L 256 428 Z M 268 430 L 264 452 L 259 465 L 260 466 L 270 462 Q 274 459 275 453 L 279 431 L 268 430 Z M 283 432 L 281 446 L 278 454 L 279 456 L 282 454 Q 292 445 299 433 L 283 432 Z M 248 433 Q 226 448 197 456 Q 206 463 220 467 L 230 469 L 240 469 L 244 459 L 249 439 Q 250 432 248 433 Z M 183 447 L 183 462 L 198 462 L 187 452 L 183 447 Z " /><path fill="rgb(92,93,94)" stroke="rgb(92,93,94)" stroke-width="1" opacity="0.9921568627450981" d="M 151.5 80 Q 156.3 80.3 158 83.5 Q 159.5 90.5 155.5 92 L 152.5 93 L 147 89.5 L 146 84.5 L 151.5 80 Z " /><path fill="rgb(92,93,94)" stroke="rgb(92,93,94)" stroke-width="1" opacity="0.9921568627450981" d="M 245.5 80 L 251 82.5 L 252 88.5 L 249.5 92 L 245.5 93 L 241 91 L 240 84.5 L 242.5 81 L 245.5 80 Z " /><path fill="rgb(92,93,94)" stroke="rgb(92,93,94)" stroke-width="1" opacity="0.9921568627450981" d="M 192.5 107 L 203.5 107 L 207 109.5 L 208 115.5 L 202.5 125 L 200 126.5 Q 198.1 135.9 202.5 139 Q 206 141.5 213.5 140 L 215 141.5 L 214.5 144 L 203.5 144 L 197.5 140 L 192.5 144 L 181 144 L 182.5 140 Q 191.9 141.9 195 137.5 Q 197.5 134 196 126.5 L 192 123.5 Q 188 119.5 188 111.5 L 190.5 108 L 192.5 107 Z " /><path fill="rgb(92,93,94)" stroke="rgb(92,93,94)" stroke-width="1" opacity="0.9921568627450981" d="M 132.5 126 L 156.5 132 L 164 135.5 L 162.5 138 L 136.5 131 L 131 127.5 L 132.5 126 Z " /><path fill="rgb(92,93,94)" stroke="rgb(92,93,94)" stroke-width="1" opacity="0.9921568627450981" d="M 260.5 126 Q 264.3 125.3 265 127.5 Q 265.8 129.8 263.5 129 L 233.5 138 L 232 135.5 L 233.5 134 L 260.5 126 Z " /><path fill="rgb(92,93,94)" stroke="rgb(92,93,94)" stroke-width="1" opacity="0.9921568627450981" d="M 160.5 146 L 164 147.5 L 162.5 150 L 132.5 154 L 131 151.5 L 132.5 150 L 159.5 147 L 160.5 146 Z " /><path fill="rgb(92,93,94)" stroke="rgb(92,93,94)" stroke-width="1" opacity="0.9921568627450981" d="M 233.5 146 L 263.5 150 L 265 151.5 L 263.5 154 L 238.5 151 L 232 148.5 L 233.5 146 Z " /><path fill="rgb(210,208,189)" stroke="rgb(210,208,189)" stroke-width="1" opacity="1" d="M 104.5 15 L 105.5 17 L 104.5 15 Z " /><path fill="rgb(210,208,189)" stroke="rgb(210,208,189)" stroke-width="1" opacity="1" d="M 291.5 15 L 290.5 17 L 291.5 15 Z " /><path fill="rgb(210,208,189)" stroke="rgb(210,208,189)" stroke-width="1" opacity="1" d="M 98.5 16 L 99 69.5 L 98 69.5 L 98.5 16 Z " /><path fill="rgb(210,208,189)" stroke="rgb(210,208,189)" stroke-width="1" opacity="1" d="M 297.5 16 L 298 69.5 L 297 69.5 L 297.5 16 Z " /><path fill="rgb(210,208,189)" stroke="rgb(210,208,189)" stroke-width="1" opacity="1" d="M 108.5 18 L 110.5 21 L 108.5 18 Z " /><path fill="rgb(210,208,189)" stroke="rgb(210,208,189)" stroke-width="1" opacity="1" d="M 286.5 19 L 285.5 21 L 286.5 19 Z " /><path fill="rgb(210,208,189)" stroke="rgb(210,208,189)" stroke-width="1" opacity="1" d="M 113.5 22 L 115.5 25 L 113.5 22 Z " /><path fill="rgb(210,208,189)" stroke="rgb(210,208,189)" stroke-width="1" opacity="1" d="M 281.5 23 L 280.5 25 L 281.5 23 Z " /><path fill="rgb(210,208,189)" stroke="rgb(210,208,189)" stroke-width="1" opacity="1" d="M 118.5 26 L 120.5 29 L 118.5 26 Z " /><path fill="rgb(210,208,189)" stroke="rgb(210,208,189)" stroke-width="1" opacity="1" d="M 276.5 27 L 275.5 29 L 276.5 27 Z " /><path fill="rgb(210,208,189)" stroke="rgb(210,208,189)" stroke-width="1" opacity="1" d="M 179.5 28 L 186 28.5 L 179.5 29 L 179.5 28 Z " /><path fill="rgb(210,208,189)" stroke="rgb(210,208,189)" stroke-width="1" opacity="1" d="M 210.5 28 L 217 28.5 L 210.5 29 L 210.5 28 Z " /><path fill="rgb(210,208,189)" stroke="rgb(210,208,189)" stroke-width="1" opacity="1" d="M 171.5 29 L 174 29.5 L 171.5 30 L 171.5 29 Z " /><path fill="rgb(210,208,189)" stroke="rgb(210,208,189)" stroke-width="1" opacity="1" d="M 222.5 29 L 225 29.5 L 222.5 30 L 222.5 29 Z " /><path fill="rgb(210,208,189)" stroke="rgb(210,208,189)" stroke-width="1" opacity="1" d="M 164.5 30 L 167 30.5 L 164.5 31 L 164.5 30 Z " /><path fill="rgb(210,208,189)" stroke="rgb(210,208,189)" stroke-width="1" opacity="1" d="M 229.5 30 L 232 30.5 L 229.5 31 L 229.5 30 Z " /><path fill="rgb(210,208,189)" stroke="rgb(210,208,189)" stroke-width="1" opacity="1" d="M 124.5 31 L 125.5 33 L 124.5 31 Z " /><path fill="rgb(210,208,189)" stroke="rgb(210,208,189)" stroke-width="1" opacity="1" d="M 159.5 31 L 162 31.5 L 159.5 32 L 159.5 31 Z " /><path fill="rgb(210,208,189)" stroke="rgb(210,208,189)" stroke-width="1" opacity="1" d="M 234.5 31 L 237 31.5 L 234.5 32 L 234.5 31 Z " /><path fill="rgb(210,208,189)" stroke="rgb(210,208,189)" stroke-width="1" opacity="1" d="M 271.5 31 L 270.5 33 L 271.5 31 Z " /><path fill="rgb(210,208,189)" stroke="rgb(210,208,189)" stroke-width="1" opacity="1" d="M 129.5 35 L 130.5 37 L 129.5 35 Z " /><path fill="rgb(210,208,189)" stroke="rgb(210,208,189)" stroke-width="1" opacity="1" d="M 266.5 35 L 265.5 37 L 266.5 35 Z " /><path fill="rgb(210,208,189)" stroke="rgb(210,208,189)" stroke-width="1" opacity="1" d="M 96.5 78 L 97 80.5 L 96 80.5 L 96.5 78 Z " /><path fill="rgb(210,208,189)" stroke="rgb(210,208,189)" stroke-width="1" opacity="1" d="M 148.5 81 L 146.5 84 L 148.5 81 Z " /><path fill="rgb(210,208,189)" stroke="rgb(210,208,189)" stroke-width="1" opacity="1" d="M 156.5 81 L 157.5 83 L 156.5 81 Z " /><path fill="rgb(210,208,189)" stroke="rgb(210,208,189)" stroke-width="1" opacity="1" d="M 158.5 84 L 159 87.5 L 158 87.5 L 158.5 84 Z " /><path fill="rgb(210,208,189)" stroke="rgb(210,208,189)" stroke-width="1" opacity="1" d="M 252.5 85 L 253 87.5 L 252 87.5 L 252.5 85 Z " /><path fill="rgb(210,208,189)" stroke="rgb(210,208,189)" stroke-width="1" opacity="1" d="M 146.5 88 L 149 91.5 L 146 89.5 L 146.5 88 Z " /><path fill="rgb(210,208,189)" stroke="rgb(210,208,189)" stroke-width="1" opacity="1" d="M 94.5 90 L 95 92.5 L 94 92.5 L 94.5 90 Z " /><path fill="rgb(210,208,189)" stroke="rgb(210,208,189)" stroke-width="1" opacity="1" d="M 301.5 90 L 302 92.5 L 301 92.5 L 301.5 90 Z " /><path fill="rgb(210,208,189)" stroke="rgb(210,208,189)" stroke-width="1" opacity="1" d="M 93.5 97 L 94 100.5 L 93 100.5 L 93.5 97 Z " /><path fill="rgb(210,208,189)" stroke="rgb(210,208,189)" stroke-width="1" opacity="1" d="M 302.5 97 L 303 100.5 L 302 100.5 L 302.5 97 Z " /><path fill="rgb(210,208,189)" stroke="rgb(210,208,189)" stroke-width="1" opacity="1" d="M 92.5 106 L 93 111.5 L 92 111.5 L 92.5 106 Z " /><path fill="rgb(210,208,189)" stroke="rgb(210,208,189)" stroke-width="1" opacity="1" d="M 194.5 106 L 202 106.5 L 194.5 107 L 194.5 106 Z " /><path fill="rgb(210,208,189)" stroke="rgb(210,208,189)" stroke-width="1" opacity="1" d="M 303.5 106 L 304 111.5 L 303 111.5 L 303.5 106 Z " /><path fill="rgb(210,208,189)" stroke="rgb(210,208,189)" stroke-width="1" opacity="1" d="M 92.5 120 L 93 124.5 L 92 124.5 L 92.5 120 Z " /><path fill="rgb(210,208,189)" stroke="rgb(210,208,189)" stroke-width="1" opacity="1" d="M 303.5 120 L 304 124.5 L 303 124.5 L 303.5 120 Z " /><path fill="rgb(210,208,189)" stroke="rgb(210,208,189)" stroke-width="1" opacity="1" d="M 190.5 121 L 191.5 123 L 190.5 121 Z " /><path fill="rgb(210,208,189)" stroke="rgb(210,208,189)" stroke-width="1" opacity="1" d="M 205.5 121 L 204.5 123 L 205.5 121 Z " /><path fill="rgb(210,208,189)" stroke="rgb(210,208,189)" stroke-width="1" opacity="1" d="M 262.5 125 L 265 126.5 L 263.5 126 L 262.5 125 Z " /><path fill="rgb(210,208,189)" stroke="rgb(210,208,189)" stroke-width="1" opacity="1" d="M 131.5 128 L 132.5 130 L 131.5 128 Z " /><path fill="rgb(210,208,189)" stroke="rgb(210,208,189)" stroke-width="1" opacity="1" d="M 194.5 137 L 193.5 139 L 194.5 137 Z " /><path fill="rgb(210,208,189)" stroke="rgb(210,208,189)" stroke-width="1" opacity="1" d="M 201.5 137 L 202.5 139 L 201.5 137 Z " /><path fill="rgb(210,208,189)" stroke="rgb(210,208,189)" stroke-width="1" opacity="1" d="M 181.5 140 L 181 141.5 L 180.5 143 L 180 141.5 L 181.5 140 Z " /><path fill="rgb(210,208,189)" stroke="rgb(210,208,189)" stroke-width="1" opacity="1" d="M 197.5 140 L 201 142.5 L 198.5 141 L 196.5 142 L 197.5 140 Z " /><path fill="rgb(210,208,189)" stroke="rgb(210,208,189)" stroke-width="1" opacity="1" d="M 182.5 144 L 191 144.5 L 182.5 145 L 182.5 144 Z " /><path fill="rgb(210,208,189)" stroke="rgb(210,208,189)" stroke-width="1" opacity="1" d="M 205.5 144 L 214 144.5 L 205.5 145 L 205.5 144 Z " /><path fill="rgb(210,208,189)" stroke="rgb(210,208,189)" stroke-width="1" opacity="1" d="M 156.5 146 L 160 146.5 L 156.5 147 L 156.5 146 Z " /><path fill="rgb(210,208,189)" stroke="rgb(210,208,189)" stroke-width="1" opacity="1" d="M 236.5 146 L 240 146.5 L 236.5 147 L 236.5 146 Z " /><path fill="rgb(210,208,189)" stroke="rgb(210,208,189)" stroke-width="1" opacity="1" d="M 149.5 147 L 152 147.5 L 149.5 148 L 149.5 147 Z " /><path fill="rgb(210,208,189)" stroke="rgb(210,208,189)" stroke-width="1" opacity="1" d="M 243.5 147 L 247 147.5 L 243.5 148 L 243.5 147 Z " /><path fill="rgb(210,208,189)" stroke="rgb(210,208,189)" stroke-width="1" opacity="1" d="M 142.5 148 L 145 148.5 L 142.5 149 L 142.5 148 Z " /><path fill="rgb(210,208,189)" stroke="rgb(210,208,189)" stroke-width="1" opacity="1" d="M 251.5 148 L 254 148.5 L 251.5 149 L 251.5 148 Z " /><path fill="rgb(210,208,189)" stroke="rgb(210,208,189)" stroke-width="1" opacity="1" d="M 135.5 149 L 138 149.5 L 135.5 150 L 135.5 149 Z " /><path fill="rgb(210,208,189)" stroke="rgb(210,208,189)" stroke-width="1" opacity="1" d="M 258.5 149 L 261 149.5 L 258.5 150 L 258.5 149 Z " /><path fill="rgb(210,208,189)" stroke="rgb(210,208,189)" stroke-width="1" opacity="1" d="M 158.5 150 L 162 150.5 L 158.5 151 L 158.5 150 Z " /><path fill="rgb(210,208,189)" stroke="rgb(210,208,189)" stroke-width="1" opacity="1" d="M 234.5 150 L 238 150.5 L 234.5 151 L 234.5 150 Z " /><path fill="rgb(210,208,189)" stroke="rgb(210,208,189)" stroke-width="1" opacity="1" d="M 151.5 151 L 155 151.5 L 151.5 152 L 151.5 151 Z " /><path fill="rgb(210,208,189)" stroke="rgb(210,208,189)" stroke-width="1" opacity="1" d="M 241.5 151 L 245 151.5 L 241.5 152 L 241.5 151 Z " /><path fill="rgb(210,208,189)" stroke="rgb(210,208,189)" stroke-width="1" opacity="1" d="M 144.5 152 L 147 152.5 L 144.5 153 L 144.5 152 Z " /><path fill="rgb(210,208,189)" stroke="rgb(210,208,189)" stroke-width="1" opacity="1" d="M 249.5 152 L 252 152.5 L 249.5 153 L 249.5 152 Z " /><path fill="rgb(210,208,189)" stroke="rgb(210,208,189)" stroke-width="1" opacity="1" d="M 137.5 153 L 140 153.5 L 137.5 154 L 137.5 153 Z " /><path fill="rgb(210,208,189)" stroke="rgb(210,208,189)" stroke-width="1" opacity="1" d="M 256.5 153 L 259 153.5 L 256.5 154 L 256.5 153 Z " /><path fill="rgb(210,208,189)" stroke="rgb(210,208,189)" stroke-width="1" opacity="1" d="M 108.5 163 L 110.5 166 L 108.5 163 Z " /><path fill="rgb(210,208,189)" stroke="rgb(210,208,189)" stroke-width="1" opacity="1" d="M 287.5 163 L 285.5 166 L 287.5 163 Z " /><path fill="rgb(210,208,189)" stroke="rgb(210,208,189)" stroke-width="1" opacity="1" d="M 119.5 174 L 121.5 177 L 119.5 174 Z " /><path fill="rgb(210,208,189)" stroke="rgb(210,208,189)" stroke-width="1" opacity="1" d="M 276.5 174 L 274.5 177 L 276.5 174 Z " /><path fill="rgb(210,208,189)" stroke="rgb(210,208,189)" stroke-width="1" opacity="1" d="M 124.5 178 L 125.5 180 L 124.5 178 Z " /><path fill="rgb(210,208,189)" stroke="rgb(210,208,189)" stroke-width="1" opacity="1" d="M 271.5 178 L 270.5 180 L 271.5 178 Z " /><path fill="rgb(210,208,189)" stroke="rgb(210,208,189)" stroke-width="1" opacity="1" d="M 127.5 180 L 128.5 182 L 127.5 180 Z " /><path fill="rgb(210,208,189)" stroke="rgb(210,208,189)" stroke-width="1" opacity="1" d="M 268.5 180 L 267.5 182 L 268.5 180 Z " /><path fill="rgb(210,208,189)" stroke="rgb(210,208,189)" stroke-width="1" opacity="1" d="M 121.5 181 L 122.5 183 L 121.5 181 Z " /><path fill="rgb(210,208,189)" stroke="rgb(210,208,189)" stroke-width="1" opacity="1" d="M 274.5 181 L 273.5 183 L 274.5 181 Z " /><path fill="rgb(210,208,189)" stroke="rgb(210,208,189)" stroke-width="1" opacity="1" d="M 124.5 183 L 125.5 185 L 124.5 183 Z " /><path fill="rgb(210,208,189)" stroke="rgb(210,208,189)" stroke-width="1" opacity="1" d="M 118.5 184 L 117.5 186 L 118.5 184 Z " /><path fill="rgb(210,208,189)" stroke="rgb(210,208,189)" stroke-width="1" opacity="1" d="M 277.5 184 L 278.5 186 L 277.5 184 Z " /><path fill="rgb(210,208,189)" stroke="rgb(210,208,189)" stroke-width="1" opacity="1" d="M 315.5 282 L 316 284.5 L 315 284.5 L 315.5 282 Z " /><path fill="rgb(210,208,189)" stroke="rgb(210,208,189)" stroke-width="1" opacity="1" d="M 79.5 287 L 80 289.5 L 79 289.5 L 79.5 287 Z " /><path fill="rgb(210,208,189)" stroke="rgb(210,208,189)" stroke-width="1" opacity="1" d="M 316.5 287 L 317 289.5 L 316 289.5 L 316.5 287 Z " /><path fill="rgb(210,208,189)" stroke="rgb(210,208,189)" stroke-width="1" opacity="1" d="M 317.5 292 L 318 294.5 L 317 294.5 L 317.5 292 Z " /><path fill="rgb(210,208,189)" stroke="rgb(210,208,189)" stroke-width="1" opacity="1" d="M 77.5 298 L 78 300.5 L 77 300.5 L 77.5 298 Z " /><path fill="rgb(210,208,189)" stroke="rgb(210,208,189)" stroke-width="1" opacity="1" d="M 318.5 298 L 319 300.5 L 318 300.5 L 318.5 298 Z " /><path fill="rgb(210,208,189)" stroke="rgb(210,208,189)" stroke-width="1" opacity="1" d="M 234.5 303 L 233.5 305 L 234.5 303 Z " /><path fill="rgb(210,208,189)" stroke="rgb(210,208,189)" stroke-width="1" opacity="1" d="M 76.5 304 L 77 307.5 L 76 307.5 L 76.5 304 Z " /><path fill="rgb(210,208,189)" stroke="rgb(210,208,189)" stroke-width="1" opacity="1" d="M 243.5 304 L 246 304.5 L 243.5 305 L 243.5 304 Z " /><path fill="rgb(210,208,189)" stroke="rgb(210,208,189)" stroke-width="1" opacity="1" d="M 253.5 304 L 256 304.5 L 253.5 305 L 253.5 304 Z " /><path fill="rgb(210,208,189)" stroke="rgb(210,208,189)" stroke-width="1" opacity="1" d="M 319.5 304 L 320 307.5 L 319 307.5 L 319.5 304 Z " /><path fill="rgb(210,208,189)" stroke="rgb(210,208,189)" stroke-width="1" opacity="1" d="M 268.5 305 L 269.5 307 L 268.5 305 Z " /><path fill="rgb(210,208,189)" stroke="rgb(210,208,189)" stroke-width="1" opacity="1" d="M 231.5 306 L 230.5 308 L 231.5 306 Z " /><path fill="rgb(210,208,189)" stroke="rgb(210,208,189)" stroke-width="1" opacity="1" d="M 237.5 306 L 236.5 308 L 237.5 306 Z " /><path fill="rgb(210,208,189)" stroke="rgb(210,208,189)" stroke-width="1" opacity="1" d="M 265.5 308 L 266.5 310 L 265.5 308 Z " /><path fill="rgb(210,208,189)" stroke="rgb(210,208,189)" stroke-width="1" opacity="1" d="M 411.5 308 L 414 308.5 L 411.5 309 L 411.5 308 Z " /><path fill="rgb(210,208,189)" stroke="rgb(210,208,189)" stroke-width="1" opacity="1" d="M 234.5 309 L 233.5 311 L 234.5 309 Z " /><path fill="rgb(210,208,189)" stroke="rgb(210,208,189)" stroke-width="1" opacity="1" d="M 401.5 310 L 399.5 313 L 401.5 310 Z " /><path fill="rgb(210,208,189)" stroke="rgb(210,208,189)" stroke-width="1" opacity="1" d="M 320.5 311 L 321 315.5 L 320 315.5 L 320.5 311 Z " /><path fill="rgb(210,208,189)" stroke="rgb(210,208,189)" stroke-width="1" opacity="1" d="M 421.5 311 L 422.5 313 L 421.5 311 Z " /><path fill="rgb(210,208,189)" stroke="rgb(210,208,189)" stroke-width="1" opacity="1" d="M 75.5 312 L 76 315.5 L 75 315.5 L 75.5 312 Z " /><path fill="rgb(210,208,189)" stroke="rgb(210,208,189)" stroke-width="1" opacity="1" d="M 227.5 313 L 228 315.5 L 227 315.5 L 227.5 313 Z " /><path fill="rgb(210,208,189)" stroke="rgb(210,208,189)" stroke-width="1" opacity="1" d="M 424.5 313 L 425.5 315 L 424.5 313 Z " /><path fill="rgb(210,208,189)" stroke="rgb(210,208,189)" stroke-width="1" opacity="1" d="M 231.5 315 L 232 319.5 L 231 319.5 L 231.5 315 Z " /><path fill="rgb(210,208,189)" stroke="rgb(210,208,189)" stroke-width="1" opacity="1" d="M 273.5 315 L 274 318.5 L 273 318.5 L 273.5 315 Z " /><path fill="rgb(210,208,189)" stroke="rgb(210,208,189)" stroke-width="1" opacity="1" d="M 429.5 317 L 432.5 321 L 429.5 317 Z " /><path fill="rgb(210,208,189)" stroke="rgb(210,208,189)" stroke-width="1" opacity="1" d="M 269.5 318 L 270 321.5 L 269 321.5 L 269.5 318 Z " /><path fill="rgb(210,208,189)" stroke="rgb(210,208,189)" stroke-width="1" opacity="1" d="M 74.5 320 L 75 325.5 L 74 325.5 L 74.5 320 Z " /><path fill="rgb(210,208,189)" stroke="rgb(210,208,189)" stroke-width="1" opacity="1" d="M 321.5 320 L 322 325.5 L 321 325.5 L 321.5 320 Z " /><path fill="rgb(210,208,189)" stroke="rgb(210,208,189)" stroke-width="1" opacity="1" d="M 396.5 321 L 397 324.5 L 396 324.5 L 396.5 321 Z " /><path fill="rgb(210,208,189)" stroke="rgb(210,208,189)" stroke-width="1" opacity="1" d="M 274.5 324 L 275 326.5 L 274 326.5 L 274.5 324 Z " /><path fill="rgb(210,208,189)" stroke="rgb(210,208,189)" stroke-width="1" opacity="1" d="M 435.5 324 L 436.5 326 L 435.5 324 Z " /><path fill="rgb(210,208,189)" stroke="rgb(210,208,189)" stroke-width="1" opacity="1" d="M 118.5 325 L 121 325.5 L 118 326 L 117.5 330 L 117 326.5 L 118.5 325 Z " /><path fill="rgb(210,208,189)" stroke="rgb(210,208,189)" stroke-width="1" opacity="1" d="M 177.5 325 L 181 326.5 L 180.5 331 L 180 326 Q 175.9 324.3 177 328.5 L 176 328.5 L 177.5 325 Z " /><path fill="rgb(210,208,189)" stroke="rgb(210,208,189)" stroke-width="1" opacity="1" d="M 226.5 325 L 227 328.5 L 226 328.5 L 226.5 325 Z " /><path fill="rgb(210,208,189)" stroke="rgb(210,208,189)" stroke-width="1" opacity="1" d="M 230.5 329 L 231 331.5 L 230 331.5 L 230.5 329 Z " /><path fill="rgb(210,208,189)" stroke="rgb(210,208,189)" stroke-width="1" opacity="1" d="M 397.5 329 L 398 331.5 L 397 331.5 L 397.5 329 Z " /><path fill="rgb(210,208,189)" stroke="rgb(210,208,189)" stroke-width="1" opacity="1" d="M 73.5 333 L 74 362.5 L 73 362.5 L 73.5 333 Z " /><path fill="rgb(210,208,189)" stroke="rgb(210,208,189)" stroke-width="1" opacity="1" d="M 175.5 333 L 176 335.5 L 175 335.5 L 175.5 333 Z " /><path fill="rgb(210,208,189)" stroke="rgb(210,208,189)" stroke-width="1" opacity="1" d="M 223.5 333 Q 227.3 331.8 226 335.5 L 225 336.5 L 225 351.5 L 229.5 359 L 235 361 L 235 362.5 L 224.5 373 Q 221.7 377.2 215.5 378 Q 198.4 369.6 185 357.5 L 193.5 348 Q 205.7 337.7 223.5 333 Z " /><path fill="rgb(210,208,189)" stroke="rgb(210,208,189)" stroke-width="1" opacity="1" d="M 322.5 333 L 323 362.5 L 322 362.5 L 322.5 333 Z " /><path fill="rgb(210,208,189)" stroke="rgb(210,208,189)" stroke-width="1" opacity="1" d="M 179.5 335 L 180 337.5 L 179 337.5 L 179.5 335 Z " /><path fill="rgb(210,208,189)" stroke="rgb(210,208,189)" stroke-width="1" opacity="1" d="M 229.5 335 L 230 338.5 L 229 338.5 L 229.5 335 Z " /><path fill="rgb(210,208,189)" stroke="rgb(210,208,189)" stroke-width="1" opacity="1" d="M 398.5 335 L 399 337.5 L 398 337.5 L 398.5 335 Z " /><path fill="rgb(210,208,189)" stroke="rgb(210,208,189)" stroke-width="1" opacity="1" d="M 201.5 337 L 200.5 339 L 201.5 337 Z " /><path fill="rgb(210,208,189)" stroke="rgb(210,208,189)" stroke-width="1" opacity="1" d="M 174.5 340 L 175 343.5 L 174 343.5 L 174.5 340 Z " /><path fill="rgb(210,208,189)" stroke="rgb(210,208,189)" stroke-width="1" opacity="1" d="M 275.5 340 L 276 342.5 L 275 342.5 L 275.5 340 Z " /><path fill="rgb(210,208,189)" stroke="rgb(210,208,189)" stroke-width="1" opacity="1" d="M 195.5 341 L 194.5 343 L 195.5 341 Z " /><path fill="rgb(210,208,189)" stroke="rgb(210,208,189)" stroke-width="1" opacity="1" d="M 399.5 341 L 400 343 Q 429.3 347.5 445 366.5 L 450 373.5 L 450 380.5 Q 447.9 393.4 442.5 403 Q 438.1 382.9 424.5 372 Q 415.9 363.6 400.5 362 L 399 362.5 L 400 359.5 L 400 344.5 L 399.5 341 Z " /><path fill="rgb(210,208,189)" stroke="rgb(210,208,189)" stroke-width="1" opacity="1" d="M 178.5 342 L 179 345.5 L 178 345.5 L 178.5 342 Z " /><path fill="rgb(210,208,189)" stroke="rgb(210,208,189)" stroke-width="1" opacity="1" d="M 283.5 343 L 286.5 347 L 283.5 343 Z " /><path fill="rgb(210,208,189)" stroke="rgb(210,208,189)" stroke-width="1" opacity="1" d="M 191.5 344 L 182.5 354 L 191.5 344 Z " /><path fill="rgb(210,208,189)" stroke="rgb(210,208,189)" stroke-width="1" opacity="1" d="M 280 347 L 284 349.5 L 280.5 356 L 280 347 Z " /><path fill="rgb(210,208,189)" stroke="rgb(210,208,189)" stroke-width="1" opacity="1" d="M 173.5 348 L 174 365.5 L 173 365.5 L 173.5 348 Z " /><path fill="rgb(210,208,189)" stroke="rgb(210,208,189)" stroke-width="1" opacity="1" d="M 448.5 351 L 449 353.5 L 448 353.5 L 448.5 351 Z " /><path fill="rgb(210,208,189)" stroke="rgb(210,208,189)" stroke-width="1" opacity="1" d="M 177.5 352 L 178 359.5 L 177 359.5 L 177.5 352 Z " /><path fill="rgb(210,208,189)" stroke="rgb(210,208,189)" stroke-width="1" opacity="1" d="M 292.5 352 L 295.5 356 L 292.5 352 Z " /><path fill="rgb(210,208,189)" stroke="rgb(210,208,189)" stroke-width="1" opacity="1" d="M 287.5 353 Q 296.7 360.8 301 373.5 L 285.5 395 L 284 377.5 L 281 362.5 L 287.5 353 Z " /><path fill="rgb(210,208,189)" stroke="rgb(210,208,189)" stroke-width="1" opacity="1" d="M 449.5 356 L 450 359.5 L 449 359.5 L 449.5 356 Z " /><path fill="rgb(210,208,189)" stroke="rgb(210,208,189)" stroke-width="1" opacity="1" d="M 296.5 357 L 297.5 359 L 296.5 357 Z " /><path fill="rgb(210,208,189)" stroke="rgb(210,208,189)" stroke-width="1" opacity="1" d="M 243.5 359 L 246 359.5 L 243.5 360 L 243.5 359 Z " /><path fill="rgb(210,208,189)" stroke="rgb(210,208,189)" stroke-width="1" opacity="1" d="M 261.5 359 L 264 359.5 L 261.5 360 L 261.5 359 Z " /><path fill="rgb(210,208,189)" stroke="rgb(210,208,189)" stroke-width="1" opacity="1" d="M 274.5 360 Q 277.1 359.2 276 362.5 L 269 372 Q 265.3 373.4 267 367.5 L 266 363 L 274.5 360 Z " /><path fill="rgb(210,208,189)" stroke="rgb(210,208,189)" stroke-width="1" opacity="1" d="M 182.5 361 L 213 381.5 L 205.5 387 L 203.5 387 Q 189.1 378.9 178 367.5 L 182.5 361 Z " /><path fill="rgb(210,208,189)" stroke="rgb(210,208,189)" stroke-width="1" opacity="1" d="M 240.5 363 L 247 365.5 L 248 371.5 L 234.5 384 L 231.5 385 L 222 380.5 Q 221.3 378.3 223.5 379 L 240.5 363 Z " /><path fill="rgb(210,208,189)" stroke="rgb(210,208,189)" stroke-width="1" opacity="1" d="M 300.5 363 L 301.5 365 L 300.5 363 Z " /><path fill="rgb(210,208,189)" stroke="rgb(210,208,189)" stroke-width="1" opacity="1" d="M 251 364 Q 254.8 362.5 254 365.5 L 251 367.5 L 251 364 Z " /><path fill="rgb(210,208,189)" stroke="rgb(210,208,189)" stroke-width="1" opacity="1" d="M 260.5 364 Q 263.1 363.2 262 366.5 L 264 376.5 L 254 385.5 L 252 372.5 L 260.5 364 Z " /><path fill="rgb(210,208,189)" stroke="rgb(210,208,189)" stroke-width="1" opacity="1" d="M 398.5 366 L 399 368.5 L 398 368.5 L 398.5 366 Z " /><path fill="rgb(210,208,189)" stroke="rgb(210,208,189)" stroke-width="1" opacity="1" d="M 277.5 367 L 280 377.5 L 281 397 L 271.5 396 L 270 394.5 L 268 378.5 L 277.5 367 Z " /><path fill="rgb(210,208,189)" stroke="rgb(210,208,189)" stroke-width="1" opacity="1" d="M 74.5 370 L 75 374.5 L 74 374.5 L 74.5 370 Z " /><path fill="rgb(210,208,189)" stroke="rgb(210,208,189)" stroke-width="1" opacity="1" d="M 321.5 370 L 322 374.5 L 321 374.5 L 321.5 370 Z " /><path fill="rgb(210,208,189)" stroke="rgb(210,208,189)" stroke-width="1" opacity="1" d="M 176.5 372 L 200 389.5 L 191.5 395 L 188.5 395 L 172 381.5 L 176.5 372 Z " /><path fill="rgb(210,208,189)" stroke="rgb(210,208,189)" stroke-width="1" opacity="1" d="M 247.5 377 Q 250.9 376.1 249 381.5 L 250 382.5 L 250 391 L 237 386.5 L 247.5 377 Z " /><path fill="rgb(210,208,189)" stroke="rgb(210,208,189)" stroke-width="1" opacity="1" d="M 75.5 379 L 76 381.5 L 75 381.5 L 75.5 379 Z " /><path fill="rgb(210,208,189)" stroke="rgb(210,208,189)" stroke-width="1" opacity="1" d="M 302.5 379 L 305 383.5 L 307 398 L 288 397.5 L 302.5 379 Z " /><path fill="rgb(210,208,189)" stroke="rgb(210,208,189)" stroke-width="1" opacity="1" d="M 320.5 379 L 321 381.5 L 320 381.5 L 320.5 379 Z " /><path fill="rgb(210,208,189)" stroke="rgb(210,208,189)" stroke-width="1" opacity="1" d="M 264.5 382 L 266 394 Q 258.9 394.9 255 391.5 L 264.5 382 Z " /><path fill="rgb(210,208,189)" stroke="rgb(210,208,189)" stroke-width="1" opacity="1" d="M 217.5 383 L 228 387 L 225.5 391 L 217.5 395 L 209 389.5 L 217.5 383 Z " /><path fill="rgb(210,208,189)" stroke="rgb(210,208,189)" stroke-width="1" opacity="1" d="M 76.5 385 L 77 387.5 L 76 387.5 L 76.5 385 Z " /><path fill="rgb(210,208,189)" stroke="rgb(210,208,189)" stroke-width="1" opacity="1" d="M 319.5 385 L 320 387.5 L 319 387.5 L 319.5 385 Z " /><path fill="rgb(210,208,189)" stroke="rgb(210,208,189)" stroke-width="1" opacity="1" d="M 166.5 386 L 167 388.5 L 166 388.5 L 166.5 386 Z " /><path fill="rgb(210,208,189)" stroke="rgb(210,208,189)" stroke-width="1" opacity="1" d="M 171.5 386 L 185 397.5 L 170.5 404 L 169 399.5 L 170 398.5 L 170 389.5 L 171.5 386 Z " /><path fill="rgb(210,208,189)" stroke="rgb(210,208,189)" stroke-width="1" opacity="1" d="M 77.5 390 L 78 392.5 L 77 392.5 L 77.5 390 Z " /><path fill="rgb(210,208,189)" stroke="rgb(210,208,189)" stroke-width="1" opacity="1" d="M 136.5 390 L 137 392.5 L 136 392.5 L 136.5 390 Z " /><path fill="rgb(210,208,189)" stroke="rgb(210,208,189)" stroke-width="1" opacity="1" d="M 232.5 390 L 245 394.5 L 236.5 402 L 234.5 402 L 224 398 L 225.5 395 L 232.5 390 Z " /><path fill="rgb(210,208,189)" stroke="rgb(210,208,189)" stroke-width="1" opacity="1" d="M 310.5 391 L 311 395.5 L 310 395.5 L 310.5 391 Z " /><path fill="rgb(210,208,189)" stroke="rgb(210,208,189)" stroke-width="1" opacity="1" d="M 389.5 391 Q 399.3 400.7 405 414.5 L 408 424.5 L 409.5 439 L 411 438.5 L 390.5 450 L 390 445.5 L 391 444.5 L 391 434.5 L 388 421.5 Q 384.6 412.4 378 406.5 L 389.5 391 Z " /><path fill="rgb(210,208,189)" stroke="rgb(210,208,189)" stroke-width="1" opacity="1" d="M 204.5 392 L 214 397.5 Q 214.8 399.8 212.5 399 L 202.5 404 L 194 398.5 L 204.5 392 Z " /><path fill="rgb(210,208,189)" stroke="rgb(210,208,189)" stroke-width="1" opacity="1" d="M 165.5 394 L 166 407.5 L 165 407.5 L 165.5 394 Z " /><path fill="rgb(210,208,189)" stroke="rgb(210,208,189)" stroke-width="1" opacity="1" d="M 137.5 396 L 138 398.5 L 137 398.5 L 137.5 396 Z " /><path fill="rgb(210,208,189)" stroke="rgb(210,208,189)" stroke-width="1" opacity="1" d="M 249.5 396 L 251 396.5 L 251 406.5 L 249.5 406 L 241 403.5 L 249.5 396 Z " /><path fill="rgb(210,208,189)" stroke="rgb(210,208,189)" stroke-width="1" opacity="1" d="M 255 397 L 264.5 398 L 266 399.5 L 266 409.5 L 263.5 410 L 255 408 L 255 397 Z " /><path fill="rgb(210,208,189)" stroke="rgb(210,208,189)" stroke-width="1" opacity="1" d="M 133.5 398 L 134 401.5 L 133 401.5 L 133.5 398 Z " /><path fill="rgb(210,208,189)" stroke="rgb(210,208,189)" stroke-width="1" opacity="1" d="M 218.5 400 L 231 404 Q 232.1 406.7 229.5 406 Q 225.7 410.7 218.5 412 L 208 406.5 L 218.5 400 Z " /><path fill="rgb(210,208,189)" stroke="rgb(210,208,189)" stroke-width="1" opacity="1" d="M 270 400 Q 276.2 398.7 279 401.5 L 270 409.5 L 270 400 Z " /><path fill="rgb(210,208,189)" stroke="rgb(210,208,189)" stroke-width="1" opacity="1" d="M 187.5 401 L 190.5 401 L 199 406.5 Q 186.8 413.4 171 416 L 170 408 L 187.5 401 Z " /><path fill="rgb(210,208,189)" stroke="rgb(210,208,189)" stroke-width="1" opacity="1" d="M 285 402 L 305.5 402 L 307 403.5 L 306 412.5 L 304.5 414 L 285 413 L 285 402 Z " /><path fill="rgb(210,208,189)" stroke="rgb(210,208,189)" stroke-width="1" opacity="1" d="M 138.5 405 L 139 410.5 L 138 410.5 L 138.5 405 Z " /><path fill="rgb(210,208,189)" stroke="rgb(210,208,189)" stroke-width="1" opacity="1" d="M 310.5 405 L 311 409.5 L 310 409.5 L 310.5 405 Z " /><path fill="rgb(210,208,189)" stroke="rgb(210,208,189)" stroke-width="1" opacity="1" d="M 280.5 406 L 281 412 L 275 411.5 L 280.5 406 Z " /><path fill="rgb(210,208,189)" stroke="rgb(210,208,189)" stroke-width="1" opacity="1" d="M 440.5 406 L 439.5 408 L 440.5 406 Z " /><path fill="rgb(210,208,189)" stroke="rgb(210,208,189)" stroke-width="1" opacity="1" d="M 235.5 407 Q 244.9 407.8 251 411 L 251 422 L 246.5 422 L 225 414.5 L 235.5 407 Z " /><path fill="rgb(210,208,189)" stroke="rgb(210,208,189)" stroke-width="1" opacity="1" d="M 134.5 408 L 135 418.5 L 134 418.5 L 134.5 408 Z " /><path fill="rgb(210,208,189)" stroke="rgb(210,208,189)" stroke-width="1" opacity="1" d="M 375.5 408 L 373.5 411 L 375.5 408 Z " /><path fill="rgb(210,208,189)" stroke="rgb(210,208,189)" stroke-width="1" opacity="1" d="M 202.5 409 L 215 414.5 Q 198.8 425.3 176.5 430 L 173 423.5 L 173 420 Q 189.4 416.7 202.5 409 Z " /><path fill="rgb(210,208,189)" stroke="rgb(210,208,189)" stroke-width="1" opacity="1" d="M 255 412 L 265 414 Q 266.1 416.7 263.5 416 L 255.5 423 L 255 412 Z " /><path fill="rgb(210,208,189)" stroke="rgb(210,208,189)" stroke-width="1" opacity="1" d="M 370.5 412 L 369.5 414 L 370.5 412 Z " /><path fill="rgb(210,208,189)" stroke="rgb(210,208,189)" stroke-width="1" opacity="1" d="M 309.5 413 L 310 415.5 L 309 415.5 L 309.5 413 Z " /><path fill="rgb(210,208,189)" stroke="rgb(210,208,189)" stroke-width="1" opacity="1" d="M 367.5 414 L 366.5 416 L 367.5 414 Z " /><path fill="rgb(210,208,189)" stroke="rgb(210,208,189)" stroke-width="1" opacity="1" d="M 271.5 415 L 281 416 L 280 427 L 269 426 Q 267.3 418 271.5 415 Z " /><path fill="rgb(210,208,189)" stroke="rgb(210,208,189)" stroke-width="1" opacity="1" d="M 434.5 415 L 433.5 417 L 434.5 415 Z " /><path fill="rgb(210,208,189)" stroke="rgb(210,208,189)" stroke-width="1" opacity="1" d="M 219.5 417 L 235.5 423 L 250 426.5 Q 226.9 444.9 192.5 452 Q 183.4 444.6 178 433.5 Q 201.9 428.4 219.5 417 Z " /><path fill="rgb(210,208,189)" stroke="rgb(210,208,189)" stroke-width="1" opacity="1" d="M 285 417 L 304 418 L 300.5 428 L 284.5 428 Q 283.5 428 284 423.5 L 285 417 Z " /><path fill="rgb(210,208,189)" stroke="rgb(210,208,189)" stroke-width="1" opacity="1" d="M 308.5 418 L 310 420.5 L 308 419.5 L 308.5 418 Z " /><path fill="rgb(210,208,189)" stroke="rgb(210,208,189)" stroke-width="1" opacity="1" d="M 431.5 419 L 428.5 423 L 431.5 419 Z " /><path fill="rgb(210,208,189)" stroke="rgb(210,208,189)" stroke-width="1" opacity="1" d="M 119.5 421 L 122 421.5 L 119.5 422 L 119.5 421 Z " /><path fill="rgb(210,208,189)" stroke="rgb(210,208,189)" stroke-width="1" opacity="1" d="M 264.5 421 L 265 425 L 260 424.5 L 264.5 421 Z " /><path fill="rgb(210,208,189)" stroke="rgb(210,208,189)" stroke-width="1" opacity="1" d="M 352.5 421 L 354 421.5 L 352 422 L 351 445.5 L 348 455.5 L 345.5 459 L 322 458.5 L 327 456.5 L 333 442.5 L 334 426.5 L 333.5 425 L 344.5 424 L 352.5 421 Z " /><path fill="rgb(210,208,189)" stroke="rgb(210,208,189)" stroke-width="1" opacity="1" d="M 113.5 422 L 116 422.5 L 113.5 423 L 113.5 422 Z " /><path fill="rgb(210,208,189)" stroke="rgb(210,208,189)" stroke-width="1" opacity="1" d="M 134.5 423 L 135 429.5 L 134 429.5 L 134.5 423 Z " /><path fill="rgb(210,208,189)" stroke="rgb(210,208,189)" stroke-width="1" opacity="1" d="M 101.5 424 L 104 424.5 L 101.5 425 L 101.5 424 Z " /><path fill="rgb(210,208,189)" stroke="rgb(210,208,189)" stroke-width="1" opacity="1" d="M 126.5 424 L 129 424.5 L 126.5 425 L 126.5 424 Z " /><path fill="rgb(210,208,189)" stroke="rgb(210,208,189)" stroke-width="1" opacity="1" d="M 307.5 424 L 307 425.5 L 305.5 429 L 305 427.5 L 307.5 424 Z " /><path fill="rgb(210,208,189)" stroke="rgb(210,208,189)" stroke-width="1" opacity="1" d="M 322.5 424 L 326 424.5 L 322.5 425 L 322.5 424 Z " /><path fill="rgb(210,208,189)" stroke="rgb(210,208,189)" stroke-width="1" opacity="1" d="M 89.5 426 L 90.5 428 L 89.5 426 Z " /><path fill="rgb(210,208,189)" stroke="rgb(210,208,189)" stroke-width="1" opacity="1" d="M 138.5 426 L 139 432.5 L 138 432.5 L 138.5 426 Z " /><path fill="rgb(210,208,189)" stroke="rgb(210,208,189)" stroke-width="1" opacity="1" d="M 103.5 428 L 106 428.5 L 103.5 429 L 103.5 428 Z " /><path fill="rgb(210,208,189)" stroke="rgb(210,208,189)" stroke-width="1" opacity="1" d="M 255.5 428 L 264 429 Q 262.2 451.9 252.5 468 L 244.5 469 L 245 467.5 L 252 443.5 L 253 432.5 L 255.5 428 Z " /><path fill="rgb(210,208,189)" stroke="rgb(210,208,189)" stroke-width="1" opacity="1" d="M 268 430 L 279 431 L 275 452.5 Q 274.1 459.1 269.5 462 L 259.5 466 L 259 464.5 L 264 451.5 L 268 430 Z " /><path fill="rgb(210,208,189)" stroke="rgb(210,208,189)" stroke-width="1" opacity="1" d="M 419.5 431 L 416.5 435 L 419.5 431 Z " /><path fill="rgb(210,208,189)" stroke="rgb(210,208,189)" stroke-width="1" opacity="1" d="M 283 432 L 299 432.5 Q 292.4 445.4 281.5 454 L 278.5 456 L 278 453.5 L 281 445.5 L 283 432 Z " /><path fill="rgb(210,208,189)" stroke="rgb(210,208,189)" stroke-width="1" opacity="1" d="M 247.5 433 Q 250.3 432.4 249 438.5 L 244 458.5 L 240 469 L 229.5 469 L 219.5 467 Q 206 463.5 197 455.5 Q 226.2 448.2 247.5 433 Z " /><path fill="rgb(210,208,189)" stroke="rgb(210,208,189)" stroke-width="1" opacity="1" d="M 93.5 434 L 94.5 436 L 93.5 434 Z " /><path fill="rgb(210,208,189)" stroke="rgb(210,208,189)" stroke-width="1" opacity="1" d="M 414.5 435 L 412.5 438 L 414.5 435 Z " /><path fill="rgb(210,208,189)" stroke="rgb(210,208,189)" stroke-width="1" opacity="1" d="M 133.5 436 L 134 438.5 L 133 438.5 L 133.5 436 Z " /><path fill="rgb(210,208,189)" stroke="rgb(210,208,189)" stroke-width="1" opacity="1" d="M 306.5 436 L 305.5 438 L 306.5 436 Z " /><path fill="rgb(210,208,189)" stroke="rgb(210,208,189)" stroke-width="1" opacity="1" d="M 95.5 437 L 96.5 439 L 95.5 437 Z " /><path fill="rgb(210,208,189)" stroke="rgb(210,208,189)" stroke-width="1" opacity="1" d="M 137.5 438 L 138 440.5 L 137 440.5 L 137.5 438 Z " /><path fill="rgb(210,208,189)" stroke="rgb(210,208,189)" stroke-width="1" opacity="1" d="M 304.5 439 L 303.5 441 L 304.5 439 Z " /><path fill="rgb(210,208,189)" stroke="rgb(210,208,189)" stroke-width="1" opacity="1" d="M 98.5 441 L 99.5 443 L 98.5 441 Z " /><path fill="rgb(210,208,189)" stroke="rgb(210,208,189)" stroke-width="1" opacity="1" d="M 302.5 442 L 301.5 444 L 302.5 442 Z " /><path fill="rgb(210,208,189)" stroke="rgb(210,208,189)" stroke-width="1" opacity="1" d="M 101.5 445 L 109.5 454 L 101.5 445 Z " /><path fill="rgb(210,208,189)" stroke="rgb(210,208,189)" stroke-width="1" opacity="1" d="M 181.5 446 L 184.5 450 L 181.5 446 Z " /><path fill="rgb(210,208,189)" stroke="rgb(210,208,189)" stroke-width="1" opacity="1" d="M 298.5 447 L 294.5 452 L 298.5 447 Z " /><path fill="rgb(210,208,189)" stroke="rgb(210,208,189)" stroke-width="1" opacity="1" d="M 182.5 450 L 183 454.5 L 182 454.5 L 182.5 450 Z " /><path fill="rgb(210,208,189)" stroke="rgb(210,208,189)" stroke-width="1" opacity="1" d="M 187.5 452 L 192.5 458 L 187.5 452 Z " /><path fill="rgb(210,208,189)" stroke="rgb(210,208,189)" stroke-width="1" opacity="1" d="M 178.5 453 L 179 464.5 L 178 464.5 L 178.5 453 Z " /><path fill="rgb(210,208,189)" stroke="rgb(210,208,189)" stroke-width="1" opacity="1" d="M 302.5 455 L 305 455.5 L 302.5 456 L 302.5 455 Z " /><path fill="rgb(210,208,189)" stroke="rgb(210,208,189)" stroke-width="1" opacity="1" d="M 114.5 456 L 115.5 458 L 114.5 456 Z " /><path fill="rgb(210,208,189)" stroke="rgb(210,208,189)" stroke-width="1" opacity="1" d="M 127.5 456 L 128 460.5 L 127 460.5 L 127.5 456 Z " /><path fill="rgb(210,208,189)" stroke="rgb(210,208,189)" stroke-width="1" opacity="1" d="M 308.5 456 L 311 456.5 L 308.5 457 L 308.5 456 Z " /><path fill="rgb(210,208,189)" stroke="rgb(210,208,189)" stroke-width="1" opacity="1" d="M 314.5 457 L 317 457.5 L 314.5 458 L 314.5 457 Z " /><path fill="rgb(210,208,189)" stroke="rgb(210,208,189)" stroke-width="1" opacity="1" d="M 360.5 457 L 363 457.5 L 360.5 458 L 360.5 457 Z " /><path fill="rgb(210,208,189)" stroke="rgb(210,208,189)" stroke-width="1" opacity="1" d="M 131.5 458 L 132 465.5 L 131 465.5 L 131.5 458 Z " /><path fill="rgb(210,208,189)" stroke="rgb(210,208,189)" stroke-width="1" opacity="1" d="M 194.5 458 L 197.5 462 L 183 461.5 L 196 460.5 L 194.5 458 Z " /><path fill="rgb(210,208,189)" stroke="rgb(210,208,189)" stroke-width="1" opacity="1" d="M 351.5 458 L 356 458.5 L 351.5 459 L 351.5 458 Z " /><path fill="rgb(210,208,189)" stroke="rgb(210,208,189)" stroke-width="1" opacity="1" d="M 123.5 460 L 126 460.5 L 123.5 461 L 123.5 460 Z " /><path fill="rgb(210,208,189)" stroke="rgb(210,208,189)" stroke-width="1" opacity="1" d="M 132.5 469 L 133.5 471 L 132.5 469 Z " /><path fill="rgb(210,208,189)" stroke="rgb(210,208,189)" stroke-width="1" opacity="1" d="M 146.5 474 L 151 474.5 L 146.5 475 L 146.5 474 Z " /><path fill="rgb(210,208,189)" stroke="rgb(210,208,189)" stroke-width="1" opacity="1" d="M 157.5 474 L 163 474.5 L 157.5 475 L 157.5 474 Z " /></svg>