<svg width="512" height="512" version="1.1" xmlns="http://www.w3.org/2000/svg" desc="Created with imagetracer.js version 1.2.6" ><path fill="rgb(0,0,0)" stroke="rgb(0,0,0)" stroke-width="1" opacity="0" d="M 0 0 L 512 0 L 512 512 L 0 512 L 0 0 Z M 243 10 L 219 40 L 206 39 L 205 38 L 178 38 L 177 39 L 170 39 L 158 42 L 153 42 Q 123 48 103 63 L 98 62 L 69 45 L 61 47 L 59 53 L 70 105 L 70 126 L 71 127 L 72 149 L 77 169 L 77 171 Q 76 174 79 173 L 90 192 Q 93 193 91 195 Q 90 198 93 199 L 95 198 L 110 210 L 100 210 L 89 213 L 72 223 L 61 234 L 61 236 L 77 243 L 80 248 L 67 255 Q 60 259 57 267 L 57 271 L 60 278 L 71 287 L 73 290 L 73 323 L 74 324 L 74 332 L 76 343 L 28 367 Q 26 369 27 375 L 31 378 L 75 382 L 93 416 Q 95 420 102 419 L 105 415 L 105 407 L 106 406 L 107 370 L 127 361 L 139 386 L 139 459 L 125 460 L 118 463 L 111 473 Q 109 491 115 500 L 119 502 L 330 502 L 331 501 L 335 502 L 368 502 L 369 501 L 378 501 L 399 497 Q 430 489 452 470 Q 477 449 485 411 L 485 391 L 483 381 Q 478 361 465 350 L 463 347 Q 453 336 438 332 Q 426 330 420 334 Q 414 338 412 346 L 414 358 L 423 376 L 427 395 Q 427 424 413 440 Q 400 455 377 460 L 374 460 L 383 442 L 388 422 L 389 407 L 390 406 L 390 373 L 389 372 L 389 364 L 386 348 L 382 333 Q 372 303 354 282 L 333 261 L 303 243 L 294 236 Q 271 218 264 186 L 264 181 Q 272 171 276 158 L 280 140 L 280 119 Q 278 117 279 113 Q 273 86 260 66 L 255 27 L 254 26 L 254 19 L 252 13 Q 250 8 243 10 Z " /><path fill="rgb(0,0,0)" stroke="rgb(0,0,0)" stroke-width="1" opacity="0" d="M 193.5 449 L 202.5 459 L 192 458 L 193.5 449 Z " /><path fill="rgb(221,221,220)" stroke="rgb(221,221,220)" stroke-width="1" opacity="1" d="M 241.5 18 L 240.5 20 L 241.5 18 Z " /><path fill="rgb(221,221,220)" stroke="rgb(221,221,220)" stroke-width="1" opacity="1" d="M 234.5 27 L 233.5 29 L 234.5 27 Z " /><path fill="rgb(221,221,220)" stroke="rgb(221,221,220)" stroke-width="1" opacity="1" d="M 198.5 128 L 197.5 130 L 198.5 128 Z " /><path fill="rgb(221,221,220)" stroke="rgb(221,221,220)" stroke-width="1" opacity="1" d="M 117.5 144 L 115.5 147 L 117.5 144 Z " /><path fill="rgb(221,221,220)" stroke="rgb(221,221,220)" stroke-width="1" opacity="1" d="M 188.5 164 L 187.5 166 L 188.5 164 Z " /><path fill="rgb(221,221,220)" stroke="rgb(221,221,220)" stroke-width="1" opacity="1" d="M 147.5 166 L 146.5 168 L 147.5 166 Z " /><path fill="rgb(221,221,220)" stroke="rgb(221,221,220)" stroke-width="1" opacity="1" d="M 108.5 171 L 111 171.5 L 108.5 172 L 108.5 171 Z " /><path fill="rgb(221,221,220)" stroke="rgb(221,221,220)" stroke-width="1" opacity="1" d="M 93.5 172 L 96 172.5 L 93.5 173 L 93.5 172 Z " /><path fill="rgb(221,221,220)" stroke="rgb(221,221,220)" stroke-width="1" opacity="1" d="M 124.5 180 L 123.5 182 L 124.5 180 Z " /><path fill="rgb(221,221,220)" stroke="rgb(221,221,220)" stroke-width="1" opacity="1" d="M 254.5 184 L 251.5 188 L 254.5 184 Z " /><path fill="rgb(221,221,220)" stroke="rgb(221,221,220)" stroke-width="1" opacity="1" d="M 194.5 193 L 208 193.5 L 194.5 194 L 194.5 193 Z " /><path fill="rgb(221,221,220)" stroke="rgb(221,221,220)" stroke-width="1" opacity="1" d="M 100.5 195 L 104.5 200 L 100.5 195 Z " /><path fill="rgb(221,221,220)" stroke="rgb(221,221,220)" stroke-width="1" opacity="1" d="M 108.5 202 L 109.5 204 L 108.5 202 Z " /><path fill="rgb(221,221,220)" stroke="rgb(221,221,220)" stroke-width="1" opacity="1" d="M 217.5 214 L 218 216.5 L 217 216.5 L 217.5 214 Z " /><path fill="rgb(221,221,220)" stroke="rgb(221,221,220)" stroke-width="1" opacity="1" d="M 278.5 227 L 279.5 229 L 278.5 227 Z " /><path fill="rgb(221,221,220)" stroke="rgb(221,221,220)" stroke-width="1" opacity="1" d="M 290.5 239 L 291.5 241 L 290.5 239 Z " /><path fill="rgb(221,221,220)" stroke="rgb(221,221,220)" stroke-width="1" opacity="1" d="M 236.5 243 L 237.5 245 L 236.5 243 Z " /><path fill="rgb(221,221,220)" stroke="rgb(221,221,220)" stroke-width="1" opacity="1" d="M 225.5 258 L 215.5 269 L 225.5 258 Z " /><path fill="rgb(221,221,220)" stroke="rgb(221,221,220)" stroke-width="1" opacity="1" d="M 328.5 264 L 329.5 266 L 328.5 264 Z " /><path fill="rgb(221,221,220)" stroke="rgb(221,221,220)" stroke-width="1" opacity="1" d="M 333.5 268 L 334.5 270 L 333.5 268 Z " /><path fill="rgb(221,221,220)" stroke="rgb(221,221,220)" stroke-width="1" opacity="1" d="M 66.5 277 L 69.5 281 L 66.5 277 Z " /><path fill="rgb(221,221,220)" stroke="rgb(221,221,220)" stroke-width="1" opacity="1" d="M 348.5 283 Q 369.5 305.5 379 339.5 L 385 371.5 L 385 407.5 L 380 434.5 L 374 450.5 Q 364.2 470.7 348.5 485 Q 339.7 495.2 323.5 498 L 159.5 498 L 155 494.5 L 153 481 L 211.5 481 L 212.5 482 L 307.5 482 L 322.5 477 L 343 458.5 Q 358.3 440.8 366 415.5 L 370 395.5 L 370 386.5 L 371 385.5 L 371 357.5 L 370 356.5 L 369 340.5 L 363 315.5 L 357 299.5 L 348.5 283 Z " /><path fill="rgb(221,221,220)" stroke="rgb(221,221,220)" stroke-width="1" opacity="1" d="M 196.5 327 L 197.5 329 L 196.5 327 Z " /><path fill="rgb(221,221,220)" stroke="rgb(221,221,220)" stroke-width="1" opacity="1" d="M 201.5 332 L 202.5 334 L 201.5 332 Z " /><path fill="rgb(221,221,220)" stroke="rgb(221,221,220)" stroke-width="1" opacity="1" d="M 228.5 332 L 227.5 334 L 228.5 332 Z " /><path fill="rgb(221,221,220)" stroke="rgb(221,221,220)" stroke-width="1" opacity="1" d="M 171.5 333 L 170.5 335 L 171.5 333 Z " /><path fill="rgb(221,221,220)" stroke="rgb(221,221,220)" stroke-width="1" opacity="1" d="M 429.5 337 Q 438.5 336 443.5 339 Q 454.9 344.6 463 353.5 Q 472 363.5 477 377.5 L 480 390.5 L 480 410.5 L 475 429.5 L 469 441.5 Q 460.1 456.1 447.5 467 Q 416.6 494.1 361.5 497 L 361.5 496 L 371.5 495 L 389 490 Q 391 484 390 473.5 L 387 463 L 385 462.5 L 391.5 461 L 404 455 L 408 469.5 L 408 481 Q 427.2 473.1 440 457.5 Q 437.5 445.5 429.5 439 L 423 435 L 429.5 416 L 430 418 Q 441.7 422.8 449 433.5 L 452.5 439 Q 463.8 423.3 464 396.5 L 449.5 389 Q 442.4 386.6 431.5 388 L 430 386.5 Q 429.7 375.8 425 369.5 L 426.5 370 L 441.5 369 L 458.5 373 L 458 371.5 Q 451.4 353.6 437.5 343 L 430.5 339 L 429.5 337 Z " /><path fill="rgb(221,221,220)" stroke="rgb(221,221,220)" stroke-width="1" opacity="1" d="M 208.5 341 L 206.5 344 L 208.5 341 Z " /><path fill="rgb(221,221,220)" stroke="rgb(221,221,220)" stroke-width="1" opacity="1" d="M 212.5 344 L 211.5 346 L 212.5 344 Z " /><path fill="rgb(221,221,220)" stroke="rgb(221,221,220)" stroke-width="1" opacity="1" d="M 193.5 356 L 192.5 358 L 193.5 356 Z " /><path fill="rgb(221,221,220)" stroke="rgb(221,221,220)" stroke-width="1" opacity="1" d="M 196.5 360 L 195.5 362 L 196.5 360 Z " /><path fill="rgb(221,221,220)" stroke="rgb(221,221,220)" stroke-width="1" opacity="1" d="M 189.5 361 L 188.5 363 L 189.5 361 Z " /><path fill="rgb(221,221,220)" stroke="rgb(221,221,220)" stroke-width="1" opacity="1" d="M 431.5 396 L 432 401.5 L 431 401.5 L 431.5 396 Z " /><path fill="rgb(221,221,220)" stroke="rgb(221,221,220)" stroke-width="1" opacity="1" d="M 153.5 399 L 154.5 401 L 153.5 399 Z " /><path fill="rgb(221,221,220)" stroke="rgb(221,221,220)" stroke-width="1" opacity="1" d="M 153.5 407 L 154.5 409 L 153.5 407 Z " /><path fill="rgb(221,221,220)" stroke="rgb(221,221,220)" stroke-width="1" opacity="1" d="M 171.5 418 L 172.5 420 L 171.5 418 Z " /><path fill="rgb(221,221,220)" stroke="rgb(221,221,220)" stroke-width="1" opacity="1" d="M 167.5 421 L 168.5 423 L 167.5 421 Z " /><path fill="rgb(221,221,220)" stroke="rgb(221,221,220)" stroke-width="1" opacity="1" d="M 191.5 439 L 192.5 441 L 191.5 439 Z " /><path fill="rgb(221,221,220)" stroke="rgb(221,221,220)" stroke-width="1" opacity="1" d="M 198.5 447 L 199.5 449 L 198.5 447 Z " /><path fill="rgb(221,221,220)" stroke="rgb(221,221,220)" stroke-width="1" opacity="1" d="M 408.5 450 L 407.5 452 L 408.5 450 Z " /><path fill="rgb(221,221,220)" stroke="rgb(221,221,220)" stroke-width="1" opacity="1" d="M 202.5 463 L 206 463.5 L 202.5 464 L 202.5 463 Z " /><path fill="rgb(221,221,220)" stroke="rgb(221,221,220)" stroke-width="1" opacity="1" d="M 158.5 465 L 157.5 467 L 158.5 465 Z " /><path fill="rgb(221,221,220)" stroke="rgb(221,221,220)" stroke-width="1" opacity="1" d="M 363.5 475 L 362.5 477 L 363.5 475 Z " /><path fill="rgb(221,221,220)" stroke="rgb(221,221,220)" stroke-width="1" opacity="1" d="M 356.5 483 L 354.5 486 L 356.5 483 Z " /><path fill="rgb(221,221,220)" stroke="rgb(221,221,220)" stroke-width="1" opacity="1" d="M 118.5 495 L 119.5 497 L 118.5 495 Z " /><path fill="rgb(221,221,220)" stroke="rgb(221,221,220)" stroke-width="1" opacity="1" d="M 124.5 497 L 151 497.5 L 124.5 498 L 124.5 497 Z " /><path fill="rgb(185,187,189)" stroke="rgb(185,187,189)" stroke-width="1" opacity="1" d="M 244.5 14 L 242.5 17 L 244.5 14 Z " /><path fill="rgb(185,187,189)" stroke="rgb(185,187,189)" stroke-width="1" opacity="1" d="M 239.5 20 L 238.5 22 L 239.5 20 Z " /><path fill="rgb(185,187,189)" stroke="rgb(185,187,189)" stroke-width="1" opacity="1" d="M 249.5 21 L 250 24.5 L 249 24.5 L 249.5 21 Z " /><path fill="rgb(185,187,189)" stroke="rgb(185,187,189)" stroke-width="1" opacity="1" d="M 236.5 24 L 235.5 26 L 236.5 24 Z " /><path fill="rgb(185,187,189)" stroke="rgb(185,187,189)" stroke-width="1" opacity="1" d="M 250.5 28 L 251 31.5 L 250 31.5 L 250.5 28 Z " /><path fill="rgb(185,187,189)" stroke="rgb(185,187,189)" stroke-width="1" opacity="1" d="M 232.5 29 L 231.5 31 L 232.5 29 Z " /><path fill="rgb(185,187,189)" stroke="rgb(185,187,189)" stroke-width="1" opacity="1" d="M 229.5 33 L 228.5 35 L 229.5 33 Z " /><path fill="rgb(185,187,189)" stroke="rgb(185,187,189)" stroke-width="1" opacity="1" d="M 251.5 36 L 252 38.5 L 251 38.5 L 251.5 36 Z " /><path fill="rgb(185,187,189)" stroke="rgb(185,187,189)" stroke-width="1" opacity="1" d="M 226.5 37 L 224.5 40 L 226.5 37 Z " /><path fill="rgb(185,187,189)" stroke="rgb(185,187,189)" stroke-width="1" opacity="1" d="M 181.5 42 L 201 42.5 L 181.5 43 L 181.5 42 Z " /><path fill="rgb(185,187,189)" stroke="rgb(185,187,189)" stroke-width="1" opacity="1" d="M 222.5 42 L 220.5 45 L 222.5 42 Z " /><path fill="rgb(185,187,189)" stroke="rgb(185,187,189)" stroke-width="1" opacity="1" d="M 171.5 43 L 175 43.5 L 171.5 44 L 171.5 43 Z " /><path fill="rgb(185,187,189)" stroke="rgb(185,187,189)" stroke-width="1" opacity="1" d="M 207.5 43 L 211 43.5 L 207.5 44 L 207.5 43 Z " /><path fill="rgb(185,187,189)" stroke="rgb(185,187,189)" stroke-width="1" opacity="1" d="M 252.5 43 L 253 45.5 L 252 45.5 L 252.5 43 Z " /><path fill="rgb(185,187,189)" stroke="rgb(185,187,189)" stroke-width="1" opacity="1" d="M 65.5 50 L 64.5 52 L 65.5 50 Z " /><path fill="rgb(185,187,189)" stroke="rgb(185,187,189)" stroke-width="1" opacity="1" d="M 253.5 50 L 254 53.5 L 253 53.5 L 253.5 50 Z " /><path fill="rgb(185,187,189)" stroke="rgb(185,187,189)" stroke-width="1" opacity="1" d="M 64.5 54 L 65 56.5 L 64 56.5 L 64.5 54 Z " /><path fill="rgb(185,187,189)" stroke="rgb(185,187,189)" stroke-width="1" opacity="1" d="M 254.5 58 L 255 60.5 L 254 60.5 L 254.5 58 Z " /><path fill="rgb(185,187,189)" stroke="rgb(185,187,189)" stroke-width="1" opacity="1" d="M 65.5 59 L 66 61.5 L 65 61.5 L 65.5 59 Z " /><path fill="rgb(185,187,189)" stroke="rgb(185,187,189)" stroke-width="1" opacity="1" d="M 88.5 61 L 89.5 63 L 88.5 61 Z " /><path fill="rgb(185,187,189)" stroke="rgb(185,187,189)" stroke-width="1" opacity="1" d="M 66.5 64 L 67 66.5 L 66 66.5 L 66.5 64 Z " /><path fill="rgb(185,187,189)" stroke="rgb(185,187,189)" stroke-width="1" opacity="1" d="M 95.5 65 L 96.5 67 L 95.5 65 Z " /><path fill="rgb(185,187,189)" stroke="rgb(185,187,189)" stroke-width="1" opacity="1" d="M 103.5 67 L 102.5 69 L 100 68.5 L 103.5 67 Z " /><path fill="rgb(185,187,189)" stroke="rgb(185,187,189)" stroke-width="1" opacity="1" d="M 67.5 69 L 68 71.5 L 67 71.5 L 67.5 69 Z " /><path fill="rgb(185,187,189)" stroke="rgb(185,187,189)" stroke-width="1" opacity="1" d="M 68.5 74 L 69 76.5 L 68 76.5 L 68.5 74 Z " /><path fill="rgb(185,187,189)" stroke="rgb(185,187,189)" stroke-width="1" opacity="1" d="M 69.5 79 L 70 81.5 L 69 81.5 L 69.5 79 Z " /><path fill="rgb(185,187,189)" stroke="rgb(185,187,189)" stroke-width="1" opacity="1" d="M 70.5 84 L 71 86.5 L 70 86.5 L 70.5 84 Z " /><path fill="rgb(185,187,189)" stroke="rgb(185,187,189)" stroke-width="1" opacity="1" d="M 71.5 89 L 72 91.5 L 71 91.5 L 71.5 89 Z " /><path fill="rgb(185,187,189)" stroke="rgb(185,187,189)" stroke-width="1" opacity="1" d="M 72.5 94 L 73 96.5 L 72 96.5 L 72.5 94 Z " /><path fill="rgb(185,187,189)" stroke="rgb(185,187,189)" stroke-width="1" opacity="1" d="M 73.5 99 L 74 101.5 L 73 101.5 L 73.5 99 Z " /><path fill="rgb(185,187,189)" stroke="rgb(185,187,189)" stroke-width="1" opacity="1" d="M 74.5 104 L 75 117.5 L 74 117.5 L 74.5 104 Z " /><path fill="rgb(185,187,189)" stroke="rgb(185,187,189)" stroke-width="1" opacity="1" d="M 274.5 114 L 275 116.5 L 274 116.5 L 274.5 114 Z " /><path fill="rgb(185,187,189)" stroke="rgb(185,187,189)" stroke-width="1" opacity="1" d="M 188.5 119 L 187.5 121 L 188.5 119 Z " /><path fill="rgb(185,187,189)" stroke="rgb(185,187,189)" stroke-width="1" opacity="1" d="M 275.5 122 L 276 135.5 L 275 135.5 L 275.5 122 Z " /><path fill="rgb(185,187,189)" stroke="rgb(185,187,189)" stroke-width="1" opacity="1" d="M 75.5 128 L 76 134.5 L 75 134.5 L 75.5 128 Z " /><path fill="rgb(185,187,189)" stroke="rgb(185,187,189)" stroke-width="1" opacity="1" d="M 187.5 128 L 188.5 130 L 187.5 128 Z " /><path fill="rgb(185,187,189)" stroke="rgb(185,187,189)" stroke-width="1" opacity="1" d="M 144.5 133 L 147 133.5 L 144.5 134 L 144.5 133 Z " /><path fill="rgb(185,187,189)" stroke="rgb(185,187,189)" stroke-width="1" opacity="1" d="M 110.5 134 L 114 134.5 Q 109.8 134.3 108.5 137 L 110.5 134 Z " /><path fill="rgb(185,187,189)" stroke="rgb(185,187,189)" stroke-width="1" opacity="1" d="M 153.5 134 L 154.5 136 L 153.5 134 Z " /><path fill="rgb(185,187,189)" stroke="rgb(185,187,189)" stroke-width="1" opacity="1" d="M 115.5 135 L 116.5 137 L 115.5 135 Z " /><path fill="rgb(185,187,189)" stroke="rgb(185,187,189)" stroke-width="1" opacity="1" d="M 140.5 135 L 139.5 137 L 140.5 135 Z " /><path fill="rgb(185,187,189)" stroke="rgb(185,187,189)" stroke-width="1" opacity="1" d="M 216.5 135 L 218 135.5 L 215.5 137 L 216.5 135 Z " /><path fill="rgb(185,187,189)" stroke="rgb(185,187,189)" stroke-width="1" opacity="1" d="M 138.5 138 L 139 141.5 L 138 141.5 L 138.5 138 Z " /><path fill="rgb(185,187,189)" stroke="rgb(185,187,189)" stroke-width="1" opacity="1" d="M 155.5 138 L 156 144.5 L 155 144.5 L 155.5 138 Z " /><path fill="rgb(185,187,189)" stroke="rgb(185,187,189)" stroke-width="1" opacity="1" d="M 219.5 138 L 218.5 140 L 219.5 138 Z " /><path fill="rgb(185,187,189)" stroke="rgb(185,187,189)" stroke-width="1" opacity="1" d="M 207.5 140 L 206.5 142 L 207.5 140 Z " /><path fill="rgb(185,187,189)" stroke="rgb(185,187,189)" stroke-width="1" opacity="1" d="M 76.5 141 L 77 144.5 L 76 144.5 L 76.5 141 Z " /><path fill="rgb(185,187,189)" stroke="rgb(185,187,189)" stroke-width="1" opacity="1" d="M 274.5 141 L 275 143.5 L 274 143.5 L 274.5 141 Z " /><path fill="rgb(185,187,189)" stroke="rgb(185,187,189)" stroke-width="1" opacity="1" d="M 108.5 144 L 109.5 146 L 108.5 144 Z " /><path fill="rgb(185,187,189)" stroke="rgb(185,187,189)" stroke-width="1" opacity="1" d="M 273.5 146 L 274 148.5 L 273 148.5 L 273.5 146 Z " /><path fill="rgb(185,187,189)" stroke="rgb(185,187,189)" stroke-width="1" opacity="1" d="M 141.5 148 L 145.5 153 L 141.5 148 Z " /><path fill="rgb(185,187,189)" stroke="rgb(185,187,189)" stroke-width="1" opacity="1" d="M 77.5 150 L 78 152.5 L 77 152.5 L 77.5 150 Z " /><path fill="rgb(185,187,189)" stroke="rgb(185,187,189)" stroke-width="1" opacity="1" d="M 153.5 150 L 152.5 152 L 153.5 150 Z " /><path fill="rgb(185,187,189)" stroke="rgb(185,187,189)" stroke-width="1" opacity="1" d="M 187.5 151 L 186.5 153 L 187.5 151 Z " /><path fill="rgb(185,187,189)" stroke="rgb(185,187,189)" stroke-width="1" opacity="1" d="M 184.5 153 L 185 156 L 188 156.5 L 185.5 157 Q 183 156 184.5 153 Z " /><path fill="rgb(185,187,189)" stroke="rgb(185,187,189)" stroke-width="1" opacity="1" d="M 152.5 155 L 153 157.5 L 152 157.5 L 152.5 155 Z " /><path fill="rgb(185,187,189)" stroke="rgb(185,187,189)" stroke-width="1" opacity="1" d="M 148.5 156 L 149 158.5 L 148 158.5 L 148.5 156 Z " /><path fill="rgb(185,187,189)" stroke="rgb(185,187,189)" stroke-width="1" opacity="1" d="M 221.5 159 Q 226 158 227 160.5 L 226.5 163 L 226 160 L 221.5 160 L 221.5 159 Z " /><path fill="rgb(185,187,189)" stroke="rgb(185,187,189)" stroke-width="1" opacity="1" d="M 215.5 160 L 218 160.5 L 215.5 161 L 215.5 160 Z " /><path fill="rgb(185,187,189)" stroke="rgb(185,187,189)" stroke-width="1" opacity="1" d="M 208.5 161 L 211 161.5 L 208.5 162 L 208.5 161 Z " /><path fill="rgb(185,187,189)" stroke="rgb(185,187,189)" stroke-width="1" opacity="1" d="M 202.5 162 L 205 162.5 L 202.5 163 L 202.5 162 Z " /><path fill="rgb(185,187,189)" stroke="rgb(185,187,189)" stroke-width="1" opacity="1" d="M 195.5 163 L 198 163.5 L 195.5 164 L 195.5 163 Z " /><path fill="rgb(185,187,189)" stroke="rgb(185,187,189)" stroke-width="1" opacity="1" d="M 222.5 163 L 225 163.5 L 222.5 164 L 222.5 163 Z " /><path fill="rgb(185,187,189)" stroke="rgb(185,187,189)" stroke-width="1" opacity="1" d="M 189.5 164 L 192 164.5 L 189.5 165 L 189.5 164 Z " /><path fill="rgb(185,187,189)" stroke="rgb(185,187,189)" stroke-width="1" opacity="1" d="M 216.5 164 L 219 164.5 L 216.5 165 L 216.5 164 Z " /><path fill="rgb(185,187,189)" stroke="rgb(185,187,189)" stroke-width="1" opacity="1" d="M 160.5 165 L 163 165.5 L 160.5 166 L 160.5 165 Z " /><path fill="rgb(185,187,189)" stroke="rgb(185,187,189)" stroke-width="1" opacity="1" d="M 209.5 165 L 212 165.5 L 209.5 166 L 209.5 165 Z " /><path fill="rgb(185,187,189)" stroke="rgb(185,187,189)" stroke-width="1" opacity="1" d="M 114.5 166 Q 121.3 164.3 123 167.5 L 121.5 167 L 114.5 167 L 114.5 166 Z " /><path fill="rgb(185,187,189)" stroke="rgb(185,187,189)" stroke-width="1" opacity="1" d="M 203.5 166 L 206 166.5 L 203.5 167 L 203.5 166 Z " /><path fill="rgb(185,187,189)" stroke="rgb(185,187,189)" stroke-width="1" opacity="1" d="M 99.5 167 L 106 167.5 L 99.5 168 L 99.5 167 Z " /><path fill="rgb(185,187,189)" stroke="rgb(185,187,189)" stroke-width="1" opacity="1" d="M 167.5 167 L 166.5 169 L 167.5 167 Z " /><path fill="rgb(185,187,189)" stroke="rgb(185,187,189)" stroke-width="1" opacity="1" d="M 196.5 167 L 199 167.5 L 196.5 168 L 196.5 167 Z " /><path fill="rgb(185,187,189)" stroke="rgb(185,187,189)" stroke-width="1" opacity="1" d="M 84.5 168 L 91 168.5 L 84.5 169 L 84.5 168 Z " /><path fill="rgb(185,187,189)" stroke="rgb(185,187,189)" stroke-width="1" opacity="1" d="M 188.5 168 L 193 168.5 L 188.5 169 L 188.5 168 Z " /><path fill="rgb(185,187,189)" stroke="rgb(185,187,189)" stroke-width="1" opacity="1" d="M 122.5 169 L 121.5 171 L 116 170.5 L 122.5 169 Z " /><path fill="rgb(185,187,189)" stroke="rgb(185,187,189)" stroke-width="1" opacity="1" d="M 161.5 169 L 164 169.5 L 161.5 170 L 161.5 169 Z " /><path fill="rgb(185,187,189)" stroke="rgb(185,187,189)" stroke-width="1" opacity="1" d="M 101.5 171 L 108 171.5 L 101.5 172 L 101.5 171 Z " /><path fill="rgb(185,187,189)" stroke="rgb(185,187,189)" stroke-width="1" opacity="1" d="M 86.5 172 L 93 172.5 L 86.5 173 L 86.5 172 Z " /><path fill="rgb(185,187,189)" stroke="rgb(185,187,189)" stroke-width="1" opacity="1" d="M 260.5 177 L 259.5 179 L 260.5 177 Z " /><path fill="rgb(185,187,189)" stroke="rgb(185,187,189)" stroke-width="1" opacity="1" d="M 117.5 179 L 116.5 181 L 117.5 179 Z " /><path fill="rgb(185,187,189)" stroke="rgb(185,187,189)" stroke-width="1" opacity="1" d="M 257.5 181 L 255.5 184 L 257.5 181 Z " /><path fill="rgb(185,187,189)" stroke="rgb(185,187,189)" stroke-width="1" opacity="1" d="M 91.5 185 L 92.5 187 L 91.5 185 Z " /><path fill="rgb(185,187,189)" stroke="rgb(185,187,189)" stroke-width="1" opacity="1" d="M 259.5 185 L 256.5 189 L 259.5 185 Z " /><path fill="rgb(185,187,189)" stroke="rgb(185,187,189)" stroke-width="1" opacity="1" d="M 94.5 189 L 97.5 191 L 99 190.5 L 96.5 192 L 94.5 189 Z " /><path fill="rgb(185,187,189)" stroke="rgb(185,187,189)" stroke-width="1" opacity="1" d="M 101.5 193 L 100.5 195 L 101.5 193 Z " /><path fill="rgb(185,187,189)" stroke="rgb(185,187,189)" stroke-width="1" opacity="1" d="M 182.5 194 L 187 194.5 L 182.5 195 L 182.5 194 Z " /><path fill="rgb(185,187,189)" stroke="rgb(185,187,189)" stroke-width="1" opacity="1" d="M 213.5 194 L 214.5 196 L 213.5 194 Z " /><path fill="rgb(185,187,189)" stroke="rgb(185,187,189)" stroke-width="1" opacity="1" d="M 174.5 195 L 177 195.5 L 174.5 196 L 174.5 195 Z " /><path fill="rgb(185,187,189)" stroke="rgb(185,187,189)" stroke-width="1" opacity="1" d="M 167.5 196 L 170 196.5 L 167.5 197 L 167.5 196 Z " /><path fill="rgb(185,187,189)" stroke="rgb(185,187,189)" stroke-width="1" opacity="1" d="M 162.5 197 L 165 197.5 L 162.5 198 L 162.5 197 Z " /><path fill="rgb(185,187,189)" stroke="rgb(185,187,189)" stroke-width="1" opacity="1" d="M 185.5 198 L 210.5 198 L 211 200.5 L 213 209.5 L 214 236.5 L 213 239 Q 205.5 243.8 190.5 242 L 173.5 235 L 158.5 224 L 157 226.5 Q 165.8 236.2 178.5 242 L 192.5 246 L 203.5 246 L 213 243 L 210 264.5 L 206.5 271 L 196.5 270 L 185.5 267 L 166.5 258 L 150.5 247 Q 145.1 243.9 135.5 245 L 129.5 250 L 127.5 250 L 123 246.5 L 119.5 239 L 117 240.5 Q 118 249.5 124.5 253 L 127 254.5 L 121 273.5 L 121 289.5 Q 122.4 295.6 127.5 298 L 135.5 301 L 151.5 302 L 164.5 307 L 170.5 307 L 185 312 Q 180.1 322.9 169.5 330 L 142.5 349 L 126.5 357 L 103 365.5 L 101 412.5 L 99.5 414 Q 96.2 415.1 97 412.5 L 77.5 378 L 52.5 376 L 51.5 375 L 42.5 375 L 41.5 374 L 32.5 374 L 31 372.5 L 32.5 370 L 81 344.5 L 78 327.5 L 78 318.5 L 77 317.5 L 77 294.5 L 78 293.5 L 79 279.5 L 85 259.5 Q 93.9 238.4 110.5 225 Q 124 213.5 142.5 207 L 159.5 202 L 175.5 199 L 184.5 199 L 185.5 198 Z M 189 209 L 187 213 L 193 212 Q 195 207 189 209 Z M 105 257 L 104 260 L 106 266 Q 110 272 120 273 L 121 269 L 113 267 Q 109 264 108 259 L 105 257 Z M 106 284 L 104 286 L 105 292 L 108 296 L 114 299 L 120 299 L 121 296 L 113 294 Q 108 292 108 286 L 106 284 Z M 129 301 L 130 310 Q 134 316 144 317 L 145 313 L 137 311 Q 133 308 132 303 L 129 301 Z " /><path fill="rgb(185,187,189)" stroke="rgb(185,187,189)" stroke-width="1" opacity="1" d="M 215.5 199 L 216 201.5 L 215 201.5 L 215.5 199 Z " /><path fill="rgb(185,187,189)" stroke="rgb(185,187,189)" stroke-width="1" opacity="1" d="M 105.5 200 L 106.5 202 L 105.5 200 Z " /><path fill="rgb(185,187,189)" stroke="rgb(185,187,189)" stroke-width="1" opacity="1" d="M 216.5 206 L 217 210.5 L 216 210.5 L 216.5 206 Z " /><path fill="rgb(185,187,189)" stroke="rgb(185,187,189)" stroke-width="1" opacity="1" d="M 102.5 214 L 114.5 214 L 117 215.5 L 98 231.5 L 87.5 246 Q 79.5 237.5 67 233.5 Q 79.4 218.4 102.5 214 Z " /><path fill="rgb(185,187,189)" stroke="rgb(185,187,189)" stroke-width="1" opacity="1" d="M 217.5 217 L 218 227.5 L 217 227.5 L 217.5 217 Z " /><path fill="rgb(185,187,189)" stroke="rgb(185,187,189)" stroke-width="1" opacity="1" d="M 276.5 224 L 277.5 226 L 276.5 224 Z " /><path fill="rgb(185,187,189)" stroke="rgb(185,187,189)" stroke-width="1" opacity="1" d="M 280.5 229 L 289.5 239 L 280.5 229 Z " /><path fill="rgb(185,187,189)" stroke="rgb(185,187,189)" stroke-width="1" opacity="1" d="M 217.5 232 L 218 241.5 L 217 241.5 L 217.5 232 Z " /><path fill="rgb(185,187,189)" stroke="rgb(185,187,189)" stroke-width="1" opacity="1" d="M 293.5 241 L 294.5 243 L 293.5 241 Z " /><path fill="rgb(185,187,189)" stroke="rgb(185,187,189)" stroke-width="1" opacity="1" d="M 233.5 244 L 217.5 261 L 233.5 244 Z " /><path fill="rgb(185,187,189)" stroke="rgb(185,187,189)" stroke-width="1" opacity="1" d="M 297.5 244 L 298.5 246 L 297.5 244 Z " /><path fill="rgb(185,187,189)" stroke="rgb(185,187,189)" stroke-width="1" opacity="1" d="M 237.5 245 L 238 246.5 L 226 257.5 L 237.5 245 Z " /><path fill="rgb(185,187,189)" stroke="rgb(185,187,189)" stroke-width="1" opacity="1" d="M 216.5 248 L 217 250.5 L 216 250.5 L 216.5 248 Z " /><path fill="rgb(185,187,189)" stroke="rgb(185,187,189)" stroke-width="1" opacity="1" d="M 303.5 248 L 304.5 250 L 303.5 248 Z " /><path fill="rgb(185,187,189)" stroke="rgb(185,187,189)" stroke-width="1" opacity="1" d="M 135.5 249 L 133.5 252 L 135.5 249 Z " /><path fill="rgb(185,187,189)" stroke="rgb(185,187,189)" stroke-width="1" opacity="1" d="M 132.5 253 L 131.5 255 L 132.5 253 Z " /><path fill="rgb(185,187,189)" stroke="rgb(185,187,189)" stroke-width="1" opacity="1" d="M 72.5 256 L 71.5 258 L 72.5 256 Z " /><path fill="rgb(185,187,189)" stroke="rgb(185,187,189)" stroke-width="1" opacity="1" d="M 158.5 256 L 161.5 260 L 158.5 256 Z " /><path fill="rgb(185,187,189)" stroke="rgb(185,187,189)" stroke-width="1" opacity="1" d="M 317.5 256 L 318.5 258 L 317.5 256 Z " /><path fill="rgb(185,187,189)" stroke="rgb(185,187,189)" stroke-width="1" opacity="1" d="M 68.5 259 L 63.5 265 L 68.5 259 Z " /><path fill="rgb(185,187,189)" stroke="rgb(185,187,189)" stroke-width="1" opacity="1" d="M 323.5 260 L 324.5 262 L 323.5 260 Z " /><path fill="rgb(185,187,189)" stroke="rgb(185,187,189)" stroke-width="1" opacity="1" d="M 167.5 262 L 168.5 264 L 167.5 262 Z " /><path fill="rgb(185,187,189)" stroke="rgb(185,187,189)" stroke-width="1" opacity="1" d="M 326.5 262 L 327.5 264 L 326.5 262 Z " /><path fill="rgb(185,187,189)" stroke="rgb(185,187,189)" stroke-width="1" opacity="1" d="M 330.5 265 L 332.5 268 L 330.5 265 Z " /><path fill="rgb(185,187,189)" stroke="rgb(185,187,189)" stroke-width="1" opacity="1" d="M 61.5 267 L 62 269.5 L 61 269.5 L 61.5 267 Z " /><path fill="rgb(185,187,189)" stroke="rgb(185,187,189)" stroke-width="1" opacity="1" d="M 336.5 270 L 348.5 283 L 336.5 270 Z " /><path fill="rgb(185,187,189)" stroke="rgb(185,187,189)" stroke-width="1" opacity="1" d="M 125.5 272 L 126 274.5 L 125 274.5 L 125.5 272 Z " /><path fill="rgb(185,187,189)" stroke="rgb(185,187,189)" stroke-width="1" opacity="1" d="M 210.5 272 L 208.5 275 L 210.5 272 Z " /><path fill="rgb(185,187,189)" stroke="rgb(185,187,189)" stroke-width="1" opacity="1" d="M 194.5 273 L 197 273.5 L 194.5 274 L 194.5 273 Z " /><path fill="rgb(185,187,189)" stroke="rgb(185,187,189)" stroke-width="1" opacity="1" d="M 200.5 274 L 206 274.5 L 200.5 275 L 200.5 274 Z " /><path fill="rgb(185,187,189)" stroke="rgb(185,187,189)" stroke-width="1" opacity="1" d="M 64.5 275 L 65.5 277 L 64.5 275 Z " /><path fill="rgb(185,187,189)" stroke="rgb(185,187,189)" stroke-width="1" opacity="1" d="M 70.5 281 L 71.5 283 L 70.5 281 Z " /><path fill="rgb(185,187,189)" stroke="rgb(185,187,189)" stroke-width="1" opacity="1" d="M 351.5 286 L 353.5 289 L 351.5 286 Z " /><path fill="rgb(185,187,189)" stroke="rgb(185,187,189)" stroke-width="1" opacity="1" d="M 126.5 291 L 127.5 293 L 126.5 291 Z " /><path fill="rgb(185,187,189)" stroke="rgb(185,187,189)" stroke-width="1" opacity="1" d="M 355.5 291 L 356.5 293 L 355.5 291 Z " /><path fill="rgb(185,187,189)" stroke="rgb(185,187,189)" stroke-width="1" opacity="1" d="M 139.5 297 L 143 297.5 L 139.5 298 L 139.5 297 Z " /><path fill="rgb(185,187,189)" stroke="rgb(185,187,189)" stroke-width="1" opacity="1" d="M 150.5 298 L 153 298.5 L 150.5 299 L 150.5 298 Z " /><path fill="rgb(185,187,189)" stroke="rgb(185,187,189)" stroke-width="1" opacity="1" d="M 155.5 299 L 158 299.5 L 155.5 300 L 155.5 299 Z " /><path fill="rgb(185,187,189)" stroke="rgb(185,187,189)" stroke-width="1" opacity="1" d="M 363.5 303 L 364.5 305 L 363.5 303 Z " /><path fill="rgb(185,187,189)" stroke="rgb(185,187,189)" stroke-width="1" opacity="1" d="M 189 314 L 211 320 Q 210.7 326.9 206.5 331 Q 199.8 321.2 188 318 L 189 314 Z " /><path fill="rgb(185,187,189)" stroke="rgb(185,187,189)" stroke-width="1" opacity="1" d="M 208.5 315 L 212 315.5 L 208.5 316 L 208.5 315 Z " /><path fill="rgb(185,187,189)" stroke="rgb(185,187,189)" stroke-width="1" opacity="1" d="M 183.5 321 L 172.5 333 L 183.5 321 Z " /><path fill="rgb(185,187,189)" stroke="rgb(185,187,189)" stroke-width="1" opacity="1" d="M 191.5 323 L 192.5 325 L 191.5 323 Z " /><path fill="rgb(185,187,189)" stroke="rgb(185,187,189)" stroke-width="1" opacity="1" d="M 194.5 325 L 195.5 327 L 194.5 325 Z " /><path fill="rgb(185,187,189)" stroke="rgb(185,187,189)" stroke-width="1" opacity="1" d="M 227.5 329 L 229 331.5 L 228 331.5 L 227.5 329 Z " /><path fill="rgb(185,187,189)" stroke="rgb(185,187,189)" stroke-width="1" opacity="1" d="M 226.5 333 L 225.5 335 L 226.5 333 Z " /><path fill="rgb(185,187,189)" stroke="rgb(185,187,189)" stroke-width="1" opacity="1" d="M 203.5 334 L 204.5 336 L 203.5 334 Z " /><path fill="rgb(185,187,189)" stroke="rgb(185,187,189)" stroke-width="1" opacity="1" d="M 168.5 335 L 166.5 338 L 168.5 335 Z " /><path fill="rgb(185,187,189)" stroke="rgb(185,187,189)" stroke-width="1" opacity="1" d="M 209.5 335 L 207.5 338 L 206 337.5 L 209.5 335 Z " /><path fill="rgb(185,187,189)" stroke="rgb(185,187,189)" stroke-width="1" opacity="1" d="M 216.5 335 L 215.5 337 L 216.5 335 Z " /><path fill="rgb(185,187,189)" stroke="rgb(185,187,189)" stroke-width="1" opacity="1" d="M 426.5 336 L 436 336.5 L 426.5 337 L 426.5 336 Z " /><path fill="rgb(185,187,189)" stroke="rgb(185,187,189)" stroke-width="1" opacity="1" d="M 212.5 338 L 210.5 341 L 212.5 338 Z " /><path fill="rgb(185,187,189)" stroke="rgb(185,187,189)" stroke-width="1" opacity="1" d="M 219.5 338 L 218.5 340 L 219.5 338 Z " /><path fill="rgb(185,187,189)" stroke="rgb(185,187,189)" stroke-width="1" opacity="1" d="M 421.5 338 L 419.5 341 L 421.5 338 Z " /><path fill="rgb(185,187,189)" stroke="rgb(185,187,189)" stroke-width="1" opacity="1" d="M 163.5 339 L 162.5 341 L 163.5 339 Z " /><path fill="rgb(185,187,189)" stroke="rgb(185,187,189)" stroke-width="1" opacity="1" d="M 215.5 341 L 213.5 344 L 215.5 341 Z " /><path fill="rgb(185,187,189)" stroke="rgb(185,187,189)" stroke-width="1" opacity="1" d="M 448.5 341 L 449.5 343 L 448.5 341 Z " /><path fill="rgb(185,187,189)" stroke="rgb(185,187,189)" stroke-width="1" opacity="1" d="M 159.5 342 L 158.5 344 L 159.5 342 Z " /><path fill="rgb(185,187,189)" stroke="rgb(185,187,189)" stroke-width="1" opacity="1" d="M 451.5 343 L 452.5 345 L 451.5 343 Z " /><path fill="rgb(185,187,189)" stroke="rgb(185,187,189)" stroke-width="1" opacity="1" d="M 156.5 344 L 155.5 346 L 156.5 344 Z " /><path fill="rgb(185,187,189)" stroke="rgb(185,187,189)" stroke-width="1" opacity="1" d="M 205.5 344 L 194.5 356 L 205.5 344 Z " /><path fill="rgb(185,187,189)" stroke="rgb(185,187,189)" stroke-width="1" opacity="1" d="M 454.5 345 L 457.5 349 L 454.5 345 Z " /><path fill="rgb(185,187,189)" stroke="rgb(185,187,189)" stroke-width="1" opacity="1" d="M 153.5 346 L 152.5 348 L 153.5 346 Z " /><path fill="rgb(185,187,189)" stroke="rgb(185,187,189)" stroke-width="1" opacity="1" d="M 208.5 347 L 197.5 359 L 208.5 347 Z " /><path fill="rgb(185,187,189)" stroke="rgb(185,187,189)" stroke-width="1" opacity="1" d="M 382.5 354 L 383 356.5 L 382 356.5 L 382.5 354 Z " /><path fill="rgb(185,187,189)" stroke="rgb(185,187,189)" stroke-width="1" opacity="1" d="M 463.5 354 L 465.5 357 L 463.5 354 Z " /><path fill="rgb(185,187,189)" stroke="rgb(185,187,189)" stroke-width="1" opacity="1" d="M 191.5 359 L 190.5 361 L 191.5 359 Z " /><path fill="rgb(185,187,189)" stroke="rgb(185,187,189)" stroke-width="1" opacity="1" d="M 467.5 359 L 468.5 361 L 467.5 359 Z " /><path fill="rgb(185,187,189)" stroke="rgb(185,187,189)" stroke-width="1" opacity="1" d="M 383.5 360 L 384 362.5 L 383 362.5 L 383.5 360 Z " /><path fill="rgb(185,187,189)" stroke="rgb(185,187,189)" stroke-width="1" opacity="1" d="M 194.5 362 L 193.5 364 L 194.5 362 Z " /><path fill="rgb(185,187,189)" stroke="rgb(185,187,189)" stroke-width="1" opacity="1" d="M 188.5 363 L 187.5 365 L 188.5 363 Z " /><path fill="rgb(185,187,189)" stroke="rgb(185,187,189)" stroke-width="1" opacity="1" d="M 191.5 366 L 190.5 368 L 191.5 366 Z " /><path fill="rgb(185,187,189)" stroke="rgb(185,187,189)" stroke-width="1" opacity="1" d="M 384.5 366 L 385 370.5 L 384 370.5 L 384.5 366 Z " /><path fill="rgb(185,187,189)" stroke="rgb(185,187,189)" stroke-width="1" opacity="1" d="M 187.5 372 L 186.5 374 L 187.5 372 Z " /><path fill="rgb(185,187,189)" stroke="rgb(185,187,189)" stroke-width="1" opacity="1" d="M 385.5 376 L 386 401.5 L 385 401.5 L 385.5 376 Z " /><path fill="rgb(185,187,189)" stroke="rgb(185,187,189)" stroke-width="1" opacity="1" d="M 430.5 387 L 431 390.5 L 430 390.5 L 430.5 387 Z " /><path fill="rgb(185,187,189)" stroke="rgb(185,187,189)" stroke-width="1" opacity="1" d="M 479.5 387 L 480 389.5 L 479 389.5 L 479.5 387 Z " /><path fill="rgb(185,187,189)" stroke="rgb(185,187,189)" stroke-width="1" opacity="1" d="M 174.5 392 L 175 394.5 L 174 394.5 L 174.5 392 Z " /><path fill="rgb(185,187,189)" stroke="rgb(185,187,189)" stroke-width="1" opacity="1" d="M 178.5 393 L 179 395.5 L 178 395.5 L 178.5 393 Z " /><path fill="rgb(185,187,189)" stroke="rgb(185,187,189)" stroke-width="1" opacity="1" d="M 480.5 393 L 481 406.5 L 480 406.5 L 480.5 393 Z " /><path fill="rgb(185,187,189)" stroke="rgb(185,187,189)" stroke-width="1" opacity="1" d="M 144.5 394 L 145.5 396 L 144.5 394 Z " /><path fill="rgb(185,187,189)" stroke="rgb(185,187,189)" stroke-width="1" opacity="1" d="M 146.5 397 L 147.5 399 L 146.5 397 Z " /><path fill="rgb(185,187,189)" stroke="rgb(185,187,189)" stroke-width="1" opacity="1" d="M 173.5 399 L 174 408.5 L 173 408.5 L 173.5 399 Z " /><path fill="rgb(185,187,189)" stroke="rgb(185,187,189)" stroke-width="1" opacity="1" d="M 148.5 400 L 149.5 402 L 148.5 400 Z " /><path fill="rgb(185,187,189)" stroke="rgb(185,187,189)" stroke-width="1" opacity="1" d="M 177.5 400 L 178 407.5 L 177 407.5 L 177.5 400 Z " /><path fill="rgb(185,187,189)" stroke="rgb(185,187,189)" stroke-width="1" opacity="1" d="M 154.5 401 L 156.5 404 L 154.5 401 Z " /><path fill="rgb(185,187,189)" stroke="rgb(185,187,189)" stroke-width="1" opacity="1" d="M 151.5 404 L 153.5 407 L 151.5 404 Z " /><path fill="rgb(185,187,189)" stroke="rgb(185,187,189)" stroke-width="1" opacity="1" d="M 158.5 406 L 162.5 411 L 158.5 406 Z " /><path fill="rgb(185,187,189)" stroke="rgb(185,187,189)" stroke-width="1" opacity="1" d="M 430.5 407 L 431 410.5 L 430 410.5 L 430.5 407 Z " /><path fill="rgb(185,187,189)" stroke="rgb(185,187,189)" stroke-width="1" opacity="1" d="M 384.5 408 L 385 411.5 L 384 411.5 L 384.5 408 Z " /><path fill="rgb(185,187,189)" stroke="rgb(185,187,189)" stroke-width="1" opacity="1" d="M 155.5 409 L 160.5 415 L 155.5 409 Z " /><path fill="rgb(185,187,189)" stroke="rgb(185,187,189)" stroke-width="1" opacity="1" d="M 479.5 411 L 480 413.5 L 479 413.5 L 479.5 411 Z " /><path fill="rgb(185,187,189)" stroke="rgb(185,187,189)" stroke-width="1" opacity="1" d="M 166.5 414 L 169.5 418 L 166.5 414 Z " /><path fill="rgb(185,187,189)" stroke="rgb(185,187,189)" stroke-width="1" opacity="1" d="M 383.5 416 L 384 418.5 L 383 418.5 L 383.5 416 Z " /><path fill="rgb(185,187,189)" stroke="rgb(185,187,189)" stroke-width="1" opacity="1" d="M 163.5 417 L 166.5 421 L 163.5 417 Z " /><path fill="rgb(185,187,189)" stroke="rgb(185,187,189)" stroke-width="1" opacity="1" d="M 173.5 420 L 174.5 422 L 173.5 420 Z " /><path fill="rgb(185,187,189)" stroke="rgb(185,187,189)" stroke-width="1" opacity="1" d="M 382.5 422 L 383 424.5 L 382 424.5 L 382.5 422 Z " /><path fill="rgb(185,187,189)" stroke="rgb(185,187,189)" stroke-width="1" opacity="1" d="M 170.5 423 L 171.5 425 L 170.5 423 Z " /><path fill="rgb(185,187,189)" stroke="rgb(185,187,189)" stroke-width="1" opacity="1" d="M 424.5 429 L 425 430.5 L 423 431.5 L 424.5 429 Z " /><path fill="rgb(185,187,189)" stroke="rgb(185,187,189)" stroke-width="1" opacity="1" d="M 185.5 431 L 186.5 433 L 185.5 431 Z " /><path fill="rgb(185,187,189)" stroke="rgb(185,187,189)" stroke-width="1" opacity="1" d="M 182.5 434 L 183.5 436 L 182.5 434 Z " /><path fill="rgb(185,187,189)" stroke="rgb(185,187,189)" stroke-width="1" opacity="1" d="M 187.5 434 L 188.5 436 L 187.5 434 Z " /><path fill="rgb(185,187,189)" stroke="rgb(185,187,189)" stroke-width="1" opacity="1" d="M 421.5 435 L 420.5 437 L 421.5 435 Z " /><path fill="rgb(185,187,189)" stroke="rgb(185,187,189)" stroke-width="1" opacity="1" d="M 184.5 437 L 185.5 439 L 184.5 437 Z " /><path fill="rgb(185,187,189)" stroke="rgb(185,187,189)" stroke-width="1" opacity="1" d="M 189.5 437 L 190.5 439 L 189.5 437 Z " /><path fill="rgb(185,187,189)" stroke="rgb(185,187,189)" stroke-width="1" opacity="1" d="M 419.5 438 L 418.5 440 L 419.5 438 Z " /><path fill="rgb(185,187,189)" stroke="rgb(185,187,189)" stroke-width="1" opacity="1" d="M 187.5 441 L 188.5 443 L 187.5 441 Z " /><path fill="rgb(185,187,189)" stroke="rgb(185,187,189)" stroke-width="1" opacity="1" d="M 193.5 442 L 197.5 447 L 193.5 442 Z " /><path fill="rgb(185,187,189)" stroke="rgb(185,187,189)" stroke-width="1" opacity="1" d="M 416.5 442 L 409.5 450 L 416.5 442 Z " /><path fill="rgb(185,187,189)" stroke="rgb(185,187,189)" stroke-width="1" opacity="1" d="M 468.5 442 L 467.5 444 L 468.5 442 Z " /><path fill="rgb(185,187,189)" stroke="rgb(185,187,189)" stroke-width="1" opacity="1" d="M 464.5 448 L 463.5 450 L 464.5 448 Z " /><path fill="rgb(185,187,189)" stroke="rgb(185,187,189)" stroke-width="1" opacity="1" d="M 200.5 449 L 205.5 455 L 200.5 449 Z " /><path fill="rgb(185,187,189)" stroke="rgb(185,187,189)" stroke-width="1" opacity="1" d="M 406.5 451 L 405.5 453 L 406.5 451 Z " /><path fill="rgb(185,187,189)" stroke="rgb(185,187,189)" stroke-width="1" opacity="1" d="M 462.5 451 L 458.5 456 L 462.5 451 Z " /><path fill="rgb(185,187,189)" stroke="rgb(185,187,189)" stroke-width="1" opacity="1" d="M 402.5 454 L 401.5 456 L 402.5 454 Z " /><path fill="rgb(185,187,189)" stroke="rgb(185,187,189)" stroke-width="1" opacity="1" d="M 371.5 455 L 370.5 457 L 371.5 455 Z " /><path fill="rgb(185,187,189)" stroke="rgb(185,187,189)" stroke-width="1" opacity="1" d="M 168.5 457 L 184 457.5 L 168.5 458 L 168.5 457 Z " /><path fill="rgb(185,187,189)" stroke="rgb(185,187,189)" stroke-width="1" opacity="1" d="M 209.5 457 L 210.5 459 L 209.5 457 Z " /><path fill="rgb(185,187,189)" stroke="rgb(185,187,189)" stroke-width="1" opacity="1" d="M 456.5 458 L 450.5 465 L 456.5 458 Z " /><path fill="rgb(185,187,189)" stroke="rgb(185,187,189)" stroke-width="1" opacity="1" d="M 212.5 459 L 218 459.5 L 212.5 460 L 212.5 459 Z " /><path fill="rgb(185,187,189)" stroke="rgb(185,187,189)" stroke-width="1" opacity="1" d="M 156.5 461 L 155.5 463 L 156.5 461 Z " /><path fill="rgb(185,187,189)" stroke="rgb(185,187,189)" stroke-width="1" opacity="1" d="M 170.5 461 L 182 461.5 L 170.5 462 L 170.5 461 Z " /><path fill="rgb(185,187,189)" stroke="rgb(185,187,189)" stroke-width="1" opacity="1" d="M 187.5 462 L 194 462.5 L 187.5 463 L 187.5 462 Z " /><path fill="rgb(185,187,189)" stroke="rgb(185,187,189)" stroke-width="1" opacity="1" d="M 134.5 463 L 143 463.5 L 134.5 464 L 134.5 463 Z " /><path fill="rgb(185,187,189)" stroke="rgb(185,187,189)" stroke-width="1" opacity="1" d="M 206.5 463 L 217 463.5 L 206.5 464 L 206.5 463 Z " /><path fill="rgb(185,187,189)" stroke="rgb(185,187,189)" stroke-width="1" opacity="1" d="M 379.5 463 L 382 463.5 L 379.5 464 L 379.5 463 Z " /><path fill="rgb(185,187,189)" stroke="rgb(185,187,189)" stroke-width="1" opacity="1" d="M 126.5 464 L 129 464.5 L 126.5 465 L 126.5 464 Z " /><path fill="rgb(185,187,189)" stroke="rgb(185,187,189)" stroke-width="1" opacity="1" d="M 371.5 464 L 375 464.5 L 371.5 465 L 371.5 464 Z " /><path fill="rgb(185,187,189)" stroke="rgb(185,187,189)" stroke-width="1" opacity="1" d="M 365.5 465 L 364.5 467 L 365.5 465 Z " /><path fill="rgb(185,187,189)" stroke="rgb(185,187,189)" stroke-width="1" opacity="1" d="M 119.5 467 L 118.5 469 L 119.5 467 Z " /><path fill="rgb(185,187,189)" stroke="rgb(185,187,189)" stroke-width="1" opacity="1" d="M 446.5 467 L 444.5 470 L 446.5 467 Z " /><path fill="rgb(185,187,189)" stroke="rgb(185,187,189)" stroke-width="1" opacity="1" d="M 362.5 469 L 361.5 471 L 362.5 469 Z " /><path fill="rgb(185,187,189)" stroke="rgb(185,187,189)" stroke-width="1" opacity="1" d="M 441.5 471 L 440.5 473 L 441.5 471 Z " /><path fill="rgb(185,187,189)" stroke="rgb(185,187,189)" stroke-width="1" opacity="1" d="M 365.5 472 L 364.5 474 L 365.5 472 Z " /><path fill="rgb(185,187,189)" stroke="rgb(185,187,189)" stroke-width="1" opacity="1" d="M 359.5 473 L 356.5 477 L 359.5 473 Z " /><path fill="rgb(185,187,189)" stroke="rgb(185,187,189)" stroke-width="1" opacity="1" d="M 115.5 474 L 116 476.5 L 115 476.5 L 115.5 474 Z " /><path fill="rgb(185,187,189)" stroke="rgb(185,187,189)" stroke-width="1" opacity="1" d="M 149.5 474 L 150 476.5 L 149 476.5 L 149.5 474 Z " /><path fill="rgb(185,187,189)" stroke="rgb(185,187,189)" stroke-width="1" opacity="1" d="M 153.5 476 L 154 478.5 L 153 478.5 L 153.5 476 Z " /><path fill="rgb(185,187,189)" stroke="rgb(185,187,189)" stroke-width="1" opacity="1" d="M 361.5 477 L 358.5 481 L 361.5 477 Z " /><path fill="rgb(185,187,189)" stroke="rgb(185,187,189)" stroke-width="1" opacity="1" d="M 115.5 484 L 116 487.5 L 115 487.5 L 115.5 484 Z " /><path fill="rgb(185,187,189)" stroke="rgb(185,187,189)" stroke-width="1" opacity="1" d="M 347.5 485 L 344.5 489 L 347.5 485 Z " /><path fill="rgb(185,187,189)" stroke="rgb(185,187,189)" stroke-width="1" opacity="1" d="M 153.5 486 L 154 489.5 L 153 489.5 L 153.5 486 Z " /><path fill="rgb(185,187,189)" stroke="rgb(185,187,189)" stroke-width="1" opacity="1" d="M 149.5 488 L 150 490.5 L 149 490.5 L 149.5 488 Z " /><path fill="rgb(185,187,189)" stroke="rgb(185,187,189)" stroke-width="1" opacity="1" d="M 350.5 488 L 347.5 492 L 350.5 488 Z " /><path fill="rgb(185,187,189)" stroke="rgb(185,187,189)" stroke-width="1" opacity="1" d="M 341.5 490 L 340.5 492 L 341.5 490 Z " /><path fill="rgb(185,187,189)" stroke="rgb(185,187,189)" stroke-width="1" opacity="1" d="M 394.5 492 L 397 492.5 L 394.5 493 L 394.5 492 Z " /><path fill="rgb(185,187,189)" stroke="rgb(185,187,189)" stroke-width="1" opacity="1" d="M 344.5 493 L 343.5 495 L 344.5 493 Z " /><path fill="rgb(185,187,189)" stroke="rgb(185,187,189)" stroke-width="1" opacity="1" d="M 385.5 494 L 388 494.5 L 385.5 495 L 385.5 494 Z " /><path fill="rgb(185,187,189)" stroke="rgb(185,187,189)" stroke-width="1" opacity="1" d="M 155.5 495 L 156.5 497 L 155.5 495 Z " /><path fill="rgb(185,187,189)" stroke="rgb(185,187,189)" stroke-width="1" opacity="1" d="M 379.5 495 L 382 495.5 L 379.5 496 L 379.5 495 Z " /><path fill="rgb(185,187,189)" stroke="rgb(185,187,189)" stroke-width="1" opacity="1" d="M 340.5 496 L 341.5 497 L 362 497.5 L 340 498 L 340.5 496 Z " /><path fill="rgb(185,187,189)" stroke="rgb(185,187,189)" stroke-width="1" opacity="1" d="M 370.5 496 L 375 496.5 L 370.5 497 L 370.5 496 Z " /><path fill="rgb(185,187,189)" stroke="rgb(185,187,189)" stroke-width="1" opacity="1" d="M 324.5 497 L 327 497.5 L 324.5 498 L 324.5 497 Z " /><path fill="rgb(234,234,233)" stroke="rgb(234,234,233)" stroke-width="1" opacity="1" d="M 142.5 150 L 143.5 152 L 142.5 150 Z " /><path fill="rgb(234,234,233)" stroke="rgb(234,234,233)" stroke-width="1" opacity="1" d="M 151.5 169 L 149.5 172 L 151.5 169 Z " /><path fill="rgb(234,234,233)" stroke="rgb(234,234,233)" stroke-width="1" opacity="1" d="M 257.5 188 L 255.5 191 L 257.5 188 Z " /><path fill="rgb(234,234,233)" stroke="rgb(234,234,233)" stroke-width="1" opacity="1" d="M 157.5 256 L 158.5 258 L 157.5 256 Z " /><path fill="rgb(234,234,233)" stroke="rgb(234,234,233)" stroke-width="1" opacity="1" d="M 220.5 256 L 215.5 262 L 220.5 256 Z " /><path fill="rgb(234,234,233)" stroke="rgb(234,234,233)" stroke-width="1" opacity="1" d="M 214.5 269 L 209.5 275 L 214.5 269 Z " /><path fill="rgb(234,234,233)" stroke="rgb(234,234,233)" stroke-width="1" opacity="1" d="M 335.5 270 L 336.5 272 L 335.5 270 Z " /><path fill="rgb(234,234,233)" stroke="rgb(234,234,233)" stroke-width="1" opacity="1" d="M 346.5 281 L 347.5 283 L 346.5 281 Z " /><path fill="rgb(234,234,233)" stroke="rgb(234,234,233)" stroke-width="1" opacity="1" d="M 349.5 286 L 352 289.5 L 350 288.5 L 349.5 286 Z " /><path fill="rgb(234,234,233)" stroke="rgb(234,234,233)" stroke-width="1" opacity="1" d="M 354.5 295 L 357 300.5 L 356 300.5 L 354.5 295 Z " /><path fill="rgb(234,234,233)" stroke="rgb(234,234,233)" stroke-width="1" opacity="1" d="M 357.5 302 L 359 305.5 L 358 305.5 L 357.5 302 Z " /><path fill="rgb(234,234,233)" stroke="rgb(234,234,233)" stroke-width="1" opacity="1" d="M 360.5 310 L 362 313.5 L 361 313.5 L 360.5 310 Z " /><path fill="rgb(234,234,233)" stroke="rgb(234,234,233)" stroke-width="1" opacity="1" d="M 181.5 324 L 177.5 329 L 181.5 324 Z " /><path fill="rgb(234,234,233)" stroke="rgb(234,234,233)" stroke-width="1" opacity="1" d="M 198.5 329 L 200.5 332 L 198.5 329 Z " /><path fill="rgb(234,234,233)" stroke="rgb(234,234,233)" stroke-width="1" opacity="1" d="M 366.5 330 L 367 332.5 L 366 332.5 L 366.5 330 Z " /><path fill="rgb(234,234,233)" stroke="rgb(234,234,233)" stroke-width="1" opacity="1" d="M 367.5 335 L 368 337.5 L 367 337.5 L 367.5 335 Z " /><path fill="rgb(234,234,233)" stroke="rgb(234,234,233)" stroke-width="1" opacity="1" d="M 427.5 337 L 430 338.5 L 428.5 338 L 427.5 337 Z " /><path fill="rgb(234,234,233)" stroke="rgb(234,234,233)" stroke-width="1" opacity="1" d="M 368.5 340 L 369 344.5 L 368 344.5 L 368.5 340 Z " /><path fill="rgb(234,234,233)" stroke="rgb(234,234,233)" stroke-width="1" opacity="1" d="M 433.5 340 L 435.5 343 L 433.5 340 Z " /><path fill="rgb(234,234,233)" stroke="rgb(234,234,233)" stroke-width="1" opacity="1" d="M 437.5 343 L 447.5 354 L 437.5 343 Z " /><path fill="rgb(234,234,233)" stroke="rgb(234,234,233)" stroke-width="1" opacity="1" d="M 210.5 346 L 209.5 348 L 210.5 346 Z " /><path fill="rgb(234,234,233)" stroke="rgb(234,234,233)" stroke-width="1" opacity="1" d="M 369.5 347 L 370 351.5 L 369 351.5 L 369.5 347 Z " /><path fill="rgb(234,234,233)" stroke="rgb(234,234,233)" stroke-width="1" opacity="1" d="M 448.5 355 L 454 362.5 L 452 361.5 L 448.5 355 Z " /><path fill="rgb(234,234,233)" stroke="rgb(234,234,233)" stroke-width="1" opacity="1" d="M 370.5 357 L 371 385.5 L 370 385.5 L 370.5 357 Z " /><path fill="rgb(234,234,233)" stroke="rgb(234,234,233)" stroke-width="1" opacity="1" d="M 198.5 358 L 197.5 360 L 198.5 358 Z " /><path fill="rgb(234,234,233)" stroke="rgb(234,234,233)" stroke-width="1" opacity="1" d="M 428.5 369 L 431 369.5 L 428.5 370 L 428.5 369 Z " /><path fill="rgb(234,234,233)" stroke="rgb(234,234,233)" stroke-width="1" opacity="1" d="M 442.5 369 L 445 369.5 L 442.5 370 L 442.5 369 Z " /><path fill="rgb(234,234,233)" stroke="rgb(234,234,233)" stroke-width="1" opacity="1" d="M 369.5 390 L 370 395.5 L 369 395.5 L 369.5 390 Z " /><path fill="rgb(234,234,233)" stroke="rgb(234,234,233)" stroke-width="1" opacity="1" d="M 462.5 395 Q 465.8 396.8 464 403.5 L 463 403.5 Q 463.6 396.7 462.5 395 Z " /><path fill="rgb(234,234,233)" stroke="rgb(234,234,233)" stroke-width="1" opacity="1" d="M 368.5 399 L 369 401.5 L 368 401.5 L 368.5 399 Z " /><path fill="rgb(234,234,233)" stroke="rgb(234,234,233)" stroke-width="1" opacity="1" d="M 367.5 404 L 368 406.5 L 367 406.5 L 367.5 404 Z " /><path fill="rgb(234,234,233)" stroke="rgb(234,234,233)" stroke-width="1" opacity="1" d="M 158.5 405 L 159.5 407 L 158.5 405 Z " /><path fill="rgb(234,234,233)" stroke="rgb(234,234,233)" stroke-width="1" opacity="1" d="M 462.5 408 L 463 411.5 L 462 411.5 L 462.5 408 Z " /><path fill="rgb(234,234,233)" stroke="rgb(234,234,233)" stroke-width="1" opacity="1" d="M 366.5 409 L 367 411.5 L 366 411.5 L 366.5 409 Z " /><path fill="rgb(234,234,233)" stroke="rgb(234,234,233)" stroke-width="1" opacity="1" d="M 158.5 413 L 163.5 419 L 158.5 413 Z " /><path fill="rgb(234,234,233)" stroke="rgb(234,234,233)" stroke-width="1" opacity="1" d="M 365.5 413 L 366 415.5 L 365 415.5 L 365.5 413 Z " /><path fill="rgb(234,234,233)" stroke="rgb(234,234,233)" stroke-width="1" opacity="1" d="M 461.5 414 L 462 416.5 L 461 416.5 L 461.5 414 Z " /><path fill="rgb(234,234,233)" stroke="rgb(234,234,233)" stroke-width="1" opacity="1" d="M 435.5 420 L 436.5 422 L 435.5 420 Z " /><path fill="rgb(234,234,233)" stroke="rgb(234,234,233)" stroke-width="1" opacity="1" d="M 362.5 423 L 363 424.5 L 361.5 427 L 361 425.5 L 362.5 423 Z " /><path fill="rgb(234,234,233)" stroke="rgb(234,234,233)" stroke-width="1" opacity="1" d="M 439.5 423 L 447.5 432 L 439.5 423 Z " /><path fill="rgb(234,234,233)" stroke="rgb(234,234,233)" stroke-width="1" opacity="1" d="M 424.5 435 L 425.5 437 L 424.5 435 Z " /><path fill="rgb(234,234,233)" stroke="rgb(234,234,233)" stroke-width="1" opacity="1" d="M 356.5 437 L 356 438.5 L 353.5 443 L 354 441.5 L 356.5 437 Z " /><path fill="rgb(234,234,233)" stroke="rgb(234,234,233)" stroke-width="1" opacity="1" d="M 451.5 437 L 454 437.5 Q 451.9 440.8 451.5 437 Z " /><path fill="rgb(234,234,233)" stroke="rgb(234,234,233)" stroke-width="1" opacity="1" d="M 429.5 439 L 431.5 442 L 429.5 439 Z " /><path fill="rgb(234,234,233)" stroke="rgb(234,234,233)" stroke-width="1" opacity="1" d="M 352.5 444 L 352 445.5 Q 343.8 459.8 331.5 470 L 342 458.5 L 352.5 444 Z " /><path fill="rgb(234,234,233)" stroke="rgb(234,234,233)" stroke-width="1" opacity="1" d="M 433.5 444 L 434.5 446 L 433.5 444 Z " /><path fill="rgb(234,234,233)" stroke="rgb(234,234,233)" stroke-width="1" opacity="1" d="M 206.5 454 L 207.5 456 L 206.5 454 Z " /><path fill="rgb(234,234,233)" stroke="rgb(234,234,233)" stroke-width="1" opacity="1" d="M 439.5 457 L 430.5 467 L 439.5 457 Z " /><path fill="rgb(234,234,233)" stroke="rgb(234,234,233)" stroke-width="1" opacity="1" d="M 154.5 462 L 153.5 464 L 154.5 462 Z " /><path fill="rgb(234,234,233)" stroke="rgb(234,234,233)" stroke-width="1" opacity="1" d="M 120.5 467 L 118.5 470 L 120.5 467 Z " /><path fill="rgb(234,234,233)" stroke="rgb(234,234,233)" stroke-width="1" opacity="1" d="M 428.5 467 L 425.5 471 L 428.5 467 Z " /><path fill="rgb(234,234,233)" stroke="rgb(234,234,233)" stroke-width="1" opacity="1" d="M 329.5 470 L 325.5 475 L 329.5 470 Z " /><path fill="rgb(234,234,233)" stroke="rgb(234,234,233)" stroke-width="1" opacity="1" d="M 423.5 471 L 421.5 474 L 423.5 471 Z " /><path fill="rgb(234,234,233)" stroke="rgb(234,234,233)" stroke-width="1" opacity="1" d="M 389.5 473 L 390 475.5 L 389 475.5 L 389.5 473 Z " /><path fill="rgb(234,234,233)" stroke="rgb(234,234,233)" stroke-width="1" opacity="1" d="M 419.5 474 L 418.5 476 L 411.5 480 L 412.5 478 L 419.5 474 Z " /><path fill="rgb(234,234,233)" stroke="rgb(234,234,233)" stroke-width="1" opacity="1" d="M 323.5 475 L 322.5 477 L 320.5 478 L 321.5 476 L 323.5 475 Z " /><path fill="rgb(234,234,233)" stroke="rgb(234,234,233)" stroke-width="1" opacity="1" d="M 408.5 476 L 410 480.5 L 408 481 L 408.5 476 Z " /><path fill="rgb(234,234,233)" stroke="rgb(234,234,233)" stroke-width="1" opacity="1" d="M 115.5 479 L 116 481.5 L 115 481.5 L 115.5 479 Z " /><path fill="rgb(234,234,233)" stroke="rgb(234,234,233)" stroke-width="1" opacity="1" d="M 359.5 480 L 357.5 483 L 359.5 480 Z " /><path fill="rgb(234,234,233)" stroke="rgb(234,234,233)" stroke-width="1" opacity="1" d="M 148.5 481 L 149 484.5 L 148 484.5 L 148.5 481 Z " /><path fill="rgb(234,234,233)" stroke="rgb(234,234,233)" stroke-width="1" opacity="1" d="M 212.5 481 L 308 481.5 L 212.5 482 L 212.5 481 Z " /><path fill="rgb(234,234,233)" stroke="rgb(234,234,233)" stroke-width="1" opacity="1" d="M 353.5 486 L 351.5 489 L 353.5 486 Z " /><path fill="rgb(234,234,233)" stroke="rgb(234,234,233)" stroke-width="1" opacity="1" d="M 381.5 491 L 384 491.5 L 381.5 492 L 381.5 491 Z " /><path fill="rgb(234,234,233)" stroke="rgb(234,234,233)" stroke-width="1" opacity="1" d="M 373.5 493 L 376 493.5 L 373.5 494 L 373.5 493 Z " /><path fill="rgb(234,234,233)" stroke="rgb(234,234,233)" stroke-width="1" opacity="1" d="M 369.5 494 L 372 494.5 L 369.5 495 L 369.5 494 Z " /><path fill="rgb(234,234,233)" stroke="rgb(234,234,233)" stroke-width="1" opacity="1" d="M 363.5 495 L 366 495.5 L 363.5 496 L 363.5 495 Z " /><path fill="rgb(234,234,233)" stroke="rgb(234,234,233)" stroke-width="1" opacity="1" d="M 355.5 496 L 361 496.5 L 355.5 497 L 355.5 496 Z " /><path fill="rgb(234,234,234)" stroke="rgb(234,234,234)" stroke-width="1" opacity="1" d="M 244.5 15 L 248 16.5 L 255 66.5 Q 267.3 87.3 274 113.5 Q 272.7 118.2 275 119.5 L 275 138.5 L 273 149.5 L 268 163.5 Q 261.4 178.4 250 188.5 L 250 192 L 252.5 193 L 258 188.5 Q 257.3 185.9 260 187 L 262 198.5 L 269 214.5 Q 278.2 230.8 292.5 242 L 326.5 263 L 346 280.5 Q 359.2 301.3 366 328.5 L 369 351.5 L 370 352.5 L 370 389.5 L 369 390.5 L 369 398.5 L 367 408.5 L 360 430.5 Q 349 454 330.5 470 Q 323.2 478.2 310.5 481 L 154 481 Q 153.1 473.4 156 468.5 L 159.5 465 Q 168.5 460 184.5 462 L 185.5 463 L 200.5 463 L 201.5 464 L 219.5 464 L 221 461.5 Q 219.3 457.3 211.5 459 L 194 442.5 Q 186 433.5 181 421.5 L 178 409.5 L 178 397.5 L 180 388.5 L 187 373.5 Q 196.1 359.1 208.5 348 L 229 332.5 Q 230.8 326.8 224.5 329 Q 205.3 341.3 191 358.5 Q 182.4 368.4 177 381.5 L 173 396.5 L 173 410.5 L 176 420.5 L 174.5 421 L 160 407.5 Q 142.3 387.2 132 359.5 Q 161.1 346.1 182 324.5 L 184.5 321 Q 197.1 325.4 204 335.5 L 205.5 338 Q 209.9 339.5 209 336.5 Q 215 329.8 216 319 L 260.5 309 L 263 306.5 L 261.5 304 L 251.5 305 L 217.5 314 L 208.5 315 L 166.5 301 L 153.5 298 L 145.5 298 L 134.5 296 L 127 291.5 Q 123.7 286.8 125 277.5 L 130 258.5 L 135.5 250 L 140.5 249 L 152.5 253 L 162.5 261 L 180.5 270 L 198.5 275 L 209.5 275 L 238 246.5 L 238 244.5 L 234.5 243 L 215.5 261 L 215 259.5 L 218 244.5 L 218 214.5 L 217 213.5 L 217 205.5 L 215 194 L 208.5 194 L 207.5 193 L 193.5 193 L 192.5 194 L 180.5 194 L 179.5 195 L 161.5 197 L 137.5 204 L 121.5 211 Q 109.3 205.2 101 195.5 Q 100.3 193.3 102.5 194 L 125 180.5 Q 126.5 176.1 123.5 177 L 121.5 177 L 96.5 191 L 85 173.5 L 121.5 171 L 123 169.5 L 122.5 166 L 111.5 166 L 110.5 167 L 82 168 L 77 147.5 L 76 125.5 L 75 124.5 L 75 103.5 L 65 57.5 L 65 51.5 Q 66.3 48.8 67.5 51 L 97.5 68 L 102.5 69 Q 120.9 55.9 145.5 49 L 177.5 43 L 204.5 43 L 205.5 44 L 222 45 L 244.5 15 Z M 190 118 Q 184 120 186 128 L 193 132 L 197 131 L 200 127 L 199 121 Q 197 116 190 118 Z M 144 133 L 139 135 L 138 138 L 138 143 L 142 151 L 145 152 L 148 156 L 149 161 L 148 166 Q 146 170 140 169 L 137 172 L 138 174 Q 145 175 150 172 L 153 168 L 156 170 Q 164 171 168 169 Q 169 165 167 164 L 158 165 L 154 162 L 152 154 L 156 147 Q 158 139 155 136 L 153 133 L 144 133 Z M 111 134 Q 106 136 107 144 Q 108 148 116 147 L 119 142 L 118 138 Q 117 133 111 134 Z M 217 135 L 186 152 Q 183 153 184 157 L 189 157 L 220 139 Q 222 133 217 135 Z M 221 159 L 220 160 L 189 164 L 187 166 L 189 169 L 221 165 L 227 163 L 227 159 L 221 159 Z " /><path fill="rgb(234,234,234)" stroke="rgb(234,234,234)" stroke-width="1" opacity="1" d="M 82.5 252 L 83 254.5 L 80 259.5 L 75 276.5 L 75 281.5 L 73.5 283 L 65 275.5 L 62 267.5 L 68.5 260 L 82.5 252 Z " /><path fill="rgb(234,234,234)" stroke="rgb(234,234,234)" stroke-width="1" opacity="1" d="M 425.5 337 Q 439.7 342.8 448 354.5 L 458 371.5 L 455.5 372 L 444.5 369 L 428.5 369 L 426.5 370 Q 419.4 361.1 417 347.5 L 419 341.5 L 421.5 339 L 425.5 337 Z " /><path fill="rgb(234,234,234)" stroke="rgb(234,234,234)" stroke-width="1" opacity="1" d="M 431 388 L 448.5 389 L 458.5 393 L 463 396.5 L 463 407.5 L 461 418.5 L 456 432.5 L 452.5 438 L 439.5 423 L 430 416.5 L 432 395.5 L 431 394.5 L 431 388 Z " /><path fill="rgb(234,234,234)" stroke="rgb(234,234,234)" stroke-width="1" opacity="1" d="M 144.5 395 Q 152.2 408.8 163.5 419 L 180 430.5 L 188 442.5 L 189 447.5 L 187 457 L 166.5 457 Q 157.9 458.4 153 463.5 L 149 473.5 L 148 484.5 L 151 496.5 L 120.5 497 Q 113.6 490.4 116 474.5 Q 117.4 468.4 122.5 466 L 131.5 464 L 144 464 L 144.5 395 Z " /><path fill="rgb(234,234,234)" stroke="rgb(234,234,234)" stroke-width="1" opacity="1" d="M 422.5 435 L 433 443.5 L 440 456.5 Q 427.3 471.6 409 480 L 407 463.5 L 404 454.5 L 419 440.5 L 422.5 435 Z " /><path fill="rgb(234,234,234)" stroke="rgb(234,234,234)" stroke-width="1" opacity="1" d="M 383.5 463 Q 388.3 461.3 387 465.5 L 389 469.5 L 390 483.5 L 387.5 490 L 362.5 496 L 342.5 497 L 344.5 494 L 360 480.5 L 371.5 465 L 376.5 465 L 383.5 463 Z " /><path fill="rgb(90,91,93)" stroke="rgb(90,91,93)" stroke-width="1" opacity="0.9254901960784314" d="M 242.5 10 Q 250.2 8.2 252 12.5 L 254 18.5 L 254 25.5 L 255 26.5 L 260 65.5 Q 272.7 85.8 279 112.5 Q 277.8 117.3 280 118.5 L 280 139.5 L 276 157.5 Q 271.7 170.7 264 180.5 L 264 185.5 Q 271.4 218.1 293.5 236 L 302.5 243 L 332.5 261 L 354 281.5 Q 372.4 302.6 382 332.5 L 386 347.5 L 389 363.5 L 389 371.5 L 390 372.5 L 390 405.5 L 389 406.5 L 388 421.5 L 383 441.5 L 374 459.5 L 376.5 460 Q 400.3 455.3 413 439.5 Q 427.3 424.3 427 394.5 L 423 375.5 L 414 357.5 L 412 345.5 Q 413.8 337.9 419.5 334 Q 425.6 330.1 437.5 332 Q 453.3 336.2 463 346.5 L 465 349.5 Q 477.9 361.1 483 380.5 L 485 390.5 L 485 410.5 Q 477.4 449.4 451.5 470 Q 430.2 488.7 398.5 497 L 377.5 501 L 368.5 501 L 367.5 502 L 334.5 502 L 330.5 501 L 329.5 502 L 118.5 502 L 115 500 Q 108.7 491.1 111 472.5 L 117.5 463 L 124.5 460 L 139 459 L 139 385.5 L 126.5 361 L 107 369.5 L 106 405.5 L 105 406.5 L 105 414.5 L 101.5 419 Q 94.6 419.9 93 415.5 L 74.5 382 L 30.5 378 L 27 374.5 Q 26.4 369.1 28 367 L 76 343 L 74 331.5 L 74 323.5 L 73 322.5 L 73 289.5 L 70.5 287 L 60 277.5 L 57 270.5 L 57 266.5 Q 60 259 66.5 255 L 80 248 L 76.5 243 L 61 235.5 L 61 233.5 L 71.5 223 L 88.5 213 L 99.5 210 L 110 209.5 L 94.5 198 L 92.5 199 Q 90.3 198.3 91 194.5 Q 93.5 193 90 191.5 L 78.5 173 Q 75.9 173.8 77 170.5 L 77 168.5 L 72 148.5 L 71 126.5 L 70 125.5 L 70 104.5 L 59 52.5 L 61 47 L 68.5 45 L 97.5 62 L 102.5 63 Q 123.1 48.1 152.5 42 L 157.5 42 L 169.5 39 L 176.5 39 L 177.5 38 L 204.5 38 L 205.5 39 L 218.5 40 L 242.5 10 Z M 245 14 L 220 45 L 211 43 L 202 43 L 201 42 L 172 43 L 147 48 Q 121 55 103 68 L 98 67 L 69 50 Q 65 49 64 52 L 64 57 L 74 103 L 75 135 L 76 136 L 77 153 L 82 169 L 91 169 L 92 168 L 106 168 L 107 167 L 122 167 L 123 169 L 122 170 Q 117 169 116 171 L 87 172 L 84 174 L 97 192 L 124 177 L 125 180 L 102 193 L 100 196 Q 109 206 123 212 L 149 201 L 171 196 L 187 195 L 188 194 L 213 194 L 215 197 Q 214 201 216 203 L 217 228 L 218 229 Q 216 236 217 248 L 214 261 L 215 263 L 235 244 Q 238 243 237 247 L 208 275 L 193 273 L 183 270 L 163 260 L 151 251 Q 145 248 136 249 L 131 255 L 127 265 L 125 273 L 125 283 L 124 284 L 126 292 Q 129 296 135 297 L 150 298 L 168 302 L 209 316 L 261 304 L 262 307 L 258 309 L 216 318 Q 214 330 208 337 Q 204 338 205 336 Q 199 326 187 321 L 184 321 L 161 342 L 140 355 L 131 358 Q 140 386 158 407 L 176 422 L 177 423 L 174 413 L 174 396 L 177 384 Q 183 369 192 359 Q 206 341 227 329 L 228 333 L 209 347 Q 195 358 186 374 L 179 390 L 177 401 Q 177 414 181 424 L 193 443 L 211 459 L 219 460 L 220 463 L 218 464 L 217 463 L 183 462 L 182 461 L 171 461 L 160 464 L 156 468 L 153 477 Q 151 489 155 496 L 159 498 L 327 498 Q 338 496 345 489 Q 364 473 375 450 L 383 425 L 384 413 L 385 412 L 385 403 L 386 402 L 385 367 L 378 335 Q 368 304 349 283 L 327 262 L 293 241 Q 267 222 260 185 L 256 190 Q 255 193 251 192 L 251 189 Q 261 180 267 168 L 274 149 L 275 137 L 276 136 L 276 123 L 273 107 L 262 78 L 255 65 L 249 17 Q 249 13 245 14 Z M 186 198 L 185 199 L 176 199 L 160 202 L 143 207 Q 124 214 111 225 Q 94 238 85 260 L 79 280 L 78 294 L 77 295 L 77 318 L 78 319 L 78 328 L 81 345 L 33 370 L 31 373 L 33 374 L 42 374 L 43 375 L 52 375 L 53 376 L 78 378 L 97 413 Q 96 415 100 414 L 101 413 L 103 366 L 127 357 L 143 349 L 170 330 Q 180 323 185 312 L 171 307 L 165 307 L 152 302 L 136 301 L 128 298 Q 122 296 121 290 L 121 274 L 127 255 L 125 253 Q 118 250 117 241 L 120 239 L 123 247 L 128 250 L 130 250 L 136 245 Q 145 244 151 247 L 167 258 L 186 267 L 197 270 L 207 271 L 210 265 L 213 243 L 204 246 L 193 246 L 179 242 Q 166 236 157 227 L 159 224 L 174 235 L 191 242 Q 206 244 213 239 L 214 237 L 213 210 L 211 201 L 211 198 L 186 198 Z M 103 214 Q 79 218 67 234 Q 80 237 88 246 L 98 232 L 117 216 L 115 214 L 103 214 Z M 83 251 L 69 259 L 61 268 L 64 276 L 72 283 L 75 284 L 79 265 L 85 252 L 83 251 Z M 189 314 L 188 318 Q 200 321 207 331 Q 211 327 211 320 L 189 314 Z M 427 336 L 422 338 L 417 344 L 417 353 L 426 372 L 431 392 Q 432 424 418 441 L 401 456 L 384 463 L 372 464 L 358 482 L 342 496 Q 339 495 340 498 L 375 497 L 404 491 Q 431 482 451 465 Q 461 455 469 443 L 477 426 L 481 407 L 481 394 L 479 383 Q 475 367 466 357 L 449 341 L 436 336 L 427 336 Z M 145 394 L 144 463 L 127 464 L 120 467 L 115 475 Q 114 487 117 495 L 121 498 L 152 498 L 149 488 Q 148 471 154 463 L 166 458 L 187 458 L 190 447 L 189 443 L 181 431 L 163 417 L 145 394 Z M 194 449 L 192 458 L 203 459 L 194 449 Z " /><path fill="rgb(90,91,93)" stroke="rgb(90,91,93)" stroke-width="1" opacity="0.9254901960784314" d="M 191.5 118 L 198 120.5 L 199 126.5 L 196.5 130 L 191.5 131 L 187 127.5 L 186 123.5 L 189.5 119 L 191.5 118 Z " /><path fill="rgb(90,91,93)" stroke="rgb(90,91,93)" stroke-width="1" opacity="0.9254901960784314" d="M 147.5 133 Q 153.7 132.3 155 136.5 L 155 147.5 Q 150.7 149.7 152 157.5 Q 153.3 163.3 157.5 166 L 166.5 165 Q 170 167 165.5 169 L 158.5 170 L 152.5 167 L 149.5 171 L 139.5 174 L 138 171.5 Q 140 168.5 145.5 169 L 149 165.5 L 150 163.5 L 148 153 L 141 147.5 Q 138 144.5 139 137.5 L 141.5 135 L 147.5 133 Z " /><path fill="rgb(90,91,93)" stroke="rgb(90,91,93)" stroke-width="1" opacity="0.9254901960784314" d="M 110.5 135 Q 116 134 117 137.5 L 118 142.5 L 115.5 146 L 112.5 147 L 108 143.5 L 107 140.5 L 110.5 135 Z " /><path fill="rgb(90,91,93)" stroke="rgb(90,91,93)" stroke-width="1" opacity="0.9254901960784314" d="M 218.5 135 L 220 137.5 L 190.5 155 L 185 156 Q 183.5 152.2 186.5 153 L 218.5 135 Z " /><path fill="rgb(90,91,93)" stroke="rgb(90,91,93)" stroke-width="1" opacity="0.9254901960784314" d="M 218.5 160 L 226 160 L 226 163 L 202.5 167 L 196.5 167 L 195.5 168 L 188 168 Q 186.3 163.5 191.5 165 L 218.5 160 Z " /><path fill="rgb(90,91,93)" stroke="rgb(90,91,93)" stroke-width="1" opacity="0.9254901960784314" d="M 188.5 209 Q 194.8 207.1 193 212 L 187 213 L 188.5 209 Z " /><path fill="rgb(90,91,93)" stroke="rgb(90,91,93)" stroke-width="1" opacity="0.9254901960784314" d="M 105 257 L 108 258.5 Q 108.6 264.4 112.5 267 L 121 269 L 119.5 273 Q 109.6 272.4 106 265.5 L 104 259.5 L 105 257 Z " /><path fill="rgb(90,91,93)" stroke="rgb(90,91,93)" stroke-width="1" opacity="0.9254901960784314" d="M 105.5 284 L 108 285.5 Q 108.1 291.9 112.5 294 L 121 296 L 119.5 299 L 113.5 299 L 108 296 L 105 291.5 L 104 285.5 L 105.5 284 Z " /><path fill="rgb(90,91,93)" stroke="rgb(90,91,93)" stroke-width="1" opacity="0.9254901960784314" d="M 129 301 L 132 302.5 Q 132.6 308.4 136.5 311 L 145 313 L 143.5 317 Q 133.6 316.4 130 309.5 L 129 301 Z " /></svg>